<svg xmlns="http://www.w3.org/2000/svg" viewBox="0 0 120 120" width="120" height="120">
  <!-- しっぽ(いなずま) -->
  <path d="M86 70 L104 44 L96 44 L108 24 L94 36 L100 36 L88 56 Z" fill="#7a4a13" stroke="#3a2207" stroke-width="2" stroke-linejoin="round"/>
  <path d="M86 70 L102 46 L96 46 L106 30" fill="none" stroke="#f6c945" stroke-width="3" stroke-linejoin="round"/>
  <!-- 足 -->
  <ellipse cx="46" cy="106" rx="11" ry="7" fill="#e8b21f" stroke="#7a5410" stroke-width="2"/>
  <ellipse cx="74" cy="106" rx="11" ry="7" fill="#e8b21f" stroke="#7a5410" stroke-width="2"/>
  <!-- 耳 -->
  <path d="M34 44 C24 24 22 10 30 8 C38 6 44 22 46 40 Z" fill="#f6c945" stroke="#3a2207" stroke-width="2.5" stroke-linejoin="round"/>
  <path d="M86 44 C96 24 98 10 90 8 C82 6 76 22 74 40 Z" fill="#f6c945" stroke="#3a2207" stroke-width="2.5" stroke-linejoin="round"/>
  <path d="M27 16 C23 9 26 8 30 8 C34 9 33 13 33 18 Z" fill="#2b2118"/>
  <path d="M93 16 C97 9 94 8 90 8 C86 9 87 13 87 18 Z" fill="#2b2118"/>
  <!-- 体・頭(ひとまとまり) -->
  <path d="M60 30 C82 30 92 48 92 70 C92 96 78 110 60 110 C42 110 28 96 28 70 C28 48 38 30 60 30 Z" fill="#f6c945" stroke="#3a2207" stroke-width="2.5"/>
  <!-- 腕 -->
  <ellipse cx="33" cy="78" rx="7" ry="11" fill="#f0bd2a" stroke="#7a5410" stroke-width="2"/>
  <ellipse cx="87" cy="78" rx="7" ry="11" fill="#f0bd2a" stroke="#7a5410" stroke-width="2"/>
  <!-- ほっぺ -->
  <circle cx="40" cy="74" r="9" fill="#e8403a"/>
  <circle cx="80" cy="74" r="9" fill="#e8403a"/>
  <!-- 目 -->
  <circle cx="49" cy="60" r="6.5" fill="#2b2118"/>
  <circle cx="71" cy="60" r="6.5" fill="#2b2118"/>
  <circle cx="51" cy="57.5" r="2.2" fill="#fff"/>
  <circle cx="73" cy="57.5" r="2.2" fill="#fff"/>
  <!-- 鼻・口 -->
  <path d="M58 66 q2 2 4 0" fill="none" stroke="#2b2118" stroke-width="1.6" stroke-linecap="round"/>
  <path d="M54 70 q6 6 12 0" fill="none" stroke="#2b2118" stroke-width="1.8" stroke-linecap="round"/>
</svg>
