<svg xmlns="http://www.w3.org/2000/svg" viewBox="0 0 140 150" width="140" height="150">
  <defs>
    <radialGradient id="bodyg" cx="42%" cy="38%" r="75%">
      <stop offset="0%" stop-color="#ffe45c"/><stop offset="62%" stop-color="#fcd23a"/><stop offset="100%" stop-color="#f2b81f"/>
    </radialGradient>
  </defs>
  <!-- しっぽ(いなずま・根元は茶) -->
  <path d="M88 96 C104 92 102 70 116 64 L106 60 C116 50 116 40 122 30 L104 50 L112 52 L98 74 L90 70 Z"
        fill="#f6cf45" stroke="#5a3f12" stroke-width="2.6" stroke-linejoin="round"/>
  <path d="M88 96 C100 92 99 76 108 70 L99 67 L98 82 Z" fill="#8a5a18"/>
  <!-- 足 -->
  <path d="M48 132 q-12 4 -14 -3 q-1 -7 8 -9 l10 1 Z" fill="#f4c22f" stroke="#5a3f12" stroke-width="2.4" stroke-linejoin="round"/>
  <path d="M80 134 q12 4 14 -3 q1 -7 -8 -9 l-10 1 Z" fill="#eeb724" stroke="#5a3f12" stroke-width="2.4" stroke-linejoin="round"/>
  <!-- 耳 -->
  <path d="M38 48 C28 24 28 9 37 8 C46 8 50 26 51 46 Z" fill="#f6cf45" stroke="#5a3f12" stroke-width="2.6" stroke-linejoin="round"/>
  <path d="M88 46 C98 22 100 8 91 8 C82 9 78 27 77 47 Z" fill="#f6cf45" stroke="#5a3f12" stroke-width="2.6" stroke-linejoin="round"/>
  <path d="M33 18 C30 11 33 9 37 9 C41 10 40 14 40 20 Z" fill="#3a2c1d"/>
  <path d="M93 17 C96 10 93 8 89 9 C85 10 86 14 86 20 Z" fill="#3a2c1d"/>
  <!-- 体(頭〜下半身。下が少し広いピカチュウ体型) -->
  <path d="M70 32 C92 32 100 50 100 70 C100 84 96 92 96 102 C96 124 84 138 70 138
           C56 138 44 124 44 102 C44 92 40 84 40 70 C40 50 48 32 70 32 Z"
        fill="url(#bodyg)" stroke="#5a3f12" stroke-width="2.6"/>
  <!-- 背の茶しま(下半身・2本) -->
  <path d="M52 96 q8 5 16 2" fill="none" stroke="#9a6a1e" stroke-width="3.5" stroke-linecap="round" opacity=".8"/>
  <path d="M50 108 q9 5 18 2" fill="none" stroke="#9a6a1e" stroke-width="3.5" stroke-linecap="round" opacity=".7"/>
  <!-- 腕 -->
  <path d="M44 84 q-8 6 -6 16 q5 4 9 -2 q1 -8 1 -14 Z" fill="#f2bf2c" stroke="#5a3f12" stroke-width="2.2" stroke-linejoin="round"/>
  <path d="M96 84 q8 6 6 16 q-5 4 -9 -2 q-1 -8 -1 -14 Z" fill="#f0bd2a" stroke="#5a3f12" stroke-width="2.2" stroke-linejoin="round"/>
  <!-- ほっぺ -->
  <circle cx="48" cy="78" r="10" fill="#e84b40"/>
  <circle cx="92" cy="78" r="10" fill="#e84b40"/>
  <!-- 目 -->
  <ellipse cx="56" cy="62" rx="7" ry="7.8" fill="#2b211a"/>
  <ellipse cx="84" cy="62" rx="7" ry="7.8" fill="#2b211a"/>
  <circle cx="58.4" cy="59" r="2.4" fill="#fff"/>
  <circle cx="86.4" cy="59" r="2.4" fill="#fff"/>
  <!-- 鼻・口 -->
  <path d="M68 70 q2 1.6 4 0" fill="none" stroke="#2b211a" stroke-width="1.7" stroke-linecap="round"/>
  <path d="M62 74 q8 7 16 0" fill="none" stroke="#2b211a" stroke-width="2" stroke-linecap="round"/>
</svg>
