<svg xmlns="http://www.w3.org/2000/svg" viewBox="0 0 360 360">
  <!-- 尻尾 -->
  <path d="M78 215 C48 220 28 242 34 266 C38 284 56 292 68 279 C78 270 75 250 82 236 C86 226 85 219 78 215 Z" fill="#332f3b" stroke="#201c28" stroke-width="7" stroke-linejoin="round"/>

  <!-- 奥の後ろ足 -->
  <path d="M100 236 C95 236 92 241 92 248 L87 292 C86 300 92 306 102 306 C111 306 116 300 115 293 L112 244 C111 239 105 236 100 236 Z" fill="#2a2732" stroke="#201c28" stroke-width="6" stroke-linejoin="round"/>

  <!-- 奥の前足 -->
  <path d="M218 236 C213 236 210 241 210 248 L206 296 C205 305 211 311 222 311 C232 311 237 305 236 297 L233 244 C232 239 224 235 218 236 Z" fill="#2a2732" stroke="#201c28" stroke-width="6" stroke-linejoin="round"/>

  <!-- 体 -->
  <path d="M75 240 C63 204 95 167 140 159 C170 154 206 151 236 168 C259 180 269 206 260 229 C252 253 222 263 185 261 C150 259 118 266 95 259 C82 255 78 249 75 240 Z" fill="#3a3540" stroke="#201c28" stroke-width="8" stroke-linejoin="round"/>

  <!-- お腹(クリーム色) -->
  <path d="M100 250 C96 232 108 216 130 214 C152 212 176 220 190 234 C198 242 194 252 180 254 C158 258 132 260 112 256 C104 254 101 253 100 250 Z" fill="#efe7cf" stroke="#201c28" stroke-width="5" stroke-linejoin="round"/>

  <!-- 手前の後ろ足 -->
  <path d="M124 234 C118 234 114 240 114 248 L109 300 C107 310 115 316 128 316 C139 316 145 310 143 301 L139 242 C138 236 131 233 124 234 Z" fill="#3a3540" stroke="#201c28" stroke-width="7" stroke-linejoin="round"/>

  <!-- 手前の前足 -->
  <path d="M197 226 C191 226 187 232 187 240 L181 297 C179 307 187 314 200 314 C211 314 217 307 215 298 L212 234 C211 228 204 225 197 226 Z" fill="#3a3540" stroke="#201c28" stroke-width="7" stroke-linejoin="round"/>

  <!-- 頭 -->
  <path d="M222 175 C216 148 240 126 268 123 C296 120 319 137 321 161 C323 183 308 201 287 206 C267 211 245 205 231 192 C224 187 223 181 222 175 Z" fill="#3a3540" stroke="#201c28" stroke-width="8" stroke-linejoin="round"/>

  <!-- 耳(奥) -->
  <path d="M236 138 L239 104 L253 141 Z" fill="#2a2732" stroke="#201c28" stroke-width="6" stroke-linejoin="round"/>

  <!-- 耳(手前) -->
  <path d="M257 130 L264 94 L277 132 Z" fill="#3a3540" stroke="#201c28" stroke-width="6" stroke-linejoin="round"/>

  <!-- 顔の緑のバッテン模様 -->
  <path d="M243 149 L296 197" stroke="#5fbf4a" stroke-width="11" stroke-linecap="round"/>
  <path d="M243 197 L296 149" stroke="#5fbf4a" stroke-width="11" stroke-linecap="round"/>

  <!-- 目(赤) -->
  <circle cx="258" cy="167" r="6" fill="#d43a3a" stroke="#201c28" stroke-width="3"/>
  <circle cx="283" cy="167" r="6" fill="#d43a3a" stroke="#201c28" stroke-width="3"/>

  <!-- 鼻先 -->
  <circle cx="317" cy="172" r="4" fill="#201c28"/>

  <!-- 口 -->
  <path d="M296 198 C304 204 312 204 318 199" stroke="#201c28" stroke-width="4" stroke-linecap="round" fill="none"/>

  <!-- 背中の六角形セル(緑) -->
  <polygon points="150,178 156,167 168,167 174,178 168,189 156,189" fill="#5fbf4a" stroke="#201c28" stroke-width="4" stroke-linejoin="round"/>
  <polygon points="186,168 192,157 204,157 210,168 204,179 192,179" fill="#8fe070" stroke="#201c28" stroke-width="4" stroke-linejoin="round"/>
  <polygon points="114,222 120,211 132,211 138,222 132,233 120,233" fill="#5fbf4a" stroke="#201c28" stroke-width="4" stroke-linejoin="round"/>
</svg>
