<svg xmlns="http://www.w3.org/2000/svg" viewBox="0 0 360 360">
<g stroke="#2d263c" stroke-width="7" stroke-linejoin="round" stroke-linecap="round">
<ellipse cx="180" cy="315" rx="130" ry="6" fill="#000000" opacity="0.15" stroke="none"/>
<circle cx="92" cy="95" r="12" fill="#E9C6BE"/>
<circle cx="128" cy="95" r="12" fill="#E9C6BE"/>
<ellipse cx="110" cy="185" rx="48" ry="52" fill="#ECE6DB"/>
<circle cx="110" cy="125" r="40" fill="#ECE6DB"/>
<ellipse cx="74" cy="187" rx="11" ry="20" fill="#ECE6DB" transform="rotate(-22 74 187)"/>
<ellipse cx="146" cy="187" rx="11" ry="20" fill="#ECE6DB" transform="rotate(22 146 187)"/>
<circle cx="96" cy="121" r="6.5" fill="#2d263c" stroke="none"/>
<circle cx="124" cy="121" r="6.5" fill="#2d263c" stroke="none"/>
<path d="M103 141 q7 6 14 0" fill="none" stroke="#2d263c" stroke-width="6"/>
<circle cx="232" cy="95" r="12" fill="#E9C6BE"/>
<circle cx="268" cy="95" r="12" fill="#E9C6BE"/>
<ellipse cx="250" cy="185" rx="48" ry="52" fill="#ECE6DB"/>
<circle cx="250" cy="125" r="40" fill="#ECE6DB"/>
<ellipse cx="214" cy="187" rx="11" ry="20" fill="#ECE6DB" transform="rotate(-22 214 187)"/>
<ellipse cx="286" cy="187" rx="11" ry="20" fill="#ECE6DB" transform="rotate(22 286 187)"/>
<circle cx="236" cy="121" r="6.5" fill="#2d263c" stroke="none"/>
<circle cx="264" cy="121" r="6.5" fill="#2d263c" stroke="none"/>
<path d="M243 141 q7 6 14 0" fill="none" stroke="#2d263c" stroke-width="6"/>
<circle cx="168" cy="223" r="8" fill="#E9C6BE"/>
<circle cx="192" cy="223" r="8" fill="#E9C6BE"/>
<ellipse cx="180" cy="275" rx="26" ry="28" fill="#ECE6DB"/>
<circle cx="180" cy="241" r="22" fill="#ECE6DB"/>
<circle cx="172" cy="237" r="4.5" fill="#2d263c" stroke="none"/>
<circle cx="188" cy="237" r="4.5" fill="#2d263c" stroke="none"/>
<path d="M175 251 q5 5 10 0" fill="none" stroke="#2d263c" stroke-width="6"/>
</g>
</svg>
