<svg xmlns="http://www.w3.org/2000/svg" viewBox="0 0 360 360">
<polygon points="180,44 200,90 160,90" fill="#8a9a72" stroke="#2d263c" stroke-width="7" stroke-linejoin="round"/>
<circle cx="180" cy="42" r="9" fill="#7a5a30" stroke="#2d263c" stroke-width="5"/>
<ellipse cx="180" cy="112" rx="42" ry="36" fill="#b89860" stroke="#2d263c" stroke-width="7"/>
<ellipse cx="166" cy="112" rx="8" ry="10" fill="#5a6a48"/>
<ellipse cx="194" cy="112" rx="8" ry="10" fill="#5a6a48"/>
<path d="M173 128 Q180 133 187 128" fill="none" stroke="#2d263c" stroke-width="4" stroke-linecap="round"/>
<rect x="171" y="144" width="18" height="14" fill="#b89860" stroke="#2d263c" stroke-width="5"/>
<path d="M138 156 Q180 148 222 156 L216 212 Q180 204 144 212 Z" fill="#b89860" stroke="#2d263c" stroke-width="7" stroke-linejoin="round"/>
<path d="M180 168 C170 154 150 158 154 176 Q162 194 180 208 Q198 194 206 176 C210 158 190 154 180 168 Z" fill="#8a4030" stroke="#2d263c" stroke-width="6" stroke-linejoin="round"/>
<circle cx="180" cy="180" r="6" fill="#7a5a30" stroke="#2d263c" stroke-width="3"/>
<path d="M144 206 Q180 198 216 206" fill="none" stroke="#7a5a30" stroke-width="5"/>
<path d="M144 206 Q180 198 216 206 L244 302 Q180 294 116 302 Z" fill="#8a9a72" stroke="#2d263c" stroke-width="7" stroke-linejoin="round"/>
<path d="M124 296 Q180 288 236 296" fill="none" stroke="#7a5a30" stroke-width="5"/>
<path d="M146 158 Q120 180 116 210 L130 214 Q134 186 158 168 Z" fill="#b89860" stroke="#2d263c" stroke-width="6" stroke-linejoin="round"/>
<path d="M214 158 Q240 180 244 210 L230 214 Q226 186 202 168 Z" fill="#b89860" stroke="#2d263c" stroke-width="6" stroke-linejoin="round"/>
<circle cx="150" cy="230" r="7" fill="#5a6a48" stroke="#2d263c" stroke-width="3"/>
<circle cx="210" cy="230" r="7" fill="#5a6a48" stroke="#2d263c" stroke-width="3"/>
<path d="M160 260 Q180 268 200 260" fill="none" stroke="#7a5a30" stroke-width="4" stroke-linecap="round"/>
</svg>
