<svg xmlns="http://www.w3.org/2000/svg" viewBox="0 0 360 360">
  <!-- 尾(後ろ) -->
  <path d="M70 252 C40 250 28 285 56 305 C80 312 100 295 92 274 Z" fill="#3a3540" stroke="#2d263c" stroke-width="7" stroke-linejoin="round"/>

  <!-- 体(蛇胴・S字) -->
  <path d="M88 270 C118 228 102 198 154 184 C214 168 252 218 270 250 C286 274 250 302 208 296 C168 290 150 268 130 280 C110 290 92 286 88 270 Z" fill="#3a3540" stroke="#2d263c" stroke-width="8" stroke-linejoin="round"/>

  <!-- お腹(白) -->
  <path d="M104 270 C128 244 122 214 156 206 C206 196 240 234 258 258 C266 272 244 284 214 280 C174 276 154 260 134 270 C120 277 110 277 104 270 Z" fill="#e8e6e0" stroke="#2d263c" stroke-width="5" stroke-linejoin="round"/>

  <!-- 背中の六角形セル(緑) -->
  <polygon points="148,180 154,169 166,169 172,180 166,191 154,191" fill="#5fa848" stroke="#2d263c" stroke-width="4" stroke-linejoin="round"/>
  <polygon points="185,172 191,161 203,161 209,172 203,183 191,183" fill="#7cc85a" stroke="#2d263c" stroke-width="4" stroke-linejoin="round"/>
  <polygon points="222,180 228,169 240,169 246,180 240,191 228,191" fill="#5fa848" stroke="#2d263c" stroke-width="4" stroke-linejoin="round"/>

  <!-- 首(襟飾り) -->
  <path d="M248 198 C276 192 302 210 300 236 C298 256 274 264 254 254 Z" fill="#3a3540" stroke="#2d263c" stroke-width="7" stroke-linejoin="round"/>
  <polygon points="264,206 270,197 280,197 286,206 280,217 270,217" fill="#5fa848" stroke="#2d263c" stroke-width="5" stroke-linejoin="round"/>

  <!-- 頭 -->
  <path d="M286 192 C322 194 338 222 332 246 C326 266 300 276 282 266 C268 258 268 234 276 220 C279 210 281 200 286 192 Z" fill="#3a3540" stroke="#2d263c" stroke-width="8" stroke-linejoin="round"/>

  <!-- 目 -->
  <path d="M304 218 L324 222 L314 236 Z" fill="#e8e6e0" stroke="#2d263c" stroke-width="4" stroke-linejoin="round"/>
  <circle cx="313" cy="225" r="4" fill="#2d263c"/>

  <!-- 口 -->
  <path d="M298 250 L326 252" stroke="#2d263c" stroke-width="5" stroke-linecap="round"/>
</svg>
