<svg xmlns="http://www.w3.org/2000/svg" viewBox="0 0 360 360">
  <ellipse cx="180" cy="202" rx="34" ry="48" fill="#e8525a" stroke="#2d263c" stroke-width="7" transform="rotate(0 180 202)"/>
  <ellipse cx="180" cy="202" rx="34" ry="48" fill="#e8525a" stroke="#2d263c" stroke-width="7" transform="rotate(72 180 202)"/>
  <ellipse cx="180" cy="202" rx="34" ry="48" fill="#e8525a" stroke="#2d263c" stroke-width="7" transform="rotate(144 180 202)"/>
  <ellipse cx="180" cy="202" rx="34" ry="48" fill="#e8525a" stroke="#2d263c" stroke-width="7" transform="rotate(216 180 202)"/>
  <ellipse cx="180" cy="202" rx="34" ry="48" fill="#e8525a" stroke="#2d263c" stroke-width="7" transform="rotate(288 180 202)"/>
  <circle cx="180" cy="202" r="26" fill="#ffd24a" stroke="#2d263c" stroke-width="7"/>
  <circle cx="180" cy="202" r="14" fill="#e8a838"/>
  <path d="M180,228 Q188,278 180,324" fill="none" stroke="#5aa84a" stroke-width="9" stroke-linecap="round"/>
  <path d="M180,278 Q150,266 140,286 Q166,292 180,284 Z" fill="#5aa84a" stroke="#2d263c" stroke-width="6" stroke-linejoin="round"/>
  <ellipse cx="180" cy="166" rx="26" ry="30" fill="#f0ecec" stroke="#2d263c" stroke-width="8"/>
  <path d="M156,170 Q140,180 158,190" fill="none" stroke="#2d263c" stroke-width="6" stroke-linecap="round"/>
  <path d="M204,170 Q220,180 202,190" fill="none" stroke="#2d263c" stroke-width="6" stroke-linecap="round"/>
  <ellipse cx="168" cy="192" rx="9" ry="12" fill="#f0ecec" stroke="#2d263c" stroke-width="6"/>
  <ellipse cx="192" cy="192" rx="9" ry="12" fill="#f0ecec" stroke="#2d263c" stroke-width="6"/>
  <circle cx="180" cy="118" r="34" fill="#f0ecec" stroke="#2d263c" stroke-width="8"/>
  <path d="M168,90 Q164,72 176,78 Z" fill="#dfdcd6" stroke="#2d263c" stroke-width="5"/>
  <path d="M192,90 Q196,72 184,78 Z" fill="#dfdcd6" stroke="#2d263c" stroke-width="5"/>
  <ellipse cx="169" cy="118" rx="8" ry="11" fill="#2d263c"/>
  <ellipse cx="191" cy="118" rx="8" ry="11" fill="#2d263c"/>
  <circle cx="172" cy="114" r="3" fill="#ffffff"/>
  <circle cx="194" cy="114" r="3" fill="#ffffff"/>
  <path d="M172,134 Q180,140 188,134" fill="none" stroke="#2d263c" stroke-width="4" stroke-linecap="round"/>
</svg>
