<svg xmlns="http://www.w3.org/2000/svg" viewBox="0 0 360 360">
  <path d="M105,195 L45,145 L95,180 L35,165 L92,198 L35,225 L95,213 L45,248 Z" fill="#d0342c" stroke="#2d263c" stroke-width="7" stroke-linejoin="round"/>
  <path d="M165,145 L150,85 L200,90 L205,145 Z" fill="#d0342c" stroke="#2d263c" stroke-width="7" stroke-linejoin="round"/>
  <path d="M165,245 L150,305 L200,300 L205,245 Z" fill="#d0342c" stroke="#2d263c" stroke-width="7" stroke-linejoin="round"/>
  <ellipse cx="195" cy="195" rx="95" ry="60" fill="#28345c" stroke="#2d263c" stroke-width="8"/>
  <path d="M270,150 L325,175 L325,215 L270,240 Z" fill="#28345c" stroke="#2d263c" stroke-width="8" stroke-linejoin="round"/>
  <ellipse cx="200" cy="228" rx="56" ry="22" fill="#f2ede0" stroke="#2d263c" stroke-width="6"/>
  <path d="M125,150 Q170,170 230,158" fill="none" stroke="#d0342c" stroke-width="14" stroke-linecap="round"/>
  <path d="M115,180 Q165,203 245,188" fill="none" stroke="#d0342c" stroke-width="14" stroke-linecap="round"/>
  <path d="M130,205 Q175,224 240,212" fill="none" stroke="#d0342c" stroke-width="12" stroke-linecap="round"/>
  <path d="M255,215 L285,235 L260,245 L245,225 Z" fill="#d0342c" stroke="#2d263c" stroke-width="6" stroke-linejoin="round"/>
  <path d="M250,165 Q245,195 250,220" fill="none" stroke="#2d263c" stroke-width="4" opacity="0.5" stroke-linecap="round"/>
  <path d="M140,165 Q150,168 158,165" fill="none" stroke="#2d263c" stroke-width="4" opacity="0.4" stroke-linecap="round"/>
  <path d="M145,200 Q155,203 163,200" fill="none" stroke="#2d263c" stroke-width="4" opacity="0.4" stroke-linecap="round"/>
  <path d="M275,205 Q300,216 320,199" fill="none" stroke="#2d263c" stroke-width="6" stroke-linecap="round"/>
  <path d="M285,206 L290,196 L295,206 Z M300,209 L305,199 L310,209 Z M313,207 L317,198 L320,207 Z" fill="#fdf0d5" stroke="#2d263c" stroke-width="2" stroke-linejoin="round"/>
  <circle cx="295" cy="170" r="16" fill="#fdf0d5" stroke="#2d263c" stroke-width="5"/>
  <circle cx="300" cy="168" r="8" fill="#2d263c"/>
  <circle cx="297" cy="164" r="2.5" fill="#fdf0d5"/>
  <path d="M278,152 L308,148" stroke="#2d263c" stroke-width="6" stroke-linecap="round"/>
</svg>
