<svg xmlns="http://www.w3.org/2000/svg" viewBox="0 0 360 360">
<polygon points="135,170 68,128 34,148 46,190 26,204 44,230 24,258 52,270 40,298 78,280 84,316 112,278 138,232" fill="#f7f2e0" stroke="#2d263c" stroke-width="7" stroke-linejoin="round"/>
<polygon points="225,170 292,128 326,148 314,190 334,204 316,230 336,258 308,270 320,298 282,280 276,316 248,278 222,232" fill="#f7f2e0" stroke="#2d263c" stroke-width="7" stroke-linejoin="round"/>
<polygon points="88,188 60,218 80,238 100,218" fill="#fffaf0"/>
<polygon points="272,188 300,218 280,238 260,218" fill="#fffaf0"/>
<polygon points="130,150 86,108 142,134" fill="#f0ead2" stroke="#2d263c" stroke-width="6" stroke-linejoin="round"/>
<polygon points="230,150 274,108 218,134" fill="#f0ead2" stroke="#2d263c" stroke-width="6" stroke-linejoin="round"/>
<polygon points="180,108 232,170 212,256 148,256 128,170" fill="#2a2a35" stroke="#2d263c" stroke-width="7" stroke-linejoin="round"/>
<polygon points="180,58 214,96 198,120 162,120 146,96" fill="#2a2a35" stroke="#2d263c" stroke-width="7" stroke-linejoin="round"/>
<polygon points="180,36 190,66 170,66" fill="#4a4a6a" stroke="#2d263c" stroke-width="5" stroke-linejoin="round"/>
<ellipse cx="168" cy="92" rx="5" ry="7" fill="#ff8c30"/>
<ellipse cx="192" cy="92" rx="5" ry="7" fill="#ff8c30"/>
<polygon points="180,156 200,180 180,204 160,180" fill="#f0b429" stroke="#2d263c" stroke-width="5" stroke-linejoin="round"/>
<polygon points="180,170 188,180 180,190 172,180" fill="#ff8040"/>
<circle cx="100" cy="210" r="6" fill="#f0b429" stroke="#2d263c" stroke-width="3"/>
<circle cx="260" cy="210" r="6" fill="#f0b429" stroke="#2d263c" stroke-width="3"/>
<polygon points="158,256 140,312 158,312 168,256" fill="#2a2a35" stroke="#2d263c" stroke-width="7" stroke-linejoin="round"/>
<polygon points="202,256 220,312 202,312 192,256" fill="#2a2a35" stroke="#2d263c" stroke-width="7" stroke-linejoin="round"/>
<polygon points="140,312 150,330 158,312" fill="#2a2a35" stroke="#2d263c" stroke-width="5" stroke-linejoin="round"/>
<polygon points="220,312 210,330 202,312" fill="#2a2a35" stroke="#2d263c" stroke-width="5" stroke-linejoin="round"/>
</svg>
