<svg xmlns="http://www.w3.org/2000/svg" viewBox="0 0 360 360">
  <path d="M35,70 L65,45 L70,90 Z" fill="#3d4bc9" stroke="#2d263c" stroke-width="7" stroke-linejoin="round" stroke-linecap="round"/>
  <path d="M325,70 L350,50 L340,95 Z" fill="#3d4bc9" stroke="#2d263c" stroke-width="7" stroke-linejoin="round" stroke-linecap="round"/>
  <path d="M300,300 L325,280 L315,320 Z" fill="#3d4bc9" stroke="#2d263c" stroke-width="7" stroke-linejoin="round" stroke-linecap="round"/>
  <path d="M300,50 L300,70 M290,60 L310,60" stroke="#2d263c" stroke-width="5" stroke-linecap="round" fill="none"/>
  <path d="M55,260 L55,280 M45,270 L65,270" stroke="#2d263c" stroke-width="5" stroke-linecap="round" fill="none"/>
  <path d="M180,62 L241.7,94.1 L298.9,141.4 L275.1,210.9 L256.4,285.2 L180,290 L109.5,277.1 L80.1,212.4 L58.3,140.4 L114.2,89.4 Z" fill="#3d4bc9" stroke="#2d263c" stroke-width="8" stroke-linejoin="round" stroke-linecap="round"/>
  <path d="M180,180 L180,62" stroke="#2d263c" stroke-width="6" stroke-linecap="round" fill="none"/>
  <path d="M180,180 L298.9,141.4" stroke="#2d263c" stroke-width="6" stroke-linecap="round" fill="none"/>
  <path d="M180,180 L256.4,285.2" stroke="#2d263c" stroke-width="6" stroke-linecap="round" fill="none"/>
  <path d="M180,180 L109.5,277.1" stroke="#2d263c" stroke-width="6" stroke-linecap="round" fill="none"/>
  <path d="M180,180 L58.3,140.4" stroke="#2d263c" stroke-width="6" stroke-linecap="round" fill="none"/>
  <path d="M208,180 L194,204.2 L166,204.2 L152,180 L166,155.8 L194,155.8 Z" fill="#9fb0ff" stroke="#2d263c" stroke-width="6" stroke-linejoin="round"/>
  <ellipse cx="150" cy="110" rx="18" ry="10" fill="#ffffff" opacity="0.35"/>
  <ellipse cx="150" cy="185" rx="11" ry="14" fill="#2d263c"/>
  <ellipse cx="210" cy="185" rx="11" ry="14" fill="#2d263c"/>
  <ellipse cx="153" cy="181" rx="3" ry="4" fill="#ffffff"/>
  <ellipse cx="213" cy="181" rx="3" ry="4" fill="#ffffff"/>
  <path d="M160,206 Q180,220 200,206" stroke="#2d263c" stroke-width="6" stroke-linecap="round" fill="none"/>
</svg>
