<svg xmlns="http://www.w3.org/2000/svg" viewBox="0 0 360 360">
  <!-- 尾びれ(体の後ろ側・先に描く) -->
  <path d="M288 193 L330 160 L308 200 L332 243 L288 213Z" fill="#1F3F66" stroke="#2d263c" stroke-width="7" stroke-linejoin="round" stroke-linecap="round"/>

  <!-- 体(丸くて厚い魚体) -->
  <path d="M95 200 Q80 155 135 143 Q195 125 250 147 Q298 163 300 203 Q302 233 265 247 Q210 265 155 257 Q105 249 90 225 Q82 213 95 200Z" fill="#3B6EA8" stroke="#2d263c" stroke-width="9" stroke-linejoin="round" stroke-linecap="round"/>

  <!-- 背びれ(ギザギザ) -->
  <path d="M158 137 L168 103 L182 133 L195 95 L210 130 L225 107 L238 143Z" fill="#1F3F66" stroke="#2d263c" stroke-width="7" stroke-linejoin="round" stroke-linecap="round"/>

  <!-- 胸びれ -->
  <path d="M118 223 Q95 230 100 250 Q115 257 135 243 Q140 233 118 223Z" fill="#7FB8E0" stroke="#2d263c" stroke-width="6" stroke-linejoin="round" stroke-linecap="round"/>

  <!-- 下あご(受け口・出っ張り) -->
  <path d="M92 200 Q65 210 68 233 Q72 250 98 243 Q110 235 100 217 Q96 207 92 200Z" fill="#3B6EA8" stroke="#2d263c" stroke-width="7" stroke-linejoin="round" stroke-linecap="round"/>

  <!-- 鋭い歯 -->
  <path d="M85 213 L90 225 L78 224Z M96 210 L100 222 L88 221Z M106 209 L109 220 L98 219Z" fill="#FFFFFF" stroke="#2d263c" stroke-width="3" stroke-linejoin="round"/>

  <!-- 青いすじ模様(あおすじの特徴) -->
  <path d="M175 137 Q165 175 178 220" fill="none" stroke="#BFE6FA" stroke-width="9" stroke-linecap="round"/>
  <path d="M205 140 Q195 180 205 225" fill="none" stroke="#BFE6FA" stroke-width="9" stroke-linecap="round"/>
  <path d="M235 147 Q225 183 232 230" fill="none" stroke="#BFE6FA" stroke-width="9" stroke-linecap="round"/>

  <!-- 腹の明るい部分 -->
  <ellipse cx="180" cy="230" rx="55" ry="20" fill="#DCEFFB" stroke="#2d263c" stroke-width="3"/>

  <!-- えらの模様 -->
  <path d="M115 190 Q125 200 115 210" fill="none" stroke="#2d263c" stroke-width="4" stroke-linecap="round"/>

  <!-- 目 -->
  <ellipse cx="150" cy="175" rx="16" ry="17" fill="#FFFFFF" stroke="#2d263c" stroke-width="5"/>
  <ellipse cx="154" cy="176" rx="9" ry="10" fill="#C0392B"/>
  <circle cx="156" cy="176" r="5" fill="#1B1B24"/>
  <circle cx="150" cy="171" r="2.5" fill="#FFFFFF"/>

  <!-- 怒った眉 -->
  <path d="M132 153 Q150 143 168 155" fill="none" stroke="#2d263c" stroke-width="7" stroke-linecap="round"/>
</svg>
