<svg xmlns="http://www.w3.org/2000/svg" viewBox="0 0 360 360">
<ellipse cx="180" cy="230" rx="78" ry="66" fill="#c9975f" stroke="#2d263c" stroke-width="7" stroke-linejoin="round"/>
<path d="M110 300 L100 335 L128 335 L134 300 Z" fill="#c9975f" stroke="#2d263c" stroke-width="7" stroke-linejoin="round"/>
<path d="M250 300 L260 335 L232 335 L226 300 Z" fill="#c9975f" stroke="#2d263c" stroke-width="7" stroke-linejoin="round"/>
<path d="M126 292 L112 330 L88 330 L106 288 Z" fill="#a97845" stroke="#2d263c" stroke-width="7" stroke-linejoin="round"/>
<path d="M234 292 L248 330 L272 330 L254 288 Z" fill="#a97845" stroke="#2d263c" stroke-width="7" stroke-linejoin="round"/>
<path d="M84 250 Q40 230 55 195 Q70 215 96 224 Z" fill="#7a5a2f" stroke="#2d263c" stroke-width="6" stroke-linejoin="round"/>
<path d="M55 195 Q46 165 68 148 Q66 182 84 200 Z" fill="#4f7a45" stroke="#2d263c" stroke-width="6" stroke-linejoin="round"/>
<circle cx="180" cy="150" r="86" fill="#c9975f" stroke="#2d263c" stroke-width="8"/>
<path d="M96 130 Q100 55 180 48 Q260 55 264 130 Q230 108 180 106 Q130 108 96 130 Z" fill="#4a6b6e" stroke="#2d263c" stroke-width="7" stroke-linejoin="round"/>
<path d="M180 48 Q170 20 150 12 Q166 32 168 52 Z" fill="#8a6b3f" stroke="#2d263c" stroke-width="6" stroke-linejoin="round"/>
<path d="M180 48 Q190 20 210 12 Q194 32 192 52 Z" fill="#8a6b3f" stroke="#2d263c" stroke-width="6" stroke-linejoin="round"/>
<path d="M100 150 Q104 108 180 104 Q256 108 260 150 Q256 205 180 214 Q104 205 100 150 Z" fill="#5c8388" stroke="#2d263c" stroke-width="7" stroke-linejoin="round"/>
<path d="M104 138 Q180 122 256 138" fill="none" stroke="#2d263c" stroke-width="6" stroke-linecap="round"/>
<path d="M108 168 Q180 186 252 168" fill="none" stroke="#2d263c" stroke-width="6" stroke-linecap="round"/>
<circle cx="148" cy="150" r="14" fill="#e8483c"/>
<circle cx="212" cy="150" r="14" fill="#e8483c"/>
<circle cx="148" cy="150" r="14" fill="none" stroke="#2d263c" stroke-width="5"/>
<circle cx="212" cy="150" r="14" fill="none" stroke="#2d263c" stroke-width="5"/>
<path d="M164 188 Q180 198 196 188" fill="none" stroke="#2d263c" stroke-width="6" stroke-linecap="round"/>
<path d="M132 214 Q140 236 130 252" fill="none" stroke="#3d6fa0" stroke-width="8" stroke-linecap="round"/>
<path d="M228 214 Q220 236 230 252" fill="none" stroke="#3d6fa0" stroke-width="8" stroke-linecap="round"/>
<circle cx="128" cy="262" r="7" fill="#3d6fa0" stroke="#2d263c" stroke-width="4"/>
<circle cx="232" cy="262" r="7" fill="#3d6fa0" stroke="#2d263c" stroke-width="4"/>
<path d="M262 250 Q296 244 300 216 Q288 208 276 214 Q280 232 262 244 Z" fill="#4f7a45" stroke="#2d263c" stroke-width="6" stroke-linejoin="round"/>
</svg>
