<svg xmlns="http://www.w3.org/2000/svg" viewBox="0 0 360 360">
<ellipse cx="180" cy="230" rx="78" ry="66" fill="#c9975f" stroke="#2d263c" stroke-width="7" stroke-linejoin="round"/>
<path d="M110 300 L100 335 L128 335 L134 300 Z" fill="#c9975f" stroke="#2d263c" stroke-width="7" stroke-linejoin="round"/>
<path d="M250 300 L260 335 L232 335 L226 300 Z" fill="#c9975f" stroke="#2d263c" stroke-width="7" stroke-linejoin="round"/>
<path d="M126 292 L112 330 L88 330 L106 288 Z" fill="#a97845" stroke="#2d263c" stroke-width="7" stroke-linejoin="round"/>
<path d="M234 292 L248 330 L272 330 L254 288 Z" fill="#a97845" stroke="#2d263c" stroke-width="7" stroke-linejoin="round"/>
<path d="M100 285 L74 305 L84 320 L112 300 Z" fill="#7d6f5c" stroke="#2d263c" stroke-width="6" stroke-linejoin="round"/>
<path d="M260 285 L286 305 L276 320 L248 300 Z" fill="#7d6f5c" stroke="#2d263c" stroke-width="6" stroke-linejoin="round"/>
<path d="M84 250 Q40 236 48 202 Q66 218 96 224 Z" fill="#6e6259" stroke="#2d263c" stroke-width="6" stroke-linejoin="round"/>
<path d="M48 202 Q42 172 66 156 Q60 186 80 202 Z" fill="#8a8477" stroke="#2d263c" stroke-width="6" stroke-linejoin="round"/>
<circle cx="180" cy="150" r="86" fill="#c9975f" stroke="#2d263c" stroke-width="8"/>
<path d="M96 130 Q100 55 180 46 Q260 55 264 130 Q230 108 180 106 Q130 108 96 130 Z" fill="#8a8477" stroke="#2d263c" stroke-width="7" stroke-linejoin="round"/>
<path d="M180 46 L172 6 L192 6 L184 46 Z" fill="#9a9488" stroke="#2d263c" stroke-width="7" stroke-linejoin="round"/>
<path d="M150 56 Q146 30 128 18 Q140 40 142 60 Z" fill="#6e6259" stroke="#2d263c" stroke-width="6" stroke-linejoin="round"/>
<path d="M210 56 Q214 30 232 18 Q220 40 218 60 Z" fill="#6e6259" stroke="#2d263c" stroke-width="6" stroke-linejoin="round"/>
<path d="M100 150 Q104 108 180 104 Q256 108 260 150 Q256 205 180 214 Q104 205 100 150 Z" fill="#7d6f5c" stroke="#2d263c" stroke-width="7" stroke-linejoin="round"/>
<path d="M104 138 Q180 122 256 138" fill="none" stroke="#2d263c" stroke-width="6" stroke-linecap="round"/>
<path d="M108 168 Q180 186 252 168" fill="none" stroke="#2d263c" stroke-width="6" stroke-linecap="round"/>
<circle cx="148" cy="150" r="14" fill="#c46a2e"/>
<circle cx="212" cy="150" r="14" fill="#c46a2e"/>
<circle cx="148" cy="150" r="14" fill="none" stroke="#2d263c" stroke-width="5"/>
<circle cx="212" cy="150" r="14" fill="none" stroke="#2d263c" stroke-width="5"/>
<path d="M164 190 Q180 200 196 190" fill="none" stroke="#2d263c" stroke-width="6" stroke-linecap="round"/>
<path d="M132 214 Q140 236 130 252" fill="none" stroke="#6e6259" stroke-width="9" stroke-linecap="round"/>
<path d="M228 214 Q220 236 230 252" fill="none" stroke="#6e6259" stroke-width="9" stroke-linecap="round"/>
<path d="M122 258 L138 258 L134 270 L126 270 Z" fill="#9a9488" stroke="#2d263c" stroke-width="4" stroke-linejoin="round"/>
<path d="M222 258 L238 258 L234 270 L226 270 Z" fill="#9a9488" stroke="#2d263c" stroke-width="4" stroke-linejoin="round"/>
<path d="M262 250 Q298 240 296 208 Q282 202 272 212 Q280 230 262 244 Z" fill="#8a8477" stroke="#2d263c" stroke-width="6" stroke-linejoin="round"/>
</svg>
