<svg xmlns="http://www.w3.org/2000/svg" viewBox="0 0 360 360">
  <!-- 髪のポニーテール(後ろ) -->
  <path d="M214 118 C250 112 268 142 258 174 C252 190 234 188 230 172 C228 156 242 150 248 162" fill="#7a6f8a" stroke="#2d263c" stroke-width="6" stroke-linejoin="round" stroke-linecap="round"/>

  <!-- 体 -->
  <path d="M180 162 C140 168 124 240 134 302 C150 332 210 332 226 302 C236 240 220 168 180 162 Z" fill="#8a7d96" stroke="#2d263c" stroke-width="8" stroke-linejoin="round"/>

  <!-- 腕 -->
  <path d="M138 194 C112 204 106 236 122 256 C138 266 154 250 150 234 Z" fill="#8a7d96" stroke="#2d263c" stroke-width="7" stroke-linejoin="round"/>
  <path d="M222 194 C248 204 254 236 238 256 C222 266 206 250 210 234 Z" fill="#8a7d96" stroke="#2d263c" stroke-width="7" stroke-linejoin="round"/>

  <!-- 胸の金の輪 -->
  <ellipse cx="180" cy="220" rx="42" ry="14" fill="none" stroke="#f4c430" stroke-width="9"/>

  <!-- 頭 -->
  <circle cx="180" cy="124" r="58" fill="#9a8da6" stroke="#2d263c" stroke-width="8"/>

  <!-- ツノ -->
  <path d="M138 76 L118 42 L156 68 Z" fill="#7a6f8a" stroke="#2d263c" stroke-width="6" stroke-linejoin="round"/>
  <path d="M222 76 L242 42 L204 68 Z" fill="#7a6f8a" stroke="#2d263c" stroke-width="6" stroke-linejoin="round"/>

  <!-- 耳(とがった) -->
  <path d="M120 108 L98 120 L124 132 Z" fill="#9a8da6" stroke="#2d263c" stroke-width="5" stroke-linejoin="round"/>
  <path d="M240 108 L262 120 L236 132 Z" fill="#9a8da6" stroke="#2d263c" stroke-width="5" stroke-linejoin="round"/>

  <!-- 髪を結ぶ金の輪 -->
  <circle cx="250" cy="158" r="9" fill="none" stroke="#f4c430" stroke-width="6"/>

  <!-- 目 -->
  <ellipse cx="158" cy="124" rx="11" ry="14" fill="#fff" stroke="#2d263c" stroke-width="5"/>
  <ellipse cx="202" cy="124" rx="11" ry="14" fill="#fff" stroke="#2d263c" stroke-width="5"/>
  <circle cx="161" cy="127" r="6" fill="#2d263c"/>
  <circle cx="199" cy="127" r="6" fill="#2d263c"/>

  <!-- 口(にやり) -->
  <path d="M166 150 Q180 162 194 150" fill="none" stroke="#2d263c" stroke-width="5" stroke-linecap="round"/>
</svg>
