<svg xmlns="http://www.w3.org/2000/svg" viewBox="0 0 360 360">
  <path d="M150,190 C120,160 80,165 70,200 C85,210 95,225 90,245 C110,235 130,220 140,215 C148,208 150,198 150,190 Z" fill="#3a83c9" stroke="#2d263c" stroke-width="7" stroke-linejoin="round" stroke-linecap="round"/>
  <path d="M120,190 C105,175 90,180 88,200 C98,205 105,215 100,225 C112,218 120,205 120,190 Z" fill="#5aa4dd" stroke="#2d263c" stroke-width="5" stroke-linejoin="round" stroke-linecap="round"/>
  <rect x="145" y="205" width="26" height="95" rx="11" fill="#f5eecd" stroke="#2d263c" stroke-width="7" stroke-linejoin="round" stroke-linecap="round"/>
  <rect x="142" y="270" width="32" height="34" rx="12" fill="#3a83c9" stroke="#2d263c" stroke-width="6" stroke-linejoin="round" stroke-linecap="round"/>
  <rect x="180" y="208" width="26" height="92" rx="11" fill="#f5eecd" stroke="#2d263c" stroke-width="7" stroke-linejoin="round" stroke-linecap="round"/>
  <rect x="177" y="270" width="32" height="32" rx="12" fill="#3a83c9" stroke="#2d263c" stroke-width="6" stroke-linejoin="round" stroke-linecap="round"/>
  <ellipse cx="195" cy="195" rx="80" ry="48" fill="#f5eecd" stroke="#2d263c" stroke-width="8" stroke-linejoin="round" stroke-linecap="round"/>
  <ellipse cx="255" cy="160" rx="40" ry="36" fill="#f5eecd" stroke="#2d263c" stroke-width="7" stroke-linejoin="round" stroke-linecap="round"/>
  <rect x="228" y="200" width="28" height="100" rx="12" fill="#f5eecd" stroke="#2d263c" stroke-width="7" stroke-linejoin="round" stroke-linecap="round"/>
  <rect x="225" y="272" width="34" height="34" rx="13" fill="#3a83c9" stroke="#2d263c" stroke-width="6" stroke-linejoin="round" stroke-linecap="round"/>
  <rect x="262" y="205" width="28" height="95" rx="12" fill="#f5eecd" stroke="#2d263c" stroke-width="7" stroke-linejoin="round" stroke-linecap="round"/>
  <rect x="259" y="272" width="34" height="32" rx="13" fill="#3a83c9" stroke="#2d263c" stroke-width="6" stroke-linejoin="round" stroke-linecap="round"/>
  <circle cx="290" cy="135" r="40" fill="#f5eecd" stroke="#2d263c" stroke-width="8" stroke-linejoin="round" stroke-linecap="round"/>
  <ellipse cx="322" cy="150" rx="17" ry="14" fill="#f0e6c8" stroke="#2d263c" stroke-width="6" stroke-linejoin="round" stroke-linecap="round"/>
  <polygon points="265,100 253,68 278,95" fill="#f5eecd" stroke="#2d263c" stroke-width="6" stroke-linejoin="round" stroke-linecap="round"/>
  <polygon points="300,95 305,60 318,92" fill="#f5eecd" stroke="#2d263c" stroke-width="6" stroke-linejoin="round" stroke-linecap="round"/>
  <polygon points="280,92 273,55 288,88" fill="#e9cf58" stroke="#2d263c" stroke-width="6" stroke-linejoin="round" stroke-linecap="round"/>
  <path d="M225,165 C210,140 218,105 245,95 C260,90 270,100 268,115 C255,120 245,135 248,155 C240,165 230,168 225,165 Z" fill="#3a83c9" stroke="#2d263c" stroke-width="7" stroke-linejoin="round" stroke-linecap="round"/>
  <path d="M300,168 C295,180 298,195 310,200 C320,192 318,178 312,170 C308,166 303,166 300,168 Z" fill="#3a83c9" stroke="#2d263c" stroke-width="6" stroke-linejoin="round" stroke-linecap="round"/>
  <circle cx="300" cy="128" r="8" fill="#9c2f42" stroke="#2d263c" stroke-width="4" stroke-linejoin="round" stroke-linecap="round"/>
  <circle cx="303" cy="126" r="3" fill="#23222d" stroke="none"/>
  <path d="M312,148 Q320,152 325,146" fill="none" stroke="#2d263c" stroke-width="5" stroke-linecap="round"/>
</svg>
