<svg xmlns="http://www.w3.org/2000/svg" viewBox="0 0 360 360">
<g stroke="#2d263c" stroke-width="7" stroke-linejoin="round" stroke-linecap="round">
  <path d="M112,205 Q88,235 96,282 Q120,262 122,214 Z" fill="#141d30"/>
  <path d="M205,200 Q233,224 224,268 Q200,254 199,210 Z" fill="#141d30"/>
  <ellipse cx="165" cy="245" rx="62" ry="75" fill="#1f2d47"/>
  <ellipse cx="165" cy="255" rx="30" ry="48" fill="#eef2f8"/>
  <path d="M148,180 C142,145 150,110 165,95 L210,95 C222,112 226,145 210,180 Z" fill="#1f2d47"/>
  <circle cx="190" cy="95" r="34" fill="#1f2d47"/>
  <path d="M175,63 L185,45 L195,64 Z" fill="#1f2d47"/>
  <circle cx="203" cy="88" r="11" fill="#ffffff"/>
  <circle cx="206" cy="88" r="5.5" fill="#201a2b"/>
  <path d="M222,82 Q255,78 285,88 Q260,95 224,96 Z" fill="#f2a33c"/>
  <path d="M222,98 Q250,104 275,110 Q252,112 224,108 Z" fill="#d9862a"/>
  <path d="M275,88 Q300,84 318,90 Q300,96 275,100 Z" fill="#4fa8d8"/>
  <path d="M310,84 L325,75 L314,90 Z" fill="#2e7cb0"/>
  <path d="M310,96 L325,105 L314,90 Z" fill="#2e7cb0"/>
  <circle cx="290" cy="90" r="4" fill="#2e7cb0"/>
  <path d="M144,312 L156,312 L156,330 L144,330 Z" fill="#f2a33c"/>
  <path d="M176,312 L188,312 L188,330 L176,330 Z" fill="#f2a33c"/>
  <path d="M138,332 Q150,338 162,332 L150,329 Z" fill="#f2a33c"/>
  <path d="M170,332 Q184,338 198,332 L184,329 Z" fill="#f2a33c"/>
</g>
</svg>
