<svg xmlns="http://www.w3.org/2000/svg" viewBox="0 0 360 360">
<ellipse cx="180" cy="235" rx="130" ry="95" fill="#e8871e" stroke="#2d263c" stroke-width="8" stroke-linejoin="round"/>
<path d="M55 235 Q70 150 180 145 Q290 150 305 235" fill="none" stroke="#c96a12" stroke-width="6" stroke-linecap="round"/>
<path d="M120 150 Q180 130 240 150" fill="none" stroke="#c96a12" stroke-width="6" stroke-linecap="round"/>
<path d="M180 150 L180 320" fill="none" stroke="#c96a12" stroke-width="6" stroke-linecap="round"/>
<path d="M165 60 Q160 100 175 145 L195 145 Q205 100 195 60 Q188 40 165 60Z" fill="#5c8a3f" stroke="#2d263c" stroke-width="7" stroke-linejoin="round"/>
<path d="M150 75 Q120 60 100 80" fill="none" stroke="#3f6b2a" stroke-width="8" stroke-linecap="round"/>
<path d="M195 90 Q225 85 245 105" fill="none" stroke="#3f6b2a" stroke-width="8" stroke-linecap="round"/>
<path d="M130 210 L155 235 L130 260 L145 235Z" fill="#2d263c" stroke="#2d263c" stroke-width="6" stroke-linejoin="round"/>
<path d="M230 210 L205 235 L230 260 L215 235Z" fill="#2d263c" stroke="#2d263c" stroke-width="6" stroke-linejoin="round"/>
<path d="M140 285 Q160 300 180 288 Q200 300 220 285 Q205 315 180 312 Q155 315 140 285Z" fill="#2d263c" stroke="#2d263c" stroke-width="6" stroke-linejoin="round"/>
<path d="M60 245 Q40 275 55 310 Q65 285 75 275Z" fill="#f4a94a" stroke="#2d263c" stroke-width="6" stroke-linejoin="round"/>
<path d="M300 245 Q320 275 305 310 Q295 285 285 275Z" fill="#f4a94a" stroke="#2d263c" stroke-width="6" stroke-linejoin="round"/>
<ellipse cx="130" cy="200" rx="10" ry="6" fill="#f7b25a"/>
<ellipse cx="235" cy="200" rx="10" ry="6" fill="#f7b25a"/>
</svg>
