<svg xmlns="http://www.w3.org/2000/svg" viewBox="0 0 360 360">
<ellipse cx="180" cy="220" rx="95" ry="58" fill="#22212b" stroke="#2d263c" stroke-width="8" stroke-linejoin="round"/>
<path d="M75 215 Q45 175 55 130 Q65 150 90 165 Z" fill="#c81e2e" stroke="#2d263c" stroke-width="7" stroke-linejoin="round"/>
<path d="M275 210 Q320 185 320 140 Q305 165 275 175 Z" fill="#c81e2e" stroke="#2d263c" stroke-width="7" stroke-linejoin="round"/>
<path d="M255 180 Q235 90 190 55 Q225 60 258 100 Q290 140 270 195 Z" fill="#191821" stroke="#2d263c" stroke-width="8" stroke-linejoin="round"/>
<path d="M225 105 Q235 130 260 145" fill="none" stroke="#e8342f" stroke-width="6" stroke-linecap="round"/>
<path d="M240 90 L280 65 L260 105 Z" fill="#c81e2e" stroke="#2d263c" stroke-width="7" stroke-linejoin="round"/>
<path d="M262 90 Q290 190 260 260 Q295 250 320 300 Q300 210 300 150 Q295 105 262 90 Z" fill="#191821" stroke="#2d263c" stroke-width="8" stroke-linejoin="round"/>
<path d="M110 205 Q80 190 55 210 Q85 215 100 230 Q65 235 45 260 Q85 250 105 245 Q120 235 110 205 Z" fill="#191821" stroke="#2d263c" stroke-width="8" stroke-linejoin="round"/>
<path d="M215 55 Q195 30 168 45 Q188 55 190 75 Q170 65 155 80 Q185 85 200 95 Z" fill="#c81e2e" stroke="#2d263c" stroke-width="7" stroke-linejoin="round"/>
<circle cx="203" cy="72" r="9" fill="#ffe14d" stroke="#2d263c" stroke-width="5"/>
<path d="M108 165 Q140 130 190 138 Q170 150 165 170 Q135 160 108 165 Z" fill="#191821" stroke="#2d263c" stroke-width="7" stroke-linejoin="round"/>
<rect x="100" y="140" width="14" height="30" rx="6" fill="#e8342f" stroke="#2d263c" stroke-width="5"/>
<circle cx="120" cy="270" r="28" fill="#191821" stroke="#2d263c" stroke-width="8"/>
<circle cx="120" cy="270" r="11" fill="#e8342f" stroke="#2d263c" stroke-width="5"/>
<circle cx="205" cy="278" r="28" fill="#191821" stroke="#2d263c" stroke-width="8"/>
<circle cx="205" cy="278" r="11" fill="#e8342f" stroke="#2d263c" stroke-width="5"/>
<circle cx="255" cy="255" r="24" fill="#191821" stroke="#2d263c" stroke-width="8"/>
<circle cx="255" cy="255" r="9" fill="#e8342f" stroke="#2d263c" stroke-width="5"/>
<circle cx="82" cy="245" r="22" fill="#191821" stroke="#2d263c" stroke-width="8"/>
<circle cx="82" cy="245" r="8" fill="#e8342f" stroke="#2d263c" stroke-width="5"/>
<path d="M135 205 Q180 190 225 205" fill="none" stroke="#e8342f" stroke-width="7" stroke-linecap="round"/>
<path d="M100 235 Q180 250 260 230" fill="none" stroke="#8f8fa0" stroke-width="4" stroke-linecap="round"/>
</svg>
