<svg xmlns="http://www.w3.org/2000/svg" viewBox="0 0 360 360">
  <g stroke="#2d263c" stroke-width="7" stroke-linejoin="round" stroke-linecap="round">
    <!-- flame cape behind body -->
    <path d="M105,300 L82,255 L98,205 L58,168 L92,132 L62,88 L112,100 L98,52 L150,92 L152,46 L180,90 L208,46 L210,92 L262,52 L248,100 L298,88 L268,132 L302,168 L262,205 L278,255 L255,300 Z"
          fill="#ff9843"/>
    <path d="M120,285 L100,250 L114,208 L82,178 L108,150 L86,112 L124,122 L112,80 L152,112 L154,72 L180,108 L206,72 L208,112 L248,80 L236,122 L274,112 L250,150 L276,178 L244,208 L258,250 L240,285 Z"
          fill="#e2472b"/>

    <!-- legs -->
    <rect x="140" y="285" width="30" height="42" rx="12" fill="#e8c98a"/>
    <rect x="190" y="285" width="30" height="42" rx="12" fill="#e8c98a"/>

    <!-- arms -->
    <path d="M112,210 C90,215 78,240 90,262" fill="none"/>
    <path d="M248,210 C270,215 282,240 270,262" fill="none"/>

    <!-- torso -->
    <path d="M130,190 C130,150 150,140 180,140 C210,140 230,150 230,190 L226,270 C226,296 200,306 180,306 C160,306 134,296 134,270 Z"
          fill="#f0dba0"/>

    <!-- chest lines -->
    <path d="M158,225 C170,235 190,235 202,225" fill="none" stroke-width="6"/>
    <path d="M156,255 C170,266 190,266 204,255" fill="none" stroke-width="6"/>

    <!-- head -->
    <circle cx="180" cy="110" r="66" fill="#4f8f3a"/>

    <!-- leaf hair -->
    <path d="M132,64 C110,53 96,35 100,24 C118,29 138,41 144,57 Z" fill="#3a7228"/>
    <path d="M228,64 C250,53 264,35 260,24 C242,29 222,41 216,57 Z" fill="#3a7228"/>
    <path d="M170,44 C169,34 174,26 180,23 C186,26 191,34 190,44 Z" fill="#3a7228"/>

    <!-- acorn cap band -->
    <path d="M126,86 C140,68 220,68 234,86" fill="none" stroke="#6b4a2b" stroke-width="10"/>

    <!-- mask flame spikes on top -->
    <path d="M150,72 L160,34 L172,64 Z" fill="#ff9b3d"/>
    <path d="M188,64 L200,30 L212,72 Z" fill="#ff9b3d"/>
    <path d="M170,68 L182,24 L196,66 Z" fill="#c73a2e"/>

    <!-- mask face -->
    <path d="M124,108 C124,78 150,64 180,64 C210,64 236,78 236,108 C236,140 216,158 180,160 C144,158 124,140 124,108 Z"
          fill="#c73a2e"/>

    <!-- mask cheek flame trim -->
    <path d="M126,120 C118,132 118,146 130,156" fill="none" stroke-width="6"/>
    <path d="M234,120 C242,132 242,146 230,156" fill="none" stroke-width="6"/>

    <!-- eye holes -->
    <ellipse cx="158" cy="106" rx="12" ry="16" fill="#2d263c"/>
    <ellipse cx="202" cy="106" rx="12" ry="16" fill="#2d263c"/>

    <!-- mouth guard line -->
    <path d="M154,140 C166,150 194,150 206,140" fill="none" stroke-width="6"/>
  </g>
</svg>
