<svg xmlns="http://www.w3.org/2000/svg" viewBox="0 0 360 360">
  <ellipse cx="180" cy="230" rx="88" ry="58" fill="#fbf3df" stroke="#2d263c" stroke-width="8"/>
  <path d="M75,250 C50,255 35,245 40,225 C45,240 60,238 62,225 C55,215 55,200 68,192 C62,205 68,212 72,215 C75,200 82,192 92,190 C82,202 84,212 90,215 C100,208 105,198 102,185 C112,198 112,215 98,225 C104,232 98,245 75,250 Z" fill="#3f8fd1" stroke="#2d263c" stroke-width="7" stroke-linejoin="round"/>
  <rect x="118" y="265" width="24" height="70" rx="10" fill="#fbf3df" stroke="#2d263c" stroke-width="7" stroke-linejoin="round"/>
  <rect x="130" y="305" width="20" height="32" rx="6" fill="#3f8fd1" stroke="#2d263c" stroke-width="6" stroke-linejoin="round"/>
  <ellipse cx="140" cy="337" rx="15" ry="8" fill="#2d263c"/>
  <rect x="168" y="270" width="24" height="70" rx="10" fill="#fbf3df" stroke="#2d263c" stroke-width="7" stroke-linejoin="round"/>
  <rect x="180" y="310" width="20" height="32" rx="6" fill="#3f8fd1" stroke="#2d263c" stroke-width="6" stroke-linejoin="round"/>
  <ellipse cx="190" cy="342" rx="15" ry="8" fill="#2d263c"/>
  <rect x="212" y="255" width="24" height="70" rx="10" fill="#fbf3df" stroke="#2d263c" stroke-width="7" stroke-linejoin="round"/>
  <rect x="224" y="295" width="20" height="32" rx="6" fill="#3f8fd1" stroke="#2d263c" stroke-width="6" stroke-linejoin="round"/>
  <ellipse cx="234" cy="327" rx="15" ry="8" fill="#2d263c"/>
  <rect x="256" y="250" width="24" height="65" rx="10" fill="#fbf3df" stroke="#2d263c" stroke-width="7" stroke-linejoin="round"/>
  <rect x="268" y="288" width="20" height="30" rx="6" fill="#3f8fd1" stroke="#2d263c" stroke-width="6" stroke-linejoin="round"/>
  <ellipse cx="278" cy="318" rx="15" ry="8" fill="#2d263c"/>
  <ellipse cx="272" cy="175" rx="58" ry="52" fill="#fbf3df" stroke="#2d263c" stroke-width="8"/>
  <path d="M235,135 C220,105 225,80 245,60 C238,90 255,95 250,118 Z" fill="#3f8fd1" stroke="#2d263c" stroke-width="6" stroke-linejoin="round"/>
  <path d="M263,128 C255,95 262,70 282,48 C274,82 293,88 285,112 Z" fill="#3f8fd1" stroke="#2d263c" stroke-width="6" stroke-linejoin="round"/>
  <path d="M272,138 C266,70 280,35 305,15 C293,60 315,65 302,100 Z" fill="#e8523a" stroke="#2d263c" stroke-width="7" stroke-linejoin="round"/>
  <path d="M275,90 C284,65 296,48 308,35" fill="none" stroke="#ff9c8c" stroke-width="4" stroke-linecap="round"/>
  <circle cx="297" cy="168" r="11" fill="#2d263c"/>
  <circle cx="300" cy="163" r="4" fill="#ffffff"/>
  <path d="M253,150 Q264,143 275,150" fill="none" stroke="#2d263c" stroke-width="5" stroke-linecap="round"/>
  <path d="M295,205 Q308,213 322,205" fill="none" stroke="#2d263c" stroke-width="5" stroke-linecap="round"/>
  <path d="M65,232 C40,238 20,230 22,208 C35,215 45,208 42,195 C55,203 55,218 65,232 Z" fill="#3f8fd1" stroke="#2d263c" stroke-width="6" stroke-linejoin="round"/>
</svg>
