<svg xmlns="http://www.w3.org/2000/svg" viewBox="0 0 360 360">
  <!-- 取っ手(輪郭) -->
  <path d="M250 200 Q296 200 296 240 Q296 278 250 278" fill="none" stroke="#2d263c" stroke-width="8"/>
  <path d="M250 210 Q286 210 286 240 Q286 270 250 270" fill="none" stroke="#E8DCC4" stroke-width="10" stroke-linecap="round"/>
  <!-- 茶托 -->
  <ellipse cx="180" cy="300" rx="120" ry="22" fill="#E8DCC4" stroke="#2d263c" stroke-width="8"/>
  <!-- カップ本体 -->
  <path d="M96 180 Q100 270 180 286 Q260 270 264 180 Z" fill="#F2E8D2" stroke="#2d263c" stroke-width="8" stroke-linejoin="round"/>
  <!-- 縁 -->
  <ellipse cx="180" cy="180" rx="84" ry="20" fill="#F8F0DC" stroke="#2d263c" stroke-width="8"/>
  <!-- 紅茶(紫の霊) -->
  <ellipse cx="180" cy="182" rx="74" ry="14" fill="#7A4AAE" stroke="#2d263c" stroke-width="6"/>
  <!-- 霊のうねり(立ち上がる) -->
  <path d="M150 182 Q140 140 168 120 Q196 104 200 140 Q202 168 184 180" fill="#9A6AC4" stroke="#2d263c" stroke-width="7" stroke-linejoin="round"/>
  <!-- 目 左 -->
  <ellipse cx="166" cy="138" rx="9" ry="12" fill="#F2D038" stroke="#2d263c" stroke-width="5"/>
  <ellipse cx="166" cy="140" rx="3" ry="5" fill="#241f2e"/>
  <!-- 目 右 -->
  <ellipse cx="190" cy="138" rx="9" ry="12" fill="#F2D038" stroke="#2d263c" stroke-width="5"/>
  <ellipse cx="190" cy="140" rx="3" ry="5" fill="#241f2e"/>
  <!-- 口 -->
  <path d="M170 156 Q178 162 186 156" fill="none" stroke="#2d263c" stroke-width="5" stroke-linecap="round"/>
  <!-- がんさくの証(青いスタンプ) -->
  <ellipse cx="232" cy="250" rx="11" ry="13" fill="#3E86C8" stroke="#2d263c" stroke-width="5"/>
  <path d="M226 248 L238 248 M226 252 L238 252" fill="none" stroke="#F2E8D2" stroke-width="2" stroke-linecap="round"/>
</svg>
