<svg xmlns="http://www.w3.org/2000/svg" viewBox="0 0 360 360">
  <path d="M180,58 L272,128 L250,262 L180,322 L110,262 L88,128 Z" fill="#FFE066" stroke="#2d263c" stroke-width="8" stroke-linejoin="round"/>
  <path d="M180,58 L272,128 L180,190 Z" fill="#FFF3A6" stroke="#2d263c" stroke-width="6" stroke-linejoin="round"/>
  <path d="M88,128 L180,58 L180,190 Z" fill="#F7C948" stroke="#2d263c" stroke-width="6" stroke-linejoin="round"/>
  <path d="M272,128 L250,262 L180,190 Z" fill="#F7C948" stroke="#2d263c" stroke-width="6" stroke-linejoin="round"/>
  <path d="M88,128 L180,190 L110,262 Z" fill="#F5B93C" stroke="#2d263c" stroke-width="6" stroke-linejoin="round"/>
  <path d="M110,262 L180,190 L250,262 L180,322 Z" fill="#E8A521" stroke="#2d263c" stroke-width="6" stroke-linejoin="round"/>
  <line x1="180" y1="58" x2="180" y2="322" stroke="#2d263c" stroke-width="4" stroke-linecap="round"/>
  <line x1="88" y1="128" x2="272" y2="128" stroke="#2d263c" stroke-width="4" stroke-linecap="round"/>
  <line x1="110" y1="262" x2="250" y2="262" stroke="#2d263c" stroke-width="4" stroke-linecap="round"/>
  <circle cx="150" cy="185" r="17" fill="#241f2e" stroke="#2d263c" stroke-width="5"/>
  <circle cx="212" cy="185" r="17" fill="#241f2e" stroke="#2d263c" stroke-width="5"/>
  <circle cx="145" cy="179" r="5" fill="#ffffff"/>
  <circle cx="207" cy="179" r="5" fill="#ffffff"/>
  <path d="M162,222 C170,230 190,230 198,222" fill="none" stroke="#2d263c" stroke-width="5" stroke-linecap="round"/>
  <ellipse cx="140" cy="98" rx="16" ry="9" fill="#ffffff" opacity="0.6"/>
</svg>
