<svg xmlns="http://www.w3.org/2000/svg" viewBox="0 0 360 360">
  <!-- tail -->
  <path d="M265,232 C312,222 332,178 316,138 C300,176 274,196 253,224 Z" fill="#8fb3e0" stroke="#2d263c" stroke-width="7" stroke-linejoin="round"/>
  <ellipse cx="313" cy="152" rx="15" ry="11" fill="#e9dcb8" stroke="#2d263c" stroke-width="6" stroke-linejoin="round"/>

  <!-- back legs -->
  <rect x="228" y="278" width="28" height="56" rx="12" fill="#7fa8d9" stroke="#2d263c" stroke-width="7"/>
  <rect x="268" y="284" width="26" height="50" rx="11" fill="#7fa8d9" stroke="#2d263c" stroke-width="7"/>
  <ellipse cx="242" cy="330" rx="15" ry="9" fill="#e9dcb8" stroke="#2d263c" stroke-width="6"/>
  <ellipse cx="281" cy="330" rx="14" ry="9" fill="#e9dcb8" stroke="#2d263c" stroke-width="6"/>

  <!-- body -->
  <ellipse cx="195" cy="248" rx="102" ry="66" fill="#dbe8f5" stroke="#2d263c" stroke-width="8" stroke-linejoin="round"/>

  <!-- front legs -->
  <rect x="108" y="280" width="28" height="56" rx="12" fill="#dbe8f5" stroke="#2d263c" stroke-width="7"/>
  <rect x="150" y="286" width="26" height="50" rx="11" fill="#dbe8f5" stroke="#2d263c" stroke-width="7"/>
  <ellipse cx="122" cy="332" rx="15" ry="9" fill="#e9dcb8" stroke="#2d263c" stroke-width="6"/>
  <ellipse cx="163" cy="332" rx="14" ry="9" fill="#e9dcb8" stroke="#2d263c" stroke-width="6"/>

  <!-- ears -->
  <polygon points="128,110 148,52 165,112" fill="#7fa8d9" stroke="#2d263c" stroke-width="7" stroke-linejoin="round"/>
  <polygon points="138,105 150,72 160,108" fill="#e9dcb8"/>
  <polygon points="82,118 66,60 103,112" fill="#7fa8d9" stroke="#2d263c" stroke-width="7" stroke-linejoin="round"/>
  <polygon points="83,110 72,78 96,108" fill="#e9dcb8"/>

  <!-- sword/mane crown behind head -->
  <polygon points="150,205 168,138 152,92 188,112 208,42 233,102 260,60 286,122 268,182 218,206 180,216"
    fill="#b0243d" stroke="#2d263c" stroke-width="7" stroke-linejoin="round"/>
  <polygon points="196,72 210,22 224,72 210,96" fill="#c9d3de" stroke="#2d263c" stroke-width="6" stroke-linejoin="round"/>
  <polyline points="160,196 190,150 172,108 200,120" fill="none" stroke="#d4af37" stroke-width="5" stroke-linecap="round" stroke-linejoin="round"/>

  <!-- head -->
  <circle cx="110" cy="162" r="58" fill="#dbe8f5" stroke="#2d263c" stroke-width="8"/>

  <!-- snout -->
  <ellipse cx="68" cy="178" rx="36" ry="23" fill="#e9dcb8" stroke="#2d263c" stroke-width="7"/>
  <circle cx="42" cy="175" r="7" fill="#2d263c"/>

  <!-- brows -->
  <polygon points="80,122 106,112 100,130" fill="#2d263c"/>
  <polygon points="120,120 140,116 128,134" fill="#2d263c"/>

  <!-- eye -->
  <circle cx="100" cy="148" r="15" fill="#f2c94c" stroke="#2d263c" stroke-width="6"/>
  <circle cx="96" cy="148" r="6" fill="#2d263c"/>

  <!-- forehead gem -->
  <polygon points="108,118 116,108 124,118 116,128" fill="#f2c94c" stroke="#2d263c" stroke-width="4" stroke-linejoin="round"/>
</svg>
