<svg xmlns="http://www.w3.org/2000/svg" viewBox="0 0 360 360">
<path d="M120,225 Q88,258 108,300 Q128,336 180,336 Q232,336 252,300 Q272,258 240,225 Q210,248 180,248 Q150,248 120,225 Z" fill="#f2f2ea" stroke="#2d263c" stroke-width="7" stroke-linejoin="round"/>
<circle cx="138" cy="298" r="17" fill="#dcefe0" stroke="#2d263c" stroke-width="6"/>
<circle cx="222" cy="303" r="19" fill="#dcefe0" stroke="#2d263c" stroke-width="6"/>
<path d="M150,140 C108,150 82,172 73,208 C67,228 78,246 100,252 C110,232 100,210 116,190 C126,176 146,166 162,156 Z" fill="#2f6b3f" stroke="#2d263c" stroke-width="7" stroke-linejoin="round"/>
<circle cx="90" cy="250" r="21" fill="#f2f2ea" stroke="#2d263c" stroke-width="7"/>
<path d="M76,256 L60,272 L82,266 Z" fill="#e0663c" stroke="#2d263c" stroke-width="6" stroke-linejoin="round"/>
<path d="M96,264 L92,285 L110,271 Z" fill="#e0663c" stroke="#2d263c" stroke-width="6" stroke-linejoin="round"/>
<path d="M210,140 C252,150 278,172 287,208 C293,228 282,246 260,252 C250,232 260,210 244,190 C234,176 214,166 198,156 Z" fill="#2f6b3f" stroke="#2d263c" stroke-width="7" stroke-linejoin="round"/>
<circle cx="270" cy="250" r="21" fill="#f2f2ea" stroke="#2d263c" stroke-width="7"/>
<path d="M284,256 L300,272 L278,266 Z" fill="#e0663c" stroke="#2d263c" stroke-width="6" stroke-linejoin="round"/>
<path d="M264,264 L268,285 L250,271 Z" fill="#e0663c" stroke="#2d263c" stroke-width="6" stroke-linejoin="round"/>
<path d="M140,120 Q120,160 130,210 Q140,240 180,246 Q220,240 230,210 Q240,160 220,120 Q200,105 180,105 Q160,105 140,120 Z" fill="#2f6b3f" stroke="#2d263c" stroke-width="8" stroke-linejoin="round"/>
<path d="M160,150 Q180,140 200,150 Q206,180 195,206 Q180,216 165,206 Q154,180 160,150 Z" fill="#5fae5f" stroke="#2d263c" stroke-width="6" stroke-linejoin="round"/>
<circle cx="150" cy="122" r="19" fill="#f2f2ea" stroke="#2d263c" stroke-width="6"/>
<circle cx="180" cy="112" r="21" fill="#f2f2ea" stroke="#2d263c" stroke-width="6"/>
<circle cx="210" cy="122" r="19" fill="#f2f2ea" stroke="#2d263c" stroke-width="6"/>
<circle cx="180" cy="80" r="48" fill="#2f6b3f" stroke="#2d263c" stroke-width="8"/>
<path d="M150,45 Q128,20 116,36 Q124,56 146,60 Z" fill="#2f6b3f" stroke="#2d263c" stroke-width="6" stroke-linejoin="round"/>
<path d="M210,45 Q232,20 244,36 Q236,56 214,60 Z" fill="#2f6b3f" stroke="#2d263c" stroke-width="6" stroke-linejoin="round"/>
<path d="M180,30 L169,50 L191,50 Z" fill="#5fae5f" stroke="#2d263c" stroke-width="6" stroke-linejoin="round"/>
<ellipse cx="180" cy="90" rx="38" ry="24" fill="#5c7a8a" stroke="#2d263c" stroke-width="7"/>
<ellipse cx="165" cy="88" rx="10" ry="12" fill="#ffffff" stroke="#2d263c" stroke-width="6"/>
<circle cx="165" cy="90" r="5" fill="#22242a"/>
<ellipse cx="195" cy="88" rx="10" ry="12" fill="#ffffff" stroke="#2d263c" stroke-width="6"/>
<circle cx="195" cy="90" r="5" fill="#22242a"/>
<path d="M170,104 Q180,110 190,104" fill="none" stroke="#2d263c" stroke-width="6" stroke-linecap="round"/>
</svg>
