<svg xmlns="http://www.w3.org/2000/svg" viewBox="0 0 360 360">
  <g stroke="#2d263c" stroke-width="7" stroke-linejoin="round" stroke-linecap="round">
    <path d="M148,215 C140,250 132,290 128,330 C124,336 116,335 116,328 C122,290 132,252 140,214 Z" fill="#5c3f82"/>
    <path d="M232,215 C240,250 248,288 252,328 C256,335 248,336 244,330 C238,290 230,252 224,214 Z" fill="#5c3f82"/>
    <path d="M162,222 C154,258 146,296 142,334 C138,340 128,339 128,332 C134,296 144,258 154,220 Z" fill="#1c1c26"/>
    <path d="M214,222 C222,258 230,296 234,334 C238,340 248,339 248,332 C242,296 232,258 222,220 Z" fill="#1c1c26"/>
    <path d="M140,190 C140,160 160,148 190,148 C226,148 250,164 252,196 C254,220 236,232 200,234 C164,234 138,222 140,190 Z" fill="#1c1c26"/>
    <path d="M175,150 C160,138 148,118 142,96 C138,84 150,76 160,84 C170,102 178,126 182,150 Z" fill="#1c1c26"/>
    <path d="M180,70 C190,78 188,92 176,98 L152,104 C146,112 132,114 122,106 C104,100 92,96 88,90 C92,80 106,76 118,80 C122,68 136,58 154,58 C164,58 174,62 180,70 Z" fill="#1c1c26"/>
    <path d="M158,58 L150,36 L170,54 Z" fill="#1c1c26"/>
    <path d="M148,50 C144,34 150,22 158,32 C160,20 168,20 168,32 C176,22 182,34 176,48 C172,42 164,42 160,48 C156,42 150,44 148,50 Z" fill="#b8283f"/>
    <path d="M175,70 C210,60 240,70 250,50 C244,74 224,86 200,90 C188,84 178,78 175,70 Z" fill="#4a2f6b"/>
    <path d="M190,95 C230,86 260,96 268,76 C258,102 230,116 202,116 C196,108 192,100 190,95 Z" fill="#5c3f82"/>
    <path d="M200,120 C240,112 264,122 270,104 C262,128 236,140 206,138 Z" fill="#4a2f6b"/>
    <path d="M244,200 C270,206 288,196 296,210 C282,222 256,224 240,214 Z" fill="#4a2f6b"/>
    <path d="M244,214 C272,224 292,220 300,236 C284,244 256,240 240,226 Z" fill="#5c3f82"/>
    <path d="M240,228 C266,242 284,244 288,260 C270,262 246,252 234,238 Z" fill="#4a2f6b"/>
  </g>
  <circle cx="128" cy="82" r="7" fill="#ff3b30" stroke="#2d263c" stroke-width="4"/>
  <circle cx="129" cy="82" r="3" fill="#160f1e"/>
  <circle cx="126" cy="79" r="1.6" fill="#fff"/>
  <ellipse cx="90" cy="92" rx="2.4" ry="1.6" fill="#160f1e"/>
  <path d="M154,32 Q158,26 162,32" fill="none" stroke="#7c1f2e" stroke-width="3" stroke-linecap="round"/>
</svg>
