<svg xmlns="http://www.w3.org/2000/svg" viewBox="0 0 360 360">
  <path d="M290 195 L332 155 L305 200 L334 248 L288 215Z" fill="#2E3540" stroke="#2d263c" stroke-width="7" stroke-linejoin="round" stroke-linecap="round"/>
  <path d="M95 205 Q78 165 130 148 Q190 128 245 150 Q292 168 296 205 Q298 232 262 245 Q205 262 152 253 Q102 244 88 222 Q80 213 95 205Z" fill="#4A5560" stroke="#2d263c" stroke-width="9" stroke-linejoin="round" stroke-linecap="round"/>
  <path d="M158 142 L166 100 L180 135 L188 92 L200 128 L206 100 L216 138 L228 112 L240 148Z" fill="#2E3540" stroke="#2d263c" stroke-width="7" stroke-linejoin="round" stroke-linecap="round"/>
  <path d="M120 228 Q98 236 102 256 Q118 262 137 248 Q142 238 120 228Z" fill="#37414B" stroke="#2d263c" stroke-width="6" stroke-linejoin="round" stroke-linecap="round"/>
  <path d="M92 205 Q66 214 68 236 Q72 252 96 246 Q108 238 99 220 Q95 210 92 205Z" fill="#4A5560" stroke="#2d263c" stroke-width="7" stroke-linejoin="round" stroke-linecap="round"/>
  <path d="M86 217 L91 229 L79 228Z M97 214 L101 226 L89 225Z M107 213 L110 224 L99 223Z" fill="#FFFFFF" stroke="#2d263c" stroke-width="3" stroke-linejoin="round"/>
  <path d="M170 140 Q160 178 173 222" fill="none" stroke="#FFFFFF" stroke-width="9" stroke-linecap="round"/>
  <path d="M200 143 Q190 182 200 226" fill="none" stroke="#FFFFFF" stroke-width="9" stroke-linecap="round"/>
  <path d="M228 150 Q218 185 226 232" fill="none" stroke="#FFFFFF" stroke-width="9" stroke-linecap="round"/>
  <ellipse cx="178" cy="235" rx="52" ry="18" fill="#C9D1D9" stroke="#2d263c" stroke-width="3"/>
  <path d="M112 195 Q122 205 112 215" fill="none" stroke="#2d263c" stroke-width="4" stroke-linecap="round"/>
  <path d="M215 175 L227 185 M223 175 L211 185" stroke="#8B98A5" stroke-width="3" stroke-linecap="round" opacity="0.8"/>
  <path d="M250 200 L260 208" stroke="#8B98A5" stroke-width="3" stroke-linecap="round" opacity="0.8"/>
  <ellipse cx="150" cy="180" rx="16" ry="17" fill="#FFFFFF" stroke="#2d263c" stroke-width="5"/>
  <ellipse cx="154" cy="181" rx="9" ry="10" fill="#C0392B"/>
  <circle cx="156" cy="181" r="5" fill="#1B1B24"/>
  <circle cx="150" cy="176" r="2.5" fill="#FFFFFF"/>
  <path d="M130 158 Q150 148 170 160" fill="none" stroke="#2d263c" stroke-width="7" stroke-linecap="round"/>
</svg>
