<svg xmlns="http://www.w3.org/2000/svg" viewBox="0 0 360 360">
  <path d="M228,208 L286,228 L296,296 L266,304 L246,246 Z" fill="#17151d" stroke="#2d263c" stroke-width="7" stroke-linejoin="round"/>
  <path d="M142,213 L94,246 L76,312 L104,318 L132,256 Z" fill="#17151d" stroke="#2d263c" stroke-width="7" stroke-linejoin="round"/>
  <path d="M252,172 Q312,148 326,92 Q336,128 294,170 Q276,184 252,190 Z" fill="#c0392b" stroke="#2d263c" stroke-width="7" stroke-linejoin="round"/>
  <path d="M326,92 Q339,74 330,56 Q343,70 338,98 Z" fill="#ff8c3c" stroke="#2d263c" stroke-width="6" stroke-linejoin="round"/>
  <path d="M110,150 Q100,190 130,222 Q190,242 248,212 Q268,188 258,160 Q210,132 160,136 Q126,139 110,150 Z" fill="#1c1c22" stroke="#2d263c" stroke-width="8" stroke-linejoin="round"/>
  <path d="M140,193 Q178,212 226,202 Q216,222 178,222 Q150,219 140,193 Z" fill="#f2e8d5" stroke="#2d263c" stroke-width="6" stroke-linejoin="round"/>
  <path d="M222,214 L270,242 L274,304 L246,310 L232,252 Z" fill="#24222c" stroke="#2d263c" stroke-width="7" stroke-linejoin="round"/>
  <path d="M150,218 L112,256 L98,318 L126,322 L146,262 Z" fill="#24222c" stroke="#2d263c" stroke-width="7" stroke-linejoin="round"/>
  <path d="M120,262 L140,266" fill="none" stroke="#e8622a" stroke-width="7" stroke-linecap="round"/>
  <path d="M240,262 L258,254" fill="none" stroke="#e8622a" stroke-width="7" stroke-linecap="round"/>
  <path d="M118,138 L108,110 L128,124 L133,98 L148,118 L158,104 L168,128" fill="none" stroke="#e8622a" stroke-width="8" stroke-linecap="round" stroke-linejoin="round"/>
  <path d="M115,150 Q80,140 57,154 Q43,165 47,180 Q62,194 92,189 Q120,184 125,164 Z" fill="#1c1c22" stroke="#2d263c" stroke-width="8" stroke-linejoin="round"/>
  <path d="M57,154 Q43,165 47,180 Q54,187 66,184 Q60,169 57,154 Z" fill="#f2e8d5" stroke="#2d263c" stroke-width="6" stroke-linejoin="round"/>
  <path d="M96,144 L86,116 L106,134 Z" fill="#ff8c3c" stroke="#2d263c" stroke-width="6" stroke-linejoin="round"/>
  <circle cx="76" cy="164" r="12" fill="#ffffff" stroke="#2d263c" stroke-width="6"/>
  <circle cx="73" cy="165" r="5" fill="#1c1c22"/>
  <circle cx="50" cy="171" r="3" fill="#2d263c"/>
</svg>
