<svg xmlns="http://www.w3.org/2000/svg" viewBox="0 0 360 360">
  <path d="M120,140 L240,140 L295,288 Q302,322 258,326 L102,326 Q58,322 65,288 Z" fill="#b8966a" stroke="#2d263c" stroke-width="8" stroke-linejoin="round"/>
  <ellipse cx="63" cy="222" rx="19" ry="27" fill="#b8966a" stroke="#2d263c" stroke-width="7" stroke-linecap="round" stroke-linejoin="round" transform="rotate(-18 63 222)"/>
  <ellipse cx="297" cy="222" rx="19" ry="27" fill="#b8966a" stroke="#2d263c" stroke-width="7" stroke-linecap="round" stroke-linejoin="round" transform="rotate(18 297 222)"/>
  <circle cx="150" cy="205" r="18" fill="#8f7347" stroke="#2d263c" stroke-width="6"/>
  <circle cx="215" cy="192" r="14" fill="#8f7347" stroke="#2d263c" stroke-width="6"/>
  <circle cx="182" cy="255" r="20" fill="#8f7347" stroke="#2d263c" stroke-width="6"/>
  <circle cx="245" cy="245" r="15" fill="#8f7347" stroke="#2d263c" stroke-width="6"/>
  <circle cx="118" cy="265" r="13" fill="#8f7347" stroke="#2d263c" stroke-width="6"/>
  <circle cx="268" cy="278" r="12" fill="#8f7347" stroke="#2d263c" stroke-width="6"/>
  <line x1="164" y1="50" x2="152" y2="24" stroke="#2d263c" stroke-width="7" stroke-linecap="round"/>
  <line x1="196" y1="50" x2="208" y2="24" stroke="#2d263c" stroke-width="7" stroke-linecap="round"/>
  <circle cx="151" cy="22" r="6" fill="#8f7347" stroke="#2d263c" stroke-width="5"/>
  <circle cx="209" cy="22" r="6" fill="#8f7347" stroke="#2d263c" stroke-width="5"/>
  <circle cx="180" cy="100" r="58" fill="#d6c39a" stroke="#2d263c" stroke-width="8"/>
  <circle cx="128" cy="123" r="13" fill="#eaa7a7"/>
  <circle cx="232" cy="123" r="13" fill="#eaa7a7"/>
  <circle cx="155" cy="95" r="20" fill="#ffffff" stroke="#2d263c" stroke-width="6"/>
  <circle cx="205" cy="95" r="20" fill="#ffffff" stroke="#2d263c" stroke-width="6"/>
  <circle cx="159" cy="99" r="9" fill="#2d263c"/>
  <circle cx="209" cy="99" r="9" fill="#2d263c"/>
  <path d="M164,138 Q180,150 196,138" fill="none" stroke="#2d263c" stroke-width="6" stroke-linecap="round"/>
</svg>
