<svg xmlns="http://www.w3.org/2000/svg" viewBox="0 0 360 360">
<g stroke="#2d263c" stroke-width="7" stroke-linejoin="round">
<path d="M110 260 Q90 300 110 330 Q130 340 145 320 L150 265 Z" fill="#1c1a24"/>
<path d="M235 258 Q255 298 238 330 Q216 340 202 318 L200 262 Z" fill="#1c1a24"/>
<path d="M95 220 Q78 255 92 280 Q112 292 128 272 L132 218 Z" fill="#2a2735"/>
<path d="M250 218 Q268 252 254 278 Q234 292 218 270 L214 216 Z" fill="#2a2735"/>
<path d="M85 150 Q70 200 100 245 Q160 275 230 250 Q272 210 260 155 Q245 105 175 100 Q108 100 85 150 Z" fill="#221f2c"/>
<path d="M195 240 Q245 250 275 235 Q300 255 295 285 Q270 300 240 280 Q210 265 195 240 Z" fill="#231f2e"/>
<path d="M275 260 Q296 267 300 280 Q292 288 278 282 Z" fill="#c0392b" stroke-width="5"/>
<path d="M95 165 Q60 150 40 168 Q58 190 90 190 Z" fill="#221f2c"/>
<path d="M40 168 Q30 155 42 140 Q60 150 60 168 Z" fill="#c0392b" stroke-width="6"/>
<path d="M120 105 Q100 65 130 45 Q150 70 148 100 Z" fill="#221f2c"/>
<path d="M175 98 Q168 55 195 35 Q215 62 205 100 Z" fill="#221f2c"/>
<path d="M225 108 Q235 75 260 68 Q268 95 250 118 Z" fill="#221f2c"/>
<path d="M130 47 Q138 32 148 45 Q140 58 130 47 Z" fill="#e74c3c" stroke-width="4"/>
<path d="M195 37 Q203 22 213 35 Q205 48 195 37 Z" fill="#e74c3c" stroke-width="4"/>
<path d="M120 130 Q75 118 55 140 Q95 158 130 148 Q170 165 210 150 Q250 158 285 138 Q262 116 220 130 Q175 118 120 130 Z" fill="#181620"/>
<path d="M60 178 L80 190 L58 195 L72 180 L52 185 Z" fill="#f2f2f2" stroke-width="4"/>
<path d="M150 215 L165 235 L150 250 L165 235 Z" fill="#c0392b" stroke-width="6"/>
<path d="M175 210 L190 232 L175 250 L190 232 Z" fill="#c0392b" stroke-width="6"/>
<path d="M200 214 L215 234 L200 250 L215 234 Z" fill="#c0392b" stroke-width="6"/>
</g>
<ellipse cx="118" cy="155" rx="17" ry="13" fill="#ff3b30" stroke="#2d263c" stroke-width="6"/>
<circle cx="122" cy="153" r="4" fill="#1c1a24"/>
<path d="M70 165 Q65 185 85 198 Q75 178 78 165 Z" fill="#e74c3c" stroke="#2d263c" stroke-width="5" stroke-linejoin="round"/>
<g fill="none" stroke="#f2942c" stroke-width="8" stroke-linecap="round">
<path d="M100 175 Q160 190 220 178"/>
<path d="M115 205 Q170 218 225 203" stroke-width="7"/>
</g>
<g fill="none" stroke="#c0392b" stroke-width="7" stroke-linecap="round">
<path d="M105 145 Q98 122 118 108"/>
<path d="M200 108 Q220 122 213 145"/>
</g>
<g fill="none" stroke="#141219" stroke-width="6" stroke-linecap="round">
<path d="M98 200 Q95 225 108 245"/>
<path d="M245 200 Q250 225 236 245"/>
</g>
</svg>
