<svg xmlns="http://www.w3.org/2000/svg" viewBox="0 0 360 360">
  <path d="M70 180 L33 145 L52 180 L33 215 Z" fill="#4f86a8" stroke="#2d263c" stroke-width="7" stroke-linejoin="round"/>
  <path d="M88 180 Q88 122 165 122 Q250 122 264 180 Q250 238 165 238 Q88 238 88 180 Z" fill="#7fc2de" stroke="#2d263c" stroke-width="8" stroke-linejoin="round"/>
  <path d="M100 206 Q165 236 252 206 Q165 230 100 206 Z" fill="#eaf6fb"/>
  <path d="M150 124 Q168 86 202 124 Z" fill="#4f86a8" stroke="#2d263c" stroke-width="7" stroke-linejoin="round"/>
  <path d="M118 200 Q104 216 120 226 Z" fill="#4f86a8" stroke="#2d263c" stroke-width="6" stroke-linejoin="round"/>
  <circle cx="212" cy="168" r="22" fill="#ffffff" stroke="#2d263c" stroke-width="7"/>
  <circle cx="217" cy="170" r="10" fill="#2d263c"/>
  <circle cx="214" cy="166" r="3.5" fill="#ffffff"/>
  <path d="M240 186 Q254 190 244 202" fill="none" stroke="#2d263c" stroke-width="6" stroke-linecap="round"/>
  <path d="M138 152 q12 9 24 0 M174 150 q12 9 24 0" fill="none" stroke="#4f86a8" stroke-width="5" stroke-linecap="round"/>
</svg>
