<svg xmlns="http://www.w3.org/2000/svg" viewBox="0 0 360 360">
  <ellipse cx="180" cy="300" rx="90" ry="14" fill="#2d263c" opacity="0.12"/>
  <path d="M100 300 L95 250 L108 250 L112 300 Z" fill="#3f4a63" stroke="#2d263c" stroke-width="7" stroke-linejoin="round"/>
  <path d="M140 300 L136 255 L150 255 L154 300 Z" fill="#3f4a63" stroke="#2d263c" stroke-width="7" stroke-linejoin="round"/>
  <path d="M215 300 L219 255 L233 255 L228 300 Z" fill="#3f4a63" stroke="#2d263c" stroke-width="7" stroke-linejoin="round"/>
  <path d="M255 300 L260 250 L273 250 L266 300 Z" fill="#3f4a63" stroke="#2d263c" stroke-width="7" stroke-linejoin="round"/>
  <path d="M95 130 Q60 170 78 250 Q90 268 130 270 L235 270 Q272 266 282 245 Q296 165 262 128 Q250 100 180 96 Q110 100 95 130 Z" fill="#4a5772" stroke="#2d263c" stroke-width="8" stroke-linejoin="round"/>
  <path d="M120 260 Q125 200 180 200 Q235 200 240 260 Z" fill="#c9313a" stroke="#2d263c" stroke-width="6" stroke-linejoin="round"/>
  <ellipse cx="180" cy="210" rx="90" ry="78" fill="#9aa7bd" stroke="#2d263c" stroke-width="9"/>
  <path d="M180 148 L214 172 L214 220 Q214 258 180 272 Q146 258 146 220 L146 172 Z" fill="#e3a634" stroke="#2d263c" stroke-width="7" stroke-linejoin="round"/>
  <path d="M180 168 L198 182 L198 216 Q198 240 180 250 Q162 240 162 216 L162 182 Z" fill="#c9313a" stroke="#2d263c" stroke-width="5" stroke-linejoin="round"/>
  <path d="M110 155 Q75 90 55 60 Q78 62 118 100 Z" fill="#4a5772" stroke="#2d263c" stroke-width="8" stroke-linejoin="round"/>
  <path d="M250 155 Q285 90 305 60 Q282 62 242 100 Z" fill="#4a5772" stroke="#2d263c" stroke-width="8" stroke-linejoin="round"/>
  <circle cx="55" cy="58" r="9" fill="#e3a634" stroke="#2d263c" stroke-width="5"/>
  <circle cx="305" cy="58" r="9" fill="#e3a634" stroke="#2d263c" stroke-width="5"/>
  <path d="M150 108 Q180 88 210 108" fill="none" stroke="#2d263c" stroke-width="8" stroke-linecap="round"/>
  <ellipse cx="150" cy="128" rx="13" ry="16" fill="#fff" stroke="#2d263c" stroke-width="6"/>
  <ellipse cx="210" cy="128" rx="13" ry="16" fill="#fff" stroke="#2d263c" stroke-width="6"/>
  <circle cx="150" cy="130" r="6" fill="#c9313a"/>
  <circle cx="210" cy="130" r="6" fill="#c9313a"/>
  <path d="M165 150 Q180 158 195 150" fill="none" stroke="#2d263c" stroke-width="7" stroke-linecap="round"/>
  <path d="M100 132 Q90 140 96 152" fill="none" stroke="#2d263c" stroke-width="6" stroke-linecap="round"/>
  <path d="M260 132 Q270 140 264 152" fill="none" stroke="#2d263c" stroke-width="6" stroke-linecap="round"/>
</svg>
