<svg xmlns="http://www.w3.org/2000/svg" viewBox="0 0 360 360">
  <path d="M310,190 L237.3,213.7 L271.9,281.9 L203.7,247.3 L180,320 L156.3,247.3 L88.1,281.9 L122.7,213.7 L50,190 L122.7,166.3 L88.1,98.1 L156.3,132.7 L180,60 L203.7,132.7 L271.9,98.1 L237.3,166.3 Z" fill="#ff7a1a" stroke="#2d263c" stroke-width="8" stroke-linejoin="round" stroke-linecap="round"/>
  <ellipse cx="165" cy="150" rx="55" ry="45" fill="#ffcf6e" fill-opacity="0.55"/>
  <path d="M165,75 L180,58 L192,80 Z" fill="#e8531c" fill-opacity="0.85"/>
  <path d="M255,110 L272,96 L268,120 Z" fill="#e8531c" fill-opacity="0.85"/>
  <path d="M140,168 L160,159 L168,178 Z" fill="#c9401c"/>
  <path d="M220,168 L200,159 L192,178 Z" fill="#c9401c"/>
  <ellipse cx="155" cy="192" rx="9" ry="12" fill="#2d263c"/>
  <ellipse cx="205" cy="192" rx="9" ry="12" fill="#2d263c"/>
  <circle cx="138" cy="210" r="9" fill="#ff6b4a" fill-opacity="0.7"/>
  <circle cx="222" cy="210" r="9" fill="#ff6b4a" fill-opacity="0.7"/>
  <path d="M165,215 Q180,228 195,215" fill="none" stroke="#2d263c" stroke-width="6" stroke-linecap="round"/>
  <ellipse cx="88" cy="215" rx="22" ry="14" transform="rotate(-20 88 215)" fill="#ff7a1a" stroke="#2d263c" stroke-width="7" stroke-linejoin="round"/>
  <ellipse cx="272" cy="215" rx="22" ry="14" transform="rotate(20 272 215)" fill="#ff7a1a" stroke="#2d263c" stroke-width="7" stroke-linejoin="round"/>
  <ellipse cx="150" cy="298" rx="20" ry="14" fill="#ff7a1a" stroke="#2d263c" stroke-width="7" stroke-linejoin="round"/>
  <ellipse cx="210" cy="298" rx="20" ry="14" fill="#ff7a1a" stroke="#2d263c" stroke-width="7" stroke-linejoin="round"/>
</svg>
