<svg xmlns="http://www.w3.org/2000/svg" viewBox="0 0 360 360">
<ellipse cx="180" cy="230" rx="80" ry="70" fill="#2b2733" stroke="#2d263c" stroke-width="7" stroke-linejoin="round"/>
<path d="M100 200 Q70 150 90 100 Q110 130 120 170 Z" fill="#3a3441" stroke="#2d263c" stroke-width="7" stroke-linejoin="round"/>
<path d="M260 200 Q290 150 270 100 Q250 130 240 170 Z" fill="#3a3441" stroke="#2d263c" stroke-width="7" stroke-linejoin="round"/>
<ellipse cx="180" cy="140" rx="55" ry="50" fill="#2b2733" stroke="#2d263c" stroke-width="7" stroke-linejoin="round"/>
<path d="M135 100 Q120 40 150 25 Q155 60 160 90 Z" fill="#f2f0f5" stroke="#2d263c" stroke-width="6" stroke-linejoin="round"/>
<path d="M165 90 Q160 20 190 15 Q188 55 185 90 Z" fill="#f2f0f5" stroke="#2d263c" stroke-width="6" stroke-linejoin="round"/>
<path d="M195 90 Q205 25 235 30 Q222 65 210 95 Z" fill="#f2f0f5" stroke="#2d263c" stroke-width="6" stroke-linejoin="round"/>
<path d="M220 100 Q245 55 270 65 Q250 90 235 110 Z" fill="#f2f0f5" stroke="#2d263c" stroke-width="6" stroke-linejoin="round"/>
<path d="M140 100 Q115 55 90 65 Q110 90 125 110 Z" fill="#f2f0f5" stroke="#2d263c" stroke-width="6" stroke-linejoin="round"/>
<circle cx="160" cy="140" r="10" fill="#e8332f" stroke="#2d263c" stroke-width="5"/>
<circle cx="200" cy="140" r="10" fill="#e8332f" stroke="#2d263c" stroke-width="5"/>
<path d="M170 165 Q180 172 190 165" fill="none" stroke="#2d263c" stroke-width="6" stroke-linecap="round"/>
<path d="M110 240 Q60 250 40 300 L70 305 Q90 270 120 260 Z" fill="#4a4356" stroke="#2d263c" stroke-width="7" stroke-linejoin="round"/>
<path d="M250 240 Q300 250 320 300 L290 305 Q270 270 240 260 Z" fill="#4a4356" stroke="#2d263c" stroke-width="7" stroke-linejoin="round"/>
<path d="M40 300 L20 330 L55 320 Z" fill="#f2f0f5" stroke="#2d263c" stroke-width="5" stroke-linejoin="round"/>
<path d="M320 300 L340 330 L305 320 Z" fill="#f2f0f5" stroke="#2d263c" stroke-width="5" stroke-linejoin="round"/>
<path d="M150 295 Q160 335 175 340 L165 300 Z" fill="#3a3441" stroke="#2d263c" stroke-width="6" stroke-linejoin="round"/>
<path d="M210 295 Q200 335 185 340 L195 300 Z" fill="#3a3441" stroke="#2d263c" stroke-width="6" stroke-linejoin="round"/>
<path d="M155 210 Q180 225 205 210 Q200 240 180 245 Q160 240 155 210 Z" fill="#e8332f" opacity="0.5" stroke="#2d263c" stroke-width="4" stroke-linejoin="round"/>
</svg>
