<svg xmlns="http://www.w3.org/2000/svg" viewBox="0 0 360 360">
  <path d="M45,70 L70,60 L75,95 L50,100 Z" fill="#B7B7C2" stroke="#2d263c" stroke-width="6" stroke-linejoin="round"/>
  <path d="M300,265 L325,260 L330,290 L305,295 Z" fill="#B7B7C2" stroke="#2d263c" stroke-width="6" stroke-linejoin="round"/>
  <path d="M180,65 L218.2,127.4 L289.4,144.5 L241.8,200.1 L247.6,273 L180,245 L112.4,273 L118.2,200.1 L70.6,144.5 L141.8,127.4 Z" fill="#FF7A1A" stroke="#2d263c" stroke-width="8" stroke-linejoin="round"/>
  <path d="M112.4,273 L180,245 L247.6,273 L241.8,200.1 L118.2,200.1 Z" fill="#E85D00" stroke="none"/>
  <path d="M180,65 L218.2,127.4 L141.8,127.4 Z" fill="#FFB25C" stroke="none"/>
  <line x1="180" y1="180" x2="180" y2="65" stroke="#2d263c" stroke-width="4" stroke-linecap="round"/>
  <line x1="180" y1="180" x2="289.4" y2="144.5" stroke="#2d263c" stroke-width="4" stroke-linecap="round"/>
  <line x1="180" y1="180" x2="247.6" y2="273" stroke="#2d263c" stroke-width="4" stroke-linecap="round"/>
  <line x1="180" y1="180" x2="112.4" y2="273" stroke="#2d263c" stroke-width="4" stroke-linecap="round"/>
  <line x1="180" y1="180" x2="70.6" y2="144.5" stroke="#2d263c" stroke-width="4" stroke-linecap="round"/>
  <path d="M180,65 L218.2,127.4 L289.4,144.5 L241.8,200.1 L247.6,273 L180,245 L112.4,273 L118.2,200.1 L70.6,144.5 L141.8,127.4 Z" fill="none" stroke="#2d263c" stroke-width="8" stroke-linejoin="round"/>
  <circle cx="160" cy="175" r="9" fill="#241f2e" stroke="#2d263c" stroke-width="4"/>
  <circle cx="200" cy="175" r="9" fill="#241f2e" stroke="#2d263c" stroke-width="4"/>
  <circle cx="157" cy="171" r="3" fill="#ffffff"/>
  <circle cx="197" cy="171" r="3" fill="#ffffff"/>
  <path d="M165,205 Q180,214 195,205" fill="none" stroke="#2d263c" stroke-width="5" stroke-linecap="round"/>
</svg>
