<svg xmlns="http://www.w3.org/2000/svg" viewBox="0 0 360 360">
  <path d="M 85 135 Q 78 58 180 55 Q 282 58 275 135 Z" fill="#e0a83c" stroke="#2d263c" stroke-width="8" stroke-linejoin="round"/>
  <path d="M 88 150 Q 85 122 115 122 L 245 122 Q 275 122 272 150 L 272 248 Q 272 272 245 272 L 115 272 Q 88 272 88 248 Z" fill="#e0a83c" stroke="#2d263c" stroke-width="8" stroke-linejoin="round"/>
  <path d="M 165 60 L 197 60 L 199 270 L 163 270 Z" fill="#b8801f" stroke="#2d263c" stroke-width="6" stroke-linejoin="round"/>
  <circle cx="180" cy="86" r="19" fill="#f0c465" stroke="#2d263c" stroke-width="7"/>
  <circle cx="180" cy="86" r="9" fill="none" stroke="#2d263c" stroke-width="6"/>
  <circle cx="105" cy="140" r="8" fill="#b8801f" stroke="#2d263c" stroke-width="6"/>
  <circle cx="255" cy="140" r="8" fill="#b8801f" stroke="#2d263c" stroke-width="6"/>
  <circle cx="105" cy="255" r="8" fill="#b8801f" stroke="#2d263c" stroke-width="6"/>
  <circle cx="255" cy="255" r="8" fill="#b8801f" stroke="#2d263c" stroke-width="6"/>
  <circle cx="86" cy="192" r="12" fill="#b8801f" stroke="#2d263c" stroke-width="6"/>
  <circle cx="274" cy="192" r="12" fill="#b8801f" stroke="#2d263c" stroke-width="6"/>
  <ellipse cx="138" cy="168" rx="16" ry="19" fill="#fdfaf0" stroke="#2d263c" stroke-width="7"/>
  <ellipse cx="222" cy="168" rx="16" ry="19" fill="#fdfaf0" stroke="#2d263c" stroke-width="7"/>
  <circle cx="141" cy="174" r="7" fill="#241a2e"/>
  <circle cx="225" cy="174" r="7" fill="#241a2e"/>
  <path d="M 150 205 Q 165 218 180 205 Q 195 218 210 205" fill="none" stroke="#2d263c" stroke-width="7" stroke-linecap="round" stroke-linejoin="round"/>
  <circle cx="180" cy="222" r="10" fill="#4a3b56" stroke="#2d263c" stroke-width="6"/>
  <path d="M 172 229 L 188 229 L 180 248 Z" fill="#4a3b56" stroke="#2d263c" stroke-width="6" stroke-linejoin="round"/>
  <path d="M 128 265 L 126 313 Q 126 324 139 324 Q 152 324 150 313 L 148 265 Z" fill="#4a3b56" stroke="#2d263c" stroke-width="7" stroke-linejoin="round"/>
  <path d="M 212 265 L 210 313 Q 210 324 223 324 Q 236 324 234 313 L 232 265 Z" fill="#4a3b56" stroke="#2d263c" stroke-width="7" stroke-linejoin="round"/>
  <ellipse cx="139" cy="322" rx="15" ry="9" fill="#382c42" stroke="#2d263c" stroke-width="6"/>
  <ellipse cx="223" cy="322" rx="15" ry="9" fill="#382c42" stroke="#2d263c" stroke-width="6"/>
</svg>
