<svg xmlns="http://www.w3.org/2000/svg" viewBox="0 0 360 360">
  <path d="M150 55 Q135 25 155 22 Q150 45 165 55 Z" fill="#e8b93c" stroke="#2d263c" stroke-width="7" stroke-linejoin="round"/>
  <path d="M210 55 Q225 25 205 22 Q210 45 195 55 Z" fill="#e8b93c" stroke="#2d263c" stroke-width="7" stroke-linejoin="round"/>
  <path d="M95 165 L80 130 L105 150 L95 115 L120 145 Z" fill="#232025" stroke="#2d263c" stroke-width="6" stroke-linejoin="round"/>
  <path d="M265 165 L280 130 L255 150 L265 115 L240 145 Z" fill="#232025" stroke="#2d263c" stroke-width="6" stroke-linejoin="round"/>
  <path d="M120 165 Q70 190 62 240 Q60 255 75 258 Q90 255 88 235 Q95 195 140 175 Z" fill="#5b3a8a" stroke="#2d263c" stroke-width="7" stroke-linejoin="round"/>
  <path d="M240 165 Q290 190 298 240 Q300 255 285 258 Q270 255 272 235 Q265 195 220 175 Z" fill="#5b3a8a" stroke="#2d263c" stroke-width="7" stroke-linejoin="round"/>
  <circle cx="75" cy="245" r="22" fill="none" stroke="#e8b93c" stroke-width="9"/>
  <circle cx="285" cy="245" r="22" fill="none" stroke="#e8b93c" stroke-width="9"/>
  <path d="M180 145 Q235 150 245 220 Q250 265 210 285 Q180 295 150 285 Q110 265 115 220 Q125 150 180 145 Z" fill="#5b3a8a" stroke="#2d263c" stroke-width="8" stroke-linejoin="round"/>
  <ellipse cx="180" cy="152" rx="42" ry="13" fill="none" stroke="#e8b93c" stroke-width="9"/>
  <path d="M140 270 L125 250 L145 260 L135 235 Z" fill="#232025" stroke="#2d263c" stroke-width="6" stroke-linejoin="round"/>
  <path d="M220 270 L235 250 L215 260 L225 235 Z" fill="#232025" stroke="#2d263c" stroke-width="6" stroke-linejoin="round"/>
  <ellipse cx="180" cy="272" rx="58" ry="13" fill="none" stroke="#e8b93c" stroke-width="9"/>
  <polygon points="180,178 192,190 180,202 168,190" fill="#e8b93c" stroke="#2d263c" stroke-width="5" stroke-linejoin="round"/>
  <path d="M155 285 Q150 310 155 325 L175 325 Q178 305 172 285 Z" fill="#5b3a8a" stroke="#2d263c" stroke-width="7" stroke-linejoin="round"/>
  <path d="M205 285 Q210 310 205 325 L185 325 Q182 305 188 285 Z" fill="#5b3a8a" stroke="#2d263c" stroke-width="7" stroke-linejoin="round"/>
  <ellipse cx="165" cy="323" rx="16" ry="8" fill="none" stroke="#e8b93c" stroke-width="7"/>
  <ellipse cx="195" cy="323" rx="16" ry="8" fill="none" stroke="#e8b93c" stroke-width="7"/>
  <circle cx="180" cy="100" r="55" fill="#5b3a8a" stroke="#2d263c" stroke-width="8"/>
  <ellipse cx="180" cy="105" rx="38" ry="42" fill="#f4e9d8" stroke="#2d263c" stroke-width="6"/>
  <polygon points="180,68 186,76 180,84 174,76" fill="#5b3a8a" stroke="#2d263c" stroke-width="4" stroke-linejoin="round"/>
  <ellipse cx="163" cy="100" rx="13" ry="16" fill="#fff" stroke="#2d263c" stroke-width="5"/>
  <ellipse cx="197" cy="100" rx="13" ry="16" fill="#fff" stroke="#2d263c" stroke-width="5"/>
  <circle cx="163" cy="103" r="7" fill="#d0342c"/>
  <circle cx="197" cy="103" r="7" fill="#d0342c"/>
  <path d="M165 128 Q180 138 195 128" fill="none" stroke="#2d263c" stroke-width="6" stroke-linecap="round"/>
  <polygon points="172,128 176,138 168,132" fill="#fff" stroke="#2d263c" stroke-width="3"/>
  <polygon points="188,128 192,132 184,138" fill="#fff" stroke="#2d263c" stroke-width="3"/>
</svg>
