<svg xmlns="http://www.w3.org/2000/svg" viewBox="0 0 360 360">
  <path d="M52,195 L22,140 L48,195 L22,250 Z" fill="#5fbf6a" stroke="#2d263c" stroke-width="7" stroke-linejoin="round" stroke-linecap="round"/>
  <ellipse cx="190" cy="195" rx="118" ry="85" fill="#f2879f" stroke="#2d263c" stroke-width="8" stroke-linejoin="round" stroke-linecap="round"/>
  <ellipse cx="195" cy="238" rx="85" ry="40" fill="#fff3d9" stroke="#2d263c" stroke-width="6" stroke-linejoin="round" stroke-linecap="round"/>
  <path d="M140,115 L175,62 L205,120 Z" fill="#5fbf6a" stroke="#2d263c" stroke-width="7" stroke-linejoin="round" stroke-linecap="round"/>
  <path d="M110,218 L72,248 L122,252 Z" fill="#5fbf6a" stroke="#2d263c" stroke-width="7" stroke-linejoin="round" stroke-linecap="round"/>
  <path d="M92,252 L108,280 L130,250 Z" fill="#5fbf6a" stroke="#2d263c" stroke-width="7" stroke-linejoin="round" stroke-linecap="round"/>
  <path d="M235,140 L250,95 L262,133 L277,88 L293,128 L306,98 L316,148 Z" fill="#5fbf6a" stroke="#2d263c" stroke-width="7" stroke-linejoin="round" stroke-linecap="round"/>
  <ellipse cx="270" cy="176" rx="28" ry="32" fill="#ffffff" stroke="#2d263c" stroke-width="6" stroke-linejoin="round" stroke-linecap="round"/>
  <path d="M240,150 Q270,126 302,152" fill="none" stroke="#2d263c" stroke-width="8" stroke-linecap="round"/>
  <circle cx="276" cy="182" r="13" fill="#2d263c"/>
  <circle cx="269" cy="172" r="5" fill="#ffffff"/>
  <path d="M272,205 Q302,188 332,206 Q338,236 300,258 Q266,242 272,205 Z" fill="#b23a48" stroke="#2d263c" stroke-width="7" stroke-linejoin="round" stroke-linecap="round"/>
  <path d="M280,203 L288,214 L272,213 Z" fill="#ffffff" stroke="#2d263c" stroke-width="3" stroke-linejoin="round"/>
  <path d="M305,197 L312,210 L296,209 Z" fill="#ffffff" stroke="#2d263c" stroke-width="3" stroke-linejoin="round"/>
  <ellipse cx="300" cy="237" rx="16" ry="9" fill="#ff9bb0" stroke="#2d263c" stroke-width="4" stroke-linejoin="round"/>
  <circle cx="232" cy="206" r="11" fill="#ffb6c8" opacity="0.7"/>
  <path d="M100,145 Q140,132 178,144" fill="none" stroke="#2d263c" stroke-width="4" stroke-linecap="round"/>
  <path d="M100,170 Q145,158 185,168" fill="none" stroke="#2d263c" stroke-width="4" stroke-linecap="round"/>
  <path d="M78,160 Q98,150 118,160" fill="none" stroke="#2d263c" stroke-width="4" stroke-linecap="round"/>
</svg>
