<svg xmlns="http://www.w3.org/2000/svg" viewBox="0 0 360 360">
  <ellipse cx="278" cy="230" rx="20" ry="26" transform="rotate(20 278 230)" fill="#ffb3d1" stroke="#2d263c" stroke-width="7"/>
  <rect x="105" y="265" width="34" height="55" rx="17" fill="#eccf95" stroke="#2d263c" stroke-width="7" stroke-linejoin="round"/>
  <rect x="221" y="265" width="34" height="55" rx="17" fill="#eccf95" stroke="#2d263c" stroke-width="7" stroke-linejoin="round"/>
  <rect x="103" y="304" width="38" height="16" rx="8" fill="#4a3a2c" stroke="#2d263c" stroke-width="6" stroke-linejoin="round"/>
  <rect x="219" y="304" width="38" height="16" rx="8" fill="#4a3a2c" stroke="#2d263c" stroke-width="6" stroke-linejoin="round"/>
  <ellipse cx="180" cy="215" rx="92" ry="62" fill="#f5dfae" stroke="#2d263c" stroke-width="8"/>
  <rect x="138" y="270" width="30" height="55" rx="15" fill="#eccf95" stroke="#2d263c" stroke-width="7" stroke-linejoin="round"/>
  <rect x="192" y="270" width="30" height="55" rx="15" fill="#eccf95" stroke="#2d263c" stroke-width="7" stroke-linejoin="round"/>
  <rect x="135" y="311" width="34" height="14" rx="7" fill="#4a3a2c" stroke="#2d263c" stroke-width="6" stroke-linejoin="round"/>
  <rect x="191" y="311" width="34" height="14" rx="7" fill="#4a3a2c" stroke="#2d263c" stroke-width="6" stroke-linejoin="round"/>
  <ellipse cx="180" cy="228" rx="55" ry="34" fill="#fff6df" stroke="#2d263c" stroke-width="6"/>
  <circle cx="120" cy="195" r="13" fill="#ffb3d1" stroke="#2d263c" stroke-width="6"/>
  <circle cx="240" cy="198" r="12" fill="#ffb3d1" stroke="#2d263c" stroke-width="6"/>
  <circle cx="180" cy="170" r="11" fill="#ffb3d1" stroke="#2d263c" stroke-width="6"/>
  <ellipse cx="128" cy="95" rx="16" ry="24" transform="rotate(-18 128 95)" fill="#eccf95" stroke="#2d263c" stroke-width="6"/>
  <ellipse cx="232" cy="95" rx="16" ry="24" transform="rotate(18 232 95)" fill="#eccf95" stroke="#2d263c" stroke-width="6"/>
  <path d="M150,80 C118,64 98,44 108,26 C130,48 156,54 150,80 Z" fill="#ffb3d1" stroke="#2d263c" stroke-width="7" stroke-linejoin="round"/>
  <path d="M210,80 C242,64 262,44 252,26 C230,48 204,54 210,80 Z" fill="#ffb3d1" stroke="#2d263c" stroke-width="7" stroke-linejoin="round"/>
  <ellipse cx="180" cy="120" rx="68" ry="58" fill="#f5dfae" stroke="#2d263c" stroke-width="8"/>
  <circle cx="128" cy="130" r="14" fill="#ff9dc0" opacity="0.45"/>
  <circle cx="232" cy="130" r="14" fill="#ff9dc0" opacity="0.45"/>
  <ellipse cx="150" cy="118" rx="13" ry="17" fill="#2d263c"/>
  <ellipse cx="210" cy="118" rx="13" ry="17" fill="#2d263c"/>
  <circle cx="146" cy="110" r="4" fill="#ffffff"/>
  <circle cx="206" cy="110" r="4" fill="#ffffff"/>
  <ellipse cx="180" cy="142" rx="8" ry="6" fill="#2d263c"/>
  <path d="M165,156 Q180,167 195,156" fill="none" stroke="#2d263c" stroke-width="6" stroke-linecap="round"/>
</svg>
