<svg xmlns="http://www.w3.org/2000/svg" viewBox="0 0 360 360">
<path d="M118,245 L150,245 L146,325 L122,325 Z" fill="#eaf6ff" stroke="#2d263c" stroke-width="7" stroke-linejoin="round" stroke-linecap="round"/>
<path d="M152,252 L182,252 L178,325 L156,325 Z" fill="#eaf6ff" stroke="#2d263c" stroke-width="7" stroke-linejoin="round" stroke-linecap="round"/>
<path d="M232,245 L264,245 L262,325 L236,325 Z" fill="#eaf6ff" stroke="#2d263c" stroke-width="7" stroke-linejoin="round" stroke-linecap="round"/>
<path d="M266,252 L296,252 L294,325 L270,325 Z" fill="#eaf6ff" stroke="#2d263c" stroke-width="7" stroke-linejoin="round" stroke-linecap="round"/>
<ellipse cx="134" cy="323" rx="16" ry="9" fill="#182035" stroke="#2d263c" stroke-width="6" stroke-linejoin="round"/>
<ellipse cx="167" cy="323" rx="16" ry="9" fill="#182035" stroke="#2d263c" stroke-width="6" stroke-linejoin="round"/>
<ellipse cx="248" cy="323" rx="16" ry="9" fill="#182035" stroke="#2d263c" stroke-width="6" stroke-linejoin="round"/>
<ellipse cx="282" cy="323" rx="16" ry="9" fill="#182035" stroke="#2d263c" stroke-width="6" stroke-linejoin="round"/>
<ellipse cx="205" cy="215" rx="95" ry="58" fill="#f2f9ff" stroke="#2d263c" stroke-width="8" stroke-linejoin="round"/>
<path d="M300,190 C325,195 335,225 315,250 C300,265 280,255 280,230 Z" fill="#12234a" stroke="#2d263c" stroke-width="6" stroke-linejoin="round" stroke-linecap="round"/>
<path d="M150,195 C125,155 95,140 85,100 C112,88 152,95 168,132 C180,163 168,190 150,205 Z" fill="#f2f9ff" stroke="#2d263c" stroke-width="8" stroke-linejoin="round" stroke-linecap="round"/>
<path d="M152,128 C163,108 156,84 128,68 C98,52 62,63 52,94 C42,120 54,146 82,157 C108,167 138,155 152,128 Z" fill="#f2f9ff" stroke="#2d263c" stroke-width="8" stroke-linejoin="round" stroke-linecap="round"/>
<path d="M92,68 L82,38 L104,58 Z" fill="#dff2ff" stroke="#2d263c" stroke-width="6" stroke-linejoin="round"/>
<path d="M118,66 L120,34 L138,60 Z" fill="#dff2ff" stroke="#2d263c" stroke-width="6" stroke-linejoin="round"/>
<path d="M100,55 L108,26 L124,40 L130,58 Z" fill="#7fd8ff" stroke="#2d263c" stroke-width="6" stroke-linejoin="round" stroke-linecap="round"/>
<path d="M140,110 C155,95 168,98 178,88 C168,108 158,112 148,124 Z" fill="#12234a" stroke="#2d263c" stroke-width="6" stroke-linejoin="round" stroke-linecap="round"/>
<path d="M160,150 C180,132 198,138 216,122 C204,146 188,150 170,166 Z" fill="#12234a" stroke="#2d263c" stroke-width="6" stroke-linejoin="round" stroke-linecap="round"/>
<path d="M188,178 C210,160 228,166 250,150 C236,174 218,178 198,196 Z" fill="#12234a" stroke="#2d263c" stroke-width="6" stroke-linejoin="round" stroke-linecap="round"/>
<circle cx="98" cy="112" r="13" fill="#fff" stroke="#2d263c" stroke-width="6"/>
<circle cx="100" cy="114" r="6" fill="#e6425a"/>
<path d="M78,142 L92,132 L106,142 L92,152 Z" fill="#7fd8ff" stroke="#2d263c" stroke-width="5" stroke-linejoin="round"/>
<path d="M186,196 L204,190 L212,202" fill="none" stroke="#7fd8ff" stroke-width="6" stroke-linecap="round" stroke-linejoin="round"/>
<path d="M198,214 L216,208 L224,220" fill="none" stroke="#7fd8ff" stroke-width="6" stroke-linecap="round" stroke-linejoin="round"/>
<circle cx="60" cy="118" r="4" fill="#2d263c"/>
<circle cx="172" cy="78" r="15" fill="#f4c542" stroke="#2d263c" stroke-width="6"/>
<path d="M158,68 L166,44 L176,62 Z" fill="#f4c542" stroke="#2d263c" stroke-width="5" stroke-linejoin="round"/>
<path d="M182,64 L192,42 L196,66 Z" fill="#f4c542" stroke="#2d263c" stroke-width="5" stroke-linejoin="round"/>
<circle cx="172" cy="76" r="4" fill="#e6425a"/>
</svg>
