<svg xmlns="http://www.w3.org/2000/svg" viewBox="0 0 360 360">
  <ellipse cx="180" cy="230" rx="98" ry="82" fill="#2a2430" stroke="#2d263c" stroke-width="8" stroke-linejoin="round" stroke-linecap="round"/>
  <path d="M100 165 Q80 110 110 90 Q125 120 138 150 Z" fill="#2a2430" stroke="#2d263c" stroke-width="7" stroke-linejoin="round" stroke-linecap="round"/>
  <path d="M260 165 Q280 110 250 90 Q235 120 222 150 Z" fill="#2a2430" stroke="#2d263c" stroke-width="7" stroke-linejoin="round" stroke-linecap="round"/>
  <ellipse cx="180" cy="270" rx="58" ry="46" fill="#c9502c" stroke="#2d263c" stroke-width="7" stroke-linejoin="round"/>
  <path d="M60 250 Q30 260 20 300 Q45 305 70 290 Q80 270 60 250 Z" fill="#3a3140" stroke="#2d263c" stroke-width="7" stroke-linejoin="round" stroke-linecap="round"/>
  <polygon points="150,190 175,150 165,185 195,175 155,235 165,200" fill="#e8b923" stroke="#2d263c" stroke-width="6" stroke-linejoin="round" stroke-linecap="round"/>
  <polygon points="210,190 235,150 225,185 255,175 215,235 225,200" fill="#e8b923" stroke="#2d263c" stroke-width="6" stroke-linejoin="round" stroke-linecap="round"/>
  <ellipse cx="150" cy="215" rx="18" ry="22" fill="#e23b2e" stroke="#2d263c" stroke-width="7"/>
  <ellipse cx="212" cy="215" rx="18" ry="22" fill="#e23b2e" stroke="#2d263c" stroke-width="7"/>
  <circle cx="146" cy="210" r="5" fill="#1a1420"/>
  <circle cx="216" cy="210" r="5" fill="#1a1420"/>
  <path d="M120 190 L142 200" stroke="#2d263c" stroke-width="7" stroke-linecap="round"/>
  <path d="M242 190 L220 200" stroke="#2d263c" stroke-width="7" stroke-linecap="round"/>
  <path d="M150 250 Q180 275 210 250 L200 260 Q180 268 160 260 Z" fill="#1a1420" stroke="#2d263c" stroke-width="7" stroke-linejoin="round" stroke-linecap="round"/>
  <polygon points="158,254 166,262 174,254 182,264 190,254 198,264 206,254" fill="#f4f0e6" stroke="#2d263c" stroke-width="4" stroke-linejoin="round"/>
  <path d="M280 250 Q320 235 335 260 Q315 260 300 275 Q305 300 290 320 Q270 300 265 275 Q268 258 280 250 Z" fill="#c9502c" stroke="#2d263c" stroke-width="7" stroke-linejoin="round" stroke-linecap="round"/>
  <path d="M300 275 Q310 285 305 300" fill="none" stroke="#8a3620" stroke-width="6" stroke-linecap="round"/>
  <ellipse cx="150" cy="255" rx="6" ry="9" fill="#8a3620"/>
  <ellipse cx="210" cy="255" rx="6" ry="9" fill="#8a3620"/>
</svg>
