<svg xmlns="http://www.w3.org/2000/svg" viewBox="0 0 360 360"><g stroke="#2d263c" stroke-width="7" stroke-linejoin="round" stroke-linecap="round"><path d="M96,95 L264,95 A26,26 0 0 1 290,121 L290,284 A26,26 0 0 1 264,310 L96,310 A26,26 0 0 1 70,284 L70,121 A26,26 0 0 1 96,95 Z" fill="#f2b134"/><path d="M96,95 L264,95 A26,26 0 0 1 290,121 L290,150 L70,150 L70,121 A26,26 0 0 1 96,95 Z" fill="#d99a1b"/><path d="M70,150 L290,150" fill="none" stroke="#c9901f" stroke-width="4"/><path d="M180,150 L180,310" fill="none" stroke="#c9901f" stroke-width="3" opacity="0.6"/><circle cx="92" cy="112" r="9" fill="#6b4a1a" stroke="none"/><circle cx="268" cy="112" r="9" fill="#6b4a1a" stroke="none"/><circle cx="92" cy="293" r="9" fill="#6b4a1a" stroke="none"/><circle cx="268" cy="293" r="9" fill="#6b4a1a" stroke="none"/><path d="M158,200 L202,200 A12,12 0 0 1 214,212 L214,258 A12,12 0 0 1 202,270 L158,270 A12,12 0 0 1 146,258 L146,212 A12,12 0 0 1 158,200 Z" fill="#6b4a1a"/><circle cx="180" cy="222" r="9" fill="#2d263c" stroke="none"/><path d="M174,228 L186,228 L190,250 L170,250 Z" fill="#2d263c" stroke="none"/><circle cx="140" cy="120" r="13" fill="#2d263c" stroke="none"/><circle cx="220" cy="120" r="13" fill="#2d263c" stroke="none"/><circle cx="136" cy="116" r="4" fill="#ffffff" stroke="none"/><circle cx="216" cy="116" r="4" fill="#ffffff" stroke="none"/><path d="M160,146 Q180,158 200,146" fill="none" stroke="#2d263c" stroke-width="4"/><circle cx="180" cy="70" r="32" fill="#ffe082"/><circle cx="180" cy="70" r="22" fill="none" stroke="#d9a441" stroke-width="4"/><path d="M180,55 L191,70 L180,85 L169,70 Z" fill="#d9a441" stroke="none"/><ellipse cx="167" cy="58" rx="8" ry="5" fill="#ffffff" opacity="0.5" stroke="none" transform="rotate(-20 167 58)"/><path d="M222,40 L225,47 L232,50 L225,53 L222,60 L219,53 L212,50 L219,47 Z" fill="#fff59d" stroke="none"/><ellipse cx="100" cy="190" rx="16" ry="42" fill="#ffffff" opacity="0.25" stroke="none"/><path d="M80,250 L280,250" fill="none" stroke="#c9901f" stroke-width="3" opacity="0.6"/><path d="M80,282 L280,282" fill="none" stroke="#c9901f" stroke-width="3" opacity="0.6"/></g></svg>
