<svg xmlns="http://www.w3.org/2000/svg" viewBox="0 0 360 360">
  <path d="M170,160 C100,100 40,120 50,180 C55,222 110,228 170,202 Z" fill="#8fd4c8" stroke="#2d263c" stroke-width="8" stroke-linejoin="round"/>
  <path d="M190,160 C260,100 320,120 310,180 C305,222 250,228 190,202 Z" fill="#8fd4c8" stroke="#2d263c" stroke-width="8" stroke-linejoin="round"/>
  <path d="M170,212 C120,252 110,302 160,302 C186,302 175,252 175,222 Z" fill="#8fd4c8" stroke="#2d263c" stroke-width="8" stroke-linejoin="round"/>
  <path d="M190,212 C240,252 250,302 200,302 C174,302 185,252 185,222 Z" fill="#8fd4c8" stroke="#2d263c" stroke-width="8" stroke-linejoin="round"/>
  <circle cx="96" cy="160" r="14" fill="#e85a4a" stroke="#2d263c" stroke-width="5"/>
  <circle cx="122" cy="190" r="11" fill="#ffd24a" stroke="#2d263c" stroke-width="5"/>
  <circle cx="264" cy="160" r="14" fill="#e85a4a" stroke="#2d263c" stroke-width="5"/>
  <circle cx="238" cy="190" r="11" fill="#ffd24a" stroke="#2d263c" stroke-width="5"/>
  <circle cx="142" cy="266" r="10" fill="#ffd24a" stroke="#2d263c" stroke-width="5"/>
  <circle cx="218" cy="266" r="10" fill="#ffd24a" stroke="#2d263c" stroke-width="5"/>
  <path d="M55,184 Q62,202 78,206" fill="none" stroke="#2d263c" stroke-width="5" stroke-linecap="round"/>
  <path d="M305,184 Q298,202 282,206" fill="none" stroke="#2d263c" stroke-width="5" stroke-linecap="round"/>
  <ellipse cx="180" cy="202" rx="14" ry="64" fill="#f0ecec" stroke="#2d263c" stroke-width="7"/>
  <path d="M174,170 Q180,176 186,170 M174,196 Q180,202 186,196 M174,222 Q180,228 186,222" fill="none" stroke="#2d263c" stroke-width="4" stroke-linecap="round"/>
  <circle cx="180" cy="116" r="26" fill="#f0ecec" stroke="#2d263c" stroke-width="8"/>
  <circle cx="170" cy="116" r="7" fill="#2d263c"/>
  <circle cx="190" cy="116" r="7" fill="#2d263c"/>
  <circle cx="172" cy="114" r="2.5" fill="#ffffff"/>
  <circle cx="192" cy="114" r="2.5" fill="#ffffff"/>
  <path d="M173,130 Q180,136 187,130" fill="none" stroke="#2d263c" stroke-width="4" stroke-linecap="round"/>
  <path d="M168,96 Q150,72 140,62" fill="none" stroke="#2d263c" stroke-width="6" stroke-linecap="round"/>
  <path d="M192,96 Q210,72 220,62" fill="none" stroke="#2d263c" stroke-width="6" stroke-linecap="round"/>
  <circle cx="140" cy="62" r="6" fill="#2d263c"/>
  <circle cx="220" cy="62" r="6" fill="#2d263c"/>
</svg>
