<svg xmlns="http://www.w3.org/2000/svg" viewBox="0 0 360 360">
  <g stroke="#2d263c" stroke-linejoin="round" stroke-linecap="round">
    <path d="M118 84 C104 66 92 50 78 46 C64 44 55 54 54 70 C53 88 58 104 66 118 C75 108 76 92 84 80 C93 71 103 80 111 96 C113 100 116 92 118 84 Z" fill="#EFE0BC" stroke-width="6"/>
    <path d="M56 84 C55 96 58 108 65 116 C71 108 72 96 69 88 C65 80 58 78 56 84 Z" fill="#4B3C36" stroke-width="5"/>
    <path d="M170 90 C182 62 200 42 226 34 C242 30 258 32 270 40 C262 54 246 62 230 64 C215 68 202 82 197 100 Z" fill="#EFE0BC" stroke-width="6"/>
    <path d="M247 36 C257 33 266 35 273 41 C267 51 256 57 246 60 C241 53 241 43 247 36 Z" fill="#4B3C36" stroke-width="5"/>
    <path d="M144 74 C174 70 200 88 210 116 C217 138 214 158 202 176 C214 184 208 198 194 196 C222 214 238 242 246 272 C251 292 249 310 238 320 C231 328 220 328 214 320 C210 330 196 332 188 322 C182 331 168 331 161 321 C155 296 158 268 150 244 C142 258 140 282 146 308 C138 316 126 314 122 302 C110 306 100 296 104 282 C90 288 80 276 86 262 C94 236 106 214 122 198 C104 194 112 180 96 174 C86 158 88 136 100 118 C90 128 82 142 78 158 C68 152 66 138 74 124 C86 100 114 78 144 74 Z" fill="#EFE0BC" stroke-width="7"/>
    <path d="M186 176 L206 168 L200 194 L182 202 Z" fill="#211C2A" stroke-width="5"/>
    <path d="M192 178 C197 184 197 190 192 195" fill="none" stroke-width="3" stroke="#E24B3B"/>
    <path d="M96 176 L78 190 L92 210 L108 196 Z" fill="#211C2A" stroke-width="5"/>
    <path d="M120 214 L104 236 L122 250 L136 230 Z" fill="#211C2A" stroke-width="5"/>
    <path d="M108 232 L92 258 L60 268 L58 250 L82 244 Z" fill="#211C2A" stroke-width="5"/>
    <g transform="rotate(-9 150 138)">
      <path d="M108 116 C117 104 133 106 138 118 C142 130 132 140 119 138 C107 136 101 126 108 116 Z" fill="#2d263c" stroke="none"/>
      <path d="M172 110 C182 100 198 103 202 116 C205 128 194 137 181 134 C170 132 165 121 172 110 Z" fill="#2d263c" stroke="none"/>
      <ellipse cx="98" cy="156" rx="15" ry="11" fill="#F6A23B" stroke="none"/>
      <ellipse cx="204" cy="146" rx="11" ry="15" fill="#F6A23B" stroke="none"/>
      <path d="M118 168 C126 154 136 168 144 158 C150 150 156 168 164 156 C170 148 178 164 186 154" fill="none" stroke-width="5"/>
    </g>
    <ellipse cx="94" cy="196" rx="9" ry="11" fill="#141018" stroke="none"/>
    <ellipse cx="97" cy="193" rx="3.2" ry="4" fill="#E24B3B" stroke="none"/>
    <path d="M132 268 C136 292 142 312 152 326" fill="none" stroke-width="4"/>
    <path d="M188 258 C186 284 182 306 176 322" fill="none" stroke-width="4"/>
  </g>
</svg>
