<svg xmlns="http://www.w3.org/2000/svg" viewBox="0 0 360 360">
<path d="M118 122 L106 52 Q106 40 116 42 L138 102 Z" fill="#ffd23f" stroke="#2d263c" stroke-width="8" stroke-linejoin="round"/>
<path d="M242 122 L254 52 Q254 40 244 42 L222 102 Z" fill="#ffd23f" stroke="#2d263c" stroke-width="8" stroke-linejoin="round"/>
<path d="M106 52 Q106 40 116 42 L111 72 Q103 66 106 52 Z" fill="#2d263c"/>
<path d="M254 52 Q254 40 244 42 L249 72 Q257 66 254 52 Z" fill="#2d263c"/>
<path d="M95 150 Q180 120 265 150 L270 285 L245 272 L222 288 L198 272 L176 288 L154 272 L130 288 L110 272 L90 285 Z" fill="#ffd23f" stroke="#2d263c" stroke-width="8" stroke-linejoin="round"/>
<path d="M180 130 Q176 98 198 88 Q210 82 204 70" fill="none" stroke="#2d263c" stroke-width="8" stroke-linecap="round"/>
<ellipse cx="148" cy="192" rx="9" ry="12" fill="#2d263c"/>
<ellipse cx="212" cy="192" rx="9" ry="12" fill="#2d263c"/>
<circle cx="128" cy="218" r="12" fill="#ff6b6b" stroke="#2d263c" stroke-width="5"/>
<circle cx="232" cy="218" r="12" fill="#ff6b6b" stroke="#2d263c" stroke-width="5"/>
<path d="M168 232 Q180 244 192 232" fill="none" stroke="#e23b3b" stroke-width="6" stroke-linecap="round"/>
<path d="M150 286 L150 314" stroke="#2d263c" stroke-width="11" stroke-linecap="round"/>
<path d="M210 286 L210 314" stroke="#2d263c" stroke-width="11" stroke-linecap="round"/>
</svg>