<svg xmlns="http://www.w3.org/2000/svg" viewBox="0 0 360 360">
<ellipse cx="180" cy="235" rx="62" ry="70" fill="#fff6ea" stroke="#2d263c" stroke-width="7" stroke-linejoin="round"/>
<circle cx="180" cy="140" r="46" fill="#fff6ea" stroke="#2d263c" stroke-width="7" stroke-linejoin="round"/>
<path d="M120 95 C100 60 110 40 130 45 C128 65 138 75 150 78 Z" fill="#ff4f8b" stroke="#2d263c" stroke-width="7" stroke-linejoin="round" stroke-linecap="round"/>
<path d="M150 78 C150 45 165 25 185 30 C178 50 185 65 198 72 Z" fill="#ff7aa8" stroke="#2d263c" stroke-width="7" stroke-linejoin="round" stroke-linecap="round"/>
<path d="M198 72 C205 40 225 28 240 42 C225 55 222 68 228 82 Z" fill="#ff4f8b" stroke="#2d263c" stroke-width="7" stroke-linejoin="round" stroke-linecap="round"/>
<path d="M228 82 C250 65 268 68 268 88 C250 88 238 98 234 108 Z" fill="#ff9fc0" stroke="#2d263c" stroke-width="7" stroke-linejoin="round" stroke-linecap="round"/>
<path d="M96 200 C60 185 45 205 55 225 C75 218 92 225 102 240 Z" fill="#ff4f8b" stroke="#2d263c" stroke-width="7" stroke-linejoin="round" stroke-linecap="round"/>
<path d="M55 225 C35 235 30 258 50 265 C60 250 75 250 88 258 Z" fill="#ff7aa8" stroke="#2d263c" stroke-width="7" stroke-linejoin="round" stroke-linecap="round"/>
<path d="M264 200 C300 185 315 205 305 225 C285 218 268 225 258 240 Z" fill="#ff4f8b" stroke="#2d263c" stroke-width="7" stroke-linejoin="round" stroke-linecap="round"/>
<path d="M305 225 C325 235 330 258 310 265 C300 250 285 250 272 258 Z" fill="#ff7aa8" stroke="#2d263c" stroke-width="7" stroke-linejoin="round" stroke-linecap="round"/>
<path d="M150 290 C140 320 150 335 168 328 C165 312 172 300 182 294 Z" fill="#ff4f8b" stroke="#2d263c" stroke-width="7" stroke-linejoin="round" stroke-linecap="round"/>
<path d="M182 294 C182 322 195 338 210 330 C202 316 206 302 216 294 Z" fill="#ff7aa8" stroke="#2d263c" stroke-width="7" stroke-linejoin="round" stroke-linecap="round"/>
<path d="M216 294 C230 315 248 320 252 302 C238 298 230 288 230 278 Z" fill="#ff9fc0" stroke="#2d263c" stroke-width="7" stroke-linejoin="round" stroke-linecap="round"/>
<circle cx="163" cy="135" r="8" fill="#2d263c"/>
<circle cx="199" cy="135" r="8" fill="#2d263c"/>
<circle cx="150" cy="150" r="9" fill="#ffb3cd" opacity="0.7"/>
<circle cx="212" cy="150" r="9" fill="#ffb3cd" opacity="0.7"/>
<path d="M170 155 L180 168 L190 155 Z" fill="#ffb238" stroke="#2d263c" stroke-width="6" stroke-linejoin="round"/>
<path d="M155 262 Q180 275 205 262" fill="none" stroke="#2d263c" stroke-width="6" stroke-linecap="round"/>
<circle cx="160" cy="215" r="9" fill="#ffd7e6"/>
<circle cx="200" cy="215" r="9" fill="#ffd7e6"/>
<path d="M160 300 L155 322 M160 300 L165 322" stroke="#ffb238" stroke-width="7" stroke-linecap="round"/>
<path d="M200 300 L195 322 M200 300 L205 322" stroke="#ffb238" stroke-width="7" stroke-linecap="round"/>
</svg>
