<svg xmlns="http://www.w3.org/2000/svg" viewBox="0 0 360 360">
  <!-- 後ろの尾羽（ピンク大きめ・フラダンスのスカート風） -->
  <path d="M110 210 Q60 260 78 310 Q100 270 128 240Z" fill="#f6a0c0" stroke="#2d263c" stroke-width="7" stroke-linejoin="round"/>
  <path d="M140 232 Q108 292 130 336 Q150 288 160 250Z" fill="#fb7fae" stroke="#2d263c" stroke-width="7" stroke-linejoin="round"/>
  <path d="M182 240 Q182 300 182 340 Q198 296 198 244Z" fill="#f6a0c0" stroke="#2d263c" stroke-width="7" stroke-linejoin="round"/>
  <path d="M222 232 Q252 292 232 336 Q212 288 204 250Z" fill="#fb7fae" stroke="#2d263c" stroke-width="7" stroke-linejoin="round"/>
  <path d="M252 210 Q302 260 284 310 Q262 270 234 240Z" fill="#f6a0c0" stroke="#2d263c" stroke-width="7" stroke-linejoin="round"/>

  <!-- 左つばさ -->
  <path d="M92 180 Q46 190 40 226 Q78 234 108 210Z" fill="#fb7fae" stroke="#2d263c" stroke-width="7" stroke-linejoin="round"/>
  <!-- 右つばさ -->
  <path d="M268 180 Q314 190 320 226 Q282 234 252 210Z" fill="#fb7fae" stroke="#2d263c" stroke-width="7" stroke-linejoin="round"/>

  <!-- 胴体（丸っこいピンクの体） -->
  <ellipse cx="180" cy="200" rx="86" ry="90" fill="#fdc7dc" stroke="#2d263c" stroke-width="8" stroke-linejoin="round"/>

  <!-- お腹（白ふわふわ） -->
  <ellipse cx="180" cy="222" rx="52" ry="56" fill="#fff6fa" stroke="none"/>

  <!-- 足（左右・オレンジピンク） -->
  <path d="M158 276 L152 306" fill="none" stroke="#e8698a" stroke-width="9" stroke-linecap="round"/>
  <path d="M202 276 L208 306" fill="none" stroke="#e8698a" stroke-width="9" stroke-linecap="round"/>
  <path d="M138 308 L166 308" fill="none" stroke="#2d263c" stroke-width="7" stroke-linecap="round"/>
  <path d="M194 308 L222 308" fill="none" stroke="#2d263c" stroke-width="7" stroke-linecap="round"/>

  <!-- 頭 -->
  <circle cx="180" cy="112" r="66" fill="#fdc7dc" stroke="#2d263c" stroke-width="8"/>

  <!-- 頭上のピンクの花かざり -->
  <circle cx="180" cy="42" r="20" fill="#fb7fae" stroke="#2d263c" stroke-width="6"/>
  <circle cx="160" cy="52" r="16" fill="#f6a0c0" stroke="#2d263c" stroke-width="6"/>
  <circle cx="200" cy="52" r="16" fill="#f6a0c0" stroke="#2d263c" stroke-width="6"/>
  <circle cx="180" cy="46" r="9" fill="#ffe27a" stroke="#2d263c" stroke-width="4"/>

  <!-- くちばし -->
  <path d="M162 128 Q180 146 198 128 Q180 138 162 128Z" fill="#ffce6b" stroke="#2d263c" stroke-width="6" stroke-linejoin="round"/>

  <!-- 目（左） -->
  <ellipse cx="156" cy="106" rx="14" ry="16" fill="#3a2b3c" stroke="#2d263c" stroke-width="4"/>
  <circle cx="160" cy="100" r="4" fill="white"/>

  <!-- 目（右） -->
  <ellipse cx="204" cy="106" rx="14" ry="16" fill="#3a2b3c" stroke="#2d263c" stroke-width="4"/>
  <circle cx="208" cy="100" r="4" fill="white"/>

  <!-- ほっぺ -->
  <circle cx="132" cy="126" r="11" fill="#ff9fc0" opacity="0.7"/>
  <circle cx="228" cy="126" r="11" fill="#ff9fc0" opacity="0.7"/>
</svg>
