<svg xmlns="http://www.w3.org/2000/svg" viewBox="0 0 360 360">
  <!-- 尾のドリル先端(飾り渦) -->
  <path d="M300 150 Q322 148 328 168 Q332 186 314 192 Q298 196 292 180" fill="none" stroke="#8B6A3D" stroke-width="6" stroke-linecap="round"/>

  <!-- 体・二節つながった胴体(ふたふし=2つのかたまり) -->
  <path d="M35 190 C25 140 60 95 115 100 C155 103 178 128 188 155 C198 128 228 98 268 93 C312 88 332 128 332 172 C332 212 302 242 262 247 C222 251 197 232 187 202 C177 232 147 255 108 257 C60 260 30 233 35 190 Z"
        fill="#F3DFAC" stroke="#2d263c" stroke-width="8" stroke-linejoin="round" stroke-linecap="round"/>

  <!-- 頭側の帯模様 -->
  <path d="M126 108 Q142 160 122 244" fill="none" stroke="#C9A15A" stroke-width="14" stroke-linecap="round"/>
  <!-- 尾側の帯模様 -->
  <path d="M228 96 Q244 170 224 246" fill="none" stroke="#C9A15A" stroke-width="14" stroke-linecap="round"/>

  <!-- くびれ(節の継ぎ目)のライン -->
  <path d="M188 128 Q207 170 187 205" fill="none" stroke="#8B6A3D" stroke-width="6" stroke-linecap="round"/>
  <circle cx="192" cy="150" r="3.5" fill="#8B6A3D"/>
  <circle cx="196" cy="170" r="3.5" fill="#8B6A3D"/>
  <circle cx="192" cy="190" r="3.5" fill="#8B6A3D"/>

  <!-- おなかの明るいライン -->
  <path d="M55 228 Q160 268 315 218" fill="none" stroke="#FBEFD8" stroke-width="12" stroke-linecap="round"/>

  <!-- 頭の上の小さな出っ張り -->
  <path d="M96 100 Q110 66 126 100Z" fill="#F3DFAC" stroke="#2d263c" stroke-width="7" stroke-linejoin="round"/>

  <!-- 目 左 -->
  <ellipse cx="80" cy="150" rx="14" ry="16" fill="#ffffff" stroke="#2d263c" stroke-width="5"/>
  <circle cx="80" cy="154" r="7" fill="#2d263c"/>
  <!-- 目 右 -->
  <ellipse cx="120" cy="144" rx="14" ry="16" fill="#ffffff" stroke="#2d263c" stroke-width="5"/>
  <circle cx="120" cy="148" r="7" fill="#2d263c"/>

  <!-- 口もとのひげ模様 -->
  <path d="M55 188 Q90 200 125 186" fill="none" stroke="#8B6A3D" stroke-width="5" stroke-linecap="round"/>
  <!-- 口 -->
  <path d="M88 205 Q100 214 112 203" fill="none" stroke="#2d263c" stroke-width="5" stroke-linecap="round"/>

  <!-- 短い手足(4本) -->
  <ellipse cx="70" cy="260" rx="15" ry="10" fill="#F3DFAC" stroke="#2d263c" stroke-width="6"/>
  <ellipse cx="140" cy="262" rx="15" ry="10" fill="#F3DFAC" stroke="#2d263c" stroke-width="6"/>
  <ellipse cx="228" cy="256" rx="14" ry="10" fill="#F3DFAC" stroke="#2d263c" stroke-width="6"/>
  <ellipse cx="288" cy="248" rx="13" ry="9" fill="#F3DFAC" stroke="#2d263c" stroke-width="6"/>
</svg>
