<svg xmlns="http://www.w3.org/2000/svg" viewBox="0 0 360 360">
<g stroke="#2d263c" stroke-width="7" stroke-linejoin="round" stroke-linecap="round">
  <path d="M70,235 L24,258 L76,296 Z" fill="#293349"/>
  <ellipse cx="155" cy="235" rx="95" ry="78" fill="#34415c"/>
  <path d="M205,175 Q250,215 208,292 Q176,255 190,195 Z" fill="#293349"/>
  <ellipse cx="145" cy="262" rx="54" ry="44" fill="#93a4bb"/>
  <path d="M172,190 C186,150 206,118 236,95 L263,84 C246,116 220,152 206,196 Z" fill="#34415c"/>
  <circle cx="256" cy="88" r="38" fill="#34415c"/>
  <path d="M244,52 L255,26 L263,53 Z" fill="#293349"/>
  <path d="M272,108 Q302,126 292,158 Q266,148 260,118 Z" fill="#e2a43a"/>
  <path d="M284,84 L330,98 Q317,108 296,112 L282,102 Z" fill="#24242b"/>
  <path d="M283,106 L320,126 Q303,134 288,128 L282,116 Z" fill="#24242b"/>
  <path d="M300,110 Q318,108 328,100 L336,110 Q322,120 302,120 Z" fill="#3f7fc9"/>
  <path d="M327,100 L340,92 L336,112 Z" fill="#3f7fc9"/>
  <ellipse cx="313" cy="107" rx="9" ry="4" fill="#f2d24a"/>
  <circle cx="270" cy="80" r="11" fill="#ffffff"/>
  <circle cx="272" cy="80" r="5" fill="#1a1a1a" stroke="none"/>
  <path d="M112,305 L124,303 L119,328 L132,334 L116,338 L107,330 Z" fill="#e08a2c"/>
  <path d="M178,308 L190,306 L184,330 L198,336 L182,338 L172,330 Z" fill="#e08a2c"/>
</g>
</svg>
