<svg xmlns="http://www.w3.org/2000/svg" viewBox="0 0 360 360"><g stroke="#2d263c" stroke-width="7" stroke-linejoin="round" stroke-linecap="round"><path d="M118,96 Q92,54 116,40 Q146,50 142,92 Q130,100 118,96 Z" fill="#6b4423"/><path d="M242,96 Q268,54 244,40 Q214,50 218,92 Q230,100 242,96 Z" fill="#6b4423"/><path d="M122,86 Q110,58 121,50 Q135,58 130,84 Z" fill="#f2d685"/><path d="M238,86 Q250,58 239,50 Q225,58 230,84 Z" fill="#f2d685"/><path d="M180,68 C132,68 98,104 92,158 C86,208 92,258 108,292 C122,320 148,332 180,332 C212,332 238,320 252,292 C268,258 274,208 268,158 C262,104 228,68 180,68 Z" fill="#f2d685"/><path d="M180,68 C142,68 112,90 100,124 Q140,148 180,148 Q220,148 260,124 C248,90 218,68 180,68 Z" fill="#6b4423"/><path d="M94,238 Q180,264 266,238 L262,268 Q180,292 98,268 Z" fill="#232025"/><ellipse cx="90" cy="245" rx="16" ry="22" fill="#f2d685"/><ellipse cx="270" cy="245" rx="16" ry="22" fill="#f2d685"/><ellipse cx="145" cy="322" rx="26" ry="14" fill="#232025"/><ellipse cx="215" cy="322" rx="26" ry="14" fill="#232025"/><circle cx="120" cy="222" r="22" fill="#f7b733"/><circle cx="240" cy="222" r="22" fill="#f7b733"/><path d="M114,214 L124,214 L118,224 L126,224 L112,238 L118,222 L110,222 Z" fill="#232025" stroke="none"/><path d="M234,214 L244,214 L238,224 L246,224 L232,238 L238,222 L230,222 Z" fill="#232025" stroke="none"/><circle cx="150" cy="188" r="14" fill="#232025" stroke="none"/><circle cx="210" cy="188" r="14" fill="#232025" stroke="none"/><circle cx="145" cy="182" r="4" fill="#ffffff" stroke="none"/><circle cx="205" cy="182" r="4" fill="#ffffff" stroke="none"/><path d="M167,206 Q180,214 193,206" fill="none" stroke="#2d263c" stroke-width="5"/><path d="M268,150 L302,128 L282,170 L312,158 L272,222 L286,182 L256,192 Z" fill="#232025"/><path d="M282,150 L298,138 L288,158 L300,152 L280,182 L286,164 L272,168 Z" fill="#f7b733" stroke="none"/></g></svg>
