<svg xmlns="http://www.w3.org/2000/svg" viewBox="0 0 360 360">
  <!-- 尻尾 -->
  <path d="M270 250 Q320 240 315 200 Q300 230 260 235 Z" fill="#3a2f3d" stroke="#2d263c" stroke-width="7" stroke-linejoin="round"/>
  <!-- 後ろ足 -->
  <path d="M255 245 L270 300 Q272 315 258 316 L240 316 Q235 300 240 250 Z" fill="#241e2b" stroke="#2d263c" stroke-width="7" stroke-linejoin="round"/>
  <!-- 前足 -->
  <path d="M120 250 L112 305 Q110 318 96 318 L80 318 Q78 302 92 250 Z" fill="#241e2b" stroke="#2d263c" stroke-width="7" stroke-linejoin="round"/>
  <path d="M175 255 L172 308 Q171 320 157 320 L142 320 Q141 305 152 255 Z" fill="#241e2b" stroke="#2d263c" stroke-width="7" stroke-linejoin="round"/>
  <!-- 胴体(こしを落とした前傾姿勢) -->
  <path d="M90 240 Q75 190 110 165 Q150 140 210 150 Q265 158 268 205 Q270 240 235 250 Q170 268 120 262 Q95 258 90 240Z" fill="#4a1f26" stroke="#2d263c" stroke-width="8" stroke-linejoin="round"/>
  <!-- 背の岩(赤いギザギザの鬣・首から背中) -->
  <path d="M120 165 L108 120 L138 150 L140 100 L165 145 L172 92 L195 143 L210 95 L225 148 L245 115 L240 160 Z" fill="#c62b2b" stroke="#2d263c" stroke-width="7" stroke-linejoin="round"/>
  <!-- 頭 -->
  <ellipse cx="120" cy="150" rx="52" ry="46" fill="#4a1f26" stroke="#2d263c" stroke-width="8"/>
  <!-- マズル(鼻づら) -->
  <path d="M75 158 Q45 160 40 178 Q45 192 72 188 Q78 172 75 158Z" fill="#3a2f3d" stroke="#2d263c" stroke-width="7" stroke-linejoin="round"/>
  <circle cx="46" cy="176" r="3.5" fill="#2d263c"/>
  <!-- 耳 -->
  <path d="M96 112 L84 62 L118 100Z" fill="#241e2b" stroke="#2d263c" stroke-width="7" stroke-linejoin="round"/>
  <path d="M140 108 L156 58 L168 104Z" fill="#241e2b" stroke="#2d263c" stroke-width="7" stroke-linejoin="round"/>
  <!-- 目(赤く光る) -->
  <path d="M92 142 Q104 132 118 140 Q106 150 92 142Z" fill="#ff2d2d" stroke="#2d263c" stroke-width="4" stroke-linejoin="round"/>
  <!-- あご下の赤いトゲ -->
  <path d="M85 185 L70 205 L95 198Z" fill="#c62b2b" stroke="#2d263c" stroke-width="6" stroke-linejoin="round"/>
  <!-- 胸元の模様 -->
  <path d="M130 195 L150 220 L120 225Z" fill="#2d1a20" stroke="#2d263c" stroke-width="5" stroke-linejoin="round"/>
</svg>
