<svg xmlns="http://www.w3.org/2000/svg" viewBox="0 0 360 360">
<ellipse cx="180" cy="256" rx="96" ry="46" fill="#d97a3a" stroke="#2d263c" stroke-width="8" stroke-linejoin="round"/>
<rect x="120" y="268" width="22" height="56" rx="8" fill="#d97a3a" stroke="#2d263c" stroke-width="6"/>
<rect x="218" y="268" width="22" height="56" rx="8" fill="#d97a3a" stroke="#2d263c" stroke-width="6"/>
<path d="M250 240 Q286 234 282 262 Q260 272 244 256 Z" fill="#d97a3a" stroke="#2d263c" stroke-width="7" stroke-linejoin="round"/>
<ellipse cx="120" cy="200" rx="54" ry="46" fill="#d97a3a" stroke="#2d263c" stroke-width="8"/>
<path d="M78 164 Q52 138 74 134 Q96 144 100 170 Z" fill="#d97a3a" stroke="#2d263c" stroke-width="6" stroke-linejoin="round"/>
<path d="M150 168 Q176 132 202 168 Q188 182 176 178 Q164 182 150 168 Z" fill="#e8a050" stroke="#2d263c" stroke-width="6" stroke-linejoin="round"/>
<path d="M98 166 Q88 150 104 148" fill="none" stroke="#b85a20" stroke-width="6" stroke-linecap="round"/>
<ellipse cx="134" cy="194" rx="11" ry="13" fill="#7ab85a"/>
<circle cx="137" cy="196" r="5" fill="#2d263c"/>
<path d="M92 226 L120 220 L92 232 Z" fill="#e8a050" stroke="#2d263c" stroke-width="5" stroke-linejoin="round"/>
<path d="M144 232 Q160 246 144 258" fill="none" stroke="#2d263c" stroke-width="5" stroke-linecap="round"/>
</svg>