<svg xmlns="http://www.w3.org/2000/svg" viewBox="0 0 360 360">
  <path d="M30,188 Q16,203 30,220 Q40,210 38,200 Q40,192 30,188 Z" fill="#f2e0b8" stroke="#2d263c" stroke-width="7" stroke-linejoin="round"/>
  <ellipse cx="80" cy="205" rx="56" ry="46" fill="#f2e0b8" stroke="#2d263c" stroke-width="8"/>
  <ellipse cx="182" cy="150" rx="64" ry="54" fill="#f2e0b8" stroke="#2d263c" stroke-width="8"/>
  <ellipse cx="286" cy="192" rx="58" ry="48" fill="#f2e0b8" stroke="#2d263c" stroke-width="8"/>
  <ellipse cx="78" cy="228" rx="30" ry="9" fill="#fff6e2"/>
  <ellipse cx="182" cy="196" rx="36" ry="10" fill="#fff6e2"/>
  <ellipse cx="286" cy="228" rx="30" ry="9" fill="#fff6e2"/>
  <ellipse cx="80" cy="177" rx="17" ry="9" fill="#c9a068"/>
  <ellipse cx="182" cy="112" rx="21" ry="10" fill="#c9a068"/>
  <ellipse cx="286" cy="157" rx="17" ry="9" fill="#c9a068"/>
  <path d="M130,135 Q142,190 128,242" fill="none" stroke="#2d263c" stroke-width="6" stroke-linecap="round"/>
  <path d="M234,132 Q246,190 232,242" fill="none" stroke="#2d263c" stroke-width="6" stroke-linecap="round"/>
  <ellipse cx="162" cy="200" rx="12" ry="17" fill="#f2e0b8" stroke="#2d263c" stroke-width="6"/>
  <ellipse cx="204" cy="200" rx="12" ry="17" fill="#f2e0b8" stroke="#2d263c" stroke-width="6"/>
  <ellipse cx="256" cy="207" rx="12" ry="8" fill="#f6b3c4"/>
  <ellipse cx="318" cy="212" rx="12" ry="8" fill="#f6b3c4"/>
  <path d="M258,163 Q267,155 276,163" fill="none" stroke="#2d263c" stroke-width="5" stroke-linecap="round"/>
  <path d="M292,167 Q301,159 310,167" fill="none" stroke="#2d263c" stroke-width="5" stroke-linecap="round"/>
  <circle cx="271" cy="180" r="8" fill="#2d263c"/>
  <circle cx="301" cy="184" r="8" fill="#2d263c"/>
  <circle cx="268" cy="177" r="2.6" fill="#ffffff"/>
  <circle cx="298" cy="181" r="2.6" fill="#ffffff"/>
  <path d="M275,206 Q286,215 297,207" fill="none" stroke="#2d263c" stroke-width="6" stroke-linecap="round"/>
</svg>
