<svg xmlns="http://www.w3.org/2000/svg" viewBox="0 0 360 360">
  <circle cx="180" cy="195" r="115" fill="#3ec8f0" stroke="#2d263c" stroke-width="8" stroke-linejoin="round"/>
  <polygon points="260,195 220,126 140,126 100,195 140,264 220,264" fill="none" stroke="#2d263c" stroke-width="6" stroke-linejoin="round"/>
  <path d="M180,195 L260,195 M180,195 L220,126 M180,195 L140,126 M180,195 L100,195 M180,195 L140,264 M180,195 L220,264" fill="none" stroke="#2d263c" stroke-width="6" stroke-linecap="round"/>
  <ellipse cx="150" cy="150" rx="28" ry="16" fill="#ffffff" opacity="0.45"/>
  <circle cx="145" cy="182" r="15" fill="#2d263c" stroke="#2d263c" stroke-width="6" stroke-linejoin="round"/>
  <circle cx="215" cy="182" r="15" fill="#2d263c" stroke="#2d263c" stroke-width="6" stroke-linejoin="round"/>
  <circle cx="140" cy="177" r="5" fill="#ffffff"/>
  <circle cx="210" cy="177" r="5" fill="#ffffff"/>
  <path d="M160,226 Q180,242 200,226" fill="none" stroke="#2d263c" stroke-width="6" stroke-linecap="round"/>
  <ellipse cx="122" cy="206" rx="10" ry="6" fill="#ffb6c1" opacity="0.75"/>
  <ellipse cx="238" cy="206" rx="10" ry="6" fill="#ffb6c1" opacity="0.75"/>
  <path d="M55,32 L61,44 L73,50 L61,56 L55,68 L49,56 L37,50 L49,44 Z" fill="#e0f7ff" stroke="#2d263c" stroke-width="6" stroke-linejoin="round"/>
  <path d="M305,37 L311,49 L323,55 L311,61 L305,73 L299,61 L287,55 L299,49 Z" fill="#e0f7ff" stroke="#2d263c" stroke-width="6" stroke-linejoin="round"/>
  <path d="M50,287 L56,299 L68,305 L56,311 L50,323 L44,311 L32,305 L44,299 Z" fill="#e0f7ff" stroke="#2d263c" stroke-width="6" stroke-linejoin="round"/>
  <path d="M305,282 L311,294 L323,300 L311,306 L305,318 L299,306 L287,300 L299,294 Z" fill="#e0f7ff" stroke="#2d263c" stroke-width="6" stroke-linejoin="round"/>
</svg>
