<svg xmlns="http://www.w3.org/2000/svg" viewBox="0 0 360 360">
  <circle cx="180" cy="180" r="138" fill="none" stroke="#cfe6b8" stroke-width="3" stroke-dasharray="4 10" opacity="0.6"/>
  <path d="M275,180 L236.6,236.6 L180,280 L123.4,236.6 L85,180 L123.4,123.4 L180,80 L236.6,123.4 Z"
        fill="#7cc93c" stroke="#2d263c" stroke-width="8" stroke-linejoin="round" stroke-linecap="round"/>
  <polygon points="180,180 180,80 236.6,123.4 275,180" fill="#a8e26a" opacity="0.55"/>
  <polygon points="180,180 85,180 123.4,236.6 180,280 236.6,236.6" fill="#3f7d1e" opacity="0.35"/>
  <line x1="180" y1="180" x2="180" y2="80" stroke="#4f9a24" stroke-width="3" opacity="0.6" stroke-linecap="round"/>
  <line x1="180" y1="180" x2="85" y2="180" stroke="#4f9a24" stroke-width="3" opacity="0.6" stroke-linecap="round"/>
  <polygon points="168,80 192,80 180,50" fill="#7cc93c" stroke="#2d263c" stroke-width="7" stroke-linejoin="round"/>
  <polygon points="168,280 192,280 180,310" fill="#7cc93c" stroke="#2d263c" stroke-width="7" stroke-linejoin="round"/>
  <polygon points="85,168 85,192 55,180" fill="#7cc93c" stroke="#2d263c" stroke-width="7" stroke-linejoin="round"/>
  <polygon points="275,168 275,192 305,180" fill="#7cc93c" stroke="#2d263c" stroke-width="7" stroke-linejoin="round"/>
  <polygon points="300,80 312,90 302,100 288,92" fill="#8d8d99" stroke="#2d263c" stroke-width="6" stroke-linejoin="round"/>
  <polygon points="70,270 82,278 74,290 60,282" fill="#8d8d99" stroke="#2d263c" stroke-width="6" stroke-linejoin="round"/>
  <polygon points="285,255 298,262 292,275 278,268" fill="#8d8d99" stroke="#2d263c" stroke-width="6" stroke-linejoin="round"/>
  <ellipse cx="150" cy="165" rx="18" ry="22" fill="#1c1c24"/>
  <ellipse cx="210" cy="165" rx="18" ry="22" fill="#1c1c24"/>
  <circle cx="144" cy="158" r="6" fill="#ffffff"/>
  <circle cx="204" cy="158" r="6" fill="#ffffff"/>
  <path d="M165,205 Q180,216 195,205" fill="none" stroke="#1c1c24" stroke-width="6" stroke-linecap="round"/>
  <circle cx="100" cy="110" r="4" fill="#ffffff" opacity="0.85"/>
  <circle cx="258" cy="248" r="4" fill="#ffffff" opacity="0.85"/>
</svg>
