<svg xmlns="http://www.w3.org/2000/svg" viewBox="0 0 360 360">
  <circle cx="66" cy="92" r="13" fill="#9a93a0" stroke="#2d263c" stroke-width="7" stroke-linejoin="round"/>
  <circle cx="302" cy="82" r="10" fill="#9a93a0" stroke="#2d263c" stroke-width="7" stroke-linejoin="round"/>
  <circle cx="294" cy="278" r="11" fill="#9a93a0" stroke="#2d263c" stroke-width="7" stroke-linejoin="round"/>
  <circle cx="58" cy="266" r="9" fill="#9a93a0" stroke="#2d263c" stroke-width="7" stroke-linejoin="round"/>

  <polygon points="180,54 252,122 273,182 252,242 180,308 108,242 87,182 108,122" fill="#8b3fb5" stroke="#2d263c" stroke-width="9" stroke-linejoin="round"/>

  <polygon points="180,54 252,122 180,150 108,122" fill="#b876db" stroke="#2d263c" stroke-width="7" stroke-linejoin="round"/>

  <polygon points="180,308 252,242 180,214 108,242" fill="#5c1f7f" stroke="#2d263c" stroke-width="7" stroke-linejoin="round"/>

  <circle cx="150" cy="182" r="9" fill="#dcb3ef"/>
  <circle cx="210" cy="182" r="9" fill="#dcb3ef"/>

  <rect x="80" y="162" width="200" height="42" rx="10" fill="#2d263c"/>

  <circle cx="150" cy="183" r="15" fill="#ffffff" stroke="#2d263c" stroke-width="6" stroke-linejoin="round"/>
  <circle cx="210" cy="183" r="15" fill="#ffffff" stroke="#2d263c" stroke-width="6" stroke-linejoin="round"/>
  <circle cx="150" cy="183" r="6" fill="#2d263c"/>
  <circle cx="210" cy="183" r="6" fill="#2d263c"/>

  <circle cx="138" cy="108" r="10" fill="#ffffff" opacity="0.55"/>

  <polygon points="60,45 65,55 75,60 65,65 60,75 55,65 45,60 55,55" fill="#fff2c9" stroke="#2d263c" stroke-width="6" stroke-linejoin="round"/>
  <polygon points="306,150 311,160 321,165 311,170 306,180 301,170 291,165 301,160" fill="#fff2c9" stroke="#2d263c" stroke-width="6" stroke-linejoin="round"/>
</svg>
