<svg xmlns="http://www.w3.org/2000/svg" viewBox="0 0 360 360">
<g stroke="#2d263c" stroke-width="7" stroke-linejoin="round" stroke-linecap="round">
<path d="M90,150 L28,82 L70,140 L25,150 L75,160 L35,222 L90,155 Z" fill="#2C557E"/>
<ellipse cx="180" cy="185" rx="140" ry="90" fill="#3D6EA5"/>
<ellipse cx="180" cy="225" rx="108" ry="42" fill="#CFE8F0" stroke="none"/>
<path d="M163,96 L180,48 L200,92 Z" fill="#2C557E"/>
<ellipse cx="235" cy="245" rx="30" ry="16" fill="#2C557E" transform="rotate(25 235 245)"/>
<circle cx="70" cy="129" r="13" fill="#2C557E"/>
<circle cx="100" cy="111" r="13" fill="#2C557E"/>
<circle cx="140" cy="99" r="12" fill="#2C557E"/>
<circle cx="220" cy="99" r="12" fill="#2C557E"/>
<circle cx="260" cy="111" r="13" fill="#2C557E"/>
<circle cx="290" cy="129" r="13" fill="#2C557E"/>
<circle cx="100" cy="259" r="11" fill="#2C557E"/>
<circle cx="140" cy="271" r="11" fill="#2C557E"/>
<circle cx="220" cy="271" r="11" fill="#2C557E"/>
<circle cx="260" cy="259" r="11" fill="#2C557E"/>
<circle cx="145" cy="155" r="34" fill="#FFFFFF"/>
<circle cx="215" cy="155" r="34" fill="#FFFFFF"/>
<circle cx="148" cy="162" r="15" fill="#2d263c" stroke="none"/>
<circle cx="218" cy="162" r="15" fill="#2d263c" stroke="none"/>
<circle cx="138" cy="150" r="6" fill="#FFFFFF" stroke="none"/>
<circle cx="208" cy="150" r="6" fill="#FFFFFF" stroke="none"/>
<path d="M118,120 Q145,103 172,122" fill="none" stroke-width="6"/>
<path d="M188,122 Q215,103 242,120" fill="none" stroke-width="6"/>
<path d="M112,186 Q102,200 112,214" fill="none" stroke="#C0435A" stroke-width="6"/>
<path d="M248,186 Q258,200 248,214" fill="none" stroke="#C0435A" stroke-width="6"/>
<path d="M105,210 Q180,246 255,210 L255,223 Q180,259 105,223 Z" fill="#C0435A"/>
<path d="M110,210 L125,224 L140,210 L155,224 L170,210 L185,224 L200,210 L215,224 L230,210 L245,224 L250,210" fill="#FFFFFF" stroke-width="5"/>
</g>
</svg>
