<svg xmlns="http://www.w3.org/2000/svg" viewBox="0 0 360 360">
<path d="M128 180 Q66 202 78 272 Q120 286 152 240 Z" fill="#d62828" stroke="#2d263c" stroke-width="7" stroke-linejoin="round"/>
<path d="M232 180 Q294 202 282 272 Q240 286 208 240 Z" fill="#d62828" stroke="#2d263c" stroke-width="7" stroke-linejoin="round"/>
<path d="M118 202 Q88 232 104 262" fill="none" stroke="#2d263c" stroke-width="5" stroke-linecap="round"/>
<path d="M242 202 Q272 232 256 262" fill="none" stroke="#2d263c" stroke-width="5" stroke-linecap="round"/>
<ellipse cx="180" cy="222" rx="54" ry="66" fill="#e84545" stroke="#2d263c" stroke-width="8" stroke-linejoin="round"/>
<path d="M148 182 Q180 150 212 182 Q206 204 180 198 Q154 204 148 182 Z" fill="#ffffff" stroke="#2d263c" stroke-width="6" stroke-linejoin="round"/>
<circle cx="180" cy="138" r="48" fill="#e84545" stroke="#2d263c" stroke-width="8"/>
<path d="M144 92 Q128 66 154 78 Q166 100 158 114 Z" fill="#e84545" stroke="#2d263c" stroke-width="6" stroke-linejoin="round"/>
<path d="M216 92 Q232 66 206 78 Q194 100 202 114 Z" fill="#e84545" stroke="#2d263c" stroke-width="6" stroke-linejoin="round"/>
<circle cx="163" cy="136" r="10" fill="#2d263c"/>
<circle cx="197" cy="136" r="10" fill="#2d263c"/>
<circle cx="166" cy="133" r="3" fill="#ffffff"/>
<circle cx="200" cy="133" r="3" fill="#ffffff"/>
<path d="M170 162 L180 178 L190 162 Z" fill="#f4a44b" stroke="#2d263c" stroke-width="5" stroke-linejoin="round"/>
<rect x="170" y="278" width="14" height="36" rx="5" fill="#f4a44b" stroke="#2d263c" stroke-width="5"/>
<rect x="196" y="278" width="14" height="36" rx="5" fill="#f4a44b" stroke="#2d263c" stroke-width="5"/>
</svg>