<svg xmlns="http://www.w3.org/2000/svg" viewBox="0 0 360 360">
<ellipse cx="180" cy="200" rx="122" ry="112" fill="#ece8e0" stroke="#2d263c" stroke-width="8" stroke-linejoin="round"/>
<ellipse cx="105" cy="165" rx="32" ry="30" fill="#ece8e0" stroke="#2d263c" stroke-width="6"/>
<ellipse cx="255" cy="165" rx="32" ry="30" fill="#ece8e0" stroke="#2d263c" stroke-width="6"/>
<ellipse cx="180" cy="95" rx="40" ry="34" fill="#ece8e0" stroke="#2d263c" stroke-width="6"/>
<ellipse cx="120" cy="290" rx="22" ry="32" fill="#ece8e0" stroke="#2d263c" stroke-width="6"/>
<ellipse cx="240" cy="290" rx="22" ry="32" fill="#ece8e0" stroke="#2d263c" stroke-width="6"/>
<ellipse cx="120" cy="320" rx="20" ry="14" fill="#3a3a3a" stroke="#2d263c" stroke-width="5"/>
<ellipse cx="240" cy="320" rx="20" ry="14" fill="#3a3a3a" stroke="#2d263c" stroke-width="5"/>
<circle cx="180" cy="155" r="52" fill="#f5f3ee" stroke="#2d263c" stroke-width="7"/>
<path d="M138 128 Q120 108 135 100 Q152 100 152 122" fill="#ece8e0" stroke="#2d263c" stroke-width="6" stroke-linejoin="round"/>
<path d="M222 128 Q240 108 225 100 Q208 100 208 122" fill="#ece8e0" stroke="#2d263c" stroke-width="6" stroke-linejoin="round"/>
<circle cx="162" cy="155" r="9" fill="#2d263c"/>
<circle cx="198" cy="155" r="9" fill="#2d263c"/>
<ellipse cx="180" cy="178" rx="9" ry="6" fill="#3a3a3a"/>
<path d="M171 190 Q180 198 189 190" fill="none" stroke="#2d263c" stroke-width="4" stroke-linecap="round"/>
<path d="M145 215 Q118 205 105 225" fill="none" stroke="#2d263c" stroke-width="6" stroke-linecap="round"/>
<path d="M215 215 Q242 205 255 225" fill="none" stroke="#2d263c" stroke-width="6" stroke-linecap="round"/>
</svg>
