<svg xmlns="http://www.w3.org/2000/svg" viewBox="0 0 360 360">
<ellipse cx="180" cy="235" rx="95" ry="55" fill="#1f7fc4" stroke="#2d263c" stroke-width="8" stroke-linejoin="round"/>
<path d="M95 245 Q180 300 265 245 Q260 275 180 285 Q100 275 95 245 Z" fill="#eef6fb" stroke="#2d263c" stroke-width="7" stroke-linejoin="round"/>
<path d="M255 200 Q320 175 335 205 Q315 215 300 218 Q320 225 325 245 Q290 245 260 225 Z" fill="#1f7fc4" stroke="#2d263c" stroke-width="7" stroke-linejoin="round"/>
<path d="M60 210 Q10 195 5 165 Q45 175 70 200 Z" fill="#1f7fc4" stroke="#2d263c" stroke-width="7" stroke-linejoin="round"/>
<path d="M150 190 Q180 140 210 190 Q195 200 180 198 Q165 200 150 190 Z" fill="#0f5e94" stroke="#2d263c" stroke-width="7" stroke-linejoin="round"/>
<ellipse cx="95" cy="175" rx="70" ry="60" fill="#1f7fc4" stroke="#2d263c" stroke-width="8" stroke-linejoin="round"/>
<path d="M35 160 Q10 130 30 105 Q55 120 65 150 Z" fill="#0f5e94" stroke="#2d263c" stroke-width="7" stroke-linejoin="round"/>
<path d="M35 205 Q10 235 32 258 Q55 240 62 210 Z" fill="#eef6fb" stroke="#2d263c" stroke-width="7" stroke-linejoin="round"/>
<path d="M45 130 Q95 95 150 130 Q160 165 130 195 Q95 210 60 190 Q35 165 45 130 Z" fill="#eef6fb" stroke="#2d263c" stroke-width="8" stroke-linejoin="round"/>
<path d="M20 150 Q45 125 90 128 Q65 155 55 185 Q30 180 20 150 Z" fill="#eef6fb" stroke="#2d263c" stroke-width="7" stroke-linejoin="round"/>
<circle cx="70" cy="150" r="15" fill="#ffffff" stroke="#2d263c" stroke-width="6"/>
<circle cx="73" cy="150" r="7" fill="#e6402a"/>
<circle cx="130" cy="150" r="15" fill="#ffffff" stroke="#2d263c" stroke-width="6"/>
<circle cx="133" cy="150" r="7" fill="#e6402a"/>
<path d="M30 195 Q60 210 100 205 Q90 220 60 222 Q35 215 30 195 Z" fill="#0f5e94" stroke="#2d263c" stroke-width="6" stroke-linejoin="round"/>
<path d="M120 230 Q150 250 140 275 Q120 265 112 240 Z" fill="#1f7fc4" stroke="#2d263c" stroke-width="7" stroke-linejoin="round"/>
<path d="M235 230 Q265 250 255 275 Q235 265 225 240 Z" fill="#1f7fc4" stroke="#2d263c" stroke-width="7" stroke-linejoin="round"/>
<path d="M105 165 Q120 175 108 190" fill="none" stroke="#0f5e94" stroke-width="6" stroke-linecap="round"/>
<path d="M245 195 Q235 215 255 230" fill="none" stroke="#0f5e94" stroke-width="6" stroke-linecap="round"/>
<path d="M120 215 Q180 230 240 215" fill="none" stroke="#eef6fb" stroke-width="8" stroke-linecap="round"/>
</svg>
