<svg xmlns="http://www.w3.org/2000/svg" viewBox="0 0 360 360">
  <!-- spikes around (cones pointing outward) -->
  <path d="M165 110 L195 110 L180 50 Z" fill="#a85a4a" stroke="#2d263c" stroke-width="7" stroke-linejoin="round"/>
  <path d="M240 120 L255 95 L295 90 Z" fill="#a85a4a" stroke="#2d263c" stroke-width="7" stroke-linejoin="round"/>
  <path d="M255 170 L255 190 L315 180 Z" fill="#a85a4a" stroke="#2d263c" stroke-width="7" stroke-linejoin="round"/>
  <path d="M240 240 L255 265 L295 270 Z" fill="#a85a4a" stroke="#2d263c" stroke-width="7" stroke-linejoin="round"/>
  <path d="M165 250 L195 250 L180 315 Z" fill="#a85a4a" stroke="#2d263c" stroke-width="7" stroke-linejoin="round"/>
  <path d="M120 240 L105 265 L65 270 Z" fill="#a85a4a" stroke="#2d263c" stroke-width="7" stroke-linejoin="round"/>
  <path d="M105 170 L105 190 L45 180 Z" fill="#a85a4a" stroke="#2d263c" stroke-width="7" stroke-linejoin="round"/>
  <path d="M120 120 L105 95 L65 90 Z" fill="#a85a4a" stroke="#2d263c" stroke-width="7" stroke-linejoin="round"/>
  <!-- body sphere -->
  <circle cx="180" cy="180" r="85" fill="#7a3a2a" stroke="#2d263c" stroke-width="8"/>
  <!-- crater spots -->
  <circle cx="145" cy="150" r="9" fill="#5a2a1a" stroke="#2d263c" stroke-width="4"/>
  <circle cx="218" cy="158" r="7" fill="#5a2a1a" stroke="#2d263c" stroke-width="4"/>
  <circle cx="210" cy="225" r="10" fill="#5a2a1a" stroke="#2d263c" stroke-width="4"/>
  <circle cx="142" cy="218" r="6" fill="#5a2a1a" stroke="#2d263c" stroke-width="4"/>
  <!-- eyes -->
  <circle cx="160" cy="185" r="10" fill="#fff8ea" stroke="#2d263c" stroke-width="5"/>
  <circle cx="200" cy="185" r="10" fill="#fff8ea" stroke="#2d263c" stroke-width="5"/>
  <circle cx="161" cy="188" r="4.5" fill="#2d263c"/>
  <circle cx="201" cy="188" r="4.5" fill="#2d263c"/>
  <!-- mouth -->
  <path d="M170 212 Q180 220 190 212" fill="none" stroke="#2d263c" stroke-width="5" stroke-linecap="round"/>
</svg>
