<svg xmlns="http://www.w3.org/2000/svg" viewBox="0 0 360 360">
<ellipse cx="180" cy="300" rx="70" ry="18" fill="#2d263c" opacity="0.12"/>
<path d="M120 250 Q108 300 118 330 Q132 340 148 332 Q150 290 150 250 Z" fill="#232029" stroke="#2d263c" stroke-width="7" stroke-linejoin="round"/>
<path d="M240 250 Q252 300 242 330 Q228 340 212 332 Q210 290 210 250 Z" fill="#232029" stroke="#2d263c" stroke-width="7" stroke-linejoin="round"/>
<path d="M110 130 Q90 150 95 210 Q100 260 130 268 Q170 278 190 268 Q170 250 165 200 Q160 150 150 120 Z" fill="#2f7fd9" stroke="#2d263c" stroke-width="7" stroke-linejoin="round"/>
<path d="M250 130 Q270 150 265 210 Q260 260 230 268 Q190 278 170 268 Q190 250 195 200 Q200 150 210 120 Z" fill="#2f7fd9" stroke="#2d263c" stroke-width="7" stroke-linejoin="round"/>
<path d="M120 110 Q90 150 100 210 Q112 258 180 264 Q248 258 260 210 Q270 150 240 110 Q210 92 180 92 Q150 92 120 110 Z" fill="#f5f2ea" stroke="#2d263c" stroke-width="8" stroke-linejoin="round"/>
<path d="M150 150 Q170 145 180 160 Q190 145 210 150 Q220 175 200 195 Q190 205 180 200 Q170 205 160 195 Q140 175 150 150 Z" fill="#2f7fd9" stroke="#2d263c" stroke-width="5" stroke-linejoin="round"/>
<path d="M60 190 Q40 230 55 275 Q68 300 95 300 Q112 296 112 275 Q100 250 100 215 Q95 185 80 175 Z" fill="#232029" stroke="#2d263c" stroke-width="7" stroke-linejoin="round"/>
<ellipse cx="90" cy="292" rx="24" ry="16" fill="#f5f2ea" stroke="#2d263c" stroke-width="6"/>
<path d="M300 190 Q320 230 305 275 Q292 300 265 300 Q248 296 248 275 Q260 250 260 215 Q265 185 280 175 Z" fill="#232029" stroke="#2d263c" stroke-width="7" stroke-linejoin="round"/>
<ellipse cx="270" cy="292" rx="24" ry="16" fill="#f5f2ea" stroke="#2d263c" stroke-width="6"/>
<circle cx="180" cy="105" r="62" fill="#f5f2ea" stroke="#2d263c" stroke-width="8"/>
<path d="M120 65 Q108 30 130 20 Q148 30 145 62 Z" fill="#232029" stroke="#2d263c" stroke-width="7" stroke-linejoin="round"/>
<circle cx="128" cy="30" r="8" fill="#f5f2ea"/>
<path d="M240 65 Q252 30 230 20 Q212 30 215 62 Z" fill="#232029" stroke="#2d263c" stroke-width="7" stroke-linejoin="round"/>
<circle cx="232" cy="30" r="8" fill="#f5f2ea"/>
<path d="M130 88 Q118 108 132 122 Q150 130 160 112 Q158 92 145 84 Z" fill="#232029" stroke="#2d263c" stroke-width="6" stroke-linejoin="round"/>
<path d="M230 88 Q242 108 228 122 Q210 130 200 112 Q202 92 215 84 Z" fill="#232029" stroke="#2d263c" stroke-width="6" stroke-linejoin="round"/>
<circle cx="142" cy="104" r="6" fill="#f5f2ea"/>
<circle cx="218" cy="104" r="6" fill="#f5f2ea"/>
<ellipse cx="180" cy="128" rx="10" ry="7" fill="#e0658a" stroke="#2d263c" stroke-width="4"/>
<path d="M162 140 Q180 150 198 140" fill="none" stroke="#2d263c" stroke-width="5" stroke-linecap="round"/>
</svg>
