<svg xmlns="http://www.w3.org/2000/svg" viewBox="0 0 360 360">
<ellipse cx="180" cy="150" rx="58" ry="66" fill="#3a4a63" stroke="#2d263c" stroke-width="8" stroke-linejoin="round"/>
<path d="M138 120 Q120 60 90 40 Q120 55 140 90 Z" fill="#5fae6e" stroke="#2d263c" stroke-width="7" stroke-linejoin="round"/>
<path d="M150 100 Q145 40 125 20 Q150 40 160 80 Z" fill="#7cc98a" stroke="#2d263c" stroke-width="7" stroke-linejoin="round"/>
<path d="M175 95 Q185 35 175 15 Q195 40 190 85 Z" fill="#5fae6e" stroke="#2d263c" stroke-width="7" stroke-linejoin="round"/>
<path d="M222 120 Q240 60 270 40 Q240 55 220 90 Z" fill="#5fae6e" stroke="#2d263c" stroke-width="7" stroke-linejoin="round"/>
<path d="M210 100 Q215 40 235 20 Q210 40 200 80 Z" fill="#7cc98a" stroke="#2d263c" stroke-width="7" stroke-linejoin="round"/>
<circle cx="160" cy="140" r="14" fill="#fff" stroke="#2d263c" stroke-width="6"/>
<circle cx="200" cy="140" r="14" fill="#fff" stroke="#2d263c" stroke-width="6"/>
<circle cx="160" cy="142" r="6" fill="#d43b3b"/>
<circle cx="200" cy="142" r="6" fill="#d43b3b"/>
<path d="M170 172 Q180 182 190 172" fill="none" stroke="#2d263c" stroke-width="6" stroke-linecap="round"/>
<path d="M110 150 Q75 160 60 140" fill="none" stroke="#2d263c" stroke-width="7" stroke-linecap="round"/>
<path d="M250 150 Q285 160 300 140" fill="none" stroke="#2d263c" stroke-width="7" stroke-linecap="round"/>
<ellipse cx="180" cy="245" rx="40" ry="45" fill="#3a4a63" stroke="#2d263c" stroke-width="8" stroke-linejoin="round"/>
<path d="M150 230 Q140 250 150 270" fill="none" stroke="#7cc98a" stroke-width="10" stroke-linecap="round"/>
<path d="M210 230 Q220 250 210 270" fill="none" stroke="#7cc98a" stroke-width="10" stroke-linecap="round"/>
<path d="M165 288 L158 320" stroke="#2d263c" stroke-width="9" stroke-linecap="round"/>
<path d="M195 288 L202 320" stroke="#2d263c" stroke-width="9" stroke-linecap="round"/>
<path d="M148 320 L168 320" stroke="#2d263c" stroke-width="8" stroke-linecap="round"/>
<path d="M192 320 L212 320" stroke="#2d263c" stroke-width="8" stroke-linecap="round"/>
<path d="M180 290 Q160 330 140 340 Q170 335 185 305 Z" fill="#5fae6e" stroke="#2d263c" stroke-width="6" stroke-linejoin="round"/>
<path d="M195 290 Q210 335 235 345 Q205 330 195 300 Z" fill="#7cc98a" stroke="#2d263c" stroke-width="6" stroke-linejoin="round"/>
</svg>
