<svg xmlns="http://www.w3.org/2000/svg" viewBox="0 0 360 360">
  <path d="M148,162 Q92,148 55,168" fill="none" stroke="#2d263c" stroke-width="7" stroke-linecap="round"/>
  <path d="M144,182 Q84,186 48,206" fill="none" stroke="#2d263c" stroke-width="7" stroke-linecap="round"/>
  <path d="M148,202 Q94,226 62,256" fill="none" stroke="#2d263c" stroke-width="7" stroke-linecap="round"/>
  <path d="M212,162 Q268,148 305,168" fill="none" stroke="#2d263c" stroke-width="7" stroke-linecap="round"/>
  <path d="M216,182 Q276,186 312,206" fill="none" stroke="#2d263c" stroke-width="7" stroke-linecap="round"/>
  <path d="M212,202 Q266,226 298,256" fill="none" stroke="#2d263c" stroke-width="7" stroke-linecap="round"/>
  <circle cx="92" cy="150" r="7" fill="#a3a3ad" stroke="#2d263c" stroke-width="4"/>
  <circle cx="84" cy="187" r="7" fill="#a3a3ad" stroke="#2d263c" stroke-width="4"/>
  <circle cx="95" cy="227" r="7" fill="#a3a3ad" stroke="#2d263c" stroke-width="4"/>
  <circle cx="268" cy="150" r="7" fill="#a3a3ad" stroke="#2d263c" stroke-width="4"/>
  <circle cx="276" cy="187" r="7" fill="#a3a3ad" stroke="#2d263c" stroke-width="4"/>
  <circle cx="266" cy="227" r="7" fill="#a3a3ad" stroke="#2d263c" stroke-width="4"/>
  <ellipse cx="180" cy="272" rx="50" ry="60" fill="#1c1c22" stroke="#2d263c" stroke-width="9"/>
  <path d="M132,238 Q180,250 228,238" fill="none" stroke="#a3a3ad" stroke-width="7" stroke-linecap="round"/>
  <path d="M128,270 Q180,284 232,270" fill="none" stroke="#a3a3ad" stroke-width="7" stroke-linecap="round"/>
  <ellipse cx="180" cy="216" rx="11" ry="15" fill="#1c1c22" stroke="#2d263c" stroke-width="6"/>
  <ellipse cx="180" cy="180" rx="40" ry="34" fill="#1c1c22" stroke="#2d263c" stroke-width="9"/>
  <path d="M150,158 Q180,144 210,158 L205,192 Q180,202 155,192 Z" fill="#a3a3ad" stroke="#2d263c" stroke-width="6" stroke-linejoin="round"/>
  <circle cx="180" cy="110" r="34" fill="#1c1c22" stroke="#2d263c" stroke-width="9"/>
  <path d="M166,80 Q150,55 140,38" fill="none" stroke="#2d263c" stroke-width="6" stroke-linecap="round"/>
  <circle cx="140" cy="38" r="6" fill="#1c1c22" stroke="#2d263c" stroke-width="5"/>
  <path d="M194,80 Q210,55 220,38" fill="none" stroke="#2d263c" stroke-width="6" stroke-linecap="round"/>
  <circle cx="220" cy="38" r="6" fill="#1c1c22" stroke="#2d263c" stroke-width="5"/>
  <path d="M146,120 Q108,138 122,172 Q136,150 160,128 Z" fill="#b5b5bf" stroke="#2d263c" stroke-width="7" stroke-linejoin="round"/>
  <path d="M214,120 Q252,138 238,172 Q224,150 200,128 Z" fill="#b5b5bf" stroke="#2d263c" stroke-width="7" stroke-linejoin="round"/>
  <ellipse cx="163" cy="104" rx="8" ry="10" fill="#c94141" stroke="#2d263c" stroke-width="5"/>
  <ellipse cx="197" cy="104" rx="8" ry="10" fill="#c94141" stroke="#2d263c" stroke-width="5"/>
  <circle cx="160" cy="100" r="2.5" fill="#ffffff"/>
  <circle cx="194" cy="100" r="2.5" fill="#ffffff"/>
</svg>
