<svg xmlns="http://www.w3.org/2000/svg" viewBox="0 0 360 360">
  <g stroke="#2d263c" stroke-width="7" stroke-linejoin="round" stroke-linecap="round" fill="none">
    <polygon points="250,190 325,120 295,165" fill="#8a94a6"/>
    <polygon points="250,196 322,178 295,197" fill="#b0b8c4"/>
    <polygon points="250,202 322,255 295,220" fill="#8a94a6"/>
    <polygon points="248,190 300,190 295,203" fill="#b0b8c4"/>
    <circle cx="255" cy="192" r="15" fill="#f4c430"/>
    <path d="M112,150 C95,82 162,58 208,88 C180,108 150,128 140,173 Z" fill="#5c6478"/>
    <path d="M120,220 C102,288 168,308 218,278 C185,258 155,238 150,205 Z" fill="#5c6478"/>
    <path d="M150,235 L145,285" stroke-width="8"/>
    <path d="M188,240 L193,288" stroke-width="8"/>
    <polygon points="126,285 145,285 155,300 118,300" fill="#8a94a6" stroke-width="6"/>
    <polygon points="176,290 194,290 206,305 168,305" fill="#8a94a6" stroke-width="6"/>
    <ellipse cx="195" cy="190" rx="112" ry="56" fill="#1c1c24" stroke-width="8"/>
    <ellipse cx="160" cy="156" rx="34" ry="13" fill="#8a94a6" stroke-width="6"/>
    <ellipse cx="212" cy="150" rx="28" ry="11" fill="#8a94a6" stroke-width="6"/>
    <ellipse cx="255" cy="160" rx="22" ry="10" fill="#8a94a6" stroke-width="6"/>
    <ellipse cx="105" cy="175" rx="28" ry="32" fill="#5c6478" stroke-width="7"/>
    <circle cx="80" cy="160" r="44" fill="#1c1c24" stroke-width="8"/>
    <polygon points="70,120 85,120 90,92 66,97" fill="#8a94a6" stroke-width="6"/>
    <polygon points="34,158 62,142 62,178" fill="#f4c430" stroke-width="7"/>
    <circle cx="62" cy="150" r="12" fill="#ffffff" stroke-width="5"/>
  </g>
  <circle cx="60" cy="150" r="6" fill="#e63946"/>
  <g stroke="#2d263c" stroke-width="6" stroke-linejoin="round" stroke-linecap="round">
    <ellipse cx="255" cy="70" rx="19" ry="12" fill="#1c1c24"/>
    <path d="M240,68 C227,55 236,44 250,54" fill="#5c6478"/>
  </g>
  <circle cx="266" cy="67" r="4" fill="#e63946"/>
  <g stroke="#2d263c" stroke-width="6" stroke-linejoin="round" stroke-linecap="round">
    <ellipse cx="58" cy="58" rx="17" ry="11" fill="#1c1c24"/>
    <path d="M45,56 C33,45 41,35 53,44" fill="#5c6478"/>
  </g>
  <circle cx="69" cy="56" r="4" fill="#e63946"/>
</svg>
