<svg xmlns="http://www.w3.org/2000/svg" viewBox="0 0 360 360"><g stroke="#2d263c" stroke-width="7" stroke-linejoin="round" stroke-linecap="round"><path d="M95,180 L85,110 L115,55 L145,95 L180,40 L215,95 L245,55 L275,110 L265,180 Q180,215 95,180 Z" fill="#eaf7fd"/><path d="M120,175 C90,190 70,230 72,270 C74,305 110,325 180,325 C250,325 286,305 288,270 C290,230 270,190 240,175 Q180,195 120,175 Z" fill="#bcdff0"/><ellipse cx="70" cy="230" rx="18" ry="32" fill="#bcdff0" transform="rotate(-20 70 230)"/><ellipse cx="290" cy="230" rx="18" ry="32" fill="#bcdff0" transform="rotate(20 290 230)"/><ellipse cx="140" cy="320" rx="26" ry="13" fill="#f5a623"/><ellipse cx="220" cy="320" rx="26" ry="13" fill="#f5a623"/><path d="M120,172 Q180,192 240,172" fill="none" stroke-width="4"/><ellipse cx="180" cy="255" rx="55" ry="58" fill="#ffffff" stroke="none"/><path d="M130,92 L150,120" fill="none" stroke="#8ecbe4" stroke-width="4"/><path d="M230,92 L210,120" fill="none" stroke="#8ecbe4" stroke-width="4"/><circle cx="180" cy="60" r="6" fill="#ffffff" stroke="none"/><circle cx="155" cy="150" r="12" fill="#2d263c" stroke="none"/><circle cx="205" cy="150" r="12" fill="#2d263c" stroke="none"/><circle cx="151" cy="146" r="4" fill="#ffffff" stroke="none"/><circle cx="201" cy="146" r="4" fill="#ffffff" stroke="none"/><ellipse cx="135" cy="172" rx="10" ry="6" fill="#ffb3c1" stroke="none"/><ellipse cx="225" cy="172" rx="10" ry="6" fill="#ffb3c1" stroke="none"/><path d="M166,180 L194,180" fill="none" stroke-width="5"/><ellipse cx="145" cy="220" rx="16" ry="26" fill="#ffffff" opacity="0.35" stroke="none"/></g></svg>
