<svg xmlns="http://www.w3.org/2000/svg" viewBox="0 0 360 360">
  <!-- legs (dark underlay -> yellow -> purple stripes) -->
  <path d="M128 232 L58 172 L32 262" fill="none" stroke="#2d263c" stroke-width="19" stroke-linejoin="round" stroke-linecap="round"/>
  <path d="M122 262 L48 252 L38 332" fill="none" stroke="#2d263c" stroke-width="19" stroke-linejoin="round" stroke-linecap="round"/>
  <path d="M232 230 L306 162 L332 252" fill="none" stroke="#2d263c" stroke-width="19" stroke-linejoin="round" stroke-linecap="round"/>
  <path d="M236 264 L312 256 L318 338" fill="none" stroke="#2d263c" stroke-width="19" stroke-linejoin="round" stroke-linecap="round"/>
  <path d="M128 232 L58 172 L32 262" fill="none" stroke="#f2c94c" stroke-width="9" stroke-linejoin="round" stroke-linecap="round"/>
  <path d="M122 262 L48 252 L38 332" fill="none" stroke="#f2c94c" stroke-width="9" stroke-linejoin="round" stroke-linecap="round"/>
  <path d="M232 230 L306 162 L332 252" fill="none" stroke="#f2c94c" stroke-width="9" stroke-linejoin="round" stroke-linecap="round"/>
  <path d="M236 264 L312 256 L318 338" fill="none" stroke="#f2c94c" stroke-width="9" stroke-linejoin="round" stroke-linecap="round"/>
  <path d="M97 205 L86 196 M49 204 L45 219" fill="none" stroke="#7b52a1" stroke-width="9" stroke-linecap="round"/>
  <path d="M89 258 L78 256 M45 280 L43 294" fill="none" stroke="#7b52a1" stroke-width="9" stroke-linecap="round"/>
  <path d="M265 199 L276 189 M315 194 L319 208" fill="none" stroke="#7b52a1" stroke-width="9" stroke-linecap="round"/>
  <path d="M270 260 L282 259 M314 285 L315 299" fill="none" stroke="#7b52a1" stroke-width="9" stroke-linecap="round"/>
  <!-- back stubs + rear stinger (behind abdomen) -->
  <path d="M150 78 L126 38" fill="none" stroke="#2d263c" stroke-width="15" stroke-linecap="round"/>
  <path d="M224 80 L248 44" fill="none" stroke="#2d263c" stroke-width="15" stroke-linecap="round"/>
  <path d="M150 78 L126 38" fill="none" stroke="#f2c94c" stroke-width="7" stroke-linecap="round"/>
  <path d="M224 80 L248 44" fill="none" stroke="#f2c94c" stroke-width="7" stroke-linecap="round"/>
  <path d="M166 72 L187 16 L208 70 Z" fill="#f6f1e7" stroke="#2d263c" stroke-width="7" stroke-linejoin="round"/>
  <!-- abdomen -->
  <ellipse cx="185" cy="142" rx="92" ry="80" fill="#cf4436" stroke="#2d263c" stroke-width="8"/>
  <path d="M108 112 Q186 134 262 106" fill="none" stroke="#2d263c" stroke-width="11" stroke-linecap="round"/>
  <path d="M122 162 Q186 184 250 156" fill="none" stroke="#2d263c" stroke-width="11" stroke-linecap="round"/>
  <!-- head horn (base hidden by head) -->
  <path d="M162 216 L177 166 L194 218 Z" fill="#f6f1e7" stroke="#2d263c" stroke-width="7" stroke-linejoin="round"/>
  <!-- head -->
  <ellipse cx="178" cy="252" rx="61" ry="49" fill="#cf4436" stroke="#2d263c" stroke-width="8"/>
  <!-- fangs -->
  <path d="M149 291 L158 320 L171 295 Z" fill="#f6f1e7" stroke="#2d263c" stroke-width="6" stroke-linejoin="round"/>
  <path d="M207 289 L200 320 L187 293 Z" fill="#f6f1e7" stroke="#2d263c" stroke-width="6" stroke-linejoin="round"/>
  <path d="M168 294 Q178 302 188 292" fill="none" stroke="#2d263c" stroke-width="6" stroke-linecap="round"/>
  <!-- eyes (angry) -->
  <ellipse cx="153" cy="249" rx="12" ry="15" fill="#ffffff" stroke="#2d263c" stroke-width="6"/>
  <ellipse cx="206" cy="246" rx="13" ry="16" fill="#ffffff" stroke="#2d263c" stroke-width="6"/>
  <circle cx="157" cy="251" r="4.5" fill="#2d263c"/>
  <circle cx="201" cy="248" r="5" fill="#2d263c"/>
  <path d="M137 229 L168 238 M221 226 L191 236" fill="none" stroke="#2d263c" stroke-width="7" stroke-linecap="round"/>
</svg>