<svg xmlns="http://www.w3.org/2000/svg" viewBox="0 0 360 360">
  <!-- tail (behind body) -->
  <path d="M225 265 Q290 250 305 195 Q310 175 295 180 Q285 220 225 235 Z" fill="#3a9d94" stroke="#2d263c" stroke-width="7" stroke-linejoin="round" stroke-linecap="round"/>

  <!-- back leg -->
  <path d="M195 250 Q190 285 175 300 L210 300 Q220 275 220 250 Z" fill="#2f8078" stroke="#2d263c" stroke-width="7" stroke-linejoin="round" stroke-linecap="round"/>
  <path d="M172 298 Q170 312 185 312 Q210 312 212 298 Z" fill="#e04a2f" stroke="#2d263c" stroke-width="6" stroke-linejoin="round"/>

  <!-- front leg -->
  <path d="M135 250 Q130 285 118 300 L152 300 Q160 273 160 250 Z" fill="#2f8078" stroke="#2d263c" stroke-width="7" stroke-linejoin="round" stroke-linecap="round"/>
  <path d="M116 298 Q114 312 129 312 Q152 312 154 298 Z" fill="#e04a2f" stroke="#2d263c" stroke-width="6" stroke-linejoin="round"/>

  <!-- body -->
  <path d="M110 175 Q100 240 150 260 Q210 275 235 235 Q255 195 225 150 Q195 110 150 120 Q118 128 110 175 Z"
        fill="#3fa89d" stroke="#2d263c" stroke-width="8" stroke-linejoin="round"/>

  <!-- belly plate segments -->
  <path d="M140 175 Q170 190 205 178" fill="none" stroke="#2d263c" stroke-width="5" stroke-linecap="round"/>
  <path d="M135 205 Q170 222 215 208" fill="none" stroke="#2d263c" stroke-width="5" stroke-linecap="round"/>
  <path d="M145 232 Q175 245 205 233" fill="none" stroke="#2d263c" stroke-width="5" stroke-linecap="round"/>

  <!-- right arm to big claw -->
  <path d="M225 165 Q265 155 285 130" fill="none" stroke="#2d263c" stroke-width="9" stroke-linecap="round"/>
  <path d="M270 100 Q300 95 315 115 Q322 130 305 138 Q315 148 300 158 Q285 165 275 150 Q260 135 270 100 Z"
        fill="#e5502f" stroke="#2d263c" stroke-width="7" stroke-linejoin="round"/>

  <!-- left arm to big claw -->
  <path d="M120 160 Q90 145 75 115" fill="none" stroke="#2d263c" stroke-width="9" stroke-linecap="round"/>
  <path d="M92 85 Q65 78 52 100 Q45 115 62 122 Q52 133 68 143 Q83 150 92 135 Q106 118 92 85 Z"
        fill="#e5502f" stroke="#2d263c" stroke-width="7" stroke-linejoin="round"/>

  <!-- neck/head crest -->
  <path d="M150 125 Q140 95 165 78 Q195 60 220 82 Q235 96 222 118 Q205 140 175 138 Q155 137 150 125 Z"
        fill="#3fa89d" stroke="#2d263c" stroke-width="8" stroke-linejoin="round"/>

  <!-- head crest spikes -->
  <path d="M195 78 Q198 55 215 48 Q210 68 205 82 Z" fill="#2f8078" stroke="#2d263c" stroke-width="6" stroke-linejoin="round"/>
  <path d="M170 82 Q165 60 180 48 Q182 68 182 86 Z" fill="#2f8078" stroke="#2d263c" stroke-width="6" stroke-linejoin="round"/>

  <!-- face plate -->
  <path d="M168 95 Q160 118 180 130 Q205 140 218 118 Q222 100 205 90 Q185 82 168 95 Z"
        fill="#e5502f" stroke="#2d263c" stroke-width="6" stroke-linejoin="round"/>

  <!-- eyes -->
  <circle cx="185" cy="106" r="7" fill="#fff8ea" stroke="#2d263c" stroke-width="5"/>
  <circle cx="205" cy="104" r="7" fill="#fff8ea" stroke="#2d263c" stroke-width="5"/>
  <circle cx="186" cy="107" r="2.6" fill="#2d263c"/>
  <circle cx="206" cy="105" r="2.6" fill="#2d263c"/>

  <!-- mouth line -->
  <path d="M182 122 Q195 128 208 120" fill="none" stroke="#2d263c" stroke-width="4" stroke-linecap="round"/>
</svg>
