<svg xmlns="http://www.w3.org/2000/svg" viewBox="0 0 360 360">
<ellipse cx="180" cy="330" rx="90" ry="14" fill="#2d263c" opacity="0.15"/>
<path d="M100 300 Q80 220 90 160 Q100 90 180 60 Q260 90 270 160 Q280 220 260 300 Q230 330 180 328 Q130 330 100 300 Z" fill="#5a2436" stroke="#2d263c" stroke-width="8" stroke-linejoin="round"/>
<path d="M118 150 Q100 100 130 70 Q150 55 165 75 Q150 100 140 140 Z" fill="#3a1626" stroke="#2d263c" stroke-width="7" stroke-linejoin="round"/>
<path d="M242 150 Q260 100 230 70 Q210 55 195 75 Q210 100 220 140 Z" fill="#3a1626" stroke="#2d263c" stroke-width="7" stroke-linejoin="round"/>
<ellipse cx="180" cy="150" rx="70" ry="60" fill="#6b2c40" stroke="#2d263c" stroke-width="7"/>
<path d="M150 205 Q180 240 210 205 Q220 260 180 275 Q140 260 150 205 Z" fill="#f2e9d8" stroke="#2d263c" stroke-width="6" stroke-linejoin="round"/>
<path d="M170 220 A22 22 0 1 1 190 245 A16 16 0 1 0 170 220 Z" fill="#8b1a2b" stroke="#2d263c" stroke-width="5"/>
<circle cx="152" cy="140" r="13" fill="#ff3b3b" stroke="#2d263c" stroke-width="6"/>
<circle cx="208" cy="140" r="13" fill="#ff3b3b" stroke="#2d263c" stroke-width="6"/>
<circle cx="156" cy="137" r="3.5" fill="#2d263c"/>
<circle cx="212" cy="137" r="3.5" fill="#2d263c"/>
<path d="M165 172 Q180 182 195 172" fill="none" stroke="#2d263c" stroke-width="6" stroke-linecap="round"/>
<path d="M155 118 Q170 108 185 118" fill="none" stroke="#2d263c" stroke-width="5" stroke-linecap="round"/>
<path d="M175 118 Q190 108 205 118" fill="none" stroke="#2d263c" stroke-width="5" stroke-linecap="round"/>
<path d="M95 205 Q60 220 55 260 Q52 285 75 295 Q95 298 100 275 Q90 260 95 230 Z" fill="#5a2436" stroke="#2d263c" stroke-width="7" stroke-linejoin="round"/>
<path d="M265 205 Q300 220 305 260 Q308 285 285 295 Q265 298 260 275 Q270 260 265 230 Z" fill="#5a2436" stroke="#2d263c" stroke-width="7" stroke-linejoin="round"/>
<path d="M60 280 Q55 300 68 305 Q80 308 82 293" fill="#f2e9d8" stroke="#2d263c" stroke-width="6" stroke-linejoin="round"/>
<path d="M278 280 Q283 300 270 305 Q258 308 256 293" fill="#f2e9d8" stroke="#2d263c" stroke-width="6" stroke-linejoin="round"/>
<path d="M130 300 Q125 325 140 328 Q155 330 158 310" fill="#3a1626" stroke="#2d263c" stroke-width="7" stroke-linejoin="round"/>
<path d="M230 300 Q235 325 220 328 Q205 330 202 310" fill="#3a1626" stroke="#2d263c" stroke-width="7" stroke-linejoin="round"/>
<path d="M175 200 Q165 215 175 225 M185 200 Q195 215 185 225" fill="none" stroke="#f2e9d8" stroke-width="4" stroke-linecap="round" opacity="0.7"/>
</svg>
