<svg xmlns="http://www.w3.org/2000/svg" viewBox="0 0 360 360">
  <path d="M155,92 C112,58 68,32 36,20 C68,54 104,84 142,112 Z" fill="#3d5fd6" stroke="#2d263c" stroke-width="6" stroke-linejoin="round"/>
  <path d="M172,88 C169,55 166,28 164,22 C172,42 179,65 183,95 Z" fill="#3d5fd6" stroke="#2d263c" stroke-width="6" stroke-linejoin="round"/>
  <path d="M190,92 C226,60 262,36 272,32 C242,58 208,86 200,110 Z" fill="#3d5fd6" stroke="#2d263c" stroke-width="6" stroke-linejoin="round"/>

  <path d="M110,222 C90,252 66,276 56,296 C74,290 96,268 112,244 Z" fill="#fdf6d6" stroke="#2d263c" stroke-width="7" stroke-linejoin="round"/>
  <ellipse cx="55" cy="300" rx="15" ry="20" transform="rotate(-25 55 300)" fill="#3d5fd6" stroke="#2d263c" stroke-width="6"/>

  <path d="M250,222 C270,252 294,276 304,296 C286,290 264,268 248,244 Z" fill="#fdf6d6" stroke="#2d263c" stroke-width="7" stroke-linejoin="round"/>
  <ellipse cx="305" cy="300" rx="15" ry="20" transform="rotate(25 305 300)" fill="#3d5fd6" stroke="#2d263c" stroke-width="6"/>

  <path d="M167,298 Q180,325 193,298 Z" fill="#fdf6d6" stroke="#2d263c" stroke-width="6" stroke-linejoin="round"/>
  <path d="M158,320 L148,345 L168,332 Z" fill="#3d5fd6" stroke="#2d263c" stroke-width="6" stroke-linejoin="round"/>
  <path d="M170,325 L178,352 L190,325 Z" fill="#3d5fd6" stroke="#2d263c" stroke-width="6" stroke-linejoin="round"/>
  <path d="M192,320 L212,345 L192,332 Z" fill="#3d5fd6" stroke="#2d263c" stroke-width="6" stroke-linejoin="round"/>

  <ellipse cx="180" cy="238" rx="78" ry="70" fill="#fdf6d6" stroke="#2d263c" stroke-width="8"/>

  <circle cx="180" cy="142" r="58" fill="#fdf6d6" stroke="#2d263c" stroke-width="8"/>

  <path d="M124,197 Q180,228 236,197 L236,178 Q180,206 124,178 Z" fill="#f6d84a" stroke="#2d263c" stroke-width="6" stroke-linejoin="round"/>

  <ellipse cx="146" cy="158" rx="12" ry="8" fill="#f9b8c4" opacity="0.7"/>
  <ellipse cx="214" cy="158" rx="12" ry="8" fill="#f9b8c4" opacity="0.7"/>

  <path d="M148,134 Q160,146 174,133" fill="none" stroke="#2d263c" stroke-width="7" stroke-linecap="round"/>
  <path d="M186,133 Q200,146 212,134" fill="none" stroke="#2d263c" stroke-width="7" stroke-linecap="round"/>
</svg>
