<svg xmlns="http://www.w3.org/2000/svg" viewBox="0 0 360 360">
<ellipse cx="108" cy="172" rx="50" ry="34" fill="#fff5d6" stroke="#2d263c" stroke-width="6" stroke-linejoin="round"/>
<ellipse cx="252" cy="172" rx="50" ry="34" fill="#fff5d6" stroke="#2d263c" stroke-width="6" stroke-linejoin="round"/>
<ellipse cx="180" cy="222" rx="46" ry="52" fill="#f4d04a" stroke="#2d263c" stroke-width="8" stroke-linejoin="round"/>
<path d="M148 232 Q180 254 212 232 Q202 262 180 260 Q158 262 148 232 Z" fill="#e8a040" stroke="#2d263c" stroke-width="5" stroke-linejoin="round"/>
<circle cx="162" cy="182" r="24" fill="#2d263c" stroke="#2d263c" stroke-width="6"/>
<circle cx="198" cy="182" r="24" fill="#2d263c" stroke="#2d263c" stroke-width="6"/>
<circle cx="170" cy="176" r="7" fill="#ffffff"/>
<circle cx="206" cy="176" r="7" fill="#ffffff"/>
<path d="M160 152 Q150 136 160 126" fill="none" stroke="#2d263c" stroke-width="5" stroke-linecap="round"/>
<path d="M200 152 Q210 136 200 126" fill="none" stroke="#2d263c" stroke-width="5" stroke-linecap="round"/>
<circle cx="158" cy="124" r="6" fill="#2d263c"/>
<circle cx="202" cy="124" r="6" fill="#2d263c"/>
<path d="M154 266 Q144 282 150 292" fill="none" stroke="#2d263c" stroke-width="6" stroke-linecap="round"/>
<path d="M206 266 Q216 282 210 292" fill="none" stroke="#2d263c" stroke-width="6" stroke-linecap="round"/>
</svg>