<svg xmlns="http://www.w3.org/2000/svg" viewBox="0 0 360 360">
<path d="M180 175 Q130 110 70 130 Q90 175 175 190 Z" fill="#c4a8e0" stroke="#2d263c" stroke-width="7" stroke-linejoin="round"/>
<path d="M180 175 Q230 110 290 130 Q270 175 185 190 Z" fill="#c4a8e0" stroke="#2d263c" stroke-width="7" stroke-linejoin="round"/>
<path d="M90 145 Q120 165 165 182" stroke="#e8c84a" stroke-width="6" fill="none" stroke-linecap="round"/>
<path d="M270 145 Q240 165 195 182" stroke="#e8c84a" stroke-width="6" fill="none" stroke-linecap="round"/>
<path d="M205 235 C255 225 295 220 322 214" stroke="#2d263c" stroke-width="7" fill="none" stroke-linecap="round"/>
<path d="M322 214 L312 208 M322 214 L312 220" stroke="#2d263c" stroke-width="7" fill="none" stroke-linecap="round"/>
<path d="M150 215 Q200 200 225 215 Q230 245 200 252 Q160 252 150 235 Z" fill="#7a5a9e" stroke="#2d263c" stroke-width="8" stroke-linejoin="round"/>
<path d="M180 202 L182 250" stroke="#e8c84a" stroke-width="9" fill="none" stroke-linecap="round"/>
<path d="M165 250 L158 300" stroke="#2d263c" stroke-width="8" stroke-linecap="round"/>
<path d="M188 252 L198 300" stroke="#2d263c" stroke-width="8" stroke-linecap="round"/>
<ellipse cx="155" cy="195" rx="24" ry="28" fill="#7a5a9e" stroke="#2d263c" stroke-width="8"/>
<path d="M155 170 L155 220" stroke="#e8c84a" stroke-width="7" fill="none" stroke-linecap="round"/>
<path d="M132 165 Q120 140 145 130 Q175 135 175 170 Q168 188 148 188 Q132 182 132 165 Z" fill="#7a5a9e" stroke="#2d263c" stroke-width="8" stroke-linejoin="round"/>
<path d="M148 130 Q142 108 152 92" stroke="#2d263c" stroke-width="7" fill="none" stroke-linecap="round"/>
<ellipse cx="152" cy="158" rx="11" ry="14" fill="#fff" stroke="#2d263c" stroke-width="6"/>
<circle cx="155" cy="161" r="5" fill="#2d263c"/>
<path d="M140 195 L120 210" stroke="#2d263c" stroke-width="7" stroke-linecap="round"/>
<path d="M170 195 L188 210" stroke="#2d263c" stroke-width="7" stroke-linecap="round"/>
</svg>