<svg xmlns="http://www.w3.org/2000/svg" viewBox="0 0 360 360">
  <!-- 尻尾 (後ろ) -->
  <path d="M215 255 Q270 260 305 235 Q320 222 310 210 Q290 225 255 222 Q225 220 205 235Z" fill="#3D9C8F" stroke="#2d263c" stroke-width="7" stroke-linejoin="round" stroke-linecap="round"/>

  <!-- 後ろ足 左 -->
  <path d="M150 280 Q145 305 138 320 Q150 328 162 320 Q160 300 165 282Z" fill="#3D9C8F" stroke="#2d263c" stroke-width="7" stroke-linejoin="round" stroke-linecap="round"/>
  <!-- 後ろ足 右 -->
  <path d="M205 282 Q205 305 210 322 Q222 328 232 318 Q222 302 220 280Z" fill="#3D9C8F" stroke="#2d263c" stroke-width="7" stroke-linejoin="round" stroke-linecap="round"/>
  <!-- 足の爪 左 -->
  <path d="M138 320 L130 332 M148 322 L145 335 M158 320 L160 333" fill="none" stroke="#2d263c" stroke-width="5" stroke-linecap="round"/>
  <!-- 足の爪 右 -->
  <path d="M210 322 L205 335 M220 324 L220 337 M230 318 L235 330" fill="none" stroke="#2d263c" stroke-width="5" stroke-linecap="round"/>

  <!-- 体(胴体) -->
  <path d="M120 175 Q100 220 118 260 Q140 292 185 295 Q228 292 245 258 Q262 222 245 182 Q225 145 182 140 Q140 143 120 175Z" fill="#3D9C8F" stroke="#2d263c" stroke-width="8" stroke-linejoin="round" stroke-linecap="round"/>

  <!-- 腹(クリーム色) -->
  <ellipse cx="183" cy="235" rx="46" ry="52" fill="#F3E4A8" stroke="none"/>

  <!-- 左の小さい翼(退化した羽) -->
  <path d="M112 195 Q78 185 60 200 Q55 212 68 218 Q95 220 118 210Z" fill="#5CAA46" stroke="#2d263c" stroke-width="6" stroke-linejoin="round" stroke-linecap="round"/>
  <!-- 右の小さい翼 -->
  <path d="M252 195 Q286 183 305 197 Q311 209 297 216 Q270 219 247 209Z" fill="#5CAA46" stroke="#2d263c" stroke-width="6" stroke-linejoin="round" stroke-linecap="round"/>
  <!-- 翼の筋(左) -->
  <path d="M78 199 Q95 202 108 205" fill="none" stroke="#3D7E2E" stroke-width="4" stroke-linecap="round"/>
  <!-- 翼の筋(右) -->
  <path d="M294 200 Q277 203 257 206" fill="none" stroke="#3D7E2E" stroke-width="4" stroke-linecap="round"/>

  <!-- 前足 左 -->
  <path d="M132 240 Q112 252 108 270 Q118 278 130 270 Q138 254 145 242Z" fill="#3D9C8F" stroke="#2d263c" stroke-width="6" stroke-linejoin="round" stroke-linecap="round"/>
  <!-- 前足 右 -->
  <path d="M234 240 Q254 252 258 270 Q248 278 236 270 Q228 254 221 242Z" fill="#3D9C8F" stroke="#2d263c" stroke-width="6" stroke-linejoin="round" stroke-linecap="round"/>

  <!-- 頭のトサカ(赤) -->
  <path d="M155 95 Q150 65 165 45 Q172 62 172 82 M180 90 Q182 58 200 40 Q204 60 198 82 M200 98 Q210 72 228 60 Q228 78 216 95Z" fill="#D2482E" stroke="#2d263c" stroke-width="6" stroke-linejoin="round" stroke-linecap="round"/>

  <!-- 頭部 -->
  <ellipse cx="183" cy="128" rx="60" ry="50" fill="#3D9C8F" stroke="#2d263c" stroke-width="8" stroke-linejoin="round"/>

  <!-- くちばし(オレンジ) -->
  <path d="M128 132 Q100 138 92 148 Q100 156 122 152 Q132 148 138 138Z" fill="#EF9A34" stroke="#2d263c" stroke-width="6" stroke-linejoin="round" stroke-linecap="round"/>
  <path d="M96 149 Q108 153 122 152" fill="none" stroke="#c9761f" stroke-width="3" stroke-linecap="round"/>

  <!-- 目 左 -->
  <ellipse cx="168" cy="120" rx="17" ry="16" fill="white" stroke="#2d263c" stroke-width="5"/>
  <ellipse cx="164" cy="122" rx="8" ry="9" fill="#1a0a0a"/>
  <ellipse cx="160" cy="117" rx="3" ry="3" fill="white"/>

  <!-- 目 右 -->
  <ellipse cx="212" cy="118" rx="17" ry="16" fill="white" stroke="#2d263c" stroke-width="5"/>
  <ellipse cx="216" cy="120" rx="8" ry="9" fill="#1a0a0a"/>
  <ellipse cx="220" cy="115" rx="3" ry="3" fill="white"/>

  <!-- 頬の模様(点々) -->
  <ellipse cx="200" cy="148" rx="4" ry="4" fill="#2a7c70"/>
  <ellipse cx="212" cy="152" rx="4" ry="4" fill="#2a7c70"/>
</svg>
