<svg xmlns="http://www.w3.org/2000/svg" viewBox="0 0 360 360">
  <!-- 尻尾 (後ろ) -->
  <path d="M185 310 Q210 340 195 355 Q175 350 170 330 Q165 315 175 305 Z" fill="#7B2D8B" stroke="#2d263c" stroke-width="6" stroke-linejoin="round" stroke-linecap="round"/>

  <!-- 体の下部うねり -->
  <path d="M110 280 Q90 265 105 240 Q125 215 155 225 Q185 235 200 255 Q215 275 210 295 Q205 315 185 318 Q165 320 145 308 Q125 295 110 280Z" fill="#9B40AB" stroke="#2d263c" stroke-width="7" stroke-linejoin="round" stroke-linecap="round"/>

  <!-- 腹模様土台(腹側クリーム) -->
  <ellipse cx="158" cy="268" rx="38" ry="42" fill="#F0D870" stroke="none"/>

  <!-- どくろ紋様 目左 -->
  <ellipse cx="145" cy="255" rx="10" ry="11" fill="#CC2020" stroke="#2d263c" stroke-width="3"/>
  <!-- どくろ紋様 目右 -->
  <ellipse cx="172" cy="255" rx="10" ry="11" fill="#CC2020" stroke="#2d263c" stroke-width="3"/>
  <!-- どくろ紋様 鼻 -->
  <ellipse cx="158" cy="271" rx="6" ry="5" fill="#CC2020" stroke="#2d263c" stroke-width="2.5"/>
  <!-- どくろ紋様 口 -->
  <path d="M140 280 Q158 292 176 280" fill="none" stroke="#CC2020" stroke-width="4" stroke-linecap="round"/>
  <!-- どくろ目の黒ハイライト -->
  <ellipse cx="145" cy="255" rx="5" ry="6" fill="#1a0a0a"/>
  <ellipse cx="172" cy="255" rx="5" ry="6" fill="#1a0a0a"/>

  <!-- 縞模様 下 -->
  <path d="M108 278 Q160 290 210 272" fill="none" stroke="#5B1870" stroke-width="8" stroke-linecap="round"/>

  <!-- 体の中部 -->
  <path d="M95 185 Q75 160 95 135 Q118 110 155 118 Q195 126 215 155 Q232 182 220 215 Q210 245 185 252 Q158 258 130 248 Q100 236 95 210 Q90 195 95 185Z" fill="#9B40AB" stroke="#2d263c" stroke-width="7" stroke-linejoin="round" stroke-linecap="round"/>

  <!-- 縞模様 中 -->
  <path d="M92 192 Q155 210 222 185" fill="none" stroke="#5B1870" stroke-width="8" stroke-linecap="round"/>

  <!-- コブラフード(えり) - 左 -->
  <path d="M75 148 Q42 120 55 88 Q68 72 90 85 Q108 98 105 125 Q102 148 95 158Z" fill="#8B30A0" stroke="#2d263c" stroke-width="7" stroke-linejoin="round" stroke-linecap="round"/>

  <!-- コブラフード(えり) - 右 -->
  <path d="M228 148 Q262 120 250 88 Q237 70 215 83 Q197 96 198 124 Q199 148 205 158Z" fill="#8B30A0" stroke="#2d263c" stroke-width="7" stroke-linejoin="round" stroke-linecap="round"/>

  <!-- フード模様左 -->
  <ellipse cx="80" cy="118" rx="14" ry="22" fill="#CC2020" stroke="#2d263c" stroke-width="3" transform="rotate(-10 80 118)"/>
  <!-- フード模様右 -->
  <ellipse cx="222" cy="118" rx="14" ry="22" fill="#CC2020" stroke="#2d263c" stroke-width="3" transform="rotate(10 222 118)"/>

  <!-- 頭部 -->
  <ellipse cx="158" cy="105" rx="58" ry="52" fill="#A040B0" stroke="#2d263c" stroke-width="8" stroke-linejoin="round"/>

  <!-- 頭の縦スジ -->
  <path d="M158 58 Q160 75 158 95" fill="none" stroke="#7020A0" stroke-width="4" stroke-linecap="round"/>

  <!-- 目 左 -->
  <ellipse cx="132" cy="98" rx="15" ry="14" fill="#F0E020" stroke="#2d263c" stroke-width="5"/>
  <ellipse cx="132" cy="98" rx="8" ry="9" fill="#1a0a0a"/>
  <ellipse cx="128" cy="94" rx="3" ry="3" fill="white"/>

  <!-- 目 右 -->
  <ellipse cx="186" cy="96" rx="15" ry="14" fill="#F0E020" stroke="#2d263c" stroke-width="5"/>
  <ellipse cx="186" cy="96" rx="8" ry="9" fill="#1a0a0a"/>
  <ellipse cx="182" cy="92" rx="3" ry="3" fill="white"/>

  <!-- 眉毛(にらみ) 左 -->
  <path d="M118 84 Q133 78 145 83" fill="none" stroke="#2d263c" stroke-width="6" stroke-linecap="round"/>
  <!-- 眉毛(にらみ) 右 -->
  <path d="M175 81 Q188 76 202 80" fill="none" stroke="#2d263c" stroke-width="6" stroke-linecap="round"/>

  <!-- 口 -->
  <path d="M135 125 Q158 138 183 124" fill="#CC1818" stroke="#2d263c" stroke-width="5" stroke-linecap="round" stroke-linejoin="round"/>

  <!-- 牙 左 -->
  <path d="M142 128 L136 150 L148 132Z" fill="white" stroke="#2d263c" stroke-width="4" stroke-linejoin="round"/>
  <!-- 牙 右 -->
  <path d="M174 127 L180 149 L168 131Z" fill="white" stroke="#2d263c" stroke-width="4" stroke-linejoin="round"/>

  <!-- 舌 -->
  <path d="M155 136 Q158 148 153 158 M158 148 Q162 158 166 155" fill="none" stroke="#EE2244" stroke-width="5" stroke-linecap="round"/>

  <!-- 鼻の穴 -->
  <ellipse cx="150" cy="115" rx="4" ry="3" fill="#5B1870"/>
  <ellipse cx="167" cy="114" rx="4" ry="3" fill="#5B1870"/>
</svg>