<svg xmlns="http://www.w3.org/2000/svg" viewBox="0 0 360 360">
  <!-- 後ろ: 背中の葉っぱ羽根 -->
  <path d="M150,205 Q95,175 60,120 Q85,190 122,232 Z" fill="#3f7d32" stroke="#2d263c" stroke-width="7" stroke-linejoin="round" stroke-linecap="round"/>
  <path d="M210,205 Q265,175 300,120 Q275,190 238,232 Z" fill="#3f7d32" stroke="#2d263c" stroke-width="7" stroke-linejoin="round" stroke-linecap="round"/>

  <!-- 体: 脚 -->
  <path d="M160,262 Q149,300 144,330 L166,330 Q171,300 173,262 Z" fill="#c39a5f" stroke="#2d263c" stroke-width="7" stroke-linejoin="round" stroke-linecap="round"/>
  <path d="M200,262 Q211,300 216,330 L194,330 Q189,300 187,262 Z" fill="#c39a5f" stroke="#2d263c" stroke-width="7" stroke-linejoin="round" stroke-linecap="round"/>
  <ellipse cx="150" cy="331" rx="19" ry="10" fill="#96703f" stroke="#2d263c" stroke-width="7" stroke-linejoin="round"/>
  <ellipse cx="210" cy="331" rx="19" ry="10" fill="#96703f" stroke="#2d263c" stroke-width="7" stroke-linejoin="round"/>

  <!-- 体: 胴 -->
  <path d="M150,192 Q134,232 148,272 Q165,292 180,292 Q195,292 212,272 Q226,232 210,192 Q195,178 180,178 Q165,178 150,192 Z" fill="#7cb342" stroke="#2d263c" stroke-width="8" stroke-linejoin="round" stroke-linecap="round"/>
  <ellipse cx="180" cy="182" rx="36" ry="13" fill="#c9a15c" stroke="#2d263c" stroke-width="6" stroke-linejoin="round"/>

  <!-- 体: 腕 -->
  <path d="M150,202 Q112,222 88,256 Q83,266 96,269 Q116,236 155,217 Z" fill="#b9895a" stroke="#2d263c" stroke-width="7" stroke-linejoin="round" stroke-linecap="round"/>
  <path d="M210,202 Q248,222 272,256 Q277,266 264,269 Q244,236 205,217 Z" fill="#b9895a" stroke="#2d263c" stroke-width="7" stroke-linejoin="round" stroke-linecap="round"/>

  <!-- 体: 手の大きな葉っぱ -->
  <path d="M100,264 Q62,252 32,296 Q66,310 106,286 Q108,274 100,264 Z" fill="#5a9c3a" stroke="#2d263c" stroke-width="7" stroke-linejoin="round" stroke-linecap="round"/>
  <path d="M260,264 Q298,252 328,296 Q294,310 254,286 Q252,274 260,264 Z" fill="#5a9c3a" stroke="#2d263c" stroke-width="7" stroke-linejoin="round" stroke-linecap="round"/>
  <path d="M97,268 Q65,278 42,297" fill="none" stroke="#2d263c" stroke-width="4" stroke-linecap="round"/>
  <path d="M263,268 Q295,278 318,297" fill="none" stroke="#2d263c" stroke-width="4" stroke-linecap="round"/>

  <!-- 顔: 頭の葉っぱフード -->
  <path d="M180,32 Q227,94 219,150 Q200,169 180,169 Q160,169 141,150 Q133,94 180,32 Z" fill="#c9a15c" stroke="#2d263c" stroke-width="8" stroke-linejoin="round" stroke-linecap="round"/>
  <path d="M180,48 Q177,100 180,160" fill="none" stroke="#96703f" stroke-width="5" stroke-linecap="round"/>
  <path d="M148,152 Q120,142 104,166 Q130,177 151,166 Z" fill="#c9a15c" stroke="#2d263c" stroke-width="6" stroke-linejoin="round" stroke-linecap="round"/>
  <path d="M212,152 Q240,142 256,166 Q230,177 209,166 Z" fill="#c9a15c" stroke="#2d263c" stroke-width="6" stroke-linejoin="round" stroke-linecap="round"/>

  <!-- 顔: 頭 -->
  <circle cx="180" cy="176" r="43" fill="#7cb342" stroke="#2d263c" stroke-width="8"/>
  <ellipse cx="163" cy="171" rx="15" ry="19" fill="#ffffff" stroke="#2d263c" stroke-width="6"/>
  <ellipse cx="197" cy="171" rx="15" ry="19" fill="#ffffff" stroke="#2d263c" stroke-width="6"/>
  <circle cx="163" cy="176" r="7" fill="#2d263c"/>
  <circle cx="197" cy="176" r="7" fill="#2d263c"/>
  <path d="M170,201 Q180,208 190,201" fill="none" stroke="#2d263c" stroke-width="6" stroke-linecap="round"/>
</svg>
