<svg xmlns="http://www.w3.org/2000/svg" viewBox="0 0 360 360"><g stroke-linejoin="round" stroke-linecap="round"><path d="M262 282 C306 274 332 248 328 216 C326 200 314 190 302 194 C314 204 316 222 304 236 C290 252 264 260 246 264 Z" fill="#a04fa8" stroke="#2d263c" stroke-width="7"/><path d="M66 294 C62 264 120 248 182 250 C248 252 298 266 294 296 C290 322 238 334 174 332 C114 330 70 320 66 294 Z" fill="#a04fa8" stroke="#2d263c" stroke-width="7"/><path d="M92 270 C140 258 232 258 274 274" fill="none" stroke="#2d263c" stroke-width="6"/><path d="M178 40 C152 42 140 58 138 78 C108 86 76 104 68 144 C60 186 86 226 124 242 C152 254 216 256 246 240 C282 222 300 180 290 140 C282 102 250 86 224 78 C220 58 204 38 178 40 Z" fill="#a04fa8" stroke="#2d263c" stroke-width="7"/><path d="M116 150 L166 168 L120 180 Z" fill="#2d263c"/><path d="M244 146 L194 166 L240 176 Z" fill="#2d263c"/><circle cx="140" cy="204" r="19" fill="#f7d44c" stroke="#2d263c" stroke-width="5"/><circle cx="140" cy="204" r="10" fill="#e5404d"/><circle cx="222" cy="201" r="17" fill="#f7d44c" stroke="#2d263c" stroke-width="5"/><circle cx="222" cy="201" r="9" fill="#e5404d"/><path d="M118 232 Q150 220 180 232 Q212 244 244 226" fill="none" stroke="#2d263c" stroke-width="7"/><ellipse cx="157" cy="78" rx="13" ry="11" fill="#ffffff" stroke="#2d263c" stroke-width="5"/><ellipse cx="203" cy="76" rx="12" ry="11" fill="#ffffff" stroke="#2d263c" stroke-width="5"/><circle cx="160" cy="80" r="4.5" fill="#2d263c"/><circle cx="200" cy="78" r="4.5" fill="#2d263c"/><path d="M139 62 L173 70" fill="none" stroke="#2d263c" stroke-width="7"/><path d="M221 60 L187 68" fill="none" stroke="#2d263c" stroke-width="7"/><circle cx="171" cy="94" r="2.5" fill="#2d263c"/><circle cx="189" cy="93" r="2.5" fill="#2d263c"/><path d="M134 104 C158 124 202 124 226 100 C216 134 150 138 134 104 Z" fill="#8c2f45" stroke="#2d263c" stroke-width="6"/><path d="M146 110 L153 126 L160 112 Z" fill="#ffffff" stroke="#2d263c" stroke-width="3"/><path d="M214 107 L207 123 L200 109 Z" fill="#ffffff" stroke="#2d263c" stroke-width="3"/><path d="M225 108 C250 116 260 130 256 146 M256 146 L246 156 M256 146 L264 158" fill="none" stroke="#e5404d" stroke-width="6"/></g></svg>