<svg xmlns="http://www.w3.org/2000/svg" viewBox="0 0 360 360">
  <ellipse cx="180" cy="300" rx="70" ry="14" fill="#2d263c" opacity="0.12"/>
  <circle cx="180" cy="190" r="112" fill="#b98a52" stroke="#2d263c" stroke-width="8" stroke-linejoin="round"/>
  <path d="M100 130 Q160 90 180 78" fill="none" stroke="#8a6238" stroke-width="7" stroke-linecap="round"/>
  <path d="M120 100 Q170 130 200 100" fill="none" stroke="#8a6238" stroke-width="6" stroke-linecap="round"/>
  <path d="M90 190 Q150 210 90 250" fill="none" stroke="#8a6238" stroke-width="6" stroke-linecap="round"/>
  <path d="M270 190 Q210 210 270 250" fill="none" stroke="#8a6238" stroke-width="6" stroke-linecap="round"/>
  <path d="M100 260 Q160 300 200 260" fill="none" stroke="#8a6238" stroke-width="6" stroke-linecap="round"/>
  <path d="M240 120 Q270 150 250 190" fill="none" stroke="#8a6238" stroke-width="6" stroke-linecap="round"/>
  <path d="M120 150 L240 230" fill="none" stroke="#8a6238" stroke-width="5" stroke-linecap="round"/>
  <path d="M240 150 L120 230" fill="none" stroke="#8a6238" stroke-width="5" stroke-linecap="round"/>
  <line x1="65" y1="150" x2="30" y2="120" stroke="#2d263c" stroke-width="7" stroke-linecap="round"/>
  <line x1="65" y1="150" x2="25" y2="160" stroke="#2d263c" stroke-width="7" stroke-linecap="round"/>
  <line x1="295" y1="150" x2="330" y2="120" stroke="#2d263c" stroke-width="7" stroke-linecap="round"/>
  <line x1="295" y1="150" x2="335" y2="160" stroke="#2d263c" stroke-width="7" stroke-linecap="round"/>
  <line x1="145" y1="72" x2="130" y2="40" stroke="#2d263c" stroke-width="6" stroke-linecap="round"/>
  <line x1="215" y1="72" x2="230" y2="40" stroke="#2d263c" stroke-width="6" stroke-linecap="round"/>
  <ellipse cx="180" cy="225" rx="66" ry="58" fill="#3a3040" stroke="#2d263c" stroke-width="7"/>
  <circle cx="152" cy="215" r="15" fill="#fefaf0"/>
  <circle cx="208" cy="215" r="15" fill="#fefaf0"/>
  <circle cx="155" cy="219" r="7" fill="#2d263c"/>
  <circle cx="205" cy="219" r="7" fill="#2d263c"/>
  <path d="M160 250 Q180 264 200 250" fill="none" stroke="#fefaf0" stroke-width="6" stroke-linecap="round"/>
</svg>
