<svg xmlns="http://www.w3.org/2000/svg" viewBox="0 0 360 360">
<ellipse cx="212" cy="210" rx="86" ry="58" fill="#f5efe6" stroke="#2d263c" stroke-width="8" stroke-linejoin="round"/>
<path d="M150 174 Q114 148 100 174 Q106 200 146 196 Z" fill="#d9a441" stroke="#2d263c" stroke-width="6" stroke-linejoin="round"/>
<path d="M150 246 Q114 272 100 246 Q106 220 146 224 Z" fill="#d9a441" stroke="#2d263c" stroke-width="6" stroke-linejoin="round"/>
<path d="M128 162 Q88 136 68 158 Q74 180 110 178 Z" fill="#c4882a" stroke="#2d263c" stroke-width="6" stroke-linejoin="round"/>
<path d="M128 258 Q88 284 68 262 Q74 240 110 242 Z" fill="#c4882a" stroke="#2d263c" stroke-width="6" stroke-linejoin="round"/>
<rect x="175" y="260" width="14" height="40" rx="5" fill="#c4882a" stroke="#2d263c" stroke-width="5"/>
<rect x="210" y="264" width="14" height="40" rx="5" fill="#c4882a" stroke="#2d263c" stroke-width="5"/>
<rect x="245" y="260" width="14" height="40" rx="5" fill="#c4882a" stroke="#2d263c" stroke-width="5"/>
<rect x="175" y="142" width="14" height="40" rx="5" fill="#c4882a" stroke="#2d263c" stroke-width="5"/>
<rect x="210" y="138" width="14" height="40" rx="5" fill="#c4882a" stroke="#2d263c" stroke-width="5"/>
<rect x="245" y="142" width="14" height="40" rx="5" fill="#c4882a" stroke="#2d263c" stroke-width="5"/>
<path d="M194 195 Q184 190 188 206" fill="none" stroke="#2d263c" stroke-width="5" stroke-linecap="round"/>
<path d="M226 195 Q236 190 232 206" fill="none" stroke="#2d263c" stroke-width="5" stroke-linecap="round"/>
<circle cx="196" cy="209" r="10" fill="#2d263c"/>
<circle cx="224" cy="209" r="10" fill="#2d263c"/>
<circle cx="199" cy="206" r="3" fill="#ffffff"/>
<circle cx="227" cy="206" r="3" fill="#ffffff"/>
</svg>