<svg xmlns="http://www.w3.org/2000/svg" viewBox="0 0 360 360">
  <path d="M165,195 C130,215 100,245 90,275 C112,272 145,255 168,225 Z" fill="#f3e0b0" stroke="#2d263c" stroke-width="7" stroke-linejoin="round" stroke-linecap="round"/>
  <ellipse cx="112" cy="252" rx="10" ry="14" fill="#a97a4a" stroke="#2d263c" stroke-width="6"/>
  <path d="M195,195 C230,215 260,245 270,275 C248,272 215,255 192,225 Z" fill="#f3e0b0" stroke="#2d263c" stroke-width="7" stroke-linejoin="round" stroke-linecap="round"/>
  <ellipse cx="248" cy="252" rx="10" ry="14" fill="#a97a4a" stroke="#2d263c" stroke-width="6"/>
  <path d="M168,182 C120,140 70,95 48,48 C36,80 40,135 58,182 C90,200 132,198 168,182 Z" fill="#4a6fc4" stroke="#2d263c" stroke-width="8" stroke-linejoin="round" stroke-linecap="round"/>
  <path d="M48,48 C40,68 40,90 44,112 C58,100 66,80 60,58 Z" fill="#23345c" stroke="#2d263c" stroke-width="6" stroke-linejoin="round"/>
  <ellipse cx="92" cy="118" rx="15" ry="19" fill="#e85a97" stroke="#2d263c" stroke-width="6"/>
  <path d="M192,182 C240,140 290,95 312,48 C324,80 320,135 302,182 C270,200 228,198 192,182 Z" fill="#4a6fc4" stroke="#2d263c" stroke-width="8" stroke-linejoin="round" stroke-linecap="round"/>
  <path d="M312,48 C320,68 320,90 316,112 C302,100 294,80 300,58 Z" fill="#23345c" stroke="#2d263c" stroke-width="6" stroke-linejoin="round"/>
  <ellipse cx="268" cy="118" rx="15" ry="19" fill="#e85a97" stroke="#2d263c" stroke-width="6"/>
  <path d="M155,210 Q150,240 155,265" fill="none" stroke="#2d263c" stroke-width="6" stroke-linecap="round"/>
  <path d="M205,210 Q210,240 205,265" fill="none" stroke="#2d263c" stroke-width="6" stroke-linecap="round"/>
  <path d="M138,205 Q95,225 78,258" fill="none" stroke="#2d263c" stroke-width="7" stroke-linecap="round"/>
  <path d="M222,205 Q265,225 282,258" fill="none" stroke="#2d263c" stroke-width="7" stroke-linecap="round"/>
  <ellipse cx="180" cy="255" rx="22" ry="48" fill="#f3e0b0" stroke="#2d263c" stroke-width="8"/>
  <path d="M162,235 Q180,242 198,235" fill="none" stroke="#2d263c" stroke-width="5" stroke-linecap="round"/>
  <path d="M160,265 Q180,273 200,265" fill="none" stroke="#2d263c" stroke-width="5" stroke-linecap="round"/>
  <path d="M164,290 Q180,297 196,290" fill="none" stroke="#2d263c" stroke-width="5" stroke-linecap="round"/>
  <ellipse cx="180" cy="198" rx="28" ry="32" fill="#2e4272" stroke="#2d263c" stroke-width="8"/>
  <path d="M160,150 Q140,110 150,80" fill="none" stroke="#2d263c" stroke-width="6" stroke-linecap="round"/>
  <circle cx="150" cy="80" r="8" fill="#2e4272" stroke="#2d263c" stroke-width="6"/>
  <path d="M200,150 Q220,110 210,80" fill="none" stroke="#2d263c" stroke-width="6" stroke-linecap="round"/>
  <circle cx="210" cy="80" r="8" fill="#2e4272" stroke="#2d263c" stroke-width="6"/>
  <circle cx="180" cy="148" r="34" fill="#2e4272" stroke="#2d263c" stroke-width="8"/>
  <ellipse cx="160" cy="140" rx="17" ry="21" fill="#d94343" stroke="#2d263c" stroke-width="6"/>
  <ellipse cx="200" cy="140" rx="17" ry="21" fill="#d94343" stroke="#2d263c" stroke-width="6"/>
  <circle cx="155" cy="132" r="5" fill="#ffffff"/>
  <circle cx="195" cy="132" r="5" fill="#ffffff"/>
  <path d="M180,172 C185,185 178,192 186,200 C192,206 182,214 188,220" fill="none" stroke="#e8a33d" stroke-width="6" stroke-linecap="round"/>
</svg>
