<svg xmlns="http://www.w3.org/2000/svg" viewBox="0 0 360 360">
  <!-- 影(下の楕円) -->
  <ellipse cx="183" cy="305" rx="95" ry="18" fill="#b8976a" opacity="0.35"/>

  <!-- パイ生地(下面・腹) -->
  <ellipse cx="183" cy="232" rx="112" ry="52" fill="#f0d9a8" stroke="#2d263c" stroke-width="6" stroke-linejoin="round"/>

  <!-- パイのギザギザ縁(左側) -->
  <path d="M80 222 Q72 215 78 207 Q70 200 77 193 Q69 186 76 179" fill="none" stroke="#2d263c" stroke-width="5" stroke-linecap="round"/>
  <!-- パイのギザギザ縁(右側) -->
  <path d="M286 222 Q294 215 288 207 Q296 200 289 193 Q297 186 290 179" fill="none" stroke="#2d263c" stroke-width="5" stroke-linecap="round"/>

  <!-- メイン体(りんご上面) -->
  <ellipse cx="183" cy="198" rx="118" ry="75" fill="#c0392b" stroke="#2d263c" stroke-width="8" stroke-linejoin="round"/>

  <!-- りんごの赤い艶(ハイライト風の斑) -->
  <ellipse cx="148" cy="178" rx="28" ry="18" fill="#e74c3c" opacity="0.55"/>
  <ellipse cx="210" cy="185" rx="18" ry="12" fill="#e74c3c" opacity="0.4"/>

  <!-- パイ生地の模様(点々) -->
  <circle cx="140" cy="242" r="5" fill="#c9a96e"/>
  <circle cx="160" cy="250" r="4" fill="#c9a96e"/>
  <circle cx="183" cy="255" r="5" fill="#c9a96e"/>
  <circle cx="205" cy="249" r="4" fill="#c9a96e"/>
  <circle cx="225" cy="241" r="5" fill="#c9a96e"/>

  <!-- 左前足 -->
  <path d="M105 252 Q92 260 88 275 Q95 285 108 278 Q112 265 118 258 Z" fill="#f0d9a8" stroke="#2d263c" stroke-width="6" stroke-linejoin="round" stroke-linecap="round"/>
  <!-- 右前足 -->
  <path d="M260 251 Q273 260 277 275 Q270 285 257 277 Q253 265 247 257 Z" fill="#f0d9a8" stroke="#2d263c" stroke-width="6" stroke-linejoin="round" stroke-linecap="round"/>

  <!-- 左後ろ足(ちょっと覗く) -->
  <path d="M128 268 Q118 278 116 291 Q124 298 135 290 Q138 278 143 270 Z" fill="#f0d9a8" stroke="#2d263c" stroke-width="5" stroke-linejoin="round" stroke-linecap="round"/>
  <!-- 右後ろ足 -->
  <path d="M238 267 Q248 278 250 291 Q242 298 231 290 Q228 278 223 269 Z" fill="#f0d9a8" stroke="#2d263c" stroke-width="5" stroke-linejoin="round" stroke-linecap="round"/>

  <!-- しっぽ(茎) -->
  <path d="M183 130 Q188 108 183 90 Q178 75 190 62" fill="none" stroke="#5d4037" stroke-width="9" stroke-linecap="round"/>

  <!-- 葉っぱ(茎から生える) -->
  <path d="M188 100 Q215 82 230 68 Q218 88 205 98 Q215 95 228 102 Q210 105 188 100 Z" fill="#4caf50" stroke="#2d263c" stroke-width="5" stroke-linejoin="round"/>

  <!-- 小さい葉っぱ -->
  <path d="M183 90 Q165 72 155 58 Q167 76 178 88" fill="#388e3c" stroke="#2d263c" stroke-width="4" stroke-linejoin="round"/>

  <!-- 顔(鼻) -->
  <ellipse cx="183" cy="197" rx="14" ry="10" fill="#e8523a" stroke="#2d263c" stroke-width="4"/>
  <ellipse cx="183" cy="197" rx="8" ry="5" fill="#2d263c"/>

  <!-- 左目 -->
  <ellipse cx="150" cy="183" rx="13" ry="14" fill="white" stroke="#2d263c" stroke-width="5"/>
  <ellipse cx="153" cy="185" rx="7" ry="8" fill="#1a1a2e"/>
  <circle cx="156" cy="182" r="3" fill="white"/>

  <!-- 右目(ちょっとズレてバカっぽく) -->
  <ellipse cx="216" cy="182" rx="12" ry="15" fill="white" stroke="#2d263c" stroke-width="5"/>
  <ellipse cx="219" cy="184" rx="6" ry="8" fill="#1a1a2e"/>
  <circle cx="221" cy="181" r="3" fill="white"/>

  <!-- 口(ぽかん) -->
  <path d="M165 213 Q175 225 183 227 Q191 225 201 213" fill="#2d263c" stroke="#2d263c" stroke-width="4" stroke-linejoin="round" stroke-linecap="round"/>
  <path d="M165 213 Q175 222 183 224 Q191 222 201 213" fill="#c0392b"/>

  <!-- ほっぺ(赤い丸) -->
  <ellipse cx="136" cy="203" rx="12" ry="9" fill="#e74c3c" opacity="0.7"/>
  <ellipse cx="230" cy="202" rx="11" ry="9" fill="#e74c3c" opacity="0.7"/>

  <!-- りんごのスジ線(体の模様) -->
  <path d="M183 135 Q165 160 163 198" fill="none" stroke="#a93226" stroke-width="3" stroke-linecap="round" opacity="0.6"/>
  <path d="M183 135 Q201 160 203 198" fill="none" stroke="#a93226" stroke-width="3" stroke-linecap="round" opacity="0.6"/>
</svg>