<svg xmlns="http://www.w3.org/2000/svg" viewBox="0 0 360 360"><polygon points="250,112 228,180 270,175" fill="#f4efe2" stroke="#2d263c" stroke-width="7" stroke-linejoin="round"/><path d="M118 192 C70 158 40 168 38 248 M120 232 C72 226 46 248 42 302 M242 192 C290 158 320 168 322 248 M240 232 C288 226 314 248 318 302" fill="none" stroke="#2d263c" stroke-width="24" stroke-linecap="round"/><path d="M118 192 C70 158 40 168 38 248 M120 232 C72 226 46 248 42 302 M242 192 C290 158 320 168 322 248 M240 232 C288 226 314 248 318 302" fill="none" stroke="#f5c842" stroke-width="13" stroke-linecap="round"/><path d="M80 172 L66 167 M44 198 L42 215 M74 238 L60 236 M50 270 L46 285 M280 172 L294 167 M316 198 L318 215 M286 238 L300 236 M310 270 L314 285" fill="none" stroke="#6f4f9e" stroke-width="13" stroke-linecap="round"/><ellipse cx="180" cy="218" rx="90" ry="75" fill="#d23b34" stroke="#2d263c" stroke-width="7"/><path d="M98 240 Q180 262 262 240 L256 262 Q180 284 104 262 Z" fill="#2d263c"/><path d="M120 268 Q180 286 240 268 L228 282 Q180 296 132 282 Z" fill="#2d263c"/><polygon points="172,28 158,82 198,86" fill="#f4efe2" stroke="#2d263c" stroke-width="7" stroke-linejoin="round"/><circle cx="180" cy="112" r="50" fill="#d23b34" stroke="#2d263c" stroke-width="7"/><path d="M146 150 Q134 172 142 186 Q154 174 154 154 Z" fill="#6f4f9e" stroke="#2d263c" stroke-width="6" stroke-linejoin="round"/><path d="M214 152 Q226 174 218 188 Q206 176 206 156 Z" fill="#6f4f9e" stroke="#2d263c" stroke-width="6" stroke-linejoin="round"/><ellipse cx="158" cy="102" rx="12" ry="16" fill="#ffffff" stroke="#2d263c" stroke-width="6"/><ellipse cx="204" cy="106" rx="13" ry="15" fill="#ffffff" stroke="#2d263c" stroke-width="6"/><circle cx="160" cy="106" r="4.5" fill="#2d263c"/><circle cx="202" cy="110" r="4.5" fill="#2d263c"/><path d="M166 148 L176 155 L186 149 L196 156" fill="none" stroke="#2d263c" stroke-width="6" stroke-linecap="round" stroke-linejoin="round"/></svg>