<svg xmlns="http://www.w3.org/2000/svg" viewBox="0 0 360 360">
  <ellipse cx="190" cy="300" rx="120" ry="18" fill="#000000" opacity="0.12"/>

  <path d="M70,260 Q40,232 35,192 Q30,160 55,148 Q65,175 80,192 Q96,175 100,196 Q110,222 92,246 Q80,256 70,260 Z" fill="#c65c4a" stroke="#2d263c" stroke-width="7" stroke-linejoin="round"/>
  <path d="M62,200 Q60,178 68,158 Q75,178 78,200 Q70,206 62,200 Z" fill="#9c3a30" stroke="#2d263c" stroke-width="6" stroke-linejoin="round"/>

  <path d="M128,222 C120,235 110,248 108,264 C114,270 124,264 130,255 C135,245 137,232 132,220 Z" fill="#7a2c22" stroke="#2d263c" stroke-width="7" stroke-linejoin="round"/>
  <path d="M162,228 C155,242 148,256 148,272 C155,277 164,270 169,260 C173,250 174,236 170,225 Z" fill="#7a2c22" stroke="#2d263c" stroke-width="7" stroke-linejoin="round"/>
  <path d="M198,228 C193,243 188,257 189,272 C196,277 205,270 209,259 C212,249 212,236 207,224 Z" fill="#7a2c22" stroke="#2d263c" stroke-width="7" stroke-linejoin="round"/>
  <path d="M228,220 C224,234 220,247 222,261 C229,266 237,259 241,248 C244,238 243,226 237,216 Z" fill="#7a2c22" stroke="#2d263c" stroke-width="7" stroke-linejoin="round"/>

  <path d="M95,250 C110,270 150,285 190,278 C225,272 245,255 258,225 C268,200 262,175 250,160 C220,150 172,150 140,160 C115,168 100,195 92,220 C88,232 90,242 95,250 Z" fill="#a63f31" stroke="#2d263c" stroke-width="8" stroke-linejoin="round"/>

  <path d="M120,238 C140,258 175,264 205,254 C224,247 234,235 238,222 C220,232 190,238 165,235 C145,232 130,225 120,216 C115,225 116,232 120,238 Z" fill="#ecdcb0" stroke="#2d263c" stroke-width="6" stroke-linejoin="round"/>

  <path d="M148,165 C153,190 156,215 152,240" fill="none" stroke="#2d263c" stroke-width="6" stroke-linecap="round"/>
  <path d="M182,158 C186,185 188,212 183,240" fill="none" stroke="#2d263c" stroke-width="6" stroke-linecap="round"/>
  <path d="M216,160 C220,185 222,210 217,234" fill="none" stroke="#2d263c" stroke-width="6" stroke-linecap="round"/>

  <path d="M150,150 L158,133 L166,150 Z" fill="#7a2c22" stroke="#2d263c" stroke-width="6" stroke-linejoin="round"/>
  <path d="M185,146 L193,129 L201,146 Z" fill="#7a2c22" stroke="#2d263c" stroke-width="6" stroke-linejoin="round"/>
  <path d="M218,150 L226,135 L234,150 Z" fill="#7a2c22" stroke="#2d263c" stroke-width="6" stroke-linejoin="round"/>

  <path d="M240,150 C242,124 266,104 293,104 C319,104 336,125 336,148 C336,171 318,189 292,191 C265,193 242,175 240,150 Z" fill="#b8483a" stroke="#2d263c" stroke-width="8" stroke-linejoin="round"/>

  <ellipse cx="278" cy="176" rx="22" ry="13" fill="#ecdcb0" stroke="#2d263c" stroke-width="5"/>

  <ellipse cx="277" cy="136" rx="8" ry="10" fill="#2d263c"/>
  <ellipse cx="308" cy="139" rx="8" ry="10" fill="#2d263c"/>
  <circle cx="274" cy="132" r="2.5" fill="#ffffff"/>
  <circle cx="305" cy="135" r="2.5" fill="#ffffff"/>

  <path d="M268,172 Q285,180 302,171" fill="none" stroke="#2d263c" stroke-width="6" stroke-linecap="round"/>

  <path d="M240,190 C260,175 280,155 295,135 C302,128 309,131 305,141 C298,159 280,179 262,193 C255,199 245,197 240,190 Z" fill="#903a2c" stroke="#2d263c" stroke-width="7" stroke-linejoin="round"/>
  <path d="M287,146 C295,138 305,138 307,148 C302,153 292,154 287,146 Z" fill="#7a2c22" stroke="#2d263c" stroke-width="6" stroke-linejoin="round"/>

  <path d="M248,175 C275,150 300,120 320,95 C328,88 337,91 333,101 C325,121 305,146 285,166 C275,176 260,183 248,175 Z" fill="#a63f31" stroke="#2d263c" stroke-width="8" stroke-linejoin="round"/>
  <path d="M311,104 C319,96 330,97 331,108 C325,113 315,113 311,104 Z" fill="#7a2c22" stroke="#2d263c" stroke-width="6" stroke-linejoin="round"/>
</svg>
