<svg xmlns="http://www.w3.org/2000/svg" viewBox="0 0 360 360">
  <ellipse cx="75" cy="150" rx="38" ry="38" fill="#f9b8dd" stroke="#2d263c" stroke-width="7" stroke-linejoin="round"/>
  <ellipse cx="100" cy="123" rx="32" ry="32" fill="#f9b8dd" stroke="#2d263c" stroke-width="7" stroke-linejoin="round"/>
  <ellipse cx="58" cy="186" rx="34" ry="34" fill="#f9b8dd" stroke="#2d263c" stroke-width="7" stroke-linejoin="round"/>
  <ellipse cx="95" cy="202" rx="30" ry="30" fill="#f9b8dd" stroke="#2d263c" stroke-width="7" stroke-linejoin="round"/>
  <circle cx="82" cy="162" r="20" fill="#f28fc6" stroke="#2d263c" stroke-width="6" stroke-linejoin="round"/>
  <ellipse cx="285" cy="150" rx="38" ry="38" fill="#f9b8dd" stroke="#2d263c" stroke-width="7" stroke-linejoin="round"/>
  <ellipse cx="260" cy="123" rx="32" ry="32" fill="#f9b8dd" stroke="#2d263c" stroke-width="7" stroke-linejoin="round"/>
  <ellipse cx="302" cy="186" rx="34" ry="34" fill="#f9b8dd" stroke="#2d263c" stroke-width="7" stroke-linejoin="round"/>
  <ellipse cx="265" cy="202" rx="30" ry="30" fill="#f9b8dd" stroke="#2d263c" stroke-width="7" stroke-linejoin="round"/>
  <circle cx="278" cy="162" r="20" fill="#f28fc6" stroke="#2d263c" stroke-width="6" stroke-linejoin="round"/>

  <path d="M152,128 L128,76" fill="none" stroke="#2d263c" stroke-width="8" stroke-linecap="round"/>
  <path d="M208,128 L232,76" fill="none" stroke="#2d263c" stroke-width="8" stroke-linecap="round"/>
  <circle cx="126" cy="73" r="12" fill="#f9739c" stroke="#2d263c" stroke-width="7" stroke-linejoin="round"/>
  <circle cx="234" cy="73" r="12" fill="#f9739c" stroke="#2d263c" stroke-width="7" stroke-linejoin="round"/>

  <ellipse cx="180" cy="252" rx="58" ry="48" fill="#f9cd4e" stroke="#2d263c" stroke-width="8" stroke-linejoin="round"/>
  <circle cx="180" cy="167" r="56" fill="#fbdb6d" stroke="#2d263c" stroke-width="8" stroke-linejoin="round"/>

  <ellipse cx="135" cy="232" rx="12" ry="18" fill="#f28fc6" stroke="#2d263c" stroke-width="6" stroke-linejoin="round"/>
  <ellipse cx="225" cy="232" rx="12" ry="18" fill="#f28fc6" stroke="#2d263c" stroke-width="6" stroke-linejoin="round"/>
  <circle cx="180" cy="228" r="17" fill="#fff4da" stroke="#2d263c" stroke-width="6" stroke-linejoin="round"/>

  <circle cx="156" cy="160" r="13" fill="#2d263c"/>
  <circle cx="204" cy="160" r="13" fill="#2d263c"/>
  <circle cx="160" cy="155" r="4" fill="#ffffff"/>
  <circle cx="208" cy="155" r="4" fill="#ffffff"/>
  <path d="M164,189 Q180,200 196,189" fill="none" stroke="#2d263c" stroke-width="6" stroke-linecap="round"/>

  <ellipse cx="160" cy="300" rx="15" ry="10" fill="#f28fc6" stroke="#2d263c" stroke-width="6" stroke-linejoin="round"/>
  <ellipse cx="200" cy="300" rx="15" ry="10" fill="#f28fc6" stroke="#2d263c" stroke-width="6" stroke-linejoin="round"/>
</svg>
