<svg xmlns="http://www.w3.org/2000/svg" viewBox="0 0 360 360">
  <!-- 後ろ: 尻尾 -->
  <path d="M165,288 C148,315 138,332 155,338 C176,333 197,312 190,283 Z" fill="#2a2438" stroke="#2d263c" stroke-width="7" stroke-linejoin="round"/>
  <!-- 後ろ: 金の脚(左3・右3) -->
  <path d="M128,118 C90,95 55,90 42,118 C55,140 95,150 128,145 Z" fill="#dfae2c" stroke="#2d263c" stroke-width="7" stroke-linejoin="round"/>
  <path d="M118,178 C75,165 34,176 30,196 C45,216 90,206 120,195 Z" fill="#dfae2c" stroke="#2d263c" stroke-width="7" stroke-linejoin="round"/>
  <path d="M125,238 C90,235 55,246 48,268 C65,286 100,281 128,262 Z" fill="#dfae2c" stroke="#2d263c" stroke-width="7" stroke-linejoin="round"/>
  <path d="M232,118 C270,95 305,90 318,118 C305,140 265,150 232,145 Z" fill="#dfae2c" stroke="#2d263c" stroke-width="7" stroke-linejoin="round"/>
  <path d="M242,178 C285,165 326,176 330,196 C315,216 270,206 240,195 Z" fill="#dfae2c" stroke="#2d263c" stroke-width="7" stroke-linejoin="round"/>
  <path d="M235,238 C270,235 305,246 312,268 C295,286 260,281 232,262 Z" fill="#dfae2c" stroke="#2d263c" stroke-width="7" stroke-linejoin="round"/>
  <!-- 体 -->
  <ellipse cx="180" cy="185" rx="66" ry="115" fill="#322c46" stroke="#2d263c" stroke-width="8" stroke-linejoin="round"/>
  <ellipse cx="180" cy="212" rx="30" ry="66" fill="#54507a" stroke="#2d263c" stroke-width="6"/>
  <!-- 首飾りの金の輪 -->
  <ellipse cx="180" cy="118" rx="62" ry="22" fill="#e6b62f" stroke="#2d263c" stroke-width="7"/>
  <!-- 首飾りのトゲ -->
  <polygon points="114,110 130,110 95,80" fill="#e6b62f" stroke="#2d263c" stroke-width="6" stroke-linejoin="round"/>
  <polygon points="137,100 153,100 130,65" fill="#e6b62f" stroke="#2d263c" stroke-width="6" stroke-linejoin="round"/>
  <polygon points="160,96 176,96 165,58" fill="#e6b62f" stroke="#2d263c" stroke-width="6" stroke-linejoin="round"/>
  <polygon points="184,96 200,96 195,58" fill="#e6b62f" stroke="#2d263c" stroke-width="6" stroke-linejoin="round"/>
  <polygon points="207,100 223,100 230,65" fill="#e6b62f" stroke="#2d263c" stroke-width="6" stroke-linejoin="round"/>
  <polygon points="230,110 246,110 265,80" fill="#e6b62f" stroke="#2d263c" stroke-width="6" stroke-linejoin="round"/>
  <!-- 顔 -->
  <ellipse cx="180" cy="85" rx="50" ry="40" fill="#9a95a8" stroke="#2d263c" stroke-width="8"/>
  <polygon points="150,58 138,24 166,52" fill="#e6b62f" stroke="#2d263c" stroke-width="6" stroke-linejoin="round"/>
  <polygon points="210,58 222,24 194,52" fill="#e6b62f" stroke="#2d263c" stroke-width="6" stroke-linejoin="round"/>
  <ellipse cx="158" cy="90" rx="10" ry="13" fill="#d61c2e" stroke="#2d263c" stroke-width="6"/>
  <ellipse cx="202" cy="90" rx="10" ry="13" fill="#d61c2e" stroke="#2d263c" stroke-width="6"/>
  <circle cx="161" cy="86" r="3" fill="#ffffff"/>
  <circle cx="205" cy="86" r="3" fill="#ffffff"/>
  <path d="M160,112 Q180,120 200,112" fill="none" stroke="#2d263c" stroke-width="6" stroke-linecap="round"/>
</svg>
