<svg xmlns="http://www.w3.org/2000/svg" viewBox="0 0 360 360">
<ellipse cx="185" cy="300" rx="70" ry="22" fill="#2d263c" opacity="0.12"/>
<path d="M250 300 C270 300 285 280 280 255 C300 245 300 210 275 200 L260 150 L295 130 L270 120 L275 95 L245 105 C230 85 200 75 175 80 C150 60 110 60 90 85 C65 90 50 115 55 145 C35 155 25 185 40 210 C35 240 55 270 90 280 C95 300 120 315 150 312 C165 320 190 318 200 305 Z" fill="#f0742a" stroke="#2d263c" stroke-width="8" stroke-linejoin="round"/>
<path d="M90 220 C110 245 150 255 185 245 C210 238 225 220 220 200 C205 215 180 225 155 222 C130 219 105 205 95 185 C80 195 78 208 90 220 Z" fill="#fdf1dc" stroke="#2d263c" stroke-width="7" stroke-linejoin="round"/>
<path d="M60 150 C50 175 55 200 75 215 C65 195 65 175 75 160 Z" fill="#fdf1dc" stroke="#2d263c" stroke-width="6" stroke-linejoin="round"/>
<path d="M175 80 L165 45 L190 65 L200 35 L215 68 L235 50 L228 82" fill="#e8471f" stroke="#2d263c" stroke-width="7" stroke-linejoin="round"/>
<path d="M255 205 L285 195 L300 165 L285 210 L260 220 Z" fill="#e8471f" stroke="#2d263c" stroke-width="6" stroke-linejoin="round"/>
<path d="M230 90 C245 92 258 105 260 120 C260 135 245 145 240 130 C238 118 235 105 225 100 Z" fill="#e8471f" stroke="#2d263c" stroke-width="6" stroke-linejoin="round"/>
<circle cx="215" cy="115" r="14" fill="#fff" stroke="#2d263c" stroke-width="6"/>
<circle cx="219" cy="118" r="6" fill="#2d263c"/>
<path d="M245 108 L285 118 C295 122 300 135 292 145 L255 140 C245 135 240 118 245 108 Z" fill="#f0742a" stroke="#2d263c" stroke-width="7" stroke-linejoin="round"/>
<path d="M256 118 L286 124 M258 128 L282 132" stroke="#2d263c" stroke-width="5" stroke-linecap="round"/>
<path d="M105 260 C100 285 105 305 125 310 C120 292 118 275 122 262 Z" fill="#f0742a" stroke="#2d263c" stroke-width="7" stroke-linejoin="round"/>
<path d="M175 275 C170 300 178 318 200 320 C193 302 190 282 195 272 Z" fill="#f0742a" stroke="#2d263c" stroke-width="7" stroke-linejoin="round"/>
<path d="M75 195 C60 200 50 205 45 200 C55 210 68 210 80 205 Z" fill="#f0742a" stroke="#2d263c" stroke-width="6" stroke-linejoin="round"/>
</svg>
