<svg xmlns="http://www.w3.org/2000/svg" viewBox="0 0 360 360">

  <!-- 糸(後ろ) -->
  <line x1="185" y1="290" x2="210" y2="345" stroke="#aaa" stroke-width="3" stroke-linecap="round"/>
  <line x1="178" y1="292" x2="155" y2="348" stroke="#aaa" stroke-width="2.5" stroke-linecap="round"/>
  <line x1="182" y1="291" x2="185" y2="358" stroke="#bbb" stroke-width="2" stroke-linecap="round"/>

  <!-- 後ろ足(左奥) -->
  <polyline points="148,230 115,265 85,285" fill="none" stroke="#2d263c" stroke-width="7" stroke-linejoin="round" stroke-linecap="round"/>
  <ellipse cx="100" cy="275" rx="9" ry="5" fill="#e8d44d" stroke="#2d263c" stroke-width="3"/>
  
  <polyline points="155,240 130,280 108,305" fill="none" stroke="#2d263c" stroke-width="7" stroke-linejoin="round" stroke-linecap="round"/>
  <ellipse cx="120" cy="292" rx="9" ry="5" fill="#e8d44d" stroke="#2d263c" stroke-width="3"/>

  <!-- 後ろ足(右奥) -->
  <polyline points="215,230 248,265 278,285" fill="none" stroke="#2d263c" stroke-width="7" stroke-linejoin="round" stroke-linecap="round"/>
  <ellipse cx="263" cy="275" rx="9" ry="5" fill="#e8d44d" stroke="#2d263c" stroke-width="3"/>
  
  <polyline points="208,240 232,280 255,308" fill="none" stroke="#2d263c" stroke-width="7" stroke-linejoin="round" stroke-linecap="round"/>
  <ellipse cx="244" cy="294" rx="9" ry="5" fill="#e8d44d" stroke="#2d263c" stroke-width="3"/>

  <!-- 腹部(大きな丸いお腹・メイン) -->
  <ellipse cx="182" cy="230" rx="90" ry="80" fill="#b52b2b" stroke="#2d263c" stroke-width="8"/>

  <!-- 腹部の黒いライン(縞模様) -->
  <path d="M100,248 Q182,258 264,248" fill="none" stroke="#2d263c" stroke-width="5" stroke-linecap="round"/>
  <path d="M108,265 Q182,278 256,265" fill="none" stroke="#2d263c" stroke-width="4" stroke-linecap="round"/>

  <!-- 背中の白い骸骨模様 -->
  <ellipse cx="182" cy="205" rx="22" ry="18" fill="#f0ece0" stroke="#2d263c" stroke-width="3"/>
  <ellipse cx="167" cy="215" rx="11" ry="9" fill="#f0ece0" stroke="#2d263c" stroke-width="2.5"/>
  <ellipse cx="197" cy="215" rx="11" ry="9" fill="#f0ece0" stroke="#2d263c" stroke-width="2.5"/>
  <line x1="173" y1="223" x2="178" y2="230" stroke="#2d263c" stroke-width="2.5" stroke-linecap="round"/>
  <line x1="191" y1="223" x2="186" y2="230" stroke="#2d263c" stroke-width="2.5" stroke-linecap="round"/>

  <!-- 前足(左) -->
  <polyline points="138,195 98,180 72,158" fill="none" stroke="#2d263c" stroke-width="8" stroke-linejoin="round" stroke-linecap="round"/>
  <ellipse cx="84" cy="168" rx="10" ry="6" fill="#e8d44d" stroke="#2d263c" stroke-width="3"/>

  <!-- 前足(右) -->
  <polyline points="226,195 265,178 292,155" fill="none" stroke="#2d263c" stroke-width="8" stroke-linejoin="round" stroke-linecap="round"/>
  <ellipse cx="279" cy="165" rx="10" ry="6" fill="#e8d44d" stroke="#2d263c" stroke-width="3"/>

  <!-- 頭部 -->
  <ellipse cx="182" cy="148" rx="42" ry="38" fill="#c93434" stroke="#2d263c" stroke-width="8"/>

  <!-- 触角 -->
  <line x1="168" y1="114" x2="150" y2="78" stroke="#2d263c" stroke-width="6" stroke-linecap="round"/>
  <circle cx="148" cy="75" r="7" fill="#e8d44d" stroke="#2d263c" stroke-width="4"/>
  <line x1="196" y1="114" x2="214" y2="78" stroke="#2d263c" stroke-width="6" stroke-linecap="round"/>
  <circle cx="216" cy="75" r="7" fill="#e8d44d" stroke="#2d263c" stroke-width="4"/>

  <!-- 複眼(目) -->
  <ellipse cx="164" cy="145" rx="13" ry="11" fill="#cc1111" stroke="#2d263c" stroke-width="4"/>
  <ellipse cx="200" cy="145" rx="13" ry="11" fill="#cc1111" stroke="#2d263c" stroke-width="4"/>
  <!-- 目のハイライト -->
  <ellipse cx="160" cy="141" rx="4" ry="3" fill="#ff5555" opacity="0.7"/>
  <ellipse cx="196" cy="141" rx="4" ry="3" fill="#ff5555" opacity="0.7"/>

  <!-- ほっぺ(黄色マーク) -->
  <ellipse cx="148" cy="158" rx="10" ry="8" fill="#e8d44d" stroke="#2d263c" stroke-width="2.5"/>
  <ellipse cx="216" cy="158" rx="10" ry="8" fill="#e8d44d" stroke="#2d263c" stroke-width="2.5"/>

  <!-- 口(ちょっとニヤっとした感じ) -->
  <path d="M170,163 Q182,172 194,163" fill="none" stroke="#2d263c" stroke-width="4" stroke-linecap="round"/>

  <!-- 毒牙(小さな牙) -->
  <path d="M175,168 L172,176 L178,170" fill="#2d263c" stroke="#2d263c" stroke-width="2" stroke-linejoin="round"/>
  <path d="M189,168 L192,176 L186,170" fill="#2d263c" stroke="#2d263c" stroke-width="2" stroke-linejoin="round"/>

</svg>