<svg xmlns="http://www.w3.org/2000/svg" viewBox="0 0 360 360">
  <g stroke="#2d263c" stroke-width="7" stroke-linejoin="round" stroke-linecap="round">
    <path d="M162,208 Q148,260 132,322 L152,326 Q166,268 180,212 Z" fill="#5fae8a"/>
    <path d="M198,208 Q212,260 228,322 L208,326 Q194,268 180,212 Z" fill="#5fae8a"/>
    <ellipse cx="142" cy="326" rx="16" ry="9" fill="#4a8a6c"/>
    <ellipse cx="218" cy="326" rx="16" ry="9" fill="#4a8a6c"/>
    <path d="M150,125 Q95,95 42,40 L54,28 Q112,82 162,138 Z" fill="#6fb89a"/>
    <path d="M210,125 Q265,95 318,40 L306,28 Q248,82 198,138 Z" fill="#6fb89a"/>
    <path d="M150,112 Q180,98 210,112 L216,190 Q180,218 144,190 Z" fill="#6fb89a"/>
    <path d="M158,196 Q180,204 202,196" fill="none"/>
    <polygon points="180,138 197,158 180,178 163,158" fill="#e2483c"/>
    <circle cx="150" cy="122" r="15" fill="#4a8a6c"/>
    <circle cx="210" cy="122" r="15" fill="#4a8a6c"/>
    <ellipse cx="180" cy="82" rx="40" ry="36" fill="#6fb89a"/>
    <path d="M164,52 L180,22 L196,52 Z" fill="#5fae8a"/>
    <path d="M146,68 L122,56 L142,84 Z" fill="#5fae8a"/>
    <path d="M214,68 L238,56 L218,84 Z" fill="#5fae8a"/>
    <circle cx="166" cy="80" r="9" fill="#e2483c"/>
    <circle cx="194" cy="80" r="9" fill="#e2483c"/>
    <path d="M170,100 Q180,106 190,100" fill="none"/>
  </g>
</svg>
