<svg xmlns="http://www.w3.org/2000/svg" viewBox="0 0 360 360">
  <ellipse cx="180" cy="135" rx="125" ry="68" fill="#a8783c" stroke="#2d263c" stroke-width="8" stroke-linejoin="round"/>
  <circle cx="95" cy="90" r="17" fill="#c99a5b" stroke="#2d263c" stroke-width="6"/>
  <circle cx="180" cy="60" r="19" fill="#c99a5b" stroke="#2d263c" stroke-width="6"/>
  <circle cx="265" cy="90" r="17" fill="#c99a5b" stroke="#2d263c" stroke-width="6"/>
  <path d="M100,150 Q180,178 260,150" fill="none" stroke="#2d263c" stroke-width="5" stroke-linecap="round"/>
  <ellipse cx="180" cy="235" rx="78" ry="60" fill="#2b2320" stroke="#2d263c" stroke-width="8" stroke-linejoin="round"/>
  <ellipse cx="180" cy="175" rx="95" ry="50" fill="#1c1613" stroke="#2d263c" stroke-width="7" stroke-linejoin="round"/>
  <circle cx="155" cy="245" r="8" fill="#a8783c"/>
  <circle cx="205" cy="250" r="7" fill="#a8783c"/>
  <path d="M135,155 L165,166" fill="none" stroke="#2d263c" stroke-width="9" stroke-linecap="round"/>
  <path d="M225,155 L195,166" fill="none" stroke="#2d263c" stroke-width="9" stroke-linecap="round"/>
  <circle cx="142" cy="178" r="17" fill="#e8341c" stroke="#2d263c" stroke-width="6"/>
  <circle cx="218" cy="178" r="17" fill="#e8341c" stroke="#2d263c" stroke-width="6"/>
  <circle cx="138" cy="180" r="6" fill="#140f0d"/>
  <circle cx="222" cy="180" r="6" fill="#140f0d"/>
  <path d="M140,210 Q180,236 220,210 L214,226 Q180,246 146,226 Z" fill="#140f0d" stroke="#2d263c" stroke-width="6" stroke-linejoin="round"/>
  <polygon points="160,212 168,212 164,228" fill="#f5efe3" stroke="#2d263c" stroke-width="4" stroke-linejoin="round"/>
  <polygon points="192,212 200,212 196,228" fill="#f5efe3" stroke="#2d263c" stroke-width="4" stroke-linejoin="round"/>
  <line x1="110" y1="225" x2="60" y2="255" stroke="#2d263c" stroke-width="14" stroke-linecap="round"/>
  <line x1="110" y1="225" x2="60" y2="255" stroke="#2b2320" stroke-width="8" stroke-linecap="round"/>
  <circle cx="58" cy="258" r="15" fill="#2b2320" stroke="#2d263c" stroke-width="6"/>
  <line x1="250" y1="225" x2="300" y2="255" stroke="#2d263c" stroke-width="14" stroke-linecap="round"/>
  <line x1="250" y1="225" x2="300" y2="255" stroke="#2b2320" stroke-width="8" stroke-linecap="round"/>
  <circle cx="302" cy="258" r="15" fill="#2b2320" stroke="#2d263c" stroke-width="6"/>
  <line x1="150" y1="278" x2="145" y2="316" stroke="#2d263c" stroke-width="26" stroke-linecap="round"/>
  <line x1="150" y1="278" x2="145" y2="316" stroke="#2b2320" stroke-width="18" stroke-linecap="round"/>
  <line x1="210" y1="278" x2="215" y2="316" stroke="#2d263c" stroke-width="26" stroke-linecap="round"/>
  <line x1="210" y1="278" x2="215" y2="316" stroke="#2b2320" stroke-width="18" stroke-linecap="round"/>
  <polygon points="125,326 138,318 145,328 152,318 165,326 145,336" fill="#2b2320" stroke="#2d263c" stroke-width="4" stroke-linejoin="round"/>
  <polygon points="195,326 208,318 215,328 222,318 235,326 215,336" fill="#2b2320" stroke="#2d263c" stroke-width="4" stroke-linejoin="round"/>
</svg>
