<svg xmlns="http://www.w3.org/2000/svg" viewBox="0 0 360 360">
  <!-- 尾ビレ（後ろ） -->
  <ellipse cx="182" cy="320" rx="62" ry="22" fill="#5bbcd6" stroke="#2d263c" stroke-width="7" stroke-linejoin="round"/>
  <path d="M130 318 Q105 340 98 328 Q112 310 132 312Z" fill="#5bbcd6" stroke="#2d263c" stroke-width="6" stroke-linejoin="round"/>
  <path d="M234 318 Q260 340 266 326 Q250 308 230 312Z" fill="#5bbcd6" stroke="#2d263c" stroke-width="6" stroke-linejoin="round"/>
  <!-- 尾ビレ先端白 -->
  <path d="M148 330 Q182 344 218 330" fill="none" stroke="#e8f4f8" stroke-width="5" stroke-linecap="round"/>

  <!-- 耳（左・奥） -->
  <path d="M148 88 Q130 30 142 10 Q158 28 160 88Z" fill="#f0f4f8" stroke="#2d263c" stroke-width="7" stroke-linejoin="round"/>
  <path d="M150 84 Q137 42 145 22 Q156 38 156 84Z" fill="#f4a8b8" stroke="none"/>

  <!-- 耳（右・手前） -->
  <path d="M218 86 Q238 28 226 8 Q208 26 206 86Z" fill="#f0f4f8" stroke="#2d263c" stroke-width="7" stroke-linejoin="round"/>
  <path d="M214 82 Q228 40 222 20 Q210 36 208 82Z" fill="#f4a8b8" stroke="none"/>

  <!-- 体（胴体） -->
  <ellipse cx="182" cy="230" rx="72" ry="88" fill="#f0f4f8" stroke="#2d263c" stroke-width="8" stroke-linejoin="round"/>

  <!-- お腹白ふっくら -->
  <ellipse cx="182" cy="248" rx="46" ry="58" fill="#ffffff" stroke="#d8e8f0" stroke-width="2"/>

  <!-- 頭 -->
  <ellipse cx="182" cy="130" rx="68" ry="64" fill="#f0f4f8" stroke="#2d263c" stroke-width="8" stroke-linejoin="round"/>

  <!-- 首の青い飾り -->
  <path d="M134 178 Q182 192 230 178" fill="none" stroke="#5bbcd6" stroke-width="8" stroke-linecap="round"/>
  <circle cx="158" cy="183" r="6" fill="#5bbcd6" stroke="#2d263c" stroke-width="3"/>
  <circle cx="182" cy="188" r="7" fill="#5bbcd6" stroke="#2d263c" stroke-width="3"/>
  <circle cx="206" cy="183" r="6" fill="#5bbcd6" stroke="#2d263c" stroke-width="3"/>

  <!-- 左ヒレ -->
  <path d="M114 220 Q72 200 60 218 Q68 240 112 244Z" fill="#5bbcd6" stroke="#2d263c" stroke-width="7" stroke-linejoin="round"/>
  <!-- 右ヒレ -->
  <path d="M250 220 Q292 200 304 218 Q296 240 252 244Z" fill="#5bbcd6" stroke="#2d263c" stroke-width="7" stroke-linejoin="round"/>

  <!-- 目（左） -->
  <ellipse cx="158" cy="128" rx="16" ry="18" fill="#3a8ec8" stroke="#2d263c" stroke-width="5"/>
  <ellipse cx="162" cy="126" rx="8" ry="10" fill="#1a5c9a"/>
  <circle cx="164" cy="122" r="4" fill="white"/>
  <circle cx="156" cy="132" r="2" fill="white"/>

  <!-- 目（右） -->
  <ellipse cx="208" cy="128" rx="16" ry="18" fill="#3a8ec8" stroke="#2d263c" stroke-width="5"/>
  <ellipse cx="212" cy="126" rx="8" ry="10" fill="#1a5c9a"/>
  <circle cx="214" cy="122" r="4" fill="white"/>
  <circle cx="206" cy="132" r="2" fill="white"/>

  <!-- まつ毛 -->
  <path d="M146 114 Q140 106 136 110" fill="none" stroke="#2d263c" stroke-width="4" stroke-linecap="round"/>
  <path d="M198 114 Q196 105 200 109" fill="none" stroke="#2d263c" stroke-width="4" stroke-linecap="round"/>
  <path d="M214 112 Q218 104 222 108" fill="none" stroke="#2d263c" stroke-width="4" stroke-linecap="round"/>

  <!-- ほっぺた -->
  <ellipse cx="140" cy="148" rx="12" ry="8" fill="#f4819a" opacity="0.7"/>
  <ellipse cx="224" cy="148" rx="12" ry="8" fill="#f4819a" opacity="0.7"/>

  <!-- 鼻 -->
  <ellipse cx="182" cy="150" rx="5" ry="3" fill="#e888a8"/>

  <!-- 口 -->
  <path d="M170 162 Q182 172 194 162" fill="none" stroke="#2d263c" stroke-width="4" stroke-linecap="round"/>

  <!-- 頭の赤いリボン飾り（花形） -->
  <circle cx="182" cy="78" r="12" fill="#e8304a" stroke="#2d263c" stroke-width="5"/>
  <ellipse cx="168" cy="74" rx="10" ry="7" fill="#e8304a" stroke="#2d263c" stroke-width="4" transform="rotate(-30 168 74)"/>
  <ellipse cx="196" cy="74" rx="10" ry="7" fill="#e8304a" stroke="#2d263c" stroke-width="4" transform="rotate(30 196 74)"/>
  <ellipse cx="182" cy="64" rx="7" ry="10" fill="#e8304a" stroke="#2d263c" stroke-width="4"/>
  <circle cx="182" cy="78" r="7" fill="#f4a8b8" stroke="#2d263c" stroke-width="3"/>
</svg>