<svg xmlns="http://www.w3.org/2000/svg" viewBox="0 0 360 360">
<g stroke="#2d263c" stroke-width="7" stroke-linejoin="round" stroke-linecap="round">
<ellipse cx="180" cy="210" rx="50" ry="60" fill="#3a5fa8"/>
<ellipse cx="180" cy="226" rx="30" ry="42" fill="#27417a"/>
<path d="M130 200 Q104 236 136 256 Q156 250 146 210 Z" fill="#27417a"/>
<path d="M230 200 Q256 236 224 256 Q204 250 214 210 Z" fill="#27417a"/>
<path d="M170 266 Q164 292 180 296 Q196 292 190 266 Z" fill="#27417a"/>
<ellipse cx="180" cy="130" rx="46" ry="42" fill="#3a5fa8"/>
<path d="M180 90 Q168 68 178 58 Q188 68 180 90 Z" fill="#27417a"/>
<path d="M180 90 Q196 70 208 64 Q199 82 188 92 Z" fill="#27417a"/>
<path d="M165 142 Q146 153 169 161 Q178 155 178 146 Z" fill="#2d263c"/>
<path d="M158 122 L173 129 L158 135 Z" fill="#ffd23f"/>
<path d="M202 122 L187 129 L202 135 Z" fill="#ffd23f"/>
<circle cx="165" cy="129" r="3" fill="#2d263c"/>
<circle cx="195" cy="129" r="3" fill="#2d263c"/>
<path d="M165 266 L161 286 M169 266 L169 286" fill="none"/>
<path d="M195 266 L191 286 M199 266 L199 286" fill="none"/>
</g>
</svg>