<svg xmlns="http://www.w3.org/2000/svg" viewBox="0 0 360 360">
<polygon points="95,172 70,144 112,160" fill="#2d2a3a" stroke="#2d263c" stroke-width="6" stroke-linejoin="round"/>
<polygon points="265,172 290,144 248,160" fill="#2d2a3a" stroke="#2d263c" stroke-width="6" stroke-linejoin="round"/>
<polygon points="150,92 138,58 164,86" fill="#2d2a3a" stroke="#2d263c" stroke-width="6" stroke-linejoin="round"/>
<polygon points="210,92 222,58 196,86" fill="#2d2a3a" stroke="#2d263c" stroke-width="6" stroke-linejoin="round"/>
<ellipse cx="180" cy="116" rx="42" ry="34" fill="#2d2a3a" stroke="#2d263c" stroke-width="7"/>
<ellipse cx="163" cy="113" rx="11" ry="13" fill="#e8c84a" stroke="#2d263c" stroke-width="4"/>
<ellipse cx="197" cy="113" rx="11" ry="13" fill="#e8c84a" stroke="#2d263c" stroke-width="4"/>
<ellipse cx="180" cy="218" rx="98" ry="88" fill="#2d2a3a" stroke="#2d263c" stroke-width="8"/>
<ellipse cx="180" cy="232" rx="64" ry="44" fill="#5a2424" stroke="#2d263c" stroke-width="7"/>
<ellipse cx="180" cy="248" rx="36" ry="18" fill="#b84848"/>
<polygon points="134,206 146,206 140,222" fill="#f0eee0" stroke="#2d263c" stroke-width="3" stroke-linejoin="round"/>
<polygon points="158,206 170,206 164,222" fill="#f0eee0" stroke="#2d263c" stroke-width="3" stroke-linejoin="round"/>
<polygon points="190,206 202,206 196,222" fill="#f0eee0" stroke="#2d263c" stroke-width="3" stroke-linejoin="round"/>
<polygon points="214,206 226,206 220,222" fill="#f0eee0" stroke="#2d263c" stroke-width="3" stroke-linejoin="round"/>
<polygon points="134,260 146,260 140,244" fill="#f0eee0" stroke="#2d263c" stroke-width="3" stroke-linejoin="round"/>
<polygon points="158,260 170,260 164,244" fill="#f0eee0" stroke="#2d263c" stroke-width="3" stroke-linejoin="round"/>
<polygon points="190,260 202,260 196,244" fill="#f0eee0" stroke="#2d263c" stroke-width="3" stroke-linejoin="round"/>
<polygon points="214,260 226,260 220,244" fill="#f0eee0" stroke="#2d263c" stroke-width="3" stroke-linejoin="round"/>
<path d="M90 200 Q58 214 46 250 L62 254 Q66 226 100 216 Z" fill="#2d2a3a" stroke="#2d263c" stroke-width="7" stroke-linejoin="round"/>
<polygon points="44,252 38,270 52,256" fill="#2d2a3a" stroke="#2d263c" stroke-width="4" stroke-linejoin="round"/>
<polygon points="58,254 56,272 68,258" fill="#2d2a3a" stroke="#2d263c" stroke-width="4" stroke-linejoin="round"/>
<path d="M270 200 Q302 214 314 250 L298 254 Q294 226 260 216 Z" fill="#2d2a3a" stroke="#2d263c" stroke-width="7" stroke-linejoin="round"/>
<polygon points="316,252 322,270 308,256" fill="#2d2a3a" stroke="#2d263c" stroke-width="4" stroke-linejoin="round"/>
<polygon points="302,254 304,272 294,258" fill="#2d2a3a" stroke="#2d263c" stroke-width="4" stroke-linejoin="round"/>
</svg>