<svg xmlns="http://www.w3.org/2000/svg" viewBox="0 0 360 360">
  <!-- 尻尾の先端(ラトル風・後ろ) -->
  <path d="M255 300 Q275 320 268 336 Q258 348 244 340 Q234 332 238 316 Q242 304 255 300Z" fill="#8A5FBE" stroke="#2d263c" stroke-width="6" stroke-linejoin="round" stroke-linecap="round"/>
  <ellipse cx="252" cy="325" rx="9" ry="8" fill="#F2E6B0" stroke="#2d263c" stroke-width="4"/>

  <!-- 体・下のとぐろ(後ろ側) -->
  <path d="M120 300 Q90 285 95 255 Q102 225 140 220 Q180 216 210 240 Q238 262 250 295 Q258 318 240 330 Q215 340 185 328 Q150 316 120 300Z" fill="#7A56AE" stroke="#2d263c" stroke-width="8" stroke-linejoin="round" stroke-linecap="round"/>

  <!-- 腹模様(下段) -->
  <path d="M118 268 Q150 292 195 292 Q225 290 240 275" fill="none" stroke="#F2E6B0" stroke-width="18" stroke-linecap="round"/>
  <path d="M130 262 Q150 278 172 264 Q192 250 212 264 Q228 276 235 268" fill="none" stroke="#8A6A3A" stroke-width="5" stroke-linecap="round"/>

  <!-- 体・中段のとぐろ -->
  <path d="M95 210 Q65 195 72 165 Q80 135 118 128 Q158 122 190 145 Q220 165 232 198 Q240 222 220 235 Q198 246 168 236 Q130 224 95 210Z" fill="#8B5FC4" stroke="#2d263c" stroke-width="8" stroke-linejoin="round" stroke-linecap="round"/>

  <!-- 腹模様(中段) -->
  <path d="M92 178 Q125 202 168 200 Q198 198 216 182" fill="none" stroke="#F2E6B0" stroke-width="17" stroke-linecap="round"/>
  <path d="M105 172 Q125 188 146 174 Q166 160 186 174 Q202 186 210 178" fill="none" stroke="#8A6A3A" stroke-width="5" stroke-linecap="round"/>

  <!-- 体・首元へ続くうねり -->
  <path d="M78 150 Q55 130 65 100 Q78 72 110 78 Q135 84 140 112 Q142 132 128 148Z" fill="#8B5FC4" stroke="#2d263c" stroke-width="8" stroke-linejoin="round" stroke-linecap="round"/>

  <!-- 頭部(三角気味) -->
  <path d="M60 96 Q52 68 74 52 Q100 36 128 52 Q150 66 148 92 Q146 116 122 128 Q94 140 70 124 Q58 114 60 96Z" fill="#9A6FD0" stroke="#2d263c" stroke-width="8" stroke-linejoin="round" stroke-linecap="round"/>

  <!-- 目 左 -->
  <ellipse cx="86" cy="80" rx="12" ry="13" fill="#F2E6B0" stroke="#2d263c" stroke-width="5"/>
  <ellipse cx="86" cy="82" rx="5" ry="7" fill="#D82020"/>

  <!-- 目 右 -->
  <ellipse cx="122" cy="76" rx="12" ry="13" fill="#F2E6B0" stroke="#2d263c" stroke-width="5"/>
  <ellipse cx="122" cy="78" rx="5" ry="7" fill="#D82020"/>

  <!-- 眉(にらみ) -->
  <path d="M74 64 Q88 58 100 62" fill="none" stroke="#2d263c" stroke-width="5" stroke-linecap="round"/>
  <path d="M112 60 Q122 55 134 60" fill="none" stroke="#2d263c" stroke-width="5" stroke-linecap="round"/>

  <!-- 口 -->
  <path d="M70 108 Q95 122 122 106" fill="none" stroke="#2d263c" stroke-width="5" stroke-linecap="round"/>

  <!-- 舌(ふたまた) -->
  <path d="M62 100 Q40 96 30 84 M40 96 Q30 108 20 110" fill="none" stroke="#D8264A" stroke-width="5" stroke-linecap="round"/>
</svg>
