<svg xmlns="http://www.w3.org/2000/svg" viewBox="0 0 360 360">
  <!-- === 後ろの葉っぱ冠(奥) === -->
  <ellipse cx="180" cy="68" rx="14" ry="44" fill="#1a5e28" stroke="#2d263c" stroke-width="7" stroke-linejoin="round" transform="rotate(-28 180 68)"/>
  <ellipse cx="180" cy="68" rx="14" ry="44" fill="#1a5e28" stroke="#2d263c" stroke-width="7" stroke-linejoin="round" transform="rotate(28 180 68)"/>
  <ellipse cx="180" cy="68" rx="13" ry="42" fill="#1a5e28" stroke="#2d263c" stroke-width="7" stroke-linejoin="round" transform="rotate(-55 180 68)"/>
  <ellipse cx="180" cy="68" rx="13" ry="42" fill="#1a5e28" stroke="#2d263c" stroke-width="7" stroke-linejoin="round" transform="rotate(55 180 68)"/>

  <!-- === 王冠の実(赤い玉) === -->
  <circle cx="148" cy="42" r="10" fill="#c0392b" stroke="#2d263c" stroke-width="6"/>
  <circle cx="212" cy="42" r="10" fill="#c0392b" stroke="#2d263c" stroke-width="6"/>
  <circle cx="168" cy="28" r="9" fill="#c0392b" stroke="#2d263c" stroke-width="6"/>
  <circle cx="192" cy="28" r="9" fill="#c0392b" stroke="#2d263c" stroke-width="6"/>
  <circle cx="180" cy="22" r="11" fill="#c0392b" stroke="#2d263c" stroke-width="6"/>

  <!-- === 中央の葉っぱ冠(正面・一番目立つ) === -->
  <ellipse cx="180" cy="72" rx="15" ry="48" fill="#2d7a3a" stroke="#2d263c" stroke-width="7" stroke-linejoin="round"/>

  <!-- === 首 === -->
  <rect x="166" y="118" width="28" height="22" rx="8" fill="#f5f0dc" stroke="#2d263c" stroke-width="7"/>

  <!-- === スカート状の葉(腰回り) === -->
  <ellipse cx="150" cy="218" rx="30" ry="18" fill="#1a5e28" stroke="#2d263c" stroke-width="7" transform="rotate(-20 150 218)"/>
  <ellipse cx="210" cy="218" rx="30" ry="18" fill="#1a5e28" stroke="#2d263c" stroke-width="7" transform="rotate(20 210 218)"/>
  <ellipse cx="138" cy="228" rx="26" ry="14" fill="#2d7a3a" stroke="#2d263c" stroke-width="6" transform="rotate(-35 138 228)"/>
  <ellipse cx="222" cy="228" rx="26" ry="14" fill="#2d7a3a" stroke="#2d263c" stroke-width="6" transform="rotate(35 222 228)"/>

  <!-- === 体(胴体) === -->
  <ellipse cx="180" cy="185" rx="50" ry="65" fill="#2d7a3a" stroke="#2d263c" stroke-width="8" stroke-linejoin="round"/>

  <!-- === お腹(クリーム色) === -->
  <ellipse cx="180" cy="192" rx="30" ry="42" fill="#f5f0dc" stroke="#2d263c" stroke-width="6"/>

  <!-- === 腕(左) === -->
  <ellipse cx="135" cy="175" rx="16" ry="28" fill="#2d7a3a" stroke="#2d263c" stroke-width="7" transform="rotate(18 135 175)"/>
  <!-- === 腕(右) === -->
  <ellipse cx="225" cy="178" rx="16" ry="26" fill="#2d7a3a" stroke="#2d263c" stroke-width="7" transform="rotate(-15 225 178)"/>

  <!-- === 太もも(左) === -->
  <ellipse cx="157" cy="268" rx="20" ry="32" fill="#2d7a3a" stroke="#2d263c" stroke-width="8" stroke-linejoin="round"/>
  <!-- === 太もも(右) === -->
  <ellipse cx="203" cy="268" rx="20" ry="32" fill="#2d7a3a" stroke="#2d263c" stroke-width="8" stroke-linejoin="round"/>

  <!-- === ブーツ(左) === -->
  <ellipse cx="154" cy="308" rx="17" ry="28" fill="#f5f0dc" stroke="#2d263c" stroke-width="8"/>
  <ellipse cx="150" cy="333" rx="12" ry="9" fill="#2d263c" stroke="#2d263c" stroke-width="5"/>
  <!-- === ブーツ(右) === -->
  <ellipse cx="206" cy="308" rx="17" ry="28" fill="#f5f0dc" stroke="#2d263c" stroke-width="8"/>
  <ellipse cx="210" cy="333" rx="12" ry="9" fill="#2d263c" stroke="#2d263c" stroke-width="5"/>

  <!-- === 顔(白め) === -->
  <ellipse cx="180" cy="128" rx="40" ry="38" fill="#f5f0dc" stroke="#2d263c" stroke-width="8" stroke-linejoin="round"/>

  <!-- === ほっぺ(赤) === -->
  <ellipse cx="152" cy="138" rx="12" ry="9" fill="#e74c3c" opacity="0.75"/>
  <ellipse cx="208" cy="138" rx="12" ry="9" fill="#e74c3c" opacity="0.75"/>

  <!-- === 目(つり目・自信たっぷり) === -->
  <!-- 左目 -->
  <path d="M158 122 Q165 116 172 122" fill="none" stroke="#2d263c" stroke-width="5" stroke-linecap="round"/>
  <ellipse cx="165" cy="126" rx="8" ry="7" fill="#2d263c"/>
  <ellipse cx="163" cy="124" rx="3" ry="2.5" fill="white"/>
  <!-- 右目 -->
  <path d="M188 122 Q195 116 202 122" fill="none" stroke="#2d263c" stroke-width="5" stroke-linecap="round"/>
  <ellipse cx="195" cy="126" rx="8" ry="7" fill="#2d263c"/>
  <ellipse cx="193" cy="124" rx="3" ry="2.5" fill="white"/>

  <!-- === 鼻 === -->
  <ellipse cx="180" cy="136" rx="5" ry="4" fill="#c8a882"/>

  <!-- === 口(余裕のほほえみ) === -->
  <path d="M168 146 Q180 155 192 146" fill="none" stroke="#2d263c" stroke-width="5" stroke-linecap="round"/>
</svg>