<svg xmlns="http://www.w3.org/2000/svg" viewBox="0 0 360 360"><g stroke="#2d263c" stroke-width="7" stroke-linejoin="round" stroke-linecap="round"><path d="M148,112 C112,98 76,66 50,36 C56,82 88,122 138,142 C143,132 146,122 148,112 Z" fill="#46556b"/><path d="M248,238 C294,228 322,196 332,152 C338,204 310,252 262,270 C254,259 250,248 248,238 Z" fill="#46556b"/><path d="M236,252 L236,310 L264,310 L256,248 Z" fill="#f8f8f4"/><path d="M134,250 L128,312 L158,312 L154,250 Z" fill="#f8f8f4"/><path d="M196,250 L192,312 L222,312 L218,250 Z" fill="#f8f8f4"/><path d="M112,215 Q102,255 126,278 L138,266 L146,284 L160,270 L172,286 L186,272 L200,286 L214,270 L228,282 L244,264 Q264,246 256,212 Q244,176 182,172 Q124,178 112,215 Z" fill="#f8f8f4"/><path d="M125,308 Q143,296 161,308 L160,322 Q143,328 126,322 Z" fill="#46556b" stroke-width="6"/><path d="M191,308 Q208,297 224,308 L223,322 Q207,327 192,322 Z" fill="#46556b" stroke-width="6"/><path d="M236,306 Q250,297 263,306 L262,318 Q249,323 237,318 Z" fill="#46556b" stroke-width="6"/><path d="M114,128 Q104,66 168,54 Q236,60 232,122 Q231,140 250,150 L226,154 Q230,176 204,180 L196,168 L182,182 L168,170 L152,182 Q130,176 134,158 L110,162 Q116,142 114,128 Z" fill="#f8f8f4"/><path d="M136,112 Q142,84 170,82 Q200,84 206,110 Q208,142 171,154 Q138,140 136,112 Z" fill="#46556b"/><ellipse cx="171" cy="69" rx="13" ry="8" fill="#46556b" stroke-width="6"/><path d="M148,108 L170,102 L173,116 L152,121 Z" fill="#e0413f" stroke-width="6"/><path d="M190,102 L211,107 L207,121 L188,117 Z" fill="#e0413f" stroke-width="6"/><circle cx="162" cy="111" r="3.5" fill="#2d263c" stroke="none"/><circle cx="198" cy="112" r="4" fill="#2d263c" stroke="none"/><path d="M167,136 l9,0 l-4.5,7 z" fill="#2d263c" stroke="none"/><path d="M159,146 q12,9 25,1" fill="none" stroke-width="6"/></g></svg>