<svg xmlns="http://www.w3.org/2000/svg" viewBox="0 0 360 360">
  <rect x="146" y="272" width="18" height="55" rx="8" fill="#E8691A" stroke="#2d263c" stroke-width="7" stroke-linejoin="round"/>
  <rect x="196" y="272" width="18" height="55" rx="8" fill="#E8691A" stroke="#2d263c" stroke-width="7" stroke-linejoin="round"/>
  <ellipse cx="154" cy="329" rx="21" ry="10" fill="#F5B23D" stroke="#2d263c" stroke-width="7" stroke-linejoin="round"/>
  <ellipse cx="206" cy="329" rx="21" ry="10" fill="#F5B23D" stroke="#2d263c" stroke-width="7" stroke-linejoin="round"/>
  <ellipse cx="90" cy="212" rx="24" ry="34" fill="#E8691A" stroke="#2d263c" stroke-width="7" stroke-linejoin="round"/>
  <ellipse cx="270" cy="212" rx="24" ry="34" fill="#E8691A" stroke="#2d263c" stroke-width="7" stroke-linejoin="round"/>
  <ellipse cx="180" cy="200" rx="96" ry="96" fill="#F58225" stroke="#2d263c" stroke-width="8" stroke-linejoin="round"/>
  <ellipse cx="180" cy="244" rx="54" ry="52" fill="#FFF3D6" stroke="#2d263c" stroke-width="6" stroke-linejoin="round"/>
  <path d="M180,54 C163,80 158,102 180,112 C202,102 197,80 180,54 Z" fill="#FFDA45" stroke="#2d263c" stroke-width="7" stroke-linejoin="round"/>
  <ellipse cx="180" cy="236" rx="15" ry="11" fill="#FFC93C" stroke="#2d263c" stroke-width="6" stroke-linejoin="round"/>
  <circle cx="153" cy="188" r="12" fill="#241f2e" stroke="#2d263c" stroke-width="6"/>
  <circle cx="207" cy="188" r="12" fill="#241f2e" stroke="#2d263c" stroke-width="6"/>
  <circle cx="149" cy="184" r="4" fill="#ffffff"/>
  <circle cx="203" cy="184" r="4" fill="#ffffff"/>
</svg>
