<svg xmlns="http://www.w3.org/2000/svg" viewBox="0 0 360 360">
  <path d="M280,190 L320,160 L295,205 Z" fill="#c0392b" stroke="#2d263c" stroke-width="6" stroke-linejoin="round"/>
  <path d="M270,210 L315,195 L285,225 Z" fill="#c0392b" stroke="#2d263c" stroke-width="6" stroke-linejoin="round"/>
  <path d="M245,220 Q280,200 300,175 Q290,210 275,235 Q260,245 245,235 Z" fill="#3d4a63" stroke="#2d263c" stroke-width="7" stroke-linejoin="round"/>
  <path d="M215,205 Q270,150 300,115 Q290,170 275,215 Q250,245 215,235 Z" fill="#354160" stroke="#2d263c" stroke-width="8" stroke-linejoin="round"/>
  <path d="M235,190 Q265,155 288,125" fill="none" stroke="#6c7fa8" stroke-width="8" stroke-linecap="round"/>
  <path d="M240,215 Q265,190 282,160" fill="none" stroke="#6c7fa8" stroke-width="8" stroke-linecap="round"/>
  <path d="M165,275 Q160,300 165,320 L185,320 Q188,295 182,275 Z" fill="#3d4a63" stroke="#2d263c" stroke-width="7" stroke-linejoin="round"/>
  <path d="M205,278 Q200,300 205,322 L228,322 Q231,298 225,278 Z" fill="#3d4a63" stroke="#2d263c" stroke-width="7" stroke-linejoin="round"/>
  <path d="M160,320 L150,335 L168,325 Z" fill="#5a5a5a" stroke="#2d263c" stroke-width="5" stroke-linejoin="round"/>
  <path d="M175,320 L172,338 L185,325 Z" fill="#5a5a5a" stroke="#2d263c" stroke-width="5" stroke-linejoin="round"/>
  <path d="M203,322 L195,338 L212,328 Z" fill="#5a5a5a" stroke="#2d263c" stroke-width="5" stroke-linejoin="round"/>
  <path d="M218,322 L216,340 L230,328 Z" fill="#5a5a5a" stroke="#2d263c" stroke-width="5" stroke-linejoin="round"/>
  <ellipse cx="190" cy="235" rx="70" ry="55" fill="#3d4a63" stroke="#2d263c" stroke-width="7"/>
  <ellipse cx="175" cy="250" rx="40" ry="32" fill="#e8dba8" stroke="#2d263c" stroke-width="6"/>
  <path d="M150,195 Q120,160 105,140 Q140,150 165,190 Z" fill="#3d4a63" stroke="#2d263c" stroke-width="7" stroke-linejoin="round"/>
  <ellipse cx="95" cy="128" rx="40" ry="32" fill="#3d4a63" stroke="#2d263c" stroke-width="7"/>
  <path d="M60,120 L20,135 L62,145 Z" fill="#8a8a8a" stroke="#2d263c" stroke-width="6" stroke-linejoin="round"/>
  <path d="M62,145 L30,150 L64,158 Z" fill="#5a5a5a" stroke="#2d263c" stroke-width="6" stroke-linejoin="round"/>
  <path d="M110,100 L100,55 L125,95 Z" fill="#c0392b" stroke="#2d263c" stroke-width="6" stroke-linejoin="round"/>
  <path d="M125,105 L130,60 L145,105 Z" fill="#c0392b" stroke="#2d263c" stroke-width="6" stroke-linejoin="round"/>
  <path d="M138,112 L155,80 L152,115 Z" fill="#c0392b" stroke="#2d263c" stroke-width="6" stroke-linejoin="round"/>
  <circle cx="85" cy="120" r="11" fill="#fdf6e3" stroke="#2d263c" stroke-width="5"/>
  <circle cx="83" cy="121" r="5" fill="#231f1f"/>
  <path d="M72,108 Q85,98 98,108" fill="none" stroke="#c0392b" stroke-width="6" stroke-linecap="round"/>
</svg>
