<svg xmlns="http://www.w3.org/2000/svg" viewBox="0 0 360 360">
  <ellipse cx="180" cy="325" rx="125" ry="14" fill="#b8976a" opacity="0.35"/>

  <ellipse cx="180" cy="275" rx="140" ry="48" fill="#f0d9a8" stroke="#2d263c" stroke-width="7" stroke-linejoin="round"/>
  <path d="M45 250 Q62 233 80 250 Q97 233 115 250 Q132 233 150 250 Q167 233 185 250 Q202 233 220 250 Q237 233 255 250 Q272 233 290 250 Q307 233 315 245" fill="none" stroke="#2d263c" stroke-width="5" stroke-linecap="round"/>
  <path d="M95 292 Q180 272 265 292" fill="none" stroke="#c9a96e" stroke-width="4" stroke-linecap="round"/>
  <path d="M115 308 Q180 294 245 308" fill="none" stroke="#c9a96e" stroke-width="4" stroke-linecap="round"/>
  <circle cx="150" cy="300" r="6" fill="#c9a96e"/>
  <circle cx="170" cy="308" r="5" fill="#c9a96e"/>
  <circle cx="190" cy="309" r="6" fill="#c9a96e"/>
  <circle cx="210" cy="305" r="5" fill="#c9a96e"/>
  <circle cx="225" cy="296" r="5" fill="#c9a96e"/>

  <path d="M168 95 C152 58 165 22 205 22 C248 22 266 60 248 100 C232 88 212 85 198 95 C190 100 178 100 168 95 Z" fill="#5d4037" stroke="#2d263c" stroke-width="7" stroke-linejoin="round"/>
  <path d="M185 80 C179 58 190 34 210 32 C233 35 244 58 235 82 C222 74 202 72 185 80 Z" fill="#c0392b" opacity="0.85"/>
  <path d="M195 70 Q210 45 225 70" fill="none" stroke="#3d2b22" stroke-width="4" stroke-linecap="round"/>

  <ellipse cx="180" cy="175" rx="130" ry="95" fill="#c0392b" stroke="#2d263c" stroke-width="9" stroke-linejoin="round"/>
  <ellipse cx="140" cy="140" rx="32" ry="20" fill="#e74c3c" opacity="0.5"/>
  <ellipse cx="225" cy="150" rx="20" ry="13" fill="#e74c3c" opacity="0.35"/>
  <path d="M180 90 Q155 130 150 175" fill="none" stroke="#a93226" stroke-width="3" stroke-linecap="round" opacity="0.6"/>
  <path d="M180 90 Q205 130 210 175" fill="none" stroke="#a93226" stroke-width="3" stroke-linecap="round" opacity="0.6"/>
  <path d="M180 85 Q185 65 178 48" fill="none" stroke="#5d4037" stroke-width="10" stroke-linecap="round"/>

  <path d="M95 235 Q80 245 75 262 Q84 272 98 264 Q102 250 110 240 Z" fill="#f0d9a8" stroke="#2d263c" stroke-width="6" stroke-linejoin="round" stroke-linecap="round"/>
  <path d="M265 234 Q280 244 285 261 Q276 271 262 263 Q258 249 250 239 Z" fill="#f0d9a8" stroke="#2d263c" stroke-width="6" stroke-linejoin="round" stroke-linecap="round"/>

  <ellipse cx="180" cy="178" rx="15" ry="11" fill="#e8523a" stroke="#2d263c" stroke-width="4"/>
  <ellipse cx="180" cy="178" rx="8" ry="5" fill="#2d263c"/>

  <ellipse cx="142" cy="160" rx="15" ry="17" fill="white" stroke="#2d263c" stroke-width="5"/>
  <ellipse cx="146" cy="162" rx="8" ry="9" fill="#1a1a2e"/>
  <circle cx="149" cy="158" r="3.5" fill="white"/>

  <ellipse cx="220" cy="159" rx="14" ry="18" fill="white" stroke="#2d263c" stroke-width="5"/>
  <ellipse cx="224" cy="162" rx="7" ry="9" fill="#1a1a2e"/>
  <circle cx="226" cy="157" r="3.5" fill="white"/>

  <path d="M160 202 Q173 216 182 218 Q191 216 202 202" fill="#2d263c" stroke="#2d263c" stroke-width="4" stroke-linejoin="round" stroke-linecap="round"/>
  <path d="M160 202 Q173 213 182 215 Q191 213 202 202" fill="#c0392b"/>

  <ellipse cx="128" cy="182" rx="12" ry="9" fill="#e74c3c" opacity="0.7"/>
  <ellipse cx="235" cy="181" rx="11" ry="9" fill="#e74c3c" opacity="0.7"/>
</svg>
