<svg xmlns="http://www.w3.org/2000/svg" viewBox="0 0 360 360">
  <!-- 尾羽(後ろ) -->
  <path d="M155 265 Q140 300 125 320 Q145 305 160 285 Q165 310 158 330 Q175 308 172 282 Q182 308 185 330 Q190 305 185 280" fill="#2a2d3e" stroke="#2d263c" stroke-width="6" stroke-linejoin="round" stroke-linecap="round"/>

  <!-- 左翼(後ろ) -->
  <path d="M100 180 Q55 155 30 120 Q45 140 52 165 Q25 145 15 110 Q35 150 38 178 Q18 162 12 138 Q28 175 42 195 Q60 205 85 210" fill="#2a2d3e" stroke="#2d263c" stroke-width="7" stroke-linejoin="round" stroke-linecap="round"/>

  <!-- 右翼(後ろ) -->
  <path d="M258 180 Q305 155 332 120 Q317 140 308 165 Q337 145 345 110 Q325 150 322 178 Q342 162 348 138 Q332 175 318 195 Q300 205 275 210" fill="#2a2d3e" stroke="#2d263c" stroke-width="7" stroke-linejoin="round" stroke-linecap="round"/>

  <!-- 胴体 -->
  <ellipse cx="180" cy="210" rx="72" ry="80" fill="#2a2d3e" stroke="#2d263c" stroke-width="8" stroke-linejoin="round"/>

  <!-- 胸の銀プレート -->
  <path d="M148 185 Q155 178 180 175 Q205 178 212 185 Q218 200 215 225 Q210 245 200 252 Q190 258 180 258 Q170 258 160 252 Q150 245 145 225 Q142 200 148 185Z" fill="#b8c8d0" stroke="#2d263c" stroke-width="5" stroke-linejoin="round"/>

  <!-- 胸プレートの縦線(鎧の溝) -->
  <line x1="180" y1="178" x2="180" y2="252" stroke="#7a9098" stroke-width="3" stroke-linecap="round"/>
  <path d="M162 200 Q171 197 180 198 Q189 197 198 200" fill="none" stroke="#7a9098" stroke-width="3" stroke-linecap="round"/>

  <!-- 首 -->
  <path d="M160 148 Q158 168 152 185 Q165 180 180 178 Q195 180 208 185 Q202 168 200 148Z" fill="#2a2d3e" stroke="#2d263c" stroke-width="6" stroke-linejoin="round"/>

  <!-- 頭部 -->
  <ellipse cx="180" cy="128" rx="48" ry="44" fill="#2a2d3e" stroke="#2d263c" stroke-width="8" stroke-linejoin="round"/>

  <!-- 頭の金リング装飾 -->
  <path d="M138 115 Q155 100 180 98 Q205 100 222 115" fill="none" stroke="#d4a820" stroke-width="9" stroke-linecap="round"/>
  <circle cx="137" cy="116" r="5" fill="#d4a820" stroke="#2d263c" stroke-width="3"/>
  <circle cx="223" cy="116" r="5" fill="#d4a820" stroke="#2d263c" stroke-width="3"/>

  <!-- 赤いトサカ(冠羽) -->
  <path d="M165 88 Q168 68 163 48 Q172 65 175 82 Q178 60 180 40 Q182 60 185 82 Q188 65 197 48 Q192 68 195 88" fill="#cc2222" stroke="#2d263c" stroke-width="5" stroke-linejoin="round" stroke-linecap="round"/>

  <!-- 顔の白いハイライト部分(目の周り) -->
  <ellipse cx="158" cy="124" rx="14" ry="13" fill="#e8eef2" stroke="#2d263c" stroke-width="4"/>
  <ellipse cx="202" cy="124" rx="14" ry="13" fill="#e8eef2" stroke="#2d263c" stroke-width="4"/>

  <!-- 目 -->
  <ellipse cx="158" cy="125" rx="9" ry="8" fill="#cc2222" stroke="#2d263c" stroke-width="3"/>
  <ellipse cx="202" cy="125" rx="9" ry="8" fill="#cc2222" stroke="#2d263c" stroke-width="3"/>
  <ellipse cx="157" cy="124" rx="5" ry="5" fill="#1a1220" stroke="none"/>
  <ellipse cx="201" cy="124" rx="5" ry="5" fill="#1a1220" stroke="none"/>
  <!-- 目のハイライト -->
  <circle cx="160" cy="121" r="2.5" fill="white"/>
  <circle cx="204" cy="121" r="2.5" fill="white"/>

  <!-- くちばし(赤) -->
  <path d="M168 138 Q180 133 192 138 L188 152 Q180 158 172 152Z" fill="#cc2222" stroke="#2d263c" stroke-width="5" stroke-linejoin="round"/>
  <!-- くちばし中央線 -->
  <line x1="180" y1="135" x2="180" y2="152" stroke="#991a1a" stroke-width="2.5" stroke-linecap="round"/>

  <!-- 眉みたいなライン(キリッと感) -->
  <path d="M147 116 Q154 111 166 113" fill="none" stroke="#2d263c" stroke-width="5" stroke-linecap="round"/>
  <path d="M194 113 Q206 111 213 116" fill="none" stroke="#2d263c" stroke-width="5" stroke-linecap="round"/>

  <!-- 左脚 -->
  <path d="M155 282 Q150 295 148 310 Q142 318 135 320 Q148 316 152 308 Q150 318 145 325 Q155 319 158 310 Q160 320 158 328 Q165 320 163 310 Q168 295 165 282Z" fill="#2a2d3e" stroke="#2d263c" stroke-width="6" stroke-linejoin="round" stroke-linecap="round"/>

  <!-- 右脚 -->
  <path d="M195 282 Q200 295 202 310 Q208 318 215 320 Q202 316 198 308 Q200 318 205 325 Q195 319 192 310 Q190 320 192 328 Q185 320 187 310 Q182 295 185 282Z" fill="#2a2d3e" stroke="#2d263c" stroke-width="6" stroke-linejoin="round" stroke-linecap="round"/>

  <!-- 翼の金属刃(左) -->
  <path d="M95 205 Q68 218 42 195 Q65 208 72 225 Q50 218 32 228 Q58 228 70 242 Q52 240 40 254 Q62 248 78 255" fill="#2a2d3e" stroke="#2d263c" stroke-width="5" stroke-linejoin="round" stroke-linecap="round"/>

  <!-- 翼の金属刃(右) -->
  <path d="M265 205 Q292 218 318 195 Q295 208 288 225 Q310 218 328 228 Q302 228 290 242 Q308 240 320 254 Q298 248 282 255" fill="#2a2d3e" stroke="#2d263c" stroke-width="5" stroke-linejoin="round" stroke-linecap="round"/>

  <!-- 翼のシルバーライン(金属感) -->
  <path d="M105 195 Q80 200 58 210" fill="none" stroke="#8899a8" stroke-width="4" stroke-linecap="round"/>
  <path d="M255 195 Q280 200 302 210" fill="none" stroke="#8899a8" stroke-width="4" stroke-linecap="round"/>
</svg>