<svg xmlns="http://www.w3.org/2000/svg" viewBox="0 0 360 360">
  <!-- legs (back, water-skater style, 4 thin bent legs) -->
  <path d="M155,245 Q100,255 60,290" fill="none" stroke="#2d263c" stroke-width="14" stroke-linecap="round"/>
  <path d="M155,245 Q100,255 60,290" fill="none" stroke="#4fc3f7" stroke-width="7" stroke-linecap="round"/>
  <path d="M150,270 Q95,300 65,330" fill="none" stroke="#2d263c" stroke-width="14" stroke-linecap="round"/>
  <path d="M150,270 Q95,300 65,330" fill="none" stroke="#4fc3f7" stroke-width="7" stroke-linecap="round"/>
  <path d="M205,245 Q260,255 300,290" fill="none" stroke="#2d263c" stroke-width="14" stroke-linecap="round"/>
  <path d="M205,245 Q260,255 300,290" fill="none" stroke="#4fc3f7" stroke-width="7" stroke-linecap="round"/>
  <path d="M210,270 Q265,300 295,330" fill="none" stroke="#2d263c" stroke-width="14" stroke-linecap="round"/>
  <path d="M210,270 Q265,300 295,330" fill="none" stroke="#4fc3f7" stroke-width="7" stroke-linecap="round"/>

  <!-- tail (back, small pointed rudder) -->
  <polygon points="163,262 197,262 180,302" fill="#e6483c" stroke="#2d263c" stroke-width="7" stroke-linejoin="round"/>

  <!-- body -->
  <ellipse cx="180" cy="195" rx="92" ry="82" fill="#4fc3f7" stroke="#2d263c" stroke-width="8"/>
  <ellipse cx="180" cy="222" rx="50" ry="40" fill="#cdf3ff"/>

  <!-- antennae -->
  <path d="M150,122 Q132,100 123,76" fill="none" stroke="#e6483c" stroke-width="9" stroke-linecap="round"/>
  <circle cx="121" cy="72" r="9" fill="#e6483c" stroke="#2d263c" stroke-width="5"/>
  <path d="M210,122 Q228,100 237,76" fill="none" stroke="#e6483c" stroke-width="9" stroke-linecap="round"/>
  <circle cx="239" cy="72" r="9" fill="#e6483c" stroke="#2d263c" stroke-width="5"/>

  <!-- eyes -->
  <ellipse cx="145" cy="175" rx="32" ry="37" fill="#e6483c" stroke="#2d263c" stroke-width="6"/>
  <circle cx="149" cy="180" r="11" fill="#241b2e"/>
  <circle cx="140" cy="165" r="5" fill="#ffffff"/>
  <ellipse cx="215" cy="175" rx="32" ry="37" fill="#e6483c" stroke="#2d263c" stroke-width="6"/>
  <circle cx="211" cy="180" r="11" fill="#241b2e"/>
  <circle cx="222" cy="165" r="5" fill="#ffffff"/>

  <!-- mouth -->
  <path d="M163,228 Q180,238 197,228" fill="none" stroke="#2d263c" stroke-width="6" stroke-linecap="round"/>
</svg>
