<svg xmlns="http://www.w3.org/2000/svg" viewBox="0 0 360 360">
  <path d="M195 235 C240 222 268 240 264 275 C261 302 228 314 205 297 C188 285 190 262 205 262 C214 262 216 272 208 276" fill="#2d4a99" stroke="#2d263c" stroke-width="7" stroke-linejoin="round" stroke-linecap="round"/>
  <path d="M150 95 C195 95 220 140 213 195 C210 222 202 248 195 262 C172 270 148 253 138 220 C126 185 128 135 150 95 Z" fill="#4a77c9" stroke="#2d263c" stroke-width="8" stroke-linejoin="round" stroke-linecap="round"/>
  <path d="M195 108 L216 92 L209 124 L230 118 L217 150 L233 150 L214 182 L226 188 L206 218 L197 196 Z" fill="#2d4a99" stroke="#2d263c" stroke-width="6" stroke-linejoin="round" stroke-linecap="round"/>
  <path d="M150 122 C167 122 178 145 176 178 C174 205 165 228 153 240 C140 228 134 200 136 168 C137 146 144 124 150 122 Z" fill="#fdf3d9" stroke="#2d263c" stroke-width="5" stroke-linejoin="round" stroke-linecap="round"/>
  <ellipse cx="118" cy="192" rx="20" ry="10" transform="rotate(-25 118 192)" fill="#6fa0e0" stroke="#2d263c" stroke-width="6" stroke-linecap="round"/>
  <ellipse cx="130" cy="228" rx="15" ry="8" transform="rotate(-10 130 228)" fill="#6fa0e0" stroke="#2d263c" stroke-width="6" stroke-linecap="round"/>
  <circle cx="182" cy="150" r="7" fill="#2d4a99"/>
  <circle cx="170" cy="185" r="6" fill="#2d4a99"/>
  <circle cx="178" cy="215" r="6" fill="#2d4a99"/>
  <ellipse cx="140" cy="72" rx="44" ry="38" fill="#4a77c9" stroke="#2d263c" stroke-width="8"/>
  <path d="M110 68 C88 72 74 88 77 100 C79 109 96 109 106 100 C114 92 114 78 110 68 Z" fill="#4a77c9" stroke="#2d263c" stroke-width="7" stroke-linejoin="round" stroke-linecap="round"/>
  <path d="M162 58 L180 46 L177 66 L197 62 L188 82 L202 86 L178 98 L168 82 Z" fill="#c0392b" stroke="#2d263c" stroke-width="6" stroke-linejoin="round" stroke-linecap="round"/>
  <path d="M160 88 L180 82 L173 100 L192 100 L178 116 L190 122 L163 122 L158 102 Z" fill="#c0392b" stroke="#2d263c" stroke-width="6" stroke-linejoin="round" stroke-linecap="round"/>
  <ellipse cx="122" cy="66" rx="12" ry="14" fill="#ffffff" stroke="#2d263c" stroke-width="5"/>
  <circle cx="120" cy="70" r="6" fill="#241f30"/>
  <circle cx="124" cy="65" r="2.4" fill="#ffffff"/>
  <circle cx="90" cy="96" r="3.5" fill="#2d263c"/>
  <path d="M83 103 Q95 111 107 102" fill="none" stroke="#2d263c" stroke-width="5" stroke-linecap="round"/>
</svg>
