<svg xmlns="http://www.w3.org/2000/svg" viewBox="0 0 360 360">
  <ellipse cx="155" cy="220" rx="92" ry="58" fill="#86807a" stroke="#2d263c" stroke-width="8" stroke-linejoin="round"/>
  <path d="M68,225 Q90,272 158,276 Q226,272 246,225 Q224,252 158,255 Q92,252 68,225 Z" fill="#e3b573" stroke="#2d263c" stroke-width="7" stroke-linejoin="round" stroke-linecap="round"/>
  <path d="M90,176 L110,138 L131,176 Z" fill="#6b665f" stroke="#2d263c" stroke-width="6" stroke-linejoin="round"/>
  <path d="M130,169 L151,131 L171,169 Z" fill="#6b665f" stroke="#2d263c" stroke-width="6" stroke-linejoin="round"/>
  <path d="M170,173 L191,137 L211,173 Z" fill="#6b665f" stroke="#2d263c" stroke-width="6" stroke-linejoin="round"/>
  <path d="M65,215 C44,204 34,225 45,246 C52,232 60,222 65,215 Z" fill="#86807a" stroke="#2d263c" stroke-width="7" stroke-linejoin="round"/>
  <rect x="205" y="250" width="30" height="58" rx="12" fill="#e3b573" stroke="#2d263c" stroke-width="7" stroke-linejoin="round"/>
  <rect x="170" y="255" width="28" height="53" rx="12" fill="#e3b573" stroke="#2d263c" stroke-width="7" stroke-linejoin="round"/>
  <rect x="112" y="255" width="28" height="53" rx="12" fill="#e3b573" stroke="#2d263c" stroke-width="7" stroke-linejoin="round"/>
  <rect x="77" y="250" width="30" height="58" rx="12" fill="#e3b573" stroke="#2d263c" stroke-width="7" stroke-linejoin="round"/>
  <ellipse cx="220" cy="308" rx="17" ry="8" fill="#6b5a3f" stroke="#2d263c" stroke-width="6"/>
  <ellipse cx="184" cy="308" rx="16" ry="7" fill="#6b5a3f" stroke="#2d263c" stroke-width="6"/>
  <ellipse cx="126" cy="308" rx="16" ry="7" fill="#6b5a3f" stroke="#2d263c" stroke-width="6"/>
  <ellipse cx="92" cy="308" rx="17" ry="8" fill="#6b5a3f" stroke="#2d263c" stroke-width="6"/>
  <circle cx="255" cy="185" r="46" fill="#86807a" stroke="#2d263c" stroke-width="8"/>
  <ellipse cx="290" cy="200" rx="18" ry="13" fill="#86807a" stroke="#2d263c" stroke-width="7"/>
  <path d="M240,210 C255,160 285,120 320,100 C322,112 300,150 275,185 C265,197 250,205 240,210 Z" fill="#f6efdc" stroke="#2d263c" stroke-width="7" stroke-linejoin="round"/>
  <path d="M248,225 C268,195 295,175 328,160 C322,178 298,205 270,228 C262,232 253,230 248,225 Z" fill="#f6efdc" stroke="#2d263c" stroke-width="7" stroke-linejoin="round"/>
  <path d="M258,158 Q268,150 280,155" fill="none" stroke="#2d263c" stroke-width="6" stroke-linecap="round"/>
  <circle cx="268" cy="170" r="7" fill="#d1483a" stroke="#2d263c" stroke-width="5"/>
  <circle cx="298" cy="203" r="3.5" fill="#2d263c"/>
</svg>
