<svg xmlns="http://www.w3.org/2000/svg" viewBox="0 0 360 360">
<g fill="none" stroke="#2d263c" stroke-width="7" stroke-linejoin="round" stroke-linecap="round">
<path fill="#c08a52" d="M212,285 C255,278 288,240 283,192 C280,162 258,150 248,168 C243,185 248,218 232,255 C224,272 216,281 212,285 Z"/>
<ellipse fill="#f7ead0" cx="266" cy="178" rx="26" ry="30"/>
<path fill="#c08a52" d="M132,112 C102,95 88,58 106,32 C114,22 128,26 132,50 C136,73 141,96 148,116 Z"/>
<path fill="#c08a52" d="M228,112 C258,95 272,58 254,32 C246,22 232,26 228,50 C224,73 219,96 212,116 Z"/>
<path fill="#c08a52" d="M120,198 C95,235 95,292 128,318 C150,332 210,332 232,318 C265,292 265,235 240,198 C222,180 138,180 120,198 Z"/>
<ellipse fill="#c08a52" cx="150" cy="322" rx="22" ry="14"/>
<ellipse fill="#c08a52" cx="210" cy="322" rx="22" ry="14"/>
<ellipse fill="#f7ead0" cx="150" cy="328" rx="12" ry="7"/>
<ellipse fill="#f7ead0" cx="210" cy="328" rx="12" ry="7"/>
<path fill="#f7ead0" d="M124,208 C129,188 150,178 164,193 C174,203 186,203 196,193 C210,178 231,188 236,208 C241,223 231,238 211,233 C195,229 165,229 149,233 C129,238 119,223 124,208 Z"/>
<circle fill="#c08a52" cx="180" cy="146" r="66"/>
<path fill="#f7ead0" d="M134,98 C118,86 112,63 122,45 C126,39 133,42 133,55 C133,70 133,86 134,98 Z"/>
<path fill="#f7ead0" d="M226,98 C242,86 248,63 238,45 C234,39 227,42 227,55 C227,70 227,86 226,98 Z"/>
<ellipse fill="#f7ead0" cx="180" cy="180" rx="46" ry="36"/>
<ellipse fill="#f5b9a0" cx="138" cy="178" rx="10" ry="7"/>
<ellipse fill="#f5b9a0" cx="222" cy="178" rx="10" ry="7"/>
<ellipse fill="#241d30" cx="151" cy="150" rx="11" ry="15"/>
<ellipse fill="#241d30" cx="209" cy="150" rx="11" ry="15"/>
<circle fill="#ffffff" stroke="none" cx="147" cy="144" r="3"/>
<circle fill="#ffffff" stroke="none" cx="205" cy="144" r="3"/>
<ellipse fill="#241d30" cx="180" cy="176" rx="7" ry="5"/>
<path fill="#e0435a" d="M138,206 C155,198 205,198 222,206 C222,216 205,222 180,222 C155,222 138,216 138,206 Z"/>
<path fill="#e0435a" d="M164,214 C158,224 150,240 154,252 C158,244 168,232 174,222 Z"/>
<path fill="#e0435a" d="M196,214 C202,224 210,240 206,252 C202,244 192,232 186,222 Z"/>
</g>
</svg>
