<svg xmlns="http://www.w3.org/2000/svg" viewBox="0 0 360 360">
<ellipse cx="180" cy="335" rx="95" ry="12" fill="#2d263c" opacity="0.15"/>
<path d="M180,58 C225,55 270,75 292,115 C312,150 318,200 300,245 C285,280 250,300 205,298 C185,297 165,300 145,296 C105,290 78,255 72,205 C67,160 85,105 125,78 C142,66 160,60 180,58 Z" fill="#b89b7a" stroke="#2d263c" stroke-width="8" stroke-linejoin="round"/>
<ellipse cx="180" cy="272" rx="66" ry="38" fill="#7d6449" opacity="0.7"/>
<ellipse cx="228" cy="100" rx="45" ry="30" fill="#c9ad8c" opacity="0.6"/>
<path d="M120,90 C140,130 130,180 150,220" stroke="#6b5636" stroke-width="5" fill="none" stroke-linecap="round"/>
<path d="M232,80 C247,120 237,170 252,210" stroke="#6b5636" stroke-width="5" fill="none" stroke-linecap="round"/>
<path d="M160,272 C180,262 200,267 220,257" stroke="#6b5636" stroke-width="5" fill="none" stroke-linecap="round"/>
<ellipse cx="128" cy="300" rx="24" ry="34" fill="#f0918a" stroke="#2d263c" stroke-width="7"/>
<ellipse cx="232" cy="300" rx="24" ry="34" fill="#f0918a" stroke="#2d263c" stroke-width="7"/>
<ellipse cx="122" cy="330" rx="15" ry="11" fill="#d9695f" stroke="#2d263c" stroke-width="6"/>
<ellipse cx="238" cy="330" rx="15" ry="11" fill="#d9695f" stroke="#2d263c" stroke-width="6"/>
<ellipse cx="180" cy="272" rx="70" ry="48" fill="#f4a89a" stroke="#2d263c" stroke-width="8"/>
<circle cx="135" cy="285" r="10" fill="#f7c9c0" opacity="0.6"/>
<circle cx="225" cy="285" r="10" fill="#f7c9c0" opacity="0.6"/>
<circle cx="155" cy="262" r="13" fill="#2d263c"/>
<circle cx="205" cy="262" r="13" fill="#2d263c"/>
<circle cx="160" cy="257" r="4" fill="#ffffff"/>
<circle cx="210" cy="257" r="4" fill="#ffffff"/>
<path d="M160,300 Q180,312 200,300" stroke="#2d263c" stroke-width="6" fill="none" stroke-linecap="round"/>
</svg>
