<svg xmlns="http://www.w3.org/2000/svg" viewBox="0 0 360 360">

  <!-- 尻尾 -->
  <path d="M 195 270 C 210 285 230 300 250 295 C 265 290 270 275 255 265 C 245 258 235 260 225 255 Z" fill="#1a3a6e" stroke="#2d263c" stroke-width="7" stroke-linejoin="round" stroke-linecap="round"/>

  <!-- 左ひれ(後ろ) -->
  <path d="M 110 200 C 85 210 70 230 80 250 C 88 265 105 258 115 245 C 122 235 120 218 115 210 Z" fill="#1a3a6e" stroke="#2d263c" stroke-width="7" stroke-linejoin="round" stroke-linecap="round"/>

  <!-- 右ひれ(後ろ) -->
  <path d="M 235 195 C 262 205 278 228 268 248 C 260 262 243 255 238 240 C 233 228 234 212 235 195 Z" fill="#1a3a6e" stroke="#2d263c" stroke-width="7" stroke-linejoin="round" stroke-linecap="round"/>

  <!-- 体 -->
  <ellipse cx="178" cy="220" rx="75" ry="90" fill="#1a3a6e" stroke="#2d263c" stroke-width="8" stroke-linejoin="round"/>

  <!-- お腹(白い楕円) -->
  <ellipse cx="175" cy="230" rx="42" ry="55" fill="#f0f0e8" stroke="#2d263c" stroke-width="5" stroke-linejoin="round"/>

  <!-- 胸の星マーク -->
  <polygon points="175,195 179,208 193,208 182,216 186,230 175,222 164,230 168,216 157,208 171,208" fill="#f5c800" stroke="#2d263c" stroke-width="4" stroke-linejoin="round"/>

  <!-- 頭 -->
  <ellipse cx="175" cy="145" rx="68" ry="65" fill="#1a3a6e" stroke="#2d263c" stroke-width="8" stroke-linejoin="round"/>

  <!-- 頭頂部のひれ(マイティの特徴) -->
  <path d="M 155 90 C 160 65 168 45 175 38 C 182 45 190 65 195 90 C 188 85 182 80 175 83 C 168 80 162 85 155 90 Z" fill="#f0f0e8" stroke="#2d263c" stroke-width="7" stroke-linejoin="round" stroke-linecap="round"/>

  <!-- 顔の白いまだら(おでこ〜鼻先) -->
  <path d="M 148 130 C 155 115 165 108 175 110 C 185 108 195 115 202 130 C 198 138 188 143 175 143 C 162 143 152 138 148 130 Z" fill="#f0f0e8" stroke="#2d263c" stroke-width="5" stroke-linejoin="round"/>

  <!-- 左目 -->
  <ellipse cx="150" cy="148" rx="14" ry="13" fill="white" stroke="#2d263c" stroke-width="5"/>
  <ellipse cx="152" cy="149" rx="8" ry="9" fill="#1a1a1a"/>
  <circle cx="155" cy="146" r="3" fill="white"/>

  <!-- 右目 -->
  <ellipse cx="200" cy="148" rx="14" ry="13" fill="white" stroke="#2d263c" stroke-width="5"/>
  <ellipse cx="202" cy="149" rx="8" ry="9" fill="#1a1a1a"/>
  <circle cx="205" cy="146" r="3" fill="white"/>

  <!-- 眉毛(キリッと・自信満々) -->
  <path d="M 138 136 C 143 131 150 130 157 133" fill="none" stroke="#2d263c" stroke-width="6" stroke-linecap="round"/>
  <path d="M 193 133 C 200 130 207 131 212 136" fill="none" stroke="#2d263c" stroke-width="6" stroke-linecap="round"/>

  <!-- 口(えらそうな笑顔) -->
  <path d="M 158 168 C 165 178 185 178 192 168" fill="none" stroke="#2d263c" stroke-width="6" stroke-linecap="round"/>
  <!-- 口の端の笑みのくぼみ -->
  <line x1="158" y1="168" x2="156" y2="165" stroke="#2d263c" stroke-width="5" stroke-linecap="round"/>
  <line x1="192" y1="168" x2="194" y2="165" stroke="#2d263c" stroke-width="5" stroke-linecap="round"/>

  <!-- ほっぺの星(マイティ特有) -->
  <polygon points="135,162 138,170 146,170 140,175 143,183 135,178 127,183 130,175 124,170 132,170" fill="#f5c800" stroke="#2d263c" stroke-width="3.5" stroke-linejoin="round"/>
  <polygon points="215,162 218,170 226,170 220,175 223,183 215,178 207,183 210,175 204,170 212,170" fill="#f5c800" stroke="#2d263c" stroke-width="3.5" stroke-linejoin="round"/>

  <!-- 左腕 -->
  <path d="M 112 205 C 95 195 82 188 75 198 C 70 206 80 220 95 222 C 105 223 112 218 115 210 Z" fill="#1a3a6e" stroke="#2d263c" stroke-width="7" stroke-linejoin="round" stroke-linecap="round"/>

  <!-- 右腕 -->
  <path d="M 238 205 C 255 195 268 188 275 198 C 280 206 270 220 255 222 C 245 223 238 218 235 210 Z" fill="#1a3a6e" stroke="#2d263c" stroke-width="7" stroke-linejoin="round" stroke-linecap="round"/>

  <!-- 左足 -->
  <path d="M 148 298 C 140 310 138 325 148 330 C 158 333 165 320 162 305 C 160 298 153 295 148 298 Z" fill="#1a3a6e" stroke="#2d263c" stroke-width="7" stroke-linejoin="round" stroke-linecap="round"/>

  <!-- 右足 -->
  <path d="M 202 298 C 210 310 212 325 202 330 C 192 333 185 320 188 305 C 190 298 197 295 202 298 Z" fill="#1a3a6e" stroke="#2d263c" stroke-width="7" stroke-linejoin="round" stroke-linecap="round"/>

</svg>