<svg xmlns="http://www.w3.org/2000/svg" viewBox="0 0 360 360">
<g stroke="#2d263c" stroke-width="7" stroke-linejoin="round" stroke-linecap="round">
<path d="M150 258 Q108 288 86 330 Q118 336 140 300 Z" fill="#2f4a82"/>
<ellipse cx="185" cy="215" rx="42" ry="60" fill="#2f4a82"/>
<ellipse cx="185" cy="225" rx="22" ry="44" fill="#6fb6e6"/>
<path d="M168 270 Q165 310 182 313 Q192 314 190 278 Z" fill="#2f4a82"/>
<path d="M202 270 Q205 310 188 313 Q178 314 180 278 Z" fill="#2f4a82"/>
<path d="M150 185 Q118 215 130 252 Q146 256 150 226 Z" fill="#2f4a82"/>
<path d="M220 185 Q252 215 240 252 Q224 256 220 226 Z" fill="#2f4a82"/>
<ellipse cx="185" cy="125" rx="46" ry="44" fill="#2f4a82"/>
<path d="M185 82 Q174 58 185 48 Q196 58 185 82 Z" fill="#ffd23f"/>
<path d="M185 82 Q200 60 214 54 Q206 74 196 86 Z" fill="#ffd23f"/>
<ellipse cx="170" cy="125" rx="9" ry="11" fill="#ffffff"/>
<ellipse cx="200" cy="125" rx="9" ry="11" fill="#ffffff"/>
<circle cx="172" cy="127" r="5" fill="#2d263c"/>
<circle cx="202" cy="127" r="5" fill="#2d263c"/>
<path d="M177 148 Q185 154 193 148" fill="none"/>
</g>
</svg>