<svg xmlns="http://www.w3.org/2000/svg" viewBox="0 0 360 360">
<g fill="none" stroke="#2d263c" stroke-width="7" stroke-linejoin="round" stroke-linecap="round">
<path fill="#c08a52" d="M215,290 C270,282 305,235 298,175 C293,140 260,122 245,145 C238,158 248,190 228,235 C218,258 216,278 215,290 Z"/>
<ellipse fill="#f7ead0" cx="272" cy="155" rx="34" ry="38"/>
<ellipse fill="#f7ead0" cx="248" cy="108" rx="20" ry="22"/>
<path fill="#c08a52" d="M128,90 C95,75 78,35 98,25 C108,18 120,22 124,48 C128,72 136,92 144,104 Z"/>
<path fill="#c08a52" d="M232,90 C265,75 282,35 262,25 C252,18 240,22 236,48 C232,72 224,92 216,104 Z"/>
<path fill="#c08a52" d="M108,215 C78,255 76,300 112,326 C142,338 218,338 248,326 C284,300 282,255 252,215 C232,192 128,192 108,215 Z"/>
<ellipse fill="#c08a52" cx="140" cy="322" rx="26" ry="14"/>
<ellipse fill="#c08a52" cx="220" cy="322" rx="26" ry="14"/>
<ellipse fill="#f7ead0" cx="140" cy="328" rx="14" ry="7"/>
<ellipse fill="#f7ead0" cx="220" cy="328" rx="14" ry="7"/>
<path fill="#f7ead0" d="M95,225 C88,195 110,168 140,180 C150,184 155,170 172,172 C185,173 192,160 210,168 C222,173 222,190 235,195 C258,205 258,235 235,248 C210,262 150,262 120,250 C100,242 100,235 95,225 Z"/>
<ellipse fill="#f7ead0" cx="165" cy="170" rx="22" ry="16"/>
<circle fill="#f7ead0" cx="100" cy="230" r="14"/>
<circle fill="#f7ead0" cx="260" cy="230" r="14"/>
<circle fill="#c08a52" cx="180" cy="118" r="70"/>
<path fill="#c08a52" d="M165,58 C160,42 172,30 180,42 C188,30 200,42 195,58 C188,66 172,66 165,58 Z"/>
<path fill="#f7ead0" d="M124,86 C108,74 100,48 112,32 C118,25 126,29 126,45 C126,62 125,76 124,86 Z"/>
<path fill="#f7ead0" d="M236,86 C252,74 260,48 248,32 C242,25 234,29 234,45 C234,62 235,76 236,86 Z"/>
<ellipse fill="#f7ead0" cx="180" cy="155" rx="50" ry="40"/>
<ellipse fill="#f5b9a0" cx="136" cy="152" rx="11" ry="8"/>
<ellipse fill="#f5b9a0" cx="224" cy="152" rx="11" ry="8"/>
<ellipse fill="#241d30" cx="150" cy="122" rx="12" ry="17"/>
<ellipse fill="#241d30" cx="210" cy="122" rx="12" ry="17"/>
<circle fill="#ffffff" stroke="none" cx="146" cy="114" r="3.5"/>
<circle fill="#ffffff" stroke="none" cx="206" cy="114" r="3.5"/>
<ellipse fill="#241d30" cx="180" cy="150" rx="8" ry="6"/>
</g>
</svg>
