<svg xmlns="http://www.w3.org/2000/svg" viewBox="0 0 360 360">
<path d="M250 200 Q292 194 296 226 Q284 246 254 236 Z" fill="#c89060" stroke="#2d263c" stroke-width="7" stroke-linejoin="round"/>
<ellipse cx="180" cy="232" rx="76" ry="60" fill="#c89060" stroke="#2d263c" stroke-width="8" stroke-linejoin="round"/>
<rect x="150" y="266" width="20" height="52" rx="8" fill="#c89060" stroke="#2d263c" stroke-width="6"/>
<rect x="190" y="266" width="20" height="52" rx="8" fill="#c89060" stroke="#2d263c" stroke-width="6"/>
<rect x="144" y="242" width="82" height="16" rx="6" fill="#6bb5d5" stroke="#2d263c" stroke-width="5"/>
<circle cx="180" cy="156" r="56" fill="#c89060" stroke="#2d263c" stroke-width="8"/>
<path d="M144 108 Q122 78 140 74 Q162 86 158 116 Z" fill="#c89060" stroke="#2d263c" stroke-width="6" stroke-linejoin="round"/>
<path d="M216 108 Q238 78 220 74 Q198 86 202 116 Z" fill="#c89060" stroke="#2d263c" stroke-width="6" stroke-linejoin="round"/>
<path d="M152 100 Q138 84 150 80" fill="none" stroke="#a07040" stroke-width="5" stroke-linecap="round"/>
<path d="M208 100 Q222 84 210 80" fill="none" stroke="#a07040" stroke-width="5" stroke-linecap="round"/>
<ellipse cx="163" cy="152" rx="9" ry="11" fill="#2d263c"/>
<ellipse cx="197" cy="152" rx="9" ry="11" fill="#2d263c"/>
<circle cx="166" cy="148" r="3" fill="#ffffff"/>
<circle cx="200" cy="148" r="3" fill="#ffffff"/>
<path d="M172 178 Q180 188 188 178" fill="none" stroke="#2d263c" stroke-width="5" stroke-linecap="round"/>
<circle cx="180" cy="180" r="5" fill="#2d263c"/>
</svg>