<svg xmlns="http://www.w3.org/2000/svg" viewBox="0 0 360 360">
  <!-- 翼(後ろ・左右に大きく広げる) -->
  <path d="M178 178 C120 150 55 150 28 205 C60 222 100 220 140 212 C160 208 175 200 182 195 Z" fill="#4a3a4a" stroke="#2d263c" stroke-width="7" stroke-linejoin="round" stroke-linecap="round"/>
  <path d="M182 178 C240 150 305 150 332 205 C300 222 260 220 220 212 C200 208 185 200 178 195 Z" fill="#4a3a4a" stroke="#2d263c" stroke-width="7" stroke-linejoin="round" stroke-linecap="round"/>
  <!-- 翼の裏側(赤) -->
  <path d="M150 190 C110 180 70 188 50 210 C82 215 112 212 142 204 Z" fill="#b03838" stroke="#2d263c" stroke-width="5" stroke-linejoin="round"/>
  <path d="M210 190 C250 180 290 188 310 210 C278 215 248 212 218 204 Z" fill="#b03838" stroke="#2d263c" stroke-width="5" stroke-linejoin="round"/>

  <!-- 尾(扇状の羽) -->
  <path d="M150 285 L118 332 L166 300 Z" fill="#4a3a4a" stroke="#2d263c" stroke-width="6" stroke-linejoin="round"/>
  <path d="M210 285 L242 332 L194 300 Z" fill="#4a3a4a" stroke="#2d263c" stroke-width="6" stroke-linejoin="round"/>
  <path d="M180 292 L180 336 L195 305 L165 305 Z" fill="#b03838" stroke="#2d263c" stroke-width="6" stroke-linejoin="round"/>

  <!-- 体 -->
  <path d="M180 150 C222 150 236 205 226 252 C218 286 142 286 134 252 C124 205 138 150 180 150 Z" fill="#4a3a4a" stroke="#2d263c" stroke-width="8" stroke-linejoin="round"/>

  <!-- 胸(赤) -->
  <path d="M180 168 C204 168 214 208 207 246 C195 270 165 270 153 246 C146 208 156 168 180 168 Z" fill="#b03838" stroke="#2d263c" stroke-width="6" stroke-linejoin="round"/>

  <!-- 頭 -->
  <circle cx="180" cy="128" r="52" fill="#4a3a4a" stroke="#2d263c" stroke-width="8"/>

  <!-- ツノの飾り(Y字) -->
  <path d="M158 92 L128 46 L168 86 Z" fill="#3a2d40" stroke="#2d263c" stroke-width="6" stroke-linejoin="round"/>
  <path d="M202 92 L232 46 L192 86 Z" fill="#3a2d40" stroke="#2d263c" stroke-width="6" stroke-linejoin="round"/>
  <path d="M174 84 L180 48 L186 84 Z" fill="#b03838" stroke="#2d263c" stroke-width="6" stroke-linejoin="round"/>

  <!-- くちばし -->
  <path d="M167 142 L196 146 L178 166 Z" fill="#d9b65a" stroke="#2d263c" stroke-width="6" stroke-linejoin="round"/>

  <!-- 目 -->
  <circle cx="160" cy="124" r="9" fill="#e8443a" stroke="#2d263c" stroke-width="4"/>
  <circle cx="200" cy="124" r="9" fill="#e8443a" stroke="#2d263c" stroke-width="4"/>
</svg>
