<svg xmlns="http://www.w3.org/2000/svg" viewBox="0 0 360 360">

  <!-- しっぽ -->
  <path d="M260,230 Q300,220 308,190 Q296,214 264,222 Z"
        fill="#8a2f4a" stroke="#2d263c" stroke-width="6" stroke-linejoin="round"/>

  <!-- 左後ろ足 -->
  <path d="M138,268 Q130,300 132,326 Q152,332 166,324 Q162,296 160,266 Z"
        fill="#f2ede0" stroke="#2d263c" stroke-width="7" stroke-linejoin="round"/>
  <ellipse cx="149" cy="330" rx="20" ry="11" fill="#f2ede0" stroke="#2d263c" stroke-width="7"/>

  <!-- 右後ろ足 -->
  <path d="M222,268 Q230,300 228,326 Q208,332 194,324 Q198,296 200,266 Z"
        fill="#f2ede0" stroke="#2d263c" stroke-width="7" stroke-linejoin="round"/>
  <ellipse cx="211" cy="330" rx="20" ry="11" fill="#f2ede0" stroke="#2d263c" stroke-width="7"/>

  <!-- 胴体 -->
  <path d="M128,170 Q180,150 232,170 Q248,215 232,262 Q180,282 128,262 Q112,215 128,170 Z"
        fill="#f2ede0" stroke="#2d263c" stroke-width="8" stroke-linejoin="round"/>

  <!-- 左前足（上げポーズ） -->
  <path d="M116,196 Q78,182 62,150 Q56,132 68,124 Q80,132 86,152 Q98,178 128,190 Z"
        fill="#f2ede0" stroke="#2d263c" stroke-width="7" stroke-linejoin="round"/>
  <ellipse cx="66" cy="122" rx="20" ry="18" fill="#f2ede0" stroke="#2d263c" stroke-width="7"/>
  <!-- 肉球 -->
  <ellipse cx="61" cy="118" rx="4" ry="4" fill="#c9847a"/>
  <ellipse cx="70" cy="114" rx="4" ry="4" fill="#c9847a"/>
  <ellipse cx="74" cy="124" rx="4" ry="4" fill="#c9847a"/>

  <!-- 右前足（地面） -->
  <path d="M238,218 Q262,232 268,262 Q252,272 236,266 Q234,242 224,222 Z"
        fill="#f2ede0" stroke="#2d263c" stroke-width="7" stroke-linejoin="round"/>
  <ellipse cx="252" cy="268" rx="20" ry="13" fill="#f2ede0" stroke="#2d263c" stroke-width="7"/>

  <!-- もこもこ襟巻き（紫）-->
  <path d="M118,168 Q104,150 116,132 Q108,150 128,152 Q120,132 138,120 Q128,140 152,140
           Q198,150 208,140 Q232,140 222,120 Q240,132 232,152 Q252,150 244,132
           Q256,150 242,168 Q244,192 220,198 Q180,208 140,198 Q116,192 118,168 Z"
        fill="#8a2f4a" stroke="#2d263c" stroke-width="8" stroke-linejoin="round"/>

  <!-- 頭 -->
  <ellipse cx="180" cy="108" rx="58" ry="52" fill="#f2ede0" stroke="#2d263c" stroke-width="8" stroke-linejoin="round"/>

  <!-- 顔まわりのマスク模様（濃い赤紫） -->
  <path d="M132,96 Q140,72 168,66 Q160,88 158,108 Q140,116 132,96 Z"
        fill="#8a2f4a" stroke="#2d263c" stroke-width="6" stroke-linejoin="round"/>
  <path d="M228,96 Q220,72 192,66 Q200,88 202,108 Q220,116 228,96 Z"
        fill="#8a2f4a" stroke="#2d263c" stroke-width="6" stroke-linejoin="round"/>

  <!-- 耳 -->
  <path d="M138,72 Q120,42 140,28 Q158,48 156,78 Z"
        fill="#8a2f4a" stroke="#2d263c" stroke-width="6" stroke-linejoin="round"/>
  <path d="M222,72 Q240,42 220,28 Q202,48 204,78 Z"
        fill="#8a2f4a" stroke="#2d263c" stroke-width="6" stroke-linejoin="round"/>

  <!-- 太いまゆげ -->
  <path d="M148,86 Q160,76 174,84" stroke="#2d263c" stroke-width="7" fill="none" stroke-linecap="round"/>
  <path d="M212,86 Q200,76 186,84" stroke="#2d263c" stroke-width="7" fill="none" stroke-linecap="round"/>

  <!-- 目（赤） -->
  <ellipse cx="160" cy="104" rx="11" ry="12" fill="white" stroke="#2d263c" stroke-width="5"/>
  <ellipse cx="162" cy="106" rx="6" ry="7" fill="#c8342a"/>
  <ellipse cx="200" cy="104" rx="11" ry="12" fill="white" stroke="#2d263c" stroke-width="5"/>
  <ellipse cx="198" cy="106" rx="6" ry="7" fill="#c8342a"/>

  <!-- 鼻 -->
  <ellipse cx="180" cy="124" rx="8" ry="6" fill="#2d263c"/>

  <!-- ベロ（右下に垂れる） -->
  <path d="M198,140 Q222,152 218,178 Q206,186 196,176 Q192,156 190,142 Z"
        fill="#e17a92" stroke="#2d263c" stroke-width="6" stroke-linejoin="round"/>
  <path d="M200,158 Q208,164 206,172" stroke="#2d263c" stroke-width="3" fill="none" stroke-linecap="round"/>

  <!-- にっこり口（左） -->
  <path d="M158,136 Q170,150 178,142" stroke="#2d263c" stroke-width="6" fill="none" stroke-linecap="round"/>

</svg>
