<svg xmlns="http://www.w3.org/2000/svg" viewBox="0 0 360 360">
<line x1="100" y1="258" x2="90" y2="290" stroke="#2d263c" stroke-width="7" stroke-linecap="round"/>
<line x1="130" y1="258" x2="140" y2="290" stroke="#2d263c" stroke-width="7" stroke-linecap="round"/>
<line x1="133" y1="246" x2="120" y2="280" stroke="#2d263c" stroke-width="7" stroke-linecap="round"/>
<line x1="167" y1="246" x2="178" y2="280" stroke="#2d263c" stroke-width="7" stroke-linecap="round"/>
<line x1="170" y1="238" x2="155" y2="272" stroke="#2d263c" stroke-width="7" stroke-linecap="round"/>
<line x1="206" y1="238" x2="220" y2="272" stroke="#2d263c" stroke-width="7" stroke-linecap="round"/>
<path d="M45,282 Q33,300 46,315 Q58,302 45,282 Z" fill="#E8432C" stroke="#2d263c" stroke-width="6" stroke-linejoin="round"/>
<circle cx="60" cy="270" r="16" fill="#F5931E" stroke="#2d263c" stroke-width="7"/>
<circle cx="85" cy="250" r="22" fill="#F5931E" stroke="#2d263c" stroke-width="7"/>
<circle cx="115" cy="232" r="27" fill="#F5931E" stroke="#2d263c" stroke-width="7"/>
<circle cx="150" cy="218" r="31" fill="#F5931E" stroke="#2d263c" stroke-width="7"/>
<circle cx="188" cy="208" r="34" fill="#F5931E" stroke="#2d263c" stroke-width="7"/>
<circle cx="228" cy="202" r="36" fill="#F5931E" stroke="#2d263c" stroke-width="8"/>
<ellipse cx="73" cy="253" rx="6" ry="19" fill="#2d263c"/>
<ellipse cx="101" cy="236" rx="7.6" ry="23" fill="#2d263c"/>
<ellipse cx="134" cy="223" rx="8.7" ry="26.4" fill="#2d263c"/>
<ellipse cx="171" cy="213" rx="9.5" ry="29" fill="#2d263c"/>
<ellipse cx="210" cy="207" rx="10" ry="30.6" fill="#2d263c"/>
<circle cx="272" cy="196" r="44" fill="#F5931E" stroke="#2d263c" stroke-width="8"/>
<path d="M250,158 Q238,125 253,100 Q266,128 258,158 Z" fill="#E8432C" stroke="#2d263c" stroke-width="6" stroke-linejoin="round"/>
<path d="M290,158 Q278,125 293,100 Q306,128 298,158 Z" fill="#E8432C" stroke="#2d263c" stroke-width="6" stroke-linejoin="round"/>
<ellipse cx="255" cy="188" rx="11" ry="13" fill="#ffffff" stroke="#2d263c" stroke-width="4"/>
<circle cx="256" cy="191" r="5.5" fill="#2d263c"/>
<circle cx="253" cy="187" r="2" fill="#ffffff"/>
<ellipse cx="292" cy="188" rx="11" ry="13" fill="#ffffff" stroke="#2d263c" stroke-width="4"/>
<circle cx="293" cy="191" r="5.5" fill="#2d263c"/>
<circle cx="290" cy="187" r="2" fill="#ffffff"/>
<path d="M258,220 Q272,230 286,220" fill="none" stroke="#2d263c" stroke-width="6" stroke-linecap="round"/>
</svg>
