<svg xmlns="http://www.w3.org/2000/svg" viewBox="0 0 360 360">
<g stroke="#2d263c" stroke-width="7" stroke-linejoin="round" stroke-linecap="round">
<ellipse cx="180" cy="216" rx="86" ry="56" fill="#3a6db5"/>
<path d="M100 202 Q100 110 180 110 Q260 110 260 202 Z" fill="#c8403a"/>
<path d="M180 110 L180 202" fill="none"/>
<circle cx="180" cy="150" r="14" fill="#2d263c"/>
<circle cx="180" cy="150" r="5" fill="#c8403a"/>
<path d="M146 174 Q152 196 166 202" fill="none"/>
<path d="M214 174 Q208 196 194 202" fill="none"/>
<ellipse cx="150" cy="226" rx="14" ry="16" fill="#ffffff"/>
<ellipse cx="210" cy="226" rx="14" ry="16" fill="#ffffff"/>
<circle cx="152" cy="228" r="7" fill="#2d263c"/>
<circle cx="212" cy="228" r="7" fill="#2d263c"/>
<path d="M160 110 Q150 84 158 70" fill="none"/>
<path d="M200 110 Q210 84 202 70" fill="none"/>
<circle cx="158" cy="68" r="6" fill="#2d263c"/>
<circle cx="202" cy="68" r="6" fill="#2d263c"/>
<path d="M100 230 L86 252 M116 246 L104 266" fill="none"/>
<path d="M260 230 L274 252 M244 246 L256 266" fill="none"/>
</g>
</svg>