<svg xmlns="http://www.w3.org/2000/svg" viewBox="0 0 360 360">
<g stroke="#2d263c" stroke-width="7" stroke-linejoin="round" stroke-linecap="round">
<ellipse cx="180" cy="195" rx="155" ry="96" fill="#232a52"/>
<path d="M25 195 Q180 260 335 195 Q328 248 180 266 Q32 248 25 195 Z" fill="#171c3a"/>
<ellipse cx="180" cy="268" rx="118" ry="24" fill="#e7e2d2"/>
<circle cx="112" cy="185" r="44" fill="#f4d54a"/>
<circle cx="112" cy="185" r="25" fill="#1a1e3c"/>
<circle cx="112" cy="185" r="9" fill="#c8403a"/>
<circle cx="248" cy="185" r="44" fill="#f4d54a"/>
<circle cx="248" cy="185" r="25" fill="#1a1e3c"/>
<circle cx="248" cy="185" r="9" fill="#c8403a"/>
<path d="M150 100 Q140 62 150 34" fill="none"/>
<path d="M210 100 Q220 62 210 34" fill="none"/>
<circle cx="150" cy="30" r="10" fill="#c8403a"/>
<circle cx="210" cy="30" r="10" fill="#c8403a"/>
<path d="M70 248 q-14 20 -4 40" fill="none" stroke-width="6"/>
<path d="M290 248 q14 20 4 40" fill="none" stroke-width="6"/>
<ellipse cx="70" cy="290" rx="12" ry="8" fill="#1a1e3c"/>
<ellipse cx="290" cy="290" rx="12" ry="8" fill="#1a1e3c"/>
<circle cx="180" cy="150" r="10" fill="#3a6db5"/>
<circle cx="140" cy="228" r="7" fill="#3a6db5"/>
<circle cx="220" cy="228" r="7" fill="#3a6db5"/>
</g>
</svg>
