<svg xmlns="http://www.w3.org/2000/svg" viewBox="0 0 360 360">
<ellipse cx="180" cy="332" rx="92" ry="14" fill="#00000022"/>
<path d="M215 275 Q265 270 280 305 Q288 325 260 328 Q235 328 225 305 Q218 290 215 275 Z" fill="#24466f" stroke="#2d263c" stroke-width="7" stroke-linejoin="round" stroke-linecap="round"/>
<circle cx="268" cy="308" r="16" fill="#6fb6e6" stroke="#2d263c" stroke-width="6"/>
<path d="M138 288 Q120 296 116 320 Q114 334 142 332 Q158 328 152 298 Q148 288 138 288 Z" fill="#24466f" stroke="#2d263c" stroke-width="7" stroke-linejoin="round" stroke-linecap="round"/>
<path d="M222 288 Q240 296 244 320 Q246 334 218 332 Q202 328 208 298 Q212 288 222 288 Z" fill="#24466f" stroke="#2d263c" stroke-width="7" stroke-linejoin="round" stroke-linecap="round"/>
<path d="M132 292 Q120 210 132 140 Q142 108 180 106 Q218 108 228 140 Q240 210 228 292 Q228 308 180 308 Q132 308 132 292 Z" fill="#24466f" stroke="#2d263c" stroke-width="8" stroke-linejoin="round" stroke-linecap="round"/>
<path d="M145 165 Q135 150 150 138 Q168 130 178 145 Q182 160 165 168 Q152 172 145 165 Z" fill="#4f8fc4" stroke="#2d263c" stroke-width="6" stroke-linejoin="round"/>
<path d="M205 255 Q198 240 212 230 Q228 224 236 240 Q240 256 222 262 Q210 264 205 255 Z" fill="#4f8fc4" stroke="#2d263c" stroke-width="6" stroke-linejoin="round"/>
<path d="M200 175 Q195 162 208 155 Q222 152 226 166 Q228 178 214 182 Q204 183 200 175 Z" fill="#eef3f6" stroke="#2d263c" stroke-width="6" stroke-linejoin="round"/>
<path d="M158 215 Q150 250 160 285 Q168 300 180 300 Q192 300 200 285 Q210 250 202 215 Q196 205 180 204 Q164 205 158 215 Z" fill="#eef3f6" stroke="#2d263c" stroke-width="6" stroke-linejoin="round"/>
<circle cx="180" cy="195" r="30" fill="#cfe8fa" stroke="#2d263c" stroke-width="6"/>
<circle cx="180" cy="195" r="18" fill="#ffffff" stroke="#2d263c" stroke-width="6"/>
<circle cx="180" cy="195" r="7" fill="#24466f"/>
<path d="M132 155 Q100 165 92 200 Q88 218 105 222 Q120 224 126 205 Q136 178 140 158 Z" fill="#24466f" stroke="#2d263c" stroke-width="7" stroke-linejoin="round" stroke-linecap="round"/>
<ellipse cx="100" cy="215" rx="16" ry="13" fill="#4f8fc4" stroke="#2d263c" stroke-width="6"/>
<path d="M228 150 Q265 140 285 120 Q300 108 310 95 Q316 88 308 82 Q298 78 288 90 Q270 108 250 128 Q235 140 222 152 Z" fill="#24466f" stroke="#2d263c" stroke-width="7" stroke-linejoin="round" stroke-linecap="round"/>
<path d="M300 92 Q312 82 320 88 Q314 100 302 100 Z" fill="#ffd23f" stroke="#2d263c" stroke-width="6" stroke-linejoin="round"/>
<ellipse cx="180" cy="82" rx="46" ry="40" fill="#24466f" stroke="#2d263c" stroke-width="8"/>
<path d="M150 48 Q145 25 158 15 Q165 30 160 52 Z" fill="#6fb6e6" stroke="#2d263c" stroke-width="6" stroke-linejoin="round"/>
<path d="M172 40 Q168 15 180 6 Q192 15 188 40 Z" fill="#6fb6e6" stroke="#2d263c" stroke-width="6" stroke-linejoin="round"/>
<path d="M200 52 Q195 30 202 15 Q215 25 210 48 Z" fill="#6fb6e6" stroke="#2d263c" stroke-width="6" stroke-linejoin="round"/>
<path d="M148 72 Q148 92 158 92 L202 92 Q212 92 212 72 Q212 62 202 62 L158 62 Q148 62 148 72 Z" fill="#e0503c" stroke="#2d263c" stroke-width="6" stroke-linejoin="round"/>
<ellipse cx="163" cy="82" rx="9" ry="10" fill="#ffffff" stroke="#2d263c" stroke-width="6"/>
<ellipse cx="197" cy="82" rx="9" ry="10" fill="#ffffff" stroke="#2d263c" stroke-width="6"/>
<circle cx="165" cy="84" r="4" fill="#2d263c"/>
<circle cx="195" cy="84" r="4" fill="#2d263c"/>
<path d="M168 108 Q180 116 192 108" fill="none" stroke="#2d263c" stroke-width="6" stroke-linecap="round"/>
</svg>
