<svg xmlns="http://www.w3.org/2000/svg" viewBox="0 0 360 360"><g stroke="#2d263c" stroke-width="7" stroke-linejoin="round" stroke-linecap="round"><path d="M138,196 Q118,226 108,260 Q104,286 132,306 Q152,314 176,314 Q200,314 220,306 Q248,286 244,260 Q234,226 214,196 Q196,206 176,206 Q156,206 138,196 Z" fill="#f9d31d"/><path d="M152,222 Q132,226 122,242 Q116,256 128,266 Q142,274 156,262 Q166,250 162,238 Q158,228 152,222 Z" fill="#f9d31d"/><path d="M200,222 Q220,226 230,242 Q236,256 224,266 Q210,274 196,262 Q186,250 190,238 Q194,228 200,222 Z" fill="#f9d31d"/><path d="M146,312 Q124,310 108,316 Q100,322 106,328 Q116,334 134,330 Q150,326 152,318 Q150,312 146,312 Z" fill="#f9d31d"/><path d="M206,312 Q228,310 244,316 Q252,322 246,328 Q236,334 218,330 Q202,326 200,318 Q202,312 206,312 Z" fill="#f9d31d"/><path d="M150,100 Q112,80 92,48 Q86,36 96,40 Q136,58 172,88 Q160,96 150,100 Z" fill="#f9d31d"/><path d="M92,48 Q86,36 96,40 Q112,50 128,64 Q118,74 104,66 Q94,58 92,48 Z" fill="#2d263c" stroke="none"/><path d="M202,100 Q240,80 260,48 Q266,36 256,40 Q216,58 180,88 Q192,96 202,100 Z" fill="#f9d31d"/><path d="M260,48 Q266,36 256,40 Q240,50 224,64 Q234,74 248,66 Q258,58 260,48 Z" fill="#2d263c" stroke="none"/><path d="M228,230 L268,218 L254,192 L286,180 L272,152 L300,140 L280,70 L252,86 L262,128 L234,142 L246,168 L216,182 L228,206 L204,220 Z" fill="#f9d31d"/><path d="M228,230 L204,220 L216,182 L246,200 Z" fill="#8a5a2b"/><path d="M100,150 Q100,108 132,84 Q152,68 176,68 Q200,68 220,84 Q252,108 252,150 Q252,176 236,196 Q210,208 176,208 Q142,208 116,196 Q100,176 100,150 Z" fill="#f9d31d"/><path d="M132,120 Q128,78 176,72 Q224,78 220,120 Q220,132 176,136 Q132,132 132,120 Z" fill="#26375c"/><path d="M136,124 Q176,140 216,124 Q210,136 176,142 Q142,136 136,124 Z" fill="#141d33"/><path d="M136,100 Q176,88 216,100 Q176,110 136,100 Z" fill="#5aa9e6"/><circle cx="176" cy="76" r="7" fill="#26375c"/><circle cx="176" cy="108" r="9" fill="#ffffff"/><circle cx="176" cy="108" r="4" fill="#2d6fb0" stroke="none"/><circle cx="132" cy="180" r="18" fill="#e23d2d"/><circle cx="220" cy="180" r="18" fill="#e23d2d"/><circle cx="152" cy="150" r="11" fill="#2d263c" stroke="none"/><circle cx="200" cy="150" r="11" fill="#2d263c" stroke="none"/><circle cx="148" cy="146" r="4" fill="#ffffff" stroke="none"/><circle cx="196" cy="146" r="4" fill="#ffffff" stroke="none"/><path d="M173,164 L179,164 L176,168 Z" fill="#2d263c" stroke="none"/><path d="M152,172 Q164,183 176,174 Q188,183 200,172 Q196,200 176,201 Q156,200 152,172 Z" fill="#7a3226" stroke-width="5"/><path d="M164,192 Q176,184 188,192 Q185,201 176,201 Q167,201 164,192 Z" fill="#f4929c" stroke="none"/></g></svg>