<svg xmlns="http://www.w3.org/2000/svg" viewBox="0 0 360 360">
  <path d="M225 195 L258 145 L252 178 L295 118 L280 168 L328 138 L302 188 L336 180 L308 218 L332 248 L292 228 L302 262 L258 232 L248 256 L225 212 Z" fill="#c0392b" stroke="#2d263c" stroke-width="7" stroke-linejoin="round" stroke-linecap="round"/>
  <path d="M232 190 L255 160 L251 180 L282 142 L273 172 L302 156 L286 188 L306 182 L288 205 L302 224 L278 213 L282 232 L260 213 L253 228 L232 205 Z" fill="#ff8a50" stroke="#2d263c" stroke-width="6" stroke-linejoin="round" stroke-linecap="round"/>
  <path d="M172 150 L186 108 L200 154 Z" fill="#ff8a50" stroke="#2d263c" stroke-width="7" stroke-linejoin="round" stroke-linecap="round"/>
  <path d="M95 148 L84 112 L107 142 Z" fill="#ff8a50" stroke="#2d263c" stroke-width="7" stroke-linejoin="round" stroke-linecap="round"/>
  <path d="M132 143 L143 106 L152 146 Z" fill="#ff8a50" stroke="#2d263c" stroke-width="7" stroke-linejoin="round" stroke-linecap="round"/>
  <ellipse cx="150" cy="205" rx="66" ry="56" fill="#f3e0c4" stroke="#2d263c" stroke-width="8" stroke-linejoin="round"/>
  <path d="M86 200 A66 56 0 0 1 214 200 L200 216 Q150 230 100 216 Z" fill="#5a2030" stroke="#2d263c" stroke-width="7" stroke-linejoin="round" stroke-linecap="round"/>
  <path d="M118 252 L98 288 L140 266 Z" fill="#ff8a50" stroke="#2d263c" stroke-width="7" stroke-linejoin="round" stroke-linecap="round"/>
  <circle cx="116" cy="188" r="17" fill="#f9f2e2" stroke="#2d263c" stroke-width="7"/>
  <circle cx="119" cy="191" r="7" fill="#231a24" stroke="#2d263c" stroke-width="2"/>
  <circle cx="151" cy="184" r="15" fill="#f9f2e2" stroke="#2d263c" stroke-width="7"/>
  <circle cx="154" cy="187" r="7" fill="#231a24" stroke="#2d263c" stroke-width="2"/>
  <path d="M128 216 Q145 226 162 216" fill="none" stroke="#2d263c" stroke-width="6" stroke-linecap="round"/>
  <ellipse cx="98" cy="158" rx="6" ry="4" fill="#3a1520" stroke="#2d263c" stroke-width="3"/>
  <ellipse cx="192" cy="152" rx="6" ry="4" fill="#3a1520" stroke="#2d263c" stroke-width="3"/>
  <ellipse cx="163" cy="205" rx="5" ry="3.5" fill="#3a1520" stroke="#2d263c" stroke-width="3"/>
</svg>
