<svg xmlns="http://www.w3.org/2000/svg" viewBox="0 0 360 360">
  <!-- 足 左 -->
  <path d="M150 300 L150 330 M150 330 Q138 338 130 332 M150 330 Q162 338 170 332" fill="none" stroke="#E8A030" stroke-width="7" stroke-linecap="round"/>
  <!-- 足 右 -->
  <path d="M210 300 L210 330 M210 330 Q198 338 190 332 M210 330 Q222 338 230 332" fill="none" stroke="#E8A030" stroke-width="7" stroke-linecap="round"/>
  <!-- 体 -->
  <ellipse cx="180" cy="248" rx="78" ry="72" fill="#4A86C0" stroke="#2d263c" stroke-width="8" stroke-linejoin="round"/>
  <!-- 腹(白) -->
  <ellipse cx="180" cy="262" rx="46" ry="52" fill="#F2F4F8" stroke="#2d263c" stroke-width="6" stroke-linejoin="round"/>
  <!-- 翼 -->
  <path d="M112 232 Q96 268 120 300 Q150 296 152 260 Q150 236 112 232Z" fill="#3A6FA8" stroke="#2d263c" stroke-width="7" stroke-linejoin="round"/>
  <path d="M120 252 Q132 272 138 292" fill="none" stroke="#2C5A86" stroke-width="5" stroke-linecap="round"/>
  <!-- 首/頭つなぎ -->
  <path d="M170 196 Q158 150 188 122 Q214 110 222 138 Q224 168 210 196 Z" fill="#4A86C0" stroke="#2d263c" stroke-width="8" stroke-linejoin="round"/>
  <!-- 頭 -->
  <ellipse cx="206" cy="120" rx="40" ry="38" fill="#5A96CC" stroke="#2d263c" stroke-width="8" stroke-linejoin="round"/>
  <!-- くちばし -->
  <path d="M240 116 Q266 120 262 134 Q250 142 236 132 Z" fill="#F2C032" stroke="#2d263c" stroke-width="6" stroke-linejoin="round"/>
  <!-- 目 -->
  <ellipse cx="214" cy="112" rx="16" ry="18" fill="#3FAE5A" stroke="#2d263c" stroke-width="6"/>
  <ellipse cx="216" cy="115" rx="6" ry="9" fill="#241f2e"/>
  <circle cx="212" cy="108" r="3" fill="#ffffff"/>
  <!-- 頬白 -->
  <path d="M188 132 Q206 142 224 132" fill="none" stroke="#F2F4F8" stroke-width="10" stroke-linecap="round"/>
</svg>
