<svg xmlns="http://www.w3.org/2000/svg" viewBox="0 0 360 360">
  <ellipse cx="180" cy="255" rx="20" ry="8" fill="#3a2f22" opacity="0.18"/>
  <path d="M78 235 L60 300 Q58 310 70 312 L88 312 Q96 312 96 302 L96 240 Z" fill="#c8471f" stroke="#2d263c" stroke-width="7" stroke-linejoin="round"/>
  <path d="M282 235 L300 300 Q302 310 290 312 L272 312 Q264 312 264 302 L264 240 Z" fill="#c8471f" stroke="#2d263c" stroke-width="7" stroke-linejoin="round"/>
  <path d="M120 245 L108 300 Q106 310 118 312 L134 312 Q142 312 141 302 L136 248 Z" fill="#a83415" stroke="#2d263c" stroke-width="7" stroke-linejoin="round"/>
  <path d="M240 245 L252 300 Q254 310 242 312 L226 312 Q218 312 219 302 L224 248 Z" fill="#a83415" stroke="#2d263c" stroke-width="7" stroke-linejoin="round"/>
  <ellipse cx="180" cy="215" rx="100" ry="58" fill="#e8622a" stroke="#2d263c" stroke-width="8" stroke-linejoin="round"/>
  <path d="M110 235 Q180 265 250 235 Q245 258 180 262 Q115 258 110 235 Z" fill="#f3c477" stroke="#2d263c" stroke-width="6" stroke-linejoin="round"/>
  <path d="M255 180 Q305 170 310 200 Q290 200 268 205 Z" fill="#c8471f" stroke="#2d263c" stroke-width="7" stroke-linejoin="round"/>
  <path d="M300 190 Q335 180 345 165 Q332 200 305 210 Z" fill="#ffb238" stroke="#2d263c" stroke-width="6" stroke-linejoin="round"/>
  <path d="M300 205 Q325 205 335 225 Q312 222 295 222 Z" fill="#ff5a3c" stroke="#2d263c" stroke-width="6" stroke-linejoin="round"/>
  <path d="M120 172 Q100 130 118 90 Q150 70 165 105 Q178 135 150 168 Z" fill="#2a2430" stroke="#2d263c" stroke-width="7" stroke-linejoin="round"/>
  <path d="M175 178 Q150 140 158 100 Q172 78 190 100 Q198 135 195 178 Z" fill="#2a2430" stroke="#2d263c" stroke-width="7" stroke-linejoin="round"/>
  <path d="M110 195 Q95 160 108 128 Q126 108 138 132 Q140 165 132 200 Z" fill="#e8622a" stroke="#2d263c" stroke-width="8" stroke-linejoin="round"/>
  <path d="M108 130 Q116 100 138 96 Q148 118 138 140 Z" fill="#c8471f" stroke="#2d263c" stroke-width="6" stroke-linejoin="round"/>
  <ellipse cx="112" cy="98" rx="30" ry="26" fill="#e8622a" stroke="#2d263c" stroke-width="8"/>
  <path d="M96 82 Q80 55 96 40 Q116 48 112 78 Z" fill="#c8471f" stroke="#2d263c" stroke-width="6" stroke-linejoin="round"/>
  <path d="M132 78 Q140 45 158 42 Q160 68 140 90 Z" fill="#a83415" stroke="#2d263c" stroke-width="6" stroke-linejoin="round"/>
  <circle cx="120" cy="60" r="9" fill="#ff2f2f" stroke="#2d263c" stroke-width="4"/>
  <path d="M84 95 Q60 92 48 100 Q62 108 84 108 Z" fill="#e8622a" stroke="#2d263c" stroke-width="7" stroke-linejoin="round"/>
  <ellipse cx="98" cy="94" rx="8" ry="10" fill="#fff" stroke="#2d263c" stroke-width="4"/>
  <circle cx="99" cy="95" r="4" fill="#1a1420"/>
  <path d="M55 96 L48 90 L50 100 L44 102 L52 104 Z" fill="#f3c477" stroke="#2d263c" stroke-width="4" stroke-linejoin="round"/>
</svg>
