<svg xmlns="http://www.w3.org/2000/svg" viewBox="0 0 360 360">
  <rect x="140" y="285" width="35" height="45" rx="12" fill="#8B5E34" stroke="#2d263c" stroke-width="7"/>
  <rect x="185" y="285" width="35" height="45" rx="12" fill="#8B5E34" stroke="#2d263c" stroke-width="7"/>
  <path d="M125,180 Q90,160 70,120 Q62,105 75,100 Q95,130 130,165 Z" fill="#9C6B3E" stroke="#2d263c" stroke-width="7"/>
  <path d="M235,180 Q270,160 290,120 Q298,105 285,100 Q265,130 230,165 Z" fill="#9C6B3E" stroke="#2d263c" stroke-width="7"/>
  <ellipse cx="72" cy="108" rx="11" ry="9" fill="#D9B77E" stroke="#2d263c" stroke-width="5"/>
  <ellipse cx="288" cy="108" rx="11" ry="9" fill="#D9B77E" stroke="#2d263c" stroke-width="5"/>
  <rect x="110" y="150" width="140" height="145" rx="30" fill="#9C6B3E" stroke="#2d263c" stroke-width="8"/>
  <path d="M130,190 Q145,210 132,235" fill="none" stroke="#5C3A1E" stroke-width="5" stroke-linecap="round"/>
  <path d="M215,200 Q230,220 218,245" fill="none" stroke="#5C3A1E" stroke-width="5" stroke-linecap="round"/>
  <circle cx="140" cy="205" r="13" fill="#5C3A1E" stroke="#2d263c" stroke-width="5"/>
  <circle cx="218" cy="235" r="11" fill="#5C3A1E" stroke="#2d263c" stroke-width="5"/>
  <circle cx="165" cy="265" r="9" fill="#5C3A1E" stroke="#2d263c" stroke-width="5"/>
  <circle cx="180" cy="110" r="72" fill="#9C6B3E" stroke="#2d263c" stroke-width="8"/>
  <circle cx="150" cy="62" r="24" fill="#5FA83D" stroke="#2d263c" stroke-width="7"/>
  <circle cx="180" cy="50" r="28" fill="#6FBF4F" stroke="#2d263c" stroke-width="7"/>
  <circle cx="212" cy="62" r="24" fill="#5FA83D" stroke="#2d263c" stroke-width="7"/>
  <ellipse cx="155" cy="105" rx="16" ry="18" fill="#FFFFFF" stroke="#2d263c" stroke-width="6"/>
  <circle cx="153" cy="108" r="8" fill="#231818"/>
  <ellipse cx="205" cy="105" rx="16" ry="18" fill="#FFFFFF" stroke="#2d263c" stroke-width="6"/>
  <circle cx="207" cy="108" r="8" fill="#231818"/>
  <path d="M165,140 Q180,148 195,140" fill="none" stroke="#2d263c" stroke-width="6" stroke-linecap="round"/>
</svg>
