<svg xmlns="http://www.w3.org/2000/svg" viewBox="0 0 360 360">
  <!-- 尾羽(後ろ) -->
  <path d="M155 275 Q135 305 118 328 Q140 312 155 292 Q158 315 148 335 Q168 312 168 288 Q178 312 178 335 Q188 310 182 285" fill="#5a2e22" stroke="#2d263c" stroke-width="6" stroke-linejoin="round" stroke-linecap="round"/>

  <!-- 左翼(後ろ・折りたたみ) -->
  <path d="M112 190 Q60 195 30 165 Q55 175 70 190 Q35 180 15 148 Q45 168 60 185 Q28 165 18 130 Q45 158 65 195 Q80 220 100 228" fill="#3a2018" stroke="#2d263c" stroke-width="7" stroke-linejoin="round" stroke-linecap="round"/>

  <!-- 右翼(後ろ・折りたたみ) -->
  <path d="M248 190 Q300 195 330 165 Q305 175 290 190 Q325 180 345 148 Q315 168 300 185 Q332 165 342 130 Q315 158 295 195 Q280 220 260 228" fill="#3a2018" stroke="#2d263c" stroke-width="7" stroke-linejoin="round" stroke-linecap="round"/>

  <!-- 胴体 -->
  <ellipse cx="180" cy="222" rx="70" ry="82" fill="#8a3d28" stroke="#2d263c" stroke-width="8"/>

  <!-- 胸の生成りパッチ -->
  <path d="M148 195 Q155 186 180 183 Q205 186 212 195 Q220 220 214 250 Q206 275 190 285 Q180 290 170 285 Q154 275 146 250 Q140 220 148 195Z" fill="#e8dcc0" stroke="#2d263c" stroke-width="5" stroke-linejoin="round"/>

  <!-- 胸の赤い縞模様(戦化粧) -->
  <path d="M160 205 Q168 200 178 202" fill="none" stroke="#c2402c" stroke-width="5" stroke-linecap="round"/>
  <path d="M158 225 Q170 219 182 222" fill="none" stroke="#c2402c" stroke-width="5" stroke-linecap="round"/>
  <path d="M162 246 Q173 241 184 244" fill="none" stroke="#c2402c" stroke-width="5" stroke-linecap="round"/>
  <path d="M166 265 Q176 261 186 264" fill="none" stroke="#c2402c" stroke-width="4" stroke-linecap="round"/>

  <!-- 首 -->
  <path d="M158 150 Q156 172 150 190 Q165 184 180 182 Q195 184 210 190 Q204 172 202 150Z" fill="#8a3d28" stroke="#2d263c" stroke-width="6" stroke-linejoin="round"/>

  <!-- 頭部(青灰色) -->
  <ellipse cx="180" cy="128" rx="50" ry="46" fill="#5b7a91" stroke="#2d263c" stroke-width="8"/>

  <!-- 頭頂の赤い炎冠(トサカ) -->
  <path d="M158 92 Q152 68 140 50 Q158 62 168 82 Q166 58 168 36 Q178 58 178 84 Q186 58 194 36 Q198 58 194 82 Q206 62 222 50 Q212 68 204 92" fill="#c2402c" stroke="#2d263c" stroke-width="5" stroke-linejoin="round" stroke-linecap="round"/>

  <!-- 目まわりの赤い戦化粧ライン -->
  <path d="M132 122 Q145 108 168 112 Q160 122 160 132 Q148 128 132 122Z" fill="#c2402c" stroke="#2d263c" stroke-width="4" stroke-linejoin="round"/>
  <path d="M228 122 Q215 108 192 112 Q200 122 200 132 Q212 128 228 122Z" fill="#c2402c" stroke="#2d263c" stroke-width="4" stroke-linejoin="round"/>

  <!-- 目 -->
  <ellipse cx="160" cy="126" rx="11" ry="10" fill="#f4ead0" stroke="#2d263c" stroke-width="4"/>
  <ellipse cx="200" cy="126" rx="11" ry="10" fill="#f4ead0" stroke="#2d263c" stroke-width="4"/>
  <circle cx="161" cy="127" r="5.5" fill="#1a1220"/>
  <circle cx="199" cy="127" r="5.5" fill="#1a1220"/>
  <circle cx="163" cy="124" r="2" fill="white"/>
  <circle cx="201" cy="124" r="2" fill="white"/>

  <!-- くちばし(黄色・鋭く曲がる) -->
  <path d="M166 140 Q180 134 194 140 Q198 148 192 155 Q186 168 180 172 Q174 168 168 155 Q162 148 166 140Z" fill="#f0c020" stroke="#2d263c" stroke-width="5" stroke-linejoin="round"/>
  <line x1="180" y1="138" x2="180" y2="168" stroke="#b98c10" stroke-width="2.5" stroke-linecap="round"/>

  <!-- 左脚(黄色い鋭い爪) -->
  <path d="M158 292 Q152 308 148 322 Q140 328 130 330 Q144 326 150 316 Q146 328 138 335 Q150 328 155 316 Q156 328 150 336 Q160 326 160 314 Q166 302 168 292Z" fill="#f0c020" stroke="#2d263c" stroke-width="6" stroke-linejoin="round" stroke-linecap="round"/>

  <!-- 右脚(黄色い鋭い爪) -->
  <path d="M202 292 Q208 308 212 322 Q220 328 230 330 Q216 326 210 316 Q214 328 222 335 Q210 328 205 316 Q204 328 210 336 Q200 326 200 314 Q194 302 192 292Z" fill="#f0c020" stroke="#2d263c" stroke-width="6" stroke-linejoin="round" stroke-linecap="round"/>

  <!-- 翼の羽根ライン(左) -->
  <path d="M108 200 Q80 208 55 200" fill="none" stroke="#241108" stroke-width="4" stroke-linecap="round"/>
  <path d="M105 215 Q78 222 52 218" fill="none" stroke="#241108" stroke-width="4" stroke-linecap="round"/>

  <!-- 翼の羽根ライン(右) -->
  <path d="M252 200 Q280 208 305 200" fill="none" stroke="#241108" stroke-width="4" stroke-linecap="round"/>
  <path d="M255 215 Q282 222 308 218" fill="none" stroke="#241108" stroke-width="4" stroke-linecap="round"/>
</svg>
