<svg xmlns="http://www.w3.org/2000/svg" viewBox="0 0 360 360">
  <path d="M 200 42 C 232 20 264 20 280 34 C 294 46 284 56 296 62 L 312 48 L 318 66" fill="none" stroke="#2d263c" stroke-width="13" stroke-linejoin="round" stroke-linecap="round"/>
  <path d="M 200 42 C 232 20 264 20 280 34 C 294 46 284 56 296 62 L 312 48 L 318 66" fill="none" stroke="#97c43e" stroke-width="5" stroke-linejoin="round" stroke-linecap="round"/>
  <path d="M 112 166 C 70 150 42 150 28 168 C 48 173 50 185 70 191 C 90 197 106 192 116 184 Z" fill="#44a14e" stroke="#2d263c" stroke-width="7" stroke-linejoin="round" stroke-linecap="round"/>
  <path d="M 102 179 Q 66 170 38 167" fill="none" stroke="#2d263c" stroke-width="4" stroke-linecap="round"/>
  <path d="M 248 192 C 292 172 322 178 334 198 C 316 205 314 217 292 219 C 272 221 256 211 246 203 Z" fill="#44a14e" stroke="#2d263c" stroke-width="7" stroke-linejoin="round" stroke-linecap="round"/>
  <path d="M 258 201 Q 296 192 326 199" fill="none" stroke="#2d263c" stroke-width="4" stroke-linecap="round"/>
  <path d="M 118 96 C 96 138 90 180 102 222 C 114 264 144 302 174 318 C 180 321 190 321 196 317 C 228 296 254 252 262 208 C 270 166 262 130 244 96 C 224 104 206 90 181 95 C 158 100 138 88 118 96 Z" fill="#f4c842" stroke="#2d263c" stroke-width="8" stroke-linejoin="round" stroke-linecap="round"/>
  <ellipse cx="181" cy="97" rx="60" ry="15" fill="#bd8c2c" stroke="#2d263c" stroke-width="6"/>
  <path d="M 90 90 C 95 48 140 24 196 32 C 240 38 252 68 240 92 C 200 70 140 74 90 90 Z" fill="#44a14e" stroke="#2d263c" stroke-width="8" stroke-linejoin="round" stroke-linecap="round"/>
  <path d="M 102 83 Q 166 50 232 84" fill="none" stroke="#2d263c" stroke-width="4" stroke-linecap="round"/>
  <circle cx="150" cy="152" r="12" fill="#ffffff" stroke="#2d263c" stroke-width="6"/>
  <circle cx="152" cy="154" r="5" fill="#2d263c"/>
  <circle cx="215" cy="148" r="14" fill="#ffffff" stroke="#2d263c" stroke-width="6"/>
  <circle cx="212" cy="151" r="6" fill="#2d263c"/>
  <path d="M 134 131 L 163 140" fill="none" stroke="#2d263c" stroke-width="6" stroke-linecap="round"/>
  <path d="M 233 127 L 202 137" fill="none" stroke="#2d263c" stroke-width="6" stroke-linecap="round"/>
  <path d="M 124 192 C 150 184 212 182 240 190 C 234 230 202 246 178 246 C 152 244 128 224 124 192 Z" fill="#d96d8f" stroke="#2d263c" stroke-width="7" stroke-linejoin="round" stroke-linecap="round"/>
  <path d="M 128 193 L 142 212 L 156 191 L 170 211 L 184 190 L 198 210 L 212 190 L 226 208 L 237 191 Z" fill="#ffffff" stroke="#2d263c" stroke-width="4" stroke-linejoin="round" stroke-linecap="round"/>
</svg>