<svg xmlns="http://www.w3.org/2000/svg" viewBox="0 0 360 360">
  <ellipse cx="180" cy="305" rx="125" ry="30" fill="#cda06a" stroke="#2d263c" stroke-width="8" stroke-linejoin="round"/>
  <ellipse cx="180" cy="300" rx="92" ry="16" fill="#e3c088"/>
  <ellipse cx="120" cy="312" rx="7" ry="4" fill="#b3844f"/>
  <ellipse cx="242" cy="310" rx="7" ry="4" fill="#b3844f"/>
  <ellipse cx="90" cy="298" rx="6" ry="4" fill="#b3844f"/>
  <ellipse cx="270" cy="296" rx="6" ry="4" fill="#b3844f"/>
  <path d="M135,312 C127,240 131,150 150,95 C156,79 166,68 180,66 C194,68 204,79 210,95 C229,150 233,240 225,312 Z" fill="#fdf3e6" stroke="#2d263c" stroke-width="8" stroke-linejoin="round" stroke-linecap="round"/>
  <path d="M150,150 Q180,159 210,150" fill="none" stroke="#2d263c" stroke-width="5" stroke-linecap="round"/>
  <path d="M148,202 Q180,211 212,202" fill="none" stroke="#2d263c" stroke-width="5" stroke-linecap="round"/>
  <path d="M145,254 Q180,263 215,254" fill="none" stroke="#2d263c" stroke-width="5" stroke-linecap="round"/>
  <circle cx="180" cy="62" r="38" fill="#fdf3e6" stroke="#2d263c" stroke-width="8"/>
  <path d="M180,45 Q170,20 178,9 Q183,21 180,45 Z" fill="#8fce7a" stroke="#2d263c" stroke-width="6" stroke-linejoin="round"/>
  <path d="M180,45 Q189,17 197,7 Q188,22 180,45 Z" fill="#79bd66" stroke="#2d263c" stroke-width="6" stroke-linejoin="round"/>
  <path d="M180,45 Q171,15 163,11 Q174,23 180,45 Z" fill="#79bd66" stroke="#2d263c" stroke-width="6" stroke-linejoin="round"/>
  <ellipse cx="147" cy="73" rx="10" ry="6" fill="#ffbfdb"/>
  <ellipse cx="213" cy="73" rx="10" ry="6" fill="#ffbfdb"/>
  <circle cx="162" cy="58" r="7" fill="#2d263c"/>
  <circle cx="198" cy="58" r="7" fill="#2d263c"/>
  <circle cx="164" cy="55" r="2" fill="#fff"/>
  <circle cx="200" cy="55" r="2" fill="#fff"/>
  <circle cx="173" cy="80" r="2.5" fill="#c98a63"/>
  <circle cx="187" cy="80" r="2.5" fill="#c98a63"/>
  <path d="M170,80 Q180,89 190,80" fill="none" stroke="#2d263c" stroke-width="6" stroke-linecap="round"/>
</svg>
