<svg xmlns="http://www.w3.org/2000/svg" viewBox="0 0 360 360"><g stroke="#2d263c" stroke-width="7" stroke-linejoin="round" stroke-linecap="round"><path d="M268 232 Q302 242 314 216 Q338 220 330 192 Q352 178 334 158 Q344 130 316 138 Q310 112 288 130 Q268 118 262 146 Q248 168 264 186 Q252 212 268 232 Z" fill="#f4e8c8"/><path d="M97 268 L92 328 Q112 338 124 328 L126 276 Z" fill="#d94f3a"/><path d="M248 270 L256 330 Q236 340 226 328 L226 276 Z" fill="#d94f3a"/><path d="M105 236 Q98 186 160 180 Q230 172 258 200 Q278 228 262 262 Q244 296 178 298 Q112 298 105 236 Z" fill="#d94f3a"/><path d="M126 198 Q140 224 130 252 Q112 244 110 222 Q112 204 126 198 Z" fill="#3b3340" stroke-width="6"/><path d="M240 204 Q254 232 244 262 Q226 250 226 226 Q228 210 240 204 Z" fill="#3b3340" stroke-width="6"/><path d="M148 280 L143 331 L172 331 L170 282 Z" fill="#d94f3a"/><path d="M196 282 L194 333 L223 331 L217 280 Z" fill="#d94f3a"/><path d="M140 309 Q158 299 176 311 L175 332 L142 332 Z" fill="#f4e8c8"/><path d="M190 311 Q208 301 226 311 L224 332 L193 334 Z" fill="#f4e8c8"/><path d="M130 80 L116 40 L156 62 Z" fill="#d94f3a"/><path d="M232 76 L250 38 L210 60 Z" fill="#d94f3a"/><path d="M180 62 Q206 52 212 72 Q240 64 242 90 Q268 92 257 117 Q277 131 258 149 Q272 171 248 179 Q250 203 224 197 Q214 217 191 205 Q171 219 157 203 Q132 211 130 188 Q104 188 112 163 Q92 151 108 133 Q95 112 118 104 Q116 80 142 84 Q148 60 170 70 Q173 58 180 62 Z" fill="#f4e8c8"/><path d="M182 88 Q224 90 230 130 Q234 168 197 179 Q182 183 168 179 Q132 168 134 128 Q140 90 182 88 Z" fill="#d94f3a"/><path d="M164 94 Q145 58 155 26 Q170 44 179 37 Q191 58 199 92 Q181 80 164 94 Z" fill="#8e8798"/><path d="M167 70 Q175 63 182 66" fill="none" stroke-width="5"/><path d="M132 150 Q108 144 100 160 Q118 162 124 174 Q136 164 132 150 Z" fill="#f4e8c8" stroke-width="6"/><path d="M228 148 Q252 142 261 158 Q243 161 237 173 Q226 162 228 148 Z" fill="#f4e8c8" stroke-width="6"/><path d="M146 124 Q159 114 172 125 Q171 140 158 141 Q147 139 146 124 Z" fill="#f6c945" stroke-width="6"/><path d="M194 124 Q207 112 220 122 Q221 138 207 140 Q195 138 194 124 Z" fill="#f6c945" stroke-width="6"/><circle cx="163" cy="130" r="4.5" fill="#2d263c" stroke="none"/><circle cx="208" cy="128" r="5" fill="#2d263c" stroke="none"/><path d="M143 111 L173 117" fill="none" stroke-width="6"/><path d="M195 116 L224 107" fill="none" stroke-width="6"/><path d="M158 150 Q183 142 207 150 Q213 172 185 179 Q154 174 158 150 Z" fill="#f4e8c8"/><path d="M174 151 L195 151 L185 163 Z" fill="#2d263c" stroke-width="5"/><path d="M185 163 Q184 171 176 171 M185 163 Q187 171 195 170" fill="none" stroke-width="5"/><path d="M193 170 L197 178 L201 169 Z" fill="#ffffff" stroke-width="4"/></g></svg>