<svg xmlns="http://www.w3.org/2000/svg" viewBox="0 0 360 360">
  <!-- 尾羽(後ろ・炎のような赤橙) -->
  <path d="M155 278 Q130 306 108 332 Q135 314 152 294 Q152 318 138 340 Q162 314 165 288 Q176 314 174 340 Q190 312 182 286" fill="#e0602f" stroke="#2d263c" stroke-width="6" stroke-linejoin="round" stroke-linecap="round"/>

  <!-- 左翼(後ろ・折りたたみ・紺色) -->
  <path d="M112 190 Q58 196 26 164 Q52 176 68 190 Q32 178 12 145 Q42 168 58 186 Q26 162 16 128 Q44 158 64 196 Q78 220 100 228" fill="#232a52" stroke="#2d263c" stroke-width="7" stroke-linejoin="round" stroke-linecap="round"/>

  <!-- 右翼(後ろ・折りたたみ・紺色) -->
  <path d="M248 190 Q302 196 334 164 Q308 176 292 190 Q328 178 348 145 Q318 168 302 186 Q334 162 344 128 Q316 158 296 196 Q282 220 260 228" fill="#232a52" stroke="#2d263c" stroke-width="7" stroke-linejoin="round" stroke-linecap="round"/>

  <!-- 胴体(濃紺) -->
  <ellipse cx="180" cy="222" rx="70" ry="82" fill="#2f3a6b" stroke="#2d263c" stroke-width="8"/>

  <!-- 胸の白いパッチ -->
  <path d="M148 195 Q155 186 180 183 Q205 186 212 195 Q220 220 214 250 Q206 275 190 285 Q180 290 170 285 Q154 275 146 250 Q140 220 148 195Z" fill="#eef0ee" stroke="#2d263c" stroke-width="5" stroke-linejoin="round"/>

  <!-- 胸の青い縞模様 -->
  <path d="M160 205 Q168 200 178 202" fill="none" stroke="#5468a8" stroke-width="5" stroke-linecap="round"/>
  <path d="M158 225 Q170 219 182 222" fill="none" stroke="#5468a8" stroke-width="5" stroke-linecap="round"/>
  <path d="M162 246 Q173 241 184 244" fill="none" stroke="#5468a8" stroke-width="5" stroke-linecap="round"/>
  <path d="M166 265 Q176 261 186 264" fill="none" stroke="#5468a8" stroke-width="4" stroke-linecap="round"/>

  <!-- 首(濃紺) -->
  <path d="M158 150 Q156 172 150 190 Q165 184 180 182 Q195 184 210 190 Q204 172 202 150Z" fill="#2f3a6b" stroke="#2d263c" stroke-width="6" stroke-linejoin="round"/>

  <!-- 頭部(白っぽい薄灰) -->
  <ellipse cx="180" cy="128" rx="50" ry="46" fill="#c9ccd6" stroke="#2d263c" stroke-width="8"/>

  <!-- 頭頂の炎冠(トサカ・赤橙が長く優雅に流れる) -->
  <path d="M154 96 Q140 66 118 44 Q146 60 160 84 Q152 54 150 26 Q168 54 172 82 Q178 54 178 24 Q188 54 186 82 Q196 56 210 30 Q206 58 200 86 Q216 66 236 46 Q220 68 208 96" fill="#e0602f" stroke="#2d263c" stroke-width="5" stroke-linejoin="round" stroke-linecap="round"/>

  <!-- 目まわりの青いライン -->
  <path d="M132 122 Q145 108 168 112 Q160 122 160 132 Q148 128 132 122Z" fill="#3a4a8a" stroke="#2d263c" stroke-width="4" stroke-linejoin="round"/>
  <path d="M228 122 Q215 108 192 112 Q200 122 200 132 Q212 128 228 122Z" fill="#3a4a8a" stroke="#2d263c" stroke-width="4" stroke-linejoin="round"/>

  <!-- 目(橙色) -->
  <ellipse cx="160" cy="126" rx="11" ry="10" fill="#f0a030" stroke="#2d263c" stroke-width="4"/>
  <ellipse cx="200" cy="126" rx="11" ry="10" fill="#f0a030" stroke="#2d263c" stroke-width="4"/>
  <circle cx="161" cy="127" r="5.5" fill="#1a1220"/>
  <circle cx="199" cy="127" r="5.5" fill="#1a1220"/>
  <circle cx="163" cy="124" r="2" fill="white"/>
  <circle cx="201" cy="124" r="2" fill="white"/>

  <!-- くちばし(暗灰色・鋭く曲がる) -->
  <path d="M166 140 Q180 134 194 140 Q198 148 192 155 Q186 168 180 172 Q174 168 168 155 Q162 148 166 140Z" fill="#5a5a68" stroke="#2d263c" stroke-width="5" stroke-linejoin="round"/>
  <line x1="180" y1="138" x2="180" y2="168" stroke="#3a3a48" stroke-width="2.5" stroke-linecap="round"/>

  <!-- 左脚(暗灰の脚に橙の爪) -->
  <path d="M158 292 Q152 308 148 322 Q140 328 130 330 Q144 326 150 316 Q146 328 138 335 Q150 328 155 316 Q156 328 150 336 Q160 326 160 314 Q166 302 168 292Z" fill="#e0602f" stroke="#2d263c" stroke-width="6" stroke-linejoin="round" stroke-linecap="round"/>

  <!-- 右脚(暗灰の脚に橙の爪) -->
  <path d="M202 292 Q208 308 212 322 Q220 328 230 330 Q216 326 210 316 Q214 328 222 335 Q210 328 205 316 Q204 328 210 336 Q200 326 200 314 Q194 302 192 292Z" fill="#e0602f" stroke="#2d263c" stroke-width="6" stroke-linejoin="round" stroke-linecap="round"/>

  <!-- 翼の羽根ライン(左) -->
  <path d="M108 200 Q80 208 55 200" fill="none" stroke="#161a38" stroke-width="4" stroke-linecap="round"/>
  <path d="M105 215 Q78 222 52 218" fill="none" stroke="#161a38" stroke-width="4" stroke-linecap="round"/>

  <!-- 翼の羽根ライン(右) -->
  <path d="M252 200 Q280 208 305 200" fill="none" stroke="#161a38" stroke-width="4" stroke-linecap="round"/>
  <path d="M255 215 Q282 222 308 218" fill="none" stroke="#161a38" stroke-width="4" stroke-linecap="round"/>
</svg>
