<svg xmlns="http://www.w3.org/2000/svg" viewBox="0 0 360 360">
  <!-- 後ろの翼(左右外側2枚) -->
  <path d="M180 195 C120 170 55 110 40 60 C38 50 50 48 58 55 C80 75 110 130 145 165 Z" fill="#e85c0d" stroke="#2d263c" stroke-width="7" stroke-linejoin="round" stroke-linecap="round"/>
  <path d="M180 195 C240 170 305 110 320 60 C322 50 310 48 302 55 C280 75 250 130 215 165 Z" fill="#e85c0d" stroke="#2d263c" stroke-width="7" stroke-linejoin="round" stroke-linecap="round"/>
  <!-- 後ろ翼の太陽紋様 -->
  <circle cx="90" cy="118" r="18" fill="none" stroke="#f7d22d" stroke-width="6"/>
  <circle cx="90" cy="118" r="8" fill="#f7d22d"/>
  <circle cx="268" cy="115" r="18" fill="none" stroke="#f7d22d" stroke-width="6"/>
  <circle cx="268" cy="115" r="8" fill="#f7d22d"/>

  <!-- 中翼(左右2枚) -->
  <path d="M175 205 C130 185 72 155 55 120 C50 110 62 105 70 112 C95 138 140 178 168 200 Z" fill="#f06318" stroke="#2d263c" stroke-width="7" stroke-linejoin="round" stroke-linecap="round"/>
  <path d="M185 205 C230 185 288 155 305 120 C310 110 298 105 290 112 C265 138 220 178 192 200 Z" fill="#f06318" stroke="#2d263c" stroke-width="7" stroke-linejoin="round" stroke-linecap="round"/>

  <!-- 内翼(左右2枚・前面) -->
  <path d="M172 220 C148 210 105 200 85 175 C80 168 90 162 97 168 C118 190 155 210 174 222 Z" fill="#f47c30" stroke="#2d263c" stroke-width="7" stroke-linejoin="round" stroke-linecap="round"/>
  <path d="M188 220 C212 210 255 200 275 175 C280 168 270 162 263 168 C242 190 205 210 186 222 Z" fill="#f47c30" stroke="#2d263c" stroke-width="7" stroke-linejoin="round" stroke-linecap="round"/>

  <!-- 胴体 -->
  <ellipse cx="180" cy="230" rx="42" ry="56" fill="#f5f0e0" stroke="#2d263c" stroke-width="8" stroke-linejoin="round"/>

  <!-- お腹の縞模様 -->
  <path d="M148 230 C152 225 168 222 180 223 C192 222 208 225 212 230 C208 234 192 236 180 236 C168 236 152 234 148 230 Z" fill="#f06318" stroke="none"/>
  <path d="M150 245 C154 240 169 238 180 239 C191 238 206 240 210 245 C206 249 191 251 180 251 C169 251 154 249 150 245 Z" fill="#f06318" stroke="none"/>
  <path d="M153 260 C157 256 171 254 180 255 C189 254 203 256 207 260 C203 264 189 266 180 266 C171 266 157 264 153 260 Z" fill="#f06318" stroke="none"/>

  <!-- 下ヒレ飾り羽 -->
  <path d="M165 278 C158 285 148 300 145 318 C143 325 150 328 155 322 C162 308 170 290 175 280 Z" fill="#f47c30" stroke="#2d263c" stroke-width="6" stroke-linejoin="round" stroke-linecap="round"/>
  <path d="M195 278 C202 285 212 300 215 318 C217 325 210 328 205 322 C198 308 190 290 185 280 Z" fill="#f47c30" stroke="#2d263c" stroke-width="6" stroke-linejoin="round" stroke-linecap="round"/>
  <path d="M180 282 C178 292 178 308 180 322 C182 308 182 292 180 282 Z" fill="#e85c0d" stroke="#2d263c" stroke-width="5" stroke-linejoin="round" stroke-linecap="round"/>

  <!-- 頭部モフモフ(白い毛) -->
  <ellipse cx="180" cy="178" rx="36" ry="32" fill="#f5f0e0" stroke="#2d263c" stroke-width="8"/>
  <!-- モフの毛束 -->
  <path d="M155 168 C150 155 148 142 152 132 C155 140 157 155 158 168 Z" fill="#f5f0e0" stroke="#2d263c" stroke-width="5"/>
  <path d="M163 163 C160 148 160 134 165 124 C167 134 167 150 166 163 Z" fill="#f5f0e0" stroke="#2d263c" stroke-width="5"/>
  <path d="M205 168 C210 155 212 142 208 132 C205 140 203 155 202 168 Z" fill="#f5f0e0" stroke="#2d263c" stroke-width="5"/>
  <path d="M197 163 C200 148 200 134 195 124 C193 134 193 150 194 163 Z" fill="#f5f0e0" stroke="#2d263c" stroke-width="5"/>

  <!-- 触角2本 -->
  <path d="M168 152 C162 138 155 122 152 108 C156 110 162 118 164 130 C166 138 166 148 168 152 Z" fill="#2d263c" stroke="#2d263c" stroke-width="4"/>
  <ellipse cx="151" cy="104" rx="7" ry="7" fill="#f7d22d" stroke="#2d263c" stroke-width="4"/>
  <path d="M192 152 C198 138 205 122 208 108 C204 110 198 118 196 130 C194 138 194 148 192 152 Z" fill="#2d263c" stroke="#2d263c" stroke-width="4"/>
  <ellipse cx="209" cy="104" rx="7" ry="7" fill="#f7d22d" stroke="#2d263c" stroke-width="4"/>

  <!-- 大きな複眼(左右) -->
  <ellipse cx="163" cy="180" rx="16" ry="14" fill="#c0392b" stroke="#2d263c" stroke-width="6"/>
  <ellipse cx="161" cy="178" rx="6" ry="5" fill="#7b0f0f"/>
  <ellipse cx="159" cy="176" rx="2.5" ry="2" fill="#fff"/>
  <ellipse cx="197" cy="180" rx="16" ry="14" fill="#c0392b" stroke="#2d263c" stroke-width="6"/>
  <ellipse cx="199" cy="178" rx="6" ry="5" fill="#7b0f0f"/>
  <ellipse cx="201" cy="176" rx="2.5" ry="2" fill="#fff"/>

  <!-- 小さな口 -->
  <path d="M175 192 C178 196 182 196 185 192" fill="none" stroke="#2d263c" stroke-width="4" stroke-linecap="round"/>

  <!-- 翼の炎先端チラチラ -->
  <path d="M42 58 C36 45 44 35 50 40 C44 28 55 22 60 32 C58 20 68 16 72 26 C72 18 80 16 82 25 C80 15 90 14 88 25 C95 18 98 28 92 35 Z" fill="#f7d22d" stroke="#e85c0d" stroke-width="3" stroke-linejoin="round"/>
  <path d="M318 58 C324 45 316 35 310 40 C316 28 305 22 300 32 C302 20 292 16 288 26 C288 18 280 16 278 25 C280 15 270 14 272 25 C265 18 262 28 268 35 Z" fill="#f7d22d" stroke="#e85c0d" stroke-width="3" stroke-linejoin="round"/>
</svg>