<svg xmlns="http://www.w3.org/2000/svg" viewBox="0 0 360 360">
<g stroke="#2d263c" stroke-width="7" stroke-linejoin="round" stroke-linecap="round">
  <rect x="118" y="255" width="22" height="68" rx="10" fill="#3d8fb0"/>
  <rect x="220" y="255" width="22" height="68" rx="10" fill="#3d8fb0"/>
  <path d="M255,235 Q290,225 280,255 Q300,270 270,280 Q285,300 255,290 Q250,270 255,235 Z" fill="#1c7ea3"/>
  <ellipse cx="180" cy="235" rx="78" ry="48" fill="#5fbfdd"/>
  <rect x="148" y="268" width="24" height="66" rx="11" fill="#5fbfdd"/>
  <rect x="188" y="268" width="24" height="66" rx="11" fill="#5fbfdd"/>
  <ellipse cx="180" cy="258" rx="42" ry="24" fill="#cdeef8"/>
  <rect x="158" y="168" width="44" height="28" rx="8" fill="#5fbfdd"/>
  <circle cx="180" cy="128" r="48" fill="#5fbfdd"/>
  <path d="M120,108 Q130,80 140,108 Z" fill="#1c7ea3"/>
  <path d="M220,108 Q230,80 240,108 Z" fill="#1c7ea3"/>
  <path d="M138,105 Q150,65 163,100 Q180,58 197,100 Q210,65 222,105 Q195,90 180,100 Q165,90 138,105 Z" fill="#1c7ea3"/>
  <path d="M140,195 Q160,168 180,195 Q200,168 220,195 Z" fill="#1c7ea3"/>
  <ellipse cx="180" cy="152" rx="22" ry="14" fill="#e7f8ff"/>
  <ellipse cx="180" cy="150" rx="5" ry="3" fill="#2d263c"/>
  <circle cx="160" cy="120" r="11" fill="#ff7a45"/>
  <circle cx="160" cy="120" r="4" fill="#2d263c"/>
  <circle cx="200" cy="120" r="11" fill="#ff7a45"/>
  <circle cx="200" cy="120" r="4" fill="#2d263c"/>
  <path d="M120,225 Q140,215 158,225" fill="none"/>
  <path d="M202,225 Q220,215 240,225" fill="none"/>
</g>
</svg>
