<svg xmlns="http://www.w3.org/2000/svg" viewBox="0 0 360 360">
<ellipse cx="180" cy="325" rx="95" ry="12" fill="#000" opacity="0.12"/>
<path d="M105 285 Q88 210 100 145 Q78 128 82 92 Q95 62 130 53 Q158 36 195 53 Q228 62 240 92 Q246 128 222 145 Q235 210 218 285 Q180 305 105 285 Z" fill="#3a3550" stroke="#2d263c" stroke-width="8" stroke-linejoin="round"/>
<path d="M132 53 Q122 28 105 24 Q118 42 120 60 Z" fill="#f2f2ea" stroke="#2d263c" stroke-width="7" stroke-linejoin="round"/>
<path d="M164 40 Q158 20 145 20 Q155 32 158 50 Z" fill="#f2f2ea" stroke="#2d263c" stroke-width="7" stroke-linejoin="round"/>
<path d="M196 53 Q205 30 224 24 Q210 42 208 58 Z" fill="#f2f2ea" stroke="#2d263c" stroke-width="7" stroke-linejoin="round"/>
<ellipse cx="160" cy="97" rx="14" ry="17" fill="#fff" stroke="#2d263c" stroke-width="6"/>
<ellipse cx="200" cy="97" rx="14" ry="17" fill="#fff" stroke="#2d263c" stroke-width="6"/>
<circle cx="162" cy="100" r="6" fill="#c0202a"/>
<circle cx="198" cy="100" r="6" fill="#c0202a"/>
<path d="M148 128 Q180 142 212 128" fill="none" stroke="#2d263c" stroke-width="6" stroke-linecap="round"/>
<path d="M100 145 Q52 158 35 210 Q30 246 58 260 Q84 264 97 240 Q106 213 106 180 Z" fill="#3a3550" stroke="#2d263c" stroke-width="8" stroke-linejoin="round"/>
<circle cx="58" cy="240" r="24" fill="#e6e6d8" stroke="#2d263c" stroke-width="7"/>
<path d="M222 145 Q270 158 287 210 Q292 246 264 260 Q238 264 225 240 Q216 213 216 180 Z" fill="#3a3550" stroke="#2d263c" stroke-width="8" stroke-linejoin="round"/>
<circle cx="264" cy="240" r="24" fill="#e6e6d8" stroke="#2d263c" stroke-width="7"/>
<path d="M106 180 Q142 166 190 169 Q222 166 222 145 Q231 192 208 228 Q172 246 126 232 Q108 214 106 180 Z" fill="#f2f2ea" stroke="#2d263c" stroke-width="7" stroke-linejoin="round"/>
<path d="M124 227 Q180 244 212 223 L212 237 Q180 256 122 240 Z" fill="#c0202a" stroke="#2d263c" stroke-width="6" stroke-linejoin="round"/>
<circle cx="168" cy="231" r="8" fill="#e0b830" stroke="#2d263c" stroke-width="4"/>
<path d="M105 285 Q100 318 78 332 Q104 328 120 314 Q122 297 114 283 Z" fill="#3a3550" stroke="#2d263c" stroke-width="8" stroke-linejoin="round"/>
<path d="M218 285 Q225 318 247 332 Q221 328 205 314 Q202 297 210 283 Z" fill="#3a3550" stroke="#2d263c" stroke-width="8" stroke-linejoin="round"/>
<ellipse cx="86" cy="330" rx="18" ry="8" fill="#e6e6d8" stroke="#2d263c" stroke-width="6"/>
<ellipse cx="239" cy="330" rx="18" ry="8" fill="#e6e6d8" stroke="#2d263c" stroke-width="6"/>
</svg>
