<svg xmlns="http://www.w3.org/2000/svg" viewBox="0 0 360 360">
<g fill="none" stroke="#2d263c" stroke-width="7" stroke-linejoin="round" stroke-linecap="round">
<ellipse fill="#c2b8a8" cx="120" cy="316" rx="18" ry="14"/>
<ellipse fill="#c2b8a8" cx="240" cy="316" rx="18" ry="14"/>
<circle fill="#f0e8d4" cx="180" cy="180" r="120"/>
<circle fill="#f0e8d4" cx="110" cy="150" r="46"/>
<circle fill="#f0e8d4" cx="250" cy="150" r="46"/>
<circle fill="#f0e8d4" cx="120" cy="232" r="42"/>
<circle fill="#f0e8d4" cx="240" cy="232" r="42"/>
<circle fill="#f0e8d4" cx="180" cy="90" r="44"/>
<path fill="#c2b8a8" d="M132 78 C120 58 132 44 148 52 C154 62 148 78 142 84 Z"/>
<path fill="#c2b8a8" d="M228 78 C240 58 228 44 212 52 C206 62 212 78 218 84 Z"/>
<path fill="#c2b8a8" d="M180 170 C214 172 226 200 222 226 C216 252 200 264 180 264 C160 264 144 252 138 226 C134 200 146 172 180 170 Z"/>
<path fill="#c2b8a8" d="M150 232 C138 246 138 270 150 282 C158 280 162 268 160 254 C160 246 158 238 150 232 Z"/>
<path fill="#c2b8a8" d="M210 232 C222 246 222 270 210 282 C202 280 198 268 200 254 C200 246 202 238 210 232 Z"/>
<ellipse fill="#fff" cx="164" cy="210" rx="11" ry="14"/>
<ellipse fill="#fff" cx="196" cy="210" rx="11" ry="14"/>
<ellipse fill="#2d263c" cx="166" cy="214" rx="6" ry="8"/>
<ellipse fill="#2d263c" cx="198" cy="214" rx="6" ry="8"/>
<circle fill="#fff" stroke="none" cx="163" cy="209" r="2.5"/>
<circle fill="#fff" stroke="none" cx="195" cy="209" r="2.5"/>
<path fill="#2d263c" d="M176 236 C176 231 184 231 184 236 C184 240 176 240 176 236 Z"/>
<path d="M168 250 C176 256 184 256 192 250"/>
</g>
</svg>
