<svg xmlns="http://www.w3.org/2000/svg" viewBox="0 0 360 360">
  <ellipse cx="185" cy="235" rx="88" ry="55" fill="#7ec3e0" stroke="#2d263c" stroke-width="7" stroke-linejoin="round"/>
  <ellipse cx="190" cy="260" rx="60" ry="28" fill="#eef0e0" stroke="#2d263c" stroke-width="6" stroke-linejoin="round"/>
  <path d="M255 220 Q 320 210 335 250 Q 300 250 268 245 Z" fill="#4a8fc2" stroke="#2d263c" stroke-width="7" stroke-linejoin="round"/>
  <rect x="130" y="272" width="26" height="42" rx="10" fill="#4a8fc2" stroke="#2d263c" stroke-width="7" stroke-linejoin="round"/>
  <rect x="205" y="272" width="26" height="42" rx="10" fill="#4a8fc2" stroke="#2d263c" stroke-width="7" stroke-linejoin="round"/>
  <ellipse cx="143" cy="318" rx="22" ry="9" fill="#2d263c"/>
  <ellipse cx="218" cy="318" rx="22" ry="9" fill="#2d263c"/>
  <path d="M150 190 Q 100 150 105 90" fill="none" stroke="#2d263c" stroke-width="30" stroke-linecap="round"/>
  <path d="M150 190 Q 100 150 105 90" fill="none" stroke="#7ec3e0" stroke-width="20" stroke-linecap="round"/>
  <ellipse cx="95" cy="80" rx="58" ry="42" fill="#7ec3e0" stroke="#2d263c" stroke-width="7" stroke-linejoin="round"/>
  <path d="M50 90 Q 40 145 80 150 Q 105 152 118 128 Q 90 130 78 112 Q 62 108 50 90 Z" fill="#eef0e0" stroke="#2d263c" stroke-width="7" stroke-linejoin="round"/>
  <path d="M64 112 L 76 122 L 68 130 Z" fill="#fff" stroke="#2d263c" stroke-width="3" stroke-linejoin="round"/>
  <path d="M80 122 L 92 132 L 84 138 Z" fill="#fff" stroke="#2d263c" stroke-width="3" stroke-linejoin="round"/>
  <path d="M50 65 Q 20 55 15 30 Q 45 35 60 55 Z" fill="#4a8fc2" stroke="#2d263c" stroke-width="6" stroke-linejoin="round"/>
  <path d="M130 60 Q 165 45 168 20 Q 138 25 122 45 Z" fill="#4a8fc2" stroke="#2d263c" stroke-width="6" stroke-linejoin="round"/>
  <circle cx="112" cy="68" r="9" fill="#2d263c"/>
  <circle cx="115" cy="65" r="3" fill="#fff"/>
  <path d="M175 210 Q 190 195 210 205" fill="none" stroke="#2d263c" stroke-width="6" stroke-linecap="round"/>
  <path d="M255 230 Q 275 205 300 215" fill="none" stroke="#2d263c" stroke-width="6" stroke-linecap="round" fill-opacity="0"/>
  <path d="M255 190 Q 280 175 285 150" fill="none" stroke="#4a8fc2" stroke-width="14" stroke-linecap="round"/>
</svg>
