<svg xmlns="http://www.w3.org/2000/svg" viewBox="0 0 360 360"><path d="M260 205 Q298 213 310 185 Q340 183 332 153 Q344 121 314 113 Q310 83 282 93 Q254 81 248 113 Q230 141 252 163 Q238 193 260 205 Z" fill="#f8ecd2" stroke="#2d263c" stroke-width="7" stroke-linejoin="round" stroke-linecap="round"/><path d="M100 110 Q88 88 110 80 Q98 52 126 50 Q126 22 152 34 Q168 10 184 32 Q210 16 216 44 Q246 42 240 72 Q262 86 246 108 Q256 132 232 138 L120 140 Q92 132 100 110 Z" fill="#f8ecd2" stroke="#2d263c" stroke-width="7" stroke-linejoin="round" stroke-linecap="round"/><path d="M125 78 Q100 56 107 34 Q124 27 137 54 Z" fill="#f08030" stroke="#2d263c" stroke-width="7" stroke-linejoin="round" stroke-linecap="round"/><path d="M228 78 Q251 54 243 33 Q226 28 215 54 Z" fill="#f08030" stroke="#2d263c" stroke-width="7" stroke-linejoin="round" stroke-linecap="round"/><path d="M130 175 Q100 215 102 265 Q100 308 145 310 L230 310 Q272 308 268 262 Q268 210 240 175 Q210 150 175 152 Q150 152 130 175 Z" fill="#f08030" stroke="#2d263c" stroke-width="7" stroke-linejoin="round" stroke-linecap="round"/><path d="M75 245 Q63 292 102 308 Q136 314 138 278 Q140 244 112 232 Q84 224 75 245 Z" fill="#f08030" stroke="#2d263c" stroke-width="7" stroke-linejoin="round" stroke-linecap="round"/><path d="M285 245 Q297 292 258 308 Q224 314 222 278 Q220 244 248 232 Q276 224 285 245 Z" fill="#f08030" stroke="#2d263c" stroke-width="7" stroke-linejoin="round" stroke-linecap="round"/><path d="M84 248 Q104 256 112 276 Q92 274 80 260 Z" fill="#2d263c"/><path d="M276 248 Q256 256 248 276 Q268 274 280 260 Z" fill="#2d263c"/><path d="M116 198 Q134 204 140 222 Q120 220 110 208 Z" fill="#2d263c"/><path d="M254 198 Q236 204 230 222 Q250 220 260 208 Z" fill="#2d263c"/><path d="M150 225 Q144 270 147 300 Q147 314 163 314 Q179 314 179 300 Q181 268 178 228 Z" fill="#f08030" stroke="#2d263c" stroke-width="7" stroke-linejoin="round" stroke-linecap="round"/><path d="M200 228 Q197 268 199 300 Q199 314 215 314 Q231 314 231 300 Q234 270 228 225 Z" fill="#f08030" stroke="#2d263c" stroke-width="7" stroke-linejoin="round" stroke-linecap="round"/><path d="M148 250 Q163 245 178 251 L177 263 Q162 258 149 262 Z" fill="#2d263c"/><path d="M201 251 Q216 245 230 250 L229 262 Q215 258 200 263 Z" fill="#2d263c"/><path d="M144 292 Q137 278 151 278 Q154 266 166 274 Q179 268 181 282 Q189 292 177 296 Q160 302 144 292 Z" fill="#f8ecd2" stroke="#2d263c" stroke-width="6" stroke-linejoin="round" stroke-linecap="round"/><path d="M196 292 Q189 278 203 278 Q206 266 218 274 Q231 268 233 282 Q241 292 229 296 Q212 302 196 292 Z" fill="#f8ecd2" stroke="#2d263c" stroke-width="6" stroke-linejoin="round" stroke-linecap="round"/><path d="M135 165 Q115 185 128 205 Q112 222 135 232 Q130 252 155 248 Q165 268 182 250 Q205 262 207 240 Q228 232 215 212 Q230 192 210 178 Q195 158 172 168 Q150 155 135 165 Z" fill="#f8ecd2" stroke="#2d263c" stroke-width="7" stroke-linejoin="round" stroke-linecap="round"/><path d="M125 105 Q122 65 160 55 Q180 48 205 60 Q232 70 228 105 Q230 140 195 150 Q160 158 138 142 Q126 130 125 105 Z" fill="#f08030" stroke="#2d263c" stroke-width="7" stroke-linejoin="round" stroke-linecap="round"/><path d="M148 62 Q142 44 160 48 Q166 30 180 44 Q196 32 198 52 Q212 58 198 68 Q176 76 156 70 Q146 68 148 62 Z" fill="#f8ecd2" stroke="#2d263c" stroke-width="6" stroke-linejoin="round" stroke-linecap="round"/><path d="M142 86 Q151 79 161 84" fill="none" stroke="#2d263c" stroke-width="6" stroke-linecap="round"/><path d="M192 84 Q202 78 211 86" fill="none" stroke="#2d263c" stroke-width="6" stroke-linecap="round"/><circle cx="155" cy="99" r="8" fill="#2d263c"/><circle cx="200" cy="98" r="8" fill="#2d263c"/><circle cx="152" cy="96" r="2.6" fill="#ffffff"/><circle cx="197" cy="95" r="2.6" fill="#ffffff"/><path d="M152 117 Q146 144 177 145 Q208 144 203 116 Q198 105 177 107 Q157 105 152 117 Z" fill="#f8ecd2" stroke="#2d263c" stroke-width="6" stroke-linejoin="round" stroke-linecap="round"/><ellipse cx="177" cy="113" rx="8" ry="5.5" fill="#2d263c"/><path d="M164 128 Q177 139 190 127" fill="none" stroke="#2d263c" stroke-width="5" stroke-linecap="round"/><path d="M186 130 L192 129 L189 137 Z" fill="#ffffff" stroke="#2d263c" stroke-width="3" stroke-linejoin="round"/><path d="M161 313 L161 305" fill="none" stroke="#2d263c" stroke-width="5" stroke-linecap="round"/><path d="M214 313 L214 305" fill="none" stroke="#2d263c" stroke-width="5" stroke-linecap="round"/></svg>