<svg xmlns="http://www.w3.org/2000/svg" viewBox="0 0 360 360">
  <!-- ツル(後ろ) -->
  <path d="M185 80 C195 55 210 38 205 22 C200 10 188 14 190 28 C192 40 178 52 172 72" fill="#8b5e3c" stroke="#2d263c" stroke-width="7" stroke-linecap="round" stroke-linejoin="round"/>
  <!-- 葉っぱ左(後ろ) -->
  <ellipse cx="112" cy="115" rx="44" ry="22" fill="#3a7d1e" stroke="#2d263c" stroke-width="7" transform="rotate(-38 112 115)"/>
  <line x1="112" y1="115" x2="140" y2="98" stroke="#2d263c" stroke-width="3" stroke-linecap="round"/>
  <!-- 葉っぱ右(後ろ) -->
  <ellipse cx="248" cy="108" rx="44" ry="21" fill="#3a7d1e" stroke="#2d263c" stroke-width="7" transform="rotate(32 248 108)"/>
  <line x1="248" y1="108" x2="222" y2="93" stroke="#2d263c" stroke-width="3" stroke-linecap="round"/>

  <!-- 体(壺) -->
  <path d="M148 310 C120 300 105 270 108 230 C110 195 100 170 108 145 C116 118 138 105 180 103 C222 101 244 116 252 143 C260 170 252 198 253 232 C254 268 240 300 212 310 Z" fill="#b0d83a" stroke="#2d263c" stroke-width="8" stroke-linejoin="round"/>

  <!-- 体の模様(斑点ぽい影) -->
  <ellipse cx="145" cy="220" rx="18" ry="26" fill="#8fc22a" opacity="0.55"/>
  <ellipse cx="213" cy="245" rx="14" ry="20" fill="#8fc22a" opacity="0.55"/>
  <ellipse cx="175" cy="270" rx="10" ry="14" fill="#8fc22a" opacity="0.45"/>

  <!-- 口の内側(赤) -->
  <path d="M120 138 C124 118 140 104 180 102 C220 100 237 116 242 136 C238 125 222 113 180 115 C138 117 124 127 120 138 Z" fill="#cc3030" stroke="#2d263c" stroke-width="5" stroke-linejoin="round"/>

  <!-- 口の縁(リップ部分) -->
  <path d="M116 142 C118 125 138 106 180 104 C222 102 242 122 244 140 C248 152 244 148 244 148 C240 135 222 117 180 119 C138 121 122 137 118 150 Z" fill="#e04040" stroke="#2d263c" stroke-width="6" stroke-linejoin="round"/>

  <!-- 歯(上の縁ギザギザ) -->
  <polyline points="130,137 137,126 144,136 151,124 158,135 165,123 172,134 180,122 188,134 195,122 202,135 209,123 216,135 223,125 230,136 237,128 243,140" fill="none" stroke="#ffe066" stroke-width="5" stroke-linejoin="round" stroke-linecap="round"/>

  <!-- 目(左) -->
  <ellipse cx="155" cy="168" rx="14" ry="14" fill="white" stroke="#2d263c" stroke-width="6"/>
  <ellipse cx="158" cy="170" rx="7" ry="8" fill="#2d263c"/>
  <ellipse cx="160" cy="168" rx="3" ry="3" fill="white"/>

  <!-- 目(右) -->
  <ellipse cx="205" cy="165" rx="13" ry="14" fill="white" stroke="#2d263c" stroke-width="6"/>
  <ellipse cx="208" cy="167" rx="7" ry="8" fill="#2d263c"/>
  <ellipse cx="210" cy="165" rx="3" ry="3" fill="white"/>

  <!-- ほっぺ(赤め) -->
  <ellipse cx="143" cy="185" rx="11" ry="8" fill="#e87070" opacity="0.7"/>
  <ellipse cx="218" cy="183" rx="10" ry="7" fill="#e87070" opacity="0.7"/>

  <!-- 葉っぱ前(体の前に重なる) -->
  <ellipse cx="125" cy="150" rx="28" ry="13" fill="#4a9e24" stroke="#2d263c" stroke-width="7" transform="rotate(-22 125 150)"/>
  <line x1="125" y1="150" x2="146" y2="140" stroke="#2d263c" stroke-width="3" stroke-linecap="round"/>

  <!-- ツルの先の小球 -->
  <circle cx="203" cy="20" r="8" fill="#4a9e24" stroke="#2d263c" stroke-width="5"/>
</svg>