<svg xmlns="http://www.w3.org/2000/svg" viewBox="0 0 360 360">
<path d="M48 158 Q54 70 180 64 Q306 70 312 158 Q250 146 180 146 Q110 146 48 158 Z" fill="#b8d4e8" stroke="#2d263c" stroke-width="7" stroke-linejoin="round"/>
<ellipse cx="180" cy="106" rx="74" ry="48" fill="#eef2f6" stroke="#2d263c" stroke-width="6"/>
<path d="M122 96 Q180 78 238 96" fill="none" stroke="#2d263c" stroke-width="5" stroke-linecap="round"/>
<path d="M140 122 Q180 134 220 122" fill="none" stroke="#2d263c" stroke-width="5" stroke-linecap="round"/>
<ellipse cx="180" cy="108" rx="20" ry="14" fill="#c8a0d0" stroke="#2d263c" stroke-width="4"/>
<path d="M85 155 Q78 230 96 312 Q102 248 108 155 Z" fill="#9bb8d0" stroke="#2d263c" stroke-width="6" stroke-linejoin="round"/>
<path d="M128 155 Q120 240 138 322 Q144 252 150 155 Z" fill="#9bb8d0" stroke="#2d263c" stroke-width="6" stroke-linejoin="round"/>
<path d="M165 155 Q160 250 170 330 Q176 256 180 155 Z" fill="#9bb8d0" stroke="#2d263c" stroke-width="6" stroke-linejoin="round"/>
<path d="M195 155 Q200 250 190 330 Q184 256 180 155 Z" fill="#9bb8d0" stroke="#2d263c" stroke-width="6" stroke-linejoin="round"/>
<path d="M232 155 Q240 240 222 322 Q216 252 210 155 Z" fill="#9bb8d0" stroke="#2d263c" stroke-width="6" stroke-linejoin="round"/>
<path d="M275 155 Q282 230 264 312 Q258 248 252 155 Z" fill="#9bb8d0" stroke="#2d263c" stroke-width="6" stroke-linejoin="round"/>
</svg>