<svg xmlns="http://www.w3.org/2000/svg" viewBox="0 0 360 360">
  <!-- 尻尾(後ろ) -->
  <ellipse cx="295" cy="195" rx="38" ry="22" fill="#f5e8c0" stroke="#2d263c" stroke-width="7" stroke-linejoin="round" transform="rotate(-30 295 195)"/>
  <ellipse cx="315" cy="172" rx="22" ry="14" fill="#f5e8c0" stroke="#2d263c" stroke-width="6" stroke-linejoin="round" transform="rotate(-50 315 172)"/>
  <!-- 後ろ脚(右) -->
  <rect x="248" y="245" width="32" height="48" rx="10" fill="#f07820" stroke="#2d263c" stroke-width="7" stroke-linejoin="round"/>
  <ellipse cx="264" cy="298" rx="20" ry="12" fill="#f5e8c0" stroke="#2d263c" stroke-width="6"/>
  <!-- 縞(後ろ脚右) -->
  <line x1="252" y1="262" x2="276" y2="258" stroke="#2d263c" stroke-width="5" stroke-linecap="round"/>
  <line x1="250" y1="278" x2="276" y2="274" stroke="#2d263c" stroke-width="5" stroke-linecap="round"/>
  <!-- 体 -->
  <ellipse cx="185" cy="230" rx="105" ry="72" fill="#f07820" stroke="#2d263c" stroke-width="8" stroke-linejoin="round"/>
  <!-- 体の縞模様 -->
  <path d="M130 180 Q140 230 128 278" stroke="#2d263c" stroke-width="7" fill="none" stroke-linecap="round"/>
  <path d="M162 170 Q175 225 160 282" stroke="#2d263c" stroke-width="7" fill="none" stroke-linecap="round"/>
  <path d="M200 168 Q210 225 198 284" stroke="#2d263c" stroke-width="6" fill="none" stroke-linecap="round"/>
  <path d="M232 175 Q240 228 230 275" stroke="#2d263c" stroke-width="6" fill="none" stroke-linecap="round"/>
  <!-- 胸のふわふわ -->
  <ellipse cx="148" cy="215" rx="38" ry="42" fill="#f5e8c0" stroke="#2d263c" stroke-width="7" stroke-linejoin="round"/>
  <ellipse cx="135" cy="208" rx="20" ry="22" fill="#f5e8c0" stroke="#2d263c" stroke-width="5" stroke-linejoin="round"/>
  <!-- 前脚(左) -->
  <rect x="95" y="268" width="30" height="50" rx="10" fill="#f07820" stroke="#2d263c" stroke-width="7" stroke-linejoin="round"/>
  <ellipse cx="110" cy="322" rx="20" ry="12" fill="#f5e8c0" stroke="#2d263c" stroke-width="6"/>
  <!-- 縞(前脚左) -->
  <line x1="99" y1="285" x2="121" y2="281" stroke="#2d263c" stroke-width="5" stroke-linecap="round"/>
  <line x1="97" y1="302" x2="121" y2="298" stroke="#2d263c" stroke-width="5" stroke-linecap="round"/>
  <!-- 前脚(右) -->
  <rect x="148" y="272" width="30" height="48" rx="10" fill="#f07820" stroke="#2d263c" stroke-width="7" stroke-linejoin="round"/>
  <ellipse cx="163" cy="324" rx="20" ry="12" fill="#f5e8c0" stroke="#2d263c" stroke-width="6"/>
  <!-- 縞(前脚右) -->
  <line x1="152" y1="288" x2="174" y2="284" stroke="#2d263c" stroke-width="5" stroke-linecap="round"/>
  <!-- 後ろ脚(左) -->
  <rect x="210" y="258" width="32" height="46" rx="10" fill="#f07820" stroke="#2d263c" stroke-width="7" stroke-linejoin="round"/>
  <ellipse cx="226" cy="308" rx="20" ry="12" fill="#f5e8c0" stroke="#2d263c" stroke-width="6"/>
  <line x1="214" y1="272" x2="238" y2="268" stroke="#2d263c" stroke-width="5" stroke-linecap="round"/>
  <!-- 首 -->
  <path d="M130 185 Q118 155 125 130" stroke="#2d263c" stroke-width="8" fill="none" stroke-linecap="round"/>
  <!-- 頭 -->
  <ellipse cx="138" cy="112" rx="55" ry="48" fill="#f07820" stroke="#2d263c" stroke-width="8" stroke-linejoin="round"/>
  <!-- 頭のふわふわ(白い毛) -->
  <ellipse cx="138" cy="80" rx="40" ry="28" fill="#f5e8c0" stroke="#2d263c" stroke-width="6" stroke-linejoin="round"/>
  <ellipse cx="118" cy="85" rx="22" ry="18" fill="#f5e8c0" stroke="#2d263c" stroke-width="5"/>
  <ellipse cx="158" cy="82" rx="20" ry="16" fill="#f5e8c0" stroke="#2d263c" stroke-width="5"/>
  <!-- 耳(左) -->
  <polygon points="95,95 82,48 114,78" fill="#f07820" stroke="#2d263c" stroke-width="7" stroke-linejoin="round"/>
  <polygon points="98,90 88,58 108,76" fill="#2d263c"/>
  <!-- 耳(右) -->
  <polygon points="168,88 175,42 195,76" fill="#f07820" stroke="#2d263c" stroke-width="7" stroke-linejoin="round"/>
  <polygon points="172,85 178,56 192,74" fill="#2d263c"/>
  <!-- 頭の縞 -->
  <path d="M105 108 Q115 95 108 80" stroke="#2d263c" stroke-width="6" fill="none" stroke-linecap="round"/>
  <path d="M165 105 Q158 90 164 76" stroke="#2d263c" stroke-width="6" fill="none" stroke-linecap="round"/>
  <!-- 口まわり(マズル) -->
  <ellipse cx="138" cy="130" rx="30" ry="22" fill="#f5e8c0" stroke="#2d263c" stroke-width="6" stroke-linejoin="round"/>
  <!-- 鼻 -->
  <ellipse cx="138" cy="118" rx="14" ry="10" fill="#2d263c"/>
  <ellipse cx="133" cy="115" rx="4" ry="3" fill="#5a5060"/>
  <!-- 口 -->
  <path d="M122 132 Q138 145 154 132" stroke="#2d263c" stroke-width="5" fill="none" stroke-linecap="round"/>
  <!-- 舌 -->
  <ellipse cx="138" cy="143" rx="10" ry="7" fill="#e8506a" stroke="#2d263c" stroke-width="4"/>
  <!-- 目(左) つり目っぽく -->
  <ellipse cx="115" cy="108" rx="10" ry="9" fill="#fafafa" stroke="#2d263c" stroke-width="5"/>
  <ellipse cx="116" cy="109" rx="6" ry="6" fill="#c84810"/>
  <ellipse cx="118" cy="107" rx="3" ry="3" fill="#1a1020"/>
  <ellipse cx="120" cy="106" rx="1.5" ry="1.5" fill="white"/>
  <!-- 目(右) -->
  <ellipse cx="162" cy="106" rx="10" ry="9" fill="#fafafa" stroke="#2d263c" stroke-width="5"/>
  <ellipse cx="163" cy="107" rx="6" ry="6" fill="#c84810"/>
  <ellipse cx="165" cy="105" rx="3" ry="3" fill="#1a1020"/>
  <ellipse cx="167" cy="104" rx="1.5" ry="1.5" fill="white"/>
  <!-- まゆ(凛々しく) -->
  <path d="M107 100 Q116 96 124 100" stroke="#2d263c" stroke-width="5" fill="none" stroke-linecap="round"/>
  <path d="M153 98 Q161 93 170 97" stroke="#2d263c" stroke-width="5" fill="none" stroke-linecap="round"/>
</svg>