<svg xmlns="http://www.w3.org/2000/svg" viewBox="0 0 360 360">
<polygon points="150,145 96,34 126,58" fill="#e8433a" stroke="#2d263c" stroke-width="6" stroke-linejoin="round" stroke-linecap="round"/>
<polygon points="148,150 58,50 90,80" fill="#f2932a" stroke="#2d263c" stroke-width="6" stroke-linejoin="round" stroke-linecap="round"/>
<polygon points="146,158 26,96 64,118" fill="#f2d23a" stroke="#2d263c" stroke-width="6" stroke-linejoin="round" stroke-linecap="round"/>
<polygon points="144,168 22,172 60,176" fill="#3aa0e8" stroke="#2d263c" stroke-width="6" stroke-linejoin="round" stroke-linecap="round"/>
<polygon points="146,180 26,226 62,212" fill="#6a4ad0" stroke="#2d263c" stroke-width="6" stroke-linejoin="round" stroke-linecap="round"/>
<polygon points="150,192 50,268 78,236" fill="#d048a0" stroke="#2d263c" stroke-width="6" stroke-linejoin="round" stroke-linecap="round"/>
<polygon points="210,145 264,34 234,58" fill="#e8433a" stroke="#2d263c" stroke-width="6" stroke-linejoin="round" stroke-linecap="round"/>
<polygon points="212,150 302,50 270,80" fill="#f2932a" stroke="#2d263c" stroke-width="6" stroke-linejoin="round" stroke-linecap="round"/>
<polygon points="214,158 334,96 296,118" fill="#f2d23a" stroke="#2d263c" stroke-width="6" stroke-linejoin="round" stroke-linecap="round"/>
<polygon points="216,168 338,172 300,176" fill="#3aa0e8" stroke="#2d263c" stroke-width="6" stroke-linejoin="round" stroke-linecap="round"/>
<polygon points="214,180 334,226 298,212" fill="#6a4ad0" stroke="#2d263c" stroke-width="6" stroke-linejoin="round" stroke-linecap="round"/>
<polygon points="210,192 310,268 282,236" fill="#d048a0" stroke="#2d263c" stroke-width="6" stroke-linejoin="round" stroke-linecap="round"/>
<polygon points="180,110 234,172 214,258 146,258 126,172" fill="#232332" stroke="#2d263c" stroke-width="8" stroke-linejoin="round"/>
<polygon points="180,152 208,170 198,202 162,202 152,170" fill="#f0c93c" stroke="#2d263c" stroke-width="5" stroke-linejoin="round"/>
<circle cx="180" cy="178" r="12" fill="#ff5030" stroke="#2d263c" stroke-width="4"/>
<polygon points="128,178 92,208 100,238 122,216" fill="#232332" stroke="#2d263c" stroke-width="6" stroke-linejoin="round"/>
<polygon points="232,178 268,208 260,238 238,216" fill="#232332" stroke="#2d263c" stroke-width="6" stroke-linejoin="round"/>
<circle cx="98" cy="212" r="6" fill="#ff5030" stroke="#2d263c" stroke-width="3"/>
<circle cx="262" cy="212" r="6" fill="#ff5030" stroke="#2d263c" stroke-width="3"/>
<polygon points="180,60 216,98 200,122 160,122 144,98" fill="#232332" stroke="#2d263c" stroke-width="7" stroke-linejoin="round"/>
<polygon points="180,34 196,66 164,66" fill="#4a3a68" stroke="#2d263c" stroke-width="5" stroke-linejoin="round"/>
<ellipse cx="170" cy="94" rx="5" ry="7" fill="#6ac8e0"/>
<ellipse cx="190" cy="94" rx="5" ry="7" fill="#6ac8e0"/>
<polygon points="158,258 138,316 158,316 168,258" fill="#232332" stroke="#2d263c" stroke-width="6" stroke-linejoin="round"/>
<polygon points="202,258 222,316 202,316 192,258" fill="#232332" stroke="#2d263c" stroke-width="6" stroke-linejoin="round"/>
</svg>
