<svg xmlns="http://www.w3.org/2000/svg" viewBox="0 0 360 360">
  <ellipse cx="145" cy="305" rx="24" ry="17" fill="#f3e3b4" stroke="#2d263c" stroke-width="7" stroke-linejoin="round"/>
  <ellipse cx="215" cy="305" rx="24" ry="17" fill="#f3e3b4" stroke="#2d263c" stroke-width="7" stroke-linejoin="round"/>
  <ellipse cx="93" cy="248" rx="22" ry="34" transform="rotate(-24 93 248)" fill="#f3e3b4" stroke="#2d263c" stroke-width="7" stroke-linejoin="round"/>
  <ellipse cx="267" cy="248" rx="22" ry="34" transform="rotate(24 267 248)" fill="#f3e3b4" stroke="#2d263c" stroke-width="7" stroke-linejoin="round"/>
  <ellipse cx="180" cy="252" rx="82" ry="76" fill="#f3e3b4" stroke="#2d263c" stroke-width="8" stroke-linejoin="round"/>
  <ellipse cx="180" cy="272" rx="46" ry="34" fill="#fbf3d9"/>
  <ellipse cx="152" cy="262" rx="8" ry="6" fill="#e0c98a"/>
  <ellipse cx="208" cy="262" rx="8" ry="6" fill="#e0c98a"/>
  <circle cx="180" cy="155" r="80" fill="#f3e3b4" stroke="#2d263c" stroke-width="8"/>
  <path d="M102,150 A78,78 0 0 1 258,150 L258,175 Q180,197 102,175 Z" fill="#d93b2b" stroke="#2d263c" stroke-width="7" stroke-linejoin="round"/>
  <path d="M107,178 Q180,198 253,178 L253,197 Q180,216 107,197 Z" fill="#2b2420" stroke="#2d263c" stroke-width="5" stroke-linejoin="round"/>
  <path d="M111,202 Q180,220 249,202 L249,216 Q180,232 111,216 Z" fill="#fdf6e6" stroke="#2d263c" stroke-width="6" stroke-linejoin="round"/>
  <circle cx="140" cy="114" r="10" fill="#fdf6e6" stroke="#2d263c" stroke-width="4"/>
  <circle cx="181" cy="98" r="12" fill="#fdf6e6" stroke="#2d263c" stroke-width="4"/>
  <circle cx="221" cy="114" r="10" fill="#fdf6e6" stroke="#2d263c" stroke-width="4"/>
  <ellipse cx="135" cy="197" rx="10" ry="8" fill="#f6a6a6" opacity="0.6"/>
  <ellipse cx="226" cy="197" rx="10" ry="8" fill="#f6a6a6" opacity="0.6"/>
  <ellipse cx="154" cy="178" rx="9" ry="12" fill="#241f2b"/>
  <ellipse cx="207" cy="178" rx="9" ry="12" fill="#241f2b"/>
  <path d="M164,203 Q180,212 197,203" fill="none" stroke="#2d263c" stroke-width="6" stroke-linecap="round"/>
</svg>
