<svg xmlns="http://www.w3.org/2000/svg" viewBox="0 0 360 360">
  <!-- tail feathers -->
  <path d="M232,268 Q268,272 284,246 Q262,254 240,250 Z"
        fill="#EFE7D6" stroke="#2d263c" stroke-width="7" stroke-linejoin="round"/>

  <!-- feet -->
  <path d="M148,318 Q140,332 152,338 Q164,332 168,320 Q176,332 190,332 Q198,320 188,312 Q166,308 148,318 Z"
        fill="#F2A73B" stroke="#2d263c" stroke-width="7" stroke-linejoin="round"/>
  <path d="M198,318 Q190,332 202,338 Q214,332 218,320 Q226,332 240,332 Q248,320 238,312 Q216,308 198,318 Z"
        fill="#F2A73B" stroke="#2d263c" stroke-width="7" stroke-linejoin="round"/>

  <!-- body -->
  <ellipse cx="188" cy="228" rx="72" ry="86" fill="#F7F1E1" stroke="#2d263c" stroke-width="8" stroke-linejoin="round"/>

  <!-- fluffy chest detail lines -->
  <path d="M162,236 Q178,246 162,258" fill="none" stroke="#2d263c" stroke-width="5" stroke-linecap="round"/>
  <path d="M188,242 Q204,252 188,264" fill="none" stroke="#2d263c" stroke-width="5" stroke-linecap="round"/>
  <path d="M214,236 Q228,246 214,258" fill="none" stroke="#2d263c" stroke-width="5" stroke-linecap="round"/>

  <!-- left wing -->
  <path d="M124,206 Q100,232 108,270 Q130,266 140,238 Q142,220 132,204 Z"
        fill="#EFE7D6" stroke="#2d263c" stroke-width="7" stroke-linejoin="round"/>

  <!-- right wing -->
  <path d="M252,206 Q276,232 268,270 Q246,266 236,238 Q234,220 244,204 Z"
        fill="#EFE7D6" stroke="#2d263c" stroke-width="7" stroke-linejoin="round"/>

  <!-- neck -->
  <path d="M156,168 Q160,140 188,138 Q216,140 220,168 Q212,186 188,188 Q164,186 156,168 Z"
        fill="#F7F1E1" stroke="#2d263c" stroke-width="7" stroke-linejoin="round"/>

  <!-- head -->
  <circle cx="188" cy="112" r="58" fill="#F7F1E1" stroke="#2d263c" stroke-width="8"/>

  <!-- blue head crest / bandana feather -->
  <path d="M150,78 Q140,42 168,26 Q160,54 172,74 Z"
        fill="#3F7FA6" stroke="#2d263c" stroke-width="7" stroke-linejoin="round"/>
  <path d="M188,66 Q186,28 214,18 Q202,48 208,68 Z"
        fill="#4C93BE" stroke="#2d263c" stroke-width="7" stroke-linejoin="round"/>
  <path d="M222,80 Q232,48 262,42 Q246,68 244,88 Z"
        fill="#3F7FA6" stroke="#2d263c" stroke-width="7" stroke-linejoin="round"/>

  <!-- blue cheek/eye patch swirl -->
  <path d="M140,120 Q128,104 140,90 Q158,92 162,110 Q156,124 140,120 Z"
        fill="#4C93BE" stroke="#2d263c" stroke-width="6" stroke-linejoin="round"/>
  <path d="M236,120 Q248,104 236,90 Q218,92 214,110 Q220,124 236,120 Z"
        fill="#4C93BE" stroke="#2d263c" stroke-width="6" stroke-linejoin="round"/>

  <!-- eyes -->
  <ellipse cx="164" cy="114" rx="11" ry="13" fill="#2d263c"/>
  <ellipse cx="212" cy="114" rx="11" ry="13" fill="#2d263c"/>
  <circle cx="167" cy="109" r="3.5" fill="#F7F1E1"/>
  <circle cx="215" cy="109" r="3.5" fill="#F7F1E1"/>

  <!-- bill -->
  <path d="M168,134 Q188,148 208,134 Q206,152 188,160 Q170,152 168,134 Z"
        fill="#F2A73B" stroke="#2d263c" stroke-width="7" stroke-linejoin="round"/>
  <path d="M172,142 L204,142" fill="none" stroke="#2d263c" stroke-width="4" stroke-linecap="round"/>
</svg>
