<svg xmlns="http://www.w3.org/2000/svg" viewBox="0 0 360 360"><g stroke="#2d263c" stroke-width="7" stroke-linejoin="round" stroke-linecap="round"><path d="M188,300 L205,332 L214,315 L198,326 Z" fill="#2d263c"/><path d="M148,285 L132,330 Q128,340 140,340 L162,340 Q170,340 165,328 L172,288 Z" fill="#f9d31d"/><path d="M212,285 L228,330 Q232,340 220,340 L198,340 Q190,340 195,328 L188,288 Z" fill="#f9d31d"/><path d="M135,315 Q150,320 165,315 L163,325 Q150,330 137,325 Z" fill="#2d263c"/><path d="M225,315 Q210,320 195,315 L197,325 Q210,330 223,325 Z" fill="#2d263c"/><path d="M150,145 C120,160 108,210 118,255 C126,290 150,305 180,308 C210,305 234,290 242,255 C252,210 240,160 210,145 C195,152 165,152 150,145 Z" fill="#f9d31d"/><path d="M128,190 Q180,178 232,190 L230,204 Q180,192 130,204 Z" fill="#2d263c"/><path d="M122,225 Q180,212 238,225 L235,240 Q180,226 125,240 Z" fill="#2d263c"/><path d="M120,258 Q180,246 240,258 L236,272 Q180,258 124,272 Z" fill="#2d263c"/><path d="M142,160 Q100,175 90,215 Q86,235 105,238 Q120,240 122,220 Q124,195 148,172 Z" fill="#f9d31d"/><path d="M218,160 Q260,175 270,215 Q274,235 255,238 Q240,240 238,220 Q236,195 212,172 Z" fill="#f9d31d"/><path d="M92,222 Q106,230 118,222 L116,232 Q104,240 94,232 Z" fill="#2d263c"/><path d="M268,222 Q254,230 242,222 L244,232 Q256,240 266,232 Z" fill="#2d263c"/><path d="M95,235 L88,248 M105,238 L100,252 M113,233 L110,248" fill="none" stroke-width="6"/><path d="M265,235 L272,248 M255,238 L260,252 M247,233 L250,248" fill="none" stroke-width="6"/><path d="M160,58 L145,32 L158,36 L140,20" fill="none" stroke-width="9"/><path d="M200,58 L215,32 L202,36 L220,20" fill="none" stroke-width="9"/><circle cx="180" cy="95" r="50" fill="#f9d31d"/><circle cx="160" cy="90" r="13" fill="#2d263c" stroke="none"/><circle cx="156" cy="85" r="4" fill="#ffffff" stroke="none"/><circle cx="200" cy="90" r="13" fill="#2d263c" stroke="none"/><circle cx="196" cy="85" r="4" fill="#ffffff" stroke="none"/><path d="M148,68 Q160,60 175,66 M185,66 Q200,60 212,68" fill="none" stroke-width="7"/><path d="M165,118 Q180,126 195,118" fill="none" stroke-width="6"/></g></svg>