<svg xmlns="http://www.w3.org/2000/svg" viewBox="0 0 360 360">
  <g stroke="#2d263c" stroke-width="7" stroke-linejoin="round" stroke-linecap="round">
    <path d="M238 246 C276 238 292 206 286 180 C283 166 276 156 266 148 C271 134 280 125 291 119 C300 137 304 156 301 172 C314 165 326 154 333 142 C337 172 322 208 295 230 C277 244 257 252 242 256 Z" fill="#c9a3e3"/>
    <path d="M148 198 C126 228 116 266 120 298 C122 314 134 322 152 322 L232 322 C250 322 258 311 256 294 C252 260 240 226 220 202 Z" fill="#c9a3e3"/>
    <path d="M226 252 C246 260 252 282 248 306" fill="none"/>
    <path d="M158 252 L152 318" fill="none"/>
    <path d="M190 256 L193 318" fill="none"/>
    <path d="M132 118 C118 88 104 56 98 30 C128 48 152 70 166 94 Z" fill="#c9a3e3"/>
    <path d="M133 104 C124 84 116 64 111 48 C129 62 143 78 151 92 Z" fill="#7d57b8"/>
    <path d="M224 116 C240 84 254 54 270 28 C274 60 268 90 250 112 Z" fill="#c9a3e3"/>
    <path d="M232 102 C242 80 251 62 259 46 C261 68 256 86 246 100 Z" fill="#7d57b8"/>
    <path d="M122 150 L94 162 L122 178 Z" fill="#c9a3e3"/>
    <path d="M238 148 L264 158 L236 174 Z" fill="#c9a3e3"/>
    <path d="M178 96 C214 96 240 118 242 148 C243 170 232 188 210 196 C200 200 188 202 178 202 C168 202 154 199 144 194 C124 184 114 167 116 146 C118 117 144 96 178 96 Z" fill="#c9a3e3"/>
    <ellipse cx="178" cy="122" rx="12" ry="14" fill="#e8413c" stroke-width="6"/>
    <path d="M136 148 C144 139 158 139 165 148 C158 158 144 158 136 148 Z" fill="#ffffff" stroke-width="5"/>
    <path d="M193 148 C201 138 216 138 223 149 C215 159 200 159 193 148 Z" fill="#ffffff" stroke-width="5"/>
    <circle cx="152" cy="148" r="5.5" fill="#6a3fb5" stroke="none"/>
    <circle cx="207" cy="148" r="6" fill="#6a3fb5" stroke="none"/>
    <path d="M174 171 L185 171 L179 179 Z" fill="#2d263c" stroke-width="3"/>
    <path d="M179 179 C176 186 168 188 162 184" fill="none" stroke-width="5"/>
    <path d="M179 179 C182 186 190 188 196 184" fill="none" stroke-width="5"/>
  </g>
</svg>