<svg xmlns="http://www.w3.org/2000/svg" viewBox="0 0 360 360">
  <!-- 特徴: ①黄色い筋肉質の体に黒の虎縞模様 ②頭から伸びる2本のツノ(プラグ状アンテナ) ③赤いマスク状の顔 ④腰から伸びる2本のコード状しっぽ(先端はプラグ) ⑤丸くて力強い目と口 -->

  <!-- ===== 後ろ: コード状しっぽ(先にプラグ含む) ===== -->
  <path d="M150,265 C110,275 90,300 85,330 C83,340 90,348 100,345 C108,342 106,330 110,318 C115,300 130,285 155,278 C158,273 155,268 150,265 Z" fill="#333044" stroke="#2d263c" stroke-width="7" stroke-linejoin="round"/>
  <ellipse cx="95" cy="340" rx="13" ry="9" fill="#b7b7c2" stroke="#2d263c" stroke-width="6"/>
  <path d="M210,265 C250,275 270,300 275,330 C277,340 270,348 260,345 C252,342 254,330 250,318 C245,300 230,285 205,278 C202,273 205,268 210,265 Z" fill="#333044" stroke="#2d263c" stroke-width="7" stroke-linejoin="round"/>
  <ellipse cx="265" cy="340" rx="13" ry="9" fill="#b7b7c2" stroke="#2d263c" stroke-width="6"/>

  <!-- ===== 体: 胴体・腕・脚 ===== -->
  <path d="M120,175 C110,220 115,260 130,290 L230,290 C245,260 250,220 240,175 C220,160 140,160 120,175 Z" fill="#f6c445" stroke="#2d263c" stroke-width="8" stroke-linejoin="round"/>

  <path d="M122,185 C95,190 78,215 72,245 C70,258 80,268 95,262 C108,257 108,240 112,225 C116,210 128,200 135,192 C130,187 126,185 122,185 Z" fill="#f6c445" stroke="#2d263c" stroke-width="7" stroke-linejoin="round"/>
  <circle cx="80" cy="258" r="18" fill="#333044" stroke="#2d263c" stroke-width="7"/>

  <path d="M238,185 C265,190 282,215 288,245 C290,258 280,268 265,262 C252,257 252,240 248,225 C244,210 232,200 225,192 C230,187 234,185 238,185 Z" fill="#f6c445" stroke="#2d263c" stroke-width="7" stroke-linejoin="round"/>
  <circle cx="280" cy="258" r="18" fill="#333044" stroke="#2d263c" stroke-width="7"/>

  <path d="M140,285 L135,325 Q133,335 145,336 L165,336 Q170,330 165,320 L160,285 Z" fill="#f6c445" stroke="#2d263c" stroke-width="7" stroke-linejoin="round"/>
  <path d="M220,285 L225,325 Q227,335 215,336 L195,336 Q190,330 195,320 L200,285 Z" fill="#f6c445" stroke="#2d263c" stroke-width="7" stroke-linejoin="round"/>
  <ellipse cx="150" cy="333" rx="20" ry="10" fill="#333044" stroke="#2d263c" stroke-width="7"/>
  <ellipse cx="210" cy="333" rx="20" ry="10" fill="#333044" stroke="#2d263c" stroke-width="7"/>

  <path d="M130,270 Q180,286 230,270 L228,254 Q180,268 132,254 Z" fill="#333044" stroke="#2d263c" stroke-width="6" stroke-linejoin="round"/>
  <path d="M145,195 Q157,215 146,236" fill="none" stroke="#2d263c" stroke-width="8" stroke-linecap="round"/>
  <path d="M215,195 Q203,215 214,236" fill="none" stroke="#2d263c" stroke-width="8" stroke-linecap="round"/>
  <path d="M168,200 Q180,222 192,200" fill="none" stroke="#2d263c" stroke-width="7" stroke-linecap="round"/>

  <!-- ===== 顔 ===== -->
  <path d="M150,70 Q118,28 100,48 Q108,68 140,82 Z" fill="#333044" stroke="#2d263c" stroke-width="7" stroke-linejoin="round"/>
  <path d="M210,70 Q242,28 260,48 Q252,68 220,82 Z" fill="#333044" stroke="#2d263c" stroke-width="7" stroke-linejoin="round"/>

  <circle cx="180" cy="115" r="58" fill="#f6c445" stroke="#2d263c" stroke-width="8"/>

  <ellipse cx="180" cy="150" rx="38" ry="28" fill="#e0483c" stroke="#2d263c" stroke-width="7"/>

  <ellipse cx="158" cy="103" rx="13" ry="16" fill="#fefaf1" stroke="#2d263c" stroke-width="6"/>
  <ellipse cx="202" cy="103" rx="13" ry="16" fill="#fefaf1" stroke="#2d263c" stroke-width="6"/>
  <circle cx="160" cy="107" r="6" fill="#221f2c"/>
  <circle cx="200" cy="107" r="6" fill="#221f2c"/>

  <path d="M164,152 Q180,163 196,152" fill="none" stroke="#2d263c" stroke-width="6" stroke-linecap="round"/>
</svg>
