<svg xmlns="http://www.w3.org/2000/svg" viewBox="0 0 360 360">
  <path d="M214,270 C255,258 292,222 298,160 C300,125 288,95 272,80 C266,92 274,95 276,110 C280,140 270,175 245,205 C225,228 205,248 195,262 C200,268 208,270 214,270 Z" fill="#9c5aae" stroke="#2d263c" stroke-width="7" stroke-linejoin="round"/>
  <path d="M165,296 C158,308 152,320 148,332 C156,338 166,338 172,332 C176,320 178,308 178,296 C174,292 168,292 165,296 Z" fill="#9c5aae" stroke="#2d263c" stroke-width="7" stroke-linejoin="round"/>
  <path d="M195,296 C202,308 208,320 212,332 C204,338 194,338 188,332 C184,320 182,308 182,296 C186,292 192,292 195,296 Z" fill="#9c5aae" stroke="#2d263c" stroke-width="7" stroke-linejoin="round"/>
  <ellipse cx="160" cy="335" rx="17" ry="11" fill="#f5e3ac" stroke="#2d263c" stroke-width="7"/>
  <ellipse cx="200" cy="335" rx="17" ry="11" fill="#f5e3ac" stroke="#2d263c" stroke-width="7"/>
  <path d="M150,170 C110,182 90,215 82,250 C90,262 100,262 106,252 C118,222 132,195 162,183 C158,175 154,172 150,170 Z" fill="#9c5aae" stroke="#2d263c" stroke-width="7" stroke-linejoin="round"/>
  <path d="M210,170 C250,182 270,215 278,250 C270,262 260,262 254,252 C242,222 228,195 198,183 C202,175 206,172 210,170 Z" fill="#9c5aae" stroke="#2d263c" stroke-width="7" stroke-linejoin="round"/>
  <path d="M140,168 C126,195 124,240 136,278 C144,305 160,325 180,328 C200,325 216,305 224,278 C236,240 234,195 220,168 C205,150 155,150 140,168 Z" fill="#9c5aae" stroke="#2d263c" stroke-width="8" stroke-linejoin="round"/>
  <ellipse cx="180" cy="245" rx="32" ry="52" fill="#f5e3ac" stroke="#2d263c" stroke-width="6"/>
  <circle cx="90" cy="256" r="17" fill="#f5e3ac" stroke="#2d263c" stroke-width="7"/>
  <circle cx="270" cy="256" r="17" fill="#f5e3ac" stroke="#2d263c" stroke-width="7"/>
  <circle cx="180" cy="112" r="56" fill="#9c5aae" stroke="#2d263c" stroke-width="8"/>
  <circle cx="124" cy="76" r="30" fill="#9c5aae" stroke="#2d263c" stroke-width="7"/>
  <circle cx="124" cy="80" r="16" fill="#f5e3ac" stroke="#2d263c" stroke-width="6"/>
  <circle cx="236" cy="76" r="30" fill="#9c5aae" stroke="#2d263c" stroke-width="7"/>
  <circle cx="236" cy="80" r="16" fill="#f5e3ac" stroke="#2d263c" stroke-width="6"/>
  <ellipse cx="180" cy="128" rx="44" ry="38" fill="#f5e3ac" stroke="#2d263c" stroke-width="7"/>
  <circle cx="163" cy="120" r="13" fill="#ffffff" stroke="#2d263c" stroke-width="6"/>
  <circle cx="165" cy="123" r="7" fill="#2d263c"/>
  <circle cx="162" cy="118" r="2.5" fill="#ffffff"/>
  <circle cx="197" cy="120" r="13" fill="#ffffff" stroke="#2d263c" stroke-width="6"/>
  <circle cx="195" cy="123" r="7" fill="#2d263c"/>
  <circle cx="192" cy="118" r="2.5" fill="#ffffff"/>
  <ellipse cx="180" cy="138" rx="5" ry="4" fill="#2d263c"/>
  <path d="M166,146 Q180,156 194,146" fill="none" stroke="#2d263c" stroke-width="6" stroke-linecap="round"/>
  <circle cx="278" cy="68" r="17" fill="#f5e3ac" stroke="#2d263c" stroke-width="7"/>
  <ellipse cx="268" cy="54" rx="6" ry="10" fill="#f5e3ac" stroke="#2d263c" stroke-width="6"/>
  <ellipse cx="282" cy="50" rx="6" ry="10" fill="#f5e3ac" stroke="#2d263c" stroke-width="6"/>
  <ellipse cx="294" cy="58" rx="6" ry="10" fill="#f5e3ac" stroke="#2d263c" stroke-width="6"/>
</svg>
