<svg xmlns="http://www.w3.org/2000/svg" viewBox="0 0 360 360">
<g fill="none" stroke="#2d263c" stroke-width="7" stroke-linejoin="round" stroke-linecap="round">
  <path d="M100,205 C75,165 50,110 38,55 C62,80 92,115 108,165 C114,185 108,200 100,205 Z" fill="#c9c7cc"/>
  <path d="M105,208 C95,170 100,120 96,75 C118,105 128,150 122,195 Z" fill="#bdbac0"/>
  <path d="M115,210 C128,178 148,145 158,115 C152,155 142,190 130,208 Z" fill="#c9c7cc"/>
  <path d="M38,55 L52,70 L32,76 Z" fill="#4a4550" stroke-width="5"/>
  <path d="M96,75 L108,88 L86,90 Z" fill="#4a4550" stroke-width="5"/>
  <path d="M158,115 L164,132 L146,124 Z" fill="#4a4550" stroke-width="5"/>

  <path d="M118,150 Q100,145 102,180 Q98,215 132,228 L248,230 Q278,218 274,178 Q278,142 244,136 Q182,120 118,150 Z" fill="#8b3a2a"/>

  <ellipse cx="188" cy="213" rx="70" ry="24" fill="#e9cba3"/>

  <rect x="128" y="214" width="26" height="88" rx="12" fill="#3b2318"/>
  <rect x="124" y="280" width="34" height="24" rx="10" fill="#c9c7cc"/>
  <rect x="163" y="222" width="26" height="90" rx="12" fill="#3b2318"/>
  <rect x="159" y="290" width="34" height="24" rx="10" fill="#c9c7cc"/>
  <rect x="208" y="218" width="26" height="88" rx="12" fill="#3b2318"/>
  <rect x="204" y="282" width="34" height="24" rx="10" fill="#c9c7cc"/>
  <rect x="245" y="210" width="26" height="94" rx="12" fill="#3b2318"/>
  <rect x="241" y="282" width="34" height="24" rx="10" fill="#c9c7cc"/>

  <path d="M120,150 L136,106 L150,144 L166,100 L182,144 L198,103 L214,144 L230,108 L246,144 L246,155 L120,155 Z" fill="#c9c7cc"/>

  <path d="M232,120 C250,95 285,90 305,110 C320,125 322,150 312,168 C300,150 290,175 275,180 C265,158 250,175 238,158 C228,145 225,132 232,120 Z" fill="#d3d1d5"/>

  <path d="M255,88 Q228,90 222,118 Q216,148 238,166 L272,178 Q308,172 322,150 Q334,128 314,106 Q292,82 255,88 Z" fill="#8b3a2a"/>

  <path d="M244,96 L232,64 L258,90 Z" fill="#8b3a2a"/>
  <path d="M270,88 L282,58 L288,92 Z" fill="#8b3a2a"/>

  <circle cx="252" cy="128" r="11" fill="#e63946"/>
  <circle cx="255" cy="128" r="5" fill="#1a1a1a" stroke="none"/>
  <path d="M238,112 Q252,102 266,110" fill="none"/>
  <path d="M318,142 L330,150 L316,156 Z" fill="#1a1a1a" stroke="none"/>
  <path d="M275,178 Q290,188 308,180" fill="none"/>
  <path d="M270,180 L266,192 L276,184 Z" fill="#f5f0e6" stroke="none"/>
  <path d="M292,184 L296,196 L300,182 Z" fill="#f5f0e6" stroke="none"/>

  <path d="M150,150 Q160,165 150,182" fill="none" stroke-width="6"/>
  <path d="M200,140 Q210,160 198,178" fill="none" stroke-width="6"/>
  <rect x="245" y="235" width="26" height="8" fill="#1a1a1a" stroke="none"/>
  <rect x="208" y="245" width="26" height="8" fill="#1a1a1a" stroke="none"/>
</g>
</svg>
