<svg xmlns="http://www.w3.org/2000/svg" viewBox="0 0 360 360">
  <ellipse cx="145" cy="318" rx="26" ry="20" fill="#FFCC33" stroke="#2d263c" stroke-width="7" stroke-linejoin="round"/>
  <ellipse cx="215" cy="318" rx="26" ry="20" fill="#FFCC33" stroke="#2d263c" stroke-width="7" stroke-linejoin="round"/>

  <ellipse cx="180" cy="235" rx="66" ry="76" fill="#FFCC33" stroke="#2d263c" stroke-width="8" stroke-linejoin="round"/>

  <path d="M118,222 Q180,240 242,222 L242,248 Q180,266 118,248 Z" fill="#2a2440" stroke="#2d263c" stroke-width="6" stroke-linejoin="round"/>

  <path d="M128,190 Q92,205 90,228 L112,235 Q118,208 148,198 Z" fill="#FFCC33" stroke="#2d263c" stroke-width="7" stroke-linejoin="round"/>
  <ellipse cx="72" cy="252" rx="24" ry="19" fill="#2a2440" stroke="#2d263c" stroke-width="7" stroke-linejoin="round"/>
  <line x1="55" y1="240" x2="47" y2="211" stroke="#2a2440" stroke-width="9" stroke-linecap="round"/>
  <line x1="72" y1="236" x2="70" y2="205" stroke="#2a2440" stroke-width="9" stroke-linecap="round"/>
  <line x1="89" y1="240" x2="97" y2="211" stroke="#2a2440" stroke-width="9" stroke-linecap="round"/>

  <path d="M232,190 Q268,205 270,228 L248,235 Q242,208 212,198 Z" fill="#FFCC33" stroke="#2d263c" stroke-width="7" stroke-linejoin="round"/>
  <ellipse cx="288" cy="252" rx="24" ry="19" fill="#2a2440" stroke="#2d263c" stroke-width="7" stroke-linejoin="round"/>
  <line x1="305" y1="240" x2="313" y2="211" stroke="#2a2440" stroke-width="9" stroke-linecap="round"/>
  <line x1="288" y1="236" x2="290" y2="205" stroke="#2a2440" stroke-width="9" stroke-linecap="round"/>
  <line x1="271" y1="240" x2="263" y2="211" stroke="#2a2440" stroke-width="9" stroke-linecap="round"/>

  <circle cx="180" cy="130" r="60" fill="#FFCC33" stroke="#2d263c" stroke-width="8"/>

  <path d="M132,105 L98,55 L155,100 Z" fill="#2a2440" stroke="#2d263c" stroke-width="7" stroke-linejoin="round"/>
  <path d="M162,98 L180,30 L198,98 Z" fill="#2a2440" stroke="#2d263c" stroke-width="7" stroke-linejoin="round"/>
  <path d="M228,105 L262,55 L205,100 Z" fill="#2a2440" stroke="#2d263c" stroke-width="7" stroke-linejoin="round"/>

  <path d="M122,140 L106,151 L120,160 Z" fill="#2a2440" stroke="#2d263c" stroke-width="5" stroke-linejoin="round"/>
  <path d="M238,140 L254,151 L240,160 Z" fill="#2a2440" stroke="#2d263c" stroke-width="5" stroke-linejoin="round"/>

  <circle cx="155" cy="125" r="12" fill="#201c2e" stroke="#2d263c" stroke-width="5"/>
  <circle cx="205" cy="125" r="12" fill="#201c2e" stroke="#2d263c" stroke-width="5"/>
  <circle cx="151" cy="121" r="3" fill="#ffffff"/>
  <circle cx="201" cy="121" r="3" fill="#ffffff"/>

  <circle cx="180" cy="140" r="5" fill="#e8a800" stroke="#2d263c" stroke-width="4"/>

  <path d="M167,155 Q180,164 193,155" fill="none" stroke="#2d263c" stroke-width="6" stroke-linecap="round"/>
</svg>
