<svg xmlns="http://www.w3.org/2000/svg" viewBox="0 0 360 360">
  <path d="M230,252 C270,246 300,210 294,176 C290,152 268,136 249,141 C234,145 227,159 234,169 C240,177 251,175 253,168 C254,163 250,161 247,163 L243,150 C266,147 286,165 285,186 C284,211 259,233 224,236 Z" fill="#ffc7d9" stroke="#2d263c" stroke-width="7" stroke-linejoin="round"/>
  <path d="M110,320 C90,262 96,216 130,196 C150,184 210,184 230,196 C266,216 270,262 250,320 C230,340 130,340 110,320 Z" fill="#fdf3df" stroke="#2d263c" stroke-width="8" stroke-linejoin="round" stroke-linecap="round"/>
  <ellipse cx="180" cy="262" rx="42" ry="58" fill="#fffaf0"/>
  <ellipse cx="140" cy="322" rx="28" ry="18" fill="#fdf3df" stroke="#2d263c" stroke-width="7"/>
  <ellipse cx="222" cy="322" rx="28" ry="18" fill="#fdf3df" stroke="#2d263c" stroke-width="7"/>
  <ellipse cx="140" cy="326" rx="12" ry="7" fill="#ffb3c6"/>
  <ellipse cx="222" cy="326" rx="12" ry="7" fill="#ffb3c6"/>
  <path d="M118,148 L90,50 L168,102 Z" fill="#fdf3df" stroke="#2d263c" stroke-width="7" stroke-linejoin="round"/>
  <path d="M238,148 L266,50 L188,102 Z" fill="#fdf3df" stroke="#2d263c" stroke-width="7" stroke-linejoin="round"/>
  <circle cx="178" cy="140" r="72" fill="#fdf3df" stroke="#2d263c" stroke-width="8"/>
  <path d="M124,132 L104,72 L152,100 Z" fill="#ffb3c6" stroke="#2d263c" stroke-width="5" stroke-linejoin="round"/>
  <path d="M232,132 L252,72 L204,100 Z" fill="#ffb3c6" stroke="#2d263c" stroke-width="5" stroke-linejoin="round"/>
  <circle cx="123" cy="176" r="12" fill="#ffb3c6"/>
  <circle cx="233" cy="176" r="12" fill="#ffb3c6"/>
  <line x1="120" y1="176" x2="58" y2="164" stroke="#2d263c" stroke-width="5" stroke-linecap="round"/>
  <line x1="120" y1="190" x2="56" y2="196" stroke="#2d263c" stroke-width="5" stroke-linecap="round"/>
  <line x1="238" y1="176" x2="300" y2="164" stroke="#2d263c" stroke-width="5" stroke-linecap="round"/>
  <line x1="238" y1="190" x2="302" y2="196" stroke="#2d263c" stroke-width="5" stroke-linecap="round"/>
  <circle cx="150" cy="146" r="20" fill="#4aa8d8" stroke="#2d263c" stroke-width="6"/>
  <circle cx="210" cy="146" r="20" fill="#4aa8d8" stroke="#2d263c" stroke-width="6"/>
  <circle cx="150" cy="149" r="8" fill="#241e2e"/>
  <circle cx="210" cy="149" r="8" fill="#241e2e"/>
  <circle cx="144" cy="139" r="5" fill="#ffffff"/>
  <circle cx="204" cy="139" r="5" fill="#ffffff"/>
  <path d="M172,173 L188,173 L180,183 Z" fill="#ffb3c6" stroke="#2d263c" stroke-width="5" stroke-linejoin="round"/>
  <path d="M180,183 L180,192 M167,193 Q180,206 180,192 M193,193 Q180,206 180,192" fill="none" stroke="#2d263c" stroke-width="6" stroke-linecap="round" stroke-linejoin="round"/>
</svg>
