<svg xmlns="http://www.w3.org/2000/svg" viewBox="0 0 360 360">
  <!-- しっぽ(後ろ) -->
  <path d="M 210 255 Q 270 270 295 305 Q 310 325 285 330 Q 260 335 240 310 Q 220 285 205 275 Z" fill="#4a5faa" stroke="#2d263c" stroke-width="7" stroke-linejoin="round" stroke-linecap="round"/>
  <!-- しっぽ腹側 -->
  <path d="M 210 262 Q 265 278 288 315 Q 278 324 255 315 Q 233 298 212 272 Z" fill="#d4e0a8"/>

  <!-- 後ろ足(左) -->
  <path d="M 155 265 Q 140 280 130 300 Q 125 315 138 318 Q 152 310 158 295 Q 163 278 165 268 Z" fill="#4a5faa" stroke="#2d263c" stroke-width="7" stroke-linejoin="round" stroke-linecap="round"/>
  <!-- 後ろ足(右) -->
  <path d="M 195 268 Q 205 285 218 298 Q 228 310 220 318 Q 208 322 198 308 Q 188 290 186 272 Z" fill="#4a5faa" stroke="#2d263c" stroke-width="7" stroke-linejoin="round" stroke-linecap="round"/>

  <!-- 胴体メイン -->
  <path d="M 100 175 Q 95 155 108 138 Q 125 118 155 110 Q 185 103 215 110 Q 245 118 258 140 Q 268 162 262 188 Q 255 218 235 245 Q 215 268 185 275 Q 155 280 132 262 Q 108 242 100 215 Q 94 197 100 175 Z" fill="#4a5faa" stroke="#2d263c" stroke-width="8" stroke-linejoin="round" stroke-linecap="round"/>

  <!-- 腹部 -->
  <path d="M 135 165 Q 128 185 130 208 Q 133 232 148 252 Q 165 268 183 270 Q 200 270 215 254 Q 228 238 230 215 Q 232 192 225 170 Q 215 150 183 145 Q 152 143 135 165 Z" fill="#d4e0a8" stroke="#2d263c" stroke-width="4" stroke-linejoin="round"/>

  <!-- 腹の縦線(模様) -->
  <path d="M 178 155 Q 176 185 177 215 Q 178 240 180 265" fill="none" stroke="#b8c890" stroke-width="3" stroke-linecap="round"/>
  <path d="M 155 165 Q 153 195 155 220" fill="none" stroke="#b8c890" stroke-width="2.5" stroke-linecap="round"/>
  <path d="M 203 165 Q 205 195 204 220" fill="none" stroke="#b8c890" stroke-width="2.5" stroke-linecap="round"/>

  <!-- 背中の斑点 -->
  <ellipse cx="148" cy="148" rx="10" ry="7" fill="#3a4e99" transform="rotate(-15 148 148)"/>
  <ellipse cx="218" cy="148" rx="10" ry="7" fill="#3a4e99" transform="rotate(15 218 148)"/>
  <ellipse cx="180" cy="135" rx="8" ry="6" fill="#3a4e99"/>

  <!-- 前足(左) -->
  <path d="M 105 195 Q 82 200 68 212 Q 58 224 65 233 Q 74 240 86 232 Q 98 222 108 210 Z" fill="#4a5faa" stroke="#2d263c" stroke-width="7" stroke-linejoin="round" stroke-linecap="round"/>
  <!-- 前足指 -->
  <path d="M 65 233 Q 58 242 54 250" fill="none" stroke="#2d263c" stroke-width="5" stroke-linecap="round"/>
  <path d="M 72 238 Q 67 248 65 256" fill="none" stroke="#2d263c" stroke-width="5" stroke-linecap="round"/>
  <path d="M 80 240 Q 77 250 76 258" fill="none" stroke="#2d263c" stroke-width="5" stroke-linecap="round"/>

  <!-- 前足(右) -->
  <path d="M 252 198 Q 275 203 289 215 Q 300 227 292 236 Q 282 242 270 234 Q 258 224 250 210 Z" fill="#4a5faa" stroke="#2d263c" stroke-width="7" stroke-linejoin="round" stroke-linecap="round"/>
  <!-- 前足指 -->
  <path d="M 292 236 Q 300 245 304 252" fill="none" stroke="#2d263c" stroke-width="5" stroke-linecap="round"/>
  <path d="M 284 240 Q 290 250 292 258" fill="none" stroke="#2d263c" stroke-width="5" stroke-linecap="round"/>
  <path d="M 276 242 Q 280 252 280 260" fill="none" stroke="#2d263c" stroke-width="5" stroke-linecap="round"/>

  <!-- 首 -->
  <path d="M 138 115 Q 132 100 138 85 Q 148 68 178 62 Q 208 58 220 75 Q 228 90 222 108 Z" fill="#4a5faa" stroke="#2d263c" stroke-width="7" stroke-linejoin="round"/>

  <!-- 頭部 -->
  <ellipse cx="180" cy="68" rx="55" ry="48" fill="#4a5faa" stroke="#2d263c" stroke-width="8" stroke-linejoin="round"/>

  <!-- 左エラ(扇型) -->
  <path d="M 128 55 Q 108 38 92 28 Q 80 20 75 32 Q 72 44 85 52 Q 98 60 118 65 Z" fill="#e05070" stroke="#2d263c" stroke-width="6" stroke-linejoin="round" stroke-linecap="round"/>
  <path d="M 125 58 Q 100 42 82 36" fill="none" stroke="#c03050" stroke-width="2.5" stroke-linecap="round"/>
  <path d="M 122 65 Q 96 52 78 50" fill="none" stroke="#c03050" stroke-width="2.5" stroke-linecap="round"/>
  <path d="M 127 72 Q 104 64 88 64" fill="none" stroke="#c03050" stroke-width="2.5" stroke-linecap="round"/>

  <!-- 右エラ(扇型) -->
  <path d="M 232 55 Q 252 38 268 28 Q 280 20 285 32 Q 288 44 275 52 Q 262 60 242 65 Z" fill="#e05070" stroke="#2d263c" stroke-width="6" stroke-linejoin="round" stroke-linecap="round"/>
  <path d="M 235 58 Q 260 42 278 36" fill="none" stroke="#c03050" stroke-width="2.5" stroke-linecap="round"/>
  <path d="M 238 65 Q 264 52 282 50" fill="none" stroke="#c03050" stroke-width="2.5" stroke-linecap="round"/>
  <path d="M 233 72 Q 256 64 272 64" fill="none" stroke="#c03050" stroke-width="2.5" stroke-linecap="round"/>

  <!-- 頭の小さな角(V字) -->
  <path d="M 168 26 Q 162 12 158 4" fill="none" stroke="#2d263c" stroke-width="7" stroke-linecap="round"/>
  <path d="M 175 23 Q 175 8 175 0" fill="none" stroke="#2d263c" stroke-width="7" stroke-linecap="round"/>
  <path d="M 182 23 Q 188 8 192 0" fill="none" stroke="#2d263c" stroke-width="7" stroke-linecap="round"/>
  <!-- 角の色 -->
  <path d="M 168 26 Q 162 12 158 4" fill="none" stroke="#4a5faa" stroke-width="4" stroke-linecap="round"/>
  <path d="M 175 23 Q 175 8 175 0" fill="none" stroke="#4a5faa" stroke-width="4" stroke-linecap="round"/>
  <path d="M 182 23 Q 188 8 192 0" fill="none" stroke="#4a5faa" stroke-width="4" stroke-linecap="round"/>

  <!-- 左目 白目 -->
  <ellipse cx="155" cy="65" rx="16" ry="17" fill="white" stroke="#2d263c" stroke-width="5"/>
  <!-- 右目 白目 -->
  <ellipse cx="205" cy="63" rx="15" ry="16" fill="white" stroke="#2d263c" stroke-width="5"/>
  <!-- 左目 黄色 -->
  <ellipse cx="155" cy="66" rx="11" ry="12" fill="#f5d020"/>
  <!-- 右目 黄色 -->
  <ellipse cx="205" cy="64" rx="10" ry="11" fill="#f5d020"/>
  <!-- 左瞳孔 -->
  <ellipse cx="157" cy="67" rx="6" ry="7" fill="#1a1230"/>
  <!-- 右瞳孔 -->
  <ellipse cx="207" cy="65" rx="6" ry="7" fill="#1a1230"/>
  <!-- 目のハイライト -->
  <ellipse cx="160" cy="63" rx="3" ry="3" fill="white"/>
  <ellipse cx="210" cy="61" rx="3" ry="3" fill="white"/>

  <!-- ほっぺ赤み -->
  <ellipse cx="138" cy="80" rx="10" ry="7" fill="#e8807a" opacity="0.7"/>
  <ellipse cx="222" cy="78" rx="10" ry="7" fill="#e8807a" opacity="0.7"/>

  <!-- 口(ちょっとニヤッと) -->
  <path d="M 163 90 Q 180 100 197 90" fill="none" stroke="#2d263c" stroke-width="5" stroke-linecap="round"/>
  <path d="M 163 90 Q 160 96 165 98" fill="none" stroke="#2d263c" stroke-width="4" stroke-linecap="round"/>
  <path d="M 197 90 Q 200 96 196 98" fill="none" stroke="#2d263c" stroke-width="4" stroke-linecap="round"/>

  <!-- 後ろ足の指 -->
  <path d="M 130 318 Q 124 328 120 336" fill="none" stroke="#2d263c" stroke-width="5" stroke-linecap="round"/>
  <path d="M 138 320 Q 134 330 133 338" fill="none" stroke="#2d263c" stroke-width="5" stroke-linecap="round"/>
  <path d="M 146 318 Q 144 328 145 335" fill="none" stroke="#2d263c" stroke-width="5" stroke-linecap="round"/>
  <path d="M 220 318 Q 226 328 230 336" fill="none" stroke="#2d263c" stroke-width="5" stroke-linecap="round"/>
  <path d="M 212 320 Q 216 330 217 338" fill="none" stroke="#2d263c" stroke-width="5" stroke-linecap="round"/>
  <path d="M 204 318 Q 206 328 205 335" fill="none" stroke="#2d263c" stroke-width="5" stroke-linecap="round"/>
</svg>