<svg xmlns="http://www.w3.org/2000/svg" viewBox="0 0 360 360">
<g stroke="#2d263c" stroke-width="7" stroke-linejoin="round" stroke-linecap="round">
<path d="M152 90 L142 30 Q158 24 166 60 L168 95 Z" fill="#f3ede0"/>
<path d="M208 90 L218 30 Q202 24 194 60 L192 95 Z" fill="#f3ede0"/>
<path d="M142 30 Q150 20 159 30 Q154 50 150 56 Q145 46 142 30 Z" fill="#ff6a2c"/>
<path d="M218 30 Q210 20 201 30 Q206 50 210 56 Q215 46 218 30 Z" fill="#ff6a2c"/>
<ellipse cx="180" cy="140" rx="56" ry="50" fill="#f3ede0"/>
<ellipse cx="180" cy="240" rx="55" ry="58" fill="#f3ede0"/>
<path d="M150 285 Q148 322 170 326 Q182 327 180 295 Z" fill="#f3ede0"/>
<path d="M210 285 Q212 322 190 326 Q178 327 180 295 Z" fill="#f3ede0"/>
<path d="M130 205 Q110 235 124 258 Q140 255 144 230 Z" fill="#f3ede0"/>
<path d="M230 205 Q250 235 236 258 Q220 255 216 230 Z" fill="#f3ede0"/>
<path d="M108 250 Q98 240 108 230 Q120 238 116 252 Z" fill="#ff6a2c"/>
<path d="M252 250 Q262 240 252 230 Q240 238 244 252 Z" fill="#ff6a2c"/>
<circle cx="161" cy="138" r="11" fill="#ffd23f"/>
<circle cx="199" cy="138" r="11" fill="#ffd23f"/>
<circle cx="163" cy="140" r="5" fill="#2d263c"/>
<circle cx="201" cy="140" r="5" fill="#2d263c"/>
<path d="M172 158 Q180 167 188 158 Z" fill="#2d263c"/>
</g>
</svg>