<svg xmlns="http://www.w3.org/2000/svg" viewBox="0 0 360 360">
  <!-- 尻尾 -->
  <path d="M120 280 Q92 296 96 268 Q104 252 124 260" fill="#8A5AB8" stroke="#2d263c" stroke-width="7" stroke-linejoin="round" stroke-linecap="round"/>
  <!-- 足 左 -->
  <rect x="138" y="288" width="26" height="34" rx="12" fill="#7A4AAC" stroke="#2d263c" stroke-width="7"/>
  <!-- 足 右 -->
  <rect x="196" y="288" width="26" height="34" rx="12" fill="#7A4AAC" stroke="#2d263c" stroke-width="7"/>
  <!-- 体 -->
  <ellipse cx="180" cy="232" rx="74" ry="78" fill="#9A6AC4" stroke="#2d263c" stroke-width="8" stroke-linejoin="round"/>
  <!-- おむつ風の腹(白) -->
  <path d="M140 250 Q180 300 220 250 Q200 286 180 286 Q160 286 140 250Z" fill="#F4ECF8" stroke="#2d263c" stroke-width="6" stroke-linejoin="round"/>
  <!-- 頭 -->
  <ellipse cx="180" cy="150" rx="70" ry="66" fill="#A67ACE" stroke="#2d263c" stroke-width="8" stroke-linejoin="round"/>
  <!-- 頭のとげ -->
  <path d="M180 94 Q176 74 188 68 Q196 76 190 94" fill="#7A4AAC" stroke="#2d263c" stroke-width="6" stroke-linejoin="round"/>
  <!-- こめかみの丸 -->
  <ellipse cx="124" cy="150" rx="14" ry="20" fill="#8A5AB8" stroke="#2d263c" stroke-width="6"/>
  <ellipse cx="236" cy="150" rx="14" ry="20" fill="#8A5AB8" stroke="#2d263c" stroke-width="6"/>
  <!-- 目 左 -->
  <ellipse cx="154" cy="150" rx="20" ry="24" fill="#FFFFFF" stroke="#2d263c" stroke-width="6"/>
  <ellipse cx="156" cy="154" rx="8" ry="11" fill="#241f2e"/>
  <circle cx="152" cy="146" r="4" fill="#ffffff"/>
  <!-- 目 右 -->
  <ellipse cx="206" cy="150" rx="20" ry="24" fill="#FFFFFF" stroke="#2d263c" stroke-width="6"/>
  <ellipse cx="204" cy="154" rx="8" ry="11" fill="#241f2e"/>
  <circle cx="200" cy="146" r="4" fill="#ffffff"/>
  <!-- 口 -->
  <path d="M168 184 Q180 194 192 184" fill="none" stroke="#2d263c" stroke-width="6" stroke-linecap="round"/>
</svg>
