<svg xmlns="http://www.w3.org/2000/svg" viewBox="0 0 360 360">
  <!-- 尻尾(後ろレイヤー) -->
  <path d="M 210 230 Q 270 210 300 240 Q 330 265 320 295 Q 310 320 285 310 Q 260 298 250 275 Q 238 255 225 248" fill="#f5c800" stroke="#2d263c" stroke-width="7" stroke-linejoin="round" stroke-linecap="round"/>
  <!-- 尻尾先端オレンジ -->
  <path d="M 285 310 Q 260 298 250 275 Q 265 290 280 298 Q 295 305 300 315 Q 292 322 285 310" fill="#f08c00" stroke="#2d263c" stroke-width="5" stroke-linejoin="round" stroke-linecap="round"/>

  <!-- 後ろ足(左) -->
  <path d="M 165 255 Q 150 275 145 295 Q 140 310 155 312 Q 165 313 168 300 Q 170 285 175 270" fill="#f5c800" stroke="#2d263c" stroke-width="7" stroke-linejoin="round" stroke-linecap="round"/>
  <!-- 後ろ足つま先(左) -->
  <path d="M 145 310 Q 135 318 130 315 M 155 312 Q 150 320 148 316 M 168 308 Q 165 318 162 315" fill="none" stroke="#2d263c" stroke-width="5" stroke-linecap="round"/>

  <!-- 体 -->
  <ellipse cx="185" cy="215" rx="58" ry="72" fill="#f5c800" stroke="#2d263c" stroke-width="8" stroke-linejoin="round"/>

  <!-- 腹 -->
  <ellipse cx="180" cy="228" rx="32" ry="48" fill="#fffbe8" stroke="#2d263c" stroke-width="4" stroke-linejoin="round"/>

  <!-- 前足(右・体の前) -->
  <path d="M 215 220 Q 238 230 245 250 Q 248 265 240 268 Q 232 270 228 255 Q 222 238 215 228" fill="#f5c800" stroke="#2d263c" stroke-width="7" stroke-linejoin="round" stroke-linecap="round"/>
  <!-- 前足つま先(右) -->
  <path d="M 240 268 Q 248 278 245 280 M 232 270 Q 236 280 232 282 M 225 268 Q 226 278 222 278" fill="none" stroke="#2d263c" stroke-width="5" stroke-linecap="round"/>

  <!-- 前足(左) -->
  <path d="M 155 222 Q 132 232 125 252 Q 122 267 130 270 Q 138 272 143 257 Q 148 240 155 232" fill="#f5c800" stroke="#2d263c" stroke-width="7" stroke-linejoin="round" stroke-linecap="round"/>
  <!-- 前足つま先(左) -->
  <path d="M 130 270 Q 122 280 126 282 M 138 272 Q 135 282 132 283 M 145 270 Q 144 280 140 282" fill="none" stroke="#2d263c" stroke-width="5" stroke-linecap="round"/>

  <!-- 後ろ足(右) -->
  <path d="M 205 258 Q 220 278 225 298 Q 228 313 215 315 Q 204 315 202 300 Q 200 283 200 268" fill="#f5c800" stroke="#2d263c" stroke-width="7" stroke-linejoin="round" stroke-linecap="round"/>
  <!-- 後ろ足つま先(右) -->
  <path d="M 215 315 Q 222 324 225 320 M 205 316 Q 206 325 203 323 M 196 312 Q 192 322 190 318" fill="none" stroke="#2d263c" stroke-width="5" stroke-linecap="round"/>

  <!-- 首 -->
  <path d="M 165 155 Q 168 140 178 132 Q 195 122 210 138 Q 218 150 212 162" fill="#f5c800" stroke="#2d263c" stroke-width="7" stroke-linejoin="round" stroke-linecap="round"/>

  <!-- 頭 -->
  <ellipse cx="190" cy="118" rx="46" ry="42" fill="#f5c800" stroke="#2d263c" stroke-width="8" stroke-linejoin="round"/>

  <!-- 電気の毛束/突起(頭頂) -->
  <path d="M 180 80 L 172 55 L 183 72 L 185 45 L 192 68 L 198 50 L 200 74 L 208 58 L 205 80" fill="#ffe000" stroke="#2d263c" stroke-width="6" stroke-linejoin="round" stroke-linecap="round"/>

  <!-- 耳(小さい三角) -->
  <path d="M 155 95 L 145 72 L 168 88" fill="#f5c800" stroke="#2d263c" stroke-width="6" stroke-linejoin="round"/>
  <path d="M 222 90 L 232 70 L 215 88" fill="#f5c800" stroke="#2d263c" stroke-width="6" stroke-linejoin="round"/>

  <!-- ほっぺ(赤みオレンジの電気袋) -->
  <ellipse cx="158" cy="128" rx="14" ry="11" fill="#f07030" stroke="#2d263c" stroke-width="4"/>
  <ellipse cx="222" cy="126" rx="13" ry="10" fill="#f07030" stroke="#2d263c" stroke-width="4"/>
  <!-- ほっぺ内側ハイライト -->
  <ellipse cx="158" cy="127" rx="6" ry="4" fill="#f8a060" opacity="0.6"/>
  <ellipse cx="222" cy="125" rx="5" ry="4" fill="#f8a060" opacity="0.6"/>

  <!-- 目(大きくてくりっとした) -->
  <ellipse cx="173" cy="108" rx="13" ry="14" fill="#1a1a2e" stroke="#2d263c" stroke-width="4"/>
  <ellipse cx="207" cy="107" rx="12" ry="13" fill="#1a1a2e" stroke="#2d263c" stroke-width="4"/>
  <!-- 目のハイライト -->
  <circle cx="168" cy="103" r="4" fill="white"/>
  <circle cx="202" cy="102" r="3.5" fill="white"/>
  <circle cx="176" cy="114" r="2" fill="white" opacity="0.7"/>

  <!-- 鼻(小さいドット) -->
  <circle cx="186" cy="118" r="2.5" fill="#2d263c"/>
  <circle cx="193" cy="117" r="2.5" fill="#2d263c"/>

  <!-- 口(ゆるっとした笑い) -->
  <path d="M 176 128 Q 190 140 204 127" fill="none" stroke="#2d263c" stroke-width="5" stroke-linecap="round"/>

  <!-- 体の縞模様(黄色の濃い帯) -->
  <path d="M 160 190 Q 185 185 210 190" fill="none" stroke="#d4a800" stroke-width="4" stroke-linecap="round"/>
  <path d="M 158 207 Q 183 202 208 207" fill="none" stroke="#d4a800" stroke-width="3.5" stroke-linecap="round"/>
  <path d="M 163 224 Q 183 220 203 224" fill="none" stroke="#d4a800" stroke-width="3" stroke-linecap="round"/>

  <!-- しっぽのオレンジ縞 -->
  <path d="M 268 222 Q 280 230 286 244" fill="none" stroke="#f08c00" stroke-width="5" stroke-linecap="round"/>
  <path d="M 295 256 Q 305 268 304 282" fill="none" stroke="#f08c00" stroke-width="4" stroke-linecap="round"/>
</svg>