<svg xmlns="http://www.w3.org/2000/svg" viewBox="0 0 360 360">
  <g stroke="#2d263c" stroke-width="6" stroke-linejoin="round" stroke-linecap="round">
    <path d="M152 252 L58 246 L126 268 L76 306 L148 278 Z" fill="#9aa6b8"/>
    <path d="M230 194 L324 138 L272 202 L338 200 L272 226 L320 264 L236 242 Z" fill="#c8323c"/>
    <path d="M140 196 L42 142 L112 198 L30 202 L114 224 L66 256 L140 234 Z" fill="#c8323c"/>
    <path d="M158 278 L152 320 L166 322 L170 280 Z" fill="#c0392b"/>
    <path d="M152 320 L140 334 M159 322 L158 338 M166 322 L176 334" fill="none"/>
    <path d="M196 278 L200 324 L214 320 L208 276 Z" fill="#c0392b"/>
    <path d="M200 324 L190 336 M206 324 L208 338 M213 321 L222 332" fill="none"/>
    <path d="M132 232 C128 196 156 176 186 180 C222 185 242 212 234 248 C227 282 192 294 162 284 C140 277 135 258 132 232 Z" fill="#c8d0dc"/>
    <path d="M150 262 C172 274 204 270 222 252" fill="none"/>
    <path d="M168 212 C160 168 176 128 194 102 L230 116 C214 144 206 182 214 212 Z" fill="#c8d0dc"/>
    <path d="M176 186 C188 192 200 192 210 186" fill="none"/>
    <path d="M180 158 C192 164 202 164 212 158" fill="none"/>
    <path d="M208 72 L166 26 L190 86 L136 58 L186 96 Z" fill="#8f9bb0"/>
    <path d="M240 84 L326 96 L312 122 L306 102 L240 110 Z" fill="#9aa6b8"/>
    <path d="M242 112 L286 115 L243 124 Z" fill="#8f9bb0"/>
    <path d="M186 100 C184 78 198 64 216 66 C236 68 246 84 242 102 C238 120 220 128 204 122 C192 118 187 112 186 100 Z" fill="#c8d0dc"/>
    <circle cx="216" cy="92" r="10" fill="#f7d02c"/>
    <circle cx="218" cy="93" r="3.5" fill="#2d263c" stroke="none"/>
  </g>
</svg>