<svg xmlns="http://www.w3.org/2000/svg" viewBox="0 0 360 360">
  <g stroke="#2d263c" stroke-width="7" stroke-linejoin="round" stroke-linecap="round">
    <path d="M232 248 C 278 252 306 228 312 192 C 315 174 310 162 302 154 C 314 144 324 126 327 106 C 315 116 305 121 298 123 C 299 108 295 94 287 85 C 282 102 277 116 269 126 C 252 136 246 158 252 178 C 254 200 246 226 226 238 Z" fill="#c9a4e4"/>
    <path d="M118 128 C 98 95 96 58 112 32 C 138 52 152 90 150 122 Z" fill="#c9a4e4"/>
    <path d="M228 126 C 250 92 252 56 236 30 C 210 50 196 88 198 120 Z" fill="#c9a4e4"/>
    <path d="M119 114 C 110 96 109 72 116 54 C 129 68 137 95 136 112 Z" fill="#8a5fc0" stroke="none"/>
    <path d="M227 112 C 236 93 237 70 231 52 C 218 66 210 93 211 110 Z" fill="#8a5fc0" stroke="none"/>
    <ellipse cx="222" cy="270" rx="27" ry="36" fill="#c9a4e4"/>
    <path d="M138 192 C 118 232 112 278 124 308 C 130 320 148 324 176 324 C 208 324 228 320 234 306 C 244 276 238 230 216 196 Z" fill="#c9a4e4"/>
    <path d="M156 254 L 153 316" fill="none"/>
    <path d="M194 256 L 197 316" fill="none"/>
    <ellipse cx="148" cy="316" rx="19" ry="11" fill="#c9a4e4"/>
    <ellipse cx="201" cy="316" rx="19" ry="11" fill="#c9a4e4"/>
    <path d="M114 166 L 82 176 L 108 190 L 88 203 L 116 206 Z" fill="#c9a4e4"/>
    <path d="M234 162 L 264 170 L 240 186 L 260 198 L 232 202 Z" fill="#c9a4e4"/>
    <ellipse cx="173" cy="155" rx="66" ry="56" fill="#c9a4e4"/>
    <ellipse cx="172" cy="119" rx="13" ry="10" fill="#e23b4e"/>
    <ellipse cx="146" cy="152" rx="15" ry="18" fill="#ffffff" stroke-width="6"/>
    <ellipse cx="202" cy="149" rx="16" ry="19" fill="#ffffff" stroke-width="6"/>
    <circle cx="147" cy="154" r="9" fill="#6b3fae" stroke="none"/>
    <circle cx="201" cy="151" r="9.5" fill="#6b3fae" stroke="none"/>
    <circle cx="143" cy="148" r="3.2" fill="#ffffff" stroke="none"/>
    <circle cx="197" cy="145" r="3.2" fill="#ffffff" stroke="none"/>
    <path d="M166 168 L 180 167 L 173 176 Z" fill="#2d263c" stroke-width="4"/>
    <path d="M173 177 C 170 187 161 189 155 183" fill="none" stroke-width="5"/>
    <path d="M173 177 C 176 187 185 189 191 184" fill="none" stroke-width="5"/>
  </g>
</svg>