<svg xmlns="http://www.w3.org/2000/svg" viewBox="0 0 360 360">
  <circle cx="180" cy="195" r="155" fill="none" stroke="#d9a8e8" stroke-width="6" stroke-dasharray="4 10" stroke-linecap="round" opacity="0.6"/>
  <circle cx="180" cy="195" r="132" fill="none" stroke="#d9a8e8" stroke-width="5" stroke-dasharray="3 9" stroke-linecap="round" opacity="0.5"/>
  <path d="M180 60 L188 78 L172 78 Z" fill="#ffe066" stroke="#2d263c" stroke-width="6" stroke-linejoin="round" stroke-linecap="round"/>
  <path d="M258 88 L268 104 L250 104 Z" fill="#ffe066" stroke="#2d263c" stroke-width="6" stroke-linejoin="round" stroke-linecap="round"/>
  <path d="M100 90 L110 106 L92 106 Z" fill="#ffe066" stroke="#2d263c" stroke-width="6" stroke-linejoin="round" stroke-linecap="round"/>
  <path d="M118 300 Q60 320 78 340 Q120 335 132 308 Z" fill="#b565c9" stroke="#2d263c" stroke-width="7" stroke-linejoin="round" stroke-linecap="round"/>
  <path d="M242 300 Q300 320 282 340 Q240 335 228 308 Z" fill="#b565c9" stroke="#2d263c" stroke-width="7" stroke-linejoin="round" stroke-linecap="round"/>
  <path d="M248 190 Q300 210 310 260 Q312 300 285 320 Q265 300 268 270 Q255 235 240 220 Z" fill="#b565c9" stroke="#2d263c" stroke-width="7" stroke-linejoin="round" stroke-linecap="round"/>
  <path d="M285 320 Q300 300 320 310 Q315 335 290 340 Z" fill="#ffcc33" stroke="#2d263c" stroke-width="6" stroke-linejoin="round" stroke-linecap="round"/>
  <ellipse cx="180" cy="215" rx="78" ry="98" fill="#b565c9" stroke="#2d263c" stroke-width="8" stroke-linejoin="round"/>
  <ellipse cx="180" cy="235" rx="45" ry="60" fill="#d9a2e8" stroke="none"/>
  <path d="M108 170 Q120 150 140 165 Q155 145 180 160 Q205 145 220 165 Q240 150 252 170 Q235 190 180 188 Q125 190 108 170 Z" fill="#ffcc33" stroke="#2d263c" stroke-width="7" stroke-linejoin="round" stroke-linecap="round"/>
  <circle cx="180" cy="112" r="60" fill="#c375d4" stroke="#2d263c" stroke-width="8"/>
  <path d="M150 145 Q180 158 210 145 Q200 165 180 168 Q160 165 150 145 Z" fill="#8a3fa0" stroke="#2d263c" stroke-width="6" stroke-linejoin="round"/>
  <circle cx="152" cy="102" r="16" fill="#fff176" stroke="#2d263c" stroke-width="6"/>
  <circle cx="208" cy="102" r="16" fill="#fff176" stroke="#2d263c" stroke-width="6"/>
  <circle cx="152" cy="105" r="6" fill="#b71c1c"/>
  <circle cx="208" cy="105" r="6" fill="#b71c1c"/>
  <path d="M165 128 Q180 136 195 128" fill="none" stroke="#2d263c" stroke-width="6" stroke-linecap="round"/>
  <ellipse cx="140" cy="205" rx="9" ry="13" fill="#8a3fa0" stroke="#2d263c" stroke-width="5"/>
  <ellipse cx="180" cy="185" rx="9" ry="12" fill="#8a3fa0" stroke="#2d263c" stroke-width="5"/>
  <ellipse cx="218" cy="210" rx="9" ry="13" fill="#8a3fa0" stroke="#2d263c" stroke-width="5"/>
  <ellipse cx="130" cy="300" rx="22" ry="16" fill="#a35ec0" stroke="#2d263c" stroke-width="7"/>
  <ellipse cx="230" cy="300" rx="22" ry="16" fill="#a35ec0" stroke="#2d263c" stroke-width="7"/>
  <ellipse cx="150" cy="315" rx="14" ry="10" fill="#ffcc33" stroke="#2d263c" stroke-width="5"/>
  <ellipse cx="210" cy="315" rx="14" ry="10" fill="#ffcc33" stroke="#2d263c" stroke-width="5"/>
</svg>
