<svg xmlns="http://www.w3.org/2000/svg" viewBox="0 0 360 360">
  <rect x="150" y="290" width="26" height="42" rx="13" ry="13" fill="#B87F52" stroke="#2d263c" stroke-width="7" stroke-linejoin="round"/>
  <rect x="184" y="290" width="26" height="42" rx="13" ry="13" fill="#B87F52" stroke="#2d263c" stroke-width="7" stroke-linejoin="round"/>
  <ellipse cx="163" cy="332" rx="26" ry="12" fill="#F2DFC0" stroke="#2d263c" stroke-width="6"/>
  <ellipse cx="197" cy="332" rx="26" ry="12" fill="#F2DFC0" stroke="#2d263c" stroke-width="6"/>
  <ellipse cx="180" cy="235" rx="66" ry="75" fill="#B87F52" stroke="#2d263c" stroke-width="7"/>
  <ellipse cx="180" cy="250" rx="34" ry="46" fill="#F2DFC0" stroke="#2d263c" stroke-width="6"/>
  <path d="M128,165 Q88,185 80,215" stroke="#2d263c" stroke-width="40" fill="none" stroke-linecap="round"/>
  <path d="M128,165 Q88,185 80,215" stroke="#B87F52" stroke-width="28" fill="none" stroke-linecap="round"/>
  <path d="M232,165 Q276,175 284,205" stroke="#2d263c" stroke-width="42" fill="none" stroke-linecap="round"/>
  <path d="M232,165 Q276,175 284,205" stroke="#B87F52" stroke-width="30" fill="none" stroke-linecap="round"/>
  <circle cx="80" cy="218" r="40" fill="#D93B3B" stroke="#2d263c" stroke-width="7"/>
  <circle cx="284" cy="208" r="42" fill="#D93B3B" stroke="#2d263c" stroke-width="7"/>
  <circle cx="180" cy="100" r="46" fill="#B87F52" stroke="#2d263c" stroke-width="7"/>
  <path d="M145,62 L128,20 L160,58 Z" fill="#7A4B23" stroke="#2d263c" stroke-width="7" stroke-linejoin="round"/>
  <path d="M168,54 L180,14 L192,54 Z" fill="#7A4B23" stroke="#2d263c" stroke-width="7" stroke-linejoin="round"/>
  <path d="M200,58 L232,20 L215,62 Z" fill="#7A4B23" stroke="#2d263c" stroke-width="7" stroke-linejoin="round"/>
  <ellipse cx="180" cy="128" rx="26" ry="18" fill="#F2DFC0" stroke="#2d263c" stroke-width="6"/>
  <ellipse cx="163" cy="95" rx="7" ry="9" fill="#2d263c"/>
  <ellipse cx="197" cy="95" rx="7" ry="9" fill="#2d263c"/>
  <circle cx="165" cy="91" r="2" fill="#ffffff"/>
  <circle cx="199" cy="91" r="2" fill="#ffffff"/>
  <path d="M160,132 Q180,142 200,132" stroke="#2d263c" stroke-width="6" fill="none" stroke-linecap="round"/>
</svg>
