<svg xmlns="http://www.w3.org/2000/svg" viewBox="0 0 360 360">
<ellipse cx="180" cy="300" rx="70" ry="18" fill="#2d263c" opacity="0.15"/>
<path d="M110 250 L100 300 L130 300 L140 255 Z" fill="#3f8f4f" stroke="#2d263c" stroke-width="7" stroke-linejoin="round"/>
<path d="M250 250 L260 300 L230 300 L220 255 Z" fill="#3f8f4f" stroke="#2d263c" stroke-width="7" stroke-linejoin="round"/>
<path d="M115 300 L95 312 L135 312 Z" fill="#232028" stroke="#2d263c" stroke-width="6" stroke-linejoin="round"/>
<path d="M245 300 L265 312 L225 312 Z" fill="#232028" stroke="#2d263c" stroke-width="6" stroke-linejoin="round"/>
<path d="M115 130 Q90 190 105 260 Q180 285 255 260 Q270 190 245 130 Q180 100 115 130 Z" fill="#4caf5f" stroke="#2d263c" stroke-width="8" stroke-linejoin="round"/>
<path d="M140 175 Q180 165 220 175 L215 210 Q180 218 145 210 Z" fill="#e9e4d8" stroke="#2d263c" stroke-width="6" stroke-linejoin="round"/>
<path d="M150 225 Q180 235 210 225 L206 250 Q180 257 154 250 Z" fill="#e9e4d8" stroke="#2d263c" stroke-width="6" stroke-linejoin="round"/>
<path d="M95 165 Q55 150 40 175 Q75 200 60 235 Q100 230 118 200 Z" fill="#3f8f4f" stroke="#2d263c" stroke-width="7" stroke-linejoin="round"/>
<path d="M265 165 Q305 150 320 175 Q285 200 300 235 Q260 230 242 200 Z" fill="#3f8f4f" stroke="#2d263c" stroke-width="7" stroke-linejoin="round"/>
<circle cx="55" cy="205" r="26" fill="#f4f1e6" stroke="#2d263c" stroke-width="7"/>
<circle cx="305" cy="205" r="26" fill="#f4f1e6" stroke="#2d263c" stroke-width="7"/>
<path d="M120 95 Q180 60 240 95 Q245 145 180 160 Q115 145 120 95 Z" fill="#4caf5f" stroke="#2d263c" stroke-width="8" stroke-linejoin="round"/>
<path d="M145 100 Q180 85 215 100 L205 130 Q180 138 155 130 Z" fill="#232028" stroke="#2d263c" stroke-width="6" stroke-linejoin="round"/>
<ellipse cx="158" cy="112" rx="12" ry="15" fill="#fff"/>
<ellipse cx="202" cy="112" rx="12" ry="15" fill="#fff"/>
<circle cx="158" cy="115" r="6" fill="#232028"/>
<circle cx="202" cy="115" r="6" fill="#232028"/>
<path d="M110 90 L75 55 L90 50 L125 82 Z" fill="#2d263c" stroke="#2d263c" stroke-width="5" stroke-linejoin="round"/>
<path d="M250 90 L285 55 L270 50 L235 82 Z" fill="#2d263c" stroke="#2d263c" stroke-width="5" stroke-linejoin="round"/>
<path d="M155 145 Q180 155 205 145" fill="none" stroke="#2d263c" stroke-width="6" stroke-linecap="round"/>
</svg>
