<svg xmlns="http://www.w3.org/2000/svg" viewBox="0 0 360 360">
  <ellipse cx="180" cy="300" rx="120" ry="34" fill="#1c1622" opacity="0.18"/>
  <path d="M110 300 Q95 190 120 100 Q140 40 180 32 Q220 40 240 100 Q265 190 250 300 Q220 320 180 322 Q140 320 110 300 Z" fill="#c22b2b" stroke="#2d263c" stroke-width="8" stroke-linejoin="round" stroke-linecap="round"/>
  <path d="M128 300 Q120 210 132 130 Q170 118 188 130 Q200 210 192 300 Q160 314 128 300 Z" fill="#f4ede1" stroke="#2d263c" stroke-width="7" stroke-linejoin="round" stroke-linecap="round"/>
  <path d="M112 150 Q125 172 112 196 Q104 176 100 158 Z" fill="#1c1622" stroke="#2d263c" stroke-width="6" stroke-linejoin="round" stroke-linecap="round"/>
  <path d="M248 150 Q235 172 248 196 Q256 176 260 158 Z" fill="#1c1622" stroke="#2d263c" stroke-width="6" stroke-linejoin="round" stroke-linecap="round"/>
  <circle cx="180" cy="112" r="58" fill="#f5a334" stroke="#2d263c" stroke-width="8"/>
  <path d="M180 60 Q198 78 186 96 Q176 84 166 96 Q160 78 180 60 Z" fill="#ffd764" stroke="#2d263c" stroke-width="6" stroke-linejoin="round"/>
  <path d="M136 100 Q124 78 108 74 Q116 96 128 112 Z" fill="#1c1622" stroke="#2d263c" stroke-width="6" stroke-linejoin="round"/>
  <path d="M224 100 Q236 78 252 74 Q244 96 232 112 Z" fill="#1c1622" stroke="#2d263c" stroke-width="6" stroke-linejoin="round"/>
  <circle cx="158" cy="118" r="15" fill="#fff" stroke="#2d263c" stroke-width="6"/>
  <circle cx="202" cy="118" r="15" fill="#fff" stroke="#2d263c" stroke-width="6"/>
  <circle cx="160" cy="120" r="6" fill="#1c1622"/>
  <circle cx="204" cy="120" r="6" fill="#1c1622"/>
  <path d="M164 140 Q180 150 196 140" fill="none" stroke="#2d263c" stroke-width="6" stroke-linecap="round"/>
  <path d="M126 150 Q118 148 112 152" fill="none" stroke="#c22b2b" stroke-width="6" stroke-linecap="round"/>
  <path d="M234 150 Q242 148 248 152" fill="none" stroke="#c22b2b" stroke-width="6" stroke-linecap="round"/>
  <path d="M118 178 Q108 210 112 240" fill="none" stroke="#1c1622" stroke-width="9" stroke-linecap="round"/>
  <path d="M242 178 Q252 210 248 240" fill="none" stroke="#1c1622" stroke-width="9" stroke-linecap="round"/>
  <path d="M96 210 Q78 226 82 250" fill="none" stroke="#1c1622" stroke-width="9" stroke-linecap="round"/>
  <path d="M264 210 Q282 226 278 250" fill="none" stroke="#1c1622" stroke-width="9" stroke-linecap="round"/>
  <path d="M138 300 Q128 244 148 200" fill="none" stroke="#f5a334" stroke-width="9" stroke-linecap="round"/>
  <path d="M222 300 Q232 244 212 200" fill="none" stroke="#f5a334" stroke-width="9" stroke-linecap="round"/>
  <path d="M118 300 Q140 314 168 316 L162 296 Q140 292 122 282 Z" fill="#1c1622" stroke="#2d263c" stroke-width="7" stroke-linejoin="round"/>
  <path d="M242 300 Q220 314 192 316 L198 296 Q220 292 238 282 Z" fill="#1c1622" stroke="#2d263c" stroke-width="7" stroke-linejoin="round"/>
  <ellipse cx="140" cy="330" rx="30" ry="16" fill="#f4ede1" stroke="#2d263c" stroke-width="7"/>
  <ellipse cx="220" cy="330" rx="30" ry="16" fill="#f4ede1" stroke="#2d263c" stroke-width="7"/>
  <path d="M126 328 l10 -8 l10 8 l-10 8 Z" fill="#1c1622"/>
  <path d="M206 328 l10 -8 l10 8 l-10 8 Z" fill="#1c1622"/>
  <path d="M160 200 Q180 212 200 200" fill="none" stroke="#8f1d1d" stroke-width="6" stroke-linecap="round"/>
</svg>
