<svg xmlns="http://www.w3.org/2000/svg" viewBox="0 0 360 360"><g stroke="#2d263c" stroke-width="7" stroke-linejoin="round" stroke-linecap="round" fill="none"><path d="M210,195 L300,132 L292,168 L333,176 L308,200 L332,228 L294,226 L298,254 L232,232 Z" fill="#b03a32"/><path d="M152,198 L58,142 L74,176 L34,188 L64,206 L30,234 L76,230 L70,258 L136,236 Z" fill="#b03a32"/><path d="M158,250 L106,298 L134,284 L122,322 L154,292 L162,328 L180,288 Z" fill="#c9ccd6"/><path d="M168,260 L162,314 M162,314 L146,330 M162,314 L163,332 M162,314 L177,328" stroke-width="11"/><path d="M168,260 L162,314 M162,314 L146,330 M162,314 L163,332 M162,314 L177,328" stroke="#a8503a" stroke-width="5"/><path d="M202,262 L204,316 M204,316 L189,330 M204,316 L207,333 M204,316 L219,329" stroke-width="11"/><path d="M202,262 L204,316 M204,316 L189,330 M204,316 L207,333 M204,316 L219,329" stroke="#a8503a" stroke-width="5"/><ellipse cx="182" cy="218" rx="58" ry="48" fill="#c9ccd6"/><path d="M152,238 Q182,268 216,234 Q206,256 182,258 Q160,256 152,238 Z" fill="#98a0ae" stroke-width="6"/><path d="M160,108 C154,138 150,162 146,186 L208,190 C202,160 198,134 196,106 Z" fill="#c9ccd6"/><path d="M154,140 Q176,150 200,138 M150,164 Q176,174 204,162" stroke-width="6"/><path d="M172,70 L128,30 L150,60 L152,36 L182,64 Z" fill="#c9ccd6"/><ellipse cx="183" cy="90" rx="31" ry="27" fill="#c9ccd6"/><path d="M210,102 L284,114 L212,116 Z" fill="#8890a0"/><path d="M206,76 L262,68 L270,80 L298,82 L214,98 Z" fill="#8890a0"/><circle cx="190" cy="85" r="9" fill="#f2c83c" stroke-width="6"/><circle cx="193" cy="85" r="3.5" fill="#2d263c" stroke="none"/><path d="M176,67 L204,77" stroke-width="6"/></g></svg>