<svg xmlns="http://www.w3.org/2000/svg" viewBox="0 0 360 360">
  <!-- 尻尾 -->
  <path d="M 265 230 Q 295 215 290 240 Q 285 260 270 255 Q 258 250 265 230 Z" fill="#1a1a2e" stroke="#2d263c" stroke-width="6" stroke-linejoin="round"/>

  <!-- 後ろ足(左) -->
  <ellipse cx="115" cy="295" rx="32" ry="22" fill="#1a1a2e" stroke="#2d263c" stroke-width="7" stroke-linejoin="round"/>
  <rect x="100" y="308" width="36" height="20" rx="10" fill="#1a1a2e" stroke="#2d263c" stroke-width="6" stroke-linejoin="round"/>
  <!-- 赤い縞(左後足) -->
  <rect x="103" y="308" width="10" height="18" rx="4" fill="#c0392b" stroke="none"/>
  <rect x="117" y="308" width="10" height="18" rx="4" fill="#c0392b" stroke="none"/>

  <!-- 後ろ足(右) -->
  <ellipse cx="248" cy="295" rx="32" ry="22" fill="#1a1a2e" stroke="#2d263c" stroke-width="7" stroke-linejoin="round"/>
  <rect x="228" y="308" width="36" height="20" rx="10" fill="#1a1a2e" stroke="#2d263c" stroke-width="6" stroke-linejoin="round"/>
  <!-- 赤い縞(右後足) -->
  <rect x="231" y="308" width="10" height="18" rx="4" fill="#c0392b" stroke="none"/>
  <rect x="245" y="308" width="10" height="18" rx="4" fill="#c0392b" stroke="none"/>

  <!-- 体本体 -->
  <ellipse cx="182" cy="230" rx="105" ry="95" fill="#1a1a2e" stroke="#2d263c" stroke-width="8" stroke-linejoin="round"/>

  <!-- 赤い腹 -->
  <ellipse cx="182" cy="245" rx="68" ry="65" fill="#c0392b" stroke="#2d263c" stroke-width="5" stroke-linejoin="round"/>

  <!-- 腹の黒い渦巻き模様 -->
  <path d="M 182 230 Q 190 218 182 210 Q 170 200 162 212 Q 155 226 168 235 Q 180 242 188 232 Q 196 222 190 212" fill="none" stroke="#1a1a2e" stroke-width="5" stroke-linecap="round"/>

  <!-- 前足(左) -->
  <ellipse cx="110" cy="258" rx="28" ry="35" fill="#1a1a2e" stroke="#2d263c" stroke-width="7" stroke-linejoin="round"/>
  <ellipse cx="108" cy="290" rx="24" ry="14" fill="#1a1a2e" stroke="#2d263c" stroke-width="6" stroke-linejoin="round"/>
  <!-- 赤い縞(左前足) -->
  <rect x="98" y="260" width="10" height="20" rx="4" fill="#c0392b" stroke="none"/>
  <rect x="112" y="255" width="10" height="20" rx="4" fill="#c0392b" stroke="none"/>

  <!-- 前足(右) -->
  <ellipse cx="254" cy="258" rx="28" ry="35" fill="#1a1a2e" stroke="#2d263c" stroke-width="7" stroke-linejoin="round"/>
  <ellipse cx="256" cy="290" rx="24" ry="14" fill="#1a1a2e" stroke="#2d263c" stroke-width="6" stroke-linejoin="round"/>
  <!-- 赤い縞(右前足) -->
  <rect x="244" y="260" width="10" height="20" rx="4" fill="#c0392b" stroke="none"/>
  <rect x="258" y="255" width="10" height="20" rx="4" fill="#c0392b" stroke="none"/>

  <!-- 炎のたてがみ(後ろ層) -->
  <path d="M 140 160 Q 118 125 128 100 Q 140 78 135 55 Q 150 80 148 105 Q 158 80 162 50 Q 170 82 165 110 Q 175 85 180 55 Q 188 85 183 112 Q 192 82 200 55 Q 205 88 198 115 Q 210 90 222 65 Q 220 92 208 115 Q 222 95 238 78 Q 230 108 215 125 Q 225 118 240 120 Q 222 140 205 148 Q 220 148 232 158 Q 210 162 192 165" fill="#e67e22" stroke="#d35400" stroke-width="3" stroke-linejoin="round"/>

  <!-- 首・顔の付け根 -->
  <ellipse cx="182" cy="165" rx="65" ry="50" fill="#1a1a2e" stroke="#2d263c" stroke-width="7" stroke-linejoin="round"/>

  <!-- 炎のたてがみ前面(顎まわり) -->
  <path d="M 140 175 Q 125 185 120 200 Q 128 210 145 205 Q 135 218 140 230 Q 155 225 160 210 Q 158 225 162 238 Q 175 228 175 212 Q 178 228 182 240 Q 188 228 188 212 Q 192 228 198 238 Q 200 225 198 210 Q 205 225 218 230 Q 222 218 215 205 Q 232 210 240 200 Q 235 185 220 175" fill="#e67e22" stroke="#d35400" stroke-width="3" stroke-linejoin="round"/>
  <!-- 炎の内側(明るい) -->
  <path d="M 152 190 Q 145 200 150 212 Q 162 208 168 198 Q 162 210 168 220 Q 178 215 180 205 Q 182 215 188 220 Q 196 210 190 198 Q 196 208 210 212 Q 214 200 207 190" fill="#f39c12" stroke="none"/>

  <!-- 頭 -->
  <ellipse cx="182" cy="130" rx="72" ry="68" fill="#1a1a2e" stroke="#2d263c" stroke-width="8" stroke-linejoin="round"/>

  <!-- 耳(左) -->
  <path d="M 125 90 Q 108 60 118 42 Q 130 55 132 78 Z" fill="#1a1a2e" stroke="#2d263c" stroke-width="7" stroke-linejoin="round"/>
  <!-- 耳(右) -->
  <path d="M 240 90 Q 255 60 244 42 Q 232 55 230 78 Z" fill="#1a1a2e" stroke="#2d263c" stroke-width="7" stroke-linejoin="round"/>

  <!-- 顔の赤い部分 -->
  <ellipse cx="182" cy="140" rx="52" ry="45" fill="#c0392b" stroke="#2d263c" stroke-width="5" stroke-linejoin="round"/>

  <!-- 目(左) - 怒り顔 -->
  <ellipse cx="158" cy="118" rx="16" ry="14" fill="#e74c3c" stroke="#2d263c" stroke-width="5" stroke-linejoin="round"/>
  <ellipse cx="158" cy="120" rx="9" ry="8" fill="#2d263c" stroke="none"/>
  <ellipse cx="155" cy="118" rx="3" ry="2.5" fill="white" stroke="none"/>
  <!-- まゆ毛(左・怒り) -->
  <line x1="146" y1="106" x2="168" y2="111" stroke="#1a1a2e" stroke-width="6" stroke-linecap="round"/>

  <!-- 目(右) - 怒り顔 -->
  <ellipse cx="207" cy="118" rx="16" ry="14" fill="#e74c3c" stroke="#2d263c" stroke-width="5" stroke-linejoin="round"/>
  <ellipse cx="207" cy="120" rx="9" ry="8" fill="#2d263c" stroke="none"/>
  <ellipse cx="204" cy="118" rx="3" ry="2.5" fill="white" stroke="none"/>
  <!-- まゆ毛(右・怒り) -->
  <line x1="192" y1="111" x2="217" y2="106" stroke="#1a1a2e" stroke-width="6" stroke-linecap="round"/>

  <!-- でかい丸鼻 -->
  <ellipse cx="182" cy="148" rx="28" ry="22" fill="#3d1a0a" stroke="#2d263c" stroke-width="6" stroke-linejoin="round"/>
  <!-- 鼻の穴(左) -->
  <ellipse cx="171" cy="150" rx="7" ry="6" fill="#1a1a2e" stroke="none"/>
  <!-- 鼻の穴(右) -->
  <ellipse cx="193" cy="150" rx="7" ry="6" fill="#1a1a2e" stroke="none"/>

  <!-- 白いひげ(左) -->
  <path d="M 148 162 Q 128 158 110 152" fill="none" stroke="white" stroke-width="4" stroke-linecap="round"/>
  <path d="M 150 168 Q 130 168 112 165" fill="none" stroke="white" stroke-width="4" stroke-linecap="round"/>
  <!-- 白いひげ(右) -->
  <path d="M 216 162 Q 236 158 254 152" fill="none" stroke="white" stroke-width="4" stroke-linecap="round"/>
  <path d="M 214 168 Q 234 168 252 165" fill="none" stroke="white" stroke-width="4" stroke-linecap="round"/>

  <!-- 口 -->
  <path d="M 165 168 Q 182 180 200 168" fill="none" stroke="#2d263c" stroke-width="5" stroke-linecap="round"/>
</svg>