<svg xmlns="http://www.w3.org/2000/svg" viewBox="0 0 360 360">
  <g stroke="#2d263c" stroke-width="7" stroke-linecap="round" stroke-linejoin="round">
    <path d="M 250 300 C 300 300 320 255 305 210 C 298 188 270 178 255 190 C 270 198 285 215 278 235" fill="#a98fc9"/>
    <ellipse cx="180" cy="255" rx="100" ry="80" fill="#a98fc9"/>
    <ellipse cx="180" cy="278" rx="50" ry="48" fill="#f6ecd9"/>
    <ellipse cx="140" cy="320" rx="26" ry="16" fill="#a98fc9"/>
    <ellipse cx="220" cy="320" rx="26" ry="16" fill="#a98fc9"/>
    <path d="M 118 105 C 105 90 90 55 100 30 C 115 55 140 80 148 108 Z" fill="#a98fc9"/>
    <path d="M 242 105 C 255 90 270 55 260 30 C 245 55 220 80 212 108 Z" fill="#a98fc9"/>
    <ellipse cx="180" cy="150" rx="88" ry="76" fill="#a98fc9"/>
    <path d="M 124 98 C 116 85 108 62 114 42 C 124 60 138 78 143 100 Z" fill="#eda9d0" stroke="none"/>
    <path d="M 236 98 C 244 85 252 62 246 42 C 236 60 222 78 217 100 Z" fill="#eda9d0" stroke="none"/>
    <ellipse cx="180" cy="182" rx="48" ry="36" fill="#f6ecd9"/>
    <path d="M 108 172 C 70 160 40 175 42 205 C 44 230 75 235 85 215 C 90 205 75 200 70 210" fill="#eb9dc9"/>
    <path d="M 252 172 C 290 160 320 175 318 205 C 316 230 285 235 275 215 C 270 205 285 200 290 210" fill="#eb9dc9"/>
    <ellipse cx="112" cy="196" rx="14" ry="9" fill="#f4b8cf" stroke="none"/>
    <ellipse cx="248" cy="196" rx="14" ry="9" fill="#f4b8cf" stroke="none"/>
    <path d="M 120 158 C 130 145 165 145 172 160 C 165 172 130 172 120 158 Z" fill="#f6ecd9"/>
    <circle cx="146" cy="160" r="9" fill="#2d263c" stroke="none"/>
    <path d="M 116 150 Q 145 140 176 152" fill="none"/>
    <path d="M 240 158 C 230 145 195 145 188 160 C 195 172 230 172 240 158 Z" fill="#f6ecd9"/>
    <circle cx="214" cy="160" r="9" fill="#2d263c" stroke="none"/>
    <path d="M 244 150 Q 215 140 184 152" fill="none"/>
    <path d="M 172 188 C 172 180 188 180 188 188 C 188 196 180 200 180 200 C 180 200 172 196 172 188 Z" fill="#d9527e"/>
    <path d="M 165 205 Q 172 215 180 206 Q 188 215 195 205" fill="none"/>
  </g>
</svg>
