<svg xmlns="http://www.w3.org/2000/svg" viewBox="0 0 360 360">
  <path d="M200,292 Q275,278 292,195 Q298,145 265,122" stroke="#2d263c" stroke-width="44" fill="none" stroke-linecap="round"/>
  <path d="M200,292 Q275,278 292,195 Q298,145 265,122" stroke="#4a9e3f" stroke-width="30" fill="none" stroke-linecap="round"/>
  <path d="M245,130 Q253,88 285,93 Q302,98 296,120 Q276,142 245,130 Z" fill="#3f8a35" stroke="#2d263c" stroke-width="7" stroke-linejoin="round"/>
  <path d="M255,124 Q275,110 291,99" stroke="#2d5e1f" stroke-width="4" fill="none" stroke-linecap="round"/>
  <circle cx="118" cy="102" r="17" fill="#4a9e3f" stroke="#2d263c" stroke-width="7"/>
  <circle cx="242" cy="102" r="17" fill="#4a9e3f" stroke="#2d263c" stroke-width="7"/>
  <ellipse cx="155" cy="298" rx="24" ry="38" fill="#4a9e3f" stroke="#2d263c" stroke-width="7"/>
  <ellipse cx="205" cy="298" rx="24" ry="38" fill="#4a9e3f" stroke="#2d263c" stroke-width="7"/>
  <ellipse cx="152" cy="330" rx="22" ry="13" fill="#e9d9ab" stroke="#2d263c" stroke-width="7"/>
  <ellipse cx="208" cy="330" rx="22" ry="13" fill="#e9d9ab" stroke="#2d263c" stroke-width="7"/>
  <ellipse cx="180" cy="225" rx="72" ry="82" fill="#4a9e3f" stroke="#2d263c" stroke-width="8"/>
  <ellipse cx="180" cy="240" rx="44" ry="58" fill="#f0e0b0" stroke="#2d263c" stroke-width="7"/>
  <path d="M132,185 Q92,215 98,272 Q102,286 118,282 Q122,240 148,198 Z" fill="#4a9e3f" stroke="#2d263c" stroke-width="7" stroke-linejoin="round"/>
  <path d="M228,185 Q268,215 262,272 Q258,286 242,282 Q238,240 212,198 Z" fill="#4a9e3f" stroke="#2d263c" stroke-width="7" stroke-linejoin="round"/>
  <circle cx="104" cy="280" r="17" fill="#f0e0b0" stroke="#2d263c" stroke-width="6"/>
  <circle cx="256" cy="280" r="17" fill="#f0e0b0" stroke="#2d263c" stroke-width="6"/>
  <circle cx="180" cy="112" r="58" fill="#4a9e3f" stroke="#2d263c" stroke-width="8"/>
  <ellipse cx="180" cy="128" rx="40" ry="34" fill="#f0e0b0" stroke="#2d263c" stroke-width="6"/>
  <path d="M160,95 Q140,40 175,15 Q185,10 195,30 Q205,55 195,95 Z" fill="#3f8a35" stroke="#2d263c" stroke-width="7" stroke-linejoin="round"/>
  <path d="M175,90 Q180,55 188,20" stroke="#2d5e1f" stroke-width="4" fill="none" stroke-linecap="round"/>
  <circle cx="163" cy="118" r="9" fill="#cf3a3a" stroke="#2d263c" stroke-width="4"/>
  <circle cx="197" cy="118" r="9" fill="#cf3a3a" stroke="#2d263c" stroke-width="4"/>
  <circle cx="160" cy="115" r="3" fill="#ffffff"/>
  <circle cx="194" cy="115" r="3" fill="#ffffff"/>
  <ellipse cx="180" cy="132" rx="4" ry="3" fill="#2d263c"/>
  <path d="M168,142 Q180,150 192,142" stroke="#2d263c" stroke-width="5" fill="none" stroke-linecap="round"/>
</svg>
