<svg xmlns="http://www.w3.org/2000/svg" viewBox="0 0 360 360">
  <!-- 後ろの肘ブレード(左) -->
  <path d="M 95 170 Q 60 150 45 200 Q 55 230 80 215 Q 90 200 95 185" fill="#3a8c3a" stroke="#2d263c" stroke-width="7" stroke-linejoin="round" stroke-linecap="round"/>
  <!-- 後ろの肘ブレード(右) -->
  <path d="M 265 170 Q 300 150 315 200 Q 305 230 280 215 Q 270 200 265 185" fill="#3a8c3a" stroke="#2d263c" stroke-width="7" stroke-linejoin="round" stroke-linecap="round"/>

  <!-- 腰・骨盤(緑) -->
  <ellipse cx="180" cy="235" rx="62" ry="28" fill="#3a8c3a" stroke="#2d263c" stroke-width="7" stroke-linejoin="round"/>

  <!-- 左脚 -->
  <path d="M 148 248 Q 138 275 132 310 Q 128 328 145 330 Q 158 332 162 315 Q 165 295 162 268" fill="white" stroke="#2d263c" stroke-width="6" stroke-linejoin="round" stroke-linecap="round"/>
  <!-- 右脚 -->
  <path d="M 212 248 Q 222 275 228 310 Q 232 328 215 330 Q 202 332 198 315 Q 195 295 198 268" fill="white" stroke="#2d263c" stroke-width="6" stroke-linejoin="round" stroke-linecap="round"/>

  <!-- 胴体(白) -->
  <path d="M 128 165 Q 122 190 125 220 Q 130 238 180 242 Q 230 238 235 220 Q 238 190 232 165 Q 220 148 180 145 Q 140 148 128 165 Z" fill="white" stroke="#2d263c" stroke-width="7" stroke-linejoin="round"/>

  <!-- 胸の緑ライン -->
  <path d="M 158 165 Q 180 172 202 165" fill="none" stroke="#3a8c3a" stroke-width="5" stroke-linecap="round"/>

  <!-- 左腕 -->
  <path d="M 128 168 Q 108 172 100 185 Q 94 200 98 220 Q 108 218 118 205 Q 125 192 128 178" fill="white" stroke="#2d263c" stroke-width="6" stroke-linejoin="round" stroke-linecap="round"/>
  <!-- 右腕 -->
  <path d="M 232 168 Q 252 172 260 185 Q 266 200 262 220 Q 252 218 242 205 Q 235 192 232 178" fill="white" stroke="#2d263c" stroke-width="6" stroke-linejoin="round" stroke-linecap="round"/>

  <!-- 左肘ブレード -->
  <path d="M 98 200 Q 72 190 58 218 Q 65 245 90 232 Q 102 222 108 210" fill="#4ab84a" stroke="#2d263c" stroke-width="7" stroke-linejoin="round" stroke-linecap="round"/>
  <!-- 右肘ブレード -->
  <path d="M 262 200 Q 288 190 302 218 Q 295 245 270 232 Q 258 222 252 210" fill="#4ab84a" stroke="#2d263c" stroke-width="7" stroke-linejoin="round" stroke-linecap="round"/>

  <!-- 頭(白) -->
  <ellipse cx="180" cy="120" rx="45" ry="48" fill="white" stroke="#2d263c" stroke-width="7" stroke-linejoin="round"/>

  <!-- 頭の兜(緑・逆三角) -->
  <path d="M 158 88 Q 180 60 202 88 Q 192 95 180 92 Q 168 95 158 88 Z" fill="#3a8c3a" stroke="#2d263c" stroke-width="6" stroke-linejoin="round"/>
  <!-- 兜の先端の突起 -->
  <polygon points="180,58 172,82 188,82" fill="#3a8c3a" stroke="#2d263c" stroke-width="5" stroke-linejoin="round"/>

  <!-- 左ほっぺ(赤) -->
  <path d="M 147 118 Q 140 112 138 122 Q 137 133 148 135 Q 158 135 160 124 Q 160 115 147 118 Z" fill="#e03030" stroke="#2d263c" stroke-width="4"/>
  <!-- 右ほっぺ(赤) -->
  <path d="M 213 118 Q 220 112 222 122 Q 223 133 212 135 Q 202 135 200 124 Q 200 115 213 118 Z" fill="#e03030" stroke="#2d263c" stroke-width="4"/>

  <!-- 左目 -->
  <ellipse cx="163" cy="110" rx="8" ry="5" fill="#2d263c"/>
  <ellipse cx="161" cy="108" rx="2.5" ry="2" fill="white"/>
  <!-- 右目 -->
  <ellipse cx="197" cy="110" rx="8" ry="5" fill="#2d263c"/>
  <ellipse cx="195" cy="108" rx="2.5" ry="2" fill="white"/>

  <!-- 口(ちょっとキリッと) -->
  <path d="M 172 128 Q 180 134 188 128" fill="none" stroke="#2d263c" stroke-width="4" stroke-linecap="round"/>

  <!-- 鼻 -->
  <circle cx="180" cy="121" r="2.5" fill="#2d263c"/>

  <!-- 腰の緑の装飾ライン -->
  <path d="M 140 232 Q 180 245 220 232" fill="none" stroke="#2d263c" stroke-width="4" stroke-linecap="round"/>

  <!-- 左足先 -->
  <ellipse cx="142" cy="331" rx="16" ry="8" fill="#dddddd" stroke="#2d263c" stroke-width="5"/>
  <!-- 右足先 -->
  <ellipse cx="218" cy="331" rx="16" ry="8" fill="#dddddd" stroke="#2d263c" stroke-width="5"/>
</svg>