<svg xmlns="http://www.w3.org/2000/svg" viewBox="0 0 360 360">
  <!-- 翼膜(グライドメンブレン)左 - 後ろレイヤー -->
  <path d="M80 155 Q30 120 22 85 Q55 105 90 130 Z" fill="#ffffff" stroke="#2d263c" stroke-width="7" stroke-linejoin="round" stroke-linecap="round"/>
  <path d="M80 155 Q25 170 18 210 Q55 185 90 165 Z" fill="#ffffff" stroke="#2d263c" stroke-width="7" stroke-linejoin="round" stroke-linecap="round"/>
  <!-- 翼膜右 -->
  <path d="M278 155 Q330 120 338 85 Q305 105 270 130 Z" fill="#ffffff" stroke="#2d263c" stroke-width="7" stroke-linejoin="round" stroke-linecap="round"/>
  <path d="M278 155 Q335 170 342 210 Q305 185 270 165 Z" fill="#ffffff" stroke="#2d263c" stroke-width="7" stroke-linejoin="round" stroke-linecap="round"/>

  <!-- しっぽ (稲妻型・黒縞) -->
  <path d="M210 270 Q240 280 255 295 Q245 300 235 292 Q248 310 258 328 Q245 325 240 315 Q235 330 228 318 Q222 305 215 290 Q205 295 200 285 Z" fill="#1a1a2e" stroke="#2d263c" stroke-width="6" stroke-linejoin="round" stroke-linecap="round"/>

  <!-- 体 (丸くふっくら・白) -->
  <ellipse cx="180" cy="210" rx="95" ry="85" fill="#f8f8f8" stroke="#2d263c" stroke-width="8" stroke-linejoin="round"/>

  <!-- 背中(青黒いマント部分) -->
  <path d="M105 175 Q115 145 140 130 Q180 118 220 130 Q245 145 255 175 Q240 160 180 158 Q120 160 105 175 Z" fill="#2a3a6b" stroke="#2d263c" stroke-width="6" stroke-linejoin="round"/>

  <!-- お腹の白い丸 -->
  <ellipse cx="180" cy="225" rx="60" ry="50" fill="#fff5e0" stroke="#2d263c" stroke-width="5"/>

  <!-- 腕(小さい前足)左 -->
  <path d="M110 220 Q85 230 82 255 Q95 248 105 240 Q112 238 115 225 Z" fill="#f8f8f8" stroke="#2d263c" stroke-width="6" stroke-linejoin="round" stroke-linecap="round"/>
  <!-- 腕右 -->
  <path d="M250 220 Q275 230 278 255 Q265 248 255 240 Q248 238 245 225 Z" fill="#f8f8f8" stroke="#2d263c" stroke-width="6" stroke-linejoin="round" stroke-linecap="round"/>

  <!-- 足左 -->
  <path d="M148 282 Q138 305 132 318 Q145 314 150 302 Q155 295 155 283 Z" fill="#f8f8f8" stroke="#2d263c" stroke-width="6" stroke-linejoin="round" stroke-linecap="round"/>
  <!-- 足右 -->
  <path d="M212 282 Q222 305 228 318 Q215 314 210 302 Q205 295 205 283 Z" fill="#f8f8f8" stroke="#2d263c" stroke-width="6" stroke-linejoin="round" stroke-linecap="round"/>

  <!-- 頭 -->
  <ellipse cx="181" cy="148" rx="68" ry="62" fill="#f8f8f8" stroke="#2d263c" stroke-width="8" stroke-linejoin="round"/>

  <!-- 頭の上の黒いたてがみ/頭頂 -->
  <path d="M140 110 Q155 88 181 83 Q207 88 220 110 Q210 100 181 97 Q152 100 140 110 Z" fill="#2a3a6b" stroke="#2d263c" stroke-width="5" stroke-linejoin="round"/>

  <!-- 耳 左 -->
  <path d="M138 110 Q125 75 138 55 Q148 73 148 100 Z" fill="#2d263c" stroke="#2d263c" stroke-width="6" stroke-linejoin="round" stroke-linecap="round"/>
  <!-- 耳内側 左 (黄色) -->
  <path d="M138 104 Q130 80 138 63 Q143 78 143 98 Z" fill="#f5d300" stroke="none"/>

  <!-- 耳 右 -->
  <path d="M222 110 Q235 75 222 55 Q212 73 212 100 Z" fill="#2d263c" stroke="#2d263c" stroke-width="6" stroke-linejoin="round" stroke-linecap="round"/>
  <!-- 耳内側 右 (黄色) -->
  <path d="M222 104 Q230 80 222 63 Q217 78 217 98 Z" fill="#f5d300" stroke="none"/>

  <!-- ほっぺ電気袋 左 (黄色い丸) -->
  <ellipse cx="138" cy="162" rx="20" ry="16" fill="#f5d300" stroke="#2d263c" stroke-width="5"/>
  <!-- ほっぺ電気袋 右 -->
  <ellipse cx="224" cy="162" rx="20" ry="16" fill="#f5d300" stroke="#2d263c" stroke-width="5"/>

  <!-- 目 左 (大きな黒目) -->
  <ellipse cx="160" cy="142" rx="14" ry="16" fill="#1a1a1a" stroke="#2d263c" stroke-width="4"/>
  <!-- 目 右 -->
  <ellipse cx="202" cy="140" rx="15" ry="17" fill="#1a1a1a" stroke="#2d263c" stroke-width="4"/>
  <!-- ハイライト左 -->
  <ellipse cx="155" cy="137" rx="5" ry="5" fill="white" stroke="none"/>
  <!-- ハイライト右 -->
  <ellipse cx="197" cy="135" rx="5" ry="5" fill="white" stroke="none"/>

  <!-- 鼻 -->
  <ellipse cx="181" cy="157" rx="5" ry="3" fill="#2d263c" stroke="none"/>

  <!-- 口 (ちょっとニヤっと) -->
  <path d="M168 166 Q181 175 194 166" fill="none" stroke="#2d263c" stroke-width="5" stroke-linecap="round"/>

  <!-- 翼膜の黒い縞模様(左) -->
  <path d="M58 108 Q65 118 78 128" fill="none" stroke="#2d263c" stroke-width="4" stroke-linecap="round" opacity="0.5"/>
  <path d="M42 155 Q52 162 75 168" fill="none" stroke="#2d263c" stroke-width="4" stroke-linecap="round" opacity="0.5"/>
  <!-- 翼膜の縞(右) -->
  <path d="M302 108 Q295 118 282 128" fill="none" stroke="#2d263c" stroke-width="4" stroke-linecap="round" opacity="0.5"/>
  <path d="M318 155 Q308 162 285 168" fill="none" stroke="#2d263c" stroke-width="4" stroke-linecap="round" opacity="0.5"/>
</svg>