<svg xmlns="http://www.w3.org/2000/svg" viewBox="0 0 360 360">
  <!-- 後ろの翼(左) -->
  <path d="M80 160 Q30 100 20 50 Q50 80 70 110 Q40 70 55 30 Q80 70 85 120 Q70 80 95 55 Q105 100 95 150 Z" fill="#37474f" stroke="#2d263c" stroke-width="7" stroke-linejoin="round" stroke-linecap="round"/>
  <!-- 後ろの翼(右) -->
  <path d="M280 160 Q330 100 340 50 Q310 80 290 110 Q320 70 305 30 Q280 70 275 120 Q290 80 265 55 Q255 100 265 150 Z" fill="#37474f" stroke="#2d263c" stroke-width="7" stroke-linejoin="round" stroke-linecap="round"/>

  <!-- しっぽ -->
  <path d="M155 280 Q150 320 140 345 Q160 320 175 340 Q180 315 185 340 Q195 320 210 345 Q200 315 205 280 Z" fill="#546e7a" stroke="#2d263c" stroke-width="7" stroke-linejoin="round" stroke-linecap="round"/>

  <!-- 体(胴体) -->
  <ellipse cx="180" cy="225" rx="58" ry="72" fill="#b0bec5" stroke="#2d263c" stroke-width="8"/>

  <!-- お腹の薄い部分 -->
  <ellipse cx="180" cy="235" rx="35" ry="48" fill="#cfd8dc" stroke="none"/>

  <!-- 翼の赤いライン模様(左翼内側) -->
  <path d="M105 175 Q80 155 65 130" fill="none" stroke="#c62828" stroke-width="5" stroke-linecap="round"/>
  <path d="M108 188 Q82 172 72 148" fill="none" stroke="#c62828" stroke-width="4" stroke-linecap="round"/>
  <!-- 翼の赤いライン模様(右翼内側) -->
  <path d="M255 175 Q280 155 295 130" fill="none" stroke="#c62828" stroke-width="5" stroke-linecap="round"/>
  <path d="M252 188 Q278 172 288 148" fill="none" stroke="#c62828" stroke-width="4" stroke-linecap="round"/>

  <!-- 翼のギザギザ縁(左) -->
  <path d="M100 200 Q75 180 60 160 Q70 165 80 158 Q68 148 55 135 Q67 140 78 133 Q65 120 58 105 Q72 115 83 108 Q78 95 85 85 Q95 100 100 175 Z" fill="#455a64" stroke="#2d263c" stroke-width="6" stroke-linejoin="round"/>
  <!-- 翼のギザギザ縁(右) -->
  <path d="M260 200 Q285 180 300 160 Q290 165 280 158 Q292 148 305 135 Q293 140 282 133 Q295 120 302 105 Q288 115 277 108 Q282 95 275 85 Q265 100 260 175 Z" fill="#455a64" stroke="#2d263c" stroke-width="6" stroke-linejoin="round"/>

  <!-- 首 -->
  <path d="M162 165 Q155 140 158 115 Q170 105 190 108 Q198 135 200 165 Z" fill="#b0bec5" stroke="#2d263c" stroke-width="7" stroke-linejoin="round"/>

  <!-- 首の縞模様 -->
  <path d="M160 145 Q178 140 198 145" fill="none" stroke="#78909c" stroke-width="3" stroke-linecap="round"/>
  <path d="M159 158 Q178 153 199 158" fill="none" stroke="#78909c" stroke-width="3" stroke-linecap="round"/>

  <!-- 頭 -->
  <ellipse cx="178" cy="95" rx="34" ry="30" fill="#90a4ae" stroke="#2d263c" stroke-width="8"/>

  <!-- 頭の羽冠(とさか) -->
  <path d="M168 68 Q163 48 172 32 Q178 50 180 65 Q182 45 192 28 Q193 50 188 65 Q196 42 206 35 Q200 55 194 68 Z" fill="#546e7a" stroke="#2d263c" stroke-width="6" stroke-linejoin="round"/>

  <!-- くちばし(上) -->
  <path d="M185 88 Q220 80 248 72 Q218 88 215 98 Q192 95 185 92 Z" fill="#f9a825" stroke="#2d263c" stroke-width="6" stroke-linejoin="round"/>
  <!-- くちばし(下) -->
  <path d="M185 96 Q215 98 230 105 Q210 108 195 106 Q188 104 185 100 Z" fill="#f57f17" stroke="#2d263c" stroke-width="5" stroke-linejoin="round"/>

  <!-- 目(左) -->
  <ellipse cx="170" cy="88" rx="9" ry="10" fill="white" stroke="#2d263c" stroke-width="4"/>
  <ellipse cx="172" cy="89" rx="5" ry="6" fill="#1a237e"/>
  <ellipse cx="174" cy="87" rx="2" ry="2" fill="white"/>

  <!-- 眉(左・鋭い顔つき) -->
  <path d="M162 80 Q170 76 180 78" fill="none" stroke="#2d263c" stroke-width="5" stroke-linecap="round"/>

  <!-- 脚(左) -->
  <path d="M160 290 Q155 310 152 335" fill="none" stroke="#546e7a" stroke-width="8" stroke-linecap="round"/>
  <path d="M152 335 Q142 345 135 350" fill="none" stroke="#546e7a" stroke-width="6" stroke-linecap="round"/>
  <path d="M152 335 Q150 348 148 355" fill="none" stroke="#546e7a" stroke-width="6" stroke-linecap="round"/>
  <path d="M152 335 Q160 347 163 353" fill="none" stroke="#546e7a" stroke-width="6" stroke-linecap="round"/>

  <!-- 脚(右) -->
  <path d="M200 290 Q205 310 208 335" fill="none" stroke="#546e7a" stroke-width="8" stroke-linecap="round"/>
  <path d="M208 335 Q218 345 225 350" fill="none" stroke="#546e7a" stroke-width="6" stroke-linecap="round"/>
  <path d="M208 335 Q210 348 212 355" fill="none" stroke="#546e7a" stroke-width="6" stroke-linecap="round"/>
  <path d="M208 335 Q200 347 197 353" fill="none" stroke="#546e7a" stroke-width="6" stroke-linecap="round"/>

  <!-- 体のライン(羽の境目) -->
  <path d="M130 195 Q140 230 138 265" fill="none" stroke="#78909c" stroke-width="3" stroke-linecap="round"/>
  <path d="M230 195 Q220 230 222 265" fill="none" stroke="#78909c" stroke-width="3" stroke-linecap="round"/>
</svg>