<svg xmlns="http://www.w3.org/2000/svg" viewBox="0 0 360 360">
<g stroke="#2d263c" stroke-width="7" stroke-linejoin="round" stroke-linecap="round">
<ellipse cx="180" cy="320" rx="70" ry="7" fill="#000000" opacity="0.15" stroke="none"/>
<path d="M150 170 q-70 -10 -104 24 q-6 36 30 30 q40 -8 70 -34Z" fill="#7FB04A"/>
<path d="M150 170 q-60 10 -84 50 q6 30 36 20 q30 -12 46 -38Z" fill="#8FBF5A"/>
<path d="M210 170 q70 -10 104 24 q6 36 -30 30 q-40 -8 -70 -34Z" fill="#7FB04A"/>
<path d="M210 170 q60 10 84 50 q-6 30 -36 20 q-30 -12 -46 -38Z" fill="#8FBF5A"/>
<ellipse cx="180" cy="214" rx="54" ry="64" fill="#B5C76A"/>
<circle cx="162" cy="200" r="7" fill="#A7C957" stroke="none"/>
<circle cx="198" cy="206" r="6.5" fill="#A7C957" stroke="none"/>
<circle cx="178" cy="232" r="7" fill="#A7C957" stroke="none"/>
<circle cx="160" cy="234" r="5.5" fill="#A7C957" stroke="none"/>
<circle cx="180" cy="132" r="42" fill="#B5C76A"/>
<path d="M180 92 q-16 -22 -10 -38 q16 10 14 32Z" fill="#7FB04A"/>
<path d="M180 92 q16 -22 10 -38 q-16 10 -14 32Z" fill="#7FB04A"/>
<path d="M176 92 q2 -22 -4 -34 q12 8 14 28Z" fill="#7FB04A"/>
<path d="M156 268 q-6 30 4 44 q12 -6 12 -30Z" fill="#9E7B43"/>
<path d="M204 268 q6 30 -4 44 q-12 -6 -12 -30Z" fill="#9E7B43"/>
<circle cx="166" cy="130" r="7" fill="#2d263c" stroke="none"/>
<circle cx="194" cy="130" r="7" fill="#2d263c" stroke="none"/>
<circle cx="168" cy="127" r="2.2" fill="#fff" stroke="none"/>
<circle cx="196" cy="127" r="2.2" fill="#fff" stroke="none"/>
<path d="M172 150 q8 6 16 0" fill="none" stroke="#2d263c" stroke-width="6"/>
</g>
</svg>