<svg xmlns="http://www.w3.org/2000/svg" viewBox="0 0 360 360">
<ellipse cx="180" cy="120" rx="46" ry="40" fill="#3a3550" stroke="#2d263c" stroke-width="7" stroke-linejoin="round"/>
<path d="M100 140 Q60 100 40 60" fill="none" stroke="#2d263c" stroke-width="8" stroke-linecap="round"/>
<path d="M96 150 Q40 130 20 100" fill="none" stroke="#2d263c" stroke-width="7" stroke-linecap="round"/>
<path d="M260 140 Q300 100 320 60" fill="none" stroke="#2d263c" stroke-width="8" stroke-linecap="round"/>
<path d="M264 150 Q320 130 340 100" fill="none" stroke="#2d263c" stroke-width="7" stroke-linecap="round"/>
<path d="M150 170 Q90 210 70 260" fill="none" stroke="#2d263c" stroke-width="7" stroke-linecap="round"/>
<path d="M210 170 Q270 210 290 260" fill="none" stroke="#2d263c" stroke-width="7" stroke-linecap="round"/>
<path d="M180 160 C 140 190, 260 220, 180 250 C 100 280, 260 300, 190 330"
 fill="none" stroke="#2d263c" stroke-width="9" stroke-linecap="round" stroke-linejoin="round"/>
<path d="M180 160 C 140 190, 260 220, 180 250 C 100 280, 260 300, 190 330"
 fill="none" stroke="#4a4460" stroke-width="24" stroke-linecap="round" stroke-linejoin="round"/>
<path d="M180 160 C 140 190, 260 220, 180 250 C 100 280, 260 300, 190 330"
 fill="none" stroke="#2d263c" stroke-width="9" stroke-linecap="round" stroke-linejoin="round"/>
<circle cx="184" cy="325" r="10" fill="#3a3550" stroke="#2d263c" stroke-width="6"/>
<ellipse cx="155" cy="150" rx="10" ry="18" fill="#4a4460" stroke="#2d263c" stroke-width="5"/>
<ellipse cx="205" cy="150" rx="10" ry="18" fill="#4a4460" stroke="#2d263c" stroke-width="5"/>
<ellipse cx="150" cy="205" rx="9" ry="15" fill="#4a4460" stroke="#2d263c" stroke-width="5"/>
<ellipse cx="210" cy="205" rx="9" ry="15" fill="#4a4460" stroke="#2d263c" stroke-width="5"/>
<circle cx="180" cy="118" r="42" fill="none" stroke="#c9a53e" stroke-width="7"/>
<path d="M150 90 Q180 78 210 90" fill="none" stroke="#c9a53e" stroke-width="6" stroke-linecap="round"/>
<path d="M158 150 Q180 162 202 150" fill="none" stroke="#c9a53e" stroke-width="6" stroke-linecap="round"/>
<ellipse cx="160" cy="112" rx="9" ry="12" fill="#d4213a" stroke="#2d263c" stroke-width="4"/>
<ellipse cx="200" cy="112" rx="9" ry="12" fill="#d4213a" stroke="#2d263c" stroke-width="4"/>
<circle cx="160" cy="110" r="3" fill="#2d263c"/>
<circle cx="200" cy="110" r="3" fill="#2d263c"/>
<path d="M165 132 Q180 140 195 132" fill="none" stroke="#2d263c" stroke-width="5" stroke-linecap="round"/>
<path d="M120 95 L100 70 M240 95 L260 70" stroke="#2d263c" stroke-width="6" stroke-linecap="round"/>
</svg>
