<svg xmlns="http://www.w3.org/2000/svg" viewBox="0 0 360 360">
  <path d="M180 260 L125 330 L150 248 Z" fill="#3d4d8a" stroke="#2d263c" stroke-width="7" stroke-linejoin="round"/>
  <path d="M180 260 L180 335 L192 248 Z" fill="#f5d94e" stroke="#2d263c" stroke-width="7" stroke-linejoin="round"/>
  <path d="M180 260 L235 330 L210 248 Z" fill="#e05a3c" stroke="#2d263c" stroke-width="7" stroke-linejoin="round"/>

  <path d="M150 272 L144 320" stroke="#2d263c" stroke-width="8" stroke-linecap="round" fill="none"/>
  <path d="M210 272 L216 320" stroke="#2d263c" stroke-width="8" stroke-linecap="round" fill="none"/>
  <path d="M128 322 L144 320 L162 324" fill="#f0c93e" stroke="#2d263c" stroke-width="6" stroke-linejoin="round" stroke-linecap="round"/>
  <path d="M198 324 L216 320 L232 322" fill="#f0c93e" stroke="#2d263c" stroke-width="6" stroke-linejoin="round" stroke-linecap="round"/>

  <ellipse cx="180" cy="190" rx="70" ry="90" fill="#3d4d8a" stroke="#2d263c" stroke-width="8"/>

  <path d="M120 168 Q88 198 110 232 Q142 220 152 188 Z" fill="#2f3d75" stroke="#2d263c" stroke-width="7" stroke-linejoin="round"/>
  <path d="M240 168 Q272 198 250 232 Q218 220 208 188 Z" fill="#2f3d75" stroke="#2d263c" stroke-width="7" stroke-linejoin="round"/>

  <ellipse cx="180" cy="222" rx="38" ry="45" fill="#f5d94e" stroke="#2d263c" stroke-width="6"/>
  <circle cx="180" cy="216" r="16" fill="#e05a3c" stroke="#2d263c" stroke-width="5"/>
  <circle cx="180" cy="216" r="6" fill="#fff8e0"/>

  <circle cx="180" cy="100" r="55" fill="#3d4d8a" stroke="#2d263c" stroke-width="8"/>

  <path d="M150 58 L146 26 L166 52 Z" fill="#f5d94e" stroke="#2d263c" stroke-width="6" stroke-linejoin="round"/>
  <path d="M180 50 L180 22 L195 50 Z" fill="#f5d94e" stroke="#2d263c" stroke-width="6" stroke-linejoin="round"/>
  <path d="M205 52 L219 26 L214 58 Z" fill="#f5d94e" stroke="#2d263c" stroke-width="6" stroke-linejoin="round"/>

  <circle cx="158" cy="100" r="14" fill="#e2402c" stroke="#2d263c" stroke-width="5"/>
  <circle cx="202" cy="100" r="14" fill="#e2402c" stroke="#2d263c" stroke-width="5"/>
  <circle cx="158" cy="97" r="4" fill="#1a1620"/>
  <circle cx="202" cy="97" r="4" fill="#1a1620"/>

  <path d="M170 118 L180 130 L190 118 Z" fill="#f0c93e" stroke="#2d263c" stroke-width="5" stroke-linejoin="round"/>
</svg>
