<svg xmlns="http://www.w3.org/2000/svg" viewBox="0 0 360 360">
  <path d="M215 235 C270 225, 310 250, 315 295 C318 320, 300 335, 275 330 C250 325, 240 305, 250 288 C255 280, 265 278, 262 288 C258 298, 245 298, 240 285 C232 268, 235 250, 215 235 Z" fill="#d9a463" stroke="#2d263c" stroke-width="7" stroke-linejoin="round" stroke-linecap="round"/>
  <ellipse cx="270" cy="306" rx="13" ry="10" fill="#7a4a24" stroke="#2d263c" stroke-width="6" stroke-linejoin="round"/>
  <ellipse cx="150" cy="322" rx="22" ry="14" fill="#c68a4c" stroke="#2d263c" stroke-width="7" stroke-linejoin="round" stroke-linecap="round"/>
  <ellipse cx="208" cy="322" rx="22" ry="14" fill="#c68a4c" stroke="#2d263c" stroke-width="7" stroke-linejoin="round" stroke-linecap="round"/>
  <ellipse cx="118" cy="226" rx="19" ry="31" fill="#d9a463" stroke="#2d263c" stroke-width="7" stroke-linejoin="round" stroke-linecap="round" transform="rotate(-18 118 226)"/>
  <ellipse cx="242" cy="226" rx="19" ry="31" fill="#d9a463" stroke="#2d263c" stroke-width="7" stroke-linejoin="round" stroke-linecap="round" transform="rotate(18 242 226)"/>
  <ellipse cx="180" cy="240" rx="68" ry="88" fill="#d9a463" stroke="#2d263c" stroke-width="7" stroke-linejoin="round"/>
  <ellipse cx="180" cy="256" rx="40" ry="62" fill="#f5e3b8" stroke="#2d263c" stroke-width="6" stroke-linejoin="round"/>
  <circle cx="180" cy="130" r="52" fill="#d9a463" stroke="#2d263c" stroke-width="7" stroke-linejoin="round"/>
  <circle cx="148" cy="88" r="21" fill="#7a4a24" stroke="#2d263c" stroke-width="7" stroke-linejoin="round"/>
  <circle cx="212" cy="88" r="21" fill="#7a4a24" stroke="#2d263c" stroke-width="7" stroke-linejoin="round"/>
  <ellipse cx="141" cy="146" rx="10" ry="6" fill="#f2a5a0" opacity="0.55"/>
  <ellipse cx="219" cy="146" rx="10" ry="6" fill="#f2a5a0" opacity="0.55"/>
  <circle cx="158" cy="125" r="15" fill="#ffffff" stroke="#2d263c" stroke-width="5"/>
  <circle cx="202" cy="125" r="15" fill="#ffffff" stroke="#2d263c" stroke-width="5"/>
  <circle cx="162" cy="129" r="7.5" fill="#241f2e"/>
  <circle cx="198" cy="129" r="7.5" fill="#241f2e"/>
  <circle cx="158" cy="124" r="2.5" fill="#ffffff"/>
  <circle cx="194" cy="124" r="2.5" fill="#ffffff"/>
  <ellipse cx="180" cy="149" rx="6" ry="4" fill="#3a2a1e"/>
  <path d="M170 159 Q180 166 190 159" fill="none" stroke="#2d263c" stroke-width="5" stroke-linecap="round"/>
</svg>
