<svg xmlns="http://www.w3.org/2000/svg" viewBox="0 0 360 360">
  <path d="M205,288 C265,296 312,258 320,192 C327,132 302,92 266,80 C292,108 302,150 292,190 C282,226 252,246 216,240 C234,262 224,278 205,288 Z" fill="#f2d9a3" stroke="#2d263c" stroke-width="7" stroke-linejoin="round"/>
  <ellipse cx="278" cy="93" rx="20" ry="16" fill="#c9974f" stroke="#2d263c" stroke-width="5"/>
  <path d="M136,145 C124,190 121,240 130,282 C137,306 223,306 230,282 C239,240 236,190 224,145 C214,118 146,118 136,145 Z" fill="#f2d9a3" stroke="#2d263c" stroke-width="8" stroke-linejoin="round"/>
  <path d="M150,230 Q180,240 210,230" fill="none" stroke="#c9974f" stroke-width="9" stroke-linecap="round"/>
  <path d="M148,256 Q180,266 212,256" fill="none" stroke="#c9974f" stroke-width="9" stroke-linecap="round"/>
  <path d="M150,282 Q180,291 210,282" fill="none" stroke="#c9974f" stroke-width="9" stroke-linecap="round"/>
  <ellipse cx="112" cy="192" rx="19" ry="27" fill="#f2d9a3" stroke="#2d263c" stroke-width="6"/>
  <ellipse cx="248" cy="192" rx="19" ry="27" fill="#f2d9a3" stroke="#2d263c" stroke-width="6"/>
  <ellipse cx="156" cy="308" rx="21" ry="20" fill="#f2d9a3" stroke="#2d263c" stroke-width="6"/>
  <ellipse cx="204" cy="308" rx="21" ry="20" fill="#f2d9a3" stroke="#2d263c" stroke-width="6"/>
  <circle cx="180" cy="95" r="52" fill="#f2d9a3" stroke="#2d263c" stroke-width="8"/>
  <circle cx="148" cy="52" r="17" fill="#f2d9a3" stroke="#2d263c" stroke-width="6"/>
  <circle cx="212" cy="52" r="17" fill="#f2d9a3" stroke="#2d263c" stroke-width="6"/>
  <circle cx="148" cy="52" r="7" fill="#e0b97a"/>
  <circle cx="212" cy="52" r="7" fill="#e0b97a"/>
  <circle cx="138" cy="104" r="9" fill="#ffb6c1" opacity="0.55"/>
  <circle cx="222" cy="104" r="9" fill="#ffb6c1" opacity="0.55"/>
  <ellipse cx="157" cy="88" rx="14" ry="18" fill="#ffffff" stroke="#2d263c" stroke-width="4"/>
  <ellipse cx="203" cy="88" rx="14" ry="18" fill="#ffffff" stroke="#2d263c" stroke-width="4"/>
  <circle cx="158" cy="93" r="6" fill="#2d263c"/>
  <circle cx="204" cy="93" r="6" fill="#2d263c"/>
  <ellipse cx="180" cy="112" rx="8" ry="6" fill="#2d263c"/>
  <path d="M168,124 Q180,132 192,124" fill="none" stroke="#2d263c" stroke-width="5" stroke-linecap="round"/>
</svg>
