<svg xmlns="http://www.w3.org/2000/svg" viewBox="0 0 360 360">
  <!-- 尻ひれ(後ろ) -->
  <path d="M180 295 C145 318 148 340 180 333 C212 340 215 318 180 295 Z" fill="#3a82b8" stroke="#2d263c" stroke-width="7" stroke-linejoin="round"/>

  <!-- 体 -->
  <path d="M180 170 C138 175 120 245 128 298 C150 320 210 320 232 298 C240 245 222 175 180 170 Z" fill="#4a9ad0" stroke="#2d263c" stroke-width="8" stroke-linejoin="round"/>

  <!-- 前ひれ -->
  <path d="M128 228 C98 233 90 263 108 278 C124 280 132 260 136 246 Z" fill="#3a82b8" stroke="#2d263c" stroke-width="6" stroke-linejoin="round"/>
  <path d="M232 228 C262 233 270 263 252 278 C236 280 228 260 224 246 Z" fill="#3a82b8" stroke="#2d263c" stroke-width="6" stroke-linejoin="round"/>

  <!-- 首の白いフリルえり(二段・特徴) -->
  <path d="M116 188 C106 176 98 198 114 202 C138 212 222 212 246 202 C262 198 254 176 244 188 C228 180 206 176 180 176 C154 176 132 180 116 188 Z" fill="#f8f8f8" stroke="#2d263c" stroke-width="6" stroke-linejoin="round"/>
  <path d="M126 198 C120 190 112 206 124 210 C144 217 216 217 236 210 C248 206 240 190 234 198 C220 192 200 188 180 188 C160 188 140 192 126 198 Z" fill="#e6e6ec" stroke="#2d263c" stroke-width="5" stroke-linejoin="round"/>
  <path d="M150 196 L148 212 M168 198 L168 214 M192 198 L192 214 M210 196 L212 212" fill="none" stroke="#2d263c" stroke-width="3" stroke-linecap="round"/>

  <!-- 頭 -->
  <circle cx="180" cy="112" r="58" fill="#4a9ad0" stroke="#2d263c" stroke-width="8"/>

  <!-- 頭の水色模様 -->
  <path d="M140 90 Q160 78 180 82 Q200 78 220 90" fill="none" stroke="#7ac0e8" stroke-width="6" stroke-linecap="round"/>

  <!-- 目 -->
  <ellipse cx="158" cy="110" rx="13" ry="16" fill="#fff" stroke="#2d263c" stroke-width="5"/>
  <ellipse cx="202" cy="110" rx="13" ry="16" fill="#fff" stroke="#2d263c" stroke-width="5"/>
  <circle cx="160" cy="114" r="7" fill="#2d263c"/>
  <circle cx="200" cy="114" r="7" fill="#2d263c"/>
  <!-- まつ毛 -->
  <path d="M148 98 L144 94 M168 98 L172 94 M192 98 L188 94 M212 98 L216 94" stroke="#2d263c" stroke-width="3" stroke-linecap="round"/>

  <!-- 鼻 -->
  <ellipse cx="180" cy="134" rx="8" ry="6" fill="#2d263c"/>

  <!-- 口 -->
  <path d="M170 148 Q180 156 190 148" fill="none" stroke="#2d263c" stroke-width="5" stroke-linecap="round"/>
</svg>
