<svg xmlns="http://www.w3.org/2000/svg" viewBox="0 0 360 360">
  <path d="M170,235 L70,320 L145,255 Z" fill="#2f3f74" stroke="#2d263c" stroke-width="7" stroke-linejoin="round" stroke-linecap="round"/>
  <path d="M190,235 L290,320 L215,255 Z" fill="#2f3f74" stroke="#2d263c" stroke-width="7" stroke-linejoin="round" stroke-linecap="round"/>
  <path d="M130,160 Q60,190 55,270 Q90,255 130,220 Q150,190 130,160 Z" fill="#33447a" stroke="#2d263c" stroke-width="7" stroke-linejoin="round" stroke-linecap="round"/>
  <path d="M230,160 Q300,190 305,270 Q270,255 230,220 Q210,190 230,160 Z" fill="#33447a" stroke="#2d263c" stroke-width="7" stroke-linejoin="round" stroke-linecap="round"/>
  <ellipse cx="180" cy="185" rx="68" ry="72" fill="#33447a" stroke="#2d263c" stroke-width="8" stroke-linejoin="round"/>
  <ellipse cx="180" cy="222" rx="46" ry="48" fill="#fdf6e3" stroke="#2d263c" stroke-width="6" stroke-linejoin="round"/>
  <path d="M155,195 Q180,183 205,195 L195,258 Q180,270 165,258 Z" fill="#d6392c" stroke="#2d263c" stroke-width="6" stroke-linejoin="round"/>
  <rect x="164" y="256" width="12" height="30" rx="5" fill="#e8862c" stroke="#2d263c" stroke-width="6" stroke-linejoin="round"/>
  <rect x="184" y="256" width="12" height="30" rx="5" fill="#e8862c" stroke="#2d263c" stroke-width="6" stroke-linejoin="round"/>
  <path d="M167,72 Q180,32 193,72 Z" fill="#2f3f74" stroke="#2d263c" stroke-width="6" stroke-linejoin="round"/>
  <circle cx="180" cy="110" r="50" fill="#33447a" stroke="#2d263c" stroke-width="8"/>
  <path d="M140,118 Q180,158 220,118 Q210,144 180,150 Q150,144 140,118 Z" fill="#fdf6e3" stroke="#2d263c" stroke-width="6" stroke-linejoin="round"/>
  <circle cx="158" cy="100" r="9" fill="#1c1a22" stroke="#2d263c" stroke-width="5"/>
  <circle cx="202" cy="100" r="9" fill="#1c1a22" stroke="#2d263c" stroke-width="5"/>
  <circle cx="154" cy="96" r="3" fill="#ffffff"/>
  <circle cx="198" cy="96" r="3" fill="#ffffff"/>
  <polygon points="165,135 195,135 180,160" fill="#4a4550" stroke="#2d263c" stroke-width="6" stroke-linejoin="round"/>
</svg>
