<svg xmlns="http://www.w3.org/2000/svg" viewBox="0 0 360 360">
  <!-- 脚(触手・左) -->
  <path d="M140 250 Q110 290 120 322 Q140 326 142 300 Q146 270 156 256" fill="#D8B07A" stroke="#2d263c" stroke-width="7" stroke-linejoin="round" stroke-linecap="round"/>
  <!-- 脚(触手・右) -->
  <path d="M220 250 Q250 290 240 322 Q220 326 218 300 Q214 270 204 256" fill="#D8B07A" stroke="#2d263c" stroke-width="7" stroke-linejoin="round" stroke-linecap="round"/>
  <!-- 腕(触手・上げ) 左 -->
  <path d="M120 180 Q72 168 56 130 Q64 116 80 128 Q104 150 124 172" fill="#D8B07A" stroke="#2d263c" stroke-width="8" stroke-linejoin="round" stroke-linecap="round"/>
  <!-- 腕(触手・上げ) 右 -->
  <path d="M240 180 Q288 168 304 130 Q296 116 280 128 Q256 150 236 172" fill="#D8B07A" stroke="#2d263c" stroke-width="8" stroke-linejoin="round" stroke-linecap="round"/>
  <!-- 体/頭 -->
  <ellipse cx="180" cy="180" rx="86" ry="90" fill="#3E78B0" stroke="#2d263c" stroke-width="8" stroke-linejoin="round"/>
  <!-- 腹(明るい) -->
  <ellipse cx="180" cy="210" rx="48" ry="50" fill="#6A9AD0" stroke="#2d263c" stroke-width="6" stroke-linejoin="round"/>
  <!-- 模様 -->
  <path d="M120 150 Q150 168 120 200" fill="none" stroke="#2C5A86" stroke-width="8" stroke-linecap="round"/>
  <path d="M240 150 Q210 168 240 200" fill="none" stroke="#2C5A86" stroke-width="8" stroke-linecap="round"/>
  <!-- 眉(にらみ) -->
  <path d="M134 148 Q156 142 168 152" fill="none" stroke="#2d263c" stroke-width="6" stroke-linecap="round"/>
  <path d="M226 148 Q204 142 192 152" fill="none" stroke="#2d263c" stroke-width="6" stroke-linecap="round"/>
  <!-- 目 左 -->
  <ellipse cx="152" cy="170" rx="18" ry="20" fill="#FFFFFF" stroke="#2d263c" stroke-width="6"/>
  <ellipse cx="154" cy="173" rx="7" ry="10" fill="#241f2e"/>
  <!-- 目 右 -->
  <ellipse cx="208" cy="170" rx="18" ry="20" fill="#FFFFFF" stroke="#2d263c" stroke-width="6"/>
  <ellipse cx="206" cy="173" rx="7" ry="10" fill="#241f2e"/>
  <!-- くちばし -->
  <path d="M168 214 Q180 226 192 214 Q186 222 180 222 Q174 222 168 214Z" fill="#2C5A86" stroke="#2d263c" stroke-width="6" stroke-linejoin="round"/>
</svg>
