<svg xmlns="http://www.w3.org/2000/svg" viewBox="0 0 360 360">
  <!-- 尻尾(後ろ) -->
  <path d="M195 260 Q240 300 250 330 Q235 340 220 325 Q210 295 185 270 Z" fill="#1a1c55" stroke="#2d263c" stroke-width="7" stroke-linejoin="round" stroke-linecap="round"/>
  <!-- 尻尾の先(赤) -->
  <path d="M240 315 Q260 340 250 350 Q232 345 225 328 Q235 330 240 315 Z" fill="#cc2233" stroke="#2d263c" stroke-width="5" stroke-linejoin="round" stroke-linecap="round"/>

  <!-- 左腕(後ろ) -->
  <path d="M135 195 Q95 220 80 250 Q78 262 90 258 Q100 235 118 210 Z" fill="#1e2060" stroke="#2d263c" stroke-width="7" stroke-linejoin="round" stroke-linecap="round"/>
  <!-- 左爪3本 -->
  <line x1="80" y1="250" x2="60" y2="275" stroke="#e8c020" stroke-width="6" stroke-linecap="round"/>
  <line x1="88" y1="256" x2="72" y2="283" stroke="#e8c020" stroke-width="6" stroke-linecap="round"/>
  <line x1="96" y1="260" x2="84" y2="288" stroke="#e8c020" stroke-width="6" stroke-linecap="round"/>

  <!-- 体(胴体メイン) -->
  <path d="M130 160 Q115 180 112 215 Q110 250 125 270 Q145 290 180 292 Q215 290 232 268 Q248 245 245 210 Q242 178 228 160 Q210 145 180 143 Q152 143 130 160 Z" fill="#252870" stroke="#2d263c" stroke-width="8" stroke-linejoin="round" stroke-linecap="round"/>

  <!-- 腹(白っぽいクリーム) -->
  <path d="M148 185 Q140 210 142 240 Q148 268 180 272 Q210 268 218 240 Q220 210 212 185 Q200 170 180 168 Q160 170 148 185 Z" fill="#e8e4cc" stroke="#2d263c" stroke-width="5" stroke-linejoin="round" stroke-linecap="round"/>

  <!-- 胸のジュエル(赤) -->
  <ellipse cx="180" cy="218" rx="14" ry="10" fill="#cc2233" stroke="#2d263c" stroke-width="5"/>
  <ellipse cx="180" cy="218" rx="7" ry="5" fill="#ff5566" stroke="none"/>

  <!-- 右腕 -->
  <path d="M228 195 Q268 215 282 248 Q284 260 272 257 Q260 232 238 208 Z" fill="#1e2060" stroke="#2d263c" stroke-width="7" stroke-linejoin="round" stroke-linecap="round"/>
  <!-- 右爪3本 -->
  <line x1="282" y1="248" x2="302" y2="273" stroke="#e8c020" stroke-width="6" stroke-linecap="round"/>
  <line x1="274" y1="255" x2="290" y2="282" stroke="#e8c020" stroke-width="6" stroke-linecap="round"/>
  <line x1="265" y1="258" x2="278" y2="286" stroke="#e8c020" stroke-width="6" stroke-linecap="round"/>

  <!-- 足(左) -->
  <path d="M145 278 Q132 300 128 320 Q135 330 148 322 Q152 304 158 285 Z" fill="#1a1c55" stroke="#2d263c" stroke-width="7" stroke-linejoin="round" stroke-linecap="round"/>
  <path d="M128 318 Q118 335 125 340 Q136 338 148 325 Z" fill="#e8c020" stroke="#2d263c" stroke-width="5" stroke-linejoin="round"/>

  <!-- 足(右) -->
  <path d="M215 278 Q228 300 232 320 Q225 330 212 322 Q208 304 202 285 Z" fill="#1a1c55" stroke="#2d263c" stroke-width="7" stroke-linejoin="round" stroke-linecap="round"/>
  <path d="M232 318 Q242 335 235 340 Q224 338 212 325 Z" fill="#e8c020" stroke="#2d263c" stroke-width="5" stroke-linejoin="round"/>

  <!-- 頭 -->
  <path d="M138 138 Q130 110 135 85 Q148 55 180 52 Q212 52 225 85 Q230 110 222 138 Q208 152 180 155 Q152 152 138 138 Z" fill="#252870" stroke="#2d263c" stroke-width="8" stroke-linejoin="round" stroke-linecap="round"/>

  <!-- 耳(左・後ろ羽根) -->
  <path d="M148 75 Q120 30 100 12 Q112 8 128 18 Q148 42 158 72 Z" fill="#cc2233" stroke="#2d263c" stroke-width="6" stroke-linejoin="round" stroke-linecap="round"/>
  <!-- 耳(右・羽根) -->
  <path d="M212 75 Q240 30 260 12 Q248 8 232 18 Q212 42 202 72 Z" fill="#cc2233" stroke="#2d263c" stroke-width="6" stroke-linejoin="round" stroke-linecap="round"/>

  <!-- 耳の内側 -->
  <path d="M150 72 Q130 45 118 28 Q128 24 140 40 Q152 60 158 70 Z" fill="#ff5566" stroke="none"/>
  <path d="M210 72 Q230 45 242 28 Q232 24 220 40 Q208 60 202 70 Z" fill="#ff5566" stroke="none"/>

  <!-- 頭上ジュエル(赤) -->
  <ellipse cx="180" cy="78" rx="16" ry="11" fill="#cc2233" stroke="#2d263c" stroke-width="5"/>
  <ellipse cx="180" cy="78" rx="8" ry="5" fill="#ff5566" stroke="none"/>

  <!-- 目(左) — つり目・悪い顔 -->
  <path d="M150 108 Q158 100 168 105 Q162 112 152 112 Z" fill="#f0f0f0" stroke="#2d263c" stroke-width="4" stroke-linejoin="round"/>
  <ellipse cx="161" cy="107" rx="5" ry="5" fill="#cc2233"/>
  <ellipse cx="163" cy="105" rx="2" ry="2" fill="#111"/>
  <!-- 目の上線(つり目) -->
  <path d="M148 103 Q159 96 170 103" fill="none" stroke="#2d263c" stroke-width="4" stroke-linecap="round"/>

  <!-- 目(右) -->
  <path d="M210 108 Q202 100 192 105 Q198 112 208 112 Z" fill="#f0f0f0" stroke="#2d263c" stroke-width="4" stroke-linejoin="round"/>
  <ellipse cx="199" cy="107" rx="5" ry="5" fill="#cc2233"/>
  <ellipse cx="197" cy="105" rx="2" ry="2" fill="#111"/>
  <!-- 目の上線 -->
  <path d="M212 103 Q201 96 190 103" fill="none" stroke="#2d263c" stroke-width="4" stroke-linecap="round"/>

  <!-- くちばし(黄色) -->
  <path d="M172 122 Q180 128 188 122 Q184 135 180 138 Q176 135 172 122 Z" fill="#e8c020" stroke="#2d263c" stroke-width="5" stroke-linejoin="round" stroke-linecap="round"/>

  <!-- ほっぺ(うっすら赤) -->
  <ellipse cx="145" cy="120" rx="10" ry="7" fill="#dd3344" opacity="0.45"/>
  <ellipse cx="215" cy="120" rx="10" ry="7" fill="#dd3344" opacity="0.45"/>
</svg>