<svg xmlns="http://www.w3.org/2000/svg" viewBox="0 0 360 360">
  <!-- 後ろ脚(左奥) -->
  <polyline points="160,220 130,255 105,285 88,310" fill="none" stroke="#e8632a" stroke-width="7" stroke-linecap="round" stroke-linejoin="round"/>
  <!-- 後ろ脚(右奥) -->
  <polyline points="200,220 232,258 258,286 274,312" fill="none" stroke="#e8632a" stroke-width="7" stroke-linecap="round" stroke-linejoin="round"/>
  <!-- 中後ろ脚(左) -->
  <polyline points="152,210 110,240 82,265 68,295" fill="none" stroke="#e8632a" stroke-width="7" stroke-linecap="round" stroke-linejoin="round"/>
  <!-- 中後ろ脚(右) -->
  <polyline points="208,210 252,242 280,268 294,296" fill="none" stroke="#e8632a" stroke-width="7" stroke-linecap="round" stroke-linejoin="round"/>
  <!-- 中前脚(左) -->
  <polyline points="148,198 102,215 72,228 52,250" fill="none" stroke="#e8632a" stroke-width="7" stroke-linecap="round" stroke-linejoin="round"/>
  <!-- 中前脚(右) -->
  <polyline points="212,198 258,216 288,230 308,252" fill="none" stroke="#e8632a" stroke-width="7" stroke-linecap="round" stroke-linejoin="round"/>
  <!-- 前脚(左) -->
  <polyline points="152,184 112,188 78,192 55,208" fill="none" stroke="#e8632a" stroke-width="7" stroke-linecap="round" stroke-linejoin="round"/>
  <!-- 前脚(右) -->
  <polyline points="208,184 248,188 282,193 305,210" fill="none" stroke="#e8632a" stroke-width="7" stroke-linecap="round" stroke-linejoin="round"/>

  <!-- 関節ぽち(左後) -->
  <circle cx="130" cy="255" r="5" fill="#c44e1a" stroke="#2d263c" stroke-width="3"/>
  <circle cx="232" cy="258" r="5" fill="#c44e1a" stroke="#2d263c" stroke-width="3"/>
  <!-- 関節ぽち(左中後) -->
  <circle cx="110" cy="240" r="5" fill="#c44e1a" stroke="#2d263c" stroke-width="3"/>
  <circle cx="252" cy="242" r="5" fill="#c44e1a" stroke="#2d263c" stroke-width="3"/>
  <!-- 関節ぽち(左中前) -->
  <circle cx="102" cy="215" r="5" fill="#c44e1a" stroke="#2d263c" stroke-width="3"/>
  <circle cx="258" cy="216" r="5" fill="#c44e1a" stroke="#2d263c" stroke-width="3"/>
  <!-- 関節ぽち(前) -->
  <circle cx="112" cy="188" r="5" fill="#c44e1a" stroke="#2d263c" stroke-width="3"/>
  <circle cx="248" cy="188" r="5" fill="#c44e1a" stroke="#2d263c" stroke-width="3"/>

  <!-- 胴体(丸い腹部) -->
  <ellipse cx="180" cy="222" rx="62" ry="55" fill="#f5f2e8" stroke="#2d263c" stroke-width="8" stroke-linejoin="round"/>
  <!-- 腹部の縞模様 -->
  <path d="M135,215 Q155,210 180,212 Q205,210 225,215" fill="none" stroke="#7ecbe8" stroke-width="5" stroke-linecap="round"/>
  <path d="M130,228 Q155,222 180,224 Q205,222 230,228" fill="none" stroke="#7ecbe8" stroke-width="5" stroke-linecap="round"/>
  <path d="M132,241 Q155,236 180,238 Q205,236 228,241" fill="none" stroke="#7ecbe8" stroke-width="5" stroke-linecap="round"/>
  <!-- 腹部の青みがかった下半分 -->
  <ellipse cx="180" cy="240" rx="58" ry="35" fill="#b8e4f0" stroke="none"/>
  <ellipse cx="180" cy="222" rx="62" ry="55" fill="none" stroke="#2d263c" stroke-width="8"/>

  <!-- 水の泡(メイン・大きい球) -->
  <circle cx="180" cy="135" r="78" fill="#c2eaf7" fill-opacity="0.82" stroke="#2d263c" stroke-width="7"/>
  <!-- 泡のハイライト -->
  <ellipse cx="155" cy="105" rx="22" ry="14" fill="white" fill-opacity="0.55" stroke="none" transform="rotate(-20,155,105)"/>
  <ellipse cx="168" cy="98" rx="8" ry="5" fill="white" fill-opacity="0.7" stroke="none" transform="rotate(-20,168,98)"/>

  <!-- 顔(泡の中) -->
  <!-- 目(左) -->
  <ellipse cx="158" cy="138" rx="13" ry="15" fill="white" stroke="#2d263c" stroke-width="4"/>
  <ellipse cx="160" cy="140" rx="8" ry="9" fill="#2d4a8a" stroke="none"/>
  <circle cx="163" cy="137" r="3" fill="white"/>
  <!-- 目(右) -->
  <ellipse cx="203" cy="136" rx="13" ry="15" fill="white" stroke="#2d263c" stroke-width="4"/>
  <ellipse cx="205" cy="138" rx="8" ry="9" fill="#2d4a8a" stroke="none"/>
  <circle cx="208" cy="135" r="3" fill="white"/>
  <!-- 困り眉(左) -->
  <path d="M151,124 Q160,119 168,122" fill="none" stroke="#2d263c" stroke-width="4" stroke-linecap="round"/>
  <!-- 困り眉(右) -->
  <path d="M196,121 Q204,117 212,121" fill="none" stroke="#2d263c" stroke-width="4" stroke-linecap="round"/>
  <!-- 口(小さいV字) -->
  <path d="M174,158 Q181,165 188,158" fill="none" stroke="#2d263c" stroke-width="4" stroke-linecap="round" stroke-linejoin="round"/>
  <!-- ほっぺ(左) -->
  <ellipse cx="147" cy="153" rx="10" ry="7" fill="#f4a0b0" fill-opacity="0.6" stroke="none"/>
  <!-- ほっぺ(右) -->
  <ellipse cx="214" cy="152" rx="10" ry="7" fill="#f4a0b0" fill-opacity="0.6" stroke="none"/>

  <!-- 体と泡をつなぐ首 -->
  <path d="M165,190 Q170,210 168,215" fill="none" stroke="#d4efe8" stroke-width="5" stroke-linecap="round"/>
  <path d="M196,190 Q191,210 193,215" fill="none" stroke="#d4efe8" stroke-width="5" stroke-linecap="round"/>

  <!-- 小さな触角ぽい突起(頭上) -->
  <path d="M163,58 Q158,42 152,30" fill="none" stroke="#2d263c" stroke-width="5" stroke-linecap="round"/>
  <circle cx="151" cy="28" r="5" fill="#7ecbe8" stroke="#2d263c" stroke-width="3"/>
  <path d="M196,57 Q202,41 208,29" fill="none" stroke="#2d263c" stroke-width="5" stroke-linecap="round"/>
  <circle cx="209" cy="27" r="5" fill="#7ecbe8" stroke="#2d263c" stroke-width="3"/>
</svg>