<svg xmlns="http://www.w3.org/2000/svg" viewBox="0 0 360 360">
  <path d="M150,255 Q95,255 72,308 Q64,326 82,322 Q112,308 148,272 Z" fill="#3a7d72" stroke="#2d263c" stroke-width="7" stroke-linejoin="round"/>
  <path d="M125,288 Q120,314 140,322 Q160,314 155,288 Z" fill="#3a7d72" stroke="#2d263c" stroke-width="7" stroke-linejoin="round"/>
  <path d="M205,288 Q200,314 220,322 Q240,314 235,288 Z" fill="#3a7d72" stroke="#2d263c" stroke-width="7" stroke-linejoin="round"/>
  <ellipse cx="140" cy="322" rx="26" ry="13" fill="#3a7d72" stroke="#2d263c" stroke-width="7"/>
  <ellipse cx="220" cy="322" rx="26" ry="13" fill="#3a7d72" stroke="#2d263c" stroke-width="7"/>
  <path d="M180,160 C230,160 250,205 245,250 C240,292 210,306 180,306 C150,306 120,292 115,250 C110,205 130,160 180,160 Z" fill="#4a9c8f" stroke="#2d263c" stroke-width="7" stroke-linejoin="round"/>
  <ellipse cx="180" cy="252" rx="40" ry="48" fill="#f2e0b0"/>
  <path d="M120,220 Q90,232 85,258 Q83,268 96,265 Q116,252 130,232 Z" fill="#4a9c8f" stroke="#2d263c" stroke-width="7" stroke-linejoin="round"/>
  <path d="M240,220 Q270,232 275,258 Q277,268 264,265 Q244,252 230,232 Z" fill="#4a9c8f" stroke="#2d263c" stroke-width="7" stroke-linejoin="round"/>
  <line x1="90" y1="255" x2="98" y2="248" stroke="#2d263c" stroke-width="4" stroke-linecap="round"/>
  <line x1="88" y1="264" x2="96" y2="259" stroke="#2d263c" stroke-width="4" stroke-linecap="round"/>
  <line x1="270" y1="255" x2="262" y2="248" stroke="#2d263c" stroke-width="4" stroke-linecap="round"/>
  <line x1="272" y1="264" x2="264" y2="259" stroke="#2d263c" stroke-width="4" stroke-linecap="round"/>
  <circle cx="180" cy="112" r="56" fill="#5aab9d" stroke="#2d263c" stroke-width="7"/>
  <path d="M175,68 Q168,25 195,22 Q222,22 227,48 Q230,78 195,92 Q178,88 175,68 Z" fill="#e2692f" stroke="#2d263c" stroke-width="7" stroke-linejoin="round"/>
  <path d="M188,45 Q205,42 210,60 Q212,72 195,80" fill="none" stroke="#b8461c" stroke-width="4" stroke-linecap="round"/>
  <ellipse cx="152" cy="112" rx="9" ry="11" fill="#241c1c"/>
  <ellipse cx="204" cy="112" rx="9" ry="11" fill="#241c1c"/>
  <circle cx="149" cy="108" r="2.5" fill="#ffffff"/>
  <circle cx="201" cy="108" r="2.5" fill="#ffffff"/>
  <circle cx="170" cy="140" r="3" fill="#241c1c"/>
  <circle cx="190" cy="140" r="3" fill="#241c1c"/>
  <path d="M160,155 Q180,166 200,155" fill="none" stroke="#2d263c" stroke-width="5" stroke-linecap="round"/>
</svg>
