<svg xmlns="http://www.w3.org/2000/svg" viewBox="0 0 360 360"><path d="M122,132 C103,104 80,74 63,44 C94,55 126,78 143,108 C148,117 141,129 122,132 Z" fill="#d8e9f3" stroke="#2d263c" stroke-width="7" stroke-linejoin="round" stroke-linecap="round"/><path d="M240,128 C257,96 278,68 299,47 C295,82 281,116 256,138 C246,146 238,140 240,128 Z" fill="#d8e9f3" stroke="#2d263c" stroke-width="7" stroke-linejoin="round" stroke-linecap="round"/><path d="M180,86 C237,82 286,131 289,196 C292,257 241,311 178,313 C117,315 70,259 72,195 C74,131 123,90 180,86 Z" fill="#e9f2f7" stroke="#2d263c" stroke-width="8" stroke-linejoin="round" stroke-linecap="round"/><path d="M76,178 C92,186 98,212 90,238 C82,232 74,212 74,196 Z" fill="#33333f" stroke="#2d263c" stroke-width="6" stroke-linejoin="round" stroke-linecap="round"/><path d="M286,170 C272,180 266,206 273,230 C282,222 288,202 288,186 Z" fill="#33333f" stroke="#2d263c" stroke-width="6" stroke-linejoin="round" stroke-linecap="round"/><path d="M99,150 C120,136 152,142 163,164 C170,178 162,197 143,199 C115,202 96,176 99,150 Z" fill="#33333f" stroke="#2d263c" stroke-width="7" stroke-linejoin="round" stroke-linecap="round"/><path d="M261,144 C239,132 207,140 198,162 C192,176 201,194 219,196 C246,198 263,170 261,144 Z" fill="#33333f" stroke="#2d263c" stroke-width="7" stroke-linejoin="round" stroke-linecap="round"/><circle cx="135" cy="172" r="14" fill="#6fe0f7" stroke="#2d263c" stroke-width="6"/><circle cx="226" cy="168" r="13" fill="#6fe0f7" stroke="#2d263c" stroke-width="6"/><circle cx="138" cy="170" r="4" fill="#2d263c"/><circle cx="223" cy="166" r="4" fill="#2d263c"/><path d="M108,231 C132,228 158,234 181,234 C206,233 231,226 251,220 C254,244 236,272 198,279 C158,286 117,262 108,231 Z" fill="#332e42" stroke="#2d263c" stroke-width="7" stroke-linejoin="round" stroke-linecap="round"/><polygon points="111,231 247,219 249,226 240,243 229,227 217,249 203,231 189,253 175,232 161,252 147,233 133,254 119,234" fill="#f6fbfd"/><polygon points="150,278 162,260 174,277" fill="#f6fbfd"/><polygon points="196,277 208,258 219,273" fill="#f6fbfd"/><path d="M120,112 C134,103 152,98 167,99 C152,106 138,114 129,123 Z" fill="#fbfeff"/></svg>