<svg xmlns="http://www.w3.org/2000/svg" viewBox="0 0 360 360">
  <path d="M215,250 C255,248 295,258 322,292 C325,300 315,306 305,300 C288,290 265,278 235,268 C222,264 212,258 215,250 Z" fill="#33517d" stroke="#2d263c" stroke-width="7" stroke-linejoin="round" stroke-linecap="round"/>
  <path d="M300,278 C312,280 322,288 320,298 C312,300 300,294 296,286 Z" fill="#dbb85a" stroke="#2d263c" stroke-width="6" stroke-linejoin="round" stroke-linecap="round"/>
  <path d="M148,232 C122,236 112,270 110,300 C109,312 100,318 88,322 C100,332 128,330 142,320 C152,308 156,270 158,238 Z" fill="#33517d" stroke="#2d263c" stroke-width="7" stroke-linejoin="round" stroke-linecap="round"/>
  <path d="M92,318 L84,330 L96,328 L100,336 L106,326 L112,334 L112,322 Z" fill="#f2e8cf" stroke="#2d263c" stroke-width="6" stroke-linejoin="round" stroke-linecap="round"/>
  <ellipse cx="178" cy="205" rx="72" ry="88" fill="#4a6da3" stroke="#2d263c" stroke-width="8" stroke-linejoin="round" stroke-linecap="round"/>
  <path d="M178,120 C182,150 182,230 178,286" fill="none" stroke="#33517d" stroke-width="8" stroke-linecap="round"/>
  <ellipse cx="182" cy="222" rx="40" ry="62" fill="#f2e8cf" stroke="#2d263c" stroke-width="7" stroke-linejoin="round" stroke-linecap="round"/>
  <circle cx="172" cy="200" r="5" fill="#dbb85a"/>
  <circle cx="196" cy="238" r="5" fill="#dbb85a"/>
  <path d="M222,235 C252,238 262,272 262,300 C263,312 272,318 284,322 C272,332 244,330 230,320 C220,308 216,272 214,240 Z" fill="#4a6da3" stroke="#2d263c" stroke-width="7" stroke-linejoin="round" stroke-linecap="round"/>
  <path d="M264,318 L272,330 L260,328 L256,336 L250,326 L244,334 L244,322 Z" fill="#f2e8cf" stroke="#2d263c" stroke-width="6" stroke-linejoin="round" stroke-linecap="round"/>
  <path d="M118,188 C100,190 86,204 82,222 C92,226 106,222 114,212 C120,204 122,194 118,188 Z" fill="#4a6da3" stroke="#2d263c" stroke-width="7" stroke-linejoin="round" stroke-linecap="round"/>
  <path d="M86,214 L76,222 L86,224 L82,232 L92,228 L94,236 L100,224 Z" fill="#f2e8cf" stroke="#2d263c" stroke-width="6" stroke-linejoin="round" stroke-linecap="round"/>
  <path d="M240,186 C258,188 272,202 276,220 C266,224 252,220 244,210 C238,202 236,192 240,186 Z" fill="#4a6da3" stroke="#2d263c" stroke-width="7" stroke-linejoin="round" stroke-linecap="round"/>
  <path d="M272,212 L282,220 L272,222 L276,230 L266,226 L264,234 L258,222 Z" fill="#f2e8cf" stroke="#2d263c" stroke-width="6" stroke-linejoin="round" stroke-linecap="round"/>
  <ellipse cx="178" cy="98" rx="54" ry="48" fill="#4a6da3" stroke="#2d263c" stroke-width="8" stroke-linejoin="round" stroke-linecap="round"/>
  <path d="M132,90 C140,60 160,44 178,44 C196,44 216,60 224,90 C210,74 194,66 178,66 C162,66 146,74 132,90 Z" fill="#33517d" stroke="#2d263c" stroke-width="7" stroke-linejoin="round" stroke-linecap="round"/>
  <path d="M150,126 C160,140 196,140 206,126 C200,148 156,148 150,126 Z" fill="#f2e8cf" stroke="#2d263c" stroke-width="6" stroke-linejoin="round" stroke-linecap="round"/>
  <path d="M170,50 L178,28 L186,50 Z" fill="#33517d" stroke="#2d263c" stroke-width="6" stroke-linejoin="round" stroke-linecap="round"/>
  <path d="M132,108 C95,96 55,92 44,108 C40,116 46,126 58,128 C90,132 122,124 148,112 Z" fill="#dbb85a" stroke="#2d263c" stroke-width="7" stroke-linejoin="round" stroke-linecap="round"/>
  <path d="M224,108 C261,96 301,92 312,108 C316,116 310,126 298,128 C266,132 234,124 208,112 Z" fill="#dbb85a" stroke="#2d263c" stroke-width="7" stroke-linejoin="round" stroke-linecap="round"/>
  <path d="M60,110 C90,106 118,108 140,114" fill="none" stroke="#b8934a" stroke-width="4" stroke-linecap="round"/>
  <path d="M296,110 C266,106 238,108 216,114" fill="none" stroke="#b8934a" stroke-width="4" stroke-linecap="round"/>
  <path d="M140,72 C150,66 164,66 172,74 C164,84 148,84 140,72 Z" fill="#c23b3b" stroke="#2d263c" stroke-width="5" stroke-linejoin="round"/>
  <path d="M216,72 C206,66 192,66 184,74 C192,84 208,84 216,72 Z" fill="#c23b3b" stroke="#2d263c" stroke-width="5" stroke-linejoin="round"/>
  <ellipse cx="156" cy="76" rx="8" ry="7" fill="#ffffff" stroke="#2d263c" stroke-width="3"/>
  <ellipse cx="200" cy="76" rx="8" ry="7" fill="#ffffff" stroke="#2d263c" stroke-width="3"/>
  <circle cx="157" cy="77" r="3.4" fill="#1f1f1f"/>
  <circle cx="199" cy="77" r="3.4" fill="#1f1f1f"/>
  <circle cx="166" cy="104" r="2.6" fill="#2d263c"/>
  <circle cx="190" cy="104" r="2.6" fill="#2d263c"/>
</svg>
