<svg xmlns="http://www.w3.org/2000/svg" viewBox="0 0 360 360"><g stroke="#2d263c" stroke-width="7" stroke-linejoin="round" stroke-linecap="round" transform="translate(9,9) scale(0.95)"><path d="M238,252 L284,238 L268,208 L308,194 L292,162 L334,148 L322,56 L286,70 L296,120 L262,136 L276,168 L240,184 L254,216 L224,232 Z" fill="#f9d31d"/><path d="M238,252 L224,232 L254,216 L268,240 Z" fill="#8a5a2b"/><path d="M254,244 Q262,236 270,244 Q262,252 254,244 Z" fill="#f4929c"/><path d="M146,98 Q104,72 82,36 Q76,24 88,28 Q134,48 176,84 Q162,94 146,98 Z" fill="#f9d31d"/><path d="M82,36 Q76,24 88,28 Q108,38 128,56 Q116,68 100,58 Q88,48 82,36 Z" fill="#2d263c"/><path d="M198,98 Q240,72 262,36 Q268,24 256,28 Q210,48 168,84 Q182,94 198,98 Z" fill="#f9d31d"/><path d="M262,36 Q268,24 256,28 Q236,38 216,56 Q228,68 244,58 Q256,48 262,36 Z" fill="#2d263c"/><path d="M134,196 C114,226 104,266 110,294 C116,322 142,332 178,332 C214,332 240,322 246,294 C252,266 242,226 222,196 C196,206 160,206 134,196 Z" fill="#f9d31d"/><path d="M148,222 C130,226 120,242 126,256 C132,268 150,264 158,250 C162,242 158,230 148,222 Z" fill="#f9d31d"/><path d="M208,222 C226,226 236,242 230,256 C224,268 206,264 198,250 C194,242 198,230 208,222 Z" fill="#f9d31d"/><path d="M150,318 C130,316 110,322 108,332 C107,342 122,344 138,342 C154,340 164,334 162,324 Z" fill="#f9d31d"/><path d="M206,318 C226,316 246,322 248,332 C249,342 234,344 218,342 C202,340 192,334 194,324 Z" fill="#f9d31d"/><path d="M96,150 C96,110 128,84 172,84 C216,84 248,110 248,150 C248,176 232,196 206,205 C195,209 184,211 172,211 C160,211 149,209 138,205 C112,196 96,176 96,150 Z" fill="#f9d31d"/><circle cx="128" cy="176" r="19" fill="#e23d2d" stroke-width="6"/><circle cx="216" cy="176" r="19" fill="#e23d2d" stroke-width="6"/><circle cx="148" cy="142" r="11" fill="#2d263c" stroke="none"/><circle cx="196" cy="142" r="11" fill="#2d263c" stroke="none"/><circle cx="144" cy="138" r="4" fill="#ffffff" stroke="none"/><circle cx="192" cy="138" r="4" fill="#ffffff" stroke="none"/><path d="M169,156 L175,156 L172,160 Z" fill="#2d263c" stroke="none"/><path d="M148,164 Q160,175 172,166 Q184,175 196,164 Q192,192 172,193 Q152,192 148,164 Z" fill="#7a3226" stroke-width="5"/><path d="M160,184 Q172,176 184,184 Q181,193 172,193 Q163,193 160,184 Z" fill="#f4929c" stroke="none"/><path d="M132,96 Q128,54 172,50 Q216,54 212,96 Q212,108 172,110 Q132,108 132,96 Z" fill="#e6392b"/><path d="M136,90 Q172,104 208,90 Q202,72 172,70 Q142,72 136,90 Z" fill="#ffffff"/><path d="M130,94 Q172,116 214,94 Q210,110 172,122 Q134,110 130,94 Z" fill="#2f6b3a"/><circle cx="172" cy="54" r="7" fill="#8a2018"/><circle cx="172" cy="86" r="7" fill="#2f6b3a"/></g></svg>