<svg xmlns="http://www.w3.org/2000/svg" viewBox="0 0 360 360">
  <!-- 後ろの枝(左奥) -->
  <path d="M130 140 Q105 115 95 90 Q88 72 78 60" stroke="#2d263c" stroke-width="7" stroke-linecap="round" fill="none"/>
  <path d="M95 90 Q80 82 68 78" stroke="#2d263c" stroke-width="6" stroke-linecap="round" fill="none"/>

  <!-- 後ろの枝(右奥) -->
  <path d="M235 130 Q262 108 275 82 Q282 65 288 52" stroke="#2d263c" stroke-width="7" stroke-linecap="round" fill="none"/>
  <path d="M275 82 Q290 76 302 78" stroke="#2d263c" stroke-width="6" stroke-linecap="round" fill="none"/>

  <!-- 根っこ(左) -->
  <path d="M148 295 Q135 308 122 318 Q112 325 106 332" stroke="#2d263c" stroke-width="8" stroke-linecap="round" fill="#5a3318"/>
  <path d="M155 300 Q148 318 142 330" stroke="#2d263c" stroke-width="7" stroke-linecap="round" fill="none"/>

  <!-- 根っこ(右) -->
  <path d="M208 295 Q222 310 234 320 Q244 328 250 334" stroke="#2d263c" stroke-width="8" stroke-linecap="round" fill="#5a3318"/>
  <path d="M202 300 Q208 318 214 332" stroke="#2d263c" stroke-width="7" stroke-linecap="round" fill="none"/>

  <!-- 体(幹) メイン -->
  <path d="M138 290 Q118 265 115 230 Q112 195 118 168 Q125 142 140 125 Q158 108 180 105 Q205 103 222 118 Q240 135 246 162 Q252 192 248 228 Q244 262 225 288 Q210 305 180 308 Q158 310 138 290Z" fill="#7a4e2a" stroke="#2d263c" stroke-width="8" stroke-linejoin="round"/>

  <!-- 体の木目模様(腹の明るい部分) -->
  <path d="M155 175 Q160 165 180 162 Q200 160 210 170 Q218 182 215 200 Q210 220 198 232 Q186 242 172 238 Q158 232 152 216 Q147 198 155 175Z" fill="#c4924a" stroke="#2d263c" stroke-width="4" stroke-linejoin="round"/>

  <!-- 木目のひび割れ模様 -->
  <path d="M162 178 Q165 190 163 205" stroke="#2d263c" stroke-width="3" stroke-linecap="round" fill="none"/>
  <path d="M192 175 Q196 188 194 202" stroke="#2d263c" stroke-width="3" stroke-linecap="round" fill="none"/>
  <path d="M158 215 Q170 220 184 218 Q196 216 206 210" stroke="#2d263c" stroke-width="3" stroke-linecap="round" fill="none"/>

  <!-- 体の黒い節(左) -->
  <ellipse cx="130" cy="210" rx="8" ry="6" fill="#2d263c"/>
  <!-- 体の黒い節(右) -->
  <ellipse cx="232" cy="205" rx="7" ry="5" fill="#2d263c"/>

  <!-- 左腕枝 -->
  <path d="M128 168 Q108 155 90 148 Q72 142 58 138" stroke="#2d263c" stroke-width="9" stroke-linecap="round" fill="none" stroke-linejoin="round"/>
  <path d="M80 144 Q70 130 62 118" stroke="#2d263c" stroke-width="7" stroke-linecap="round" fill="none"/>
  <path d="M90 148 Q84 162 78 172" stroke="#2d263c" stroke-width="6" stroke-linecap="round" fill="none"/>
  <!-- 左腕塗り -->
  <path d="M128 162 Q108 148 90 142 Q72 136 58 132 L58 144 Q72 148 90 154 Q108 162 128 174Z" fill="#7a4e2a" stroke="#2d263c" stroke-width="5" stroke-linejoin="round"/>

  <!-- 右腕枝 -->
  <path d="M234 162 Q254 148 272 140 Q290 133 305 128" stroke="#2d263c" stroke-width="9" stroke-linecap="round" fill="none" stroke-linejoin="round"/>
  <path d="M282 135 Q292 120 298 108" stroke="#2d263c" stroke-width="7" stroke-linecap="round" fill="none"/>
  <path d="M272 140 Q276 155 280 165" stroke="#2d263c" stroke-width="6" stroke-linecap="round" fill="none"/>
  <!-- 右腕塗り -->
  <path d="M234 155 Q254 142 272 134 Q290 127 305 122 L305 134 Q290 139 272 146 Q254 154 234 168Z" fill="#7a4e2a" stroke="#2d263c" stroke-width="5" stroke-linejoin="round"/>

  <!-- 頭部(上の丸い部分) -->
  <ellipse cx="180" cy="118" rx="42" ry="38" fill="#7a4e2a" stroke="#2d263c" stroke-width="7"/>

  <!-- 頭の枝(左) -->
  <path d="M148 105 Q135 88 128 70 Q122 55 118 42" stroke="#2d263c" stroke-width="8" stroke-linecap="round" fill="none"/>
  <path d="M128 70 Q116 64 108 62" stroke="#2d263c" stroke-width="6" stroke-linecap="round" fill="none"/>
  <path d="M122 56 Q114 48 110 38" stroke="#2d263c" stroke-width="5" stroke-linecap="round" fill="none"/>

  <!-- 頭の枝(右) -->
  <path d="M214 102 Q228 84 236 66 Q242 50 246 38" stroke="#2d263c" stroke-width="8" stroke-linecap="round" fill="none"/>
  <path d="M236 66 Q250 58 258 55" stroke="#2d263c" stroke-width="6" stroke-linecap="round" fill="none"/>
  <path d="M244 52 Q252 42 256 32" stroke="#2d263c" stroke-width="5" stroke-linecap="round" fill="none"/>

  <!-- 頭の真ん中の枝 -->
  <path d="M180 82 Q176 65 174 48 Q172 34 170 22" stroke="#2d263c" stroke-width="7" stroke-linecap="round" fill="none"/>
  <path d="M174 50 Q164 44 158 40" stroke="#2d263c" stroke-width="5" stroke-linecap="round" fill="none"/>
  <path d="M174 50 Q182 42 188 38" stroke="#2d263c" stroke-width="5" stroke-linecap="round" fill="none"/>

  <!-- 顔の目(赤い一つ目・胸の位置) -->
  <ellipse cx="180" cy="198" rx="22" ry="20" fill="#e8001a" stroke="#2d263c" stroke-width="5"/>
  <ellipse cx="180" cy="198" rx="14" ry="13" fill="#ff3344"/>
  <ellipse cx="180" cy="198" rx="7" ry="7" fill="#8b0010"/>
  <!-- 目の光沢 -->
  <ellipse cx="172" cy="190" rx="4" ry="3" fill="white" opacity="0.7"/>

  <!-- 口(小さなへの字) -->
  <path d="M168 122 Q178 128 192 122" stroke="#2d263c" stroke-width="5" stroke-linecap="round" fill="none"/>

  <!-- 顔の穴(鼻のような) -->
  <ellipse cx="174" cy="110" rx="4" ry="5" fill="#2d263c"/>
  <ellipse cx="186" cy="109" rx="3" ry="4" fill="#2d263c"/>

  <!-- 体のひびテクスチャ -->
  <path d="M140 245 Q148 252 142 262" stroke="#2d263c" stroke-width="3" stroke-linecap="round" fill="none"/>
  <path d="M220 248 Q214 256 218 266" stroke="#2d263c" stroke-width="3" stroke-linecap="round" fill="none"/>
  <path d="M162 280 Q170 285 180 283 Q190 281 198 276" stroke="#2d263c" stroke-width="3" stroke-linecap="round" fill="none"/>
</svg>