<svg xmlns="http://www.w3.org/2000/svg" viewBox="0 0 360 360">
  <!-- tail -->
  <path d="M230 280 Q270 300 285 260 Q295 230 275 220 Q255 215 245 240 Q238 260 230 280Z" fill="#1a6bbf" stroke="#2d263c" stroke-width="7" stroke-linejoin="round" stroke-linecap="round"/>
  <!-- tail tip darker -->
  <ellipse cx="282" cy="252" rx="14" ry="10" fill="#155099" stroke="#2d263c" stroke-width="5" stroke-linejoin="round"/>

  <!-- body -->
  <path d="M95 165 Q80 200 85 240 Q90 270 115 280 Q145 292 175 288 Q210 285 230 278 Q250 268 250 245 Q252 215 245 190 Q238 165 220 150 Q195 135 160 135 Q125 135 105 148 Q97 153 95 165Z" fill="#1a6bbf" stroke="#2d263c" stroke-width="8" stroke-linejoin="round" stroke-linecap="round"/>

  <!-- belly -->
  <path d="M110 175 Q108 210 112 248 Q115 268 135 278 Q160 285 185 280 Q210 273 218 255 Q224 235 220 205 Q217 180 205 168 Q185 158 155 158 Q128 158 118 168 Z" fill="#a8d8e8" stroke="#2d263c" stroke-width="5" stroke-linejoin="round"/>

  <!-- dark spots on body -->
  <ellipse cx="140" cy="185" rx="14" ry="10" fill="#1258a0" opacity="0.7"/>
  <ellipse cx="195" cy="178" rx="11" ry="8" fill="#1258a0" opacity="0.7"/>
  <ellipse cx="155" cy="220" rx="13" ry="9" fill="#1258a0" opacity="0.7"/>
  <ellipse cx="205" cy="225" rx="10" ry="8" fill="#1258a0" opacity="0.7"/>

  <!-- back spines -->
  <polygon points="120,148 112,122 128,142" fill="#cc2222" stroke="#2d263c" stroke-width="5" stroke-linejoin="round"/>
  <polygon points="148,138 143,108 158,135" fill="#cc2222" stroke="#2d263c" stroke-width="5" stroke-linejoin="round"/>
  <polygon points="178,134 175,103 190,132" fill="#cc2222" stroke="#2d263c" stroke-width="5" stroke-linejoin="round"/>
  <polygon points="207,142 207,112 220,140" fill="#cc2222" stroke="#2d263c" stroke-width="5" stroke-linejoin="round"/>

  <!-- left arm -->
  <path d="M95 185 Q68 195 62 215 Q58 230 72 238 Q85 244 98 232 Q108 220 105 200Z" fill="#1a6bbf" stroke="#2d263c" stroke-width="7" stroke-linejoin="round" stroke-linecap="round"/>
  <!-- left claws -->
  <line x1="65" y1="232" x2="54" y2="248" stroke="#2d263c" stroke-width="6" stroke-linecap="round"/>
  <line x1="73" y1="238" x2="65" y2="255" stroke="#2d263c" stroke-width="6" stroke-linecap="round"/>
  <line x1="82" y1="240" x2="76" y2="258" stroke="#2d263c" stroke-width="6" stroke-linecap="round"/>

  <!-- right arm -->
  <path d="M238 188 Q262 195 270 218 Q275 233 260 240 Q247 246 236 234 Q225 220 228 202Z" fill="#1a6bbf" stroke="#2d263c" stroke-width="7" stroke-linejoin="round" stroke-linecap="round"/>
  <!-- right claws -->
  <line x1="268" y1="233" x2="278" y2="248" stroke="#2d263c" stroke-width="6" stroke-linecap="round"/>
  <line x1="260" y1="240" x2="268" y2="256" stroke="#2d263c" stroke-width="6" stroke-linecap="round"/>
  <line x1="250" y1="242" x2="255" y2="259" stroke="#2d263c" stroke-width="6" stroke-linecap="round"/>

  <!-- left leg -->
  <path d="M115 278 Q105 300 100 320 Q97 335 115 337 Q128 338 135 322 Q140 308 138 288Z" fill="#1a6bbf" stroke="#2d263c" stroke-width="7" stroke-linejoin="round" stroke-linecap="round"/>
  <!-- left foot/claws -->
  <line x1="103" y1="333" x2="92" y2="348" stroke="#2d263c" stroke-width="7" stroke-linecap="round"/>
  <line x1="113" y1="337" x2="108" y2="353" stroke="#2d263c" stroke-width="7" stroke-linecap="round"/>
  <line x1="126" y1="335" x2="124" y2="352" stroke="#2d263c" stroke-width="7" stroke-linecap="round"/>

  <!-- right leg -->
  <path d="M195 282 Q200 305 202 322 Q204 338 220 336 Q234 334 234 318 Q233 302 225 287Z" fill="#1a6bbf" stroke="#2d263c" stroke-width="7" stroke-linejoin="round" stroke-linecap="round"/>
  <!-- right foot/claws -->
  <line x1="206" y1="334" x2="198" y2="350" stroke="#2d263c" stroke-width="7" stroke-linecap="round"/>
  <line x1="218" y1="336" x2="214" y2="353" stroke="#2d263c" stroke-width="7" stroke-linecap="round"/>
  <line x1="229" y1="333" x2="228" y2="350" stroke="#2d263c" stroke-width="7" stroke-linecap="round"/>

  <!-- HUGE jaw / lower head -->
  <path d="M88 100 Q75 118 75 140 Q75 160 90 172 Q108 183 130 180 Q155 178 168 165 Q180 152 178 132 Q175 110 160 98 Q145 87 120 87 Q100 87 88 100Z" fill="#1a6bbf" stroke="#2d263c" stroke-width="8" stroke-linejoin="round" stroke-linecap="round"/>

  <!-- lower jaw (big!) -->
  <path d="M78 142 Q72 160 76 178 Q80 195 100 202 Q125 208 148 200 Q168 192 172 175 Q176 158 168 145 Q158 132 135 130 Q108 128 90 135 Z" fill="#1a6bbf" stroke="#2d263c" stroke-width="8" stroke-linejoin="round" stroke-linecap="round"/>

  <!-- jaw underside (lighter) -->
  <path d="M85 152 Q82 168 86 182 Q92 196 112 200 Q132 204 150 196 Q164 188 166 174 Q168 160 160 150 Q148 140 128 140 Q105 140 93 146Z" fill="#a8d8e8" stroke="#2d263c" stroke-width="5" stroke-linejoin="round"/>

  <!-- teeth upper -->
  <rect x="100" y="133" width="10" height="14" rx="3" fill="white" stroke="#2d263c" stroke-width="4"/>
  <rect x="118" y="131" width="12" height="16" rx="3" fill="white" stroke="#2d263c" stroke-width="4"/>
  <rect x="138" y="133" width="10" height="14" rx="3" fill="white" stroke="#2d263c" stroke-width="4"/>
  <rect x="155" y="136" width="9" height="12" rx="3" fill="white" stroke="#2d263c" stroke-width="4"/>

  <!-- teeth lower -->
  <rect x="105" y="155" width="9" height="13" rx="3" fill="white" stroke="#2d263c" stroke-width="4"/>
  <rect x="124" y="153" width="11" height="15" rx="3" fill="white" stroke="#2d263c" stroke-width="4"/>
  <rect x="144" y="155" width="9" height="13" rx="3" fill="white" stroke="#2d263c" stroke-width="4"/>

  <!-- eye left (red) -->
  <ellipse cx="108" cy="96" rx="14" ry="13" fill="#ff2222" stroke="#2d263c" stroke-width="6"/>
  <ellipse cx="108" cy="96" rx="7" ry="7" fill="#880000"/>
  <ellipse cx="105" cy="93" rx="3" ry="3" fill="white"/>

  <!-- eye right -->
  <ellipse cx="148" cy="92" rx="13" ry="12" fill="#ff2222" stroke="#2d263c" stroke-width="6"/>
  <ellipse cx="148" cy="92" rx="6" ry="6" fill="#880000"/>
  <ellipse cx="145" cy="89" rx="2.5" ry="2.5" fill="white"/>

  <!-- head top crests (red spiky bumps) -->
  <polygon points="108,78 100,52 118,74" fill="#cc2222" stroke="#2d263c" stroke-width="6" stroke-linejoin="round"/>
  <polygon points="130,72 124,42 140,70" fill="#cc2222" stroke="#2d263c" stroke-width="6" stroke-linejoin="round"/>
  <polygon points="150,76 146,50 162,74" fill="#cc2222" stroke="#2d263c" stroke-width="6" stroke-linejoin="round"/>

  <!-- nostril dots -->
  <ellipse cx="118" cy="112" rx="4" ry="3" fill="#1258a0"/>
  <ellipse cx="138" cy="110" rx="4" ry="3" fill="#1258a0"/>
</svg>