<svg xmlns="http://www.w3.org/2000/svg" viewBox="0 0 360 360"><g stroke="#2d263c" stroke-width="7" stroke-linejoin="round" stroke-linecap="round"><path d="M232 262 C268 238 308 248 330 292 C312 306 282 306 262 296 C250 292 238 280 232 262 Z" fill="#4f9ad1"/><path d="M254 256 L266 228 L278 254 L292 234 L304 262 L296 270 L256 264 Z" fill="#d6453f"/><polygon points="70,192 86,152 102,190" fill="#d6453f"/><polygon points="62,236 80,198 96,232" fill="#d6453f"/><polygon points="258,196 276,158 292,196" fill="#d6453f"/><path d="M125 165 C95 195 88 250 105 290 C125 315 235 318 255 290 C272 252 265 198 238 165 C215 150 150 148 125 165 Z" fill="#4f9ad1"/><path d="M150 190 C135 220 138 270 155 295 C175 308 195 306 210 293 C226 268 224 218 208 190 C190 178 165 178 150 190 Z" fill="#f5d36b"/><path d="M150 230 C170 238 195 238 212 230" fill="none" stroke-width="5"/><path d="M152 262 C172 270 194 270 210 262" fill="none" stroke-width="5"/><path d="M122 282 C112 300 110 318 116 330 L156 330 C159 316 157 300 150 288 Z" fill="#4f9ad1"/><path d="M116 330 L123 314 L130 330 L137 315 L144 330 L150 316 L157 330 Z" fill="#ffffff" stroke-width="5"/><path d="M214 288 C208 302 206 318 210 330 L250 330 C254 314 250 298 242 284 Z" fill="#4f9ad1"/><path d="M210 330 L217 314 L224 330 L231 315 L238 330 L244 316 L251 330 Z" fill="#ffffff" stroke-width="5"/><path d="M118 200 C95 202 78 220 76 250 C88 258 104 256 114 248 C110 230 114 214 122 206 Z" fill="#4f9ad1"/><path d="M76 250 L80 266 L86 250 L90 266 L96 250 L100 264 L104 248 Z" fill="#ffffff" stroke-width="5"/><path d="M244 202 C266 206 282 224 284 250 C272 258 256 256 246 246 C250 228 246 214 240 208 Z" fill="#4f9ad1"/><path d="M258 252 L262 268 L268 252 L272 266 L278 250 L282 264 L286 248 Z" fill="#ffffff" stroke-width="5"/><path d="M126 148 C110 118 114 78 140 60 C166 44 204 44 230 60 C252 78 256 118 242 148 C210 162 158 162 126 148 Z" fill="#4f9ad1"/><path d="M148 64 L160 34 L174 52 L186 24 L200 50 L212 32 L224 62 C200 70 172 70 148 64 Z" fill="#d6453f"/><path d="M116 116 C150 134 214 134 250 114" fill="none"/><polygon points="126,122 136,102 147,124" fill="#ffffff" stroke-width="5"/><polygon points="219,124 229,102 239,121" fill="#ffffff" stroke-width="5"/><polygon points="168,128 175,146 183,127" fill="#ffffff" stroke-width="5"/><polygon points="194,128 201,145 208,127" fill="#ffffff" stroke-width="5"/><ellipse cx="150" cy="84" rx="12" ry="10" fill="#ffffff" stroke-width="5"/><ellipse cx="216" cy="82" rx="11" ry="11" fill="#ffffff" stroke-width="5"/><circle cx="152" cy="86" r="5" fill="#d6453f" stroke="none"/><circle cx="214" cy="84" r="5" fill="#d6453f" stroke="none"/><circle cx="153" cy="87" r="2" fill="#2d263c" stroke="none"/><circle cx="213" cy="85" r="2" fill="#2d263c" stroke="none"/><path d="M136 70 L166 80" fill="none" stroke-width="6"/><path d="M230 66 L202 78" fill="none" stroke-width="6"/><ellipse cx="176" cy="102" rx="3" ry="2.5" fill="#2d263c" stroke="none"/><ellipse cx="190" cy="101" rx="3" ry="2.5" fill="#2d263c" stroke="none"/></g></svg>