<svg xmlns="http://www.w3.org/2000/svg" viewBox="0 0 360 360">
<ellipse cx="180" cy="252" rx="50" ry="66" fill="#5a7fd4" stroke="#2d263c" stroke-width="8" stroke-linejoin="round"/>
<ellipse cx="155" cy="312" rx="20" ry="15" fill="#5a7fd4" stroke="#2d263c" stroke-width="6"/>
<ellipse cx="205" cy="312" rx="20" ry="15" fill="#5a7fd4" stroke="#2d263c" stroke-width="6"/>
<path d="M155 205 Q130 185 135 225 Q150 230 160 215" fill="#5a7fd4" stroke="#2d263c" stroke-width="6" stroke-linejoin="round"/>
<path d="M205 205 Q230 185 225 225 Q210 230 200 215" fill="#5a7fd4" stroke="#2d263c" stroke-width="6" stroke-linejoin="round"/>
<circle cx="180" cy="132" r="68" fill="#5a7fd4" stroke="#2d263c" stroke-width="8"/>
<path d="M124 112 Q112 38 168 82 Q176 100 166 120 Z" fill="#5a7fd4" stroke="#2d263c" stroke-width="7" stroke-linejoin="round"/>
<path d="M236 112 Q248 38 192 82 Q184 100 194 120 Z" fill="#5a7fd4" stroke="#2d263c" stroke-width="7" stroke-linejoin="round"/>
<ellipse cx="145" cy="100" rx="18" ry="22" fill="#2d263c"/>
<ellipse cx="215" cy="100" rx="18" ry="22" fill="#2d263c"/>
<path d="M148 92 Q160 92 160 104 Q160 114 150 114 Q142 114 142 104 Q142 96 148 92 Z" fill="#f0f0f8"/>
<path d="M212 92 Q224 92 224 104 Q224 114 214 114 Q206 114 206 104 Q206 96 212 92 Z" fill="#f0f0f8"/>
<circle cx="152" cy="138" r="9" fill="#2d263c"/>
<circle cx="208" cy="138" r="9" fill="#2d263c"/>
<circle cx="155" cy="135" r="3" fill="#fff"/>
<circle cx="211" cy="135" r="3" fill="#fff"/>
<path d="M168 162 Q180 170 192 162" fill="none" stroke="#2d263c" stroke-width="4" stroke-linecap="round"/>
<path d="M174 152 L170 160 M186 152 L190 160" stroke="#2d263c" stroke-width="4" stroke-linecap="round"/>
</svg>
