<svg xmlns="http://www.w3.org/2000/svg" viewBox="0 0 360 360">
<ellipse cx="180" cy="300" rx="70" ry="18" fill="#00000022"/>
<path d="M100 300 Q90 220 130 190 Q150 150 180 150 Q210 150 230 190 Q270 220 260 300 Q260 320 230 322 L130 322 Q100 320 100 300 Z" fill="#5aa7d6" stroke="#2d263c" stroke-width="8" stroke-linejoin="round" stroke-linecap="round"/>
<path d="M120 300 Q118 250 150 235 Q180 222 210 235 Q242 250 240 300 Q240 312 220 314 L140 314 Q120 312 120 300 Z" fill="#f2ecd8" stroke="#2d263c" stroke-width="6" stroke-linejoin="round"/>
<path d="M108 150 Q95 90 180 78 Q265 90 252 150 Q260 200 180 205 Q100 200 108 150 Z" fill="#a8703f" stroke="#2d263c" stroke-width="8" stroke-linejoin="round" stroke-linecap="round"/>
<path d="M150 90 Q180 75 210 90 Q212 130 180 138 Q148 130 150 90 Z" fill="#c98f56" stroke="#2d263c" stroke-width="6" stroke-linejoin="round"/>
<rect x="158" y="30" width="44" height="70" rx="18" fill="#cfd6dc" stroke="#2d263c" stroke-width="7" stroke-linejoin="round"/>
<ellipse cx="180" cy="30" rx="26" ry="14" fill="#e88fae" stroke="#2d263c" stroke-width="7"/>
<circle cx="180" cy="30" r="9" fill="#5aa7d6" stroke="#2d263c" stroke-width="5"/>
<rect x="90" y="120" width="28" height="46" rx="12" fill="#cfd6dc" stroke="#2d263c" stroke-width="6" stroke-linejoin="round"/>
<ellipse cx="104" cy="120" rx="15" ry="9" fill="#e88fae" stroke="#2d263c" stroke-width="5"/>
<rect x="242" y="120" width="28" height="46" rx="12" fill="#cfd6dc" stroke="#2d263c" stroke-width="6" stroke-linejoin="round"/>
<ellipse cx="256" cy="120" rx="15" ry="9" fill="#e88fae" stroke="#2d263c" stroke-width="5"/>
<rect x="76" y="175" width="24" height="34" rx="10" fill="#cfd6dc" stroke="#2d263c" stroke-width="6" stroke-linejoin="round"/>
<rect x="260" y="175" width="24" height="34" rx="10" fill="#cfd6dc" stroke="#2d263c" stroke-width="6" stroke-linejoin="round"/>
<circle cx="150" cy="200" r="13" fill="#fff" stroke="#2d263c" stroke-width="6"/>
<circle cx="212" cy="200" r="13" fill="#fff" stroke="#2d263c" stroke-width="6"/>
<circle cx="150" cy="203" r="5" fill="#2d263c"/>
<circle cx="212" cy="203" r="5" fill="#2d263c"/>
<path d="M168 232 Q180 240 194 232" fill="none" stroke="#2d263c" stroke-width="6" stroke-linecap="round"/>
<path d="M95 270 Q85 300 100 320" fill="none" stroke="#2d263c" stroke-width="7" stroke-linecap="round"/>
<path d="M265 270 Q275 300 260 320" fill="none" stroke="#2d263c" stroke-width="7" stroke-linecap="round"/>
<ellipse cx="112" cy="322" rx="24" ry="12" fill="#5aa7d6" stroke="#2d263c" stroke-width="7"/>
<ellipse cx="248" cy="322" rx="24" ry="12" fill="#5aa7d6" stroke="#2d263c" stroke-width="7"/>
<path d="M138 175 Q120 150 130 130" fill="none" stroke="#2d263c" stroke-width="6" stroke-linecap="round"/>
<path d="M222 175 Q240 150 230 130" fill="none" stroke="#2d263c" stroke-width="6" stroke-linecap="round"/>
</svg>
