<svg xmlns="http://www.w3.org/2000/svg" viewBox="0 0 360 360">
  <!-- 尾びれ -->
  <path d="M56 180 L24 152 L40 180 L24 208 Z" fill="#4A3A4A" stroke="#2d263c" stroke-width="7" stroke-linejoin="round"/>
  <!-- 体(長魚雷) -->
  <path d="M56 180 Q120 120 230 140 Q296 152 326 178 Q324 188 296 200 Q230 220 140 210 Q80 200 56 180Z" fill="#5A4458" stroke="#2d263c" stroke-width="8" stroke-linejoin="round"/>
  <!-- 腹(明色) -->
  <path d="M70 190 Q150 206 250 196 Q296 190 316 182" fill="none" stroke="#D8B8D0" stroke-width="18" stroke-linecap="round"/>
  <!-- 背びれ(連続) -->
  <path d="M120 138 L132 110 L150 138 Z" fill="#3A2E3E" stroke="#2d263c" stroke-width="6" stroke-linejoin="round"/>
  <path d="M170 138 L180 112 L196 138 Z" fill="#3A2E3E" stroke="#2d263c" stroke-width="6" stroke-linejoin="round"/>
  <path d="M216 142 L224 120 L238 144 Z" fill="#3A2E3E" stroke="#2d263c" stroke-width="6" stroke-linejoin="round"/>
  <!-- 胸びれ -->
  <path d="M120 190 L96 224 L140 206 Z" fill="#3A2E3E" stroke="#2d263c" stroke-width="6" stroke-linejoin="round"/>
  <!-- 長いあご先 -->
  <path d="M250 158 Q296 168 332 176 Q324 186 296 188 Q268 188 250 186" fill="#7A5A6E" stroke="#2d263c" stroke-width="7" stroke-linejoin="round"/>
  <!-- 歯 -->
  <path d="M276 180 L280 189 M288 180 L292 189 M300 180 L304 188 M312 180 L315 187" fill="none" stroke="#2d263c" stroke-width="4" stroke-linecap="round"/>
  <!-- 目 -->
  <ellipse cx="238" cy="160" rx="14" ry="16" fill="#F2E04A" stroke="#2d263c" stroke-width="6"/>
  <ellipse cx="240" cy="162" rx="6" ry="9" fill="#241f2e"/>
  <!-- えら -->
  <path d="M196 162 Q190 180 196 198" fill="none" stroke="#2d263c" stroke-width="5" stroke-linecap="round"/>
</svg>
