<svg xmlns="http://www.w3.org/2000/svg" viewBox="0 0 360 360">
<ellipse cx="180" cy="300" rx="55" ry="14" fill="#2d263c" opacity="0.15"/>
<path d="M120 210 Q108 150 150 108 Q168 90 180 92 Q192 90 210 108 Q252 150 240 210 Q248 250 220 275 Q200 292 180 292 Q160 292 140 275 Q112 250 120 210 Z" fill="#e8592c" stroke="#2d263c" stroke-width="8" stroke-linejoin="round"/>
<path d="M150 108 Q168 130 180 132 Q192 130 210 108" fill="none" stroke="#2d263c" stroke-width="6" stroke-linecap="round"/>
<path d="M180 92 Q176 68 160 52" fill="none" stroke="#3f9a44" stroke-width="9" stroke-linecap="round"/>
<path d="M160 52 Q140 40 118 46 Q136 58 138 74 Q150 66 160 52 Z" fill="#4cb552" stroke="#2d263c" stroke-width="7" stroke-linejoin="round"/>
<path d="M180 92 Q186 66 204 50" fill="none" stroke="#3f9a44" stroke-width="9" stroke-linecap="round"/>
<path d="M204 50 Q226 40 246 48 Q228 58 224 74 Q212 66 204 50 Z" fill="#4cb552" stroke="#2d263c" stroke-width="7" stroke-linejoin="round"/>
<path d="M180 92 L180 70" fill="none" stroke="#3f9a44" stroke-width="9" stroke-linecap="round"/>
<path d="M180 70 Q172 56 176 40 Q186 52 190 40 Q194 56 184 70 Z" fill="#5cc463" stroke="#2d263c" stroke-width="6" stroke-linejoin="round"/>
<circle cx="152" cy="188" r="15" fill="#fff" stroke="#2d263c" stroke-width="6"/>
<circle cx="155" cy="190" r="6" fill="#2d263c"/>
<circle cx="212" cy="188" r="15" fill="#fff" stroke="#2d263c" stroke-width="6"/>
<circle cx="215" cy="190" r="6" fill="#2d263c"/>
<path d="M164 222 Q182 236 200 222" fill="none" stroke="#2d263c" stroke-width="7" stroke-linecap="round"/>
<circle cx="130" cy="212" r="10" fill="#ff8a5c" opacity="0.7"/>
<circle cx="234" cy="212" r="10" fill="#ff8a5c" opacity="0.7"/>
<path d="M118 220 Q98 232 96 254" fill="none" stroke="#e8592c" stroke-width="14" stroke-linecap="round"/>
<path d="M242 220 Q262 232 264 254" fill="none" stroke="#e8592c" stroke-width="14" stroke-linecap="round"/>
<path d="M150 276 Q146 296 142 302" fill="none" stroke="#e8592c" stroke-width="16" stroke-linecap="round"/>
<path d="M210 276 Q214 296 218 302" fill="none" stroke="#e8592c" stroke-width="16" stroke-linecap="round"/>
<path d="M148 150 Q160 140 172 150" fill="none" stroke="#c8451e" stroke-width="5" stroke-linecap="round" opacity="0.6"/>
<path d="M188 150 Q200 140 212 150" fill="none" stroke="#c8451e" stroke-width="5" stroke-linecap="round" opacity="0.6"/>
</svg>
