<svg xmlns="http://www.w3.org/2000/svg" viewBox="0 0 360 360">
<path d="M232,258 C262,246 284,268 278,300 C272,328 236,332 218,314 C206,300 212,270 232,258 Z" fill="#7a2f63" stroke="#2d263c" stroke-width="7" stroke-linejoin="round"/>
<path d="M236,256 L252,236" fill="none" stroke="#2d263c" stroke-width="6" stroke-linecap="round"/>
<path d="M180,95 Q140,58 108,80 Q84,96 90,132 L84,192 Q78,232 90,250 L74,272 L100,282 L88,302 L120,296 L130,318 L156,296 L180,312 L204,296 L230,318 L240,296 L272,302 L260,282 L286,272 L270,250 Q282,232 276,192 L270,132 Q276,96 252,80 Q220,58 180,95 Z" fill="#5c3e8e" stroke="#2d263c" stroke-width="8" stroke-linejoin="round"/>
<path d="M168,62 Q180,38 198,54 Q188,66 176,70 Z" fill="#2d263c" stroke="#2d263c" stroke-width="6" stroke-linejoin="round"/>
<ellipse cx="138" cy="308" rx="16" ry="11" fill="#c9b6e6" stroke="#2d263c" stroke-width="6"/>
<ellipse cx="222" cy="308" rx="16" ry="11" fill="#c9b6e6" stroke="#2d263c" stroke-width="6"/>
<circle cx="143" cy="175" r="30" fill="#ffffff" stroke="#2d263c" stroke-width="7"/>
<circle cx="217" cy="175" r="30" fill="#ffffff" stroke="#2d263c" stroke-width="7"/>
<circle cx="143" cy="179" r="18" fill="#f4c518"/>
<circle cx="217" cy="179" r="18" fill="#f4c518"/>
<circle cx="138" cy="184" r="9" fill="#2d263c"/>
<circle cx="212" cy="184" r="9" fill="#2d263c"/>
<circle cx="132" cy="168" r="5" fill="#ffffff"/>
<circle cx="206" cy="168" r="5" fill="#ffffff"/>
<path d="M164,224 L172,234 L180,224 L188,234 L196,224" fill="none" stroke="#2d263c" stroke-width="6" stroke-linecap="round" stroke-linejoin="round"/>
<path d="M140,246 L150,258 L160,246" fill="none" stroke="#2d263c" stroke-width="5" stroke-linecap="round" stroke-linejoin="round"/>
<path d="M200,246 L210,258 L220,246" fill="none" stroke="#2d263c" stroke-width="5" stroke-linecap="round" stroke-linejoin="round"/>
</svg>
