<svg xmlns="http://www.w3.org/2000/svg" viewBox="0 0 360 360">
  <ellipse cx="180" cy="300" rx="90" ry="16" fill="#2d263c" opacity="0.15"/>
  <path d="M100 300 Q90 250 100 230 Q75 235 60 260 Q80 290 100 300 Z" fill="#c98a4b" stroke="#2d263c" stroke-width="7" stroke-linejoin="round"/>
  <path d="M260 300 Q270 250 260 230 Q285 235 300 260 Q280 290 260 300 Z" fill="#c98a4b" stroke="#2d263c" stroke-width="7" stroke-linejoin="round"/>
  <path d="M180 60 C260 60 320 150 300 250 C280 300 240 305 180 305 C120 305 80 300 60 250 C40 150 100 60 180 60 Z" fill="#b8632f" stroke="#2d263c" stroke-width="8" stroke-linejoin="round"/>
  <path d="M180 90 C150 130 140 200 150 260" fill="none" stroke="#8a4a20" stroke-width="6" stroke-linecap="round"/>
  <path d="M180 90 C210 130 220 200 210 260" fill="none" stroke="#8a4a20" stroke-width="6" stroke-linecap="round"/>
  <path d="M110 150 C130 145 150 145 170 150" fill="none" stroke="#8a4a20" stroke-width="6" stroke-linecap="round"/>
  <path d="M250 150 C230 145 210 145 190 150" fill="none" stroke="#8a4a20" stroke-width="6" stroke-linecap="round"/>
  <path d="M90 240 C130 260 230 260 270 240" fill="none" stroke="#8a4a20" stroke-width="6" stroke-linecap="round"/>
  <path d="M110 285 Q180 320 250 285 Q235 250 180 250 Q125 250 110 285 Z" fill="#f2dca4" stroke="#2d263c" stroke-width="7" stroke-linejoin="round"/>
  <circle cx="150" cy="272" r="14" fill="#2d263c"/>
  <circle cx="210" cy="272" r="14" fill="#2d263c"/>
  <circle cx="154" cy="267" r="4" fill="#fff"/>
  <circle cx="214" cy="267" r="4" fill="#fff"/>
  <path d="M160 300 Q180 308 200 300" fill="none" stroke="#2d263c" stroke-width="6" stroke-linecap="round"/>
  <path d="M120 130 L95 95" fill="none" stroke="#2d263c" stroke-width="7" stroke-linecap="round"/>
  <path d="M240 130 L265 95" fill="none" stroke="#2d263c" stroke-width="7" stroke-linecap="round"/>
</svg>
