<svg xmlns="http://www.w3.org/2000/svg" viewBox="0 0 360 360">
  <g stroke="#2d263c" stroke-width="7" stroke-linejoin="round" stroke-linecap="round">
    <path d="M132,162 C104,128 96,84 118,52 C126,40 140,38 148,50 C162,74 158,118 172,158 Z" fill="#B0814F"/>
    <path d="M228,162 C256,126 262,82 240,50 C232,38 219,40 211,52 C198,76 202,120 188,158 Z" fill="#B0814F"/>
    <polygon points="158,75 178,67 166,91" fill="#F1EBDD" stroke-width="5"/>
    <polygon points="162,106 183,102 168,123" fill="#F1EBDD" stroke-width="5"/>
    <polygon points="202,72 183,65 197,89" fill="#F1EBDD" stroke-width="5"/>
    <polygon points="198,104 177,101 193,121" fill="#F1EBDD" stroke-width="5"/>
    <path d="M116,205 C95,210 82,228 88,248 C92,258 104,258 110,250 C118,238 120,222 124,214 Z" fill="#A9784C"/>
    <path d="M246,208 C268,214 280,232 272,250 C267,259 256,258 251,249 C244,236 242,222 238,214 Z" fill="#A9784C"/>
    <polygon points="88,242 70,250 90,259" fill="#F1EBDD" stroke-width="5"/>
    <polygon points="96,254 86,272 104,263" fill="#F1EBDD" stroke-width="5"/>
    <polygon points="272,244 290,251 270,260" fill="#F1EBDD" stroke-width="5"/>
    <polygon points="264,255 274,271 256,262" fill="#F1EBDD" stroke-width="5"/>
    <path d="M148,296 C141,310 139,322 146,330 C158,336 172,334 176,327 C178,314 176,304 174,300 Z" fill="#A9784C"/>
    <path d="M212,296 C219,310 221,322 214,330 C202,336 188,334 184,327 C182,314 184,304 186,300 Z" fill="#A9784C"/>
    <polygon points="145,326 128,335 147,338" fill="#F1EBDD" stroke-width="5"/>
    <polygon points="158,330 148,340 166,337" fill="#F1EBDD" stroke-width="5"/>
    <polygon points="215,326 231,335 213,338" fill="#F1EBDD" stroke-width="5"/>
    <polygon points="203,330 213,340 195,337" fill="#F1EBDD" stroke-width="5"/>
    <path d="M110,230 C105,170 140,140 182,142 C228,140 258,175 252,235 C248,285 220,308 178,306 C138,308 114,282 110,230 Z" fill="#A9784C"/>
    <path d="M122,212 C118,250 126,278 142,294" fill="none" stroke-width="4" opacity="0.5"/>
    <path d="M240,210 C244,248 236,276 222,292" fill="none" stroke-width="4" opacity="0.5"/>
    <path d="M126,228 C150,242 210,242 234,226 C240,248 228,268 180,270 C132,268 120,248 126,228 Z" fill="#4a3340"/>
    <polygon points="130,231 142,247 153,234 166,248 178,235 191,248 203,234 215,246 231,228 229,223 132,225" fill="#F2EEE4" stroke-width="4"/>
    <polygon points="144,265 154,253 165,266 177,254 189,266 200,253 211,264 212,269 145,269" fill="#F2EEE4" stroke-width="4"/>
    <ellipse cx="155" cy="192" rx="12" ry="10" fill="#FAF7F0" stroke-width="5"/>
    <ellipse cx="208" cy="190" rx="11" ry="11" fill="#FAF7F0" stroke-width="5"/>
    <circle cx="158" cy="194" r="4.5" fill="#2d263c" stroke-width="2"/>
    <circle cx="205" cy="192" r="5" fill="#2d263c" stroke-width="2"/>
    <path d="M139,177 L168,186" fill="none"/>
    <path d="M223,175 L196,185" fill="none"/>
  </g>
</svg>