<svg xmlns="http://www.w3.org/2000/svg" viewBox="0 0 360 360">
<g fill="none" stroke="#2d263c" stroke-width="7" stroke-linejoin="round" stroke-linecap="round">
<path fill="#5a9e4a" d="M180 110 C250 112 286 170 278 220 C272 250 240 262 180 262 C120 262 88 250 82 220 C74 170 110 112 180 110 Z"/>
<path fill="#e8c84a" d="M180 240 C140 240 110 232 104 214 C100 232 110 252 132 258 C156 264 204 264 228 258 C250 252 260 232 256 214 C250 232 220 240 180 240 Z"/>
<path d="M180 130 L180 228 M132 150 L150 224 M228 150 L210 224" stroke="#5a7a3a" stroke-width="4"/>
<ellipse fill="#c8d058" cx="108" cy="278" rx="22" ry="16"/>
<ellipse fill="#c8d058" cx="252" cy="278" rx="22" ry="16"/>
<ellipse fill="#c8d058" cx="132" cy="300" rx="24" ry="16"/>
<ellipse fill="#c8d058" cx="228" cy="300" rx="24" ry="16"/>
<ellipse fill="#c8d058" cx="180" cy="180" rx="74" ry="64"/>
<path fill="#fff7e0" d="M120 190 C140 212 220 212 240 190 C236 214 210 226 180 226 C150 226 124 214 120 190 Z"/>
<path d="M120 190 C140 200 220 200 240 190" stroke-width="5"/>
<path fill="#b8c048" d="M150 222 C166 234 194 234 210 222 C206 230 196 236 180 236 C164 236 154 230 150 222 Z"/>
<ellipse fill="#fff" cx="150" cy="160" rx="12" ry="15"/>
<ellipse fill="#fff" cx="210" cy="160" rx="12" ry="15"/>
<ellipse fill="#2d263c" cx="152" cy="164" rx="6" ry="8"/>
<ellipse fill="#2d263c" cx="212" cy="164" rx="6" ry="8"/>
<circle fill="#fff" stroke="none" cx="149" cy="159" r="2.5"/>
<circle fill="#fff" stroke="none" cx="209" cy="159" r="2.5"/>
<ellipse fill="#f5a8b0" stroke="none" cx="130" cy="186" rx="8" ry="5" opacity="0.8"/>
<ellipse fill="#f5a8b0" stroke="none" cx="230" cy="186" rx="8" ry="5" opacity="0.8"/>
</g>
</svg>
