<svg xmlns="http://www.w3.org/2000/svg" viewBox="0 0 360 360">
  <path d="M235 240 C300 252 332 215 326 160 C323 132 298 126 295 150 C310 190 272 212 232 208 Z" fill="#F9A64A" stroke="#2d263c" stroke-width="7" stroke-linejoin="round" stroke-linecap="round"/>
  <path d="M120 185 C70 150 55 110 72 92 C84 120 100 132 116 142 C112 128 112 116 118 104 C132 124 140 158 138 182 Z" fill="#6FC7B5" stroke="#2d263c" stroke-width="7" stroke-linejoin="round" stroke-linecap="round"/>
  <path d="M242 180 C282 152 296 120 286 100 C274 122 262 132 250 140 C254 126 252 116 246 106 C236 126 230 156 232 176 Z" fill="#6FC7B5" stroke="#2d263c" stroke-width="7" stroke-linejoin="round" stroke-linecap="round"/>
  <path d="M138 316 C130 330 140 338 156 335 C166 332 168 324 164 312 Z" fill="#F9A64A" stroke="#2d263c" stroke-width="7" stroke-linejoin="round" stroke-linecap="round"/>
  <path d="M206 314 C202 326 208 337 224 335 C236 332 236 320 230 310 Z" fill="#F9A64A" stroke="#2d263c" stroke-width="7" stroke-linejoin="round" stroke-linecap="round"/>
  <path d="M180 152 C120 156 96 200 100 250 C104 298 138 322 182 320 C230 318 262 292 262 246 C262 198 238 150 180 152 Z" fill="#F9A64A" stroke="#2d263c" stroke-width="7" stroke-linejoin="round" stroke-linecap="round"/>
  <path d="M180 188 C152 190 138 218 140 252 C142 286 158 306 182 306 C206 306 224 284 224 250 C224 214 210 186 180 188 Z" fill="#FBE3AE" stroke="#2d263c" stroke-width="7" stroke-linejoin="round" stroke-linecap="round"/>
  <path d="M112 218 C92 224 82 244 92 256 C102 266 122 258 128 240 Z" fill="#F9A64A" stroke="#2d263c" stroke-width="7" stroke-linejoin="round" stroke-linecap="round"/>
  <path d="M252 222 C272 226 282 244 274 256 C264 266 246 258 240 242 Z" fill="#F9A64A" stroke="#2d263c" stroke-width="7" stroke-linejoin="round" stroke-linecap="round"/>
  <path d="M170 54 L181 28 L193 54 Z" fill="#FBE3AE" stroke="#2d263c" stroke-width="6" stroke-linejoin="round" stroke-linecap="round"/>
  <path d="M175 52 C135 50 112 80 114 112 C115 138 134 158 172 160 C212 162 238 142 236 110 C234 78 214 54 175 52 Z" fill="#F9A64A" stroke="#2d263c" stroke-width="7" stroke-linejoin="round" stroke-linecap="round"/>
  <path d="M152 58 C140 38 122 32 112 42" fill="none" stroke="#2d263c" stroke-width="7" stroke-linecap="round"/>
  <path d="M202 56 C214 32 236 24 248 36" fill="none" stroke="#2d263c" stroke-width="7" stroke-linecap="round"/>
  <circle cx="110" cy="44" r="8" fill="#F9A64A" stroke="#2d263c" stroke-width="6"/>
  <circle cx="250" cy="38" r="9" fill="#F9A64A" stroke="#2d263c" stroke-width="6"/>
  <circle cx="150" cy="102" r="11" fill="#ffffff" stroke="#2d263c" stroke-width="6"/>
  <circle cx="203" cy="99" r="13" fill="#ffffff" stroke="#2d263c" stroke-width="6"/>
  <circle cx="152" cy="104" r="5" fill="#2d263c"/>
  <circle cx="201" cy="101" r="6" fill="#2d263c"/>
  <circle cx="154" cy="101" r="2" fill="#ffffff"/>
  <circle cx="204" cy="98" r="2.5" fill="#ffffff"/>
  <circle cx="168" cy="132" r="3" fill="#2d263c"/>
  <circle cx="186" cy="131" r="3" fill="#2d263c"/>
  <path d="M150 140 Q177 158 206 138" fill="none" stroke="#2d263c" stroke-width="6" stroke-linecap="round"/>
</svg>