<svg xmlns="http://www.w3.org/2000/svg" viewBox="0 0 360 360">
  <path d="M235 300 C300 290, 325 220, 305 155 C295 120, 265 105, 235 118" fill="none" stroke="#2d263c" stroke-width="50" stroke-linecap="round" stroke-linejoin="round"/>
  <path d="M235 300 C300 290, 325 220, 305 155 C295 120, 265 105, 235 118" fill="none" stroke="#6fbf4f" stroke-width="36" stroke-linecap="round" stroke-linejoin="round"/>
  <circle cx="235" cy="118" r="17" fill="#f7e8c8" stroke="#2d263c" stroke-width="6"/>
  <path d="M110 205 C80 220, 60 235, 58 258" fill="none" stroke="#2d263c" stroke-width="40" stroke-linecap="round"/>
  <path d="M110 205 C80 220, 60 235, 58 258" fill="none" stroke="#7bc96f" stroke-width="26" stroke-linecap="round"/>
  <path d="M250 205 C280 220, 300 235, 302 258" fill="none" stroke="#2d263c" stroke-width="40" stroke-linecap="round"/>
  <path d="M250 205 C280 220, 300 235, 302 258" fill="none" stroke="#7bc96f" stroke-width="26" stroke-linecap="round"/>
  <circle cx="58" cy="262" r="20" fill="#7bc96f" stroke="#2d263c" stroke-width="7"/>
  <circle cx="302" cy="262" r="20" fill="#7bc96f" stroke="#2d263c" stroke-width="7"/>
  <rect x="133" y="298" width="36" height="40" rx="16" fill="#7bc96f" stroke="#2d263c" stroke-width="7"/>
  <rect x="191" y="298" width="36" height="40" rx="16" fill="#7bc96f" stroke="#2d263c" stroke-width="7"/>
  <ellipse cx="151" cy="328" rx="30" ry="11" fill="#7bc96f" stroke="#2d263c" stroke-width="7"/>
  <ellipse cx="209" cy="328" rx="30" ry="11" fill="#7bc96f" stroke="#2d263c" stroke-width="7"/>
  <ellipse cx="180" cy="225" rx="82" ry="88" fill="#7bc96f" stroke="#2d263c" stroke-width="8"/>
  <path d="M180 185 L220 235 L180 285 L140 235 Z" fill="#f7e8c8"/>
  <path d="M180 235 L180 185 L140 235 Z" fill="#f2a6b0"/>
  <path d="M180 235 L180 185 L220 235 Z" fill="#f6d875"/>
  <path d="M180 235 L220 235 L180 285 Z" fill="#f2a6b0"/>
  <path d="M180 235 L180 285 L140 235 Z" fill="#f6d875"/>
  <path d="M180 185 L220 235 L180 285 L140 235 Z" fill="none" stroke="#2d263c" stroke-width="6" stroke-linejoin="round"/>
  <circle cx="180" cy="100" r="58" fill="#7bc96f" stroke="#2d263c" stroke-width="8"/>
  <path d="M150 55 Q180 15 210 55 Q180 40 150 55 Z" fill="#5fa850" stroke="#2d263c" stroke-width="5" stroke-linejoin="round"/>
  <ellipse cx="155" cy="90" rx="20" ry="22" fill="#ffffff" stroke="#2d263c" stroke-width="6"/>
  <ellipse cx="205" cy="90" rx="20" ry="22" fill="#ffffff" stroke="#2d263c" stroke-width="6"/>
  <circle cx="158" cy="92" r="9" fill="#2d263c"/>
  <circle cx="202" cy="92" r="9" fill="#2d263c"/>
  <circle cx="180" cy="120" r="8" fill="#5fa850" stroke="#2d263c" stroke-width="4"/>
  <path d="M160 138 Q180 150 200 138" fill="none" stroke="#2d263c" stroke-width="6" stroke-linecap="round"/>
</svg>
