<svg xmlns="http://www.w3.org/2000/svg" viewBox="0 0 360 360">
  <path d="M235 258 Q262 246 258 274 Q253 297 226 286 Q220 270 235 258 Z" fill="#c9975a" stroke="#2d263c" stroke-width="7" stroke-linejoin="round"/>
  <ellipse cx="150" cy="316" rx="30" ry="19" fill="#c9975a" stroke="#2d263c" stroke-width="7"/>
  <ellipse cx="212" cy="316" rx="30" ry="19" fill="#c9975a" stroke="#2d263c" stroke-width="7"/>
  <path d="M182 168 C 232 168 252 212 246 262 C 241 302 210 312 181 312 C 150 312 119 302 116 262 C 110 212 132 168 182 168 Z" fill="#e0a869" stroke="#2d263c" stroke-width="8" stroke-linejoin="round"/>
  <ellipse cx="181" cy="252" rx="42" ry="52" fill="#f0cf9d"/>
  <path d="M120 208 C 94 218 88 250 99 271 C 108 282 126 276 131 260 C 134 240 128 220 120 208 Z" fill="#e0a869" stroke="#2d263c" stroke-width="7" stroke-linejoin="round"/>
  <path d="M236 198 C 258 186 272 158 267 138 C 262 128 248 133 243 148 C 236 168 230 188 233 204 Z" fill="#e0a869" stroke="#2d263c" stroke-width="7" stroke-linejoin="round"/>
  <g transform="rotate(22 245 100)">
    <rect x="235" y="50" width="20" height="100" rx="10" fill="#f5e8c8" stroke="#2d263c" stroke-width="7"/>
    <circle cx="245" cy="50" r="18" fill="#f5e8c8" stroke="#2d263c" stroke-width="7"/>
    <circle cx="245" cy="150" r="18" fill="#f5e8c8" stroke="#2d263c" stroke-width="7"/>
  </g>
  <ellipse cx="181" cy="187" rx="32" ry="17" fill="#e0a869" stroke="#2d263c" stroke-width="6"/>
  <path d="M166 192 Q181 200 196 192" fill="none" stroke="#2d263c" stroke-width="5" stroke-linecap="round"/>
  <circle cx="153" cy="190" r="8" fill="#f2a6a6"/>
  <circle cx="207" cy="190" r="8" fill="#f2a6a6"/>
  <path d="M118 132 L94 111 L113 152 Z" fill="#efe6d2" stroke="#2d263c" stroke-width="7" stroke-linejoin="round"/>
  <path d="M244 132 L268 111 L249 152 Z" fill="#efe6d2" stroke="#2d263c" stroke-width="7" stroke-linejoin="round"/>
  <path d="M181 78 C 222 78 247 106 247 141 C 247 167 236 187 210 197 L 152 197 C 126 187 115 167 115 141 C 115 106 140 78 181 78 Z" fill="#efe6d2" stroke="#2d263c" stroke-width="8" stroke-linejoin="round"/>
  <circle cx="166" cy="91" r="10" fill="#efe6d2" stroke="#2d263c" stroke-width="6"/>
  <circle cx="196" cy="91" r="10" fill="#efe6d2" stroke="#2d263c" stroke-width="6"/>
  <ellipse cx="156" cy="147" rx="16" ry="21" fill="#2d263c"/>
  <ellipse cx="206" cy="147" rx="16" ry="21" fill="#2d263c"/>
  <path d="M181 167 L173 180 L189 180 Z" fill="#2d263c"/>
  <path d="M202 100 L212 122" fill="none" stroke="#2d263c" stroke-width="4" stroke-linecap="round"/>
</svg>
