<svg xmlns="http://www.w3.org/2000/svg" viewBox="0 0 360 360">
  <g stroke="#2d263c" stroke-width="7" stroke-linejoin="round" stroke-linecap="round">
    <path d="M 124 60 C 116 44 118 28 130 24 C 142 22 150 38 150 54 Z" fill="#356a7c"/>
    <path d="M 234 56 C 236 38 246 24 258 28 C 268 32 266 50 256 62 Z" fill="#356a7c"/>
    <path d="M 72 178 C 40 190 26 236 42 272 C 54 296 82 296 92 278 C 100 262 96 200 72 178 Z" fill="#356a7c"/>
    <path d="M 290 184 C 322 198 332 240 318 274 C 306 295 282 294 272 276 C 265 260 268 206 290 184 Z" fill="#356a7c"/>
    <path d="M 58 232 C 52 152 108 118 180 116 C 256 114 308 158 304 238 C 300 298 248 334 178 332 C 106 334 62 296 58 232 Z" fill="#356a7c"/>
    <path d="M 84 236 C 88 176 130 154 182 156 C 238 154 276 188 274 242 C 272 292 232 318 178 317 C 122 318 80 290 84 236 Z" fill="#f5e3c0"/>
    <path d="M 104 116 C 90 58 130 30 180 32 C 234 28 272 64 258 120 C 252 142 240 150 180 150 C 122 150 110 140 104 116 Z" fill="#356a7c"/>
    <path d="M 114 94 C 120 72 142 62 154 70 C 166 78 172 88 180 88 C 188 88 194 76 208 68 C 224 60 242 72 248 92 C 254 124 226 146 180 146 C 134 146 108 124 114 94 Z" fill="#f5e3c0"/>
    <path d="M 136 100 q 13 -9 26 -1" fill="none"/>
    <path d="M 198 98 q 13 -8 26 1" fill="none"/>
    <path d="M 142 110 C 154 118 206 119 220 108 C 218 134 200 145 180 145 C 160 145 146 132 142 110 Z" fill="#7c3a45"/>
    <path d="M 160 141 L 167 127 L 175 140 Z" fill="#ffffff" stroke-width="5"/>
    <path d="M 191 140 L 198 126 L 206 139 Z" fill="#ffffff" stroke-width="5"/>
    <path d="M 74 304 C 72 276 98 266 124 268 C 150 270 164 286 162 306 C 160 324 136 334 118 333 C 96 334 76 326 74 304 Z" fill="#f5e3c0"/>
    <path d="M 200 308 C 200 280 224 270 250 272 C 274 274 290 290 288 310 C 286 326 262 336 246 335 C 224 336 202 328 200 308 Z" fill="#f5e3c0"/>
    <path d="M 88 288 L 98 264 L 108 286 Z" fill="#8a6a48" stroke-width="5"/>
    <path d="M 111 280 L 121 257 L 131 279 Z" fill="#8a6a48" stroke-width="5"/>
    <path d="M 133 286 L 143 263 L 152 285 Z" fill="#8a6a48" stroke-width="5"/>
    <path d="M 212 292 L 222 268 L 232 290 Z" fill="#8a6a48" stroke-width="5"/>
    <path d="M 235 284 L 245 261 L 255 283 Z" fill="#8a6a48" stroke-width="5"/>
    <path d="M 257 290 L 267 267 L 276 289 Z" fill="#8a6a48" stroke-width="5"/>
  </g>
</svg>