<svg xmlns="http://www.w3.org/2000/svg" viewBox="0 0 360 360">
<rect x="135" y="140" width="90" height="120" rx="10" fill="#f0ead8" stroke="#2d263c" stroke-width="7"/>
<path d="M135 200 L225 200" fill="none" stroke="#c8b890" stroke-width="5"/>
<path d="M180 140 L180 260" fill="none" stroke="#c8b890" stroke-width="5"/>
<polygon points="180,44 208,140 152,140" fill="#b8d098" stroke="#2d263c" stroke-width="7" stroke-linejoin="round"/>
<path d="M180 62 L180 140" fill="none" stroke="#9ab878" stroke-width="4"/>
<rect x="158" y="168" width="12" height="7" rx="2" fill="#2d263c"/>
<rect x="190" y="168" width="12" height="7" rx="2" fill="#2d263c"/>
<path d="M168 188 Q180 196 192 188" fill="none" stroke="#2d263c" stroke-width="4" stroke-linecap="round"/>
<path d="M138 160 Q120 185 110 216 L122 220 Q130 190 148 168 Z" fill="#f0ead8" stroke="#2d263c" stroke-width="6" stroke-linejoin="round"/>
<path d="M222 160 Q240 185 250 216 L238 220 Q230 190 212 168 Z" fill="#f0ead8" stroke="#2d263c" stroke-width="6" stroke-linejoin="round"/>
<path d="M158 258 Q154 286 150 312 L162 314 Q166 288 170 260 Z" fill="#f0ead8" stroke="#2d263c" stroke-width="6" stroke-linejoin="round"/>
<path d="M202 258 Q206 286 210 312 L198 314 Q194 288 190 260 Z" fill="#f0ead8" stroke="#2d263c" stroke-width="6" stroke-linejoin="round"/>
</svg>