<svg xmlns="http://www.w3.org/2000/svg" viewBox="0 0 360 360">
<path d="M75 245 Q180 220 285 245 L275 315 Q180 330 85 315 Z" fill="#8a6a3a" stroke="#2d263c" stroke-width="8" stroke-linejoin="round"/>
<path d="M120 256 L136 276 L104 276 Z" fill="#5a4a2a"/>
<path d="M240 256 L224 276 L256 276 Z" fill="#5a4a2a"/>
<path d="M112 240 Q180 205 248 240 Q252 264 180 270 Q108 264 112 240 Z" fill="#c85a3a" stroke="#2d263c" stroke-width="8" stroke-linejoin="round"/>
<path d="M116 246 Q80 260 92 296 Q112 286 130 272 Z" fill="#c85a3a" stroke="#2d263c" stroke-width="7" stroke-linejoin="round"/>
<path d="M244 246 Q280 260 268 296 Q248 286 230 272 Z" fill="#c85a3a" stroke="#2d263c" stroke-width="7" stroke-linejoin="round"/>
<circle cx="180" cy="165" r="58" fill="#c85a3a" stroke="#2d263c" stroke-width="8"/>
<path d="M134 128 Q98 92 88 114 Q104 124 134 146 Z" fill="#e8d8a0" stroke="#2d263c" stroke-width="6" stroke-linejoin="round"/>
<path d="M226 128 Q262 92 272 114 Q256 124 226 146 Z" fill="#e8d8a0" stroke="#2d263c" stroke-width="6" stroke-linejoin="round"/>
<circle cx="180" cy="188" r="15" fill="none" stroke="#e8d8a0" stroke-width="6"/>
<circle cx="158" cy="160" r="9" fill="#2d263c"/>
<circle cx="202" cy="160" r="9" fill="#2d263c"/>
<circle cx="160" cy="157" r="3" fill="#fff"/>
<circle cx="204" cy="157" r="3" fill="#fff"/>
</svg>