<svg xmlns="http://www.w3.org/2000/svg" viewBox="0 0 360 360"><g stroke="#2d263c" stroke-width="7" stroke-linejoin="round" stroke-linecap="round"><ellipse cx="108" cy="231" rx="43" ry="16" transform="rotate(19 108 231)" fill="#8aa6c4"/><ellipse cx="253" cy="229" rx="42" ry="15" transform="rotate(-17 253 229)" fill="#8aa6c4"/><circle cx="66" cy="246" r="15" fill="#8aa6c4"/><circle cx="295" cy="243" r="16" fill="#8aa6c4"/><path d="M146 287 L142 320 L176 320 L172 287 Z" fill="#8aa6c4"/><path d="M188 287 L184 320 L218 320 L214 286 Z" fill="#8aa6c4"/><ellipse cx="152" cy="326" rx="25" ry="12" fill="#8aa6c4"/><ellipse cx="209" cy="325" rx="24" ry="13" fill="#8aa6c4"/><path d="M138 140 Q180 126 223 139 Q239 172 233 211 Q229 241 211 254 L150 254 Q131 241 127 210 Q121 171 138 140 Z" fill="#8aa6c4"/><ellipse cx="112" cy="148" rx="37" ry="20" transform="rotate(-12 112 148)" fill="#8aa6c4"/><ellipse cx="84" cy="112" rx="15" ry="33" transform="rotate(10 84 112)" fill="#8aa6c4"/><circle cx="80" cy="76" r="16" fill="#8aa6c4"/><ellipse cx="248" cy="146" rx="38" ry="21" transform="rotate(14 248 146)" fill="#8aa6c4"/><ellipse cx="278" cy="110" rx="15" ry="33" transform="rotate(-8 278 110)" fill="#8aa6c4"/><circle cx="282" cy="73" r="17" fill="#8aa6c4"/><path d="M148 167 Q165 185 180 172 Q196 186 214 165" fill="none"/><path d="M180 200 L181 240" fill="none"/><path d="M160 218 Q180 226 201 217" fill="none"/><path d="M145 248 L216 248 Q226 270 219 293 L188 293 Q184 278 180 269 Q177 278 173 293 L141 293 Q135 269 145 248 Z" fill="#2e2a33"/><rect x="138" y="239" width="84" height="17" rx="7" fill="#e8b73a"/><circle cx="180" cy="247" r="11" fill="#f6d35e"/><path d="M140 100 Q137 72 152 62 Q150 45 161 43 Q167 44 168 56 Q172 58 174 45 Q177 33 183 33 Q191 35 191 52 Q195 56 199 45 Q208 44 209 59 Q224 71 222 100 Q220 124 180 128 Q142 124 140 100 Z" fill="#8aa6c4"/><path d="M150 80 L169 89" fill="none"/><path d="M211 79 L192 88" fill="none"/><ellipse cx="163" cy="95" rx="8" ry="6" fill="#cc2936"/><ellipse cx="198" cy="94" rx="7" ry="6" fill="#cc2936"/><ellipse cx="181" cy="114" rx="21" ry="10" fill="#bccada"/><path d="M165 114 Q181 121 197 112" fill="none"/></g><circle cx="161" cy="93" r="2" fill="#ffffff"/><circle cx="196" cy="92" r="2" fill="#ffffff"/></svg>