<svg xmlns="http://www.w3.org/2000/svg" viewBox="0 0 360 360">
<g stroke="#2d263c" stroke-width="7" stroke-linejoin="round" stroke-linecap="round">
<path d="M150 300 Q140 330 158 336 Q172 330 166 300 Z" fill="#ff8c3a"/>
<path d="M210 300 Q220 330 202 336 Q188 330 194 300 Z" fill="#ff8c3a"/>
<path d="M150 260 Q108 292 118 320 Q140 312 158 276 Z" fill="#ffcc33"/>
<path d="M210 260 Q252 292 242 320 Q220 312 202 276 Z" fill="#ff8c3a"/>
<path d="M180 268 Q168 300 180 306 Q192 300 180 268 Z" fill="#ffcc33"/>
<ellipse cx="180" cy="222" rx="58" ry="66" fill="#ffd23f"/>
<ellipse cx="180" cy="238" rx="34" ry="46" fill="#fff1b8"/>
<path d="M126 190 Q92 214 108 246 Q132 244 140 208 Z" fill="#2d2d2d"/>
<path d="M234 190 Q268 214 252 246 Q228 244 220 208 Z" fill="#2d2d2d"/>
<circle cx="180" cy="128" r="50" fill="#2d2d2d"/>
<path d="M148 116 Q166 100 178 110 Q166 128 148 116 Z" fill="#ffd23f"/>
<path d="M212 116 Q194 100 182 110 Q194 128 212 116 Z" fill="#ffd23f"/>
<ellipse cx="160" cy="130" rx="15" ry="17" fill="#fff"/>
<ellipse cx="200" cy="130" rx="15" ry="17" fill="#fff"/>
<circle cx="163" cy="132" r="7" fill="#2d263c"/>
<circle cx="197" cy="132" r="7" fill="#2d263c"/>
<path d="M172 150 Q180 162 188 150 Q184 168 176 168 Z" fill="#ff8c3a"/>
<path d="M180 82 Q172 62 180 54 Q188 62 180 82 Z" fill="#2d2d2d"/>
</g>
</svg>
