<svg xmlns="http://www.w3.org/2000/svg" viewBox="0 0 360 360">
  <g stroke="#2d263c" stroke-width="7" stroke-linejoin="round" stroke-linecap="round">
    <ellipse cx="180" cy="232" rx="106" ry="90" fill="#8f5d38"/>
    <path d="M250,294 Q298,296 310,318 Q313,331 300,326 Q305,338 290,332 Q282,338 268,331 Q252,318 247,303 Z" fill="#4f97c9"/>
    <path d="M112,170 Q100,200 98,240 Q97,285 128,308 Q150,320 180,320 Q210,320 232,308 Q263,285 262,240 Q260,200 248,170 Q230,150 180,150 Q130,150 112,170 Z" fill="#4f97c9"/>
    <path d="M74,80 L132,177 Q138,192 122,196 Q106,200 98,186 L46,96 Z" fill="#cbbfa0"/>
    <ellipse cx="60" cy="88" rx="17" ry="11" transform="rotate(-31 60 88)" fill="#cbbfa0"/>
    <ellipse cx="60" cy="88" rx="10" ry="5.5" transform="rotate(-31 60 88)" fill="#4a3a30" stroke-width="4"/>
    <path d="M286,80 L228,177 Q222,192 238,196 Q254,200 262,186 L314,96 Z" fill="#cbbfa0"/>
    <ellipse cx="300" cy="88" rx="17" ry="11" transform="rotate(31 300 88)" fill="#cbbfa0"/>
    <ellipse cx="300" cy="88" rx="10" ry="5.5" transform="rotate(31 300 88)" fill="#4a3a30" stroke-width="4"/>
    <path d="M138,190 Q180,180 222,190 Q236,240 224,290 Q180,304 136,290 Q124,240 138,190 Z" fill="#f3e3b4"/>
    <path d="M130,228 Q180,238 230,228" fill="none" stroke="#b98c4f" stroke-width="4"/>
    <path d="M133,262 Q180,272 227,262" fill="none" stroke="#b98c4f" stroke-width="4"/>
    <path d="M118,290 Q100,298 100,314 Q100,326 122,327 L158,327 Q167,325 165,312 L159,290 Z" fill="#4f97c9"/>
    <path d="M108,326 L102,340 L120,328 Z M128,327 L128,341 L144,328 Z M150,327 L156,340 L162,326 Z" fill="#f3eee2" stroke-width="5"/>
    <path d="M242,290 Q260,298 260,314 Q260,326 238,327 L202,327 Q193,325 195,312 L201,290 Z" fill="#4f97c9"/>
    <path d="M252,326 L258,340 L240,328 Z M232,327 L232,341 L216,328 Z M210,327 L204,340 L198,326 Z" fill="#f3eee2" stroke-width="5"/>
    <path d="M114,188 Q78,196 62,228 Q50,254 68,266 Q86,276 100,258 Q110,243 113,222 Z" fill="#4f97c9"/>
    <path d="M64,254 L44,260 L66,270 Z M70,268 L58,284 L80,278 Z M84,272 L80,290 L96,279 Z" fill="#f3eee2" stroke-width="5"/>
    <path d="M246,188 Q282,196 298,228 Q310,254 292,266 Q274,276 260,258 Q250,243 247,222 Z" fill="#4f97c9"/>
    <path d="M296,254 L316,260 L294,270 Z M290,268 L302,284 L280,278 Z M276,272 L280,290 L264,279 Z" fill="#f3eee2" stroke-width="5"/>
    <path d="M134,92 Q114,82 110,92 Q108,102 130,104 Z" fill="#4f97c9"/>
    <path d="M226,92 Q246,82 250,92 Q252,102 230,104 Z" fill="#4f97c9"/>
    <path d="M180,56 Q136,58 128,96 Q124,120 142,138 Q160,152 180,152 Q200,152 218,138 Q236,120 232,96 Q224,58 180,56 Z" fill="#4f97c9"/>
    <path d="M142,94 L170,100 L170,114 Q152,114 144,106 Z" fill="#ffffff" stroke-width="5"/>
    <circle cx="160" cy="107" r="5.5" fill="#7a3026" stroke-width="4"/>
    <path d="M218,94 L190,100 L190,114 Q208,114 216,106 Z" fill="#ffffff" stroke-width="5"/>
    <circle cx="200" cy="107" r="5.5" fill="#7a3026" stroke-width="4"/>
    <path d="M139,90 L173,97" fill="none" stroke-width="6"/>
    <path d="M221,90 L187,97" fill="none" stroke-width="6"/>
    <path d="M172,120 L176,122 M188,120 L184,122" fill="none" stroke-width="4"/>
    <path d="M144,130 Q180,137 216,130" fill="none" stroke-width="6"/>
  </g>
</svg>