<svg xmlns="http://www.w3.org/2000/svg" viewBox="0 0 360 360">
  <!-- 尻尾ヒレ(後ろ) -->
  <path d="M130 275 Q95 320 45 325 Q75 285 95 260 Q108 248 125 255 Z" fill="#1d3a68" stroke="#2d263c" stroke-width="7" stroke-linejoin="round" stroke-linecap="round"/>
  <path d="M230 275 Q265 320 315 325 Q285 285 265 260 Q252 248 235 255 Z" fill="#1d3a68" stroke="#2d263c" stroke-width="7" stroke-linejoin="round" stroke-linecap="round"/>

  <!-- 左右の大きなヒレ -->
  <path d="M78 145 Q35 165 30 210 Q28 248 60 268 Q92 258 96 212 Q100 172 78 145 Z" fill="#22447c" stroke="#2d263c" stroke-width="7" stroke-linejoin="round" stroke-linecap="round"/>
  <path d="M282 145 Q325 165 330 210 Q332 248 300 268 Q268 258 264 212 Q260 172 282 145 Z" fill="#22447c" stroke="#2d263c" stroke-width="7" stroke-linejoin="round" stroke-linecap="round"/>

  <!-- 体(メイン) -->
  <path d="M180 68 Q248 75 268 150 Q283 208 258 258 Q228 298 180 303 Q132 298 102 258 Q77 208 92 150 Q112 75 180 68 Z" fill="#1b3a68" stroke="#2d263c" stroke-width="9" stroke-linejoin="round" stroke-linecap="round"/>

  <!-- おなかの白い模様 -->
  <path d="M180 158 Q222 163 232 205 Q238 245 208 272 Q180 282 152 272 Q122 245 128 205 Q138 163 180 158 Z" fill="#dfe7ec" stroke="#2d263c" stroke-width="6" stroke-linejoin="round" stroke-linecap="round"/>

  <!-- 赤い模様(上) -->
  <path d="M128 85 Q106 108 118 138 Q133 158 152 142 Q145 112 128 85 Z" fill="#e0261f" stroke="#2d263c" stroke-width="6" stroke-linejoin="round" stroke-linecap="round"/>
  <path d="M232 85 Q254 108 242 138 Q227 158 208 142 Q215 112 232 85 Z" fill="#e0261f" stroke="#2d263c" stroke-width="6" stroke-linejoin="round" stroke-linecap="round"/>

  <!-- 赤い模様(下) -->
  <path d="M92 165 Q75 198 92 228 Q106 244 116 224 Q104 195 92 165 Z" fill="#e0261f" stroke="#2d263c" stroke-width="6" stroke-linejoin="round" stroke-linecap="round"/>
  <path d="M268 165 Q285 198 268 228 Q254 244 244 224 Q256 195 268 165 Z" fill="#e0261f" stroke="#2d263c" stroke-width="6" stroke-linejoin="round" stroke-linecap="round"/>

  <!-- 頭の突起(顔) -->
  <path d="M150 72 L138 40 L168 65 Z" fill="#1b3a68" stroke="#2d263c" stroke-width="6" stroke-linejoin="round" stroke-linecap="round"/>
  <path d="M210 72 L222 40 L192 65 Z" fill="#1b3a68" stroke="#2d263c" stroke-width="6" stroke-linejoin="round" stroke-linecap="round"/>

  <!-- 目(顔) -->
  <ellipse cx="148" cy="118" rx="15" ry="11" fill="#ffffff" stroke="#2d263c" stroke-width="5"/>
  <ellipse cx="212" cy="118" rx="15" ry="11" fill="#ffffff" stroke="#2d263c" stroke-width="5"/>
  <circle cx="150" cy="119" r="6" fill="#2d263c"/>
  <circle cx="210" cy="119" r="6" fill="#2d263c"/>

  <!-- 鼻(顔) -->
  <circle cx="165" cy="140" r="3" fill="#2d263c"/>
  <circle cx="195" cy="140" r="3" fill="#2d263c"/>

  <!-- 口(顔) -->
  <path d="M136 146 Q180 176 224 146 Q180 166 136 146 Z" fill="#7a1414" stroke="#2d263c" stroke-width="6" stroke-linejoin="round" stroke-linecap="round"/>
</svg>
