<svg xmlns="http://www.w3.org/2000/svg" viewBox="0 0 360 360">
  <path d="M148 286 L138 304 L166 304 Z" fill="#4f8a3a" stroke="#2d263c" stroke-width="6" stroke-linejoin="round"/>
  <path d="M212 286 L194 304 L222 304 Z" fill="#4f8a3a" stroke="#2d263c" stroke-width="6" stroke-linejoin="round"/>
  <path d="M122 214 Q80 204 78 236 Q114 242 134 228 Z" fill="#6db84f" stroke="#2d263c" stroke-width="7" stroke-linejoin="round"/>
  <path d="M238 214 Q280 204 282 236 Q246 242 226 228 Z" fill="#6db84f" stroke="#2d263c" stroke-width="7" stroke-linejoin="round"/>
  <ellipse cx="180" cy="224" rx="66" ry="68" fill="#8fce63" stroke="#2d263c" stroke-width="8"/>
  <ellipse cx="180" cy="134" rx="24" ry="35" fill="#e8748f" stroke="#2d263c" stroke-width="7"/>
  <path d="M180 103 Q161 94 158 109 Q173 118 180 114 Q187 118 202 109 Q199 94 180 103 Z" fill="#f4a8b8" stroke="#2d263c" stroke-width="6" stroke-linejoin="round"/>
  <circle cx="158" cy="220" r="16" fill="#ffffff" stroke="#2d263c" stroke-width="7"/>
  <circle cx="202" cy="220" r="16" fill="#ffffff" stroke="#2d263c" stroke-width="7"/>
  <circle cx="161" cy="223" r="8" fill="#2d263c"/>
  <circle cx="205" cy="223" r="8" fill="#2d263c"/>
  <circle cx="163" cy="220" r="2.5" fill="#ffffff"/>
  <circle cx="207" cy="220" r="2.5" fill="#ffffff"/>
  <path d="M170 252 Q180 260 190 252" fill="none" stroke="#2d263c" stroke-width="5" stroke-linecap="round"/>
</svg>
