<svg xmlns="http://www.w3.org/2000/svg" viewBox="0 0 360 360">
  <path d="M120,260 Q85,290 65,320" fill="none" stroke="#2d263c" stroke-width="9" stroke-linecap="round"/>
  <path d="M240,260 Q275,290 295,320" fill="none" stroke="#2d263c" stroke-width="9" stroke-linecap="round"/>
  <ellipse cx="180" cy="215" rx="92" ry="78" fill="#3F63B4" stroke="#2d263c" stroke-width="8"/>
  <path d="M110,175 Q180,140 250,175" fill="none" stroke="#2C4A8C" stroke-width="6" stroke-linecap="round"/>
  <path d="M100,205 Q180,232 260,205" fill="none" stroke="#2C4A8C" stroke-width="5" stroke-linecap="round"/>
  <path d="M105,270 Q75,250 55,265" fill="none" stroke="#2d263c" stroke-width="9" stroke-linecap="round"/>
  <path d="M255,270 Q285,250 305,265" fill="none" stroke="#2d263c" stroke-width="9" stroke-linecap="round"/>
  <path d="M160,95 Q150,70 140,55" fill="none" stroke="#2d263c" stroke-width="6" stroke-linecap="round"/>
  <path d="M200,95 Q210,70 220,55" fill="none" stroke="#2d263c" stroke-width="6" stroke-linecap="round"/>
  <circle cx="140" cy="55" r="6" fill="#2d263c"/>
  <circle cx="220" cy="55" r="6" fill="#2d263c"/>
  <circle cx="180" cy="140" r="62" fill="#F7CB3E" stroke="#2d263c" stroke-width="8"/>
  <circle cx="155" cy="130" r="16" fill="#D93030" stroke="#2d263c" stroke-width="5"/>
  <circle cx="205" cy="130" r="16" fill="#D93030" stroke="#2d263c" stroke-width="5"/>
  <circle cx="158" cy="128" r="6" fill="#1a1a1a"/>
  <circle cx="202" cy="128" r="6" fill="#1a1a1a"/>
  <circle cx="151" cy="123" r="3" fill="#ffffff"/>
  <circle cx="209" cy="123" r="3" fill="#ffffff"/>
  <path d="M140,170 Q170,195 205,180 Q185,210 150,205 Q135,190 140,170 Z" fill="#E8791E" stroke="#2d263c" stroke-width="6" stroke-linejoin="round"/>
  <path d="M220,170 Q190,195 155,180 Q175,210 210,205 Q225,190 220,170 Z" fill="#E8791E" stroke="#2d263c" stroke-width="6" stroke-linejoin="round"/>
</svg>
