<svg xmlns="http://www.w3.org/2000/svg" viewBox="0 0 360 360"><g stroke="#2d263c" stroke-width="7" stroke-linejoin="round" stroke-linecap="round"><path d="M136,150 C100,132 86,90 98,58 C108,32 140,22 166,34 L170,40 C150,48 142,68 144,96 C146,116 152,134 162,146 Z" fill="#AD8C4E"/><path d="M226,152 C262,132 276,88 262,54 C250,30 218,22 196,38 L192,44 C212,52 220,74 217,98 C214,118 208,136 199,148 Z" fill="#AD8C4E"/><polygon points="148,58 170,68 147,80" fill="#f6f1e3" stroke-width="6"/><polygon points="146,92 168,102 146,114" fill="#f6f1e3" stroke-width="6"/><polygon points="214,62 192,72 215,84" fill="#f6f1e3" stroke-width="6"/><polygon points="216,96 194,106 216,118" fill="#f6f1e3" stroke-width="6"/><path d="M150,290 C140,308 138,326 142,334 L172,334 C176,318 174,302 170,292 Z" fill="#AD8C4E"/><path d="M192,292 C188,304 186,322 190,332 L220,332 C226,318 224,302 216,290 Z" fill="#AD8C4E"/><polygon points="142,332 156,332 148,341" fill="#f6f1e3" stroke-width="6"/><polygon points="158,332 171,332 165,340" fill="#f6f1e3" stroke-width="6"/><polygon points="191,330 204,330 197,339" fill="#f6f1e3" stroke-width="6"/><polygon points="206,330 219,330 213,338" fill="#f6f1e3" stroke-width="6"/><path d="M114,192 C84,198 64,218 60,242 C58,258 70,266 84,260 C100,252 112,232 118,212 Z" fill="#AD8C4E"/><path d="M248,196 C280,202 298,224 300,248 C301,262 288,270 276,262 C262,252 252,230 246,212 Z" fill="#AD8C4E"/><polygon points="64,234 44,244 66,256" fill="#f6f1e3" stroke-width="6"/><polygon points="68,254 52,270 74,266" fill="#f6f1e3" stroke-width="6"/><polygon points="296,238 316,250 294,258" fill="#f6f1e3" stroke-width="6"/><polygon points="290,256 304,272 286,264" fill="#f6f1e3" stroke-width="6"/><path d="M108,212 C102,156 138,122 180,120 C226,118 260,152 254,214 C250,266 228,300 178,302 C130,304 114,264 108,212 Z" fill="#BD9D5E"/><path d="M118,240 C150,256 212,256 246,238" fill="none" stroke-width="6"/><path d="M130,272 C160,286 202,286 230,270" fill="none" stroke-width="6"/><path d="M130,204 C150,194 212,196 232,206 C236,222 224,240 180,242 C138,240 126,222 130,204 Z" fill="#5d4632"/><polygon points="136,205 153,202 144,221" fill="#f6f1e3" stroke-width="6"/><polygon points="160,201 177,201 168,220" fill="#f6f1e3" stroke-width="6"/><polygon points="184,200 201,202 193,220" fill="#f6f1e3" stroke-width="6"/><polygon points="207,203 223,206 212,221" fill="#f6f1e3" stroke-width="6"/><polygon points="150,238 165,239 157,225" fill="#f6f1e3" stroke-width="6"/><polygon points="178,240 193,239 186,226" fill="#f6f1e3" stroke-width="6"/><circle cx="148" cy="172" r="11" fill="#dff0f4"/><circle cx="212" cy="175" r="10" fill="#dff0f4"/><circle cx="150" cy="174" r="4" fill="#2d263c" stroke="none"/><circle cx="210" cy="177" r="4" fill="#2d263c" stroke="none"/><path d="M132,152 L160,162" fill="none"/><path d="M228,154 L200,164" fill="none"/></g></svg>