<svg xmlns="http://www.w3.org/2000/svg" viewBox="0 0 360 360">
<path d="M85 245 Q180 220 275 245 L265 314 Q180 329 95 314 Z" fill="#5a6ab0" stroke="#2d263c" stroke-width="8" stroke-linejoin="round"/>
<path d="M126 258 Q148 272 170 258" fill="none" stroke="#3a4a90" stroke-width="6" stroke-linecap="round"/>
<path d="M190 258 Q212 272 234 258" fill="none" stroke="#3a4a90" stroke-width="6" stroke-linecap="round"/>
<path d="M112 238 Q180 200 248 238 Q252 262 180 268 Q108 262 112 238 Z" fill="#9a7ad8" stroke="#2d263c" stroke-width="8" stroke-linejoin="round"/>
<path d="M118 244 Q86 254 96 286 Q113 276 130 268 Z" fill="#9a7ad8" stroke="#2d263c" stroke-width="7" stroke-linejoin="round"/>
<path d="M242 244 Q274 254 264 286 Q247 276 230 268 Z" fill="#9a7ad8" stroke="#2d263c" stroke-width="7" stroke-linejoin="round"/>
<ellipse cx="180" cy="158" rx="50" ry="56" fill="#9a7ad8" stroke="#2d263c" stroke-width="8"/>
<path d="M148 116 Q118 80 138 70 Q150 96 160 116 Z" fill="#6a5ab0" stroke="#2d263c" stroke-width="6" stroke-linejoin="round"/>
<path d="M212 116 Q242 80 222 70 Q210 96 200 116 Z" fill="#6a5ab0" stroke="#2d263c" stroke-width="6" stroke-linejoin="round"/>
<path d="M180 108 L174 72 L186 108 Z" fill="#6a5ab0" stroke="#2d263c" stroke-width="6" stroke-linejoin="round"/>
<circle cx="162" cy="155" r="8" fill="#2d263c"/>
<circle cx="198" cy="155" r="8" fill="#2d263c"/>
<circle cx="164" cy="152" r="2.5" fill="#fff"/>
<circle cx="200" cy="152" r="2.5" fill="#fff"/>
</svg>