<svg xmlns="http://www.w3.org/2000/svg" viewBox="0 0 360 360">
  <!-- 左足 -->
  <ellipse cx="130" cy="305" rx="38" ry="28" fill="#C8B87A" stroke="#2d263c" stroke-width="7" stroke-linejoin="round"/>
  <!-- 右足 -->
  <ellipse cx="232" cy="308" rx="36" ry="26" fill="#C8B87A" stroke="#2d263c" stroke-width="7" stroke-linejoin="round"/>
  <!-- 左足の爪 -->
  <ellipse cx="108" cy="324" rx="9" ry="7" fill="#E8D8A0" stroke="#2d263c" stroke-width="5" stroke-linejoin="round"/>
  <ellipse cx="127" cy="328" rx="9" ry="7" fill="#E8D8A0" stroke="#2d263c" stroke-width="5" stroke-linejoin="round"/>
  <ellipse cx="148" cy="325" rx="9" ry="7" fill="#E8D8A0" stroke="#2d263c" stroke-width="5" stroke-linejoin="round"/>
  <!-- 右足の爪 -->
  <ellipse cx="210" cy="327" rx="9" ry="7" fill="#E8D8A0" stroke="#2d263c" stroke-width="5" stroke-linejoin="round"/>
  <ellipse cx="231" cy="330" rx="9" ry="7" fill="#E8D8A0" stroke="#2d263c" stroke-width="5" stroke-linejoin="round"/>
  <ellipse cx="252" cy="326" rx="9" ry="7" fill="#E8D8A0" stroke="#2d263c" stroke-width="5" stroke-linejoin="round"/>
  <!-- 体メイン(大きな丸) -->
  <ellipse cx="182" cy="218" rx="138" ry="128" fill="#C8B87A" stroke="#2d263c" stroke-width="8" stroke-linejoin="round"/>
  <!-- お腹(クリーム色の大きな楕円) -->
  <ellipse cx="183" cy="235" rx="90" ry="95" fill="#F0E8C8" stroke="#2d263c" stroke-width="5" stroke-linejoin="round"/>
  <!-- 左腕 -->
  <ellipse cx="60" cy="240" rx="32" ry="24" fill="#C8B87A" stroke="#2d263c" stroke-width="7" stroke-linejoin="round" transform="rotate(-20 60 240)"/>
  <!-- 右腕 -->
  <ellipse cx="303" cy="243" rx="30" ry="23" fill="#C8B87A" stroke="#2d263c" stroke-width="7" stroke-linejoin="round" transform="rotate(18 303 243)"/>
  <!-- 左腕の爪 -->
  <ellipse cx="36" cy="252" rx="8" ry="7" fill="#E8D8A0" stroke="#2d263c" stroke-width="4"/>
  <ellipse cx="48" cy="264" rx="8" ry="7" fill="#E8D8A0" stroke="#2d263c" stroke-width="4"/>
  <ellipse cx="62" cy="268" rx="8" ry="7" fill="#E8D8A0" stroke="#2d263c" stroke-width="4"/>
  <!-- 右腕の爪 -->
  <ellipse cx="320" cy="254" rx="8" ry="7" fill="#E8D8A0" stroke="#2d263c" stroke-width="4"/>
  <ellipse cx="312" cy="266" rx="8" ry="7" fill="#E8D8A0" stroke="#2d263c" stroke-width="4"/>
  <ellipse cx="297" cy="270" rx="8" ry="7" fill="#E8D8A0" stroke="#2d263c" stroke-width="4"/>
  <!-- 頭 -->
  <ellipse cx="182" cy="100" rx="72" ry="66" fill="#C8B87A" stroke="#2d263c" stroke-width="8" stroke-linejoin="round"/>
  <!-- 左耳 -->
  <ellipse cx="122" cy="55" rx="18" ry="16" fill="#C8B87A" stroke="#2d263c" stroke-width="7" stroke-linejoin="round"/>
  <!-- 右耳 -->
  <ellipse cx="244" cy="52" rx="16" ry="15" fill="#C8B87A" stroke="#2d263c" stroke-width="7" stroke-linejoin="round"/>
  <!-- 左ほっぺ(丸くてふくらんだ) -->
  <ellipse cx="142" cy="112" rx="22" ry="18" fill="#E8C8A0" stroke="#2d263c" stroke-width="4" stroke-linejoin="round"/>
  <!-- 右ほっぺ -->
  <ellipse cx="222" cy="114" rx="20" ry="17" fill="#E8C8A0" stroke="#2d263c" stroke-width="4" stroke-linejoin="round"/>
  <!-- 左目(眠そうな細い目) -->
  <path d="M153 88 Q163 84 173 88" fill="none" stroke="#2d263c" stroke-width="6" stroke-linecap="round"/>
  <!-- 右目(少し大きさが違う・非対称) -->
  <path d="M193 87 Q204 82 214 87" fill="none" stroke="#2d263c" stroke-width="6" stroke-linecap="round"/>
  <!-- 鼻 -->
  <ellipse cx="182" cy="102" rx="8" ry="5" fill="#B09060" stroke="#2d263c" stroke-width="3"/>
  <!-- 口(ニヤッとしたゆるい笑顔) -->
  <path d="M160 122 Q182 138 206 120" fill="none" stroke="#2d263c" stroke-width="6" stroke-linecap="round" stroke-linejoin="round"/>
  <!-- 牙(左) -->
  <path d="M168 128 L163 140 L171 136 Z" fill="#FFFEF0" stroke="#2d263c" stroke-width="3" stroke-linejoin="round"/>
  <!-- 牙(右) -->
  <path d="M196 125 L200 137 L192 133 Z" fill="#FFFEF0" stroke="#2d263c" stroke-width="3" stroke-linejoin="round"/>
  <!-- おへそ(ちょこんと) -->
  <ellipse cx="183" cy="272" rx="9" ry="7" fill="none" stroke="#B09060" stroke-width="4"/>
</svg>