<svg xmlns="http://www.w3.org/2000/svg" viewBox="0 0 360 360">
<g stroke="#2d263c" stroke-width="7" stroke-linejoin="round" stroke-linecap="round">
<path d="M246,250 Q279,255 282,280 Q264,282 252,268 Q242,258 246,250 Z" fill="#c9497a"/>
<path d="M259,262 Q269,268 272,278" fill="none" stroke-width="4"/>
<path d="M239,198 Q269,208 264,238 Q254,248 239,238 Q229,218 232,200 Z" fill="#c9497a"/>
<ellipse cx="259" cy="235" rx="10" ry="8" fill="#7a2d54"/>
<path d="M179,195 Q149,205 154,235 Q164,245 179,235 Q189,215 186,198 Z" fill="#c9497a"/>
<ellipse cx="159" cy="232" rx="10" ry="8" fill="#7a2d54"/>
<ellipse cx="214" cy="225" rx="42" ry="48" fill="#ff8fbf"/>
<ellipse cx="214" cy="245" rx="26" ry="30" fill="#ffd3e8"/>
<path d="M199,235 Q209,240 219,235" fill="none" stroke-width="4"/>
<path d="M189,266 L180,300 L174,335 L186,335 L190,300 L197,266 Z" fill="#f0a8c8"/>
<path d="M219,266 L228,300 L234,335 L246,335 L240,300 L227,266 Z" fill="#f0a8c8"/>
<path d="M172,335 L180,322 L188,335 Z" fill="#f0a8c8"/>
<path d="M230,335 L238,322 L246,335 Z" fill="#f0a8c8"/>
<path d="M206,178 Q229,150 212,115 Q199,95 174,90 L149,98 Q164,120 162,150 Q164,168 189,182 Z" fill="#ff8fbf"/>
<circle cx="142" cy="88" r="27" fill="#ff8fbf"/>
<path d="M124,65 L118,45 L128,62 Z M136,60 L134,38 L144,58 Z M148,64 L152,44 L156,62 Z" fill="#c9497a"/>
<path d="M119,68 Q134,60 146,70 Q138,82 124,80 Q116,75 119,68 Z" fill="#c9497a"/>
<path d="M118,95 Q94,100 84,115 Q99,118 114,110 Z" fill="#ffe0ea"/>
<path d="M84,115 Q78,120 82,128 Q92,122 99,118 Z" fill="#2d263c"/>
<ellipse cx="132" cy="78" rx="5" ry="6" fill="#ffffff"/>
<circle cx="133" cy="78" r="3" fill="#241b2e"/>
</g>
</svg>
