<svg xmlns="http://www.w3.org/2000/svg" viewBox="0 0 360 360">
  <!-- 後ろ: 影 -->
  <ellipse cx="175" cy="322" rx="95" ry="16" fill="#5b6b8c" opacity="0.3"/>

  <!-- ハンマーの柄 -->
  <path d="M244 150 Q252 210 250 268" fill="none" stroke="#2d263c" stroke-width="16" stroke-linecap="round"/>
  <path d="M244 150 Q252 210 250 268" fill="none" stroke="#8a5a34" stroke-width="9" stroke-linecap="round"/>

  <!-- ハンマーの頭(石の塊) -->
  <path d="M196 240 Q194 218 220 214 Q262 208 292 222 Q306 230 302 254 Q298 278 268 282 Q222 288 200 270 Q192 258 196 240 Z"
        fill="#b8b4c2" stroke="#2d263c" stroke-width="7" stroke-linejoin="round"/>
  <path d="M210 232 Q246 222 282 232" fill="none" stroke="#8f8c9c" stroke-width="7" stroke-linecap="round"/>
  <ellipse cx="232" cy="252" rx="10" ry="7" fill="#8f8c9c"/>

  <!-- 体(丸っこいしずく型) -->
  <path d="M96 232 Q86 160 138 128 Q168 110 190 118 Q234 132 240 190 Q248 240 214 278 Q188 306 148 300 Q104 292 96 232 Z"
        fill="#8fc3e0" stroke="#2d263c" stroke-width="8" stroke-linejoin="round"/>

  <!-- おなかの明るい模様 -->
  <ellipse cx="160" cy="220" rx="46" ry="56" fill="#c8e6f4"/>

  <!-- 頭の左右のツノ(オレンジ) -->
  <path d="M126 128 Q108 96 122 66 Q140 88 138 122 Z" fill="#f0a030" stroke="#2d263c" stroke-width="7" stroke-linejoin="round"/>
  <path d="M180 116 Q182 82 206 58 Q214 90 198 118 Z" fill="#f0a030" stroke="#2d263c" stroke-width="7" stroke-linejoin="round"/>

  <!-- 足(ピンク) -->
  <ellipse cx="130" cy="298" rx="22" ry="16" fill="#f2a8c0" stroke="#2d263c" stroke-width="6"/>
  <ellipse cx="192" cy="300" rx="22" ry="16" fill="#f2a8c0" stroke="#2d263c" stroke-width="6"/>

  <!-- 腕(ハンマーを持つ) -->
  <path d="M186 180 Q212 178 224 160" fill="none" stroke="#8fc3e0" stroke-width="18" stroke-linecap="round"/>
  <circle cx="224" cy="160" r="14" fill="#f2a8c0" stroke="#2d263c" stroke-width="6"/>

  <!-- 目(大きい丸目) -->
  <circle cx="132" cy="182" r="20" fill="#fff8e8" stroke="#2d263c" stroke-width="6"/>
  <circle cx="182" cy="182" r="20" fill="#fff8e8" stroke="#2d263c" stroke-width="6"/>
  <circle cx="136" cy="186" r="10" fill="#2d263c"/>
  <circle cx="186" cy="186" r="10" fill="#2d263c"/>
  <circle cx="140" cy="180" r="3.5" fill="#ffffff"/>
  <circle cx="190" cy="180" r="3.5" fill="#ffffff"/>

  <!-- 鼻(ピンクの丸) -->
  <circle cx="158" cy="212" r="12" fill="#e8628a" stroke="#2d263c" stroke-width="6"/>

  <!-- ほっぺ -->
  <circle cx="110" cy="206" r="9" fill="#f2a8c0" opacity="0.75"/>
  <circle cx="204" cy="206" r="9" fill="#f2a8c0" opacity="0.75"/>
</svg>
