<svg xmlns="http://www.w3.org/2000/svg" viewBox="0 0 360 360"><g stroke="#2d263c" stroke-width="7" stroke-linejoin="round" stroke-linecap="round"><path d="M124 60 L104 22 L152 38 Z" fill="#3E7287"/><path d="M236 58 L260 22 L210 36 Z" fill="#3E7287"/><path d="M58 235 Q50 150 128 132 Q180 122 236 134 Q312 152 304 240 Q298 305 232 328 Q178 338 122 326 Q62 304 58 235 Z" fill="#3E7287"/><path d="M92 240 Q92 178 180 175 Q268 180 270 244 Q268 300 222 320 Q180 332 136 318 Q94 298 92 240 Z" fill="#F6E8C8"/><path d="M70 188 Q38 228 52 272 Q64 296 92 284 Q108 250 96 204 Z" fill="#3E7287"/><path d="M292 194 Q322 232 310 274 Q298 298 272 286 Q258 252 266 204 Z" fill="#3E7287"/><path d="M58 280 l-12 10" fill="none" stroke-width="5"/><path d="M72 288 l-8 12" fill="none" stroke-width="5"/><path d="M302 282 l12 10" fill="none" stroke-width="5"/><path d="M288 290 l8 12" fill="none" stroke-width="5"/><ellipse cx="118" cy="306" rx="48" ry="32" fill="#F6E8C8"/><circle cx="118" cy="312" r="14" fill="#D9B583"/><path d="M90 278 L98 258 L108 276 Z" fill="#ffffff" stroke-width="5"/><path d="M112 274 L119 254 L128 273 Z" fill="#ffffff" stroke-width="5"/><path d="M132 277 L142 259 L149 278 Z" fill="#ffffff" stroke-width="5"/><ellipse cx="246" cy="308" rx="45" ry="30" fill="#F6E8C8"/><circle cx="246" cy="313" r="13" fill="#D9B583"/><path d="M220 280 L228 261 L237 279 Z" fill="#ffffff" stroke-width="5"/><path d="M240 277 L247 257 L256 276 Z" fill="#ffffff" stroke-width="5"/><path d="M260 280 L269 262 L276 281 Z" fill="#ffffff" stroke-width="5"/><path d="M102 100 Q96 42 180 38 Q264 42 258 102 Q256 145 180 150 Q104 146 102 100 Z" fill="#3E7287"/><path d="M106 90 Q124 102 180 103 Q238 101 254 88 Q258 140 182 148 Q108 144 106 90 Z" fill="#F6E8C8"/><path d="M142 108 q13 8 26 -1" fill="none" stroke-width="6"/><path d="M194 106 q13 9 26 0" fill="none" stroke-width="6"/><path d="M140 130 Q180 144 222 128" fill="none" stroke-width="6"/><path d="M148 132 L155 116 L164 133 Z" fill="#ffffff" stroke-width="5"/><path d="M200 132 L207 115 L215 131 Z" fill="#ffffff" stroke-width="5"/></g></svg>