<svg xmlns="http://www.w3.org/2000/svg" viewBox="0 0 360 360">

  <!-- 影 -->
  <ellipse cx="180" cy="48" rx="55" ry="14" fill="#00000022"/>

  <!-- 触手(上を向いた - 逆さまのイカ) -->
  <!-- 長い触手 -->
  <path d="M150,95 Q135,60 130,28 Q138,42 142,58 Q140,36 148,20 Q150,40 152,60 Q155,38 162,25 Q160,46 158,65" fill="#6020A8" stroke="#2d263c" stroke-width="6" stroke-linejoin="round" stroke-linecap="round"/>
  <path d="M212,95 Q228,60 232,28 Q224,42 220,58 Q222,36 214,20 Q212,40 210,60 Q207,38 200,25 Q202,46 204,65" fill="#6020A8" stroke="#2d263c" stroke-width="6" stroke-linejoin="round" stroke-linecap="round"/>
  <!-- 中央触手 -->
  <path d="M178,90 Q175,55 175,25 Q180,45 180,65 Q185,40 184,18 Q182,42 182,65" fill="#6020A8" stroke="#2d263c" stroke-width="6" stroke-linejoin="round" stroke-linecap="round"/>

  <!-- 短い触手 -->
  <path d="M130,115 Q112,90 108,65 Q116,75 118,90 Q118,72 126,62 Q124,82 126,100" fill="#7030C0" stroke="#2d263c" stroke-width="5" stroke-linejoin="round" stroke-linecap="round"/>
  <path d="M230,115 Q248,90 252,65 Q244,75 242,90 Q242,72 234,62 Q236,82 234,100" fill="#7030C0" stroke="#2d263c" stroke-width="5" stroke-linejoin="round" stroke-linecap="round"/>

  <!-- 外套膜(マント - 逆さまなので下にある) -->
  <path d="M105,150 Q95,200 100,240 Q108,278 142,295 Q178,306 216,293 Q250,278 258,240 Q265,200 255,150 Q240,122 210,112 Q178,105 148,112 Q118,122 105,150 Z" fill="#6020A8" stroke="#2d263c" stroke-width="8" stroke-linejoin="round"/>

  <!-- お腹の模様(Y字の白い模様) -->
  <path d="M180,135 L180,195 M180,195 L155,240 M180,195 L205,240" fill="none" stroke="#F0E0FF" stroke-width="12" stroke-linecap="round" stroke-linejoin="round"/>
  <path d="M180,135 L180,195 M180,195 L155,240 M180,195 L205,240" fill="none" stroke="#D090FF" stroke-width="7" stroke-linecap="round" stroke-linejoin="round"/>

  <!-- 体の発光ドット -->
  <circle cx="148" cy="158" r="8" fill="#E0B0FF" stroke="#2d263c" stroke-width="3"/>
  <circle cx="215" cy="158" r="8" fill="#E0B0FF" stroke="#2d263c" stroke-width="3"/>
  <circle cx="135" cy="195" r="6" fill="#E0B0FF" stroke="#2d263c" stroke-width="3"/>
  <circle cx="225" cy="195" r="6" fill="#E0B0FF" stroke="#2d263c" stroke-width="3"/>
  <circle cx="148" cy="232" r="6" fill="#E0B0FF" stroke="#2d263c" stroke-width="3"/>
  <circle cx="212" cy="232" r="6" fill="#E0B0FF" stroke="#2d263c" stroke-width="3"/>

  <!-- 頭部(逆さまなので体の下) -->
  <ellipse cx="180" cy="275" rx="55" ry="45" fill="#7030C0" stroke="#2d263c" stroke-width="8" stroke-linejoin="round"/>

  <!-- 目(左) - 赤い -->
  <ellipse cx="158" cy="268" rx="14" ry="16" fill="white" stroke="#2d263c" stroke-width="5"/>
  <circle cx="160" cy="267" r="9" fill="#DD1010"/>
  <circle cx="163" cy="264" r="4" fill="white" opacity="0.8"/>

  <!-- 目(右) -->
  <ellipse cx="202" cy="268" rx="14" ry="16" fill="white" stroke="#2d263c" stroke-width="5"/>
  <circle cx="204" cy="267" r="9" fill="#DD1010"/>
  <circle cx="207" cy="264" r="4" fill="white" opacity="0.8"/>

  <!-- 口 -->
  <path d="M168,292 Q180,302 192,292" fill="none" stroke="#2d263c" stroke-width="6" stroke-linecap="round"/>

  <!-- ひれ(体の横) -->
  <path d="M108,185 Q82,178 78,200 Q76,222 100,225 Q110,222 112,210" fill="#6020A8" stroke="#2d263c" stroke-width="6" stroke-linejoin="round" stroke-linecap="round"/>
  <path d="M252,185 Q278,178 282,200 Q284,222 260,225 Q250,222 248,210" fill="#6020A8" stroke="#2d263c" stroke-width="6" stroke-linejoin="round" stroke-linecap="round"/>

</svg>
