<svg xmlns="http://www.w3.org/2000/svg" viewBox="0 0 360 360">
  <!-- しっぽ (後ろ) -->
  <path d="M230 280 Q270 310 260 340 Q248 355 235 345 Q218 330 222 305 Z" fill="#E8823A" stroke="#2d263c" stroke-width="7" stroke-linejoin="round" stroke-linecap="round"/>
  <!-- しっぽ先の丸 -->
  <ellipse cx="245" cy="342" rx="14" ry="11" fill="#E8823A" stroke="#2d263c" stroke-width="6" stroke-linejoin="round"/>

  <!-- 右翼 (後ろ) -->
  <path d="M235 155 Q290 125 305 100 Q318 80 308 92 Q295 115 285 132 Q310 108 320 88 Q326 72 314 87 Q298 112 278 138 Q295 118 302 98 Q308 82 298 95 Q278 122 258 148 Z" fill="#E8823A" stroke="#2d263c" stroke-width="6" stroke-linejoin="round" stroke-linecap="round"/>
  <path d="M235 155 Q290 125 320 88 Q278 138 235 155" fill="#D06A28" stroke="none"/>

  <!-- 左翼 (後ろ) -->
  <path d="M125 155 Q70 125 55 100 Q42 80 52 92 Q65 115 75 132 Q50 108 40 88 Q34 72 46 87 Q62 112 82 138 Q65 118 58 98 Q52 82 62 95 Q82 122 102 148 Z" fill="#E8823A" stroke="#2d263c" stroke-width="6" stroke-linejoin="round" stroke-linecap="round"/>
  <path d="M125 155 Q70 125 40 88 Q82 138 125 155" fill="#D06A28" stroke="none"/>

  <!-- 胴体 -->
  <ellipse cx="180" cy="230" rx="78" ry="88" fill="#E8823A" stroke="#2d263c" stroke-width="8" stroke-linejoin="round"/>

  <!-- お腹 (クリーム色) -->
  <ellipse cx="178" cy="248" rx="48" ry="58" fill="#F5D98B" stroke="#2d263c" stroke-width="5" stroke-linejoin="round"/>

  <!-- 左足 -->
  <path d="M130 295 Q112 310 108 330 Q106 345 118 348 Q132 350 138 334 Q142 318 138 300 Z" fill="#E8823A" stroke="#2d263c" stroke-width="7" stroke-linejoin="round" stroke-linecap="round"/>
  <!-- 左足つま先 -->
  <ellipse cx="110" cy="348" rx="10" ry="7" fill="#E8823A" stroke="#2d263c" stroke-width="5"/>
  <ellipse cx="124" cy="353" rx="10" ry="7" fill="#E8823A" stroke="#2d263c" stroke-width="5"/>
  <ellipse cx="138" cy="350" rx="9" ry="6" fill="#E8823A" stroke="#2d263c" stroke-width="5"/>

  <!-- 右足 -->
  <path d="M228 295 Q246 310 250 330 Q252 345 240 348 Q226 350 220 334 Q216 318 220 300 Z" fill="#E8823A" stroke="#2d263c" stroke-width="7" stroke-linejoin="round" stroke-linecap="round"/>
  <!-- 右足つま先 -->
  <ellipse cx="248" cy="348" rx="10" ry="7" fill="#E8823A" stroke="#2d263c" stroke-width="5"/>
  <ellipse cx="234" cy="353" rx="10" ry="7" fill="#E8823A" stroke="#2d263c" stroke-width="5"/>
  <ellipse cx="220" cy="350" rx="9" ry="6" fill="#E8823A" stroke="#2d263c" stroke-width="5"/>

  <!-- 左腕 -->
  <path d="M112 210 Q82 225 75 248 Q72 262 84 265 Q96 267 105 252 Q118 232 120 218 Z" fill="#E8823A" stroke="#2d263c" stroke-width="7" stroke-linejoin="round" stroke-linecap="round"/>
  <!-- 左手指3本 -->
  <ellipse cx="74" cy="261" rx="9" ry="7" fill="#E8823A" stroke="#2d263c" stroke-width="5"/>
  <ellipse cx="83" cy="270" rx="9" ry="7" fill="#E8823A" stroke="#2d263c" stroke-width="5"/>
  <ellipse cx="95" cy="272" rx="9" ry="7" fill="#E8823A" stroke="#2d263c" stroke-width="5"/>

  <!-- 右腕 -->
  <path d="M246 210 Q276 225 282 248 Q286 262 274 265 Q262 267 253 252 Q240 232 238 218 Z" fill="#E8823A" stroke="#2d263c" stroke-width="7" stroke-linejoin="round" stroke-linecap="round"/>
  <!-- 右手指3本 -->
  <ellipse cx="284" cy="261" rx="9" ry="7" fill="#E8823A" stroke="#2d263c" stroke-width="5"/>
  <ellipse cx="275" cy="270" rx="9" ry="7" fill="#E8823A" stroke="#2d263c" stroke-width="5"/>
  <ellipse cx="263" cy="272" rx="9" ry="7" fill="#E8823A" stroke="#2d263c" stroke-width="5"/>

  <!-- 頭 -->
  <ellipse cx="180" cy="130" rx="62" ry="60" fill="#E8823A" stroke="#2d263c" stroke-width="8" stroke-linejoin="round"/>

  <!-- 触角左 -->
  <path d="M152 76 Q145 52 140 38 Q137 30 145 32 Q152 38 155 58 Z" fill="#E8823A" stroke="#2d263c" stroke-width="7" stroke-linejoin="round" stroke-linecap="round"/>
  <ellipse cx="141" cy="34" rx="8" ry="6" fill="#E8823A" stroke="#2d263c" stroke-width="5"/>

  <!-- 触角右 -->
  <path d="M208 76 Q215 52 220 38 Q223 30 215 32 Q208 38 205 58 Z" fill="#E8823A" stroke="#2d263c" stroke-width="7" stroke-linejoin="round" stroke-linecap="round"/>
  <ellipse cx="219" cy="34" rx="8" ry="6" fill="#E8823A" stroke="#2d263c" stroke-width="5"/>

  <!-- 目左(大きくて可愛い) -->
  <ellipse cx="158" cy="122" rx="16" ry="18" fill="white" stroke="#2d263c" stroke-width="5"/>
  <ellipse cx="161" cy="125" rx="10" ry="11" fill="#2d263c"/>
  <ellipse cx="164" cy="121" rx="4" ry="4" fill="white"/>

  <!-- 目右(少しずれてゆるい) -->
  <ellipse cx="204" cy="120" rx="15" ry="17" fill="white" stroke="#2d263c" stroke-width="5"/>
  <ellipse cx="207" cy="123" rx="9" ry="10" fill="#2d263c"/>
  <ellipse cx="210" cy="119" rx="3.5" ry="3.5" fill="white"/>

  <!-- ほっぺ左(丸い) -->
  <ellipse cx="135" cy="142" rx="13" ry="11" fill="#F09050" stroke="#2d263c" stroke-width="4"/>

  <!-- ほっぺ右 -->
  <ellipse cx="224" cy="140" rx="12" ry="10" fill="#F09050" stroke="#2d263c" stroke-width="4"/>

  <!-- 鼻 -->
  <ellipse cx="180" cy="140" rx="5" ry="4" fill="#C05820" stroke="#2d263c" stroke-width="3"/>

  <!-- 口(ゆるいにっこり) -->
  <path d="M165 153 Q180 168 196 153" fill="none" stroke="#2d263c" stroke-width="6" stroke-linecap="round"/>
</svg>