<svg xmlns="http://www.w3.org/2000/svg" viewBox="0 0 360 360">
<ellipse cx="180" cy="230" rx="130" ry="95" fill="#5b7a8c" stroke="#2d263c" stroke-width="8" stroke-linejoin="round"/>
<path d="M60 220 Q 50 150 100 130 Q 180 100 260 130 Q 310 150 300 220 Q 250 175 180 175 Q 110 175 60 220 Z" fill="#3f6350" stroke="#2d263c" stroke-width="7" stroke-linejoin="round"/>
<path d="M100 140 L 90 105 L 120 130 Z" fill="#c94a3a" stroke="#2d263c" stroke-width="6" stroke-linejoin="round"/>
<path d="M180 108 L 175 70 L 205 105 Z" fill="#c94a3a" stroke="#2d263c" stroke-width="6" stroke-linejoin="round"/>
<path d="M255 138 L 268 100 L 290 132 Z" fill="#c94a3a" stroke="#2d263c" stroke-width="6" stroke-linejoin="round"/>
<circle cx="140" cy="200" r="16" fill="#82a596" stroke="#2d263c" stroke-width="5"/>
<circle cx="200" cy="195" r="20" fill="#82a596" stroke="#2d263c" stroke-width="5"/>
<circle cx="230" cy="230" r="14" fill="#82a596" stroke="#2d263c" stroke-width="5"/>
<path d="M60 260 Q 20 245 40 300 Q 65 320 85 285 Z" fill="#5b7a8c" stroke="#2d263c" stroke-width="7" stroke-linejoin="round"/>
<path d="M300 260 Q 340 245 320 300 Q 295 320 275 285 Z" fill="#5b7a8c" stroke="#2d263c" stroke-width="7" stroke-linejoin="round"/>
<ellipse cx="45" cy="330" rx="30" ry="16" fill="#3f556a" stroke="#2d263c" stroke-width="7"/>
<ellipse cx="315" cy="330" rx="30" ry="16" fill="#3f556a" stroke="#2d263c" stroke-width="7"/>
<path d="M40 200 Q -10 190 30 260 Q 60 275 70 220 Z" fill="#5b7a8c" stroke="#2d263c" stroke-width="7" stroke-linejoin="round"/>
<ellipse cx="120" cy="150" rx="90" ry="70" fill="#7695a6" stroke="#2d263c" stroke-width="8"/>
<path d="M35 155 Q 25 100 90 80 Q 150 65 195 100 Q 205 140 170 170 L 60 195 Q 30 185 35 155 Z" fill="#c94a3a" stroke="#2d263c" stroke-width="7" stroke-linejoin="round"/>
<path d="M40 175 L 30 250 Q 20 290 55 300 Q 100 305 140 270 Q 175 235 170 175 Z" fill="#e8e0c8" stroke="#2d263c" stroke-width="8" stroke-linejoin="round"/>
<path d="M40 175 L 55 210 L 70 178 L 90 215 L 105 180 L 120 218 L 140 182 L 155 210 L 170 175 Z" fill="#fff8ea" stroke="#2d263c" stroke-width="6" stroke-linejoin="round"/>
<circle cx="85" cy="120" r="14" fill="#c94a3a" stroke="#2d263c" stroke-width="5"/>
<circle cx="81" cy="117" r="5" fill="#241a1a"/>
<circle cx="145" cy="115" r="12" fill="#c94a3a" stroke="#2d263c" stroke-width="5"/>
<circle cx="141" cy="112" r="4" fill="#241a1a"/>
<path d="M60 90 L 45 65 L 75 78 Z" fill="#3f556a" stroke="#2d263c" stroke-width="5" stroke-linejoin="round"/>
<path d="M150 82 L 165 58 L 175 88 Z" fill="#3f556a" stroke="#2d263c" stroke-width="5" stroke-linejoin="round"/>
<path d="M300 90 L 320 70 L 315 100 Z" fill="#e64550" opacity="0.85"/>
<path d="M55 55 L 70 40 L 62 65 Z" fill="#3d7bd6" opacity="0.85"/>
<path d="M270 300 L 285 285 L 278 310 Z" fill="#e64550" opacity="0.8"/>
</svg>
