<svg xmlns="http://www.w3.org/2000/svg" viewBox="0 0 360 360">
<path d="M80 240 Q180 214 280 240 L270 312 Q180 327 90 312 Z" fill="#ff8c3f" stroke="#2d263c" stroke-width="8" stroke-linejoin="round"/>
<path d="M128 250 L144 272 L112 272 Z" fill="#2d263c"/>
<path d="M232 250 L216 272 L248 272 Z" fill="#2d263c"/>
<path d="M170 288 L180 302 L190 288 Z" fill="#2d263c"/>
<path d="M112 234 Q180 198 248 234 Q252 260 180 266 Q108 260 112 234 Z" fill="#ffd23f" stroke="#2d263c" stroke-width="8" stroke-linejoin="round"/>
<path d="M118 240 Q88 250 100 278 Q116 268 126 256 Z" fill="#ffd23f" stroke="#2d263c" stroke-width="7" stroke-linejoin="round"/>
<path d="M242 240 Q272 250 260 278 Q244 268 234 256 Z" fill="#ffd23f" stroke="#2d263c" stroke-width="7" stroke-linejoin="round"/>
<circle cx="180" cy="158" r="56" fill="#ffd23f" stroke="#2d263c" stroke-width="8"/>
<path d="M180 104 L164 64 L180 92 L191 62 L202 100 Z" fill="#ff8c3f" stroke="#2d263c" stroke-width="6" stroke-linejoin="round"/>
<ellipse cx="158" cy="156" rx="10" ry="13" fill="#2d263c"/>
<circle cx="161" cy="151" r="3.5" fill="#fff"/>
<path d="M192 166 L222 162 L192 180 Z" fill="#ff8c3f" stroke="#2d263c" stroke-width="6" stroke-linejoin="round"/>
</svg>