<svg xmlns="http://www.w3.org/2000/svg" viewBox="0 0 360 360">
<g stroke="#2d263c" stroke-width="7" stroke-linejoin="round" stroke-linecap="round">
<path d="M180 34 Q286 40 316 150 Q340 240 300 300 Q270 340 180 340 Q90 340 60 300 Q20 240 44 150 Q74 40 180 34 Z" fill="#a98a5c"/>
<path d="M180 250 Q252 250 262 300 Q266 322 220 328 Q180 332 140 328 Q94 322 98 300 Q108 250 180 250 Z" fill="#f3ead6"/>
<ellipse cx="118" cy="98" rx="26" ry="20" fill="#a98a5c"/>
<ellipse cx="242" cy="98" rx="26" ry="20" fill="#a98a5c"/>
<ellipse cx="118" cy="102" rx="13" ry="9" fill="#7a6142"/>
<ellipse cx="242" cy="102" rx="13" ry="9" fill="#7a6142"/>
<path d="M138 172 q20 16 40 0" fill="none" stroke-width="8"/>
<path d="M222 172 q20 16 40 0" fill="none" stroke-width="8"/>
<ellipse cx="180" cy="196" rx="12" ry="9" fill="#3a2f22"/>
<path d="M156 226 Q180 244 204 226" fill="none" stroke-width="8"/>
<path d="M54 210 Q30 240 42 276 Q52 300 78 292 Q92 262 82 224 Z" fill="#a98a5c"/>
<path d="M306 210 Q330 240 318 276 Q308 300 282 292 Q268 262 278 224 Z" fill="#a98a5c"/>
<path d="M48 262 l-12 10" fill="none" stroke-width="5"/>
<path d="M64 274 l-8 14" fill="none" stroke-width="5"/>
<path d="M312 262 l12 10" fill="none" stroke-width="5"/>
<path d="M296 274 l8 14" fill="none" stroke-width="5"/>
<path d="M110 320 Q108 350 150 350 Q168 350 168 328 Q160 306 128 306 Z" fill="#a98a5c"/>
<path d="M250 320 Q252 350 210 350 Q192 350 192 328 Q200 306 232 306 Z" fill="#a98a5c"/>
<path d="M122 344 l-6 10" fill="none" stroke-width="5"/>
<path d="M140 348 l-2 12" fill="none" stroke-width="5"/>
<path d="M238 344 l6 10" fill="none" stroke-width="5"/>
<path d="M220 348 l2 12" fill="none" stroke-width="5"/>
<path d="M96 90 Q104 46 150 40 Q142 76 118 96 Q104 104 96 90 Z" fill="#3f7d3f"/>
<path d="M104 80 Q118 56 142 50 Q132 74 114 88 Z" fill="#6bb35f"/>
<path d="M182 26 Q198 -6 236 4 Q220 34 194 46 Q182 48 182 26 Z" fill="#3f7d3f"/>
<path d="M196 22 Q212 4 228 12 Q216 28 200 36 Z" fill="#6bb35f"/>
<path d="M252 66 Q276 34 312 46 Q296 74 268 84 Q252 86 252 66 Z" fill="#3f7d3f"/>
<path d="M262 62 Q280 42 300 50 Q288 68 270 76 Z" fill="#6bb35f"/>
<circle cx="128" cy="52" r="11" fill="#fff"/>
<circle cx="128" cy="52" r="5" fill="#ffce4a"/>
<circle cx="272" cy="58" r="10" fill="#fff"/>
<circle cx="272" cy="58" r="4.5" fill="#ffce4a"/>
<ellipse cx="80" cy="150" rx="20" ry="13" fill="#6bb35f"/>
<ellipse cx="280" cy="150" rx="20" ry="13" fill="#6bb35f"/>
</g>
</svg>
