<svg xmlns="http://www.w3.org/2000/svg" viewBox="0 0 360 360" stroke="#2d263c" stroke-linejoin="round" stroke-linecap="round">

  <!-- 足元の影 -->
  <ellipse cx="175" cy="332" rx="100" ry="18" fill="#00000022" stroke="none"/>

  <!-- 尻尾 -->
  <path d="M290,220 Q320,200 330,175 Q340,155 325,140" fill="none" stroke="#c8a030" stroke-width="10"/>
  <!-- 尻尾の炎の房 -->
  <path d="M325,140 Q335,125 320,110 Q310,100 325,88 Q315,85 305,95 Q295,80 288,95 Q278,82 272,98 Q265,85 260,100 Q255,88 250,105 Q258,118 272,125 Q285,132 300,135 Q315,138 325,140 Z" fill="#ff7020" stroke="#2d263c" stroke-width="3"/>
  <path d="M285,115 Q295,105 290,120 Q297,110 300,125 Q290,118 285,115 Z" fill="#ffcc00" stroke="none"/>

  <!-- 体(横長の4足獣体型) -->
  <ellipse cx="190" cy="225" rx="90" ry="55" fill="#c8a030" stroke="#2d263c" stroke-width="8"/>

  <!-- 腹(黄色みの腹) -->
  <ellipse cx="190" cy="240" rx="65" ry="38" fill="#e0c060" stroke="#2d263c" stroke-width="3"/>

  <!-- 後ろ左足 -->
  <rect x="245" y="260" width="28" height="50" rx="12" fill="#c8a030" stroke="#2d263c" stroke-width="7"/>
  <ellipse cx="259" cy="313" rx="18" ry="9" fill="#b89028" stroke="#2d263c" stroke-width="4"/>
  <!-- 後ろ右足 -->
  <rect x="285" y="260" width="28" height="50" rx="12" fill="#c8a030" stroke="#2d263c" stroke-width="7"/>
  <ellipse cx="299" cy="313" rx="18" ry="9" fill="#b89028" stroke="#2d263c" stroke-width="4"/>

  <!-- 前左足 -->
  <rect x="100" y="255" width="28" height="52" rx="12" fill="#c8a030" stroke="#2d263c" stroke-width="7"/>
  <ellipse cx="114" cy="310" rx="18" ry="9" fill="#b89028" stroke="#2d263c" stroke-width="4"/>
  <!-- 前右足 -->
  <rect x="138" y="255" width="28" height="52" rx="12" fill="#c8a030" stroke="#2d263c" stroke-width="7"/>
  <ellipse cx="152" cy="310" rx="18" ry="9" fill="#b89028" stroke="#2d263c" stroke-width="4"/>

  <!-- 炎のたてがみ外層(オレンジ, 広がる形) -->
  <path d="M75,170 Q60,140 70,110 Q85,85 100,95 Q90,70 110,60 Q125,52 135,70 Q140,50 160,48 Q175,44 180,60 Q185,44 200,48 Q218,52 215,72 Q230,55 245,65 Q258,78 248,98 Q265,82 278,90 Q292,100 285,125 Q300,112 305,130 Q310,150 290,165 Q295,185 280,200 Q262,215 240,215 Q235,200 220,195 Q205,185 180,183 Q155,181 140,192 Q125,200 120,215 Q95,210 80,195 Q68,182 75,170 Z" fill="#ff7020" stroke="#2d263c" stroke-width="4"/>

  <!-- 炎のたてがみ内層(黄色) -->
  <path d="M95,170 Q85,150 92,128 Q100,108 115,112 Q110,95 122,88 Q133,82 140,95 Q144,80 158,76 Q170,72 175,85 Q180,70 192,74 Q205,78 205,93 Q218,80 228,88 Q238,98 232,115 Q242,105 250,118 Q256,133 245,148 Q252,162 242,175 Q225,192 210,192 Q205,178 192,172 Q183,167 180,166 Q177,165 168,170 Q155,176 148,192 Q130,190 115,178 Q100,165 95,170 Z" fill="#ffcc00" stroke="#2d263c" stroke-width="3"/>

  <!-- 頭(大きな頭) -->
  <ellipse cx="135" cy="175" rx="60" ry="55" fill="#c8a030" stroke="#2d263c" stroke-width="8"/>

  <!-- 目(左): 白目 -->
  <ellipse cx="115" cy="168" rx="14" ry="14" fill="white" stroke="#2d263c" stroke-width="3"/>
  <!-- 目(左): 金色虹彩 -->
  <ellipse cx="116" cy="169" rx="9" ry="9" fill="#d4a800" stroke="none"/>
  <!-- 目(左): 黒い瞳 -->
  <ellipse cx="117" cy="170" rx="5" ry="5" fill="#1a1a1a" stroke="none"/>
  <!-- 目(左): ハイライト -->
  <ellipse cx="120" cy="166" rx="2.5" ry="2.5" fill="white" stroke="none"/>

  <!-- 目(右): 白目 -->
  <ellipse cx="155" cy="168" rx="14" ry="14" fill="white" stroke="#2d263c" stroke-width="3"/>
  <!-- 目(右): 金色虹彩 -->
  <ellipse cx="156" cy="169" rx="9" ry="9" fill="#d4a800" stroke="none"/>
  <!-- 目(右): 黒い瞳 -->
  <ellipse cx="157" cy="170" rx="5" ry="5" fill="#1a1a1a" stroke="none"/>
  <!-- 目(右): ハイライト -->
  <ellipse cx="160" cy="166" rx="2.5" ry="2.5" fill="white" stroke="none"/>

  <!-- 鼻 -->
  <ellipse cx="135" cy="188" rx="10" ry="7" fill="#1a1a1a" stroke="#2d263c" stroke-width="3"/>

  <!-- 口ひげ(左) -->
  <line x1="120" y1="198" x2="95" y2="193" stroke="#2d263c" stroke-width="3"/>
  <line x1="120" y1="203" x2="93" y2="202" stroke="#2d263c" stroke-width="3"/>
  <!-- 口ひげ(右) -->
  <line x1="150" y1="198" x2="175" y2="193" stroke="#2d263c" stroke-width="3"/>
  <line x1="150" y1="203" x2="177" y2="202" stroke="#2d263c" stroke-width="3"/>

  <!-- 口 -->
  <path d="M120,208 Q135,218 150,208" fill="none" stroke="#2d263c" stroke-width="4"/>

</svg>
