<svg xmlns="http://www.w3.org/2000/svg" viewBox="0 0 360 360">
  <!-- tail spike (back) -->
  <path d="M185,278 Q232,298 258,332 Q216,312 176,296 Z" fill="#8a6a3a" stroke="#2d263c" stroke-width="7" stroke-linejoin="round"/>

  <!-- legs (back pair) -->
  <path d="M138,238 L98,288" fill="none" stroke="#4b3b22" stroke-width="9" stroke-linecap="round"/>
  <ellipse cx="96" cy="292" rx="10" ry="7" fill="#4b3b22" stroke="#2d263c" stroke-width="5"/>
  <path d="M222,238 L262,288" fill="none" stroke="#4b3b22" stroke-width="9" stroke-linecap="round"/>
  <ellipse cx="264" cy="292" rx="10" ry="7" fill="#4b3b22" stroke="#2d263c" stroke-width="5"/>

  <!-- legs (front pair) -->
  <path d="M152,272 L130,326" fill="none" stroke="#4b3b22" stroke-width="9" stroke-linecap="round"/>
  <ellipse cx="128" cy="330" rx="10" ry="7" fill="#4b3b22" stroke="#2d263c" stroke-width="5"/>
  <path d="M208,272 L230,326" fill="none" stroke="#4b3b22" stroke-width="9" stroke-linecap="round"/>
  <ellipse cx="232" cy="330" rx="10" ry="7" fill="#4b3b22" stroke="#2d263c" stroke-width="5"/>

  <!-- main shell body -->
  <path d="M128,160 C118,108 150,74 180,72 C210,74 242,108 232,160 L240,224 C244,264 212,300 180,302 C148,300 116,264 120,224 Z" fill="#9c7c45" stroke="#2d263c" stroke-width="8" stroke-linejoin="round"/>

  <!-- belly lighter patch -->
  <ellipse cx="180" cy="235" rx="42" ry="52" fill="#e0c483" stroke="#2d263c" stroke-width="4"/>

  <!-- shell texture lines -->
  <path d="M140,150 Q180,168 220,150" fill="none" stroke="#7a5c2e" stroke-width="5" stroke-linecap="round"/>
  <path d="M132,195 Q180,214 228,195" fill="none" stroke="#7a5c2e" stroke-width="5" stroke-linecap="round"/>

  <!-- chest plate detail -->
  <path d="M165,215 L180,200 L195,215 L180,230 Z" fill="#b89355" stroke="#2d263c" stroke-width="5" stroke-linejoin="round"/>

  <!-- left scythe blade -->
  <path d="M128,168 C95,150 55,120 34,94 C55,130 80,160 96,196 C106,208 120,198 128,168 Z" fill="#d8c69a" stroke="#2d263c" stroke-width="8" stroke-linejoin="round"/>

  <!-- right scythe blade -->
  <path d="M232,168 C265,150 305,120 326,94 C305,130 280,160 264,196 C254,208 240,198 232,168 Z" fill="#d8c69a" stroke="#2d263c" stroke-width="8" stroke-linejoin="round"/>

  <!-- head shield -->
  <path d="M138,132 C132,92 152,68 180,66 C208,68 228,92 222,132 C205,148 155,148 138,132 Z" fill="#7a5c2e" stroke="#2d263c" stroke-width="8" stroke-linejoin="round"/>

  <!-- head horns -->
  <path d="M142,108 Q102,92 88,48 Q116,80 150,96 Z" fill="#7a5c2e" stroke="#2d263c" stroke-width="6" stroke-linejoin="round"/>
  <path d="M218,108 Q258,92 272,48 Q244,80 210,96 Z" fill="#7a5c2e" stroke="#2d263c" stroke-width="6" stroke-linejoin="round"/>

  <!-- eyes -->
  <ellipse cx="156" cy="118" rx="16" ry="13" fill="#fff2d8" stroke="#2d263c" stroke-width="5"/>
  <ellipse cx="204" cy="118" rx="16" ry="13" fill="#fff2d8" stroke="#2d263c" stroke-width="5"/>
  <ellipse cx="158" cy="119" rx="9" ry="8" fill="#e63946"/>
  <ellipse cx="202" cy="119" rx="9" ry="8" fill="#e63946"/>
  <ellipse cx="159" cy="120" rx="3.5" ry="3.5" fill="#2d263c"/>
  <ellipse cx="201" cy="120" rx="3.5" ry="3.5" fill="#2d263c"/>

  <!-- mouth mandibles -->
  <path d="M164,146 Q180,158 196,146" fill="none" stroke="#2d263c" stroke-width="5" stroke-linecap="round"/>
</svg>
