<svg xmlns="http://www.w3.org/2000/svg" viewBox="0 0 360 360">
  <!-- Tail / body coil back -->
  <ellipse cx="180" cy="295" rx="90" ry="32" fill="#3a2f7a" stroke="#2d263c" stroke-width="7" stroke-linejoin="round"/>
  <ellipse cx="180" cy="295" rx="68" ry="20" fill="#4a3d9a" stroke="#2d263c" stroke-width="3" stroke-linejoin="round"/>
  <!-- Body segments - rings -->
  <path d="M110,280 Q140,260 180,258 Q220,256 248,272" fill="none" stroke="#c8a800" stroke-width="9" stroke-linecap="round"/>
  <path d="M115,290 Q145,270 180,268 Q218,266 245,282" fill="none" stroke="#c8a800" stroke-width="5" stroke-linecap="round"/>
  <!-- Main body blob -->
  <path d="M105,275 Q95,240 100,210 Q105,180 118,170 Q135,158 165,160 Q195,162 210,170 Q228,180 232,210 Q238,240 235,270 Q220,285 180,287 Q145,288 105,275Z" fill="#3a2f7a" stroke="#2d263c" stroke-width="7" stroke-linejoin="round"/>
  <!-- belly -->
  <path d="M132,270 Q132,240 135,215 Q138,195 155,188 Q172,183 192,188 Q208,196 210,218 Q212,242 210,268 Q195,277 180,278 Q158,278 132,270Z" fill="#f5e8c0" stroke="#2d263c" stroke-width="4" stroke-linejoin="round"/>
  <!-- belly stripes -->
  <line x1="148" y1="265" x2="148" y2="200" stroke="#e8d09a" stroke-width="3" stroke-linecap="round"/>
  <line x1="163" y1="270" x2="163" y2="192" stroke="#e8d09a" stroke-width="3" stroke-linecap="round"/>
  <line x1="178" y1="272" x2="178" y2="190" stroke="#e8d09a" stroke-width="3" stroke-linecap="round"/>
  <line x1="195" y1="270" x2="194" y2="194" stroke="#e8d09a" stroke-width="3" stroke-linecap="round"/>

  <!-- Necks (9 heads) -->
  <!-- Neck 1 - far left back -->
  <path d="M120,185 Q90,155 72,110 Q68,95 75,85" fill="none" stroke="#3a2f7a" stroke-width="16" stroke-linecap="round" stroke-linejoin="round"/>
  <path d="M120,185 Q90,155 72,110 Q68,95 75,85" fill="none" stroke="#4a3d9a" stroke-width="8" stroke-linecap="round"/>
  <!-- Neck 2 -->
  <path d="M130,178 Q108,145 102,100 Q100,84 108,76" fill="none" stroke="#3a2f7a" stroke-width="16" stroke-linecap="round"/>
  <path d="M130,178 Q108,145 102,100 Q100,84 108,76" fill="none" stroke="#4a3d9a" stroke-width="8" stroke-linecap="round"/>
  <!-- Neck 3 -->
  <path d="M145,170 Q130,138 128,95 Q128,78 136,70" fill="none" stroke="#3a2f7a" stroke-width="17" stroke-linecap="round"/>
  <path d="M145,170 Q130,138 128,95 Q128,78 136,70" fill="none" stroke="#4a3d9a" stroke-width="9" stroke-linecap="round"/>
  <!-- Neck 4 -->
  <path d="M160,166 Q155,130 155,88 Q155,70 162,62" fill="none" stroke="#3a2f7a" stroke-width="18" stroke-linecap="round"/>
  <path d="M160,166 Q155,130 155,88 Q155,70 162,62" fill="none" stroke="#4a3d9a" stroke-width="9" stroke-linecap="round"/>
  <!-- Neck 5 - center main -->
  <path d="M178,163 Q182,128 180,82 Q180,64 180,55" fill="none" stroke="#3a2f7a" stroke-width="20" stroke-linecap="round"/>
  <path d="M178,163 Q182,128 180,82 Q180,64 180,55" fill="none" stroke="#4a3d9a" stroke-width="10" stroke-linecap="round"/>
  <!-- Neck 6 -->
  <path d="M196,166 Q205,132 208,90 Q210,72 205,63" fill="none" stroke="#3a2f7a" stroke-width="17" stroke-linecap="round"/>
  <path d="M196,166 Q205,132 208,90 Q210,72 205,63" fill="none" stroke="#4a3d9a" stroke-width="9" stroke-linecap="round"/>
  <!-- Neck 7 -->
  <path d="M210,170 Q228,140 234,98 Q236,80 230,70" fill="none" stroke="#3a2f7a" stroke-width="16" stroke-linecap="round"/>
  <path d="M210,170 Q228,140 234,98 Q236,80 230,70" fill="none" stroke="#4a3d9a" stroke-width="8" stroke-linecap="round"/>
  <!-- Neck 8 -->
  <path d="M222,176 Q248,148 258,104 Q260,86 252,76" fill="none" stroke="#3a2f7a" stroke-width="15" stroke-linecap="round"/>
  <path d="M222,176 Q248,148 258,104 Q260,86 252,76" fill="none" stroke="#4a3d9a" stroke-width="7" stroke-linecap="round"/>
  <!-- Neck 9 - far right back -->
  <path d="M232,182 Q265,158 280,115 Q285,98 278,86" fill="none" stroke="#3a2f7a" stroke-width="14" stroke-linecap="round"/>
  <path d="M232,182 Q265,158 280,115 Q285,98 278,86" fill="none" stroke="#4a3d9a" stroke-width="7" stroke-linecap="round"/>

  <!-- gold rings on necks -->
  <path d="M82,122 Q78,115 78,108 Q84,104 90,108 Q92,115 88,122Z" fill="#c8a800" stroke="#2d263c" stroke-width="2"/>
  <path d="M107,112 Q104,105 105,98 Q111,94 117,98 Q119,106 116,112Z" fill="#c8a800" stroke="#2d263c" stroke-width="2"/>
  <path d="M134,108 Q132,100 133,93 Q139,89 145,93 Q146,101 143,108Z" fill="#c8a800" stroke="#2d263c" stroke-width="2"/>
  <path d="M158,100 Q157,92 158,85 Q164,81 170,85 Q170,93 168,100Z" fill="#c8a800" stroke="#2d263c" stroke-width="2"/>
  <path d="M182,96 Q182,88 182,80 Q188,76 194,80 Q193,88 192,96Z" fill="#c8a800" stroke="#2d263c" stroke-width="2"/>
  <path d="M208,100 Q210,92 212,85 Q218,82 224,86 Q222,94 220,100Z" fill="#c8a800" stroke="#2d263c" stroke-width="2"/>
  <path d="M234,108 Q238,100 241,93 Q247,91 252,96 Q250,104 247,110Z" fill="#c8a800" stroke="#2d263c" stroke-width="2"/>
  <path d="M258,116 Q263,108 267,101 Q273,100 277,106 Q274,114 271,120Z" fill="#c8a800" stroke="#2d263c" stroke-width="2"/>

  <!-- HEAD 1 - far left -->
  <ellipse cx="72" cy="79" rx="18" ry="13" fill="#3a2f7a" stroke="#2d263c" stroke-width="6" stroke-linejoin="round" transform="rotate(-20,72,79)"/>
  <!-- mane 1 -->
  <path d="M58,70 Q50,55 55,45 Q62,42 68,50 Q60,58 62,68Z" fill="#c8a800" stroke="#2d263c" stroke-width="4" stroke-linejoin="round"/>
  <!-- eye 1 -->
  <circle cx="68" cy="76" r="5" fill="#fff" stroke="#2d263c" stroke-width="3"/>
  <circle cx="69" cy="77" r="2.5" fill="#1a0a3a"/>
  <!-- mouth 1 -->
  <path d="M62,84 Q70,87 80,84" fill="none" stroke="#2d263c" stroke-width="3" stroke-linecap="round"/>
  <line x1="66" y1="84" x2="65" y2="88" stroke="#2d263c" stroke-width="2" stroke-linecap="round"/>

  <!-- HEAD 2 -->
  <ellipse cx="103" cy="69" rx="18" ry="13" fill="#3a2f7a" stroke="#2d263c" stroke-width="6" stroke-linejoin="round" transform="rotate(-10,103,69)"/>
  <path d="M90,60 Q84,46 90,38 Q98,36 103,45 Q96,52 98,61Z" fill="#c8a800" stroke="#2d263c" stroke-width="4" stroke-linejoin="round"/>
  <circle cx="99" cy="66" r="5" fill="#fff" stroke="#2d263c" stroke-width="3"/>
  <circle cx="100" cy="67" r="2.5" fill="#1a0a3a"/>
  <path d="M94,75 Q103,78 113,75" fill="none" stroke="#2d263c" stroke-width="3" stroke-linecap="round"/>

  <!-- HEAD 3 -->
  <ellipse cx="133" cy="63" rx="19" ry="13" fill="#3a2f7a" stroke="#2d263c" stroke-width="6" stroke-linejoin="round" transform="rotate(-5,133,63)"/>
  <path d="M121,53 Q116,38 123,31 Q131,29 136,39 Q129,46 130,54Z" fill="#c8a800" stroke="#2d263c" stroke-width="4" stroke-linejoin="round"/>
  <circle cx="129" cy="60" r="5.5" fill="#fff" stroke="#2d263c" stroke-width="3"/>
  <circle cx="130" cy="61" r="2.5" fill="#1a0a3a"/>
  <path d="M123,70 Q133,73 143,70" fill="none" stroke="#2d263c" stroke-width="3" stroke-linecap="round"/>
  <line x1="128" y1="70" x2="127" y2="74" stroke="#2d263c" stroke-width="2" stroke-linecap="round"/>

  <!-- HEAD 4 -->
  <ellipse cx="160" cy="56" rx="19" ry="13" fill="#3a2f7a" stroke="#2d263c" stroke-width="6" stroke-linejoin="round"/>
  <path d="M149,44 Q146,30 153,23 Q161,21 165,32 Q158,38 159,46Z" fill="#c8a800" stroke="#2d263c" stroke-width="4" stroke-linejoin="round"/>
  <circle cx="156" cy="53" r="5.5" fill="#fff" stroke="#2d263c" stroke-width="3"/>
  <circle cx="157" cy="54" r="2.5" fill="#1a0a3a"/>
  <path d="M150,63 Q160,66 170,63" fill="none" stroke="#2d263c" stroke-width="3" stroke-linecap="round"/>

  <!-- HEAD 5 - CENTER MAIN (biggest) -->
  <ellipse cx="180" cy="48" rx="22" ry="15" fill="#3a2f7a" stroke="#2d263c" stroke-width="7" stroke-linejoin="round"/>
  <!-- center mane bigger -->
  <path d="M166,36 Q162,18 170,10 Q180,6 185,18 Q177,25 178,35Z" fill="#c8a800" stroke="#2d263c" stroke-width="5" stroke-linejoin="round"/>
  <!-- antenna -->
  <path d="M180,33 Q183,22 186,16" fill="none" stroke="#c8a800" stroke-width="5" stroke-linecap="round"/>
  <circle cx="187" cy="14" r="4" fill="#c8a800" stroke="#2d263c" stroke-width="3"/>
  <circle cx="175" cy="43" r="6.5" fill="#fff" stroke="#2d263c" stroke-width="3"/>
  <circle cx="177" cy="44" r="3" fill="#1a0a3a"/>
  <!-- gleam -->
  <circle cx="178" cy="42" r="1.2" fill="#fff"/>
  <path d="M168,56 Q180,61 193,56" fill="none" stroke="#2d263c" stroke-width="3.5" stroke-linecap="round"/>
  <line x1="174" y1="56" x2="173" y2="61" stroke="#2d263c" stroke-width="2.5" stroke-linecap="round"/>
  <line x1="180" y1="58" x2="180" y2="63" stroke="#2d263c" stroke-width="2.5" stroke-linecap="round"/>

  <!-- HEAD 6 -->
  <ellipse cx="205" cy="56" rx="19" ry="13" fill="#3a2f7a" stroke="#2d263c" stroke-width="6" stroke-linejoin="round" transform="rotate(3,205,56)"/>
  <path d="M206,43 Q210,29 218,25 Q226,27 226,38 Q219,43 216,50Z" fill="#c8a800" stroke="#2d263c" stroke-width="4" stroke-linejoin="round"/>
  <circle cx="201" cy="53" r="5.5" fill="#fff" stroke="#2d263c" stroke-width="3"/>
  <circle cx="202" cy="54" r="2.5" fill="#1a0a3a"/>
  <path d="M195,63 Q205,66 216,63" fill="none" stroke="#2d263c" stroke-width="3" stroke-linecap="round"/>

  <!-- HEAD 7 -->
  <ellipse cx="230" cy="63" rx="18" ry="13" fill="#3a2f7a" stroke="#2d263c" stroke-width="6" stroke-linejoin="round" transform="rotate(6,230,63)"/>
  <path d="M230,50 Q237,36 246,33 Q254,36 253,47 Q244,51 240,58Z" fill="#c8a800" stroke="#2d263c" stroke-width="4" stroke-linejoin="round"/>
  <circle cx="226" cy="60" r="5.5" fill="#fff" stroke="#2d263c" stroke-width="3"/>
  <circle cx="227" cy="61" r="2.5" fill="#1a0a3a"/>
  <path d="M220,70 Q230,73 240,70" fill="none" stroke="#2d263c" stroke-width="3" stroke-linecap="round"/>
  <line x1="230" y1="70" x2="231" y2="74" stroke="#2d263c" stroke-width="2" stroke-linecap="round"/>

  <!-- HEAD 8 -->
  <ellipse cx="254" cy="70" rx="18" ry="13" fill="#3a2f7a" stroke="#2d263c" stroke-width="6" stroke-linejoin="round" transform="rotate(10,254,70)"/>
  <path d="M257,57 Q265,44 274,42 Q281,46 279,57 Q270,60 264,66Z" fill="#c8a800" stroke="#2d263c" stroke-width="4" stroke-linejoin="round"/>
  <circle cx="249" cy="67" r="5" fill="#fff" stroke="#2d263c" stroke-width="3"/>
  <circle cx="250" cy="68" r="2.5" fill="#1a0a3a"/>
  <path d="M244,77 Q254,80 264,77" fill="none" stroke="#2d263c" stroke-width="3" stroke-linecap="round"/>

  <!-- HEAD 9 - far right -->
  <ellipse cx="279" cy="79" rx="18" ry="13" fill="#3a2f7a" stroke="#2d263c" stroke-width="6" stroke-linejoin="round" transform="rotate(18,279,79)"/>
  <path d="M283,65 Q293,52 302,52 Q308,57 304,68 Q296,70 289,75Z" fill="#c8a800" stroke="#2d263c" stroke-width="4" stroke-linejoin="round"/>
  <circle cx="274" cy="76" r="5" fill="#fff" stroke="#2d263c" stroke-width="3"/>
  <circle cx="275" cy="77" r="2.5" fill="#1a0a3a"/>
  <path d="M268,85 Q278,88 289,85" fill="none" stroke="#2d263c" stroke-width="3" stroke-linecap="round"/>
  <line x1="274" y1="85" x2="275" y2="89" stroke="#2d263c" stroke-width="2" stroke-linecap="round"/>

  <!-- Tail tip fan -->
  <path d="M135,305 Q115,318 108,335 Q118,342 130,332 Q140,320 150,315Z" fill="#4a3d9a" stroke="#2d263c" stroke-width="6" stroke-linejoin="round"/>
  <path d="M155,310 Q148,328 145,345 Q158,348 165,335 Q166,320 168,312Z" fill="#4a3d9a" stroke="#2d263c" stroke-width="6" stroke-linejoin="round"/>
  <path d="M178,312 Q178,332 178,348 Q190,348 192,333 Q191,318 188,312Z" fill="#4a3d9a" stroke="#2d263c" stroke-width="6" stroke-linejoin="round"/>
  <path d="M200,310 Q205,328 210,344 Q222,342 220,327 Q213,315 206,310Z" fill="#4a3d9a" stroke="#2d263c" stroke-width="6" stroke-linejoin="round"/>
  <path d="M220,305 Q230,320 238,334 Q250,330 244,316 Q235,307 225,303Z" fill="#4a3d9a" stroke="#2d263c" stroke-width="6" stroke-linejoin="round"/>
  <!-- gold tail tip decoration -->
  <path d="M160,340 Q180,352 200,340" fill="none" stroke="#c8a800" stroke-width="5" stroke-linecap="round"/>
</svg>