<svg xmlns="http://www.w3.org/2000/svg" viewBox="0 0 360 360">
  <path d="M140,55 Q128,28 148,34 Q162,46 152,70 Z" fill="#5a2226" stroke="#2d263c" stroke-width="7" stroke-linejoin="round" stroke-linecap="round"/>
  <path d="M220,55 Q232,28 212,34 Q198,46 208,70 Z" fill="#5a2226" stroke="#2d263c" stroke-width="7" stroke-linejoin="round" stroke-linecap="round"/>
  <path d="M180,35 C150,35 120,60 112,95 C100,125 92,165 92,205 C92,255 100,300 122,325 C138,338 160,338 180,338 C200,338 222,338 238,325 C260,300 268,255 268,205 C268,165 260,125 248,95 C240,60 210,35 180,35 Z" fill="#6b2c2f" stroke="#2d263c" stroke-width="8" stroke-linejoin="round" stroke-linecap="round"/>
  <path d="M180,90 C155,90 138,105 132,130 C126,155 128,185 140,205 C150,222 165,230 180,230 C195,230 210,222 220,205 C232,185 234,155 228,130 C222,105 205,90 180,90 Z" fill="#f2933a" stroke="#2d263c" stroke-width="7" stroke-linejoin="round"/>
  <ellipse cx="160" cy="150" rx="10" ry="14" fill="#2d263c"/>
  <ellipse cx="200" cy="150" rx="10" ry="14" fill="#2d263c"/>
  <circle cx="163" cy="145" r="3" fill="#ffffff"/>
  <circle cx="203" cy="145" r="3" fill="#ffffff"/>
  <path d="M168,188 Q180,198 192,188" fill="none" stroke="#2d263c" stroke-width="6" stroke-linecap="round"/>
  <path d="M95,210 Q72,222 76,246 Q90,256 100,236 Z" fill="#6b2c2f" stroke="#2d263c" stroke-width="7" stroke-linejoin="round" stroke-linecap="round"/>
  <path d="M265,210 Q288,222 284,246 Q270,256 260,236 Z" fill="#6b2c2f" stroke="#2d263c" stroke-width="7" stroke-linejoin="round" stroke-linecap="round"/>
  <ellipse cx="150" cy="325" rx="22" ry="12" fill="#4a2224" stroke="#2d263c" stroke-width="7"/>
  <ellipse cx="210" cy="325" rx="22" ry="12" fill="#4a2224" stroke="#2d263c" stroke-width="7"/>
  <circle cx="112" cy="150" r="7" fill="#4a2224"/>
  <circle cx="248" cy="170" r="6" fill="#4a2224"/>
  <circle cx="128" cy="260" r="6" fill="#4a2224"/>
  <circle cx="236" cy="270" r="7" fill="#4a2224"/>
</svg>
