<svg xmlns="http://www.w3.org/2000/svg" viewBox="0 0 360 360">
  <!-- back legs -->
  <path d="M100,235 Q60,240 45,270 Q42,278 50,280 Q62,282 70,268 Q85,250 108,250" fill="#241f33" stroke="#2d263c" stroke-width="7" stroke-linejoin="round" stroke-linecap="round"/>
  <path d="M260,235 Q300,240 315,270 Q318,278 310,280 Q298,282 290,268 Q275,250 252,250" fill="#241f33" stroke="#2d263c" stroke-width="7" stroke-linejoin="round" stroke-linecap="round"/>

  <!-- body shell (drawn before front details) -->
  <path d="M92,225 Q86,140 180,100 Q274,140 268,225 Q272,300 180,312 Q88,300 92,225 Z"
        fill="#4d68c2" stroke="#2d263c" stroke-width="8" stroke-linejoin="round"/>

  <!-- shell segment lines -->
  <path d="M112,175 Q180,150 248,175" fill="none" stroke="#2d263c" stroke-width="6" stroke-linecap="round"/>
  <path d="M100,215 Q180,235 260,215" fill="none" stroke="#2d263c" stroke-width="6" stroke-linecap="round"/>
  <path d="M180,105 L180,300" fill="none" stroke="#2d263c" stroke-width="6" stroke-linecap="round" opacity="0.55"/>

  <!-- shell spots -->
  <circle cx="135" cy="195" r="9" fill="#33459a"/>
  <circle cx="225" cy="195" r="9" fill="#33459a"/>
  <circle cx="180" cy="245" r="9" fill="#33459a"/>

  <!-- front legs -->
  <path d="M118,265 Q80,285 68,320 Q65,330 75,332 Q88,334 95,318 Q108,295 128,282" fill="#241f33" stroke="#2d263c" stroke-width="7" stroke-linejoin="round" stroke-linecap="round"/>
  <path d="M242,265 Q280,285 292,320 Q295,330 285,332 Q272,334 265,318 Q252,295 232,282" fill="#241f33" stroke="#2d263c" stroke-width="7" stroke-linejoin="round" stroke-linecap="round"/>

  <!-- yellow belly -->
  <path d="M130,270 Q180,320 230,270 Q225,300 180,310 Q135,300 130,270 Z"
        fill="#ffd93d" stroke="#2d263c" stroke-width="7" stroke-linejoin="round"/>

  <!-- horn / face scoop (signature feature) -->
  <path d="M140,235 Q150,300 180,318 Q210,300 220,235 Q205,260 180,262 Q155,260 140,235 Z"
        fill="#ffe066" stroke="#2d263c" stroke-width="8" stroke-linejoin="round"/>
  <path d="M163,245 Q180,270 197,245" fill="none" stroke="#2d263c" stroke-width="5" stroke-linecap="round" opacity="0.6"/>

  <!-- eyes -->
  <circle cx="150" cy="168" r="15" fill="#e63946" stroke="#2d263c" stroke-width="6"/>
  <circle cx="210" cy="168" r="15" fill="#e63946" stroke="#2d263c" stroke-width="6"/>
  <circle cx="154" cy="164" r="4" fill="#241f33"/>
  <circle cx="214" cy="164" r="4" fill="#241f33"/>

  <!-- tiny mandibles -->
  <path d="M165,205 Q180,215 195,205" fill="none" stroke="#2d263c" stroke-width="6" stroke-linecap="round"/>
</svg>
