<svg xmlns="http://www.w3.org/2000/svg" viewBox="0 0 360 360">
  <ellipse cx="188" cy="330" rx="40" ry="10" fill="#2d263c" opacity="0.12"/>
  <path d="M270 200 L320 150 L300 190 L330 210 L285 225 Z" fill="#f4d21c" stroke="#2d263c" stroke-width="7" stroke-linejoin="round"/>
  <path d="M300 195 L320 218" fill="none" stroke="#8a5a20" stroke-width="7" stroke-linecap="round"/>
  <ellipse cx="180" cy="255" rx="78" ry="68" fill="#f4d21c" stroke="#2d263c" stroke-width="8" stroke-linejoin="round"/>
  <path d="M92 260 Q68 240 78 210" fill="none" stroke="#2d263c" stroke-width="7" stroke-linecap="round"/>
  <path d="M268 260 Q292 240 282 210" fill="none" stroke="#2d263c" stroke-width="7" stroke-linecap="round"/>
  <ellipse cx="118" cy="315" rx="26" ry="16" fill="#f4d21c" stroke="#2d263c" stroke-width="7" stroke-linejoin="round"/>
  <ellipse cx="242" cy="315" rx="26" ry="16" fill="#f4d21c" stroke="#2d263c" stroke-width="7" stroke-linejoin="round"/>
  <circle cx="180" cy="150" r="80" fill="#f4d21c" stroke="#2d263c" stroke-width="8"/>
  <path d="M95 100 L60 20 L120 65 Z" fill="#f4d21c" stroke="#2d263c" stroke-width="7" stroke-linejoin="round"/>
  <path d="M70 40 L60 20 L85 55 Z" fill="#2d263c"/>
  <path d="M265 100 L300 20 L240 65 Z" fill="#f4d21c" stroke="#2d263c" stroke-width="7" stroke-linejoin="round"/>
  <path d="M290 40 L300 20 L275 55 Z" fill="#2d263c"/>
  <path d="M80 118 Q180 40 280 118 L272 128 Q180 62 88 128 Z" fill="#d81f26" stroke="#2d263c" stroke-width="7" stroke-linejoin="round"/>
  <path d="M96 122 Q180 72 264 122 Q180 108 96 122 Z" fill="#ffffff" stroke="#2d263c" stroke-width="5" stroke-linejoin="round"/>
  <path d="M88 128 Q180 96 272 128 Q272 148 240 152 Q180 130 120 152 Q88 148 88 128 Z" fill="#2d263c" stroke="#2d263c" stroke-width="6" stroke-linejoin="round"/>
  <circle cx="180" cy="112" r="12" fill="#ffffff" stroke="#2d263c" stroke-width="4"/>
  <ellipse cx="66" cy="118" rx="22" ry="14" fill="#d81f26" stroke="#2d263c" stroke-width="6" stroke-linejoin="round" transform="rotate(-25 66 118)"/>
  <ellipse cx="294" cy="118" rx="22" ry="14" fill="#d81f26" stroke="#2d263c" stroke-width="6" stroke-linejoin="round" transform="rotate(25 294 118)"/>
  <ellipse cx="146" cy="192" rx="17" ry="14" fill="#e6483c"/>
  <ellipse cx="214" cy="192" rx="17" ry="14" fill="#e6483c"/>
  <ellipse cx="155" cy="160" rx="10" ry="13" fill="#2d263c"/>
  <ellipse cx="205" cy="160" rx="10" ry="13" fill="#2d263c"/>
  <circle cx="158" cy="155" r="3" fill="#fff"/>
  <circle cx="208" cy="155" r="3" fill="#fff"/>
  <path d="M168 182 Q180 190 192 182" fill="none" stroke="#2d263c" stroke-width="6" stroke-linecap="round"/>
</svg>
