<svg xmlns="http://www.w3.org/2000/svg" viewBox="0 0 360 360">
  <!-- りんごの胴体 -->
  <path d="M180 112 Q266 112 270 202 Q272 286 180 296 Q88 286 90 202 Q94 112 180 112Z" fill="#D8302A" stroke="#2d263c" stroke-width="8" stroke-linejoin="round" stroke-linecap="round"/>
  <!-- りんごのハイライト -->
  <path d="M132 152 Q120 188 130 218" fill="none" stroke="#F06A5A" stroke-width="14" stroke-linecap="round"/>
  <!-- ヘタ(茎) -->
  <path d="M178 114 Q176 92 184 78 Q192 70 198 74 Q194 90 188 104" fill="#7A4A24" stroke="#2d263c" stroke-width="6" stroke-linejoin="round" stroke-linecap="round"/>
  <!-- 葉 -->
  <path d="M198 86 Q226 74 234 96 Q222 110 200 102 Z" fill="#5BAE3A" stroke="#2d263c" stroke-width="6" stroke-linejoin="round" stroke-linecap="round"/>
  <!-- 目 左 -->
  <ellipse cx="150" cy="182" rx="16" ry="18" fill="#FFE34A" stroke="#2d263c" stroke-width="6"/>
  <ellipse cx="152" cy="186" rx="6" ry="8" fill="#241f2e"/>
  <!-- 目 右 -->
  <ellipse cx="210" cy="182" rx="16" ry="18" fill="#FFE34A" stroke="#2d263c" stroke-width="6"/>
  <ellipse cx="208" cy="186" rx="6" ry="8" fill="#241f2e"/>
  <!-- 口 -->
  <path d="M168 220 Q180 230 192 220" fill="none" stroke="#2d263c" stroke-width="6" stroke-linecap="round"/>
  <!-- 下から出る尻尾 -->
  <path d="M180 294 Q176 322 198 334 Q216 340 210 318 Q206 304 188 306" fill="#E8B25A" stroke="#2d263c" stroke-width="7" stroke-linejoin="round" stroke-linecap="round"/>
</svg>
