<svg xmlns="http://www.w3.org/2000/svg" viewBox="0 0 360 360">
  <!-- 後ろの角(左) -->
  <path d="M145 95 Q120 40 130 20 Q145 10 155 35 Q158 60 152 90" fill="#6B4F0A" stroke="#2d263c" stroke-width="7" stroke-linejoin="round" stroke-linecap="round"/>
  <!-- 後ろの角(右) -->
  <path d="M215 95 Q240 40 230 20 Q215 10 205 35 Q202 60 208 90" fill="#6B4F0A" stroke="#2d263c" stroke-width="7" stroke-linejoin="round" stroke-linecap="round"/>
  <!-- 角のトゲ(左) -->
  <line x1="133" y1="55" x2="121" y2="48" stroke="#2d263c" stroke-width="5" stroke-linecap="round"/>
  <line x1="137" y1="38" x2="127" y2="28" stroke="#2d263c" stroke-width="5" stroke-linecap="round"/>
  <!-- 角のトゲ(右) -->
  <line x1="227" y1="55" x2="239" y2="48" stroke="#2d263c" stroke-width="5" stroke-linecap="round"/>
  <line x1="223" y1="38" x2="233" y2="28" stroke="#2d263c" stroke-width="5" stroke-linecap="round"/>

  <!-- 体(胴体) -->
  <ellipse cx="182" cy="230" rx="88" ry="100" fill="#A0752B" stroke="#2d263c" stroke-width="8" stroke-linejoin="round"/>
  <!-- お腹の色(少し明るめ) -->
  <ellipse cx="183" cy="245" rx="55" ry="68" fill="#C49A3C" stroke="#2d263c" stroke-width="5"/>
  <!-- 腹の縦縞 -->
  <line x1="175" y1="185" x2="172" y2="305" stroke="#2d263c" stroke-width="3.5" stroke-linecap="round" opacity="0.45"/>
  <line x1="183" y1="183" x2="183" y2="308" stroke="#2d263c" stroke-width="3.5" stroke-linecap="round" opacity="0.45"/>
  <line x1="191" y1="185" x2="194" y2="305" stroke="#2d263c" stroke-width="3.5" stroke-linecap="round" opacity="0.45"/>

  <!-- 脚(左3本) -->
  <path d="M140 215 Q105 220 88 235 Q82 244 90 248" fill="none" stroke="#2d263c" stroke-width="7" stroke-linecap="round"/>
  <path d="M135 245 Q95 250 80 265 Q74 275 83 278" fill="none" stroke="#2d263c" stroke-width="7" stroke-linecap="round"/>
  <path d="M138 272 Q100 278 88 295 Q84 304 93 306" fill="none" stroke="#2d263c" stroke-width="7" stroke-linecap="round"/>
  <!-- 脚(右3本) -->
  <path d="M224 215 Q259 220 276 235 Q282 244 274 248" fill="none" stroke="#2d263c" stroke-width="7" stroke-linecap="round"/>
  <path d="M229 245 Q269 250 284 265 Q290 275 281 278" fill="none" stroke="#2d263c" stroke-width="7" stroke-linecap="round"/>
  <path d="M226 272 Q264 278 276 295 Q280 304 271 306" fill="none" stroke="#2d263c" stroke-width="7" stroke-linecap="round"/>

  <!-- 頭 -->
  <ellipse cx="182" cy="148" rx="68" ry="60" fill="#A0752B" stroke="#2d263c" stroke-width="8" stroke-linejoin="round"/>

  <!-- 目(左) 少し怒り眉 -->
  <ellipse cx="155" cy="148" rx="18" ry="19" fill="white" stroke="#2d263c" stroke-width="5"/>
  <ellipse cx="158" cy="151" rx="11" ry="12" fill="#1a1a1a"/>
  <ellipse cx="161" cy="148" rx="4" ry="5" fill="white" opacity="0.7"/>
  <!-- 怒り眉(左) -->
  <path d="M140 133 Q153 126 170 131" fill="none" stroke="#2d263c" stroke-width="5" stroke-linecap="round"/>

  <!-- 目(右) -->
  <ellipse cx="209" cy="148" rx="17" ry="19" fill="white" stroke="#2d263c" stroke-width="5"/>
  <ellipse cx="206" cy="151" rx="11" ry="12" fill="#1a1a1a"/>
  <ellipse cx="209" cy="148" rx="4" ry="5" fill="white" opacity="0.7"/>
  <!-- 怒り眉(右) -->
  <path d="M194 131 Q207 126 222 133" fill="none" stroke="#2d263c" stroke-width="5" stroke-linecap="round"/>

  <!-- 口(ギザギザ気味) -->
  <path d="M163 172 Q172 180 182 174 Q191 180 200 172" fill="none" stroke="#2d263c" stroke-width="5" stroke-linecap="round" stroke-linejoin="round"/>

  <!-- 額の甲殻ライン -->
  <path d="M148 118 Q182 108 216 118" fill="none" stroke="#2d263c" stroke-width="4" stroke-linecap="round" opacity="0.5"/>
</svg>