<svg xmlns="http://www.w3.org/2000/svg" viewBox="0 0 360 360">
<path d="M52 262 Q52 342 180 342 Q308 342 308 262 L308 240 L52 240 Z" fill="#a89878" stroke="#2d263c" stroke-width="8" stroke-linejoin="round"/>
<path d="M52 240 L308 240" stroke="#2d263c" stroke-width="5"/>
<path d="M70 250 L88 270 M100 252 L118 272 M250 252 L232 272 M290 250 L272 270" stroke="#8a7858" stroke-width="4" stroke-linecap="round" fill="none"/>
<ellipse cx="108" cy="220" rx="42" ry="52" fill="#e89868" stroke="#2d263c" stroke-width="7"/>
<ellipse cx="252" cy="220" rx="42" ry="52" fill="#e89868" stroke="#2d263c" stroke-width="7"/>
<rect x="116" y="118" width="58" height="64" rx="10" fill="#3a3a3a" stroke="#2d263c" stroke-width="6" transform="rotate(-22 145 150)"/>
<rect x="186" y="118" width="58" height="64" rx="10" fill="#3a3a3a" stroke="#2d263c" stroke-width="6" transform="rotate(22 215 150)"/>
<circle cx="98" cy="214" r="8" fill="#2d263c"/>
<circle cx="120" cy="214" r="8" fill="#2d263c"/>
<circle cx="242" cy="214" r="8" fill="#2d263c"/>
<circle cx="264" cy="214" r="8" fill="#2d263c"/>
<path d="M92 236 Q108 246 124 236" fill="none" stroke="#2d263c" stroke-width="4" stroke-linecap="round"/>
<path d="M236 236 Q252 246 268 236" fill="none" stroke="#2d263c" stroke-width="4" stroke-linecap="round"/>
</svg>
