<svg xmlns="http://www.w3.org/2000/svg" viewBox="0 0 360 360">
  <!-- 尻尾 (一番後ろ) -->
  <path d="M 230 260 Q 310 230 320 200 Q 330 170 300 165 Q 275 160 265 185 Q 255 210 240 230 Z" fill="#c0392b" stroke="#2d263c" stroke-width="7" stroke-linejoin="round"/>
  <!-- 尻尾の腹色ライン -->
  <path d="M 250 240 Q 295 215 305 190 Q 315 172 298 170 Q 282 170 268 192" fill="none" stroke="#f0d9a8" stroke-width="4" stroke-linecap="round"/>

  <!-- 後ろ足 左 -->
  <path d="M 155 270 Q 140 295 130 320 Q 125 335 145 338 Q 162 340 165 325 Q 168 308 175 290 Z" fill="#7f8c8d" stroke="#2d263c" stroke-width="7" stroke-linejoin="round"/>
  <!-- 後ろ足 左 つま先 -->
  <path d="M 130 320 Q 112 330 108 340 Q 128 342 145 338" fill="#6b7777" stroke="#2d263c" stroke-width="6" stroke-linejoin="round"/>
  <path d="M 145 338 Q 150 350 162 348 Q 172 346 165 325" fill="#6b7777" stroke="#2d263c" stroke-width="6" stroke-linejoin="round"/>

  <!-- 後ろ足 右 -->
  <path d="M 200 275 Q 195 300 192 322 Q 190 338 210 340 Q 226 341 228 325 Q 229 308 222 285 Z" fill="#7f8c8d" stroke="#2d263c" stroke-width="7" stroke-linejoin="round"/>
  <!-- 後ろ足 右 つま先 -->
  <path d="M 192 322 Q 178 332 175 342 Q 192 344 210 340" fill="#6b7777" stroke="#2d263c" stroke-width="6" stroke-linejoin="round"/>
  <path d="M 210 340 Q 218 350 228 346 Q 236 342 228 325" fill="#6b7777" stroke="#2d263c" stroke-width="6" stroke-linejoin="round"/>

  <!-- 胴体メイン -->
  <path d="M 120 200 Q 105 240 125 280 Q 145 310 185 308 Q 225 306 245 275 Q 265 245 255 210 Q 248 180 225 165 Q 200 150 170 152 Q 135 155 120 200 Z" fill="#c0392b" stroke="#2d263c" stroke-width="8" stroke-linejoin="round"/>

  <!-- お腹 (クリーム色) -->
  <path d="M 140 215 Q 135 250 148 278 Q 165 300 190 298 Q 215 296 228 270 Q 238 248 230 220 Q 220 200 190 196 Q 160 194 140 215 Z" fill="#f0d9a8" stroke="#2d263c" stroke-width="5" stroke-linejoin="round"/>

  <!-- 小さい前脚 左 -->
  <path d="M 128 215 Q 105 225 98 242 Q 95 255 108 258 Q 118 260 125 248 Q 132 236 138 225 Z" fill="#c0392b" stroke="#2d263c" stroke-width="6" stroke-linejoin="round"/>
  <!-- 前脚の爪 -->
  <path d="M 98 242 Q 88 250 86 262 Q 96 264 108 258" fill="#8b5e3c" stroke="#2d263c" stroke-width="5" stroke-linejoin="round"/>

  <!-- 小さい前脚 右 -->
  <path d="M 242 218 Q 265 230 270 247 Q 272 260 260 262 Q 249 263 244 250 Q 239 237 240 222 Z" fill="#c0392b" stroke="#2d263c" stroke-width="6" stroke-linejoin="round"/>
  <!-- 前脚の爪 右 -->
  <path d="M 270 247 Q 280 256 278 268 Q 266 268 260 262" fill="#8b5e3c" stroke="#2d263c" stroke-width="5" stroke-linejoin="round"/>

  <!-- 首のエリマキ (白いとげとげ) -->
  <path d="M 138 168 Q 130 148 125 130 Q 140 140 148 158 Z" fill="#f5f5f5" stroke="#2d263c" stroke-width="6" stroke-linejoin="round"/>
  <path d="M 153 160 Q 150 138 152 118 Q 163 132 162 153 Z" fill="#f5f5f5" stroke="#2d263c" stroke-width="6" stroke-linejoin="round"/>
  <path d="M 170 157 Q 172 134 178 116 Q 186 130 182 154 Z" fill="#f5f5f5" stroke="#2d263c" stroke-width="6" stroke-linejoin="round"/>
  <path d="M 188 160 Q 194 138 202 122 Q 208 137 200 158 Z" fill="#f5f5f5" stroke="#2d263c" stroke-width="6" stroke-linejoin="round"/>
  <path d="M 204 167 Q 214 146 224 133 Q 228 148 216 165 Z" fill="#f5f5f5" stroke="#2d263c" stroke-width="6" stroke-linejoin="round"/>

  <!-- 頭部 -->
  <path d="M 115 148 Q 108 120 118 95 Q 130 68 160 58 Q 192 48 218 62 Q 240 75 248 100 Q 256 125 245 150 Q 232 170 205 172 Q 175 174 150 165 Q 128 158 115 148 Z" fill="#c0392b" stroke="#2d263c" stroke-width="8" stroke-linejoin="round"/>

  <!-- 頭の模様・縞 -->
  <path d="M 155 65 Q 148 80 152 95" fill="none" stroke="#9b2335" stroke-width="4" stroke-linecap="round"/>
  <path d="M 175 58 Q 172 74 176 90" fill="none" stroke="#9b2335" stroke-width="4" stroke-linecap="round"/>
  <path d="M 196 60 Q 196 76 200 92" fill="none" stroke="#9b2335" stroke-width="4" stroke-linecap="round"/>

  <!-- 顎・下あご (巨大!!) -->
  <path d="M 110 145 Q 95 155 88 175 Q 84 195 92 212 Q 100 228 125 232 Q 150 235 170 228 Q 195 220 210 208 Q 230 193 235 172 Q 240 152 228 142 L 205 152 L 180 158 L 155 155 L 130 148 Z" fill="#c0392b" stroke="#2d263c" stroke-width="8" stroke-linejoin="round"/>

  <!-- 顎の腹色 (クリーム) -->
  <path d="M 115 162 Q 105 175 104 195 Q 105 212 122 220 Q 145 228 175 222 Q 200 216 212 200 Q 220 185 215 168 Q 200 160 180 162 Q 155 163 115 162 Z" fill="#f0d9a8" stroke="#2d263c" stroke-width="4" stroke-linejoin="round"/>

  <!-- 歯 上 -->
  <path d="M 125 158 L 118 172 L 128 168 Z" fill="#fffde7" stroke="#2d263c" stroke-width="4" stroke-linejoin="round"/>
  <path d="M 145 155 L 140 170 L 150 166 Z" fill="#fffde7" stroke="#2d263c" stroke-width="4" stroke-linejoin="round"/>
  <path d="M 165 154 L 162 170 L 172 167 Z" fill="#fffde7" stroke="#2d263c" stroke-width="4" stroke-linejoin="round"/>
  <path d="M 185 155 L 184 170 L 193 166 Z" fill="#fffde7" stroke="#2d263c" stroke-width="4" stroke-linejoin="round"/>
  <path d="M 204 158 L 205 172 L 214 167 Z" fill="#fffde7" stroke="#2d263c" stroke-width="4" stroke-linejoin="round"/>

  <!-- 歯 下 -->
  <path d="M 120 198 L 115 185 L 125 188 Z" fill="#fffde7" stroke="#2d263c" stroke-width="3.5" stroke-linejoin="round"/>
  <path d="M 145 206 L 142 191 L 152 194 Z" fill="#fffde7" stroke="#2d263c" stroke-width="3.5" stroke-linejoin="round"/>
  <path d="M 170 208 L 170 193 L 179 196 Z" fill="#fffde7" stroke="#2d263c" stroke-width="3.5" stroke-linejoin="round"/>
  <path d="M 196 204 L 198 189 L 207 193 Z" fill="#fffde7" stroke="#2d263c" stroke-width="3.5" stroke-linejoin="round"/>

  <!-- 目の周りの赤い模様 -->
  <ellipse cx="148" cy="100" rx="22" ry="18" fill="#9b2335" stroke="#2d263c" stroke-width="5"/>
  <ellipse cx="205" cy="98" rx="20" ry="17" fill="#9b2335" stroke="#2d263c" stroke-width="5"/>

  <!-- 白目 -->
  <ellipse cx="148" cy="100" rx="14" ry="12" fill="#fffde7" stroke="#2d263c" stroke-width="3"/>
  <ellipse cx="205" cy="98" rx="13" ry="11" fill="#fffde7" stroke="#2d263c" stroke-width="3"/>

  <!-- 瞳 (鋭い!) -->
  <ellipse cx="151" cy="102" rx="7" ry="9" fill="#1a1a2e"/>
  <ellipse cx="207" cy="100" rx="7" ry="9" fill="#1a1a2e"/>
  <!-- ハイライト -->
  <circle cx="154" cy="98" r="2.5" fill="white"/>
  <circle cx="210" cy="96" r="2.5" fill="white"/>

  <!-- 眉毛 (ちょっとこわい顔) -->
  <path d="M 134 87 Q 148 80 162 85" fill="none" stroke="#2d263c" stroke-width="6" stroke-linecap="round"/>
  <path d="M 194 84 Q 206 78 218 83" fill="none" stroke="#2d263c" stroke-width="6" stroke-linecap="round"/>

  <!-- 鼻 -->
  <path d="M 172 115 Q 180 118 188 115" fill="none" stroke="#2d263c" stroke-width="5" stroke-linecap="round"/>

  <!-- 背中の棘 -->
  <path d="M 175 152 Q 168 132 162 115" fill="#a93226" stroke="#2d263c" stroke-width="6" stroke-linejoin="round"/>
  <path d="M 188 150 Q 185 128 183 112" fill="#a93226" stroke="#2d263c" stroke-width="6" stroke-linejoin="round"/>
</svg>