<svg xmlns="http://www.w3.org/2000/svg" viewBox="0 0 360 360">
  <ellipse cx="180" cy="230" rx="95" ry="90" fill="#c8783c" stroke="#2d263c" stroke-width="8" stroke-linejoin="round"/>
  <circle cx="180" cy="110" r="62" fill="#c8783c" stroke="#2d263c" stroke-width="8" stroke-linejoin="round"/>
  <circle cx="132" cy="66" r="26" fill="#c8783c" stroke="#2d263c" stroke-width="7" stroke-linejoin="round"/>
  <circle cx="228" cy="66" r="26" fill="#c8783c" stroke="#2d263c" stroke-width="7" stroke-linejoin="round"/>
  <circle cx="132" cy="70" r="10" fill="#a85a2a" stroke="#2d263c" stroke-width="5"/>
  <circle cx="228" cy="70" r="10" fill="#a85a2a" stroke="#2d263c" stroke-width="5"/>
  <path d="M 95 250 Q 60 230 68 190 Q 100 200 112 235 Z" fill="#7a4426" stroke="#2d263c" stroke-width="7" stroke-linejoin="round"/>
  <path d="M 265 250 Q 300 230 292 190 Q 260 200 248 235 Z" fill="#7a4426" stroke="#2d263c" stroke-width="7" stroke-linejoin="round"/>
  <path d="M 150 145 Q 180 165 210 145 L 205 90 Q 180 78 155 90 Z" fill="#7a4426" stroke="#2d263c" stroke-width="7" stroke-linejoin="round"/>
  <ellipse cx="180" cy="140" rx="42" ry="30" fill="#e8b07a" stroke="#2d263c" stroke-width="7" stroke-linejoin="round"/>
  <ellipse cx="180" cy="150" rx="14" ry="10" fill="#241a14" stroke="#2d263c" stroke-width="5"/>
  <ellipse cx="150" cy="102" rx="13" ry="16" fill="#e23b2e" stroke="#2d263c" stroke-width="6"/>
  <ellipse cx="210" cy="102" rx="13" ry="16" fill="#e23b2e" stroke="#2d263c" stroke-width="6"/>
  <circle cx="150" cy="104" r="4" fill="#2d263c"/>
  <circle cx="210" cy="104" r="4" fill="#2d263c"/>
  <circle cx="230" cy="240" r="34" fill="#e23b2e" stroke="#2d263c" stroke-width="7" stroke-linejoin="round"/>
  <path d="M 214 224 A 20 20 0 0 0 214 256 A 26 26 0 0 1 214 224 Z" fill="#c8783c" stroke="#2d263c" stroke-width="4"/>
  <path d="M 110 260 Q 90 240 105 210 Q 130 220 128 255 Z" fill="#7a4426" stroke="#2d263c" stroke-width="6" stroke-linejoin="round"/>
  <path d="M 155 300 Q 150 260 175 250 Q 195 265 185 305 Z" fill="#7a4426" stroke="#2d263c" stroke-width="6" stroke-linejoin="round"/>
  <ellipse cx="108" cy="255" rx="34" ry="40" fill="#c8783c" stroke="#2d263c" stroke-width="8" stroke-linejoin="round"/>
  <ellipse cx="252" cy="255" rx="34" ry="40" fill="#c8783c" stroke="#2d263c" stroke-width="8" stroke-linejoin="round"/>
  <ellipse cx="150" cy="320" rx="28" ry="26" fill="#c8783c" stroke="#2d263c" stroke-width="8" stroke-linejoin="round"/>
  <ellipse cx="210" cy="320" rx="28" ry="26" fill="#c8783c" stroke="#2d263c" stroke-width="8" stroke-linejoin="round"/>
  <path d="M 95 270 Q 85 285 95 300" fill="none" stroke="#2d263c" stroke-width="6" stroke-linecap="round"/>
  <path d="M 265 270 Q 275 285 265 300" fill="none" stroke="#2d263c" stroke-width="6" stroke-linecap="round"/>
  <path d="M 138 335 L 132 348 M 150 336 L 148 350 M 162 336 L 166 349" stroke="#2d263c" stroke-width="5" stroke-linecap="round"/>
  <path d="M 198 336 L 194 349 M 210 336 L 212 350 M 222 335 L 228 348" stroke="#2d263c" stroke-width="5" stroke-linecap="round"/>
</svg>
