<svg xmlns="http://www.w3.org/2000/svg" viewBox="0 0 360 360">
  <ellipse cx="68" cy="235" rx="24" ry="32" fill="#7d7d86" stroke="#2d263c" stroke-width="7" stroke-linejoin="round" stroke-linecap="round"/>
  <ellipse cx="292" cy="235" rx="24" ry="32" fill="#7d7d86" stroke="#2d263c" stroke-width="7" stroke-linejoin="round" stroke-linecap="round"/>
  <ellipse cx="150" cy="322" rx="20" ry="22" fill="#7d7d86" stroke="#2d263c" stroke-width="7" stroke-linejoin="round" stroke-linecap="round"/>
  <ellipse cx="210" cy="322" rx="20" ry="22" fill="#7d7d86" stroke="#2d263c" stroke-width="7" stroke-linejoin="round" stroke-linecap="round"/>
  <path d="M70,125 L50,75 L85,55 L95,95 L120,38 L135,90 L108,115 Z" fill="#ff9d4d" stroke="#2d263c" stroke-width="6" stroke-linejoin="round" stroke-linecap="round"/>
  <path d="M290,125 L310,75 L275,55 L265,95 L240,38 L225,90 L252,115 Z" fill="#ff9d4d" stroke="#2d263c" stroke-width="6" stroke-linejoin="round" stroke-linecap="round"/>
  <path d="M180,88 Q216,84 236,110 Q266,126 270,160 Q286,190 270,225 Q276,260 245,286 Q220,316 180,316 Q140,316 115,286 Q84,260 90,225 Q74,190 90,160 Q94,126 124,110 Q144,84 180,88 Z" fill="#8f8f97" stroke="#2d263c" stroke-width="9" stroke-linejoin="round" stroke-linecap="round"/>
  <path d="M110,238 Q140,288 180,300 Q220,288 250,238 Q228,270 180,278 Q132,270 110,238 Z" fill="#6f6f78" stroke="none"/>
  <path d="M65,192 L45,170 L72,154 L86,186 L60,210 Z" fill="#ffb56b" stroke="#2d263c" stroke-width="5" stroke-linejoin="round" stroke-linecap="round"/>
  <path d="M295,192 L315,170 L288,154 L274,186 L300,210 Z" fill="#ffb56b" stroke="#2d263c" stroke-width="5" stroke-linejoin="round" stroke-linecap="round"/>
  <path d="M235,252 L257,234 L248,270 L222,264 Z" fill="#ffb56b" stroke="#2d263c" stroke-width="5" stroke-linejoin="round" stroke-linecap="round"/>
  <path d="M128,128 Q180,150 232,128" fill="none" stroke="#2d263c" stroke-width="5" stroke-linecap="round"/>
  <ellipse cx="150" cy="182" rx="14" ry="16" fill="#ffffff" stroke="#2d263c" stroke-width="5"/>
  <ellipse cx="210" cy="182" rx="14" ry="16" fill="#ffffff" stroke="#2d263c" stroke-width="5"/>
  <circle cx="150" cy="185" r="6" fill="#2d263c"/>
  <circle cx="210" cy="185" r="6" fill="#2d263c"/>
  <path d="M160,238 Q180,228 200,238" fill="none" stroke="#2d263c" stroke-width="7" stroke-linecap="round"/>
</svg>
