<svg xmlns="http://www.w3.org/2000/svg" viewBox="0 0 360 360">
  <path d="M255,210 Q300,190 290,130 Q275,150 255,175 Q245,195 255,225 Z" fill="#ee7c2e" stroke="#2d263c" stroke-width="8" stroke-linejoin="round"/>
  <path d="M290,130 Q305,100 290,70 Q270,90 265,120 Q275,135 290,130 Z" fill="#fff6df" stroke="#2d263c" stroke-width="7" stroke-linejoin="round"/>
  <path d="M95,255 L90,310 L118,310 L120,255 Z" fill="#d9691f" stroke="#2d263c" stroke-width="7" stroke-linejoin="round"/>
  <path d="M265,255 L270,310 L242,310 L240,255 Z" fill="#d9691f" stroke="#2d263c" stroke-width="7" stroke-linejoin="round"/>
  <rect x="86" y="302" width="36" height="18" rx="9" fill="#2d263c"/>
  <rect x="238" y="302" width="36" height="18" rx="9" fill="#2d263c"/>
  <ellipse cx="180" cy="225" rx="88" ry="72" fill="#ee7c2e" stroke="#2d263c" stroke-width="8"/>
  <path d="M140,260 L135,320 Q135,330 145,330 L160,330 Q168,330 168,320 L165,258 Z" fill="#ee7c2e" stroke="#2d263c" stroke-width="7" stroke-linejoin="round"/>
  <path d="M220,260 L225,320 Q225,330 215,330 L200,330 Q192,330 192,320 L195,258 Z" fill="#ee7c2e" stroke="#2d263c" stroke-width="7" stroke-linejoin="round"/>
  <rect x="133" y="312" width="37" height="20" rx="10" fill="#2d263c"/>
  <rect x="190" y="312" width="37" height="20" rx="10" fill="#2d263c"/>
  <path d="M110,195 Q100,160 130,150 Q140,175 155,155 Q165,185 180,158 Q195,185 205,155 Q220,175 230,150 Q260,160 250,195 Q255,230 220,235 Q180,245 140,235 Q105,230 110,195 Z" fill="#fff6df" stroke="#2d263c" stroke-width="7" stroke-linejoin="round"/>
  <circle cx="180" cy="120" r="62" fill="#ee7c2e" stroke="#2d263c" stroke-width="8"/>
  <polygon points="130,85 100,25 155,70" fill="#2d263c" stroke="#2d263c" stroke-width="6" stroke-linejoin="round"/>
  <polygon points="230,85 260,25 205,70" fill="#2d263c" stroke="#2d263c" stroke-width="6" stroke-linejoin="round"/>
  <path d="M140,75 Q150,35 165,70 Q180,30 195,70 Q210,35 220,75 Z" fill="#fff6df" stroke="#2d263c" stroke-width="6" stroke-linejoin="round"/>
  <ellipse cx="180" cy="150" rx="36" ry="25" fill="#fff6df" stroke="#2d263c" stroke-width="6"/>
  <path d="M120,140 Q100,150 110,170 Q125,160 130,145 Z" fill="#fff6df" stroke="#2d263c" stroke-width="6" stroke-linejoin="round"/>
  <path d="M240,140 Q260,150 250,170 Q235,160 230,145 Z" fill="#fff6df" stroke="#2d263c" stroke-width="6" stroke-linejoin="round"/>
  <circle cx="158" cy="112" r="9" fill="#2d263c"/>
  <circle cx="202" cy="112" r="9" fill="#2d263c"/>
  <circle cx="161" cy="109" r="3" fill="#fff"/>
  <circle cx="205" cy="109" r="3" fill="#fff"/>
  <ellipse cx="180" cy="148" rx="8" ry="6" fill="#2d263c"/>
  <path d="M165,168 Q180,178 195,168" fill="none" stroke="#2d263c" stroke-width="6" stroke-linecap="round"/>
  <path d="M140,180 Q150,170 165,175" fill="none" stroke="#2d263c" stroke-width="7" stroke-linecap="round"/>
  <path d="M195,175 Q210,170 220,182" fill="none" stroke="#2d263c" stroke-width="7" stroke-linecap="round"/>
  <path d="M150,255 Q160,245 175,250" fill="none" stroke="#2d263c" stroke-width="7" stroke-linecap="round"/>
  <path d="M190,250 Q205,245 215,255" fill="none" stroke="#2d263c" stroke-width="7" stroke-linecap="round"/>
  <path d="M170,90 Q180,80 190,90" fill="none" stroke="#2d263c" stroke-width="7" stroke-linecap="round"/>
</svg>
