<svg xmlns="http://www.w3.org/2000/svg" viewBox="0 0 360 360">
  <!-- しっぽ -->
  <ellipse cx="252" cy="272" rx="28" ry="18" fill="#D4B87A" stroke="#2d263c" stroke-width="7" stroke-linejoin="round"/>

  <!-- 右足 -->
  <ellipse cx="228" cy="318" rx="24" ry="16" fill="#C8A855" stroke="#2d263c" stroke-width="7" stroke-linejoin="round"/>
  <rect x="210" y="278" width="38" height="46" rx="16" fill="#D4B87A" stroke="#2d263c" stroke-width="7" stroke-linejoin="round"/>

  <!-- 左足 -->
  <ellipse cx="142" cy="320" rx="26" ry="14" fill="#C8A855" stroke="#2d263c" stroke-width="7" stroke-linejoin="round"/>
  <rect x="126" y="280" width="36" height="44" rx="15" fill="#D4B87A" stroke="#2d263c" stroke-width="7" stroke-linejoin="round"/>

  <!-- 体 -->
  <ellipse cx="183" cy="240" rx="82" ry="96" fill="#D4B87A" stroke="#2d263c" stroke-width="8" stroke-linejoin="round"/>

  <!-- 育児嚢(お腹のポーチ) -->
  <ellipse cx="183" cy="265" rx="52" ry="58" fill="#F0E0A8" stroke="#2d263c" stroke-width="6" stroke-linejoin="round"/>

  <!-- 右腕 -->
  <path d="M254 198 Q285 215 278 255 Q275 268 262 270" fill="#D4B87A" stroke="#2d263c" stroke-width="7" stroke-linejoin="round" stroke-linecap="round"/>
  <!-- 右手指 -->
  <circle cx="270" cy="272" r="9" fill="#D4B87A" stroke="#2d263c" stroke-width="6"/>
  <circle cx="282" cy="266" r="8" fill="#D4B87A" stroke="#2d263c" stroke-width="6"/>
  <circle cx="260" cy="280" r="8" fill="#D4B87A" stroke="#2d263c" stroke-width="6"/>

  <!-- 左腕 -->
  <path d="M114 200 Q82 218 88 258 Q91 270 104 272" fill="#D4B87A" stroke="#2d263c" stroke-width="7" stroke-linejoin="round" stroke-linecap="round"/>
  <!-- 左手指 -->
  <circle cx="96" cy="274" r="9" fill="#D4B87A" stroke="#2d263c" stroke-width="6"/>
  <circle cx="84" cy="268" r="8" fill="#D4B87A" stroke="#2d263c" stroke-width="6"/>
  <circle cx="106" cy="282" r="8" fill="#D4B87A" stroke="#2d263c" stroke-width="6"/>

  <!-- 赤ちゃんガルーラの体 -->
  <ellipse cx="183" cy="272" rx="32" ry="34" fill="#E8D298" stroke="#2d263c" stroke-width="5" stroke-linejoin="round"/>

  <!-- 赤ちゃんの顔 -->
  <circle cx="183" cy="240" r="26" fill="#E8D298" stroke="#2d263c" stroke-width="5"/>
  <!-- 赤ちゃんの耳 -->
  <ellipse cx="163" cy="222" rx="9" ry="10" fill="#E8D298" stroke="#2d263c" stroke-width="4"/>
  <ellipse cx="203" cy="222" rx="9" ry="10" fill="#E8D298" stroke="#2d263c" stroke-width="4"/>
  <!-- 赤ちゃんの目 -->
  <circle cx="177" cy="240" r="4" fill="#2d263c"/>
  <circle cx="191" cy="241" r="4" fill="#2d263c"/>
  <!-- 赤ちゃんの目のハイライト -->
  <circle cx="179" cy="238" r="1.5" fill="white"/>
  <circle cx="193" cy="239" r="1.5" fill="white"/>
  <!-- 赤ちゃんの口 -->
  <path d="M180 249 Q183 252 187 249" fill="none" stroke="#2d263c" stroke-width="3" stroke-linecap="round"/>

  <!-- 親ガルーラの頭 -->
  <circle cx="183" cy="122" r="72" fill="#D4B87A" stroke="#2d263c" stroke-width="8" stroke-linejoin="round"/>

  <!-- 左耳 -->
  <ellipse cx="126" cy="72" rx="18" ry="22" fill="#D4B87A" stroke="#2d263c" stroke-width="7" stroke-linejoin="round"/>
  <ellipse cx="126" cy="73" rx="9" ry="13" fill="#E8B8B0" stroke="none"/>

  <!-- 右耳 -->
  <ellipse cx="240" cy="68" rx="18" ry="22" fill="#D4B87A" stroke="#2d263c" stroke-width="7" stroke-linejoin="round"/>
  <ellipse cx="240" cy="69" rx="9" ry="13" fill="#E8B8B0" stroke="none"/>

  <!-- 額の角(短い突起2本) -->
  <path d="M168 57 Q166 40 162 32" fill="none" stroke="#2d263c" stroke-width="8" stroke-linecap="round"/>
  <ellipse cx="162" cy="30" rx="7" ry="9" fill="#C8A855" stroke="#2d263c" stroke-width="6"/>
  <path d="M196 55 Q198 38 202 30" fill="none" stroke="#2d263c" stroke-width="8" stroke-linecap="round"/>
  <ellipse cx="202" cy="28" rx="7" ry="9" fill="#C8A855" stroke="#2d263c" stroke-width="6"/>

  <!-- 目の白目 -->
  <ellipse cx="160" cy="118" rx="18" ry="20" fill="white" stroke="#2d263c" stroke-width="5"/>
  <ellipse cx="208" cy="116" rx="17" ry="19" fill="white" stroke="#2d263c" stroke-width="5"/>

  <!-- 目の黒目 -->
  <circle cx="162" cy="120" r="11" fill="#2d263c"/>
  <circle cx="209" cy="118" r="10" fill="#2d263c"/>

  <!-- 目のハイライト -->
  <circle cx="158" cy="116" r="4" fill="white"/>
  <circle cx="205" cy="114" r="3.5" fill="white"/>

  <!-- 鼻 -->
  <ellipse cx="183" cy="140" rx="10" ry="7" fill="#B89450" stroke="#2d263c" stroke-width="4"/>
  <ellipse cx="180" cy="140" rx="4" ry="3" fill="#2d263c"/>
  <ellipse cx="187" cy="140" rx="4" ry="3" fill="#2d263c"/>

  <!-- 口(にやっとした感じ) -->
  <path d="M160 158 Q183 172 206 156" fill="none" stroke="#2d263c" stroke-width="6" stroke-linecap="round"/>

  <!-- ほっぺの赤み -->
  <ellipse cx="142" cy="148" rx="14" ry="10" fill="#F0A098" opacity="0.6"/>
  <ellipse cx="224" cy="146" rx="13" ry="9" fill="#F0A098" opacity="0.6"/>
</svg>