<svg xmlns="http://www.w3.org/2000/svg" viewBox="0 0 360 360">
  <path d="M258,215 Q292,198 282,158 Q267,178 252,192 Q244,205 258,225 Z" fill="#f2e9d5" stroke="#2d263c" stroke-width="7" stroke-linejoin="round"/>
  <path d="M275,240 Q308,235 300,198 Q285,212 268,220 Q262,232 275,248 Z" fill="#e6d9ba" stroke="#2d263c" stroke-width="7" stroke-linejoin="round"/>
  <path d="M100,255 L95,315 L120,315 L122,255 Z" fill="#a98d68" stroke="#2d263c" stroke-width="7" stroke-linejoin="round"/>
  <path d="M262,255 L267,315 L242,315 L240,255 Z" fill="#a98d68" stroke="#2d263c" stroke-width="7" stroke-linejoin="round"/>
  <rect x="90" y="307" width="35" height="18" rx="9" fill="#2d263c"/>
  <rect x="237" y="307" width="35" height="18" rx="9" fill="#2d263c"/>
  <ellipse cx="180" cy="225" rx="88" ry="70" fill="#cbb794" stroke="#2d263c" stroke-width="8"/>
  <ellipse cx="150" cy="217" rx="14" ry="24" fill="#8c714f" stroke="#2d263c" stroke-width="4" stroke-linejoin="round" transform="rotate(-12 150 217)"/>
  <ellipse cx="216" cy="222" rx="12" ry="20" fill="#8c714f" stroke="#2d263c" stroke-width="4" stroke-linejoin="round" transform="rotate(12 216 222)"/>
  <path d="M140,260 L135,322 Q135,332 145,332 L160,332 Q168,332 168,322 L165,258 Z" fill="#cbb794" stroke="#2d263c" stroke-width="7" stroke-linejoin="round"/>
  <path d="M220,260 L225,322 Q225,332 215,332 L200,332 Q192,332 192,322 L195,258 Z" fill="#cbb794" stroke="#2d263c" stroke-width="7" stroke-linejoin="round"/>
  <rect x="132" y="314" width="37" height="19" rx="9" fill="#2d263c"/>
  <rect x="191" y="314" width="37" height="19" rx="9" fill="#2d263c"/>
  <path d="M108,198 Q98,158 132,148 Q142,178 156,153 Q168,183 180,155 Q192,183 204,153 Q218,178 228,148 Q262,158 252,198 Q258,232 222,238 Q180,248 138,238 Q102,232 108,198 Z" fill="#f5efe0" stroke="#2d263c" stroke-width="7" stroke-linejoin="round"/>
  <polygon points="118,188 103,163 133,178" fill="#a8a8a8" stroke="#2d263c" stroke-width="6" stroke-linejoin="round"/>
  <polygon points="242,188 257,163 227,178" fill="#a8a8a8" stroke="#2d263c" stroke-width="6" stroke-linejoin="round"/>
  <circle cx="180" cy="120" r="60" fill="#cbb794" stroke="#2d263c" stroke-width="8"/>
  <polygon points="128,86 95,28 155,72" fill="#6b4f36" stroke="#2d263c" stroke-width="6" stroke-linejoin="round"/>
  <polygon points="232,86 265,28 205,72" fill="#6b4f36" stroke="#2d263c" stroke-width="6" stroke-linejoin="round"/>
  <path d="M145,78 Q156,42 168,76 Q180,38 192,76 Q204,42 215,78 Z" fill="#f5efe0" stroke="#2d263c" stroke-width="6" stroke-linejoin="round"/>
  <path d="M118,143 Q98,153 108,173 Q123,163 128,146 Z" fill="#f5efe0" stroke="#2d263c" stroke-width="6" stroke-linejoin="round"/>
  <path d="M242,143 Q262,153 252,173 Q237,163 232,146 Z" fill="#f5efe0" stroke="#2d263c" stroke-width="6" stroke-linejoin="round"/>
  <ellipse cx="180" cy="150" rx="34" ry="23" fill="#f5efe0" stroke="#2d263c" stroke-width="6"/>
  <circle cx="158" cy="112" r="9" fill="#2d263c"/>
  <circle cx="202" cy="112" r="9" fill="#2d263c"/>
  <circle cx="161" cy="109" r="3" fill="#fff"/>
  <circle cx="205" cy="109" r="3" fill="#fff"/>
  <ellipse cx="180" cy="150" rx="8" ry="6" fill="#2d263c"/>
  <path d="M165,170 Q180,180 195,170" fill="none" stroke="#2d263c" stroke-width="6" stroke-linecap="round"/>
  <polygon points="174,172 170,185 180,174" fill="#fff" stroke="#2d263c" stroke-width="4" stroke-linejoin="round"/>
  <polygon points="196,172 200,184 190,174" fill="#fff" stroke="#2d263c" stroke-width="4" stroke-linejoin="round"/>
</svg>
