<svg xmlns="http://www.w3.org/2000/svg" viewBox="0 0 360 360"><g stroke="#2d263c" stroke-width="7" stroke-linejoin="round" stroke-linecap="round"><path fill="#A1683F" d="M250 235 C 296 232 330 258 336 296 C 338 314 314 322 304 306 C 294 282 270 272 244 274 Z"/><path fill="#A1683F" d="M148 64 C 130 38 132 20 150 26 C 164 32 166 50 160 64 Z"/><path fill="#A1683F" d="M212 60 C 220 30 242 20 248 34 C 252 50 238 62 222 66 Z"/><path fill="#A1683F" d="M112 162 C 92 200 86 252 100 292 C 116 320 248 322 262 290 C 276 250 268 196 248 158 C 226 128 134 128 112 162 Z"/><path fill="#A1683F" d="M104 292 C 86 298 78 322 94 332 C 114 340 150 336 152 320 C 153 306 138 296 122 294 Z"/><path fill="#A1683F" d="M256 290 C 274 294 284 318 270 330 C 252 340 214 336 212 320 C 211 306 228 296 242 292 Z"/><path fill="#ffffff" stroke-width="5" d="M96 328 L92 338 L106 336 Z M116 331 L115 339 L127 335 Z M136 330 L138 338 L147 331 Z"/><path fill="#ffffff" stroke-width="5" d="M264 328 L268 338 L254 336 Z M244 331 L245 339 L233 335 Z M224 330 L222 338 L213 331 Z"/><path fill="#EBD3A1" d="M126 170 C 110 206 112 252 134 272 C 158 288 206 286 228 268 C 248 248 248 204 232 170 C 210 146 146 146 126 170 Z"/><path fill="#A1683F" d="M122 176 C 102 182 94 204 104 220 C 112 232 130 228 132 214 C 133 202 128 188 130 178 Z"/><path fill="#A1683F" d="M240 172 C 262 168 276 150 272 134 C 268 122 252 124 248 136 C 244 148 238 158 232 166 Z"/><path fill="#ffffff" stroke-width="5" d="M104 222 L100 234 L112 228 Z M118 224 L118 236 L128 227 Z"/><path fill="#ffffff" stroke-width="5" d="M262 130 L256 118 L268 122 Z"/><circle cx="181" cy="176" r="22" fill="#C4A6D4"/><path fill="#4a3f4d" d="M160 174 C 158 156 168 148 181 148 C 195 148 204 158 202 174 C 190 165 172 165 160 174 Z"/><circle cx="172" cy="184" r="3" fill="#2d263c" stroke="none"/><circle cx="190" cy="183" r="3" fill="#2d263c" stroke="none"/><path fill="none" stroke-width="4" d="M177 192 q 5 4 9 -1"/><path fill="#EBD3A1" d="M120 198 C 142 226 218 226 240 196 C 238 244 214 270 180 272 C 146 270 124 244 120 198 Z"/><ellipse cx="162" cy="216" rx="7" ry="5" fill="#C4A6D4" stroke-width="5"/><ellipse cx="200" cy="215" rx="7" ry="5" fill="#C4A6D4" stroke-width="5"/><path fill="#A1683F" d="M138 96 C 128 58 152 38 182 38 C 212 38 236 60 226 98 C 216 126 150 128 138 96 Z"/><path fill="#4a3f4d" d="M137 90 C 130 54 154 34 182 34 C 212 34 236 56 228 88 C 204 72 160 72 137 90 Z"/><circle cx="162" cy="94" r="4.5" fill="#2d263c" stroke="none"/><circle cx="202" cy="93" r="4.5" fill="#2d263c" stroke="none"/><path fill="none" d="M148 82 L168 89 M216 80 L196 88"/><path fill="none" d="M154 104 Q 182 120 210 100"/><path fill="#ffffff" stroke-width="4" d="M164 108 L169 118 L174 107 Z"/></g></svg>