<svg xmlns="http://www.w3.org/2000/svg" viewBox="0 0 360 360">
  <!-- back wings -->
  <path d="M170 145 Q75 55 32 155 Q48 245 148 205 Q132 172 170 145 Z" fill="#c9a873" stroke="#2d263c" stroke-width="7" stroke-linejoin="round"/>
  <path d="M190 145 Q285 55 328 155 Q312 245 212 205 Q228 172 190 145 Z" fill="#c9a873" stroke="#2d263c" stroke-width="7" stroke-linejoin="round"/>

  <!-- front wings -->
  <path d="M163 155 Q45 128 28 232 Q60 305 158 252 Q142 200 163 155 Z" fill="#ecd39c" stroke="#2d263c" stroke-width="7" stroke-linejoin="round"/>
  <path d="M197 155 Q315 128 332 232 Q300 305 202 252 Q218 200 197 155 Z" fill="#ecd39c" stroke="#2d263c" stroke-width="7" stroke-linejoin="round"/>

  <!-- wing patterns -->
  <ellipse cx="95" cy="215" rx="24" ry="15" fill="#8a6238" stroke="#2d263c" stroke-width="6" transform="rotate(-18 95 215)"/>
  <ellipse cx="265" cy="215" rx="24" ry="15" fill="#8a6238" stroke="#2d263c" stroke-width="6" transform="rotate(18 265 215)"/>

  <!-- abdomen -->
  <path d="M153 188 Q146 260 180 308 Q214 260 207 188 Q180 205 153 188 Z" fill="#2e2115" stroke="#2d263c" stroke-width="7" stroke-linejoin="round"/>
  <ellipse cx="180" cy="222" rx="26" ry="8" fill="#5a4028"/>
  <ellipse cx="180" cy="252" rx="21" ry="7" fill="#5a4028"/>

  <!-- thorax -->
  <ellipse cx="180" cy="160" rx="33" ry="38" fill="#2e2115" stroke="#2d263c" stroke-width="7"/>

  <!-- legs -->
  <path d="M158 188 Q128 205 118 238" fill="none" stroke="#231a12" stroke-width="6" stroke-linecap="round"/>
  <path d="M163 198 Q140 222 132 258" fill="none" stroke="#231a12" stroke-width="6" stroke-linecap="round"/>
  <path d="M170 205 Q152 238 150 272" fill="none" stroke="#231a12" stroke-width="6" stroke-linecap="round"/>
  <path d="M202 188 Q232 205 242 238" fill="none" stroke="#231a12" stroke-width="6" stroke-linecap="round"/>
  <path d="M197 198 Q220 222 228 258" fill="none" stroke="#231a12" stroke-width="6" stroke-linecap="round"/>
  <path d="M190 205 Q208 238 210 272" fill="none" stroke="#231a12" stroke-width="6" stroke-linecap="round"/>

  <!-- head -->
  <circle cx="180" cy="103" r="38" fill="#2e2115" stroke="#2d263c" stroke-width="7"/>

  <!-- antennae -->
  <path d="M168 78 Q128 30 92 46 Q118 62 138 82 Q150 92 168 78 Z" fill="#f2e8d5" stroke="#2d263c" stroke-width="7" stroke-linejoin="round"/>
  <path d="M192 78 Q232 30 268 46 Q242 62 222 82 Q210 92 192 78 Z" fill="#f2e8d5" stroke="#2d263c" stroke-width="7" stroke-linejoin="round"/>

  <!-- eyes -->
  <ellipse cx="163" cy="100" rx="17" ry="11" fill="#fff8ec" stroke="#2d263c" stroke-width="6" transform="rotate(-8 163 100)"/>
  <ellipse cx="199" cy="100" rx="17" ry="11" fill="#fff8ec" stroke="#2d263c" stroke-width="6" transform="rotate(8 199 100)"/>
  <path d="M151 104 Q163 116 176 105" fill="none" stroke="#2d263c" stroke-width="6" stroke-linecap="round"/>
  <path d="M186 105 Q199 116 211 104" fill="none" stroke="#2d263c" stroke-width="6" stroke-linecap="round"/>
</svg>
