<svg xmlns="http://www.w3.org/2000/svg" viewBox="0 0 360 360">
  <!-- しっぽ(後ろ) -->
  <path d="M230 260 Q270 240 285 210 Q300 180 275 165 Q260 158 248 170 Q265 175 260 195 Q252 215 235 235 Z" fill="#1a1a1a" stroke="#2d263c" stroke-width="7" stroke-linejoin="round" stroke-linecap="round"/>
  <path d="M245 232 Q268 215 265 195 Q262 178 250 172" fill="none" stroke="#cc3322" stroke-width="3" stroke-linecap="round"/>

  <!-- 体(胴体) -->
  <ellipse cx="185" cy="230" rx="72" ry="80" fill="#cc2200" stroke="#2d263c" stroke-width="8" stroke-linejoin="round"/>

  <!-- 腹の白い部分 -->
  <ellipse cx="183" cy="245" rx="44" ry="52" fill="#f0e8d0" stroke="#2d263c" stroke-width="5" stroke-linejoin="round"/>

  <!-- 腹の縦線模様 -->
  <path d="M183 198 Q181 220 183 268" fill="none" stroke="#ddd0b0" stroke-width="3" stroke-linecap="round"/>
  <path d="M165 205 Q162 228 165 265" fill="none" stroke="#ddd0b0" stroke-width="2.5" stroke-linecap="round"/>
  <path d="M201 205 Q204 228 200 265" fill="none" stroke="#ddd0b0" stroke-width="2.5" stroke-linecap="round"/>

  <!-- 炎のベルト(腰巻き炎) -->
  <path d="M118 230 Q122 215 132 208 Q128 220 135 218 Q133 208 142 202 Q140 214 148 213 Q147 202 157 198 Q155 210 163 210 Q162 200 172 196" fill="#ff6600" stroke="#cc3300" stroke-width="3" stroke-linejoin="round" stroke-linecap="round"/>
  <path d="M118 230 Q115 242 120 250 Q240 258 248 245 Q252 237 248 228" fill="#ff4400" stroke="#cc2200" stroke-width="3" stroke-linejoin="round"/>
  <path d="M172 196 Q180 193 190 193 Q200 194 208 196 Q217 199 225 204 Q234 209 242 218 Q247 226 248 228" fill="#ff6600" stroke="#cc3300" stroke-width="3" stroke-linejoin="round" stroke-linecap="round"/>
  <!-- 炎のぎざぎざ上部 -->
  <path d="M125 228 Q130 210 138 205 Q135 215 143 212 Q141 203 150 199 Q148 211 156 209 Q155 199 164 196 Q162 207 170 206 Q169 196 178 194 Q177 204 186 203 Q186 194 195 194 Q194 204 203 204 Q204 195 212 198 Q210 207 218 207 Q218 198 226 203 Q223 212 230 213 Q232 204 238 210 Q234 218 240 220 Q244 214 247 220" fill="#ff8800" stroke="none"/>

  <!-- 左腕 -->
  <path d="M118 195 Q95 188 78 200 Q62 215 68 238 Q74 255 92 258 Q106 260 118 248 Q128 236 125 218 Z" fill="#1a1a1a" stroke="#2d263c" stroke-width="7" stroke-linejoin="round"/>
  <!-- 左腕の縞 -->
  <path d="M83 210 Q88 230 86 248" fill="none" stroke="#cc2200" stroke-width="3.5" stroke-linecap="round"/>
  <path d="M95 205 Q99 225 97 250" fill="none" stroke="#cc2200" stroke-width="3" stroke-linecap="round"/>
  <!-- 左手の爪 -->
  <path d="M68 240 Q58 248 55 258 Q62 252 68 260 Q70 250 76 255 Q72 244 80 248 Q74 237 68 240 Z" fill="#1a1a1a" stroke="#2d263c" stroke-width="5" stroke-linejoin="round"/>

  <!-- 右腕 -->
  <path d="M252 195 Q272 186 290 196 Q308 210 305 232 Q302 252 285 256 Q270 260 256 248 Q244 235 246 215 Z" fill="#1a1a1a" stroke="#2d263c" stroke-width="7" stroke-linejoin="round"/>
  <!-- 右腕の縞 -->
  <path d="M278 205 Q274 226 276 250" fill="none" stroke="#cc2200" stroke-width="3.5" stroke-linecap="round"/>
  <path d="M290 210 Q287 230 288 252" fill="none" stroke="#cc2200" stroke-width="3" stroke-linecap="round"/>
  <!-- 右手の爪 -->
  <path d="M305 234 Q315 244 318 254 Q310 248 306 256 Q304 246 297 252 Q300 242 292 247 Q297 235 305 234 Z" fill="#1a1a1a" stroke="#2d263c" stroke-width="5" stroke-linejoin="round"/>

  <!-- 左脚 -->
  <path d="M148 298 Q138 310 135 325 Q140 335 155 335 Q162 326 160 310 Z" fill="#1a1a1a" stroke="#2d263c" stroke-width="7" stroke-linejoin="round"/>
  <path d="M135 325 Q125 330 120 340 Q130 338 134 345 Q140 336 148 340 Q144 330 155 335" fill="#1a1a1a" stroke="#2d263c" stroke-width="6" stroke-linejoin="round"/>

  <!-- 右脚 -->
  <path d="M222 298 Q230 310 232 326 Q228 335 213 335 Q207 326 208 310 Z" fill="#1a1a1a" stroke="#2d263c" stroke-width="7" stroke-linejoin="round"/>
  <path d="M232 326 Q240 330 246 340 Q236 337 232 344 Q225 335 218 340 Q221 330 213 335" fill="#1a1a1a" stroke="#2d263c" stroke-width="6" stroke-linejoin="round"/>

  <!-- 脚の付け根(黒) -->
  <rect x="136" y="285" width="98" height="32" rx="14" fill="#1a1a1a" stroke="#2d263c" stroke-width="7"/>

  <!-- 首 -->
  <rect x="158" y="148" width="60" height="52" rx="15" fill="#1a1a1a" stroke="#2d263c" stroke-width="7"/>

  <!-- 頭 -->
  <ellipse cx="187" cy="128" rx="70" ry="65" fill="#1a1a1a" stroke="#2d263c" stroke-width="8"/>

  <!-- 左耳 -->
  <path d="M130 90 Q118 62 128 48 Q140 56 148 75 Z" fill="#1a1a1a" stroke="#2d263c" stroke-width="7" stroke-linejoin="round"/>
  <path d="M132 85 Q124 66 130 55 Q138 62 144 76 Z" fill="#cc2200"/>

  <!-- 右耳 -->
  <path d="M244 90 Q256 62 246 48 Q234 56 226 75 Z" fill="#1a1a1a" stroke="#2d263c" stroke-width="7" stroke-linejoin="round"/>
  <path d="M242 85 Q250 66 244 55 Q236 62 230 76 Z" fill="#cc2200"/>

  <!-- おでこの赤いマーク -->
  <path d="M178 88 Q187 78 196 88 Q190 96 187 92 Q184 96 178 88 Z" fill="#ff3300" stroke="none"/>

  <!-- 頬の赤い模様 -->
  <ellipse cx="143" cy="138" rx="18" ry="12" fill="#cc2200" stroke="none"/>
  <ellipse cx="231" cy="138" rx="18" ry="12" fill="#cc2200" stroke="none"/>

  <!-- 鼻 -->
  <ellipse cx="187" cy="130" rx="12" ry="8" fill="#2d1a0e" stroke="#2d263c" stroke-width="3"/>
  <ellipse cx="183" cy="129" rx="4" ry="3" fill="#4a2a1a"/>
  <ellipse cx="191" cy="129" rx="4" ry="3" fill="#4a2a1a"/>

  <!-- 左目(鋭い) -->
  <path d="M148 115 Q158 105 170 110 Q168 120 158 124 Q148 120 148 115 Z" fill="white" stroke="#2d263c" stroke-width="3"/>
  <ellipse cx="160" cy="116" rx="7" ry="8" fill="#cc6600"/>
  <ellipse cx="161" cy="116" rx="4" ry="5" fill="#1a1a1a"/>
  <ellipse cx="163" cy="114" rx="1.5" ry="1.5" fill="white"/>
  <!-- 目の眉(吊り目ライン) -->
  <path d="M146 110 Q158 103 172 107" fill="none" stroke="#2d263c" stroke-width="5" stroke-linecap="round"/>

  <!-- 右目(鋭い) -->
  <path d="M204 110 Q216 105 226 115 Q226 120 216 124 Q205 120 204 110 Z" fill="white" stroke="#2d263c" stroke-width="3"/>
  <ellipse cx="214" cy="116" rx="7" ry="8" fill="#cc6600"/>
  <ellipse cx="215" cy="116" rx="4" ry="5" fill="#1a1a1a"/>
  <ellipse cx="217" cy="114" rx="1.5" ry="1.5" fill="white"/>
  <!-- 目の眉 -->
  <path d="M202 107 Q216 103 228 110" fill="none" stroke="#2d263c" stroke-width="5" stroke-linecap="round"/>

  <!-- 口(歯がみ・ニヤリ) -->
  <path d="M162 148 Q175 158 187 160 Q200 158 212 148" fill="none" stroke="#2d263c" stroke-width="5" stroke-linecap="round"/>
  <!-- 牙 -->
  <path d="M170 152 L168 165 L176 152 Z" fill="white" stroke="#2d263c" stroke-width="3"/>
  <path d="M204 152 L206 165 L198 152 Z" fill="white" stroke="#2d263c" stroke-width="3"/>
</svg>