<svg xmlns="http://www.w3.org/2000/svg" viewBox="0 0 360 360">
  <!-- tail (behind body) -->
  <path d="M215 255 Q290 250 320 210 Q300 235 260 250 Q295 245 315 220 Q290 260 245 270 Q270 268 285 260 Q250 285 210 275 Z" fill="#3f6fb0" stroke="#2d263c" stroke-width="7" stroke-linejoin="round" stroke-linecap="round"/>

  <!-- back legs -->
  <path d="M140 265 Q130 300 120 325 Q118 335 135 335 Q150 335 152 325 Q158 300 160 268 Z" fill="#3f6fb0" stroke="#2d263c" stroke-width="7" stroke-linejoin="round" stroke-linecap="round"/>
  <path d="M215 268 Q220 300 226 325 Q228 335 245 335 Q260 335 258 325 Q252 298 240 262 Z" fill="#3f6fb0" stroke="#2d263c" stroke-width="7" stroke-linejoin="round" stroke-linecap="round"/>
  <path d="M118 325 Q126 320 138 320 Q150 320 154 328 Q140 336 122 333 Z" fill="#2d263c"/>
  <path d="M224 328 Q234 320 248 321 Q260 322 260 330 Q246 338 228 335 Z" fill="#2d263c"/>

  <!-- body -->
  <path d="M120 200 Q110 150 150 120 Q185 95 225 118 Q265 140 260 190 Q262 230 235 260 Q195 285 155 262 Q122 240 120 200 Z" fill="#5083c4" stroke="#2d263c" stroke-width="7" stroke-linejoin="round"/>

  <!-- red belly diamond patch -->
  <path d="M175 165 Q195 148 218 165 Q234 190 218 220 Q198 240 178 220 Q160 190 175 165 Z" fill="#c0392b" stroke="#2d263c" stroke-width="6" stroke-linejoin="round"/>
  <path d="M196 158 L196 232" stroke="#8e2419" stroke-width="4"/>
  <path d="M166 194 L228 194" stroke="#8e2419" stroke-width="4"/>

  <!-- arms -->
  <path d="M122 195 Q95 205 80 230 Q75 240 88 244 Q100 246 108 235 Q125 218 132 200 Z" fill="#5083c4" stroke="#2d263c" stroke-width="7" stroke-linejoin="round"/>
  <path d="M255 195 Q280 208 292 232 Q296 242 284 245 Q272 246 265 234 Q250 216 244 200 Z" fill="#5083c4" stroke="#2d263c" stroke-width="7" stroke-linejoin="round"/>
  <path d="M80 228 Q78 240 88 244 M92 226 Q90 240 100 243" stroke="#2d263c" stroke-width="4" fill="none" stroke-linecap="round"/>
  <path d="M292 230 Q296 242 284 245 M280 228 Q284 240 274 243" stroke="#2d263c" stroke-width="4" fill="none" stroke-linecap="round"/>

  <!-- head -->
  <path d="M132 118 Q120 80 155 55 Q190 32 222 58 Q252 82 240 118 Q235 140 200 148 Q160 148 132 118 Z" fill="#5083c4" stroke="#2d263c" stroke-width="7" stroke-linejoin="round"/>

  <!-- big shark-fin ear left -->
  <path d="M138 95 Q95 80 70 40 Q95 70 105 105 Q95 100 78 90 Q108 118 138 122 Z" fill="#3f6fb0" stroke="#2d263c" stroke-width="7" stroke-linejoin="round"/>
  <path d="M95 80 Q85 65 78 45" stroke="#c0392b" stroke-width="5" fill="none" stroke-linecap="round"/>

  <!-- big shark-fin ear right -->
  <path d="M228 95 Q272 80 296 40 Q272 70 260 105 Q272 100 288 90 Q258 118 228 122 Z" fill="#3f6fb0" stroke="#2d263c" stroke-width="7" stroke-linejoin="round"/>
  <path d="M270 80 Q280 65 288 45" stroke="#c0392b" stroke-width="5" fill="none" stroke-linecap="round"/>

  <!-- small head horns -->
  <path d="M158 62 Q152 42 145 28 Q160 44 168 60 Z" fill="#3f6fb0" stroke="#2d263c" stroke-width="5" stroke-linejoin="round"/>
  <path d="M205 60 Q212 40 220 26 Q206 42 198 58 Z" fill="#3f6fb0" stroke="#2d263c" stroke-width="5" stroke-linejoin="round"/>

  <!-- snout -->
  <path d="M150 118 Q182 138 214 118 Q206 132 182 136 Q158 132 150 118 Z" fill="#dfe9f5" stroke="#2d263c" stroke-width="6" stroke-linejoin="round"/>

  <!-- eyes -->
  <path d="M150 92 Q162 84 174 92 Q164 100 150 98 Z" fill="#f5d020" stroke="#2d263c" stroke-width="4" stroke-linejoin="round"/>
  <path d="M198 92 Q210 84 222 92 Q212 100 198 98 Z" fill="#f5d020" stroke="#2d263c" stroke-width="4" stroke-linejoin="round"/>
  <circle cx="163" cy="92" r="4" fill="#2d263c"/>
  <circle cx="209" cy="92" r="4" fill="#2d263c"/>

  <!-- nostrils -->
  <circle cx="172" cy="122" r="3" fill="#2d263c"/>
  <circle cx="192" cy="122" r="3" fill="#2d263c"/>
</svg>
