<svg xmlns="http://www.w3.org/2000/svg" viewBox="0 0 360 360">
  <path d="M253,248 L282,232 L274,266 Z" fill="#7f9bb0" stroke="#2d263c" stroke-width="7" stroke-linejoin="round"/>
  <ellipse cx="125" cy="290" rx="30" ry="25" fill="#7f9bb0" stroke="#2d263c" stroke-width="7"/>
  <ellipse cx="235" cy="290" rx="30" ry="25" fill="#7f9bb0" stroke="#2d263c" stroke-width="7"/>
  <ellipse cx="120" cy="316" rx="32" ry="17" fill="#7f9bb0" stroke="#2d263c" stroke-width="6"/>
  <path d="M104,310 L102,326 M120,313 L120,330 M136,310 L138,326" fill="none" stroke="#2d263c" stroke-width="6" stroke-linecap="round"/>
  <ellipse cx="240" cy="316" rx="32" ry="17" fill="#7f9bb0" stroke="#2d263c" stroke-width="6"/>
  <path d="M224,310 L222,326 M240,313 L240,330 M256,310 L258,326" fill="none" stroke="#2d263c" stroke-width="6" stroke-linecap="round"/>
  <ellipse cx="180" cy="195" rx="95" ry="90" fill="#7f9bb0" stroke="#2d263c" stroke-width="8"/>
  <ellipse cx="93" cy="192" rx="27" ry="37" fill="#7f9bb0" stroke="#2d263c" stroke-width="7"/>
  <ellipse cx="267" cy="192" rx="27" ry="37" fill="#7f9bb0" stroke="#2d263c" stroke-width="7"/>
  <path d="M78,222 L74,236 M93,227 L93,242 M108,222 L112,236" fill="none" stroke="#2d263c" stroke-width="6" stroke-linecap="round"/>
  <path d="M252,222 L248,236 M267,227 L267,242 M282,222 L286,236" fill="none" stroke="#2d263c" stroke-width="6" stroke-linecap="round"/>
  <ellipse cx="180" cy="232" rx="62" ry="48" fill="#f6ecd9" stroke="#2d263c" stroke-width="6"/>
  <ellipse cx="158" cy="238" rx="7" ry="5" fill="#e8dcc0"/>
  <ellipse cx="204" cy="242" rx="7" ry="5" fill="#e8dcc0"/>
  <circle cx="112" cy="162" r="9" fill="#6a8598" stroke="#2d263c" stroke-width="4"/>
  <circle cx="248" cy="162" r="9" fill="#6a8598" stroke="#2d263c" stroke-width="4"/>
  <path d="M125,190 Q180,170 235,190 Q180,228 125,190 Z" fill="#f6ecd9" stroke="#2d263c" stroke-width="7" stroke-linejoin="round"/>
  <path d="M140,196 Q180,208 220,196" fill="none" stroke="#2d263c" stroke-width="5" stroke-linecap="round"/>
  <circle cx="132" cy="135" r="34" fill="#e8934f" stroke="#2d263c" stroke-width="7"/>
  <circle cx="228" cy="135" r="34" fill="#e8934f" stroke="#2d263c" stroke-width="7"/>
  <circle cx="132" cy="122" r="11" fill="#241f30"/>
  <circle cx="228" cy="122" r="11" fill="#241f30"/>
  <circle cx="128" cy="117" r="4" fill="#ffffff"/>
  <circle cx="224" cy="117" r="4" fill="#ffffff"/>
</svg>
