<svg xmlns="http://www.w3.org/2000/svg" viewBox="0 0 360 360">
  <!-- 特徴1: 首から後ろへ流れる赤いベロ状スカーフ(忍者の帯のよう・後ろ) -->
  <path d="M212 168 Q286 194 266 252 Q250 300 274 328 Q252 338 234 320 Q220 292 234 254 Q246 214 200 180 Z" fill="#cc3333" stroke="#2d263c" stroke-width="7" stroke-linejoin="round"/>
  <path d="M232 214 Q260 242 248 278 Q240 298 248 312 Q232 298 228 270 Q224 240 232 214 Z" fill="#a52626" stroke="#2d263c" stroke-width="5" stroke-linejoin="round"/>

  <!-- 特徴2: 太い後ろ足(左右・カエル体型) -->
  <ellipse cx="148" cy="296" rx="32" ry="30" fill="#204a72" stroke="#2d263c" stroke-width="7" stroke-linejoin="round"/>
  <rect x="128" y="314" width="30" height="26" rx="10" fill="#204a72" stroke="#2d263c" stroke-width="6" stroke-linejoin="round"/>
  <path d="M116 328 Q108 338 118 340 Q128 342 130 334 Q136 342 146 340 Q152 338 148 328 Q158 336 162 328 Q160 318 148 316 Q130 314 118 320 Z" fill="#3d6d95" stroke="#2d263c" stroke-width="5" stroke-linejoin="round"/>

  <ellipse cx="212" cy="296" rx="32" ry="30" fill="#204a72" stroke="#2d263c" stroke-width="7" stroke-linejoin="round"/>
  <rect x="202" y="314" width="30" height="26" rx="10" fill="#204a72" stroke="#2d263c" stroke-width="6" stroke-linejoin="round"/>
  <path d="M244 328 Q252 338 242 340 Q232 342 230 334 Q224 342 214 340 Q208 338 212 328 Q202 336 198 328 Q200 318 212 316 Q230 314 244 320 Z" fill="#3d6d95" stroke="#2d263c" stroke-width="5" stroke-linejoin="round"/>

  <!-- 特徴3: 胴体(青黒い体色)とクリーム色のお腹 -->
  <ellipse cx="180" cy="238" rx="86" ry="70" fill="#204a72" stroke="#2d263c" stroke-width="8" stroke-linejoin="round"/>
  <ellipse cx="180" cy="252" rx="50" ry="48" fill="#f2ecd8" stroke="#2d263c" stroke-width="6" stroke-linejoin="round"/>

  <!-- 特徴4: 水かき付きの腕・手(左右) -->
  <ellipse cx="98" cy="222" rx="28" ry="44" fill="#204a72" stroke="#2d263c" stroke-width="7" stroke-linejoin="round" transform="rotate(-15 98 222)"/>
  <path d="M58 250 Q46 268 58 284 Q68 292 76 282 Q82 294 92 290 Q98 282 90 270 Q100 264 94 252 Q84 242 72 248 Q64 244 58 250 Z" fill="#3d6d95" stroke="#2d263c" stroke-width="5" stroke-linejoin="round"/>

  <ellipse cx="262" cy="222" rx="28" ry="44" fill="#204a72" stroke="#2d263c" stroke-width="7" stroke-linejoin="round" transform="rotate(15 262 222)"/>
  <path d="M302 250 Q314 268 302 284 Q292 292 284 282 Q278 294 268 290 Q262 282 270 270 Q260 264 266 252 Q276 242 288 248 Q296 244 302 250 Z" fill="#3d6d95" stroke="#2d263c" stroke-width="5" stroke-linejoin="round"/>

  <!-- 首の赤いスカーフの巻き -->
  <path d="M136 160 Q180 184 224 160 Q218 192 180 196 Q142 192 136 160 Z" fill="#cc3333" stroke="#2d263c" stroke-width="6" stroke-linejoin="round"/>

  <!-- 特徴5: 大きな頭・忍者のヒレ耳・赤い目 -->
  <ellipse cx="180" cy="118" rx="64" ry="56" fill="#2c567f" stroke="#2d263c" stroke-width="8" stroke-linejoin="round"/>
  <path d="M122 132 Q180 178 238 132 Q222 168 180 172 Q138 168 122 132 Z" fill="#f2ecd8" stroke="#2d263c" stroke-width="6" stroke-linejoin="round"/>

  <path d="M140 78 Q100 40 108 26 Q150 45 152 92 Z" fill="#2c567f" stroke="#2d263c" stroke-width="7" stroke-linejoin="round"/>
  <path d="M220 78 Q260 40 252 26 Q210 45 208 92 Z" fill="#2c567f" stroke="#2d263c" stroke-width="7" stroke-linejoin="round"/>

  <ellipse cx="150" cy="112" rx="19" ry="21" fill="white" stroke="#2d263c" stroke-width="5"/>
  <ellipse cx="210" cy="112" rx="19" ry="21" fill="white" stroke="#2d263c" stroke-width="5"/>
  <ellipse cx="150" cy="115" rx="12" ry="14" fill="#e2302f" stroke="#2d263c" stroke-width="3"/>
  <ellipse cx="210" cy="115" rx="12" ry="14" fill="#e2302f" stroke="#2d263c" stroke-width="3"/>
  <ellipse cx="150" cy="118" rx="5" ry="6" fill="#1a1a1a"/>
  <ellipse cx="210" cy="118" rx="5" ry="6" fill="#1a1a1a"/>

  <path d="M148 156 Q180 166 212 156" fill="none" stroke="#2d263c" stroke-width="5" stroke-linecap="round"/>
</svg>
