<svg xmlns="http://www.w3.org/2000/svg" viewBox="0 0 360 360">
  <!-- 影 -->
  <ellipse cx="180" cy="305" rx="100" ry="16" fill="#00000022"/>

  <!-- 尾びれ -->
  <path d="M285 180 Q310 155 330 160 Q318 178 330 198 Q310 200 285 182 Z" fill="#806040" stroke="#2d263c" stroke-width="6" stroke-linejoin="round" stroke-linecap="round"/>
  <path d="M285 180 Q312 170 335 155 Q322 175 335 200 Q310 195 285 182 Z" fill="#604830" stroke="#2d263c" stroke-width="5" stroke-linejoin="round" stroke-linecap="round"/>

  <!-- 体 本体 -->
  <ellipse cx="175" cy="180" rx="115" ry="75" fill="#806040" stroke="#2d263c" stroke-width="8" stroke-linejoin="round" stroke-linecap="round"/>

  <!-- お腹 (薄い色) -->
  <ellipse cx="175" cy="195" rx="75" ry="45" fill="#B09060" stroke="#2d263c" stroke-width="5" stroke-linejoin="round" stroke-linecap="round"/>

  <!-- 岩板テクスチャ (体側面の板) -->
  <rect x="75" y="140" width="30" height="22" rx="4" fill="#604830" stroke="#2d263c" stroke-width="4" stroke-linejoin="round"/>
  <rect x="108" y="130" width="30" height="22" rx="4" fill="#604830" stroke="#2d263c" stroke-width="4" stroke-linejoin="round"/>
  <rect x="142" y="125" width="30" height="22" rx="4" fill="#604830" stroke="#2d263c" stroke-width="4" stroke-linejoin="round"/>
  <rect x="176" y="122" width="30" height="22" rx="4" fill="#604830" stroke="#2d263c" stroke-width="4" stroke-linejoin="round"/>
  <rect x="210" y="125" width="30" height="22" rx="4" fill="#604830" stroke="#2d263c" stroke-width="4" stroke-linejoin="round"/>
  <rect x="244" y="132" width="28" height="22" rx="4" fill="#604830" stroke="#2d263c" stroke-width="4" stroke-linejoin="round"/>
  <rect x="80" y="165" width="28" height="20" rx="4" fill="#604830" stroke="#2d263c" stroke-width="4" stroke-linejoin="round"/>
  <rect x="250" y="158" width="26" height="20" rx="4" fill="#604830" stroke="#2d263c" stroke-width="4" stroke-linejoin="round"/>

  <!-- 赤い斑点 -->
  <circle cx="120" cy="175" r="9" fill="#A04030" stroke="#2d263c" stroke-width="3"/>
  <circle cx="155" cy="185" r="7" fill="#A04030" stroke="#2d263c" stroke-width="3"/>
  <circle cx="195" cy="180" r="8" fill="#A04030" stroke="#2d263c" stroke-width="3"/>
  <circle cx="230" cy="172" r="6" fill="#A04030" stroke="#2d263c" stroke-width="3"/>

  <!-- 腹びれ (4本の小さなひれ) -->
  <path d="M112 225 Q100 245 95 268 Q110 265 120 245 Q122 235 118 228 Z" fill="#806040" stroke="#2d263c" stroke-width="5" stroke-linejoin="round" stroke-linecap="round"/>
  <path d="M148 235 Q140 256 138 278 Q152 274 158 253 Q160 242 155 236 Z" fill="#806040" stroke="#2d263c" stroke-width="5" stroke-linejoin="round" stroke-linecap="round"/>
  <path d="M195 235 Q200 256 202 278 Q215 273 213 252 Q212 242 205 236 Z" fill="#806040" stroke="#2d263c" stroke-width="5" stroke-linejoin="round" stroke-linecap="round"/>
  <path d="M230 228 Q238 248 242 268 Q255 262 250 242 Q248 232 238 226 Z" fill="#806040" stroke="#2d263c" stroke-width="5" stroke-linejoin="round" stroke-linecap="round"/>

  <!-- 胸びれ (大きなひれ・上側) -->
  <path d="M95 165 Q65 130 48 110 Q52 140 68 158 Q80 170 100 172 Z" fill="#806040" stroke="#2d263c" stroke-width="6" stroke-linejoin="round" stroke-linecap="round"/>
  <path d="M95 165 Q60 148 42 130 Q52 155 70 168 Q82 175 100 172 Z" fill="#604830" stroke="#2d263c" stroke-width="4" stroke-linejoin="round" stroke-linecap="round"/>

  <!-- 頭部 -->
  <ellipse cx="70" cy="172" rx="42" ry="32" fill="#806040" stroke="#2d263c" stroke-width="8" stroke-linejoin="round" stroke-linecap="round"/>

  <!-- 口 (大きな口) -->
  <path d="M30 172 Q28 185 35 195 Q50 205 72 202 Q88 198 95 188 Q100 178 98 170" fill="#3a2010" stroke="#2d263c" stroke-width="5" stroke-linejoin="round" stroke-linecap="round"/>
  <!-- 歯 -->
  <path d="M35 185 L40 195 L48 183" fill="none" stroke="#B09060" stroke-width="3" stroke-linecap="round"/>

  <!-- 目 (小さく赤い) -->
  <ellipse cx="68" cy="158" rx="9" ry="8" fill="white" stroke="#2d263c" stroke-width="4"/>
  <ellipse cx="70" cy="159" rx="6" ry="5" fill="#A04030"/>
  <ellipse cx="71" cy="158" rx="3" ry="3" fill="#600020"/>
  <circle cx="73" cy="156" r="2" fill="white"/>

  <!-- 頭の岩板 -->
  <path d="M48 158 Q58 148 72 148 Q82 148 90 155" fill="none" stroke="#604830" stroke-width="5" stroke-linecap="round"/>
</svg>
