<svg xmlns="http://www.w3.org/2000/svg" viewBox="0 0 360 360">
  <!-- tail (behind body) -->
  <path d="M220 268 Q278 278 300 316 Q309 333 289 337 Q268 313 243 292 Q223 278 218 268 Z" fill="#5a9e3d" stroke="#2d263c" stroke-width="7" stroke-linejoin="round" stroke-linecap="round"/>
  <path d="M289 318 Q311 312 317 333 Q306 345 287 337 Z" fill="#e2483a" stroke="#2d263c" stroke-width="6" stroke-linejoin="round"/>

  <!-- feet -->
  <path d="M136 288 Q124 314 146 320 Q167 317 161 293 Z" fill="#5a9e3d" stroke="#2d263c" stroke-width="6" stroke-linejoin="round"/>
  <path d="M204 293 Q198 317 219 320 Q239 314 228 288 Z" fill="#5a9e3d" stroke="#2d263c" stroke-width="6" stroke-linejoin="round"/>

  <!-- body -->
  <path d="M118 190 Q98 258 149 300 Q180 322 211 300 Q261 259 241 190 Q231 138 180 128 Q129 138 118 190 Z"
        fill="#7ec850" stroke="#2d263c" stroke-width="8" stroke-linejoin="round"/>

  <!-- belly patch -->
  <path d="M150 218 Q180 258 211 218 Q206 260 180 277 Q154 260 150 218 Z" fill="#fdf1d8" stroke="#2d263c" stroke-width="5" stroke-linejoin="round"/>

  <!-- arms -->
  <path d="M115 214 Q88 219 86 240 Q89 256 111 248 Q121 234 115 214 Z" fill="#7ec850" stroke="#2d263c" stroke-width="6" stroke-linejoin="round"/>
  <path d="M245 214 Q272 219 274 240 Q271 256 249 248 Q239 234 245 214 Z" fill="#7ec850" stroke="#2d263c" stroke-width="6" stroke-linejoin="round"/>

  <!-- head -->
  <path d="M114 130 Q98 78 150 54 Q180 39 210 54 Q262 78 246 130 Q241 166 180 171 Q119 166 114 130 Z"
        fill="#8ed160" stroke="#2d263c" stroke-width="8" stroke-linejoin="round"/>

  <!-- head fin -->
  <path d="M197 55 Q212 18 242 24 Q227 50 210 69 Q201 66 197 55 Z" fill="#e2483a" stroke="#2d263c" stroke-width="6" stroke-linejoin="round"/>

  <!-- tusks -->
  <path d="M141 146 Q113 131 117 99 Q130 121 149 140 Z" fill="#e2483a" stroke="#2d263c" stroke-width="6" stroke-linejoin="round"/>
  <path d="M219 146 Q247 131 243 99 Q230 121 211 140 Z" fill="#e2483a" stroke="#2d263c" stroke-width="6" stroke-linejoin="round"/>

  <!-- eyes -->
  <circle cx="151" cy="110" r="15" fill="#fff8ea" stroke="#2d263c" stroke-width="5"/>
  <circle cx="209" cy="110" r="15" fill="#fff8ea" stroke="#2d263c" stroke-width="5"/>
  <circle cx="153" cy="112" r="6.5" fill="#2d263c"/>
  <circle cx="207" cy="112" r="6.5" fill="#2d263c"/>

  <!-- mouth -->
  <path d="M164 149 Q180 157 196 149" fill="none" stroke="#2d263c" stroke-width="4" stroke-linecap="round"/>
</svg>
