<svg xmlns="http://www.w3.org/2000/svg" viewBox="0 0 360 360">
  <!-- 9本のしっぽ(後ろ・一番奥から) -->
  <!-- しっぽ1(一番左) -->
  <path d="M95 280 Q50 260 30 200 Q20 165 45 150 Q65 140 80 165 Q90 185 100 220 Z" fill="#e8c87a" stroke="#2d263c" stroke-width="6" stroke-linejoin="round" stroke-linecap="round"/>
  <!-- しっぽ先ふさ左 -->
  <ellipse cx="37" cy="173" rx="18" ry="12" fill="#f5dba0" stroke="#2d263c" stroke-width="5" stroke-linejoin="round"/>

  <!-- しっぽ2 -->
  <path d="M108 275 Q75 245 65 185 Q60 150 82 140 Q102 130 112 155 Q120 175 118 215 Z" fill="#dbb95f" stroke="#2d263c" stroke-width="6" stroke-linejoin="round" stroke-linecap="round"/>
  <ellipse cx="73" cy="143" rx="16" ry="11" fill="#f5dba0" stroke="#2d263c" stroke-width="5"/>

  <!-- しっぽ3 -->
  <path d="M122 272 Q100 238 98 178 Q97 143 118 135 Q138 128 145 153 Q150 173 140 212 Z" fill="#e8c87a" stroke="#2d263c" stroke-width="6" stroke-linejoin="round" stroke-linecap="round"/>
  <ellipse cx="118" cy="135" rx="15" ry="10" fill="#f5dba0" stroke="#2d263c" stroke-width="5"/>

  <!-- しっぽ中央(真ん中=一番太い) -->
  <path d="M155 270 Q140 240 142 185 Q143 148 162 138 Q182 130 190 158 Q195 178 182 218 Z" fill="#dbb95f" stroke="#2d263c" stroke-width="7" stroke-linejoin="round" stroke-linecap="round"/>
  <ellipse cx="173" cy="136" rx="19" ry="12" fill="#f5e8b5" stroke="#2d263c" stroke-width="5"/>

  <!-- しっぽ5 -->
  <path d="M178 272 Q195 238 200 178 Q202 143 220 135 Q238 130 238 155 Q237 175 225 212 Z" fill="#e8c87a" stroke="#2d263c" stroke-width="6" stroke-linejoin="round" stroke-linecap="round"/>
  <ellipse cx="231" cy="135" rx="15" ry="10" fill="#f5dba0" stroke="#2d263c" stroke-width="5"/>

  <!-- しっぽ6 -->
  <path d="M200 273 Q228 240 238 180 Q245 145 262 140 Q278 136 275 162 Q272 182 255 218 Z" fill="#dbb95f" stroke="#2d263c" stroke-width="6" stroke-linejoin="round" stroke-linecap="round"/>
  <ellipse cx="274" cy="148" rx="16" ry="11" fill="#f5dba0" stroke="#2d263c" stroke-width="5"/>

  <!-- しっぽ7 -->
  <path d="M215 278 Q252 252 270 195 Q280 162 300 157 Q318 154 312 178 Q307 198 282 228 Z" fill="#e8c87a" stroke="#2d263c" stroke-width="6" stroke-linejoin="round" stroke-linecap="round"/>
  <ellipse cx="309" cy="163" rx="17" ry="11" fill="#f5dba0" stroke="#2d263c" stroke-width="5"/>

  <!-- しっぽ8 -->
  <path d="M225 283 Q270 262 296 212 Q312 182 330 182 Q345 183 335 205 Q325 222 295 245 Z" fill="#dbb95f" stroke="#2d263c" stroke-width="6" stroke-linejoin="round" stroke-linecap="round"/>
  <ellipse cx="336" cy="189" rx="16" ry="10" fill="#f5dba0" stroke="#2d263c" stroke-width="5"/>

  <!-- 胴体 -->
  <ellipse cx="180" cy="270" rx="68" ry="45" fill="#f5dba0" stroke="#2d263c" stroke-width="7" stroke-linejoin="round"/>

  <!-- 前足(左) -->
  <path d="M138 295 Q128 310 122 325 Q120 332 130 333 Q140 334 145 322 Q150 310 148 296 Z" fill="#f0d090" stroke="#2d263c" stroke-width="6" stroke-linejoin="round" stroke-linecap="round"/>
  <!-- 前足(右) -->
  <path d="M218 295 Q228 310 232 325 Q234 332 224 333 Q214 334 210 322 Q206 310 208 296 Z" fill="#f0d090" stroke="#2d263c" stroke-width="6" stroke-linejoin="round" stroke-linecap="round"/>

  <!-- 首・頭 -->
  <ellipse cx="180" cy="215" rx="38" ry="35" fill="#f5dba0" stroke="#2d263c" stroke-width="7" stroke-linejoin="round"/>

  <!-- 胸のふわもこ毛 -->
  <path d="M148 240 Q152 255 168 258 Q180 260 192 258 Q208 255 212 242 Q200 250 180 252 Q160 250 148 240 Z" fill="#fdf3d0" stroke="#2d263c" stroke-width="4" stroke-linejoin="round" stroke-linecap="round"/>

  <!-- 左耳 -->
  <path d="M152 195 Q145 165 155 145 Q160 133 168 145 Q172 158 168 188 Z" fill="#f5dba0" stroke="#2d263c" stroke-width="6" stroke-linejoin="round" stroke-linecap="round"/>
  <!-- 左耳内側 -->
  <path d="M155 192 Q150 170 158 153 Q162 145 166 155 Q168 168 164 188 Z" fill="#f0b8a0" stroke="none"/>

  <!-- 右耳 -->
  <path d="M208 195 Q215 165 205 145 Q200 133 192 145 Q188 158 192 188 Z" fill="#f5dba0" stroke="#2d263c" stroke-width="6" stroke-linejoin="round" stroke-linecap="round"/>
  <!-- 右耳内側 -->
  <path d="M205 192 Q210 170 202 153 Q198 145 194 155 Q192 168 196 188 Z" fill="#f0b8a0" stroke="none"/>

  <!-- ほほの毛(左) -->
  <path d="M147 222 Q135 215 130 225 Q132 234 145 232 Z" fill="#fdf3d0" stroke="#2d263c" stroke-width="4" stroke-linejoin="round" stroke-linecap="round"/>
  <!-- ほほの毛(右) -->
  <path d="M213 222 Q225 215 230 225 Q228 234 215 232 Z" fill="#fdf3d0" stroke="#2d263c" stroke-width="4" stroke-linejoin="round" stroke-linecap="round"/>

  <!-- 目(左) - 切れ長 -->
  <path d="M163 210 Q168 205 175 207 Q172 213 165 213 Z" fill="#c0392b" stroke="#2d263c" stroke-width="3" stroke-linejoin="round" stroke-linecap="round"/>
  <!-- 目(右) - 切れ長 -->
  <path d="M197 210 Q192 205 185 207 Q188 213 195 213 Z" fill="#c0392b" stroke="#2d263c" stroke-width="3" stroke-linejoin="round" stroke-linecap="round"/>

  <!-- 瞳のハイライト(左) -->
  <circle cx="166" cy="208" r="2" fill="white"/>
  <!-- 瞳のハイライト(右) -->
  <circle cx="194" cy="208" r="2" fill="white"/>

  <!-- 鼻 -->
  <ellipse cx="180" cy="220" rx="4" ry="3" fill="#c0392b" stroke="#2d263c" stroke-width="2"/>

  <!-- 口(ちょっとへにゃっと) -->
  <path d="M174 226 Q180 230 186 226" fill="none" stroke="#2d263c" stroke-width="4" stroke-linecap="round"/>

  <!-- おでこのひし形マーク -->
  <path d="M180 196 L184 201 L180 206 L176 201 Z" fill="#d4a017" stroke="#2d263c" stroke-width="2.5" stroke-linejoin="round"/>
</svg>