<svg xmlns="http://www.w3.org/2000/svg" viewBox="0 0 360 360">
  <circle cx="305" cy="190" r="30" fill="#8FCB3E" stroke="#2d263c" stroke-width="7" stroke-linejoin="round" stroke-linecap="round"/>
  <ellipse cx="300" cy="182" rx="12" ry="17" fill="#6EA82C" opacity="0.5"/>
  <circle cx="272" cy="195" r="55" fill="#8FCB3E" stroke="#2d263c" stroke-width="7" stroke-linejoin="round" stroke-linecap="round"/>
  <circle cx="200" cy="198" r="72" fill="#8FCB3E" stroke="#2d263c" stroke-width="7" stroke-linejoin="round" stroke-linecap="round"/>
  <path d="M60,255 Q120,300 210,280 Q270,265 300,230 Q260,248 180,252 Q110,258 60,255 Z" fill="#C7E88A"/>
  <circle cx="110" cy="205" r="85" fill="#8FCB3E" stroke="#2d263c" stroke-width="8" stroke-linejoin="round" stroke-linecap="round"/>
  <ellipse cx="95" cy="278" rx="16" ry="10" fill="#F2E4A8" stroke="#2d263c" stroke-width="6" stroke-linejoin="round"/>
  <ellipse cx="160" cy="282" rx="16" ry="10" fill="#F2E4A8" stroke="#2d263c" stroke-width="6" stroke-linejoin="round"/>
  <ellipse cx="228" cy="262" rx="15" ry="9" fill="#F2E4A8" stroke="#2d263c" stroke-width="6" stroke-linejoin="round"/>
  <ellipse cx="285" cy="232" rx="13" ry="8" fill="#F2E4A8" stroke="#2d263c" stroke-width="6" stroke-linejoin="round"/>
  <line x1="110" y1="140" x2="110" y2="103" stroke="#2d263c" stroke-width="13" stroke-linecap="round"/>
  <line x1="110" y1="138" x2="110" y2="106" stroke="#8FCB3E" stroke-width="7" stroke-linecap="round"/>
  <circle cx="110" cy="98" r="14" fill="#E0483D" stroke="#2d263c" stroke-width="6"/>
  <ellipse cx="78" cy="168" rx="24" ry="13" fill="#F2E4A8" transform="rotate(-20 78 168)"/>
  <ellipse cx="148" cy="168" rx="24" ry="13" fill="#F2E4A8" transform="rotate(20 148 168)"/>
  <ellipse cx="62" cy="228" rx="14" ry="9" fill="#F7B3C2" opacity="0.7"/>
  <ellipse cx="165" cy="228" rx="14" ry="9" fill="#F7B3C2" opacity="0.7"/>
  <circle cx="82" cy="215" r="23" fill="#2d263c"/>
  <circle cx="142" cy="215" r="23" fill="#2d263c"/>
  <circle cx="76" cy="207" r="8" fill="#FFFFFF"/>
  <circle cx="136" cy="207" r="8" fill="#FFFFFF"/>
  <path d="M95,242 Q110,252 125,242" fill="none" stroke="#2d263c" stroke-width="6" stroke-linecap="round"/>
</svg>
