<svg xmlns="http://www.w3.org/2000/svg" viewBox="0 0 360 360">
  <!-- 翼(左・後ろ) -->
  <path d="M90 170 Q30 130 20 90 Q40 110 60 115 Q25 80 35 50 Q60 85 75 100 Q55 65 70 38 Q100 75 105 105 Q100 140 110 160 Z" fill="#3ab8b8" stroke="#2d263c" stroke-width="7" stroke-linejoin="round" stroke-linecap="round"/>
  <!-- 翼(右・後ろ) -->
  <path d="M270 170 Q330 130 340 90 Q320 110 300 115 Q335 80 325 50 Q300 85 295 100 Q315 65 300 38 Q270 75 265 105 Q270 140 260 160 Z" fill="#3ab8b8" stroke="#2d263c" stroke-width="7" stroke-linejoin="round" stroke-linecap="round"/>
  <!-- しっぽ羽 -->
  <path d="M155 295 Q160 330 145 345 Q170 320 180 340 Q185 315 200 338 Q195 318 215 330 Q200 305 205 295 Z" fill="#3ab8b8" stroke="#2d263c" stroke-width="6" stroke-linejoin="round" stroke-linecap="round"/>
  <!-- 体(胴体メイン) -->
  <ellipse cx="180" cy="220" rx="80" ry="90" fill="#f5f0e0" stroke="#2d263c" stroke-width="8" stroke-linejoin="round"/>
  <!-- 背中の色(ターコイズ) -->
  <path d="M115 200 Q110 165 125 140 Q145 115 180 108 Q215 115 235 140 Q250 165 245 200 Q225 185 180 183 Q135 185 115 200 Z" fill="#3ab8b8" stroke="none"/>
  <!-- 腹・喉袋(黄色) -->
  <ellipse cx="180" cy="240" rx="52" ry="58" fill="#f5d020" stroke="#2d263c" stroke-width="6" stroke-linejoin="round"/>
  <!-- 喉袋の電気もよう -->
  <path d="M168 218 L175 232 L164 232 L175 255" fill="none" stroke="#ffffff" stroke-width="3.5" stroke-linecap="round" stroke-linejoin="round"/>
  <!-- 首 -->
  <path d="M155 145 Q155 120 165 112 Q180 105 195 112 Q205 120 205 145 Q195 138 180 137 Q165 138 155 145 Z" fill="#f5f0e0" stroke="#2d263c" stroke-width="7" stroke-linejoin="round"/>
  <!-- 頭 -->
  <ellipse cx="180" cy="100" rx="52" ry="48" fill="#3ab8b8" stroke="#2d263c" stroke-width="8" stroke-linejoin="round"/>
  <!-- 頭の白い顔部分 -->
  <ellipse cx="183" cy="105" rx="33" ry="30" fill="#f5f0e0" stroke="none"/>
  <!-- 目(左) -->
  <ellipse cx="163" cy="95" rx="10" ry="11" fill="#f0c820" stroke="#2d263c" stroke-width="5"/>
  <circle cx="163" cy="95" r="5" fill="#1a1a2e"/>
  <circle cx="165" cy="93" r="2" fill="white"/>
  <!-- 目(右) - ちょっとズレてて愛嬌あり -->
  <ellipse cx="196" cy="97" rx="9" ry="10" fill="#f0c820" stroke="#2d263c" stroke-width="5"/>
  <circle cx="196" cy="97" r="4.5" fill="#1a1a2e"/>
  <circle cx="198" cy="95" r="2" fill="white"/>
  <!-- くちばし(上) -->
  <path d="M168 118 Q180 115 193 118 Q195 130 190 138 Q180 142 170 138 Q165 130 168 118 Z" fill="#e05020" stroke="#2d263c" stroke-width="6" stroke-linejoin="round"/>
  <!-- くちばし(下・少し開いてる) -->
  <path d="M170 140 Q180 143 190 140 Q187 150 180 155 Q173 150 170 140 Z" fill="#c04010" stroke="#2d263c" stroke-width="5" stroke-linejoin="round"/>
  <!-- くちばしの先端の模様 -->
  <path d="M180 138 L180 155" stroke="#2d263c" stroke-width="3" stroke-linecap="round"/>
  <!-- 頭のトサカ -->
  <path d="M165 60 Q160 42 168 30 Q175 45 172 58" fill="#3ab8b8" stroke="#2d263c" stroke-width="6" stroke-linejoin="round" stroke-linecap="round"/>
  <path d="M178 55 Q176 35 185 25 Q190 40 186 54" fill="#3ab8b8" stroke="#2d263c" stroke-width="6" stroke-linejoin="round" stroke-linecap="round"/>
  <!-- 脚(左) -->
  <path d="M158 300 Q150 310 148 328" stroke="#e07030" stroke-width="9" stroke-linecap="round" fill="none"/>
  <!-- 足(左) -->
  <path d="M148 328 Q138 335 130 338 M148 328 Q147 336 145 343 M148 328 Q156 333 160 340" stroke="#e07030" stroke-width="7" stroke-linecap="round" fill="none"/>
  <!-- 脚(右) -->
  <path d="M202 300 Q212 312 215 328" stroke="#e07030" stroke-width="9" stroke-linecap="round" fill="none"/>
  <!-- 足(右) -->
  <path d="M215 328 Q225 335 232 337 M215 328 Q215 337 218 343 M215 328 Q207 333 204 341" stroke="#e07030" stroke-width="7" stroke-linecap="round" fill="none"/>
  <!-- ほっぺ赤み(左) -->
  <ellipse cx="153" cy="108" rx="9" ry="7" fill="#e87878" opacity="0.6"/>
  <!-- ほっぺ赤み(右) -->
  <ellipse cx="207" cy="110" rx="8" ry="6" fill="#e87878" opacity="0.6"/>
</svg>