<svg xmlns="http://www.w3.org/2000/svg" viewBox="0 0 360 360">
  <path d="M205,260 C260,255 300,210 310,150 C315,120 308,95 295,80 C300,105 295,135 275,165 C250,205 220,240 195,270 Z" fill="#5BAE5E" stroke="#2d263c" stroke-width="7" stroke-linejoin="round"/>
  <path d="M132,150 C108,185 105,235 118,270 C128,298 150,313 175,314 C200,313 224,298 234,270 C247,235 244,185 220,150 C205,160 147,160 132,150 Z" fill="#5BAE5E" stroke="#2d263c" stroke-width="7" stroke-linejoin="round"/>
  <path d="M135,296 C125,305 122,315 125,322 L172,322 C175,312 173,300 165,294 Z" fill="#5BAE5E" stroke="#2d263c" stroke-width="6" stroke-linejoin="round"/>
  <path d="M215,296 C225,305 228,315 225,322 L178,322 C175,312 177,300 185,294 Z" fill="#5BAE5E" stroke="#2d263c" stroke-width="6" stroke-linejoin="round"/>
  <path d="M125,322 L120,332 M145,323 L142,334 M163,321 L166,332" fill="none" stroke="#2d263c" stroke-width="4" stroke-linecap="round"/>
  <path d="M222,322 L228,332 M202,323 L205,334 M185,321 L182,332" fill="none" stroke="#2d263c" stroke-width="4" stroke-linecap="round"/>
  <path d="M128,178 C110,188 96,203 93,222 C100,226 112,224 120,216 C130,205 134,190 136,178 Z" fill="#5BAE5E" stroke="#2d263c" stroke-width="6" stroke-linejoin="round"/>
  <path d="M222,178 C240,188 254,203 257,222 C250,226 238,224 230,216 C220,205 216,190 214,178 Z" fill="#5BAE5E" stroke="#2d263c" stroke-width="6" stroke-linejoin="round"/>
  <path d="M90,218 L84,224 M96,224 L91,231 M103,227 L100,234" fill="none" stroke="#2d263c" stroke-width="4" stroke-linecap="round"/>
  <path d="M260,218 L266,224 M254,224 L259,231 M247,227 L250,234" fill="none" stroke="#2d263c" stroke-width="4" stroke-linecap="round"/>
  <path d="M150,180 C138,215 136,255 150,292 C160,306 190,306 200,292 C214,255 212,215 200,180 C186,190 164,190 150,180 Z" fill="#F5EFC6" stroke="#2d263c" stroke-width="5" stroke-linejoin="round"/>
  <path d="M160,150 L168,138 L176,150 Z" fill="#3D8A4C" stroke="#2d263c" stroke-width="3" stroke-linejoin="round"/>
  <path d="M172,150 L180,136 L188,150 Z" fill="#3D8A4C" stroke="#2d263c" stroke-width="3" stroke-linejoin="round"/>
  <path d="M184,150 L192,140 L200,150 Z" fill="#3D8A4C" stroke="#2d263c" stroke-width="3" stroke-linejoin="round"/>
  <path d="M225,235 L235,220 L240,238 Z" fill="#3D8A4C" stroke="#2d263c" stroke-width="3" stroke-linejoin="round"/>
  <path d="M248,205 L258,190 L262,208 Z" fill="#3D8A4C" stroke="#2d263c" stroke-width="3" stroke-linejoin="round"/>
  <path d="M268,175 L278,160 L282,178 Z" fill="#3D8A4C" stroke="#2d263c" stroke-width="3" stroke-linejoin="round"/>
  <circle cx="175" cy="95" r="52" fill="#5BAE5E" stroke="#2d263c" stroke-width="7"/>
  <ellipse cx="157" cy="90" rx="15" ry="17" fill="#C0392B" stroke="#2d263c" stroke-width="4"/>
  <circle cx="157" cy="92" r="7" fill="#1B1B1B"/>
  <circle cx="153" cy="87" r="2.5" fill="#FFFFFF"/>
  <ellipse cx="193" cy="90" rx="15" ry="17" fill="#C0392B" stroke="#2d263c" stroke-width="4"/>
  <circle cx="193" cy="92" r="7" fill="#1B1B1B"/>
  <circle cx="197" cy="87" r="2.5" fill="#FFFFFF"/>
  <path d="M160,120 Q175,128 190,120" fill="none" stroke="#2d263c" stroke-width="4" stroke-linecap="round"/>
  <circle cx="168" cy="108" r="2" fill="#2d263c"/>
  <circle cx="182" cy="108" r="2" fill="#2d263c"/>
</svg>
