<svg xmlns="http://www.w3.org/2000/svg" viewBox="0 0 360 360">
<ellipse cx="125" cy="300" rx="32" ry="21" fill="#c9a06a" stroke="#2d263c" stroke-width="7"/>
<ellipse cx="235" cy="300" rx="32" ry="21" fill="#c9a06a" stroke="#2d263c" stroke-width="7"/>
<ellipse cx="85" cy="240" rx="22" ry="16" fill="#c9a06a" stroke="#2d263c" stroke-width="7"/>
<ellipse cx="275" cy="240" rx="22" ry="16" fill="#c9a06a" stroke="#2d263c" stroke-width="7"/>
<ellipse cx="180" cy="235" rx="100" ry="78" fill="#f7ecd3" stroke="#2d263c" stroke-width="8"/>
<path d="M40 170 C40 195,80 205,180 205 C280 205,320 195,320 170 L320 195 C320 222,258 236,180 236 C102 236,40 222,40 195 Z" fill="#fdfbf3" stroke="#2d263c" stroke-width="7"/>
<path d="M40 168 C40 78,120 42,180 42 C240 42,320 78,320 168 C320 194,280 205,180 205 C80 205,40 194,40 168 Z" fill="#e0473f" stroke="#2d263c" stroke-width="8"/>
<path d="M40 168 C40 194,80 205,180 205 C280 205,320 194,320 168" fill="none" stroke="#2d263c" stroke-width="7"/>
<ellipse cx="112" cy="92" rx="17" ry="14" fill="#fdfbf3" stroke="#2d263c" stroke-width="5"/>
<ellipse cx="180" cy="72" rx="15" ry="13" fill="#fdfbf3" stroke="#2d263c" stroke-width="5"/>
<ellipse cx="248" cy="92" rx="17" ry="14" fill="#fdfbf3" stroke="#2d263c" stroke-width="5"/>
<ellipse cx="140" cy="132" rx="13" ry="11" fill="#fdfbf3" stroke="#2d263c" stroke-width="5"/>
<ellipse cx="222" cy="132" rx="13" ry="11" fill="#fdfbf3" stroke="#2d263c" stroke-width="5"/>
<ellipse cx="146" cy="222" rx="15" ry="20" fill="#2d263c"/>
<ellipse cx="214" cy="222" rx="15" ry="20" fill="#2d263c"/>
<circle cx="141" cy="214" r="5" fill="#fdfbf3"/>
<circle cx="209" cy="214" r="5" fill="#fdfbf3"/>
<path d="M158 253 Q180 267 202 253" fill="none" stroke="#2d263c" stroke-width="7" stroke-linecap="round"/>
<ellipse cx="115" cy="255" rx="8" ry="6" fill="#f2b3a6" opacity="0.6"/>
<ellipse cx="245" cy="255" rx="8" ry="6" fill="#f2b3a6" opacity="0.6"/>
</svg>
