<svg xmlns="http://www.w3.org/2000/svg" viewBox="0 0 360 360">
  <path d="M150,100 L130,42 L170,95 Z" fill="#c67ae8" stroke="#2d263c" stroke-width="7" stroke-linejoin="round" stroke-linecap="round"/>
  <path d="M170,95 L185,38 L205,92 Z" fill="#b565e0" stroke="#2d263c" stroke-width="7" stroke-linejoin="round" stroke-linecap="round"/>
  <path d="M205,92 L230,48 L245,105 Z" fill="#c67ae8" stroke="#2d263c" stroke-width="7" stroke-linejoin="round" stroke-linecap="round"/>
  <ellipse cx="150" cy="308" rx="20" ry="15" fill="#a8397a" stroke="#2d263c" stroke-width="7" stroke-linejoin="round" stroke-linecap="round"/>
  <ellipse cx="210" cy="308" rx="20" ry="15" fill="#a8397a" stroke="#2d263c" stroke-width="7" stroke-linejoin="round" stroke-linecap="round"/>
  <path d="M180,90 L235,110 L280,170 L265,240 L225,300 L180,315 L135,300 L95,240 L80,170 L125,110 Z" fill="#d1478f" stroke="#2d263c" stroke-width="8" stroke-linejoin="round" stroke-linecap="round"/>
  <path d="M180,90 L235,110 L265,240 L180,315 L95,240 L125,110 Z" fill="none" stroke="#b03a75" stroke-width="4" stroke-linejoin="round" stroke-linecap="round"/>
  <circle cx="115" cy="215" r="12" fill="#ff9dc4"/>
  <circle cx="245" cy="215" r="12" fill="#ff9dc4"/>
  <ellipse cx="145" cy="190" rx="27" ry="31" fill="#ffffff" stroke="#2d263c" stroke-width="7" stroke-linejoin="round" stroke-linecap="round"/>
  <ellipse cx="215" cy="190" rx="27" ry="31" fill="#ffffff" stroke="#2d263c" stroke-width="7" stroke-linejoin="round" stroke-linecap="round"/>
  <circle cx="151" cy="198" r="11" fill="#2d263c"/>
  <circle cx="221" cy="198" r="11" fill="#2d263c"/>
  <circle cx="143" cy="187" r="5" fill="#ffffff"/>
  <circle cx="213" cy="187" r="5" fill="#ffffff"/>
  <path d="M163,235 Q180,248 197,235" fill="none" stroke="#2d263c" stroke-width="7" stroke-linecap="round"/>
  <path d="M198,148 L207,158 L198,168 L189,158 Z" fill="#ffe9f5"/>
  <path d="M148,258 L157,268 L148,278 L139,268 Z" fill="#ffe9f5"/>
  <path d="M228,218 L236,227 L228,236 L220,227 Z" fill="#ffe9f5"/>
</svg>
