<svg xmlns="http://www.w3.org/2000/svg" viewBox="0 0 360 360">
  <ellipse cx="262" cy="292" rx="22" ry="14" fill="#a86a3e" stroke="#2d263c" stroke-width="7" stroke-linejoin="round"/>
  <ellipse cx="150" cy="332" rx="26" ry="18" fill="#a86a3e" stroke="#2d263c" stroke-width="7" stroke-linejoin="round"/>
  <ellipse cx="212" cy="332" rx="26" ry="18" fill="#a86a3e" stroke="#2d263c" stroke-width="7" stroke-linejoin="round"/>
  <ellipse cx="180" cy="292" rx="66" ry="52" fill="#c98a4f" stroke="#2d263c" stroke-width="7" stroke-linejoin="round"/>
  <ellipse cx="180" cy="218" rx="72" ry="66" fill="#5fae4a" stroke="#2d263c" stroke-width="7" stroke-linejoin="round"/>
  <path d="M118 200 Q60 220 52 268 Q48 292 68 296 Q86 298 90 274 Q94 246 132 226 Z" fill="#5fae4a" stroke="#2d263c" stroke-width="7" stroke-linejoin="round" stroke-linecap="round"/>
  <path d="M242 200 Q300 220 308 268 Q312 292 292 296 Q274 298 270 274 Q266 246 228 226 Z" fill="#5fae4a" stroke="#2d263c" stroke-width="7" stroke-linejoin="round" stroke-linecap="round"/>
  <circle cx="66" cy="278" r="34" fill="#f2a8c8" stroke="#2d263c" stroke-width="7"/>
  <circle cx="294" cy="278" r="34" fill="#f2a8c8" stroke="#2d263c" stroke-width="7"/>
  <path d="M66 262 Q78 268 66 294 Q54 268 66 262 Z" fill="#e888ac" stroke="#2d263c" stroke-width="4" stroke-linejoin="round"/>
  <path d="M294 262 Q306 268 294 294 Q282 268 294 262 Z" fill="#e888ac" stroke="#2d263c" stroke-width="4" stroke-linejoin="round"/>
  <path d="M100 132 Q108 58 180 50 Q252 58 260 132 Q262 152 236 158 Q180 168 124 158 Q98 152 100 132 Z" fill="#6fbb58" stroke="#2d263c" stroke-width="7" stroke-linejoin="round"/>
  <ellipse cx="180" cy="176" rx="58" ry="46" fill="#f2ecc9" stroke="#2d263c" stroke-width="7" stroke-linejoin="round"/>
  <ellipse cx="136" cy="98" rx="16" ry="10" fill="#9a5a34" stroke="#2d263c" stroke-width="4" stroke-linejoin="round"/>
  <ellipse cx="224" cy="98" rx="16" ry="10" fill="#9a5a34" stroke="#2d263c" stroke-width="4" stroke-linejoin="round"/>
  <ellipse cx="180" cy="80" rx="18" ry="11" fill="#9a5a34" stroke="#2d263c" stroke-width="4" stroke-linejoin="round"/>
  <circle cx="158" cy="172" r="11" fill="#d6291f" stroke="#2d263c" stroke-width="5"/>
  <circle cx="202" cy="172" r="11" fill="#d6291f" stroke="#2d263c" stroke-width="5"/>
  <path d="M164 198 Q180 208 196 198" fill="none" stroke="#2d263c" stroke-width="7" stroke-linecap="round"/>
</svg>
