<svg xmlns="http://www.w3.org/2000/svg" viewBox="0 0 360 360">
  <!-- main lei vine ring (open at bottom-right) -->
  <path d="M120 120 Q70 180 95 250 Q130 305 210 300 Q275 295 295 240 Q305 200 285 175" fill="none" stroke="#6db84f" stroke-width="9" stroke-linecap="round"/>
  <!-- dangling vine tail -->
  <path d="M285 175 Q315 220 300 280 Q292 310 280 322" fill="none" stroke="#6db84f" stroke-width="9" stroke-linecap="round"/>
  <!-- flowers on ring -->
  <circle cx="120" cy="120" r="17" fill="#f6d54a" stroke="#2d263c" stroke-width="6"/>
  <circle cx="120" cy="120" r="6" fill="#f08a30"/>
  <circle cx="85" cy="200" r="15" fill="#f08fb0" stroke="#2d263c" stroke-width="6"/>
  <circle cx="85" cy="200" r="5" fill="#f6d54a"/>
  <circle cx="130" cy="285" r="17" fill="#b98fe0" stroke="#2d263c" stroke-width="6"/>
  <circle cx="130" cy="285" r="6" fill="#f6d54a"/>
  <circle cx="220" cy="295" r="15" fill="#f6d54a" stroke="#2d263c" stroke-width="6"/>
  <circle cx="220" cy="295" r="5" fill="#f08a30"/>
  <circle cx="290" cy="245" r="17" fill="#f08fb0" stroke="#2d263c" stroke-width="6"/>
  <circle cx="290" cy="245" r="6" fill="#f6d54a"/>
  <!-- leaves -->
  <path d="M95 145 Q75 138 78 160 Q95 158 95 145 Z" fill="#6db84f" stroke="#2d263c" stroke-width="6" stroke-linejoin="round"/>
  <path d="M170 302 Q165 320 190 322 Q192 304 170 302 Z" fill="#6db84f" stroke="#2d263c" stroke-width="6" stroke-linejoin="round"/>
  <path d="M270 200 Q288 195 285 215 Q268 213 270 200 Z" fill="#6db84f" stroke="#2d263c" stroke-width="6" stroke-linejoin="round"/>
  <!-- tail end bud -->
  <circle cx="278" cy="325" r="13" fill="#b98fe0" stroke="#2d263c" stroke-width="6"/>
  <circle cx="278" cy="325" r="5" fill="#f6d54a"/>
</svg>
