<svg xmlns="http://www.w3.org/2000/svg" viewBox="0 0 360 360">
  <g stroke="#2d263c" stroke-width="7" stroke-linecap="round" stroke-linejoin="round">
    <path d="M180,40 C160,70 160,120 180,140 C200,120 200,70 180,40 Z" fill="#4b8f29" transform="rotate(-55 180 140)"/>
    <path d="M180,40 C160,70 160,120 180,140 C200,120 200,70 180,40 Z" fill="#7cb342" transform="rotate(-27 180 140)"/>
    <path d="M180,40 C160,70 160,120 180,140 C200,120 200,70 180,40 Z" fill="#4b8f29"/>
    <path d="M180,40 C160,70 160,120 180,140 C200,120 200,70 180,40 Z" fill="#7cb342" transform="rotate(27 180 140)"/>
    <path d="M180,40 C160,70 160,120 180,140 C200,120 200,70 180,40 Z" fill="#4b8f29" transform="rotate(55 180 140)"/>

    <ellipse cx="180" cy="44" rx="9" ry="15" fill="#ef5350" transform="rotate(0 180 60)"/>
    <ellipse cx="180" cy="44" rx="9" ry="15" fill="#ef5350" transform="rotate(120 180 60)"/>
    <ellipse cx="180" cy="44" rx="9" ry="15" fill="#ef5350" transform="rotate(240 180 60)"/>
    <circle cx="180" cy="60" r="13" fill="#fdd835"/>

    <ellipse cx="155" cy="325" rx="20" ry="14" fill="#7cb342"/>
    <ellipse cx="205" cy="325" rx="20" ry="14" fill="#7cb342"/>

    <ellipse cx="180" cy="255" rx="88" ry="42" fill="#c62828"/>
    <path d="M180,255 C186,240 220,240 266,255 C220,270 186,270 180,255 Z" fill="#ef5350" transform="rotate(0 180 255)"/>
    <path d="M180,255 C186,240 220,240 266,255 C220,270 186,270 180,255 Z" fill="#e53935" transform="rotate(51 180 255)"/>
    <path d="M180,255 C186,240 220,240 266,255 C220,270 186,270 180,255 Z" fill="#ef5350" transform="rotate(102 180 255)"/>
    <path d="M180,255 C186,240 220,240 266,255 C220,270 186,270 180,255 Z" fill="#e53935" transform="rotate(153 180 255)"/>
    <path d="M180,255 C186,240 220,240 266,255 C220,270 186,270 180,255 Z" fill="#ef5350" transform="rotate(204 180 255)"/>
    <path d="M180,255 C186,240 220,240 266,255 C220,270 186,270 180,255 Z" fill="#e53935" transform="rotate(255 180 255)"/>
    <path d="M180,255 C186,240 220,240 266,255 C220,270 186,270 180,255 Z" fill="#ef5350" transform="rotate(306 180 255)"/>

    <ellipse cx="120" cy="228" rx="18" ry="40" fill="#7cb342" transform="rotate(-28 120 228)"/>
    <circle cx="88" cy="262" r="15" fill="#7cb342"/>
    <ellipse cx="240" cy="228" rx="18" ry="40" fill="#7cb342" transform="rotate(28 240 228)"/>
    <circle cx="272" cy="262" r="15" fill="#7cb342"/>

    <circle cx="180" cy="185" r="76" fill="#8bc34a"/>
  </g>

  <circle cx="153" cy="178" r="13" fill="#2d263c"/>
  <circle cx="207" cy="178" r="13" fill="#2d263c"/>
  <circle cx="157" cy="174" r="4" fill="#ffffff"/>
  <circle cx="211" cy="174" r="4" fill="#ffffff"/>
  <path d="M163,208 Q180,220 197,208" fill="none" stroke="#2d263c" stroke-width="6" stroke-linecap="round"/>
  <circle cx="133" cy="200" r="11" fill="#ff8fa3"/>
  <circle cx="227" cy="200" r="11" fill="#ff8fa3"/>
</svg>
