<svg xmlns="http://www.w3.org/2000/svg" viewBox="0 0 360 360">
  <!-- 後ろの塩結晶(背面) -->
  <polygon points="180,28 170,72 190,72" fill="#e8a0b8" stroke="#2d263c" stroke-width="7" stroke-linejoin="round"/>
  <polygon points="200,20 188,68 214,68" fill="#d47fa0" stroke="#2d263c" stroke-width="7" stroke-linejoin="round"/>
  <polygon points="158,32 148,74 170,74" fill="#e8a0b8" stroke="#2d263c" stroke-width="7" stroke-linejoin="round"/>

  <!-- 体(メイン岩塩ボディ) -->
  <path d="M 68 170 Q 60 155 65 130 Q 70 108 85 100 Q 100 92 130 88 Q 155 85 180 87 Q 205 85 228 89 Q 258 95 272 112 Q 285 128 283 148 Q 285 175 278 200 Q 272 225 268 248 Q 262 272 252 288 Q 240 302 220 308 Q 198 314 178 313 Q 156 314 138 308 Q 118 300 108 286 Q 96 270 88 248 Q 76 220 68 170 Z" fill="#f0e8e0" stroke="#2d263c" stroke-width="8" stroke-linejoin="round"/>

  <!-- 体の模様(ピンク岩塩風の斑) -->
  <ellipse cx="130" cy="140" rx="22" ry="16" fill="#e0a0b8" stroke="none" opacity="0.7"/>
  <ellipse cx="230" cy="150" rx="18" ry="13" fill="#e0a0b8" stroke="none" opacity="0.6"/>
  <ellipse cx="175" cy="240" rx="28" ry="14" fill="#d8b0c8" stroke="none" opacity="0.5"/>
  <ellipse cx="110" cy="220" rx="14" ry="10" fill="#e8b8cc" stroke="none" opacity="0.55"/>
  <ellipse cx="250" cy="230" rx="16" ry="11" fill="#e0a8bc" stroke="none" opacity="0.5"/>

  <!-- 頭部(ちょっと四角くてゴツい) -->
  <path d="M 120 90 Q 115 68 125 55 Q 138 42 165 38 Q 185 35 205 40 Q 222 47 228 62 Q 234 78 230 92 Q 200 86 180 87 Q 155 87 120 90 Z" fill="#f2ebe4" stroke="#2d263c" stroke-width="8" stroke-linejoin="round"/>

  <!-- 頭の塩結晶(正面) -->
  <polygon points="155,42 148,14 162,42" fill="#e890b0" stroke="#2d263c" stroke-width="6" stroke-linejoin="round"/>
  <polygon points="185,38 178,8 196,38" fill="#d870a0" stroke="#2d263c" stroke-width="6" stroke-linejoin="round"/>
  <polygon points="212,48 206,22 220,48" fill="#e890b0" stroke="#2d263c" stroke-width="6" stroke-linejoin="round"/>

  <!-- 肩の結晶(左) -->
  <polygon points="80,140 62,110 78,108 92,138" fill="#e090b0" stroke="#2d263c" stroke-width="7" stroke-linejoin="round"/>
  <!-- 肩の結晶(右) -->
  <polygon points="278,138 298,108 284,106 268,136" fill="#e090b0" stroke="#2d263c" stroke-width="7" stroke-linejoin="round"/>

  <!-- 左腕 -->
  <path d="M 78 188 Q 50 195 38 210 Q 28 226 35 242 Q 42 256 60 258 Q 75 260 88 248" fill="#eee6de" stroke="#2d263c" stroke-width="8" stroke-linejoin="round"/>
  <!-- 左腕の塩結晶 -->
  <polygon points="40,218 28,196 50,216" fill="#e090b0" stroke="#2d263c" stroke-width="6" stroke-linejoin="round"/>

  <!-- 右腕 -->
  <path d="M 278 190 Q 308 196 320 212 Q 330 228 324 244 Q 316 258 298 260 Q 282 262 270 248" fill="#eee6de" stroke="#2d263c" stroke-width="8" stroke-linejoin="round"/>
  <!-- 右腕の塩結晶 -->
  <polygon points="318,220 332,198 312,218" fill="#e090b0" stroke="#2d263c" stroke-width="6" stroke-linejoin="round"/>

  <!-- 左脚 -->
  <path d="M 138 312 Q 128 326 124 338 Q 120 348 134 350 Q 148 352 158 342 Q 165 334 162 318" fill="#eee6de" stroke="#2d263c" stroke-width="8" stroke-linejoin="round"/>
  <!-- 右脚 -->
  <path d="M 210 314 Q 220 328 224 340 Q 228 350 214 352 Q 200 354 190 344 Q 182 336 184 320" fill="#eee6de" stroke="#2d263c" stroke-width="8" stroke-linejoin="round"/>

  <!-- 目(左)眠そうな半目 -->
  <ellipse cx="156" cy="66" rx="12" ry="8" fill="#fff" stroke="#2d263c" stroke-width="5"/>
  <ellipse cx="156" cy="68" rx="8" ry="5" fill="#2d263c"/>
  <!-- 目の上まぶた(眠そう) -->
  <path d="M 144 62 Q 156 58 168 62" fill="none" stroke="#2d263c" stroke-width="5" stroke-linecap="round"/>

  <!-- 目(右)眠そうな半目 -->
  <ellipse cx="200" cy="64" rx="12" ry="8" fill="#fff" stroke="#2d263c" stroke-width="5"/>
  <ellipse cx="200" cy="66" rx="8" ry="5" fill="#2d263c"/>
  <!-- 目の上まぶた(眠そう) -->
  <path d="M 188 60 Q 200 56 212 60" fill="none" stroke="#2d263c" stroke-width="5" stroke-linecap="round"/>

  <!-- 口(小さくてぼんやり) -->
  <path d="M 170 82 Q 178 88 188 82" fill="none" stroke="#2d263c" stroke-width="5" stroke-linecap="round"/>

  <!-- ほっぺ(ほんのりピンク) -->
  <ellipse cx="140" cy="76" rx="10" ry="7" fill="#f0a0b8" opacity="0.6" stroke="none"/>
  <ellipse cx="216" cy="74" rx="10" ry="7" fill="#f0a0b8" opacity="0.6" stroke="none"/>

  <!-- 岩肌のひび割れ感(体の線) -->
  <path d="M 155 110 Q 150 130 158 150" fill="none" stroke="#c8b8c0" stroke-width="3" stroke-linecap="round" opacity="0.7"/>
  <path d="M 210 120 Q 220 145 212 165" fill="none" stroke="#c8b8c0" stroke-width="3" stroke-linecap="round" opacity="0.7"/>
  <path d="M 175 180 Q 165 200 172 220" fill="none" stroke="#c8b8c0" stroke-width="3" stroke-linecap="round" opacity="0.6"/>
</svg>