<svg xmlns="http://www.w3.org/2000/svg" viewBox="0 0 360 360">
  <!-- 特徴: 1.体は灰白色×下半身は黒 2.背中に氷の翼(青灰色のギザギザ) 3.尻尾は氷柱状の白いギザギザ 4.顔の下にツララ状の白いあご髭 5.瞳はシアン(氷の眼) -->

  <!-- 後ろ: 尻尾(氷柱ギザギザ) -->
  <polygon points="255,235 300,220 288,240 320,232 302,252 330,250 300,270 260,262"
    fill="#c7cdd3" stroke="#2d263c" stroke-width="7" stroke-linejoin="round"/>

  <!-- 後ろ: 背中の氷の翼(左右) -->
  <polygon points="95,150 55,110 70,150 40,140 62,175 45,185 90,190"
    fill="#7e97a8" stroke="#2d263c" stroke-width="7" stroke-linejoin="round"/>
  <polygon points="255,150 300,105 288,150 320,135 298,172 318,180 268,190"
    fill="#7e97a8" stroke="#2d263c" stroke-width="7" stroke-linejoin="round"/>

  <!-- 体: 胴体(灰白色) -->
  <ellipse cx="180" cy="215" rx="88" ry="68" fill="#d3d6db" stroke="#2d263c" stroke-width="8"/>

  <!-- 体: 下半身(黒) -->
  <path d="M100,235 Q100,290 150,300 Q180,308 210,300 Q260,290 260,235 Q220,270 180,270 Q140,270 100,235 Z"
    fill="#26262c" stroke="#2d263c" stroke-width="7" stroke-linejoin="round"/>

  <!-- 体: 胸の模様ライン -->
  <path d="M150,175 Q180,195 210,175" fill="none" stroke="#9aa0a8" stroke-width="6" stroke-linecap="round"/>

  <!-- 脚(左右・黒) -->
  <ellipse cx="140" cy="292" rx="22" ry="16" fill="#26262c" stroke="#2d263c" stroke-width="6"/>
  <ellipse cx="222" cy="292" rx="22" ry="16" fill="#26262c" stroke="#2d263c" stroke-width="6"/>
  <!-- 爪 -->
  <polygon points="125,300 133,300 129,312" fill="#eef1f3" stroke="#2d263c" stroke-width="4" stroke-linejoin="round"/>
  <polygon points="148,304 156,304 152,316" fill="#eef1f3" stroke="#2d263c" stroke-width="4" stroke-linejoin="round"/>
  <polygon points="207,304 215,304 211,316" fill="#eef1f3" stroke="#2d263c" stroke-width="4" stroke-linejoin="round"/>
  <polygon points="230,300 238,300 234,312" fill="#eef1f3" stroke="#2d263c" stroke-width="4" stroke-linejoin="round"/>

  <!-- 首 -->
  <rect x="160" y="120" width="40" height="45" rx="14" fill="#d3d6db" stroke="#2d263c" stroke-width="7"/>

  <!-- 頭 -->
  <ellipse cx="180" cy="105" rx="58" ry="46" fill="#d9dce0" stroke="#2d263c" stroke-width="8"/>

  <!-- 頭上の角(黒) -->
  <polygon points="150,65 160,25 172,63" fill="#26262c" stroke="#2d263c" stroke-width="6" stroke-linejoin="round"/>
  <polygon points="210,65 200,25 188,63" fill="#26262c" stroke="#2d263c" stroke-width="6" stroke-linejoin="round"/>

  <!-- あご下のツララひげ -->
  <polygon points="150,130 158,168 168,140 178,172 188,140 198,168 206,130"
    fill="#eef1f3" stroke="#2d263c" stroke-width="6" stroke-linejoin="round"/>

  <!-- 口(黒い裂け目) -->
  <path d="M148,118 Q180,132 212,118" fill="none" stroke="#26262c" stroke-width="6" stroke-linecap="round"/>

  <!-- 目(シアン) -->
  <ellipse cx="158" cy="98" rx="12" ry="10" fill="#3fd4e0" stroke="#2d263c" stroke-width="5"/>
  <ellipse cx="205" cy="98" rx="12" ry="10" fill="#3fd4e0" stroke="#2d263c" stroke-width="5"/>
  <circle cx="158" cy="98" r="4" fill="#16323a"/>
  <circle cx="205" cy="98" r="4" fill="#16323a"/>

  <!-- 鼻の穴 -->
  <circle cx="172" cy="118" r="2.5" fill="#26262c"/>
  <circle cx="190" cy="118" r="2.5" fill="#26262c"/>
</svg>
