<svg xmlns="http://www.w3.org/2000/svg" viewBox="0 0 360 360"><g stroke="#2d263c" stroke-width="7" stroke-linejoin="round" stroke-linecap="round" fill="#f6d9a1"><path d="M180 245 Q104 254 46 214 Q26 198 52 190 Q116 206 180 245 Z"/><path d="M180 245 Q105 220 64 150 Q52 124 78 128 Q128 178 180 245 Z"/><path d="M180 245 Q120 190 96 92 Q92 64 116 76 Q146 160 180 245 Z"/><path d="M180 245 Q140 165 130 60 Q132 32 154 48 Q162 140 180 245 Z"/><path d="M180 245 Q160 140 170 48 Q178 22 194 46 Q200 150 180 245 Z"/><path d="M180 245 Q198 150 218 62 Q228 34 244 56 Q222 150 180 245 Z"/><path d="M180 245 Q222 175 254 98 Q268 72 282 92 Q244 170 180 245 Z"/><path d="M180 245 Q240 210 288 158 Q310 138 316 158 Q260 215 180 245 Z"/><path d="M180 245 Q256 254 314 214 Q334 198 308 190 Q244 206 180 245 Z"/><ellipse cx="48" cy="202" rx="16" ry="12" fill="#e8913d" transform="rotate(-25 48 202)"/><ellipse cx="68" cy="138" rx="15" ry="11" fill="#e8913d" transform="rotate(-50 68 138)"/><ellipse cx="102" cy="80" rx="15" ry="11" fill="#e8913d" transform="rotate(-65 102 80)"/><ellipse cx="140" cy="52" rx="15" ry="11" fill="#e8913d" transform="rotate(-80 140 52)"/><ellipse cx="182" cy="42" rx="16" ry="11" fill="#e8913d" transform="rotate(85 182 42)"/><ellipse cx="228" cy="55" rx="15" ry="11" fill="#e8913d" transform="rotate(65 228 55)"/><ellipse cx="264" cy="90" rx="15" ry="11" fill="#e8913d" transform="rotate(50 264 90)"/><ellipse cx="296" cy="152" rx="15" ry="11" fill="#e8913d" transform="rotate(28 296 152)"/><ellipse cx="312" cy="202" rx="16" ry="12" fill="#e8913d" transform="rotate(22 312 202)"/><rect x="132" y="262" width="22" height="58" rx="10"/><rect x="164" y="266" width="22" height="56" rx="10"/><rect x="204" y="263" width="22" height="59" rx="10"/><rect x="236" y="268" width="22" height="52" rx="10"/><ellipse cx="182" cy="248" rx="70" ry="50"/><path d="M150 218 Q158 230 168 218 Q176 232 186 219 Q196 232 208 218" fill="none" stroke-width="6"/><path d="M150 125 Q120 70 132 36 Q156 52 168 118 Z"/><path d="M212 125 Q242 70 230 36 Q206 52 194 118 Z"/><path d="M148 100 Q136 66 140 50 Q152 64 158 100 Z" fill="#d97f3c" stroke-width="5"/><path d="M214 100 Q226 66 222 50 Q210 64 204 100 Z" fill="#d97f3c" stroke-width="5"/><circle cx="179" cy="162" r="47"/><path d="M148 128 Q138 96 166 102 Q164 80 190 92 Q208 78 214 106 Q228 102 220 128 Q200 142 180 134 Q162 142 148 128 Z"/><path d="M144 156 Q158 144 172 154 Q158 165 144 156 Z" fill="#c43131" stroke-width="5"/><path d="M216 156 Q202 144 188 154 Q202 165 216 156 Z" fill="#c43131" stroke-width="5"/><circle cx="159" cy="153" r="3" fill="#ffffff" stroke="none"/><circle cx="201" cy="153" r="3" fill="#ffffff" stroke="none"/><path d="M173 175 L189 175 L181 185 Z" fill="#2d263c" stroke-width="5"/><path d="M166 196 Q181 206 196 195" fill="none" stroke-width="6"/></g></svg>