<svg xmlns="http://www.w3.org/2000/svg" viewBox="0 0 360 360">
  <path d="M140,190 C110,196 85,208 70,228 C58,244 55,260 62,274 C66,282 76,286 84,282 C90,278 88,268 82,260 C90,246 100,230 112,216 C122,206 132,198 146,196 Z" fill="#8a5a2b" stroke="#2d263c" stroke-width="7" stroke-linejoin="round"/>
  <ellipse cx="66" cy="272" rx="27" ry="23" fill="#8a5a2b" stroke="#2d263c" stroke-width="7"/>
  <ellipse cx="58" cy="266" rx="7" ry="8" fill="#ffffff"/>
  <circle cx="56" cy="267" r="4" fill="#7a1f1f"/>
  <path d="M50,286 Q64,296 78,286" fill="none" stroke="#2d263c" stroke-width="4" stroke-linecap="round"/>
  <rect x="116" y="200" width="20" height="120" rx="9" fill="#f2c66b" stroke="#2d263c" stroke-width="7"/>
  <rect x="146" y="204" width="20" height="116" rx="9" fill="#f2c66b" stroke="#2d263c" stroke-width="7"/>
  <rect x="190" y="204" width="20" height="116" rx="9" fill="#f2c66b" stroke="#2d263c" stroke-width="7"/>
  <rect x="222" y="200" width="20" height="120" rx="9" fill="#f2c66b" stroke="#2d263c" stroke-width="7"/>
  <rect x="114" y="304" width="24" height="18" rx="6" fill="#4a3826" stroke="#2d263c" stroke-width="6"/>
  <rect x="144" y="304" width="24" height="18" rx="6" fill="#4a3826" stroke="#2d263c" stroke-width="6"/>
  <rect x="188" y="304" width="24" height="18" rx="6" fill="#4a3826" stroke="#2d263c" stroke-width="6"/>
  <rect x="220" y="304" width="24" height="18" rx="6" fill="#4a3826" stroke="#2d263c" stroke-width="6"/>
  <ellipse cx="175" cy="195" rx="68" ry="42" fill="#f2c66b" stroke="#2d263c" stroke-width="8"/>
  <ellipse cx="178" cy="216" rx="40" ry="16" fill="#fff3d6"/>
  <ellipse cx="150" cy="175" rx="13" ry="9" fill="#8a5a2b"/>
  <ellipse cx="205" cy="184" rx="11" ry="8" fill="#8a5a2b"/>
  <path d="M198,178 C204,148 212,118 224,95 C230,84 240,80 250,82 C242,102 233,132 226,160 C222,172 218,180 210,184 Z" fill="#f2c66b" stroke="#2d263c" stroke-width="8" stroke-linejoin="round"/>
  <ellipse cx="223" cy="128" rx="9" ry="13" fill="#8a5a2b"/>
  <path d="M232,100 L240,90 L238,104 Z" fill="#8a5a2b" stroke="#2d263c" stroke-width="4"/>
  <path d="M222,130 L230,120 L228,134 Z" fill="#8a5a2b" stroke="#2d263c" stroke-width="4"/>
  <ellipse cx="246" cy="74" rx="30" ry="24" fill="#f2c66b" stroke="#2d263c" stroke-width="8"/>
  <ellipse cx="274" cy="90" rx="19" ry="13" fill="#fff3d6" stroke="#2d263c" stroke-width="6"/>
  <ellipse cx="228" cy="52" rx="8" ry="14" fill="#f2c66b" stroke="#2d263c" stroke-width="6"/>
  <ellipse cx="253" cy="48" rx="8" ry="14" fill="#f2c66b" stroke="#2d263c" stroke-width="6"/>
  <line x1="238" y1="50" x2="236" y2="32" stroke="#2d263c" stroke-width="12" stroke-linecap="round"/>
  <line x1="238" y1="50" x2="236" y2="32" stroke="#f2c66b" stroke-width="7" stroke-linecap="round"/>
  <circle cx="236" cy="30" r="7" fill="#8a5a2b" stroke="#2d263c" stroke-width="5"/>
  <line x1="252" y1="48" x2="254" y2="32" stroke="#2d263c" stroke-width="12" stroke-linecap="round"/>
  <line x1="252" y1="48" x2="254" y2="32" stroke="#f2c66b" stroke-width="7" stroke-linecap="round"/>
  <circle cx="254" cy="30" r="7" fill="#8a5a2b" stroke="#2d263c" stroke-width="5"/>
  <ellipse cx="254" cy="70" rx="8" ry="9" fill="#ffffff"/>
  <circle cx="256" cy="71" r="4" fill="#2d263c"/>
  <ellipse cx="284" cy="95" rx="3" ry="4" fill="#2d263c"/>
  <path d="M264,100 Q274,105 284,100" fill="none" stroke="#2d263c" stroke-width="4" stroke-linecap="round"/>
</svg>
