<svg xmlns="http://www.w3.org/2000/svg" viewBox="0 0 360 360">
  <polygon points="160,255 178,255 175,310 158,308" fill="#3a3540" stroke="#2d263c" stroke-width="7" stroke-linecap="round" stroke-linejoin="round"/>
  <polygon points="182,255 200,255 202,308 185,310" fill="#3a3540" stroke="#2d263c" stroke-width="7" stroke-linecap="round" stroke-linejoin="round"/>
  <polygon points="150,308 178,308 160,325" fill="#9d9dae" stroke="#2d263c" stroke-width="7" stroke-linecap="round" stroke-linejoin="round"/>
  <polygon points="182,308 210,308 195,325" fill="#9d9dae" stroke="#2d263c" stroke-width="7" stroke-linecap="round" stroke-linejoin="round"/>
  <polygon points="145,195 215,195 235,255 220,270 205,250 190,272 175,250 160,270 145,255" fill="#9d9dae" stroke="#2d263c" stroke-width="7" stroke-linecap="round" stroke-linejoin="round"/>
  <polygon points="130,125 230,125 215,195 145,195" fill="#26222e" stroke="#2d263c" stroke-width="7" stroke-linecap="round" stroke-linejoin="round"/>
  <polygon points="155,130 205,130 198,180 162,180" fill="#cfd0dc" stroke="#2d263c" stroke-width="6" stroke-linecap="round" stroke-linejoin="round"/>
  <path d="M180,132 L180,178" fill="none" stroke="#c0392b" stroke-width="7" stroke-linecap="round"/>
  <polygon points="118,135 140,140 118,215 95,205" fill="#9d9dae" stroke="#2d263c" stroke-width="7" stroke-linecap="round" stroke-linejoin="round"/>
  <polygon points="95,205 122,215 100,240 78,225" fill="#9d9dae" stroke="#2d263c" stroke-width="7" stroke-linecap="round" stroke-linejoin="round"/>
  <polygon points="242,135 220,140 242,215 265,205" fill="#9d9dae" stroke="#2d263c" stroke-width="7" stroke-linecap="round" stroke-linejoin="round"/>
  <polygon points="265,205 238,215 260,240 282,225" fill="#9d9dae" stroke="#2d263c" stroke-width="7" stroke-linecap="round" stroke-linejoin="round"/>
  <polygon points="100,110 135,95 140,135 110,140" fill="#c0392b" stroke="#2d263c" stroke-width="7" stroke-linecap="round" stroke-linejoin="round"/>
  <polygon points="260,110 225,95 220,135 250,140" fill="#c0392b" stroke="#2d263c" stroke-width="7" stroke-linecap="round" stroke-linejoin="round"/>
  <ellipse cx="180" cy="95" rx="40" ry="36" fill="#26222e" stroke="#2d263c" stroke-width="8" stroke-linecap="round" stroke-linejoin="round"/>
  <polygon points="150,78 158,32 168,55 180,22 192,55 202,32 210,78 195,70 165,70" fill="#c0392b" stroke="#2d263c" stroke-width="7" stroke-linecap="round" stroke-linejoin="round"/>
  <ellipse cx="165" cy="95" rx="9" ry="11" fill="#fdf6e3" stroke="#2d263c" stroke-width="4" stroke-linecap="round" stroke-linejoin="round"/>
  <ellipse cx="195" cy="95" rx="9" ry="11" fill="#fdf6e3" stroke="#2d263c" stroke-width="4" stroke-linecap="round" stroke-linejoin="round"/>
  <circle cx="166" cy="97" r="4" fill="#1a1a1a"/>
  <circle cx="196" cy="97" r="4" fill="#1a1a1a"/>
  <path d="M167,113 L180,118 L193,113" fill="none" stroke="#1a1a1a" stroke-width="5" stroke-linecap="round" stroke-linejoin="round"/>
</svg>
