<svg xmlns="http://www.w3.org/2000/svg" viewBox="0 0 360 360">
  <ellipse cx="138" cy="320" rx="29" ry="17" fill="#d8788e" stroke="#2d263c" stroke-width="7"/>
  <ellipse cx="222" cy="320" rx="29" ry="17" fill="#d8788e" stroke="#2d263c" stroke-width="7"/>
  <path d="M108 198 Q108 312 180 322 Q252 312 252 198 Z" fill="#e88aa0" stroke="#2d263c" stroke-width="8" stroke-linejoin="round"/>
  <ellipse cx="180" cy="260" rx="42" ry="48" fill="#f4c8d2"/>
  <ellipse cx="90" cy="230" rx="20" ry="38" fill="#e88aa0" stroke="#2d263c" stroke-width="8" transform="rotate(22 90 230)"/>
  <ellipse cx="270" cy="230" rx="20" ry="38" fill="#e88aa0" stroke="#2d263c" stroke-width="8" transform="rotate(-22 270 230)"/>
  <circle cx="120" cy="94" r="27" fill="#e88aa0" stroke="#2d263c" stroke-width="8"/>
  <circle cx="240" cy="94" r="27" fill="#e88aa0" stroke="#2d263c" stroke-width="8"/>
  <circle cx="120" cy="94" r="12" fill="#d8788e"/>
  <circle cx="240" cy="94" r="12" fill="#d8788e"/>
  <circle cx="180" cy="124" r="62" fill="#e88aa0" stroke="#2d263c" stroke-width="8"/>
  <path d="M136 128 Q180 118 224 128 Q222 166 180 169 Q138 166 136 128 Z" fill="#f4ecdc" stroke="#2d263c" stroke-width="7" stroke-linejoin="round"/>
  <circle cx="158" cy="128" r="9" fill="#2d263c"/>
  <circle cx="202" cy="128" r="9" fill="#2d263c"/>
  <circle cx="161" cy="125" r="3" fill="#ffffff"/>
  <circle cx="205" cy="125" r="3" fill="#ffffff"/>
  <ellipse cx="180" cy="145" rx="7" ry="5" fill="#2d263c"/>
  <path d="M180 150 L180 156 M170 160 Q180 168 190 160" fill="none" stroke="#2d263c" stroke-width="5" stroke-linecap="round"/>
</svg>
