<svg xmlns="http://www.w3.org/2000/svg" viewBox="0 0 360 360">
<ellipse cx="118" cy="322" rx="52" ry="15" fill="#bfe9f7"/>
<ellipse cx="212" cy="326" rx="58" ry="14" fill="#bfe9f7"/>
<ellipse cx="270" cy="310" rx="30" ry="12" fill="#bfe9f7"/>
<path d="M110,255 C95,270 80,280 66,277" fill="none" stroke="#2d263c" stroke-width="7" stroke-linecap="round" stroke-linejoin="round"/>
<path d="M125,262 C112,282 100,296 86,299" fill="none" stroke="#2d263c" stroke-width="7" stroke-linecap="round" stroke-linejoin="round"/>
<path d="M150,268 C145,290 140,304 129,313" fill="none" stroke="#2d263c" stroke-width="7" stroke-linecap="round" stroke-linejoin="round"/>
<path d="M175,268 C182,290 185,304 195,313" fill="none" stroke="#2d263c" stroke-width="7" stroke-linecap="round" stroke-linejoin="round"/>
<ellipse cx="95" cy="195" rx="20" ry="30" fill="#e2432a" stroke="#2d263c" stroke-width="7"/>
<path d="M85,170 C66,156 51,151 46,159 C56,171 68,183 82,190 Z" fill="#ffdca0" stroke="#2d263c" stroke-width="7" stroke-linejoin="round"/>
<ellipse cx="165" cy="205" rx="70" ry="58" fill="#e2432a" stroke="#2d263c" stroke-width="8"/>
<ellipse cx="165" cy="222" rx="40" ry="28" fill="#ffdca0" stroke="#2d263c" stroke-width="6"/>
<circle cx="140" cy="185" r="7" fill="#b8291b"/>
<circle cx="190" cy="180" r="6" fill="#b8291b"/>
<circle cx="165" cy="163" r="6" fill="#b8291b"/>
<path d="M145,150 C140,125 138,110 140,95" fill="none" stroke="#2d263c" stroke-width="8" stroke-linecap="round"/>
<path d="M175,150 C180,125 183,110 182,95" fill="none" stroke="#2d263c" stroke-width="8" stroke-linecap="round"/>
<circle cx="140" cy="90" r="14" fill="#ffffff" stroke="#2d263c" stroke-width="6"/>
<circle cx="183" cy="90" r="14" fill="#ffffff" stroke="#2d263c" stroke-width="6"/>
<circle cx="142" cy="90" r="6" fill="#2d263c"/>
<circle cx="185" cy="90" r="6" fill="#2d263c"/>
<path d="M150,240 C158,248 172,248 180,240" fill="none" stroke="#2d263c" stroke-width="6" stroke-linecap="round"/>
<ellipse cx="238" cy="180" rx="28" ry="40" transform="rotate(-15 238 180)" fill="#e2432a" stroke="#2d263c" stroke-width="8"/>
<ellipse cx="272" cy="155" rx="46" ry="44" fill="#ffdca0" stroke="#2d263c" stroke-width="8"/>
<path d="M250,122 C225,95 200,82 190,88 C202,108 224,126 248,142 Z" fill="#ffdca0" stroke="#2d263c" stroke-width="8" stroke-linejoin="round"/>
<path d="M250,185 C225,212 198,224 188,217 C200,198 224,180 248,165 Z" fill="#ffdca0" stroke="#2d263c" stroke-width="8" stroke-linejoin="round"/>
<circle cx="272" cy="155" r="10" fill="#e2432a"/>
<path d="M300,95 C305,85 315,85 318,95" fill="none" stroke="#7fd6ee" stroke-width="6" stroke-linecap="round"/>
<path d="M55,240 C50,230 40,230 37,240" fill="none" stroke="#7fd6ee" stroke-width="6" stroke-linecap="round"/>
</svg>
