<svg xmlns="http://www.w3.org/2000/svg" viewBox="0 0 360 360"><g stroke="#2d263c" stroke-width="7" stroke-linejoin="round" stroke-linecap="round"><path d="M180 235 C162 202,192 176,181 126 C204 160,204 204,180 235 Z" fill="#c9e9f8" transform="rotate(-84,180,235)"/><path d="M180 235 C156 196,198 166,178 110 C208 148,210 198,180 235 Z" fill="#c9e9f8" transform="rotate(-63,180,235)"/><path d="M180 235 C162 202,192 176,181 126 C204 160,204 204,180 235 Z" fill="#c9e9f8" transform="rotate(-44,180,235)"/><path d="M180 235 C156 196,198 166,178 110 C208 148,210 198,180 235 Z" fill="#c9e9f8" transform="rotate(-23,180,235)"/><path d="M180 235 C156 196,198 166,178 110 C208 148,210 198,180 235 Z" fill="#c9e9f8" transform="rotate(-3,180,235)"/><path d="M180 235 C162 202,192 176,181 126 C204 160,204 204,180 235 Z" fill="#c9e9f8" transform="rotate(17,180,235)"/><path d="M180 235 C156 196,198 166,178 110 C208 148,210 198,180 235 Z" fill="#c9e9f8" transform="rotate(39,180,235)"/><path d="M180 235 C162 202,192 176,181 126 C204 160,204 204,180 235 Z" fill="#c9e9f8" transform="rotate(60,180,235)"/><path d="M180 235 C156 196,198 166,178 110 C208 148,210 198,180 235 Z" fill="#c9e9f8" transform="rotate(83,180,235)"/><path d="M152 124 C138 96,130 64,136 38 C158 56,168 88,168 116 Z" fill="#def2fb"/><path d="M208 124 C222 96,231 65,223 39 C202 56,192 88,192 116 Z" fill="#def2fb"/><path d="M148 106 C143 88,141 72,143 58 C154 72,158 90,160 106 Z" fill="#a5d7ef" stroke="none"/><path d="M212 106 C217 88,218 72,216 59 C205 72,202 90,200 106 Z" fill="#a5d7ef" stroke="none"/><path d="M140 295 C130 240,150 205,180 200 C210 205,231 238,221 296 Q180 307 140 295 Z" fill="#def2fb"/><path d="M152 228 Q158 246 151 261 Q166 257 172 269 Q180 255 188 269 Q195 257 209 261 Q202 246 208 228 Q195 214 180 214 Q165 214 152 228 Z" fill="#f2fafe"/><rect x="153" y="246" width="17" height="51" rx="8" fill="#def2fb"/><rect x="190" y="244" width="17" height="53" rx="8" fill="#def2fb"/><path d="M142 150 C140 122,158 108,180 108 C204 108,220 124,218 150 C219 172,201 187,180 187 C159 187,141 174,142 150 Z" fill="#def2fb"/><path d="M158 110 C148 124,150 136,157 147 C165 136,166 120,164 108 Z" fill="#f2fafe"/><path d="M174 106 C168 126,170 142,179 154 C188 140,188 122,184 104 Z" fill="#f2fafe"/><path d="M192 108 C190 122,194 132,202 142 C208 130,206 116,200 106 Z" fill="#f2fafe"/><ellipse cx="148" cy="167" rx="8" ry="5" fill="#ffd1dc" stroke="none"/><ellipse cx="214" cy="165" rx="8" ry="5" fill="#ffd1dc" stroke="none"/><circle cx="162" cy="155" r="7" fill="#4aa6dd" stroke-width="5"/><circle cx="200" cy="153" r="7" fill="#4aa6dd" stroke-width="5"/><circle cx="164.5" cy="152.5" r="2.2" fill="#ffffff" stroke="none"/><circle cx="202.5" cy="150.5" r="2.2" fill="#ffffff" stroke="none"/><ellipse cx="181" cy="166" rx="5.5" ry="4" fill="#2d263c" stroke="none"/><path d="M171 174 Q176 180 181 173 Q186 180 192 172" fill="none" stroke-width="5"/></g></svg>