<svg xmlns="http://www.w3.org/2000/svg" viewBox="0 0 360 360">
  <!-- 9本しっぽ(後ろ) -->
  <path d="M110 230 Q70 200 55 170 Q45 145 65 135 Q80 128 90 148 Q95 162 88 178 Q100 165 115 172 Q128 180 118 200 Z" fill="#b8e4f9" stroke="#2d263c" stroke-width="7" stroke-linejoin="round" stroke-linecap="round"/>
  <path d="M130 240 Q95 225 80 200 Q68 178 82 162 Q95 150 108 165 Q118 178 112 198 Q122 185 138 190 Q152 196 145 216 Z" fill="#cceeff" stroke="#2d263c" stroke-width="7" stroke-linejoin="round" stroke-linecap="round"/>
  <path d="M155 248 Q118 240 102 218 Q90 198 100 180 Q112 165 126 175 Q138 186 134 208 Q144 195 160 198 Q175 202 170 224 Z" fill="#ddf2ff" stroke="#2d263c" stroke-width="7" stroke-linejoin="round" stroke-linecap="round"/>
  <path d="M240 230 Q280 200 295 170 Q305 145 285 135 Q270 128 260 148 Q255 162 262 178 Q250 165 235 172 Q222 180 232 200 Z" fill="#b8e4f9" stroke="#2d263c" stroke-width="7" stroke-linejoin="round" stroke-linecap="round"/>
  <path d="M220 240 Q255 225 270 200 Q282 178 268 162 Q255 150 242 165 Q232 178 238 198 Q228 185 212 190 Q198 196 205 216 Z" fill="#cceeff" stroke="#2d263c" stroke-width="7" stroke-linejoin="round" stroke-linecap="round"/>
  <path d="M195 248 Q232 240 248 218 Q260 198 250 180 Q238 165 224 175 Q212 186 216 208 Q206 195 190 198 Q175 202 180 224 Z" fill="#ddf2ff" stroke="#2d263c" stroke-width="7" stroke-linejoin="round" stroke-linecap="round"/>
  <!-- 中央しっぽ3本 -->
  <path d="M165 252 Q155 228 158 210 Q162 195 175 192 Q188 190 190 208 Q192 224 185 242 Z" fill="#e8f8ff" stroke="#2d263c" stroke-width="6" stroke-linejoin="round" stroke-linecap="round"/>
  <path d="M178 255 Q175 230 180 212 Q185 198 180 185 Q188 196 188 215 Q188 235 183 255 Z" fill="#f0fbff" stroke="#2d263c" stroke-width="6" stroke-linejoin="round" stroke-linecap="round"/>
  <path d="M192 252 Q202 228 200 210 Q196 195 183 192 Q172 190 170 208 Q168 224 175 242 Z" fill="#e8f8ff" stroke="#2d263c" stroke-width="6" stroke-linejoin="round" stroke-linecap="round"/>

  <!-- 体(メインボディ) -->
  <ellipse cx="180" cy="210" rx="68" ry="72" fill="#f5fbff" stroke="#2d263c" stroke-width="8" stroke-linejoin="round"/>

  <!-- 胸の飾り毛 -->
  <path d="M152 178 Q148 162 155 150 Q162 140 172 148 Q165 155 164 168 Z" fill="white" stroke="#2d263c" stroke-width="5" stroke-linejoin="round" stroke-linecap="round"/>
  <path d="M160 182 Q152 165 158 152 Q165 142 174 148 Q168 158 167 172 Z" fill="white" stroke="#2d263c" stroke-width="5" stroke-linejoin="round" stroke-linecap="round"/>
  <path d="M170 183 Q162 168 166 154 Q170 144 178 148 Q174 158 173 172 Z" fill="white" stroke="#2d263c" stroke-width="5" stroke-linejoin="round" stroke-linecap="round"/>
  <path d="M204 178 Q208 162 201 150 Q194 140 184 148 Q190 155 191 168 Z" fill="white" stroke="#2d263c" stroke-width="5" stroke-linejoin="round" stroke-linecap="round"/>
  <path d="M197 182 Q204 165 198 152 Q191 142 181 148 Q187 158 188 172 Z" fill="white" stroke="#2d263c" stroke-width="5" stroke-linejoin="round" stroke-linecap="round"/>

  <!-- 前足 -->
  <ellipse cx="148" cy="270" rx="18" ry="12" fill="#eef8ff" stroke="#2d263c" stroke-width="6" stroke-linejoin="round"/>
  <ellipse cx="212" cy="270" rx="18" ry="12" fill="#eef8ff" stroke="#2d263c" stroke-width="6" stroke-linejoin="round"/>

  <!-- 頭 -->
  <ellipse cx="180" cy="130" rx="52" ry="46" fill="#f5fbff" stroke="#2d263c" stroke-width="8" stroke-linejoin="round"/>

  <!-- 耳(左) -->
  <path d="M138 105 Q128 78 140 62 Q148 52 156 68 Q158 80 152 98 Z" fill="#e0f4ff" stroke="#2d263c" stroke-width="7" stroke-linejoin="round" stroke-linecap="round"/>
  <path d="M141 103 Q133 82 143 68 Q149 60 154 72 Q155 82 150 97 Z" fill="#b8e4f9" stroke="none"/>

  <!-- 耳(右) -->
  <path d="M222 105 Q232 78 220 62 Q212 52 204 68 Q202 80 208 98 Z" fill="#e0f4ff" stroke="#2d263c" stroke-width="7" stroke-linejoin="round" stroke-linecap="round"/>
  <path d="M219 103 Q227 82 217 68 Q211 60 206 72 Q205 82 210 97 Z" fill="#b8e4f9" stroke="none"/>

  <!-- 頭の飾り毛(前髪) -->
  <path d="M168 90 Q160 72 165 58 Q170 48 178 56 Q172 66 172 80 Z" fill="white" stroke="#2d263c" stroke-width="5" stroke-linejoin="round" stroke-linecap="round"/>
  <path d="M178 87 Q172 68 176 52 Q180 44 186 52 Q182 62 182 76 Z" fill="white" stroke="#2d263c" stroke-width="5" stroke-linejoin="round" stroke-linecap="round"/>
  <path d="M188 90 Q194 70 190 56 Q186 46 180 54 Q184 64 185 78 Z" fill="white" stroke="#2d263c" stroke-width="5" stroke-linejoin="round" stroke-linecap="round"/>

  <!-- 目(左) 切れ長 -->
  <path d="M153 125 Q158 119 168 121 Q174 124 172 130 Q166 135 157 132 Q151 129 153 125 Z" fill="#5dd4f0" stroke="#2d263c" stroke-width="4" stroke-linejoin="round"/>
  <ellipse cx="163" cy="127" rx="5" ry="4" fill="#1a2a3a"/>
  <circle cx="165" cy="125" r="2" fill="white"/>

  <!-- 目(右) 切れ長 -->
  <path d="M207 125 Q202 119 192 121 Q186 124 188 130 Q194 135 203 132 Q209 129 207 125 Z" fill="#5dd4f0" stroke="#2d263c" stroke-width="4" stroke-linejoin="round"/>
  <ellipse cx="197" cy="127" rx="5" ry="4" fill="#1a2a3a"/>
  <circle cx="199" cy="125" r="2" fill="white"/>

  <!-- 鼻 -->
  <ellipse cx="180" cy="138" rx="5" ry="3.5" fill="#b8d8e8" stroke="#2d263c" stroke-width="3"/>

  <!-- 口(ちょっとゆる顔) -->
  <path d="M172 146 Q180 152 188 146" fill="none" stroke="#2d263c" stroke-width="4" stroke-linecap="round"/>

  <!-- ほっぺ(水色ほんのり) -->
  <ellipse cx="150" cy="142" rx="13" ry="9" fill="#c2ecf8" opacity="0.55"/>
  <ellipse cx="210" cy="142" rx="13" ry="9" fill="#c2ecf8" opacity="0.55"/>

  <!-- しっぽ先端の青みアクセント -->
  <ellipse cx="62" cy="136" rx="10" ry="7" fill="#7dd4f0" stroke="#2d263c" stroke-width="4"/>
  <ellipse cx="87" cy="163" rx="9" ry="6" fill="#9adff5" stroke="#2d263c" stroke-width="3"/>
  <ellipse cx="298" cy="136" rx="10" ry="7" fill="#7dd4f0" stroke="#2d263c" stroke-width="4"/>
  <ellipse cx="273" cy="163" rx="9" ry="6" fill="#9adff5" stroke="#2d263c" stroke-width="3"/>
  <ellipse cx="180" cy="185" rx="8" ry="5" fill="#9adff5" stroke="#2d263c" stroke-width="3"/>
</svg>