<svg xmlns="http://www.w3.org/2000/svg" viewBox="0 0 360 360">
  <circle cx="235" cy="140" r="60" fill="#55708f" stroke="#2d263c" stroke-width="7"/>
  <rect x="227" y="55" width="16" height="30" rx="4" fill="#55708f" stroke="#2d263c" stroke-width="6" transform="rotate(0 235 140)"/>
  <rect x="227" y="55" width="16" height="30" rx="4" fill="#55708f" stroke="#2d263c" stroke-width="6" transform="rotate(60 235 140)"/>
  <rect x="227" y="55" width="16" height="30" rx="4" fill="#55708f" stroke="#2d263c" stroke-width="6" transform="rotate(120 235 140)"/>
  <rect x="227" y="55" width="16" height="30" rx="4" fill="#55708f" stroke="#2d263c" stroke-width="6" transform="rotate(180 235 140)"/>
  <rect x="227" y="55" width="16" height="30" rx="4" fill="#55708f" stroke="#2d263c" stroke-width="6" transform="rotate(240 235 140)"/>
  <rect x="227" y="55" width="16" height="30" rx="4" fill="#55708f" stroke="#2d263c" stroke-width="6" transform="rotate(300 235 140)"/>
  <circle cx="235" cy="140" r="12" fill="#34394a" stroke="#2d263c" stroke-width="5"/>
  <circle cx="150" cy="190" r="90" fill="#7fa0c0" stroke="#2d263c" stroke-width="8"/>
  <rect x="141" y="75" width="18" height="30" rx="4" fill="#7fa0c0" stroke="#2d263c" stroke-width="7" transform="rotate(0 150 190)"/>
  <rect x="141" y="75" width="18" height="30" rx="4" fill="#7fa0c0" stroke="#2d263c" stroke-width="7" transform="rotate(60 150 190)"/>
  <rect x="141" y="75" width="18" height="30" rx="4" fill="#7fa0c0" stroke="#2d263c" stroke-width="7" transform="rotate(120 150 190)"/>
  <rect x="141" y="75" width="18" height="30" rx="4" fill="#7fa0c0" stroke="#2d263c" stroke-width="7" transform="rotate(180 150 190)"/>
  <rect x="141" y="75" width="18" height="30" rx="4" fill="#7fa0c0" stroke="#2d263c" stroke-width="7" transform="rotate(240 150 190)"/>
  <rect x="141" y="75" width="18" height="30" rx="4" fill="#7fa0c0" stroke="#2d263c" stroke-width="7" transform="rotate(300 150 190)"/>
  <ellipse cx="105" cy="205" rx="14" ry="9" fill="#f4a9b0" opacity="0.6"/>
  <ellipse cx="195" cy="205" rx="14" ry="9" fill="#f4a9b0" opacity="0.6"/>
  <circle cx="118" cy="178" r="16" fill="#2d263c"/>
  <circle cx="182" cy="178" r="16" fill="#2d263c"/>
  <circle cx="122" cy="173" r="5" fill="#ffffff"/>
  <circle cx="186" cy="173" r="5" fill="#ffffff"/>
  <path d="M118,215 Q150,258 182,215 Q150,238 118,215 Z" fill="#2d263c"/>
  <path d="M124,217 L132,207 L140,217 L148,207 L156,217 L164,207 L172,217 L172,224 L124,224 Z" fill="#ffffff"/>
</svg>
