<svg xmlns="http://www.w3.org/2000/svg" viewBox="0 0 360 360">
  <path d="M82,296 L38,270 L56,296 L28,300 L52,316 L36,336 L86,308 Z" fill="#f0dc96" stroke="#2d263c" stroke-width="7" stroke-linejoin="round" stroke-linecap="round"/>
  <path d="M148,80 L160,38 L184,66 Z" fill="#f0dc96" stroke="#2d263c" stroke-width="6" stroke-linejoin="round"/>
  <path d="M200,62 L218,24 L236,62 Z" fill="#f0dc96" stroke="#2d263c" stroke-width="6" stroke-linejoin="round"/>
  <path d="M250,80 L278,52 L288,90 Z" fill="#f0dc96" stroke="#2d263c" stroke-width="6" stroke-linejoin="round"/>
  <path d="M288,126 L324,114 L308,154 Z" fill="#f0dc96" stroke="#2d263c" stroke-width="6" stroke-linejoin="round"/>
  <path d="M296,200 L330,212 L298,232 Z" fill="#f0dc96" stroke="#2d263c" stroke-width="6" stroke-linejoin="round"/>
  <path d="M256,266 L280,290 L238,288 Z" fill="#f0dc96" stroke="#2d263c" stroke-width="6" stroke-linejoin="round"/>
  <path d="M150,72 C205,42 278,68 300,135 C318,192 292,262 218,288 C178,302 150,300 118,306 L84,292 L108,272 C140,260 180,262 218,246 C258,230 272,192 256,158 C240,126 196,118 158,128 C152,112 148,92 150,72 Z" fill="#3e7bbf" stroke="#2d263c" stroke-width="8" stroke-linejoin="round" stroke-linecap="round"/>
  <path d="M162,120 C200,110 235,122 250,152 C266,182 268,196 262,214 C250,242 200,250 162,252 C148,253 138,254 128,256" fill="none" stroke="#f0dc96" stroke-width="18" stroke-linecap="round"/>
  <path d="M195,106 L197,123 M248,139 L237,151 M269,196 L255,199 M243,241 L234,228 M186,243 L184,259 M142,248 L139,262" fill="none" stroke="#2d263c" stroke-width="5" stroke-linecap="round"/>
  <path d="M148,68 L196,44 L184,84 L204,110 L152,122 Z" fill="#2c4f8c" stroke="#2d263c" stroke-width="7" stroke-linejoin="round"/>
  <path d="M76,54 L62,24 L84,38 L96,20 L110,40 L128,26 L120,58 Z" fill="#f5f1e6" stroke="#2d263c" stroke-width="6" stroke-linejoin="round"/>
  <path d="M158,70 C150,50 120,40 95,46 C70,52 52,68 44,90 C38,102 32,112 26,122 L98,132 C118,124 142,124 158,130 C166,112 164,88 158,70 Z" fill="#3e7bbf" stroke="#2d263c" stroke-width="8" stroke-linejoin="round" stroke-linecap="round"/>
  <path d="M26,122 L98,132 L96,156 L40,158 C32,146 28,134 26,122 Z" fill="#93384f" stroke="#2d263c" stroke-width="7" stroke-linejoin="round"/>
  <path d="M40,158 L96,154 C112,150 124,144 132,140 C140,156 134,172 118,180 C92,192 58,188 44,176 C36,170 36,164 40,158 Z" fill="#f0dc96" stroke="#2d263c" stroke-width="7" stroke-linejoin="round"/>
  <path d="M40,124 L48,142 L58,127 Z M68,128 L76,146 L86,130 Z M58,156 L66,140 L74,156 Z M84,153 L92,138 L100,152 Z" fill="#fdfaf2" stroke="#2d263c" stroke-width="4" stroke-linejoin="round"/>
  <ellipse cx="88" cy="90" rx="11" ry="9" fill="#ffffff" stroke="#2d263c" stroke-width="4"/>
  <circle cx="85" cy="92" r="4.5" fill="#d23b2f"/>
  <circle cx="84" cy="92" r="2" fill="#2d263c"/>
  <path d="M68,88 L104,74" fill="none" stroke="#2d263c" stroke-width="6" stroke-linecap="round"/>
  <circle cx="40" cy="104" r="3" fill="#2d263c"/>
  <path d="M36,98 C22,92 20,76 28,64" fill="none" stroke="#2d263c" stroke-width="8" stroke-linecap="round"/>
  <path d="M36,98 C22,92 20,76 28,64" fill="none" stroke="#f5f1e6" stroke-width="3.5" stroke-linecap="round"/>
  <path d="M48,182 C34,196 30,212 40,226" fill="none" stroke="#2d263c" stroke-width="8" stroke-linecap="round"/>
  <path d="M48,182 C34,196 30,212 40,226" fill="none" stroke="#f5f1e6" stroke-width="3.5" stroke-linecap="round"/>
</svg>