<svg xmlns="http://www.w3.org/2000/svg" viewBox="0 0 360 360">
  <ellipse cx="47" cy="230" rx="27" ry="38" fill="#7d7a72" stroke="#2d263c" stroke-width="7" stroke-linejoin="round" stroke-linecap="round"/>
  <ellipse cx="313" cy="230" rx="27" ry="38" fill="#7d7a72" stroke="#2d263c" stroke-width="7" stroke-linejoin="round" stroke-linecap="round"/>
  <path d="M100,45 L120,85 L145,30 L170,80 L195,25 L220,80 L245,35 L270,85 L300,110 L315,180 L300,250 L260,305 L180,330 L100,305 L60,250 L45,180 L60,110 Z" fill="#7d7a72" stroke="#2d263c" stroke-width="8" stroke-linejoin="round" stroke-linecap="round"/>
  <path d="M70,150 L110,140 L90,220 L55,200 Z" fill="#5f5c54"/>
  <path d="M290,150 L250,140 L270,220 L305,200 Z" fill="#5f5c54"/>
  <path d="M130,290 L230,290 L200,325 L160,325 Z" fill="#5f5c54"/>
  <circle cx="180" cy="210" r="26" fill="#e2632c" stroke="#2d263c" stroke-width="6"/>
  <path d="M165,195 L180,215 L200,198" fill="none" stroke="#2d263c" stroke-width="3" stroke-linejoin="round" stroke-linecap="round"/>
  <path d="M125,140 L165,150 L160,162 L120,155 Z" fill="#2d263c"/>
  <path d="M235,140 L195,150 L200,162 L240,155 Z" fill="#2d263c"/>
  <ellipse cx="150" cy="170" rx="13" ry="15" fill="#ffffff" stroke="#2d263c" stroke-width="5"/>
  <ellipse cx="210" cy="170" rx="13" ry="15" fill="#ffffff" stroke="#2d263c" stroke-width="5"/>
  <circle cx="150" cy="173" r="5" fill="#2d263c"/>
  <circle cx="210" cy="173" r="5" fill="#2d263c"/>
  <path d="M160,235 Q180,225 200,235" fill="none" stroke="#2d263c" stroke-width="7" stroke-linecap="round"/>
</svg>
