<svg xmlns="http://www.w3.org/2000/svg" viewBox="0 0 360 360">
  <rect x="171" y="58" width="18" height="42" rx="6" fill="#8b8f99" stroke="#2d263c" stroke-width="5" transform="rotate(0 180 180)"/>
  <rect x="171" y="58" width="18" height="42" rx="6" fill="#a9adb6" stroke="#2d263c" stroke-width="5" transform="rotate(36 180 180)"/>
  <rect x="171" y="58" width="18" height="42" rx="6" fill="#a9adb6" stroke="#2d263c" stroke-width="5" transform="rotate(72 180 180)"/>
  <rect x="171" y="58" width="18" height="42" rx="6" fill="#a9adb6" stroke="#2d263c" stroke-width="5" transform="rotate(108 180 180)"/>
  <rect x="171" y="58" width="18" height="42" rx="6" fill="#a9adb6" stroke="#2d263c" stroke-width="5" transform="rotate(144 180 180)"/>
  <rect x="171" y="58" width="18" height="42" rx="6" fill="#8b8f99" stroke="#2d263c" stroke-width="5" transform="rotate(180 180 180)"/>
  <rect x="171" y="58" width="18" height="42" rx="6" fill="#4f8fd9" stroke="#2d263c" stroke-width="5" transform="rotate(216 180 180)"/>
  <rect x="171" y="58" width="18" height="42" rx="6" fill="#4f8fd9" stroke="#2d263c" stroke-width="5" transform="rotate(252 180 180)"/>
  <rect x="171" y="58" width="18" height="42" rx="6" fill="#4f8fd9" stroke="#2d263c" stroke-width="5" transform="rotate(288 180 180)"/>
  <rect x="171" y="58" width="18" height="42" rx="6" fill="#4f8fd9" stroke="#2d263c" stroke-width="5" transform="rotate(324 180 180)"/>

  <path d="M180,80 A100,100 0 0,1 180,280 Z" fill="#b7bac2" stroke="#2d263c" stroke-width="7" stroke-linejoin="round"/>
  <path d="M180,80 A100,100 0 0,0 180,280 Z" fill="#5b8fce" stroke="#2d263c" stroke-width="7" stroke-linejoin="round"/>

  <polygon points="180,158 199,169 199,191 180,202 161,191 161,169" fill="#6b6f7a" stroke="#2d263c" stroke-width="5" stroke-linejoin="round"/>
  <circle cx="180" cy="180" r="7" fill="#2d263c"/>

  <circle cx="142" cy="205" r="6" fill="#7d8290" stroke="#2d263c" stroke-width="3"/>
  <circle cx="218" cy="205" r="6" fill="#7d8290" stroke="#2d263c" stroke-width="3"/>

  <circle cx="150" cy="150" r="9" fill="#1a1a1a"/>
  <circle cx="147" cy="147" r="3" fill="#ffffff"/>
  <circle cx="210" cy="150" r="9" fill="#1a1a1a"/>
  <circle cx="213" cy="147" r="3" fill="#ffffff"/>

  <path d="M165,215 Q180,226 195,215" fill="none" stroke="#2d263c" stroke-width="5" stroke-linecap="round"/>
</svg>
