<svg xmlns="http://www.w3.org/2000/svg" viewBox="0 0 360 360">
  <path d="M258 250 C300 240 305 210 300 195 C295 210 285 235 258 260 Z" fill="#4b3a6e" stroke="#2d263c" stroke-width="7" stroke-linejoin="round"/>
  <polygon points="300,173 305,188 321,188 308,198 313,213 300,204 287,213 292,198 279,188 295,188" fill="#e6def5" stroke="#2d263c" stroke-width="6" stroke-linejoin="round"/>
  <ellipse cx="150" cy="332" rx="17" ry="14" fill="#372a52" stroke="#2d263c" stroke-width="7"/>
  <ellipse cx="210" cy="332" rx="17" ry="14" fill="#372a52" stroke="#2d263c" stroke-width="7"/>
  <path d="M115 230 Q70 235 55 270 Q70 260 100 250 Z" fill="#4b3a6e" stroke="#2d263c" stroke-width="7" stroke-linejoin="round"/>
  <polygon points="55,262 59,273 70,273 61,280 65,291 55,284 45,291 49,280 40,273 51,273" fill="#e6def5" stroke="#2d263c" stroke-width="6" stroke-linejoin="round"/>
  <path d="M245 230 Q290 235 305 270 Q290 260 260 250 Z" fill="#4b3a6e" stroke="#2d263c" stroke-width="7" stroke-linejoin="round"/>
  <polygon points="305,262 309,273 320,273 311,280 315,291 305,284 295,291 299,280 290,273 301,273" fill="#e6def5" stroke="#2d263c" stroke-width="6" stroke-linejoin="round"/>
  <path d="M180 188 C118 193 88 230 93 273 C98 313 138 334 180 334 C222 334 262 313 267 273 C272 230 242 193 180 188 Z" fill="#4b3a6e" stroke="#2d263c" stroke-width="9" stroke-linejoin="round"/>
  <ellipse cx="180" cy="268" rx="46" ry="55" fill="#f1e9ff" stroke="#2d263c" stroke-width="6"/>
  <path d="M160 250 Q180 260 200 250" fill="none" stroke="#cdbef0" stroke-width="5" stroke-linecap="round"/>
  <path d="M160 280 Q180 292 200 280" fill="none" stroke="#cdbef0" stroke-width="5" stroke-linecap="round"/>
  <polygon points="70,95 100,70 108,125" fill="#372a52" stroke="#2d263c" stroke-width="7" stroke-linejoin="round"/>
  <polygon points="290,95 260,70 252,125" fill="#372a52" stroke="#2d263c" stroke-width="7" stroke-linejoin="round"/>
  <path d="M180 45 C130 45 95 80 95 118 C95 162 132 196 180 196 C228 196 265 162 265 118 C265 80 230 45 180 45 Z" fill="#4b3a6e" stroke="#2d263c" stroke-width="8" stroke-linejoin="round"/>
  <polygon points="163,48 180,8 197,48" fill="#372a52" stroke="#2d263c" stroke-width="7" stroke-linejoin="round"/>
  <polygon points="95,135 104,162 133,163 110,180 119,207 95,191 71,207 80,180 57,163 86,162" fill="#e6def5" stroke="#2d263c" stroke-width="6" stroke-linejoin="round"/>
  <polygon points="265,135 274,162 303,163 280,180 289,207 265,191 241,207 250,180 227,163 256,162" fill="#e6def5" stroke="#2d263c" stroke-width="6" stroke-linejoin="round"/>
  <polygon points="128,98 168,92 168,102 132,108" fill="#2d263c"/>
  <polygon points="232,98 192,92 192,102 228,108" fill="#2d263c"/>
  <ellipse cx="150" cy="122" rx="17" ry="19" fill="#fffbe8" stroke="#2d263c" stroke-width="6"/>
  <circle cx="150" cy="126" r="9" fill="#f2c14e"/>
  <circle cx="150" cy="128" r="4" fill="#2d263c"/>
  <ellipse cx="210" cy="122" rx="17" ry="19" fill="#fffbe8" stroke="#2d263c" stroke-width="6"/>
  <circle cx="210" cy="126" r="9" fill="#f2c14e"/>
  <circle cx="210" cy="128" r="4" fill="#2d263c"/>
  <path d="M132 150 Q180 190 228 150 Q200 172 180 166 Q160 172 132 150 Z" fill="#6b1f2e" stroke="#2d263c" stroke-width="7" stroke-linejoin="round"/>
  <polygon points="170,158 190,158 180,174" fill="#fffbe8"/>
</svg>
