<svg xmlns="http://www.w3.org/2000/svg" viewBox="0 0 360 360">
<ellipse cx="185" cy="230" rx="70" ry="40" fill="#fdf6ee" stroke="#2d263c" stroke-width="7" stroke-linejoin="round"/>
<path d="M120 210 Q90 130 130 90 Q150 70 175 85 Q160 110 170 140 Q140 170 120 210 Z" fill="#fdf6ee" stroke="#2d263c" stroke-width="7" stroke-linejoin="round" stroke-linecap="round"/>
<path d="M155 95 Q180 40 165 25 Q195 35 190 70 Q185 90 165 100 Z" fill="#eaf6ff" stroke="#2d263c" stroke-width="6" stroke-linejoin="round" stroke-linecap="round"/>
<circle cx="140" cy="105" r="6" fill="#2d263c"/>
<path d="M225 195 Q270 150 300 90 Q310 70 300 55 Q320 75 315 105 Q300 160 250 205 Z" fill="#ff6fb0" stroke="#2d263c" stroke-width="7" stroke-linejoin="round" stroke-linecap="round"/>
<path d="M240 175 Q290 145 315 100 Q330 85 325 65 Q345 90 335 120 Q315 165 260 190 Z" fill="#ffb0d8" stroke="#2d263c" stroke-width="6" stroke-linejoin="round" stroke-linecap="round"/>
<path d="M215 205 Q255 190 280 220 Q290 240 275 250 Q255 225 225 225 Z" fill="#ff6fb0" stroke="#2d263c" stroke-width="6" stroke-linejoin="round" stroke-linecap="round"/>
<rect x="130" y="255" width="16" height="55" rx="7" fill="#fdf6ee" stroke="#2d263c" stroke-width="7" stroke-linejoin="round"/>
<rect x="165" y="262" width="16" height="55" rx="7" fill="#fdf6ee" stroke="#2d263c" stroke-width="7" stroke-linejoin="round"/>
<rect x="200" y="262" width="16" height="55" rx="7" fill="#fdf6ee" stroke="#2d263c" stroke-width="7" stroke-linejoin="round"/>
<rect x="228" y="255" width="16" height="55" rx="7" fill="#fdf6ee" stroke="#2d263c" stroke-width="7" stroke-linejoin="round"/>
<ellipse cx="138" cy="312" rx="12" ry="8" fill="#ff9fc9" stroke="#2d263c" stroke-width="6" stroke-linejoin="round"/>
<ellipse cx="173" cy="319" rx="12" ry="8" fill="#ff9fc9" stroke="#2d263c" stroke-width="6" stroke-linejoin="round"/>
<ellipse cx="208" cy="319" rx="12" ry="8" fill="#ff9fc9" stroke="#2d263c" stroke-width="6" stroke-linejoin="round"/>
<ellipse cx="236" cy="312" rx="12" ry="8" fill="#ff9fc9" stroke="#2d263c" stroke-width="6" stroke-linejoin="round"/>
<path d="M240 235 Q265 250 260 275 Q255 260 235 255 Z" fill="#ff6fb0" stroke="#2d263c" stroke-width="6" stroke-linejoin="round" stroke-linecap="round"/>
<ellipse cx="132" cy="140" rx="7" ry="9" fill="#ffb0d8" stroke="#2d263c" stroke-width="4" stroke-linejoin="round"/>
</svg>
