<svg xmlns="http://www.w3.org/2000/svg" viewBox="0 0 360 360">
<g stroke="#2d263c" stroke-width="7" stroke-linejoin="round" stroke-linecap="round">
<path d="M238 218 Q298 210 302 250 Q302 272 280 270 Q260 262 244 240 Z" fill="#9a6248"/>
<path d="M282 252 Q304 256 300 272 Q284 270 278 260 Z" fill="#2d263c"/>
<ellipse cx="175" cy="215" rx="65" ry="48" fill="#9a6248"/>
<ellipse cx="175" cy="226" rx="35" ry="38" fill="#ecd6b0"/>
<ellipse cx="135" cy="165" rx="48" ry="42" fill="#9a6248"/>
<path d="M108 132 Q96 94 116 88 Q130 110 130 140 Z" fill="#9a6248"/>
<path d="M158 130 Q172 94 188 100 Q180 124 162 142 Z" fill="#9a6248"/>
<path d="M112 108 Q108 98 117 99 Z" fill="#ecd6b0"/>
<path d="M172 112 Q177 102 168 104 Z" fill="#ecd6b0"/>
<ellipse cx="118" cy="180" rx="22" ry="18" fill="#ecd6b0"/>
<path d="M118 152 Q127 148 133 155" fill="none"/>
<path d="M142 152 Q151 148 157 155" fill="none"/>
<circle cx="106" cy="176" r="4" fill="#2d263c"/>
<path d="M108 187 Q101 194 95 189" fill="none"/>
<path d="M140 256 L134 283 M162 258 L160 285" fill="none"/>
<path d="M200 258 L202 285 M222 256 L228 283" fill="none"/>
</g>
</svg>