<svg xmlns="http://www.w3.org/2000/svg" viewBox="0 0 360 360">
<g stroke="#2d263c" stroke-width="7" stroke-linejoin="round" stroke-linecap="round">
  <ellipse cx="245" cy="298" rx="20" ry="16" fill="#345d8a"/>
  <ellipse cx="123" cy="96" rx="33" ry="39" fill="#a8def6"/>
  <ellipse cx="237" cy="96" rx="33" ry="39" fill="#a8def6"/>
  <ellipse cx="180" cy="266" rx="90" ry="76" fill="#a8def6"/>
  <ellipse cx="138" cy="333" rx="29" ry="20" fill="#345d8a"/>
  <ellipse cx="222" cy="333" rx="29" ry="20" fill="#345d8a"/>
  <ellipse cx="88" cy="248" rx="27" ry="43" transform="rotate(-18 88 248)" fill="#a8def6"/>
  <ellipse cx="272" cy="248" rx="27" ry="43" transform="rotate(18 272 248)" fill="#a8def6"/>
  <circle cx="76" cy="288" r="21" fill="#345d8a"/>
  <circle cx="284" cy="288" r="21" fill="#345d8a"/>
  <circle cx="180" cy="156" r="93" fill="#a8def6"/>
  <ellipse cx="123" cy="86" rx="14" ry="18" fill="#345d8a"/>
  <ellipse cx="237" cy="86" rx="14" ry="18" fill="#345d8a"/>
  <path d="M112,112 Q100,150 116,192" fill="none" stroke-width="9"/>
  <path d="M112,112 Q100,150 116,192" fill="#345d8a" stroke="none"/>
  <path d="M248,112 Q260,150 244,192" fill="none" stroke-width="9"/>
  <path d="M248,112 Q260,150 244,192" fill="#345d8a" stroke="none"/>
  <path d="M142,100 Q180,78 218,100 Q180,92 142,100Z" fill="#345d8a"/>
  <ellipse cx="180" cy="292" rx="42" ry="46" fill="#eef6e9"/>
  <ellipse cx="150" cy="151" rx="13" ry="17" fill="#201c2e"/>
  <ellipse cx="210" cy="151" rx="13" ry="17" fill="#201c2e"/>
  <circle cx="154" cy="144" r="4" fill="#ffffff" stroke="none"/>
  <circle cx="214" cy="144" r="4" fill="#ffffff" stroke="none"/>
  <ellipse cx="180" cy="186" rx="35" ry="27" fill="#eaf7fc"/>
  <path d="M167,209 Q180,199 193,209 L188,244 Q180,255 172,244 Z" fill="#cdeefb"/>
</g>
</svg>
