<svg xmlns="http://www.w3.org/2000/svg" viewBox="0 0 360 360">
<path d="M180,90 C245,98 300,118 332,150 C300,182 245,202 180,198 C115,202 60,182 28,150 C60,118 115,98 180,90 Z" fill="#1f3b57" stroke="#2d263c" stroke-width="7" stroke-linejoin="round"/>
<line x1="180" y1="98" x2="180" y2="190" stroke="#2d263c" stroke-width="6" stroke-linecap="round"/>
<path d="M120,118 L136,118 L120,142 L138,142 L104,176 L120,144 L102,144 Z" fill="#ffe066" stroke="#2d263c" stroke-width="6" stroke-linejoin="round"/>
<path d="M240,118 L224,118 L240,142 L222,142 L256,176 L240,144 L258,144 Z" fill="#ffe066" stroke="#2d263c" stroke-width="6" stroke-linejoin="round"/>
<circle cx="30" cy="150" r="10" fill="#ffe066" stroke="#2d263c" stroke-width="6"/>
<circle cx="330" cy="150" r="10" fill="#ffe066" stroke="#2d263c" stroke-width="6"/>
<ellipse cx="180" cy="232" rx="38" ry="44" fill="#16283d" stroke="#2d263c" stroke-width="7"/>
<circle cx="180" cy="290" r="32" fill="#1f3b57" stroke="#2d263c" stroke-width="7"/>
<circle cx="166" cy="284" r="11" fill="#d1483d" stroke="#2d263c" stroke-width="6"/>
<circle cx="194" cy="284" r="11" fill="#d1483d" stroke="#2d263c" stroke-width="6"/>
<line x1="172" y1="306" x2="188" y2="306" stroke="#2d263c" stroke-width="6" stroke-linecap="round"/>
<path d="M158,306 C124,304 100,320 100,344 C112,326 134,312 160,314 C150,318 146,326 150,332 C160,320 172,310 180,308 Z" fill="#f4d35e" stroke="#2d263c" stroke-width="7" stroke-linejoin="round"/>
<path d="M202,306 C236,304 260,320 260,344 C248,326 226,312 200,314 C210,318 214,326 210,332 C200,320 188,310 180,308 Z" fill="#f4d35e" stroke="#2d263c" stroke-width="7" stroke-linejoin="round"/>
<path d="M148,210 Q110,215 92,235" fill="none" stroke="#2d263c" stroke-width="7" stroke-linecap="round"/>
<path d="M144,232 Q100,238 82,258" fill="none" stroke="#2d263c" stroke-width="7" stroke-linecap="round"/>
<path d="M148,254 Q108,264 94,284" fill="none" stroke="#2d263c" stroke-width="7" stroke-linecap="round"/>
<path d="M212,210 Q250,215 268,235" fill="none" stroke="#2d263c" stroke-width="7" stroke-linecap="round"/>
<path d="M216,232 Q260,238 278,258" fill="none" stroke="#2d263c" stroke-width="7" stroke-linecap="round"/>
<path d="M212,254 Q252,264 266,284" fill="none" stroke="#2d263c" stroke-width="7" stroke-linecap="round"/>
<path d="M70,39 L75,50 L86,55 L75,60 L70,71 L65,60 L54,55 L65,50 Z" fill="#ffe066" stroke="#2d263c" stroke-width="6" stroke-linejoin="round"/>
<path d="M290,39 L285,50 L274,55 L285,60 L290,71 L295,60 L306,55 L295,50 Z" fill="#ffe066" stroke="#2d263c" stroke-width="6" stroke-linejoin="round"/>
<path d="M180,26 L185,33 L194,40 L185,47 L180,54 L175,47 L166,40 L175,33 Z" fill="#ffe066" stroke="#2d263c" stroke-width="6" stroke-linejoin="round"/>
</svg>
