<svg xmlns="http://www.w3.org/2000/svg" viewBox="0 0 360 360">
  <ellipse cx="110" cy="255" rx="14" ry="20" fill="#d9482f" stroke="#2d263c" stroke-width="7" stroke-linejoin="round" stroke-linecap="round"/>
  <ellipse cx="145" cy="272" rx="13" ry="19" fill="#d9482f" stroke="#2d263c" stroke-width="7" stroke-linejoin="round" stroke-linecap="round"/>
  <ellipse cx="215" cy="272" rx="13" ry="19" fill="#d9482f" stroke="#2d263c" stroke-width="7" stroke-linejoin="round" stroke-linecap="round"/>
  <ellipse cx="250" cy="255" rx="14" ry="20" fill="#d9482f" stroke="#2d263c" stroke-width="7" stroke-linejoin="round" stroke-linecap="round"/>

  <ellipse cx="75" cy="205" rx="28" ry="16" fill="#e8543c" stroke="#2d263c" stroke-width="7" stroke-linejoin="round" transform="rotate(-20 75 205)"/>
  <ellipse cx="45" cy="195" rx="20" ry="14" fill="#f06a4e" stroke="#2d263c" stroke-width="7" stroke-linejoin="round"/>
  <path d="M 30 190 Q 14 184 20 173" fill="none" stroke="#2d263c" stroke-width="6" stroke-linecap="round"/>

  <ellipse cx="180" cy="200" rx="95" ry="62" fill="#f06a4e" stroke="#2d263c" stroke-width="8" stroke-linejoin="round"/>

  <path d="M 130 165 Q 180 150 230 165" fill="none" stroke="#2d263c" stroke-width="6" stroke-linecap="round" opacity="0.45"/>
  <path d="M 120 215 Q 180 230 240 215" fill="none" stroke="#c23f2a" stroke-width="6" stroke-linecap="round" opacity="0.4"/>

  <ellipse cx="150" cy="150" rx="16" ry="20" fill="#f06a4e" stroke="#2d263c" stroke-width="7"/>
  <ellipse cx="195" cy="150" rx="16" ry="20" fill="#f06a4e" stroke="#2d263c" stroke-width="7"/>

  <circle cx="150" cy="138" r="13" fill="#ffffff" stroke="#2d263c" stroke-width="6"/>
  <circle cx="195" cy="138" r="13" fill="#ffffff" stroke="#2d263c" stroke-width="6"/>
  <circle cx="152" cy="140" r="6" fill="#2d263c"/>
  <circle cx="197" cy="140" r="6" fill="#2d263c"/>

  <path d="M 165 195 Q 180 206 195 195" fill="none" stroke="#2d263c" stroke-width="6" stroke-linecap="round"/>

  <ellipse cx="270" cy="200" rx="35" ry="20" fill="#e8543c" stroke="#2d263c" stroke-width="8" stroke-linejoin="round" transform="rotate(15 270 200)"/>

  <ellipse cx="320" cy="185" rx="42" ry="38" fill="#f06a4e" stroke="#2d263c" stroke-width="8" stroke-linejoin="round"/>
  <path d="M 300 155 Q 330 128 347 150 Q 326 155 308 166 Z" fill="#f06a4e" stroke="#2d263c" stroke-width="7" stroke-linejoin="round"/>
  <path d="M 300 216 Q 330 242 347 220 Q 326 214 308 204 Z" fill="#f06a4e" stroke="#2d263c" stroke-width="7" stroke-linejoin="round"/>
</svg>
