<svg xmlns="http://www.w3.org/2000/svg" viewBox="0 0 360 360">
  <!-- 後ろの翼(左) -->
  <ellipse cx="88" cy="195" rx="52" ry="22" fill="#7ecfdc" stroke="#2d263c" stroke-width="6" stroke-linejoin="round" transform="rotate(-30 88 195)"/>
  <!-- 後ろの翼(右) -->
  <ellipse cx="272" cy="195" rx="52" ry="22" fill="#7ecfdc" stroke="#2d263c" stroke-width="6" stroke-linejoin="round" transform="rotate(30 272 195)"/>

  <!-- しっぽヒレ左 -->
  <path d="M148 295 Q130 335 115 320 Q125 300 148 295Z" fill="#5bbfce" stroke="#2d263c" stroke-width="6" stroke-linejoin="round" stroke-linecap="round"/>
  <!-- しっぽヒレ右 -->
  <path d="M212 295 Q230 335 245 320 Q235 300 212 295Z" fill="#5bbfce" stroke="#2d263c" stroke-width="6" stroke-linejoin="round" stroke-linecap="round"/>

  <!-- 体 -->
  <path d="M135 170 Q118 200 120 240 Q122 280 148 300 Q175 315 212 300 Q238 280 240 240 Q242 200 225 170 Q210 145 180 142 Q150 145 135 170Z" fill="#6dccd8" stroke="#2d263c" stroke-width="8" stroke-linejoin="round"/>

  <!-- 腹部(明るい色) -->
  <path d="M152 195 Q150 230 152 265 Q162 282 180 285 Q198 282 208 265 Q210 230 208 195 Q200 182 180 180 Q160 182 152 195Z" fill="#c8f0f4" stroke="none"/>

  <!-- 体の縞模様 -->
  <path d="M153 210 Q180 207 207 210" fill="none" stroke="#4aaec0" stroke-width="4" stroke-linecap="round"/>
  <path d="M152 228 Q180 225 208 228" fill="none" stroke="#4aaec0" stroke-width="4" stroke-linecap="round"/>
  <path d="M153 246 Q180 243 207 246" fill="none" stroke="#4aaec0" stroke-width="4" stroke-linecap="round"/>

  <!-- 首 -->
  <path d="M158 155 Q155 165 135 170 Q155 168 180 167 Q205 168 225 170 Q205 165 202 155Z" fill="#6dccd8" stroke="none"/>

  <!-- エジプト頭飾り(ネメス)左パネル -->
  <path d="M155 112 Q128 108 118 130 Q115 148 132 158 Q148 165 158 155Z" fill="#f0c830" stroke="#2d263c" stroke-width="7" stroke-linejoin="round"/>
  <!-- エジプト頭飾り(ネメス)右パネル -->
  <path d="M205 112 Q232 108 242 130 Q245 148 228 158 Q212 165 202 155Z" fill="#f0c830" stroke="#2d263c" stroke-width="7" stroke-linejoin="round"/>
  <!-- 頭飾り上部メインプレート -->
  <path d="M148 78 Q150 60 180 56 Q210 60 212 78 Q215 100 212 112 Q200 118 180 118 Q160 118 148 112 Q145 100 148 78Z" fill="#f0c830" stroke="#2d263c" stroke-width="7" stroke-linejoin="round"/>
  <!-- 頭飾りの装飾ライン -->
  <path d="M158 68 Q180 65 202 68" fill="none" stroke="#c8991a" stroke-width="3" stroke-linecap="round"/>
  <path d="M155 80 Q180 77 205 80" fill="none" stroke="#c8991a" stroke-width="3" stroke-linecap="round"/>

  <!-- 頭 -->
  <ellipse cx="180" cy="140" rx="40" ry="34" fill="#6dccd8" stroke="#2d263c" stroke-width="8" stroke-linejoin="round"/>

  <!-- ほっぺ(左) -->
  <ellipse cx="150" cy="150" rx="10" ry="8" fill="#f080a8" stroke="none"/>
  <!-- ほっぺ(右) -->
  <ellipse cx="210" cy="150" rx="10" ry="8" fill="#f080a8" stroke="none"/>

  <!-- 目(左) -->
  <ellipse cx="163" cy="138" rx="12" ry="13" fill="white" stroke="#2d263c" stroke-width="5"/>
  <circle cx="166" cy="140" r="7" fill="#2d263c"/>
  <circle cx="168" cy="137" r="2.5" fill="white"/>
  <!-- まつ毛(左) -->
  <path d="M155 128 Q158 122 163 125" fill="none" stroke="#2d263c" stroke-width="3.5" stroke-linecap="round"/>

  <!-- 目(右) -->
  <ellipse cx="197" cy="138" rx="12" ry="13" fill="white" stroke="#2d263c" stroke-width="5"/>
  <circle cx="200" cy="140" r="7" fill="#2d263c"/>
  <circle cx="202" cy="137" r="2.5" fill="white"/>
  <!-- まつ毛(右) -->
  <path d="M197 126 Q202 120 208 124" fill="none" stroke="#2d263c" stroke-width="3.5" stroke-linecap="round"/>

  <!-- 鼻 -->
  <ellipse cx="180" cy="153" rx="4" ry="3" fill="#4aaec0" stroke="none"/>

  <!-- 口(ニコッと) -->
  <path d="M169 162 Q180 170 191 162" fill="none" stroke="#2d263c" stroke-width="4" stroke-linecap="round"/>

  <!-- 前ひれ(左) -->
  <path d="M132 188 Q108 178 100 196 Q106 212 130 208 Q134 200 132 188Z" fill="#5bbfce" stroke="#2d263c" stroke-width="6" stroke-linejoin="round"/>
  <!-- 前ひれ(右) -->
  <path d="M228 188 Q252 178 260 196 Q254 212 230 208 Q226 200 228 188Z" fill="#5bbfce" stroke="#2d263c" stroke-width="6" stroke-linejoin="round"/>

  <!-- 頭飾り上の宝石/装飾 -->
  <ellipse cx="180" cy="60" rx="8" ry="6" fill="#ff6060" stroke="#2d263c" stroke-width="3"/>
</svg>