<svg xmlns="http://www.w3.org/2000/svg" viewBox="0 0 360 360">
  <!-- 尻尾のふくらみ(後ろ) -->
  <path d="M258 168 C310 158 338 190 322 226 C312 250 276 248 262 226 C250 206 246 182 258 168 Z" fill="#efe0c0" stroke="#2d263c" stroke-width="7" stroke-linejoin="round" stroke-linecap="round"/>

  <!-- 後ろ足2本 -->
  <path d="M222 250 L262 250 Q270 250 270 262 L268 300 Q268 310 256 310 L228 310 Q218 310 218 300 L216 262 Q216 250 222 250 Z" fill="#efe0c0" stroke="#2d263c" stroke-width="7" stroke-linejoin="round" stroke-linecap="round"/>
  <path d="M170 256 L206 256 Q214 256 214 266 L212 300 Q212 310 202 310 L178 310 Q168 310 168 300 L166 266 Q166 256 170 256 Z" fill="#efe0c0" stroke="#2d263c" stroke-width="7" stroke-linejoin="round" stroke-linecap="round"/>

  <!-- タイヤ(車輪状の尻尾の先) -->
  <circle cx="286" cy="205" r="48" fill="#2d263c" stroke="#2d263c" stroke-width="7"/>
  <circle cx="286" cy="205" r="28" fill="#e8542a" stroke="#2d263c" stroke-width="6"/>
  <circle cx="286" cy="205" r="10" fill="#ffd23f" stroke="#2d263c" stroke-width="5"/>
  <path d="M286 165 L286 178" stroke="#efe0c0" stroke-width="7" stroke-linecap="round"/>
  <path d="M286 232 L286 245" stroke="#efe0c0" stroke-width="7" stroke-linecap="round"/>
  <path d="M246 205 L259 205" stroke="#efe0c0" stroke-width="7" stroke-linecap="round"/>

  <!-- 前足(小さめ) -->
  <path d="M140 220 Q158 216 162 240 Q166 264 150 272 Q132 274 126 254 Q122 230 140 220 Z" fill="#efe0c0" stroke="#2d263c" stroke-width="7" stroke-linejoin="round" stroke-linecap="round"/>

  <!-- 胴体本体 -->
  <ellipse cx="196" cy="192" rx="98" ry="66" fill="#efe0c0" stroke="#2d263c" stroke-width="8"/>

  <!-- おなか(明るい色) -->
  <ellipse cx="196" cy="228" rx="66" ry="32" fill="#f9f3e3" stroke="none"/>

  <!-- 背中のオレンジのこぶ(サドル状) -->
  <path d="M158 140 Q214 108 250 140 Q262 158 244 170 Q196 186 152 168 Q140 154 158 140 Z" fill="#e8542a" stroke="#2d263c" stroke-width="7" stroke-linejoin="round" stroke-linecap="round"/>
  <path d="M170 148 Q200 138 232 150" fill="none" stroke="#2d263c" stroke-width="4" stroke-linecap="round" stroke-dasharray="4 8"/>

  <!-- 体の縞模様 -->
  <path d="M150 190 Q182 200 150 232" fill="none" stroke="#c9a96e" stroke-width="6" stroke-linecap="round"/>
  <path d="M245 180 Q272 195 250 218" fill="none" stroke="#c9a96e" stroke-width="6" stroke-linecap="round"/>

  <!-- 頭 -->
  <ellipse cx="98" cy="142" rx="58" ry="50" fill="#efe0c0" stroke="#2d263c" stroke-width="8"/>

  <!-- 鼻先(マズル) -->
  <ellipse cx="52" cy="158" rx="28" ry="22" fill="#efe0c0" stroke="#2d263c" stroke-width="7"/>

  <!-- ツノ(耳) -->
  <path d="M72 98 L88 52 L104 96 Q86 88 72 98 Z" fill="#4a4a4a" stroke="#2d263c" stroke-width="6" stroke-linejoin="round"/>
  <path d="M104 94 L124 60 L134 100 Q118 92 104 94 Z" fill="#4a4a4a" stroke="#2d263c" stroke-width="6" stroke-linejoin="round"/>

  <!-- 目の周りのゴーグル模様 -->
  <ellipse cx="94" cy="126" rx="28" ry="20" fill="#c0392b" stroke="#2d263c" stroke-width="6"/>

  <!-- 目 -->
  <ellipse cx="90" cy="124" rx="14" ry="14" fill="#ffd23f" stroke="#2d263c" stroke-width="5"/>
  <circle cx="86" cy="124" r="6" fill="#2d263c"/>

  <!-- 鼻の穴 -->
  <circle cx="32" cy="152" r="4" fill="#2d263c"/>

  <!-- 口 -->
  <path d="M38 178 Q56 186 78 174" fill="none" stroke="#2d263c" stroke-width="6" stroke-linecap="round"/>
</svg>
