<svg xmlns="http://www.w3.org/2000/svg" viewBox="0 0 360 360">
<path d="M178 92 Q220 92 232 132 Q252 162 246 202 Q262 232 240 262 Q210 286 174 276 Q164 252 174 242 Q150 232 156 208 Q134 182 150 162 Q140 132 166 116 Q166 100 178 92 Z" fill="#8a6a4a" stroke="#2d263c" stroke-width="8" stroke-linejoin="round"/>
<path d="M232 132 Q274 122 290 142 Q294 158 278 162 Q256 156 232 146 Z" fill="#6b8a3a" stroke="#2d263c" stroke-width="6" stroke-linejoin="round"/>
<path d="M156 162 Q118 152 108 168 Q108 184 124 184 Q146 178 156 172 Z" fill="#6b8a3a" stroke="#2d263c" stroke-width="6" stroke-linejoin="round"/>
<path d="M150 108 Q144 86 166 80 Q182 86 176 102" fill="#6b8a3a" stroke="#2d263c" stroke-width="5" stroke-linejoin="round"/>
<path d="M246 202 Q276 210 272 232 Q256 238 246 224" fill="#6b8a3a" stroke="#2d263c" stroke-width="5" stroke-linejoin="round"/>
<ellipse cx="178" cy="132" rx="11" ry="9" fill="#fff" stroke="#2d263c" stroke-width="4"/>
<circle cx="180" cy="134" r="5" fill="#2d263c"/>
<path d="M240 262 Q260 282 244 302 Q228 306 218 290" fill="none" stroke="#2d263c" stroke-width="6" stroke-linecap="round"/>
<circle cx="202" cy="172" r="4" fill="#5a4530"/>
<circle cx="186" cy="192" r="3" fill="#5a4530"/>
<circle cx="216" cy="200" r="3" fill="#5a4530"/>
<circle cx="172" cy="218" r="3" fill="#5a4530"/>
</svg>
