<svg xmlns="http://www.w3.org/2000/svg" viewBox="0 0 360 360">
  <ellipse cx="180" cy="195" rx="118" ry="112" fill="#bfe4f5" opacity="0.4"/>
  <path d="M172,266 C160,285 140,300 118,315 C112,320 108,326 104,333 C122,322 145,305 165,285 C170,278 172,273 172,266 Z" fill="#fdf6e3" stroke="#2d263c" stroke-width="7" stroke-linejoin="round" stroke-linecap="round"/>
  <path d="M118,315 C112,320 108,326 104,333 C110,330 120,323 128,313 Z" fill="#f0c94e" stroke="#2d263c" stroke-width="6" stroke-linejoin="round" stroke-linecap="round"/>
  <path d="M188,266 C200,285 220,300 242,315 C248,320 252,326 256,333 C238,322 215,305 195,285 C190,278 188,273 188,266 Z" fill="#fdf6e3" stroke="#2d263c" stroke-width="7" stroke-linejoin="round" stroke-linecap="round"/>
  <path d="M242,315 C248,320 252,326 256,333 C250,330 240,323 232,313 Z" fill="#f0c94e" stroke="#2d263c" stroke-width="6" stroke-linejoin="round" stroke-linecap="round"/>
  <path d="M180,105 C225,105 258,140 258,185 C258,225 235,255 195,272 C188,275 172,275 165,272 C125,255 102,225 102,185 C102,140 135,105 180,105 Z" fill="#fdf6e3" stroke="#2d263c" stroke-width="8" stroke-linejoin="round" stroke-linecap="round"/>
  <path d="M102,150 C85,155 75,175 80,200 C90,190 100,175 108,165 Z" fill="#fdf6e3" stroke="#2d263c" stroke-width="6" stroke-linejoin="round" stroke-linecap="round"/>
  <path d="M258,150 C275,155 285,175 280,200 C270,190 260,175 252,165 Z" fill="#fdf6e3" stroke="#2d263c" stroke-width="6" stroke-linejoin="round" stroke-linecap="round"/>
  <path d="M150,115 C120,95 95,70 82,45 C108,50 140,68 168,100 C168,105 158,112 150,115 Z" fill="#f0c94e" stroke="#2d263c" stroke-width="7" stroke-linejoin="round" stroke-linecap="round"/>
  <path d="M210,115 C240,95 265,70 278,45 C252,50 220,68 192,100 C192,105 202,112 210,115 Z" fill="#f0c94e" stroke="#2d263c" stroke-width="7" stroke-linejoin="round" stroke-linecap="round"/>
  <ellipse cx="180" cy="118" rx="42" ry="11" fill="#f0c94e" stroke="#2d263c" stroke-width="6" stroke-linejoin="round" stroke-linecap="round"/>
  <path d="M180,132 L191,143 L180,154 L169,143 Z" fill="#f0c94e" stroke="#2d263c" stroke-width="6" stroke-linejoin="round" stroke-linecap="round"/>
  <ellipse cx="163" cy="155" rx="8" ry="12" fill="#d6336c" stroke="#2d263c" stroke-width="6" stroke-linejoin="round" stroke-linecap="round"/>
  <ellipse cx="197" cy="155" rx="8" ry="12" fill="#d6336c" stroke="#2d263c" stroke-width="6" stroke-linejoin="round" stroke-linecap="round"/>
  <path d="M170,182 Q180,190 190,182" fill="none" stroke="#2d263c" stroke-width="6" stroke-linecap="round"/>
  <path d="M180,198 L192,210 L180,222 L168,210 Z" fill="#f0c94e" stroke="#2d263c" stroke-width="6" stroke-linejoin="round" stroke-linecap="round"/>
</svg>
