<svg xmlns="http://www.w3.org/2000/svg" viewBox="0 0 360 360">
  <!-- feet -->
  <ellipse cx="145" cy="310" rx="26" ry="14" fill="#2b2b3a" stroke="#2d263c" stroke-width="7" stroke-linejoin="round"/>
  <ellipse cx="215" cy="310" rx="26" ry="14" fill="#2b2b3a" stroke="#2d263c" stroke-width="7" stroke-linejoin="round"/>
  <!-- tail -->
  <path d="M255 255 Q305 240 295 200 Q280 235 245 245 Z" fill="#3a6fd8" stroke="#2d263c" stroke-width="7" stroke-linejoin="round"/>
  <!-- body -->
  <ellipse cx="180" cy="235" rx="90" ry="80" fill="#3a6fd8" stroke="#2d263c" stroke-width="8" stroke-linejoin="round"/>
  <!-- belly -->
  <ellipse cx="180" cy="255" rx="52" ry="55" fill="#fdfdfb" stroke="#2d263c" stroke-width="6" stroke-linejoin="round"/>
  <!-- arms -->
  <ellipse cx="98" cy="230" rx="20" ry="34" fill="#3a6fd8" stroke="#2d263c" stroke-width="7" stroke-linejoin="round"/>
  <ellipse cx="262" cy="230" rx="20" ry="34" fill="#3a6fd8" stroke="#2d263c" stroke-width="7" stroke-linejoin="round"/>
  <!-- neck feather crest -->
  <path d="M120 175 Q180 205 240 175 Q225 200 180 210 Q135 200 120 175 Z" fill="#fdfdfb" stroke="#2d263c" stroke-width="6" stroke-linejoin="round"/>
  <!-- head -->
  <circle cx="180" cy="140" r="78" fill="#3a6fd8" stroke="#2d263c" stroke-width="8"/>
  <!-- head crest tuft -->
  <path d="M150 70 Q160 20 185 35 Q195 10 215 40 Q235 25 230 65 Q205 45 180 60 Q165 50 150 70 Z" fill="#ffb545" stroke="#2d263c" stroke-width="7" stroke-linejoin="round"/>
  <!-- face mask -->
  <path d="M115 140 Q120 175 155 185 Q140 155 145 130 Z" fill="#295bc4" stroke="#2d263c" stroke-width="0"/>
  <!-- eyes -->
  <circle cx="152" cy="140" r="11" fill="#2d263c"/>
  <circle cx="212" cy="140" r="11" fill="#2d263c"/>
  <circle cx="156" cy="136" r="3.5" fill="#fdfdfb"/>
  <circle cx="216" cy="136" r="3.5" fill="#fdfdfb"/>
  <!-- bill -->
  <path d="M150 160 Q180 150 210 160 Q200 185 180 188 Q160 185 150 160 Z" fill="#2b2b3a" stroke="#2d263c" stroke-width="6" stroke-linejoin="round"/>
  <line x1="180" y1="160" x2="180" y2="182" stroke="#4a4a5c" stroke-width="3"/>
  <!-- cheeks -->
  <circle cx="128" cy="158" r="9" fill="#ffb0a0" opacity="0.8"/>
  <circle cx="236" cy="158" r="9" fill="#ffb0a0" opacity="0.8"/>
</svg>
