<svg xmlns="http://www.w3.org/2000/svg" viewBox="0 0 360 360">

  <!-- 影 -->
  <ellipse cx="178" cy="322" rx="70" ry="16" fill="#00000022"/>

  <!-- 背中の巨大な黒いアゴ(下アゴ) -->
  <path d="M145,130 Q90,148 72,185 Q65,218 80,248 Q100,275 138,270 Q158,265 165,248" fill="#1a1428" stroke="#2d263c" stroke-width="7" stroke-linejoin="round" stroke-linecap="round"/>

  <!-- 黒アゴの内側(歯) -->
  <path d="M80,235 L88,215 L96,235 M100,245 L108,224 L116,244 M120,248 L128,228 L136,248 M148,242 L154,224 L160,242" fill="white" stroke="#2d263c" stroke-width="3" stroke-linejoin="round"/>

  <!-- 背中の巨大な黒いアゴ(上アゴ) - つながり -->
  <path d="M145,128 Q105,115 88,138 Q70,162 80,188 Q88,208 112,212" fill="#2a1e3a" stroke="#2d263c" stroke-width="7" stroke-linejoin="round"/>

  <!-- 黒い髪の毛(アゴにつながる) -->
  <path d="M155,118 Q142,100 142,80 Q148,88 155,95 Q152,78 162,70 Q162,85 168,95 Z" fill="#1a1428" stroke="#2d263c" stroke-width="5" stroke-linejoin="round" stroke-linecap="round"/>
  <path d="M175,112 Q172,92 178,75 Q184,92 180,112 Z" fill="#1a1428" stroke="#2d263c" stroke-width="5" stroke-linejoin="round" stroke-linecap="round"/>

  <!-- 脚(左) -->
  <ellipse cx="160" cy="298" rx="18" ry="12" fill="#F8E060" stroke="#2d263c" stroke-width="6" stroke-linejoin="round"/>

  <!-- 脚(右) -->
  <ellipse cx="202" cy="298" rx="18" ry="12" fill="#F8E060" stroke="#2d263c" stroke-width="6" stroke-linejoin="round"/>

  <!-- 体 -->
  <ellipse cx="188" cy="238" rx="60" ry="68" fill="#F8E060" stroke="#2d263c" stroke-width="8" stroke-linejoin="round"/>

  <!-- 腹のクリーム色 -->
  <ellipse cx="192" cy="248" rx="38" ry="50" fill="#FFF8C0" stroke="#2d263c" stroke-width="4" stroke-linejoin="round"/>

  <!-- 小さな腕(左) -->
  <path d="M143,235 Q120,228 115,245 Q112,262 130,265 Q145,262 148,248" fill="#F8E060" stroke="#2d263c" stroke-width="6" stroke-linejoin="round" stroke-linecap="round"/>

  <!-- 小さな腕(右) -->
  <path d="M234,235 Q258,228 262,245 Q264,262 246,265 Q231,262 228,248" fill="#F8E060" stroke="#2d263c" stroke-width="6" stroke-linejoin="round" stroke-linecap="round"/>

  <!-- 頭 -->
  <ellipse cx="192" cy="168" rx="52" ry="50" fill="#F8E060" stroke="#2d263c" stroke-width="8" stroke-linejoin="round"/>

  <!-- 小さな角(2本) -->
  <path d="M175,122 Q172,105 175,95 Q179,108 180,122 Z" fill="#2a1e3a" stroke="#2d263c" stroke-width="4" stroke-linejoin="round"/>
  <path d="M208,122 Q205,105 208,95 Q212,108 213,122 Z" fill="#2a1e3a" stroke="#2d263c" stroke-width="4" stroke-linejoin="round"/>

  <!-- 目(左) - かわいい -->
  <ellipse cx="175" cy="162" rx="11" ry="13" fill="white" stroke="#2d263c" stroke-width="5"/>
  <circle cx="177" cy="161" r="7" fill="#1a1a1a"/>
  <circle cx="180" cy="158" r="3" fill="white"/>

  <!-- 目(右) -->
  <ellipse cx="210" cy="162" rx="11" ry="13" fill="white" stroke="#2d263c" stroke-width="5"/>
  <circle cx="212" cy="161" r="7" fill="#1a1a1a"/>
  <circle cx="215" cy="158" r="3" fill="white"/>

  <!-- 口(かわいい小さい) -->
  <path d="M183,180 Q193,188 202,180" fill="none" stroke="#2d263c" stroke-width="5" stroke-linecap="round"/>

  <!-- ほっぺ(ピンク) -->
  <ellipse cx="160" cy="175" rx="10" ry="8" fill="#FFB0C0" stroke="#2d263c" stroke-width="3"/>
  <ellipse cx="225" cy="175" rx="10" ry="8" fill="#FFB0C0" stroke="#2d263c" stroke-width="3"/>

</svg>
