<svg xmlns="http://www.w3.org/2000/svg" viewBox="0 0 360 360">
<g fill="none" stroke="#2d263c" stroke-width="7" stroke-linejoin="round" stroke-linecap="round">
  <!-- 尻尾(奥) -->
  <path d="M120 240 Q60 250 35 285 Q25 300 45 305 Q75 300 100 270 Q115 255 128 245 Z" fill="#8f2c19"/>
  <!-- 後ろ足×2(奥) -->
  <path d="M105 275 Q95 320 105 335 Q135 345 150 330 Q155 300 140 270 Z" fill="#8f2c19"/>
  <path d="M100 330 Q110 342 122 340 M132 342 Q140 344 148 336" stroke-width="6" fill="#f2e6c8"/>
  <path d="M215 285 Q210 325 222 338 Q250 346 262 328 Q262 298 248 275 Z" fill="#a8391f"/>
  <path d="M218 336 Q228 346 240 342 M248 342 Q256 344 262 334" stroke-width="6" fill="#f2e6c8"/>
  <!-- 胴体(本体) -->
  <path d="M115 210 Q100 150 165 130 Q235 112 275 155 Q300 185 285 230 Q270 275 200 280 Q135 282 115 210 Z" fill="#a8391f"/>
  <!-- 背中の甲羅・プレート(グレー) -->
  <path d="M150 140 Q170 105 215 105 Q255 105 270 140 Q250 155 210 152 Q175 150 150 140 Z" fill="#6e6b7a"/>
  <path d="M118 205 Q108 175 130 158 Q145 175 145 200 Q135 212 118 205 Z" fill="#6e6b7a"/>
  <!-- お腹(クリーム色) -->
  <path d="M150 235 Q160 268 205 268 Q245 265 250 235 Q220 255 190 253 Q165 252 150 235 Z" fill="#f0c869"/>
  <path d="M170 240 Q195 250 225 240" stroke="#c99a3f" stroke-width="5" fill="none"/>
  <!-- 前足×2 -->
  <path d="M240 235 Q225 275 235 300 Q265 312 282 295 Q288 265 270 235 Z" fill="#a8391f"/>
  <path d="M238 296 Q248 308 262 305 M268 305 Q278 308 285 298" stroke-width="6" fill="#f2e6c8"/>
  <path d="M175 240 Q165 275 175 298 Q200 310 215 292 Q218 262 202 238 Z" fill="#8f2c19"/>
  <path d="M177 292 Q187 304 200 300 M206 300 Q216 302 214 292" stroke-width="6" fill="#f2e6c8"/>
  <!-- 頭部 -->
  <path d="M255 120 Q290 95 320 115 Q340 130 330 155 Q325 175 295 178 Q262 178 250 155 Q245 135 255 120 Z" fill="#a8391f"/>
  <!-- あご・口 -->
  <path d="M270 165 Q300 175 325 160 Q328 172 310 182 Q285 190 268 178 Z" fill="#8f2c19"/>
  <path d="M280 172 L286 180 M295 175 L299 182 M308 172 L312 178" stroke="#f2e6c8" stroke-width="5"/>
  <!-- 頭の突起 -->
  <path d="M260 100 Q265 82 278 92 Q272 105 260 108 Z" fill="#6e6b7a"/>
  <path d="M300 95 Q310 78 320 92 Q315 105 302 108 Z" fill="#6e6b7a"/>
  <!-- 目 -->
  <circle cx="300" cy="140" r="11" fill="#f2e6c8"/>
  <circle cx="302" cy="141" r="5" fill="#211a2b" stroke-width="4"/>
  <path d="M285 128 Q300 118 315 128" stroke-width="6" fill="none"/>
  <!-- 鼻孔 -->
  <circle cx="322" cy="152" r="3" fill="#211a2b" stroke="none"/>
  <!-- 体の模様(黒いマーク) -->
  <path d="M170 175 L190 165 L195 185 L175 195 Z" fill="#211a2b" stroke-width="5"/>
  <path d="M215 165 L235 158 L240 175 L220 182 Z" fill="#211a2b" stroke-width="5"/>
  <path d="M130 225 L150 218 L153 235 L133 240 Z" fill="#211a2b" stroke-width="5"/>
</g>
</svg>
