<svg xmlns="http://www.w3.org/2000/svg" viewBox="0 0 360 360">
  <!-- legs -->
  <path d="M140 265 Q132 300 120 320 L150 320 Q158 295 158 268 Z" fill="#3a4d6a" stroke="#2d263c" stroke-width="7" stroke-linejoin="round"/>
  <path d="M220 265 Q228 300 240 320 L210 320 Q202 295 202 268 Z" fill="#3a4d6a" stroke="#2d263c" stroke-width="7" stroke-linejoin="round"/>
  <!-- big claws -->
  <path d="M125 180 Q70 185 55 225 Q48 250 72 252 Q92 245 102 222 Q112 200 125 180 Z" fill="#3a4d6a" stroke="#2d263c" stroke-width="8" stroke-linejoin="round"/>
  <path d="M235 180 Q290 185 305 225 Q312 250 288 252 Q268 245 258 222 Q248 200 235 180 Z" fill="#3a4d6a" stroke="#2d263c" stroke-width="8" stroke-linejoin="round"/>
  <!-- claw pincer spikes -->
  <path d="M60 232 L42 235 M65 248 L48 258" fill="none" stroke="#2d263c" stroke-width="6" stroke-linecap="round"/>
  <path d="M300 232 L318 235 M295 248 L312 258" fill="none" stroke="#2d263c" stroke-width="6" stroke-linecap="round"/>
  <!-- body -->
  <path d="M125 150 Q180 128 235 150 Q252 215 228 272 Q180 288 132 272 Q108 215 125 150 Z" fill="#4a5d7a" stroke="#2d263c" stroke-width="8" stroke-linejoin="round"/>
  <!-- armor plate lines -->
  <path d="M150 168 Q180 178 210 168" fill="none" stroke="#2d263c" stroke-width="6" stroke-linecap="round"/>
  <path d="M145 205 Q180 215 215 205" fill="none" stroke="#2d263c" stroke-width="6" stroke-linecap="round"/>
  <!-- shoulder armor spikes -->
  <path d="M125 152 L102 128 L122 150 Z" fill="#3a4d6a" stroke="#2d263c" stroke-width="6" stroke-linejoin="round"/>
  <path d="M235 152 L258 128 L238 150 Z" fill="#3a4d6a" stroke="#2d263c" stroke-width="6" stroke-linejoin="round"/>
  <!-- head -->
  <path d="M140 110 Q180 88 220 110 Q230 145 200 158 Q180 165 160 158 Q130 145 140 110 Z" fill="#4a5d7a" stroke="#2d263c" stroke-width="8" stroke-linejoin="round"/>
  <!-- eyes -->
  <ellipse cx="160" cy="120" rx="10" ry="12" fill="#f5d04a" stroke="#2d263c" stroke-width="5"/>
  <ellipse cx="200" cy="120" rx="10" ry="12" fill="#f5d04a" stroke="#2d263c" stroke-width="5"/>
  <circle cx="161" cy="123" r="4" fill="#2d263c"/>
  <circle cx="201" cy="123" r="4" fill="#2d263c"/>
  <!-- mandibles -->
  <path d="M165 150 L158 165 M195 150 L202 165" fill="none" stroke="#2d263c" stroke-width="6" stroke-linecap="round"/>
</svg>
