<svg xmlns="http://www.w3.org/2000/svg" viewBox="0 0 360 360">
  <ellipse cx="180" cy="230" rx="120" ry="78" fill="#F5B9C4" stroke="#2d263c" stroke-width="8" stroke-linejoin="round"/>
  <path d="M75,235 C75,270 110,300 180,300 C250,300 285,270 285,235 C285,270 245,290 180,290 C115,290 75,270 75,235 Z" fill="#FCE4E9" stroke="#2d263c" stroke-width="7" stroke-linejoin="round" stroke-linecap="round"/>
  <path d="M85,190 C130,175 230,175 275,190" fill="none" stroke="#E38FA0" stroke-width="9" stroke-linecap="round"/>
  <ellipse cx="100" cy="288" rx="22" ry="16" fill="#F5B9C4" stroke="#2d263c" stroke-width="7"/>
  <ellipse cx="180" cy="296" rx="22" ry="16" fill="#F5B9C4" stroke="#2d263c" stroke-width="7"/>
  <ellipse cx="260" cy="288" rx="22" ry="16" fill="#F5B9C4" stroke="#2d263c" stroke-width="7"/>
  <path d="M280,235 C300,240 310,225 305,215 C298,222 288,224 280,222 Z" fill="#F5B9C4" stroke="#2d263c" stroke-width="7" stroke-linejoin="round"/>
  <ellipse cx="95" cy="185" rx="34" ry="26" fill="#F0A3B2" stroke="#2d263c" stroke-width="7"/>
  <ellipse cx="265" cy="185" rx="34" ry="26" fill="#F0A3B2" stroke="#2d263c" stroke-width="7"/>
  <path d="M120,170 C132,150 145,148 152,158 C144,168 132,175 120,178 Z" fill="#F5B9C4" stroke="#2d263c" stroke-width="7" stroke-linejoin="round"/>
  <path d="M240,170 C228,150 215,148 208,158 C216,168 228,175 240,178 Z" fill="#F5B9C4" stroke="#2d263c" stroke-width="7" stroke-linejoin="round"/>
  <ellipse cx="135" cy="205" rx="9" ry="6" fill="#2d263c"/>
  <ellipse cx="225" cy="205" rx="9" ry="6" fill="#2d263c"/>
  <ellipse cx="115" cy="222" rx="14" ry="9" fill="#F0A3B2" opacity="0.7"/>
  <ellipse cx="245" cy="222" rx="14" ry="9" fill="#F0A3B2" opacity="0.7"/>
  <ellipse cx="180" cy="225" rx="30" ry="20" fill="#F0A3B2" stroke="#2d263c" stroke-width="7"/>
  <ellipse cx="168" cy="225" rx="6" ry="8" fill="#2d263c"/>
  <ellipse cx="192" cy="225" rx="6" ry="8" fill="#2d263c"/>
</svg>
