<svg xmlns="http://www.w3.org/2000/svg" viewBox="0 0 360 360">
  <!-- 後ろ足 -->
  <ellipse cx="148" cy="298" rx="22" ry="14" fill="#6DC6E8" stroke="#2d263c" stroke-width="7" stroke-linejoin="round"/>
  <ellipse cx="215" cy="301" rx="20" ry="13" fill="#6DC6E8" stroke="#2d263c" stroke-width="7" stroke-linejoin="round"/>

  <!-- しっぽ(スコップ型) -->
  <path d="M 235 230 Q 270 215 285 200 Q 298 190 305 178 Q 310 165 300 158 Q 290 152 280 160 Q 268 170 258 182 Q 245 198 235 212 Z" fill="#4AABE0" stroke="#2d263c" stroke-width="7" stroke-linejoin="round" stroke-linecap="round"/>
  <!-- しっぽ先端のひし形 -->
  <polygon points="300,158 312,148 320,162 308,172" fill="#2d96cc" stroke="#2d263c" stroke-width="5" stroke-linejoin="round"/>

  <!-- 体(メインボディ) -->
  <path d="M 120 200 Q 108 180 112 155 Q 116 128 138 115 Q 158 104 183 108 Q 210 112 225 130 Q 242 150 238 175 Q 235 200 228 220 Q 218 242 200 252 Q 182 260 165 255 Q 148 248 138 232 Q 126 218 120 200 Z" fill="#6DC6E8" stroke="#2d263c" stroke-width="8" stroke-linejoin="round"/>

  <!-- 腹の白い部分 -->
  <path d="M 148 210 Q 142 195 145 178 Q 148 162 160 158 Q 172 154 184 160 Q 196 166 198 182 Q 200 200 194 216 Q 188 228 177 230 Q 164 232 156 222 Q 150 216 148 210 Z" fill="#e8f8ff" stroke="#2d263c" stroke-width="4" stroke-linejoin="round"/>

  <!-- 前足 左 -->
  <path d="M 138 235 Q 128 250 122 268 Q 118 280 126 285 Q 136 288 142 276 Q 148 264 148 248 Z" fill="#6DC6E8" stroke="#2d263c" stroke-width="7" stroke-linejoin="round" stroke-linecap="round"/>
  <!-- 前足 右 -->
  <path d="M 205 230 Q 216 244 220 262 Q 224 276 216 280 Q 206 283 200 270 Q 194 258 196 244 Z" fill="#6DC6E8" stroke="#2d263c" stroke-width="7" stroke-linejoin="round" stroke-linecap="round"/>

  <!-- 背中のひし形模様 3つ -->
  <polygon points="175,118 183,110 191,118 183,126" fill="#2d96cc" stroke="#2d263c" stroke-width="4" stroke-linejoin="round"/>
  <polygon points="195,135 205,126 215,135 205,144" fill="#2d96cc" stroke="#2d263c" stroke-width="4" stroke-linejoin="round"/>
  <polygon points="220,158 229,149 238,158 229,167" fill="#2d96cc" stroke="#2d263c" stroke-width="4" stroke-linejoin="round"/>

  <!-- 首のフワフワマフラー -->
  <path d="M 128 165 Q 135 148 150 142 Q 162 137 178 138 Q 194 139 207 147 Q 218 155 220 166 Q 215 158 204 154 Q 192 150 178 149 Q 163 148 150 154 Q 138 160 133 170 Z" fill="white" stroke="#2d263c" stroke-width="5" stroke-linejoin="round" stroke-linecap="round"/>
  <path d="M 128 168 Q 124 158 130 150 Q 137 142 150 138 Q 164 134 180 135 Q 196 136 208 144 Q 220 152 222 163" fill="none" stroke="white" stroke-width="8" stroke-linecap="round"/>
  <!-- マフラーのモコモコ感 -->
  <path d="M 130 162 Q 135 155 143 152 Q 152 149 160 152 Q 170 155 178 152 Q 188 149 198 153 Q 208 157 214 164 Q 208 157 198 155 Q 188 152 178 155 Q 168 158 160 155 Q 150 152 142 155 Q 134 158 130 165 Z" fill="white" stroke="none"/>

  <!-- 頭 -->
  <path d="M 145 138 Q 143 112 153 96 Q 163 80 180 78 Q 197 76 207 92 Q 216 106 213 130 Q 210 118 200 110 Q 190 103 179 104 Q 167 105 158 113 Q 150 122 148 138 Z" fill="#6DC6E8" stroke="#2d263c" stroke-width="8" stroke-linejoin="round"/>

  <!-- 耳 左(折れ耳) -->
  <path d="M 150 100 Q 140 80 132 65 Q 126 52 135 46 Q 144 42 152 54 Q 160 66 160 84 Q 158 94 154 100 Z" fill="#6DC6E8" stroke="#2d263c" stroke-width="7" stroke-linejoin="round" stroke-linecap="round"/>
  <!-- 耳内側 左 -->
  <path d="M 149 96 Q 142 80 137 68 Q 133 58 138 54 Q 143 51 149 60 Q 156 72 156 86 Z" fill="#b8e8f8" stroke="none"/>

  <!-- 耳 右(少し非対称) -->
  <path d="M 208 98 Q 216 76 222 62 Q 228 48 220 43 Q 212 40 205 52 Q 198 64 200 84 Q 202 94 206 100 Z" fill="#6DC6E8" stroke="#2d263c" stroke-width="7" stroke-linejoin="round" stroke-linecap="round"/>
  <!-- 耳内側 右 -->
  <path d="M 208 95 Q 215 76 219 64 Q 223 53 219 50 Q 215 48 210 57 Q 204 70 204 85 Z" fill="#b8e8f8" stroke="none"/>

  <!-- 額のひし形クリスタル -->
  <polygon points="180,78 190,64 200,78 190,92" fill="#2d96cc" stroke="#2d263c" stroke-width="6" stroke-linejoin="round"/>
  <!-- クリスタルのハイライト -->
  <line x1="185" y1="70" x2="188" y2="76" stroke="white" stroke-width="2.5" stroke-linecap="round"/>

  <!-- 顔 -->
  <!-- 目 左(大きくてきゅっとした目) -->
  <ellipse cx="165" cy="108" rx="9" ry="10" fill="#1a6aa8" stroke="#2d263c" stroke-width="4"/>
  <ellipse cx="165" cy="108" rx="5" ry="6" fill="#0d4a7a"/>
  <circle cx="168" cy="105" r="2.5" fill="white"/>
  <!-- 目 右(少し違う大きさ=非対称) -->
  <ellipse cx="196" cy="107" rx="8" ry="9" fill="#1a6aa8" stroke="#2d263c" stroke-width="4"/>
  <ellipse cx="196" cy="107" rx="4.5" ry="5.5" fill="#0d4a7a"/>
  <circle cx="199" cy="104" r="2" fill="white"/>

  <!-- 鼻 -->
  <ellipse cx="180" cy="118" rx="4" ry="2.5" fill="#2d263c"/>

  <!-- 口(おだやかな微笑み) -->
  <path d="M 172 124 Q 180 130 188 124" fill="none" stroke="#2d263c" stroke-width="3.5" stroke-linecap="round"/>

  <!-- ほっぺ(うっすらピンク) -->
  <ellipse cx="158" cy="120" rx="7" ry="4" fill="#ffb8c8" opacity="0.6"/>
  <ellipse cx="202" cy="119" rx="6" ry="4" fill="#ffb8c8" opacity="0.6"/>
</svg>