<svg xmlns="http://www.w3.org/2000/svg" viewBox="0 0 360 360">
  <!-- 炎の突起(後ろ側) -->
  <path d="M155 105 C148 85 140 70 152 55 C155 75 160 80 162 90 Z" fill="#ff6a00" stroke="#2d263c" stroke-width="6" stroke-linejoin="round" stroke-linecap="round"/>
  <path d="M178 95 C174 68 172 45 185 30 C190 55 192 72 188 88 Z" fill="#ff4500" stroke="#2d263c" stroke-width="6" stroke-linejoin="round" stroke-linecap="round"/>
  <path d="M205 105 C210 82 218 68 208 50 C202 70 198 78 200 92 Z" fill="#ff6a00" stroke="#2d263c" stroke-width="6" stroke-linejoin="round" stroke-linecap="round"/>

  <!-- しっぽ(後ろ) -->
  <ellipse cx="258" cy="252" rx="22" ry="14" fill="#e05a00" stroke="#2d263c" stroke-width="6" stroke-linejoin="round"/>

  <!-- 体(メイン) -->
  <ellipse cx="180" cy="230" rx="88" ry="95" fill="#e8711a" stroke="#2d263c" stroke-width="8" stroke-linejoin="round"/>

  <!-- 頭 -->
  <ellipse cx="180" cy="140" rx="72" ry="68" fill="#e8711a" stroke="#2d263c" stroke-width="8" stroke-linejoin="round"/>

  <!-- 頬の赤み -->
  <ellipse cx="148" cy="162" rx="15" ry="10" fill="#ff3a00" opacity="0.55"/>
  <ellipse cx="212" cy="162" rx="15" ry="10" fill="#ff3a00" opacity="0.55"/>

  <!-- お腹(クリーム色) -->
  <ellipse cx="178" cy="248" rx="52" ry="62" fill="#f5d8a0" stroke="#2d263c" stroke-width="5" stroke-linejoin="round"/>

  <!-- 肋骨模様(3本線) -->
  <path d="M158 222 C163 217 195 217 200 222" fill="none" stroke="#c0742a" stroke-width="4" stroke-linecap="round"/>
  <path d="M154 242 C162 235 196 235 204 242" fill="none" stroke="#c0742a" stroke-width="4" stroke-linecap="round"/>
  <path d="M158 262 C163 255 197 255 202 262" fill="none" stroke="#c0742a" stroke-width="4" stroke-linecap="round"/>

  <!-- 左腕 -->
  <path d="M100 205 C78 198 65 212 68 228 C72 242 88 245 102 238 Z" fill="#e8711a" stroke="#2d263c" stroke-width="7" stroke-linejoin="round" stroke-linecap="round"/>
  <!-- 左腕の指っぽい突起 -->
  <path d="M72 215 C60 208 55 198 63 193" fill="none" stroke="#2d263c" stroke-width="5" stroke-linecap="round"/>
  <path d="M68 228 C55 225 50 215 58 210" fill="none" stroke="#2d263c" stroke-width="5" stroke-linecap="round"/>

  <!-- 右腕 -->
  <path d="M262 208 C282 200 295 214 292 230 C288 244 272 246 258 240 Z" fill="#e8711a" stroke="#2d263c" stroke-width="7" stroke-linejoin="round" stroke-linecap="round"/>
  <!-- 右腕の指っぽい突起 -->
  <path d="M290 218 C302 210 307 200 299 195" fill="none" stroke="#2d263c" stroke-width="5" stroke-linecap="round"/>
  <path d="M292 230 C305 228 310 218 302 213" fill="none" stroke="#2d263c" stroke-width="5" stroke-linecap="round"/>

  <!-- 左足 -->
  <ellipse cx="148" cy="318" rx="30" ry="18" fill="#d05e10" stroke="#2d263c" stroke-width="7" stroke-linejoin="round"/>
  <!-- 右足 -->
  <ellipse cx="215" cy="318" rx="30" ry="18" fill="#d05e10" stroke="#2d263c" stroke-width="7" stroke-linejoin="round"/>

  <!-- 目(左) -->
  <ellipse cx="158" cy="142" rx="18" ry="20" fill="white" stroke="#2d263c" stroke-width="5"/>
  <ellipse cx="161" cy="145" rx="11" ry="12" fill="#1a1a2e"/>
  <ellipse cx="165" cy="140" rx="4" ry="4" fill="white"/>

  <!-- 目(右) -->
  <ellipse cx="204" cy="140" rx="17" ry="21" fill="white" stroke="#2d263c" stroke-width="5"/>
  <ellipse cx="206" cy="143" rx="11" ry="12" fill="#1a1a2e"/>
  <ellipse cx="210" cy="138" rx="4" ry="4" fill="white"/>

  <!-- 眉(怒り顔・左) やや曲がって不揃い -->
  <path d="M143 122 C150 116 165 118 170 122" fill="none" stroke="#2d263c" stroke-width="6" stroke-linecap="round"/>
  <!-- 眉(右) -->
  <path d="M196 120 C202 115 215 117 220 122" fill="none" stroke="#2d263c" stroke-width="6" stroke-linecap="round"/>

  <!-- 口(への字) -->
  <path d="M168 172 C174 168 188 168 194 172" fill="none" stroke="#2d263c" stroke-width="5" stroke-linecap="round"/>

  <!-- 鼻の穴っぽい点 -->
  <ellipse cx="176" cy="162" rx="3" ry="4" fill="#2d263c"/>
  <ellipse cx="186" cy="162" rx="3" ry="4" fill="#2d263c"/>
</svg>