<svg xmlns="http://www.w3.org/2000/svg" viewBox="0 0 360 360">
  <ellipse cx="180" cy="255" rx="120" ry="18" fill="#000000" opacity="0.12"/>
  <path d="M20 210 L150 175 L180 150 L210 175 L340 210 L260 225 L180 205 L100 225 Z" fill="#4a3f6b" stroke="#2d263c" stroke-width="8" stroke-linejoin="round" stroke-linecap="round"/>
  <path d="M60 195 L150 190 L170 178" fill="none" stroke="#2d263c" stroke-width="6" stroke-linecap="round" stroke-linejoin="round"/>
  <path d="M300 195 L210 190 L190 178" fill="none" stroke="#2d263c" stroke-width="6" stroke-linecap="round" stroke-linejoin="round"/>
  <path d="M140 200 Q180 215 220 200" fill="none" stroke="#8f7fd6" stroke-width="7" stroke-linecap="round"/>
  <ellipse cx="180" cy="185" rx="55" ry="30" fill="#5c4f8a" stroke="#2d263c" stroke-width="7" stroke-linejoin="round"/>
  <path d="M150 165 Q180 145 210 165 L200 195 Q180 205 160 195 Z" fill="#232030" stroke="#2d263c" stroke-width="7" stroke-linejoin="round" stroke-linecap="round"/>
  <path d="M155 150 L145 115 L165 145 Z" fill="#5c4f8a" stroke="#2d263c" stroke-width="6" stroke-linejoin="round" stroke-linecap="round"/>
  <path d="M205 150 L215 115 L195 145 Z" fill="#5c4f8a" stroke="#2d263c" stroke-width="6" stroke-linejoin="round" stroke-linecap="round"/>
  <circle cx="163" cy="180" r="10" fill="#ff3b3b" stroke="#2d263c" stroke-width="6"/>
  <circle cx="197" cy="180" r="10" fill="#ff3b3b" stroke="#2d263c" stroke-width="6"/>
  <path d="M175 197 L185 197 L180 203 Z" fill="#c9c9d8" stroke="#2d263c" stroke-width="4" stroke-linejoin="round"/>
  <path d="M180 150 L180 95 Q195 80 200 60 Q185 75 178 90 Q170 75 158 60 Q165 82 180 95" fill="#7a6bc0" stroke="#2d263c" stroke-width="7" stroke-linejoin="round" stroke-linecap="round"/>
  <path d="M180 213 L172 245 L188 245 Z" fill="#5c4f8a" stroke="#2d263c" stroke-width="6" stroke-linejoin="round" stroke-linecap="round"/>
  <circle cx="180" cy="248" r="8" fill="#c9c9d8" stroke="#2d263c" stroke-width="5"/>
  <path d="M95 213 Q75 225 60 220" fill="none" stroke="#2d263c" stroke-width="6" stroke-linecap="round"/>
  <path d="M265 213 Q285 225 300 220" fill="none" stroke="#2d263c" stroke-width="6" stroke-linecap="round"/>
  <circle cx="140" cy="192" r="5" fill="#c9c9d8" opacity="0.8"/>
  <circle cx="220" cy="192" r="5" fill="#c9c9d8" opacity="0.8"/>
</svg>
