<svg xmlns="http://www.w3.org/2000/svg" viewBox="0 0 360 360">
  <!-- tail (behind body) -->
  <path d="M 285 210 Q 330 190 340 150 Q 345 190 320 220 Q 310 235 288 232 Z" fill="#4a4652" stroke="#2d263c" stroke-width="7" stroke-linejoin="round"/>
  <path d="M 335 155 Q 342 170 330 195" fill="none" stroke="#2d263c" stroke-width="6" stroke-linecap="round"/>

  <!-- back legs -->
  <path d="M 250 250 Q 245 285 248 310 Q 250 320 265 320 Q 278 320 278 308 Q 272 280 272 250 Z" fill="#3a3542" stroke="#2d263c" stroke-width="7" stroke-linejoin="round"/>
  <path d="M 200 255 Q 197 288 200 310 Q 202 320 216 320 Q 228 320 228 308 Q 224 282 222 253 Z" fill="#3a3542" stroke="#2d263c" stroke-width="7" stroke-linejoin="round"/>

  <!-- body -->
  <path d="M 130 175 Q 120 210 140 245 Q 165 268 220 265 Q 268 262 285 230 Q 296 200 280 170 Q 260 145 200 145 Q 155 145 130 175 Z" fill="#565062" stroke="#2d263c" stroke-width="8" stroke-linejoin="round"/>

  <!-- lighter belly/chest patch -->
  <path d="M 150 210 Q 155 240 190 250 Q 220 255 235 235 Q 210 250 175 235 Q 155 225 150 210 Z" fill="#8b8698" stroke="none"/>

  <!-- front legs -->
  <path d="M 165 245 Q 158 280 160 308 Q 162 320 178 320 Q 192 320 190 306 Q 186 278 188 243 Z" fill="#3a3542" stroke="#2d263c" stroke-width="7" stroke-linejoin="round"/>
  <path d="M 118 235 Q 108 270 108 302 Q 108 315 124 316 Q 138 316 138 302 Q 140 272 148 232 Z" fill="#3a3542" stroke="#2d263c" stroke-width="7" stroke-linejoin="round"/>

  <!-- paws -->
  <path d="M 100 300 Q 96 316 110 318 Q 128 320 136 316 L 138 302 L 108 302 Z" fill="#232030" stroke="#2d263c" stroke-width="6" stroke-linejoin="round"/>
  <path d="M 155 304 Q 152 318 166 320 Q 182 320 190 318 L 190 306 L 160 306 Z" fill="#232030" stroke="#2d263c" stroke-width="6" stroke-linejoin="round"/>
  <path d="M 240 308 Q 238 320 252 320 Q 266 320 270 316 L 272 300 L 244 300 Z" fill="#232030" stroke="#2d263c" stroke-width="6" stroke-linejoin="round"/>
  <path d="M 195 308 Q 193 320 207 320 Q 220 320 224 318 L 222 300 L 198 300 Z" fill="#232030" stroke="#2d263c" stroke-width="6" stroke-linejoin="round"/>

  <!-- neck fur / mane hood -->
  <path d="M 95 150 Q 80 120 100 90 Q 120 65 155 70 Q 145 100 150 130 Q 130 150 110 165 Z" fill="#78728a" stroke="#2d263c" stroke-width="7" stroke-linejoin="round"/>

  <!-- head -->
  <path d="M 55 120 Q 45 90 70 65 Q 100 45 135 60 Q 160 72 160 105 Q 160 135 130 150 Q 95 165 70 150 Q 55 140 55 120 Z" fill="#565062" stroke="#2d263c" stroke-width="8" stroke-linejoin="round"/>

  <!-- ears -->
  <path d="M 60 78 Q 45 40 30 25 Q 55 30 75 55 Q 78 68 68 78 Z" fill="#3a3542" stroke="#2d263c" stroke-width="7" stroke-linejoin="round"/>
  <path d="M 105 58 Q 100 25 108 8 Q 128 25 128 50 Q 122 60 105 58 Z" fill="#3a3542" stroke="#2d263c" stroke-width="7" stroke-linejoin="round"/>

  <!-- muzzle / lighter fur mask -->
  <path d="M 40 110 Q 35 130 55 145 Q 75 155 90 140 Q 78 135 65 128 Q 45 120 40 110 Z" fill="#8b8698" stroke="#2d263c" stroke-width="5" stroke-linejoin="round"/>

  <!-- black eye/muzzle mask -->
  <path d="M 55 95 Q 48 108 58 118 Q 72 126 85 118 Q 90 105 82 95 Q 68 86 55 95 Z" fill="#232030" stroke="#2d263c" stroke-width="5" stroke-linejoin="round"/>

  <!-- eye -->
  <circle cx="68" cy="103" r="9" fill="#ff9d2e" stroke="#2d263c" stroke-width="4"/>
  <circle cx="70" cy="101" r="3" fill="#232030"/>

  <!-- nose -->
  <ellipse cx="38" cy="118" rx="7" ry="5" fill="#161320" stroke="#2d263c" stroke-width="4"/>

  <!-- mouth / fierce grin -->
  <path d="M 42 128 Q 60 140 85 135" fill="none" stroke="#2d263c" stroke-width="5" stroke-linecap="round"/>
  <path d="M 55 132 L 52 142 L 60 135 Z" fill="#fff" stroke="#2d263c" stroke-width="3" stroke-linejoin="round"/>
</svg>
