<svg xmlns="http://www.w3.org/2000/svg" viewBox="0 0 360 360">
  <!-- 左翼(後ろ) -->
  <path d="M 90 175 Q 30 100 20 60 Q 50 80 70 110 Q 40 70 55 45 Q 75 90 85 130 Q 65 80 85 55 Q 100 110 95 155 Z" fill="#4a3575" stroke="#2d263c" stroke-width="7" stroke-linejoin="round" stroke-linecap="round"/>

  <!-- 右翼(後ろ) -->
  <path d="M 270 175 Q 330 100 340 60 Q 310 80 290 110 Q 320 70 305 45 Q 285 90 275 130 Q 295 80 275 55 Q 260 110 265 155 Z" fill="#4a3575" stroke="#2d263c" stroke-width="7" stroke-linejoin="round" stroke-linecap="round"/>

  <!-- しっぽ幹 -->
  <path d="M 180 245 Q 195 270 210 295 Q 225 315 235 310 Q 245 330 255 320 Q 248 305 240 300 Q 255 295 260 280 Q 250 275 238 285 Q 230 265 215 250 Q 200 238 185 240 Z" fill="#5c4090" stroke="#2d263c" stroke-width="6" stroke-linejoin="round" stroke-linecap="round"/>

  <!-- 体(胴体) -->
  <ellipse cx="180" cy="200" rx="72" ry="68" fill="#5c4090" stroke="#2d263c" stroke-width="8" stroke-linejoin="round"/>

  <!-- 腹の白楕円 -->
  <ellipse cx="180" cy="210" rx="42" ry="48" fill="#e8e0f5" stroke="#2d263c" stroke-width="5"/>

  <!-- 左ハサミ腕 -->
  <path d="M 115 210 Q 80 220 65 235 Q 55 225 50 240 Q 65 248 75 238 Q 72 252 60 255 Q 72 265 82 252 Q 85 262 78 270 Q 92 268 92 255 Q 100 240 110 228 Z" fill="#5c4090" stroke="#2d263c" stroke-width="6" stroke-linejoin="round" stroke-linecap="round"/>

  <!-- 右ハサミ腕 -->
  <path d="M 245 210 Q 280 220 295 235 Q 305 225 310 240 Q 295 248 285 238 Q 288 252 300 255 Q 288 265 278 252 Q 275 262 282 270 Q 268 268 268 255 Q 260 240 250 228 Z" fill="#5c4090" stroke="#2d263c" stroke-width="6" stroke-linejoin="round" stroke-linecap="round"/>

  <!-- 左耳(V字) -->
  <path d="M 148 138 Q 135 100 125 82 Q 140 95 152 118 Q 155 98 158 80 Q 163 102 162 125 Z" fill="#5c4090" stroke="#2d263c" stroke-width="6" stroke-linejoin="round" stroke-linecap="round"/>
  <!-- 左耳内側ピンク -->
  <path d="M 149 132 Q 140 108 133 94 Q 144 104 151 120 Q 154 104 158 92 Q 161 108 160 122 Z" fill="#d4a0c0" stroke="none"/>

  <!-- 右耳(V字) -->
  <path d="M 212 138 Q 225 100 235 82 Q 220 95 208 118 Q 205 98 202 80 Q 197 102 198 125 Z" fill="#5c4090" stroke="#2d263c" stroke-width="6" stroke-linejoin="round" stroke-linecap="round"/>
  <!-- 右耳内側ピンク -->
  <path d="M 211 132 Q 220 108 227 94 Q 216 104 209 120 Q 206 104 202 92 Q 199 108 200 122 Z" fill="#d4a0c0" stroke="none"/>

  <!-- 頭部 -->
  <ellipse cx="180" cy="158" rx="52" ry="46" fill="#5c4090" stroke="#2d263c" stroke-width="8" stroke-linejoin="round"/>

  <!-- 左目(白目) -->
  <ellipse cx="161" cy="152" rx="16" ry="17" fill="white" stroke="#2d263c" stroke-width="5"/>
  <!-- 右目(白目) -->
  <ellipse cx="199" cy="150" rx="15" ry="16" fill="white" stroke="#2d263c" stroke-width="5"/>

  <!-- 左目(黒目) -->
  <ellipse cx="163" cy="154" rx="9" ry="10" fill="#2d263c"/>
  <!-- 右目(黒目) -->
  <ellipse cx="201" cy="152" rx="8" ry="9" fill="#2d263c"/>

  <!-- 目のハイライト -->
  <circle cx="167" cy="150" r="3.5" fill="white"/>
  <circle cx="205" cy="148" r="3" fill="white"/>

  <!-- 左ほっぺ(赤) -->
  <ellipse cx="146" cy="167" rx="11" ry="8" fill="#e04040" stroke="none" opacity="0.85"/>
  <!-- 右ほっぺ(赤) -->
  <ellipse cx="214" cy="165" rx="10" ry="7.5" fill="#e04040" stroke="none" opacity="0.85"/>

  <!-- 口(にやにや) -->
  <path d="M 163 175 Q 172 185 180 186 Q 188 185 197 175" fill="none" stroke="#2d263c" stroke-width="5" stroke-linecap="round"/>
  <!-- 左牙 -->
  <path d="M 163 177 L 158 188 L 165 183 Z" fill="white" stroke="#2d263c" stroke-width="3" stroke-linejoin="round"/>
  <!-- 右牙 -->
  <path d="M 197 177 L 202 188 L 195 183 Z" fill="white" stroke="#2d263c" stroke-width="3" stroke-linejoin="round"/>

  <!-- 翼の結合部(体側) -->
  <path d="M 108 178 Q 95 172 90 175 Q 100 190 112 195 Z" fill="#4a3575" stroke="#2d263c" stroke-width="5" stroke-linejoin="round"/>
  <path d="M 252 178 Q 265 172 270 175 Q 260 190 248 195 Z" fill="#4a3575" stroke="#2d263c" stroke-width="5" stroke-linejoin="round"/>

  <!-- しっぽ先端ハサミ上 -->
  <path d="M 252 315 Q 268 308 278 315 Q 270 326 258 322 Z" fill="#5c4090" stroke="#2d263c" stroke-width="5" stroke-linejoin="round"/>
  <!-- しっぽ先端ハサミ下 -->
  <path d="M 250 322 Q 262 332 275 328 Q 268 340 255 335 Z" fill="#5c4090" stroke="#2d263c" stroke-width="5" stroke-linejoin="round"/>
</svg>