<svg xmlns="http://www.w3.org/2000/svg" viewBox="0 0 360 360">
  <path d="M155,260 C130,280 125,315 145,335 C150,305 158,280 165,262 Z" fill="#6b4226" stroke="#2d263c" stroke-width="7" stroke-linejoin="round"/>
  <path d="M205,260 C230,280 235,315 215,335 C210,305 202,280 195,262 Z" fill="#6b4226" stroke="#2d263c" stroke-width="7" stroke-linejoin="round"/>
  <rect x="145" y="255" width="20" height="78" rx="9" fill="#e8823c" stroke="#2d263c" stroke-width="7"/>
  <rect x="195" y="255" width="20" height="78" rx="9" fill="#e8823c" stroke="#2d263c" stroke-width="7"/>
  <path d="M138,330 L157,314 L176,330 L166,338 L157,324 L148,338 Z" fill="#e8823c" stroke="#2d263c" stroke-width="7" stroke-linejoin="round"/>
  <path d="M184,330 L203,314 L222,330 L212,338 L203,324 L194,338 Z" fill="#e8823c" stroke="#2d263c" stroke-width="7" stroke-linejoin="round"/>
  <ellipse cx="180" cy="205" rx="95" ry="85" fill="#b8703f" stroke="#2d263c" stroke-width="8"/>
  <ellipse cx="180" cy="225" rx="48" ry="58" fill="#f5e6c8" stroke="#2d263c" stroke-width="6"/>
  <ellipse cx="72" cy="172" rx="34" ry="20" transform="rotate(-25 72 172)" fill="#a5652f" stroke="#2d263c" stroke-width="7"/>
  <circle cx="55" cy="140" r="32" fill="#7fbf4a" stroke="#2d263c" stroke-width="7"/>
  <path d="M55,112 L55,168 M55,130 L38,140 M55,148 L38,155 M55,130 L72,140 M55,148 L72,156" fill="none" stroke="#2d263c" stroke-width="4" stroke-linecap="round"/>
  <ellipse cx="288" cy="172" rx="34" ry="20" transform="rotate(25 288 172)" fill="#a5652f" stroke="#2d263c" stroke-width="7"/>
  <polygon points="278,180 294,170 316,52 304,44" fill="#eef7dc" stroke="#2d263c" stroke-width="7" stroke-linejoin="round"/>
  <path d="M304,48 Q290,26 302,20 Q316,30 310,50 Z" fill="#5fa83a" stroke="#2d263c" stroke-width="6" stroke-linejoin="round"/>
  <path d="M310,50 Q325,28 335,36 Q328,52 312,54 Z" fill="#5fa83a" stroke="#2d263c" stroke-width="6" stroke-linejoin="round"/>
  <path d="M115,130 Q130,110 150,125 Q165,105 180,125 Q195,105 210,125 Q230,110 245,130 Q235,155 180,160 Q125,155 115,130 Z" fill="#6b4226" stroke="#2d263c" stroke-width="7" stroke-linejoin="round"/>
  <circle cx="180" cy="88" r="58" fill="#c98a54" stroke="#2d263c" stroke-width="8"/>
  <path d="M160,42 Q158,24 168,20 Q172,34 175,46 Z" fill="#e2483a" stroke="#2d263c" stroke-width="6" stroke-linejoin="round"/>
  <path d="M175,40 Q180,22 188,20 Q190,34 190,47 Z" fill="#e2483a" stroke="#2d263c" stroke-width="6" stroke-linejoin="round"/>
  <path d="M190,44 Q198,22 208,24 Q205,38 200,50 Z" fill="#e2483a" stroke="#2d263c" stroke-width="6" stroke-linejoin="round"/>
  <path d="M145,61 L172,79" fill="none" stroke="#2d263c" stroke-width="9" stroke-linecap="round"/>
  <path d="M215,61 L188,79" fill="none" stroke="#2d263c" stroke-width="9" stroke-linecap="round"/>
  <circle cx="168" cy="89" r="7" fill="#2d263c"/>
  <circle cx="192" cy="89" r="7" fill="#2d263c"/>
  <path d="M165,111 L195,111 L180,133 Z" fill="#f0902f" stroke="#2d263c" stroke-width="7" stroke-linejoin="round"/>
</svg>
