<svg xmlns="http://www.w3.org/2000/svg" viewBox="0 0 360 360">
  <path d="M 252 205 Q 292 152 272 102" fill="none" stroke="#2d263c" stroke-width="14" stroke-linecap="round"/>
  <path d="M 252 205 Q 292 152 272 102" fill="none" stroke="#c98e44" stroke-width="6" stroke-linecap="round"/>
  <path d="M 256 215 Q 322 182 315 130" fill="none" stroke="#2d263c" stroke-width="14" stroke-linecap="round"/>
  <path d="M 256 215 Q 322 182 315 130" fill="none" stroke="#c98e44" stroke-width="6" stroke-linecap="round"/>
  <path d="M 258 228 Q 330 222 325 178" fill="none" stroke="#2d263c" stroke-width="14" stroke-linecap="round"/>
  <path d="M 258 228 Q 330 222 325 178" fill="none" stroke="#c98e44" stroke-width="6" stroke-linecap="round"/>
  <ellipse cx="271" cy="98" rx="14" ry="13" fill="#7c4d22" stroke="#2d263c" stroke-width="6"/>
  <ellipse cx="316" cy="125" rx="14" ry="12" fill="#7c4d22" stroke="#2d263c" stroke-width="6"/>
  <ellipse cx="324" cy="175" rx="13" ry="13" fill="#7c4d22" stroke="#2d263c" stroke-width="6"/>
  <ellipse cx="186" cy="243" rx="94" ry="64" fill="#c98e44" stroke="#2d263c" stroke-width="7" transform="rotate(-3 186 243)"/>
  <path d="M 112 268 Q 104 300 108 326 L 138 328 Q 138 296 140 268 Z" fill="#c98e44" stroke="#2d263c" stroke-width="7" stroke-linejoin="round"/>
  <path d="M 106 316 Q 103 332 110 334 L 136 335 Q 141 331 138 318 Z" fill="#55483f" stroke="#2d263c" stroke-width="6" stroke-linejoin="round"/>
  <path d="M 152 285 L 150 330 L 178 331 L 178 285 Z" fill="#c98e44" stroke="#2d263c" stroke-width="7" stroke-linejoin="round"/>
  <path d="M 149 320 L 179 321 L 178 337 L 150 336 Z" fill="#55483f" stroke="#2d263c" stroke-width="6" stroke-linejoin="round"/>
  <path d="M 196 285 L 196 331 L 224 330 L 222 285 Z" fill="#c98e44" stroke="#2d263c" stroke-width="7" stroke-linejoin="round"/>
  <path d="M 195 321 L 225 320 L 226 336 L 196 337 Z" fill="#55483f" stroke="#2d263c" stroke-width="6" stroke-linejoin="round"/>
  <path d="M 234 268 Q 238 298 236 327 L 266 324 Q 270 296 262 266 Z" fill="#c98e44" stroke="#2d263c" stroke-width="7" stroke-linejoin="round"/>
  <path d="M 235 317 L 267 314 L 271 330 L 237 333 Z" fill="#55483f" stroke="#2d263c" stroke-width="6" stroke-linejoin="round"/>
  <path d="M 132 140 Q 72 134 50 72 Q 64 68 80 86 Q 98 104 136 110 Z" fill="#e9ddbd" stroke="#2d263c" stroke-width="7" stroke-linejoin="round"/>
  <path d="M 234 140 Q 294 132 314 70 Q 299 67 284 84 Q 266 103 230 110 Z" fill="#e9ddbd" stroke="#2d263c" stroke-width="7" stroke-linejoin="round"/>
  <path d="M 110 165 Q 95 130 122 112 Q 118 78 152 80 Q 165 55 192 70 Q 222 52 238 84 Q 268 86 262 118 Q 285 140 262 165 Q 268 196 236 196 Q 220 215 192 204 Q 160 218 145 198 Q 115 200 110 165 Z" fill="#7c4d22" stroke="#2d263c" stroke-width="7" stroke-linejoin="round"/>
  <ellipse cx="183" cy="150" rx="53" ry="49" fill="#c98e44" stroke="#2d263c" stroke-width="7"/>
  <circle cx="159" cy="111" r="10" fill="#a9aeb8" stroke="#2d263c" stroke-width="6"/>
  <circle cx="183" cy="105" r="11" fill="#a9aeb8" stroke="#2d263c" stroke-width="6"/>
  <circle cx="207" cy="112" r="10" fill="#a9aeb8" stroke="#2d263c" stroke-width="6"/>
  <ellipse cx="183" cy="179" rx="37" ry="24" fill="#e6bd76" stroke="#2d263c" stroke-width="7"/>
  <ellipse cx="162" cy="141" rx="9" ry="10" fill="#ffffff" stroke="#2d263c" stroke-width="5"/>
  <ellipse cx="205" cy="142" rx="9" ry="10" fill="#ffffff" stroke="#2d263c" stroke-width="5"/>
  <circle cx="164" cy="144" r="4" fill="#2d263c"/>
  <circle cx="203" cy="145" r="4" fill="#2d263c"/>
  <path d="M 146 128 L 172 139" fill="none" stroke="#2d263c" stroke-width="8" stroke-linecap="round"/>
  <path d="M 220 127 L 195 139" fill="none" stroke="#2d263c" stroke-width="8" stroke-linecap="round"/>
  <ellipse cx="167" cy="175" rx="5" ry="7" fill="#2d263c"/>
  <ellipse cx="199" cy="176" rx="5" ry="7" fill="#2d263c"/>
  <path d="M 169 193 Q 183 187 197 192" fill="none" stroke="#2d263c" stroke-width="6" stroke-linecap="round"/>
</svg>