<svg xmlns="http://www.w3.org/2000/svg" viewBox="0 0 360 360">
  <ellipse cx="180" cy="303" rx="128" ry="15" fill="#000000" opacity="0.15"/>
  <path d="M62,192 C48,175 34,158 25,150 C34,178 40,205 58,228 C66,220 66,204 62,192 Z" fill="#d4392b" stroke="#2d263c" stroke-width="7" stroke-linejoin="round" stroke-linecap="round"/>
  <ellipse cx="175" cy="215" rx="115" ry="65" fill="#9c3a2c" stroke="#2d263c" stroke-width="8" stroke-linecap="round" stroke-linejoin="round"/>
  <circle cx="275" cy="195" r="50" fill="#9c3a2c" stroke="#2d263c" stroke-width="8"/>
  <path d="M128,155 Q120,216 132,276" fill="none" stroke="#2d263c" stroke-width="6" stroke-linecap="round"/>
  <path d="M190,151 Q182,216 196,279" fill="none" stroke="#2d263c" stroke-width="6" stroke-linecap="round"/>
  <ellipse cx="176" cy="256" rx="98" ry="29" fill="#f6e2b0" stroke="#2d263c" stroke-width="7"/>
  <ellipse cx="108" cy="277" rx="9" ry="11" fill="#f6e2b0" stroke="#2d263c" stroke-width="6"/>
  <ellipse cx="150" cy="282" rx="9" ry="11" fill="#f6e2b0" stroke="#2d263c" stroke-width="6"/>
  <ellipse cx="202" cy="282" rx="9" ry="11" fill="#f6e2b0" stroke="#2d263c" stroke-width="6"/>
  <ellipse cx="244" cy="277" rx="9" ry="11" fill="#f6e2b0" stroke="#2d263c" stroke-width="6"/>
  <ellipse cx="257" cy="183" rx="13" ry="16" fill="#ffffff" stroke="#2d263c" stroke-width="6"/>
  <ellipse cx="296" cy="183" rx="13" ry="16" fill="#ffffff" stroke="#2d263c" stroke-width="6"/>
  <circle cx="259" cy="187" r="6.5" fill="#201a28"/>
  <circle cx="298" cy="187" r="6.5" fill="#201a28"/>
  <circle cx="255" cy="179" r="2.5" fill="#ffffff"/>
  <circle cx="294" cy="179" r="2.5" fill="#ffffff"/>
  <path d="M262,217 Q275,224 288,217" fill="none" stroke="#2d263c" stroke-width="6" stroke-linecap="round"/>
</svg>
