<svg xmlns="http://www.w3.org/2000/svg" viewBox="0 0 360 360">
  <path d="M258 192 C 286 166, 288 134, 272 112" fill="none" stroke="#2d263c" stroke-width="7" stroke-linecap="round"/>
  <ellipse cx="270" cy="106" rx="13" ry="11" fill="#232030" stroke="#2d263c" stroke-width="6"/>
  <path d="M264 210 C 304 192, 316 158, 304 126" fill="none" stroke="#2d263c" stroke-width="7" stroke-linecap="round"/>
  <ellipse cx="303" cy="120" rx="13" ry="12" fill="#232030" stroke="#2d263c" stroke-width="6"/>
  <path d="M268 228 C 318 220, 338 188, 334 154" fill="none" stroke="#2d263c" stroke-width="7" stroke-linecap="round"/>
  <ellipse cx="333" cy="148" rx="12" ry="12" fill="#232030" stroke="#2d263c" stroke-width="6"/>
  <path d="M106 252 L 100 312 L 134 314 L 131 254 Z" fill="#3b3a44" stroke="#2d263c" stroke-width="7" stroke-linejoin="round"/>
  <path d="M97 308 L 96 330 L 137 331 L 135 310 Z" fill="#8f8b9a" stroke="#2d263c" stroke-width="6" stroke-linejoin="round"/>
  <path d="M232 254 L 230 313 L 263 312 L 258 252 Z" fill="#3b3a44" stroke="#2d263c" stroke-width="7" stroke-linejoin="round"/>
  <path d="M226 309 L 226 330 L 267 329 L 266 308 Z" fill="#8f8b9a" stroke="#2d263c" stroke-width="6" stroke-linejoin="round"/>
  <path d="M182 162 C 240 160, 278 192, 274 234 C 271 272, 232 292, 180 290 C 130 292, 94 270, 92 232 C 90 194, 126 164, 182 162 Z" fill="#3b3a44" stroke="#2d263c" stroke-width="8" stroke-linejoin="round"/>
  <path d="M140 270 L 136 318 L 168 319 L 165 272 Z" fill="#3b3a44" stroke="#2d263c" stroke-width="7" stroke-linejoin="round"/>
  <path d="M133 314 L 132 335 L 172 336 L 171 316 Z" fill="#8f8b9a" stroke="#2d263c" stroke-width="6" stroke-linejoin="round"/>
  <path d="M198 272 L 196 320 L 228 319 L 224 270 Z" fill="#3b3a44" stroke="#2d263c" stroke-width="7" stroke-linejoin="round"/>
  <path d="M192 316 L 192 337 L 232 335 L 231 314 Z" fill="#8f8b9a" stroke="#2d263c" stroke-width="6" stroke-linejoin="round"/>
  <path d="M180 70 C 162 58, 140 64, 134 82 C 112 76, 98 90, 102 108 C 84 112, 80 132, 92 144 C 78 156, 86 176, 104 180 C 98 198, 116 212, 134 206 C 142 224, 168 228, 181 216 C 197 228, 221 224, 229 208 C 249 214, 265 198, 259 182 C 277 176, 283 156, 269 144 C 283 130, 277 110, 259 108 C 265 90, 249 76, 229 82 C 223 62, 198 58, 180 70 Z" fill="#232030" stroke="#2d263c" stroke-width="8" stroke-linejoin="round"/>
  <path d="M134 126 C 100 120, 74 106, 64 74 C 84 92, 108 100, 136 104 Z" fill="#8ed8e8" stroke="#2d263c" stroke-width="7" stroke-linejoin="round"/>
  <path d="M226 124 C 264 118, 290 100, 302 70 C 284 92, 256 98, 224 102 Z" fill="#8ed8e8" stroke="#2d263c" stroke-width="7" stroke-linejoin="round"/>
  <path d="M150 112 C 150 96, 212 94, 213 112 L 217 168 C 218 188, 146 190, 145 168 Z" fill="#4a4854" stroke="#2d263c" stroke-width="7" stroke-linejoin="round"/>
  <ellipse cx="181" cy="190" rx="46" ry="27" fill="#a09caa" stroke="#2d263c" stroke-width="7"/>
  <ellipse cx="163" cy="185" rx="6" ry="8" fill="#2d263c"/>
  <ellipse cx="199" cy="184" rx="6" ry="8" fill="#2d263c"/>
  <path d="M165 207 Q 181 199 197 208" fill="none" stroke="#2d263c" stroke-width="6" stroke-linecap="round"/>
  <circle cx="161" cy="140" r="11" fill="#ffffff" stroke="#2d263c" stroke-width="6"/>
  <circle cx="202" cy="138" r="12" fill="#ffffff" stroke="#2d263c" stroke-width="6"/>
  <circle cx="163" cy="142" r="4" fill="#2d263c"/>
  <circle cx="200" cy="140" r="4.5" fill="#2d263c"/>
  <path d="M144 122 L 172 132" stroke="#2d263c" stroke-width="8" stroke-linecap="round"/>
  <path d="M219 119 L 190 130" stroke="#2d263c" stroke-width="8" stroke-linecap="round"/>
  <path d="M168 88 C 174 78, 190 78, 195 88" fill="none" stroke="#2d263c" stroke-width="6" stroke-linecap="round"/>
</svg>