<svg xmlns="http://www.w3.org/2000/svg" viewBox="0 0 360 360">
<ellipse cx="180" cy="230" rx="95" ry="62" fill="#b5462f" stroke="#2d263c" stroke-width="7" stroke-linejoin="round"/>
<path d="M95 210 Q80 150 120 130 Q140 160 130 205 Z" fill="#8a2f22" stroke="#2d263c" stroke-width="6" stroke-linejoin="round"/>
<circle cx="255" cy="165" r="58" fill="#b5462f" stroke="#2d263c" stroke-width="7"/>
<path d="M240 118 Q225 90 240 70 Q255 95 250 120 Z" fill="#6b7fd1" stroke="#2d263c" stroke-width="6" stroke-linejoin="round"/>
<path d="M280 118 Q295 88 282 68 Q265 92 268 120 Z" fill="#6b7fd1" stroke="#2d263c" stroke-width="6" stroke-linejoin="round"/>
<path d="M255 200 Q235 225 240 250 Q262 240 268 210 Z" fill="#5b4a3a" stroke="#2d263c" stroke-width="6" stroke-linejoin="round"/>
<circle cx="235" cy="150" r="7" fill="#2d263c"/>
<circle cx="275" cy="150" r="7" fill="#2d263c"/>
<path d="M296 175 Q315 172 318 190 Q302 195 292 185 Z" fill="#333" stroke="#2d263c" stroke-width="6" stroke-linejoin="round"/>
<path d="M255 205 Q252 220 262 228 Q272 218 268 202 Z" fill="#e8dcc8" stroke="#2d263c" stroke-width="6" stroke-linejoin="round"/>
<rect x="135" y="270" width="26" height="55" rx="10" fill="#b5462f" stroke="#2d263c" stroke-width="7"/>
<rect x="130" y="310" width="34" height="14" rx="6" fill="#6b7fd1" stroke="#2d263c" stroke-width="6"/>
<rect x="195" y="272" width="26" height="55" rx="10" fill="#b5462f" stroke="#2d263c" stroke-width="7"/>
<rect x="190" y="312" width="34" height="14" rx="6" fill="#6b7fd1" stroke="#2d263c" stroke-width="6"/>
<rect x="240" y="270" width="26" height="52" rx="10" fill="#8a2f22" stroke="#2d263c" stroke-width="7"/>
<rect x="235" y="308" width="34" height="14" rx="6" fill="#6b7fd1" stroke="#2d263c" stroke-width="6"/>
<path d="M85 230 Q60 245 70 270 Q95 260 100 235 Z" fill="#8a2f22" stroke="#2d263c" stroke-width="6" stroke-linejoin="round"/>
<path d="M60 260 Q40 275 55 295 Q75 290 78 265 Z" fill="#5b4a3a" stroke="#2d263c" stroke-width="6" stroke-linejoin="round"/>
<path d="M180 175 Q220 165 250 185" fill="none" stroke="#6b7fd1" stroke-width="7" stroke-linecap="round"/>
<path d="M150 220 Q190 210 235 225" fill="none" stroke="#6b7fd1" stroke-width="6" stroke-linecap="round"/>
</svg>
