<svg xmlns="http://www.w3.org/2000/svg" viewBox="0 0 360 360">
  <g stroke="#2d263c" stroke-width="7" stroke-linejoin="round" stroke-linecap="round">
    <path d="M290 168 Q310 150 316 128" fill="none"/>
    <path d="M296 182 Q322 178 328 164" fill="none"/>
    <path d="M294 196 Q316 208 322 226" fill="none"/>
    <circle cx="318" cy="124" r="8" fill="#312b3a" stroke-width="5"/>
    <circle cx="326" cy="162" r="7" fill="#312b3a" stroke-width="5"/>
    <circle cx="324" cy="230" r="8" fill="#312b3a" stroke-width="5"/>
    <rect x="232" y="235" width="34" height="80" rx="13" fill="#3b3744" transform="rotate(-2 249 275)"/>
    <rect x="274" y="232" width="34" height="82" rx="13" fill="#3b3744" transform="rotate(5 291 273)"/>
    <rect x="228" y="298" width="42" height="22" rx="8" fill="#5d5666"/>
    <rect x="272" y="296" width="42" height="22" rx="8" fill="#5d5666"/>
    <ellipse cx="205" cy="205" rx="105" ry="58" fill="#45404c"/>
    <rect x="112" y="235" width="34" height="80" rx="13" fill="#3b3744" transform="rotate(-4 129 275)"/>
    <rect x="160" y="238" width="34" height="78" rx="13" fill="#3b3744" transform="rotate(3 177 277)"/>
    <rect x="104" y="298" width="44" height="22" rx="8" fill="#5d5666"/>
    <rect x="156" y="300" width="42" height="22" rx="8" fill="#5d5666"/>
    <path d="M110 120 C76 112 56 84 60 50 C62 40 68 32 78 30 C74 58 84 86 104 100 L116 106 Z" fill="#ff8e2e"/>
    <path d="M186 120 C220 112 240 84 236 50 C234 40 228 32 218 30 C222 58 212 86 192 100 L180 106 Z" fill="#ff8e2e"/>
    <path d="M64 54 C66 43 70 35 78 31 C76 43 74 53 70 63 C67 60 65 58 64 54 Z" fill="#e23b2c" stroke="none"/>
    <path d="M232 54 C230 43 226 35 218 31 C220 43 222 53 226 63 C229 60 231 58 232 54 Z" fill="#e23b2c" stroke="none"/>
    <path d="M150 50 C120 45 95 60 85 80 C60 78 50 100 62 115 C42 125 45 152 65 158 C55 178 72 198 92 192 C95 215 122 222 138 208 C152 226 182 222 190 204 C215 212 235 195 228 175 C250 168 252 142 232 132 C246 115 234 92 212 92 C212 68 188 52 170 60 C165 50 155 48 150 50 Z" fill="#312b3a"/>
    <ellipse cx="148" cy="166" rx="50" ry="42" fill="#45404c"/>
    <ellipse cx="148" cy="196" rx="42" ry="26" fill="#6a6372"/>
    <ellipse cx="120" cy="150" rx="11" ry="13" fill="#ffffff" stroke-width="6"/>
    <ellipse cx="176" cy="148" rx="11" ry="13" fill="#ffffff" stroke-width="6"/>
    <circle cx="122" cy="153" r="5.5" fill="#d93a2b" stroke="none"/>
    <circle cx="174" cy="151" r="5.5" fill="#d93a2b" stroke="none"/>
    <path d="M98 134 L136 150" fill="none" stroke-width="9"/>
    <path d="M200 132 L162 148" fill="none" stroke-width="9"/>
    <ellipse cx="130" cy="198" rx="5.5" ry="8" fill="#2d263c" stroke="none" transform="rotate(-12 130 198)"/>
    <ellipse cx="166" cy="198" rx="5.5" ry="8" fill="#2d263c" stroke="none" transform="rotate(12 166 198)"/>
    <path d="M137 214 Q148 220 159 213" fill="none" stroke-width="6"/>
    <path d="M112 197 C98 196 88 206 90 218 C91 226 86 232 82 236 C92 236 100 232 104 226 C112 221 117 208 112 197 Z" fill="#ff8e2e" stroke-width="5"/>
    <path d="M184 199 C198 198 208 208 206 220 C205 228 210 234 214 238 C204 238 196 234 192 228 C184 223 179 210 184 199 Z" fill="#ff8e2e" stroke-width="5"/>
    <circle cx="100" cy="213" r="5" fill="#ffd24a" stroke="none"/>
    <circle cx="197" cy="215" r="5" fill="#ffd24a" stroke="none"/>
  </g>
</svg>