<svg xmlns="http://www.w3.org/2000/svg" viewBox="0 0 360 360">
  <!-- 後ろ脚(左奥) -->
  <line x1="110" y1="230" x2="60" y2="285" stroke="#2d263c" stroke-width="7" stroke-linecap="round"/>
  <line x1="100" y1="245" x2="52" y2="305" stroke="#2d263c" stroke-width="7" stroke-linecap="round"/>
  <line x1="95" y1="262" x2="55" y2="325" stroke="#2d263c" stroke-width="7" stroke-linecap="round"/>
  <!-- 後ろ脚(右奥) -->
  <line x1="248" y1="230" x2="300" y2="285" stroke="#2d263c" stroke-width="7" stroke-linecap="round"/>
  <line x1="258" y1="245" x2="308" y2="305" stroke="#2d263c" stroke-width="7" stroke-linecap="round"/>
  <line x1="263" y1="262" x2="305" y2="325" stroke="#2d263c" stroke-width="7" stroke-linecap="round"/>

  <!-- 左ハサミ(大きい方) -->
  <path d="M 118 190 Q 58 170 38 130 Q 22 100 48 88 Q 68 78 82 100 Q 62 72 80 60 Q 98 48 110 72 Q 120 90 100 108 Q 128 95 132 118 Z" fill="#e84c1a" stroke="#2d263c" stroke-width="7" stroke-linejoin="round"/>
  <!-- ハサミのギザギザ(左) -->
  <path d="M 52 105 L 60 95 L 68 105 L 76 90 L 84 103" fill="none" stroke="#2d263c" stroke-width="4" stroke-linecap="round" stroke-linejoin="round"/>

  <!-- 右ハサミ(少し小さめ・非対称) -->
  <path d="M 242 188 Q 300 162 322 126 Q 340 98 316 84 Q 298 74 286 94 Q 302 66 285 56 Q 268 46 254 68 Q 244 86 262 104 Q 236 93 230 116 Z" fill="#e84c1a" stroke="#2d263c" stroke-width="7" stroke-linejoin="round"/>
  <!-- ハサミのギザギザ(右) -->
  <path d="M 310 100 L 302 90 L 294 101 L 286 87 L 278 99" fill="none" stroke="#2d263c" stroke-width="4" stroke-linecap="round" stroke-linejoin="round"/>

  <!-- 甲羅(本体) -->
  <path d="M 112 175 Q 105 120 130 100 Q 158 78 180 76 Q 205 78 232 100 Q 258 122 248 175 Q 240 220 180 228 Q 122 222 112 175 Z" fill="#e84c1a" stroke="#2d263c" stroke-width="8" stroke-linejoin="round"/>

  <!-- 甲羅の筋(模様) -->
  <path d="M 180 82 Q 180 150 180 220" fill="none" stroke="#c03a10" stroke-width="3" stroke-linecap="round"/>
  <path d="M 148 90 Q 145 155 148 210" fill="none" stroke="#c03a10" stroke-width="2.5" stroke-linecap="round"/>
  <path d="M 212 90 Q 215 155 212 210" fill="none" stroke="#c03a10" stroke-width="2.5" stroke-linecap="round"/>

  <!-- 甲羅の額の出っ張り -->
  <path d="M 162 82 Q 180 64 198 82" fill="#e84c1a" stroke="#2d263c" stroke-width="7" stroke-linejoin="round"/>

  <!-- 腹(クリーム色) -->
  <ellipse cx="180" cy="205" rx="48" ry="28" fill="#f5c97a" stroke="#2d263c" stroke-width="6"/>

  <!-- 腹の縞 -->
  <path d="M 148 198 Q 180 194 212 198" fill="none" stroke="#e6a84a" stroke-width="3" stroke-linecap="round"/>
  <path d="M 145 210 Q 180 207 215 210" fill="none" stroke="#e6a84a" stroke-width="3" stroke-linecap="round"/>

  <!-- 目(左) -->
  <circle cx="157" cy="145" r="16" fill="white" stroke="#2d263c" stroke-width="6"/>
  <circle cx="160" cy="143" r="9" fill="#1a1a1a"/>
  <circle cx="163" cy="140" r="3" fill="white"/>

  <!-- 目(右) -->
  <circle cx="203" cy="145" r="16" fill="white" stroke="#2d263c" stroke-width="6"/>
  <circle cx="200" cy="143" r="9" fill="#1a1a1a"/>
  <circle cx="203" cy="140" r="3" fill="white"/>

  <!-- 眉毛(吊り目気味に) -->
  <path d="M 144 132 Q 157 126 168 130" fill="none" stroke="#2d263c" stroke-width="5" stroke-linecap="round"/>
  <path d="M 192 130 Q 203 126 216 132" fill="none" stroke="#2d263c" stroke-width="5" stroke-linecap="round"/>

  <!-- 口(広くて威勢いい) -->
  <path d="M 162 168 Q 180 180 198 168" fill="none" stroke="#2d263c" stroke-width="6" stroke-linecap="round"/>

  <!-- ほっぺ(赤みのオレンジ) -->
  <ellipse cx="148" cy="162" rx="10" ry="7" fill="#ff7744" opacity="0.55"/>
  <ellipse cx="212" cy="162" rx="10" ry="7" fill="#ff7744" opacity="0.55"/>

  <!-- 触角(ちょこんと) -->
  <line x1="168" y1="80" x2="158" y2="58" stroke="#2d263c" stroke-width="5" stroke-linecap="round"/>
  <circle cx="157" cy="55" r="5" fill="#e84c1a" stroke="#2d263c" stroke-width="4"/>
  <line x1="192" y1="80" x2="202" y2="58" stroke="#2d263c" stroke-width="5" stroke-linecap="round"/>
  <circle cx="203" cy="55" r="5" fill="#e84c1a" stroke="#2d263c" stroke-width="4"/>
</svg>