<svg xmlns="http://www.w3.org/2000/svg" viewBox="0 0 360 360">
  <g stroke="#2d263c" stroke-width="7" stroke-linejoin="round" stroke-linecap="round">
    <path d="M252 198 q44 -14 52 -48" fill="none" stroke-width="9"/>
    <path d="M256 212 q52 -6 64 -32" fill="none" stroke-width="9"/>
    <path d="M256 226 q54 8 70 -6" fill="none" stroke-width="9"/>
    <circle cx="306" cy="148" r="10" fill="#2b252e"/>
    <circle cx="322" cy="178" r="9" fill="#2b252e"/>
    <circle cx="324" cy="218" r="9" fill="#2b252e"/>
    <ellipse cx="180" cy="232" rx="100" ry="66" fill="#3f3941"/>
    <path d="M101 260 q-7 32 -2 54 q13 5 26 1 q5 -30 2 -50 z" fill="#353039"/>
    <path d="M232 262 q-4 30 0 52 q13 4 26 0 q4 -28 -2 -50 z" fill="#353039"/>
    <ellipse cx="113" cy="318" rx="16" ry="11" fill="#8f8c99"/>
    <ellipse cx="246" cy="318" rx="16" ry="11" fill="#8f8c99"/>
    <path d="M134 252 q-8 36 -3 62 q14 5 28 1 q6 -34 2 -58 z" fill="#3f3941"/>
    <path d="M206 252 q-5 36 -1 62 q14 5 28 0 q6 -32 1 -57 z" fill="#3f3941"/>
    <ellipse cx="149" cy="320" rx="17" ry="11" fill="#8f8c99"/>
    <ellipse cx="221" cy="320" rx="17" ry="11" fill="#8f8c99"/>
    <path d="M269 172 Q293 199 256 217 Q260 253 226 246 Q214 282 183 260 Q152 278 140 245 Q102 253 110 214 Q73 203 96 170 Q77 141 110 130 Q102 91 142 99 Q152 62 184 88 Q214 66 228 99 Q264 95 256 130 Q293 145 269 172 Z" fill="#2b252e"/>
    <path d="M146 132 C 110 130 92 108 96 78 C 112 96 134 102 146 118 Z" fill="#bdbac8"/>
    <path d="M222 130 C 258 126 276 102 270 74 C 256 94 234 100 222 116 Z" fill="#bdbac8"/>
    <path d="M183 108 q-44 -2 -48 40 q-4 36 8 52 q16 18 42 17 q26 1 40 -19 q11 -16 7 -50 q-5 -38 -49 -40 z" fill="#474049"/>
    <path d="M138 154 q-24 -6 -32 8 q10 13 28 8 z" fill="#474049"/>
    <path d="M228 152 q26 -8 34 6 q-11 15 -30 9 z" fill="#474049"/>
    <path d="M156 112 q8 -18 26 -20 q-4 10 2 14 q10 -8 22 -4 q-8 16 -24 18 q-18 2 -26 -8 z" fill="#2b252e"/>
    <ellipse cx="160" cy="160" rx="12" ry="10" fill="#ffffff"/>
    <ellipse cx="208" cy="158" rx="13" ry="11" fill="#ffffff"/>
    <circle cx="163" cy="162" r="4.5" fill="#2d263c" stroke="none"/>
    <circle cx="204" cy="160" r="5" fill="#2d263c" stroke="none"/>
    <path d="M146 142 l28 11" fill="none" stroke-width="8"/>
    <path d="M222 140 l-28 12" fill="none" stroke-width="8"/>
    <path d="M150 196 q-6 28 33 30 q40 2 36 -26 q-3 -18 -34 -19 q-30 -1 -35 15 z" fill="#5d5560"/>
    <ellipse cx="167" cy="206" rx="5" ry="4" fill="#2d263c" stroke="none"/>
    <ellipse cx="200" cy="205" rx="5.5" ry="4" fill="#2d263c" stroke="none"/>
    <path d="M171 217 q9 6 18 1 q8 -4 15 2" fill="none"/>
    <path d="M118 212 q-18 2 -18 -10 q0 -10 12 -10 q4 -8 14 -4 q8 4 4 12 q6 10 -12 12 z" fill="#eef1f7"/>
    <path d="M250 206 q18 0 18 -11 q0 -10 -12 -9 q-4 -9 -14 -4 q-8 4 -4 11 q-8 9 12 13 z" fill="#eef1f7"/>
  </g>
</svg>