<svg xmlns="http://www.w3.org/2000/svg" viewBox="0 0 360 360">
  <path d="M115,190 C75,120 25,140 15,190 C25,240 75,260 115,190 Z" fill="#FF9BC4" stroke="#2d263c" stroke-width="7" stroke-linejoin="round"/>
  <circle cx="45" cy="160" r="11" fill="#FFE066"/>
  <circle cx="35" cy="192" r="9" fill="#FFE066"/>
  <circle cx="50" cy="222" r="11" fill="#FFE066"/>
  <path d="M175,258 C178,295 205,295 202,260 Z" fill="#FF9BC4" stroke="#2d263c" stroke-width="6" stroke-linejoin="round"/>
  <path d="M240,215 C272,228 278,255 245,250 C235,235 235,222 240,215 Z" fill="#FFBBD8" stroke="#2d263c" stroke-width="6" stroke-linejoin="round"/>
  <ellipse cx="190" cy="190" rx="95" ry="72" fill="#7ED4E6" stroke="#2d263c" stroke-width="8" stroke-linejoin="round"/>
  <path d="M110,150 C150,105 250,100 275,140 C240,120 140,120 110,150 Z" fill="#3F9FC0"/>
  <ellipse cx="205" cy="230" rx="58" ry="34" fill="#FFF6DC"/>
  <circle cx="230" cy="150" r="9" fill="#FFE066"/>
  <circle cx="250" cy="200" r="8" fill="#FFE066"/>
  <path d="M150,125 C160,80 200,78 210,118 C190,108 165,112 150,125 Z" fill="#FF9BC4" stroke="#2d263c" stroke-width="6" stroke-linejoin="round"/>
  <path d="M215,175 Q225,190 215,205" fill="none" stroke="#2d263c" stroke-width="5" stroke-linecap="round" opacity="0.6"/>
  <circle cx="255" cy="163" r="23" fill="#FFFFFF" stroke="#2d263c" stroke-width="6"/>
  <circle cx="262" cy="163" r="12" fill="#242231"/>
  <circle cx="267" cy="155" r="4" fill="#FFFFFF"/>
  <path d="M292,195 Q303,200 291,209" fill="none" stroke="#2d263c" stroke-width="6" stroke-linecap="round"/>
</svg>
