<svg xmlns="http://www.w3.org/2000/svg" viewBox="0 0 360 360">
<ellipse cx="180" cy="250" rx="90" ry="68" fill="#f5f5f5" stroke="#2d263c" stroke-width="7" stroke-linejoin="round"/>
<path d="M125 218 L112 282 L138 270 Z" fill="#3a3a3a" stroke="#2d263c" stroke-width="6" stroke-linejoin="round"/>
<path d="M235 218 L248 282 L222 270 Z" fill="#3a3a3a" stroke="#2d263c" stroke-width="6" stroke-linejoin="round"/>
<rect x="150" y="282" width="18" height="30" rx="6" fill="#f4a44b" stroke="#2d263c" stroke-width="6"/>
<rect x="192" y="282" width="18" height="30" rx="6" fill="#f4a44b" stroke="#2d263c" stroke-width="6"/>
<circle cx="180" cy="148" r="74" fill="#2d263c" stroke="#2d263c" stroke-width="7"/>
<path d="M118 132 Q140 110 162 132" fill="none" stroke="#ffffff" stroke-width="9" stroke-linecap="round"/>
<path d="M198 132 Q220 110 242 132" fill="none" stroke="#ffffff" stroke-width="9" stroke-linecap="round"/>
<path d="M150 78 Q180 48 210 78 Q195 95 180 90 Q165 95 150 78 Z" fill="#2d263c" stroke="#2d263c" stroke-width="6" stroke-linejoin="round"/>
<path d="M170 178 Q220 198 250 175 Q243 222 200 215 Q172 205 170 178 Z" fill="#f4a44b" stroke="#2d263c" stroke-width="6" stroke-linejoin="round"/>
<circle cx="155" cy="138" r="13" fill="#ffffff" stroke="#2d263c" stroke-width="5"/>
<circle cx="205" cy="138" r="13" fill="#ffffff" stroke="#2d263c" stroke-width="5"/>
<circle cx="158" cy="141" r="6" fill="#2d263c"/>
<circle cx="208" cy="141" r="6" fill="#2d263c"/>
</svg>