<svg xmlns="http://www.w3.org/2000/svg" viewBox="0 0 360 360"><g stroke="#2d263c" stroke-linejoin="round" stroke-linecap="round"><path d="M262 206 Q304 190 318 158" fill="none" stroke-width="8"/><path d="M264 218 Q310 214 327 188" fill="none" stroke-width="8"/><path d="M263 231 Q306 244 322 226" fill="none" stroke-width="8"/><rect x="98" y="252" width="28" height="60" rx="9" fill="#38343f" stroke-width="6"/><rect x="236" y="250" width="28" height="62" rx="9" fill="#38343f" stroke-width="6"/><rect x="94" y="300" width="35" height="22" rx="7" fill="#9d9ea8" stroke-width="6"/><rect x="233" y="300" width="34" height="23" rx="7" fill="#9d9ea8" stroke-width="6"/><path d="M100 235 C97 192 135 175 180 178 C236 173 268 194 266 238 C269 277 230 296 178 292 C129 297 102 277 100 235 Z" fill="#4a4553" stroke-width="8"/><rect x="128" y="262" width="33" height="64" rx="10" fill="#4a4553" stroke-width="7"/><rect x="203" y="263" width="32" height="63" rx="10" fill="#4a4553" stroke-width="7"/><rect x="123" y="308" width="42" height="25" rx="8" fill="#b9bac3" stroke-width="7"/><rect x="199" y="309" width="40" height="24" rx="8" fill="#b9bac3" stroke-width="7"/><path d="M95 150 Q78 118 102 100 Q92 66 124 62 Q128 32 165 44 Q195 24 218 50 Q258 42 256 80 Q288 96 272 128 Q290 158 262 172 Q258 200 224 196 Q196 214 168 200 Q132 212 118 188 Q92 188 95 150 Z" fill="#262230" stroke-width="8"/><path d="M116 120 C86 114 66 94 70 64 C92 76 112 90 124 104 Z" fill="#b9bac3" stroke-width="7"/><path d="M242 112 C274 104 294 80 288 50 C268 66 244 82 234 98 Z" fill="#b9bac3" stroke-width="7"/><path d="M134 144 q-27 -3 -33 14 q15 12 33 4 z" fill="#4a4553" stroke-width="6"/><path d="M228 140 q27 -5 34 12 q-14 13 -34 6 z" fill="#4a4553" stroke-width="6"/><ellipse cx="180" cy="148" rx="50" ry="54" fill="#4a4553" stroke-width="8"/><path d="M138 112 q8 -20 25 -11 q12 -16 27 -2 q17 -10 25 7 q-35 15 -77 6 z" fill="#262230" stroke-width="6"/><path d="M143 174 q-5 24 16 28 q20 6 42 0 q22 -4 17 -28 q-4 -19 -37 -19 q-34 0 -38 19 z" fill="#716c79" stroke-width="7"/><ellipse cx="163" cy="180" rx="7" ry="5" fill="#2d263c" stroke-width="3"/><ellipse cx="199" cy="182" rx="8" ry="5" fill="#2d263c" stroke-width="3"/><path d="M172 195 q9 6 20 0" fill="none" stroke-width="5"/><circle cx="161" cy="133" r="9" fill="#ffffff" stroke-width="6"/><circle cx="203" cy="131" r="11" fill="#ffffff" stroke-width="6"/><circle cx="163" cy="135" r="4.5" fill="#c0392b" stroke-width="3"/><circle cx="200" cy="133" r="5" fill="#c0392b" stroke-width="3"/><path d="M145 119 l27 10" fill="none" stroke-width="8"/><path d="M219 115 l-27 12" fill="none" stroke-width="8"/><path d="M132 218 q4 14 16 18" fill="none" stroke-width="5"/><path d="M232 216 q-3 14 -14 19" fill="none" stroke-width="5"/></g></svg>