<svg xmlns="http://www.w3.org/2000/svg" viewBox="0 0 360 360">
  <path d="M245 225 C 295 195 318 155 303 112" fill="none" stroke="#2d263c" stroke-width="16" stroke-linecap="round"/>
  <path d="M245 225 C 295 195 318 155 303 112" fill="none" stroke="#b5712e" stroke-width="7" stroke-linecap="round"/>
  <circle cx="302" cy="105" r="17" fill="#7a4a1e" stroke="#2d263c" stroke-width="7"/>
  <path d="M228 210 C 256 162 252 120 234 92" fill="none" stroke="#2d263c" stroke-width="16" stroke-linecap="round"/>
  <path d="M228 210 C 256 162 252 120 234 92" fill="none" stroke="#b5712e" stroke-width="7" stroke-linecap="round"/>
  <circle cx="231" cy="84" r="15" fill="#7a4a1e" stroke="#2d263c" stroke-width="7"/>
  <path d="M120 222 C 72 196 52 152 70 110" fill="none" stroke="#2d263c" stroke-width="16" stroke-linecap="round"/>
  <path d="M120 222 C 72 196 52 152 70 110" fill="none" stroke="#b5712e" stroke-width="7" stroke-linecap="round"/>
  <circle cx="68" cy="103" r="16" fill="#7a4a1e" stroke="#2d263c" stroke-width="7"/>
  <path d="M75 245 C 77 196 122 170 181 173 C 246 169 290 199 286 249 C 283 300 241 322 179 319 C 117 323 72 299 75 245 Z" fill="#b5712e" stroke="#2d263c" stroke-width="8" stroke-linejoin="round"/>
  <path d="M86 294 L 84 326 L 113 328 L 114 296 Z" fill="#b5712e" stroke="#2d263c" stroke-width="7" stroke-linejoin="round"/>
  <path d="M82 322 Q 81 340 99 340 Q 117 340 116 324 Z" fill="#555160" stroke="#2d263c" stroke-width="7" stroke-linejoin="round"/>
  <path d="M138 298 L 137 328 L 165 329 L 164 299 Z" fill="#b5712e" stroke="#2d263c" stroke-width="7" stroke-linejoin="round"/>
  <path d="M134 324 Q 134 341 151 341 Q 168 340 167 325 Z" fill="#555160" stroke="#2d263c" stroke-width="7" stroke-linejoin="round"/>
  <path d="M200 299 L 199 328 L 227 329 L 227 298 Z" fill="#b5712e" stroke="#2d263c" stroke-width="7" stroke-linejoin="round"/>
  <path d="M196 324 Q 196 340 213 340 Q 230 340 230 325 Z" fill="#555160" stroke="#2d263c" stroke-width="7" stroke-linejoin="round"/>
  <path d="M250 293 L 250 325 L 278 326 L 279 294 Z" fill="#b5712e" stroke="#2d263c" stroke-width="7" stroke-linejoin="round"/>
  <path d="M246 321 Q 246 339 264 339 Q 281 338 281 323 Z" fill="#555160" stroke="#2d263c" stroke-width="7" stroke-linejoin="round"/>
  <path d="M134 120 C 92 110 68 82 76 46 C 94 70 116 86 146 94 Z" fill="#e8d6a0" stroke="#2d263c" stroke-width="7" stroke-linejoin="round"/>
  <path d="M226 118 C 270 110 292 78 286 44 C 266 68 244 84 216 92 Z" fill="#e8d6a0" stroke="#2d263c" stroke-width="7" stroke-linejoin="round"/>
  <path d="M126 142 C 110 138 100 148 102 162 C 112 162 124 156 130 150 Z" fill="#b5712e" stroke="#2d263c" stroke-width="6" stroke-linejoin="round"/>
  <path d="M236 140 C 252 134 262 144 261 158 C 250 160 238 154 232 148 Z" fill="#b5712e" stroke="#2d263c" stroke-width="6" stroke-linejoin="round"/>
  <path d="M124 142 C 122 98 148 76 181 78 C 215 76 240 100 238 143 C 236 188 214 210 180 209 C 147 211 126 186 124 142 Z" fill="#b5712e" stroke="#2d263c" stroke-width="8" stroke-linejoin="round"/>
  <circle cx="153" cy="110" r="12" fill="#aeb0b8" stroke="#2d263c" stroke-width="6"/>
  <circle cx="181" cy="101" r="14" fill="#aeb0b8" stroke="#2d263c" stroke-width="6"/>
  <circle cx="209" cy="111" r="11" fill="#aeb0b8" stroke="#2d263c" stroke-width="6"/>
  <path d="M156 186 C 154 164 168 156 181 157 C 196 156 209 166 207 188 C 206 207 195 215 181 214 C 167 215 157 204 156 186 Z" fill="#cf9050" stroke="#2d263c" stroke-width="7" stroke-linejoin="round"/>
  <ellipse cx="168" cy="184" rx="7" ry="10" fill="#2d263c"/>
  <ellipse cx="195" cy="186" rx="7" ry="9" fill="#2d263c"/>
  <circle cx="152" cy="142" r="10" fill="#ffffff" stroke="#2d263c" stroke-width="6"/>
  <circle cx="155" cy="145" r="4" fill="#2d263c"/>
  <circle cx="211" cy="141" r="10" fill="#ffffff" stroke="#2d263c" stroke-width="6"/>
  <circle cx="208" cy="144" r="4" fill="#2d263c"/>
  <path d="M136 127 L 165 137" fill="none" stroke="#2d263c" stroke-width="7" stroke-linecap="round"/>
  <path d="M226 125 L 198 136" fill="none" stroke="#2d263c" stroke-width="7" stroke-linecap="round"/>
  <path d="M170 203 Q 181 209 193 202" fill="none" stroke="#2d263c" stroke-width="6" stroke-linecap="round"/>
</svg>