<svg xmlns="http://www.w3.org/2000/svg" viewBox="0 0 360 360">
  <!-- 3本しっぽ (後ろ) -->
  <path d="M240,210 Q270,190 285,170 Q295,155 280,145" fill="none" stroke="#2d263c" stroke-width="7" stroke-linecap="round"/>
  <path d="M238,218 Q272,205 292,195 Q308,188 300,175" fill="none" stroke="#2d263c" stroke-width="7" stroke-linecap="round"/>
  <path d="M242,225 Q268,220 285,218 Q302,215 298,200" fill="none" stroke="#2d263c" stroke-width="7" stroke-linecap="round"/>
  <!-- しっぽ先端ふさふさ -->
  <ellipse cx="281" cy="143" rx="10" ry="7" fill="#4a7fa8" stroke="#2d263c" stroke-width="5" transform="rotate(-20,281,143)"/>
  <ellipse cx="301" cy="172" rx="10" ry="7" fill="#4a7fa8" stroke="#2d263c" stroke-width="5" transform="rotate(10,301,172)"/>
  <ellipse cx="299" cy="198" rx="10" ry="7" fill="#4a7fa8" stroke="#2d263c" stroke-width="5" transform="rotate(5,299,198)"/>

  <!-- 後ろ足(左) -->
  <path d="M215,255 Q210,280 205,305 Q203,315 215,315 Q222,315 220,305 L222,280" fill="#3a5f80" stroke="#2d263c" stroke-width="7" stroke-linejoin="round" stroke-linecap="round"/>
  <!-- 後ろ足(右) -->
  <path d="M238,258 Q242,280 245,305 Q247,315 235,315 Q228,315 230,305 L228,280" fill="#3a5f80" stroke="#2d263c" stroke-width="7" stroke-linejoin="round" stroke-linecap="round"/>

  <!-- 体 (メインボディ) -->
  <ellipse cx="195" cy="230" rx="72" ry="52" fill="#3a5f80" stroke="#2d263c" stroke-width="8" stroke-linejoin="round"/>
  <!-- 腹 -->
  <ellipse cx="182" cy="248" rx="42" ry="28" fill="#5a8aaa" stroke="#2d263c" stroke-width="5"/>

  <!-- 前足(右・奥) -->
  <path d="M152,268 Q148,290 144,312 Q142,322 154,320 Q162,319 160,310 L162,288" fill="#335570" stroke="#2d263c" stroke-width="7" stroke-linejoin="round" stroke-linecap="round"/>
  <!-- 前足(左・手前) -->
  <path d="M130,265 Q124,288 120,310 Q118,320 130,320 Q138,320 136,310 L138,288" fill="#3a5f80" stroke="#2d263c" stroke-width="7" stroke-linejoin="round" stroke-linecap="round"/>

  <!-- 首 -->
  <path d="M140,210 Q125,195 118,180 Q112,165 120,155" fill="#3a5f80" stroke="#2d263c" stroke-width="7" stroke-linejoin="round"/>

  <!-- 頭 -->
  <ellipse cx="125" cy="145" rx="48" ry="42" fill="#3a5f80" stroke="#2d263c" stroke-width="8" stroke-linejoin="round"/>

  <!-- 額のひれ(水タイプ特徴) -->
  <path d="M100,118 Q95,102 102,92 Q110,82 118,95 Q108,108 110,118" fill="#4a90c0" stroke="#2d263c" stroke-width="5" stroke-linejoin="round"/>
  <path d="M125,112 Q122,95 130,85 Q138,76 144,90 Q136,102 138,113" fill="#4a90c0" stroke="#2d263c" stroke-width="5" stroke-linejoin="round"/>

  <!-- 角(2本) -->
  <path d="M102,112 Q88,95 80,82" fill="none" stroke="#2d263c" stroke-width="8" stroke-linecap="round"/>
  <path d="M102,112 Q92,100 88,88 Q87,83 93,86" fill="#4a90c0" stroke="#2d263c" stroke-width="6" stroke-linejoin="round" stroke-linecap="round"/>
  <path d="M143,110 Q155,92 162,80" fill="none" stroke="#2d263c" stroke-width="8" stroke-linecap="round"/>
  <path d="M143,110 Q152,95 155,83 Q157,78 151,82" fill="#4a90c0" stroke="#2d263c" stroke-width="6" stroke-linejoin="round" stroke-linecap="round"/>

  <!-- 耳 -->
  <path d="M94,128 Q78,118 72,108 Q74,100 84,105 Q90,118 98,124" fill="#3a5f80" stroke="#2d263c" stroke-width="6" stroke-linejoin="round"/>
  <path d="M156,126 Q170,115 176,104 Q174,97 164,103 Q158,116 150,124" fill="#3a5f80" stroke="#2d263c" stroke-width="6" stroke-linejoin="round"/>

  <!-- 鼻 -->
  <ellipse cx="125" cy="172" rx="22" ry="14" fill="#2a4560" stroke="#2d263c" stroke-width="6"/>
  <!-- 鼻の穴 -->
  <ellipse cx="117" cy="172" rx="5" ry="4" fill="#1a3040"/>
  <ellipse cx="133" cy="172" rx="5" ry="4" fill="#1a3040"/>

  <!-- 目(怒り顔・左) -->
  <ellipse cx="106" cy="148" rx="10" ry="9" fill="white" stroke="#2d263c" stroke-width="5"/>
  <ellipse cx="108" cy="149" rx="5" ry="5" fill="#1a1a2e"/>
  <ellipse cx="109" cy="148" rx="2" ry="2" fill="white"/>
  <!-- 眉毛(怒り) -->
  <path d="M97,140 Q107,135 116,138" fill="none" stroke="#2d263c" stroke-width="5" stroke-linecap="round"/>

  <!-- 目(右) -->
  <ellipse cx="144" cy="148" rx="10" ry="9" fill="white" stroke="#2d263c" stroke-width="5"/>
  <ellipse cx="142" cy="149" rx="5" ry="5" fill="#1a1a2e"/>
  <ellipse cx="143" cy="148" rx="2" ry="2" fill="white"/>
  <!-- 眉毛(怒り) -->
  <path d="M135,138 Q144,134 153,138" fill="none" stroke="#2d263c" stroke-width="5" stroke-linecap="round"/>

  <!-- たてがみ -->
  <path d="M110,162 Q105,175 100,188 Q112,192 125,190 Q138,192 150,188 Q145,175 140,162 Q132,168 125,168 Q118,168 110,162Z" fill="#2a4a6a" stroke="#2d263c" stroke-width="5" stroke-linejoin="round"/>

  <!-- 体の模様(水っぽい斑) -->
  <ellipse cx="175" cy="218" rx="15" ry="9" fill="#4a7fa8" opacity="0.7" transform="rotate(-15,175,218)"/>
  <ellipse cx="200" cy="205" rx="10" ry="6" fill="#4a7fa8" opacity="0.6" transform="rotate(10,200,205)"/>
</svg>