<svg xmlns="http://www.w3.org/2000/svg" viewBox="0 0 360 360">
  <!-- 尻尾3本（後ろ） -->
  <path d="M230 210 Q270 170 290 140 Q300 120 285 105" fill="none" stroke="#8B5E2F" stroke-width="14" stroke-linecap="round"/>
  <path d="M228 215 Q265 185 278 160 Q288 138 270 118" fill="none" stroke="#8B5E2F" stroke-width="14" stroke-linecap="round"/>
  <path d="M226 220 Q258 200 265 180 Q272 158 255 142" fill="none" stroke="#8B5E2F" stroke-width="14" stroke-linecap="round"/>
  <!-- 尻尾の先の毛 -->
  <path d="M285 105 Q295 95 288 88 Q280 85 275 95 Q268 87 265 98" fill="#4a3010" stroke="#2d263c" stroke-width="3" stroke-linejoin="round"/>
  <path d="M270 118 Q282 108 276 100 Q268 97 264 108 Q257 100 254 112" fill="#4a3010" stroke="#2d263c" stroke-width="3" stroke-linejoin="round"/>
  <path d="M255 142 Q266 132 261 124 Q253 121 249 133 Q242 125 240 138" fill="#4a3010" stroke="#2d263c" stroke-width="3" stroke-linejoin="round"/>

  <!-- 体(胴体) -->
  <ellipse cx="175" cy="230" rx="95" ry="70" fill="#9B6E3A" stroke="#2d263c" stroke-width="7" stroke-linejoin="round"/>

  <!-- 腹 -->
  <ellipse cx="162" cy="245" rx="55" ry="42" fill="#E8C87A" stroke="#2d263c" stroke-width="4"/>

  <!-- 脚4本 -->
  <rect x="108" y="285" width="28" height="48" rx="8" fill="#8B5E2F" stroke="#2d263c" stroke-width="6" stroke-linejoin="round"/>
  <rect x="148" y="290" width="26" height="44" rx="8" fill="#8B5E2F" stroke="#2d263c" stroke-width="6" stroke-linejoin="round"/>
  <rect x="192" y="290" width="26" height="44" rx="8" fill="#8B5E2F" stroke="#2d263c" stroke-width="6" stroke-linejoin="round"/>
  <rect x="228" y="285" width="28" height="48" rx="8" fill="#8B5E2F" stroke="#2d263c" stroke-width="6" stroke-linejoin="round"/>
  <!-- ひづめ -->
  <rect x="106" y="326" width="32" height="12" rx="5" fill="#2d263c"/>
  <rect x="146" y="328" width="30" height="12" rx="5" fill="#2d263c"/>
  <rect x="190" y="328" width="30" height="12" rx="5" fill="#2d263c"/>
  <rect x="226" y="326" width="32" height="12" rx="5" fill="#2d263c"/>

  <!-- 首 -->
  <ellipse cx="148" cy="190" rx="38" ry="45" fill="#9B6E3A" stroke="#2d263c" stroke-width="6"/>

  <!-- たてがみ(白っぽいモサモサ) -->
  <path d="M115 175 Q100 155 110 140 Q122 150 118 168 Q130 138 145 135 Q148 152 138 170 Q155 132 168 138 Q166 155 152 172 Q168 138 180 145 Q175 162 162 175" fill="#E8E0C8" stroke="#2d263c" stroke-width="4" stroke-linejoin="round"/>
  <path d="M115 175 Q105 190 112 205 Q125 195 122 180" fill="#E8E0C8" stroke="#2d263c" stroke-width="3"/>
  <path d="M162 175 Q172 188 168 205 Q155 196 156 180" fill="#E8E0C8" stroke="#2d263c" stroke-width="3"/>

  <!-- 頭 -->
  <ellipse cx="148" cy="130" rx="52" ry="48" fill="#9B6E3A" stroke="#2d263c" stroke-width="7" stroke-linejoin="round"/>

  <!-- 耳(左右) -->
  <path d="M100 112 Q85 90 92 72 Q104 80 108 100" fill="#9B6E3A" stroke="#2d263c" stroke-width="6" stroke-linejoin="round"/>
  <path d="M196 112 Q210 90 206 72 Q194 80 190 100" fill="#9B6E3A" stroke="#2d263c" stroke-width="6" stroke-linejoin="round"/>
  <path d="M102 108 Q92 93 97 80 Q104 87 106 102" fill="#C8857A" stroke="none"/>
  <path d="M194 108 Q204 93 200 80 Q194 87 192 102" fill="#C8857A" stroke="none"/>

  <!-- 角3本 -->
  <path d="M130 88 Q124 62 128 48 Q135 58 136 82" fill="#D4B86A" stroke="#2d263c" stroke-width="5" stroke-linejoin="round"/>
  <path d="M148 84 Q145 55 150 40 Q157 52 156 78" fill="#D4B86A" stroke="#2d263c" stroke-width="5" stroke-linejoin="round"/>
  <path d="M166 88 Q166 62 172 48 Q178 58 174 82" fill="#D4B86A" stroke="#2d263c" stroke-width="5" stroke-linejoin="round"/>

  <!-- 鼻(黒くて大きい) -->
  <ellipse cx="148" cy="148" rx="22" ry="14" fill="#3a2510" stroke="#2d263c" stroke-width="4"/>
  <ellipse cx="140" cy="148" rx="6" ry="5" fill="#1a1008"/>
  <ellipse cx="156" cy="148" rx="6" ry="5" fill="#1a1008"/>

  <!-- 目(つり目・怒り顔) -->
  <!-- 左目 -->
  <ellipse cx="122" cy="120" rx="12" ry="10" fill="white" stroke="#2d263c" stroke-width="4"/>
  <ellipse cx="124" cy="121" rx="6" ry="7" fill="#1a1a1a"/>
  <ellipse cx="126" cy="119" rx="2" ry="2" fill="white"/>
  <!-- 左眉(吊り上がり) -->
  <path d="M110 110 Q122 104 134 108" fill="none" stroke="#2d263c" stroke-width="6" stroke-linecap="round"/>
  <!-- 右目 -->
  <ellipse cx="174" cy="120" rx="12" ry="10" fill="white" stroke="#2d263c" stroke-width="4"/>
  <ellipse cx="172" cy="121" rx="6" ry="7" fill="#1a1a1a"/>
  <ellipse cx="170" cy="119" rx="2" ry="2" fill="white"/>
  <!-- 右眉(吊り上がり) -->
  <path d="M162 108 Q174 104 186 110" fill="none" stroke="#2d263c" stroke-width="6" stroke-linecap="round"/>

  <!-- 口(むっとした感じ) -->
  <path d="M134 158 Q148 164 162 158" fill="none" stroke="#2d263c" stroke-width="4" stroke-linecap="round"/>

  <!-- ほっぺ(赤み) -->
  <ellipse cx="108" cy="132" rx="10" ry="7" fill="#CC7755" opacity="0.5"/>
  <ellipse cx="188" cy="132" rx="10" ry="7" fill="#CC7755" opacity="0.5"/>
</svg>