<svg xmlns="http://www.w3.org/2000/svg" viewBox="0 0 360 360">
  <!-- 3本しっぽ(後ろ) -->
  <path d="M240 230 Q270 200 285 180 Q295 165 288 150 Q282 140 275 148 Q268 158 270 175 Q265 155 255 145 Q245 138 240 148 Q237 160 248 175 Q240 158 232 150 Q223 143 220 155 Q217 168 230 180 Q238 195 238 215" fill="#3a3a3a" stroke="#2d263c" stroke-width="6" stroke-linejoin="round" stroke-linecap="round"/>
  <!-- しっぽ先端ふさふさ -->
  <ellipse cx="287" cy="146" rx="10" ry="8" fill="#e8e0d0" stroke="#2d263c" stroke-width="5" transform="rotate(-15 287 146)"/>
  <ellipse cx="253" cy="142" rx="9" ry="8" fill="#e8e0d0" stroke="#2d263c" stroke-width="5" transform="rotate(5 253 142)"/>
  <ellipse cx="222" cy="152" rx="9" ry="7" fill="#e8e0d0" stroke="#2d263c" stroke-width="5" transform="rotate(20 222 152)"/>

  <!-- 胴体 -->
  <ellipse cx="180" cy="240" rx="85" ry="65" fill="#2e2e2e" stroke="#2d263c" stroke-width="8" stroke-linejoin="round"/>

  <!-- 脚4本 -->
  <rect x="110" y="285" width="26" height="50" rx="10" fill="#2e2e2e" stroke="#2d263c" stroke-width="7" stroke-linejoin="round"/>
  <rect x="148" y="290" width="24" height="48" rx="10" fill="#2e2e2e" stroke="#2d263c" stroke-width="7" stroke-linejoin="round"/>
  <rect x="188" y="290" width="24" height="48" rx="10" fill="#2e2e2e" stroke="#2d263c" stroke-width="7" stroke-linejoin="round"/>
  <rect x="226" y="285" width="26" height="50" rx="10" fill="#2e2e2e" stroke="#2d263c" stroke-width="7" stroke-linejoin="round"/>
  <!-- ひづめ -->
  <ellipse cx="123" cy="336" rx="15" ry="8" fill="#1a1a1a" stroke="#2d263c" stroke-width="5"/>
  <ellipse cx="160" cy="339" rx="14" ry="7" fill="#1a1a1a" stroke="#2d263c" stroke-width="5"/>
  <ellipse cx="200" cy="339" rx="14" ry="7" fill="#1a1a1a" stroke="#2d263c" stroke-width="5"/>
  <ellipse cx="239" cy="336" rx="15" ry="8" fill="#1a1a1a" stroke="#2d263c" stroke-width="5"/>

  <!-- 首 -->
  <path d="M155 215 Q160 185 170 170 Q180 158 190 170 Q200 185 205 215" fill="#2e2e2e" stroke="#2d263c" stroke-width="7" stroke-linejoin="round"/>

  <!-- たてがみ(首〜胸) -->
  <path d="M148 222 Q145 195 148 172 Q155 150 165 145 Q175 140 185 145 Q195 150 202 172 Q206 195 212 222 Q200 210 195 195 Q188 182 180 178 Q172 182 165 195 Q158 210 148 222Z" fill="#f0ece0" stroke="#2d263c" stroke-width="5" stroke-linejoin="round"/>

  <!-- 頭 -->
  <ellipse cx="180" cy="140" rx="55" ry="48" fill="#2e2e2e" stroke="#2d263c" stroke-width="8" stroke-linejoin="round"/>

  <!-- 額の炎模様(オレンジ〜赤) -->
  <path d="M152 125 Q158 110 165 118 Q168 105 175 115 Q178 100 183 112 Q188 104 192 115 Q197 108 202 120 Q208 112 210 125 Q200 120 190 128 Q183 122 180 128 Q175 122 168 128 Q160 120 152 125Z" fill="#e85c0d" stroke="#2d263c" stroke-width="4" stroke-linejoin="round"/>
  <!-- 炎のハイライト -->
  <path d="M163 120 Q167 110 172 117 Q176 107 180 114 Q184 107 188 117 Q193 110 197 120 Q188 116 180 122 Q172 116 163 120Z" fill="#f5a623" stroke="none"/>

  <!-- 角(左) -->
  <path d="M148 112 Q130 95 125 75 Q122 60 130 55 Q138 52 142 65 Q144 78 148 92" fill="#c8a840" stroke="#2d263c" stroke-width="6" stroke-linejoin="round" stroke-linecap="round"/>
  <!-- 角(右) -->
  <path d="M212 112 Q230 95 235 75 Q238 60 230 55 Q222 52 218 65 Q216 78 212 92" fill="#c8a840" stroke="#2d263c" stroke-width="6" stroke-linejoin="round" stroke-linecap="round"/>

  <!-- 耳(左) -->
  <path d="M142 115 Q128 100 130 88 Q134 80 140 85 Q144 92 145 108" fill="#2e2e2e" stroke="#2d263c" stroke-width="5" stroke-linejoin="round"/>
  <!-- 耳(右) -->
  <path d="M218 115 Q232 100 230 88 Q226 80 220 85 Q216 92 215 108" fill="#2e2e2e" stroke="#2d263c" stroke-width="5" stroke-linejoin="round"/>

  <!-- 目(左) ギョロっと -->
  <ellipse cx="160" cy="138" rx="13" ry="14" fill="white" stroke="#2d263c" stroke-width="5"/>
  <ellipse cx="162" cy="140" rx="7" ry="8" fill="#e03010"/>
  <ellipse cx="163" cy="139" rx="4" ry="5" fill="#1a0800"/>
  <ellipse cx="161" cy="137" rx="2" ry="2" fill="white"/>
  <!-- 目(右) -->
  <ellipse cx="200" cy="138" rx="13" ry="14" fill="white" stroke="#2d263c" stroke-width="5"/>
  <ellipse cx="198" cy="140" rx="7" ry="8" fill="#e03010"/>
  <ellipse cx="197" cy="139" rx="4" ry="5" fill="#1a0800"/>
  <ellipse cx="199" cy="137" rx="2" ry="2" fill="white"/>

  <!-- 太い眉(左) -->
  <path d="M148 125 Q158 118 168 122" stroke="#2d263c" stroke-width="7" fill="none" stroke-linecap="round"/>
  <!-- 太い眉(右) -->
  <path d="M192 122 Q202 118 212 125" stroke="#2d263c" stroke-width="7" fill="none" stroke-linecap="round"/>

  <!-- 鼻 -->
  <ellipse cx="175" cy="158" rx="8" ry="6" fill="#1a1a1a" stroke="#2d263c" stroke-width="4"/>
  <ellipse cx="185" cy="158" rx="8" ry="6" fill="#1a1a1a" stroke="#2d263c" stroke-width="4"/>

  <!-- 鼻孔から出る炎 -->
  <path d="M172 152 Q168 140 172 130 Q175 122 170 118" fill="none" stroke="#f5a623" stroke-width="4" stroke-linecap="round"/>
  <path d="M174 151 Q170 143 173 135" fill="none" stroke="#e85c0d" stroke-width="3" stroke-linecap="round"/>
  <path d="M188 152 Q192 140 188 130 Q185 122 190 118" fill="none" stroke="#f5a623" stroke-width="4" stroke-linecap="round"/>
  <path d="M186 151 Q190 143 187 135" fill="none" stroke="#e85c0d" stroke-width="3" stroke-linecap="round"/>

  <!-- 口・顎のライン -->
  <path d="M162 168 Q172 175 180 172 Q188 175 198 168" stroke="#2d263c" stroke-width="5" fill="none" stroke-linecap="round"/>

  <!-- 腹部(少し明るめ) -->
  <ellipse cx="178" cy="260" rx="50" ry="38" fill="#3d3d3d" stroke="#2d263c" stroke-width="5"/>
</svg>