<svg xmlns="http://www.w3.org/2000/svg" viewBox="0 0 360 360">
  <path d="M 210 260 Q 258 250 273 190 Q 283 148 268 118 Q 258 98 244 108 Q 254 138 244 168 Q 234 208 195 235 Z" fill="#D2A679" stroke="#2d263c" stroke-width="7" stroke-linejoin="round"/>
  <ellipse cx="254" cy="110" rx="19" ry="16" fill="#8B5A2B" stroke="#2d263c" stroke-width="7"/>

  <path d="M 140 288 Q 136 312 132 325 Q 128 335 140 337 Q 156 337 153 325 Q 155 308 158 290 Z" fill="#D2A679" stroke="#2d263c" stroke-width="7" stroke-linejoin="round"/>
  <path d="M 200 288 Q 205 312 210 325 Q 214 335 200 337 Q 184 337 187 325 Q 184 308 182 290 Z" fill="#D2A679" stroke="#2d263c" stroke-width="7" stroke-linejoin="round"/>

  <ellipse cx="170" cy="240" rx="72" ry="88" fill="#D2A679" stroke="#2d263c" stroke-width="7"/>
  <ellipse cx="170" cy="255" rx="40" ry="58" fill="#F5E6C8" stroke="#2d263c" stroke-width="5"/>

  <path d="M 100 210 Q 66 220 56 250 Q 51 270 66 275 Q 80 278 85 260 Q 95 235 115 220 Z" fill="#D2A679" stroke="#2d263c" stroke-width="7" stroke-linejoin="round"/>
  <path d="M 240 210 Q 274 220 284 250 Q 289 270 274 275 Q 260 278 255 260 Q 245 235 225 220 Z" fill="#D2A679" stroke="#2d263c" stroke-width="7" stroke-linejoin="round"/>
  <path d="M 56 258 L 42 255 M 59 268 L 46 271 M 64 275 L 53 282" stroke="#2d263c" stroke-width="6" stroke-linecap="round" fill="none"/>
  <path d="M 284 258 L 298 255 M 281 268 L 294 271 M 276 275 L 287 282" stroke="#2d263c" stroke-width="6" stroke-linecap="round" fill="none"/>

  <circle cx="170" cy="120" r="65" fill="#D2A679" stroke="#2d263c" stroke-width="7"/>

  <path d="M 120 80 Q 96 38 108 22 Q 130 32 140 68 Z" fill="#D2A679" stroke="#2d263c" stroke-width="7" stroke-linejoin="round"/>
  <path d="M 220 80 Q 244 38 232 22 Q 210 32 200 68 Z" fill="#D2A679" stroke="#2d263c" stroke-width="7" stroke-linejoin="round"/>
  <path d="M 110 46 Q 104 30 109 23 Q 122 30 126 49 Z" fill="#8B5A2B" stroke="#2d263c" stroke-width="6" stroke-linejoin="round"/>
  <path d="M 230 46 Q 236 30 231 23 Q 218 30 214 49 Z" fill="#8B5A2B" stroke="#2d263c" stroke-width="6" stroke-linejoin="round"/>

  <path d="M 140 120 Q 150 128 162 120" stroke="#2d263c" stroke-width="7" stroke-linecap="round" fill="none"/>
  <path d="M 178 120 Q 190 128 200 120" stroke="#2d263c" stroke-width="7" stroke-linecap="round" fill="none"/>
  <path d="M 160 148 Q 170 155 180 148" stroke="#2d263c" stroke-width="6" stroke-linecap="round" fill="none"/>

  <ellipse cx="130" cy="140" rx="10" ry="6" fill="#f0a8a0" opacity="0.55"/>
  <ellipse cx="210" cy="140" rx="10" ry="6" fill="#f0a8a0" opacity="0.55"/>
</svg>
