<svg xmlns="http://www.w3.org/2000/svg" viewBox="0 0 360 360">
  <!-- 尾びれ -->
  <path d="M40 180 L15 130 L55 155 L60 180 L55 205 L15 230 Z" fill="#0d1b4c" stroke="#2d263c" stroke-width="7" stroke-linejoin="round"/>
  <!-- 下あご/腹 -->
  <path d="M120 235 Q190 275 265 240 Q235 260 175 258 Q135 256 120 235 Z" fill="#e8722c" stroke="#2d263c" stroke-width="6" stroke-linejoin="round"/>
  <!-- 胴体メイン -->
  <path d="M60 180 Q65 110 150 90 Q230 75 290 130 Q320 160 300 190 Q270 235 190 245 Q100 250 60 180 Z"
        fill="#1a2f7a" stroke="#2d263c" stroke-width="8" stroke-linejoin="round" stroke-linecap="round"/>
  <!-- 背びれ -->
  <path d="M150 95 Q145 45 175 20 Q185 55 185 100 Z" fill="#101e5c" stroke="#2d263c" stroke-width="7" stroke-linejoin="round"/>
  <!-- 頭上の突起（原始回帰の角） -->
  <path d="M255 95 Q265 55 300 45 Q295 80 280 105 Z" fill="#101e5c" stroke="#2d263c" stroke-width="7" stroke-linejoin="round"/>
  <path d="M235 88 Q248 55 280 50 Q270 80 258 100 Z" fill="#101e5c" stroke="#2d263c" stroke-width="6" stroke-linejoin="round"/>
  <!-- 胸びれ（左右） -->
  <path d="M95 170 Q50 190 35 245 Q75 220 110 195 Z" fill="#0d1b4c" stroke="#2d263c" stroke-width="7" stroke-linejoin="round"/>
  <path d="M180 215 Q175 260 200 300 Q220 260 210 215 Z" fill="#0d1b4c" stroke="#2d263c" stroke-width="7" stroke-linejoin="round"/>
  <!-- 発光する赤いライン模様（原始の力） -->
  <path d="M100 140 Q160 120 230 135" fill="none" stroke="#ff4d1a" stroke-width="9" stroke-linecap="round"/>
  <path d="M95 165 Q165 150 250 168" fill="none" stroke="#ff4d1a" stroke-width="9" stroke-linecap="round"/>
  <path d="M110 195 Q170 190 240 200" fill="none" stroke="#ff8a3d" stroke-width="7" stroke-linecap="round"/>
  <!-- 顔の模様 -->
  <path d="M255 130 Q270 145 260 165" fill="none" stroke="#ff4d1a" stroke-width="7" stroke-linecap="round"/>
  <!-- 目 -->
  <ellipse cx="245" cy="150" rx="14" ry="17" fill="#ffffff" stroke="#2d263c" stroke-width="6"/>
  <circle cx="249" cy="153" r="6" fill="#101018"/>
  <!-- 口（大きく開いた牙） -->
  <path d="M240 200 Q270 218 300 205" fill="none" stroke="#2d263c" stroke-width="7" stroke-linecap="round"/>
  <path d="M255 206 L253 216 M270 210 L268 220" stroke="#f5f0e8" stroke-width="5" stroke-linecap="round"/>
</svg>
