<svg xmlns="http://www.w3.org/2000/svg" viewBox="0 0 360 360">
  <!-- 後ろ足(左) -->
  <path d="M110 230 Q80 250 65 290 Q70 310 85 305 Q95 300 100 280 Q115 260 125 245 Z" fill="#1a5f8a" stroke="#2d263c" stroke-width="7" stroke-linejoin="round" stroke-linecap="round"/>
  <!-- 後ろ足(右) -->
  <path d="M250 230 Q280 250 295 290 Q290 310 275 305 Q265 300 260 280 Q245 260 235 245 Z" fill="#1a5f8a" stroke="#2d263c" stroke-width="7" stroke-linejoin="round" stroke-linecap="round"/>
  <!-- 水かき(左足) -->
  <path d="M65 290 Q55 315 70 318 Q80 320 88 308" fill="#2a8fc0" stroke="#2d263c" stroke-width="5" stroke-linejoin="round" stroke-linecap="round"/>
  <path d="M70 318 Q72 330 83 328 Q91 326 92 314" fill="#2a8fc0" stroke="#2d263c" stroke-width="5" stroke-linejoin="round" stroke-linecap="round"/>
  <path d="M83 328 Q88 338 97 333 Q104 328 100 316" fill="#2a8fc0" stroke="#2d263c" stroke-width="5" stroke-linejoin="round" stroke-linecap="round"/>
  <!-- 水かき(右足) -->
  <path d="M295 290 Q305 315 290 318 Q280 320 272 308" fill="#2a8fc0" stroke="#2d263c" stroke-width="5" stroke-linejoin="round" stroke-linecap="round"/>
  <path d="M290 318 Q288 330 277 328 Q269 326 268 314" fill="#2a8fc0" stroke="#2d263c" stroke-width="5" stroke-linejoin="round" stroke-linecap="round"/>
  <path d="M277 328 Q272 338 263 333 Q256 328 260 316" fill="#2a8fc0" stroke="#2d263c" stroke-width="5" stroke-linejoin="round" stroke-linecap="round"/>
  <!-- しっぽ -->
  <path d="M195 240 Q220 255 240 248 Q260 240 265 225 Q268 210 255 205 Q240 202 228 212 Q215 222 200 235 Z" fill="#1a5f8a" stroke="#2d263c" stroke-width="6" stroke-linejoin="round" stroke-linecap="round"/>
  <!-- 腕(左) -->
  <path d="M118 165 Q88 175 75 200 Q72 215 82 212 Q92 208 105 192 Q118 178 128 170 Z" fill="#1a5f8a" stroke="#2d263c" stroke-width="7" stroke-linejoin="round" stroke-linecap="round"/>
  <!-- 手(左)指 -->
  <path d="M75 200 Q62 208 60 218 Q63 226 72 222" fill="#2a8fc0" stroke="#2d263c" stroke-width="5" stroke-linejoin="round" stroke-linecap="round"/>
  <path d="M72 222 Q65 232 70 240 Q78 244 84 235" fill="#2a8fc0" stroke="#2d263c" stroke-width="5" stroke-linejoin="round" stroke-linecap="round"/>
  <!-- 腕(右) -->
  <path d="M242 165 Q272 175 285 200 Q288 215 278 212 Q268 208 255 192 Q242 178 232 170 Z" fill="#1a5f8a" stroke="#2d263c" stroke-width="7" stroke-linejoin="round" stroke-linecap="round"/>
  <!-- 手(右)指 -->
  <path d="M285 200 Q298 208 300 218 Q297 226 288 222" fill="#2a8fc0" stroke="#2d263c" stroke-width="5" stroke-linejoin="round" stroke-linecap="round"/>
  <path d="M288 222 Q295 232 290 240 Q282 244 276 235" fill="#2a8fc0" stroke="#2d263c" stroke-width="5" stroke-linejoin="round" stroke-linecap="round"/>
  <!-- 胴体 -->
  <path d="M130 155 Q120 180 115 210 Q112 235 130 245 Q160 258 180 258 Q200 258 230 245 Q248 235 245 210 Q240 180 230 155 Q215 135 180 130 Q145 135 130 155 Z" fill="#1a5f8a" stroke="#2d263c" stroke-width="8" stroke-linejoin="round" stroke-linecap="round"/>
  <!-- 腹(クリーム色) -->
  <path d="M152 170 Q143 193 142 218 Q143 238 155 244 Q167 250 180 250 Q193 250 205 244 Q217 238 218 218 Q217 193 208 170 Q197 155 180 153 Q163 155 152 170 Z" fill="#f0e8d0" stroke="none"/>
  <!-- 腹の縞模様 -->
  <path d="M152 195 Q180 188 208 195" fill="none" stroke="#c8b89a" stroke-width="3" stroke-linecap="round"/>
  <path d="M148 215 Q180 208 212 215" fill="none" stroke="#c8b89a" stroke-width="3" stroke-linecap="round"/>
  <!-- 頭 -->
  <path d="M135 118 Q130 95 138 75 Q150 55 180 50 Q210 55 222 75 Q230 95 225 118 Q220 140 205 148 Q193 155 180 155 Q167 155 155 148 Q140 140 135 118 Z" fill="#1a5f8a" stroke="#2d263c" stroke-width="8" stroke-linejoin="round" stroke-linecap="round"/>
  <!-- 頭の耳(左・忍者フード的) -->
  <path d="M138 75 Q125 55 115 35 Q120 28 130 33 Q140 45 145 60 Z" fill="#1a5f8a" stroke="#2d263c" stroke-width="7" stroke-linejoin="round" stroke-linecap="round"/>
  <!-- 頭の耳(右) -->
  <path d="M222 75 Q235 55 245 35 Q240 28 230 33 Q220 45 215 60 Z" fill="#1a5f8a" stroke="#2d263c" stroke-width="7" stroke-linejoin="round" stroke-linecap="round"/>
  <!-- 顔の白い部分(目まわり) -->
  <ellipse cx="162" cy="105" rx="18" ry="20" fill="#f0e8d0" stroke="#2d263c" stroke-width="5"/>
  <ellipse cx="198" cy="105" rx="18" ry="20" fill="#f0e8d0" stroke="#2d263c" stroke-width="5"/>
  <!-- 目(黄色) -->
  <ellipse cx="162" cy="107" rx="12" ry="14" fill="#f5d800" stroke="none"/>
  <ellipse cx="198" cy="107" rx="12" ry="14" fill="#f5d800" stroke="none"/>
  <!-- 瞳 -->
  <ellipse cx="164" cy="109" rx="7" ry="9" fill="#2d263c" stroke="none"/>
  <ellipse cx="200" cy="109" rx="7" ry="9" fill="#2d263c" stroke="none"/>
  <!-- 目のハイライト -->
  <ellipse cx="167" cy="105" rx="3" ry="3" fill="white" stroke="none"/>
  <ellipse cx="203" cy="105" rx="3" ry="3" fill="white" stroke="none"/>
  <!-- 口(小さめ) -->
  <path d="M172 128 Q180 133 188 128" fill="none" stroke="#2d263c" stroke-width="4" stroke-linecap="round"/>
  <!-- ベロスカーフ(赤い長い舌が首に巻きついている) -->
  <path d="M152 148 Q140 160 135 175 Q130 190 138 195 Q148 198 156 185 Q162 172 165 158" fill="none" stroke="#e03030" stroke-width="10" stroke-linecap="round" stroke-linejoin="round"/>
  <path d="M208 148 Q220 160 225 175 Q230 190 222 195 Q212 198 204 185 Q198 172 195 158" fill="none" stroke="#e03030" stroke-width="10" stroke-linecap="round" stroke-linejoin="round"/>
  <!-- ベロ先端(たれ下がっているところ) -->
  <path d="M138 195 Q128 210 132 228 Q135 240 142 238 Q150 235 148 220 Q147 208 156 185" fill="none" stroke="#e03030" stroke-width="10" stroke-linecap="round"/>
  <!-- 首の黒い帯 -->
  <path d="M155 148 Q180 155 205 148" fill="none" stroke="#2d263c" stroke-width="9" stroke-linecap="round"/>
  <!-- 頬の水色マーク(左) -->
  <ellipse cx="148" cy="118" rx="8" ry="5" fill="#4ab8e0" stroke="none" transform="rotate(-15, 148, 118)"/>
  <!-- 頬の水色マーク(右) -->
  <ellipse cx="212" cy="118" rx="8" ry="5" fill="#4ab8e0" stroke="none" transform="rotate(15, 212, 118)"/>
</svg>