<svg xmlns="http://www.w3.org/2000/svg" viewBox="0 0 360 360">
  <ellipse cx="180" cy="330" rx="120" ry="18" fill="#1a1428" opacity="0.25"/>
  <path d="M60 190 Q40 120 90 70 Q120 30 180 32 Q240 30 270 70 Q320 120 300 190 Q315 230 300 270 Q310 290 295 300 Q280 285 265 295 Q250 305 235 293 Q220 308 205 295 Q190 310 175 296 Q160 310 145 295 Q130 308 115 293 Q100 305 85 295 Q70 285 55 300 Q40 290 50 270 Q35 230 60 190 Z"
    fill="#5a3d8c" stroke="#2d263c" stroke-width="8" stroke-linejoin="round"/>
  <path d="M100 140 Q95 90 140 60 Q160 48 180 50 Q200 48 220 60 Q265 90 260 140 Q220 105 180 100 Q140 105 100 140 Z"
    fill="#3f2a68" stroke="#2d263c" stroke-width="7" stroke-linejoin="round"/>
  <path d="M120 245 Q140 265 180 268 Q220 265 240 245 Q225 285 180 290 Q135 285 120 245 Z"
    fill="#8a6fc4" stroke="#2d263c" stroke-width="6" stroke-linejoin="round"/>
  <ellipse cx="140" cy="155" rx="26" ry="30" fill="#f3f0fa" stroke="#2d263c" stroke-width="6"/>
  <ellipse cx="222" cy="155" rx="26" ry="30" fill="#f3f0fa" stroke="#2d263c" stroke-width="6"/>
  <circle cx="146" cy="160" r="11" fill="#d81c3f" stroke="#2d263c" stroke-width="5"/>
  <circle cx="216" cy="160" r="11" fill="#d81c3f" stroke="#2d263c" stroke-width="5"/>
  <path d="M95 205 Q180 260 265 205 Q255 240 180 250 Q105 240 95 205 Z"
    fill="#1a1428" stroke="#2d263c" stroke-width="7" stroke-linejoin="round"/>
  <path d="M115 210 Q125 240 140 218 Q150 245 165 216 Q180 250 195 216 Q210 245 220 218 Q235 240 245 210"
    fill="none" stroke="#f3f0fa" stroke-width="7" stroke-linecap="round" stroke-linejoin="round"/>
  <path d="M170 232 Q178 268 165 300 Q195 290 190 250 Q185 235 170 232 Z"
    fill="#d81c3f" stroke="#2d263c" stroke-width="6" stroke-linejoin="round"/>
  <path d="M55 175 Q20 190 15 230 Q45 220 70 205 Z" fill="#5a3d8c" stroke="#2d263c" stroke-width="7" stroke-linejoin="round"/>
  <path d="M305 175 Q340 190 345 230 Q315 220 290 205 Z" fill="#5a3d8c" stroke="#2d263c" stroke-width="7" stroke-linejoin="round"/>
  <path d="M40 225 Q10 250 25 285 Q50 265 65 245 Z" fill="#3f2a68" stroke="#2d263c" stroke-width="6" stroke-linejoin="round"/>
  <path d="M320 225 Q350 250 335 285 Q310 265 295 245 Z" fill="#3f2a68" stroke="#2d263c" stroke-width="6" stroke-linejoin="round"/>
  <path d="M150 45 Q160 20 175 40 Z" fill="#3f2a68" stroke="#2d263c" stroke-width="6" stroke-linejoin="round"/>
  <path d="M210 45 Q200 20 185 40 Z" fill="#3f2a68" stroke="#2d263c" stroke-width="6" stroke-linejoin="round"/>
</svg>
