<svg xmlns="http://www.w3.org/2000/svg" viewBox="0 0 360 360">
  <!-- 後ろ足(左) -->
  <path d="M108 232 Q78 252 62 292 Q68 312 84 306 Q94 300 100 280 Q114 260 124 246 Z" fill="#173f5c" stroke="#2d263c" stroke-width="7" stroke-linejoin="round" stroke-linecap="round"/>
  <!-- 後ろ足(右) -->
  <path d="M252 232 Q282 252 298 292 Q292 312 276 306 Q266 300 260 280 Q246 260 236 246 Z" fill="#173f5c" stroke="#2d263c" stroke-width="7" stroke-linejoin="round" stroke-linecap="round"/>
  <!-- 水かき(左足) -->
  <path d="M62 292 Q52 317 67 320 Q78 322 86 310" fill="#2a7fa8" stroke="#2d263c" stroke-width="5" stroke-linejoin="round" stroke-linecap="round"/>
  <path d="M67 320 Q69 332 80 330 Q88 328 90 316" fill="#2a7fa8" stroke="#2d263c" stroke-width="5" stroke-linejoin="round" stroke-linecap="round"/>
  <!-- 水かき(右足) -->
  <path d="M298 292 Q308 317 293 320 Q282 322 274 310" fill="#2a7fa8" stroke="#2d263c" stroke-width="5" stroke-linejoin="round" stroke-linecap="round"/>
  <path d="M293 320 Q291 332 280 330 Q272 328 270 316" fill="#2a7fa8" stroke="#2d263c" stroke-width="5" stroke-linejoin="round" stroke-linecap="round"/>
  <!-- しっぽ -->
  <path d="M195 242 Q222 258 244 250 Q264 240 268 222 Q270 205 255 200 Q238 197 226 208 Q212 220 198 236 Z" fill="#173f5c" stroke="#2d263c" stroke-width="6" stroke-linejoin="round" stroke-linecap="round"/>
  <!-- 手裏剣(背中) -->
  <path d="M235 210 L246 200 L250 214 L262 212 L253 222 L260 233 L247 229 L241 241 L237 228 L224 230 L234 219 Z" fill="#e8d840" stroke="#2d263c" stroke-width="4" stroke-linejoin="round"/>
  <!-- 腕(左) -->
  <path d="M118 165 Q86 176 72 202 Q69 217 80 213 Q91 209 104 193 Q118 178 128 170 Z" fill="#173f5c" stroke="#2d263c" stroke-width="7" stroke-linejoin="round" stroke-linecap="round"/>
  <path d="M72 202 Q58 210 56 220 Q60 228 70 224" fill="#2a7fa8" stroke="#2d263c" stroke-width="5" stroke-linejoin="round" stroke-linecap="round"/>
  <!-- 腕(右) -->
  <path d="M242 165 Q274 176 288 202 Q291 217 280 213 Q269 209 256 193 Q242 178 232 170 Z" fill="#173f5c" stroke="#2d263c" stroke-width="7" stroke-linejoin="round" stroke-linecap="round"/>
  <path d="M288 202 Q302 210 304 220 Q300 228 290 224" fill="#2a7fa8" stroke="#2d263c" stroke-width="5" stroke-linejoin="round" stroke-linecap="round"/>
  <!-- 胴体 -->
  <path d="M130 155 Q119 181 114 211 Q111 236 130 246 Q160 259 180 259 Q200 259 230 246 Q249 236 246 211 Q241 181 230 155 Q215 134 180 129 Q145 134 130 155 Z" fill="#173f5c" stroke="#2d263c" stroke-width="8" stroke-linejoin="round" stroke-linecap="round"/>
  <!-- 腹(クリーム色) -->
  <path d="M152 171 Q142 194 141 219 Q142 239 155 245 Q167 251 180 251 Q193 251 205 245 Q218 239 219 219 Q218 194 208 171 Q197 156 180 154 Q163 156 152 171 Z" fill="#f0e8d0" stroke="none"/>
  <path d="M151 197 Q180 190 209 197" fill="none" stroke="#c8b89a" stroke-width="3" stroke-linecap="round"/>
  <path d="M147 217 Q180 210 213 217" fill="none" stroke="#c8b89a" stroke-width="3" stroke-linecap="round"/>
  <!-- 頭 -->
  <path d="M135 116 Q129 92 138 72 Q150 51 180 46 Q210 51 222 72 Q231 92 225 116 Q220 139 205 147 Q193 154 180 154 Q167 154 155 147 Q140 139 135 116 Z" fill="#173f5c" stroke="#2d263c" stroke-width="8" stroke-linejoin="round" stroke-linecap="round"/>
  <!-- 頭の耳(忍者フード) -->
  <path d="M138 72 Q124 51 113 30 Q118 22 129 28 Q140 41 145 57 Z" fill="#173f5c" stroke="#2d263c" stroke-width="7" stroke-linejoin="round" stroke-linecap="round"/>
  <path d="M222 72 Q236 51 247 30 Q242 22 231 28 Q220 41 215 57 Z" fill="#173f5c" stroke="#2d263c" stroke-width="7" stroke-linejoin="round" stroke-linecap="round"/>
  <!-- 黄金のたてがみ(バトルボンドの証・首まわり) -->
  <path d="M150 150 Q140 162 146 174 Q152 168 158 158 Z" fill="#e8d840" stroke="#2d263c" stroke-width="4" stroke-linejoin="round"/>
  <path d="M165 158 Q158 172 165 184 Q172 176 176 162 Z" fill="#e8d840" stroke="#2d263c" stroke-width="4" stroke-linejoin="round"/>
  <path d="M210 150 Q220 162 214 174 Q208 168 202 158 Z" fill="#e8d840" stroke="#2d263c" stroke-width="4" stroke-linejoin="round"/>
  <path d="M195 158 Q202 172 195 184 Q188 176 184 162 Z" fill="#e8d840" stroke="#2d263c" stroke-width="4" stroke-linejoin="round"/>
  <!-- 顔の白い部分(目まわり) -->
  <ellipse cx="162" cy="103" rx="18" ry="20" fill="#f0e8d0" stroke="#2d263c" stroke-width="5"/>
  <ellipse cx="198" cy="103" rx="18" ry="20" fill="#f0e8d0" stroke="#2d263c" stroke-width="5"/>
  <!-- 黒い覆面(バトルボンド顔) -->
  <path d="M140 92 Q162 82 180 92 Q198 82 220 92 Q214 100 198 98 Q180 94 162 98 Q146 100 140 92 Z" fill="#2d263c" stroke="none"/>
  <!-- 目(赤・バトルボンドの証) -->
  <ellipse cx="162" cy="107" rx="12" ry="14" fill="#e02020" stroke="none"/>
  <ellipse cx="198" cy="107" rx="12" ry="14" fill="#e02020" stroke="none"/>
  <ellipse cx="164" cy="109" rx="6" ry="8" fill="#2d263c" stroke="none"/>
  <ellipse cx="200" cy="109" rx="6" ry="8" fill="#2d263c" stroke="none"/>
  <ellipse cx="167" cy="105" rx="3" ry="3" fill="white" stroke="none"/>
  <ellipse cx="203" cy="105" rx="3" ry="3" fill="white" stroke="none"/>
  <!-- 口 -->
  <path d="M172 128 Q180 133 188 128" fill="none" stroke="#2d263c" stroke-width="4" stroke-linecap="round"/>
  <!-- ベロスカーフ(長く垂れる・バトルボンド仕様) -->
  <path d="M152 148 Q138 165 132 185 Q127 205 135 220 Q142 232 150 225 Q156 218 152 200 Q149 182 160 160" fill="none" stroke="#e03030" stroke-width="10" stroke-linecap="round" stroke-linejoin="round"/>
  <path d="M208 148 Q222 165 228 185 Q233 205 225 220 Q218 232 210 225 Q204 218 208 200 Q211 182 200 160" fill="none" stroke="#e03030" stroke-width="10" stroke-linecap="round" stroke-linejoin="round"/>
  <path d="M135 220 Q126 236 133 250 Q140 258 146 250 Q149 242 145 232" fill="none" stroke="#e03030" stroke-width="9" stroke-linecap="round"/>
  <!-- 首の黒い帯 -->
  <path d="M155 148 Q180 155 205 148" fill="none" stroke="#2d263c" stroke-width="9" stroke-linecap="round"/>
  <!-- 頬マーク -->
  <ellipse cx="148" cy="116" rx="8" ry="5" fill="#4ab8e0" stroke="none" transform="rotate(-15, 148, 116)"/>
  <ellipse cx="212" cy="116" rx="8" ry="5" fill="#4ab8e0" stroke="none" transform="rotate(15, 212, 116)"/>
</svg>
