<svg xmlns="http://www.w3.org/2000/svg" viewBox="0 0 360 360">
  <ellipse cx="180" cy="324" rx="92" ry="11" fill="#2d263c" opacity="0.15"/>
  <path d="M180,78 L180,176" stroke="#2d263c" stroke-width="60" stroke-linecap="round"/>
  <path d="M180,84 L180,170" stroke="#5d6b7c" stroke-width="50" stroke-linecap="round"/>
  <ellipse cx="180" cy="78" rx="30" ry="16" fill="#3d4654" stroke="#2d263c" stroke-width="7"/>
  <circle cx="180" cy="78" r="9" fill="#1c2230"/>
  <ellipse cx="118" cy="298" rx="22" ry="30" fill="#8a5a9a" stroke="#2d263c" stroke-width="8"/>
  <ellipse cx="242" cy="298" rx="22" ry="30" fill="#8a5a9a" stroke="#2d263c" stroke-width="8"/>
  <ellipse cx="180" cy="222" rx="80" ry="84" fill="#9b6db0" stroke="#2d263c" stroke-width="9"/>
  <ellipse cx="180" cy="248" rx="42" ry="52" fill="#c9a9e0" opacity="0.5"/>
  <ellipse cx="133" cy="302" rx="16" ry="26" fill="#9b6db0" stroke="#2d263c" stroke-width="8"/>
  <ellipse cx="227" cy="302" rx="16" ry="26" fill="#9b6db0" stroke="#2d263c" stroke-width="8"/>
  <path d="M180,116 C224,116 254,146 254,182 C254,216 224,238 180,238 C136,238 106,216 106,182 C106,146 136,116 180,116 Z" fill="#9b6db0" stroke="#2d263c" stroke-width="9"/>
  <path d="M180,150 C210,150 230,170 230,190 C230,210 210,224 180,224 C150,224 130,210 130,190 C130,170 150,150 180,150 Z" fill="#ead9a4" stroke="#2d263c" stroke-width="6"/>
  <ellipse cx="155" cy="186" rx="12" ry="16" fill="#2d263c"/>
  <ellipse cx="205" cy="186" rx="12" ry="16" fill="#2d263c"/>
  <circle cx="159" cy="181" r="4" fill="#ffffff"/>
  <circle cx="209" cy="181" r="4" fill="#ffffff"/>
  <path d="M128,130 L110,98 L140,118 Z" fill="#9b6db0" stroke="#2d263c" stroke-width="6"/>
  <path d="M232,130 L250,98 L220,118 Z" fill="#9b6db0" stroke="#2d263c" stroke-width="6"/>
</svg>
