<svg xmlns="http://www.w3.org/2000/svg" viewBox="0 0 360 360">
  <ellipse cx="180" cy="324" rx="78" ry="11" fill="#2d263c" opacity="0.15"/>
  <ellipse cx="248" cy="280" rx="34" ry="44" fill="#3d7fb8" stroke="#2d263c" stroke-width="8"/>
  <ellipse cx="180" cy="218" rx="70" ry="86" fill="#5aa8d8" stroke="#2d263c" stroke-width="9"/>
  <circle cx="152" cy="172" r="18" fill="#f0f0ec" stroke="#2d263c" stroke-width="6"/>
  <circle cx="202" cy="162" r="20" fill="#f0f0ec" stroke="#2d263c" stroke-width="6"/>
  <circle cx="178" cy="146" r="15" fill="#f0f0ec" stroke="#2d263c" stroke-width="6"/>
  <ellipse cx="112" cy="232" rx="16" ry="36" fill="#5aa8d8" stroke="#2d263c" stroke-width="8"/>
  <ellipse cx="248" cy="232" rx="16" ry="36" fill="#5aa8d8" stroke="#2d263c" stroke-width="8"/>
  <ellipse cx="180" cy="166" rx="54" ry="32" fill="#f0f0ec" stroke="#2d263c" stroke-width="8"/>
  <ellipse cx="180" cy="112" rx="68" ry="50" fill="#5aa8d8" stroke="#2d263c" stroke-width="9"/>
  <ellipse cx="150" cy="100" rx="22" ry="24" fill="#ffe24a" stroke="#2d263c" stroke-width="7"/>
  <ellipse cx="210" cy="100" rx="22" ry="24" fill="#ffe24a" stroke="#2d263c" stroke-width="7"/>
  <ellipse cx="150" cy="102" rx="9" ry="12" fill="#2d263c"/>
  <ellipse cx="210" cy="102" rx="9" ry="12" fill="#2d263c"/>
  <circle cx="153" cy="97" r="3" fill="#ffffff"/>
  <circle cx="213" cy="97" r="3" fill="#ffffff"/>
  <path d="M160,132 Q180,144 200,132" fill="none" stroke="#2d263c" stroke-width="6" stroke-linecap="round"/>
  <ellipse cx="148" cy="298" rx="22" ry="14" fill="#5aa8d8" stroke="#2d263c" stroke-width="8"/>
  <ellipse cx="212" cy="298" rx="22" ry="14" fill="#5aa8d8" stroke="#2d263c" stroke-width="8"/>
</svg>
