<svg xmlns="http://www.w3.org/2000/svg" viewBox="0 0 360 360"><g stroke="#2d263c" stroke-width="7" stroke-linejoin="round" stroke-linecap="round"><path d="M290 235 L336 244 L312 260 L336 278 L292 282 Z" fill="#735c9c"/><path d="M70 115 L92 38 L132 92 L150 70 L165 90 L180 64 L195 90 L210 70 L228 92 L268 38 L290 115 C298 130 302 140 303 150 L332 158 L306 178 L335 205 L308 222 C312 250 300 285 272 302 C240 318 120 318 88 302 C60 285 48 250 52 222 L25 205 L54 178 L28 158 L57 150 C58 140 62 130 70 115 Z" fill="#735c9c"/><path d="M100 290 C88 305 78 320 74 334 L96 326 L102 340 L124 328 C128 314 128 300 126 292 Z" fill="#735c9c"/><path d="M260 290 C272 305 282 320 286 334 L264 326 L258 340 L236 328 C232 314 232 300 234 292 Z" fill="#735c9c"/><path d="M62 185 C48 210 56 240 74 256 L70 278 L84 260 L88 282 L100 258 L112 272 L110 248 C112 222 96 198 84 188 Z" fill="#735c9c"/><path d="M298 185 C312 210 304 240 286 256 L290 278 L276 260 L272 282 L260 258 L248 272 L250 248 C248 222 264 198 276 188 Z" fill="#735c9c"/><path d="M95 205 C120 240 240 240 265 205 C260 250 225 266 180 266 C135 266 100 250 95 205 Z" fill="#5b2a47"/><path d="M95 205 C120 240 240 240 265 205 L256 230 L246 222 L234 248 L220 234 L206 252 L192 238 L180 256 L168 238 L154 252 L140 234 L126 248 L114 222 L104 230 Z" fill="#ffffff" stroke-width="5"/><path d="M112 142 C135 145 158 165 168 185 C150 188 126 182 116 168 C110 158 110 150 112 142 Z" fill="#cf3a3c" stroke-width="5"/><path d="M248 142 C225 145 202 165 192 185 C210 188 234 182 244 168 C250 158 250 150 248 142 Z" fill="#cf3a3c" stroke-width="5"/><circle cx="130" cy="156" r="5" fill="#ffffff" stroke="none"/><circle cx="230" cy="156" r="5" fill="#ffffff" stroke="none"/></g></svg>