<svg xmlns="http://www.w3.org/2000/svg" viewBox="0 0 360 360"><g stroke="#2d263c" stroke-width="7" stroke-linejoin="round" stroke-linecap="round"><circle cx="212" cy="60" r="27" fill="#efeef5"/><circle cx="170" cy="48" r="17" fill="#efeef5"/><circle cx="246" cy="44" r="14" fill="#efeef5"/><path d="M62 212 Q54 152 104 112 Q140 78 186 82 Q246 86 279 128 Q306 162 298 214 Q241 233 180 230 Q116 233 62 212 Z" fill="#4a4046"/><circle cx="118" cy="152" r="16" fill="#6e6168"/><circle cx="247" cy="172" r="12" fill="#6e6168"/><ellipse cx="197" cy="100" rx="31" ry="15" fill="#8a7d84"/><ellipse cx="196" cy="98" rx="22" ry="10" fill="#2d263c"/><path d="M64 210 Q125 234 182 232 Q242 232 297 211 Q301 225 292 232 Q236 250 180 250 Q121 251 70 232 Q61 221 64 210 Z" fill="#9b8f93"/><path d="M88 240 L83 292 Q83 303 96 303 L116 303 Q125 303 122 292 L118 244 Z" fill="#e0653b"/><path d="M268 240 L262 292 Q261 303 274 303 L292 303 Q301 302 298 290 L292 238 Z" fill="#e0653b"/><path d="M298 226 Q322 234 318 252 Q305 251 295 242 Z" fill="#e0653b"/><path d="M128 256 L122 296 Q121 306 134 306 L148 306 Q156 305 154 295 L150 258 Z" fill="#e0653b"/><path d="M212 258 L208 296 Q207 306 219 306 L234 306 Q242 305 240 294 L234 256 Z" fill="#e0653b"/><path d="M180 212 Q215 209 225 240 Q233 272 211 291 Q186 305 158 292 Q136 280 138 250 Q142 217 180 212 Z" fill="#e0653b"/><path d="M152 249 Q160 256 169 249" fill="none" stroke-width="6"/><path d="M194 250 Q202 256 211 248" fill="none" stroke-width="6"/><path d="M174 274 Q181 279 188 273" fill="none" stroke-width="6"/><circle cx="129" cy="263" r="10" fill="#efeef5" stroke-width="6"/><circle cx="113" cy="252" r="6" fill="#efeef5" stroke-width="5"/><circle cx="233" cy="261" r="8" fill="#efeef5" stroke-width="6"/></g></svg>