<svg xmlns="http://www.w3.org/2000/svg" viewBox="0 0 360 360">
  <!-- 左の磁石(後ろ) -->
  <rect x="96" y="150" width="30" height="90" rx="10" fill="#8d92a3" stroke="#2d263c" stroke-width="7" stroke-linejoin="round"/>
  <rect x="38" y="138" width="82" height="30" rx="14" fill="#8d92a3" stroke="#2d263c" stroke-width="7" stroke-linejoin="round"/>
  <rect x="38" y="212" width="82" height="30" rx="14" fill="#8d92a3" stroke="#2d263c" stroke-width="7" stroke-linejoin="round"/>
  <circle cx="42" cy="153" r="18" fill="#d6524a" stroke="#2d263c" stroke-width="7"/>
  <circle cx="42" cy="227" r="18" fill="#d6524a" stroke="#2d263c" stroke-width="7"/>

  <!-- 右の磁石(後ろ) -->
  <rect x="234" y="150" width="30" height="90" rx="10" fill="#8d92a3" stroke="#2d263c" stroke-width="7" stroke-linejoin="round"/>
  <rect x="240" y="138" width="82" height="30" rx="14" fill="#8d92a3" stroke="#2d263c" stroke-width="7" stroke-linejoin="round"/>
  <rect x="240" y="212" width="82" height="30" rx="14" fill="#8d92a3" stroke="#2d263c" stroke-width="7" stroke-linejoin="round"/>
  <circle cx="318" cy="153" r="18" fill="#d6524a" stroke="#2d263c" stroke-width="7"/>
  <circle cx="318" cy="227" r="18" fill="#d6524a" stroke="#2d263c" stroke-width="7"/>

  <!-- 胴体(本体) -->
  <circle cx="180" cy="192" r="72" fill="#a9afbe" stroke="#2d263c" stroke-width="8"/>

  <!-- 頭のネジ -->
  <circle cx="180" cy="112" r="13" fill="#7c8092" stroke="#2d263c" stroke-width="6"/>
  <rect x="173" y="105" width="14" height="14" fill="#5b5f6e"/>

  <!-- 体の小さなリベット -->
  <circle cx="140" cy="228" r="7" fill="#8d92a3" stroke="#2d263c" stroke-width="5"/>
  <circle cx="220" cy="228" r="7" fill="#8d92a3" stroke="#2d263c" stroke-width="5"/>

  <!-- 顔(一番手前) -->
  <circle cx="180" cy="182" r="34" fill="#fbfaf6" stroke="#2d263c" stroke-width="7"/>
  <circle cx="180" cy="186" r="17" fill="#221f2b" stroke="#2d263c" stroke-width="4"/>
  <circle cx="172" cy="178" r="5" fill="#fbfaf6"/>
</svg>
