<svg xmlns="http://www.w3.org/2000/svg" viewBox="0 0 360 360">
<rect x="172" y="40" width="16" height="42" rx="6" fill="#e8c84a" stroke="#2d263c" stroke-width="7"/>
<rect x="172" y="278" width="16" height="42" rx="6" fill="#e8c84a" stroke="#2d263c" stroke-width="7"/>
<rect x="40" y="172" width="42" height="16" rx="6" fill="#e8c84a" stroke="#2d263c" stroke-width="7"/>
<rect x="278" y="172" width="42" height="16" rx="6" fill="#e8c84a" stroke="#2d263c" stroke-width="7"/>
<rect x="100" y="100" width="16" height="42" rx="6" fill="#e8c84a" stroke="#2d263c" stroke-width="7" transform="rotate(-45 108 121)"/>
<rect x="244" y="100" width="16" height="42" rx="6" fill="#e8c84a" stroke="#2d263c" stroke-width="7" transform="rotate(45 252 121)"/>
<rect x="100" y="218" width="16" height="42" rx="6" fill="#e8c84a" stroke="#2d263c" stroke-width="7" transform="rotate(45 108 239)"/>
<rect x="244" y="218" width="16" height="42" rx="6" fill="#e8c84a" stroke="#2d263c" stroke-width="7" transform="rotate(-45 252 239)"/>
<circle cx="180" cy="180" r="96" fill="#e8c84a" stroke="#2d263c" stroke-width="8"/>
<circle cx="180" cy="180" r="72" fill="none" stroke="#2d263c" stroke-width="6"/>
<circle cx="180" cy="180" r="58" fill="#b8982a" stroke="#2d263c" stroke-width="6"/>
<ellipse cx="180" cy="180" rx="22" ry="26" fill="#2d263c"/>
<circle cx="180" cy="180" r="10" fill="#ffe14d"/>
<circle cx="183" cy="177" r="3" fill="#fff"/>
</svg>