<svg xmlns="http://www.w3.org/2000/svg" viewBox="0 0 360 360">
  <ellipse cx="180" cy="330" rx="70" ry="14" fill="#2d263c" opacity="0.15"/>

  <path d="M148 90 Q180 55 214 92 Q248 130 250 200 Q252 265 210 305 Q180 328 150 306 Q108 268 110 200 Q112 128 148 90 Z"
        fill="#EFC94A" stroke="#2d263c" stroke-width="8" stroke-linejoin="round"/>

  <path d="M112 148 Q180 168 250 146" fill="none" stroke="#2d263c" stroke-width="9" stroke-linecap="round"/>
  <path d="M108 200 Q180 224 252 198" fill="none" stroke="#2d263c" stroke-width="9" stroke-linecap="round"/>
  <path d="M118 255 Q180 275 242 250" fill="none" stroke="#2d263c" stroke-width="9" stroke-linecap="round"/>

  <path d="M112 150 Q88 140 82 118 Q100 122 118 138 Z"
        fill="#3a3350" stroke="#2d263c" stroke-width="6" stroke-linejoin="round"/>
  <path d="M250 148 Q276 136 282 112 Q262 118 246 136 Z"
        fill="#3a3350" stroke="#2d263c" stroke-width="6" stroke-linejoin="round"/>

  <path d="M150 92 Q180 62 212 94 Q206 108 180 108 Q156 108 150 92 Z"
        fill="#F6DE7E" stroke="#2d263c" stroke-width="7" stroke-linejoin="round"/>

  <ellipse cx="163" cy="96" rx="8" ry="11" fill="#2d263c"/>
  <ellipse cx="199" cy="96" rx="8" ry="11" fill="#2d263c"/>

  <path d="M150 210 Q165 220 150 232" fill="none" stroke="#2d263c" stroke-width="6" stroke-linecap="round" opacity="0.55"/>
  <path d="M212 210 Q197 220 212 232" fill="none" stroke="#2d263c" stroke-width="6" stroke-linecap="round" opacity="0.55"/>
</svg>
