<svg xmlns="http://www.w3.org/2000/svg" viewBox="0 0 360 360">
  <ellipse cx="180" cy="324" rx="56" ry="9" fill="#2d263c" opacity="0.15"/>
  <path d="M150,312 L146,324 M168,316 L165,328 M192,316 L195,328 M210,312 L214,324" stroke="#2d263c" stroke-width="6" stroke-linecap="round"/>
  <ellipse cx="180" cy="238" rx="58" ry="78" fill="#3a3540" stroke="#2d263c" stroke-width="9"/>
  <path d="M126,208 Q180,228 234,208" fill="none" stroke="#2d263c" stroke-width="5" stroke-linecap="round"/>
  <path d="M126,248 Q180,268 234,248" fill="none" stroke="#2d263c" stroke-width="5" stroke-linecap="round"/>
  <path d="M130,286 Q180,302 230,286" fill="none" stroke="#2d263c" stroke-width="5" stroke-linecap="round"/>
  <ellipse cx="180" cy="172" rx="58" ry="26" fill="#f0f0ec" stroke="#2d263c" stroke-width="8"/>
  <circle cx="132" cy="166" r="15" fill="#f0f0ec" stroke="#2d263c" stroke-width="6"/>
  <circle cx="228" cy="166" r="15" fill="#f0f0ec" stroke="#2d263c" stroke-width="6"/>
  <circle cx="180" cy="120" r="48" fill="#3a3540" stroke="#2d263c" stroke-width="9"/>
  <ellipse cx="162" cy="118" rx="15" ry="17" fill="#f0f0ec" stroke="#2d263c" stroke-width="6"/>
  <ellipse cx="198" cy="118" rx="15" ry="17" fill="#f0f0ec" stroke="#2d263c" stroke-width="6"/>
  <ellipse cx="162" cy="120" rx="7" ry="9" fill="#2d263c"/>
  <ellipse cx="198" cy="120" rx="7" ry="9" fill="#2d263c"/>
  <circle cx="165" cy="116" r="3" fill="#ffffff"/>
  <circle cx="201" cy="116" r="3" fill="#ffffff"/>
  <path d="M170,142 Q180,150 190,142" fill="none" stroke="#2d263c" stroke-width="5" stroke-linecap="round"/>
</svg>
