<svg xmlns="http://www.w3.org/2000/svg" viewBox="0 0 360 360">
<ellipse cx="180" cy="330" rx="40" ry="10" fill="#2d263c" opacity="0.12"/>
<path d="M245 250 Q275 245 270 275 Q260 290 235 275 Z" fill="#f6df8e" stroke="#2d263c" stroke-width="7" stroke-linejoin="round"/>
<ellipse cx="140" cy="305" rx="30" ry="22" fill="#f6df8e" stroke="#2d263c" stroke-width="7"/>
<ellipse cx="220" cy="305" rx="30" ry="22" fill="#f6df8e" stroke="#2d263c" stroke-width="7"/>
<path d="M100 195 Q60 210 75 260 Q90 285 115 260 Q125 230 115 200 Z" fill="#f6df8e" stroke="#2d263c" stroke-width="7" stroke-linejoin="round"/>
<ellipse cx="70" cy="255" rx="16" ry="12" fill="#f6df8e" stroke="#2d263c" stroke-width="6"/>
<ellipse cx="180" cy="230" rx="95" ry="90" fill="#f8e59c" stroke="#2d263c" stroke-width="8" stroke-linejoin="round"/>
<path d="M255 190 Q290 195 280 240 Q270 265 240 245 Q235 210 250 190 Z" fill="#f8e59c" stroke="#2d263c" stroke-width="7" stroke-linejoin="round"/>
<ellipse cx="278" cy="240" rx="15" ry="12" fill="#f8e59c" stroke="#2d263c" stroke-width="6"/>
<ellipse cx="180" cy="255" rx="52" ry="55" fill="#fdf3d2" stroke="#2d263c" stroke-width="0"/>
<path d="M130 210 Q180 195 230 210 Q235 260 180 280 Q125 260 130 210 Z" fill="#fdf3d2" stroke="#2d263c" stroke-width="7" stroke-linejoin="round"/>
<circle cx="180" cy="118" r="72" fill="#f8e59c" stroke="#2d263c" stroke-width="8"/>
<path d="M170 55 Q160 20 185 15 Q205 15 195 45 Q210 30 215 50 Q210 65 185 68 Q160 68 170 55 Z" fill="#f8e59c" stroke="#2d263c" stroke-width="7" stroke-linejoin="round"/>
<ellipse cx="150" cy="150" rx="60" ry="34" fill="#fbeecb" stroke="#2d263c" stroke-width="7"/>
<path d="M95 145 Q90 165 115 170 Q100 175 92 165 Z" fill="#fbeecb" stroke="#2d263c" stroke-width="6" stroke-linejoin="round"/>
<circle cx="150" cy="98" r="10" fill="#2d263c"/>
<circle cx="205" cy="98" r="10" fill="#2d263c"/>
<path d="M132 78 Q150 68 165 80" fill="none" stroke="#2d263c" stroke-width="6" stroke-linecap="round"/>
<path d="M190 80 Q205 68 223 78" fill="none" stroke="#2d263c" stroke-width="6" stroke-linecap="round"/>
<path d="M60 235 Q52 245 60 252" fill="none" stroke="#2d263c" stroke-width="6" stroke-linecap="round"/>
</svg>
