<svg xmlns="http://www.w3.org/2000/svg" viewBox="0 0 360 360">
<g stroke="#2d263c" stroke-width="7" stroke-linejoin="round" stroke-linecap="round">
<ellipse cx="180" cy="200" rx="62" ry="58" fill="#5a8fd6"/>
<ellipse cx="180" cy="222" rx="38" ry="38" fill="#d65a7a"/>
<path d="M122 196 Q100 222 132 242 Q152 236 142 206 Z" fill="#4a7abf"/>
<path d="M238 196 Q260 222 228 242 Q208 236 218 206 Z" fill="#4a7abf"/>
<path d="M180 250 Q168 276 185 282 Q202 276 190 250 Z" fill="#4a7abf"/>
<ellipse cx="180" cy="135" rx="48" ry="44" fill="#5a8fd6"/>
<path d="M168 150 Q153 158 168 166 Q177 161 177 152 Z" fill="#ffcf3f"/>
<circle cx="165" cy="128" r="10" fill="#ffffff"/>
<circle cx="198" cy="128" r="10" fill="#ffffff"/>
<circle cx="168" cy="130" r="5" fill="#2d263c"/>
<circle cx="201" cy="130" r="5" fill="#2d263c"/>
<path d="M165 258 L159 274 M165 258 L171 274 M165 258 L165 276" fill="none"/>
<path d="M195 258 L189 274 M195 258 L201 274 M195 258 L195 276" fill="none"/>
</g>
</svg>