<svg xmlns="http://www.w3.org/2000/svg" viewBox="0 0 360 360">
<path d="M150,70 L130,45 L160,80 Z" fill="#4a9c6a" stroke="#2d263c" stroke-width="7" stroke-linejoin="round" stroke-linecap="round"/>
<path d="M210,70 L230,45 L200,80 Z" fill="#4a9c6a" stroke="#2d263c" stroke-width="7" stroke-linejoin="round" stroke-linecap="round"/>
<rect x="152" y="250" width="20" height="68" rx="9" fill="#f2e8c9" stroke="#2d263c" stroke-width="7" stroke-linejoin="round" stroke-linecap="round"/>
<rect x="188" y="250" width="20" height="68" rx="9" fill="#f2e8c9" stroke="#2d263c" stroke-width="7" stroke-linejoin="round" stroke-linecap="round"/>
<ellipse cx="162" cy="320" rx="17" ry="11" fill="#e0d3a8" stroke="#2d263c" stroke-width="6" stroke-linejoin="round" stroke-linecap="round"/>
<ellipse cx="198" cy="320" rx="17" ry="11" fill="#e0d3a8" stroke="#2d263c" stroke-width="6" stroke-linejoin="round" stroke-linecap="round"/>
<path d="M148,205 L212,205 L228,258 L132,258 Z" fill="#f2e8c9" stroke="#2d263c" stroke-width="7" stroke-linejoin="round" stroke-linecap="round"/>
<path d="M130,213 L108,224 L130,236 Z" fill="#d63b2e" stroke="#2d263c" stroke-width="6" stroke-linejoin="round" stroke-linecap="round"/>
<path d="M230,213 L252,224 L230,236 Z" fill="#d63b2e" stroke="#2d263c" stroke-width="6" stroke-linejoin="round" stroke-linecap="round"/>
<path d="M122,148 L238,148 L216,208 L144,208 Z" fill="#4a9c6a" stroke="#2d263c" stroke-width="7" stroke-linejoin="round" stroke-linecap="round"/>
<path d="M180,145 L197,178 L180,210 L163,178 Z" fill="#d63b2e" stroke="#2d263c" stroke-width="6" stroke-linejoin="round" stroke-linecap="round"/>
<path d="M120,148 L140,160 L100,205 L80,195 Z" fill="#4a9c6a" stroke="#2d263c" stroke-width="7" stroke-linejoin="round" stroke-linecap="round"/>
<path d="M100,205 L80,195 L50,235 L85,225 Z" fill="#d63b2e" stroke="#2d263c" stroke-width="7" stroke-linejoin="round" stroke-linecap="round"/>
<path d="M240,148 L220,160 L260,205 L280,195 Z" fill="#4a9c6a" stroke="#2d263c" stroke-width="7" stroke-linejoin="round" stroke-linecap="round"/>
<path d="M260,205 L280,195 L310,235 L275,225 Z" fill="#d63b2e" stroke="#2d263c" stroke-width="7" stroke-linejoin="round" stroke-linecap="round"/>
<rect x="168" y="133" width="24" height="20" rx="4" fill="#4a9c6a" stroke="#2d263c" stroke-width="6" stroke-linejoin="round" stroke-linecap="round"/>
<circle cx="180" cy="98" r="42" fill="#4a9c6a" stroke="#2d263c" stroke-width="7" stroke-linejoin="round" stroke-linecap="round"/>
<path d="M180,40 L162,85 L198,80 Z" fill="#d63b2e" stroke="#2d263c" stroke-width="7" stroke-linejoin="round" stroke-linecap="round"/>
<ellipse cx="180" cy="106" rx="27" ry="32" fill="#f2e8c9" stroke="#2d263c" stroke-width="5" stroke-linejoin="round" stroke-linecap="round"/>
<ellipse cx="168" cy="102" rx="8" ry="10" fill="#8a1414" stroke="#2d263c" stroke-width="4" stroke-linejoin="round" stroke-linecap="round"/>
<ellipse cx="192" cy="102" rx="8" ry="10" fill="#8a1414" stroke="#2d263c" stroke-width="4" stroke-linejoin="round" stroke-linecap="round"/>
<path d="M172,122 Q180,128 188,122" fill="none" stroke="#2d263c" stroke-width="4" stroke-linejoin="round" stroke-linecap="round"/>
</svg>
