<svg xmlns="http://www.w3.org/2000/svg" viewBox="0 0 360 360">
  <!-- 後ろ足(左) -->
  <ellipse cx="108" cy="295" rx="34" ry="22" fill="#7a4e2a" stroke="#2d263c" stroke-width="7" stroke-linejoin="round"/>
  <!-- 後ろ足(右) -->
  <ellipse cx="252" cy="295" rx="34" ry="22" fill="#7a4e2a" stroke="#2d263c" stroke-width="7" stroke-linejoin="round"/>
  <!-- 前足(左) -->
  <ellipse cx="95" cy="268" rx="28" ry="20" fill="#8b5e3c" stroke="#2d263c" stroke-width="7" stroke-linejoin="round"/>
  <!-- 前足(右) -->
  <ellipse cx="265" cy="268" rx="28" ry="20" fill="#8b5e3c" stroke="#2d263c" stroke-width="7" stroke-linejoin="round"/>

  <!-- 体(胴体) -->
  <ellipse cx="180" cy="248" rx="108" ry="78" fill="#9b6b42" stroke="#2d263c" stroke-width="8" stroke-linejoin="round"/>

  <!-- お腹の明るい部分 -->
  <ellipse cx="180" cy="262" rx="72" ry="50" fill="#c08050" stroke="#2d263c" stroke-width="5" stroke-linejoin="round"/>

  <!-- 甲羅(ベース) -->
  <ellipse cx="180" cy="210" rx="100" ry="70" fill="#2a1a0a" stroke="#2d263c" stroke-width="8" stroke-linejoin="round"/>

  <!-- 甲羅の石炭ゴツゴツ模様 -->
  <rect x="135" y="182" width="30" height="22" rx="6" fill="#1a0e04" stroke="#2d263c" stroke-width="5" stroke-linejoin="round" transform="rotate(-8 150 193)"/>
  <rect x="170" y="178" width="26" height="20" rx="5" fill="#3a2510" stroke="#2d263c" stroke-width="5" stroke-linejoin="round" transform="rotate(4 183 188)"/>
  <rect x="205" y="183" width="28" height="21" rx="6" fill="#1a0e04" stroke="#2d263c" stroke-width="5" stroke-linejoin="round" transform="rotate(-5 219 193)"/>
  <rect x="145" y="210" width="24" height="18" rx="5" fill="#2e1908" stroke="#2d263c" stroke-width="4" stroke-linejoin="round" transform="rotate(6 157 219)"/>
  <rect x="188" y="208" width="26" height="19" rx="5" fill="#1a0e04" stroke="#2d263c" stroke-width="4" stroke-linejoin="round" transform="rotate(-6 201 218)"/>
  <rect x="160" y="232" width="22" height="16" rx="5" fill="#2e1908" stroke="#2d263c" stroke-width="4" stroke-linejoin="round" transform="rotate(3 171 240)"/>

  <!-- 煙突 左 -->
  <rect x="138" y="140" width="26" height="52" rx="8" fill="#3a2510" stroke="#2d263c" stroke-width="7" stroke-linejoin="round" transform="rotate(-10 151 166)"/>
  <!-- 煙突 左 上部(赤い先端) -->
  <ellipse cx="146" cy="138" rx="15" ry="10" fill="#cc3300" stroke="#2d263c" stroke-width="6" stroke-linejoin="round" transform="rotate(-10 146 138)"/>

  <!-- 煙突 中央(一番大きい) -->
  <rect x="162" y="118" width="32" height="68" rx="10" fill="#2a1a0a" stroke="#2d263c" stroke-width="8" stroke-linejoin="round" transform="rotate(3 178 152)"/>
  <!-- 煙突 中央 上部 -->
  <ellipse cx="180" cy="116" rx="18" ry="12" fill="#cc2200" stroke="#2d263c" stroke-width="7" stroke-linejoin="round"/>

  <!-- 煙突 右 -->
  <rect x="196" y="143" width="26" height="50" rx="8" fill="#3a2510" stroke="#2d263c" stroke-width="7" stroke-linejoin="round" transform="rotate(12 209 168)"/>
  <!-- 煙突 右 上部 -->
  <ellipse cx="214" cy="141" rx="14" ry="10" fill="#dd3300" stroke="#2d263c" stroke-width="6" stroke-linejoin="round" transform="rotate(12 214 141)"/>

  <!-- 炎 左煙突 -->
  <path d="M139 132 Q133 118 141 108 Q137 120 148 114 Q143 124 152 118 Q146 130 140 133Z" fill="#ff9900" stroke="none"/>
  <!-- 炎 中央煙突 -->
  <path d="M170 110 Q163 92 173 80 Q169 95 182 86 Q176 98 186 90 Q181 106 172 111Z" fill="#ff7700" stroke="none"/>
  <!-- 炎 右煙突 -->
  <path d="M208 136 Q215 120 208 109 Q214 122 221 115 Q217 127 224 121 Q220 133 210 137Z" fill="#ff9900" stroke="none"/>

  <!-- 頭部 -->
  <ellipse cx="180" cy="278" rx="58" ry="46" fill="#9b6b42" stroke="#2d263c" stroke-width="8" stroke-linejoin="round"/>

  <!-- 顔 白目(左) -->
  <ellipse cx="160" cy="268" rx="16" ry="18" fill="white" stroke="#2d263c" stroke-width="5" stroke-linejoin="round"/>
  <!-- 顔 白目(右) ちょっとずれてる -->
  <ellipse cx="203" cy="266" rx="15" ry="17" fill="white" stroke="#2d263c" stroke-width="5" stroke-linejoin="round"/>

  <!-- 瞳(左) -->
  <ellipse cx="162" cy="271" rx="9" ry="11" fill="#1a1a1a" stroke="none"/>
  <!-- ハイライト左 -->
  <ellipse cx="166" cy="267" rx="3" ry="3" fill="white" stroke="none"/>

  <!-- 瞳(右) ちょっとつぶれてる -->
  <ellipse cx="205" cy="268" rx="8" ry="10" fill="#1a1a1a" stroke="none"/>
  <!-- ハイライト右 -->
  <ellipse cx="209" cy="264" rx="3" ry="3" fill="white" stroke="none"/>

  <!-- 鼻(ちっちゃい穴2つ) -->
  <ellipse cx="173" cy="285" rx="5" ry="4" fill="#5a3520" stroke="#2d263c" stroke-width="3"/>
  <ellipse cx="188" cy="285" rx="5" ry="4" fill="#5a3520" stroke="#2d263c" stroke-width="3"/>

  <!-- 口(ぽかんと半開き) -->
  <path d="M164 298 Q180 312 197 298" fill="none" stroke="#2d263c" stroke-width="6" stroke-linecap="round"/>
  <!-- 口の中 -->
  <path d="M168 301 Q180 310 193 301" fill="#7a2510" stroke="none"/>

  <!-- ほっぺ赤み(左) -->
  <ellipse cx="140" cy="285" rx="14" ry="10" fill="#e05030" opacity="0.45"/>
  <!-- ほっぺ赤み(右) -->
  <ellipse cx="220" cy="283" rx="13" ry="10" fill="#e05030" opacity="0.45"/>

  <!-- 尻尾(ちょこっと) -->
  <path d="M278 262 Q305 250 298 275 Q290 265 280 272Z" fill="#8b5e3c" stroke="#2d263c" stroke-width="6" stroke-linejoin="round"/>
</svg>