<svg xmlns="http://www.w3.org/2000/svg" viewBox="0 0 360 360">
  <rect x="135" y="288" width="18" height="30" rx="7" fill="#F5A623" stroke="#2d263c" stroke-width="7" stroke-linejoin="round"/>
  <rect x="207" y="288" width="18" height="30" rx="7" fill="#F5A623" stroke="#2d263c" stroke-width="7" stroke-linejoin="round"/>
  <ellipse cx="130" cy="322" rx="22" ry="12" fill="#F5A623" stroke="#2d263c" stroke-width="7" stroke-linejoin="round"/>
  <ellipse cx="230" cy="322" rx="22" ry="12" fill="#F5A623" stroke="#2d263c" stroke-width="7" stroke-linejoin="round"/>
  <ellipse cx="180" cy="225" rx="95" ry="85" fill="#8FD8F0" stroke="#2d263c" stroke-width="8" stroke-linejoin="round"/>
  <path d="M76,190 C56,192 46,222 58,248 C70,268 96,262 100,238 C104,214 94,192 76,190 Z" fill="#8FD8F0" stroke="#2d263c" stroke-width="7" stroke-linejoin="round"/>
  <path d="M284,190 C304,192 314,222 302,248 C290,268 264,262 260,238 C256,214 266,192 284,190 Z" fill="#8FD8F0" stroke="#2d263c" stroke-width="7" stroke-linejoin="round"/>
  <ellipse cx="180" cy="252" rx="58" ry="46" fill="#ffffff" stroke="#2d263c" stroke-width="7" stroke-linejoin="round"/>
  <circle cx="180" cy="125" r="70" fill="#8FD8F0" stroke="#2d263c" stroke-width="8" stroke-linejoin="round"/>
  <path d="M167,66 C161,50 170,36 184,40 C177,48 178,58 176,72 Z" fill="#8FD8F0" stroke="#2d263c" stroke-width="6" stroke-linejoin="round"/>
  <path d="M136,150 C136,178 156,196 180,196 C204,196 224,178 224,150 C224,166 204,168 180,168 C156,168 136,166 136,150 Z" fill="#F7C948" stroke="#2d263c" stroke-width="7" stroke-linejoin="round"/>
  <line x1="140" y1="150" x2="220" y2="150" stroke="#2d263c" stroke-width="4" stroke-linecap="round"/>
  <circle cx="155" cy="112" r="14" fill="#241f2e" stroke="#2d263c" stroke-width="6"/>
  <circle cx="205" cy="112" r="14" fill="#241f2e" stroke="#2d263c" stroke-width="6"/>
  <circle cx="150" cy="107" r="4" fill="#ffffff"/>
  <circle cx="200" cy="107" r="4" fill="#ffffff"/>
</svg>
