<svg xmlns="http://www.w3.org/2000/svg" viewBox="0 0 360 360">
  <!-- segmented body dome -->
  <path d="M110 195 Q110 125 210 125 Q310 125 310 195 Q310 250 210 255 Q110 250 110 195 Z" fill="#b8c0c8" stroke="#2d263c" stroke-width="8" stroke-linejoin="round"/>
  <!-- segment plates -->
  <path d="M165 130 Q175 195 165 255" fill="none" stroke="#2d263c" stroke-width="6"/>
  <path d="M205 128 Q215 195 205 257" fill="none" stroke="#2d263c" stroke-width="6"/>
  <path d="M245 130 Q255 195 245 255" fill="none" stroke="#2d263c" stroke-width="6"/>
  <!-- head -->
  <path d="M110 145 Q70 150 65 195 Q70 245 115 248 Q140 245 140 195 Q140 150 110 145 Z" fill="#c8d0d8" stroke="#2d263c" stroke-width="8" stroke-linejoin="round"/>
  <!-- eyes -->
  <circle cx="90" cy="182" r="15" fill="#fff8ea" stroke="#2d263c" stroke-width="6"/>
  <circle cx="120" cy="182" r="15" fill="#fff8ea" stroke="#2d263c" stroke-width="6"/>
  <circle cx="92" cy="185" r="7" fill="#2d263c"/>
  <circle cx="122" cy="185" r="7" fill="#2d263c"/>
  <!-- antennae -->
  <path d="M82 150 Q70 122 62 108" fill="none" stroke="#2d263c" stroke-width="6" stroke-linecap="round"/>
  <path d="M128 150 Q140 122 150 108" fill="none" stroke="#2d263c" stroke-width="6" stroke-linecap="round"/>
  <!-- legs -->
  <path d="M170 253 L165 295" fill="none" stroke="#2d263c" stroke-width="8" stroke-linecap="round"/>
  <path d="M215 257 L215 300" fill="none" stroke="#2d263c" stroke-width="8" stroke-linecap="round"/>
  <path d="M260 253 L268 295" fill="none" stroke="#2d263c" stroke-width="8" stroke-linecap="round"/>
</svg>
