<svg xmlns="http://www.w3.org/2000/svg" viewBox="0 0 360 360">
  <!-- 後ろ: 影 -->
  <ellipse cx="180" cy="320" rx="70" ry="16" fill="#2d263c" opacity="0.15"/>

  <!-- 頭の赤い葉(モヒカン状)後ろ側 -->
  <path d="M150 70 Q160 20 178 45 Q190 15 205 50 Q218 22 226 62 Q205 55 190 70 Q168 60 150 70 Z" fill="#c0392b" stroke="#2d263c" stroke-width="7" stroke-linejoin="round"/>

  <!-- 体(緑) -->
  <path d="M120 190 Q110 260 130 305 Q150 320 180 320 Q210 320 230 305 Q250 260 240 190 Q235 150 180 150 Q125 150 120 190 Z" fill="#5aa02c" stroke="#2d263c" stroke-width="7" stroke-linejoin="round"/>

  <!-- 草の裾(スカート状) -->
  <path d="M118 292 L128 320 L142 288 L156 320 L170 286 L184 320 L198 286 L212 320 L226 288 L240 320 L248 292" fill="#7bc142" stroke="#2d263c" stroke-width="7" stroke-linejoin="round"/>

  <!-- 左腕 -->
  <path d="M122 195 Q90 210 82 250 Q80 265 95 268 Q108 250 118 225" fill="#5aa02c" stroke="#2d263c" stroke-width="7" stroke-linejoin="round"/>
  <!-- 右腕 -->
  <path d="M238 195 Q270 210 278 250 Q280 265 265 268 Q252 250 242 225" fill="#5aa02c" stroke="#2d263c" stroke-width="7" stroke-linejoin="round"/>

  <!-- 頭(顔部分・緑) -->
  <ellipse cx="180" cy="130" rx="68" ry="62" fill="#5aa02c" stroke="#2d263c" stroke-width="7"/>

  <!-- 頭上の葉(前側・赤茶) -->
  <path d="M148 82 Q158 30 178 55 Q192 22 210 58 Q222 30 232 75 Q205 65 188 82 Q166 70 148 82 Z" fill="#c0392b" stroke="#2d263c" stroke-width="7" stroke-linejoin="round"/>

  <!-- 長い鼻(茶色・横に長い) -->
  <path d="M244 130 Q300 118 320 132 Q322 142 305 148 Q265 150 244 148 Z" fill="#a9743a" stroke="#2d263c" stroke-width="7" stroke-linejoin="round"/>

  <!-- 目 -->
  <ellipse cx="158" cy="128" rx="13" ry="15" fill="#fff2c8" stroke="#2d263c" stroke-width="6"/>
  <ellipse cx="204" cy="128" rx="13" ry="15" fill="#fff2c8" stroke="#2d263c" stroke-width="6"/>
  <circle cx="160" cy="131" r="5" fill="#2d263c"/>
  <circle cx="206" cy="131" r="5" fill="#2d263c"/>

  <!-- にやり口 -->
  <path d="M168 160 Q180 170 196 158" fill="none" stroke="#2d263c" stroke-width="6" stroke-linecap="round"/>
</svg>
