<svg xmlns="http://www.w3.org/2000/svg" viewBox="0 0 360 360">
<g fill="none" stroke="#2d263c" stroke-width="7" stroke-linejoin="round" stroke-linecap="round">
<path fill="#232c52" d="M255,140 C275,120 295,95 300,70 C290,100 278,125 262,148 Z"/>
<path fill="#232c52" d="M240,135 C255,110 268,80 265,55 C255,85 245,112 232,140 Z"/>
<path fill="#232c52" d="M90,200 C68,208 60,235 74,258 C86,272 108,266 112,244 C115,224 108,206 90,200 Z"/>
<path fill="#232c52" d="M270,200 C292,208 300,235 286,258 C274,272 252,266 248,244 C245,224 252,206 270,200 Z"/>
<ellipse fill="#f5a83c" cx="160" cy="328" rx="16" ry="9"/>
<ellipse fill="#f5a83c" cx="200" cy="328" rx="16" ry="9"/>
<path fill="#2f3a66" d="M180,70 C235,70 275,115 278,180 C281,245 255,300 210,325 C190,335 170,335 150,325 C105,300 79,245 82,180 C85,115 125,70 180,70 Z"/>
<path fill="#2f3a66" d="M150,85 C140,70 142,50 155,48 C162,60 158,78 150,85 Z"/>
<path fill="#2f3a66" d="M168,75 C160,50 175,30 195,38 C202,55 190,72 178,80 Z"/>
<path fill="#2f3a66" d="M225,82 C238,65 238,48 225,45 C216,58 218,76 225,82 Z"/>
<path fill="#f7f2e6" d="M120,190 C110,235 122,285 158,308 C172,316 188,316 202,308 C238,285 250,235 240,190 C233,165 205,150 180,150 C155,150 127,165 120,190 Z"/>
<ellipse fill="#f6b98a" stroke="none" cx="120" cy="215" rx="14" ry="8"/>
<ellipse fill="#f6b98a" stroke="none" cx="240" cy="215" rx="14" ry="8"/>
<circle fill="#221c2c" cx="148" cy="185" r="24"/>
<circle fill="#221c2c" cx="212" cy="185" r="24"/>
<circle fill="#ffffff" stroke="none" cx="140" cy="176" r="7"/>
<circle fill="#ffffff" stroke="none" cx="204" cy="176" r="7"/>
<path fill="#f5a83c" d="M163,208 C163,198 172,193 180,198 C188,193 197,198 197,208 C197,220 187,228 180,225 C173,228 163,220 163,208 Z"/>
</g>
</svg>
