<svg xmlns="http://www.w3.org/2000/svg" viewBox="0 0 360 360">
  <!-- 尻尾(体の後ろ) -->
  <path d="M245,225 C295,205 320,150 305,95 C300,75 275,80 278,105 C282,145 265,185 225,205 Z" fill="#7d5470" stroke="#2d263c" stroke-width="7" stroke-linejoin="round"/>

  <!-- 体(頭〜胴体をまとめた一体形) -->
  <path d="M122,338 C88,335 76,285 88,235 C96,175 112,110 152,85 C168,74 200,74 218,86 C256,112 274,172 278,232 C286,282 272,332 236,338 Z" fill="#8a5a76" stroke="#2d263c" stroke-width="8" stroke-linejoin="round"/>

  <!-- お腹(クリーム色) -->
  <path d="M148,330 C128,320 122,270 130,225 C136,190 148,165 168,160 C190,165 202,190 208,225 C216,270 210,320 190,330 C176,335 162,335 148,330 Z" fill="#f7ecc9" stroke="#2d263c" stroke-width="6" stroke-linejoin="round"/>

  <!-- 足(クリーム色) -->
  <ellipse cx="140" cy="335" rx="26" ry="14" fill="#f7ecc9" stroke="#2d263c" stroke-width="6"/>
  <ellipse cx="218" cy="335" rx="26" ry="14" fill="#f7ecc9" stroke="#2d263c" stroke-width="6"/>

  <!-- 耳(外側) -->
  <ellipse cx="140" cy="98" rx="20" ry="26" fill="#8a5a76" stroke="#2d263c" stroke-width="7"/>
  <ellipse cx="222" cy="98" rx="20" ry="26" fill="#8a5a76" stroke="#2d263c" stroke-width="7"/>
  <!-- 耳(内側) -->
  <ellipse cx="140" cy="102" rx="10" ry="15" fill="#4f2f42" stroke="#2d263c" stroke-width="5"/>
  <ellipse cx="222" cy="102" rx="10" ry="15" fill="#4f2f42" stroke="#2d263c" stroke-width="5"/>

  <!-- ひげ(左) -->
  <line x1="128" y1="178" x2="55" y2="165" stroke="#2d263c" stroke-width="5" stroke-linecap="round"/>
  <line x1="128" y1="190" x2="52" y2="192" stroke="#2d263c" stroke-width="5" stroke-linecap="round"/>
  <line x1="128" y1="202" x2="58" y2="220" stroke="#2d263c" stroke-width="5" stroke-linecap="round"/>

  <!-- ひげ(右) -->
  <line x1="232" y1="178" x2="305" y2="165" stroke="#2d263c" stroke-width="5" stroke-linecap="round"/>
  <line x1="232" y1="190" x2="308" y2="192" stroke="#2d263c" stroke-width="5" stroke-linecap="round"/>
  <line x1="232" y1="202" x2="302" y2="220" stroke="#2d263c" stroke-width="5" stroke-linecap="round"/>

  <!-- 目 -->
  <circle cx="152" cy="152" r="14" fill="#2d263c"/>
  <circle cx="212" cy="152" r="14" fill="#2d263c"/>
  <circle cx="147" cy="147" r="5" fill="#ffffff"/>
  <circle cx="207" cy="147" r="5" fill="#ffffff"/>

  <!-- 鼻 -->
  <ellipse cx="182" cy="176" rx="8" ry="6" fill="#2d263c"/>

  <!-- 前歯 -->
  <rect x="168" y="184" width="14" height="22" rx="4" fill="#ffffff" stroke="#2d263c" stroke-width="5"/>
  <rect x="184" y="184" width="14" height="22" rx="4" fill="#ffffff" stroke="#2d263c" stroke-width="5"/>
</svg>
