<svg xmlns="http://www.w3.org/2000/svg" viewBox="0 0 360 360">
  <path d="M170,192 C142,150 62,130 38,172 C20,206 42,254 104,252 C146,250 166,218 170,192 Z" fill="#4E6FB4" stroke="#2d263c" stroke-width="8" stroke-linejoin="round" stroke-linecap="round"/>
  <path d="M190,192 C218,150 298,130 322,172 C340,206 318,254 256,252 C214,250 194,218 190,192 Z" fill="#4E6FB4" stroke="#2d263c" stroke-width="8" stroke-linejoin="round" stroke-linecap="round"/>
  <path d="M116,196 C102,180 78,180 64,196 C54,208 60,222 82,220" fill="none" stroke="#3A5390" stroke-width="6" stroke-linejoin="round" stroke-linecap="round"/>
  <path d="M244,196 C258,180 282,180 296,196 C306,208 300,222 278,220" fill="none" stroke="#3A5390" stroke-width="6" stroke-linejoin="round" stroke-linecap="round"/>
  <ellipse cx="180" cy="198" rx="70" ry="80" fill="#9CC6EC" stroke="#2d263c" stroke-width="8"/>
  <path d="M156,124 L144,92 L172,118 Z" fill="#4E6FB4" stroke="#2d263c" stroke-width="6" stroke-linejoin="round" stroke-linecap="round"/>
  <path d="M204,124 L216,92 L188,118 Z" fill="#4E6FB4" stroke="#2d263c" stroke-width="6" stroke-linejoin="round" stroke-linecap="round"/>
  <ellipse cx="180" cy="214" rx="46" ry="52" fill="#D9F0FC" stroke="#2d263c" stroke-width="6"/>
  <circle cx="155" cy="192" r="12" fill="#241F30" stroke="#2d263c" stroke-width="6"/>
  <circle cx="205" cy="192" r="12" fill="#241F30" stroke="#2d263c" stroke-width="6"/>
  <circle cx="151" cy="188" r="3.5" fill="#ffffff"/>
  <circle cx="201" cy="188" r="3.5" fill="#ffffff"/>
  <path d="M180,252 C164,236 146,224 146,206 C146,192 160,186 172,196 C176,200 180,206 180,212 C180,206 184,200 188,196 C200,186 214,192 214,206 C214,224 196,236 180,252 Z" fill="#E8557E" stroke="#2d263c" stroke-width="7" stroke-linejoin="round" stroke-linecap="round"/>
</svg>
