<svg xmlns="http://www.w3.org/2000/svg" viewBox="0 0 360 360">
  <path d="M 190 90 C 232 112, 238 160, 212 195 C 188 224, 158 232, 153 262 C 149 288, 168 305, 195 295 C 210 290, 205 270, 185 268" stroke="#2d263c" stroke-width="76" fill="none" stroke-linecap="round" stroke-linejoin="round"/>
  <path d="M 190 90 C 232 112, 238 160, 212 195 C 188 224, 158 232, 153 262 C 149 288, 168 305, 195 295 C 210 290, 205 270, 185 268" stroke="#3a5fc0" stroke-width="62" fill="none" stroke-linecap="round" stroke-linejoin="round"/>
  <path d="M 195 112 C 180 142, 175 176, 165 205 C 158 228, 152 245, 155 265" stroke="#f5e9c9" stroke-width="18" fill="none" stroke-linecap="round"/>
  <path d="M 210 108 L 232 118 L 212 132 Z" fill="#a13f3f" stroke="#2d263c" stroke-width="5" stroke-linejoin="round"/>
  <path d="M 205 155 L 228 165 L 206 178 Z" fill="#a13f3f" stroke="#2d263c" stroke-width="5" stroke-linejoin="round"/>
  <path d="M 170 205 L 195 213 L 172 228 Z" fill="#a13f3f" stroke="#2d263c" stroke-width="5" stroke-linejoin="round"/>
  <path d="M 225 140 Q 248 148 234 167 Q 214 160 220 145 Z" fill="#7fa3e0" stroke="#2d263c" stroke-width="5" stroke-linejoin="round"/>
  <path d="M 138 250 Q 116 258 130 274 Q 148 266 144 252 Z" fill="#7fa3e0" stroke="#2d263c" stroke-width="5" stroke-linejoin="round"/>
  <ellipse cx="188" cy="82" rx="44" ry="38" fill="#3a5fc0" stroke="#2d263c" stroke-width="7"/>
  <ellipse cx="163" cy="100" rx="14" ry="10" fill="#f5e9c9"/>
  <path d="M 162 100 Q 140 115 148 140 Q 168 132 172 105 Z" fill="#3a5fc0" stroke="#2d263c" stroke-width="6" stroke-linejoin="round"/>
  <path d="M 150 128 Q 158 132 165 127" stroke="#2d263c" stroke-width="4" fill="none" stroke-linecap="round"/>
  <path d="M 188 44 L 178 64 L 198 64 Z" fill="#23408f" stroke="#2d263c" stroke-width="6" stroke-linejoin="round"/>
  <circle cx="170" cy="78" r="8" fill="#1a1a1a"/>
  <circle cx="173" cy="75" r="2.5" fill="#ffffff"/>
</svg>
