<svg xmlns="http://www.w3.org/2000/svg" viewBox="0 0 360 360">
  <polygon points="195,285 250,320 205,290" fill="#a9b6c0" stroke="#2d263c" stroke-width="7" stroke-linejoin="round" stroke-linecap="round"/>
  <ellipse cx="180" cy="250" rx="64" ry="58" fill="#221e2a" stroke="#2d263c" stroke-width="8" stroke-linejoin="round" stroke-linecap="round"/>
  <rect x="150" y="290" width="20" height="26" rx="9" fill="#221e2a" stroke="#2d263c" stroke-width="7" stroke-linejoin="round" stroke-linecap="round"/>
  <rect x="190" y="290" width="20" height="26" rx="9" fill="#221e2a" stroke="#2d263c" stroke-width="7" stroke-linejoin="round" stroke-linecap="round"/>
  <ellipse cx="158" cy="312" rx="15" ry="7" fill="#17151d" stroke="#2d263c" stroke-width="6" stroke-linejoin="round" stroke-linecap="round"/>
  <ellipse cx="202" cy="312" rx="15" ry="7" fill="#17151d" stroke="#2d263c" stroke-width="6" stroke-linejoin="round" stroke-linecap="round"/>
  <polygon points="128,222 58,185 95,255" fill="#aab6c0" stroke="#2d263c" stroke-width="7" stroke-linejoin="round" stroke-linecap="round"/>
  <polygon points="232,222 302,185 265,255" fill="#aab6c0" stroke="#2d263c" stroke-width="7" stroke-linejoin="round" stroke-linecap="round"/>
  <polygon points="180,222 206,250 180,278 154,250" fill="#cfd8de" stroke="#2d263c" stroke-width="6" stroke-linejoin="round" stroke-linecap="round"/>
  <ellipse cx="180" cy="145" rx="52" ry="46" fill="#221e2a" stroke="#2d263c" stroke-width="8" stroke-linejoin="round" stroke-linecap="round"/>
  <polygon points="135,125 95,105 122,155" fill="#aab6c0" stroke="#2d263c" stroke-width="7" stroke-linejoin="round" stroke-linecap="round"/>
  <polygon points="225,125 265,105 238,155" fill="#aab6c0" stroke="#2d263c" stroke-width="7" stroke-linejoin="round" stroke-linecap="round"/>
  <polygon points="163,105 180,45 197,105" fill="#aab6c0" stroke="#2d263c" stroke-width="7" stroke-linejoin="round" stroke-linecap="round"/>
  <ellipse cx="162" cy="145" rx="9" ry="13" fill="#d1393b" stroke="#2d263c" stroke-width="4" stroke-linejoin="round" stroke-linecap="round"/>
  <ellipse cx="198" cy="145" rx="9" ry="13" fill="#d1393b" stroke="#2d263c" stroke-width="4" stroke-linejoin="round" stroke-linecap="round"/>
  <path d="M168,168 Q180,178 192,168" fill="none" stroke="#2d263c" stroke-width="6" stroke-linecap="round"/>
  <path d="M175,70 L178,95" stroke="#e8edf1" stroke-width="4" stroke-linecap="round"/>
  <path d="M100,200 L75,205" stroke="#e8edf1" stroke-width="4" stroke-linecap="round"/>
  <path d="M260,200 L285,205" stroke="#e8edf1" stroke-width="4" stroke-linecap="round"/>
  <circle cx="222" cy="300" r="5" fill="#e8edf1"/>
</svg>
