<svg xmlns="http://www.w3.org/2000/svg" viewBox="0 0 360 360">
  <!-- 影 -->
  <ellipse cx="180" cy="335" rx="80" ry="14" fill="#00000022"/>

  <!-- 紫オーラ (左腕周囲) -->
  <ellipse cx="108" cy="230" rx="52" ry="48" fill="#8030C0" opacity="0.30"/>
  <ellipse cx="95" cy="215" rx="38" ry="32" fill="#8030C0" opacity="0.25"/>

  <!-- 紫オーラ (右腕周囲) -->
  <ellipse cx="252" cy="230" rx="52" ry="48" fill="#8030C0" opacity="0.30"/>
  <ellipse cx="265" cy="215" rx="38" ry="32" fill="#8030C0" opacity="0.25"/>

  <!-- 体の下部が霧散 (ゴースト感) -->
  <path d="M148 295 Q145 315 142 340 Q155 345 165 330 Q170 315 172 295 Z" fill="#606068" opacity="0.6"/>
  <path d="M165 305 Q163 325 162 350 Q173 352 178 335 Q180 318 180 305 Z" fill="#606068" opacity="0.5"/>
  <path d="M180 305 Q180 325 178 350 Q187 352 192 335 Q192 318 192 305 Z" fill="#606068" opacity="0.5"/>
  <path d="M195 305 Q197 325 198 350 Q208 347 212 330 Q210 315 208 295 Z" fill="#606068" opacity="0.6"/>

  <!-- 体 (胴体) -->
  <path d="M140 190 Q128 230 130 275 Q138 300 180 308 Q222 300 230 275 Q232 230 220 190 Z" fill="#909098" stroke="#2d263c" stroke-width="7" stroke-linejoin="round" stroke-linecap="round"/>

  <!-- 胸/腹部 (明るめ) -->
  <ellipse cx="180" cy="252" rx="35" ry="42" fill="#C0A080" stroke="#2d263c" stroke-width="4" stroke-linejoin="round" stroke-linecap="round"/>

  <!-- 左腕 (大きい) -->
  <path d="M140 200 Q105 215 85 238 Q72 258 78 280 Q90 298 115 292 Q138 282 148 260 Q155 238 148 215 Z" fill="#909098" stroke="#2d263c" stroke-width="7" stroke-linejoin="round" stroke-linecap="round"/>

  <!-- 左こぶし (大きく強調) -->
  <ellipse cx="82" cy="278" rx="30" ry="26" fill="#606068" stroke="#2d263c" stroke-width="7" stroke-linejoin="round" stroke-linecap="round"/>
  <!-- こぶしの関節ライン -->
  <path d="M62 272 Q82 268 102 272" fill="none" stroke="#2d263c" stroke-width="4" stroke-linecap="round"/>
  <path d="M60 280 Q82 276 104 280" fill="none" stroke="#2d263c" stroke-width="4" stroke-linecap="round"/>

  <!-- 右腕 (大きい) -->
  <path d="M220 200 Q255 215 275 238 Q288 258 282 280 Q270 298 245 292 Q222 282 212 260 Q205 238 212 215 Z" fill="#909098" stroke="#2d263c" stroke-width="7" stroke-linejoin="round" stroke-linecap="round"/>

  <!-- 右こぶし (大きく強調) -->
  <ellipse cx="278" cy="278" rx="30" ry="26" fill="#606068" stroke="#2d263c" stroke-width="7" stroke-linejoin="round" stroke-linecap="round"/>
  <!-- こぶしの関節ライン -->
  <path d="M258 272 Q278 268 298 272" fill="none" stroke="#2d263c" stroke-width="4" stroke-linecap="round"/>
  <path d="M256 280 Q278 276 300 280" fill="none" stroke="#2d263c" stroke-width="4" stroke-linecap="round"/>

  <!-- 頭 -->
  <circle cx="180" cy="148" r="62" fill="#909098" stroke="#2d263c" stroke-width="8" stroke-linejoin="round" stroke-linecap="round"/>

  <!-- 顔の地肌 -->
  <ellipse cx="180" cy="160" rx="40" ry="36" fill="#C0A080" stroke="#2d263c" stroke-width="5" stroke-linejoin="round" stroke-linecap="round"/>

  <!-- 眉 (V字・怒り) -->
  <path d="M148 128 L168 142" stroke="#2d263c" stroke-width="8" stroke-linecap="round"/>
  <path d="M212 128 L192 142" stroke="#2d263c" stroke-width="8" stroke-linecap="round"/>

  <!-- 目 (赤く怒った目) 左 -->
  <ellipse cx="162" cy="154" rx="14" ry="12" fill="white" stroke="#2d263c" stroke-width="4"/>
  <ellipse cx="163" cy="155" rx="10" ry="8" fill="#FF2020"/>
  <ellipse cx="164" cy="154" rx="5" ry="5" fill="#880000"/>
  <circle cx="167" cy="151" r="3" fill="white"/>

  <!-- 目 (赤く怒った目) 右 -->
  <ellipse cx="198" cy="154" rx="14" ry="12" fill="white" stroke="#2d263c" stroke-width="4"/>
  <ellipse cx="199" cy="155" rx="10" ry="8" fill="#FF2020"/>
  <ellipse cx="200" cy="154" rx="5" ry="5" fill="#880000"/>
  <circle cx="203" cy="151" r="3" fill="white"/>

  <!-- 鼻 -->
  <ellipse cx="180" cy="168" rx="8" ry="5" fill="#2d263c"/>

  <!-- 口 (怒り顔) -->
  <path d="M162 178 Q172 172 180 172 Q188 172 198 178" fill="none" stroke="#2d263c" stroke-width="5" stroke-linecap="round"/>

  <!-- 額の怒りマーク (|||) -->
  <line x1="172" y1="112" x2="170" y2="124" stroke="#FF2020" stroke-width="4" stroke-linecap="round"/>
  <line x1="180" y1="110" x2="178" y2="122" stroke="#FF2020" stroke-width="4" stroke-linecap="round"/>
  <line x1="188" y1="112" x2="186" y2="124" stroke="#FF2020" stroke-width="4" stroke-linecap="round"/>

  <!-- 耳 (左・大きめ) -->
  <circle cx="130" cy="115" r="22" fill="#909098" stroke="#2d263c" stroke-width="6"/>
  <circle cx="130" cy="115" r="14" fill="#C0A080"/>

  <!-- 耳 (右・大きめ) -->
  <circle cx="230" cy="115" r="22" fill="#909098" stroke="#2d263c" stroke-width="6"/>
  <circle cx="230" cy="115" r="14" fill="#C0A080"/>

  <!-- 頭頂部の毛 -->
  <path d="M168 90 Q175 75 180 70 Q185 75 192 90" fill="none" stroke="#2d263c" stroke-width="5" stroke-linecap="round"/>

  <!-- 紫オーラの粒子 (浮遊感) -->
  <circle cx="72" cy="245" r="6" fill="#8030C0" opacity="0.55"/>
  <circle cx="60" cy="260" r="4" fill="#8030C0" opacity="0.45"/>
  <circle cx="288" cy="245" r="6" fill="#8030C0" opacity="0.55"/>
  <circle cx="300" cy="260" r="4" fill="#8030C0" opacity="0.45"/>
  <circle cx="68" cy="230" r="3" fill="#A050E0" opacity="0.5"/>
  <circle cx="292" cy="230" r="3" fill="#A050E0" opacity="0.5"/>
</svg>
