<svg xmlns="http://www.w3.org/2000/svg" viewBox="0 0 360 360">
  <rect x="195" y="235" width="34" height="80" rx="16" fill="#5f93cf" stroke="#2d263c" stroke-width="7" stroke-linejoin="round" stroke-linecap="round"/>
  <rect x="235" y="235" width="34" height="80" rx="16" fill="#5f93cf" stroke="#2d263c" stroke-width="7" stroke-linejoin="round" stroke-linecap="round"/>
  <path d="M260,200 L285,175 L270,150 L300,120 L285,100 L320,70 L332,55 L318,75 L295,105 L310,125 L280,155 L295,180 L272,205 Z" fill="#5f93cf" stroke="#2d263c" stroke-width="7" stroke-linejoin="round" stroke-linecap="round"/>
  <path d="M326,48 L332,62 L347,64 L336,74 L339,89 L326,81 L313,89 L316,74 L305,64 L320,62 Z" fill="#ffd94d" stroke="#2d263c" stroke-width="6" stroke-linejoin="round" stroke-linecap="round"/>
  <path d="M198,140 L215,68 L236,145 Z" fill="#24344f" stroke="#2d263c" stroke-width="7" stroke-linejoin="round" stroke-linecap="round"/>
  <ellipse cx="190" cy="205" rx="95" ry="58" fill="#5f93cf" stroke="#2d263c" stroke-width="8" stroke-linejoin="round" stroke-linecap="round"/>
  <path d="M140,155 Q162,138 187,150 Q165,170 140,155 Z" fill="#24344f" stroke="#2d263c" stroke-width="6" stroke-linejoin="round" stroke-linecap="round"/>
  <path d="M190,150 Q216,130 246,148 Q220,167 190,150 Z" fill="#24344f" stroke="#2d263c" stroke-width="6" stroke-linejoin="round" stroke-linecap="round"/>
  <ellipse cx="195" cy="235" rx="68" ry="28" fill="#eaf5fc" stroke="#2d263c" stroke-width="6" stroke-linejoin="round" stroke-linecap="round"/>
  <rect x="108" y="248" width="34" height="80" rx="16" fill="#5f93cf" stroke="#2d263c" stroke-width="7" stroke-linejoin="round" stroke-linecap="round"/>
  <rect x="150" y="248" width="34" height="80" rx="16" fill="#5f93cf" stroke="#2d263c" stroke-width="7" stroke-linejoin="round" stroke-linecap="round"/>
  <rect x="195" y="296" width="34" height="16" rx="8" fill="#24344f" stroke="#2d263c" stroke-width="6" stroke-linejoin="round" stroke-linecap="round"/>
  <rect x="235" y="296" width="34" height="16" rx="8" fill="#24344f" stroke="#2d263c" stroke-width="6" stroke-linejoin="round" stroke-linecap="round"/>
  <rect x="108" y="309" width="34" height="16" rx="8" fill="#24344f" stroke="#2d263c" stroke-width="6" stroke-linejoin="round" stroke-linecap="round"/>
  <rect x="150" y="309" width="34" height="16" rx="8" fill="#24344f" stroke="#2d263c" stroke-width="6" stroke-linejoin="round" stroke-linecap="round"/>
  <circle cx="100" cy="140" r="62" fill="#5f93cf" stroke="#2d263c" stroke-width="8" stroke-linejoin="round" stroke-linecap="round"/>
  <path d="M62,120 L80,44 L102,125 Z" fill="#24344f" stroke="#2d263c" stroke-width="7" stroke-linejoin="round" stroke-linecap="round"/>
  <path d="M72,108 L81,72 L91,110 Z" fill="#5f93cf" stroke="#2d263c" stroke-width="6" stroke-linejoin="round" stroke-linecap="round"/>
  <path d="M75,103 Q100,88 126,106 Q100,118 75,103 Z" fill="#24344f" stroke="#2d263c" stroke-width="6" stroke-linejoin="round" stroke-linecap="round"/>
  <ellipse cx="55" cy="160" rx="30" ry="24" fill="#eaf5fc" stroke="#2d263c" stroke-width="7" stroke-linejoin="round" stroke-linecap="round"/>
  <ellipse cx="72" cy="128" rx="16" ry="18" fill="#ffd94d" stroke="#2d263c" stroke-width="6" stroke-linejoin="round" stroke-linecap="round"/>
  <circle cx="68" cy="130" r="7" fill="#1c1c24"/>
  <circle cx="64" cy="124" r="3" fill="#ffffff"/>
  <ellipse cx="40" cy="168" rx="8" ry="6" fill="#1c1c24"/>
  <path d="M35,178 Q45,188 60,180" fill="none" stroke="#2d263c" stroke-width="6" stroke-linecap="round" stroke-linejoin="round"/>
  <path d="M145,222 L152,238 L170,240 L156,251 L161,268 L145,258 L129,268 L134,251 L120,240 L138,238 Z" fill="#ffd94d" stroke="#2d263c" stroke-width="6" stroke-linejoin="round" stroke-linecap="round"/>
</svg>
