<svg xmlns="http://www.w3.org/2000/svg" viewBox="0 0 360 360">
  <path d="M 255 260 C 290 255, 310 220, 305 180 C 302 155, 285 145, 270 150 C 280 175, 275 210, 250 235 Z" fill="#3f3347" stroke="#2d263c" stroke-width="7" stroke-linejoin="round" stroke-linecap="round"/>
  <ellipse cx="120" cy="65" rx="32" ry="44" transform="rotate(-20 120 65)" fill="#3f3347" stroke="#2d263c" stroke-width="7" stroke-linejoin="round"/>
  <ellipse cx="240" cy="65" rx="32" ry="44" transform="rotate(20 240 65)" fill="#3f3347" stroke="#2d263c" stroke-width="7" stroke-linejoin="round"/>
  <ellipse cx="124" cy="72" rx="16" ry="26" transform="rotate(-20 124 72)" fill="#f0c9b8" stroke="#2d263c" stroke-width="6" stroke-linejoin="round"/>
  <ellipse cx="236" cy="72" rx="16" ry="26" transform="rotate(20 236 72)" fill="#f0c9b8" stroke="#2d263c" stroke-width="6" stroke-linejoin="round"/>
  <path d="M 180 55 C 145 55, 108 82, 100 130 C 93 165, 90 205, 95 245 C 100 290, 135 315, 180 315 C 225 315, 260 290, 265 245 C 270 205, 267 165, 260 130 C 252 82, 215 55, 180 55 Z" fill="#3f3347" stroke="#2d263c" stroke-width="8" stroke-linejoin="round"/>
  <ellipse cx="180" cy="250" rx="58" ry="62" fill="#f3e8cf" stroke="#2d263c" stroke-width="6" stroke-linejoin="round"/>
  <ellipse cx="180" cy="170" rx="42" ry="32" fill="#f3e8cf" stroke="#2d263c" stroke-width="6" stroke-linejoin="round"/>
  <circle cx="150" cy="140" r="14" fill="#201a26"/>
  <circle cx="210" cy="140" r="14" fill="#201a26"/>
  <circle cx="145" cy="135" r="4" fill="#ffffff"/>
  <circle cx="205" cy="135" r="4" fill="#ffffff"/>
  <ellipse cx="180" cy="168" rx="10" ry="7" fill="#c96b73" stroke="#2d263c" stroke-width="6" stroke-linejoin="round"/>
  <path d="M 168 180 Q 180 190, 192 180" fill="none" stroke="#2d263c" stroke-width="6" stroke-linecap="round"/>
  <path d="M 172 180 L 188 180 L 188 194 L 172 194 Z" fill="#fffdf5" stroke="#2d263c" stroke-width="6" stroke-linejoin="round"/>
  <line x1="112" y1="163" x2="70" y2="152" stroke="#2d263c" stroke-width="6" stroke-linecap="round"/>
  <line x1="112" y1="175" x2="68" y2="180" stroke="#2d263c" stroke-width="6" stroke-linecap="round"/>
  <line x1="248" y1="163" x2="290" y2="152" stroke="#2d263c" stroke-width="6" stroke-linecap="round"/>
  <line x1="248" y1="175" x2="292" y2="180" stroke="#2d263c" stroke-width="6" stroke-linecap="round"/>
  <ellipse cx="125" cy="255" rx="22" ry="18" fill="#3f3347" stroke="#2d263c" stroke-width="7" stroke-linejoin="round"/>
  <ellipse cx="235" cy="255" rx="22" ry="18" fill="#3f3347" stroke="#2d263c" stroke-width="7" stroke-linejoin="round"/>
  <ellipse cx="150" cy="310" rx="24" ry="16" fill="#3f3347" stroke="#2d263c" stroke-width="7" stroke-linejoin="round"/>
  <ellipse cx="210" cy="310" rx="24" ry="16" fill="#3f3347" stroke="#2d263c" stroke-width="7" stroke-linejoin="round"/>
</svg>
