<svg xmlns="http://www.w3.org/2000/svg" viewBox="0 0 360 360">
<path d="M98 200 Q68 200 74 174 Q58 154 84 150 Q84 120 120 130 Q136 104 170 120 Q200 94 226 124 Q266 120 270 156 Q296 166 280 196 Q296 222 264 226 Q250 252 214 240 Q190 260 160 244 Q124 256 110 230 Q80 230 98 200 Z" fill="#9a7ad8" stroke="#2d263c" stroke-width="8" stroke-linejoin="round"/>
<path d="M140 186 Q120 186 130 166 Q124 150 150 158 Q160 144 180 158 Q206 150 210 168 Q226 176 214 192 Q226 206 200 200 Q184 216 164 206 Q144 212 140 186 Z" fill="#7ab8e8" stroke="#2d263c" stroke-width="6" stroke-linejoin="round"/>
<path d="M94 134 L97 144 L107 147 L97 150 L94 160 L91 150 L81 147 L91 144 Z" fill="#ffe14d"/>
<path d="M272 140 L274 147 L281 149 L274 151 L272 158 L270 151 L263 149 L270 147 Z" fill="#ffe14d"/>
<path d="M256 222 L258 228 L264 230 L258 232 L256 238 L254 232 L248 230 L254 228 Z" fill="#ffe14d"/>
<ellipse cx="160" cy="180" rx="7" ry="10" fill="#2d263c"/>
<ellipse cx="196" cy="180" rx="7" ry="10" fill="#2d263c"/>
<path d="M170 200 Q178 208 186 200" fill="none" stroke="#2d263c" stroke-width="5" stroke-linecap="round"/>
<circle cx="148" cy="194" r="5" fill="#ff9ec4" opacity="0.7"/>
<circle cx="208" cy="194" r="5" fill="#ff9ec4" opacity="0.7"/>
</svg>