<svg xmlns="http://www.w3.org/2000/svg" viewBox="0 0 360 360">
  <path d="M65,185 C48,168 44,145 58,132 C72,145 76,168 70,188 Z" fill="#f2ead6" stroke="#2d263c" stroke-width="7" stroke-linejoin="round" stroke-linecap="round"/>
  <rect x="68" y="210" width="32" height="120" rx="14" fill="#34394a" stroke="#2d263c" stroke-width="7" stroke-linejoin="round" stroke-linecap="round"/>
  <rect x="66" y="245" width="36" height="16" rx="8" fill="#e0b63e" stroke="#2d263c" stroke-width="6" stroke-linejoin="round" stroke-linecap="round"/>
  <rect x="104" y="213" width="32" height="117" rx="14" fill="#34394a" stroke="#2d263c" stroke-width="7" stroke-linejoin="round" stroke-linecap="round"/>
  <rect x="102" y="248" width="36" height="16" rx="8" fill="#e0b63e" stroke="#2d263c" stroke-width="6" stroke-linejoin="round" stroke-linecap="round"/>
  <ellipse cx="160" cy="180" rx="90" ry="58" fill="#4f6d94" stroke="#2d263c" stroke-width="8" stroke-linejoin="round" stroke-linecap="round"/>
  <ellipse cx="165" cy="215" rx="52" ry="26" fill="#9fb3cf" stroke="#2d263c" stroke-width="6" stroke-linejoin="round" stroke-linecap="round"/>
  <rect x="205" y="210" width="32" height="120" rx="14" fill="#34394a" stroke="#2d263c" stroke-width="7" stroke-linejoin="round" stroke-linecap="round"/>
  <rect x="203" y="245" width="36" height="16" rx="8" fill="#e0b63e" stroke="#2d263c" stroke-width="6" stroke-linejoin="round" stroke-linecap="round"/>
  <rect x="241" y="213" width="32" height="117" rx="14" fill="#34394a" stroke="#2d263c" stroke-width="7" stroke-linejoin="round" stroke-linecap="round"/>
  <rect x="239" y="248" width="36" height="16" rx="8" fill="#e0b63e" stroke="#2d263c" stroke-width="6" stroke-linejoin="round" stroke-linecap="round"/>
  <circle cx="228" cy="165" r="36" fill="#f2ead6" stroke="#2d263c" stroke-width="6" stroke-linejoin="round" stroke-linecap="round"/>
  <circle cx="248" cy="140" r="32" fill="#f2ead6" stroke="#2d263c" stroke-width="6" stroke-linejoin="round" stroke-linecap="round"/>
  <circle cx="232" cy="195" r="30" fill="#f2ead6" stroke="#2d263c" stroke-width="6" stroke-linejoin="round" stroke-linecap="round"/>
  <circle cx="272" cy="135" r="46" fill="#4f6d94" stroke="#2d263c" stroke-width="8" stroke-linejoin="round" stroke-linecap="round"/>
  <path d="M245,148 L320,150 L312,182 L275,190 L242,180 Z" fill="#23222d" stroke="#2d263c" stroke-width="6" stroke-linejoin="round" stroke-linecap="round"/>
  <polygon points="240,95 220,52 268,92" fill="#d1a83a" stroke="#2d263c" stroke-width="7" stroke-linejoin="round" stroke-linecap="round"/>
  <polygon points="300,100 322,68 312,112" fill="#f2ead6" stroke="#2d263c" stroke-width="6" stroke-linejoin="round" stroke-linecap="round"/>
  <circle cx="290" cy="148" r="9" fill="#e2482f" stroke="#2d263c" stroke-width="4" stroke-linejoin="round" stroke-linecap="round"/>
  <circle cx="316" cy="168" r="5" fill="#23222d" stroke="none"/>
  <path d="M300,182 Q315,190 325,180" fill="none" stroke="#2d263c" stroke-width="6" stroke-linecap="round"/>
</svg>
