<svg xmlns="http://www.w3.org/2000/svg" viewBox="0 0 360 360">
  <ellipse cx="180" cy="330" rx="110" ry="14" fill="#2d263c" opacity="0.15"/>

  <circle cx="138" cy="78" r="30" fill="#3a3538" stroke="#2d263c" stroke-width="7"/>
  <circle cx="232" cy="72" r="27" fill="#3a3538" stroke="#2d263c" stroke-width="7"/>

  <ellipse cx="140" cy="308" rx="24" ry="16" fill="#443f42" stroke="#2d263c" stroke-width="7"/>
  <ellipse cx="228" cy="308" rx="24" ry="16" fill="#443f42" stroke="#2d263c" stroke-width="7"/>

  <path d="M180,68
           C232,62 274,88 294,130
           C314,172 308,222 282,262
           C256,302 212,326 172,322
           C130,318 92,292 72,252
           C52,210 58,158 90,116
           C116,84 152,74 180,68 Z"
        fill="#3a3538" stroke="#2d263c" stroke-width="8" stroke-linejoin="round"/>

  <path d="M118,140 Q148,172 126,214" fill="none" stroke="#ff7a33" stroke-width="9" stroke-linecap="round"/>
  <path d="M222,118 Q252,158 234,206" fill="none" stroke="#ff7a33" stroke-width="9" stroke-linecap="round"/>
  <path d="M148,246 Q180,268 218,252" fill="none" stroke="#ff7a33" stroke-width="9" stroke-linecap="round"/>

  <circle cx="140" cy="220" r="15" fill="#ffb35c" stroke="#2d263c" stroke-width="4"/>
  <circle cx="212" cy="230" r="13" fill="#ffb35c" stroke="#2d263c" stroke-width="4"/>
  <circle cx="180" cy="150" r="11" fill="#ffcf82" stroke="#2d263c" stroke-width="4"/>

  <ellipse cx="146" cy="195" rx="16" ry="21" fill="#2d263c"/>
  <ellipse cx="216" cy="195" rx="16" ry="21" fill="#2d263c"/>
  <circle cx="141" cy="187" r="4.5" fill="#ffffff"/>
  <circle cx="211" cy="187" r="4.5" fill="#ffffff"/>
</svg>
