<svg xmlns="http://www.w3.org/2000/svg" viewBox="0 0 360 360">
  <path d="M100,190 L32,92 L86,150 L22,140 L86,175 L18,190 L86,205 L22,240 L86,230 L32,288 Z" fill="#e0563a" stroke="#2d263c" stroke-width="7" stroke-linejoin="round"/>
  <path d="M160,135 L188,72 L216,138 Z" fill="#e0563a" stroke="#2d263c" stroke-width="7" stroke-linejoin="round"/>
  <path d="M178,232 L152,272 L206,248 Z" fill="#e0563a" stroke="#2d263c" stroke-width="6" stroke-linejoin="round"/>
  <ellipse cx="196" cy="190" rx="96" ry="62" fill="#ef6c4d" stroke="#2d263c" stroke-width="8"/>
  <ellipse cx="196" cy="226" rx="62" ry="30" fill="#fdf0d5" stroke="#2d263c" stroke-width="5"/>
  <path d="M150,158 Q160,152 172,158" fill="none" stroke="#2d263c" stroke-width="4" stroke-linecap="round" opacity="0.5"/>
  <path d="M140,188 Q150,181 162,188" fill="none" stroke="#2d263c" stroke-width="4" stroke-linecap="round" opacity="0.5"/>
  <path d="M150,218 Q160,211 172,218" fill="none" stroke="#2d263c" stroke-width="4" stroke-linecap="round" opacity="0.5"/>
  <path d="M283,208 Q272,232 256,248" fill="none" stroke="#fdf0d5" stroke-width="7" stroke-linecap="round"/>
  <path d="M293,212 Q288,236 274,256" fill="none" stroke="#fdf0d5" stroke-width="7" stroke-linecap="round"/>
  <circle cx="274" cy="162" r="22" fill="#fdf0d5" stroke="#2d263c" stroke-width="6"/>
  <circle cx="283" cy="160" r="11" fill="#2d263c"/>
  <circle cx="279" cy="155" r="3" fill="#fdf0d5"/>
  <ellipse cx="298" cy="200" rx="17" ry="14" fill="#a83246" stroke="#2d263c" stroke-width="6"/>
  <path d="M285,196 Q298,206 311,196" fill="none" stroke="#2d263c" stroke-width="3" stroke-linecap="round"/>
</svg>
