<svg xmlns="http://www.w3.org/2000/svg" viewBox="0 0 360 360">
  <path d="M135,190 Q75,205 55,255 Q45,290 78,325" fill="none" stroke="#2d263c" stroke-width="17" stroke-linecap="round" stroke-linejoin="round"/>
  <path d="M130,205 Q65,215 42,250 Q32,282 62,315" fill="none" stroke="#2d263c" stroke-width="17" stroke-linecap="round" stroke-linejoin="round"/>
  <path d="M140,225 Q80,250 55,290 Q45,312 80,330" fill="none" stroke="#2d263c" stroke-width="17" stroke-linecap="round" stroke-linejoin="round"/>
  <path d="M225,190 Q285,205 305,255 Q315,290 282,325" fill="none" stroke="#2d263c" stroke-width="17" stroke-linecap="round" stroke-linejoin="round"/>
  <path d="M230,205 Q295,215 318,250 Q328,282 298,315" fill="none" stroke="#2d263c" stroke-width="17" stroke-linecap="round" stroke-linejoin="round"/>
  <path d="M220,225 Q280,250 305,290 Q315,312 280,330" fill="none" stroke="#2d263c" stroke-width="17" stroke-linecap="round" stroke-linejoin="round"/>

  <ellipse cx="180" cy="248" rx="80" ry="68" fill="#26232e" stroke="#2d263c" stroke-width="8"/>
  <circle cx="180" cy="152" r="60" fill="#26232e" stroke="#2d263c" stroke-width="8"/>

  <path d="M155,205 Q180,222 205,205 Q210,235 180,242 Q150,235 155,205 Z" fill="#ffd400" stroke="#2d263c" stroke-width="6" stroke-linejoin="round"/>
  <ellipse cx="180" cy="265" rx="36" ry="26" fill="#ffd400" stroke="#2d263c" stroke-width="6"/>
  <circle cx="150" cy="255" r="9" fill="#26232e"/>
  <circle cx="210" cy="255" r="9" fill="#26232e"/>

  <polygon points="150,95 138,118 155,110 143,138 165,105 152,100" fill="#ffd400" stroke="#2d263c" stroke-width="6" stroke-linejoin="round"/>
  <polygon points="210,95 222,118 205,110 217,138 195,105 208,100" fill="#ffd400" stroke="#2d263c" stroke-width="6" stroke-linejoin="round"/>
  <polygon points="120,175 100,190 122,192 108,210 130,195" fill="#ffd400" stroke="#2d263c" stroke-width="6" stroke-linejoin="round"/>
  <polygon points="240,175 260,190 238,192 252,210 230,195" fill="#ffd400" stroke="#2d263c" stroke-width="6" stroke-linejoin="round"/>

  <circle cx="153" cy="148" r="27" fill="#e8262e" stroke="#2d263c" stroke-width="7"/>
  <circle cx="207" cy="148" r="27" fill="#e8262e" stroke="#2d263c" stroke-width="7"/>
  <circle cx="146" cy="140" r="7" fill="#ffffff"/>
  <circle cx="200" cy="140" r="7" fill="#ffffff"/>

  <path d="M165,190 Q180,198 195,190 Q188,205 180,206 Q172,205 165,190 Z" fill="#26232e" stroke="#2d263c" stroke-width="6" stroke-linejoin="round"/>
  <polygon points="168,196 160,212 176,202" fill="#fff6d8" stroke="#2d263c" stroke-width="5" stroke-linejoin="round"/>
  <polygon points="192,196 200,212 184,202" fill="#fff6d8" stroke="#2d263c" stroke-width="5" stroke-linejoin="round"/>
</svg>
