<svg xmlns="http://www.w3.org/2000/svg" viewBox="0 0 360 360">
<g stroke="#2d263c" stroke-width="7" stroke-linejoin="round" stroke-linecap="round">
<ellipse cx="180" cy="290" rx="80" ry="6" fill="#000000" opacity="0.15" stroke="none"/>
<ellipse cx="150" cy="266" rx="16" ry="14" fill="#9C9080"/>
<ellipse cx="210" cy="266" rx="16" ry="14" fill="#9C9080"/>
<path d="M96 170 q0 -36 36 -42 l96 0 q36 6 36 42 l0 70 q0 26 -30 30 l-108 0 q-30 -4 -30 -30Z" fill="#B0A796"/>
<path d="M120 132 q14 -34 34 -16 q12 -22 26 -2 q14 -16 24 8 q16 -6 18 14 q-50 8 -116 4Z" fill="#F2F0EA"/>
<path d="M150 120 l10 -14 l8 16Z" fill="#D8D4CC" stroke="none"/>
<path d="M188 114 l10 -12 l8 14Z" fill="#D8D4CC" stroke="none"/>
<circle cx="150" cy="178" r="9" fill="#2d263c" stroke="none"/>
<circle cx="210" cy="178" r="9" fill="#2d263c" stroke="none"/>
<circle cx="153" cy="175" r="3" fill="#fff" stroke="none"/>
<circle cx="213" cy="175" r="3" fill="#fff" stroke="none"/>
<ellipse cx="180" cy="204" rx="6" ry="7" fill="#2d263c" stroke="none"/>
<circle cx="124" cy="194" r="8" fill="#E8B0A0" stroke="none"/>
<circle cx="236" cy="194" r="8" fill="#E8B0A0" stroke="none"/>
</g>
</svg>