<svg xmlns="http://www.w3.org/2000/svg" viewBox="0 0 360 360" stroke-linecap="round" stroke-linejoin="round">
  <!-- back arms (behind body) -->
  <ellipse cx="60" cy="168" rx="30" ry="44" transform="rotate(-18 60 168)" fill="#7a6b56" stroke="#2d263c" stroke-width="7"/>
  <ellipse cx="300" cy="168" rx="30" ry="44" transform="rotate(18 300 168)" fill="#7a6b56" stroke="#2d263c" stroke-width="7"/>

  <!-- body base (light lower rock) -->
  <path d="M180,95 C225,95 265,105 275,145 C285,175 292,205 290,230 C288,260 265,290 215,300 C190,312 170,312 145,300 C95,290 72,260 70,230 C68,205 75,175 85,145 C95,105 135,95 180,95 Z"
        fill="#cdb98f" stroke="#2d263c" stroke-width="8"/>

  <!-- upper dark cap (rock texture, no outline needed - interior color) -->
  <path d="M85,145 C95,105 135,95 180,95 C225,95 265,105 275,145 C250,200 220,182 235,178 C215,198 225,158 190,205 C170,188 195,215 160,192 C140,210 150,175 130,208 C110,190 95,175 85,145 Z"
        fill="#8a7a63"/>

  <!-- rocky knob bumps on head -->
  <circle cx="140" cy="98" r="13" fill="#8a7a63" stroke="#2d263c" stroke-width="6"/>
  <circle cx="180" cy="88" r="14" fill="#8a7a63" stroke="#2d263c" stroke-width="6"/>
  <circle cx="222" cy="98" r="13" fill="#8a7a63" stroke="#2d263c" stroke-width="6"/>

  <!-- crack lines -->
  <path d="M122,132 Q108,182 126,232" fill="none" stroke="#5a4a38" stroke-width="5"/>
  <path d="M238,132 Q252,182 234,232" fill="none" stroke="#5a4a38" stroke-width="5"/>
  <path d="M158,262 Q180,278 202,262" fill="none" stroke="#5a4a38" stroke-width="5"/>

  <!-- front arms (over body, fists) -->
  <path d="M102,208 C70,220 40,240 40,275 C40,300 65,312 87,300 C102,290 96,268 106,248 C114,232 118,220 102,208 Z"
        fill="#8a7a63" stroke="#2d263c" stroke-width="7"/>
  <path d="M258,208 C290,220 320,240 320,275 C320,300 295,312 273,300 C258,290 264,268 254,248 C246,232 242,220 258,208 Z"
        fill="#8a7a63" stroke="#2d263c" stroke-width="7"/>
  <path d="M55,288 Q65,300 78,296" fill="none" stroke="#5a4a38" stroke-width="5"/>
  <path d="M305,288 Q295,300 282,296" fill="none" stroke="#5a4a38" stroke-width="5"/>

  <!-- stubby feet -->
  <ellipse cx="145" cy="308" rx="30" ry="19" fill="#7a6b56" stroke="#2d263c" stroke-width="7"/>
  <ellipse cx="215" cy="308" rx="30" ry="19" fill="#7a6b56" stroke="#2d263c" stroke-width="7"/>

  <!-- face -->
  <ellipse cx="150" cy="170" rx="17" ry="19" fill="#ffffff" stroke="#2d263c" stroke-width="6"/>
  <ellipse cx="210" cy="170" rx="17" ry="19" fill="#ffffff" stroke="#2d263c" stroke-width="6"/>
  <circle cx="150" cy="176" r="7" fill="#2d263c"/>
  <circle cx="210" cy="176" r="7" fill="#2d263c"/>
  <path d="M130,150 L166,160" fill="none" stroke="#2d263c" stroke-width="8"/>
  <path d="M230,150 L194,160" fill="none" stroke="#2d263c" stroke-width="8"/>
  <path d="M163,206 Q180,218 197,206" fill="none" stroke="#2d263c" stroke-width="7" fill-opacity="0"/>
</svg>
