<svg xmlns="http://www.w3.org/2000/svg" viewBox="0 0 360 360"><g stroke="#2d263c" stroke-width="7" stroke-linejoin="round" stroke-linecap="round"><path d="M146,102 C132,82 148,72 140,50 C154,58 157,44 164,32 C170,46 176,40 181,26 C189,42 199,42 207,32 C210,50 222,54 215,70 C230,68 222,90 212,103 C196,94 162,95 146,102 Z" fill="#F08030"/><path d="M163,100 C156,86 166,78 162,64 C172,70 176,58 181,46 C187,60 196,62 198,52 C204,68 206,84 197,100 Z" fill="#F8D030"/><circle cx="133" cy="108" r="15" fill="#E2562B"/><circle cx="229" cy="104" r="16" fill="#E2562B"/><circle cx="133" cy="108" r="6" fill="#B33A1C" stroke-width="4"/><circle cx="229" cy="104" r="6" fill="#B33A1C" stroke-width="4"/><path d="M150,178 C122,186 106,212 104,244 L130,250 C132,224 144,208 160,200 Z" fill="#E2562B"/><path d="M212,196 C236,202 250,222 254,248 L228,254 C224,232 214,218 200,212 Z" fill="#E2562B"/><ellipse cx="116" cy="242" rx="13" ry="9" fill="#F2B53A" stroke-width="5"/><ellipse cx="240" cy="242" rx="13" ry="9" fill="#F2B53A" stroke-width="5"/><ellipse cx="112" cy="260" rx="17" ry="14" fill="#3F7BD9"/><ellipse cx="246" cy="260" rx="17" ry="14" fill="#3F7BD9"/><path d="M150,238 C140,266 142,290 150,310 L176,306 C170,288 170,268 176,250 Z" fill="#E2562B"/><path d="M208,240 C218,266 218,290 210,310 L186,306 C192,288 192,268 186,250 Z" fill="#E2562B"/><circle cx="152" cy="272" r="9" fill="#F2B53A" stroke-width="5"/><circle cx="211" cy="274" r="9" fill="#F2B53A" stroke-width="5"/><ellipse cx="154" cy="322" rx="22" ry="13" fill="#3F7BD9"/><ellipse cx="208" cy="322" rx="22" ry="13" fill="#3F7BD9"/><path d="M158,170 C132,182 126,214 134,246 C148,260 212,262 226,248 C236,214 230,180 204,168 C190,162 172,164 158,170 Z" fill="#E2562B"/><ellipse cx="141" cy="180" rx="18" ry="14" fill="#F2B53A"/><ellipse cx="221" cy="176" rx="19" ry="14" fill="#F2B53A"/><path d="M156,184 C150,208 154,230 166,240 C172,232 178,236 182,242 C188,234 196,238 201,230 C211,218 210,198 202,182 C188,174 168,174 156,184 Z" fill="#FBF6EC"/><path d="M180,214 C190,212 192,202 184,198 C176,194 168,200 170,210 C172,222 184,228 196,222" fill="none" stroke="#E8A33D" stroke-width="6"/><path d="M141,130 C138,102 158,88 181,88 C204,88 224,100 222,128 C220,154 204,168 180,168 C158,168 144,154 141,130 Z" fill="#E2562B"/><path d="M152,140 C150,158 162,168 181,168 C200,168 212,156 209,138 C206,124 192,118 180,120 C166,116 154,126 152,140 Z" fill="#FBF6EC"/><path d="M150,126 C152,112 164,108 172,114 C176,122 172,132 162,134 C155,134 150,132 150,126 Z" fill="#3F7BD9" stroke-width="5"/><path d="M212,124 C210,110 198,106 190,112 C186,120 190,130 200,132 C207,132 212,130 212,124 Z" fill="#3F7BD9" stroke-width="5"/><circle cx="163" cy="123" r="5.5" fill="#FFFFFF" stroke-width="4"/><circle cx="199" cy="121" r="5.5" fill="#FFFFFF" stroke-width="4"/><circle cx="164" cy="124" r="2.4" fill="#2d263c" stroke="none"/><circle cx="200" cy="122" r="2.4" fill="#2d263c" stroke="none"/><path d="M176,137 l3,3 M186,136 l3,3" fill="none" stroke-width="4"/><path d="M168,148 C174,156 190,156 196,147" fill="none" stroke-width="6"/></g></svg>