<svg xmlns="http://www.w3.org/2000/svg" viewBox="0 0 360 360">
  <ellipse cx="180" cy="225" rx="105" ry="100" fill="#3f8f4a" stroke="#2d263c" stroke-width="8" stroke-linejoin="round"/>
  <circle cx="180" cy="102" r="60" fill="#3f8f4a" stroke="#2d263c" stroke-width="8" stroke-linejoin="round"/>
  <circle cx="126" cy="78" r="21" fill="#357a3f" stroke="#2d263c" stroke-width="7" stroke-linejoin="round"/>
  <circle cx="234" cy="78" r="21" fill="#357a3f" stroke="#2d263c" stroke-width="7" stroke-linejoin="round"/>
  <path d="M118,150 L100,182 L134,182 Z" fill="#6fc26a" stroke="#2d263c" stroke-width="6" stroke-linejoin="round"/>
  <path d="M154,166 L138,198 L170,198 Z" fill="#6fc26a" stroke="#2d263c" stroke-width="6" stroke-linejoin="round"/>
  <path d="M191,170 L175,202 L207,202 Z" fill="#6fc26a" stroke="#2d263c" stroke-width="6" stroke-linejoin="round"/>
  <path d="M228,163 L212,195 L244,195 Z" fill="#6fc26a" stroke="#2d263c" stroke-width="6" stroke-linejoin="round"/>
  <path d="M256,146 L240,178 L272,178 Z" fill="#6fc26a" stroke="#2d263c" stroke-width="6" stroke-linejoin="round"/>
  <ellipse cx="180" cy="238" rx="52" ry="62" fill="#f2e2b8" stroke="#2d263c" stroke-width="7" stroke-linejoin="round"/>
  <path d="M92,178 Q56,230 88,302 Q110,304 132,292 Q112,240 132,192 Z" fill="#3f8f4a" stroke="#2d263c" stroke-width="7" stroke-linejoin="round"/>
  <path d="M268,178 Q304,230 272,302 Q250,304 228,292 Q248,240 228,192 Z" fill="#3f8f4a" stroke="#2d263c" stroke-width="7" stroke-linejoin="round"/>
  <circle cx="92" cy="302" r="24" fill="#357a3f" stroke="#2d263c" stroke-width="7" stroke-linejoin="round"/>
  <circle cx="268" cy="302" r="24" fill="#357a3f" stroke="#2d263c" stroke-width="7" stroke-linejoin="round"/>
  <ellipse cx="140" cy="326" rx="30" ry="18" fill="#357a3f" stroke="#2d263c" stroke-width="7" stroke-linejoin="round"/>
  <ellipse cx="220" cy="326" rx="30" ry="18" fill="#357a3f" stroke="#2d263c" stroke-width="7" stroke-linejoin="round"/>
  <rect x="108" y="256" width="144" height="86" rx="16" fill="#8b5a2b" stroke="#2d263c" stroke-width="8" stroke-linejoin="round"/>
  <ellipse cx="180" cy="256" rx="72" ry="20" fill="#6b3f1d" stroke="#2d263c" stroke-width="7" stroke-linejoin="round"/>
  <path d="M130,280 Q180,296 230,280" fill="none" stroke="#6b3f1d" stroke-width="6" stroke-linecap="round"/>
  <path d="M130,306 Q180,320 230,306" fill="none" stroke="#6b3f1d" stroke-width="6" stroke-linecap="round"/>
  <path d="M162,124 Q180,134 198,124" fill="none" stroke="#2d263c" stroke-width="6" stroke-linecap="round"/>
  <circle cx="156" cy="98" r="7" fill="#2d263c"/>
  <circle cx="204" cy="98" r="7" fill="#2d263c"/>
  <path d="M78,214 L64,228 L80,232 Z" fill="#4a2e1a" stroke="#2d263c" stroke-width="4" stroke-linejoin="round"/>
  <path d="M282,214 L296,228 L280,232 Z" fill="#4a2e1a" stroke="#2d263c" stroke-width="4" stroke-linejoin="round"/>
  <path d="M96,286 L82,298 L98,304 Z" fill="#4a2e1a" stroke="#2d263c" stroke-width="4" stroke-linejoin="round"/>
  <path d="M264,286 L278,298 L262,304 Z" fill="#4a2e1a" stroke="#2d263c" stroke-width="4" stroke-linejoin="round"/>
  <path d="M60,200 Q48,214 60,228" fill="none" stroke="#4a2e1a" stroke-width="5" stroke-linecap="round"/>
  <path d="M300,200 Q312,214 300,228" fill="none" stroke="#4a2e1a" stroke-width="5" stroke-linecap="round"/>
</svg>
