<svg xmlns="http://www.w3.org/2000/svg" viewBox="0 0 360 360">
  <ellipse cx="281" cy="262" rx="20" ry="16" transform="rotate(24 281 262)" fill="#f2ab97" stroke="#2d263c" stroke-width="7" stroke-linecap="round"/>
  <ellipse cx="145" cy="323" rx="32" ry="21" fill="#f2ab97" stroke="#2d263c" stroke-width="8" stroke-linejoin="round"/>
  <ellipse cx="216" cy="323" rx="32" ry="21" fill="#f2ab97" stroke="#2d263c" stroke-width="8" stroke-linejoin="round"/>
  <path d="M110 172 C93 218 97 278 130 311 C151 332 210 332 231 311 C263 277 266 217 250 171 C238 138 202 122 180 124 C159 122 122 138 110 172 Z" fill="#f2ab97" stroke="#2d263c" stroke-width="9" stroke-linejoin="round" stroke-linecap="round"/>
  <ellipse cx="93" cy="213" rx="32" ry="23" transform="rotate(-22 93 213)" fill="#f2ab97" stroke="#2d263c" stroke-width="8" stroke-linecap="round"/>
  <ellipse cx="267" cy="213" rx="32" ry="23" transform="rotate(22 267 213)" fill="#f2ab97" stroke="#2d263c" stroke-width="8" stroke-linecap="round"/>
  <ellipse cx="180" cy="248" rx="80" ry="73" fill="#fdf1d9" stroke="#2d263c" stroke-width="7"/>
  <path d="M180 216 C196 216 208 229 203 244 C199 256 184 259 178 249 C173 241 179 233 187 236" fill="none" stroke="#e0c79a" stroke-width="6" stroke-linecap="round"/>
  <circle cx="180" cy="248" r="6" fill="#c9a56b"/>
  <path d="M137 62 C118 45 95 46 88 66 C82 84 100 100 118 96 C132 93 140 76 137 62 Z" fill="#f2ab97" stroke="#2d263c" stroke-width="7" stroke-linejoin="round"/>
  <path d="M223 62 C242 45 265 46 272 66 C278 84 260 100 242 96 C228 93 220 76 223 62 Z" fill="#f2ab97" stroke="#2d263c" stroke-width="7" stroke-linejoin="round"/>
  <path d="M120 68 C110 60 98 62 95 72 C93 80 102 88 112 86" fill="#d97a86" stroke="#2d263c" stroke-width="4" stroke-linejoin="round"/>
  <path d="M240 68 C250 60 262 62 265 72 C267 80 258 88 248 86" fill="#d97a86" stroke="#2d263c" stroke-width="4" stroke-linejoin="round"/>
  <circle cx="180" cy="108" r="64" fill="#f2ab97" stroke="#2d263c" stroke-width="8"/>
  <ellipse cx="140" cy="122" rx="14" ry="9" fill="#f8c9c9"/>
  <ellipse cx="220" cy="122" rx="14" ry="9" fill="#f8c9c9"/>
  <ellipse cx="157" cy="102" rx="9" ry="12" fill="#241f30"/>
  <ellipse cx="203" cy="102" rx="9" ry="12" fill="#241f30"/>
  <circle cx="160" cy="96" r="3" fill="#ffffff"/>
  <circle cx="206" cy="96" r="3" fill="#ffffff"/>
  <ellipse cx="180" cy="126" rx="16" ry="11" fill="#c96b5a" stroke="#2d263c" stroke-width="6"/>
  <circle cx="175" cy="122" r="3" fill="#ffffff"/>
  <path d="M166 144 Q180 154 194 144" fill="none" stroke="#2d263c" stroke-width="6" stroke-linecap="round"/>
</svg>
