<svg xmlns="http://www.w3.org/2000/svg" viewBox="0 0 360 360">
  <!-- tail (back) -->
  <path d="M225 300 Q263 280 256 318 Q238 336 213 312 Z" fill="#2E7DB8" stroke="#2d263c" stroke-width="7" stroke-linejoin="round"/>
  <!-- feet -->
  <ellipse cx="145" cy="320" rx="34" ry="16" fill="#F5EFDC" stroke="#2d263c" stroke-width="7"/>
  <ellipse cx="215" cy="320" rx="34" ry="16" fill="#F5EFDC" stroke="#2d263c" stroke-width="7"/>
  <path d="M130 318 L130 332 M145 320 L145 335 M160 318 L160 332" stroke="#2d263c" stroke-width="4" stroke-linecap="round" fill="none"/>
  <path d="M200 318 L200 332 M215 320 L215 335 M230 318 L230 332" stroke="#2d263c" stroke-width="4" stroke-linecap="round" fill="none"/>
  <!-- body -->
  <path d="M122 190 C98 240, 100 292, 132 316 L228 316 C260 292, 262 240, 238 190 C228 155, 132 155, 122 190 Z" fill="#4FA8D8" stroke="#2d263c" stroke-width="8" stroke-linejoin="round"/>
  <!-- belly -->
  <ellipse cx="180" cy="258" rx="42" ry="58" fill="#F5EFDC"/>
  <!-- left arm -->
  <path d="M118 210 C85 220, 70 250, 82 273 C95 263, 110 250, 125 230 Z" fill="#4FA8D8" stroke="#2d263c" stroke-width="7" stroke-linejoin="round"/>
  <ellipse cx="82" cy="271" rx="18" ry="14" fill="#F5EFDC" stroke="#2d263c" stroke-width="5"/>
  <!-- right arm -->
  <path d="M242 210 C275 220, 290 250, 278 273 C265 263, 250 250, 235 230 Z" fill="#4FA8D8" stroke="#2d263c" stroke-width="7" stroke-linejoin="round"/>
  <ellipse cx="278" cy="271" rx="18" ry="14" fill="#F5EFDC" stroke="#2d263c" stroke-width="5"/>
  <!-- head -->
  <circle cx="180" cy="118" r="64" fill="#4FA8D8" stroke="#2d263c" stroke-width="8"/>
  <!-- fin / crest -->
  <path d="M162 62 C148 28, 196 15, 218 48 C225 60, 202 72, 176 64 Z" fill="#2E7DB8" stroke="#2d263c" stroke-width="7" stroke-linejoin="round"/>
  <!-- bill -->
  <ellipse cx="180" cy="170" rx="52" ry="28" fill="#F5EFDC" stroke="#2d263c" stroke-width="7"/>
  <path d="M132 170 Q180 185 228 170" fill="none" stroke="#2d263c" stroke-width="5" stroke-linecap="round"/>
  <!-- forehead gem -->
  <path d="M180 88 L192 101 L180 114 L168 101 Z" fill="#E63946" stroke="#2d263c" stroke-width="4" stroke-linejoin="round"/>
  <!-- eyes -->
  <circle cx="158" cy="114" r="9" fill="#2d263c"/>
  <circle cx="202" cy="114" r="9" fill="#2d263c"/>
  <circle cx="161" cy="111" r="3" fill="#ffffff"/>
  <circle cx="205" cy="111" r="3" fill="#ffffff"/>
  <!-- blush -->
  <ellipse cx="138" cy="138" rx="12" ry="7" fill="#F4A6B0" opacity="0.6"/>
  <ellipse cx="222" cy="138" rx="12" ry="7" fill="#F4A6B0" opacity="0.6"/>
</svg>
