<svg xmlns="http://www.w3.org/2000/svg" viewBox="0 0 360 360">
<path d="M158,145 L68,55 L122,145 L28,205 L102,225 L58,295 L152,255 Z" fill="#4a3a70" stroke="#2d263c" stroke-width="8" stroke-linejoin="round" stroke-linecap="round"/>
<path d="M158,145 L68,55" fill="none" stroke="#2d263c" stroke-width="6" stroke-linecap="round"/>
<path d="M158,145 L28,205" fill="none" stroke="#2d263c" stroke-width="6" stroke-linecap="round"/>
<path d="M202,145 L292,55 L238,145 L332,205 L258,225 L302,295 L208,255 Z" fill="#4a3a70" stroke="#2d263c" stroke-width="8" stroke-linejoin="round" stroke-linecap="round"/>
<path d="M202,145 L292,55" fill="none" stroke="#2d263c" stroke-width="6" stroke-linecap="round"/>
<path d="M202,145 L332,205" fill="none" stroke="#2d263c" stroke-width="6" stroke-linecap="round"/>
<ellipse cx="180" cy="205" rx="78" ry="95" fill="#6a56a0" stroke="#2d263c" stroke-width="9"/>
<ellipse cx="180" cy="238" rx="42" ry="52" fill="#b9a8e0" stroke="#2d263c" stroke-width="6"/>
<circle cx="140" cy="168" r="10" fill="#3d2f5c" stroke="#2d263c" stroke-width="6"/>
<circle cx="220" cy="168" r="10" fill="#3d2f5c" stroke="#2d263c" stroke-width="6"/>
<circle cx="150" cy="262" r="8" fill="#3d2f5c" stroke="#2d263c" stroke-width="6"/>
<circle cx="210" cy="262" r="8" fill="#3d2f5c" stroke="#2d263c" stroke-width="6"/>
<path d="M150,120 L138,85 L165,118 Z" fill="#4a3a70" stroke="#2d263c" stroke-width="7" stroke-linejoin="round" stroke-linecap="round"/>
<path d="M210,120 L222,85 L195,118 Z" fill="#4a3a70" stroke="#2d263c" stroke-width="7" stroke-linejoin="round" stroke-linecap="round"/>
<path d="M112,190 Q180,172 248,190 L248,202 Q244,272 180,288 Q116,272 112,202 Z" fill="#7a2148" stroke="#2d263c" stroke-width="8" stroke-linejoin="round"/>
<path d="M118,196 L133,215 L148,196 L163,215 L178,196 L193,215 L208,196 L223,215 L238,196 L238,186 L118,186 Z" fill="#ffffff" stroke="#2d263c" stroke-width="6" stroke-linejoin="round"/>
<path d="M120,275 L135,257 L150,275 L165,257 L180,275 L195,257 L210,275 L225,257 L235,275 L235,285 L120,285 Z" fill="#ffffff" stroke="#2d263c" stroke-width="6" stroke-linejoin="round"/>
<circle cx="145" cy="175" r="24" fill="#ffffff" stroke="#2d263c" stroke-width="6"/>
<circle cx="145" cy="178" r="11" fill="#c0203d"/>
<circle cx="139" cy="171" r="4" fill="#ffffff"/>
<circle cx="215" cy="175" r="24" fill="#ffffff" stroke="#2d263c" stroke-width="6"/>
<circle cx="215" cy="178" r="11" fill="#c0203d"/>
<circle cx="221" cy="171" r="4" fill="#ffffff"/>
<path d="M138,288 L145,308 L152,290 L160,306 L168,290 Z" fill="#6a56a0" stroke="#2d263c" stroke-width="6" stroke-linejoin="round" stroke-linecap="round"/>
<path d="M222,288 L215,308 L208,290 L200,306 L192,290 Z" fill="#6a56a0" stroke="#2d263c" stroke-width="6" stroke-linejoin="round" stroke-linecap="round"/>
</svg>
