<svg xmlns="http://www.w3.org/2000/svg" viewBox="0 0 360 360">
  <path d="M95,155 C70,150 48,160 44,186 C41,206 54,221 75,223 C90,224 100,215 100,200 L98,165 Z" fill="#6d7580" stroke="#2d263c" stroke-width="7" stroke-linejoin="round" stroke-linecap="round"/>
  <path d="M265,155 C290,150 312,160 316,186 C319,206 306,221 285,223 C270,224 260,215 260,200 L262,165 Z" fill="#6d7580" stroke="#2d263c" stroke-width="7" stroke-linejoin="round" stroke-linecap="round"/>
  <path d="M119,270 L166,270 L169,315 C170,323 161,328 142,328 C123,328 114,323 116,315 Z" fill="#6d7580" stroke="#2d263c" stroke-width="7" stroke-linejoin="round" stroke-linecap="round"/>
  <path d="M194,270 L241,270 L244,315 C246,323 237,328 218,328 C199,328 190,323 191,315 Z" fill="#6d7580" stroke="#2d263c" stroke-width="7" stroke-linejoin="round" stroke-linecap="round"/>
  <path d="M180,66 C230,66 266,94 271,140 C276,176 268,212 254,236 C238,264 204,280 180,280 C156,280 122,264 106,236 C92,212 84,176 89,140 C94,94 130,66 180,66 Z" fill="#7e8791" stroke="#2d263c" stroke-width="8" stroke-linejoin="round" stroke-linecap="round"/>
  <ellipse cx="180" cy="252" rx="88" ry="34" fill="#565d66" opacity="0.3"/>
  <path d="M92,148 L64,110 L100,128 L118,92 L128,134 Z" fill="#f0a637" stroke="#2d263c" stroke-width="6" stroke-linejoin="round" stroke-linecap="round"/>
  <path d="M268,148 L296,110 L260,128 L242,92 L232,134 Z" fill="#f0a637" stroke="#2d263c" stroke-width="6" stroke-linejoin="round" stroke-linecap="round"/>
  <path d="M160,76 L180,40 L200,76 L188,100 L172,100 Z" fill="#f6c15a" stroke="#2d263c" stroke-width="7" stroke-linejoin="round" stroke-linecap="round"/>
  <path d="M120,196 C120,176 146,164 180,164 C214,164 240,176 240,196 C242,218 232,240 214,251 C198,260 162,260 146,251 C128,240 118,218 120,196 Z" fill="#a8afb6" stroke="#2d263c" stroke-width="7" stroke-linejoin="round" stroke-linecap="round"/>
  <path d="M144,235 L150,272 L166,240 L178,274 L192,240 L204,272 L210,235 Z" fill="#f4f2e8" stroke="#2d263c" stroke-width="6" stroke-linejoin="round" stroke-linecap="round"/>
  <path d="M138,188 Q156,173 173,187" fill="none" stroke="#3a4048" stroke-width="7" stroke-linecap="round"/>
  <path d="M187,187 Q204,173 222,188" fill="none" stroke="#3a4048" stroke-width="7" stroke-linecap="round"/>
  <ellipse cx="156" cy="200" rx="9" ry="12" fill="#2d263c"/>
  <ellipse cx="204" cy="200" rx="9" ry="12" fill="#2d263c"/>
  <path d="M156,222 Q180,232 204,222" fill="none" stroke="#2d263c" stroke-width="6" stroke-linecap="round"/>
  <path d="M175,222 L180,236 L185,222 Z" fill="#f4f2e8" stroke="#2d263c" stroke-width="4" stroke-linejoin="round"/>
  <path d="M112,112 Q142,132 130,172" fill="none" stroke="#565d66" stroke-width="5" stroke-linecap="round"/>
  <path d="M248,112 Q218,132 230,172" fill="none" stroke="#565d66" stroke-width="5" stroke-linecap="round"/>
  <path d="M50,196 L37,204" fill="none" stroke="#2d263c" stroke-width="5" stroke-linecap="round"/>
  <path d="M56,210 L44,220" fill="none" stroke="#2d263c" stroke-width="5" stroke-linecap="round"/>
  <path d="M310,196 L323,204" fill="none" stroke="#2d263c" stroke-width="5" stroke-linecap="round"/>
  <path d="M304,210 L316,220" fill="none" stroke="#2d263c" stroke-width="5" stroke-linecap="round"/>
  <path d="M142,300 L142,325" fill="none" stroke="#4a5158" stroke-width="5" stroke-linecap="round"/>
  <path d="M218,300 L218,325" fill="none" stroke="#4a5158" stroke-width="5" stroke-linecap="round"/>
</svg>
