<svg xmlns="http://www.w3.org/2000/svg" viewBox="0 0 360 360">
  <g stroke="#2d263c" stroke-width="7" stroke-linejoin="round" stroke-linecap="round" fill="none">
    <path d="M140,175 L100,290 L112,296 L128,315 L143,296 L158,318 L173,297 L188,320 L203,297 L218,318 L233,296 L248,315 L260,290 L220,175 Z" fill="#ecdfc0"/>
    <path d="M150,205 Q145,240 152,275" stroke="#c9b98f" stroke-width="5"/>
    <path d="M180,200 Q178,240 182,280" stroke="#c9b98f" stroke-width="5"/>
    <path d="M210,205 Q214,240 208,275" stroke="#c9b98f" stroke-width="5"/>
    <circle cx="180" cy="118" r="56" fill="#8b6a45"/>
    <path d="M145,85 L128,62" stroke="#6b4f30" stroke-width="6"/>
    <path d="M182,62 L186,40" stroke="#6b4f30" stroke-width="6"/>
    <path d="M218,80 L236,60" stroke="#6b4f30" stroke-width="6"/>
    <path d="M128,140 L108,150" stroke="#6b4f30" stroke-width="6"/>
    <path d="M232,138 L252,148" stroke="#6b4f30" stroke-width="6"/>
    <path d="M150,95 L210,140" stroke="#6b4f30" stroke-width="4"/>
    <path d="M210,95 L155,140" stroke="#6b4f30" stroke-width="4"/>
    <path d="M140,120 L222,118" stroke="#6b4f30" stroke-width="4"/>
    <path d="M160,150 L200,152" stroke="#6b4f30" stroke-width="4"/>
  </g>
  <g stroke="#2d263c" stroke-linejoin="round" stroke-linecap="round">
    <ellipse cx="167" cy="128" rx="13" ry="17" fill="#e3402a" stroke-width="6"/>
    <circle cx="163" cy="121" r="4" fill="#ffffff" stroke="none"/>
  </g>
</svg>
