<svg xmlns="http://www.w3.org/2000/svg" viewBox="0 0 360 360">
  <ellipse cx="180" cy="330" rx="100" ry="11" fill="#2d263c" opacity="0.15"/>
  <ellipse cx="121" cy="294" rx="12" ry="34" fill="#7a5a36" stroke="#2d263c" stroke-width="8"/>
  <ellipse cx="161" cy="298" rx="12" ry="30" fill="#7a5a36" stroke="#2d263c" stroke-width="8"/>
  <ellipse cx="211" cy="298" rx="12" ry="30" fill="#7a5a36" stroke="#2d263c" stroke-width="8"/>
  <ellipse cx="251" cy="294" rx="12" ry="34" fill="#7a5a36" stroke="#2d263c" stroke-width="8"/>
  <ellipse cx="121" cy="326" rx="13" ry="7" fill="#2d263c"/>
  <ellipse cx="161" cy="326" rx="13" ry="7" fill="#2d263c"/>
  <ellipse cx="211" cy="326" rx="13" ry="7" fill="#2d263c"/>
  <ellipse cx="251" cy="326" rx="13" ry="7" fill="#2d263c"/>
  <ellipse cx="180" cy="232" rx="94" ry="66" fill="#9c7a4a" stroke="#2d263c" stroke-width="9"/>
  <ellipse cx="180" cy="176" rx="80" ry="36" fill="#5aa440" stroke="#2d263c" stroke-width="8"/>
  <path d="M118,168 Q104,136 122,134 Q116,160 138,156 Z" fill="#6ec04a" stroke="#2d263c" stroke-width="5" stroke-linejoin="round"/>
  <path d="M150,162 Q140,122 160,120 Q152,156 174,150 Z" fill="#6ec04a" stroke="#2d263c" stroke-width="5" stroke-linejoin="round"/>
  <path d="M180,160 Q170,112 190,112 Q180,152 200,146 Z" fill="#7ec858" stroke="#2d263c" stroke-width="5" stroke-linejoin="round"/>
  <path d="M210,162 Q222,122 200,120 Q214,156 190,150 Z" fill="#6ec04a" stroke="#2d263c" stroke-width="5" stroke-linejoin="round"/>
  <path d="M242,168 Q256,136 238,134 Q246,160 222,156 Z" fill="#6ec04a" stroke="#2d263c" stroke-width="5" stroke-linejoin="round"/>
  <ellipse cx="136" cy="136" rx="12" ry="24" fill="#9c7a4a" stroke="#2d263c" stroke-width="8" transform="rotate(-22 136 136)"/>
  <ellipse cx="234" cy="136" rx="12" ry="24" fill="#9c7a4a" stroke="#2d263c" stroke-width="8" transform="rotate(22 234 136)"/>
  <path d="M158,108 Q136,80 152,72" fill="none" stroke="#2d263c" stroke-width="8" stroke-linecap="round"/>
  <path d="M212,108 Q234,80 218,72" fill="none" stroke="#2d263c" stroke-width="8" stroke-linecap="round"/>
  <ellipse cx="180" cy="136" rx="50" ry="46" fill="#9c7a4a" stroke="#2d263c" stroke-width="9"/>
  <ellipse cx="180" cy="158" rx="30" ry="26" fill="#d8b888" stroke="#2d263c" stroke-width="6"/>
  <ellipse cx="162" cy="130" rx="13" ry="15" fill="#2d263c"/>
  <ellipse cx="198" cy="130" rx="13" ry="15" fill="#2d263c"/>
  <circle cx="166" cy="125" r="4" fill="#ffffff"/>
  <circle cx="202" cy="125" r="4" fill="#ffffff"/>
  <ellipse cx="172" cy="154" rx="5" ry="4" fill="#2d263c"/>
  <ellipse cx="188" cy="154" rx="5" ry="4" fill="#2d263c"/>
  <path d="M170,170 Q180,176 190,170" fill="none" stroke="#2d263c" stroke-width="5" stroke-linecap="round"/>
</svg>
