<svg xmlns="http://www.w3.org/2000/svg" viewBox="0 0 360 360">
  <!-- 後ろ: 影 -->
  <ellipse cx="180" cy="305" rx="85" ry="16" fill="#5b6b8c" opacity="0.3"/>

  <!-- 後ろ: 頭のうしろのくるんとしたツインテール -->
  <path d="M140 95 Q110 70 95 90 Q80 112 105 122 Q125 130 128 108 Q130 92 140 95 Z"
        fill="#3b4a86" stroke="#2d263c" stroke-width="6" stroke-linejoin="round"/>
  <path d="M220 95 Q250 70 265 90 Q280 112 255 122 Q235 130 232 108 Q230 92 220 95 Z"
        fill="#3b4a86" stroke="#2d263c" stroke-width="6" stroke-linejoin="round"/>

  <!-- 足(スカートの下からちょこっと) -->
  <ellipse cx="155" cy="298" rx="18" ry="12" fill="#232a4a" stroke="#2d263c" stroke-width="6"/>
  <ellipse cx="205" cy="298" rx="18" ry="12" fill="#232a4a" stroke="#2d263c" stroke-width="6"/>

  <!-- 体(ドレスのようなシルエット) -->
  <path d="M120 295 Q108 230 140 205 Q160 192 180 192 Q200 192 220 205 Q252 230 240 295 Q240 310 180 310 Q120 310 120 295 Z"
        fill="#3b4a86" stroke="#2d263c" stroke-width="8" stroke-linejoin="round"/>

  <!-- ドレスの黒いスカート部分 -->
  <path d="M132 240 Q120 270 128 298 Q135 306 180 306 Q225 306 232 298 Q240 270 228 240 Q205 255 180 255 Q155 255 132 240 Z"
        fill="#22212c" stroke="#2d263c" stroke-width="6" stroke-linejoin="round"/>

  <!-- 胸のクリーム色の星模様 -->
  <path d="M180 205 L187 220 L203 222 L190 232 L194 248 L180 239 L166 248 L170 232 L157 222 L173 220 Z"
        fill="#f2e8c9" stroke="#2d263c" stroke-width="4" stroke-linejoin="round"/>

  <!-- 腕 -->
  <path d="M132 220 Q100 235 108 262 Q112 274 136 270" fill="#3b4a86" stroke="#2d263c" stroke-width="7" stroke-linejoin="round"/>
  <path d="M228 220 Q260 235 252 262 Q248 274 224 270" fill="#3b4a86" stroke="#2d263c" stroke-width="7" stroke-linejoin="round"/>

  <!-- 頭 -->
  <circle cx="180" cy="148" r="70" fill="#3b4a86" stroke="#2d263c" stroke-width="8"/>

  <!-- 目 -->
  <ellipse cx="158" cy="150" rx="22" ry="26" fill="#ffffff" stroke="#2d263c" stroke-width="6"/>
  <ellipse cx="202" cy="150" rx="22" ry="26" fill="#ffffff" stroke="#2d263c" stroke-width="6"/>
  <circle cx="158" cy="153" r="13" fill="#6f9ce8"/>
  <circle cx="202" cy="153" r="13" fill="#6f9ce8"/>
  <circle cx="158" cy="155" r="5" fill="#1a1a24"/>
  <circle cx="202" cy="155" r="5" fill="#1a1a24"/>
  <circle cx="152" cy="145" r="4" fill="#ffffff"/>
  <circle cx="196" cy="145" r="4" fill="#ffffff"/>

  <!-- 口 -->
  <path d="M168 178 Q180 184 192 178" fill="none" stroke="#2d263c" stroke-width="5" stroke-linecap="round"/>

  <!-- ほっぺ -->
  <circle cx="138" cy="168" r="8" fill="#e8a0a8" opacity="0.6"/>
  <circle cx="222" cy="168" r="8" fill="#e8a0a8" opacity="0.6"/>
</svg>
