<svg xmlns="http://www.w3.org/2000/svg" viewBox="0 0 360 360">
<path d="M74 240 h 212 a 14 14 0 0 1 14 14 v 52 a 14 14 0 0 1 -14 14 h -212 a 14 14 0 0 1 -14 -14 v -52 a 14 14 0 0 1 14 -14 z" fill="#a86a3a" stroke="#2d263c" stroke-width="9" stroke-linejoin="round"/>
<line x1="60" y1="260" x2="300" y2="260" stroke="#2d263c" stroke-width="6"/>
<line x1="60" y1="300" x2="300" y2="300" stroke="#2d263c" stroke-width="6"/>
<line x1="120" y1="240" x2="120" y2="320" stroke="#2d263c" stroke-width="6"/>
<line x1="180" y1="240" x2="180" y2="320" stroke="#2d263c" stroke-width="6"/>
<line x1="240" y1="240" x2="240" y2="320" stroke="#2d263c" stroke-width="6"/>
<path d="M120 140 Q110 245 180 250 Q250 245 240 140 Z" fill="#6b8f3a" stroke="#2d263c" stroke-width="9" stroke-linejoin="round"/>
<ellipse cx="180" cy="205" rx="32" ry="40" fill="#c2d59a" stroke="#2d263c" stroke-width="6"/>
<path d="M120 150 Q70 200 90 245 Q120 255 130 220 Q120 185 140 160 Z" fill="#6b8f3a" stroke="#2d263c" stroke-width="8" stroke-linejoin="round"/>
<path d="M240 150 Q290 200 270 245 Q240 255 230 220 Q240 185 220 160 Z" fill="#6b8f3a" stroke="#2d263c" stroke-width="8" stroke-linejoin="round"/>
<circle cx="180" cy="100" r="46" fill="#6b8f3a" stroke="#2d263c" stroke-width="8"/>
<path d="M138 88 Q180 70 222 88 Q220 100 180 92 Q140 100 138 88 Z" fill="#4a6326" stroke="#2d263c" stroke-width="6"/>
<ellipse cx="180" cy="112" rx="32" ry="28" fill="#c2d59a" stroke="#2d263c" stroke-width="6"/>
<ellipse cx="167" cy="105" rx="8" ry="10" fill="#fff" stroke="#2d263c" stroke-width="6"/>
<ellipse cx="193" cy="105" rx="8" ry="10" fill="#fff" stroke="#2d263c" stroke-width="6"/>
<circle cx="168" cy="108" r="4" fill="#2d263c"/>
<circle cx="194" cy="108" r="4" fill="#2d263c"/>
<path d="M165 128 Q180 136 195 128" stroke="#2d263c" stroke-width="6" fill="none" stroke-linecap="round"/>
<line x1="92" y1="245" x2="78" y2="278" stroke="#2d263c" stroke-width="8" stroke-linecap="round"/>
<line x1="268" y1="245" x2="282" y2="278" stroke="#2d263c" stroke-width="8" stroke-linecap="round"/>
</svg>