<svg xmlns="http://www.w3.org/2000/svg" viewBox="0 0 360 360">
  <polygon points="150,82 98,28 130,98" fill="#1c1c2e" stroke="#2d263c" stroke-width="7" stroke-linejoin="round"/>
  <polygon points="210,82 262,28 230,98" fill="#1c1c2e" stroke="#2d263c" stroke-width="7" stroke-linejoin="round"/>

  <path d="M150,170 Q106,206 96,254" fill="none" stroke="#2d263c" stroke-width="20" stroke-linecap="round"/>
  <path d="M150,170 Q106,206 96,254" fill="none" stroke="#1c1c2e" stroke-width="13" stroke-linecap="round"/>
  <path d="M210,170 Q254,206 264,254" fill="none" stroke="#2d263c" stroke-width="20" stroke-linecap="round"/>
  <path d="M210,170 Q254,206 264,254" fill="none" stroke="#1c1c2e" stroke-width="13" stroke-linecap="round"/>

  <circle cx="96" cy="258" r="15" fill="#1c1c2e" stroke="#2d263c" stroke-width="6"/>
  <circle cx="264" cy="258" r="15" fill="#1c1c2e" stroke="#2d263c" stroke-width="6"/>

  <path d="M152,150 L208,150 L214,188 L146,188 Z" fill="#1c1c2e" stroke="#2d263c" stroke-width="7" stroke-linejoin="round"/>
  <path d="M146,188 L214,188 L266,318 Q180,338 94,318 Z" fill="#cfc6e8" stroke="#2d263c" stroke-width="7" stroke-linejoin="round"/>
  <line x1="180" y1="188" x2="180" y2="316" stroke="#2d263c" stroke-width="5" stroke-linecap="round"/>

  <polygon points="140,222 145,229 152,234 145,239 140,246 135,239 128,234 135,229" fill="#ffffff"/>
  <polygon points="220,222 225,229 232,234 225,239 220,246 215,239 208,234 215,229" fill="#ffffff"/>
  <polygon points="180,286 185,293 192,298 185,303 180,310 175,303 168,298 175,293" fill="#ffffff"/>

  <circle cx="180" cy="112" r="54" fill="#1c1c2e" stroke="#2d263c" stroke-width="7"/>

  <ellipse cx="160" cy="110" rx="13" ry="19" fill="#e2314d" stroke="#2d263c" stroke-width="4"/>
  <ellipse cx="200" cy="110" rx="13" ry="19" fill="#e2314d" stroke="#2d263c" stroke-width="4"/>
  <circle cx="156" cy="101" r="4" fill="#ffffff"/>
  <circle cx="196" cy="101" r="4" fill="#ffffff"/>
  <line x1="145" y1="90" x2="137" y2="82" stroke="#2d263c" stroke-width="5" stroke-linecap="round"/>
  <line x1="215" y1="90" x2="223" y2="82" stroke="#2d263c" stroke-width="5" stroke-linecap="round"/>
</svg>
