<svg xmlns="http://www.w3.org/2000/svg" viewBox="0 0 360 360">
<circle cx="180" cy="228" r="98" fill="#8291a3" stroke="#2d263c" stroke-width="8"/>
<circle cx="180" cy="120" r="68" fill="#8291a3" stroke="#2d263c" stroke-width="8"/>
<ellipse cx="225" cy="258" rx="55" ry="45" fill="#63728a" opacity="0.35"/>
<path d="M112,150 Q180,175 248,150" stroke="#2d263c" stroke-width="6" fill="none" stroke-linecap="round" opacity="0.6"/>
<ellipse cx="145" cy="318" rx="32" ry="17" fill="#63728a" stroke="#2d263c" stroke-width="7"/>
<ellipse cx="215" cy="318" rx="32" ry="17" fill="#63728a" stroke="#2d263c" stroke-width="7"/>
<path d="M105,205 L60,255" stroke="#2d263c" stroke-width="42" fill="none" stroke-linecap="round"/>
<path d="M105,205 L60,255" stroke="#8291a3" stroke-width="26" fill="none" stroke-linecap="round"/>
<circle cx="55" cy="262" r="27" fill="#8291a3" stroke="#2d263c" stroke-width="7"/>
<path d="M255,205 L300,255" stroke="#2d263c" stroke-width="42" fill="none" stroke-linecap="round"/>
<path d="M255,205 L300,255" stroke="#8291a3" stroke-width="26" fill="none" stroke-linecap="round"/>
<circle cx="305" cy="262" r="27" fill="#8291a3" stroke="#2d263c" stroke-width="7"/>
<polygon points="168,55 180,22 196,58" fill="#e2861f" stroke="#2d263c" stroke-width="7" stroke-linejoin="round"/>
<polygon points="95,150 66,121 110,168" fill="#e2861f" stroke="#2d263c" stroke-width="7" stroke-linejoin="round"/>
<polygon points="265,150 294,121 250,168" fill="#e2861f" stroke="#2d263c" stroke-width="7" stroke-linejoin="round"/>
<polygon points="160,290 180,255 205,292" fill="#e2861f" stroke="#2d263c" stroke-width="7" stroke-linejoin="round"/>
<polygon points="245,255 270,236 258,275" fill="#e2861f" stroke="#2d263c" stroke-width="6" stroke-linejoin="round"/>
<ellipse cx="150" cy="112" rx="11" ry="15" fill="#1c2230"/>
<ellipse cx="210" cy="112" rx="11" ry="15" fill="#1c2230"/>
<path d="M158,145 Q180,158 202,145" stroke="#2d263c" stroke-width="6" fill="none" stroke-linecap="round"/>
<path d="M120,240 L140,265" stroke="#2d263c" stroke-width="5" fill="none" stroke-linecap="round" opacity="0.6"/>
<path d="M220,235 L245,205" stroke="#2d263c" stroke-width="5" fill="none" stroke-linecap="round" opacity="0.6"/>
<path d="M170,290 L185,310" stroke="#2d263c" stroke-width="5" fill="none" stroke-linecap="round" opacity="0.6"/>
<circle cx="155" cy="95" r="9" fill="#ffffff" opacity="0.45"/>
</svg>
