<svg xmlns="http://www.w3.org/2000/svg" viewBox="0 0 360 360">
  <path d="M108,160 C70,140 30,150 25,185 C20,220 55,245 90,230 C110,222 115,195 108,160 Z" fill="#c9aee0" stroke="#2d263c" stroke-width="7" stroke-linejoin="round" stroke-linecap="round"/>
  <path d="M252,160 C290,140 330,150 335,185 C340,220 305,245 270,230 C250,222 245,195 252,160 Z" fill="#c9aee0" stroke="#2d263c" stroke-width="7" stroke-linejoin="round" stroke-linecap="round"/>
  <ellipse cx="60" cy="195" rx="20" ry="30" transform="rotate(-15 60 195)" fill="#f5b8cf" stroke="#2d263c" stroke-width="6" stroke-linejoin="round" stroke-linecap="round"/>
  <ellipse cx="300" cy="195" rx="20" ry="30" transform="rotate(15 300 195)" fill="#f5b8cf" stroke="#2d263c" stroke-width="6" stroke-linejoin="round" stroke-linecap="round"/>
  <ellipse cx="100" cy="250" rx="20" ry="28" transform="rotate(-15 100 250)" fill="#b89bd4" stroke="#2d263c" stroke-width="7" stroke-linejoin="round" stroke-linecap="round"/>
  <ellipse cx="260" cy="250" rx="20" ry="28" transform="rotate(15 260 250)" fill="#b89bd4" stroke="#2d263c" stroke-width="7" stroke-linejoin="round" stroke-linecap="round"/>
  <path d="M180,100 C225,100 250,130 252,175 C254,225 248,280 220,310 C200,330 160,330 140,310 C112,280 106,225 108,175 C110,130 135,100 180,100 Z" fill="#c9aee0" stroke="#2d263c" stroke-width="8" stroke-linejoin="round" stroke-linecap="round"/>
  <ellipse cx="148" cy="320" rx="26" ry="18" fill="#b89bd4" stroke="#2d263c" stroke-width="7" stroke-linejoin="round" stroke-linecap="round"/>
  <ellipse cx="212" cy="320" rx="26" ry="18" fill="#b89bd4" stroke="#2d263c" stroke-width="7" stroke-linejoin="round" stroke-linecap="round"/>
  <ellipse cx="180" cy="255" rx="45" ry="52" fill="#ecdcf5" stroke="#2d263c" stroke-width="6" stroke-linejoin="round" stroke-linecap="round"/>
  <circle cx="112" cy="212" r="15" fill="#f5b8cf" opacity="0.55"/>
  <circle cx="248" cy="212" r="15" fill="#f5b8cf" opacity="0.55"/>
  <ellipse cx="180" cy="230" rx="52" ry="42" fill="#e8879f" stroke="#2d263c" stroke-width="7" stroke-linejoin="round" stroke-linecap="round"/>
  <ellipse cx="180" cy="235" rx="34" ry="28" fill="#7a3550" stroke="#2d263c" stroke-width="5" stroke-linejoin="round" stroke-linecap="round"/>
  <circle cx="150" cy="176" r="7" fill="#2d263c"/>
  <circle cx="210" cy="176" r="7" fill="#2d263c"/>
</svg>
