<svg xmlns="http://www.w3.org/2000/svg" viewBox="0 0 360 360">
  <!-- 尻尾の炎(後ろ) -->
  <ellipse cx="252" cy="248" rx="18" ry="14" fill="#E8611A" stroke="#2d263c" stroke-width="6" stroke-linejoin="round"/>
  <path d="M248,252 Q265,228 258,208 Q272,222 270,244 Q280,218 268,200 Q285,215 278,238 Q290,212 275,192" fill="none" stroke="#FF9900" stroke-width="7" stroke-linecap="round" stroke-linejoin="round"/>
  <path d="M252,252 Q268,230 262,210 Q276,224 272,246" fill="#FF5500" stroke="none" opacity="0.6"/>

  <!-- しっぽ -->
  <path d="M220,260 Q240,240 255,248 Q265,255 252,268 Q238,278 222,270 Z" fill="#E8611A" stroke="#2d263c" stroke-width="6" stroke-linejoin="round" stroke-linecap="round"/>

  <!-- 足(後ろ側:右足) -->
  <path d="M210,288 Q218,308 215,328 Q208,330 200,326 Q196,308 200,288" fill="#E8611A" stroke="#2d263c" stroke-width="6" stroke-linejoin="round" stroke-linecap="round"/>
  <!-- 右足の先(クリーム) -->
  <ellipse cx="208" cy="328" rx="13" ry="7" fill="#F5D093" stroke="#2d263c" stroke-width="5" stroke-linejoin="round"/>

  <!-- 胴体 -->
  <path d="M135,210 Q128,260 138,300 Q158,315 185,316 Q212,315 225,298 Q232,258 225,210 Q205,195 180,193 Q155,195 135,210 Z" fill="#E8611A" stroke="#2d263c" stroke-width="7" stroke-linejoin="round" stroke-linecap="round"/>

  <!-- 腹のクリーム色 -->
  <ellipse cx="182" cy="265" rx="30" ry="48" fill="#F5D093" stroke="none"/>

  <!-- 左腕 -->
  <path d="M138,220 Q108,230 98,258 Q103,270 115,266 Q128,245 148,238" fill="#E8611A" stroke="#2d263c" stroke-width="6" stroke-linejoin="round" stroke-linecap="round"/>
  <!-- 左手 -->
  <ellipse cx="104" cy="268" rx="14" ry="10" fill="#F5D093" stroke="#2d263c" stroke-width="5" stroke-linejoin="round"/>

  <!-- 右腕 -->
  <path d="M224,220 Q255,230 265,255 Q260,268 248,265 Q234,244 218,236" fill="#E8611A" stroke="#2d263c" stroke-width="6" stroke-linejoin="round" stroke-linecap="round"/>
  <!-- 右手 -->
  <ellipse cx="258" cy="267" rx="14" ry="10" fill="#F5D093" stroke="#2d263c" stroke-width="5" stroke-linejoin="round"/>

  <!-- 左足 -->
  <path d="M152,296 Q148,316 150,336 Q158,340 168,336 Q172,316 170,296" fill="#E8611A" stroke="#2d263c" stroke-width="6" stroke-linejoin="round" stroke-linecap="round"/>
  <!-- 左足の先 -->
  <ellipse cx="160" cy="336" rx="13" ry="7" fill="#F5D093" stroke="#2d263c" stroke-width="5" stroke-linejoin="round"/>

  <!-- 首 -->
  <path d="M160,195 Q180,188 200,195 L205,215 Q182,208 158,215 Z" fill="#E8611A" stroke="#2d263c" stroke-width="6" stroke-linejoin="round"/>

  <!-- 頭部 -->
  <ellipse cx="182" cy="162" rx="55" ry="52" fill="#E8611A" stroke="#2d263c" stroke-width="7" stroke-linejoin="round"/>

  <!-- 顔のクリーム色(口元) -->
  <ellipse cx="182" cy="174" rx="32" ry="22" fill="#F5D093" stroke="none"/>

  <!-- 耳(左) -->
  <path d="M132,140 Q120,118 130,108 Q142,100 150,122 Q148,134 138,140 Z" fill="#E8611A" stroke="#2d263c" stroke-width="6" stroke-linejoin="round"/>
  <!-- 耳の内側(左) -->
  <path d="M136,136 Q128,120 134,114 Q142,108 146,122 Z" fill="#F5D093" stroke="none"/>

  <!-- 耳(右) -->
  <path d="M232,140 Q244,118 234,108 Q222,100 214,122 Q216,134 226,140 Z" fill="#E8611A" stroke="#2d263c" stroke-width="6" stroke-linejoin="round"/>
  <!-- 耳の内側(右) -->
  <path d="M228,136 Q236,120 230,114 Q222,108 218,122 Z" fill="#F5D093" stroke="none"/>

  <!-- 目(左) -->
  <ellipse cx="162" cy="155" rx="10" ry="8" fill="white" stroke="#2d263c" stroke-width="4"/>
  <ellipse cx="164" cy="155" rx="5" ry="5" fill="#1a1a2e"/>
  <ellipse cx="166" cy="152" rx="2" ry="2" fill="white"/>

  <!-- 目(右) -->
  <ellipse cx="202" cy="155" rx="10" ry="8" fill="white" stroke="#2d263c" stroke-width="4"/>
  <ellipse cx="204" cy="155" rx="5" ry="5" fill="#1a1a2e"/>
  <ellipse cx="206" cy="152" rx="2" ry="2" fill="white"/>

  <!-- 眉(左・きりっと) -->
  <path d="M152,143 Q160,138 172,141" fill="none" stroke="#2d263c" stroke-width="5" stroke-linecap="round"/>

  <!-- 眉(右・きりっと) -->
  <path d="M192,141 Q202,138 212,143" fill="none" stroke="#2d263c" stroke-width="5" stroke-linecap="round"/>

  <!-- 鼻 -->
  <ellipse cx="182" cy="168" rx="7" ry="5" fill="#C44A0A" stroke="#2d263c" stroke-width="3"/>

  <!-- 口(ニヤっと) -->
  <path d="M168,178 Q182,188 196,178" fill="none" stroke="#2d263c" stroke-width="5" stroke-linecap="round"/>

  <!-- 頭頂の炎(メイン) -->
  <path d="M182,112 Q168,88 172,68 Q162,82 158,60 Q152,80 162,98 Q148,78 150,55 Q138,75 152,96 Q142,78 148,52 Q134,70 148,95 Q155,82 160,108" fill="#FF5500" stroke="#2d263c" stroke-width="5" stroke-linejoin="round" stroke-linecap="round"/>
  <path d="M182,112 Q196,88 192,68 Q202,82 206,60 Q212,80 202,98 Q216,78 214,55 Q226,75 212,96 Q202,80 204,108" fill="#FF9900" stroke="#2d263c" stroke-width="5" stroke-linejoin="round" stroke-linecap="round"/>
  <!-- 炎の中心(明るい) -->
  <path d="M182,112 Q178,90 182,70 Q186,90 182,112 Z" fill="#FFD700" stroke="none"/>
</svg>