<svg xmlns="http://www.w3.org/2000/svg" viewBox="0 0 360 360">
  <ellipse cx="180" cy="200" rx="128" ry="118" fill="#6b4a8a" opacity="0.55"/>
  <ellipse cx="120" cy="150" rx="30" ry="22" fill="#6b4a8a" opacity="0.4"/>
  <ellipse cx="250" cy="160" rx="26" ry="20" fill="#6b4a8a" opacity="0.4"/>

  <path d="M180 55
    C 235 55, 285 95, 292 155
    C 297 195, 285 225, 268 250
    C 275 270, 278 288, 272 305
    C 265 292, 255 278, 246 268
    C 244 285, 240 300, 232 313
    C 226 298, 220 282, 214 270
    C 208 288, 202 302, 196 314
    C 190 300, 186 284, 182 270
    C 176 284, 170 300, 162 314
    C 158 300, 154 286, 150 270
    C 142 282, 136 297, 128 312
    C 122 297, 120 282, 120 265
    C 108 258, 96 245, 87 228
    C 68 195, 65 155, 84 118
    C 105 78, 145 55, 180 55 Z"
    fill="#9b6bb8" stroke="#2d263c" stroke-width="8" stroke-linejoin="round" stroke-linecap="round"/>

  <ellipse cx="120" cy="90" rx="14" ry="10" fill="#c79fdc" opacity="0.7"/>
  <ellipse cx="230" cy="100" rx="10" ry="8" fill="#c79fdc" opacity="0.6"/>

  <ellipse cx="140" cy="168" rx="34" ry="38" fill="#f4eefb" stroke="#2d263c" stroke-width="7" stroke-linejoin="round"/>
  <ellipse cx="222" cy="168" rx="34" ry="38" fill="#f4eefb" stroke="#2d263c" stroke-width="7" stroke-linejoin="round"/>

  <circle cx="146" cy="176" r="16" fill="#2d263c"/>
  <circle cx="228" cy="176" r="16" fill="#2d263c"/>
  <circle cx="152" cy="168" r="5" fill="#ffffff"/>
  <circle cx="234" cy="168" r="5" fill="#ffffff"/>

  <path d="M118 232
    C 140 262, 222 262, 244 232
    C 250 260, 236 280, 210 286
    C 208 274, 200 274, 198 286
    C 190 288, 174 288, 166 286
    C 164 274, 156 274, 154 286
    C 128 280, 112 260, 118 232 Z"
    fill="#2d263c" stroke="#2d263c" stroke-width="7" stroke-linejoin="round"/>

  <path d="M126 236 C 148 258, 214 258, 236 236 C 214 250, 148 250, 126 236 Z" fill="#5a4270"/>
</svg>
