<svg xmlns="http://www.w3.org/2000/svg" viewBox="0 0 360 360">
  <!-- 影 -->
  <ellipse cx="180" cy="338" rx="72" ry="12" fill="#2d263c" opacity="0.22"/>

  <!-- 足(左) -->
  <path d="M130 260 Q118 262 112 278 Q108 295 115 310 Q122 325 138 328 Q152 330 158 318 Q164 305 158 288 Q154 272 143 263Z" fill="#3e3d52" stroke="#2d263c" stroke-width="7" stroke-linejoin="round"/>
  <!-- 足首くびれ(左) -->
  <ellipse cx="136" cy="267" rx="16" ry="8" fill="#4a4960" stroke="#2d263c" stroke-width="5"/>

  <!-- 足(右) -->
  <path d="M230 260 Q242 262 248 278 Q252 295 245 310 Q238 325 222 328 Q208 330 202 318 Q196 305 202 288 Q206 272 217 263Z" fill="#3e3d52" stroke="#2d263c" stroke-width="7" stroke-linejoin="round"/>
  <!-- 足首くびれ(右) -->
  <ellipse cx="224" cy="267" rx="16" ry="8" fill="#4a4960" stroke="#2d263c" stroke-width="5"/>

  <!-- 腕(左) - 下に垂れてる感じ -->
  <path d="M104 165 Q86 168 76 185 Q68 200 72 220 Q76 238 92 244 Q106 248 116 238 Q126 228 122 210 Q120 192 112 176Z" fill="#3e3d52" stroke="#2d263c" stroke-width="7" stroke-linejoin="round"/>
  <!-- こぶし(左) 丸くでかい -->
  <circle cx="87" cy="240" r="22" fill="#4a4960" stroke="#2d263c" stroke-width="7"/>
  <circle cx="87" cy="240" r="14" fill="#3e3d52" stroke="none"/>

  <!-- 腕(右) -->
  <path d="M256 165 Q274 168 284 185 Q292 200 288 220 Q284 238 268 244 Q254 248 244 238 Q234 228 238 210 Q240 192 248 176Z" fill="#3e3d52" stroke="#2d263c" stroke-width="7" stroke-linejoin="round"/>
  <!-- こぶし(右) -->
  <circle cx="273" cy="240" r="22" fill="#4a4960" stroke="#2d263c" stroke-width="7"/>
  <circle cx="273" cy="240" r="14" fill="#3e3d52" stroke="none"/>

  <!-- 胴体 -->
  <path d="M118 148 Q114 180 116 220 Q118 248 136 260 Q155 270 180 270 Q205 270 224 260 Q242 248 244 220 Q246 180 242 148 Q238 128 210 122 Q195 118 180 118 Q165 118 150 122 Q122 128 118 148Z" fill="#4a4960" stroke="#2d263c" stroke-width="8" stroke-linejoin="round"/>

  <!-- 胸の青緑ライン装飾 -->
  <path d="M148 158 Q162 152 180 152 Q198 152 212 158" fill="none" stroke="#5bcfcf" stroke-width="5" stroke-linecap="round"/>
  <path d="M144 170 Q162 164 180 164 Q198 164 216 170" fill="none" stroke="#5bcfcf" stroke-width="4" stroke-linecap="round" opacity="0.75"/>

  <!-- 腹の封印バッテン(×) - 黄色 -->
  <line x1="162" y1="195" x2="198" y2="231" stroke="#f5d02e" stroke-width="9" stroke-linecap="round"/>
  <line x1="198" y1="195" x2="162" y2="231" stroke="#f5d02e" stroke-width="9" stroke-linecap="round"/>
  <!-- 封印の外枠 -->
  <rect x="155" y="188" width="50" height="50" rx="5" fill="none" stroke="#f5d02e" stroke-width="5"/>

  <!-- 頭部 - 四角くて大きい -->
  <path d="M132 58 Q128 42 135 32 Q145 22 180 20 Q215 22 225 32 Q232 42 228 58 Q236 68 238 90 Q240 112 236 126 Q230 138 210 142 Q195 146 180 146 Q165 146 150 142 Q130 138 124 126 Q120 112 122 90 Q122 68 132 58Z" fill="#4a4960" stroke="#2d263c" stroke-width="8" stroke-linejoin="round"/>

  <!-- 耳突起(左) -->
  <path d="M130 60 Q112 52 106 40 Q102 30 110 26 Q120 22 128 34 Q134 44 133 57Z" fill="#3e3d52" stroke="#2d263c" stroke-width="7" stroke-linejoin="round"/>

  <!-- 耳突起(右) -->
  <path d="M230 60 Q248 52 254 40 Q258 30 250 26 Q240 22 232 34 Q226 44 227 57Z" fill="#3e3d52" stroke="#2d263c" stroke-width="7" stroke-linejoin="round"/>

  <!-- 額の三角マーク(黄色) -->
  <polygon points="180,38 165,64 195,64" fill="#f5d02e" stroke="#2d263c" stroke-width="5" stroke-linejoin="round"/>

  <!-- 目(左) - 大きく白目ぎょろ -->
  <ellipse cx="153" cy="100" rx="20" ry="22" fill="#e8e0ff" stroke="#2d263c" stroke-width="5"/>
  <circle cx="158" cy="103" r="11" fill="#1a1a2e"/>
  <circle cx="155" cy="99" r="4" fill="#ffffff"/>

  <!-- 目(右) -->
  <ellipse cx="207" cy="100" rx="20" ry="22" fill="#e8e0ff" stroke="#2d263c" stroke-width="5"/>
  <circle cx="212" cy="103" r="11" fill="#1a1a2e"/>
  <circle cx="209" cy="99" r="4" fill="#ffffff"/>

  <!-- 鼻穴(小さい穴ふたつ) -->
  <ellipse cx="174" cy="122" rx="5" ry="4" fill="#2d263c"/>
  <ellipse cx="186" cy="122" rx="5" ry="4" fill="#2d263c"/>

  <!-- 口 - ちょっと歪んだ不気味な口 -->
  <path d="M160 132 Q172 140 180 138 Q188 140 200 132" fill="none" stroke="#2d263c" stroke-width="6" stroke-linecap="round"/>
</svg>