<svg xmlns="http://www.w3.org/2000/svg" viewBox="0 0 360 360">
  <ellipse cx="180" cy="308" rx="88" ry="16" fill="#2d263c" opacity="0.15"/>
  <ellipse cx="150" cy="330" rx="20" ry="12" fill="#6b3f85" stroke="#2d263c" stroke-width="7" stroke-linejoin="round"/>
  <ellipse cx="214" cy="330" rx="20" ry="12" fill="#6b3f85" stroke="#2d263c" stroke-width="7" stroke-linejoin="round"/>
  <circle cx="180" cy="200" r="118" fill="#9a5bb8" stroke="#2d263c" stroke-width="8" stroke-linejoin="round"/>
  <path d="M92 190 Q90 130 150 100 Q110 150 108 200 Z" fill="#b47cc9" opacity="0.5"/>
  <ellipse cx="180" cy="235" rx="70" ry="55" fill="#d69ee0" stroke="#2d263c" stroke-width="6" stroke-linejoin="round"/>
  <path d="M118 235 Q180 200 242 235" fill="none" stroke="#c17fd4" stroke-width="6" stroke-linecap="round"/>
  <circle cx="128" cy="150" r="26" fill="#fdfcf7" stroke="#2d263c" stroke-width="7"/>
  <circle cx="232" cy="150" r="26" fill="#fdfcf7" stroke="#2d263c" stroke-width="7"/>
  <circle cx="132" cy="156" r="11" fill="#2d263c"/>
  <circle cx="228" cy="156" r="11" fill="#2d263c"/>
  <circle cx="128" cy="150" r="7" fill="#ffffff" opacity="0.85"/>
  <circle cx="232" cy="150" r="7" fill="#ffffff" opacity="0.85"/>
  <path d="M100 205 Q180 175 260 205 Q255 260 180 268 Q105 260 100 205 Z" fill="#6b2447" stroke="#2d263c" stroke-width="8" stroke-linejoin="round"/>
  <path d="M112 210 Q180 188 248 210" fill="none" stroke="#2d263c" stroke-width="6" stroke-linecap="round"/>
  <path d="M108 214 L128 232 L148 214 L168 232 L188 214 L208 232 L228 214 L248 214" fill="none" stroke="#fbeef7" stroke-width="6" stroke-linecap="round" stroke-linejoin="round"/>
  <ellipse cx="180" cy="252" rx="58" ry="14" fill="#4a1834"/>
  <path d="M100 168 Q104 148 120 138" fill="none" stroke="#2d263c" stroke-width="7" stroke-linecap="round"/>
  <path d="M260 168 Q256 148 240 138" fill="none" stroke="#2d263c" stroke-width="7" stroke-linecap="round"/>
</svg>
