<svg xmlns="http://www.w3.org/2000/svg" viewBox="0 0 360 360">
  <!-- feet -->
  <ellipse cx="148" cy="326" rx="30" ry="13" fill="#8496B8" stroke="#2d263c" stroke-width="7" stroke-linejoin="round"/>
  <ellipse cx="212" cy="326" rx="30" ry="13" fill="#8496B8" stroke="#2d263c" stroke-width="7" stroke-linejoin="round"/>
  <!-- legs -->
  <path d="M132,240 C124,270 126,300 138,320 L162,320 C170,300 172,270 168,240 Z" fill="#8496B8" stroke="#2d263c" stroke-width="7" stroke-linejoin="round"/>
  <path d="M192,240 C188,270 190,300 198,320 L222,320 C234,300 236,270 228,240 Z" fill="#8496B8" stroke="#2d263c" stroke-width="7" stroke-linejoin="round"/>
  <!-- ankle bands -->
  <ellipse cx="150" cy="308" rx="18" ry="9" fill="#EDEAE2" stroke="#2d263c" stroke-width="6" stroke-linejoin="round"/>
  <ellipse cx="210" cy="308" rx="18" ry="9" fill="#EDEAE2" stroke="#2d263c" stroke-width="6" stroke-linejoin="round"/>
  <!-- torso -->
  <path d="M115,150 C100,190 105,225 135,248 L225,248 C255,225 260,190 245,150 C230,120 205,108 180,108 C155,108 130,120 115,150 Z" fill="#8496B8" stroke="#2d263c" stroke-width="8" stroke-linejoin="round"/>
  <!-- arms -->
  <path d="M128,155 C100,160 78,185 82,215 C84,235 100,248 122,245 C112,225 108,200 116,178 C120,168 124,160 128,155 Z" fill="#8496B8" stroke="#2d263c" stroke-width="7" stroke-linejoin="round"/>
  <path d="M232,155 C260,160 282,185 278,215 C276,235 260,248 238,245 C248,225 252,200 244,178 C240,168 236,160 232,155 Z" fill="#8496B8" stroke="#2d263c" stroke-width="7" stroke-linejoin="round"/>
  <!-- fists -->
  <circle cx="98" cy="238" r="24" fill="#8496B8" stroke="#2d263c" stroke-width="7"/>
  <circle cx="262" cy="238" r="24" fill="#8496B8" stroke="#2d263c" stroke-width="7"/>
  <!-- wristbands -->
  <ellipse cx="100" cy="220" rx="17" ry="11" fill="#EDEAE2" stroke="#2d263c" stroke-width="6" stroke-linejoin="round"/>
  <ellipse cx="260" cy="220" rx="17" ry="11" fill="#EDEAE2" stroke="#2d263c" stroke-width="6" stroke-linejoin="round"/>
  <!-- trunks -->
  <path d="M138,232 C130,248 132,266 145,274 L215,274 C228,266 230,248 222,232 Z" fill="#413A4C" stroke="#2d263c" stroke-width="7" stroke-linejoin="round"/>
  <!-- belt band -->
  <path d="M140,240 L220,240 C222,246 222,252 220,258 L140,258 C138,252 138,246 140,240 Z" fill="#D6A85E" stroke="#2d263c" stroke-width="6" stroke-linejoin="round"/>
  <!-- belt buckle -->
  <circle cx="180" cy="249" r="10" fill="#4A3A28" stroke="#2d263c" stroke-width="6"/>
  <!-- belt segment lines -->
  <path d="M158,241 L158,257" fill="none" stroke="#2d263c" stroke-width="5" stroke-linecap="round"/>
  <path d="M202,241 L202,257" fill="none" stroke="#2d263c" stroke-width="5" stroke-linecap="round"/>
  <!-- chest muscle lines -->
  <path d="M140,168 C150,178 162,181 172,177" fill="none" stroke="#6B7FA0" stroke-width="6" stroke-linecap="round"/>
  <path d="M220,168 C210,178 198,181 188,177" fill="none" stroke="#6B7FA0" stroke-width="6" stroke-linecap="round"/>
  <!-- abs line -->
  <path d="M180,195 L180,228" fill="none" stroke="#6B7FA0" stroke-width="6" stroke-linecap="round"/>
  <!-- neck -->
  <path d="M163,128 L197,128 L193,150 L167,150 Z" fill="#8496B8" stroke="#2d263c" stroke-width="7" stroke-linejoin="round"/>
  <!-- ears -->
  <ellipse cx="130" cy="90" rx="12" ry="16" fill="#6B7FA0" stroke="#2d263c" stroke-width="6" stroke-linejoin="round"/>
  <ellipse cx="230" cy="90" rx="12" ry="16" fill="#6B7FA0" stroke="#2d263c" stroke-width="6" stroke-linejoin="round"/>
  <!-- head -->
  <ellipse cx="180" cy="88" rx="52" ry="50" fill="#8496B8" stroke="#2d263c" stroke-width="8" stroke-linejoin="round"/>
  <!-- crest -->
  <path d="M168,50 C178,15 210,15 220,48 C208,42 194,40 180,44 C174,46 170,48 168,50 Z" fill="#6B7FA0" stroke="#2d263c" stroke-width="7" stroke-linejoin="round"/>
  <!-- eyebrow ridge -->
  <path d="M150,72 C165,64 195,64 210,72" fill="none" stroke="#2d263c" stroke-width="6" stroke-linecap="round"/>
  <!-- eyes -->
  <ellipse cx="163" cy="88" rx="7" ry="9" fill="#221A2C"/>
  <ellipse cx="197" cy="88" rx="7" ry="9" fill="#221A2C"/>
  <!-- nose -->
  <ellipse cx="180" cy="102" rx="11" ry="7" fill="#7488AC" stroke="#2d263c" stroke-width="6" stroke-linejoin="round"/>
  <circle cx="176" cy="102" r="2" fill="#2d263c"/>
  <circle cx="184" cy="102" r="2" fill="#2d263c"/>
  <!-- mouth -->
  <path d="M163,118 C172,124 188,124 197,118" fill="none" stroke="#2d263c" stroke-width="6" stroke-linecap="round"/>
</svg>
