<svg xmlns="http://www.w3.org/2000/svg" viewBox="0 0 360 360">
  <path d="M160 180 C128 206 100 252 86 326 C106 312 122 330 142 318 C162 334 184 316 204 330 C226 314 248 332 272 320 C258 248 232 204 202 180 Z" fill="#f8f6f0" stroke="#2d263c" stroke-width="7" stroke-linejoin="round" stroke-linecap="round"/>
  <path d="M162 150 C134 148 106 138 82 118 C92 144 120 162 154 168 C158 162 160 156 162 150 Z" fill="#6ec877" stroke="#2d263c" stroke-width="7" stroke-linejoin="round" stroke-linecap="round"/>
  <path d="M200 152 C230 154 258 150 282 136 C270 162 238 174 206 172 C203 165 201 158 200 152 Z" fill="#6ec877" stroke="#2d263c" stroke-width="7" stroke-linejoin="round" stroke-linecap="round"/>
  <path d="M168 138 C164 158 162 172 158 186 L204 186 C198 170 196 156 194 138 Z" fill="#f8f6f0" stroke="#2d263c" stroke-width="7" stroke-linejoin="round" stroke-linecap="round"/>
  <circle cx="180" cy="108" r="36" fill="#f8f6f0" stroke="#2d263c" stroke-width="7"/>
  <path d="M134 96 C124 118 122 142 104 158 C92 168 78 170 70 168 C88 188 118 180 130 154 C138 138 140 112 134 96 Z" fill="#6ec877" stroke="#2d263c" stroke-width="7" stroke-linejoin="round" stroke-linecap="round"/>
  <path d="M228 98 C236 118 238 144 256 158 C268 168 282 168 290 164 C274 188 240 182 230 154 C224 138 222 114 228 98 Z" fill="#6ec877" stroke="#2d263c" stroke-width="7" stroke-linejoin="round" stroke-linecap="round"/>
  <path d="M130 122 C120 76 148 50 182 52 C218 54 242 82 232 124 C224 104 212 100 204 110 C196 96 170 94 160 106 C150 96 136 104 130 122 Z" fill="#6ec877" stroke="#2d263c" stroke-width="7" stroke-linejoin="round" stroke-linecap="round"/>
  <path d="M181 150 C192 158 194 180 181 200 C168 180 170 158 181 150 Z" fill="#ee4747" stroke="#2d263c" stroke-width="7" stroke-linejoin="round" stroke-linecap="round"/>
  <ellipse cx="163" cy="120" rx="8" ry="11" fill="#e44b4b" stroke="#2d263c" stroke-width="6"/>
  <ellipse cx="199" cy="118" rx="9" ry="12" fill="#e44b4b" stroke="#2d263c" stroke-width="6"/>
  <circle cx="161" cy="116" r="2.5" fill="#ffffff"/>
  <circle cx="197" cy="114" r="2.8" fill="#ffffff"/>
  <path d="M173 137 Q180 142 188 136" fill="none" stroke="#2d263c" stroke-width="6" stroke-linecap="round"/>
</svg>