<svg xmlns="http://www.w3.org/2000/svg" viewBox="0 0 360 360">
<path d="M205 245 Q270 230 265 170 Q260 140 235 150" stroke="#2d263c" stroke-width="8" fill="none" stroke-linecap="round"/>
<path d="M168 250 L160 302" stroke="#2d263c" stroke-width="9" stroke-linecap="round"/>
<path d="M192 250 L200 302" stroke="#2d263c" stroke-width="9" stroke-linecap="round"/>
<ellipse cx="160" cy="304" rx="14" ry="9" fill="#e08838" stroke="#2d263c" stroke-width="6"/>
<ellipse cx="200" cy="304" rx="14" ry="9" fill="#e08838" stroke="#2d263c" stroke-width="6"/>
<path d="M148 175 Q142 255 180 260 Q218 255 212 175 Z" fill="#7ec24a" stroke="#2d263c" stroke-width="8" stroke-linejoin="round"/>
<ellipse cx="180" cy="220" rx="24" ry="32" fill="#cfe8a6" stroke="#2d263c" stroke-width="6"/>
<path d="M150 185 L128 225" stroke="#2d263c" stroke-width="8" stroke-linecap="round"/>
<path d="M210 185 L232 225" stroke="#2d263c" stroke-width="8" stroke-linecap="round"/>
<circle cx="180" cy="125" r="56" fill="#7ec24a" stroke="#2d263c" stroke-width="8"/>
<ellipse cx="180" cy="138" rx="40" ry="36" fill="#cfe8a6" stroke="#2d263c" stroke-width="6"/>
<circle cx="128" cy="110" r="16" fill="#7ec24a" stroke="#2d263c" stroke-width="7"/>
<circle cx="232" cy="110" r="16" fill="#7ec24a" stroke="#2d263c" stroke-width="7"/>
<circle cx="128" cy="110" r="8" fill="#cfe8a6"/>
<circle cx="232" cy="110" r="8" fill="#cfe8a6"/>
<path d="M179 50 h 2 a 5 5 0 0 1 5 5 v 30 a 5 5 0 0 1 -5 5 h -2 a 5 5 0 0 1 -5 -5 v -30 a 5 5 0 0 1 5 -5 z" fill="#e08838" stroke="#2d263c" stroke-width="6" transform="rotate(12 180 70)"/>
<path d="M195 58 Q215 48 218 62 Q205 70 195 58 Z" fill="#7ec24a" stroke="#2d263c" stroke-width="6"/>
<ellipse cx="163" cy="130" rx="11" ry="13" fill="#fff" stroke="#2d263c" stroke-width="6"/>
<ellipse cx="197" cy="130" rx="11" ry="13" fill="#fff" stroke="#2d263c" stroke-width="6"/>
<circle cx="165" cy="133" r="6" fill="#2d263c"/>
<circle cx="199" cy="133" r="6" fill="#2d263c"/>
<path d="M168 158 Q180 166 192 158" stroke="#2d263c" stroke-width="6" fill="none" stroke-linecap="round"/>
</svg>