<svg xmlns="http://www.w3.org/2000/svg" viewBox="0 0 360 360">

  <!-- 影 -->
  <ellipse cx="180" cy="318" rx="78" ry="16" fill="#00000022"/>

  <!-- ゴーストの尻尾(浮いている) -->
  <path d="M140,300 Q125,318 120,338 Q132,330 138,322 Q132,338 145,340 Q148,328 150,318 Q152,335 162,338 Q162,322 160,308" fill="#C0A010" stroke="#2d263c" stroke-width="6" stroke-linejoin="round" stroke-linecap="round"/>
  <path d="M220,300 Q235,318 240,338 Q228,330 222,322 Q228,338 215,340 Q212,328 210,318 Q208,335 198,338 Q198,322 200,308" fill="#C0A010" stroke="#2d263c" stroke-width="6" stroke-linejoin="round" stroke-linecap="round"/>

  <!-- 体(コインが積み重なったボディ) -->
  <ellipse cx="180" cy="240" rx="90" ry="80" fill="#E8C020" stroke="#2d263c" stroke-width="9" stroke-linejoin="round"/>

  <!-- コイン模様(体) -->
  <circle cx="148" cy="215" r="18" fill="#C8A010" stroke="#2d263c" stroke-width="4"/>
  <circle cx="148" cy="215" r="11" fill="#E8D050" stroke="none"/>
  <circle cx="180" cy="208" r="18" fill="#C8A010" stroke="#2d263c" stroke-width="4"/>
  <circle cx="180" cy="208" r="11" fill="#E8D050" stroke="none"/>
  <circle cx="212" cy="215" r="18" fill="#C8A010" stroke="#2d263c" stroke-width="4"/>
  <circle cx="212" cy="215" r="11" fill="#E8D050" stroke="none"/>
  <circle cx="140" cy="248" r="16" fill="#C8A010" stroke="#2d263c" stroke-width="4"/>
  <circle cx="140" cy="248" r="10" fill="#E8D050" stroke="none"/>
  <circle cx="170" cy="255" r="16" fill="#C8A010" stroke="#2d263c" stroke-width="4"/>
  <circle cx="170" cy="255" r="10" fill="#E8D050" stroke="none"/>
  <circle cx="200" cy="252" r="16" fill="#C8A010" stroke="#2d263c" stroke-width="4"/>
  <circle cx="200" cy="252" r="10" fill="#E8D050" stroke="none"/>
  <circle cx="225" cy="244" r="15" fill="#C8A010" stroke="#2d263c" stroke-width="4"/>
  <circle cx="225" cy="244" r="9" fill="#E8D050" stroke="none"/>
  <circle cx="162" cy="280" r="14" fill="#C8A010" stroke="#2d263c" stroke-width="4"/>
  <circle cx="162" cy="280" r="8" fill="#E8D050" stroke="none"/>
  <circle cx="192" cy="282" r="14" fill="#C8A010" stroke="#2d263c" stroke-width="4"/>
  <circle cx="192" cy="282" r="8" fill="#E8D050" stroke="none"/>

  <!-- 手(ゴーストの手・コインで出来た) -->
  <ellipse cx="100" cy="235" rx="32" ry="28" fill="#E8C020" stroke="#2d263c" stroke-width="7" stroke-linejoin="round"/>
  <circle cx="100" cy="235" r="18" fill="#C8A010" stroke="#2d263c" stroke-width="4"/>
  <circle cx="100" cy="235" r="10" fill="#E8D050" stroke="none"/>

  <ellipse cx="260" cy="235" rx="32" ry="28" fill="#E8C020" stroke="#2d263c" stroke-width="7" stroke-linejoin="round"/>
  <circle cx="260" cy="235" r="18" fill="#C8A010" stroke="#2d263c" stroke-width="4"/>
  <circle cx="260" cy="235" r="10" fill="#E8D050" stroke="none"/>

  <!-- 腕(コイン連結) -->
  <path d="M100,222 Q118,210 140,212" fill="none" stroke="#E8C020" stroke-width="12" stroke-linecap="round"/>
  <path d="M100,222 Q118,210 140,212" fill="none" stroke="#2d263c" stroke-width="7" stroke-linecap="round" opacity="0.3"/>
  <path d="M260,222 Q242,210 220,212" fill="none" stroke="#E8C020" stroke-width="12" stroke-linecap="round"/>
  <path d="M260,222 Q242,210 220,212" fill="none" stroke="#2d263c" stroke-width="7" stroke-linecap="round" opacity="0.3"/>

  <!-- 頭(コインの顔) -->
  <ellipse cx="180" cy="155" rx="62" ry="58" fill="#E8C020" stroke="#2d263c" stroke-width="9" stroke-linejoin="round"/>

  <!-- 顔のコイン模様 -->
  <ellipse cx="180" cy="158" rx="48" ry="44" fill="#C8A010" stroke="#2d263c" stroke-width="5" stroke-linejoin="round"/>
  <ellipse cx="180" cy="160" rx="35" ry="32" fill="#E8D050" stroke="none"/>

  <!-- 目(左) - ゴーストの目 -->
  <ellipse cx="160" cy="148" rx="13" ry="15" fill="white" stroke="#2d263c" stroke-width="5"/>
  <circle cx="162" cy="147" r="8" fill="#1a1428"/>
  <circle cx="165" cy="144" r="3.5" fill="white"/>

  <!-- 目(右) -->
  <ellipse cx="200" cy="148" rx="13" ry="15" fill="white" stroke="#2d263c" stroke-width="5"/>
  <circle cx="202" cy="147" r="8" fill="#1a1428"/>
  <circle cx="205" cy="144" r="3.5" fill="white"/>

  <!-- 口(ドヤ顔スマイル) -->
  <path d="M162,172 Q180,186 198,172" fill="none" stroke="#2d263c" stroke-width="6" stroke-linecap="round"/>

  <!-- 鼻(小さい) -->
  <ellipse cx="180" cy="163" rx="5" ry="4" fill="#2d263c"/>

  <!-- 頭のコイン飾り -->
  <circle cx="148" cy="112" r="10" fill="#C8A010" stroke="#2d263c" stroke-width="4"/>
  <circle cx="148" cy="112" r="5" fill="#E8D050"/>
  <circle cx="180" cy="100" r="12" fill="#C8A010" stroke="#2d263c" stroke-width="4"/>
  <circle cx="180" cy="100" r="6" fill="#E8D050"/>
  <circle cx="212" cy="112" r="10" fill="#C8A010" stroke="#2d263c" stroke-width="4"/>
  <circle cx="212" cy="112" r="5" fill="#E8D050"/>

  <!-- 浮遊感(コインのきらめき) -->
  <path d="M118,175 L112,168 L122,170 Z" fill="#FFE840" stroke="none"/>
  <path d="M242,175 L248,168 L238,170 Z" fill="#FFE840" stroke="none"/>
  <path d="M158,88 L155,80 L163,84 Z" fill="#FFE840" stroke="none"/>
  <path d="M205,86 L208,78 L200,83 Z" fill="#FFE840" stroke="none"/>

</svg>
