<svg xmlns="http://www.w3.org/2000/svg" viewBox="0 0 360 360">
  <!-- 後ろのしっぽ先端(丸まり) -->
  <ellipse cx="290" cy="295" rx="28" ry="22" fill="#C49440" stroke="#2d263c" stroke-width="7" stroke-linejoin="round"/>
  <ellipse cx="302" cy="287" rx="16" ry="13" fill="#B88030" stroke="#2d263c" stroke-width="6" stroke-linejoin="round"/>

  <!-- 胴体メイン(大きな楕円ボディ) -->
  <ellipse cx="175" cy="245" rx="110" ry="72" fill="#D4A855" stroke="#2d263c" stroke-width="8" stroke-linejoin="round"/>

  <!-- 腹部クリーム色 -->
  <ellipse cx="175" cy="258" rx="82" ry="48" fill="#F5E4B0" stroke="#2d263c" stroke-width="5" stroke-linejoin="round"/>

  <!-- 胴体縞模様 -->
  <path d="M100 218 Q110 210 120 218 Q130 226 140 218" fill="none" stroke="#A0722A" stroke-width="6" stroke-linecap="round"/>
  <path d="M148 212 Q158 203 168 212 Q178 221 188 212" fill="none" stroke="#A0722A" stroke-width="6" stroke-linecap="round"/>
  <path d="M198 213 Q208 204 218 213 Q228 222 238 213" fill="none" stroke="#A0722A" stroke-width="6" stroke-linecap="round"/>
  <path d="M245 220 Q255 212 265 220" fill="none" stroke="#A0722A" stroke-width="6" stroke-linecap="round"/>

  <!-- 左ヒレ突起 -->
  <ellipse cx="82" cy="248" rx="18" ry="11" fill="#C49440" stroke="#2d263c" stroke-width="6" stroke-linejoin="round" transform="rotate(-20 82 248)"/>
  <ellipse cx="72" cy="268" rx="15" ry="9" fill="#C49440" stroke="#2d263c" stroke-width="6" stroke-linejoin="round" transform="rotate(10 72 268)"/>

  <!-- 右ヒレ突起 -->
  <ellipse cx="270" cy="248" rx="18" ry="11" fill="#C49440" stroke="#2d263c" stroke-width="6" stroke-linejoin="round" transform="rotate(20 270 248)"/>
  <ellipse cx="278" cy="268" rx="15" ry="9" fill="#C49440" stroke="#2d263c" stroke-width="6" stroke-linejoin="round" transform="rotate(-10 278 268)"/>

  <!-- 背中のツブツブ(砂感) -->
  <circle cx="130" cy="222" r="4" fill="#B88030"/>
  <circle cx="155" cy="215" r="3.5" fill="#B88030"/>
  <circle cx="180" cy="213" r="4" fill="#B88030"/>
  <circle cx="205" cy="215" r="3.5" fill="#B88030"/>
  <circle cx="228" cy="221" r="3" fill="#B88030"/>
  <circle cx="143" cy="232" r="3" fill="#B88030"/>
  <circle cx="218" cy="230" r="3" fill="#B88030"/>

  <!-- 首部分 -->
  <path d="M140 195 Q150 165 175 158 Q200 165 212 195" fill="#D4A855" stroke="#2d263c" stroke-width="7" stroke-linejoin="round"/>

  <!-- 頭部(大きめ丸) -->
  <ellipse cx="176" cy="130" rx="68" ry="62" fill="#D4A855" stroke="#2d263c" stroke-width="8" stroke-linejoin="round"/>

  <!-- 顔の腹色(頬〜あご) -->
  <ellipse cx="176" cy="148" rx="46" ry="36" fill="#F5E4B0" stroke="#2d263c" stroke-width="4" stroke-linejoin="round"/>

  <!-- 角(左) -->
  <path d="M148 80 Q142 60 150 45 Q155 58 158 78" fill="#B88030" stroke="#2d263c" stroke-width="6" stroke-linejoin="round"/>
  <!-- 角(右) -->
  <path d="M205 80 Q210 60 204 45 Q198 58 196 78" fill="#B88030" stroke="#2d263c" stroke-width="6" stroke-linejoin="round"/>

  <!-- 左目(たれ目) -->
  <ellipse cx="152" cy="122" rx="18" ry="16" fill="white" stroke="#2d263c" stroke-width="6"/>
  <ellipse cx="154" cy="126" rx="11" ry="11" fill="#2d263c"/>
  <circle cx="157" cy="121" r="4" fill="white"/>
  <!-- たれ目の線(右下がり) -->
  <path d="M136 112 Q152 108 170 115" fill="none" stroke="#2d263c" stroke-width="5" stroke-linecap="round"/>

  <!-- 右目(たれ目) -->
  <ellipse cx="200" cy="122" rx="18" ry="16" fill="white" stroke="#2d263c" stroke-width="6"/>
  <ellipse cx="198" cy="126" rx="11" ry="11" fill="#2d263c"/>
  <circle cx="201" cy="121" r="4" fill="white"/>
  <!-- たれ目の線(左下がり) -->
  <path d="M184 115 Q200 108 216 112" fill="none" stroke="#2d263c" stroke-width="5" stroke-linecap="round"/>

  <!-- 鼻(小さな点) -->
  <circle cx="173" cy="142" r="4" fill="#A0722A"/>
  <circle cx="181" cy="142" r="4" fill="#A0722A"/>

  <!-- 口(ぼんやりU字) -->
  <path d="M162 158 Q176 170 192 158" fill="none" stroke="#2d263c" stroke-width="5" stroke-linecap="round"/>

  <!-- ほっぺ赤み(左) -->
  <ellipse cx="132" cy="148" rx="14" ry="9" fill="#E8A878" opacity="0.65"/>
  <!-- ほっぺ赤み(右) -->
  <ellipse cx="220" cy="148" rx="14" ry="9" fill="#E8A878" opacity="0.65"/>

  <!-- しっぽ接続部 -->
  <path d="M255 270 Q275 278 290 285 Q308 292 302 300 Q285 310 268 295 Q258 285 248 278" fill="#C49440" stroke="#2d263c" stroke-width="7" stroke-linejoin="round"/>
</svg>