<svg xmlns="http://www.w3.org/2000/svg" viewBox="0 0 360 360">
  <path d="M 170,258 Q 162,300 190,324 Q 208,292 212,256 Z" fill="#3b5ba7" stroke="#2d263c" stroke-width="7" stroke-linejoin="round" stroke-linecap="round"/>
  <path d="M 165,118 Q 166,62 197,42 Q 211,80 220,114 Z" fill="#3b5ba7" stroke="#2d263c" stroke-width="7" stroke-linejoin="round" stroke-linecap="round"/>
  <path d="M 42,182 Q 54,126 106,110 Q 172,94 238,108 L 322,128 L 282,152 L 320,178 L 284,202 L 318,228 L 270,246 Q 200,274 130,262 Q 68,248 42,182 Z" fill="#3b5ba7" stroke="#2d263c" stroke-width="8" stroke-linejoin="round" stroke-linecap="round"/>
  <path d="M 70,244 Q 150,222 232,230 Q 278,234 302,240 L 270,246 Q 200,274 130,262 Q 94,256 70,244 Z" fill="#f4e7c3" stroke="#2d263c" stroke-width="6" stroke-linejoin="round" stroke-linecap="round"/>
  <path d="M 150,212 Q 188,236 176,278 Q 140,256 132,220 Z" fill="#3b5ba7" stroke="#2d263c" stroke-width="7" stroke-linejoin="round" stroke-linecap="round"/>
  <path d="M 48,180 Q 100,170 130,198 Q 120,238 78,242 Q 48,222 48,180 Z" fill="#7e2741" stroke="#2d263c" stroke-width="7" stroke-linejoin="round" stroke-linecap="round"/>
  <path d="M 54,182 L 65,198 L 75,183 L 87,201 L 99,186 L 112,204 L 124,194 Q 90,174 54,182 Z" fill="#ffffff" stroke="#2d263c" stroke-width="5" stroke-linejoin="round" stroke-linecap="round"/>
  <path d="M 62,232 L 73,214 L 85,231 L 97,216 L 109,232 L 119,221 Q 92,244 62,232 Z" fill="#ffffff" stroke="#2d263c" stroke-width="5" stroke-linejoin="round" stroke-linecap="round"/>
  <path d="M 116,118 L 123,133 L 138,137 L 124,144 L 119,159 L 110,145 L 95,139 L 109,132 Z" fill="#f6d743" stroke="#2d263c" stroke-width="5" stroke-linejoin="round" stroke-linecap="round"/>
  <circle cx="146" cy="170" r="12" fill="#e23b3b" stroke="#2d263c" stroke-width="6"/>
  <circle cx="149" cy="172" r="4.5" fill="#2d263c"/>
  <path d="M 128,150 L 162,162" fill="none" stroke="#2d263c" stroke-width="7" stroke-linecap="round"/>
  <path d="M 214,162 q -7,18 1,36" fill="none" stroke="#2d263c" stroke-width="6" stroke-linecap="round"/>
  <path d="M 236,160 q -7,18 1,34" fill="none" stroke="#2d263c" stroke-width="6" stroke-linecap="round"/>
  <path d="M 175,128 Q 198,122 222,127" fill="none" stroke="#2d263c" stroke-width="5" stroke-linecap="round" opacity="0.45"/>
</svg>