<svg xmlns="http://www.w3.org/2000/svg" viewBox="0 0 360 360">
  <path d="M167,150 C144,158 118,168 94,186" fill="none" stroke="#2d263c" stroke-width="20" stroke-linecap="round"/>
  <path d="M197,148 C222,140 246,126 268,106" fill="none" stroke="#2d263c" stroke-width="20" stroke-linecap="round"/>
  <path d="M167,150 C144,158 118,168 94,186" fill="none" stroke="#6CC58F" stroke-width="10" stroke-linecap="round"/>
  <path d="M197,148 C222,140 246,126 268,106" fill="none" stroke="#6CC58F" stroke-width="10" stroke-linecap="round"/>
  <path d="M170,124 C166,142 167,162 165,182 L199,182 C197,160 197,142 194,124 Z" fill="#FAF9F6" stroke="#2d263c" stroke-width="7" stroke-linejoin="round" stroke-linecap="round"/>
  <path d="M166,176 C152,212 122,262 98,320 C112,312 126,322 142,314 C156,326 172,310 184,320 C198,310 214,324 228,314 C242,322 256,310 266,318 C242,258 214,210 198,176 Z" fill="#FAF9F6" stroke="#2d263c" stroke-width="7" stroke-linejoin="round" stroke-linecap="round"/>
  <path d="M183,238 L171,314 L181,312 L183,264 L187,313 L196,311 Z" fill="#6CC58F" stroke="#2d263c" stroke-width="5" stroke-linejoin="round"/>
  <path d="M182,144 L170,163 L182,200 L194,162 Z" fill="#F2545B" stroke="#2d263c" stroke-width="7" stroke-linejoin="round"/>
  <ellipse cx="182" cy="86" rx="41" ry="37" fill="#6CC58F" stroke="#2d263c" stroke-width="7"/>
  <ellipse cx="183" cy="102" rx="27" ry="26" fill="#FAF9F6" stroke="#2d263c" stroke-width="6"/>
  <path d="M152,136 C142,118 138,104 142,86 C146,60 162,50 184,50 C206,50 222,64 226,88 C229,106 227,122 219,134 C215,139 208,137 211,129 C216,116 218,104 216,94 C210,80 196,75 182,76 C168,75 156,82 152,94 C150,108 152,120 157,130 C160,137 156,140 152,136 Z" fill="#6CC58F" stroke="#2d263c" stroke-width="7" stroke-linejoin="round" stroke-linecap="round"/>
  <ellipse cx="171" cy="102" rx="6.5" ry="8.5" fill="#E8505B" stroke="#2d263c" stroke-width="4.5"/>
  <ellipse cx="197" cy="101" rx="6" ry="8" fill="#E8505B" stroke="#2d263c" stroke-width="4.5"/>
  <circle cx="171" cy="104" r="2.4" fill="#2d263c"/>
  <circle cx="197" cy="103" r="2.2" fill="#2d263c"/>
  <path d="M177,121 Q184,126 191,120" fill="none" stroke="#2d263c" stroke-width="4.5" stroke-linecap="round"/>
  <ellipse cx="159" cy="112" rx="5" ry="3" fill="#F8A8C0"/>
  <ellipse cx="208" cy="111" rx="5" ry="3" fill="#F8A8C0"/>
</svg>