<svg xmlns="http://www.w3.org/2000/svg" viewBox="0 0 360 360">
  <path d="M180 25 C150 20 130 45 140 70 C110 65 90 95 105 120 C80 130 75 165 100 180 C85 200 100 225 130 220 C125 245 155 250 170 230 C185 250 215 245 210 220 C240 225 255 200 240 180 C265 165 260 130 235 120 C250 95 230 65 200 70 C210 45 195 20 180 25 Z" fill="#eea0d0" stroke="#2d263c" stroke-width="8" stroke-linejoin="round" stroke-linecap="round"/>
  <path d="M180 32 C173 20 159 22 157 34 C155 44 166 50 173 42 C177 38 174 32 169 34" fill="none" stroke="#2d263c" stroke-width="5" stroke-linecap="round" stroke-linejoin="round"/>
  <path d="M120 120 C110 105 120 90 135 95 C145 98 145 112 133 115" fill="none" stroke="#c56aa8" stroke-width="5" stroke-linecap="round"/>
  <path d="M235 130 C245 115 235 100 220 105 C210 108 210 122 222 125" fill="none" stroke="#c56aa8" stroke-width="5" stroke-linecap="round"/>
  <path d="M110 205 C95 225 92 260 105 285 C95 300 105 320 130 315 C138 330 165 332 180 322 C195 332 222 330 230 315 C255 320 265 300 255 285 C268 260 265 225 250 205 C220 195 140 195 110 205 Z" fill="#faf3e4" stroke="#2d263c" stroke-width="8" stroke-linejoin="round" stroke-linecap="round"/>
  <path d="M100 230 C80 222 65 235 72 250 C78 262 98 258 100 243 Z" fill="#faf3e4" stroke="#2d263c" stroke-width="6" stroke-linejoin="round" stroke-linecap="round"/>
  <path d="M260 230 C280 222 295 235 288 250 C282 262 262 258 260 243 Z" fill="#faf3e4" stroke="#2d263c" stroke-width="6" stroke-linejoin="round" stroke-linecap="round"/>
  <path d="M115 300 C100 305 95 320 110 328 C120 333 132 325 128 310 Z" fill="#faf3e4" stroke="#2d263c" stroke-width="6" stroke-linejoin="round" stroke-linecap="round"/>
  <path d="M245 300 C260 305 265 320 250 328 C240 333 228 325 232 310 Z" fill="#faf3e4" stroke="#2d263c" stroke-width="6" stroke-linejoin="round" stroke-linecap="round"/>
  <circle cx="140" cy="216" r="5" fill="#eadfc9"/>
  <circle cx="220" cy="216" r="5" fill="#eadfc9"/>
  <path d="M138 235 L160 241" fill="none" stroke="#2d263c" stroke-width="5" stroke-linecap="round"/>
  <path d="M222 235 L200 241" fill="none" stroke="#2d263c" stroke-width="5" stroke-linecap="round"/>
  <circle cx="150" cy="252" r="13" fill="#e63946" stroke="#2d263c" stroke-width="5"/>
  <circle cx="210" cy="252" r="13" fill="#e63946" stroke="#2d263c" stroke-width="5"/>
  <circle cx="145" cy="247" r="3" fill="#ffffff"/>
  <circle cx="205" cy="247" r="3" fill="#ffffff"/>
  <path d="M165 280 Q180 300 195 280 Q180 292 165 280 Z" fill="#5a1a2b" stroke="#2d263c" stroke-width="4" stroke-linejoin="round"/>
</svg>
