<svg xmlns="http://www.w3.org/2000/svg" viewBox="0 0 360 360">
  <!-- 尻尾(体の後ろに少し見える) -->
  <ellipse cx="150" cy="228" rx="20" ry="14" fill="#8a4a29" stroke="#2d263c" stroke-width="7"/>

  <!-- 軸足(支え脚・長い) -->
  <line x1="200" y1="210" x2="208" y2="266" stroke="#2d263c" stroke-width="38" stroke-linecap="round"/>
  <line x1="200" y1="210" x2="208" y2="266" stroke="#b06a3e" stroke-width="30" stroke-linecap="round"/>
  <line x1="208" y1="266" x2="218" y2="318" stroke="#2d263c" stroke-width="34" stroke-linecap="round"/>
  <line x1="208" y1="266" x2="218" y2="318" stroke="#b06a3e" stroke-width="26" stroke-linecap="round"/>
  <ellipse cx="222" cy="323" rx="28" ry="15" fill="#8a4a29" stroke="#2d263c" stroke-width="7"/>

  <!-- キック脚(前に振り上げ) -->
  <line x1="160" y1="210" x2="123" y2="236" stroke="#2d263c" stroke-width="38" stroke-linecap="round"/>
  <line x1="160" y1="210" x2="123" y2="236" stroke="#b06a3e" stroke-width="30" stroke-linecap="round"/>
  <line x1="123" y1="236" x2="80" y2="222" stroke="#2d263c" stroke-width="32" stroke-linecap="round"/>
  <line x1="123" y1="236" x2="80" y2="222" stroke="#b06a3e" stroke-width="24" stroke-linecap="round"/>
  <ellipse cx="62" cy="217" rx="26" ry="15" fill="#8a4a29" stroke="#2d263c" stroke-width="7" transform="rotate(-15 62 217)"/>

  <!-- 胴体 -->
  <path d="M138,145 Q125,190 152,214 L208,214 Q235,190 222,145 Q200,112 180,112 Q160,112 138,145 Z" fill="#b06a3e" stroke="#2d263c" stroke-width="8" stroke-linejoin="round"/>

  <!-- お腹〜胸のクリーム色模様 -->
  <path d="M150,148 Q142,188 160,212 L200,212 Q218,188 210,148 Q180,128 150,148 Z" fill="#f5e1b8" stroke="#2d263c" stroke-width="6" stroke-linejoin="round"/>

  <!-- 左腕 -->
  <line x1="138" y1="148" x2="108" y2="172" stroke="#2d263c" stroke-width="30" stroke-linecap="round"/>
  <line x1="138" y1="148" x2="108" y2="172" stroke="#b06a3e" stroke-width="22" stroke-linecap="round"/>
  <line x1="108" y1="172" x2="128" y2="196" stroke="#2d263c" stroke-width="26" stroke-linecap="round"/>
  <line x1="108" y1="172" x2="128" y2="196" stroke="#b06a3e" stroke-width="18" stroke-linecap="round"/>
  <circle cx="130" cy="199" r="15" fill="#b06a3e" stroke="#2d263c" stroke-width="7"/>

  <!-- 右腕 -->
  <line x1="222" y1="148" x2="252" y2="168" stroke="#2d263c" stroke-width="30" stroke-linecap="round"/>
  <line x1="222" y1="148" x2="252" y2="168" stroke="#b06a3e" stroke-width="22" stroke-linecap="round"/>
  <line x1="252" y1="168" x2="233" y2="190" stroke="#2d263c" stroke-width="26" stroke-linecap="round"/>
  <line x1="252" y1="168" x2="233" y2="190" stroke="#b06a3e" stroke-width="18" stroke-linecap="round"/>
  <circle cx="231" cy="193" r="15" fill="#b06a3e" stroke="#2d263c" stroke-width="7"/>

  <!-- あご(少しとがった鼻先) -->
  <ellipse cx="180" cy="132" rx="20" ry="15" fill="#b06a3e" stroke="#2d263c" stroke-width="7"/>

  <!-- 頭 -->
  <circle cx="180" cy="95" r="44" fill="#b06a3e" stroke="#2d263c" stroke-width="8"/>

  <!-- 目 -->
  <ellipse cx="165" cy="90" rx="7" ry="9" fill="#2d263c"/>
  <ellipse cx="197" cy="90" rx="7" ry="9" fill="#2d263c"/>

  <!-- 口 -->
  <path d="M170,112 Q180,118 190,112" fill="none" stroke="#2d263c" stroke-width="5" stroke-linecap="round"/>
</svg>
