<svg xmlns="http://www.w3.org/2000/svg" viewBox="0 0 360 360">
<g stroke="#2d263c" stroke-width="7" stroke-linejoin="round" stroke-linecap="round" fill="none">
<path d="M140,305 Q104,300 100,255 Q95,205 130,165 Q155,185 180,185 Q205,185 230,165 Q265,205 260,255 Q256,300 220,305 Z" fill="#232a45"/>
<ellipse cx="180" cy="248" rx="46" ry="56" fill="#eef1e4"/>
<path d="M180,50 Q235,55 250,100 Q258,130 235,155 Q205,170 180,170 Q155,170 125,155 Q102,130 110,100 Q125,55 180,50 Z" fill="#232a45"/>
<path d="M118,95 Q88,110 78,150 Q95,145 118,130 Q128,110 118,95 Z" fill="#232a45"/>
<path d="M242,95 Q272,110 282,150 Q265,145 242,130 Q232,110 242,95 Z" fill="#232a45"/>
<path d="M140,55 L150,24 L165,58 L180,22 L195,58 L210,24 L222,55 Z" fill="#d0202a"/>
<path d="M128,168 Q180,195 232,168 L226,190 Q180,215 134,190 Z" fill="#d0202a"/>
<path d="M165,190 L195,190 L192,268 L204,298 L188,283 L172,298 L168,268 Z" fill="#d0202a"/>
<path d="M120,175 L110,160 L128,168 Z M240,175 L250,160 L232,168 Z" fill="#d0202a"/>
<path d="M138,195 Q95,205 82,245 Q76,262 92,268 Q108,258 118,238 Q130,215 138,195 Z" fill="#232a45"/>
<path d="M222,195 Q265,205 278,245 Q284,262 268,268 Q252,258 242,238 Q230,215 222,195 Z" fill="#232a45"/>
<path d="M85,255 L70,265 M92,265 L82,278 M100,270 L92,283" stroke-width="5"/>
<path d="M275,255 L290,265 M268,265 L278,278 M260,270 L268,283"/>
<path d="M150,300 Q132,320 110,332 Q135,340 160,327 Q168,310 158,300 Z" fill="#232a45"/>
<path d="M210,300 Q228,320 250,332 Q225,340 200,327 Q192,310 202,300 Z" fill="#232a45"/>
<path d="M108,325 L101,335 M120,328 L117,338 M132,324 L132,335" stroke-width="5"/>
<path d="M252,325 L259,335 M240,328 L243,338 M228,324 L228,335" stroke-width="5"/>
<ellipse cx="150" cy="100" rx="16" ry="20" fill="#f6d817"/>
<ellipse cx="210" cy="100" rx="16" ry="20" fill="#f6d817"/>
<ellipse cx="150" cy="104" rx="4" ry="13" fill="#1e1a2a" stroke-width="3"/>
<ellipse cx="210" cy="104" rx="4" ry="13" fill="#1e1a2a" stroke-width="3"/>
<path d="M128,110 Q120,122 130,130 Q138,120 132,108 Z" fill="#d0202a"/>
<path d="M232,110 Q240,122 230,130 Q222,120 228,108 Z" fill="#d0202a"/>
<path d="M155,140 Q180,150 205,140" stroke-width="6"/>
</g>
</svg>
