<svg xmlns="http://www.w3.org/2000/svg" viewBox="0 0 360 360">
  <ellipse cx="180" cy="90" rx="16" ry="42" fill="#ffe3c2" stroke="#2d263c" stroke-width="7"/>
  <ellipse cx="140" cy="100" rx="14" ry="38" fill="#ffe3c2" stroke="#2d263c" stroke-width="7" transform="rotate(-25 140 100)"/>
  <ellipse cx="220" cy="100" rx="14" ry="38" fill="#ffe3c2" stroke="#2d263c" stroke-width="7" transform="rotate(25 220 100)"/>
  <ellipse cx="105" cy="125" rx="13" ry="34" fill="#ffe3c2" stroke="#2d263c" stroke-width="7" transform="rotate(-50 105 125)"/>
  <ellipse cx="255" cy="125" rx="13" ry="34" fill="#ffe3c2" stroke="#2d263c" stroke-width="7" transform="rotate(50 255 125)"/>
  <ellipse cx="88" cy="168" rx="12" ry="28" fill="#ffe3c2" stroke="#2d263c" stroke-width="7" transform="rotate(-70 88 168)"/>
  <ellipse cx="272" cy="168" rx="12" ry="28" fill="#ffe3c2" stroke="#2d263c" stroke-width="7" transform="rotate(70 272 168)"/>
  <ellipse cx="180" cy="230" rx="95" ry="88" fill="#ff9dbb" stroke="#2d263c" stroke-width="8"/>
  <ellipse cx="180" cy="266" rx="55" ry="42" fill="#ffe3ec" stroke="#2d263c" stroke-width="6"/>
  <ellipse cx="88" cy="252" rx="22" ry="30" fill="#ff9dbb" stroke="#2d263c" stroke-width="6" transform="rotate(-20 88 252)"/>
  <ellipse cx="272" cy="252" rx="22" ry="30" fill="#ff9dbb" stroke="#2d263c" stroke-width="6" transform="rotate(20 272 252)"/>
  <ellipse cx="140" cy="318" rx="26" ry="18" fill="#ff9dbb" stroke="#2d263c" stroke-width="6"/>
  <ellipse cx="220" cy="318" rx="26" ry="18" fill="#ff9dbb" stroke="#2d263c" stroke-width="6"/>
  <circle cx="145" cy="205" r="22" fill="#ffffff" stroke="#2d263c" stroke-width="6"/>
  <circle cx="215" cy="205" r="22" fill="#ffffff" stroke="#2d263c" stroke-width="6"/>
  <circle cx="150" cy="209" r="11" fill="#2d263c"/>
  <circle cx="210" cy="209" r="11" fill="#2d263c"/>
  <circle cx="155" cy="202" r="4" fill="#ffffff"/>
  <circle cx="215" cy="202" r="4" fill="#ffffff"/>
  <circle cx="123" cy="226" r="12" fill="#ff8aa8" opacity="0.6"/>
  <circle cx="237" cy="226" r="12" fill="#ff8aa8" opacity="0.6"/>
  <path d="M162,236 Q180,250 198,236" fill="none" stroke="#2d263c" stroke-width="7" stroke-linecap="round"/>
</svg>
