<svg xmlns="http://www.w3.org/2000/svg" viewBox="0 0 360 360">
  <!-- 左つばさ(ギザギザ・かみなり羽根) -->
  <polygon points="115,170 62,146 78,168 33,156 55,190 24,186 50,215 28,235 56,248 44,272 85,258 100,225 110,236" fill="#F8D030" stroke="#2d263c" stroke-width="8" stroke-linejoin="round"/>
  <!-- 右つばさ(左のミラー) -->
  <polygon points="245,170 298,146 282,168 327,156 305,190 336,186 310,215 332,235 304,248 316,272 275,258 260,225 250,236" fill="#F8D030" stroke="#2d263c" stroke-width="8" stroke-linejoin="round"/>

  <!-- つばさ先の黒い羽根(左3枚) -->
  <polygon points="62,146 78,168 46,176" fill="#232030" stroke="#2d263c" stroke-width="6" stroke-linejoin="round"/>
  <polygon points="24,186 50,215 20,226" fill="#232030" stroke="#2d263c" stroke-width="6" stroke-linejoin="round"/>
  <polygon points="28,235 56,248 24,270" fill="#232030" stroke="#2d263c" stroke-width="6" stroke-linejoin="round"/>
  <!-- つばさ先の黒い羽根(右3枚・ミラー) -->
  <polygon points="298,146 282,168 314,176" fill="#232030" stroke="#2d263c" stroke-width="6" stroke-linejoin="round"/>
  <polygon points="336,186 310,215 340,226" fill="#232030" stroke="#2d263c" stroke-width="6" stroke-linejoin="round"/>
  <polygon points="332,235 304,248 336,270" fill="#232030" stroke="#2d263c" stroke-width="6" stroke-linejoin="round"/>

  <!-- しっぽ羽根(中央・左・右) -->
  <polygon points="172,250 182,273 168,278 188,300 170,306 190,322 176,322 162,296" fill="#F8D030" stroke="#2d263c" stroke-width="8" stroke-linejoin="round"/>
  <polygon points="144,248 154,268 140,273 158,290 142,296 160,312 148,312 134,288" fill="#F8D030" stroke="#2d263c" stroke-width="8" stroke-linejoin="round"/>
  <polygon points="216,248 206,268 220,273 202,290 218,296 200,312 212,312 226,288" fill="#F8D030" stroke="#2d263c" stroke-width="8" stroke-linejoin="round"/>

  <!-- しっぽ先の黒い部分 -->
  <polygon points="166,308 186,308 176,327" fill="#232030" stroke="#2d263c" stroke-width="6" stroke-linejoin="round"/>
  <polygon points="140,300 156,300 148,318" fill="#232030" stroke="#2d263c" stroke-width="6" stroke-linejoin="round"/>
  <polygon points="220,300 204,300 212,318" fill="#232030" stroke="#2d263c" stroke-width="6" stroke-linejoin="round"/>

  <!-- 足(左右のもも) -->
  <ellipse cx="155" cy="270" rx="15" ry="27" fill="#F8D030" stroke="#2d263c" stroke-width="7" stroke-linejoin="round"/>
  <ellipse cx="205" cy="270" rx="15" ry="27" fill="#F8D030" stroke="#2d263c" stroke-width="7" stroke-linejoin="round"/>
  <!-- 足(3本づめの足先・左右) -->
  <polygon points="144,296 140,320 152,300 155,326 158,300 170,318 166,296" fill="#F8D030" stroke="#2d263c" stroke-width="6" stroke-linejoin="round"/>
  <polygon points="216,296 220,320 208,300 205,326 202,300 190,318 194,296" fill="#F8D030" stroke="#2d263c" stroke-width="6" stroke-linejoin="round"/>

  <!-- 胴体 -->
  <ellipse cx="180" cy="205" rx="72" ry="65" fill="#F8D030" stroke="#2d263c" stroke-width="8" stroke-linejoin="round"/>
  <!-- 胸元のハイライト -->
  <ellipse cx="180" cy="222" rx="36" ry="38" fill="#FFEE85" stroke="none"/>

  <!-- 首 -->
  <polygon points="163,150 197,150 191,110 169,110" fill="#F8D030" stroke="#2d263c" stroke-width="8" stroke-linejoin="round"/>

  <!-- 頭 -->
  <ellipse cx="180" cy="100" rx="44" ry="42" fill="#F8D030" stroke="#2d263c" stroke-width="8" stroke-linejoin="round"/>

  <!-- 頭のかみなりトサカ(ギザギザ王冠) -->
  <polygon points="140,105 151,54 163,85 173,40 182,82 192,44 204,85 214,57 220,100" fill="#F8D030" stroke="#2d263c" stroke-width="8" stroke-linejoin="round"/>

  <!-- 目(左) -->
  <ellipse cx="162" cy="98" rx="10" ry="11" fill="#E8341C" stroke="#2d263c" stroke-width="6"/>
  <circle cx="159" cy="95" r="4" fill="#1a1a2e"/>
  <circle cx="161" cy="94" r="1.4" fill="white"/>

  <!-- 目(右) -->
  <ellipse cx="198" cy="98" rx="10" ry="11" fill="#E8341C" stroke="#2d263c" stroke-width="6"/>
  <circle cx="201" cy="95" r="4" fill="#1a1a2e"/>
  <circle cx="203" cy="94" r="1.4" fill="white"/>

  <!-- くちばし -->
  <polygon points="167,110 193,110 180,132" fill="#4a4a4a" stroke="#2d263c" stroke-width="6" stroke-linejoin="round"/>
</svg>
