<svg xmlns="http://www.w3.org/2000/svg" viewBox="0 0 360 360">
  <ellipse cx="180" cy="88" rx="16" ry="42" fill="#e6e2d3" stroke="#2d263c" stroke-width="7"/>
  <ellipse cx="138" cy="98" rx="14" ry="38" fill="#e6e2d3" stroke="#2d263c" stroke-width="7" transform="rotate(-25 138 98)"/>
  <ellipse cx="222" cy="98" rx="14" ry="38" fill="#dad5c4" stroke="#2d263c" stroke-width="7" transform="rotate(25 222 98)"/>
  <ellipse cx="102" cy="124" rx="13" ry="34" fill="#dad5c4" stroke="#2d263c" stroke-width="7" transform="rotate(-52 102 124)"/>
  <ellipse cx="258" cy="124" rx="13" ry="34" fill="#e6e2d3" stroke="#2d263c" stroke-width="7" transform="rotate(52 258 124)"/>
  <ellipse cx="84" cy="168" rx="12" ry="26" fill="#e6e2d3" stroke="#2d263c" stroke-width="7" transform="rotate(-72 84 168)"/>
  <ellipse cx="276" cy="168" rx="12" ry="26" fill="#dad5c4" stroke="#2d263c" stroke-width="7" transform="rotate(72 276 168)"/>
  <path d="M150,70 Q145,42 130,30 Q142,48 140,66 Z" fill="#7fa85c" stroke="#2d263c" stroke-width="5" stroke-linejoin="round"/>
  <path d="M186,62 Q192,32 210,18 Q196,40 198,60 Z" fill="#93bb6e" stroke="#2d263c" stroke-width="5" stroke-linejoin="round"/>
  <path d="M168,64 Q170,36 165,20 Q178,40 178,62 Z" fill="#7fa85c" stroke="#2d263c" stroke-width="5" stroke-linejoin="round"/>
  <ellipse cx="180" cy="232" rx="94" ry="86" fill="#d9d4c3" stroke="#2d263c" stroke-width="8"/>
  <ellipse cx="180" cy="268" rx="54" ry="40" fill="#c5c0ac" stroke="#2d263c" stroke-width="6"/>
  <ellipse cx="86" cy="252" rx="22" ry="28" fill="#d9d4c3" stroke="#2d263c" stroke-width="6" transform="rotate(-20 86 252)"/>
  <ellipse cx="274" cy="252" rx="22" ry="28" fill="#c5c0ac" stroke="#2d263c" stroke-width="6" transform="rotate(20 274 252)"/>
  <ellipse cx="140" cy="318" rx="26" ry="17" fill="#d9d4c3" stroke="#2d263c" stroke-width="6"/>
  <ellipse cx="220" cy="318" rx="26" ry="17" fill="#c5c0ac" stroke="#2d263c" stroke-width="6"/>
  <path d="M150,168 Q170,210 152,258" fill="none" stroke="#a9a390" stroke-width="4" stroke-linecap="round"/>
  <path d="M215,160 Q198,204 222,254" fill="none" stroke="#a9a390" stroke-width="4" stroke-linecap="round"/>
  <ellipse cx="144" cy="212" rx="19" ry="23" fill="#231f2e" stroke="#2d263c" stroke-width="5"/>
  <ellipse cx="216" cy="212" rx="19" ry="23" fill="#231f2e" stroke="#2d263c" stroke-width="5"/>
  <circle cx="149" cy="205" r="4" fill="#6a6478" opacity="0.8"/>
  <circle cx="221" cy="205" r="4" fill="#6a6478" opacity="0.8"/>
  <circle cx="112" cy="244" r="10" fill="#8fae6c" opacity="0.45"/>
  <circle cx="248" cy="244" r="10" fill="#8fae6c" opacity="0.45"/>
  <path d="M160,262 Q180,254 200,262" fill="none" stroke="#2d263c" stroke-width="6" stroke-linecap="round"/>
</svg>
