<svg xmlns="http://www.w3.org/2000/svg" viewBox="0 0 360 360">
<g stroke="#2d263c" stroke-width="7" stroke-linejoin="round" stroke-linecap="round">
<path d="M152 120 Q140 92 150 78" fill="none"/>
<path d="M208 120 Q220 92 210 78" fill="none"/>
<circle cx="150" cy="76" r="6" fill="#3a6db5"/>
<circle cx="210" cy="76" r="6" fill="#3a6db5"/>
<ellipse cx="180" cy="140" rx="48" ry="40" fill="#e8a040"/>
<circle cx="162" cy="135" r="12" fill="#ffffff"/>
<circle cx="198" cy="135" r="12" fill="#ffffff"/>
<circle cx="164" cy="137" r="6" fill="#2d263c"/>
<circle cx="200" cy="137" r="6" fill="#2d263c"/>
<path d="M148 168 L212 168 A13 13 0 0 1 225 181 A13 13 0 0 1 212 194 L148 194 A13 13 0 0 1 135 181 A13 13 0 0 1 148 168 Z" fill="#e8a040"/>
<path d="M148 198 L212 198 A13 13 0 0 1 225 211 A13 13 0 0 1 212 224 L148 224 A13 13 0 0 1 135 211 A13 13 0 0 1 148 198 Z" fill="#e8a040"/>
<path d="M155 228 L205 228 A13 13 0 0 1 218 241 A13 13 0 0 1 205 254 L155 254 A13 13 0 0 1 142 241 A13 13 0 0 1 155 228 Z" fill="#e8a040"/>
<circle cx="160" cy="181" r="5" fill="#3a6db5"/>
<circle cx="200" cy="181" r="5" fill="#3a6db5"/>
<circle cx="160" cy="211" r="5" fill="#3a6db5"/>
<circle cx="200" cy="211" r="5" fill="#3a6db5"/>
<path d="M135 185 Q120 186 118 196" fill="none"/>
<path d="M225 185 Q240 186 242 196" fill="none"/>
<path d="M135 215 Q120 216 118 226" fill="none"/>
<path d="M225 215 Q240 216 242 226" fill="none"/>
</g>
</svg>