<svg xmlns="http://www.w3.org/2000/svg" viewBox="0 0 360 360">
  <ellipse cx="180" cy="310" rx="134" ry="28" fill="#e0bd83" stroke="#2d263c" stroke-width="8" stroke-linejoin="round"/>
  <ellipse cx="180" cy="288" rx="116" ry="28" fill="#caa267" stroke="#2d263c" stroke-width="8" stroke-linejoin="round"/>
  <ellipse cx="180" cy="260" rx="100" ry="26" fill="#e0bd83" stroke="#2d263c" stroke-width="8" stroke-linejoin="round"/>
  <ellipse cx="180" cy="232" rx="84" ry="24" fill="#caa267" stroke="#2d263c" stroke-width="8" stroke-linejoin="round"/>
  <ellipse cx="180" cy="204" rx="68" ry="22" fill="#e0bd83" stroke="#2d263c" stroke-width="8" stroke-linejoin="round"/>
  <ellipse cx="180" cy="176" rx="54" ry="20" fill="#caa267" stroke="#2d263c" stroke-width="8" stroke-linejoin="round"/>
  <ellipse cx="180" cy="150" rx="42" ry="18" fill="#e0bd83" stroke="#2d263c" stroke-width="7" stroke-linejoin="round"/>
  <path d="M270,298 L302,290 L286,322 Z" fill="#caa267" stroke="#2d263c" stroke-width="7" stroke-linejoin="round"/>
  <ellipse cx="180" cy="260" rx="26" ry="13" fill="#7a8a4a" stroke="#2d263c" stroke-width="5" stroke-linejoin="round"/>
  <ellipse cx="180" cy="232" rx="22" ry="12" fill="#7a8a4a" stroke="#2d263c" stroke-width="5" stroke-linejoin="round"/>
  <ellipse cx="180" cy="204" rx="18" ry="11" fill="#7a8a4a" stroke="#2d263c" stroke-width="5" stroke-linejoin="round"/>
  <ellipse cx="180" cy="176" rx="14" ry="9" fill="#7a8a4a" stroke="#2d263c" stroke-width="5" stroke-linejoin="round"/>
  <ellipse cx="180" cy="100" rx="58" ry="50" fill="#e0bd83" stroke="#2d263c" stroke-width="8" stroke-linejoin="round"/>
  <ellipse cx="150" cy="48" rx="12" ry="9" fill="#e0bd83" stroke="#2d263c" stroke-width="6" stroke-linejoin="round"/>
  <ellipse cx="180" cy="42" rx="12" ry="10" fill="#e0bd83" stroke="#2d263c" stroke-width="6" stroke-linejoin="round"/>
  <ellipse cx="210" cy="48" rx="12" ry="9" fill="#e0bd83" stroke="#2d263c" stroke-width="6" stroke-linejoin="round"/>
  <ellipse cx="155" cy="90" rx="14" ry="16" fill="#fbf3e0" stroke="#2d263c" stroke-width="6" stroke-linejoin="round"/>
  <ellipse cx="205" cy="90" rx="14" ry="16" fill="#fbf3e0" stroke="#2d263c" stroke-width="6" stroke-linejoin="round"/>
  <circle cx="155" cy="93" r="6" fill="#2d263c"/>
  <circle cx="205" cy="93" r="6" fill="#2d263c"/>
  <circle cx="165" cy="70" r="4" fill="#2d263c"/>
  <circle cx="195" cy="70" r="4" fill="#2d263c"/>
  <ellipse cx="180" cy="138" rx="32" ry="13" fill="#3a2a20" stroke="#2d263c" stroke-width="6" stroke-linejoin="round"/>
  <path d="M159,134 L169,134 L162,158 Z" fill="#fbf3e0" stroke="#2d263c" stroke-width="5" stroke-linejoin="round"/>
  <path d="M201,134 L191,134 L198,158 Z" fill="#fbf3e0" stroke="#2d263c" stroke-width="5" stroke-linejoin="round"/>
  <path d="M180,148 L172,170 L180,158 L188,170 Z" fill="#c0392b" stroke="#2d263c" stroke-width="5" stroke-linejoin="round"/>
</svg>
