<svg xmlns="http://www.w3.org/2000/svg" viewBox="0 0 360 360">
  <!-- 尾びれ -->
  <path d="M64 180 L24 142 L42 180 L24 218 Z" fill="#8A6440" stroke="#2d263c" stroke-width="7" stroke-linejoin="round"/>
  <!-- 体 -->
  <path d="M60 180 Q120 110 250 150 Q300 168 306 180 Q300 200 250 210 Q120 250 60 180Z" fill="#A8723E" stroke="#2d263c" stroke-width="8" stroke-linejoin="round"/>
  <!-- 腹(明色) -->
  <path d="M82 196 Q150 236 250 206 Q288 196 298 188" fill="none" stroke="#E8C890" stroke-width="22" stroke-linecap="round"/>
  <!-- 背びれ -->
  <path d="M150 130 L170 96 L196 130 Z" fill="#8A5E34" stroke="#2d263c" stroke-width="7" stroke-linejoin="round"/>
  <!-- 胸びれ -->
  <path d="M150 196 L120 230 L168 214 Z" fill="#8A5E34" stroke="#2d263c" stroke-width="7" stroke-linejoin="round"/>
  <!-- 長いあご先 -->
  <path d="M250 150 Q298 168 330 176 Q322 184 296 188 Q268 190 250 188" fill="#C99A5C" stroke="#2d263c" stroke-width="7" stroke-linejoin="round"/>
  <!-- 歯 -->
  <path d="M276 178 L280 188 M288 178 L292 188 M300 178 L304 187" fill="none" stroke="#2d263c" stroke-width="4" stroke-linecap="round"/>
  <!-- 目 -->
  <ellipse cx="240" cy="158" rx="18" ry="20" fill="#F2F2F2" stroke="#2d263c" stroke-width="6"/>
  <ellipse cx="242" cy="160" rx="8" ry="11" fill="#241f2e"/>
  <circle cx="238" cy="154" r="4" fill="#ffffff"/>
  <!-- えら -->
  <path d="M196 160 Q188 180 196 200" fill="none" stroke="#2d263c" stroke-width="5" stroke-linecap="round"/>
</svg>
