<svg xmlns="http://www.w3.org/2000/svg" viewBox="0 0 360 360"><g stroke="#2d263c" stroke-width="7" stroke-linejoin="round" stroke-linecap="round"><path d="M300 165 L334 142 L318 178 L336 188 L312 205 L330 232 L298 230 Z" fill="#f7d22c"/><path d="M252 235 L246 305 L268 308 L266 240 Z" fill="#f7d22c"/><path d="M165 235 L162 304 L184 306 L180 238 Z" fill="#f7d22c"/><path d="M175 140 L196 112 L205 138 L232 118 L236 146 L268 130 L266 158 L302 152 L288 180 L316 196 L286 208 L300 238 L264 234 L252 262 L226 246 L196 258 L182 232 L160 226 Z" fill="#f7d22c"/><path d="M282 230 L290 312 Q291 320 300 318 L312 314 L306 232 Z" fill="#f7d22c"/><path d="M128 228 L124 308 Q124 316 134 315 L148 312 L150 232 Z" fill="#f7d22c"/><path d="M152 196 L176 178 L186 200 L212 188 L210 214 L236 214 L218 236 L196 252 L178 236 L156 240 L160 218 Z" fill="#ffffff"/><path d="M86 42 L122 118 L66 130 Z" fill="#f7d22c"/><path d="M196 36 L206 112 L150 102 Z" fill="#f7d22c"/><path d="M90 60 L104 100 L78 106 Z" fill="#5d5470"/><path d="M192 56 L198 98 L164 92 Z" fill="#5d5470"/><path d="M118 96 L142 78 L158 102 L186 104 L182 132 L204 152 L182 168 L188 196 L158 192 L150 216 L128 198 L98 210 L104 182 L74 176 L96 156 L78 132 L106 128 Z" fill="#f7d22c"/><ellipse cx="116" cy="146" rx="11" ry="14" fill="#2d263c" stroke-width="5"/><ellipse cx="168" cy="142" rx="11" ry="15" fill="#2d263c" stroke-width="5"/><circle cx="120" cy="141" r="3.5" fill="#ffffff" stroke="none"/><circle cx="172" cy="137" r="3.5" fill="#ffffff" stroke="none"/><path d="M138 168 L148 168 L143 175 Z" fill="#2d263c" stroke-width="4"/><path d="M130 183 Q142 193 154 182" fill="none" stroke-width="5"/></g></svg>