<svg xmlns="http://www.w3.org/2000/svg" viewBox="0 0 360 360">
  <!-- tail (behind body) -->
  <path d="M245 250 Q 300 260 310 220 Q 316 200 295 205 Q 270 212 250 230 Z" fill="#8d8d99" stroke="#2d263c" stroke-width="7" stroke-linejoin="round" stroke-linecap="round"/>

  <!-- back arm (behind, left side) -->
  <path d="M120 205 Q 90 215 82 250 Q 78 268 96 268 Q 112 266 118 245 Q 122 222 120 205 Z" fill="#82828e" stroke="#2d263c" stroke-width="7" stroke-linejoin="round" stroke-linecap="round"/>

  <!-- back leg (behind, left) -->
  <path d="M145 265 Q 130 290 128 315 Q 127 330 148 330 Q 165 329 166 312 Q 168 288 162 265 Z" fill="#82828e" stroke="#2d263c" stroke-width="7" stroke-linejoin="round" stroke-linecap="round"/>

  <!-- main body -->
  <path d="M130 130 Q 108 165 112 205 Q 116 250 150 280 Q 185 300 225 285 Q 258 270 262 225 Q 265 180 245 145 Q 225 112 185 105 Q 152 103 130 130 Z" fill="#9a9aa6" stroke="#2d263c" stroke-width="8" stroke-linejoin="round" stroke-linecap="round"/>

  <!-- belly patch -->
  <path d="M158 175 Q 150 210 165 245 Q 178 268 200 268 Q 218 266 222 240 Q 224 205 210 178 Q 195 158 175 160 Q 163 162 158 175 Z" fill="#e9dfc4" stroke="#2d263c" stroke-width="6" stroke-linejoin="round" stroke-linecap="round"/>

  <!-- back spikes -->
  <path d="M175 108 L 185 84 L 196 108 Z" fill="#6f6f7c" stroke="#2d263c" stroke-width="6" stroke-linejoin="round" stroke-linecap="round"/>
  <path d="M200 112 L 212 90 L 222 114 Z" fill="#6f6f7c" stroke="#2d263c" stroke-width="6" stroke-linejoin="round" stroke-linecap="round"/>
  <path d="M222 122 L 236 102 L 244 128 Z" fill="#6f6f7c" stroke="#2d263c" stroke-width="6" stroke-linejoin="round" stroke-linecap="round"/>

  <!-- front leg (right, in front) -->
  <path d="M205 270 Q 198 300 200 325 Q 202 340 222 340 Q 240 340 240 322 Q 240 296 232 268 Z" fill="#9a9aa6" stroke="#2d263c" stroke-width="8" stroke-linejoin="round" stroke-linecap="round"/>
  <!-- front leg claws -->
  <path d="M202 336 L 198 348 M212 339 L 210 350 M224 340 L 224 351 M235 337 L 238 349" stroke="#2d263c" stroke-width="6" stroke-linecap="round"/>

  <!-- back leg claws -->
  <path d="M133 326 L 129 337 M144 329 L 143 340 M155 329 L 156 340 M164 325 L 167 336" stroke="#2d263c" stroke-width="6" stroke-linecap="round"/>

  <!-- front arm (right, in front) -->
  <path d="M240 175 Q 272 182 282 215 Q 288 235 270 238 Q 252 238 246 216 Q 240 195 240 175 Z" fill="#9a9aa6" stroke="#2d263c" stroke-width="7" stroke-linejoin="round" stroke-linecap="round"/>
  <!-- front arm claws -->
  <path d="M262 234 L 258 246 M272 232 L 271 244 M280 224 L 284 234" stroke="#2d263c" stroke-width="6" stroke-linecap="round"/>

  <!-- head -->
  <path d="M118 95 Q 100 75 112 55 Q 128 35 158 38 Q 190 40 200 65 Q 208 85 195 100 Q 170 118 140 112 Q 125 108 118 95 Z" fill="#9a9aa6" stroke="#2d263c" stroke-width="8" stroke-linejoin="round" stroke-linecap="round"/>

  <!-- brow ridges -->
  <path d="M108 68 Q 118 55 132 58" fill="none" stroke="#2d263c" stroke-width="7" stroke-linecap="round"/>
  <path d="M150 45 Q 165 38 178 46" fill="none" stroke="#2d263c" stroke-width="7" stroke-linecap="round"/>

  <!-- nose horn -->
  <path d="M100 92 Q 62 96 40 100 Q 30 102 32 112 Q 36 120 50 118 Q 78 112 104 104 Z" fill="#c9c9d2" stroke="#2d263c" stroke-width="7" stroke-linejoin="round" stroke-linecap="round"/>

  <!-- nostril -->
  <circle cx="95" cy="99" r="4" fill="#2d263c"/>

  <!-- eyes -->
  <circle cx="138" cy="72" r="8" fill="#2d263c"/>
  <circle cx="172" cy="65" r="8" fill="#2d263c"/>

  <!-- mouth -->
  <path d="M132 96 Q 150 106 172 92" fill="none" stroke="#2d263c" stroke-width="6" stroke-linecap="round"/>

  <!-- body bump texture -->
  <circle cx="205" cy="150" r="6" fill="#82828e" stroke="#2d263c" stroke-width="4"/>
  <circle cx="230" cy="200" r="7" fill="#82828e" stroke="#2d263c" stroke-width="4"/>
  <circle cx="150" cy="230" r="6" fill="#82828e" stroke="#2d263c" stroke-width="4"/>
</svg>
