<svg xmlns="http://www.w3.org/2000/svg" viewBox="0 0 360 360">
  <!-- 翼(後ろ) -->
  <path d="M80,190 Q30,120 55,70 Q70,110 90,130 Q60,100 100,160 Z" fill="#2a1a6e" stroke="#2d263c" stroke-width="7" stroke-linejoin="round"/>
  <path d="M280,190 Q330,120 305,70 Q290,110 270,130 Q300,100 260,160 Z" fill="#2a1a6e" stroke="#2d263c" stroke-width="7" stroke-linejoin="round"/>
  <!-- 翼の内側膜ライン -->
  <path d="M85,175 Q50,125 65,85" fill="none" stroke="#3d2a8e" stroke-width="3"/>
  <path d="M275,175 Q310,125 295,85" fill="none" stroke="#3d2a8e" stroke-width="3"/>

  <!-- 体 -->
  <ellipse cx="180" cy="230" rx="68" ry="80" fill="#1a1845" stroke="#2d263c" stroke-width="8"/>
  <!-- 腹の模様 -->
  <ellipse cx="180" cy="240" rx="42" ry="52" fill="#2d2060"/>

  <!-- 左の小首ふさふさ(赤毛) -->
  <ellipse cx="112" cy="190" rx="28" ry="22" fill="#cc2222" stroke="#2d263c" stroke-width="6"/>
  <!-- 右の小首ふさふさ -->
  <ellipse cx="248" cy="190" rx="28" ry="22" fill="#cc2222" stroke="#2d263c" stroke-width="6"/>

  <!-- 左サブ頭 -->
  <ellipse cx="108" cy="162" rx="26" ry="22" fill="#1a1845" stroke="#2d263c" stroke-width="7"/>
  <!-- 右サブ頭 -->
  <ellipse cx="252" cy="162" rx="26" ry="22" fill="#1a1845" stroke="#2d263c" stroke-width="7"/>

  <!-- 左サブ頭の目 -->
  <ellipse cx="101" cy="158" rx="7" ry="6" fill="#ff2200"/>
  <ellipse cx="116" cy="158" rx="7" ry="6" fill="#ff2200"/>
  <circle cx="101" cy="158" r="3" fill="#330000"/>
  <circle cx="116" cy="158" r="3" fill="#330000"/>
  <!-- 左サブ頭の怒り眉 -->
  <line x1="97" y1="151" x2="105" y2="153" stroke="#2d263c" stroke-width="3" stroke-linecap="round"/>
  <line x1="113" y1="151" x2="120" y2="153" stroke="#2d263c" stroke-width="3" stroke-linecap="round"/>

  <!-- 右サブ頭の目 -->
  <ellipse cx="244" cy="158" rx="7" ry="6" fill="#ff2200"/>
  <ellipse cx="259" cy="158" rx="7" ry="6" fill="#ff2200"/>
  <circle cx="244" cy="158" r="3" fill="#330000"/>
  <circle cx="259" cy="158" r="3" fill="#330000"/>
  <!-- 右サブ頭の怒り眉 -->
  <line x1="240" y1="151" x2="248" y2="153" stroke="#2d263c" stroke-width="3" stroke-linecap="round"/>
  <line x1="256" y1="151" x2="263" y2="153" stroke="#2d263c" stroke-width="3" stroke-linecap="round"/>

  <!-- 首の赤毛(メイン) -->
  <ellipse cx="180" cy="195" rx="38" ry="28" fill="#cc2222" stroke="#2d263c" stroke-width="6"/>

  <!-- メイン頭 -->
  <ellipse cx="180" cy="155" rx="50" ry="45" fill="#1a1845" stroke="#2d263c" stroke-width="8"/>

  <!-- 頭の角 -->
  <path d="M155,118 Q145,88 152,72 Q158,95 163,108 Z" fill="#1a1845" stroke="#2d263c" stroke-width="6" stroke-linejoin="round"/>
  <path d="M205,118 Q215,88 208,72 Q202,95 197,108 Z" fill="#1a1845" stroke="#2d263c" stroke-width="6" stroke-linejoin="round"/>
  <!-- 耳っぽいひれ -->
  <path d="M138,138 Q118,122 122,108 Q132,122 142,132 Z" fill="#2a1a6e" stroke="#2d263c" stroke-width="5"/>
  <path d="M222,138 Q242,122 238,108 Q228,122 218,132 Z" fill="#2a1a6e" stroke="#2d263c" stroke-width="5"/>

  <!-- メイン頭の目 -->
  <ellipse cx="162" cy="152" rx="11" ry="10" fill="#ff2200"/>
  <ellipse cx="198" cy="152" rx="11" ry="10" fill="#ff2200"/>
  <circle cx="162" cy="152" r="5" fill="#220000"/>
  <circle cx="198" cy="152" r="5" fill="#220000"/>
  <!-- 白目ハイライト -->
  <circle cx="165" cy="149" r="2.5" fill="white"/>
  <circle cx="201" cy="149" r="2.5" fill="white"/>
  <!-- 怒り眉(メイン) -->
  <path d="M152,141 Q163,136 172,140" fill="none" stroke="#2d263c" stroke-width="4" stroke-linecap="round"/>
  <path d="M188,140 Q197,136 208,141" fill="none" stroke="#2d263c" stroke-width="4" stroke-linecap="round"/>

  <!-- 口 -->
  <path d="M170,170 Q180,178 190,170" fill="none" stroke="#2d263c" stroke-width="4" stroke-linecap="round"/>

  <!-- 左の手×3本 -->
  <line x1="126" y1="232" x2="100" y2="248" stroke="#1a1845" stroke-width="10" stroke-linecap="round"/>
  <line x1="118" y1="248" x2="92" y2="268" stroke="#1a1845" stroke-width="10" stroke-linecap="round"/>
  <line x1="124" y1="262" x2="102" y2="284" stroke="#1a1845" stroke-width="10" stroke-linecap="round"/>
  <!-- 左手先 -->
  <circle cx="97" cy="250" r="9" fill="#1a1845" stroke="#2d263c" stroke-width="5"/>
  <circle cx="88" cy="270" r="9" fill="#1a1845" stroke="#2d263c" stroke-width="5"/>
  <circle cx="99" cy="287" r="9" fill="#1a1845" stroke="#2d263c" stroke-width="5"/>

  <!-- 右の手×3本 -->
  <line x1="234" y1="232" x2="260" y2="248" stroke="#1a1845" stroke-width="10" stroke-linecap="round"/>
  <line x1="242" y1="248" x2="268" y2="268" stroke="#1a1845" stroke-width="10" stroke-linecap="round"/>
  <line x1="236" y1="262" x2="258" y2="284" stroke="#1a1845" stroke-width="10" stroke-linecap="round"/>
  <!-- 右手先 -->
  <circle cx="263" cy="250" r="9" fill="#1a1845" stroke="#2d263c" stroke-width="5"/>
  <circle cx="272" cy="270" r="9" fill="#1a1845" stroke="#2d263c" stroke-width="5"/>
  <circle cx="261" cy="287" r="9" fill="#1a1845" stroke="#2d263c" stroke-width="5"/>

  <!-- しっぽ -->
  <path d="M165,305 Q150,330 160,345 Q170,325 175,308 Z" fill="#1a1845" stroke="#2d263c" stroke-width="6" stroke-linejoin="round"/>
  <path d="M195,305 Q210,330 200,345 Q190,325 185,308 Z" fill="#1a1845" stroke="#2d263c" stroke-width="6" stroke-linejoin="round"/>
  <!-- しっぽの先の赤 -->
  <ellipse cx="160" cy="343" rx="9" ry="7" fill="#cc2222" stroke="#2d263c" stroke-width="4"/>
  <ellipse cx="200" cy="343" rx="9" ry="7" fill="#cc2222" stroke="#2d263c" stroke-width="4"/>
</svg>