<svg xmlns="http://www.w3.org/2000/svg" viewBox="0 0 360 360">
  <!-- 後ろのトゲ(首まわり) -->
  <polygon points="140,155 128,115 148,148" fill="#F0C800" stroke="#2d263c" stroke-width="6" stroke-linejoin="round"/>
  <polygon points="155,148 148,105 162,145" fill="#F0C800" stroke="#2d263c" stroke-width="6" stroke-linejoin="round"/>
  <polygon points="170,142 168,98 180,140" fill="#F0C800" stroke="#2d263c" stroke-width="6" stroke-linejoin="round"/>
  <polygon points="186,143 190,100 196,142" fill="#F0C800" stroke="#2d263c" stroke-width="6" stroke-linejoin="round"/>
  <polygon points="200,148 210,108 212,148" fill="#F0C800" stroke="#2d263c" stroke-width="6" stroke-linejoin="round"/>
  <polygon points="215,156 228,118 225,155" fill="#F0C800" stroke="#2d263c" stroke-width="6" stroke-linejoin="round"/>

  <!-- 背中のトゲ -->
  <polygon points="148,200 130,165 155,195" fill="#F0C800" stroke="#2d263c" stroke-width="6" stroke-linejoin="round"/>
  <polygon points="145,215 122,182 150,210" fill="#F0C800" stroke="#2d263c" stroke-width="6" stroke-linejoin="round"/>
  <polygon points="218,200 238,165 212,195" fill="#F0C800" stroke="#2d263c" stroke-width="6" stroke-linejoin="round"/>
  <polygon points="220,215 242,180 216,210" fill="#F0C800" stroke="#2d263c" stroke-width="6" stroke-linejoin="round"/>

  <!-- しっぽ(ギザギザ星型) -->
  <polygon points="270,230 280,210 262,218 272,198 252,208 258,190 240,204 248,222 230,218 245,232 235,248 255,240 260,258 268,242 285,248" fill="#F8D030" stroke="#2d263c" stroke-width="7" stroke-linejoin="round"/>

  <!-- 胴体 -->
  <ellipse cx="180" cy="230" rx="68" ry="72" fill="#F8D030" stroke="#2d263c" stroke-width="8" stroke-linejoin="round"/>

  <!-- 腹(クリーム色) -->
  <ellipse cx="180" cy="248" rx="38" ry="42" fill="#FFFDE0" stroke="#2d263c" stroke-width="5"/>

  <!-- 後ろ足(左) -->
  <ellipse cx="148" cy="298" rx="18" ry="26" fill="#F8D030" stroke="#2d263c" stroke-width="7" stroke-linejoin="round"/>
  <ellipse cx="148" cy="318" rx="22" ry="12" fill="#F8D030" stroke="#2d263c" stroke-width="6" stroke-linejoin="round"/>

  <!-- 後ろ足(右) -->
  <ellipse cx="212" cy="298" rx="18" ry="26" fill="#F8D030" stroke="#2d263c" stroke-width="7" stroke-linejoin="round"/>
  <ellipse cx="212" cy="318" rx="22" ry="12" fill="#F8D030" stroke="#2d263c" stroke-width="6" stroke-linejoin="round"/>

  <!-- 前足(左) -->
  <ellipse cx="152" cy="268" rx="14" ry="20" fill="#F8D030" stroke="#2d263c" stroke-width="7" stroke-linejoin="round"/>

  <!-- 前足(右) -->
  <ellipse cx="208" cy="268" rx="14" ry="20" fill="#F8D030" stroke="#2d263c" stroke-width="7" stroke-linejoin="round"/>

  <!-- 頭 -->
  <ellipse cx="180" cy="170" rx="52" ry="50" fill="#F8D030" stroke="#2d263c" stroke-width="8" stroke-linejoin="round"/>

  <!-- 耳(左) -->
  <polygon points="140,148 126,95 162,140" fill="#F8D030" stroke="#2d263c" stroke-width="7" stroke-linejoin="round"/>
  <polygon points="143,146 132,105 158,140" fill="#FFB7C5" stroke="none"/>

  <!-- 耳(右) -->
  <polygon points="220,148 238,95 200,140" fill="#F8D030" stroke="#2d263c" stroke-width="7" stroke-linejoin="round"/>
  <polygon points="218,146 232,105 204,140" fill="#FFB7C5" stroke="none"/>

  <!-- 目(左) -->
  <ellipse cx="163" cy="168" rx="11" ry="12" fill="#1a1a2e" stroke="#2d263c" stroke-width="3"/>
  <ellipse cx="159" cy="165" rx="4" ry="4" fill="white"/>

  <!-- 目(右) -->
  <ellipse cx="197" cy="168" rx="11" ry="12" fill="#1a1a2e" stroke="#2d263c" stroke-width="3"/>
  <ellipse cx="193" cy="165" rx="4" ry="4" fill="white"/>

  <!-- 鼻 -->
  <ellipse cx="180" cy="180" rx="5" ry="4" fill="#2d263c"/>

  <!-- 口(ちょっとキリッと) -->
  <path d="M170,188 Q180,196 190,188" fill="none" stroke="#2d263c" stroke-width="5" stroke-linecap="round"/>

  <!-- ほっぺ(赤み) -->
  <ellipse cx="148" cy="182" rx="12" ry="8" fill="#FF8080" fill-opacity="0.55"/>
  <ellipse cx="212" cy="182" rx="12" ry="8" fill="#FF8080" fill-opacity="0.55"/>
</svg>