<svg xmlns="http://www.w3.org/2000/svg" viewBox="0 0 360 360">
  <ellipse cx="180" cy="320" rx="70" ry="14" fill="#2d263c" opacity="0.15"/>

  <!-- left arm (behind body) -->
  <path d="M110 190 Q60 175 50 130 Q46 110 62 108 Q72 106 74 122 Q80 150 118 165 Z" fill="#7cb342" stroke="#2d263c" stroke-width="7" stroke-linejoin="round"/>
  <path d="M62 122 L46 108 M70 140 L52 132 M78 156 L58 152" stroke="#2d263c" stroke-width="6" stroke-linecap="round"/>

  <!-- right arm (behind body) -->
  <path d="M250 190 Q300 175 310 130 Q314 110 298 108 Q288 106 286 122 Q280 150 242 165 Z" fill="#7cb342" stroke="#2d263c" stroke-width="7" stroke-linejoin="round"/>
  <path d="M298 122 L314 108 M290 140 L308 132 M282 156 L302 152" stroke="#2d263c" stroke-width="6" stroke-linecap="round"/>

  <!-- feet -->
  <ellipse cx="150" cy="308" rx="26" ry="16" fill="#4f8a35" stroke="#2d263c" stroke-width="7"/>
  <ellipse cx="212" cy="308" rx="26" ry="16" fill="#4f8a35" stroke="#2d263c" stroke-width="7"/>

  <!-- body: round barrel cactus -->
  <path d="M180 90 C250 90 268 150 262 210 C256 270 220 300 180 300 C140 300 104 270 98 210 C92 150 110 90 180 90 Z" fill="#8bc34a" stroke="#2d263c" stroke-width="8" stroke-linejoin="round"/>

  <!-- belly lighter patch -->
  <path d="M180 150 C210 150 222 190 218 230 C214 262 198 275 180 275 C162 275 146 262 142 230 C138 190 150 150 180 150 Z" fill="#c5e1a5"/>

  <!-- body spike ridges -->
  <path d="M132 150 L124 138 M138 190 L128 182 M150 230 L140 226 M228 150 L236 138 M222 190 L232 182 M210 230 L220 226" stroke="#2d263c" stroke-width="6" stroke-linecap="round"/>

  <!-- head crest / star crown -->
  <path d="M180 90 L172 50 L164 78 L142 56 L156 84 L128 74 L150 96 M180 90 L188 50 L196 78 L218 56 L204 84 L232 74 L210 96" fill="#d94f3b" stroke="#2d263c" stroke-width="7" stroke-linejoin="round" stroke-linecap="round"/>

  <!-- eyes -->
  <circle cx="152" cy="175" r="20" fill="#fff8ec" stroke="#2d263c" stroke-width="6"/>
  <circle cx="208" cy="175" r="20" fill="#fff8ec" stroke="#2d263c" stroke-width="6"/>
  <circle cx="156" cy="180" r="9" fill="#2d263c"/>
  <circle cx="204" cy="180" r="9" fill="#2d263c"/>

  <!-- grin mouth with teeth -->
  <path d="M148 218 Q180 250 212 218 Q182 236 148 218 Z" fill="#4a2a1a" stroke="#2d263c" stroke-width="7" stroke-linejoin="round"/>
  <path d="M168 224 L172 236 M180 228 L180 240 M192 224 L188 236" stroke="#fff8ec" stroke-width="6" stroke-linecap="round"/>
</svg>
