<svg xmlns="http://www.w3.org/2000/svg" viewBox="0 0 360 360">
  <path d="M88,118 L58,30 L128,92 Z" fill="#F8D030" stroke="#2d263c" stroke-width="7" stroke-linejoin="round" stroke-linecap="round"/>
  <path d="M138,96 L186,26 L182,112 Z" fill="#F8D030" stroke="#2d263c" stroke-width="7" stroke-linejoin="round" stroke-linecap="round"/>
  <path d="M84,100 L70,52 L106,86 Z" fill="#564a73" stroke="#2d263c" stroke-width="5" stroke-linejoin="round"/>
  <path d="M153,90 L172,54 L169,97 Z" fill="#564a73" stroke="#2d263c" stroke-width="5" stroke-linejoin="round"/>
  <path d="M242,252 L236,330 L262,331 L262,256 Z" fill="#F8D030" stroke="#2d263c" stroke-width="7" stroke-linejoin="round" stroke-linecap="round"/>
  <path d="M280,244 L290,328 L313,324 L300,242 Z" fill="#F8D030" stroke="#2d263c" stroke-width="7" stroke-linejoin="round" stroke-linecap="round"/>
  <path d="M150,250 L144,327 L168,328 L170,254 Z" fill="#F8D030" stroke="#2d263c" stroke-width="7" stroke-linejoin="round" stroke-linecap="round"/>
  <path d="M188,254 L186,330 L210,330 L208,256 Z" fill="#F8D030" stroke="#2d263c" stroke-width="7" stroke-linejoin="round" stroke-linecap="round"/>
  <path d="M152,186 L182,158 L192,184 L222,154 L232,182 L260,162 L268,186 L304,170 L286,198 L322,206 L292,222 L314,246 L278,248 C268,272 244,280 214,278 C188,276 158,272 150,250 C142,230 144,206 152,186 Z" fill="#F8D030" stroke="#2d263c" stroke-width="7" stroke-linejoin="round" stroke-linecap="round"/>
  <path d="M148,160 L176,176 L198,156 L200,188 L228,192 L204,210 L216,236 L186,226 L174,252 L158,226 L128,234 L144,206 L122,192 L148,184 Z" fill="#ffffff" stroke="#2d263c" stroke-width="7" stroke-linejoin="round" stroke-linecap="round"/>
  <path d="M122,88 C145,84 168,100 172,124 C176,146 170,162 158,174 C146,186 116,192 100,184 L82,198 L88,172 C70,165 64,150 68,132 L50,128 L72,112 C78,96 100,90 122,88 Z" fill="#F8D030" stroke="#2d263c" stroke-width="7" stroke-linejoin="round" stroke-linecap="round"/>
  <ellipse cx="101" cy="136" rx="11" ry="14" fill="#ffffff" stroke="#2d263c" stroke-width="5"/>
  <ellipse cx="148" cy="139" rx="11" ry="14" fill="#ffffff" stroke="#2d263c" stroke-width="5"/>
  <circle cx="103" cy="139" r="6" fill="#2d263c"/>
  <circle cx="146" cy="142" r="6" fill="#2d263c"/>
  <circle cx="105" cy="136" r="2" fill="#ffffff"/>
  <circle cx="148" cy="139" r="2" fill="#ffffff"/>
  <path d="M116,156 L130,156 L123,165 Z" fill="#2d263c" stroke="#2d263c" stroke-width="3" stroke-linejoin="round"/>
  <path d="M108,172 Q116,179 124,172 Q132,179 140,172" fill="none" stroke="#2d263c" stroke-width="5" stroke-linecap="round"/>
</svg>