<svg xmlns="http://www.w3.org/2000/svg" viewBox="0 0 360 360">
  <path d="M 250 260 Q 298 248 308 200 Q 314 178 300 190 Q 288 212 268 222 Q 258 232 250 262 Z" fill="#6b4226" stroke="#2d263c" stroke-width="7" stroke-linejoin="round"/>
  <polygon points="118,150 128,108 138,150 149,102 160,150 171,98 182,150 193,98 204,150 215,102 226,150 237,108 246,150" fill="#6b4226" stroke="#2d263c" stroke-width="6" stroke-linejoin="round"/>
  <ellipse cx="150" cy="300" rx="28" ry="35" fill="#e8b64a" stroke="#2d263c" stroke-width="7"/>
  <ellipse cx="216" cy="300" rx="28" ry="35" fill="#e8b64a" stroke="#2d263c" stroke-width="7"/>
  <path d="M130 325 L124 340 M145 331 L145 346 M162 327 L167 341" stroke="#2d263c" stroke-width="6" stroke-linecap="round" fill="none"/>
  <path d="M196 325 L192 340 M211 331 L211 346 M230 327 L234 341" stroke="#2d263c" stroke-width="6" stroke-linecap="round" fill="none"/>
  <ellipse cx="180" cy="215" rx="85" ry="95" fill="#e8b64a" stroke="#2d263c" stroke-width="8"/>
  <ellipse cx="180" cy="238" rx="50" ry="58" fill="#fbe8c0" stroke="#2d263c" stroke-width="6"/>
  <ellipse cx="95" cy="222" rx="25" ry="45" fill="#e8b64a" stroke="#2d263c" stroke-width="7" transform="rotate(-15 95 222)"/>
  <ellipse cx="266" cy="222" rx="25" ry="45" fill="#e8b64a" stroke="#2d263c" stroke-width="7" transform="rotate(15 266 222)"/>
  <path d="M74 256 L64 266 M85 266 L79 279 M100 261 L97 276" stroke="#2d263c" stroke-width="6" stroke-linecap="round" fill="none"/>
  <path d="M286 256 L296 266 M275 266 L281 279 M260 261 L263 276" stroke="#2d263c" stroke-width="6" stroke-linecap="round" fill="none"/>
  <circle cx="180" cy="120" r="62" fill="#e8b64a" stroke="#2d263c" stroke-width="8"/>
  <circle cx="128" cy="80" r="24" fill="#e8b64a" stroke="#2d263c" stroke-width="7"/>
  <circle cx="232" cy="80" r="24" fill="#e8b64a" stroke="#2d263c" stroke-width="7"/>
  <circle cx="128" cy="83" r="12" fill="#fbe8c0"/>
  <circle cx="232" cy="83" r="12" fill="#fbe8c0"/>
  <ellipse cx="180" cy="150" rx="38" ry="26" fill="#fbe8c0" stroke="#2d263c" stroke-width="7"/>
  <ellipse cx="180" cy="153" rx="6" ry="4" fill="#2d263c"/>
  <circle cx="150" cy="105" r="8" fill="#2d263c"/>
  <circle cx="210" cy="105" r="8" fill="#2d263c"/>
  <path d="M165 166 Q180 173 195 166" stroke="#2d263c" stroke-width="6" stroke-linecap="round" fill="none"/>
  <polygon points="150,55 158,24 166,55" fill="#6b4226" stroke="#2d263c" stroke-width="6" stroke-linejoin="round"/>
  <polygon points="195,55 203,21 211,55" fill="#6b4226" stroke="#2d263c" stroke-width="6" stroke-linejoin="round"/>
</svg>
