<svg xmlns="http://www.w3.org/2000/svg" viewBox="0 0 360 360">
  <!-- 影(後ろ) -->
  <ellipse cx="180" cy="322" rx="46" ry="12" fill="#3a3350" opacity="0.25"/>

  <!-- 体(さなぎ状・上すぼまり&下先細りのシルエット) -->
  <path d="M160 55 Q180 36 200 55 Q234 84 250 138 Q258 186 238 228 Q220 270 180 322 Q140 270 122 228 Q102 186 110 138 Q126 84 160 55Z" fill="#96A96E" stroke="#2d263c" stroke-width="8" stroke-linejoin="round" stroke-linecap="round"/>

  <!-- 頭部の濃い模様(額) -->
  <path d="M150 70 Q180 52 210 70 Q216 90 200 100 Q180 112 160 100 Q144 90 150 70Z" fill="#748556" stroke="#2d263c" stroke-width="5" stroke-linejoin="round"/>

  <!-- 体の節目ライン(上) -->
  <path d="M120 140 Q150 156 180 156 Q210 156 240 140" fill="none" stroke="#2d263c" stroke-width="6" stroke-linecap="round"/>
  <!-- 体の節目ライン(中) -->
  <path d="M115 190 Q148 208 180 208 Q212 208 245 190" fill="none" stroke="#2d263c" stroke-width="6" stroke-linecap="round"/>
  <!-- 体の節目ライン(下) -->
  <path d="M128 240 Q154 254 180 254 Q206 254 232 240" fill="none" stroke="#2d263c" stroke-width="6" stroke-linecap="round"/>

  <!-- 節の濃淡(帯) -->
  <path d="M122 148 Q150 162 180 162 Q210 162 238 148 Q210 170 180 170 Q150 170 122 148Z" fill="#7C8F5C" opacity="0.7"/>
  <path d="M117 198 Q148 214 180 214 Q212 214 243 198 Q212 220 180 220 Q148 220 117 198Z" fill="#7C8F5C" opacity="0.7"/>

  <!-- 側面の丸いイボ模様(上段) -->
  <circle cx="118" cy="150" r="9" fill="#748556" stroke="#2d263c" stroke-width="4"/>
  <circle cx="242" cy="150" r="9" fill="#748556" stroke="#2d263c" stroke-width="4"/>
  <!-- 側面の丸いイボ模様(中段) -->
  <circle cx="112" cy="200" r="9" fill="#748556" stroke="#2d263c" stroke-width="4"/>
  <circle cx="248" cy="200" r="9" fill="#748556" stroke="#2d263c" stroke-width="4"/>
  <!-- 側面の丸いイボ模様(下段) -->
  <circle cx="126" cy="248" r="8" fill="#748556" stroke="#2d263c" stroke-width="4"/>
  <circle cx="234" cy="248" r="8" fill="#748556" stroke="#2d263c" stroke-width="4"/>

  <!-- ハイライト -->
  <path d="M148 90 Q140 130 148 170" fill="none" stroke="#B8C98F" stroke-width="8" stroke-linecap="round" opacity="0.6"/>

  <!-- 目 左(するどい赤目) -->
  <path d="M140 84 Q152 76 166 84 Q160 94 148 94 Q140 90 140 84Z" fill="#E31E24" stroke="#2d263c" stroke-width="5" stroke-linejoin="round"/>
  <!-- 目 右(するどい赤目) -->
  <path d="M194 84 Q208 76 220 84 Q220 90 212 94 Q200 94 194 84Z" fill="#E31E24" stroke="#2d263c" stroke-width="5" stroke-linejoin="round"/>
</svg>
