<svg xmlns="http://www.w3.org/2000/svg" viewBox="0 0 360 360">
  <g stroke="#2d263c" stroke-width="7" stroke-linejoin="round" stroke-linecap="round">
    <path d="M120,95 C112,60 116,40 132,38 C140,58 146,80 148,100" fill="#b08a3a"/>
    <path d="M240,95 C248,60 244,40 228,38 C220,58 214,80 212,100" fill="#b08a3a"/>
    <path d="M180,70 C230,70 256,100 256,142 C256,172 236,192 180,192 C124,192 104,172 104,142 C104,100 130,70 180,70 Z" fill="#c9a23f"/>
    <path d="M180,152 C206,152 220,166 214,184 C202,194 158,194 146,184 C140,166 154,152 180,152 Z" fill="#d9bd56"/>
    <path d="M122,186 C110,232 110,278 132,308 L228,308 C250,278 250,232 238,186 Z" fill="#b08a3a"/>
    <path d="M142,302 C142,330 136,342 130,340 C124,338 126,318 130,300" fill="#94732f"/>
    <path d="M218,302 C218,330 224,342 230,340 C236,338 234,318 230,300" fill="#94732f"/>
  </g>
  <ellipse cx="150" cy="132" rx="9" ry="12" fill="#f0a83a" stroke="#2d263c" stroke-width="6"/>
  <ellipse cx="210" cy="132" rx="9" ry="12" fill="#f0a83a" stroke="#2d263c" stroke-width="6"/>
  <ellipse cx="180" cy="170" rx="8" ry="6" fill="#2d263c"/>
  <g stroke="#2d263c" stroke-width="7" stroke-linejoin="round">
    <path d="M180,196 C242,196 262,222 262,246 C262,280 232,300 180,310 C128,300 98,280 98,246 C98,222 118,196 180,196 Z" fill="#e8c64a"/>
    <path d="M180,214 C228,214 246,234 246,246 C246,272 220,288 180,294 C140,288 114,272 114,246 C114,234 132,214 180,214 Z" fill="#b8862e"/>
    <path d="M180,234 L166,256 L180,284 L194,256 Z" fill="#e8c64a"/>
  </g>
</svg>
