<svg xmlns="http://www.w3.org/2000/svg" viewBox="0 0 360 360">
  <g stroke="#2d263c" stroke-width="7" stroke-linejoin="round" stroke-linecap="round">
    <path d="M255,200 C292,180 314,150 300,118 C288,148 280,178 263,198" fill="#e8d39a"/>
    <path d="M155,205 C145,172 173,158 210,158 C255,158 290,170 293,210 C296,245 268,265 220,265 C172,265 162,242 155,205 Z" fill="#e6cd8f"/>
    <path d="M175,250 C177,275 173,298 165,308 C157,298 158,278 163,258" fill="#d9bd72"/>
    <path d="M205,255 C207,278 203,300 195,310 C187,300 188,280 193,262" fill="#d9bd72"/>
    <path d="M265,253 C267,276 263,299 255,309 C247,299 248,279 253,261" fill="#d9bd72"/>
    <path d="M285,248 C289,270 287,295 279,305 C272,295 273,275 277,258" fill="#d9bd72"/>
    <path d="M205,160 C195,148 197,138 184,136 C182,150 187,160 193,166" fill="#e7a8c0"/>
    <path d="M240,162 C230,150 232,140 219,138 C217,152 222,162 228,168" fill="#e7a8c0"/>
    <path d="M275,165 C265,153 267,143 254,141 C252,155 257,165 263,171" fill="#e7a8c0"/>
    <path d="M150,170 C127,160 102,165 90,185 C82,200 88,222 105,230 C120,236 138,230 150,218 C160,208 162,186 150,170 Z" fill="#e6cd8f"/>
    <path d="M132,162 C124,144 120,134 130,129 C138,139 144,152 146,162" fill="#d9bd72"/>
    <path d="M157,156 C154,139 156,126 167,124 C170,136 168,150 164,160" fill="#d9bd72"/>
    <path d="M105,210 C92,212 84,220 88,230 C96,234 110,230 118,223" fill="#e6cd8f"/>
    <path d="M92,224 L42,196 L38,205 L88,232 Z" fill="#f4e7a0"/>
    <path d="M92,224 L100,220 L104,228 L96,232 Z" fill="#d4a93a"/>
    <path d="M100,220 L112,213 L116,221 L104,228 Z" fill="#8a5a3a"/>
  </g>
  <ellipse cx="125" cy="190" rx="7" ry="9" fill="#7fd0e6" stroke="#2d263c" stroke-width="6"/>
  <circle cx="88" cy="222" r="5" fill="#2d263c"/>
</svg>
