<svg xmlns="http://www.w3.org/2000/svg" viewBox="0 0 360 360">
  <g stroke="#2d263c" stroke-width="7" stroke-linejoin="round" stroke-linecap="round">
    <circle cx="104" cy="120" r="30" fill="#3a3742"/>
    <circle cx="256" cy="120" r="30" fill="#3a3742"/>
    <path d="M180,166 C220,166 240,200 240,246 C240,286 220,316 180,316 C140,316 120,286 120,246 C120,200 140,166 180,166 Z" fill="#3a3742"/>
    <path d="M150,302 C148,324 138,338 124,336 C124,320 132,306 142,300" fill="#2c2a33"/>
    <path d="M210,302 C212,324 222,338 236,336 C236,320 228,306 218,300" fill="#2c2a33"/>
    <path d="M124,206 C100,226 88,260 96,292 C112,276 124,256 134,236" fill="#3a3742"/>
    <path d="M236,206 C260,226 272,260 264,292 C248,276 236,256 226,236" fill="#3a3742"/>
    <path d="M180,80 C222,80 246,106 246,140 C246,166 222,184 180,184 C138,184 114,166 114,140 C114,106 138,80 180,80 Z" fill="#3a3742"/>
    <path d="M120,176 C140,202 220,202 240,176 C246,196 236,216 216,219 C200,206 160,206 144,219 C124,216 114,196 120,176 Z" fill="#4ea65a"/>
    <path d="M150,182 C145,162 150,152 160,152 C162,166 158,180 152,184" fill="#5cba68"/>
    <path d="M210,182 C215,162 210,152 200,152 C198,166 202,180 208,184" fill="#5cba68"/>
  </g>
  <ellipse cx="155" cy="140" rx="10" ry="13" fill="#7fd84d" stroke="#2d263c" stroke-width="6"/>
  <ellipse cx="205" cy="140" rx="10" ry="13" fill="#7fd84d" stroke="#2d263c" stroke-width="6"/>
  <circle cx="156" cy="143" r="4.5" fill="#2d263c"/>
  <circle cx="206" cy="143" r="4.5" fill="#2d263c"/>
  <ellipse cx="180" cy="160" rx="10" ry="6" fill="#221f29"/>
  <path d="M168,170 Q180,176 192,170" fill="none" stroke="#2d263c" stroke-width="6" stroke-linecap="round"/>
  <path d="M96,292 L88,304 M102,294 L96,307 M110,292 L106,305" stroke="#2d263c" stroke-width="6" stroke-linecap="round" fill="none"/>
  <path d="M264,292 L272,304 M258,294 L264,307 M250,292 L254,305" stroke="#2d263c" stroke-width="6" stroke-linecap="round" fill="none"/>
</svg>
