<svg xmlns="http://www.w3.org/2000/svg" viewBox="0 0 360 360">
  <g stroke="#2d263c" stroke-width="7" stroke-linejoin="round" stroke-linecap="round">
    <path d="M200 232 C 262 212, 308 238, 297 264 C 286 286, 234 288, 203 271 Z" fill="#7AC9E6"/>
    <path d="M284 248 L336 203 L321 250 L337 297 L281 273 Z" fill="#7AC9E6"/>
    <path d="M212 228 L224 211 L236 224 L250 209 L261 224 L274 213 L281 231 Z" fill="#2f76b5"/>
    <path d="M128 104 L58 48 L90 130 Z" fill="#2f76b5"/>
    <path d="M218 100 L294 42 L258 126 Z" fill="#2f76b5"/>
    <path d="M138 86 L150 44 L165 80 L178 36 L193 79 L207 50 L214 88 Z" fill="#2f76b5"/>
    <path d="M140 262 L137 300 Q137 311 148 311 Q158 311 158 301 L158 264 Z" fill="#7AC9E6"/>
    <path d="M196 264 L194 302 Q194 311 205 311 Q215 311 214 300 L210 262 Z" fill="#7AC9E6"/>
    <path d="M128 198 C 108 246, 112 286, 152 297 C 184 305, 218 298, 229 274 C 240 250, 233 218, 215 198 Z" fill="#7AC9E6"/>
    <path d="M104 201 Q112 166 139 181 Q149 157 172 176 Q190 154 209 179 Q233 163 241 197 Q247 224 219 227 Q180 239 141 231 Q107 229 104 201 Z" fill="#f6f1dc"/>
    <path d="M115 130 C 111 91, 139 67, 175 69 C 212 71, 236 96, 231 133 C 227 165, 201 183, 169 181 C 138 179, 118 162, 115 130 Z" fill="#7AC9E6"/>
    <ellipse cx="149" cy="122" rx="9" ry="13" fill="#2d263c" stroke="none"/>
    <ellipse cx="199" cy="119" rx="10" ry="13" fill="#2d263c" stroke="none"/>
    <circle cx="152" cy="117" r="3.2" fill="#ffffff" stroke="none"/>
    <circle cx="202" cy="114" r="3.2" fill="#ffffff" stroke="none"/>
    <path d="M170 141 L179 141 L174.5 147 Z" fill="#2d263c" stroke="none"/>
    <path d="M158 154 Q166 163 174 156 Q182 164 191 153" fill="none"/>
  </g>
</svg>