<svg xmlns="http://www.w3.org/2000/svg" viewBox="0 0 360 360">
  <!-- しっぽ(渦巻き・後ろ側) -->
  <path d="M195 225 Q230 235 235 265 Q238 292 210 300 Q185 306 175 285 Q168 268 185 260 Q198 254 200 268Z" fill="#3E86D6" stroke="#2d263c" stroke-width="8" stroke-linejoin="round" stroke-linecap="round"/>
  <path d="M198 262 Q206 270 200 278" fill="none" stroke="#2d263c" stroke-width="4" stroke-linecap="round"/>

  <!-- 背びれ(トゲトゲ・首から尾にかけて/後ろ側) -->
  <path d="M215 108 L232 122 L216 136 L234 150 L216 165 L232 180 L214 195 L228 210 L205 222 Q198 200 205 175 Q212 150 202 128 Q198 116 215 108Z" fill="#245A9E" stroke="#2d263c" stroke-width="7" stroke-linejoin="round" stroke-linecap="round"/>

  <!-- 体(頭〜胴、S字) -->
  <path d="M165 130 Q140 118 148 95 Q158 72 185 78 Q205 84 202 108 Q212 125 205 148 Q216 168 208 192 Q214 215 192 225 Q170 232 158 212 Q148 195 158 178 Q148 160 165 130Z" fill="#3E86D6" stroke="#2d263c" stroke-width="8" stroke-linejoin="round" stroke-linecap="round"/>

  <!-- 頭のトサカ(小さいトゲ) -->
  <path d="M178 80 Q185 52 195 80 Q188 90 178 80Z" fill="#245A9E" stroke="#2d263c" stroke-width="6" stroke-linejoin="round" stroke-linecap="round"/>

  <!-- 口先(管状の吻) -->
  <path d="M158 100 Q130 98 110 110 Q102 115 108 122 Q114 128 124 123 Q142 116 160 112Z" fill="#3E86D6" stroke="#2d263c" stroke-width="7" stroke-linejoin="round" stroke-linecap="round"/>
  <ellipse cx="112" cy="115" rx="4" ry="3" fill="#1B1B24"/>

  <!-- 胸びれ(小さい) -->
  <path d="M148 150 Q125 145 118 160 Q130 168 145 162 Q152 158 148 150Z" fill="#7CC4F2" stroke="#2d263c" stroke-width="6" stroke-linejoin="round" stroke-linecap="round"/>

  <!-- 腹の模様(明るい部分) -->
  <ellipse cx="180" cy="172" rx="14" ry="38" fill="#BFE3FA" stroke="#2d263c" stroke-width="3"/>

  <!-- 目 -->
  <ellipse cx="190" cy="90" rx="9" ry="10" fill="#FFFFFF" stroke="#2d263c" stroke-width="4"/>
  <ellipse cx="193" cy="90" rx="4" ry="5" fill="#1B1B24"/>

  <!-- えらの模様 -->
  <path d="M165 118 Q173 125 165 132" fill="none" stroke="#2d263c" stroke-width="4" stroke-linecap="round"/>
</svg>
