<svg xmlns="http://www.w3.org/2000/svg" viewBox="0 0 360 360">
  <path d="M170,190 C130,150 70,130 35,160 C55,205 105,225 165,220 Z" fill="#3f6ea3" stroke="#2d263c" stroke-width="7" stroke-linejoin="round" stroke-linecap="round"/>
  <path d="M190,190 C230,150 290,130 325,160 C305,205 255,225 195,220 Z" fill="#3f6ea3" stroke="#2d263c" stroke-width="7" stroke-linejoin="round" stroke-linecap="round"/>
  <polygon points="90,160 108,175 90,192 72,175" fill="#8fc2e6"/>
  <polygon points="270,160 252,175 270,192 288,175" fill="#8fc2e6"/>
  <path d="M145,175 C145,150 215,150 215,175 L222,290 C222,315 195,325 180,325 C165,325 138,315 138,290 Z" fill="#262626" stroke="#2d263c" stroke-width="8" stroke-linejoin="round" stroke-linecap="round"/>
  <ellipse cx="180" cy="115" rx="100" ry="58" fill="#dff1f5" stroke="#2d263c" stroke-width="8" stroke-linejoin="round" stroke-linecap="round"/>
  <path d="M115,100 C150,80 210,80 245,100 C210,116 150,116 115,100 Z" fill="#262626" stroke="#2d263c" stroke-width="6" stroke-linejoin="round" stroke-linecap="round"/>
  <ellipse cx="150" cy="123" rx="20" ry="9" fill="#d64545"/>
  <ellipse cx="210" cy="123" rx="20" ry="9" fill="#d64545"/>
  <circle cx="150" cy="123" r="4" fill="#262626"/>
  <circle cx="210" cy="123" r="4" fill="#262626"/>
  <path d="M175,140 L185,140 L180,156 Z" fill="#f2a93b" stroke="#2d263c" stroke-width="6" stroke-linejoin="round" stroke-linecap="round"/>
  <ellipse cx="140" cy="90" rx="25" ry="14" fill="#ffffff" opacity="0.5"/>
</svg>
