<svg xmlns="http://www.w3.org/2000/svg" viewBox="0 0 360 360">
<ellipse cx="180" cy="212" rx="86" ry="76" fill="#f5b8d0" stroke="#2d263c" stroke-width="8" stroke-linejoin="round"/>
<ellipse cx="108" cy="182" rx="36" ry="31" fill="#f5b8d0" stroke="#2d263c" stroke-width="6"/>
<ellipse cx="252" cy="182" rx="36" ry="31" fill="#f5b8d0" stroke="#2d263c" stroke-width="6"/>
<ellipse cx="138" cy="292" rx="18" ry="26" fill="#e890b0" stroke="#2d263c" stroke-width="6"/>
<ellipse cx="222" cy="292" rx="18" ry="26" fill="#e890b0" stroke="#2d263c" stroke-width="6"/>
<ellipse cx="180" cy="162" rx="52" ry="46" fill="#f8c8dc" stroke="#2d263c" stroke-width="7"/>
<path d="M148 132 Q168 116 196 126 L186 142 Q166 142 148 132 Z" fill="#f0a0c0" stroke="#2d263c" stroke-width="5" stroke-linejoin="round"/>
<path d="M176 138 L212 112" stroke="#e8c050" stroke-width="6" stroke-linecap="round"/>
<circle cx="164" cy="158" r="7" fill="#2d263c"/>
<circle cx="202" cy="158" r="7" fill="#2d263c"/>
<circle cx="166" cy="155" r="2" fill="#fff"/>
<circle cx="204" cy="155" r="2" fill="#fff"/>
<path d="M170 178 Q180 186 190 178" fill="none" stroke="#2d263c" stroke-width="4" stroke-linecap="round"/>
<circle cx="120" cy="100" r="8" fill="#f0d048" stroke="#2d263c" stroke-width="3"/>
</svg>
