<svg xmlns="http://www.w3.org/2000/svg" viewBox="0 0 360 360">
  <polygon points="165,300 180,335 195,300" fill="#5c81a8" stroke="#2d263c" stroke-width="7" stroke-linejoin="round"/>
  <ellipse cx="180" cy="225" rx="90" ry="78" fill="#f5eeda" stroke="#2d263c" stroke-width="8"/>
  <ellipse cx="180" cy="240" rx="45" ry="35" fill="#fffbf0" stroke="#2d263c" stroke-width="6"/>
  <circle cx="88" cy="185" r="40" fill="#5c81a8" stroke="#2d263c" stroke-width="8"/>
  <circle cx="272" cy="185" r="40" fill="#5c81a8" stroke="#2d263c" stroke-width="8"/>
  <polygon points="60,155 50,110 90,145" fill="#2d263c" stroke="#2d263c" stroke-width="6" stroke-linejoin="round"/>
  <polygon points="300,155 310,110 270,145" fill="#2d263c" stroke="#2d263c" stroke-width="6" stroke-linejoin="round"/>
  <circle cx="88" cy="185" r="6" fill="#2d263c"/>
  <circle cx="272" cy="185" r="6" fill="#2d263c"/>
  <ellipse cx="145" cy="300" rx="22" ry="14" fill="#5c81a8" stroke="#2d263c" stroke-width="7"/>
  <ellipse cx="215" cy="300" rx="22" ry="14" fill="#5c81a8" stroke="#2d263c" stroke-width="7"/>
  <ellipse cx="145" cy="312" rx="14" ry="8" fill="#2d263c"/>
  <ellipse cx="215" cy="312" rx="14" ry="8" fill="#2d263c"/>
  <polygon points="90,150 130,130 280,300 250,320" fill="#e8934f" stroke="#2d263c" stroke-width="7" stroke-linejoin="round"/>
  <polygon points="250,320 275,300 260,335" fill="#2d263c" stroke="#2d263c" stroke-width="6" stroke-linejoin="round"/>
  <polygon points="270,150 230,130 80,300 110,320" fill="#e8934f" stroke="#2d263c" stroke-width="7" stroke-linejoin="round"/>
  <polygon points="110,320 85,300 100,335" fill="#2d263c" stroke="#2d263c" stroke-width="6" stroke-linejoin="round"/>
  <circle cx="105" cy="140" r="12" fill="#e8934f" stroke="#2d263c" stroke-width="7"/>
  <circle cx="255" cy="140" r="12" fill="#e8934f" stroke="#2d263c" stroke-width="7"/>
  <circle cx="180" cy="225" r="10" fill="#2d263c"/>
  <circle cx="180" cy="125" r="58" fill="#5c81a8" stroke="#2d263c" stroke-width="8"/>
  <polygon points="170,70 180,40 190,70" fill="#2d263c" stroke="#2d263c" stroke-width="6" stroke-linejoin="round"/>
  <rect x="128" y="112" width="104" height="28" rx="14" fill="#cc3d3d" stroke="#2d263c" stroke-width="7"/>
  <circle cx="155" cy="126" r="9" fill="#fff" stroke="#2d263c" stroke-width="6"/>
  <circle cx="205" cy="126" r="9" fill="#fff" stroke="#2d263c" stroke-width="6"/>
  <circle cx="155" cy="126" r="4" fill="#2d263c"/>
  <circle cx="205" cy="126" r="4" fill="#2d263c"/>
</svg>
