<svg xmlns="http://www.w3.org/2000/svg" viewBox="0 0 360 360">
  <circle cx="105" cy="245" r="50" fill="#9c6b3f" stroke="#2d263c" stroke-width="7" stroke-linejoin="round"/>
  <ellipse cx="90" cy="230" rx="17" ry="13" fill="#7a4d28" stroke="#2d263c" stroke-width="6" stroke-linejoin="round"/>
  <ellipse cx="122" cy="262" rx="13" ry="10" fill="#7a4d28" stroke="#2d263c" stroke-width="6" stroke-linejoin="round"/>
  <circle cx="75" cy="258" r="5" fill="#6e4322" stroke="#2d263c" stroke-width="6" stroke-linejoin="round"/>
  <circle cx="130" cy="222" r="4" fill="#6e4322" stroke="#2d263c" stroke-width="6" stroke-linejoin="round"/>
  <path d="M120,285 Q98,262 98,220" fill="none" stroke="#2d263c" stroke-width="8" stroke-linecap="round"/>
  <path d="M150,292 Q138,266 128,236" fill="none" stroke="#2d263c" stroke-width="8" stroke-linecap="round"/>
  <circle cx="215" cy="150" r="95" fill="#9ccc65" stroke="#2d263c" stroke-width="8" stroke-linejoin="round"/>
  <path d="M300,150 A85,85 0 0 1 130,150 A60,60 0 0 0 250,150 A40,40 0 0 1 170,150 A25,25 0 0 0 220,150 A12,12 0 0 1 196,150"
        fill="none" stroke="#5f8f38" stroke-width="7" stroke-linecap="round" stroke-linejoin="round"/>
  <path d="M262,98 Q274,150 258,192" fill="none" stroke="#5f8f38" stroke-width="6" stroke-linecap="round"/>
  <path d="M180,72 Q160,150 178,220" fill="none" stroke="#5f8f38" stroke-width="6" stroke-linecap="round"/>
  <circle cx="150" cy="255" r="42" fill="#b6e28a" stroke="#2d263c" stroke-width="7" stroke-linejoin="round"/>
  <circle cx="132" cy="245" r="11" fill="#ffffff" stroke="#2d263c" stroke-width="6" stroke-linejoin="round"/>
  <circle cx="168" cy="245" r="11" fill="#ffffff" stroke="#2d263c" stroke-width="6" stroke-linejoin="round"/>
  <circle cx="132" cy="248" r="5" fill="#2d263c"/>
  <circle cx="168" cy="248" r="5" fill="#2d263c"/>
  <path d="M138,278 Q150,286 162,278" fill="none" stroke="#2d263c" stroke-width="7" stroke-linecap="round"/>
  <ellipse cx="138" cy="300" rx="15" ry="10" fill="#9ccc65" stroke="#2d263c" stroke-width="7" stroke-linejoin="round"/>
  <ellipse cx="176" cy="298" rx="15" ry="10" fill="#9ccc65" stroke="#2d263c" stroke-width="7" stroke-linejoin="round"/>
</svg>
