<svg xmlns="http://www.w3.org/2000/svg" viewBox="0 0 360 360">

  <!-- 炎(後ろ層): 頭頂の大炎 -->
  <ellipse cx="178" cy="68" rx="28" ry="44" fill="#9b59d0" stroke="#2d263c" stroke-width="6" stroke-linejoin="round"/>
  <ellipse cx="178" cy="58" rx="16" ry="30" fill="#c8a5f0"/>
  <ellipse cx="168" cy="52" rx="8" ry="18" fill="#e8e0ff"/>

  <!-- 左腕の炎(後ろ) -->
  <ellipse cx="72" cy="148" rx="20" ry="32" fill="#9b59d0" stroke="#2d263c" stroke-width="6" stroke-linejoin="round"/>
  <ellipse cx="72" cy="138" rx="11" ry="20" fill="#c8a5f0"/>
  <ellipse cx="68" cy="132" rx="6" ry="12" fill="#e8e0ff"/>

  <!-- 右腕の炎(後ろ) -->
  <ellipse cx="290" cy="143" rx="22" ry="34" fill="#9b59d0" stroke="#2d263c" stroke-width="6" stroke-linejoin="round"/>
  <ellipse cx="290" cy="133" rx="12" ry="21" fill="#c8a5f0"/>
  <ellipse cx="286" cy="126" rx="7" ry="13" fill="#e8e0ff"/>

  <!-- 左腕(うねった腕) -->
  <path d="M148 195 Q100 180 85 160 Q68 138 72 118 Q76 100 88 108 Q95 115 90 132 Q85 148 100 158 Q118 170 140 178" fill="#1a1a2e" stroke="#2d263c" stroke-width="8" stroke-linejoin="round" stroke-linecap="round"/>

  <!-- 右腕(うねった腕) -->
  <path d="M210 190 Q258 172 272 152 Q290 128 286 110 Q282 94 270 104 Q263 112 268 130 Q273 148 256 160 Q238 172 216 182" fill="#1a1a2e" stroke="#2d263c" stroke-width="8" stroke-linejoin="round" stroke-linecap="round"/>

  <!-- 胴体下部(ランプの吊り下がり部分) -->
  <path d="M158 278 Q155 300 162 315 Q168 328 180 330 Q192 330 198 315 Q205 300 202 278 Z" fill="#2a2040" stroke="#2d263c" stroke-width="7" stroke-linejoin="round"/>

  <!-- 装飾リング(六角形ランプ枠) -->
  <polygon points="160,248 145,260 145,276 160,284 200,284 215,276 215,260 200,248" fill="#3d3060" stroke="#2d263c" stroke-width="6" stroke-linejoin="round"/>
  <!-- リングの内側ハイライト -->
  <polygon points="165,252 152,262 152,272 165,280 195,280 208,272 208,262 195,252" fill="none" stroke="#6a5aad" stroke-width="2.5"/>

  <!-- 本体(大きな黒い球) -->
  <ellipse cx="180" cy="195" rx="72" ry="65" fill="#1a1a2e" stroke="#2d263c" stroke-width="8" stroke-linejoin="round"/>

  <!-- 本体の光沢(ちょっとだけ) -->
  <ellipse cx="158" cy="168" rx="18" ry="12" fill="#2d2450" opacity="0.7"/>

  <!-- 顔: 目(黄色い大きな目) -->
  <!-- 左目 -->
  <ellipse cx="158" cy="198" rx="22" ry="18" fill="#f5e642" stroke="#2d263c" stroke-width="5"/>
  <ellipse cx="162" cy="200" rx="11" ry="10" fill="#1a1a2e"/>
  <ellipse cx="165" cy="197" rx="4" ry="4" fill="#f5e642"/>
  <!-- 左目の輝き -->
  <ellipse cx="155" cy="193" rx="4" ry="3" fill="white" opacity="0.8"/>

  <!-- 右目 -->
  <ellipse cx="204" cy="196" rx="20" ry="19" fill="#f5e642" stroke="#2d263c" stroke-width="5"/>
  <ellipse cx="208" cy="198" rx="10" ry="11" fill="#1a1a2e"/>
  <ellipse cx="211" cy="195" rx="4" ry="4" fill="#f5e642"/>
  <!-- 右目の輝き -->
  <ellipse cx="200" cy="191" rx="4" ry="3" fill="white" opacity="0.8"/>

  <!-- 口(ニヤリとした不気味な笑み) -->
  <path d="M160 222 Q172 232 180 233 Q188 232 200 222" fill="none" stroke="#2d263c" stroke-width="5" stroke-linecap="round"/>
  <!-- 牙(小さい) -->
  <line x1="170" y1="223" x2="168" y2="230" stroke="#2d263c" stroke-width="4" stroke-linecap="round"/>
  <line x1="191" y1="223" x2="192" y2="230" stroke="#2d263c" stroke-width="4" stroke-linecap="round"/>

  <!-- 眉(ちょっとつり上がり) -->
  <path d="M140 183 Q152 177 165 182" fill="none" stroke="#2d263c" stroke-width="5" stroke-linecap="round"/>
  <path d="M195 181 Q208 176 220 182" fill="none" stroke="#2d263c" stroke-width="5" stroke-linecap="round"/>

  <!-- 頭頂の炎の根元(体との接合) -->
  <ellipse cx="178" cy="135" rx="22" ry="14" fill="#1a1a2e" stroke="#2d263c" stroke-width="6"/>

</svg>