<svg xmlns="http://www.w3.org/2000/svg" viewBox="0 0 360 360">
  <g stroke="#2d263c" stroke-width="6" stroke-linecap="round" fill="none">
    <path d="M150 232 L94 212 L78 228"/>
    <path d="M150 244 L84 250 L76 270"/>
    <path d="M210 232 L266 212 L282 228"/>
    <path d="M210 244 L276 250 L284 270"/>
    <path d="M168 250 L150 302"/>
    <path d="M192 250 L210 302"/>
  </g>
  <ellipse cx="180" cy="238" rx="56" ry="49" fill="#7fb86a" stroke="#2d263c" stroke-width="8"/>
  <circle cx="180" cy="148" r="64" fill="#aee0ef" stroke="#2d263c" stroke-width="8"/>
  <path d="M150 122 Q138 144 152 166" fill="none" stroke="#ffffff" stroke-width="6" stroke-linecap="round" opacity="0.85"/>
  <circle cx="161" cy="150" r="13" fill="#ffffff" stroke="#2d263c" stroke-width="6"/>
  <circle cx="201" cy="150" r="13" fill="#ffffff" stroke="#2d263c" stroke-width="6"/>
  <circle cx="164" cy="152" r="6" fill="#2d263c"/>
  <circle cx="204" cy="152" r="6" fill="#2d263c"/>
  <circle cx="166" cy="150" r="2" fill="#ffffff"/>
  <circle cx="206" cy="150" r="2" fill="#ffffff"/>
  <path d="M154 256 Q180 270 206 256" fill="none" stroke="#5a8f4a" stroke-width="5" stroke-linecap="round"/>
</svg>
