<svg xmlns="http://www.w3.org/2000/svg" viewBox="0 0 360 360">
  <ellipse cx="180" cy="328" rx="80" ry="10" fill="#2d263c" opacity="0.15"/>
  <ellipse cx="128" cy="300" rx="20" ry="26" fill="#c89058" stroke="#2d263c" stroke-width="8"/>
  <ellipse cx="232" cy="300" rx="20" ry="26" fill="#c89058" stroke="#2d263c" stroke-width="8"/>
  <ellipse cx="180" cy="246" rx="64" ry="58" fill="#c89058" stroke="#2d263c" stroke-width="9"/>
  <ellipse cx="180" cy="262" rx="36" ry="34" fill="#e8c898" opacity="0.8"/>
  <ellipse cx="158" cy="306" rx="14" ry="20" fill="#c89058" stroke="#2d263c" stroke-width="8"/>
  <ellipse cx="202" cy="306" rx="14" ry="20" fill="#c89058" stroke="#2d263c" stroke-width="8"/>
  <path d="M240,250 Q276,240 268,208" fill="none" stroke="#2d263c" stroke-width="6" stroke-linecap="round"/>
  <path d="M258,200 Q272,186 266,176 Q280,182 284,168 Q274,180 264,174 Q270,190 254,196 Z" fill="#e85a3d" stroke="#2d263c" stroke-width="5" stroke-linejoin="round"/>
  <circle cx="138" cy="136" r="16" fill="#c89058" stroke="#2d263c" stroke-width="7"/>
  <circle cx="222" cy="136" r="16" fill="#c89058" stroke="#2d263c" stroke-width="7"/>
  <circle cx="138" cy="138" r="8" fill="#8a5a30"/>
  <circle cx="222" cy="138" r="8" fill="#8a5a30"/>
  <circle cx="180" cy="156" r="56" fill="#c89058" stroke="#2d263c" stroke-width="9"/>
  <ellipse cx="180" cy="180" rx="30" ry="24" fill="#e8c898" stroke="#2d263c" stroke-width="6"/>
  <path d="M158,108 Q148,78 170,76 Q164,94 180,84 Q174,100 188,88 Q190,104 180,108 Z" fill="#e85a3d" stroke="#2d263c" stroke-width="5" stroke-linejoin="round"/>
  <ellipse cx="160" cy="150" rx="11" ry="14" fill="#2d263c"/>
  <ellipse cx="200" cy="150" rx="11" ry="14" fill="#2d263c"/>
  <circle cx="163" cy="146" r="4" fill="#ffffff"/>
  <circle cx="203" cy="146" r="4" fill="#ffffff"/>
  <ellipse cx="180" cy="174" rx="6" ry="5" fill="#2d263c"/>
  <path d="M180,179 L180,188 M170,190 Q180,198 190,190" fill="none" stroke="#2d263c" stroke-width="5" stroke-linecap="round"/>
</svg>
