<svg xmlns="http://www.w3.org/2000/svg" viewBox="0 0 360 360">

  <!-- 影 -->
  <ellipse cx="180" cy="328" rx="72" ry="14" fill="#00000022"/>

  <!-- 尾(二股・下部) -->
  <path d="M188,298 Q205,310 218,322 Q228,330 222,340 Q212,346 206,335 Q196,322 188,310" fill="#1A3848" stroke="#2d263c" stroke-width="6" stroke-linejoin="round" stroke-linecap="round"/>
  <path d="M172,298 Q155,310 142,322 Q132,330 138,340 Q148,346 154,335 Q164,322 172,310" fill="#1A3848" stroke="#2d263c" stroke-width="6" stroke-linejoin="round" stroke-linecap="round"/>

  <!-- 体 (暗青緑のウナギ) -->
  <path d="M118,185 Q112,215 115,252 Q122,282 155,297 Q178,303 200,295 Q235,283 242,252 Q249,218 242,185 Q232,152 190,142 Q175,138 162,142 Q132,152 118,185 Z" fill="#204040" stroke="#2d263c" stroke-width="9" stroke-linejoin="round"/>

  <!-- 腹部(薄めの色) -->
  <path d="M148,200 Q145,225 148,255 Q155,278 175,288 Q180,290 185,288 Q205,278 212,255 Q215,225 212,200 Q200,190 180,188 Q160,190 148,200 Z" fill="#305060" stroke="none"/>

  <!-- 電気模様 (黄色の帯) -->
  <path d="M125,200 Q180,193 235,200" fill="none" stroke="#FFD020" stroke-width="5" stroke-linecap="round"/>
  <path d="M118,230 Q180,222 242,230" fill="none" stroke="#FFD020" stroke-width="4" stroke-linecap="round"/>
  <path d="M120,260 Q180,252 240,260" fill="none" stroke="#FFD020" stroke-width="3" stroke-linecap="round"/>

  <!-- 腕ひれ 左 -->
  <path d="M120,215 Q86,200 76,222 Q68,246 90,256 Q112,262 128,242" fill="#204040" stroke="#2d263c" stroke-width="7" stroke-linejoin="round" stroke-linecap="round"/>
  <!-- 爪 左 (黄色) -->
  <line x1="76" y1="246" x2="62" y2="256" stroke="#FFD020" stroke-width="5" stroke-linecap="round"/>
  <line x1="86" y1="254" x2="78" y2="266" stroke="#FFD020" stroke-width="5" stroke-linecap="round"/>
  <line x1="96" y1="257" x2="94" y2="270" stroke="#FFD020" stroke-width="5" stroke-linecap="round"/>

  <!-- 腕ひれ 右 -->
  <path d="M240,215 Q274,200 284,222 Q292,246 270,256 Q248,262 232,242" fill="#204040" stroke="#2d263c" stroke-width="7" stroke-linejoin="round" stroke-linecap="round"/>
  <!-- 爪 右 (黄色) -->
  <line x1="284" y1="246" x2="298" y2="256" stroke="#FFD020" stroke-width="5" stroke-linecap="round"/>
  <line x1="274" y1="254" x2="282" y2="266" stroke="#FFD020" stroke-width="5" stroke-linecap="round"/>
  <line x1="264" y1="257" x2="266" y2="270" stroke="#FFD020" stroke-width="5" stroke-linecap="round"/>

  <!-- 吸盤口 (頭頂の大きな丸口) -->
  <ellipse cx="180" cy="158" rx="56" ry="50" fill="#1A3848" stroke="#2d263c" stroke-width="8" stroke-linejoin="round"/>
  <!-- 吸盤内部 (赤い輪) -->
  <ellipse cx="180" cy="164" rx="42" ry="36" fill="#A02020" stroke="#2d263c" stroke-width="6" stroke-linejoin="round"/>
  <!-- 吸盤奥 (暗い中央) -->
  <ellipse cx="180" cy="167" rx="28" ry="24" fill="#FF4030" stroke="#2d263c" stroke-width="4"/>
  <ellipse cx="180" cy="169" rx="17" ry="14" fill="#1a1428" stroke="#2d263c" stroke-width="3"/>
  <!-- 歯(ギザギザ) -->
  <polygon points="148,130 155,148 142,148" fill="#E8D080" stroke="#2d263c" stroke-width="3" stroke-linejoin="round"/>
  <polygon points="164,126 170,144 157,145" fill="#E8D080" stroke="#2d263c" stroke-width="3" stroke-linejoin="round"/>
  <polygon points="180,124 186,142 174,142" fill="#E8D080" stroke="#2d263c" stroke-width="3" stroke-linejoin="round"/>
  <polygon points="196,126 202,145 189,144" fill="#E8D080" stroke="#2d263c" stroke-width="3" stroke-linejoin="round"/>
  <polygon points="212,130 219,148 206,148" fill="#E8D080" stroke="#2d263c" stroke-width="3" stroke-linejoin="round"/>

  <!-- 頭部 -->
  <ellipse cx="180" cy="112" rx="58" ry="52" fill="#243848" stroke="#2d263c" stroke-width="8" stroke-linejoin="round"/>

  <!-- 目 左 (赤く小さい) -->
  <ellipse cx="152" cy="103" rx="12" ry="11" fill="#CC2020" stroke="#2d263c" stroke-width="5" stroke-linejoin="round" stroke-linecap="round"/>
  <ellipse cx="152" cy="103" rx="6" ry="5" fill="#880000"/>
  <circle cx="149" cy="100" r="2.5" fill="#FF4444" opacity="0.8"/>

  <!-- 目 右 -->
  <ellipse cx="208" cy="103" rx="12" ry="11" fill="#CC2020" stroke="#2d263c" stroke-width="5" stroke-linejoin="round" stroke-linecap="round"/>
  <ellipse cx="208" cy="103" rx="6" ry="5" fill="#880000"/>
  <circle cx="211" cy="100" r="2.5" fill="#FF4444" opacity="0.8"/>

  <!-- 頭の電気模様 -->
  <path d="M135,82 L128,70 L142,66 L135,54" stroke="#FFD020" stroke-width="4" stroke-linecap="round" fill="none"/>
  <path d="M225,82 L232,70 L218,66 L225,54" stroke="#FFD020" stroke-width="4" stroke-linecap="round" fill="none"/>

</svg>
