<svg xmlns="http://www.w3.org/2000/svg" viewBox="0 0 360 360">
<path d="M165,300 C150,310 145,325 155,335 C165,332 172,318 172,305 Z" fill="#8FD6EE" stroke="#2d263c" stroke-width="6" stroke-linejoin="round" stroke-linecap="round"/>
<path d="M195,300 C210,310 215,325 205,335 C195,332 188,318 188,305 Z" fill="#8FD6EE" stroke="#2d263c" stroke-width="6" stroke-linejoin="round" stroke-linecap="round"/>
<path d="M107,115 C88,108 70,116 66,132 C78,144 96,142 108,130 Z" fill="#5AB6D9" stroke="#2d263c" stroke-width="7" stroke-linejoin="round" stroke-linecap="round"/>
<path d="M253,115 C272,108 290,116 294,132 C282,144 264,142 252,130 Z" fill="#5AB6D9" stroke="#2d263c" stroke-width="7" stroke-linejoin="round" stroke-linecap="round"/>
<path d="M180,40 C223,40 250,68 253,112 C256,155 244,198 227,238 C214,270 200,298 184,326 C182,329 178,329 176,326 C160,298 146,270 133,238 C116,198 104,155 107,112 C110,68 137,40 180,40 Z" fill="#79CCE8" stroke="#2d263c" stroke-width="8" stroke-linejoin="round" stroke-linecap="round"/>
<path d="M180,175 C205,180 218,215 210,255 C204,282 192,305 180,318 C168,305 156,282 150,255 C142,215 155,180 180,175 Z" fill="#FFF4B8"/>
<path d="M120,140 Q180,155 240,140" fill="none" stroke="#2d263c" stroke-width="6" stroke-linecap="round"/>
<path d="M113,190 Q180,205 247,190" fill="none" stroke="#2d263c" stroke-width="6" stroke-linecap="round"/>
<path d="M118,240 Q180,253 242,240" fill="none" stroke="#2d263c" stroke-width="6" stroke-linecap="round"/>
<circle cx="155" cy="110" r="17" fill="#1A1A1A" stroke="#2d263c" stroke-width="6"/>
<circle cx="205" cy="110" r="17" fill="#1A1A1A" stroke="#2d263c" stroke-width="6"/>
<circle cx="150" cy="104" r="5" fill="#FFFFFF"/>
<circle cx="200" cy="104" r="5" fill="#FFFFFF"/>
<path d="M140,140 C150,155 165,155 180,142 C195,155 210,155 220,140 C215,150 205,158 180,158 C155,158 145,150 140,140 Z" fill="#F7CB3E" stroke="#2d263c" stroke-width="6" stroke-linejoin="round"/>
</svg>
