<svg xmlns="http://www.w3.org/2000/svg" viewBox="0 0 360 360">
  <ellipse cx="120" cy="300" rx="32" ry="24" fill="#2c7a8c" stroke="#2d263c" stroke-width="7" stroke-linejoin="round"/>
  <ellipse cx="240" cy="300" rx="32" ry="24" fill="#2c7a8c" stroke="#2d263c" stroke-width="7" stroke-linejoin="round"/>
  <ellipse cx="62" cy="205" rx="26" ry="34" fill="#3d95a8" stroke="#2d263c" stroke-width="7" stroke-linejoin="round"/>
  <ellipse cx="298" cy="205" rx="26" ry="34" fill="#3d95a8" stroke="#2d263c" stroke-width="7" stroke-linejoin="round"/>
  <ellipse cx="150" cy="88" rx="14" ry="20" fill="#3d95a8" stroke="#2d263c" stroke-width="7" stroke-linejoin="round"/>
  <ellipse cx="210" cy="88" rx="14" ry="20" fill="#3d95a8" stroke="#2d263c" stroke-width="7" stroke-linejoin="round"/>
  <ellipse cx="180" cy="200" rx="118" ry="102" fill="#3d95a8" stroke="#2d263c" stroke-width="8" stroke-linejoin="round"/>
  <ellipse cx="180" cy="130" rx="95" ry="55" fill="#5fb4c4" opacity="0.55"/>
  <circle cx="104" cy="168" r="12" fill="#f6a623" stroke="#2d263c" stroke-width="5"/>
  <circle cx="256" cy="168" r="12" fill="#f6a623" stroke="#2d263c" stroke-width="5"/>
  <circle cx="92" cy="230" r="10" fill="#f6a623" stroke="#2d263c" stroke-width="5"/>
  <circle cx="268" cy="230" r="10" fill="#f6a623" stroke="#2d263c" stroke-width="5"/>
  <ellipse cx="180" cy="255" rx="66" ry="55" fill="#f7b733" stroke="#2d263c" stroke-width="7" stroke-linejoin="round"/>
  <ellipse cx="180" cy="240" rx="44" ry="34" fill="#ffd873" opacity="0.7"/>
  <circle cx="140" cy="165" r="30" fill="#fff" stroke="#2d263c" stroke-width="6"/>
  <circle cx="220" cy="165" r="30" fill="#fff" stroke="#2d263c" stroke-width="6"/>
  <circle cx="146" cy="172" r="14" fill="#2d263c"/>
  <circle cx="214" cy="172" r="14" fill="#2d263c"/>
  <circle cx="152" cy="166" r="4" fill="#fff"/>
  <circle cx="220" cy="166" r="4" fill="#fff"/>
  <path d="M 165 210 Q 180 220 195 210" fill="none" stroke="#2d263c" stroke-width="6" stroke-linecap="round"/>
  <circle cx="90" cy="200" r="9" fill="#f47fa0" opacity="0.55"/>
  <circle cx="270" cy="200" r="9" fill="#f47fa0" opacity="0.55"/>
</svg>
