<svg xmlns="http://www.w3.org/2000/svg" viewBox="0 0 360 360">
<path d="M180 22 L202 62 L196 142 L164 142 L158 62 Z" fill="#d8dce4" stroke="#2d263c" stroke-width="7" stroke-linejoin="round"/>
<path d="M180 22 L180 62" stroke="#2d263c" stroke-width="5" stroke-linecap="round"/>
<ellipse cx="180" cy="148" rx="50" ry="13" fill="#e8c050" stroke="#2d263c" stroke-width="6"/>
<rect x="170" y="156" width="20" height="30" rx="5" fill="#8a5a3a" stroke="#2d263c" stroke-width="6"/>
<path d="M112 192 Q112 292 180 332 Q248 292 248 192 Z" fill="#b8a0d0" stroke="#2d263c" stroke-width="8" stroke-linejoin="round"/>
<path d="M124 197 Q124 286 180 322 Q236 286 236 197" fill="none" stroke="#e8c050" stroke-width="7"/>
<circle cx="180" cy="232" r="40" fill="#2d263c"/>
<circle cx="180" cy="232" r="25" fill="#fff" stroke="#2d263c" stroke-width="3"/>
<circle cx="180" cy="232" r="12" fill="#2d263c"/>
<path d="M180 272 L180 324" stroke="#e8c050" stroke-width="6" stroke-linecap="round" fill="none"/>
<circle cx="148" cy="212" r="5" fill="#e8c050"/>
<circle cx="212" cy="212" r="5" fill="#e8c050"/>
<path d="M148 190 Q128 212 138 244" fill="none" stroke="#3a6ac4" stroke-width="7" stroke-linecap="round"/>
</svg>
