<svg xmlns="http://www.w3.org/2000/svg" viewBox="0 0 360 360">
  <path d="M258,268 C320,258 342,192 322,124 C348,150 354,224 302,270 C288,286 266,286 258,268 Z" fill="#a98cc7" stroke="#2d263c" stroke-width="7" stroke-linejoin="round" stroke-linecap="round"/>
  <ellipse cx="300" cy="215" rx="9" ry="16" fill="#e0529c" transform="rotate(25 300 215)"/>
  <ellipse cx="280" cy="255" rx="9" ry="15" fill="#e0529c" transform="rotate(35 280 255)"/>
  <ellipse cx="150" cy="316" rx="24" ry="18" fill="#a98cc7" stroke="#2d263c" stroke-width="7" stroke-linejoin="round"/>
  <ellipse cx="216" cy="316" rx="24" ry="18" fill="#a98cc7" stroke="#2d263c" stroke-width="7" stroke-linejoin="round"/>
  <ellipse cx="108" cy="228" rx="20" ry="36" fill="#a98cc7" stroke="#2d263c" stroke-width="7" stroke-linejoin="round" transform="rotate(-18 108 228)"/>
  <ellipse cx="252" cy="228" rx="20" ry="36" fill="#a98cc7" stroke="#2d263c" stroke-width="7" stroke-linejoin="round" transform="rotate(18 252 228)"/>
  <ellipse cx="180" cy="232" rx="76" ry="92" fill="#a98cc7" stroke="#2d263c" stroke-width="8" stroke-linejoin="round"/>
  <ellipse cx="180" cy="256" rx="44" ry="58" fill="#f6ecd6"/>
  <path d="M146,184 L176,204 L146,224" fill="none" stroke="#e0529c" stroke-width="9" stroke-linecap="round" stroke-linejoin="round"/>
  <path d="M214,190 L184,210 L214,230" fill="none" stroke="#e0529c" stroke-width="9" stroke-linecap="round" stroke-linejoin="round"/>
  <circle cx="141" cy="72" r="19" fill="#a98cc7" stroke="#2d263c" stroke-width="7" stroke-linejoin="round"/>
  <circle cx="219" cy="72" r="19" fill="#a98cc7" stroke="#2d263c" stroke-width="7" stroke-linejoin="round"/>
  <circle cx="141" cy="76" r="9" fill="#f4b8d0"/>
  <circle cx="219" cy="76" r="9" fill="#f4b8d0"/>
  <circle cx="180" cy="116" r="58" fill="#a98cc7" stroke="#2d263c" stroke-width="8" stroke-linejoin="round"/>
  <ellipse cx="157" cy="112" rx="16" ry="20" fill="#fff" stroke="#2d263c" stroke-width="6" stroke-linejoin="round"/>
  <ellipse cx="203" cy="112" rx="16" ry="20" fill="#fff" stroke="#2d263c" stroke-width="6" stroke-linejoin="round"/>
  <circle cx="159" cy="118" r="8" fill="#2d263c"/>
  <circle cx="205" cy="118" r="8" fill="#2d263c"/>
  <circle cx="180" cy="134" r="6" fill="#2d263c"/>
  <path d="M168,148 Q180,156 192,148" fill="none" stroke="#2d263c" stroke-width="6" stroke-linecap="round"/>
  <path d="M163,142 C118,150 86,140 76,180 C70,212 98,224 128,207 C150,196 158,168 163,142 Z" fill="#ff8fb3" stroke="#2d263c" stroke-width="7" stroke-linejoin="round" stroke-linecap="round"/>
  <circle cx="107" cy="186" r="9" fill="#e0529c"/>
  <circle cx="91" cy="197" r="7" fill="#e0529c"/>
</svg>
