<svg xmlns="http://www.w3.org/2000/svg" viewBox="0 0 360 360">
  <!-- 尾びれ(扇形・後ろ) -->
  <path d="M150,250 Q120,300 100,330 Q140,318 180,334 Q220,318 260,330 Q240,300 210,250 Z" fill="#9c3b3b" stroke="#2d263c" stroke-width="7" stroke-linejoin="round" stroke-linecap="round"/>

  <!-- 右うで(大きいハサミ側) -->
  <path d="M265,175 L305,155 L312,168 L275,192 Z" fill="#9c3b3b" stroke="#2d263c" stroke-width="7" stroke-linejoin="round" stroke-linecap="round"/>
  <!-- 右ハサミ(巨大・非対称) -->
  <path d="M275,140 C295,112 325,118 332,140 C338,153 330,166 315,160 L298,176 L315,190 C330,200 333,213 320,223 C306,233 283,223 268,203 C256,183 253,158 275,140 Z" fill="#3b3570" stroke="#2d263c" stroke-width="7" stroke-linejoin="round" stroke-linecap="round"/>

  <!-- 左うで(小さいハサミ側) -->
  <path d="M95,175 L55,160 L48,168 L85,192 Z" fill="#9c3b3b" stroke="#2d263c" stroke-width="7" stroke-linejoin="round" stroke-linecap="round"/>
  <!-- 左ハサミ(小さめ) -->
  <path d="M85,140 C65,112 35,118 28,140 C22,153 30,166 45,160 L62,176 L45,190 C30,200 27,213 40,223 C54,233 77,223 92,203 C104,183 107,158 85,140 Z" fill="#3b3570" stroke="#2d263c" stroke-width="7" stroke-linejoin="round" stroke-linecap="round"/>

  <!-- 体(兜のような甲羅・胴) -->
  <path d="M180,70 C220,68 250,90 258,130 C268,175 255,210 230,235 C250,245 260,260 250,270 C235,255 215,270 180,270 C145,270 125,255 110,270 C100,260 110,245 130,235 C105,210 92,175 102,130 C110,90 140,68 180,70 Z" fill="#9c3b3b" stroke="#2d263c" stroke-width="8" stroke-linejoin="round" stroke-linecap="round"/>

  <!-- おなかの模様 -->
  <ellipse cx="180" cy="180" rx="45" ry="68" fill="#f3dda0" stroke="#2d263c" stroke-width="6" stroke-linejoin="round"/>

  <!-- 甲羅の節目模様 -->
  <path d="M130,150 Q180,165 230,150" fill="none" stroke="#2d263c" stroke-width="6" stroke-linecap="round"/>
  <path d="M125,190 Q180,205 235,190" fill="none" stroke="#2d263c" stroke-width="6" stroke-linecap="round"/>

  <!-- 頭のトゲ(かぶと状) -->
  <path d="M165,72 L180,33 L195,72 Z" fill="#7a2a2a" stroke="#2d263c" stroke-width="7" stroke-linejoin="round" stroke-linecap="round"/>

  <!-- 脚(体の下) -->
  <path d="M140,268 Q133,290 145,302 Q157,292 150,270 Z" fill="#7a2a2a" stroke="#2d263c" stroke-width="6" stroke-linejoin="round" stroke-linecap="round"/>
  <path d="M220,268 Q227,290 215,302 Q203,292 210,270 Z" fill="#7a2a2a" stroke="#2d263c" stroke-width="6" stroke-linejoin="round" stroke-linecap="round"/>

  <!-- 触角 -->
  <path d="M165,78 Q148,48 128,42" fill="none" stroke="#2d263c" stroke-width="6" stroke-linecap="round"/>
  <path d="M195,78 Q212,48 232,42" fill="none" stroke="#2d263c" stroke-width="6" stroke-linecap="round"/>

  <!-- 目(つり目・きつい表情) -->
  <path d="M140,130 Q150,115 165,125 Q158,140 145,140 Q138,136 140,130 Z" fill="#ffd93b" stroke="#2d263c" stroke-width="6" stroke-linejoin="round"/>
  <path d="M220,130 Q210,115 195,125 Q202,140 215,140 Q222,136 220,130 Z" fill="#ffd93b" stroke="#2d263c" stroke-width="6" stroke-linejoin="round"/>
  <circle cx="152" cy="130" r="6" fill="#201a26"/>
  <circle cx="208" cy="130" r="6" fill="#201a26"/>

  <!-- 怒り眉 -->
  <line x1="136" y1="116" x2="162" y2="110" stroke="#2d263c" stroke-width="7" stroke-linecap="round"/>
  <line x1="224" y1="116" x2="198" y2="110" stroke="#2d263c" stroke-width="7" stroke-linecap="round"/>

  <!-- 口 -->
  <path d="M165,168 Q180,178 195,168" fill="none" stroke="#2d263c" stroke-width="7" stroke-linecap="round"/>
</svg>
