<svg xmlns="http://www.w3.org/2000/svg" viewBox="0 0 360 360">
  <!-- castle main body -->
  <path d="M48 180 L312 180 L312 295 L48 295 Z" fill="#e8c878" stroke="#2d263c" stroke-width="8" stroke-linejoin="round"/>
  <!-- battlements (merlons) on top -->
  <path d="M48 180 L48 162 L70 162 L70 180 Z" fill="#e8c878" stroke="#2d263c" stroke-width="6" stroke-linejoin="round"/>
  <path d="M96 180 L96 162 L118 162 L118 180 Z" fill="#e8c878" stroke="#2d263c" stroke-width="6" stroke-linejoin="round"/>
  <path d="M242 180 L242 162 L264 162 L264 180 Z" fill="#e8c878" stroke="#2d263c" stroke-width="6" stroke-linejoin="round"/>
  <path d="M290 180 L290 162 L312 162 L312 180 Z" fill="#e8c878" stroke="#2d263c" stroke-width="6" stroke-linejoin="round"/>
  <!-- red bucket hat -->
  <path d="M150 100 L210 100 L202 175 L158 175 Z" fill="#d4503a" stroke="#2d263c" stroke-width="8" stroke-linejoin="round"/>
  <ellipse cx="180" cy="100" rx="30" ry="8" fill="#d4503a" stroke="#2d263c" stroke-width="6"/>
  <path d="M150 102 Q140 78 180 73 Q220 78 210 102" fill="none" stroke="#2d263c" stroke-width="6" stroke-linecap="round"/>
  <!-- eyes -->
  <ellipse cx="125" cy="228" rx="13" ry="15" fill="#2d263c"/>
  <ellipse cx="235" cy="228" rx="13" ry="15" fill="#2d263c"/>
  <circle cx="128" cy="224" r="4" fill="#fff8ea"/>
  <circle cx="238" cy="224" r="4" fill="#fff8ea"/>
  <!-- mouth -->
  <path d="M140 262 Q180 282 220 262 Q180 274 140 262 Z" fill="#7a3a2a" stroke="#2d263c" stroke-width="6" stroke-linejoin="round"/>
  <!-- door -->
  <path d="M165 295 L165 268 Q180 250 195 268 L195 295" fill="#a87850" stroke="#2d263c" stroke-width="6" stroke-linejoin="round"/>
</svg>
