<svg xmlns="http://www.w3.org/2000/svg" viewBox="0 0 360 360">
<ellipse cx="180" cy="325" rx="95" ry="12" fill="#3a3550" opacity="0.25"/>
<path d="M120 330 L108 250 Q104 220 118 210 L242 210 Q256 220 252 250 L240 330 Z" fill="#9aa3ad" stroke="#2d263c" stroke-width="8" stroke-linejoin="round" stroke-linecap="round"/>
<path d="M110 260 L250 260" stroke="#2d263c" stroke-width="6" stroke-linecap="round"/>
<ellipse cx="150" cy="300" rx="16" ry="20" fill="#7d8894" stroke="#2d263c" stroke-width="7" stroke-linecap="round" stroke-linejoin="round"/>
<ellipse cx="210" cy="300" rx="16" ry="20" fill="#7d8894" stroke="#2d263c" stroke-width="7" stroke-linecap="round" stroke-linejoin="round"/>
<path d="M130 215 Q90 205 70 175" fill="none" stroke="#2d263c" stroke-width="9" stroke-linecap="round"/>
<path d="M230 215 Q270 205 290 175" fill="none" stroke="#2d263c" stroke-width="9" stroke-linecap="round"/>
<circle cx="70" cy="172" r="12" fill="#e85fd0" stroke="#2d263c" stroke-width="6"/>
<circle cx="290" cy="172" r="12" fill="#e85fd0" stroke="#2d263c" stroke-width="6"/>
<path d="M140 215 Q120 130 128 60 Q132 30 165 24 Q198 30 198 62 Q192 130 200 215 Z" fill="#b7bec6" stroke="#2d263c" stroke-width="8" stroke-linejoin="round"/>
<path d="M132 90 Q165 80 194 90" fill="none" stroke="#2d263c" stroke-width="6" stroke-linecap="round"/>
<path d="M134 140 Q166 130 192 140" fill="none" stroke="#2d263c" stroke-width="6" stroke-linecap="round"/>
<path d="M136 185 Q166 176 190 185" fill="none" stroke="#2d263c" stroke-width="6" stroke-linecap="round"/>
<ellipse cx="150" cy="115" rx="8" ry="14" fill="#f06fe0" stroke="#2d263c" stroke-width="5"/>
<ellipse cx="178" cy="160" rx="8" ry="14" fill="#f06fe0" stroke="#2d263c" stroke-width="5"/>
<path d="M112 42 Q68 20 42 42 Q78 48 104 58 Z" fill="#dfe4e8" stroke="#2d263c" stroke-width="7" stroke-linejoin="round"/>
<path d="M210 42 Q254 20 280 42 Q244 48 218 58 Z" fill="#dfe4e8" stroke="#2d263c" stroke-width="7" stroke-linejoin="round"/>
<path d="M130 26 Q162 4 196 26 Q180 28 165 44 Q150 28 130 26 Z" fill="#e6b8f0" stroke="#2d263c" stroke-width="7" stroke-linejoin="round"/>
<ellipse cx="150" cy="66" rx="11" ry="14" fill="#fff" stroke="#2d263c" stroke-width="6"/>
<ellipse cx="182" cy="66" rx="11" ry="14" fill="#fff" stroke="#2d263c" stroke-width="6"/>
<circle cx="150" cy="68" r="5" fill="#2d263c"/>
<circle cx="182" cy="68" r="5" fill="#2d263c"/>
<path d="M148 95 Q166 104 184 95" fill="none" stroke="#2d263c" stroke-width="6" stroke-linecap="round"/>
<path d="M108 262 L84 300 Q78 314 96 320 L120 322" fill="#9aa3ad" stroke="#2d263c" stroke-width="8" stroke-linejoin="round" stroke-linecap="round"/>
<path d="M252 262 L276 300 Q282 314 264 320 L240 322" fill="#9aa3ad" stroke="#2d263c" stroke-width="8" stroke-linejoin="round" stroke-linecap="round"/>
</svg>
