<svg xmlns="http://www.w3.org/2000/svg" viewBox="0 0 360 360"><g stroke="#2d263c" stroke-width="7" stroke-linejoin="round" stroke-linecap="round"><path fill="#585265" d="M146,90 C112,74 88,66 64,62 C82,80 110,96 134,108 Z"/><path fill="#f3c93f" d="M64,62 L96,72 L84,90 Z"/><path fill="#585265" d="M164,80 C142,58 122,42 98,30 C104,56 120,76 140,92 Z"/><path fill="#f3c93f" d="M98,30 L120,52 L106,62 Z"/><path fill="#585265" d="M192,76 C186,52 178,38 166,24 C158,48 162,66 172,84 Z"/><path fill="#f3c93f" d="M166,24 L176,48 L160,52 Z"/><path fill="#585265" d="M226,244 C262,246 292,230 306,200 C314,180 314,162 306,148 L292,164 C296,180 286,200 264,214 C252,221 238,226 226,228 Z"/><path fill="#f3c93f" d="M300,142 L320,158 L302,190 L284,170 Z"/><path fill="#585265" d="M150,282 L140,320 L172,310 Z"/><path fill="#585265" d="M194,284 L204,322 L226,306 Z"/><path fill="#585265" d="M140,195 C128,232 130,266 146,284 C166,297 196,296 210,281 C223,263 222,230 212,196 Z"/><path fill="#585265" d="M142,212 C112,222 94,240 90,260 C103,267 124,260 140,246 Z"/><path fill="#585265" d="M212,206 C242,198 262,182 268,160 C256,149 236,156 218,172 Z"/><path fill="#585265" d="M102,148 C100,98 136,72 178,74 C224,76 252,108 248,150 C244,190 214,210 172,209 C132,208 104,190 102,148 Z"/><ellipse fill="#e8589b" stroke-width="5" cx="145" cy="138" rx="14" ry="9" transform="rotate(-12 145 138)"/><ellipse fill="#e8589b" stroke-width="5" cx="206" cy="132" rx="15" ry="10" transform="rotate(10 206 132)"/><ellipse fill="#2d263c" stroke="none" cx="146" cy="138" rx="3" ry="7" transform="rotate(-12 146 138)"/><ellipse fill="#2d263c" stroke="none" cx="205" cy="132" rx="3" ry="7.5" transform="rotate(10 205 132)"/><path fill="none" stroke-width="15" d="M118,164 C146,188 206,190 234,162"/><path fill="none" stroke="#f3c93f" stroke-width="8" d="M118,164 C146,188 206,190 234,162"/><path fill="none" stroke-width="3.5" d="M136,172 L133,183 M156,179 L155,190 M176,181 L176,192 M196,179 L197,190 M216,172 L219,183"/><circle fill="#f3c93f" stroke-width="4" cx="237" cy="161" r="6"/><path fill="none" stroke-width="4" d="M239,167 L244,177"/></g></svg>