<svg xmlns="http://www.w3.org/2000/svg" viewBox="0 0 360 360">
<path d="M250 230 Q302 240 296 286 Q280 270 260 268" fill="none" stroke="#aab0b8" stroke-width="16" stroke-linecap="round"/>
<circle cx="296" cy="284" r="16" fill="#8a909a" stroke="#2d263c" stroke-width="6"/>
<circle cx="284" cy="270" r="9" fill="#8a909a" stroke="#2d263c" stroke-width="5"/>
<ellipse cx="195" cy="245" rx="70" ry="50" fill="#aab0b8" stroke="#2d263c" stroke-width="8"/>
<circle cx="160" cy="175" r="62" fill="#aab0b8" stroke="#2d263c" stroke-width="8"/>
<path d="M116 186 Q130 200 144 186" fill="none" stroke="#2d263c" stroke-width="6" stroke-linecap="round"/>
<circle cx="112" cy="170" r="3.5" fill="#2d263c"/>
<circle cx="140" cy="160" r="11" fill="#2d263c"/>
<circle cx="143" cy="157" r="3.5" fill="#fff"/>
<circle cx="160" cy="110" r="15" fill="#8a909a" stroke="#2d263c" stroke-width="6"/>
<circle cx="182" cy="118" r="10" fill="#8a909a" stroke="#2d263c" stroke-width="5"/>
<circle cx="140" cy="120" r="10" fill="#8a909a" stroke="#2d263c" stroke-width="5"/>
<path d="M148 280 Q142 302 156 306 L172 294 Z" fill="#aab0b8" stroke="#2d263c" stroke-width="7" stroke-linejoin="round"/>
<path d="M232 276 Q226 302 240 306 L256 294 Z" fill="#aab0b8" stroke="#2d263c" stroke-width="7" stroke-linejoin="round"/>
</svg>