<svg xmlns="http://www.w3.org/2000/svg" viewBox="0 0 360 360">
  <!-- しっぽ(後ろ) -->
  <path d="M 248 210 Q 280 190 290 165 Q 295 148 278 145 Q 265 143 260 158 Q 255 172 265 178 Q 272 182 268 195 Z" fill="#3a3050" stroke="#2d263c" stroke-width="6" stroke-linejoin="round" stroke-linecap="round"/>

  <!-- 体のメイン -->
  <path d="M 110 155 Q 95 150 88 175 Q 80 205 90 235 Q 98 260 120 272 Q 145 284 178 285 Q 210 286 232 275 Q 255 262 262 238 Q 270 208 262 178 Q 255 153 238 148 Q 215 140 185 138 Q 158 136 135 143 Z" fill="#4a4060" stroke="#2d263c" stroke-width="8" stroke-linejoin="round" stroke-linecap="round"/>

  <!-- 頭部 -->
  <path d="M 122 155 Q 110 125 118 100 Q 126 75 155 68 Q 178 62 200 68 Q 225 76 232 100 Q 240 125 232 152 Z" fill="#4a4060" stroke="#2d263c" stroke-width="8" stroke-linejoin="round" stroke-linecap="round"/>

  <!-- アンテナ -->
  <path d="M 185 68 Q 190 50 200 40 Q 212 28 208 18 Q 202 8 192 14 Q 184 20 188 32 Q 192 42 186 52" fill="none" stroke="#2d263c" stroke-width="7" stroke-linecap="round"/>
  <ellipse cx="195" cy="12" rx="7" ry="6" fill="#4a4060" stroke="#2d263c" stroke-width="5"/>

  <!-- 耳っぽい頭の形の突起(左) -->
  <path d="M 128 98 Q 112 80 118 65 Q 122 55 133 60 Q 140 64 138 82 Z" fill="#4a4060" stroke="#2d263c" stroke-width="6" stroke-linejoin="round"/>

  <!-- 耳っぽい突起(右) -->
  <path d="M 228 95 Q 242 77 238 62 Q 234 52 224 57 Q 216 62 220 80 Z" fill="#4a4060" stroke="#2d263c" stroke-width="6" stroke-linejoin="round"/>

  <!-- 腕(左) -->
  <path d="M 98 195 Q 72 192 62 208 Q 56 222 66 232 Q 76 240 90 232 Q 100 224 102 210 Z" fill="#4a4060" stroke="#2d263c" stroke-width="7" stroke-linejoin="round" stroke-linecap="round"/>

  <!-- 腕(右) -->
  <path d="M 258 192 Q 285 186 296 200 Q 304 214 296 226 Q 286 236 272 228 Q 260 220 258 206 Z" fill="#4a4060" stroke="#2d263c" stroke-width="7" stroke-linejoin="round" stroke-linecap="round"/>

  <!-- 体の縫い目ライン(ぬいぐるみ感) -->
  <path d="M 175 145 Q 172 200 175 280" fill="none" stroke="#2d263c" stroke-width="3" stroke-dasharray="6,5" stroke-linecap="round" opacity="0.6"/>

  <!-- 目(赤く光る/左) -->
  <ellipse cx="152" cy="108" rx="13" ry="9" fill="#ff2020" stroke="#2d263c" stroke-width="4"/>
  <ellipse cx="152" cy="108" rx="6" ry="4" fill="#ff6060"/>

  <!-- 目(右) -->
  <ellipse cx="205" cy="106" rx="14" ry="8" fill="#ff2020" stroke="#2d263c" stroke-width="4"/>
  <ellipse cx="205" cy="106" rx="6" ry="4" fill="#ff6060"/>

  <!-- 眉みたいな怖い線(左) -->
  <path d="M 142 97 Q 150 92 162 95" fill="none" stroke="#2d263c" stroke-width="5" stroke-linecap="round"/>

  <!-- 眉みたいな怖い線(右) -->
  <path d="M 196 93 Q 205 88 218 93" fill="none" stroke="#2d263c" stroke-width="5" stroke-linecap="round"/>

  <!-- 鼻っぽいとこ -->
  <ellipse cx="180" cy="122" rx="5" ry="3" fill="#2d263c" opacity="0.5"/>

  <!-- ファスナー土台(黄色い口) -->
  <path d="M 130 148 Q 155 140 180 138 Q 205 136 232 145" fill="none" stroke="#f0c030" stroke-width="10" stroke-linecap="round"/>

  <!-- ファスナーの歯(上) -->
  <line x1="138" y1="146" x2="138" y2="140" stroke="#f0c030" stroke-width="4" stroke-linecap="round"/>
  <line x1="150" y1="143" x2="150" y2="137" stroke="#f0c030" stroke-width="4" stroke-linecap="round"/>
  <line x1="163" y1="141" x2="163" y2="135" stroke="#f0c030" stroke-width="4" stroke-linecap="round"/>
  <line x1="176" y1="139" x2="176" y2="133" stroke="#f0c030" stroke-width="4" stroke-linecap="round"/>
  <line x1="189" y1="138" x2="189" y2="132" stroke="#f0c030" stroke-width="4" stroke-linecap="round"/>
  <line x1="202" y1="139" x2="202" y2="133" stroke="#f0c030" stroke-width="4" stroke-linecap="round"/>
  <line x1="215" y1="141" x2="215" y2="135" stroke="#f0c030" stroke-width="4" stroke-linecap="round"/>
  <line x1="227" y1="144" x2="227" y2="138" stroke="#f0c030" stroke-width="4" stroke-linecap="round"/>

  <!-- ファスナーの引き手 -->
  <rect x="168" y="128" width="10" height="8" rx="2" fill="#f0c030" stroke="#2d263c" stroke-width="3"/>
  <line x1="173" y1="128" x2="173" y2="118" stroke="#c09010" stroke-width="4" stroke-linecap="round"/>
  <rect x="170" y="114" width="6" height="5" rx="1" fill="#c09010" stroke="#2d263c" stroke-width="2"/>

  <!-- 体の模様(ぬいぐるみの縫い目っぽい) -->
  <path d="M 118 185 Q 125 178 138 182" fill="none" stroke="#3a3050" stroke-width="4" stroke-linecap="round" opacity="0.8"/>
  <path d="M 222 180 Q 234 175 242 182" fill="none" stroke="#3a3050" stroke-width="4" stroke-linecap="round" opacity="0.8"/>

  <!-- 足(左) -->
  <path d="M 148 278 Q 138 290 130 300 Q 124 308 132 312 Q 142 315 150 305 Q 158 294 158 282 Z" fill="#4a4060" stroke="#2d263c" stroke-width="6" stroke-linejoin="round" stroke-linecap="round"/>

  <!-- 足(右) -->
  <path d="M 205 278 Q 212 292 218 302 Q 224 310 218 315 Q 208 318 202 307 Q 196 295 198 280 Z" fill="#4a4060" stroke="#2d263c" stroke-width="6" stroke-linejoin="round" stroke-linecap="round"/>

  <!-- 口(少し開いた不気味な感じ) -->
  <path d="M 158 133 Q 172 142 180 142 Q 190 142 202 134" fill="none" stroke="#2d263c" stroke-width="4" stroke-linecap="round"/>
</svg>