<svg xmlns="http://www.w3.org/2000/svg" viewBox="0 0 360 360">
  <path d="M122,270 Q59,260 82,200" stroke="#2d263c" stroke-width="40" fill="none" stroke-linecap="round"/>
  <path d="M122,270 Q59,260 82,200" stroke="#d64545" stroke-width="26" fill="none" stroke-linecap="round"/>
  <circle cx="122" cy="270" r="16" fill="#f5f2ea" stroke="#2d263c" stroke-width="6"/>
  <circle cx="82" cy="200" r="16" fill="#f5f2ea" stroke="#2d263c" stroke-width="6"/>

  <path d="M278,200 Q301,260 238,270" stroke="#2d263c" stroke-width="40" fill="none" stroke-linecap="round"/>
  <path d="M278,200 Q301,260 238,270" stroke="#d64545" stroke-width="26" fill="none" stroke-linecap="round"/>
  <circle cx="278" cy="200" r="16" fill="#f5f2ea" stroke="#2d263c" stroke-width="6"/>
  <circle cx="238" cy="270" r="16" fill="#f5f2ea" stroke="#2d263c" stroke-width="6"/>

  <circle cx="180" cy="190" r="95" fill="#6b7688" stroke="#2d263c" stroke-width="8"/>

  <circle cx="150" cy="140" r="7" fill="#333c4c" stroke="#2d263c" stroke-width="3"/>
  <circle cx="210" cy="140" r="7" fill="#333c4c" stroke="#2d263c" stroke-width="3"/>
  <circle cx="180" cy="268" r="7" fill="#333c4c" stroke="#2d263c" stroke-width="3"/>

  <path d="M140,100 Q180,55 220,100" stroke="#2d263c" stroke-width="40" fill="none" stroke-linecap="round"/>
  <path d="M140,100 Q180,55 220,100" stroke="#d64545" stroke-width="26" fill="none" stroke-linecap="round"/>
  <circle cx="140" cy="100" r="16" fill="#f5f2ea" stroke="#2d263c" stroke-width="6"/>
  <circle cx="220" cy="100" r="16" fill="#f5f2ea" stroke="#2d263c" stroke-width="6"/>

  <ellipse cx="180" cy="207" rx="58" ry="52" fill="#3a4250" stroke="#2d263c" stroke-width="6"/>

  <circle cx="155" cy="207" r="6" fill="#232a36" stroke="#2d263c" stroke-width="3"/>
  <circle cx="205" cy="207" r="6" fill="#232a36" stroke="#2d263c" stroke-width="3"/>

  <circle cx="180" cy="207" r="34" fill="#1d2028" stroke="#2d263c" stroke-width="7"/>
  <circle cx="180" cy="210" r="19" fill="#e63946"/>
  <circle cx="180" cy="210" r="8" fill="#161822"/>
  <circle cx="172" cy="201" r="4" fill="#ffffff"/>
</svg>
