<svg xmlns="http://www.w3.org/2000/svg" viewBox="0 0 360 360">
  <ellipse cx="180" cy="320" rx="46" ry="14" fill="#2d263c" opacity="0.15"/>
  <path d="M100 300 Q80 260 100 230 Q90 200 120 190 Q150 175 180 185 Q210 172 245 190 Q272 202 262 232 Q282 260 258 298 Q250 316 210 320 Q180 328 150 320 Q112 318 100 300 Z"
        fill="#efe6cf" stroke="#2d263c" stroke-width="8" stroke-linejoin="round" stroke-linecap="round"/>
  <path d="M118 232 Q108 200 138 188 Q165 176 185 186 Q205 175 232 190 Q252 202 244 226 Q220 214 195 222 Q170 210 145 222 Q130 214 118 232 Z"
        fill="#f6efdc" stroke="#2d263c" stroke-width="7" stroke-linejoin="round" stroke-linecap="round"/>
  <path d="M140 190 Q132 165 155 152 Q175 141 195 152 Q216 143 232 160 Q242 176 226 190 Q205 178 182 186 Q160 176 140 190 Z"
        fill="#fbf6e8" stroke="#2d263c" stroke-width="7" stroke-linejoin="round" stroke-linecap="round"/>
  <path d="M96 90 L118 130 L86 132 Z" fill="#fbf6e8" stroke="#2d263c" stroke-width="7" stroke-linejoin="round"/>
  <path d="M262 95 L246 136 L280 132 Z" fill="#f6efdc" stroke="#2d263c" stroke-width="7" stroke-linejoin="round"/>
  <path d="M70 210 L48 232 L74 248 Z" fill="#efe6cf" stroke="#2d263c" stroke-width="7" stroke-linejoin="round"/>
  <path d="M292 218 L312 236 L288 254 Z" fill="#efe6cf" stroke="#2d263c" stroke-width="7" stroke-linejoin="round"/>
  <path d="M150 262 L136 292 L166 288 Z" fill="#e9dfc4" stroke="#2d263c" stroke-width="6" stroke-linejoin="round"/>
  <path d="M225 264 L242 292 L210 290 Z" fill="#e9dfc4" stroke="#2d263c" stroke-width="6" stroke-linejoin="round"/>
  <path d="M160 205 L172 225" stroke="#2d263c" stroke-width="5" stroke-linecap="round"/>
  <path d="M200 208 L192 228" stroke="#2d263c" stroke-width="5" stroke-linecap="round"/>
  <path d="M130 255 L145 275" stroke="#2d263c" stroke-width="5" stroke-linecap="round"/>
  <path d="M230 258 L214 278" stroke="#2d263c" stroke-width="5" stroke-linecap="round"/>
  <circle cx="163" cy="172" r="10" fill="#2d263c"/>
  <circle cx="207" cy="172" r="10" fill="#2d263c"/>
  <circle cx="166" cy="169" r="3" fill="#ffffff"/>
  <circle cx="210" cy="169" r="3" fill="#ffffff"/>
  <path d="M172 194 Q185 202 198 194" stroke="#2d263c" stroke-width="6" fill="none" stroke-linecap="round"/>
  <path d="M148 178 Q140 184 144 192" stroke="#c98a8a" stroke-width="7" fill="none" stroke-linecap="round" opacity="0.6"/>
  <path d="M222 178 Q230 184 226 192" stroke="#c98a8a" stroke-width="7" fill="none" stroke-linecap="round" opacity="0.6"/>
</svg>
