<svg xmlns="http://www.w3.org/2000/svg" viewBox="0 0 360 360">
  <!-- tail (behind body) -->
  <path d="M140 215 Q95 222 62 252 Q44 272 57 289 Q70 275 97 247 Q122 230 150 226 Z" fill="#8f86ab" stroke="#2d263c" stroke-width="7" stroke-linejoin="round" stroke-linecap="round"/>

  <!-- back leg -->
  <path d="M205 255 Q202 282 195 302 L222 302 Q228 282 225 255 Z" fill="#7b7299" stroke="#2d263c" stroke-width="7" stroke-linejoin="round" stroke-linecap="round"/>
  <path d="M191 300 Q187 314 204 314 Q221 314 219 300 Z" fill="#5c5480" stroke="#2d263c" stroke-width="6" stroke-linejoin="round"/>

  <!-- front leg -->
  <path d="M140 255 Q136 282 128 302 L155 302 Q160 282 158 255 Z" fill="#7b7299" stroke="#2d263c" stroke-width="7" stroke-linejoin="round" stroke-linecap="round"/>
  <path d="M126 300 Q122 314 139 314 Q156 314 154 300 Z" fill="#5c5480" stroke="#2d263c" stroke-width="6" stroke-linejoin="round"/>

  <!-- tiny arm -->
  <path d="M152 202 Q128 212 114 232" fill="none" stroke="#2d263c" stroke-width="8" stroke-linecap="round"/>
  <ellipse cx="110" cy="237" rx="11" ry="9" fill="#7b7299" stroke="#2d263c" stroke-width="6"/>

  <!-- body -->
  <path d="M112 202 Q94 163 129 138 Q161 116 201 128 Q243 141 247 183 Q251 220 211 242 Q164 262 121 240 Q99 226 112 202 Z"
        fill="#9089b0" stroke="#2d263c" stroke-width="8" stroke-linejoin="round"/>

  <!-- chest crystal -->
  <ellipse cx="175" cy="202" rx="17" ry="21" fill="#ff8a50" stroke="#2d263c" stroke-width="6"/>

  <!-- neck -->
  <path d="M195 143 Q214 116 239 96 Q254 83 269 90 Q259 110 244 130 Q221 150 199 158 Z"
        fill="#9089b0" stroke="#2d263c" stroke-width="8" stroke-linejoin="round"/>

  <!-- flat wide head -->
  <path d="M243 66 Q238 48 255 40 L305 36 Q330 40 336 63 Q339 83 327 98 Q315 111 295 116 L268 126 Q248 120 240 98 Q235 80 243 66 Z"
        fill="#7b7299" stroke="#2d263c" stroke-width="8" stroke-linejoin="round"/>

  <!-- mouth line -->
  <path d="M258 98 Q288 110 318 94" fill="none" stroke="#2d263c" stroke-width="5" stroke-linecap="round"/>

  <!-- eyes -->
  <circle cx="262" cy="66" r="7" fill="#fff8ea" stroke="#2d263c" stroke-width="5"/>
  <circle cx="286" cy="60" r="7" fill="#fff8ea" stroke="#2d263c" stroke-width="5"/>
  <circle cx="263" cy="67" r="2.6" fill="#2d263c"/>
  <circle cx="287" cy="61" r="2.6" fill="#2d263c"/>

  <!-- head crest fins -->
  <path d="M250 46 Q245 28 259 25 Q265 42 261 54 Z" fill="#3b6fc4" stroke="#2d263c" stroke-width="6" stroke-linejoin="round"/>
  <path d="M277 43 Q274 26 289 24 Q293 40 286 53 Z" fill="#3b6fc4" stroke="#2d263c" stroke-width="6" stroke-linejoin="round"/>
  <path d="M302 46 Q301 28 316 25 Q318 44 308 56 Z" fill="#3b6fc4" stroke="#2d263c" stroke-width="6" stroke-linejoin="round"/>
</svg>
