<svg xmlns="http://www.w3.org/2000/svg" viewBox="0 0 360 360">
  <g stroke="#2d263c" stroke-width="7" stroke-linejoin="round" stroke-linecap="round">
    <!-- tail blade (back) -->
    <path d="M195,238 C225,230 255,215 280,195 C300,178 312,158 308,140 C300,165 275,195 245,215 C225,228 208,236 195,238 Z" fill="#3fae4c"/>
    <path d="M212,222 Q250,196 298,152" fill="none" stroke-width="4" stroke="#2e8f3a"/>

    <!-- legs -->
    <path d="M150,255 C138,275 135,300 142,320 L128,332 L142,325 L145,335 L152,323 L157,333 L165,320 C172,300 168,275 158,255 Z" fill="#3fae4c"/>
    <path d="M210,255 C222,275 225,300 218,320 L232,332 L218,325 L215,335 L208,323 L203,333 L195,320 C188,300 192,275 202,255 Z" fill="#3fae4c"/>
    <ellipse cx="146" cy="288" rx="6" ry="15" transform="rotate(-18 146 288)" fill="#2e8f3a" stroke="none"/>
    <ellipse cx="214" cy="288" rx="6" ry="15" transform="rotate(18 214 288)" fill="#2e8f3a" stroke="none"/>

    <!-- torso -->
    <path d="M150,160 C140,190 138,230 148,265 C160,285 200,285 212,265 C222,230 220,190 210,160 C195,150 165,150 150,160 Z" fill="#4cb857"/>
    <ellipse cx="180" cy="230" rx="26" ry="46" fill="#f2eec2"/>

    <!-- arms -->
    <path d="M148,178 C120,190 105,215 108,235 L95,245 L108,238 L112,248 L120,236 L124,246 L130,232 C135,215 145,195 152,180 Z" fill="#4cb857"/>
    <path d="M212,178 C240,190 255,215 252,235 L265,245 L252,238 L248,248 L240,236 L236,246 L230,232 C225,215 215,195 208,180 Z" fill="#4cb857"/>

    <!-- neck leaf collar -->
    <path d="M118,155 L85,175 L128,172 Z" fill="#2e8f3a"/>
    <path d="M145,160 L120,195 L155,182 Z" fill="#2e8f3a"/>
    <path d="M215,160 L240,195 L205,182 Z" fill="#2e8f3a"/>
    <path d="M242,155 L275,175 L232,172 Z" fill="#2e8f3a"/>

    <!-- head -->
    <ellipse cx="180" cy="102" rx="48" ry="44" fill="#4cb857"/>
    <path d="M155,118 C160,135 200,135 205,118 C198,132 162,132 155,118 Z" fill="#f2eec2"/>

    <!-- twig on back of head -->
    <path d="M205,68 L236,32" fill="none" stroke-width="7" stroke="#7a5a34"/>
    <ellipse cx="240" cy="27" rx="11" ry="6" transform="rotate(-30 240 27)" fill="#5c8f3e"/>

    <!-- face -->
    <ellipse cx="158" cy="97" rx="11" ry="14" fill="#e0483c"/>
    <ellipse cx="202" cy="97" rx="11" ry="14" fill="#e0483c"/>
    <circle cx="154" cy="92" r="3" fill="#ffffff" stroke="none"/>
    <circle cx="206" cy="92" r="3" fill="#ffffff" stroke="none"/>
    <path d="M164,128 Q180,138 196,128" fill="none" stroke-width="5"/>
  </g>
</svg>
