<svg xmlns="http://www.w3.org/2000/svg" viewBox="0 0 360 360">
  <ellipse cx="185" cy="300" rx="110" ry="18" fill="#c9d6e0" opacity="0.5"/>
  <path d="M290 180 C 320 165 340 150 335 130 C 355 150 350 190 320 205 C 305 213 292 205 290 180 Z" fill="#8fa9c2" stroke="#2d263c" stroke-width="7" stroke-linejoin="round"/>
  <ellipse cx="180" cy="150" rx="52" ry="30" fill="#8fa9c2" stroke="#2d263c" stroke-width="7"/>
  <path d="M75 195 C 55 210 45 230 55 245 C 65 258 90 250 100 230 Z" fill="#eef4f8" stroke="#2d263c" stroke-width="7" stroke-linejoin="round"/>
  <path d="M180 250 C 150 275 130 290 140 305 C 150 316 178 308 195 288 Z" fill="#eef4f8" stroke="#2d263c" stroke-width="7" stroke-linejoin="round"/>
  <ellipse cx="170" cy="200" rx="115" ry="72" fill="#f5f9fb" stroke="#2d263c" stroke-width="8"/>
  <path d="M70 150 C 45 145 25 155 20 170 C 40 180 65 175 78 165 Z" fill="#f5f9fb" stroke="#2d263c" stroke-width="7" stroke-linejoin="round"/>
  <circle cx="88" cy="145" r="60" fill="#f5f9fb" stroke="#2d263c" stroke-width="8"/>
  <path d="M85 88 C 80 65 92 50 100 62 C 105 75 100 92 90 100 Z" fill="#fdf6e3" stroke="#2d263c" stroke-width="7" stroke-linejoin="round"/>
  <ellipse cx="70" cy="140" rx="9" ry="11" fill="#2d263c"/>
  <ellipse cx="103" cy="140" rx="9" ry="11" fill="#2d263c"/>
  <circle cx="72" cy="136" r="3" fill="#fff"/>
  <circle cx="105" cy="136" r="3" fill="#fff"/>
  <ellipse cx="60" cy="165" rx="10" ry="6" fill="#f7c9c9" opacity="0.8"/>
  <ellipse cx="112" cy="165" rx="10" ry="6" fill="#f7c9c9" opacity="0.8"/>
  <path d="M78 178 Q90 186 102 178" fill="none" stroke="#2d263c" stroke-width="6" stroke-linecap="round"/>
</svg>
