<svg xmlns="http://www.w3.org/2000/svg" viewBox="0 0 360 360">
  <!-- しっぽ(一番後ろ) -->
  <path d="M 185 320 Q 210 330 220 310 Q 230 290 215 275 Q 200 260 190 270 Q 180 280 185 295 Q 190 310 185 320 Z" fill="#4a9e3f" stroke="#2d263c" stroke-width="6" stroke-linejoin="round" stroke-linecap="round"/>

  <!-- 体の下部・しっぽにつながる部分 -->
  <path d="M 130 280 Q 145 295 165 300 Q 180 305 185 320 Q 180 335 170 330 Q 155 322 145 305 Q 135 290 130 280 Z" fill="#4a9e3f" stroke="#2d263c" stroke-width="7" stroke-linejoin="round" stroke-linecap="round"/>

  <!-- 体メイン(胴体) -->
  <path d="M 100 200 Q 95 230 105 260 Q 115 285 140 295 Q 165 305 185 298 Q 205 290 210 270 Q 215 250 205 230 Q 195 210 180 205 Q 165 200 150 202 Q 130 204 115 195 Q 108 195 100 200 Z" fill="#4a9e3f" stroke="#2d263c" stroke-width="7" stroke-linejoin="round" stroke-linecap="round"/>

  <!-- 腹部クリーム色 -->
  <path d="M 115 215 Q 112 240 120 265 Q 130 285 148 292 Q 165 298 182 290 Q 195 283 198 265 Q 200 248 192 232 Q 183 218 168 215 Q 148 212 130 215 Q 120 215 115 215 Z" fill="#f5e8c0" stroke="#2d263c" stroke-width="4" stroke-linejoin="round" stroke-linecap="round"/>

  <!-- 腰フリル左 -->
  <path d="M 100 235 Q 82 228 78 215 Q 76 205 85 200 Q 95 197 105 207 Q 110 215 106 225 Z" fill="#e8f0e8" stroke="#2d263c" stroke-width="5" stroke-linejoin="round" stroke-linecap="round"/>
  <!-- 腰フリル右 -->
  <path d="M 215 240 Q 233 235 238 222 Q 242 210 233 205 Q 224 200 215 210 Q 210 218 213 228 Z" fill="#e8f0e8" stroke="#2d263c" stroke-width="5" stroke-linejoin="round" stroke-linecap="round"/>

  <!-- 首(細長い) -->
  <path d="M 130 195 Q 128 175 132 155 Q 136 138 145 125 Q 152 115 160 112 Q 168 110 175 115 Q 182 122 184 138 Q 186 155 182 172 Q 178 188 172 198 Q 162 205 150 203 Q 138 200 130 195 Z" fill="#4a9e3f" stroke="#2d263c" stroke-width="7" stroke-linejoin="round" stroke-linecap="round"/>

  <!-- 首フリル左(大きめ) -->
  <path d="M 130 165 Q 108 160 98 148 Q 90 138 95 128 Q 100 119 112 120 Q 122 122 128 132 Q 133 143 132 155 Z" fill="#e8f0e8" stroke="#2d263c" stroke-width="5" stroke-linejoin="round" stroke-linecap="round"/>
  <!-- 首フリル中左 -->
  <path d="M 131 178 Q 112 177 105 167 Q 100 158 106 150 Q 113 143 122 147 Q 130 152 131 163 Z" fill="#e8f0e8" stroke="#2d263c" stroke-width="4" stroke-linejoin="round" stroke-linecap="round"/>

  <!-- 首フリル右(大きめ) -->
  <path d="M 182 162 Q 202 155 212 143 Q 220 133 215 123 Q 210 114 198 115 Q 188 117 183 128 Q 178 140 180 153 Z" fill="#e8f0e8" stroke="#2d263c" stroke-width="5" stroke-linejoin="round" stroke-linecap="round"/>
  <!-- 首フリル中右 -->
  <path d="M 181 175 Q 199 173 206 163 Q 211 154 205 146 Q 198 139 189 143 Q 181 148 181 160 Z" fill="#e8f0e8" stroke="#2d263c" stroke-width="4" stroke-linejoin="round" stroke-linecap="round"/>

  <!-- 頭部 -->
  <ellipse cx="158" cy="95" rx="30" ry="25" fill="#4a9e3f" stroke="#2d263c" stroke-width="7" stroke-linejoin="round"/>

  <!-- 頭頂の赤いトサカ/クラウン -->
  <path d="M 148 72 Q 152 55 158 50 Q 163 44 168 55 Q 172 65 168 72 Z" fill="#c0392b" stroke="#2d263c" stroke-width="5" stroke-linejoin="round" stroke-linecap="round"/>
  <!-- トサカの小さいとげ左 -->
  <path d="M 148 72 Q 142 62 145 55 Q 148 50 152 57 Z" fill="#c0392b" stroke="#2d263c" stroke-width="4" stroke-linejoin="round" stroke-linecap="round"/>
  <!-- トサカの小さいとげ右 -->
  <path d="M 168 72 Q 174 62 172 55 Q 169 50 165 57 Z" fill="#c0392b" stroke="#2d263c" stroke-width="4" stroke-linejoin="round" stroke-linecap="round"/>

  <!-- 顔:目(切れ長・気品ある) -->
  <ellipse cx="146" cy="95" rx="8" ry="5" fill="#1a1a2e" stroke="#2d263c" stroke-width="3"/>
  <ellipse cx="170" cy="94" rx="8" ry="5" fill="#1a1a2e" stroke="#2d263c" stroke-width="3"/>
  <!-- 目のハイライト -->
  <circle cx="149" cy="93" r="2" fill="white"/>
  <circle cx="173" cy="92" r="2" fill="white"/>
  <!-- 上まぶた(きつい目つき) -->
  <path d="M 138 92 Q 146 88 154 92" fill="none" stroke="#2d263c" stroke-width="3.5" stroke-linecap="round"/>
  <path d="M 162 91 Q 170 87 178 91" fill="none" stroke="#2d263c" stroke-width="3.5" stroke-linecap="round"/>

  <!-- 鼻 -->
  <path d="M 155 102 Q 158 105 161 102" fill="none" stroke="#2d263c" stroke-width="3" stroke-linecap="round"/>

  <!-- 口(ちょっと偉そう) -->
  <path d="M 150 108 Q 158 113 165 108" fill="none" stroke="#2d263c" stroke-width="3.5" stroke-linecap="round"/>

  <!-- 葉っぱ模様(体サイド左) -->
  <path d="M 108 248 Q 96 242 92 232 Q 90 225 97 222 Q 104 220 110 228 Z" fill="#3a8a30" stroke="#2d263c" stroke-width="4" stroke-linejoin="round" stroke-linecap="round"/>

  <!-- 葉っぱ模様(体サイド右) -->
  <path d="M 208 252 Q 220 246 224 236 Q 226 229 219 226 Q 212 224 206 232 Z" fill="#3a8a30" stroke="#2d263c" stroke-width="4" stroke-linejoin="round" stroke-linecap="round"/>

  <!-- しっぽ先端の巻きカール -->
  <path d="M 205 272 Q 218 265 222 255 Q 226 244 218 240 Q 210 237 206 246 Q 203 254 208 258 Q 213 262 210 268 Z" fill="#4a9e3f" stroke="#2d263c" stroke-width="5" stroke-linejoin="round" stroke-linecap="round"/>
</svg>