<svg xmlns="http://www.w3.org/2000/svg" viewBox="0 0 360 360">
<g fill="none" stroke="#2d263c" stroke-width="7" stroke-linejoin="round" stroke-linecap="round">
<path fill="#3d3d52" d="M250,235 C270,228 285,222 292,208 L278,205 L296,188 L280,182 L300,164 L282,160 L292,138 L266,150 C260,140 252,142 246,152 C238,168 236,190 240,210 C244,222 246,230 250,235 Z"/>
<path fill="#3d3d52" d="M108,298 C102,312 102,326 111,333 C122,338 133,333 132,320 C131,308 127,297 119,292 Z"/>
<path fill="#3d3d52" d="M235,298 C229,312 229,326 238,333 C249,338 260,333 259,320 C258,308 254,297 246,292 Z"/>
<path fill="#3d3d52" d="M140,288 C132,304 132,319 140,329 C151,334 163,329 162,316 C161,304 157,293 150,287 Z"/>
<path fill="#3d3d52" d="M205,288 C197,304 197,319 205,329 C216,334 228,329 227,316 C226,304 222,293 215,287 Z"/>
<ellipse fill="#201e2c" cx="120" cy="329" rx="14" ry="6"/>
<ellipse fill="#201e2c" cx="246" cy="329" rx="14" ry="6"/>
<ellipse fill="#201e2c" cx="151" cy="327" rx="13" ry="6"/>
<ellipse fill="#201e2c" cx="216" cy="327" rx="13" ry="6"/>
<path fill="#3d3d52" d="M95,255 C90,213 122,188 180,188 C240,188 271,213 265,255 C262,292 235,312 180,312 C125,312 98,292 95,255 Z"/>
<path fill="#ede4c8" d="M100,225 L120,215 L112,235 L135,222 L128,244 L108,250 Z"/>
<path fill="#ede4c8" d="M260,232 L240,222 L248,244 L225,230 L232,254 L252,258 Z"/>
<path fill="#ede4c8" d="M148,258 L172,250 L162,266 L188,256 L178,274 L155,278 Z"/>
<circle fill="#ede4c8" cx="180" cy="140" r="70"/>
<path fill="#3d3d52" d="M112,100 C100,78 102,50 122,38 C138,46 142,66 132,84 C126,94 118,99 112,100 Z"/>
<path fill="#3d3d52" d="M248,100 C260,78 258,50 238,38 C222,46 218,66 228,84 C234,94 242,99 248,100 Z"/>
<path fill="#ede4c8" d="M122,88 C114,72 116,54 126,48 C134,52 136,66 130,80 C127,85 124,87 122,88 Z"/>
<path fill="#ede4c8" d="M238,88 C246,72 244,54 234,48 C226,52 224,66 230,80 C233,85 236,87 238,88 Z"/>
<path fill="#3d3d52" d="M150,58 L162,28 L172,52 L184,24 L192,52 L204,28 L214,58 C204,68 196,72 180,72 C164,72 154,66 150,58 Z"/>
<path fill="#3d3d52" d="M108,150 L96,135 L112,128 L102,112 L122,118 C130,128 128,144 116,152 Z"/>
<path fill="#3d3d52" d="M252,150 L264,135 L248,128 L258,112 L238,118 C230,128 232,144 244,152 Z"/>
<ellipse fill="#fbf3e2" cx="180" cy="168" rx="34" ry="26"/>
<ellipse fill="#201e2c" cx="180" cy="160" rx="9" ry="6"/>
<path fill="#f2a33d" d="M132,118 L152,114 L156,132 L138,140 Z"/>
<path fill="#f2a33d" d="M228,118 L208,114 L204,132 L222,140 Z"/>
<ellipse fill="#201e2c" cx="144" cy="126" rx="6" ry="8"/>
<ellipse fill="#201e2c" cx="216" cy="126" rx="6" ry="8"/>
<circle fill="#ffffff" stroke="none" cx="141" cy="121" r="2.5"/>
<circle fill="#ffffff" stroke="none" cx="213" cy="121" r="2.5"/>
<path d="M128,108 L156,116"/>
<path d="M232,108 L204,116"/>
<path d="M175,180 C170,186 165,187 160,184"/>
<path d="M175,180 C182,188 190,190 197,185"/>
<path fill="#ffffff" stroke="none" d="M193,186 L197,193 L200,185 Z"/>
</g>
</svg>
