<svg xmlns="http://www.w3.org/2000/svg" viewBox="0 0 360 360">
  <path d="M225,275 C270,285 305,265 315,225 C298,252 265,262 232,255 C218,250 210,262 225,275 Z" fill="#4c8a26" stroke="#2d263c" stroke-width="7" stroke-linejoin="round"/>
  <path d="M290,215 C305,205 322,208 328,222 C316,226 302,228 292,224 Z" fill="#6db83a" stroke="#2d263c" stroke-width="6" stroke-linejoin="round"/>
  <ellipse cx="160" cy="322" rx="20" ry="12" fill="#8dc63f" stroke="#2d263c" stroke-width="6"/>
  <ellipse cx="200" cy="322" rx="20" ry="12" fill="#8dc63f" stroke="#2d263c" stroke-width="6"/>
  <path d="M180,128 C142,138 122,188 124,238 C126,278 142,310 162,318 L198,318 C218,310 234,278 236,238 C238,188 218,138 180,128 Z" fill="#8dc63f" stroke="#2d263c" stroke-width="8" stroke-linejoin="round"/>
  <path d="M130,205 C102,205 82,222 88,245 C100,235 118,225 138,222 Z" fill="#8dc63f" stroke="#2d263c" stroke-width="7" stroke-linejoin="round"/>
  <path d="M230,205 C258,205 278,222 272,245 C260,235 242,225 222,222 Z" fill="#8dc63f" stroke="#2d263c" stroke-width="7" stroke-linejoin="round"/>
  <circle cx="90" cy="248" r="15" fill="#8dc63f" stroke="#2d263c" stroke-width="6"/>
  <circle cx="270" cy="248" r="15" fill="#8dc63f" stroke="#2d263c" stroke-width="6"/>
  <path d="M180,155 C158,160 142,200 150,250 C154,275 166,290 180,290 C194,290 206,275 210,250 C218,200 202,160 180,155 Z" fill="#fdf6d8" stroke="none"/>
  <path d="M145,160 C138,195 140,235 152,268" fill="none" stroke="#4c8a26" stroke-width="6" stroke-linecap="round"/>
  <path d="M215,160 C222,195 220,235 208,268" fill="none" stroke="#4c8a26" stroke-width="6" stroke-linecap="round"/>
  <path d="M140,138 C108,132 84,148 90,170 C106,158 128,151 148,150 Z" fill="#c3e05c" stroke="#2d263c" stroke-width="6" stroke-linejoin="round"/>
  <path d="M220,138 C252,132 276,148 270,170 C254,158 232,151 212,150 Z" fill="#c3e05c" stroke="#2d263c" stroke-width="6" stroke-linejoin="round"/>
  <path d="M163,142 C168,120 192,120 197,142 C192,158 168,158 163,142 Z" fill="#c3e05c" stroke="#2d263c" stroke-width="6" stroke-linejoin="round"/>
  <path d="M133,88 C130,52 154,28 180,28 C206,28 230,52 227,88 C225,114 205,132 180,132 C155,132 135,114 133,88 Z" fill="#8dc63f" stroke="#2d263c" stroke-width="8" stroke-linejoin="round"/>
  <path d="M158,44 Q180,32 202,44 Q180,58 158,44 Z" fill="#4c8a26" stroke="#2d263c" stroke-width="5" stroke-linejoin="round"/>
  <ellipse cx="180" cy="115" rx="22" ry="13" fill="#fdf6d8" stroke="#2d263c" stroke-width="5"/>
  <ellipse cx="160" cy="86" rx="11" ry="14" fill="#c62828" stroke="#2d263c" stroke-width="6"/>
  <ellipse cx="200" cy="86" rx="11" ry="14" fill="#c62828" stroke="#2d263c" stroke-width="6"/>
  <circle cx="157" cy="80" r="3.5" fill="#ffffff"/>
  <circle cx="197" cy="80" r="3.5" fill="#ffffff"/>
  <path d="M167,110 Q180,118 193,110" fill="none" stroke="#2d263c" stroke-width="5" stroke-linecap="round"/>
</svg>
