<svg xmlns="http://www.w3.org/2000/svg" viewBox="0 0 360 360">
<path d="M110,185 Q85,180 70,200 Q60,215 55,235 Q60,225 70,228 Q85,208 108,203 Z" fill="#F6D94A" stroke="#2d263c" stroke-width="7" stroke-linejoin="round" stroke-linecap="round"/>
<path d="M250,185 Q275,180 290,200 Q300,215 305,235 Q300,225 290,228 Q275,208 252,203 Z" fill="#F6D94A" stroke="#2d263c" stroke-width="7" stroke-linejoin="round" stroke-linecap="round"/>
<path d="M180,55 Q200,70 215,95 Q235,80 260,70 Q248,100 245,140 Q270,160 255,190 Q245,215 220,230 Q210,270 180,310 Q150,270 140,230 Q115,215 105,190 Q90,160 115,140 Q112,100 100,70 Q125,80 145,95 Q160,70 180,55 Z" fill="#F6D94A" stroke="#2d263c" stroke-width="8" stroke-linejoin="round" stroke-linecap="round"/>
<path d="M58,220 Q66,226 72,232 Q66,234 58,244 Q50,234 44,232 Q50,226 58,220 Z" fill="#2FB8C6" stroke="#2d263c" stroke-width="4" stroke-linejoin="round"/>
<path d="M302,220 Q310,226 316,232 Q310,234 302,244 Q294,234 288,232 Q294,226 302,220 Z" fill="#2FB8C6" stroke="#2d263c" stroke-width="4" stroke-linejoin="round"/>
<path d="M180,123 Q192,133 202,143 Q192,146 180,166 Q168,146 158,143 Q168,133 180,123 Z" fill="#2FB8C6" stroke="#2d263c" stroke-width="5" stroke-linejoin="round"/>
<path d="M150,178 Q163,192 178,178" stroke="#2d263c" stroke-width="7" fill="none" stroke-linecap="round"/>
<path d="M182,178 Q197,192 210,178" stroke="#2d263c" stroke-width="7" fill="none" stroke-linecap="round"/>
<path d="M168,208 Q180,216 192,208" stroke="#2d263c" stroke-width="6" fill="none" stroke-linecap="round"/>
<ellipse cx="140" cy="195" rx="14" ry="8" fill="#FFB6C1" opacity="0.6"/>
<ellipse cx="220" cy="195" rx="14" ry="8" fill="#FFB6C1" opacity="0.6"/>
<ellipse cx="150" cy="90" rx="12" ry="18" fill="#FFFFFF" opacity="0.35"/>
</svg>
