<svg xmlns="http://www.w3.org/2000/svg" viewBox="0 0 360 360">
<path d="M200 262 Q232 286 244 250" fill="none" stroke="#aab0b8" stroke-width="14" stroke-linecap="round"/>
<circle cx="246" cy="244" r="14" fill="#d88aa8" stroke="#2d263c" stroke-width="6"/>
<path d="M150 264 L140 312 L166 314 L170 270 Z" fill="#aab0b8" stroke="#2d263c" stroke-width="7" stroke-linejoin="round"/>
<path d="M206 264 L212 312 L236 314 L226 270 Z" fill="#aab0b8" stroke="#2d263c" stroke-width="7" stroke-linejoin="round"/>
<ellipse cx="185" cy="238" rx="48" ry="52" fill="#aab0b8" stroke="#2d263c" stroke-width="8"/>
<ellipse cx="185" cy="234" rx="26" ry="30" fill="#e8a8c0" stroke="#2d263c" stroke-width="6"/>
<path d="M150 268 L185 282 L220 268 L214 286 L185 292 L156 286 Z" fill="#e8a8c0" stroke="#2d263c" stroke-width="6" stroke-linejoin="round"/>
<path d="M140 206 Q110 216 120 252 L142 246 Z" fill="#aab0b8" stroke="#2d263c" stroke-width="7" stroke-linejoin="round"/>
<circle cx="122" cy="248" r="12" fill="#e8a8c0" stroke="#2d263c" stroke-width="5"/>
<path d="M230 206 Q260 216 250 252 L228 246 Z" fill="#aab0b8" stroke="#2d263c" stroke-width="7" stroke-linejoin="round"/>
<circle cx="248" cy="248" r="12" fill="#e8a8c0" stroke="#2d263c" stroke-width="5"/>
<circle cx="185" cy="155" r="52" fill="#aab0b8" stroke="#2d263c" stroke-width="8"/>
<path d="M185 104 L174 74 L196 102 Z" fill="#d88aa8" stroke="#2d263c" stroke-width="5" stroke-linejoin="round"/>
<path d="M164 108 L148 84 L168 110 Z" fill="#d88aa8" stroke="#2d263c" stroke-width="5" stroke-linejoin="round"/>
<path d="M206 108 L222 84 L202 110 Z" fill="#d88aa8" stroke="#2d263c" stroke-width="5" stroke-linejoin="round"/>
<circle cx="200" cy="150" r="10" fill="#2d263c"/>
<circle cx="203" cy="147" r="3" fill="#fff"/>
<path d="M178 176 Q194 186 210 176" fill="none" stroke="#2d263c" stroke-width="6" stroke-linecap="round"/>
</svg>