<svg xmlns="http://www.w3.org/2000/svg" viewBox="0 0 360 360">
<g stroke="#2d263c" stroke-width="7" stroke-linejoin="round" stroke-linecap="round">
<path d="M140 120 Q108 180 120 252 Q132 282 162 286 L198 286 Q228 282 240 252 Q252 180 220 120 Z" fill="#34508a"/>
<ellipse cx="180" cy="220" rx="45" ry="55" fill="#5a7fb5"/>
<path d="M158 265 Q155 305 175 308 Q185 309 183 275 Z" fill="#5a7fb5"/>
<path d="M202 265 Q205 305 185 308 Q175 309 177 275 Z" fill="#5a7fb5"/>
<path d="M138 200 Q118 220 128 246 Q142 248 148 226 Z" fill="#5a7fb5"/>
<path d="M222 200 Q242 220 232 246 Q218 248 212 226 Z" fill="#5a7fb5"/>
<ellipse cx="180" cy="130" rx="50" ry="46" fill="#5a7fb5"/>
<path d="M132 126 Q150 94 180 92 Q210 94 228 126 Q218 108 180 106 Q142 108 132 126 Z" fill="#34508a"/>
<path d="M156 132 Q168 124 180 132" fill="none"/>
<path d="M180 132 Q192 124 204 132" fill="none"/>
<circle cx="168" cy="132" r="5" fill="#ffd23f"/>
<circle cx="192" cy="132" r="5" fill="#ffd23f"/>
<path d="M170 152 Q180 159 190 152" fill="none"/>
</g>
</svg>