<svg xmlns="http://www.w3.org/2000/svg" viewBox="0 0 360 360">
  <!-- 尻尾(背面) -->
  <path d="M 208 248 Q 252 258 278 284 Q 298 306 286 322 Q 270 332 254 318 Q 244 304 238 286 Q 230 268 212 256 Z" fill="#4a5a72" stroke="#2d263c" stroke-width="8" stroke-linejoin="round"/>
  <!-- 尻尾のガラガラ鱗 -->
  <ellipse cx="262" cy="304" rx="14" ry="10" fill="#ecdfc4" stroke="#2d263c" stroke-width="5" transform="rotate(-25 262 304)"/>
  <ellipse cx="275" cy="320" rx="12" ry="9" fill="#ecdfc4" stroke="#2d263c" stroke-width="5" transform="rotate(-35 275 320)"/>

  <!-- 右脚 -->
  <path d="M 208 252 L 214 298 Q 216 316 208 322 L 192 324 Q 184 324 185 314 L 188 292 L 184 256" fill="#4a5a72" stroke="#2d263c" stroke-width="8" stroke-linejoin="round" stroke-linecap="round"/>
  <path d="M 185 324 L 176 336 L 184 338 L 191 326" fill="#33394a" stroke="#2d263c" stroke-width="5" stroke-linejoin="round"/>
  <path d="M 201 324 L 200 337 L 207 336 L 206 324" fill="#33394a" stroke="#2d263c" stroke-width="5" stroke-linejoin="round"/>

  <!-- 左脚 -->
  <path d="M 152 250 L 145 296 Q 142 315 135 322 L 120 324 Q 112 324 113 314 L 118 290 L 122 254" fill="#4a5a72" stroke="#2d263c" stroke-width="8" stroke-linejoin="round" stroke-linecap="round"/>
  <path d="M 112 324 L 102 335 L 110 338 L 118 326" fill="#33394a" stroke="#2d263c" stroke-width="5" stroke-linejoin="round"/>
  <path d="M 120 325 L 115 337 L 123 338 L 126 326" fill="#33394a" stroke="#2d263c" stroke-width="5" stroke-linejoin="round"/>
  <path d="M 129 324 L 127 336 L 135 336 L 135 324" fill="#33394a" stroke="#2d263c" stroke-width="5" stroke-linejoin="round"/>

  <!-- 胴体 -->
  <path d="M 128 152 Q 116 192 121 232 Q 126 262 152 278 Q 172 288 190 288 Q 210 288 228 276 Q 250 260 254 228 Q 258 188 246 150 Q 232 116 198 106 Q 174 100 154 108 Q 137 118 128 152 Z" fill="#4a5a72" stroke="#2d263c" stroke-width="9" stroke-linejoin="round"/>

  <!-- 胸の帯状の鱗(クリーム) -->
  <ellipse cx="181" cy="150" rx="24" ry="15" fill="#ecdfc4" stroke="#2d263c" stroke-width="4.5"/>
  <ellipse cx="180" cy="178" rx="27" ry="16" fill="#ecdfc4" stroke="#2d263c" stroke-width="4.5"/>
  <ellipse cx="179" cy="207" rx="26" ry="16" fill="#e3d5b6" stroke="#2d263c" stroke-width="4.5"/>
  <ellipse cx="177" cy="233" rx="22" ry="14" fill="#dccca8" stroke="#2d263c" stroke-width="4"/>

  <!-- 右肩の大鱗(オレンジ・鎧状) -->
  <path d="M 222 118 Q 250 108 268 122 Q 282 134 274 150 Q 264 164 246 158 Q 232 152 224 138 Z" fill="#cf6a2a" stroke="#2d263c" stroke-width="7" stroke-linejoin="round"/>
  <!-- 左肩の大鱗 -->
  <path d="M 136 118 Q 108 108 90 122 Q 76 134 84 150 Q 94 164 112 158 Q 126 152 134 138 Z" fill="#cf6a2a" stroke="#2d263c" stroke-width="7" stroke-linejoin="round"/>

  <!-- 右腕 -->
  <path d="M 240 150 Q 264 158 272 178 Q 278 194 264 204 Q 250 212 238 204 L 232 190" fill="#4a5a72" stroke="#2d263c" stroke-width="8" stroke-linejoin="round" stroke-linecap="round"/>
  <!-- 右腕手首の輪(黄) -->
  <ellipse cx="252" cy="192" rx="14" ry="10" fill="#e8b23c" stroke="#2d263c" stroke-width="5" transform="rotate(15 252 192)"/>
  <path d="M 250 202 L 260 214 L 266 208 L 256 198" fill="#33394a" stroke="#2d263c" stroke-width="5" stroke-linejoin="round"/>
  <path d="M 244 208 L 250 220 L 258 216 L 250 204" fill="#33394a" stroke="#2d263c" stroke-width="5" stroke-linejoin="round"/>

  <!-- 左腕 -->
  <path d="M 118 150 Q 94 158 86 178 Q 80 194 94 204 Q 108 212 120 204 L 126 190" fill="#4a5a72" stroke="#2d263c" stroke-width="8" stroke-linejoin="round" stroke-linecap="round"/>
  <!-- 左腕手首の輪(黄) -->
  <ellipse cx="106" cy="192" rx="14" ry="10" fill="#e8b23c" stroke="#2d263c" stroke-width="5" transform="rotate(-15 106 192)"/>
  <path d="M 108 202 L 98 214 L 92 208 L 102 198" fill="#33394a" stroke="#2d263c" stroke-width="5" stroke-linejoin="round"/>
  <path d="M 114 208 L 108 220 L 100 216 L 108 204" fill="#33394a" stroke="#2d263c" stroke-width="5" stroke-linejoin="round"/>

  <!-- 首 -->
  <path d="M 153 118 Q 150 96 158 84 L 202 84 Q 210 96 207 118" fill="#4a5a72" stroke="#2d263c" stroke-width="8" stroke-linejoin="round"/>

  <!-- 頭部 -->
  <path d="M 150 88 Q 146 58 158 42 Q 168 28 182 25 Q 198 22 210 32 Q 222 44 224 62 Q 226 80 220 96 Q 214 110 198 116 Q 180 121 164 116 Q 152 111 150 98 Z" fill="#4a5a72" stroke="#2d263c" stroke-width="9" stroke-linejoin="round"/>

  <!-- あご・口元(ぎざぎざ鱗) -->
  <path d="M 158 100 Q 165 118 182 122 Q 200 126 210 114 Q 214 106 213 98 L 195 106 L 182 98 L 168 106 Z" fill="#ecdfc4" stroke="#2d263c" stroke-width="6" stroke-linejoin="round"/>

  <!-- 頭頂の角(左右・後方へ) -->
  <path d="M 160 46 Q 142 30 136 10 Q 146 16 156 32 Q 163 40 166 48" fill="#33394a" stroke="#2d263c" stroke-width="7" stroke-linejoin="round" stroke-linecap="round"/>
  <path d="M 210 42 Q 228 26 234 6 Q 224 12 214 28 Q 207 36 204 44" fill="#33394a" stroke="#2d263c" stroke-width="7" stroke-linejoin="round" stroke-linecap="round"/>

  <!-- 頬の模様(オレンジ) -->
  <ellipse cx="160" cy="80" rx="11" ry="8" fill="#cf6a2a" stroke="#2d263c" stroke-width="3.5" transform="rotate(-12 160 80)"/>
  <ellipse cx="210" cy="76" rx="11" ry="8" fill="#cf6a2a" stroke="#2d263c" stroke-width="3.5" transform="rotate(12 210 76)"/>

  <!-- 眉(鋭い眉骨) -->
  <path d="M 155 58 Q 163 49 176 53" fill="none" stroke="#2d263c" stroke-width="7" stroke-linecap="round"/>
  <path d="M 198 51 Q 206 47 216 53" fill="none" stroke="#2d263c" stroke-width="7" stroke-linecap="round"/>

  <!-- 目 -->
  <ellipse cx="168" cy="66" rx="13" ry="11" fill="#f2a71b" stroke="#2d263c" stroke-width="5"/>
  <ellipse cx="169" cy="68" rx="6" ry="7" fill="#1a1a2e"/>
  <ellipse cx="206" cy="62" rx="13" ry="11" fill="#f2a71b" stroke="#2d263c" stroke-width="5"/>
  <ellipse cx="207" cy="64" rx="6" ry="7" fill="#1a1a2e"/>

  <!-- トーテムのきらめき(オーラ) -->
  <path d="M 60 60 L 66 74 L 80 80 L 66 86 L 60 100 L 54 86 L 40 80 L 54 74 Z" fill="#ffe066" stroke="#2d263c" stroke-width="5" stroke-linejoin="round"/>
  <path d="M 272 200 L 276 209 L 285 213 L 276 217 L 272 226 L 268 217 L 259 213 L 268 209 Z" fill="#ffe066" stroke="#2d263c" stroke-width="4.5" stroke-linejoin="round"/>
</svg>
