<svg xmlns="http://www.w3.org/2000/svg" viewBox="0 0 360 360">
  <!-- 尾びれ(三又・後ろ) -->
  <path d="M100 165 L33 108 Q26 138 58 172 Z" fill="#c9a876" stroke="#2d263c" stroke-width="7" stroke-linejoin="round"/>
  <path d="M98 190 L22 188 Q32 202 96 208 Z" fill="#c9a876" stroke="#2d263c" stroke-width="7" stroke-linejoin="round"/>
  <path d="M100 213 L42 262 Q54 222 90 202 Z" fill="#c9a876" stroke="#2d263c" stroke-width="7" stroke-linejoin="round"/>

  <!-- 尻びれ -->
  <path d="M118 232 Q102 260 132 256 Q132 240 120 232 Z" fill="#c9a876" stroke="#2d263c" stroke-width="6" stroke-linejoin="round"/>

  <!-- 体(大きな楕円・古代魚の胴体) -->
  <ellipse cx="192" cy="185" rx="100" ry="68" fill="#3f8582" stroke="#2d263c" stroke-width="9" stroke-linejoin="round"/>

  <!-- 口先(とがった鼻先) -->
  <path d="M272 150 Q322 165 308 198 Q296 222 262 218 Z" fill="#3f8582" stroke="#2d263c" stroke-width="8" stroke-linejoin="round"/>

  <!-- せびれ(前・とげとげ) -->
  <path d="M138 128 L152 66 L174 122 L192 70 L210 126 Z" fill="#c9a876" stroke="#2d263c" stroke-width="7" stroke-linejoin="round"/>

  <!-- せびれ(後ろ・丸め) -->
  <path d="M222 133 Q230 92 252 106 Q250 128 224 140 Z" fill="#c9a876" stroke="#2d263c" stroke-width="6" stroke-linejoin="round"/>

  <!-- むなびれ(肉厚・葉状=特徴) -->
  <path d="M238 198 Q278 210 272 248 Q254 254 232 222 Z" fill="#c9a876" stroke="#2d263c" stroke-width="7" stroke-linejoin="round"/>

  <!-- はらびれ(肉厚・葉状=特徴) -->
  <path d="M182 238 Q206 264 190 296 Q172 292 174 252 Z" fill="#c9a876" stroke="#2d263c" stroke-width="7" stroke-linejoin="round"/>

  <!-- おなか(明るい色) -->
  <ellipse cx="188" cy="222" rx="68" ry="28" fill="#bfe3d6" opacity="0.85"/>

  <!-- うろこ模様(体表の筋) -->
  <path d="M115 148 Q190 128 258 152" fill="none" stroke="#2d263c" stroke-width="3" opacity="0.45"/>
  <path d="M108 178 Q190 164 268 182" fill="none" stroke="#2d263c" stroke-width="3" opacity="0.45"/>
  <path d="M115 208 Q190 222 262 212" fill="none" stroke="#2d263c" stroke-width="3" opacity="0.4"/>

  <!-- えらの筋 -->
  <path d="M228 150 Q234 188 222 222" fill="none" stroke="#2d263c" stroke-width="4" opacity="0.55"/>

  <!-- 目(白目) -->
  <circle cx="252" cy="163" r="21" fill="#fdf6e0" stroke="#2d263c" stroke-width="6"/>
  <!-- ひとみ -->
  <circle cx="256" cy="161" r="11" fill="#2d2015"/>
  <!-- 目の光 -->
  <circle cx="249" cy="155" r="3.5" fill="white"/>

  <!-- 鼻の穴 -->
  <ellipse cx="292" cy="172" rx="3" ry="2" fill="#2d263c"/>

  <!-- 口 -->
  <path d="M268 202 Q286 212 302 200" fill="none" stroke="#2d263c" stroke-width="5" stroke-linecap="round"/>
</svg>
