<svg xmlns="http://www.w3.org/2000/svg" viewBox="0 0 360 360">

  <!-- 影 -->
  <ellipse cx="178" cy="328" rx="55" ry="14" fill="#00000022"/>

  <!-- 尻尾の大きな葉(後ろ側) -->
  <path d="M200,260 Q240,240 265,210 Q255,255 225,270 Z" fill="#3A9A38" stroke="#2d263c" stroke-width="6" stroke-linejoin="round" stroke-linecap="round"/>
  <path d="M200,260 Q248,268 265,250 Q248,285 218,278 Z" fill="#3A9A38" stroke="#2d263c" stroke-width="6" stroke-linejoin="round" stroke-linecap="round"/>

  <!-- 尻尾の軸 -->
  <path d="M198,272 Q215,265 228,260 Q218,282 205,288" fill="#5EB83C" stroke="#2d263c" stroke-width="7" stroke-linejoin="round"/>

  <!-- 脚(左) -->
  <path d="M160,270 Q148,290 142,308 Q152,305 162,308 Q168,305 172,308 Q174,290 178,272" fill="#3A7C30" stroke="#2d263c" stroke-width="7" stroke-linejoin="round" stroke-linecap="round"/>

  <!-- 脚(右) -->
  <path d="M196,270 Q188,290 186,308 Q196,305 206,308 Q212,305 215,308 Q218,290 208,272" fill="#3A7C30" stroke="#2d263c" stroke-width="7" stroke-linejoin="round" stroke-linecap="round"/>

  <!-- 体 -->
  <path d="M142,180 Q138,210 142,245 Q150,270 178,278 Q206,268 210,242 Q218,210 214,178 Q205,158 178,154 Q150,158 142,180 Z" fill="#5EB83C" stroke="#2d263c" stroke-width="8" stroke-linejoin="round"/>

  <!-- お腹(黄色) -->
  <ellipse cx="178" cy="222" rx="30" ry="48" fill="#D4E840" stroke="#2d263c" stroke-width="5" stroke-linejoin="round"/>

  <!-- 背中の種(黄色い実) -->
  <ellipse cx="158" cy="185" rx="9" ry="11" fill="#E8C820" stroke="#2d263c" stroke-width="4"/>
  <ellipse cx="178" cy="178" rx="9" ry="11" fill="#E8C820" stroke="#2d263c" stroke-width="4"/>
  <ellipse cx="198" cy="185" rx="9" ry="11" fill="#E8C820" stroke="#2d263c" stroke-width="4"/>

  <!-- 腕(左) -->
  <path d="M146,210 Q118,200 108,218 Q100,238 118,248 Q135,252 148,238" fill="#5EB83C" stroke="#2d263c" stroke-width="7" stroke-linejoin="round" stroke-linecap="round"/>
  <!-- 手(左)の爪 -->
  <path d="M110,240 Q100,248 98,258 M118,246 Q112,256 112,266 M126,244 Q122,255 125,264" stroke="#2d263c" stroke-width="5" stroke-linecap="round" fill="none"/>

  <!-- 腕(右) -->
  <path d="M212,210 Q240,200 250,218 Q258,238 240,248 Q223,252 210,238" fill="#5EB83C" stroke="#2d263c" stroke-width="7" stroke-linejoin="round" stroke-linecap="round"/>
  <!-- 手(右)の爪 -->
  <path d="M248,240 Q258,248 260,258 M240,246 Q246,256 246,266 M232,244 Q236,255 233,264" stroke="#2d263c" stroke-width="5" stroke-linecap="round" fill="none"/>

  <!-- 首 -->
  <rect x="162" y="142" width="32" height="22" rx="10" fill="#5EB83C" stroke="#2d263c" stroke-width="7" stroke-linejoin="round"/>

  <!-- 頭 -->
  <ellipse cx="178" cy="120" rx="48" ry="44" fill="#3A7C30" stroke="#2d263c" stroke-width="8" stroke-linejoin="round"/>

  <!-- 顔の緑(明るい) -->
  <ellipse cx="178" cy="128" rx="30" ry="28" fill="#5EB83C" stroke="#2d263c" stroke-width="4"/>

  <!-- 目(左) -->
  <ellipse cx="162" cy="118" rx="10" ry="12" fill="white" stroke="#2d263c" stroke-width="5"/>
  <circle cx="164" cy="117" r="6" fill="#1a1a1a"/>
  <circle cx="167" cy="114" r="2.5" fill="white"/>

  <!-- 目(右) -->
  <ellipse cx="195" cy="118" rx="10" ry="12" fill="white" stroke="#2d263c" stroke-width="5"/>
  <circle cx="197" cy="117" r="6" fill="#1a1a1a"/>
  <circle cx="200" cy="114" r="2.5" fill="white"/>

  <!-- 口 -->
  <path d="M170,136 Q178,143 186,136" fill="none" stroke="#2d263c" stroke-width="5" stroke-linecap="round"/>

  <!-- トカゲの頭の模様(黄緑) -->
  <path d="M155,95 Q170,88 178,88 Q186,88 202,95" fill="none" stroke="#D4E840" stroke-width="4" stroke-linecap="round"/>

</svg>
