<svg xmlns="http://www.w3.org/2000/svg" viewBox="0 0 360 360">
<g fill="none" stroke="#2d263c" stroke-width="7" stroke-linejoin="round" stroke-linecap="round">
<path fill="#8a5a35" d="M268,232 C298,214 314,182 304,156 C297,141 279,146 274,166 C269,186 264,206 254,226 Z"/>
<path fill="#f2e3bd" d="M108,300 C102,315 102,330 111,338 C122,343 133,338 132,324 C131,311 127,299 119,294 Z"/>
<path fill="#f2e3bd" d="M235,300 C229,315 229,330 238,338 C249,343 260,338 259,324 C258,311 254,299 246,294 Z"/>
<ellipse fill="#6b4226" cx="120" cy="333" rx="14" ry="7"/>
<ellipse fill="#6b4226" cx="246" cy="333" rx="14" ry="7"/>
<path fill="#f2e3bd" d="M140,290 C132,308 132,324 140,335 C151,340 163,335 162,321 C161,308 157,296 150,289 Z"/>
<path fill="#f2e3bd" d="M205,290 C197,308 197,324 205,335 C216,340 228,335 227,321 C226,308 222,296 215,289 Z"/>
<ellipse fill="#6b4226" cx="151" cy="331" rx="13" ry="7"/>
<ellipse fill="#6b4226" cx="216" cy="331" rx="13" ry="7"/>
<path fill="#f2e3bd" d="M95,255 C90,213 122,188 180,188 C240,188 271,213 265,255 C262,292 235,312 180,312 C125,312 98,292 95,255 Z"/>
<path fill="#6b4226" d="M100,228 C104,208 130,198 152,209 C163,215 157,236 141,241 C120,247 99,246 100,228 Z"/>
<path fill="#6b4226" d="M228,236 C244,220 266,226 269,247 C271,262 250,272 234,262 C221,254 219,243 228,236 Z"/>
<path fill="#6b4226" d="M150,258 C168,250 195,255 200,268 C203,278 185,286 165,282 C150,279 143,266 150,258 Z"/>
<circle fill="#f2e3bd" cx="180" cy="140" r="70"/>
<path fill="#6b4226" d="M118,100 C104,75 108,49 126,41 C139,37 146,52 138,71 C132,86 126,95 118,100 Z"/>
<path fill="#6b4226" d="M242,100 C256,75 252,49 234,41 C221,37 214,52 222,71 C228,86 234,95 242,100 Z"/>
<path fill="#f2e3bd" d="M124,88 C118,71 122,55 132,51 C140,49 143,59 138,71 C133,81 128,86 124,88 Z"/>
<path fill="#f2e3bd" d="M236,88 C242,71 238,55 228,51 C220,49 217,59 222,71 C227,81 232,86 236,88 Z"/>
<path fill="#6b4226" d="M120,130 C114,112 130,99 148,105 C161,109 161,129 148,137 C136,145 123,142 120,130 Z"/>
<path fill="#6b4226" d="M240,130 C246,112 230,99 212,105 C199,109 199,129 212,137 C224,145 237,142 240,130 Z"/>
<ellipse fill="#fbf3e2" cx="180" cy="168" rx="34" ry="26"/>
<ellipse fill="#241d30" cx="180" cy="160" rx="9" ry="6"/>
<ellipse fill="#241d30" cx="150" cy="128" rx="10" ry="13"/>
<ellipse fill="#241d30" cx="210" cy="128" rx="10" ry="13"/>
<circle fill="#ffffff" stroke="none" cx="146" cy="121" r="3"/>
<circle fill="#ffffff" stroke="none" cx="206" cy="121" r="3"/>
<path d="M180,178 C176,184 172,185 167,183"/>
<path d="M180,178 C184,184 188,185 193,183"/>
</g>
</svg>
