<svg xmlns="http://www.w3.org/2000/svg" viewBox="0 0 360 360">
  <!-- 尻尾 (後ろ) -->
  <path d="M 210 270 Q 260 290 280 310 Q 300 330 285 345 Q 265 355 250 340 Q 235 325 230 305 Q 225 290 220 278" fill="#6b7a8f" stroke="#2d263c" stroke-width="7" stroke-linejoin="round" stroke-linecap="round"/>
  <!-- 尻尾の鱗たち -->
  <ellipse cx="262" cy="310" rx="12" ry="9" fill="#8a9ab0" stroke="#2d263c" stroke-width="4" transform="rotate(-20 262 310)"/>
  <ellipse cx="272" cy="328" rx="11" ry="8" fill="#8a9ab0" stroke="#2d263c" stroke-width="4" transform="rotate(-30 272 328)"/>
  <ellipse cx="255" cy="340" rx="10" ry="7" fill="#7c8da3" stroke="#2d263c" stroke-width="3.5" transform="rotate(-10 255 340)"/>

  <!-- 右脚 -->
  <path d="M 195 265 L 200 300 Q 202 315 195 320 L 185 322 Q 178 323 178 315 L 180 295 L 178 270" fill="#6b7a8f" stroke="#2d263c" stroke-width="7" stroke-linejoin="round" stroke-linecap="round"/>
  <!-- 右足首鱗 -->
  <ellipse cx="192" cy="310" rx="10" ry="7" fill="#8a9ab0" stroke="#2d263c" stroke-width="3.5"/>
  <!-- 右爪 -->
  <path d="M 178 320 L 170 330 L 176 332 L 182 322" fill="#4a5568" stroke="#2d263c" stroke-width="5" stroke-linejoin="round"/>
  <path d="M 185 321 L 180 333 L 186 334 L 188 322" fill="#4a5568" stroke="#2d263c" stroke-width="5" stroke-linejoin="round"/>
  <path d="M 192 320 L 190 332 L 196 331 L 195 320" fill="#4a5568" stroke="#2d263c" stroke-width="5" stroke-linejoin="round"/>

  <!-- 左脚 -->
  <path d="M 155 260 L 148 295 Q 145 312 140 318 L 130 320 Q 123 320 124 312 L 128 290 L 135 265" fill="#6b7a8f" stroke="#2d263c" stroke-width="7" stroke-linejoin="round" stroke-linecap="round"/>
  <!-- 左足首鱗 -->
  <ellipse cx="136" cy="308" rx="10" ry="7" fill="#8a9ab0" stroke="#2d263c" stroke-width="3.5"/>
  <!-- 左爪 -->
  <path d="M 123 318 L 115 328 L 121 330 L 127 320" fill="#4a5568" stroke="#2d263c" stroke-width="5" stroke-linejoin="round"/>
  <path d="M 131 319 L 126 331 L 132 333 L 134 319" fill="#4a5568" stroke="#2d263c" stroke-width="5" stroke-linejoin="round"/>
  <path d="M 140 318 L 139 330 L 145 329 L 142 318" fill="#4a5568" stroke="#2d263c" stroke-width="5" stroke-linejoin="round"/>

  <!-- 胴体 -->
  <path d="M 125 155 Q 118 180 120 220 Q 122 250 145 265 Q 165 275 180 275 Q 200 275 215 265 Q 235 250 238 220 Q 242 185 235 158 Q 225 135 200 128 Q 175 122 155 128 Q 135 135 125 155 Z" fill="#6b7a8f" stroke="#2d263c" stroke-width="8" stroke-linejoin="round"/>

  <!-- 腹部 (クリーム〜黄色の鱗) -->
  <ellipse cx="178" cy="175" rx="28" ry="20" fill="#e8d080" stroke="#2d263c" stroke-width="4"/>
  <ellipse cx="176" cy="205" rx="26" ry="18" fill="#e8d080" stroke="#2d263c" stroke-width="4"/>
  <ellipse cx="174" cy="233" rx="23" ry="16" fill="#e0c870" stroke="#2d263c" stroke-width="4"/>
  <ellipse cx="172" cy="256" rx="18" ry="12" fill="#d8be62" stroke="#2d263c" stroke-width="3.5"/>

  <!-- 体の鱗(腕あたり) -->
  <ellipse cx="136" cy="168" rx="13" ry="10" fill="#8a9ab0" stroke="#2d263c" stroke-width="3.5" transform="rotate(-15 136 168)"/>
  <ellipse cx="222" cy="165" rx="13" ry="10" fill="#8a9ab0" stroke="#2d263c" stroke-width="3.5" transform="rotate(15 222 165)"/>
  <ellipse cx="132" cy="210" rx="12" ry="9" fill="#7c8da3" stroke="#2d263c" stroke-width="3.5" transform="rotate(-10 132 210)"/>
  <ellipse cx="227" cy="208" rx="12" ry="9" fill="#7c8da3" stroke="#2d263c" stroke-width="3.5" transform="rotate(10 227 208)"/>

  <!-- 右腕 -->
  <path d="M 228 160 Q 255 150 268 165 Q 278 178 265 190 Q 252 200 238 195 L 230 185" fill="#6b7a8f" stroke="#2d263c" stroke-width="7" stroke-linejoin="round" stroke-linecap="round"/>
  <!-- 右腕の鱗 -->
  <ellipse cx="255" cy="165" rx="12" ry="8" fill="#8a9ab0" stroke="#2d263c" stroke-width="3.5" transform="rotate(20 255 165)"/>
  <ellipse cx="265" cy="180" rx="11" ry="7" fill="#8a9ab0" stroke="#2d263c" stroke-width="3.5" transform="rotate(10 265 180)"/>
  <!-- 右腕の爪 -->
  <path d="M 265 190 L 275 200 L 279 194 L 270 185" fill="#4a5568" stroke="#2d263c" stroke-width="5" stroke-linejoin="round"/>
  <path d="M 262 196 L 268 208 L 274 203 L 266 192" fill="#4a5568" stroke="#2d263c" stroke-width="5" stroke-linejoin="round"/>

  <!-- 左腕 -->
  <path d="M 130 158 Q 103 148 92 163 Q 82 176 95 188 Q 108 198 122 193 L 130 183" fill="#6b7a8f" stroke="#2d263c" stroke-width="7" stroke-linejoin="round" stroke-linecap="round"/>
  <!-- 左腕の鱗 -->
  <ellipse cx="105" cy="163" rx="12" ry="8" fill="#8a9ab0" stroke="#2d263c" stroke-width="3.5" transform="rotate(-20 105 163)"/>
  <ellipse cx="95" cy="177" rx="11" ry="7" fill="#8a9ab0" stroke="#2d263c" stroke-width="3.5" transform="rotate(-10 95 177)"/>
  <!-- 左腕の爪 -->
  <path d="M 95 188 L 82 196 L 85 202 L 97 194" fill="#4a5568" stroke="#2d263c" stroke-width="5" stroke-linejoin="round"/>
  <path d="M 97 194 L 86 204 L 90 210 L 100 200" fill="#4a5568" stroke="#2d263c" stroke-width="5" stroke-linejoin="round"/>

  <!-- 首 -->
  <path d="M 150 130 Q 148 108 155 98 L 205 98 Q 212 108 210 130" fill="#6b7a8f" stroke="#2d263c" stroke-width="7" stroke-linejoin="round"/>

  <!-- 頭部 -->
  <path d="M 148 100 Q 145 72 155 55 Q 162 42 178 38 Q 195 33 210 42 Q 224 52 228 72 Q 232 90 228 105 Q 225 118 210 125 Q 195 130 178 130 Q 160 130 152 120 Q 148 113 148 100 Z" fill="#6b7a8f" stroke="#2d263c" stroke-width="8" stroke-linejoin="round"/>

  <!-- あご(突き出た口元) -->
  <path d="M 160 118 Q 165 132 178 136 Q 192 140 200 132 Q 208 124 208 118" fill="#5a6a7f" stroke="#2d263c" stroke-width="6" stroke-linejoin="round"/>
  <path d="M 165 128 Q 178 138 200 128" fill="none" stroke="#2d263c" stroke-width="4" stroke-linecap="round"/>

  <!-- 頭の鱗/模様(オレンジ) -->
  <ellipse cx="165" cy="62" rx="14" ry="10" fill="#d4673a" stroke="#2d263c" stroke-width="3.5" transform="rotate(-10 165 62)"/>
  <ellipse cx="192" cy="58" rx="14" ry="10" fill="#d4673a" stroke="#2d263c" stroke-width="3.5" transform="rotate(10 192 58)"/>
  <ellipse cx="178" cy="52" rx="11" ry="8" fill="#c85c2e" stroke="#2d263c" stroke-width="3" />
  <!-- 頬の模様 -->
  <ellipse cx="155" cy="95" rx="10" ry="8" fill="#d4673a" stroke="#2d263c" stroke-width="3.5" transform="rotate(-15 155 95)"/>
  <ellipse cx="205" cy="92" rx="10" ry="8" fill="#d4673a" stroke="#2d263c" stroke-width="3.5" transform="rotate(15 205 92)"/>

  <!-- 目 -->
  <ellipse cx="163" cy="80" rx="12" ry="10" fill="#f0e030" stroke="#2d263c" stroke-width="5"/>
  <ellipse cx="163" cy="81" rx="6" ry="7" fill="#1a1a2e" stroke="#2d263c" stroke-width="2"/>
  <ellipse cx="166" cy="79" rx="2" ry="2" fill="white"/>
  <ellipse cx="200" cy="78" rx="12" ry="10" fill="#f0e030" stroke="#2d263c" stroke-width="5"/>
  <ellipse cx="200" cy="79" rx="6" ry="7" fill="#1a1a2e" stroke="#2d263c" stroke-width="2"/>
  <ellipse cx="203" cy="77" rx="2" ry="2" fill="white"/>

  <!-- 眉のような突起(鋭い眉骨) -->
  <path d="M 152 71 Q 158 64 170 68" fill="none" stroke="#2d263c" stroke-width="6" stroke-linecap="round"/>
  <path d="M 192 66 Q 198 62 208 68" fill="none" stroke="#2d263c" stroke-width="6" stroke-linecap="round"/>

  <!-- 頭の角(左右) -->
  <path d="M 153 55 Q 140 38 138 22 Q 145 28 150 42 Q 155 48 158 55" fill="#5a6a7f" stroke="#2d263c" stroke-width="6" stroke-linejoin="round" stroke-linecap="round"/>
  <path d="M 207 52 Q 222 36 225 20 Q 217 26 213 40 Q 209 47 204 53" fill="#5a6a7f" stroke="#2d263c" stroke-width="6" stroke-linejoin="round" stroke-linecap="round"/>

  <!-- 背中の小ヒレ(翼状) -->
  <path d="M 195 135 Q 210 115 225 108 Q 220 122 215 132 Q 208 140 200 140" fill="#5a6a7f" stroke="#2d263c" stroke-width="5" stroke-linejoin="round"/>
  <path d="M 165 135 Q 148 116 133 110 Q 140 122 145 132 Q 152 140 160 140" fill="#5a6a7f" stroke="#2d263c" stroke-width="5" stroke-linejoin="round"/>
</svg>