<svg xmlns="http://www.w3.org/2000/svg" viewBox="0 0 360 360">
  <!-- sand mound -->
  <path d="M55 285 Q55 185 120 165 Q150 142 180 152 Q210 142 240 165 Q305 185 305 285 Z" fill="#e8c878" stroke="#2d263c" stroke-width="8" stroke-linejoin="round"/>
  <!-- shovel handle -->
  <path d="M174 55 Q174 50 180 50 Q186 50 186 55 L186 140 L174 140 Z" fill="#a87850" stroke="#2d263c" stroke-width="6" stroke-linejoin="round"/>
  <!-- shovel blade -->
  <path d="M162 138 L198 138 L198 162 Q186 176 175 162 Q164 176 162 162 Z" fill="#d4503a" stroke="#2d263c" stroke-width="6" stroke-linejoin="round"/>
  <!-- eyes -->
  <ellipse cx="140" cy="212" rx="12" ry="14" fill="#2d263c"/>
  <ellipse cx="220" cy="212" rx="12" ry="14" fill="#2d263c"/>
  <circle cx="143" cy="208" r="3.5" fill="#fff8ea"/>
  <circle cx="223" cy="208" r="3.5" fill="#fff8ea"/>
  <!-- gaping mouth -->
  <path d="M152 242 Q180 272 208 242 Q180 258 152 242 Z" fill="#7a3a2a" stroke="#2d263c" stroke-width="6" stroke-linejoin="round"/>
  <!-- sand lumps -->
  <path d="M88 205 Q98 200 108 205" fill="none" stroke="#2d263c" stroke-width="5" stroke-linecap="round"/>
  <path d="M252 205 Q262 200 272 205" fill="none" stroke="#2d263c" stroke-width="5" stroke-linecap="round"/>
  <!-- tiny shell on sand -->
  <path d="M250 250 Q265 245 275 255 Q265 262 250 250 Z" fill="#f0b890" stroke="#2d263c" stroke-width="5" stroke-linejoin="round"/>
</svg>
