<svg xmlns="http://www.w3.org/2000/svg" viewBox="0 0 360 360">
  <path d="M280,205 Q318,188 315,225 Q302,248 275,233 Q270,213 280,205 Z" fill="#689f38" stroke="#2d263c" stroke-width="7" stroke-linejoin="round" stroke-linecap="round"/>
  <ellipse cx="190" cy="205" rx="120" ry="62" fill="#8bc34a" stroke="#2d263c" stroke-width="8" stroke-linejoin="round" stroke-linecap="round" transform="rotate(-8 190 205)"/>
  <ellipse cx="195" cy="175" rx="65" ry="20" fill="#a5d66b" transform="rotate(-8 190 205)"/>
  <ellipse cx="150" cy="262" rx="18" ry="12" fill="#689f38" stroke="#2d263c" stroke-width="6" stroke-linejoin="round" stroke-linecap="round"/>
  <ellipse cx="195" cy="266" rx="18" ry="12" fill="#689f38" stroke="#2d263c" stroke-width="6" stroke-linejoin="round" stroke-linecap="round"/>
  <ellipse cx="240" cy="260" rx="17" ry="11" fill="#689f38" stroke="#2d263c" stroke-width="6" stroke-linejoin="round" stroke-linecap="round"/>
  <circle cx="95" cy="185" r="60" fill="#8bc34a" stroke="#2d263c" stroke-width="8" stroke-linejoin="round" stroke-linecap="round"/>
  <path d="M55,150 Q35,108 60,112 Q75,130 68,155 Q60,155 55,150 Z" fill="#689f38" stroke="#2d263c" stroke-width="7" stroke-linejoin="round" stroke-linecap="round"/>
  <path d="M105,130 Q100,70 150,95 Q160,120 130,145 Q115,142 105,130 Z" fill="#689f38" stroke="#2d263c" stroke-width="7" stroke-linejoin="round" stroke-linecap="round"/>
  <path d="M110,175 Q90,130 130,135 Q140,105 170,128 Q185,105 210,132 Q230,120 232,155 Q238,185 210,190 Q195,210 165,192 Q140,205 118,188 Q108,182 110,175 Z" fill="#ffffff" stroke="#2d263c" stroke-width="7" stroke-linejoin="round" stroke-linecap="round"/>
  <circle cx="140" cy="128" r="14" fill="#f48fb1" stroke="#2d263c" stroke-width="6"/>
  <circle cx="140" cy="128" r="5" fill="#ad1457"/>
  <circle cx="172" cy="118" r="14" fill="#f48fb1" stroke="#2d263c" stroke-width="6"/>
  <circle cx="172" cy="118" r="5" fill="#ad1457"/>
  <circle cx="204" cy="132" r="14" fill="#f48fb1" stroke="#2d263c" stroke-width="6"/>
  <circle cx="204" cy="132" r="5" fill="#ad1457"/>
  <circle cx="60" cy="205" r="11" fill="#ffb6c1" opacity="0.7"/>
  <circle cx="78" cy="178" r="12" fill="#2d263c"/>
  <circle cx="82" cy="173" r="4" fill="#ffffff"/>
  <circle cx="40" cy="198" r="8" fill="#2d263c" stroke="#2d263c" stroke-width="6" stroke-linejoin="round" stroke-linecap="round"/>
</svg>
