<svg xmlns="http://www.w3.org/2000/svg" viewBox="0 0 360 360">
  <!-- 後ろの翼(下ペア) -->
  <ellipse cx="148" cy="155" rx="52" ry="22" fill="#c8e8f8" fill-opacity="0.72" stroke="#2d263c" stroke-width="6" stroke-linejoin="round" transform="rotate(-30 148 155)"/>
  <ellipse cx="214" cy="158" rx="50" ry="20" fill="#c8e8f8" fill-opacity="0.72" stroke="#2d263c" stroke-width="6" stroke-linejoin="round" transform="rotate(28 214 158)"/>

  <!-- 前の翼(上ペア) -->
  <ellipse cx="135" cy="118" rx="68" ry="26" fill="#ddf2ff" fill-opacity="0.82" stroke="#2d263c" stroke-width="7" stroke-linejoin="round" transform="rotate(-40 135 118)"/>
  <ellipse cx="228" cy="122" rx="66" ry="25" fill="#ddf2ff" fill-opacity="0.82" stroke="#2d263c" stroke-width="7" stroke-linejoin="round" transform="rotate(38 228 122)"/>

  <!-- しっぽの毒針(一番後ろ) -->
  <polygon points="181,318 177,290 185,290" fill="#2d263c" stroke="#2d263c" stroke-width="5" stroke-linejoin="round"/>
  <ellipse cx="181" cy="313" rx="5" ry="12" fill="#b0b0c8" stroke="#2d263c" stroke-width="5"/>

  <!-- 胴体(腹部・縞あり) -->
  <ellipse cx="181" cy="245" rx="36" ry="52" fill="#f5d800" stroke="#2d263c" stroke-width="8" stroke-linejoin="round"/>
  <!-- 縞模様 -->
  <path d="M152,228 Q181,224 210,228" fill="none" stroke="#2d263c" stroke-width="8" stroke-linecap="round"/>
  <path d="M149,247 Q181,243 213,247" fill="none" stroke="#2d263c" stroke-width="8" stroke-linecap="round"/>
  <path d="M151,266 Q181,262 211,266" fill="none" stroke="#2d263c" stroke-width="8" stroke-linecap="round"/>

  <!-- 胸部(胴と頭の間) -->
  <ellipse cx="181" cy="190" rx="22" ry="20" fill="#2d263c" stroke="#2d263c" stroke-width="6"/>

  <!-- 左腕(前足) -->
  <path d="M165,192 Q138,200 120,218" fill="none" stroke="#2d263c" stroke-width="8" stroke-linecap="round"/>
  <!-- 左の毒針 -->
  <polygon points="120,218 108,248 116,250 124,222" fill="#b0b0c8" stroke="#2d263c" stroke-width="5" stroke-linejoin="round"/>
  <ellipse cx="112" cy="249" rx="5" ry="10" fill="#909090" stroke="#2d263c" stroke-width="4"/>

  <!-- 右腕(前足) -->
  <path d="M197,192 Q224,200 242,218" fill="none" stroke="#2d263c" stroke-width="8" stroke-linecap="round"/>
  <!-- 右の毒針 -->
  <polygon points="242,218 252,248 244,250 238,222" fill="#b0b0c8" stroke="#2d263c" stroke-width="5" stroke-linejoin="round"/>
  <ellipse cx="249" cy="249" rx="5" ry="10" fill="#909090" stroke="#2d263c" stroke-width="4"/>

  <!-- 頭部(黒) -->
  <ellipse cx="181" cy="148" rx="38" ry="36" fill="#2d263c" stroke="#2d263c" stroke-width="7" stroke-linejoin="round"/>

  <!-- 触角(左) -->
  <path d="M162,114 Q152,90 143,72" fill="none" stroke="#2d263c" stroke-width="7" stroke-linecap="round"/>
  <circle cx="143" cy="70" r="7" fill="#f5d800" stroke="#2d263c" stroke-width="5"/>
  <!-- 触角(右) -->
  <path d="M200,114 Q210,90 219,72" fill="none" stroke="#2d263c" stroke-width="7" stroke-linecap="round"/>
  <circle cx="219" cy="70" r="7" fill="#f5d800" stroke="#2d263c" stroke-width="5"/>

  <!-- 複眼(左) -->
  <ellipse cx="158" cy="148" rx="19" ry="22" fill="#d42020" stroke="#2d263c" stroke-width="6"/>
  <ellipse cx="151" cy="142" rx="6" ry="7" fill="#ff6060" fill-opacity="0.55"/>
  <!-- 複眼(右) -->
  <ellipse cx="204" cy="148" rx="19" ry="22" fill="#d42020" stroke="#2d263c" stroke-width="6"/>
  <ellipse cx="197" cy="142" rx="6" ry="7" fill="#ff6060" fill-opacity="0.55"/>

  <!-- 鼻(丸い黄色の球) -->
  <circle cx="181" cy="168" r="10" fill="#f5d800" stroke="#2d263c" stroke-width="5"/>

  <!-- 眉(怒り眉・左) -->
  <path d="M146,132 Q158,126 168,130" fill="none" stroke="#2d263c" stroke-width="6" stroke-linecap="round"/>
  <!-- 眉(怒り眉・右) -->
  <path d="M194,130 Q204,126 216,132" fill="none" stroke="#2d263c" stroke-width="6" stroke-linecap="round"/>
</svg>