<svg xmlns="http://www.w3.org/2000/svg" viewBox="0 0 360 360">
  <ellipse cx="180" cy="230" rx="95" ry="65" fill="#e0a45c" stroke="#2d263c" stroke-width="7" stroke-linejoin="round"/>
  <ellipse cx="180" cy="255" rx="70" ry="35" fill="#f5e2c0" stroke="#2d263c" stroke-width="6" stroke-linejoin="round"/>
  <polygon points="95,190 70,120 115,175" fill="#c8783a" stroke="#2d263c" stroke-width="7" stroke-linejoin="round"/>
  <polygon points="135,175 120,95 160,165" fill="#c8783a" stroke="#2d263c" stroke-width="7" stroke-linejoin="round"/>
  <polygon points="180,170 180,85 210,165" fill="#c8783a" stroke="#2d263c" stroke-width="7" stroke-linejoin="round"/>
  <polygon points="225,175 235,95 250,170" fill="#c8783a" stroke="#2d263c" stroke-width="7" stroke-linejoin="round"/>
  <polygon points="265,190 285,120 250,175" fill="#c8783a" stroke="#2d263c" stroke-width="7" stroke-linejoin="round"/>
  <line x1="120" y1="235" x2="70" y2="255" stroke="#2d263c" stroke-width="8" stroke-linecap="round"/>
  <circle cx="60" cy="262" r="15" fill="#8a5a2e" stroke="#2d263c" stroke-width="6"/>
  <line x1="240" y1="235" x2="290" y2="255" stroke="#2d263c" stroke-width="8" stroke-linecap="round"/>
  <circle cx="300" cy="262" r="15" fill="#8a5a2e" stroke="#2d263c" stroke-width="6"/>
  <line x1="150" y1="290" x2="140" y2="330" stroke="#2d263c" stroke-width="9" stroke-linecap="round"/>
  <line x1="210" y1="290" x2="220" y2="330" stroke="#2d263c" stroke-width="9" stroke-linecap="round"/>
  <path d="M 100 205 Q 130 190 180 205 Q 230 190 260 205" fill="none" stroke="#2d263c" stroke-width="6" stroke-linecap="round"/>
  <circle cx="150" cy="230" r="20" fill="#fff8ee" stroke="#2d263c" stroke-width="6"/>
  <circle cx="150" cy="230" r="8" fill="#3ea8e0" stroke="#2d263c" stroke-width="4"/>
  <circle cx="210" cy="230" r="20" fill="#fff8ee" stroke="#2d263c" stroke-width="6"/>
  <circle cx="210" cy="230" r="8" fill="#3ea8e0" stroke="#2d263c" stroke-width="4"/>
  <polygon points="170,255 180,270 190,255" fill="#8a5a2e" stroke="#2d263c" stroke-width="5" stroke-linejoin="round"/>
  <path d="M 40 245 L 25 235 L 42 232" fill="#ffe64d" stroke="#2d263c" stroke-width="5" stroke-linejoin="round"/>
  <path d="M 320 245 L 335 235 L 318 232" fill="#ffe64d" stroke="#2d263c" stroke-width="5" stroke-linejoin="round"/>
</svg>
