<svg xmlns="http://www.w3.org/2000/svg" viewBox="0 0 360 360"><path d="M264 70 L238 164 L314 228 L214 232 L184 318 L146 234 L44 226 L124 166 L98 74 L178 126 Z" fill="#6c58a6" stroke="#2d263c" stroke-width="7" stroke-linejoin="round" stroke-linecap="round"/><path d="M176 46 L218 130 L316 140 L236 202 L256 290 L182 244 L96 292 L120 204 L50 144 L142 130 Z" fill="#907fc9" stroke="#2d263c" stroke-width="7" stroke-linejoin="round" stroke-linecap="round"/><path d="M180 132 L226 158 L228 208 L186 234 L140 210 L136 156 Z" fill="#7a66b5" stroke="none"/><circle cx="182" cy="183" r="49" fill="#f6c33c" stroke="#2d263c" stroke-width="7"/><path d="M180 148 L212 164 L213 200 L184 218 L152 200 L151 166 Z" fill="#d8344a" stroke="#2d263c" stroke-width="7" stroke-linejoin="round" stroke-linecap="round"/><path d="M180 148 L183 183 L213 200 M183 183 L152 200" fill="none" stroke="#9c1f33" stroke-width="4" stroke-linecap="round"/><path d="M163 162 L173 157" fill="none" stroke="#ffd9de" stroke-width="6" stroke-linecap="round"/><path d="M276 96 L276 116 M266 106 L286 106" fill="none" stroke="#ffe680" stroke-width="6" stroke-linecap="round"/><path d="M86 246 L86 260 M79 253 L93 253" fill="none" stroke="#ffe680" stroke-width="5" stroke-linecap="round"/><path d="M243 240 L249 248" fill="none" stroke="#ffe680" stroke-width="5" stroke-linecap="round"/></svg>