<svg xmlns="http://www.w3.org/2000/svg" viewBox="0 0 360 360">
<path d="M180 180 L147.5 123.7 L180 30 L212.5 123.7 Z" fill="#ff6ec7" stroke="#2d263c" stroke-width="7" stroke-linejoin="round"/>
<path d="M180 180 L212.5 123.7 L309.9 105 L245 180 Z" fill="#ffa03c" stroke="#2d263c" stroke-width="7" stroke-linejoin="round"/>
<path d="M180 180 L245 180 L309.9 255 L212.5 236.3 Z" fill="#ffe14d" stroke="#2d263c" stroke-width="7" stroke-linejoin="round"/>
<path d="M180 180 L212.5 236.3 L180 330 L147.5 236.3 Z" fill="#6ee86e" stroke="#2d263c" stroke-width="7" stroke-linejoin="round"/>
<path d="M180 180 L147.5 236.3 L50.1 255 L115 180 Z" fill="#4dc8ff" stroke="#2d263c" stroke-width="7" stroke-linejoin="round"/>
<path d="M180 180 L115 180 L50.1 105 L147.5 123.7 Z" fill="#b26eff" stroke="#2d263c" stroke-width="7" stroke-linejoin="round"/>
<circle cx="180" cy="180" r="72" fill="#3a3552" stroke="#2d263c" stroke-width="8" stroke-linejoin="round"/>
<ellipse cx="112" cy="198" rx="17" ry="12" fill="#3a3552" stroke="#2d263c" stroke-width="7" stroke-linejoin="round"/>
<ellipse cx="248" cy="198" rx="17" ry="12" fill="#3a3552" stroke="#2d263c" stroke-width="7" stroke-linejoin="round"/>
<ellipse cx="162" cy="172" rx="13" ry="15" fill="#ffffff" stroke="#2d263c" stroke-width="6" stroke-linejoin="round"/>
<ellipse cx="198" cy="172" rx="13" ry="15" fill="#ffffff" stroke="#2d263c" stroke-width="6" stroke-linejoin="round"/>
<circle cx="165" cy="175" r="6" fill="#2d263c"/>
<circle cx="201" cy="175" r="6" fill="#2d263c"/>
<circle cx="168" cy="170" r="2" fill="#ffffff"/>
<circle cx="204" cy="170" r="2" fill="#ffffff"/>
<path d="M172 196 Q180 201 188 196" fill="none" stroke="#2d263c" stroke-width="5" stroke-linecap="round"/>
<path d="M180 208 L198 228 L180 248 L162 228 Z" fill="#ffffff" stroke="#2d263c" stroke-width="6" stroke-linejoin="round"/>
<ellipse cx="160" cy="246" rx="15" ry="10" fill="#cfd6e6" stroke="#2d263c" stroke-width="6" stroke-linejoin="round"/>
<ellipse cx="200" cy="246" rx="15" ry="10" fill="#cfd6e6" stroke="#2d263c" stroke-width="6" stroke-linejoin="round"/>
</svg>
