<svg xmlns="http://www.w3.org/2000/svg" viewBox="0 0 360 360">
  <!-- 尾羽(後ろ) -->
  <path d="M228 262 Q248 292 264 314 Q254 288 249 268 Q270 298 286 318 Q278 292 268 270 Q290 296 302 312 Q292 286 278 266" fill="#f7f8fa" stroke="#2d263c" stroke-width="7" stroke-linejoin="round" stroke-linecap="round"/>
  <!-- 尾羽の青い先端 -->
  <path d="M262 300 Q272 312 282 318 Q274 305 268 296Z" fill="#3fa8d8" stroke="#2d263c" stroke-width="4" stroke-linejoin="round"/>

  <!-- 左翼(後ろ) -->
  <path d="M112 172 Q66 160 48 196 Q56 220 82 236 Q73 208 78 188 Q94 200 112 214 Q100 192 100 176Z" fill="#f7f8fa" stroke="#2d263c" stroke-width="7" stroke-linejoin="round" stroke-linecap="round"/>
  <!-- 左翼の青先端 -->
  <path d="M55 202 Q45 214 40 228 Q52 220 60 210Z" fill="#3fa8d8" stroke="#2d263c" stroke-width="4" stroke-linejoin="round"/>
  <!-- 左翼の羽模様線 -->
  <path d="M70 190 Q82 202 95 210" fill="none" stroke="#c9cfd6" stroke-width="3" stroke-linecap="round"/>

  <!-- 右翼(後ろ) -->
  <path d="M268 172 Q314 160 332 196 Q324 220 298 236 Q307 208 302 188 Q286 200 268 214 Q280 192 280 176Z" fill="#f7f8fa" stroke="#2d263c" stroke-width="7" stroke-linejoin="round" stroke-linecap="round"/>
  <!-- 右翼の青先端 -->
  <path d="M325 202 Q335 214 340 228 Q328 220 320 210Z" fill="#3fa8d8" stroke="#2d263c" stroke-width="4" stroke-linejoin="round"/>
  <!-- 右翼の羽模様線 -->
  <path d="M310 190 Q298 202 285 210" fill="none" stroke="#c9cfd6" stroke-width="3" stroke-linecap="round"/>

  <!-- 胴体 -->
  <ellipse cx="190" cy="232" rx="82" ry="70" fill="#f7f8fa" stroke="#2d263c" stroke-width="8"/>

  <!-- おなかの淡い影 -->
  <ellipse cx="196" cy="258" rx="52" ry="34" fill="#dbe7ee" stroke="none"/>

  <!-- 左足 -->
  <path d="M168 290 Q162 312 156 328 Q142 334 128 328 Q142 320 152 310 Q156 300 162 288Z" fill="#e8802a" stroke="#2d263c" stroke-width="6" stroke-linejoin="round"/>
  <!-- 右足 -->
  <path d="M214 290 Q220 312 226 328 Q240 334 254 328 Q240 320 230 310 Q226 300 220 288Z" fill="#e8802a" stroke="#2d263c" stroke-width="6" stroke-linejoin="round"/>

  <!-- 首(S字) -->
  <path d="M83 108 Q58 138 73 172 Q88 198 138 195 Q172 190 178 176 Q160 170 146 150 Q136 128 146 108 Q120 98 83 108Z" fill="#f7f8fa" stroke="#2d263c" stroke-width="8" stroke-linejoin="round"/>

  <!-- 頭部 -->
  <ellipse cx="103" cy="88" rx="37" ry="34" fill="#f7f8fa" stroke="#2d263c" stroke-width="8"/>

  <!-- 冠羽(水色プルーム・濃い影) -->
  <path d="M118 60 Q126 36 140 18 Q130 44 136 62 Q148 42 158 26 Q146 50 150 68 Q160 52 168 38 Q154 60 152 76Z" fill="#2a86ab" stroke="#2d263c" stroke-width="5" stroke-linejoin="round" stroke-linecap="round"/>
  <!-- 冠羽(明るい水色ハイライト) -->
  <path d="M124 56 Q130 38 140 24 Q133 46 138 60Z" fill="#6fc3e8" stroke="none"/>

  <!-- くちばし -->
  <path d="M73 96 Q46 88 30 92 Q45 100 56 108 Q64 104 73 108Z" fill="#f4972e" stroke="#2d263c" stroke-width="6" stroke-linejoin="round"/>
  <!-- くちばしの線 -->
  <path d="M40 95 Q52 98 62 102" fill="none" stroke="#c06a12" stroke-width="3" stroke-linecap="round"/>

  <!-- 目元の水色ライン -->
  <path d="M92 68 Q104 60 116 64" fill="none" stroke="#6fc3e8" stroke-width="4" stroke-linecap="round"/>

  <!-- 目 -->
  <ellipse cx="90" cy="83" rx="10" ry="9" fill="#ffffff" stroke="#2d263c" stroke-width="4"/>
  <circle cx="87" cy="82" r="5.5" fill="#1a1220" stroke="none"/>
  <circle cx="90" cy="79" r="2" fill="white"/>
</svg>
