<svg xmlns="http://www.w3.org/2000/svg" viewBox="0 0 360 360">
  <!-- tail (back) -->
  <path d="M232,275 C255,278 275,290 268,312 C260,330 235,320 228,300 Z" fill="#eec244" stroke="#2d263c" stroke-width="7" stroke-linejoin="round"/>

  <!-- legs -->
  <rect x="130" y="278" width="36" height="56" rx="16" ry="16" fill="#eec244" stroke="#2d263c" stroke-width="7"/>
  <rect x="196" y="278" width="36" height="56" rx="16" ry="16" fill="#eec244" stroke="#2d263c" stroke-width="7"/>

  <!-- feet -->
  <ellipse cx="147" cy="332" rx="27" ry="15" fill="#eec244" stroke="#2d263c" stroke-width="7"/>
  <ellipse cx="215" cy="332" rx="27" ry="15" fill="#eec244" stroke="#2d263c" stroke-width="7"/>
  <path d="M133,342 L131,350" stroke="#2d263c" stroke-width="6" stroke-linecap="round"/>
  <path d="M147,344 L147,352" stroke="#2d263c" stroke-width="6" stroke-linecap="round"/>
  <path d="M161,342 L163,350" stroke="#2d263c" stroke-width="6" stroke-linecap="round"/>
  <path d="M201,342 L199,350" stroke="#2d263c" stroke-width="6" stroke-linecap="round"/>
  <path d="M215,344 L215,352" stroke="#2d263c" stroke-width="6" stroke-linecap="round"/>
  <path d="M229,342 L231,350" stroke="#2d263c" stroke-width="6" stroke-linecap="round"/>

  <!-- body -->
  <ellipse cx="180" cy="225" rx="80" ry="82" fill="#f0c14b" stroke="#2d263c" stroke-width="8"/>
  <ellipse cx="180" cy="238" rx="44" ry="52" fill="#f8dd86"/>

  <!-- arms -->
  <rect x="93" y="192" width="36" height="92" rx="18" ry="18" fill="#eec244" stroke="#2d263c" stroke-width="7" transform="rotate(28 111 192)"/>
  <rect x="231" y="192" width="36" height="92" rx="18" ry="18" fill="#eec244" stroke="#2d263c" stroke-width="7" transform="rotate(-28 249 192)"/>

  <!-- hands -->
  <circle cx="86" cy="282" r="21" fill="#eec244" stroke="#2d263c" stroke-width="7"/>
  <circle cx="274" cy="282" r="21" fill="#eec244" stroke="#2d263c" stroke-width="7"/>
  <path d="M70,297 L60,312" stroke="#2d263c" stroke-width="6" stroke-linecap="round"/>
  <path d="M86,303 L84,320" stroke="#2d263c" stroke-width="6" stroke-linecap="round"/>
  <path d="M102,297 L108,314" stroke="#2d263c" stroke-width="6" stroke-linecap="round"/>
  <path d="M290,297 L300,312" stroke="#2d263c" stroke-width="6" stroke-linecap="round"/>
  <path d="M274,303 L276,320" stroke="#2d263c" stroke-width="6" stroke-linecap="round"/>
  <path d="M258,297 L252,314" stroke="#2d263c" stroke-width="6" stroke-linecap="round"/>

  <!-- head -->
  <circle cx="180" cy="115" r="63" fill="#f0c14b" stroke="#2d263c" stroke-width="8"/>

  <!-- ears -->
  <path d="M140,70 C120,50 105,25 112,20 C128,25 150,55 152,80 Z" fill="#eec244" stroke="#2d263c" stroke-width="7" stroke-linejoin="round"/>
  <path d="M220,70 C240,50 255,25 248,20 C232,25 210,55 208,80 Z" fill="#eec244" stroke="#2d263c" stroke-width="7" stroke-linejoin="round"/>
  <path d="M115,25 C123,34 130,48 133,58 C122,52 113,38 112,26 Z" fill="#8a5a2e"/>
  <path d="M245,25 C237,34 230,48 227,58 C238,52 247,38 248,26 Z" fill="#8a5a2e"/>

  <!-- face mask + snout -->
  <path d="M150,90 C130,104 126,146 148,170 C160,182 200,182 212,170 C234,146 230,104 210,90 C196,78 164,78 150,90 Z" fill="#8a5a2e" stroke="#2d263c" stroke-width="6" stroke-linejoin="round"/>
  <circle cx="180" cy="179" r="17" fill="#8a5a2e" stroke="#2d263c" stroke-width="6"/>

  <!-- eyes -->
  <ellipse cx="157" cy="112" rx="11" ry="5" fill="#2d263c" transform="rotate(-12 157 112)"/>
  <ellipse cx="203" cy="112" rx="11" ry="5" fill="#2d263c" transform="rotate(12 203 112)"/>

  <!-- mouth -->
  <path d="M168,197 Q180,205 192,197" fill="none" stroke="#2d263c" stroke-width="6" stroke-linecap="round"/>
</svg>
