<svg xmlns="http://www.w3.org/2000/svg" viewBox="0 0 360 360">
  <ellipse cx="180" cy="230" rx="95" ry="105" fill="#3a4bb0" stroke="#2d263c" stroke-width="8" stroke-linejoin="round"/>
  <path d="M110 150 Q180 60 250 150 Q230 190 180 175 Q130 190 110 150 Z" fill="#3a4bb0" stroke="#2d263c" stroke-width="8" stroke-linejoin="round"/>
  <path d="M150 90 L165 20 L185 85 Z" fill="#f5d000" stroke="#2d263c" stroke-width="7" stroke-linejoin="round"/>
  <path d="M180 80 L195 10 L215 90 Z" fill="#f5d000" stroke="#2d263c" stroke-width="7" stroke-linejoin="round"/>
  <path d="M205 90 L228 30 L238 100 Z" fill="#f5d000" stroke="#2d263c" stroke-width="7" stroke-linejoin="round"/>
  <path d="M125 100 L100 45 L145 95 Z" fill="#f5d000" stroke="#2d263c" stroke-width="7" stroke-linejoin="round"/>
  <circle cx="150" cy="145" r="20" fill="#fff8e8" stroke="#2d263c" stroke-width="7"/>
  <circle cx="215" cy="145" r="20" fill="#fff8e8" stroke="#2d263c" stroke-width="7"/>
  <circle cx="150" cy="148" r="9" fill="#ff2f3d" stroke="#2d263c" stroke-width="6"/>
  <circle cx="215" cy="148" r="9" fill="#ff2f3d" stroke="#2d263c" stroke-width="6"/>
  <path d="M165 178 Q180 190 195 178" fill="none" stroke="#2d263c" stroke-width="7" stroke-linecap="round"/>
  <path d="M120 210 Q160 195 180 220 Q200 195 240 210" fill="#f5d000" stroke="#2d263c" stroke-width="7" stroke-linejoin="round"/>
  <path d="M180 250 L165 300 L195 300 Z" fill="#f5d000" stroke="#2d263c" stroke-width="7" stroke-linejoin="round"/>
  <path d="M85 235 Q40 250 30 300 Q60 300 75 320 L90 275 Z" fill="#3a4bb0" stroke="#2d263c" stroke-width="8" stroke-linejoin="round"/>
  <path d="M275 235 Q320 250 330 300 Q300 300 285 320 L270 275 Z" fill="#3a4bb0" stroke="#2d263c" stroke-width="8" stroke-linejoin="round"/>
  <ellipse cx="35" cy="305" rx="22" ry="26" fill="#f5d000" stroke="#2d263c" stroke-width="7"/>
  <ellipse cx="325" cy="305" rx="22" ry="26" fill="#f5d000" stroke="#2d263c" stroke-width="7"/>
  <path d="M130 325 Q130 355 155 355 L150 320 Z" fill="#3a4bb0" stroke="#2d263c" stroke-width="8" stroke-linejoin="round"/>
  <path d="M230 325 Q230 355 205 355 L210 320 Z" fill="#3a4bb0" stroke="#2d263c" stroke-width="8" stroke-linejoin="round"/>
  <ellipse cx="150" cy="345" rx="24" ry="14" fill="#2d263c" stroke="#2d263c" stroke-width="6"/>
  <ellipse cx="210" cy="345" rx="24" ry="14" fill="#2d263c" stroke="#2d263c" stroke-width="6"/>
  <path d="M95 260 L120 245" fill="none" stroke="#f5d000" stroke-width="8" stroke-linecap="round"/>
  <path d="M265 260 L240 245" fill="none" stroke="#f5d000" stroke-width="8" stroke-linecap="round"/>
</svg>
