<svg xmlns="http://www.w3.org/2000/svg" viewBox="0 0 360 360">
  <!-- プロペラ羽根(後ろ) -->
  <ellipse cx="180" cy="90" rx="22" ry="60" fill="#5ce8f0" stroke="#2d263c" stroke-width="7" stroke-linejoin="round" transform="rotate(-35 180 90)"/>
  <ellipse cx="180" cy="90" rx="22" ry="60" fill="#5ce8f0" stroke="#2d263c" stroke-width="7" stroke-linejoin="round" transform="rotate(35 180 90)"/>
  <ellipse cx="180" cy="90" rx="18" ry="58" fill="#7af0f8" stroke="#2d263c" stroke-width="6" stroke-linejoin="round" transform="rotate(0 180 90)"/>

  <!-- 扇風機の外枠リング(後ろ) -->
  <circle cx="180" cy="175" r="90" fill="none" stroke="#2d263c" stroke-width="8"/>
  <circle cx="180" cy="175" r="84" fill="#4dd8e8" stroke="none"/>

  <!-- 体(メイン) -->
  <ellipse cx="180" cy="200" rx="68" ry="75" fill="#7ae8f5" stroke="#2d263c" stroke-width="8" stroke-linejoin="round"/>

  <!-- 扇風機の羽根(前面・体に重なる) -->
  <path d="M180,155 C165,130 130,118 118,100 C130,112 155,128 168,148 Z" fill="#55d8ea" stroke="#2d263c" stroke-width="6" stroke-linejoin="round" stroke-linecap="round"/>
  <path d="M180,155 C195,130 230,118 242,100 C230,112 205,128 192,148 Z" fill="#55d8ea" stroke="#2d263c" stroke-width="6" stroke-linejoin="round" stroke-linecap="round"/>
  <path d="M180,155 C158,145 135,165 118,175 C134,166 160,152 174,162 Z" fill="#55d8ea" stroke="#2d263c" stroke-width="6" stroke-linejoin="round" stroke-linecap="round"/>
  <path d="M180,155 C202,145 225,165 242,175 C226,166 200,152 186,162 Z" fill="#55d8ea" stroke="#2d263c" stroke-width="6" stroke-linejoin="round" stroke-linecap="round"/>

  <!-- プロペラ中心ハブ -->
  <circle cx="180" cy="155" r="16" fill="#2ad0e0" stroke="#2d263c" stroke-width="7"/>
  <circle cx="180" cy="155" r="7" fill="#ffffff" stroke="#2d263c" stroke-width="4"/>

  <!-- 腕(左) -->
  <path d="M115,195 C90,185 72,195 68,210 C64,225 75,240 90,238 C100,237 110,228 115,215" fill="#7ae8f5" stroke="#2d263c" stroke-width="7" stroke-linejoin="round" stroke-linecap="round"/>
  <!-- 腕(右) -->
  <path d="M245,195 C270,185 288,195 292,210 C296,225 285,240 270,238 C260,237 250,228 245,215" fill="#7ae8f5" stroke="#2d263c" stroke-width="7" stroke-linejoin="round" stroke-linecap="round"/>

  <!-- 下半身・足 -->
  <path d="M148,268 C140,285 132,300 128,318 C124,332 136,338 146,330 C154,323 158,308 162,292" fill="#7ae8f5" stroke="#2d263c" stroke-width="7" stroke-linejoin="round" stroke-linecap="round"/>
  <path d="M212,268 C220,285 228,300 232,318 C236,332 224,338 214,330 C206,323 202,308 198,292" fill="#7ae8f5" stroke="#2d263c" stroke-width="7" stroke-linejoin="round" stroke-linecap="round"/>

  <!-- 腹の白っぽい部分 -->
  <ellipse cx="180" cy="220" rx="42" ry="38" fill="#c8f8ff" stroke="none"/>

  <!-- 目(左) - ギョロッと赤オレンジ -->
  <ellipse cx="158" cy="210" rx="17" ry="20" fill="#ff4400" stroke="#2d263c" stroke-width="6"/>
  <ellipse cx="158" cy="210" rx="10" ry="13" fill="#cc2200" stroke="none"/>
  <ellipse cx="153" cy="204" rx="4" ry="5" fill="#ffffff" stroke="none"/>

  <!-- 目(右) - 少しゆがんだ非対称 -->
  <ellipse cx="203" cy="208" rx="19" ry="18" fill="#ff4400" stroke="#2d263c" stroke-width="6"/>
  <ellipse cx="203" cy="208" rx="11" ry="11" fill="#cc2200" stroke="none"/>
  <ellipse cx="197" cy="202" rx="4" ry="4" fill="#ffffff" stroke="none"/>

  <!-- 眉毛(ワルそうに斜め) -->
  <path d="M144,192 C150,186 166,188 172,192" fill="none" stroke="#2d263c" stroke-width="7" stroke-linecap="round"/>
  <path d="M192,190 C198,185 215,185 222,190" fill="none" stroke="#2d263c" stroke-width="7" stroke-linecap="round"/>

  <!-- 口(ニヤリ) -->
  <path d="M163,238 C170,248 192,250 200,240" fill="none" stroke="#2d263c" stroke-width="7" stroke-linecap="round" stroke-linejoin="round"/>
  <path d="M163,238 C161,244 164,248 168,246" fill="none" stroke="#2d263c" stroke-width="5" stroke-linecap="round"/>
  <path d="M200,240 C202,234 199,230 196,232" fill="none" stroke="#2d263c" stroke-width="5" stroke-linecap="round"/>

  <!-- 電気のビリビリ(体の縁のプラズマ感) -->
  <path d="M115,210 C108,205 100,212 95,208 C102,204 110,198 118,203" fill="#fffb00" stroke="#2d263c" stroke-width="3" stroke-linejoin="round"/>
  <path d="M245,210 C252,205 260,212 265,208 C258,204 250,198 242,203" fill="#fffb00" stroke="#2d263c" stroke-width="3" stroke-linejoin="round"/>
  <path d="M165,272 C160,280 154,275 150,282 C156,278 163,285 168,278" fill="#fffb00" stroke="#2d263c" stroke-width="3" stroke-linejoin="round"/>
  <path d="M198,270 C204,278 210,274 214,281 C208,277 201,284 196,277" fill="#fffb00" stroke="#2d263c" stroke-width="3" stroke-linejoin="round"/>
</svg>