<svg xmlns="http://www.w3.org/2000/svg" viewBox="0 0 360 360">
  <!-- 体のとぐろ -->
  <circle cx="180" cy="236" r="100" fill="#CDA063" stroke="#2d263c" stroke-width="8"/>
  <!-- 腹側(下半分・明るい) -->
  <path d="M90 244 Q180 322 270 244 Q262 302 200 320 Q138 322 98 292 Z" fill="#EBD2A0" stroke="#2d263c" stroke-width="7" stroke-linejoin="round"/>
  <!-- 巻き渦 -->
  <path d="M180 236 m-58 0 a58 58 0 1 1 116 0 a40 40 0 1 0 -80 0 a22 22 0 1 1 44 0" fill="none" stroke="#9E7238" stroke-width="9" stroke-linecap="round"/>
  <!-- こげ茶の斑点 -->
  <circle cx="120" cy="204" r="9" fill="#8A5E2A"/>
  <circle cx="242" cy="214" r="9" fill="#8A5E2A"/>
  <circle cx="214" cy="294" r="9" fill="#8A5E2A"/>
  <!-- 頭 -->
  <path d="M152 134 Q152 94 198 88 Q238 86 250 114 Q254 144 228 158 Q192 168 168 158 Q152 150 152 134Z" fill="#D8AC6E" stroke="#2d263c" stroke-width="8" stroke-linejoin="round"/>
  <!-- 目 左 -->
  <ellipse cx="180" cy="118" rx="12" ry="14" fill="#FFF6E0" stroke="#2d263c" stroke-width="5"/>
  <ellipse cx="182" cy="121" rx="5" ry="7" fill="#241f2e"/>
  <!-- 目 右 -->
  <ellipse cx="226" cy="114" rx="12" ry="14" fill="#FFF6E0" stroke="#2d263c" stroke-width="5"/>
  <ellipse cx="228" cy="117" rx="5" ry="7" fill="#241f2e"/>
  <!-- 口 -->
  <path d="M198 144 Q212 152 226 144" fill="none" stroke="#2d263c" stroke-width="5" stroke-linecap="round"/>
</svg>
