<svg xmlns="http://www.w3.org/2000/svg" viewBox="0 0 360 360">
  <g stroke="#2d263c" stroke-width="7" stroke-linejoin="round" stroke-linecap="round">
    <ellipse cx="112" cy="112" rx="46" ry="20" fill="#e6f4fb" transform="rotate(-38 112 112)"/>
    <ellipse cx="250" cy="106" rx="52" ry="22" fill="#e6f4fb" transform="rotate(33 250 106)"/>
    <path d="M163 288 L180 340 L198 286 Z" fill="#fbf3e0"/>
    <ellipse cx="180" cy="240" rx="52" ry="58" fill="#f7d12e"/>
    <path d="M130 222 Q180 234 230 222 L228 240 Q180 252 132 240 Z" fill="#2d263c" stroke="none"/>
    <path d="M134 256 Q180 267 226 256 L222 273 Q180 283 138 273 Z" fill="#2d263c" stroke="none"/>
    <path d="M115 170 Q147 175 140 200 L82 263 Q92 210 115 170 Z" fill="#fbf3e0"/>
    <path d="M245 168 Q213 175 220 200 L282 268 Q268 212 245 168 Z" fill="#fbf3e0"/>
    <path d="M147 272 Q126 294 122 316" fill="none" stroke-width="6"/>
    <path d="M165 288 Q154 308 156 326" fill="none" stroke-width="6"/>
    <path d="M214 272 Q236 294 242 312" fill="none" stroke-width="6"/>
    <ellipse cx="146" cy="166" rx="14" ry="12" fill="#f7d12e"/>
    <ellipse cx="214" cy="166" rx="14" ry="12" fill="#f7d12e"/>
    <ellipse cx="180" cy="152" rx="30" ry="27" fill="#f7d12e"/>
    <path d="M168 64 Q160 40 142 34" fill="none" stroke-width="6"/>
    <path d="M192 63 Q200 38 219 33" fill="none" stroke-width="6"/>
    <circle cx="180" cy="96" r="37" fill="#f7d12e"/>
    <ellipse cx="163" cy="97" rx="13" ry="17" fill="#e0413f" stroke-width="6"/>
    <ellipse cx="199" cy="94" rx="12" ry="18" fill="#e0413f" stroke-width="6"/>
    <circle cx="159" cy="91" r="4" fill="#ffffff" stroke="none"/>
    <circle cx="195" cy="88" r="4" fill="#ffffff" stroke="none"/>
    <path d="M149 75 L167 82" fill="none" stroke-width="6"/>
    <path d="M213 73 L195 81" fill="none" stroke-width="6"/>
    <path d="M173 118 Q181 124 189 116" fill="none" stroke-width="6"/>
  </g>
</svg>