<svg xmlns="http://www.w3.org/2000/svg" viewBox="0 0 360 360">
  <!-- 頭部(ダイヤ型・上が尖る) -->
  <path d="M180 22 Q210 30 222 65 Q232 96 214 120 Q198 136 180 136 Q162 136 146 120 Q128 96 138 65 Q150 30 180 22 Z" fill="#6FA8E0" stroke="#2d263c" stroke-width="8" stroke-linejoin="round"/>

  <!-- 額の模様(左右の筋) -->
  <path d="M158 45 Q160 65 156 82" fill="none" stroke="#3E7BC0" stroke-width="4" stroke-linecap="round"/>
  <path d="M202 45 Q200 65 204 82" fill="none" stroke="#3E7BC0" stroke-width="4" stroke-linecap="round"/>

  <!-- バイザー(目のまわりの濃い模様) -->
  <path d="M144 100 Q180 90 216 100 L214 122 Q180 132 146 122 Z" fill="#4A1E3E" stroke="#2d263c" stroke-width="5" stroke-linejoin="round"/>

  <!-- 目 左 -->
  <ellipse cx="160" cy="109" rx="9" ry="11" fill="#FF4040" stroke="#2d263c" stroke-width="3"/>
  <!-- 目 右 -->
  <ellipse cx="200" cy="109" rx="9" ry="11" fill="#FF4040" stroke="#2d263c" stroke-width="3"/>
  <!-- 目のハイライト 左右 -->
  <ellipse cx="157" cy="104" rx="2.5" ry="3" fill="#fff"/>
  <ellipse cx="197" cy="104" rx="2.5" ry="3" fill="#fff"/>

  <!-- 首(えり) -->
  <path d="M160 132 L200 132 L214 154 L146 154 Z" fill="#6FA8E0" stroke="#2d263c" stroke-width="7" stroke-linejoin="round"/>

  <!-- 胴体(細長い) -->
  <path d="M146 154 Q124 195 137 230 Q147 256 180 262 Q213 256 223 230 Q236 195 214 154 Q180 168 146 154 Z" fill="#6FA8E0" stroke="#2d263c" stroke-width="8" stroke-linejoin="round"/>

  <!-- コア(赤いダイヤ) -->
  <path d="M180 182 L201 206 L180 230 L159 206 Z" fill="#E23B3B" stroke="#2d263c" stroke-width="6" stroke-linejoin="round"/>

  <!-- 胴の模様 上下 -->
  <path d="M150 172 Q180 182 210 172" fill="none" stroke="#3E7BC0" stroke-width="5" stroke-linecap="round"/>
  <path d="M155 240 Q180 250 205 240" fill="none" stroke="#3E7BC0" stroke-width="5" stroke-linecap="round"/>

  <!-- しっぽの突起 -->
  <path d="M206 250 Q226 258 224 274 Q210 270 202 258Z" fill="#6FA8E0" stroke="#2d263c" stroke-width="6" stroke-linejoin="round"/>

  <!-- 左うで(細長いムチ状) -->
  <path d="M150 160 Q112 178 92 218 Q78 252 84 286 Q86 296 96 296 Q102 292 98 280 Q100 250 114 218 Q130 188 164 168 Z" fill="#6FA8E0" stroke="#2d263c" stroke-width="7" stroke-linejoin="round"/>
  <!-- 右うで -->
  <path d="M210 160 Q248 178 268 218 Q282 252 276 286 Q274 296 264 296 Q258 292 262 280 Q260 250 246 218 Q230 188 196 168 Z" fill="#6FA8E0" stroke="#2d263c" stroke-width="7" stroke-linejoin="round"/>

  <!-- 手さき 左右 -->
  <ellipse cx="90" cy="292" rx="8" ry="10" fill="#3E7BC0" stroke="#2d263c" stroke-width="4"/>
  <ellipse cx="270" cy="292" rx="8" ry="10" fill="#3E7BC0" stroke="#2d263c" stroke-width="4"/>

  <!-- 左あし(細長い) -->
  <path d="M158 250 Q136 282 124 312 Q118 326 128 335 Q138 338 140 328 Q138 302 150 276 Q162 254 178 262 Z" fill="#6FA8E0" stroke="#2d263c" stroke-width="7" stroke-linejoin="round"/>
  <!-- 右あし -->
  <path d="M202 250 Q224 282 236 312 Q242 326 232 335 Q222 338 220 328 Q222 302 210 276 Q198 254 182 262 Z" fill="#6FA8E0" stroke="#2d263c" stroke-width="7" stroke-linejoin="round"/>

  <!-- あしさき 左右 -->
  <ellipse cx="130" cy="330" rx="9" ry="6" fill="#3E7BC0" stroke="#2d263c" stroke-width="4"/>
  <ellipse cx="230" cy="330" rx="9" ry="6" fill="#3E7BC0" stroke="#2d263c" stroke-width="4"/>

  <!-- 口もと(小さな線) -->
  <path d="M170 125 Q180 130 190 125" fill="none" stroke="#2d263c" stroke-width="3" stroke-linecap="round"/>
</svg>
