<svg xmlns="http://www.w3.org/2000/svg" viewBox="0 0 360 360">
<path d="M165 250 L150 310" stroke="#2d263c" stroke-width="8" stroke-linecap="round"/>
<path d="M195 250 L210 310" stroke="#2d263c" stroke-width="8" stroke-linecap="round"/>
<path d="M150 160 Q140 250 180 258 Q220 250 210 160 Z" fill="#f3ecdf" stroke="#2d263c" stroke-width="8" stroke-linejoin="round"/>
<path d="M152 195 Q180 205 208 195" stroke="#e07bb0" stroke-width="6" fill="none" stroke-linecap="round"/>
<path d="M150 220 Q180 230 210 220" stroke="#48c0d8" stroke-width="6" fill="none" stroke-linecap="round"/>
<path d="M150 175 L110 215 L120 240" stroke="#2d263c" stroke-width="7" fill="none" stroke-linecap="round" stroke-linejoin="round"/>
<path d="M210 175 L250 215 L240 240" stroke="#2d263c" stroke-width="7" fill="none" stroke-linecap="round" stroke-linejoin="round"/>
<path d="M179 130 h 2 a 6 6 0 0 1 6 6 v 18 a 6 6 0 0 1 -6 6 h -2 a 6 6 0 0 1 -6 -6 v -18 a 6 6 0 0 1 6 -6 z" fill="#f3ecdf" stroke="#2d263c" stroke-width="7"/>
<circle cx="180" cy="95" r="48" fill="#f6d34a" stroke="#2d263c" stroke-width="8"/>
<path d="M180 47 Q150 95 180 143 Q210 95 180 47 Z" fill="#e07bb0" stroke="#2d263c" stroke-width="7" stroke-linejoin="round"/>
<circle cx="180" cy="95" r="20" fill="#48c0d8" stroke="#2d263c" stroke-width="6"/>
<circle cx="170" cy="92" r="5" fill="#2d263c"/>
<circle cx="192" cy="92" r="5" fill="#2d263c"/>
<path d="M168 108 Q180 116 192 108" stroke="#2d263c" stroke-width="6" fill="none" stroke-linecap="round"/>
</svg>