<svg xmlns="http://www.w3.org/2000/svg" viewBox="0 0 360 360">
  <ellipse cx="180" cy="215" rx="100" ry="90" fill="#ffcc33" stroke="#2d263c" stroke-width="7" stroke-linejoin="round"/>
  <path d="M110 150 Q180 60 250 150 Q260 175 230 190 Q180 155 130 190 Q100 175 110 150 Z" fill="#ffe066" stroke="#2d263c" stroke-width="7" stroke-linejoin="round"/>
  <path d="M165 70 Q180 40 195 70" fill="none" stroke="#2d263c" stroke-width="6" stroke-linecap="round"/>
  <path d="M70 250 Q40 280 55 320 Q75 300 95 275 Z" fill="#ffcc33" stroke="#2d263c" stroke-width="7" stroke-linejoin="round"/>
  <path d="M290 250 Q320 280 305 320 Q285 300 265 275 Z" fill="#ffcc33" stroke="#2d263c" stroke-width="7" stroke-linejoin="round"/>
  <ellipse cx="180" cy="300" rx="55" ry="30" fill="#ffe066" stroke="#2d263c" stroke-width="6" stroke-linejoin="round"/>
  <circle cx="150" cy="205" r="26" fill="#fff" stroke="#2d263c" stroke-width="6"/>
  <circle cx="210" cy="205" r="26" fill="#fff" stroke="#2d263c" stroke-width="6"/>
  <circle cx="150" cy="210" r="13" fill="#2450b8"/>
  <circle cx="210" cy="210" r="13" fill="#2450b8"/>
  <circle cx="145" cy="204" r="4" fill="#fff"/>
  <circle cx="205" cy="204" r="4" fill="#fff"/>
  <path d="M155 250 Q180 262 205 250" fill="none" stroke="#2d263c" stroke-width="6" stroke-linecap="round"/>
  <circle cx="120" cy="240" r="10" fill="#ffaa22" opacity="0.7"/>
  <circle cx="240" cy="240" r="10" fill="#ffaa22" opacity="0.7"/>
  <circle cx="180" cy="140" r="14" fill="#4d7cff" stroke="#2d263c" stroke-width="4"/>
  <ellipse cx="150" cy="255" rx="12" ry="7" fill="#2450b8" opacity="0.5"/>
  <ellipse cx="215" cy="260" rx="10" ry="6" fill="#2450b8" opacity="0.5"/>
  <ellipse cx="180" cy="285" rx="14" ry="8" fill="#2450b8" opacity="0.4"/>
</svg>
