<svg xmlns="http://www.w3.org/2000/svg" viewBox="0 0 360 360">
  <path d="M 235 265 Q 300 258 325 215 Q 305 240 255 248 Z" fill="#B8394A" stroke="#2d263c" stroke-width="7" stroke-linejoin="round" stroke-linecap="round"/>

  <path d="M 150 255 Q 138 300 148 335 L 180 335 Q 176 295 178 255 Z" fill="#B8394A" stroke="#2d263c" stroke-width="8" stroke-linejoin="round"/>
  <path d="M 200 255 Q 205 300 200 335 L 232 335 Q 238 295 228 255 Z" fill="#B8394A" stroke="#2d263c" stroke-width="8" stroke-linejoin="round"/>
  <path d="M148 335 L143 345 M161 335 L161 347 M174 335 L179 345" stroke="#2d263c" stroke-width="6" stroke-linecap="round" fill="none"/>
  <path d="M200 335 L195 345 M213 335 L213 347 M226 335 L231 345" stroke="#2d263c" stroke-width="6" stroke-linecap="round" fill="none"/>

  <ellipse cx="188" cy="228" rx="72" ry="65" fill="#B8394A" stroke="#2d263c" stroke-width="8"/>

  <ellipse cx="188" cy="252" rx="38" ry="42" fill="#F5E8C6" stroke="#2d263c" stroke-width="6"/>

  <ellipse cx="122" cy="220" rx="18" ry="30" fill="#B8394A" stroke="#2d263c" stroke-width="7"/>
  <ellipse cx="254" cy="220" rx="18" ry="30" fill="#B8394A" stroke="#2d263c" stroke-width="7"/>

  <path d="M 98 190 Q 96 88 190 78 Q 284 88 280 190 Q 274 222 190 227 Q 106 222 98 190 Z" fill="#8F2A3A" stroke="#2d263c" stroke-width="9" stroke-linejoin="round"/>

  <path d="M128 128 Q190 98 252 128" fill="none" stroke="#2d263c" stroke-width="6" stroke-linecap="round"/>
  <path d="M116 165 Q190 138 264 165" fill="none" stroke="#2d263c" stroke-width="6" stroke-linecap="round"/>

  <path d="M118 195 Q190 232 262 195 Q252 220 190 224 Q128 220 118 195 Z" fill="#F5E8C6" stroke="#2d263c" stroke-width="7" stroke-linejoin="round"/>

  <circle cx="153" cy="173" r="13" fill="#fff" stroke="#2d263c" stroke-width="6"/>
  <circle cx="227" cy="173" r="13" fill="#fff" stroke="#2d263c" stroke-width="6"/>
  <circle cx="155" cy="175" r="5" fill="#2d263c"/>
  <circle cx="229" cy="175" r="5" fill="#2d263c"/>

  <path d="M163 206 Q190 216 217 206" fill="none" stroke="#2d263c" stroke-width="7" stroke-linecap="round"/>
  <path d="M174 208 L171 216 L179 211 Z" fill="#F5E8C6" stroke="#2d263c" stroke-width="3" stroke-linejoin="round"/>
  <path d="M206 208 L209 216 L201 211 Z" fill="#F5E8C6" stroke="#2d263c" stroke-width="3" stroke-linejoin="round"/>
</svg>
