<svg xmlns="http://www.w3.org/2000/svg" viewBox="0 0 360 360">
  <path d="M135,205 Q98,232 93,270 Q88,302 112,322 Q133,332 152,315 Q163,298 166,278 Q180,288 194,278 Q197,298 208,315 Q227,332 248,322 Q272,302 267,270 Q262,232 225,205 Q180,222 135,205 Z" fill="#DDB955" stroke="#2d263c" stroke-width="7" stroke-linejoin="round" stroke-linecap="round"/>
  <path d="M104,252 Q180,264 256,252" fill="none" stroke="#B08F34" stroke-width="6" stroke-linecap="round"/>
  <path d="M100,282 Q180,294 260,282" fill="none" stroke="#B08F34" stroke-width="6" stroke-linecap="round"/>
  <ellipse cx="112" cy="323" rx="19" ry="10" fill="#4a4458" stroke="#2d263c" stroke-width="6"/>
  <ellipse cx="248" cy="323" rx="19" ry="10" fill="#4a4458" stroke="#2d263c" stroke-width="6"/>
  <ellipse cx="118" cy="188" rx="23" ry="31" fill="#F4A93C" stroke="#2d263c" stroke-width="7" stroke-linejoin="round"/>
  <ellipse cx="242" cy="188" rx="23" ry="31" fill="#F4A93C" stroke="#2d263c" stroke-width="7" stroke-linejoin="round"/>
  <circle cx="107" cy="211" r="11" fill="#4a4458" stroke="#2d263c" stroke-width="6"/>
  <circle cx="253" cy="211" r="11" fill="#4a4458" stroke="#2d263c" stroke-width="6"/>
  <path d="M140,150 Q128,192 140,216 Q180,232 220,216 Q232,192 220,150 Q180,166 140,150 Z" fill="#F4A93C" stroke="#2d263c" stroke-width="7" stroke-linejoin="round"/>
  <circle cx="180" cy="115" r="58" fill="#F4A93C" stroke="#2d263c" stroke-width="7"/>
  <path d="M140,74 L160,42 L164,74 Z" fill="#E6483C" stroke="#2d263c" stroke-width="6" stroke-linejoin="round"/>
  <path d="M166,70 L180,34 L196,70 Z" fill="#E6483C" stroke="#2d263c" stroke-width="6" stroke-linejoin="round"/>
  <path d="M198,74 L200,42 L220,74 Z" fill="#E6483C" stroke="#2d263c" stroke-width="6" stroke-linejoin="round"/>
  <path d="M124,102 Q124,96 132,96 L228,96 Q236,96 236,104 L236,128 Q180,146 124,128 Z" fill="#2d263c" stroke="#2d263c" stroke-width="7" stroke-linejoin="round"/>
  <ellipse cx="158" cy="119" rx="15" ry="17" fill="#ffffff" stroke="#2d263c" stroke-width="5"/>
  <ellipse cx="202" cy="119" rx="15" ry="17" fill="#ffffff" stroke="#2d263c" stroke-width="5"/>
  <circle cx="158" cy="121" r="7" fill="#2d263c"/>
  <circle cx="202" cy="121" r="7" fill="#2d263c"/>
  <path d="M164,152 Q180,162 196,152" fill="none" stroke="#2d263c" stroke-width="6" stroke-linecap="round"/>
</svg>
