<svg xmlns="http://www.w3.org/2000/svg" viewBox="0 0 360 360">

  <!-- 影 -->
  <ellipse cx="178" cy="325" rx="58" ry="14" fill="#00000022"/>

  <!-- だぼだぼの皮(下に垂れた赤い皮 = ズボンのよう) -->
  <path d="M128,255 Q112,268 110,295 Q118,305 132,302 Q140,290 142,278" fill="#AA2030" stroke="#2d263c" stroke-width="6" stroke-linejoin="round" stroke-linecap="round"/>
  <path d="M228,255 Q244,268 246,295 Q238,305 224,302 Q216,290 214,278" fill="#AA2030" stroke="#2d263c" stroke-width="6" stroke-linejoin="round" stroke-linecap="round"/>
  <!-- 皮の帯 -->
  <path d="M122,250 Q150,268 178,266 Q206,264 234,248 Q238,270 232,282 Q208,294 178,295 Q148,293 122,280 Z" fill="#CC3040" stroke="#2d263c" stroke-width="6" stroke-linejoin="round"/>

  <!-- 足(左) -->
  <path d="M145,270 Q138,292 136,308 Q146,310 156,308 Q160,292 162,272" fill="#C8A820" stroke="#2d263c" stroke-width="7" stroke-linejoin="round"/>

  <!-- 足(右) -->
  <path d="M212,270 Q218,292 220,308 Q210,310 200,308 Q196,292 196,272" fill="#C8A820" stroke="#2d263c" stroke-width="7" stroke-linejoin="round"/>

  <!-- 体 -->
  <path d="M130,188 Q122,215 126,250 Q138,270 178,274 Q218,270 230,248 Q235,215 228,188 Q218,162 178,158 Q138,162 130,188 Z" fill="#C8A820" stroke="#2d263c" stroke-width="8" stroke-linejoin="round"/>

  <!-- 赤い体の上半身の色 -->
  <path d="M135,188 Q128,215 130,240 Q145,255 178,258 Q212,255 226,240 Q228,215 222,188 Q215,170 178,168 Q142,170 135,188 Z" fill="#CC3040" stroke="#2d263c" stroke-width="6" stroke-linejoin="round"/>

  <!-- 胸の黄色い部分 -->
  <ellipse cx="178" cy="215" rx="32" ry="38" fill="#C8A820" stroke="#2d263c" stroke-width="5" stroke-linejoin="round"/>

  <!-- 腕(左) -->
  <path d="M132,210 Q108,200 100,220 Q95,240 115,248 Q132,252 140,235" fill="#C8A820" stroke="#2d263c" stroke-width="7" stroke-linejoin="round" stroke-linecap="round"/>

  <!-- 腕(右) -->
  <path d="M224,210 Q248,200 256,220 Q261,240 241,248 Q224,252 216,235" fill="#C8A820" stroke="#2d263c" stroke-width="7" stroke-linejoin="round" stroke-linecap="round"/>

  <!-- 首 -->
  <rect x="162" y="148" width="32" height="22" rx="10" fill="#CC3040" stroke="#2d263c" stroke-width="6" stroke-linejoin="round"/>

  <!-- 頭 -->
  <ellipse cx="178" cy="125" rx="50" ry="48" fill="#C8A820" stroke="#2d263c" stroke-width="8" stroke-linejoin="round"/>

  <!-- モヒカン(緑のとさか) -->
  <path d="M162,80 Q168,48 178,28 Q188,48 194,80" fill="#2A8830" stroke="#2d263c" stroke-width="6" stroke-linejoin="round" stroke-linecap="round"/>
  <path d="M155,85 Q160,58 166,42 Q169,58 172,82" fill="#2A8830" stroke="#2d263c" stroke-width="5" stroke-linejoin="round" stroke-linecap="round"/>
  <path d="M202,85 Q200,58 194,42 Q191,58 188,82" fill="#2A8830" stroke="#2d263c" stroke-width="5" stroke-linejoin="round" stroke-linecap="round"/>

  <!-- 目(左) -->
  <ellipse cx="160" cy="122" rx="12" ry="13" fill="white" stroke="#2d263c" stroke-width="5"/>
  <circle cx="162" cy="121" r="7" fill="#1a1a1a"/>
  <circle cx="165" cy="118" r="3" fill="white"/>

  <!-- 目(右) -->
  <ellipse cx="198" cy="122" rx="12" ry="13" fill="white" stroke="#2d263c" stroke-width="5"/>
  <circle cx="200" cy="121" r="7" fill="#1a1a1a"/>
  <circle cx="203" cy="118" r="3" fill="white"/>

  <!-- 口(ニヤリ) -->
  <path d="M163,142 Q178,155 194,142" fill="none" stroke="#2d263c" stroke-width="6" stroke-linecap="round"/>

  <!-- 歯 -->
  <path d="M168,144 L170,152 M178,145 L178,153 M188,144 L186,152" stroke="white" stroke-width="4" stroke-linecap="round" fill="none"/>

</svg>
