<svg xmlns="http://www.w3.org/2000/svg" viewBox="0 0 360 360">
  <!-- 左の翼(後ろ) -->
  <path d="M120 180 Q75 155 35 145 Q55 168 45 188 Q30 205 45 222 Q68 210 75 232 Q95 212 105 225 Q118 205 122 190 Z" fill="#584A93" stroke="#2d263c" stroke-width="7" stroke-linejoin="round" stroke-linecap="round"/>

  <!-- 右の翼(後ろ) -->
  <path d="M240 180 Q285 155 325 145 Q305 168 315 188 Q330 205 315 222 Q292 210 285 232 Q265 212 255 225 Q242 205 238 190 Z" fill="#584A93" stroke="#2d263c" stroke-width="7" stroke-linejoin="round" stroke-linecap="round"/>

  <!-- 体(頭と胴体が一体の丸いシルエット) -->
  <path d="M108 145 Q95 100 140 85 Q160 76 180 78 Q200 76 220 85 Q265 100 252 145 Q263 188 253 232 Q246 274 208 290 Q192 298 180 298 Q168 298 152 290 Q114 274 107 232 Q97 188 108 145 Z" fill="#6B5CA8" stroke="#2d263c" stroke-width="8" stroke-linejoin="round" stroke-linecap="round"/>

  <!-- 左足 -->
  <ellipse cx="152" cy="294" rx="10" ry="7" fill="#6B5CA8" stroke="#2d263c" stroke-width="6"/>
  <path d="M145 300 L140 308 M152 302 L150 310 M159 300 L162 308" fill="none" stroke="#2d263c" stroke-width="5" stroke-linecap="round"/>

  <!-- 右足 -->
  <ellipse cx="208" cy="294" rx="10" ry="7" fill="#6B5CA8" stroke="#2d263c" stroke-width="6"/>
  <path d="M215 300 L220 308 M208 302 L210 310 M201 300 L198 308" fill="none" stroke="#2d263c" stroke-width="5" stroke-linecap="round"/>

  <!-- 左耳 -->
  <path d="M132 98 Q112 55 100 24 Q125 38 148 72 Q155 88 146 102 Z" fill="#6B5CA8" stroke="#2d263c" stroke-width="7" stroke-linejoin="round" stroke-linecap="round"/>

  <!-- 右耳 -->
  <path d="M228 98 Q248 55 260 24 Q235 38 212 72 Q205 88 214 102 Z" fill="#6B5CA8" stroke="#2d263c" stroke-width="7" stroke-linejoin="round" stroke-linecap="round"/>

  <!-- 左耳の内側(ピンク) -->
  <path d="M128 92 Q114 62 106 40 Q124 52 138 76 Q142 86 136 94 Z" fill="#F5A6C8" stroke="#2d263c" stroke-width="5" stroke-linejoin="round" stroke-linecap="round"/>

  <!-- 右耳の内側(ピンク) -->
  <path d="M232 92 Q246 62 254 40 Q236 52 222 76 Q218 86 224 94 Z" fill="#F5A6C8" stroke="#2d263c" stroke-width="5" stroke-linejoin="round" stroke-linecap="round"/>

  <!-- 口(目がなく顔の中心を占める大きな口) -->
  <path d="M120 115 Q180 90 240 115 Q235 165 180 178 Q125 165 120 115 Z" fill="#7A1F3D" stroke="#2d263c" stroke-width="7" stroke-linejoin="round" stroke-linecap="round"/>

  <!-- 左の牙 -->
  <path d="M158 112 L152 145 L168 118 Z" fill="#FFFFFF" stroke="#2d263c" stroke-width="4" stroke-linejoin="round" stroke-linecap="round"/>

  <!-- 右の牙 -->
  <path d="M202 112 L208 145 L192 118 Z" fill="#FFFFFF" stroke="#2d263c" stroke-width="4" stroke-linejoin="round" stroke-linecap="round"/>
</svg>
