<svg xmlns="http://www.w3.org/2000/svg" viewBox="0 0 360 360">
  <!-- tail (behind body) -->
  <path d="M155 250 Q100 262 68 300 Q52 320 62 336 Q82 316 108 292 Q136 268 165 262 Z"
        fill="#bfe4f2" stroke="#2d263c" stroke-width="7" stroke-linejoin="round" stroke-linecap="round"/>
  <path d="M70 302 Q48 316 40 340 Q62 332 84 314 Z"
        fill="#5f9fc9" stroke="#2d263c" stroke-width="6" stroke-linejoin="round"/>

  <!-- back leg -->
  <path d="M210 258 Q206 288 200 312 L232 312 Q238 288 234 258 Z"
        fill="#8fc6de" stroke="#2d263c" stroke-width="7" stroke-linejoin="round" stroke-linecap="round"/>
  <path d="M196 310 Q191 326 212 326 Q233 326 230 310 Z"
        fill="#3f6f95" stroke="#2d263c" stroke-width="6" stroke-linejoin="round"/>

  <!-- front leg -->
  <path d="M132 258 Q128 288 122 312 L152 312 Q157 288 153 258 Z"
        fill="#8fc6de" stroke="#2d263c" stroke-width="7" stroke-linejoin="round" stroke-linecap="round"/>
  <path d="M119 310 Q114 326 135 326 Q156 326 152 310 Z"
        fill="#3f6f95" stroke="#2d263c" stroke-width="6" stroke-linejoin="round"/>

  <!-- small arm -->
  <path d="M136 200 Q108 210 92 232" fill="none" stroke="#2d263c" stroke-width="8" stroke-linecap="round"/>
  <ellipse cx="88" cy="237" rx="12" ry="10" fill="#8fc6de" stroke="#2d263c" stroke-width="6"/>

  <!-- body -->
  <path d="M120 258 Q88 220 100 175 Q112 130 165 118 Q222 106 252 148 Q278 184 258 226 Q236 268 185 272 Q145 274 120 258 Z"
        fill="#bfe4f2" stroke="#2d263c" stroke-width="8" stroke-linejoin="round"/>

  <!-- belly patch -->
  <path d="M168 172 Q188 160 210 176 Q222 210 202 244 Q182 258 164 240 Q150 206 168 172 Z"
        fill="#eef8fb" stroke="#2d263c" stroke-width="6" stroke-linejoin="round"/>

  <!-- back spikes -->
  <path d="M170 122 Q166 100 182 90 Q186 112 182 128 Z" fill="#5f9fc9" stroke="#2d263c" stroke-width="6" stroke-linejoin="round"/>
  <path d="M200 116 Q198 92 216 82 Q222 106 214 124 Z" fill="#5f9fc9" stroke="#2d263c" stroke-width="6" stroke-linejoin="round"/>
  <path d="M232 128 Q233 104 252 96 Q256 120 244 136 Z" fill="#5f9fc9" stroke="#2d263c" stroke-width="6" stroke-linejoin="round"/>

  <!-- neck -->
  <path d="M215 128 Q228 96 245 78 Q252 108 240 138 Z"
        fill="#bfe4f2" stroke="#2d263c" stroke-width="8" stroke-linejoin="round"/>

  <!-- head -->
  <path d="M212 62 Q206 40 226 30 Q262 18 288 38 Q304 52 298 76 Q292 100 264 108 Q238 114 220 96 Q206 82 212 62 Z"
        fill="#8fc6de" stroke="#2d263c" stroke-width="8" stroke-linejoin="round"/>

  <!-- lower jaw (white) -->
  <path d="M226 92 Q244 112 270 108 Q258 122 236 118 Q222 112 226 92 Z"
        fill="#eef8fb" stroke="#2d263c" stroke-width="6" stroke-linejoin="round"/>

  <!-- ice horn on head -->
  <path d="M244 44 Q241 30 256 26 Q266 38 259 52 Z" fill="#eef8fb" stroke="#2d263c" stroke-width="6" stroke-linejoin="round"/>

  <!-- signature crossed ice tusks -->
  <path d="M232 96 Q210 118 176 128 Q206 116 218 132 Q198 138 168 150 Q204 132 226 108 Z"
        fill="#eaf7fc" stroke="#2d263c" stroke-width="7" stroke-linejoin="round"/>
  <path d="M252 100 Q246 130 218 156 Q244 136 258 148 Q234 158 210 176 Q244 154 260 122 Z"
        fill="#eaf7fc" stroke="#2d263c" stroke-width="7" stroke-linejoin="round"/>

  <!-- eye -->
  <ellipse cx="258" cy="58" rx="9" ry="7" fill="#fff3b0" stroke="#2d263c" stroke-width="5"/>
  <circle cx="260" cy="58" r="3" fill="#2d263c"/>

  <!-- nostril -->
  <circle cx="286" cy="62" r="3" fill="#2d263c"/>
</svg>
