<svg xmlns="http://www.w3.org/2000/svg" viewBox="0 0 360 360">
<ellipse cx="180" cy="230" rx="88" ry="72" fill="#a8e0f0" stroke="#2d263c" stroke-width="8" stroke-linejoin="round"/>
<ellipse cx="150" cy="150" rx="62" ry="54" fill="#a8e0f0" stroke="#2d263c" stroke-width="8" stroke-linejoin="round"/>
<path d="M120 130 Q95 90 130 95 Q140 115 150 118 Z" fill="#6fb8d8" stroke="#2d263c" stroke-width="7" stroke-linejoin="round"/>
<path d="M175 118 Q185 80 210 90 Q200 118 190 128 Z" fill="#6fb8d8" stroke="#2d263c" stroke-width="7" stroke-linejoin="round"/>
<path d="M108 155 Q60 145 55 175 Q75 200 100 180 Q110 190 130 178 Q125 160 108 155 Z" fill="#3f7fa8" stroke="#2d263c" stroke-width="7" stroke-linejoin="round"/>
<circle cx="128" cy="145" r="11" fill="#fff" stroke="#2d263c" stroke-width="6"/>
<circle cx="131" cy="147" r="5" fill="#2d263c"/>
<circle cx="176" cy="140" r="11" fill="#fff" stroke="#2d263c" stroke-width="6"/>
<circle cx="179" cy="142" r="5" fill="#2d263c"/>
<path d="M118 172 Q150 186 182 170" fill="none" stroke="#2d263c" stroke-width="6" stroke-linecap="round"/>
<path d="M105 250 Q80 275 55 268 Q60 250 78 240 Z" fill="#a8e0f0" stroke="#2d263c" stroke-width="7" stroke-linejoin="round"/>
<path d="M255 250 Q280 275 305 268 Q300 250 282 240 Z" fill="#a8e0f0" stroke="#2d263c" stroke-width="7" stroke-linejoin="round"/>
<path d="M140 295 Q145 320 125 328 Q118 305 122 292 Z" fill="#a8e0f0" stroke="#2d263c" stroke-width="7" stroke-linejoin="round"/>
<path d="M220 295 Q215 320 235 328 Q242 305 238 292 Z" fill="#a8e0f0" stroke="#2d263c" stroke-width="7" stroke-linejoin="round"/>
<path d="M258 220 Q300 210 305 235 Q285 250 258 240 Z" fill="#6fb8d8" stroke="#2d263c" stroke-width="7" stroke-linejoin="round"/>
<ellipse cx="150" cy="195" rx="8" ry="14" fill="#6fb8d8" stroke="#2d263c" stroke-width="5" stroke-linejoin="round"/>
<ellipse cx="210" cy="195" rx="8" ry="14" fill="#6fb8d8" stroke="#2d263c" stroke-width="5" stroke-linejoin="round"/>
<ellipse cx="180" cy="255" rx="10" ry="16" fill="#6fb8d8" stroke="#2d263c" stroke-width="5" stroke-linejoin="round"/>
</svg>
