<svg xmlns="http://www.w3.org/2000/svg" viewBox="0 0 360 360">
  <ellipse cx="100" cy="155" rx="72" ry="40" transform="rotate(-25 100 155)" fill="#bdeef4" stroke="#2d263c" stroke-width="7"/>
  <ellipse cx="260" cy="155" rx="72" ry="40" transform="rotate(25 260 155)" fill="#bdeef4" stroke="#2d263c" stroke-width="7"/>
  <ellipse cx="120" cy="205" rx="46" ry="27" transform="rotate(-15 120 205)" fill="#bdeef4" stroke="#2d263c" stroke-width="7"/>
  <ellipse cx="240" cy="205" rx="46" ry="27" transform="rotate(15 240 205)" fill="#bdeef4" stroke="#2d263c" stroke-width="7"/>
  <path d="M180,60 C225,60 250,95 248,140 C246,170 234,185 238,210 C242,235 228,258 200,270 C190,274 170,274 160,270 C132,258 118,235 122,210 C126,185 114,170 112,140 C110,95 135,60 180,60 Z" fill="#5cc17d" stroke="#2d263c" stroke-width="8" stroke-linejoin="round"/>
  <ellipse cx="180" cy="188" rx="34" ry="58" fill="#fdf3d6" stroke="#2d263c" stroke-width="6"/>
  <ellipse cx="100" cy="175" rx="24" ry="15" transform="rotate(-25 100 175)" fill="#5cc17d" stroke="#2d263c" stroke-width="7"/>
  <ellipse cx="260" cy="175" rx="24" ry="15" transform="rotate(25 260 175)" fill="#5cc17d" stroke="#2d263c" stroke-width="7"/>
  <ellipse cx="150" cy="288" rx="20" ry="14" fill="#5cc17d" stroke="#2d263c" stroke-width="7"/>
  <ellipse cx="210" cy="288" rx="20" ry="14" fill="#5cc17d" stroke="#2d263c" stroke-width="7"/>
  <ellipse cx="180" cy="52" rx="11" ry="17" fill="#4aab68" stroke="#2d263c" stroke-width="6"/>
  <path d="M160,65 Q122,50 116,34" fill="none" stroke="#2d263c" stroke-width="9" stroke-linecap="round"/>
  <ellipse cx="112" cy="30" rx="14" ry="18" transform="rotate(-20 112 30)" fill="#4aab68" stroke="#2d263c" stroke-width="7"/>
  <path d="M200,65 Q238,50 244,34" fill="none" stroke="#2d263c" stroke-width="9" stroke-linecap="round"/>
  <ellipse cx="248" cy="30" rx="14" ry="18" transform="rotate(20 248 30)" fill="#4aab68" stroke="#2d263c" stroke-width="7"/>
  <ellipse cx="155" cy="140" rx="20" ry="24" fill="#ffffff" stroke="#2d263c" stroke-width="6"/>
  <ellipse cx="205" cy="140" rx="20" ry="24" fill="#ffffff" stroke="#2d263c" stroke-width="6"/>
  <circle cx="157" cy="146" r="9" fill="#7a2b2b"/>
  <circle cx="207" cy="146" r="9" fill="#7a2b2b"/>
  <path d="M170,168 Q180,176 190,168" fill="none" stroke="#2d263c" stroke-width="6" stroke-linecap="round"/>
  <circle cx="122" cy="162" r="8" fill="#ffc2c2"/>
  <circle cx="238" cy="162" r="8" fill="#ffc2c2"/>
</svg>
