<svg xmlns="http://www.w3.org/2000/svg" viewBox="0 0 360 360">
<ellipse cx="180" cy="330" rx="110" ry="16" fill="#2d263c" opacity="0.15"/>
<path d="M100 330 L95 200 Q90 120 130 70 Q150 45 180 45 Q210 45 230 70 Q270 120 265 200 L260 330 Z" fill="#3a3540" stroke="#2d263c" stroke-width="8" stroke-linejoin="round"/>
<path d="M120 330 L118 210 Q116 140 150 100 L150 330 Z" fill="#211c28" stroke="#2d263c" stroke-width="6" stroke-linejoin="round"/>
<path d="M210 330 L212 210 Q214 140 210 100 L210 330 Z" fill="#211c28" stroke="#2d263c" stroke-width="6" stroke-linejoin="round"/>
<circle cx="140" cy="150" r="14" fill="#ff8a3d" stroke="#2d263c" stroke-width="6"/>
<circle cx="180" cy="130" r="16" fill="#ffb02e" stroke="#2d263c" stroke-width="6"/>
<circle cx="220" cy="155" r="13" fill="#ff8a3d" stroke="#2d263c" stroke-width="6"/>
<circle cx="160" cy="200" r="11" fill="#ffb02e" stroke="#2d263c" stroke-width="6"/>
<circle cx="205" cy="205" r="11" fill="#ff8a3d" stroke="#2d263c" stroke-width="6"/>
<path d="M175 40 Q180 5 185 40 Q195 15 190 45" fill="#ff5a2b" stroke="#2d263c" stroke-width="7" stroke-linejoin="round"/>
<path d="M140 55 Q145 20 152 55" fill="#ffb02e" stroke="#2d263c" stroke-width="6" stroke-linejoin="round"/>
<path d="M215 58 Q222 25 228 58" fill="#ffb02e" stroke="#2d263c" stroke-width="6" stroke-linejoin="round"/>
<path d="M55 190 Q20 170 15 210 Q12 245 55 250 Q40 220 55 190Z" fill="#3a3540" stroke="#2d263c" stroke-width="8" stroke-linejoin="round"/>
<path d="M305 190 Q340 170 345 210 Q348 245 305 250 Q320 220 305 190Z" fill="#3a3540" stroke="#2d263c" stroke-width="8" stroke-linejoin="round"/>
<ellipse cx="150" cy="255" rx="20" ry="14" fill="#1a1620" stroke="#2d263c" stroke-width="7"/>
<ellipse cx="212" cy="255" rx="20" ry="14" fill="#1a1620" stroke="#2d263c" stroke-width="7"/>
<circle cx="153" cy="253" r="5" fill="#fff5e0"/>
<circle cx="215" cy="253" r="5" fill="#fff5e0"/>
<path d="M140 300 Q180 320 222 300" fill="none" stroke="#ff5a2b" stroke-width="8" stroke-linecap="round"/>
<path d="M95 330 L95 300 L110 330 Z" fill="#211c28" stroke="#2d263c" stroke-width="6" stroke-linejoin="round"/>
<path d="M265 330 L265 300 L250 330 Z" fill="#211c28" stroke="#2d263c" stroke-width="6" stroke-linejoin="round"/>
</svg>
