<svg xmlns="http://www.w3.org/2000/svg" viewBox="0 0 360 360">
<g fill="none" stroke="#2d263c" stroke-width="7" stroke-linejoin="round" stroke-linecap="round">
<path fill="#3a3540" d="M120 250 C112 290 118 330 144 332 C168 330 168 292 160 250 Z"/>
<path fill="#3a3540" d="M240 250 C248 290 242 330 216 332 C192 330 192 292 200 250 Z"/>
<path fill="#6a5a4a" d="M86 180 C64 200 56 250 72 270 C90 274 104 244 104 214 Z"/>
<path fill="#6a5a4a" d="M274 180 C296 200 304 250 288 270 C270 274 256 244 256 214 Z"/>
<path fill="#3a3540" d="M180 100 C240 104 280 150 280 210 C280 250 250 270 180 270 C110 270 80 250 80 210 C80 150 120 104 180 100 Z"/>
<path fill="#6a5a4a" d="M96 120 C76 100 86 76 112 80 C128 92 124 120 112 128 Z"/>
<path fill="#6a5a4a" d="M264 120 C284 100 274 76 248 80 C232 92 236 120 248 128 Z"/>
<path fill="#4a4458" d="M120 96 C150 60 210 60 240 96 C230 82 210 76 180 76 C150 76 130 82 120 96 Z"/>
<path d="M120 160 L150 180 M220 160 L200 184 M120 220 L150 230 M240 220 L210 230 M180 140 L180 165" stroke="#f0842a" stroke-width="5"/>
<path d="M150 200 L172 210 M210 200 L188 210" stroke="#f5d04a" stroke-width="4"/>
<path fill="#3a2820" d="M138 196 C160 220 200 220 222 196 C218 224 200 240 180 240 C160 240 142 224 138 196 Z"/>
<path fill="#f0842a" stroke="none" d="M150 200 C168 214 192 214 210 200 C206 218 194 228 180 228 C166 228 154 218 150 200 Z"/>
<ellipse fill="#fff" cx="148" cy="156" rx="13" ry="11"/>
<ellipse fill="#fff" cx="212" cy="156" rx="13" ry="11"/>
<ellipse fill="#2d263c" cx="152" cy="158" rx="6" ry="8"/>
<ellipse fill="#2d263c" cx="208" cy="158" rx="6" ry="8"/>
<path d="M134 146 L162 150" stroke-width="4"/>
<path d="M226 146 L198 150" stroke-width="4"/>
</g>
</svg>
