<svg xmlns="http://www.w3.org/2000/svg" viewBox="0 0 360 360">
<g stroke="#2d263c" stroke-width="7" stroke-linejoin="round" stroke-linecap="round">
  <!-- 尻尾(炎/電撃状のトゲトゲ・オレンジ) -->
  <path d="M100,185 L62,168 L88,205 L48,205 L82,228 L46,250 L78,242 L58,278 L92,252 L100,225 Z" fill="#F5A623"/>
  <!-- 後ろ脚2本 -->
  <path d="M116,232 L104,322 L128,322 L138,235 Z" fill="#F5C518"/>
  <path d="M150,235 L142,322 L166,322 L166,238 Z" fill="#F5C518"/>
  <!-- 前脚2本 -->
  <path d="M212,232 L204,322 L228,322 L236,235 Z" fill="#F5C518"/>
  <path d="M246,235 L240,322 L264,322 L262,238 Z" fill="#F5C518"/>
  <!-- ひづめ4個 -->
  <ellipse cx="114" cy="322" rx="12" ry="7" fill="#241f30" stroke="none"/>
  <ellipse cx="154" cy="322" rx="12" ry="7" fill="#241f30" stroke="none"/>
  <ellipse cx="214" cy="322" rx="12" ry="7" fill="#241f30" stroke="none"/>
  <ellipse cx="250" cy="322" rx="12" ry="7" fill="#241f30" stroke="none"/>
  <!-- 胴体(黄色ベース) -->
  <ellipse cx="185" cy="205" rx="95" ry="60" fill="#F5C518"/>
  <!-- 首(頭へつながる) -->
  <path d="M212,178 C226,138 244,108 268,90 L302,104 C280,130 258,162 244,196 Z" fill="#F5C518"/>
  <!-- 胴体の縞模様(黒) -->
  <path d="M128,155 C122,182 123,212 134,246 L150,240 C141,208 141,180 147,158 Z" fill="#1A1A1A" stroke="none"/>
  <path d="M173,150 C168,182 169,216 178,256 L196,250 C188,216 188,180 196,152 Z" fill="#1A1A1A" stroke="none"/>
  <path d="M214,155 C210,186 213,216 222,252 L239,246 C230,216 228,184 234,158 Z" fill="#1A1A1A" stroke="none"/>
  <!-- たてがみ(赤オレンジ・電撃トゲ) -->
  <path d="M252,52 L264,74 L246,80 L260,102 L240,108 L254,128 L232,134 L246,152 L220,158 L236,174 L204,178 L214,158 Z" fill="#E8452C"/>
  <!-- 耳2枚 -->
  <path d="M254,66 L246,34 L270,60 Z" fill="#F5C518"/>
  <path d="M286,60 L297,28 L303,62 Z" fill="#F5C518"/>
  <!-- 頭 -->
  <ellipse cx="280" cy="96" rx="44" ry="37" fill="#F5C518"/>
  <!-- 顔まわりの黒マスク模様 -->
  <path d="M266,68 C280,62 302,66 308,80 C304,96 284,98 268,88 Z" fill="#1A1A1A" stroke="none"/>
  <!-- マズル(鼻先クリーム色) -->
  <ellipse cx="316" cy="108" rx="19" ry="15" fill="#FCEEDD"/>
  <!-- 鼻の穴 -->
  <ellipse cx="324" cy="111" rx="3.5" ry="2.5" fill="#1A1A1A" stroke="none"/>
  <!-- 目 -->
  <circle cx="292" cy="84" r="7" fill="#1A1A1A" stroke="none"/>
  <circle cx="294" cy="81" r="2.5" fill="#ffffff" stroke="none"/>
</g>
</svg>
