<svg xmlns="http://www.w3.org/2000/svg" viewBox="0 0 360 360">
  <!-- しっぽ(カール) -->
  <path d="M255 235 C280 235, 295 215, 285 195 C278 182, 260 185, 260 200" fill="none" stroke="#2d263c" stroke-width="9" stroke-linejoin="round" stroke-linecap="round"/>
  <path d="M255 235 C280 235, 295 215, 285 195 C278 182, 260 185, 262 198 Z" fill="#7FCDE0" stroke="#2d263c" stroke-width="8" stroke-linejoin="round" stroke-linecap="round"/>

  <!-- 後ろ足(右) -->
  <ellipse cx="255" cy="290" rx="34" ry="30" fill="#7FCDE0" stroke="#2d263c" stroke-width="7"/>
  <path d="M235 310 q6 12 14 3 M250 314 q6 12 14 2 M266 310 q6 10 12 1" fill="none" stroke="#2d263c" stroke-width="5" stroke-linecap="round"/>

  <!-- 前足(左) -->
  <ellipse cx="108" cy="290" rx="34" ry="30" fill="#7FCDE0" stroke="#2d263c" stroke-width="7"/>
  <path d="M85 310 q6 12 14 3 M100 315 q6 12 14 2 M117 310 q6 10 12 1" fill="none" stroke="#2d263c" stroke-width="5" stroke-linecap="round"/>

  <!-- 胴体(お腹側・青) -->
  <path d="M100 190 C90 240, 100 290, 180 300 C260 292, 272 240, 260 188 C250 150, 110 150, 100 190 Z" fill="#7FCDE0" stroke="#2d263c" stroke-width="8" stroke-linejoin="round"/>

  <!-- お腹(クリーム) -->
  <path d="M133 205 C124 240, 132 270, 180 278 C226 270, 236 238, 228 202 C215 178, 148 176, 133 205 Z" fill="#F5E6C8" stroke="#2d263c" stroke-width="6" stroke-linejoin="round"/>

  <!-- 甲羅(背中・こげ茶ドーム) -->
  <path d="M92 210 C70 150, 120 95, 190 100 C258 108, 292 165, 268 218 C245 255, 100 250, 92 210 Z" fill="#8B5A2E" stroke="#2d263c" stroke-width="8" stroke-linejoin="round"/>
  <!-- 甲羅のふち模様 -->
  <path d="M100 205 C82 155, 122 108, 190 112 C250 118, 280 168, 262 212" fill="none" stroke="#E8CB93" stroke-width="7" stroke-linecap="round"/>
  <!-- 甲羅の亀甲線 -->
  <path d="M190 108 L190 210 M140 130 L160 205 M245 133 L222 205 M105 175 L165 168 M275 178 L215 172" fill="none" stroke="#5F3D1E" stroke-width="4" stroke-linecap="round"/>

  <!-- 手前の腕(左) -->
  <path d="M92 220 C60 225, 45 250, 55 270 C65 285, 90 275, 98 255" fill="#7FCDE0" stroke="#2d263c" stroke-width="8" stroke-linejoin="round" stroke-linecap="round"/>
  <path d="M55 268 q3 10 10 4 M64 275 q3 10 10 3 M75 278 q3 9 9 2" fill="none" stroke="#2d263c" stroke-width="4" stroke-linecap="round"/>

  <!-- 手前の腕(右) -->
  <path d="M268 220 C300 225, 315 250, 305 270 C295 285, 270 275, 262 255" fill="#7FCDE0" stroke="#2d263c" stroke-width="8" stroke-linejoin="round" stroke-linecap="round"/>
  <path d="M305 268 q-3 10 -10 4 M296 275 q-3 10 -10 3 M285 278 q-3 9 -9 2" fill="none" stroke="#2d263c" stroke-width="4" stroke-linecap="round"/>

  <!-- 頭 -->
  <ellipse cx="180" cy="130" rx="88" ry="78" fill="#7FCDE0" stroke="#2d263c" stroke-width="9"/>

  <!-- 口まわり(明るい水色〜白っぽいマズル) -->
  <path d="M130 150 C150 175, 210 175, 230 150 C232 168, 205 190, 180 190 C155 190, 128 168, 130 150 Z" fill="#BDEAF2" stroke="#2d263c" stroke-width="6" stroke-linejoin="round"/>

  <!-- ほっぺ -->
  <ellipse cx="118" cy="148" rx="16" ry="11" fill="#F7B6C2" opacity="0.85"/>
  <ellipse cx="242" cy="148" rx="16" ry="11" fill="#F7B6C2" opacity="0.85"/>

  <!-- 目 -->
  <ellipse cx="145" cy="118" rx="19" ry="23" fill="#fff" stroke="#2d263c" stroke-width="6"/>
  <ellipse cx="215" cy="118" rx="19" ry="23" fill="#fff" stroke="#2d263c" stroke-width="6"/>
  <circle cx="150" cy="124" r="9" fill="#2d263c"/>
  <circle cx="220" cy="124" r="9" fill="#2d263c"/>
  <circle cx="146" cy="119" r="3" fill="#fff"/>
  <circle cx="216" cy="119" r="3" fill="#fff"/>

  <!-- 口 -->
  <path d="M162 165 C172 173, 188 173, 198 165" fill="none" stroke="#2d263c" stroke-width="6" stroke-linecap="round"/>
</svg>
