<svg xmlns="http://www.w3.org/2000/svg" viewBox="0 0 360 360">
  <circle cx="286" cy="255" r="50" fill="#d6d9db" stroke="#2d263c" stroke-width="7"/>
  <path d="M286 205 L298 255 L286 305 L274 255 Z" fill="#9aa3a8" stroke="#2d263c" stroke-width="6"/>
  <path d="M238 255 L286 244 L336 255 L286 266 Z" fill="#9aa3a8" stroke="#2d263c" stroke-width="6"/>
  <circle cx="286" cy="255" r="15" fill="#1c1c22" stroke="#2d263c" stroke-width="6"/>
  <path d="M222 222 Q258 232 250 254 Q244 270 218 258 Q204 244 222 222 Z" fill="#1c1c22" stroke="#2d263c" stroke-width="7"/>
  <path d="M150 265 L140 320 L165 322 L168 270 Z" fill="#17171b" stroke="#2d263c" stroke-width="7"/>
  <path d="M138 320 L148 320 L145 332 L135 330 Z" fill="#0f0f12" stroke="#2d263c" stroke-width="6"/>
  <path d="M205 268 L200 322 L228 325 L232 270 Z" fill="#1c1c22" stroke="#2d263c" stroke-width="7"/>
  <path d="M199 322 L230 325 L228 335 L197 333 Z" fill="#0f0f12" stroke="#2d263c" stroke-width="6"/>
  <path d="M150 155 Q180 130 215 155 Q235 190 220 240 Q180 265 150 240 Q130 190 150 155 Z" fill="#1c1c22" stroke="#2d263c" stroke-width="8"/>
  <path d="M165 175 L185 195 L172 205 L190 225 L178 232 L160 205 L172 200 Z" fill="#22c3ea" stroke="#2d263c" stroke-width="6"/>
  <path d="M150 165 Q110 180 105 220 Q100 235 115 240 Q130 230 132 210 Q140 185 158 175 Z" fill="#1c1c22" stroke="#2d263c" stroke-width="7"/>
  <circle cx="112" cy="228" r="15" fill="#d6d9db" stroke="#2d263c" stroke-width="6"/>
  <path d="M100 235 L95 248 L108 244 L112 250 L118 240 Z" fill="#0f0f12" stroke="#2d263c" stroke-width="6"/>
  <path d="M215 165 Q255 180 260 220 Q265 235 250 240 Q235 230 233 210 Q225 185 208 175 Z" fill="#1c1c22" stroke="#2d263c" stroke-width="7"/>
  <circle cx="253" cy="228" r="15" fill="#d6d9db" stroke="#2d263c" stroke-width="6"/>
  <path d="M265 235 L270 248 L257 244 L253 250 L247 240 Z" fill="#0f0f12" stroke="#2d263c" stroke-width="6"/>
  <polygon points="170,140 178,120 186,140" fill="#22c3ea" stroke="#2d263c" stroke-width="6"/>
  <polygon points="190,138 198,118 206,138" fill="#22c3ea" stroke="#2d263c" stroke-width="6"/>
  <path d="M165 150 Q180 115 200 150 Z" fill="#1c1c22" stroke="#2d263c" stroke-width="7"/>
  <path d="M150 90 Q160 55 190 55 Q225 60 222 95 Q220 120 190 128 Q160 122 150 90 Z" fill="#1c1c22" stroke="#2d263c" stroke-width="8"/>
  <path d="M195 58 Q230 40 245 65 Q230 75 205 72 Z" fill="#17171b" stroke="#2d263c" stroke-width="6"/>
  <path d="M165 105 Q180 118 200 108 Q188 125 170 120 Z" fill="#22c3ea" stroke="#2d263c" stroke-width="6"/>
  <ellipse cx="200" cy="82" rx="10" ry="13" fill="#e0202a" stroke="#2d263c" stroke-width="6"/>
  <path d="M165 100 Q185 112 205 100" fill="none" stroke="#2d263c" stroke-width="6"/>
</svg>
