<svg xmlns="http://www.w3.org/2000/svg" viewBox="0 0 360 360">
<path d="M158 245 L148 305" stroke="#2d263c" stroke-width="9" stroke-linecap="round"/>
<path d="M202 245 L212 305" stroke="#2d263c" stroke-width="9" stroke-linecap="round"/>
<ellipse cx="148" cy="305" rx="16" ry="10" fill="#3a5a8c" stroke="#2d263c" stroke-width="7"/>
<ellipse cx="212" cy="305" rx="16" ry="10" fill="#3a5a8c" stroke="#2d263c" stroke-width="7"/>
<path d="M140 150 Q130 250 180 255 Q230 250 220 150 Z" fill="#f4d23c" stroke="#2d263c" stroke-width="8" stroke-linejoin="round"/>
<path d="M155 165 Q180 200 205 165 Q210 210 180 220 Q150 210 155 165 Z" fill="#3a5a8c" stroke="#2d263c" stroke-width="7" stroke-linejoin="round"/>
<path d="M135 230 L150 240 L143 250 L165 245" stroke="#2d263c" stroke-width="6" fill="none" stroke-linecap="round" stroke-linejoin="round"/>
<path d="M140 165 L115 215 L108 240" stroke="#2d263c" stroke-width="9" fill="none" stroke-linecap="round" stroke-linejoin="round"/>
<path d="M220 165 L245 215 L252 240" stroke="#2d263c" stroke-width="9" fill="none" stroke-linecap="round" stroke-linejoin="round"/>
<ellipse cx="108" cy="242" rx="14" ry="10" fill="#3a5a8c" stroke="#2d263c" stroke-width="7"/>
<ellipse cx="252" cy="242" rx="14" ry="10" fill="#3a5a8c" stroke="#2d263c" stroke-width="7"/>
<path d="M120 110 Q125 60 180 58 Q235 60 240 110 Q240 140 210 148 Q180 152 150 148 Q120 140 120 110 Z" fill="#f4d23c" stroke="#2d263c" stroke-width="8" stroke-linejoin="round"/>
<path d="M122 90 L108 48 L145 78 Z" fill="#f4d23c" stroke="#2d263c" stroke-width="7" stroke-linejoin="round"/>
<path d="M238 90 L252 48 L215 78 Z" fill="#f4d23c" stroke="#2d263c" stroke-width="7" stroke-linejoin="round"/>
<path d="M122 88 L116 62 L138 80 Z" fill="#2d263c"/>
<path d="M238 88 L244 62 L222 80 Z" fill="#2d263c"/>
<ellipse cx="158" cy="108" rx="12" ry="14" fill="#fff" stroke="#2d263c" stroke-width="6"/>
<ellipse cx="202" cy="108" rx="12" ry="14" fill="#fff" stroke="#2d263c" stroke-width="6"/>
<circle cx="160" cy="111" r="6" fill="#2d263c"/>
<circle cx="204" cy="111" r="6" fill="#2d263c"/>
<path d="M138 125 L130 120 L136 130 L128 132" stroke="#2d263c" stroke-width="6" fill="none" stroke-linecap="round" stroke-linejoin="round"/>
<path d="M222 125 L230 120 L224 130 L232 132" stroke="#2d263c" stroke-width="6" fill="none" stroke-linecap="round" stroke-linejoin="round"/>
<path d="M176 128 L180 134 L184 128" stroke="#2d263c" stroke-width="6" fill="none" stroke-linecap="round" stroke-linejoin="round"/>
<path d="M170 140 Q180 146 190 140" stroke="#2d263c" stroke-width="6" fill="none" stroke-linecap="round"/>
</svg>