<svg xmlns="http://www.w3.org/2000/svg" viewBox="0 0 360 360">
<polygon points="180,58 199,94 238,82 226,121 262,140 226,159 238,198 199,186 180,222 161,186 122,198 134,159 98,140 134,121 122,82 161,94" fill="#e6c95c" stroke="#2d263c" stroke-width="6" stroke-linejoin="round"/>
<ellipse cx="180" cy="150" rx="58" ry="52" fill="#f5f1e8" stroke="#2d263c" stroke-width="7"/>
<polygon points="180,98 187,114 204,116 191,127 195,144 180,135 165,144 169,127 156,116 173,114" fill="#f0b440" stroke="#2d263c" stroke-width="4" stroke-linejoin="round"/>
<path d="M180 128 L176 174 L184 174 Z" fill="#4a7fa8" stroke="#2d263c" stroke-width="5" stroke-linejoin="round"/>
<ellipse cx="158" cy="158" rx="6" ry="8" fill="#2d263c"/>
<ellipse cx="202" cy="158" rx="6" ry="8" fill="#2d263c"/>
<ellipse cx="180" cy="178" rx="8" ry="6" fill="#2d263c"/>
<path d="M172 188 Q168 196 175 200 M188 188 Q192 196 185 200" fill="none" stroke="#2d263c" stroke-width="5" stroke-linecap="round"/>
<ellipse cx="180" cy="262" rx="64" ry="50" fill="#f5f1e8" stroke="#2d263c" stroke-width="7"/>
<rect x="136" y="288" width="18" height="42" rx="8" fill="#f5f1e8" stroke="#2d263c" stroke-width="7"/>
<rect x="162" y="288" width="18" height="42" rx="8" fill="#ede4d2" stroke="#2d263c" stroke-width="7"/>
<rect x="190" y="288" width="18" height="42" rx="8" fill="#ede4d2" stroke="#2d263c" stroke-width="7"/>
<rect x="216" y="288" width="18" height="42" rx="8" fill="#f5f1e8" stroke="#2d263c" stroke-width="7"/>
<path d="M240 248 Q274 236 286 206 Q278 230 274 254" fill="#f5f1e8" stroke="#2d263c" stroke-width="7" stroke-linejoin="round"/>
<polygon points="282,190 288,208 306,210 293,221 297,238 282,229 267,238 271,221 258,210 276,208" fill="#f0b440" stroke="#2d263c" stroke-width="4" stroke-linejoin="round"/>
</svg>