<svg xmlns="http://www.w3.org/2000/svg" viewBox="0 0 360 360">
  <polygon points="165,100 180,41 195,100" fill="#cf9640" stroke="#2d263c" stroke-width="7" stroke-linejoin="round"/>
  <polygon points="210,115 250,64 238,98" fill="#cf9640" stroke="#2d263c" stroke-width="7" stroke-linejoin="round"/>
  <polygon points="255,165 333,185 255,205" fill="#cf9640" stroke="#2d263c" stroke-width="7" stroke-linejoin="round"/>
  <polygon points="240,222 301,255 268,242" fill="#cf9640" stroke="#2d263c" stroke-width="7" stroke-linejoin="round"/>
  <polygon points="205,250 250,306 235,275" fill="#cf9640" stroke="#2d263c" stroke-width="7" stroke-linejoin="round"/>
  <polygon points="125,275 110,306 155,250" fill="#cf9640" stroke="#2d263c" stroke-width="7" stroke-linejoin="round"/>
  <polygon points="92,242 59,255 120,222" fill="#cf9640" stroke="#2d263c" stroke-width="7" stroke-linejoin="round"/>
  <polygon points="105,205 27,185 105,165" fill="#cf9640" stroke="#2d263c" stroke-width="7" stroke-linejoin="round"/>
  <polygon points="122,98 110,64 150,115" fill="#cf9640" stroke="#2d263c" stroke-width="7" stroke-linejoin="round"/>
  <circle cx="180" cy="185" r="90" fill="#e0a951" stroke="#2d263c" stroke-width="8"/>
  <path d="M150,140 Q160,160 150,180" fill="none" stroke="#b87b2e" stroke-width="6" stroke-linecap="round"/>
  <path d="M215,150 Q205,170 218,190" fill="none" stroke="#b87b2e" stroke-width="6" stroke-linecap="round"/>
  <path d="M170,225 Q185,235 200,222" fill="none" stroke="#b87b2e" stroke-width="6" stroke-linecap="round"/>
  <circle cx="140" cy="200" r="11" fill="#f0b46a"/>
  <circle cx="222" cy="200" r="11" fill="#f0b46a"/>
  <path d="M140,178 Q152,168 165,178" fill="none" stroke="#2d263c" stroke-width="7" stroke-linecap="round"/>
  <path d="M196,178 Q209,168 221,178" fill="none" stroke="#2d263c" stroke-width="7" stroke-linecap="round"/>
  <path d="M162,207 Q180,217 199,207" fill="none" stroke="#2d263c" stroke-width="6" stroke-linecap="round"/>
</svg>
