<svg xmlns="http://www.w3.org/2000/svg" viewBox="0 0 360 360">
<ellipse cx="275" cy="225" rx="45" ry="32" transform="rotate(-20 275 225)" fill="#4b4658" stroke="#2d263c" stroke-width="8" stroke-linejoin="round"/>
<ellipse cx="300" cy="185" rx="22" ry="16" transform="rotate(-20 300 185)" fill="#c0392b" stroke="#2d263c" stroke-width="7" stroke-linejoin="round"/>
<ellipse cx="130" cy="300" rx="16" ry="26" fill="#4b4658" stroke="#2d263c" stroke-width="7" stroke-linecap="round" stroke-linejoin="round"/>
<ellipse cx="160" cy="303" rx="16" ry="27" fill="#4b4658" stroke="#2d263c" stroke-width="7" stroke-linecap="round" stroke-linejoin="round"/>
<ellipse cx="205" cy="303" rx="16" ry="27" fill="#4b4658" stroke="#2d263c" stroke-width="7" stroke-linecap="round" stroke-linejoin="round"/>
<ellipse cx="235" cy="300" rx="16" ry="26" fill="#4b4658" stroke="#2d263c" stroke-width="7" stroke-linecap="round" stroke-linejoin="round"/>
<ellipse cx="175" cy="235" rx="95" ry="62" fill="#4b4658" stroke="#2d263c" stroke-width="9" stroke-linejoin="round"/>
<ellipse cx="175" cy="260" rx="55" ry="34" fill="#f6ecd8" stroke="#2d263c" stroke-width="7" stroke-linejoin="round"/>
<circle cx="180" cy="150" r="68" fill="#4b4658" stroke="#2d263c" stroke-width="9" stroke-linejoin="round"/>
<ellipse cx="180" cy="178" rx="38" ry="26" fill="#f6ecd8" stroke="#2d263c" stroke-width="7" stroke-linejoin="round"/>
<polygon points="125,110 150,100 100,45" fill="#4b4658" stroke="#2d263c" stroke-width="8" stroke-linejoin="round"/>
<polygon points="122,102 142,98 112,60" fill="#c0392b" stroke="#2d263c" stroke-width="6" stroke-linejoin="round"/>
<polygon points="235,110 210,100 260,45" fill="#4b4658" stroke="#2d263c" stroke-width="8" stroke-linejoin="round"/>
<polygon points="238,102 218,98 248,60" fill="#c0392b" stroke="#2d263c" stroke-width="6" stroke-linejoin="round"/>
<path d="M140,95 C150,55 170,90 185,50 C200,85 215,60 225,95 C205,80 190,120 170,100 C155,115 140,110 140,95 Z" fill="#c0392b" stroke="#2d263c" stroke-width="7" stroke-linejoin="round"/>
<ellipse cx="155" cy="147" rx="14" ry="18" fill="#c0392b" stroke="#2d263c" stroke-width="6" stroke-linejoin="round"/>
<circle cx="155" cy="150" r="6" fill="#2d263c"/>
<ellipse cx="205" cy="147" rx="14" ry="18" fill="#c0392b" stroke="#2d263c" stroke-width="6" stroke-linejoin="round"/>
<circle cx="205" cy="150" r="6" fill="#2d263c"/>
<path d="M138,122 Q150,110 165,119" fill="none" stroke="#2d263c" stroke-width="6" stroke-linecap="round"/>
<path d="M195,119 Q210,110 222,122" fill="none" stroke="#2d263c" stroke-width="6" stroke-linecap="round"/>
<ellipse cx="180" cy="196" rx="8" ry="6" fill="#2d263c"/>
<path d="M163,207 Q180,218 197,207" fill="none" stroke="#2d263c" stroke-width="6" stroke-linecap="round"/>
</svg>
