<svg xmlns="http://www.w3.org/2000/svg" viewBox="0 0 360 360">

  <!-- しっぽ (後ろ) -->
  <path d="M190 290 Q240 310 260 280 Q280 250 250 230 Q230 215 220 240 Q210 260 230 265 Q245 268 240 255" fill="#c0392b" stroke="#2d263c" stroke-width="7" stroke-linejoin="round" stroke-linecap="round"/>

  <!-- 体(胴体) -->
  <path d="M145 200 Q130 210 128 240 Q126 270 140 290 Q155 305 180 308 Q205 310 218 295 Q230 278 228 250 Q226 225 215 208 Q200 195 175 193 Q160 192 145 200Z" fill="#2d1a3a" stroke="#2d263c" stroke-width="7" stroke-linejoin="round" stroke-linecap="round"/>

  <!-- 胸のクリーム色 -->
  <path d="M155 215 Q148 235 150 258 Q152 278 165 285 Q178 290 190 283 Q200 274 200 255 Q200 235 193 218 Q180 210 165 212 Q158 213 155 215Z" fill="#f0d9a8" stroke="none"/>

  <!-- 左脚 -->
  <path d="M150 290 Q143 310 138 330 Q148 335 155 328 Q160 315 163 298" fill="#2d1a3a" stroke="#2d263c" stroke-width="7" stroke-linejoin="round" stroke-linecap="round"/>
  <!-- 左足先 -->
  <path d="M138 330 Q130 338 136 342 Q148 340 158 333" fill="#2d1a3a" stroke="#2d263c" stroke-width="6" stroke-linejoin="round" stroke-linecap="round"/>

  <!-- 右脚 -->
  <path d="M205 288 Q212 308 216 328 Q206 334 198 326 Q194 312 190 296" fill="#2d1a3a" stroke="#2d263c" stroke-width="7" stroke-linejoin="round" stroke-linecap="round"/>
  <!-- 右足先 -->
  <path d="M216 328 Q222 337 217 342 Q205 340 196 332" fill="#2d1a3a" stroke="#2d263c" stroke-width="6" stroke-linejoin="round" stroke-linecap="round"/>

  <!-- 左腕 -->
  <path d="M140 220 Q118 228 108 248 Q102 262 110 272 Q118 255 130 248 Q140 242 148 235" fill="#2d1a3a" stroke="#2d263c" stroke-width="7" stroke-linejoin="round" stroke-linecap="round"/>
  <!-- 左手かぎ爪 -->
  <path d="M110 272 Q100 278 98 285" fill="none" stroke="#2d263c" stroke-width="6" stroke-linecap="round"/>
  <path d="M112 274 Q108 282 108 290" fill="none" stroke="#2d263c" stroke-width="6" stroke-linecap="round"/>
  <path d="M116 275 Q116 283 118 291" fill="none" stroke="#2d263c" stroke-width="6" stroke-linecap="round"/>

  <!-- 右腕 -->
  <path d="M218 222 Q238 230 250 250 Q256 264 248 273 Q238 257 226 250 Q215 244 208 236" fill="#2d1a3a" stroke="#2d263c" stroke-width="7" stroke-linejoin="round" stroke-linecap="round"/>
  <!-- 右手かぎ爪 -->
  <path d="M248 273 Q258 279 260 286" fill="none" stroke="#2d263c" stroke-width="6" stroke-linecap="round"/>
  <path d="M246 275 Q250 283 250 291" fill="none" stroke="#2d263c" stroke-width="6" stroke-linecap="round"/>
  <path d="M242 276 Q242 284 240 292" fill="none" stroke="#2d263c" stroke-width="6" stroke-linecap="round"/>

  <!-- 鬣(たてがみ)束 — 後ろ層 -->
  <path d="M172 85 Q155 100 148 130 Q140 160 145 185 Q155 175 160 150 Q165 125 168 100Z" fill="#8b2020" stroke="#2d263c" stroke-width="6" stroke-linejoin="round" stroke-linecap="round"/>
  <path d="M182 82 Q175 110 172 145 Q170 170 172 190 Q180 178 182 155 Q184 128 183 100Z" fill="#a52828" stroke="#2d263c" stroke-width="6" stroke-linejoin="round" stroke-linecap="round"/>
  <path d="M192 83 Q198 108 198 140 Q198 168 196 188 Q204 175 206 150 Q208 122 202 96Z" fill="#8b2020" stroke="#2d263c" stroke-width="6" stroke-linejoin="round" stroke-linecap="round"/>

  <!-- 頭部 -->
  <path d="M148 130 Q140 118 142 100 Q144 78 162 65 Q178 53 196 58 Q214 63 220 80 Q226 96 220 115 Q215 130 205 140 Q195 150 180 152 Q162 152 152 142 Q148 138 148 130Z" fill="#2d1a3a" stroke="#2d263c" stroke-width="8" stroke-linejoin="round" stroke-linecap="round"/>

  <!-- 左耳 -->
  <path d="M152 90 Q144 68 148 50 Q156 35 162 48 Q164 62 160 82Z" fill="#2d1a3a" stroke="#2d263c" stroke-width="7" stroke-linejoin="round" stroke-linecap="round"/>
  <!-- 左耳内 赤 -->
  <path d="M154 85 Q149 70 152 56 Q157 46 160 56 Q161 68 158 82Z" fill="#c0392b" stroke="none"/>

  <!-- 右耳 -->
  <path d="M205 88 Q210 65 208 48 Q202 33 196 46 Q194 60 198 82Z" fill="#2d1a3a" stroke="#2d263c" stroke-width="7" stroke-linejoin="round" stroke-linecap="round"/>
  <!-- 右耳内 赤 -->
  <path d="M203 84 Q207 68 205 54 Q200 44 197 54 Q196 66 199 81Z" fill="#c0392b" stroke="none"/>

  <!-- 額の赤い角/模様 -->
  <path d="M176 68 Q180 52 184 68" fill="#c0392b" stroke="#2d263c" stroke-width="5" stroke-linejoin="round" stroke-linecap="round"/>

  <!-- 目(左) — 細くつり上がり -->
  <path d="M158 100 Q163 95 170 98 Q165 104 158 100Z" fill="#e74c3c" stroke="#2d263c" stroke-width="4" stroke-linejoin="round"/>
  <ellipse cx="164" cy="99" rx="4" ry="3" fill="#1a0a1a"/>
  <!-- 目(右) -->
  <path d="M198 98 Q205 94 210 98 Q205 104 198 98Z" fill="#e74c3c" stroke="#2d263c" stroke-width="4" stroke-linejoin="round"/>
  <ellipse cx="204" cy="98" rx="4" ry="3" fill="#1a0a1a"/>

  <!-- 鼻 -->
  <ellipse cx="183" cy="112" rx="3" ry="2" fill="#4a2040" stroke="none"/>

  <!-- 口(ニヤリ) -->
  <path d="M170 120 Q180 128 192 120" fill="none" stroke="#2d263c" stroke-width="5" stroke-linecap="round"/>
  <path d="M170 120 Q166 123 168 127" fill="none" stroke="#2d263c" stroke-width="4" stroke-linecap="round"/>
  <path d="M192 120 Q196 123 194 127" fill="none" stroke="#2d263c" stroke-width="4" stroke-linecap="round"/>

  <!-- 鬣束をまとめる輪 (青い宝石リング) -->
  <ellipse cx="180" cy="192" rx="14" ry="7" fill="none" stroke="#2563b0" stroke-width="5"/>
  <ellipse cx="180" cy="192" rx="9" ry="4" fill="#3b82f6" stroke="none" opacity="0.7"/>

  <!-- 鬣(長い束・下へ流れる) -->
  <path d="M170 195 Q162 220 158 255 Q154 280 160 300 Q168 285 172 260 Q176 235 178 205Z" fill="#c0392b" stroke="#2d263c" stroke-width="6" stroke-linejoin="round" stroke-linecap="round"/>
  <path d="M186 196 Q188 222 186 258 Q184 282 188 302 Q196 286 196 260 Q196 234 192 208Z" fill="#8b2020" stroke="#2d263c" stroke-width="6" stroke-linejoin="round" stroke-linecap="round"/>

</svg>