<svg xmlns="http://www.w3.org/2000/svg" viewBox="0 0 360 360">
<ellipse cx="180" cy="300" rx="60" ry="14" fill="#2d263c" opacity="0.12"/>
<path d="M120 250 Q100 270 130 300 Q160 320 180 300 Q200 320 230 300 Q260 270 240 250 Z" fill="#8a2f2a" stroke="#2d263c" stroke-width="7" stroke-linejoin="round"/>
<path d="M235 190 Q290 180 300 220 Q305 250 270 250 Q250 235 235 210 Z" fill="#8a2f2a" stroke="#2d263c" stroke-width="7" stroke-linejoin="round"/>
<path d="M270 225 Q295 220 298 240 Q290 245 275 235 Z" fill="#eadfc4" stroke="#2d263c" stroke-width="5" stroke-linejoin="round"/>
<path d="M120 190 Q75 130 105 100 Q140 90 150 140 Q160 175 150 200 Z" fill="#8a2f2a" stroke="#2d263c" stroke-width="7" stroke-linejoin="round"/>
<path d="M112 130 Q100 105 118 95 Q130 105 122 140 Z" fill="#2d263c"/>
<path d="M240 190 Q285 130 255 100 Q220 90 210 140 Q200 175 210 200 Z" fill="#8a2f2a" stroke="#2d263c" stroke-width="7" stroke-linejoin="round"/>
<path d="M248 130 Q260 105 242 95 Q230 105 238 140 Z" fill="#2d263c"/>
<ellipse cx="180" cy="215" rx="95" ry="75" fill="#8a2f2a" stroke="#2d263c" stroke-width="8" stroke-linejoin="round"/>
<path d="M120 250 Q180 275 240 250 Q225 290 180 292 Q135 290 120 250 Z" fill="#eadfc4" stroke="#2d263c" stroke-width="7" stroke-linejoin="round"/>
<path d="M130 195 Q180 175 230 195 Q225 215 180 220 Q135 215 130 195 Z" fill="#eadfc4" stroke="#2d263c" stroke-width="6" stroke-linejoin="round"/>
<path d="M155 175 Q170 195 155 210" fill="none" stroke="#2d263c" stroke-width="6" stroke-linecap="round"/>
<path d="M205 175 Q190 195 205 210" fill="none" stroke="#2d263c" stroke-width="6" stroke-linecap="round"/>
<ellipse cx="150" cy="185" rx="15" ry="18" fill="#e8452c" stroke="#2d263c" stroke-width="6"/>
<ellipse cx="210" cy="185" rx="15" ry="18" fill="#e8452c" stroke="#2d263c" stroke-width="6"/>
<circle cx="147" cy="180" r="4" fill="#fff"/>
<circle cx="207" cy="180" r="4" fill="#fff"/>
<path d="M170 230 Q180 238 190 230" fill="none" stroke="#2d263c" stroke-width="6" stroke-linecap="round"/>
<path d="M180 220 L180 232" fill="none" stroke="#2d263c" stroke-width="5" stroke-linecap="round"/>
</svg>
