<svg xmlns="http://www.w3.org/2000/svg" viewBox="0 0 360 360">
  <!-- 尻尾(後ろ・大きいふさふさ) -->
  <ellipse cx="255" cy="240" rx="52" ry="38" fill="#f5f0e8" stroke="#2d263c" stroke-width="7" stroke-linejoin="round"/>
  <ellipse cx="270" cy="218" rx="34" ry="24" fill="#f5f0e8" stroke="#2d263c" stroke-width="6" stroke-linejoin="round"/>
  <!-- 尻尾先端の赤黒部分 -->
  <ellipse cx="285" cy="200" rx="22" ry="18" fill="#6a1a2e" stroke="#2d263c" stroke-width="6" stroke-linejoin="round"/>
  <ellipse cx="296" cy="190" rx="13" ry="11" fill="#8b2040" stroke="#2d263c" stroke-width="5" stroke-linejoin="round"/>

  <!-- 体(胴体) -->
  <ellipse cx="185" cy="235" rx="52" ry="65" fill="#f5f0e8" stroke="#2d263c" stroke-width="8" stroke-linejoin="round"/>

  <!-- 腕(左・後ろ) -->
  <path d="M155 210 Q130 230 118 260 Q115 272 125 270" fill="#f5f0e8" stroke="#2d263c" stroke-width="7" stroke-linejoin="round" stroke-linecap="round"/>
  <!-- 爪(左) -->
  <path d="M118 260 Q108 270 106 280" fill="none" stroke="#c0392b" stroke-width="5" stroke-linecap="round"/>
  <path d="M122 264 Q114 276 113 286" fill="none" stroke="#c0392b" stroke-width="5" stroke-linecap="round"/>
  <path d="M126 268 Q120 280 120 290" fill="none" stroke="#c0392b" stroke-width="5" stroke-linecap="round"/>

  <!-- 腕(右) -->
  <path d="M215 210 Q240 228 252 258 Q255 270 244 268" fill="#f5f0e8" stroke="#2d263c" stroke-width="7" stroke-linejoin="round" stroke-linecap="round"/>
  <!-- 爪(右) -->
  <path d="M252 258 Q260 268 264 278" fill="none" stroke="#c0392b" stroke-width="5" stroke-linecap="round"/>
  <path d="M248 263 Q257 274 258 284" fill="none" stroke="#c0392b" stroke-width="5" stroke-linecap="round"/>
  <path d="M244 267 Q251 279 250 290" fill="none" stroke="#c0392b" stroke-width="5" stroke-linecap="round"/>

  <!-- 足(左) -->
  <path d="M168 295 Q162 318 155 332 Q150 340 165 338 Q178 336 178 326 L178 295" fill="#f5f0e8" stroke="#2d263c" stroke-width="7" stroke-linejoin="round"/>
  <!-- 足(右) -->
  <path d="M200 295 Q206 318 212 332 Q218 340 202 338 Q190 336 190 326 L190 295" fill="#f5f0e8" stroke="#2d263c" stroke-width="7" stroke-linejoin="round"/>

  <!-- たてがみ(後ろ・長く流れる) -->
  <path d="M185 115 Q160 90 130 100 Q100 112 95 140 Q88 168 100 190 Q112 210 128 200 Q140 188 152 165" fill="#6a1a2e" stroke="#2d263c" stroke-width="7" stroke-linejoin="round"/>
  <path d="M185 115 Q200 85 225 90 Q250 96 258 120 Q265 144 255 165 Q244 184 230 178 Q218 170 208 152" fill="#6a1a2e" stroke="#2d263c" stroke-width="7" stroke-linejoin="round"/>
  <!-- たてがみ前垂れ -->
  <path d="M168 130 Q158 155 155 178 Q153 192 162 192" fill="#8b2040" stroke="#2d263c" stroke-width="6" stroke-linejoin="round"/>
  <path d="M200 128 Q210 152 212 175 Q214 190 205 190" fill="#8b2040" stroke="#2d263c" stroke-width="6" stroke-linejoin="round"/>

  <!-- 頭 -->
  <ellipse cx="185" cy="145" rx="48" ry="46" fill="#f5f0e8" stroke="#2d263c" stroke-width="8" stroke-linejoin="round"/>

  <!-- 耳(左) -->
  <path d="M148 118 Q138 88 145 70 Q150 58 158 72 Q165 86 162 114" fill="#f5f0e8" stroke="#2d263c" stroke-width="7" stroke-linejoin="round"/>
  <path d="M150 112 Q142 90 147 75 Q151 65 157 76 Q162 88 159 112" fill="#6a1a2e"/>
  <!-- 耳(右・少しずれた落書き感) -->
  <path d="M220 115 Q228 84 223 66 Q219 54 210 68 Q202 82 205 112" fill="#f5f0e8" stroke="#2d263c" stroke-width="7" stroke-linejoin="round"/>
  <path d="M218 110 Q224 88 221 72 Q218 62 212 74 Q206 86 208 110" fill="#6a1a2e"/>

  <!-- 額の赤い模様 -->
  <path d="M178 118 Q183 108 188 118" fill="none" stroke="#c0392b" stroke-width="4" stroke-linecap="round"/>
  <path d="M182 114 L184 104 L186 114" fill="#c0392b" stroke="#c0392b" stroke-width="2"/>

  <!-- 目(左)・細い赤い瞳 -->
  <ellipse cx="168" cy="148" rx="12" ry="13" fill="#1a0a0a" stroke="#2d263c" stroke-width="4"/>
  <ellipse cx="168" cy="148" rx="5" ry="10" fill="#c0392b"/>
  <ellipse cx="166" cy="144" rx="2" ry="2" fill="#ff8888"/>

  <!-- 目(右) -->
  <ellipse cx="203" cy="146" rx="11" ry="13" fill="#1a0a0a" stroke="#2d263c" stroke-width="4"/>
  <ellipse cx="203" cy="146" rx="4" ry="10" fill="#c0392b"/>
  <ellipse cx="201" cy="142" rx="2" ry="2" fill="#ff8888"/>

  <!-- 鼻/口 -->
  <path d="M182 160 Q185 158 188 160" fill="none" stroke="#2d263c" stroke-width="4" stroke-linecap="round"/>
  <path d="M176 166 Q185 175 194 164" fill="none" stroke="#2d263c" stroke-width="4" stroke-linecap="round"/>

  <!-- 頬の暗い模様(左) -->
  <ellipse cx="153" cy="158" rx="10" ry="7" fill="#d4c9be" stroke="none" opacity="0.6"/>
  <!-- 頬の暗い模様(右) -->
  <ellipse cx="217" cy="155" rx="9" ry="7" fill="#d4c9be" stroke="none" opacity="0.6"/>

  <!-- お腹の薄い色のゾーン -->
  <ellipse cx="185" cy="248" rx="32" ry="42" fill="#fffaf3" stroke="none"/>
</svg>