<svg xmlns="http://www.w3.org/2000/svg" viewBox="0 0 360 360">
  <ellipse cx="95" cy="285" rx="24" ry="45" fill="#90a4ba" stroke="#2d263c" stroke-width="7" stroke-linecap="round" stroke-linejoin="round"/>
  <ellipse cx="140" cy="285" rx="24" ry="45" fill="#90a4ba" stroke="#2d263c" stroke-width="7" stroke-linecap="round" stroke-linejoin="round"/>
  <ellipse cx="190" cy="285" rx="24" ry="45" fill="#90a4ba" stroke="#2d263c" stroke-width="7" stroke-linecap="round" stroke-linejoin="round"/>
  <ellipse cx="235" cy="285" rx="24" ry="45" fill="#90a4ba" stroke="#2d263c" stroke-width="7" stroke-linecap="round" stroke-linejoin="round"/>
  <ellipse cx="95" cy="322" rx="26" ry="13" fill="#e6dab8" stroke="#2d263c" stroke-width="6" stroke-linecap="round" stroke-linejoin="round"/>
  <ellipse cx="140" cy="322" rx="26" ry="13" fill="#e6dab8" stroke="#2d263c" stroke-width="6" stroke-linecap="round" stroke-linejoin="round"/>
  <ellipse cx="190" cy="322" rx="26" ry="13" fill="#e6dab8" stroke="#2d263c" stroke-width="6" stroke-linecap="round" stroke-linejoin="round"/>
  <ellipse cx="235" cy="322" rx="26" ry="13" fill="#e6dab8" stroke="#2d263c" stroke-width="6" stroke-linecap="round" stroke-linejoin="round"/>
  <path d="M65,210 C48,218 45,240 58,255 C60,245 58,232 70,222 Z" fill="#7c90a8" stroke="#2d263c" stroke-width="6" stroke-linecap="round" stroke-linejoin="round"/>
  <ellipse cx="155" cy="222" rx="95" ry="78" fill="#90a4ba" stroke="#2d263c" stroke-width="8" stroke-linecap="round" stroke-linejoin="round"/>
  <ellipse cx="150" cy="250" rx="52" ry="30" fill="#a7b7c9"/>
  <path d="M300,200 C318,225 320,260 300,290 C292,300 278,305 265,300 C275,275 280,240 278,205 Z" fill="#7c90a8" stroke="#2d263c" stroke-width="7" stroke-linecap="round" stroke-linejoin="round"/>
  <ellipse cx="268" cy="297" rx="10" ry="8" fill="#ead9b0" stroke="#2d263c" stroke-width="5" stroke-linecap="round" stroke-linejoin="round"/>
  <circle cx="255" cy="165" r="62" fill="#90a4ba" stroke="#2d263c" stroke-width="8" stroke-linecap="round" stroke-linejoin="round"/>
  <circle cx="215" cy="105" r="30" fill="#6f83a0" stroke="#2d263c" stroke-width="7" stroke-linecap="round" stroke-linejoin="round"/>
  <circle cx="215" cy="108" r="16" fill="#57657c"/>
  <ellipse cx="280" cy="135" rx="18" ry="24" fill="#cda86b" stroke="#2d263c" stroke-width="6" stroke-linecap="round" stroke-linejoin="round"/>
  <path d="M303,196 C313,196 316,206 309,213 C305,208 302,201 303,196 Z" fill="#fdf6e3" stroke="#2d263c" stroke-width="5" stroke-linecap="round" stroke-linejoin="round"/>
  <path d="M270,205 Q283,215 300,203" fill="none" stroke="#2d263c" stroke-width="5" stroke-linecap="round" stroke-linejoin="round"/>
  <circle cx="283" cy="168" r="7" fill="#2d263c"/>
  <circle cx="286" cy="165" r="2.5" fill="#ffffff"/>
</svg>
