<svg xmlns="http://www.w3.org/2000/svg" viewBox="0 0 360 360">
<ellipse cx="180" cy="215" rx="80" ry="95" fill="#2f4d8f" stroke="#2d263c" stroke-width="7" stroke-linejoin="round"/>
<path d="M120 210 Q100 260 130 300 Q160 320 190 300 Q210 260 195 210 Z" fill="#f2e6b8" stroke="#2d263c" stroke-width="6" stroke-linejoin="round" stroke-linecap="round"/>
<path d="M138 225 L150 250 L140 250 L155 280 L135 255 L145 255 Z" fill="#f4c440" stroke="#2d263c" stroke-width="5" stroke-linejoin="round" stroke-linecap="round"/>
<path d="M95 165 Q30 150 20 90 Q60 110 90 150 Q80 100 100 60 Q120 100 118 155 Z" fill="#24356b" stroke="#2d263c" stroke-width="7" stroke-linejoin="round" stroke-linecap="round"/>
<path d="M260 175 Q330 150 345 90 Q300 115 270 155 Q285 100 260 60 Q235 105 240 165 Z" fill="#24356b" stroke="#2d263c" stroke-width="7" stroke-linejoin="round" stroke-linecap="round"/>
<path d="M150 295 Q140 330 110 345 Q130 320 128 300 Z" fill="#24356b" stroke="#2d263c" stroke-width="6" stroke-linejoin="round" stroke-linecap="round"/>
<path d="M205 295 Q220 330 255 340 Q230 315 228 298 Z" fill="#24356b" stroke="#2d263c" stroke-width="6" stroke-linejoin="round" stroke-linecap="round"/>
<circle cx="150" cy="130" r="52" fill="#2f4d8f" stroke="#2d263c" stroke-width="7"/>
<path d="M110 105 Q90 120 100 145 L112 138 Q104 118 118 108 Z" fill="#f4c440" stroke="#2d263c" stroke-width="5" stroke-linejoin="round"/>
<circle cx="168" cy="120" r="13" fill="#fff8e8" stroke="#2d263c" stroke-width="6"/>
<circle cx="171" cy="120" r="6" fill="#2d263c"/>
<path d="M195 128 L235 122 L232 138 L200 140 Z" fill="#f4c440" stroke="#2d263c" stroke-width="6" stroke-linejoin="round" stroke-linecap="round"/>
<path d="M108 175 Q150 190 195 175" stroke="#1c2c5c" stroke-width="6" fill="none" stroke-linecap="round"/>
<path d="M118 205 Q150 218 185 205" stroke="#1c2c5c" stroke-width="6" fill="none" stroke-linecap="round"/>
</svg>
