<svg xmlns="http://www.w3.org/2000/svg" viewBox="0 0 360 360">
<g fill="none" stroke="#2d263c" stroke-width="7" stroke-linecap="round" stroke-linejoin="round">
<path d="M250 235 C300 210 320 140 300 90 C290 65 270 55 258 68 C270 85 275 130 255 165 C245 185 235 205 232 225 Z" fill="#f4e2ab"/>
<path d="M296 82 C310 68 320 50 312 35 C300 45 290 60 288 80 Z" fill="#5f8fd6"/>
<path d="M300 60 C312 50 322 40 318 28 C306 34 296 46 294 58 Z" fill="#e87aa0"/>
<ellipse cx="150" cy="235" rx="78" ry="62" fill="#f4e2ab"/>
<path d="M100 270 C95 290 90 305 95 315 C110 320 120 305 122 285" fill="#f4e2ab"/>
<path d="M195 270 C200 290 205 305 200 315 C185 320 175 305 173 285" fill="#f4e2ab"/>
<path d="M95 210 C60 220 35 250 30 280 C28 292 34 300 44 296 C58 270 78 245 105 232" fill="#f4e2ab"/>
<path d="M32 280 C24 286 20 296 26 302 C34 300 40 292 40 284" fill="#f4e2ab"/>
<path d="M205 205 C240 200 268 220 278 248 C282 260 276 268 266 264 C255 240 235 220 210 218" fill="#f4e2ab"/>
<path d="M274 250 C284 254 290 262 286 270 C278 268 272 260 272 252" fill="#f4e2ab"/>
<circle cx="150" cy="130" r="68" fill="#f4e2ab"/>
<circle cx="90" cy="80" r="34" fill="#f4e2ab"/>
<circle cx="94" cy="84" r="18" fill="#e8c9d8"/>
<circle cx="210" cy="80" r="34" fill="#f4e2ab"/>
<circle cx="206" cy="84" r="18" fill="#e8c9d8"/>
<path d="M92 128 C110 108 190 108 208 128 C210 145 195 158 150 158 C105 158 90 145 92 128 Z" fill="#4a6fb5"/>
<circle cx="122" cy="128" r="15" fill="#ffffff"/>
<circle cx="178" cy="128" r="15" fill="#ffffff"/>
<circle cx="126" cy="130" r="7" fill="#241d33" stroke-width="0"/>
<circle cx="174" cy="130" r="7" fill="#241d33" stroke-width="0"/>
<ellipse cx="150" cy="160" rx="10" ry="7" fill="#e87aa0"/>
<path d="M132 178 C142 186 158 186 168 178" fill="none"/>
</g>
</svg>
