<svg xmlns="http://www.w3.org/2000/svg" viewBox="0 0 360 360">
  <ellipse cx="180" cy="330" rx="70" ry="14" fill="#2d263c" opacity="0.15"/>
  <path d="M100 300 Q95 240 110 200 Q90 160 105 110 Q120 60 180 45 Q240 60 255 110 Q270 160 250 200 Q265 240 260 300 Q255 320 220 322 Q180 330 140 322 Q105 320 100 300Z" fill="#4a4658" stroke="#2d263c" stroke-width="8" stroke-linejoin="round"/>
  <path d="M120 320 Q118 260 130 210 Q150 175 180 175 Q210 175 230 210 Q242 260 240 320 Q220 335 180 335 Q140 335 120 320Z" fill="#f2eee2" stroke="#2d263c" stroke-width="6" stroke-linejoin="round"/>
  <path d="M140 215 Q180 200 220 215 Q222 235 210 245 Q180 255 150 245 Q138 235 140 215Z" fill="#c73a3a" stroke="#2d263c" stroke-width="6" stroke-linejoin="round"/>
  <path d="M108 112 Q90 70 100 40 Q125 55 130 95Z" fill="#4a4658" stroke="#2d263c" stroke-width="7" stroke-linejoin="round"/>
  <path d="M252 112 Q270 70 260 40 Q235 55 230 95Z" fill="#4a4658" stroke="#2d263c" stroke-width="7" stroke-linejoin="round"/>
  <path d="M112 100 Q100 75 105 55 Q120 65 122 90Z" fill="#2d263c"/>
  <path d="M248 100 Q260 75 255 55 Q240 65 238 90Z" fill="#2d263c"/>
  <circle cx="180" cy="115" r="62" fill="#4a4658" stroke="#2d263c" stroke-width="8"/>
  <path d="M120 105 Q150 75 180 95 Q160 130 128 132 Q112 118 120 105Z" fill="#1f1b29" stroke="#2d263c" stroke-width="5" stroke-linejoin="round"/>
  <path d="M240 105 Q210 75 180 95 Q200 130 232 132 Q248 118 240 105Z" fill="#1f1b29" stroke="#2d263c" stroke-width="5" stroke-linejoin="round"/>
  <circle cx="150" cy="112" r="9" fill="#fff" stroke="#2d263c" stroke-width="3"/>
  <circle cx="210" cy="112" r="9" fill="#fff" stroke="#2d263c" stroke-width="3"/>
  <circle cx="150" cy="113" r="4" fill="#1f1b29"/>
  <circle cx="210" cy="113" r="4" fill="#1f1b29"/>
  <path d="M165 150 Q180 158 195 150 Q192 162 180 165 Q168 162 165 150Z" fill="#2d263c"/>
  <path d="M170 165 Q180 170 190 165" stroke="#2d263c" stroke-width="4" fill="none" stroke-linecap="round"/>
  <path d="M100 165 Q60 175 45 220 Q42 250 55 270 Q75 275 88 258 Q78 220 95 190Z" fill="#4a4658" stroke="#2d263c" stroke-width="8" stroke-linejoin="round"/>
  <path d="M260 165 Q300 175 315 220 Q318 250 305 270 Q285 275 272 258 Q282 220 265 190Z" fill="#4a4658" stroke="#2d263c" stroke-width="8" stroke-linejoin="round"/>
  <path d="M48 262 Q45 278 60 282 Q78 280 80 262" fill="#f2eee2" stroke="#2d263c" stroke-width="6" stroke-linejoin="round"/>
  <path d="M312 262 Q315 278 300 282 Q282 280 280 262" fill="#f2eee2" stroke="#2d263c" stroke-width="6" stroke-linejoin="round"/>
  <path d="M60 280 L55 270 M67 282 L64 271 M74 281 L73 270" stroke="#2d263c" stroke-width="3" stroke-linecap="round"/>
  <path d="M300 280 L305 270 M293 282 L296 271 M286 281 L287 270" stroke="#2d263c" stroke-width="3" stroke-linecap="round"/>
  <path d="M140 322 Q135 310 150 305 Q165 312 160 325" fill="#4a4658" stroke="#2d263c" stroke-width="7" stroke-linejoin="round"/>
  <path d="M220 322 Q225 310 210 305 Q195 312 200 325" fill="#4a4658" stroke="#2d263c" stroke-width="7" stroke-linejoin="round"/>
  <path d="M138 320 Q135 332 150 335 Q165 333 162 320" fill="#1f1b29" stroke="#2d263c" stroke-width="5" stroke-linejoin="round"/>
  <path d="M222 320 Q225 332 210 335 Q195 333 198 320" fill="#1f1b29" stroke="#2d263c" stroke-width="5" stroke-linejoin="round"/>
  <path d="M255 200 Q285 210 288 245 Q286 265 265 262 Q252 250 258 225Z" fill="#4a4658" stroke="#2d263c" stroke-width="7" stroke-linejoin="round"/>
  <path d="M270 220 Q282 228 280 245" stroke="#1f1b29" stroke-width="6" fill="none" stroke-linecap="round"/>
  <path d="M155 230 Q180 238 205 230" stroke="#c73a3a" stroke-width="5" fill="none" stroke-linecap="round" opacity="0.6"/>
</svg>
