<svg xmlns="http://www.w3.org/2000/svg" viewBox="0 0 360 360">
  <!-- legs -->
  <path d="M118 250 L144 250 L142 312 L120 312 Z" fill="#7a8a9a" stroke="#2d263c" stroke-width="7" stroke-linejoin="round"/>
  <path d="M216 250 L242 250 L240 312 L218 312 Z" fill="#7a8a9a" stroke="#2d263c" stroke-width="7" stroke-linejoin="round"/>
  <!-- tail -->
  <path d="M258 235 Q300 240 315 215 L300 250 Q312 262 282 264 Z" fill="#9aaab8" stroke="#2d263c" stroke-width="7" stroke-linejoin="round"/>
  <!-- body -->
  <ellipse cx="180" cy="225" rx="82" ry="58" fill="#9aaab8" stroke="#2d263c" stroke-width="8"/>
  <!-- flowing silver mane (sides) -->
  <path d="M128 150 Q90 130 68 100 Q95 120 122 130 Q98 105 88 78 Q120 110 135 138 Z" fill="#e0e8f0" stroke="#2d263c" stroke-width="7" stroke-linejoin="round"/>
  <path d="M232 150 Q270 130 292 100 Q265 120 238 130 Q262 105 272 78 Q240 110 225 138 Z" fill="#e0e8f0" stroke="#2d263c" stroke-width="7" stroke-linejoin="round"/>
  <!-- head crest mane -->
  <path d="M138 95 Q180 45 222 95 Q200 78 180 68 Q160 78 138 95 Z" fill="#e0e8f0" stroke="#2d263c" stroke-width="7" stroke-linejoin="round"/>
  <!-- head -->
  <path d="M142 100 Q180 90 218 100 Q228 142 200 160 Q180 168 160 160 Q132 142 142 100 Z" fill="#9aaab8" stroke="#2d263c" stroke-width="8" stroke-linejoin="round"/>
  <!-- beak -->
  <path d="M166 148 L180 168 L194 148 Z" fill="#6a7a8a" stroke="#2d263c" stroke-width="6" stroke-linejoin="round"/>
  <!-- eyes -->
  <ellipse cx="160" cy="125" rx="9" ry="11" fill="#f5d04a" stroke="#2d263c" stroke-width="5"/>
  <ellipse cx="200" cy="125" rx="9" ry="11" fill="#f5d04a" stroke="#2d263c" stroke-width="5"/>
  <circle cx="161" cy="128" r="4" fill="#2d263c"/>
  <circle cx="201" cy="128" r="4" fill="#2d263c"/>
</svg>
