<svg xmlns="http://www.w3.org/2000/svg" viewBox="0 0 360 360">
  <ellipse cx="105" cy="150" rx="55" ry="68" fill="#F5E9B8" stroke="#2d263c" stroke-width="7" stroke-linejoin="round"/>
  <ellipse cx="255" cy="150" rx="55" ry="68" fill="#F5E9B8" stroke="#2d263c" stroke-width="7" stroke-linejoin="round"/>
  <ellipse cx="95" cy="225" rx="58" ry="72" fill="#F5E9B8" stroke="#2d263c" stroke-width="7" stroke-linejoin="round"/>
  <ellipse cx="265" cy="225" rx="58" ry="72" fill="#F5E9B8" stroke="#2d263c" stroke-width="7" stroke-linejoin="round"/>
  <path d="M45,200 L65,183 L85,205 L105,183 L125,205 L145,188" fill="none" stroke="#8B5A3C" stroke-width="5" stroke-linecap="round" stroke-linejoin="round"/>
  <path d="M215,200 L235,183 L255,205 L275,183 L295,205 L315,188" fill="none" stroke="#8B5A3C" stroke-width="5" stroke-linecap="round" stroke-linejoin="round"/>
  <ellipse cx="180" cy="257" rx="62" ry="78" fill="#F5E9B8" stroke="#2d263c" stroke-width="7" stroke-linejoin="round"/>
  <path d="M122,222 L142,200 L162,222 L182,200 L202,222 L222,200 L238,222" fill="none" stroke="#8B5A3C" stroke-width="5" stroke-linecap="round" stroke-linejoin="round"/>
  <ellipse cx="180" cy="140" rx="60" ry="75" fill="#F5E9B8" stroke="#2d263c" stroke-width="7" stroke-linejoin="round"/>
  <path d="M128,105 L148,85 L168,105 L188,85 L208,105 L228,88" fill="none" stroke="#8B5A3C" stroke-width="5" stroke-linecap="round" stroke-linejoin="round"/>
  <circle cx="155" cy="148" r="15" fill="#ffffff" stroke="#2d263c" stroke-width="5"/>
  <circle cx="205" cy="148" r="15" fill="#ffffff" stroke="#2d263c" stroke-width="5"/>
  <circle cx="155" cy="151" r="6" fill="#2d263c"/>
  <circle cx="205" cy="151" r="6" fill="#2d263c"/>
  <path d="M162,182 Q180,196 198,182" fill="none" stroke="#2d263c" stroke-width="6" stroke-linecap="round"/>
</svg>
