<svg xmlns="http://www.w3.org/2000/svg" viewBox="0 0 360 360">
  <!-- legs -->
  <path d="M118 250 L144 250 L142 312 L120 312 Z" fill="#8a6a4a" stroke="#2d263c" stroke-width="7" stroke-linejoin="round"/>
  <path d="M216 250 L242 250 L240 312 L218 312 Z" fill="#8a6a4a" stroke="#2d263c" stroke-width="7" stroke-linejoin="round"/>
  <!-- tail -->
  <path d="M258 235 Q300 240 315 215 L300 250 Q312 262 282 264 Z" fill="#8a6a4a" stroke="#2d263c" stroke-width="7" stroke-linejoin="round"/>
  <!-- body -->
  <ellipse cx="180" cy="225" rx="82" ry="58" fill="#a8825a" stroke="#2d263c" stroke-width="8"/>
  <!-- neck ruff -->
  <ellipse cx="180" cy="180" rx="62" ry="22" fill="#d8c8aa" stroke="#2d263c" stroke-width="7"/>
  <!-- helmet -->
  <path d="M116 130 Q113 73 180 63 Q247 73 244 130 Q244 152 226 157 L134 157 Q116 152 116 130 Z" fill="#9aa0ac" stroke="#2d263c" stroke-width="8" stroke-linejoin="round"/>
  <!-- helmet crest fin -->
  <path d="M168 75 L180 48 L192 75 Z" fill="#7a808c" stroke="#2d263c" stroke-width="6" stroke-linejoin="round"/>
  <!-- visor line -->
  <path d="M124 120 Q180 132 236 120" fill="none" stroke="#2d263c" stroke-width="6" stroke-linecap="round"/>
  <!-- eyes -->
  <ellipse cx="158" cy="138" rx="8" ry="9" fill="#f5d04a" stroke="#2d263c" stroke-width="5"/>
  <ellipse cx="202" cy="138" rx="8" ry="9" fill="#f5d04a" stroke="#2d263c" stroke-width="5"/>
  <!-- chin strap -->
  <path d="M135 157 Q180 180 225 157" fill="none" stroke="#2d263c" stroke-width="6" stroke-linecap="round"/>
</svg>
