<svg xmlns="http://www.w3.org/2000/svg" viewBox="0 0 360 360">
<g fill="none" stroke="#2d263c" stroke-width="7" stroke-linejoin="round" stroke-linecap="round">
<path fill="#2a2630" d="M108 250 C108 288 252 288 252 250 C252 268 240 280 180 280 C120 280 108 268 108 250 Z"/>
<ellipse fill="#3a3540" cx="180" cy="250" rx="74" ry="30"/>
<path fill="#3a3540" d="M180 60 C236 64 268 110 270 160 C272 210 246 246 180 250 C114 246 88 210 90 160 C92 110 124 64 180 60 Z"/>
<path d="M118 120 L150 140 M210 120 L196 144 M242 180 L214 184 M118 200 L146 196 M160 100 L172 120 M200 100 L188 120" stroke="#f5a83a" stroke-width="5"/>
<path d="M128 222 L160 212 M232 222 L206 214 M196 232 L176 226" stroke="#f0842a" stroke-width="5"/>
<circle fill="#f5a83a" cx="180" cy="160" r="46"/>
<ellipse fill="#fff" cx="180" cy="160" rx="32" ry="36"/>
<ellipse fill="#2d263c" cx="184" cy="164" rx="14" ry="18"/>
<circle fill="#fff" stroke="none" cx="178" cy="156" r="5"/>
<path d="M168 212 C176 218 184 218 192 212"/>
</g>
</svg>
