<svg xmlns="http://www.w3.org/2000/svg" viewBox="0 0 360 360">
  <g stroke="#2d263c" stroke-width="7" stroke-linecap="round" stroke-linejoin="round" fill="none">
    <path d="M132 168 L84 150 L58 160"/>
    <path d="M126 196 L70 196 L46 212"/>
    <path d="M132 224 L82 240 L60 262"/>
    <path d="M150 246 L120 282 L106 310"/>
    <path d="M228 168 L276 150 L302 160"/>
    <path d="M234 196 L290 196 L314 212"/>
    <path d="M228 224 L278 240 L300 262"/>
    <path d="M210 246 L240 282 L254 310"/>
  </g>
  <circle cx="180" cy="210" r="92" fill="#d9a45c" stroke="#2d263c" stroke-width="9"/>
  <path d="M180 122 Q232 140 246 190 Q260 240 216 276 Q180 302 144 276 Q100 240 114 190 Q128 140 180 122 Z" fill="none" stroke="#a9713a" stroke-width="6"/>
  <path d="M180 148 Q214 168 220 206 Q226 244 190 262" fill="none" stroke="#a9713a" stroke-width="5"/>
  <path d="M180 148 Q146 168 140 206 Q134 244 170 262" fill="none" stroke="#a9713a" stroke-width="5"/>
  <circle cx="180" cy="210" r="10" fill="#a9713a"/>
  <circle cx="180" cy="120" r="46" fill="#5a3a24" stroke="#2d263c" stroke-width="8"/>
  <circle cx="161" cy="116" r="14" fill="#ffffff" stroke="#2d263c" stroke-width="6"/>
  <circle cx="199" cy="116" r="14" fill="#ffffff" stroke="#2d263c" stroke-width="6"/>
  <circle cx="164" cy="118" r="7" fill="#c0392b"/>
  <circle cx="202" cy="118" r="7" fill="#c0392b"/>
  <circle cx="166" cy="115" r="2.5" fill="#ffffff"/>
  <circle cx="204" cy="115" r="2.5" fill="#ffffff"/>
  <path d="M166 142 Q180 150 194 142" fill="none" stroke="#2d263c" stroke-width="5" stroke-linecap="round"/>
  <path d="M168 145 L163 154" stroke="#f5f0e8" stroke-width="4" stroke-linecap="round"/>
  <path d="M192 145 L197 154" stroke="#f5f0e8" stroke-width="4" stroke-linecap="round"/>
</svg>
