<svg xmlns="http://www.w3.org/2000/svg" viewBox="0 0 360 360">
  <!-- 触手(後ろ左) -->
  <path d="M110 220 Q70 250 78 290 Q92 300 100 282 Q104 250 120 232" fill="#D8B07A" stroke="#2d263c" stroke-width="7" stroke-linejoin="round" stroke-linecap="round"/>
  <!-- 触手(後ろ右) -->
  <path d="M250 220 Q290 250 282 290 Q268 300 260 282 Q256 250 240 232" fill="#D8B07A" stroke="#2d263c" stroke-width="7" stroke-linejoin="round" stroke-linecap="round"/>
  <!-- 触手(前・ボクシンググローブ風) 左 -->
  <ellipse cx="96" cy="250" rx="26" ry="30" fill="#E0BC84" stroke="#2d263c" stroke-width="7"/>
  <!-- 触手(前・ボクシンググローブ風) 右 -->
  <ellipse cx="264" cy="250" rx="26" ry="30" fill="#E0BC84" stroke="#2d263c" stroke-width="7"/>
  <!-- 残りの触手(下) -->
  <path d="M150 286 Q140 312 156 322 Q168 318 164 296" fill="#D8B07A" stroke="#2d263c" stroke-width="7" stroke-linejoin="round" stroke-linecap="round"/>
  <path d="M210 286 Q220 312 204 322 Q192 318 196 296" fill="#D8B07A" stroke="#2d263c" stroke-width="7" stroke-linejoin="round" stroke-linecap="round"/>
  <!-- 頭/体 -->
  <ellipse cx="180" cy="170" rx="92" ry="86" fill="#E0BC84" stroke="#2d263c" stroke-width="8" stroke-linejoin="round"/>
  <!-- 模様(褐色) -->
  <path d="M120 130 Q150 150 120 180" fill="none" stroke="#B0884E" stroke-width="9" stroke-linecap="round"/>
  <path d="M240 130 Q210 150 240 180" fill="none" stroke="#B0884E" stroke-width="9" stroke-linecap="round"/>
  <!-- 目 左 -->
  <ellipse cx="150" cy="170" rx="20" ry="24" fill="#FFFFFF" stroke="#2d263c" stroke-width="6"/>
  <ellipse cx="152" cy="174" rx="8" ry="11" fill="#241f2e"/>
  <circle cx="148" cy="166" r="4" fill="#ffffff"/>
  <!-- 目 右 -->
  <ellipse cx="210" cy="170" rx="20" ry="24" fill="#FFFFFF" stroke="#2d263c" stroke-width="6"/>
  <ellipse cx="208" cy="174" rx="8" ry="11" fill="#241f2e"/>
  <circle cx="204" cy="166" r="4" fill="#ffffff"/>
  <!-- くちばし -->
  <path d="M170 206 Q180 218 190 206 Q186 214 180 214 Q174 214 170 206Z" fill="#7A5A3A" stroke="#2d263c" stroke-width="6" stroke-linejoin="round"/>
</svg>
