<svg xmlns="http://www.w3.org/2000/svg" viewBox="0 0 360 360">
<ellipse cx="190" cy="205" rx="105" ry="62" fill="#31396e" stroke="#2d263c" stroke-width="8" stroke-linejoin="round"/>
<ellipse cx="185" cy="235" rx="70" ry="30" fill="#7d8fc9" stroke="#2d263c" stroke-width="6" stroke-linejoin="round"/>
<path d="M100 175 C60 140 45 95 60 55 C75 75 85 95 95 115 C90 90 92 65 108 45 C112 75 118 100 130 122 C135 100 148 85 165 78 C155 100 152 122 158 145 Z" fill="#31396e" stroke="#2d263c" stroke-width="7" stroke-linejoin="round" stroke-linecap="round"/>
<ellipse cx="95" cy="150" rx="46" ry="40" fill="#31396e" stroke="#2d263c" stroke-width="8" stroke-linejoin="round"/>
<path d="M62 118 C50 90 58 62 78 48 C74 72 76 96 84 116 Z" fill="#8b93b8" stroke="#2d263c" stroke-width="6" stroke-linejoin="round"/>
<path d="M300 190 C325 175 335 150 320 128 C312 148 300 165 285 178 Z" fill="#31396e" stroke="#2d263c" stroke-width="7" stroke-linejoin="round"/>
<path d="M310 205 C338 205 352 190 350 168 C336 182 320 190 302 192 Z" fill="#31396e" stroke="#2d263c" stroke-width="7" stroke-linejoin="round"/>
<path d="M280 240 C305 258 315 285 300 305 C292 285 280 265 265 252 Z" fill="#31396e" stroke="#2d263c" stroke-width="7" stroke-linejoin="round"/>
<circle cx="83" cy="140" r="10" fill="#e8483c" stroke="#2d263c" stroke-width="5"/>
<circle cx="112" cy="140" r="10" fill="#e8483c" stroke="#2d263c" stroke-width="5"/>
<path d="M60 178 C75 190 95 190 108 178" fill="none" stroke="#2d263c" stroke-width="6" stroke-linecap="round"/>
<path d="M148 155 L172 195 L152 200 L178 245" fill="none" stroke="#f4d43c" stroke-width="9" stroke-linecap="round" stroke-linejoin="round"/>
<path d="M195 165 L218 200 L198 205 L222 240" fill="none" stroke="#f4d43c" stroke-width="9" stroke-linecap="round" stroke-linejoin="round"/>
<path d="M238 175 L258 205 L240 210 L260 240" fill="none" stroke="#f4d43c" stroke-width="9" stroke-linecap="round" stroke-linejoin="round"/>
<path d="M270 195 L286 218 L272 222 L288 245" fill="none" stroke="#f4d43c" stroke-width="8" stroke-linecap="round" stroke-linejoin="round"/>
<path d="M120 258 L112 300 L96 302" fill="none" stroke="#2d263c" stroke-width="9" stroke-linecap="round"/>
<path d="M155 268 L150 308 L134 310" fill="none" stroke="#2d263c" stroke-width="9" stroke-linecap="round"/>
<path d="M215 268 L222 308 L238 310" fill="none" stroke="#2d263c" stroke-width="9" stroke-linecap="round"/>
<path d="M250 258 L262 298 L278 300" fill="none" stroke="#2d263c" stroke-width="9" stroke-linecap="round"/>
<path d="M92 300 L108 300" stroke="#2d263c" stroke-width="8" stroke-linecap="round"/>
<path d="M130 308 L146 308" stroke="#2d263c" stroke-width="8" stroke-linecap="round"/>
<path d="M234 308 L250 308" stroke="#2d263c" stroke-width="8" stroke-linecap="round"/>
<path d="M274 298 L290 298" stroke="#2d263c" stroke-width="8" stroke-linecap="round"/>
<path d="M132 175 C140 168 152 168 158 176" fill="none" stroke="#f4d43c" stroke-width="6" stroke-linecap="round"/>
</svg>
