<svg xmlns="http://www.w3.org/2000/svg" viewBox="0 0 360 360">
  <!-- back: tail coil -->
  <path d="M178,194 C176,215 168,222 152,232 C130,246 118,268 128,290 C136,308 162,312 178,298 C190,287 186,268 168,264 C156,261 150,272 158,278"
        fill="none" stroke="#2d263c" stroke-width="26" stroke-linecap="round" stroke-linejoin="round"/>
  <path d="M178,194 C176,215 168,222 152,232 C130,246 118,268 128,290 C136,308 162,312 178,298 C190,287 186,268 168,264 C156,261 150,272 158,278"
        fill="none" stroke="#8FD8F5" stroke-width="16" stroke-linecap="round" stroke-linejoin="round"/>
  <path d="M148,225 C138,232 130,238 126,248" fill="none" stroke="#3F8FC0" stroke-width="4" stroke-linecap="round"/>
  <path d="M150,290 C158,296 168,296 176,290" fill="none" stroke="#3F8FC0" stroke-width="4" stroke-linecap="round"/>

  <!-- body: head + chest -->
  <path d="M178,66 C205,66 232,82 236,112 C239,138 228,158 213,172 C207,178 200,183 195,190 C190,197 184,199 178,199 C172,199 166,197 161,190 C156,183 149,178 143,172 C128,158 117,138 120,112 C124,82 151,66 178,66 Z"
        fill="#8FD8F5" stroke="#2d263c" stroke-width="7" stroke-linejoin="round"/>

  <!-- subtle back shading -->
  <path d="M225,90 C232,105 230,125 218,140 C228,120 226,100 215,85 Z" fill="#4FA8DD" opacity="0.45"/>

  <!-- belly patch -->
  <ellipse cx="178" cy="165" rx="26" ry="32" fill="#EAF7FF" opacity="0.85"/>

  <!-- head fin -->
  <path d="M205,72 C215,55 232,50 240,60 C238,72 222,80 208,82 Z" fill="#4FA8DD" stroke="#2d263c" stroke-width="6" stroke-linejoin="round"/>

  <!-- side fins -->
  <path d="M226,152 C238,150 246,160 242,170 C234,176 224,168 222,158 Z" fill="#4FA8DD" stroke="#2d263c" stroke-width="6" stroke-linejoin="round"/>
  <path d="M126,150 C110,148 98,158 100,172 C110,180 124,174 130,160 Z" fill="#8FD8F5" stroke="#2d263c" stroke-width="6" stroke-linejoin="round"/>

  <!-- snout -->
  <path d="M140,160 C128,168 120,180 126,190 C134,196 146,188 148,174 Z" fill="#8FD8F5" stroke="#2d263c" stroke-width="6" stroke-linejoin="round"/>

  <!-- face -->
  <ellipse cx="130" cy="184" rx="4" ry="3" fill="#2d263c"/>
  <ellipse cx="150" cy="128" rx="8" ry="5" fill="#FFB6C1" opacity="0.5"/>
  <ellipse cx="208" cy="124" rx="8" ry="5" fill="#FFB6C1" opacity="0.5"/>
  <circle cx="160" cy="112" r="13" fill="#2d263c"/>
  <circle cx="198" cy="108" r="12" fill="#2d263c"/>
  <circle cx="156" cy="107" r="4" fill="#ffffff"/>
  <circle cx="194" cy="103" r="4" fill="#ffffff"/>
</svg>
