<svg xmlns="http://www.w3.org/2000/svg" viewBox="0 0 360 360">
  <g stroke="#2d263c" stroke-width="7" stroke-linejoin="round" stroke-linecap="round">
    <ellipse cx="140" cy="315" rx="24" ry="20" fill="#ded1a0"/>
    <ellipse cx="220" cy="315" rx="24" ry="20" fill="#ded1a0"/>
    <ellipse cx="85" cy="225" rx="26" ry="20" fill="#ded1a0"/>
    <ellipse cx="275" cy="225" rx="26" ry="20" fill="#ded1a0"/>
    <ellipse cx="180" cy="250" rx="95" ry="82" fill="#ded1a0"/>
    <ellipse cx="180" cy="185" rx="115" ry="30" fill="#fbeee0"/>
    <path d="M65,180 C65,95 115,50 180,50 C245,50 295,95 295,180 Z" fill="#c53a3a"/>
    <circle cx="138" cy="112" r="16" fill="#fbeee0"/>
    <circle cx="212" cy="96" r="14" fill="#fbeee0"/>
    <circle cx="178" cy="142" r="12" fill="#fbeee0"/>
    <circle cx="246" cy="128" r="13" fill="#fbeee0"/>
    <circle cx="108" cy="152" r="11" fill="#fbeee0"/>
    <circle cx="150" cy="235" r="10" fill="#2d263c" stroke="none"/>
    <circle cx="210" cy="235" r="10" fill="#2d263c" stroke="none"/>
    <path d="M164,262 Q180,274 196,262" fill="none"/>
  </g>
</svg>
