<svg xmlns="http://www.w3.org/2000/svg" viewBox="0 0 360 360">
  <!-- タルップルmax / Gigantamax Appletun -->

  <!-- GMAX RED ENERGY SPARKS (background aura) -->
  <path d="M 40 60 C 55 75 60 95 50 110" fill="none" stroke="#e0203a" stroke-width="7" stroke-linecap="round" opacity="0.75"/>
  <path d="M 320 55 C 305 72 300 92 312 108" fill="none" stroke="#e0203a" stroke-width="7" stroke-linecap="round" opacity="0.75"/>
  <path d="M 30 200 C 45 210 48 228 36 240" fill="none" stroke="#e0203a" stroke-width="6" stroke-linecap="round" opacity="0.7"/>
  <path d="M 330 205 C 315 215 312 232 324 244" fill="none" stroke="#e0203a" stroke-width="6" stroke-linecap="round" opacity="0.7"/>
  <path d="M 90 30 C 100 42 98 55 86 62" fill="none" stroke="#e0203a" stroke-width="5" stroke-linecap="round" opacity="0.6"/>
  <path d="M 270 30 C 260 42 262 55 274 62" fill="none" stroke="#e0203a" stroke-width="5" stroke-linecap="round" opacity="0.6"/>

  <!-- HUGE STICKY CARAMEL BODY -->
  <path d="M 180 55 C 120 55 68 90 55 145 C 42 200 55 250 90 285 C 118 313 148 322 180 322 C 212 322 242 313 270 285 C 305 250 318 200 305 145 C 292 90 240 55 180 55 Z" fill="#c9863a" stroke="#2d263c" stroke-width="8" stroke-linejoin="round"/>

  <!-- CARAMEL DRIP SWIRL SHELL ON TOP -->
  <path d="M 95 130 C 120 100 155 85 180 85 C 205 85 240 100 265 130 C 250 118 220 108 180 108 C 140 108 110 118 95 130 Z" fill="#8a4f1e" stroke="#2d263c" stroke-width="6" stroke-linejoin="round"/>

  <!-- DRIPS hanging down from shell -->
  <path d="M 108 128 C 105 145 112 158 122 156 C 130 154 130 138 122 128" fill="#8a4f1e" stroke="#2d263c" stroke-width="5" stroke-linejoin="round"/>
  <path d="M 250 128 C 253 145 246 158 236 156 C 228 154 228 138 236 128" fill="#8a4f1e" stroke="#2d263c" stroke-width="5" stroke-linejoin="round"/>
  <path d="M 178 92 C 175 108 180 118 188 116 C 194 114 194 100 188 92" fill="#8a4f1e" stroke="#2d263c" stroke-width="5" stroke-linejoin="round"/>

  <!-- CREAM BELLY / lower jaw glaze -->
  <path d="M 180 200 C 150 200 128 218 122 245 C 116 270 130 295 155 308 C 165 313 172 315 180 315 C 188 315 195 313 205 308 C 230 295 244 270 238 245 C 232 218 210 200 180 200 Z" fill="#f7e3a8" stroke="#2d263c" stroke-width="6" stroke-linejoin="round"/>

  <!-- STEM top -->
  <path d="M 176 55 C 172 40 168 28 173 18 C 176 12 180 10 183 13 C 187 16 186 26 183 36 C 180 45 179 50 180 55" fill="#5c3310" stroke="#2d263c" stroke-width="6" stroke-linejoin="round" stroke-linecap="round"/>

  <!-- LEAF -->
  <path d="M 174 30 C 156 18 135 16 125 25 C 117 33 124 46 137 43 C 150 40 164 33 176 35" fill="#3a8a2e" stroke="#2d263c" stroke-width="6" stroke-linejoin="round" stroke-linecap="round"/>
  <path d="M 172 32 C 156 27 140 26 129 31" fill="none" stroke="#2d263c" stroke-width="3" stroke-linecap="round"/>

  <!-- SMALL EYES (gmax = tiny eyes, huge body) -->
  <ellipse cx="150" cy="180" rx="12" ry="11" fill="white" stroke="#2d263c" stroke-width="5"/>
  <ellipse cx="152" cy="182" rx="6" ry="6" fill="#1a1a2e"/>
  <ellipse cx="210" cy="180" rx="12" ry="11" fill="white" stroke="#2d263c" stroke-width="5"/>
  <ellipse cx="212" cy="182" rx="6" ry="6" fill="#1a1a2e"/>

  <!-- BIG WIDE OPEN MOUTH with sharp teeth -->
  <path d="M 138 225 C 150 250 165 262 180 262 C 195 262 210 250 222 225 C 200 238 160 238 138 225 Z" fill="#7a1414" stroke="#2d263c" stroke-width="6" stroke-linejoin="round"/>
  <path d="M 150 228 L 155 240 L 162 228 Z" fill="white" stroke="#2d263c" stroke-width="3" stroke-linejoin="round"/>
  <path d="M 180 232 L 185 246 L 192 232 Z" fill="white" stroke="#2d263c" stroke-width="3" stroke-linejoin="round"/>
  <path d="M 200 228 L 205 240 L 210 228 Z" fill="white" stroke="#2d263c" stroke-width="3" stroke-linejoin="round"/>

  <!-- LITTLE STUBBY FEET -->
  <path d="M 130 305 C 122 312 116 320 121 328 C 126 335 140 332 143 322 C 145 314 139 306 130 305 Z" fill="#c9863a" stroke="#2d263c" stroke-width="6" stroke-linejoin="round"/>
  <path d="M 230 305 C 238 312 244 320 239 328 C 234 335 220 332 217 322 C 215 314 221 306 230 305 Z" fill="#c9863a" stroke="#2d263c" stroke-width="6" stroke-linejoin="round"/>

  <!-- SHEEN highlight -->
  <path d="M 90 150 C 98 130 118 118 138 122" fill="none" stroke="white" stroke-width="5" stroke-linecap="round" opacity="0.4"/>
</svg>
