<svg xmlns="http://www.w3.org/2000/svg" viewBox="0 0 360 360">

  <!-- 影(全体) -->
  <ellipse cx="180" cy="318" rx="85" ry="14" fill="#00000022"/>

  <!-- === 3列目 左 (130, 275) === -->
  <!-- 足 -->
  <rect x="119" y="282" width="8" height="14" rx="3" fill="#b03810" stroke="#2d263c" stroke-width="3"/>
  <rect x="131" y="282" width="8" height="14" rx="3" fill="#b03810" stroke="#2d263c" stroke-width="3"/>
  <!-- 体 -->
  <circle cx="129" cy="271" r="22" fill="#d04820" stroke="#2d263c" stroke-width="6" stroke-linejoin="round"/>
  <!-- 腹 -->
  <ellipse cx="129" cy="274" rx="12" ry="10" fill="#f0c080" stroke="none"/>
  <!-- 頭 -->
  <circle cx="129" cy="252" r="16" fill="#c03810" stroke="#2d263c" stroke-width="5" stroke-linejoin="round"/>
  <!-- ツノ -->
  <polygon points="129,237 123,250 135,250" fill="#a02808" stroke="#2d263c" stroke-width="3" stroke-linejoin="round"/>
  <!-- 目左 -->
  <circle cx="123" cy="252" r="5" fill="white" stroke="#2d263c" stroke-width="2"/>
  <circle cx="124" cy="252" r="3" fill="#1a0a0a"/>
  <circle cx="123" cy="251" r="1.2" fill="white"/>
  <!-- 目右 -->
  <circle cx="135" cy="252" r="5" fill="white" stroke="#2d263c" stroke-width="2"/>
  <circle cx="136" cy="252" r="3" fill="#1a0a0a"/>
  <circle cx="135" cy="251" r="1.2" fill="white"/>

  <!-- === 3列目 中 (180, 275) === -->
  <rect x="169" y="282" width="8" height="14" rx="3" fill="#b03810" stroke="#2d263c" stroke-width="3"/>
  <rect x="181" y="282" width="8" height="14" rx="3" fill="#b03810" stroke="#2d263c" stroke-width="3"/>
  <circle cx="179" cy="271" r="22" fill="#d04820" stroke="#2d263c" stroke-width="6" stroke-linejoin="round"/>
  <ellipse cx="179" cy="274" rx="12" ry="10" fill="#f0c080" stroke="none"/>
  <circle cx="179" cy="252" r="16" fill="#c03810" stroke="#2d263c" stroke-width="5" stroke-linejoin="round"/>
  <polygon points="179,237 173,250 185,250" fill="#a02808" stroke="#2d263c" stroke-width="3" stroke-linejoin="round"/>
  <circle cx="173" cy="252" r="5" fill="white" stroke="#2d263c" stroke-width="2"/>
  <circle cx="174" cy="252" r="3" fill="#1a0a0a"/>
  <circle cx="173" cy="251" r="1.2" fill="white"/>
  <circle cx="185" cy="252" r="5" fill="white" stroke="#2d263c" stroke-width="2"/>
  <circle cx="186" cy="252" r="3" fill="#1a0a0a"/>
  <circle cx="185" cy="251" r="1.2" fill="white"/>

  <!-- === 3列目 右 (230, 275) === -->
  <rect x="219" y="282" width="8" height="14" rx="3" fill="#b03810" stroke="#2d263c" stroke-width="3"/>
  <rect x="231" y="282" width="8" height="14" rx="3" fill="#b03810" stroke="#2d263c" stroke-width="3"/>
  <circle cx="229" cy="271" r="22" fill="#d04820" stroke="#2d263c" stroke-width="6" stroke-linejoin="round"/>
  <ellipse cx="229" cy="274" rx="12" ry="10" fill="#f0c080" stroke="none"/>
  <circle cx="229" cy="252" r="16" fill="#c03810" stroke="#2d263c" stroke-width="5" stroke-linejoin="round"/>
  <polygon points="229,237 223,250 235,250" fill="#a02808" stroke="#2d263c" stroke-width="3" stroke-linejoin="round"/>
  <circle cx="223" cy="252" r="5" fill="white" stroke="#2d263c" stroke-width="2"/>
  <circle cx="224" cy="252" r="3" fill="#1a0a0a"/>
  <circle cx="223" cy="251" r="1.2" fill="white"/>
  <circle cx="235" cy="252" r="5" fill="white" stroke="#2d263c" stroke-width="2"/>
  <circle cx="236" cy="252" r="3" fill="#1a0a0a"/>
  <circle cx="235" cy="251" r="1.2" fill="white"/>

  <!-- === 2列目 左 (152, 238) === -->
  <rect x="141" y="244" width="8" height="14" rx="3" fill="#b03810" stroke="#2d263c" stroke-width="3"/>
  <rect x="153" y="244" width="8" height="14" rx="3" fill="#b03810" stroke="#2d263c" stroke-width="3"/>
  <circle cx="151" cy="234" r="22" fill="#d04820" stroke="#2d263c" stroke-width="6" stroke-linejoin="round"/>
  <ellipse cx="151" cy="237" rx="12" ry="10" fill="#f0c080" stroke="none"/>
  <circle cx="151" cy="215" r="16" fill="#c03810" stroke="#2d263c" stroke-width="5" stroke-linejoin="round"/>
  <polygon points="151,200 145,213 157,213" fill="#a02808" stroke="#2d263c" stroke-width="3" stroke-linejoin="round"/>
  <circle cx="145" cy="215" r="5" fill="white" stroke="#2d263c" stroke-width="2"/>
  <circle cx="146" cy="215" r="3" fill="#1a0a0a"/>
  <circle cx="145" cy="214" r="1.2" fill="white"/>
  <circle cx="157" cy="215" r="5" fill="white" stroke="#2d263c" stroke-width="2"/>
  <circle cx="158" cy="215" r="3" fill="#1a0a0a"/>
  <circle cx="157" cy="214" r="1.2" fill="white"/>

  <!-- === 2列目 右 (208, 238) === -->
  <rect x="197" y="244" width="8" height="14" rx="3" fill="#b03810" stroke="#2d263c" stroke-width="3"/>
  <rect x="209" y="244" width="8" height="14" rx="3" fill="#b03810" stroke="#2d263c" stroke-width="3"/>
  <circle cx="207" cy="234" r="22" fill="#d04820" stroke="#2d263c" stroke-width="6" stroke-linejoin="round"/>
  <ellipse cx="207" cy="237" rx="12" ry="10" fill="#f0c080" stroke="none"/>
  <circle cx="207" cy="215" r="16" fill="#c03810" stroke="#2d263c" stroke-width="5" stroke-linejoin="round"/>
  <polygon points="207,200 201,213 213,213" fill="#a02808" stroke="#2d263c" stroke-width="3" stroke-linejoin="round"/>
  <circle cx="201" cy="215" r="5" fill="white" stroke="#2d263c" stroke-width="2"/>
  <circle cx="202" cy="215" r="3" fill="#1a0a0a"/>
  <circle cx="201" cy="214" r="1.2" fill="white"/>
  <circle cx="213" cy="215" r="5" fill="white" stroke="#2d263c" stroke-width="2"/>
  <circle cx="214" cy="215" r="3" fill="#1a0a0a"/>
  <circle cx="213" cy="214" r="1.2" fill="white"/>

  <!-- === 先頭 隊長 (180, 195) === -->
  <!-- 足 -->
  <rect x="166" y="205" width="10" height="18" rx="4" fill="#a02808" stroke="#2d263c" stroke-width="3"/>
  <rect x="182" y="205" width="10" height="18" rx="4" fill="#a02808" stroke="#2d263c" stroke-width="3"/>
  <!-- 体(大きめ) -->
  <circle cx="180" cy="196" r="28" fill="#e05828" stroke="#2d263c" stroke-width="7" stroke-linejoin="round"/>
  <!-- 腹 -->
  <ellipse cx="180" cy="200" rx="15" ry="13" fill="#f8d090" stroke="none"/>
  <!-- 頭 -->
  <circle cx="180" cy="172" r="20" fill="#c03810" stroke="#2d263c" stroke-width="6" stroke-linejoin="round"/>
  <!-- ツノ(隊長・大きめ) -->
  <polygon points="180,152 172,168 188,168" fill="#901800" stroke="#2d263c" stroke-width="4" stroke-linejoin="round"/>
  <!-- 眉毛(凛々しい) -->
  <path d="M169 165 Q176 161 183 165" fill="none" stroke="#2d263c" stroke-width="4" stroke-linecap="round"/>
  <path d="M177 165 Q184 161 191 165" fill="none" stroke="#2d263c" stroke-width="4" stroke-linecap="round"/>
  <!-- 目左(隊長) -->
  <circle cx="173" cy="172" r="7" fill="white" stroke="#2d263c" stroke-width="3"/>
  <circle cx="174" cy="173" r="4" fill="#1a0a0a"/>
  <circle cx="173" cy="171" r="1.8" fill="white"/>
  <!-- 目右(隊長) -->
  <circle cx="187" cy="172" r="7" fill="white" stroke="#2d263c" stroke-width="3"/>
  <circle cx="188" cy="173" r="4" fill="#1a0a0a"/>
  <circle cx="187" cy="171" r="1.8" fill="white"/>
  <!-- 口(きりっと) -->
  <path d="M174 182 Q180 186 186 182" fill="none" stroke="#2d263c" stroke-width="3" stroke-linecap="round"/>

</svg>
