<svg xmlns="http://www.w3.org/2000/svg" viewBox="0 0 360 360">
  <g stroke="#2d263c" stroke-width="7" stroke-linejoin="round" stroke-linecap="round">
    <path d="M135,90 C120,64 118,48 130,44 C142,54 150,72 152,88" fill="#b8b0a4"/>
    <path d="M225,90 C240,64 242,48 230,44 C218,54 210,72 208,88" fill="#b8b0a4"/>
    <path d="M180,176 C226,176 246,212 246,252 C246,296 220,322 180,322 C140,322 114,296 114,252 C114,212 134,176 180,176 Z" fill="#f2eee5"/>
    <path d="M145,310 C145,330 138,340 130,338 C126,326 130,316 140,308" fill="#e2dccc"/>
    <path d="M215,310 C215,330 222,340 230,338 C234,326 230,316 220,308" fill="#e2dccc"/>
    <path d="M120,226 C100,236 94,262 106,280 C118,270 128,256 135,246" fill="#e2dccc"/>
    <path d="M240,226 C260,236 266,262 254,280 C242,270 232,256 225,246" fill="#e2dccc"/>
    <path d="M180,80 C226,80 252,110 252,150 C252,180 220,200 180,200 C140,200 108,180 108,150 C108,110 134,80 180,80 Z" fill="#f2eee5"/>
    <path d="M180,120 C220,120 236,138 236,158 C236,180 210,192 180,192 C150,192 124,180 124,158 C124,138 140,120 180,120 Z" fill="#c4bcae"/>
  </g>
  <path d="M142,138 L168,150" stroke="#2d263c" stroke-width="6" stroke-linecap="round"/>
  <path d="M218,138 L192,150" stroke="#2d263c" stroke-width="6" stroke-linecap="round"/>
  <ellipse cx="158" cy="160" rx="8" ry="11" fill="#2d263c"/>
  <ellipse cx="202" cy="160" rx="8" ry="11" fill="#2d263c"/>
  <ellipse cx="180" cy="172" rx="5" ry="4" fill="#2d263c"/>
  <path d="M168,182 Q180,188 192,182" fill="none" stroke="#2d263c" stroke-width="6" stroke-linecap="round"/>
</svg>
