<svg xmlns="http://www.w3.org/2000/svg" viewBox="0 0 360 360">
<circle cx="180" cy="78" r="22" fill="none" stroke="#5a5560" stroke-width="12"/>
<rect x="168" y="95" width="24" height="150" fill="#5a5560" stroke="#2d263c" stroke-width="7"/>
<path d="M100 200 Q100 270 180 276 Q260 270 260 200" fill="none" stroke="#5a5560" stroke-width="20" stroke-linecap="round"/>
<path d="M92 198 L76 216 L102 220 Z" fill="#7a5a3a" stroke="#2d263c" stroke-width="6" stroke-linejoin="round"/>
<path d="M268 198 L284 216 L258 220 Z" fill="#7a5a3a" stroke="#2d263c" stroke-width="6" stroke-linejoin="round"/>
<path d="M168 270 L180 302 L192 270 Z" fill="#7a5a3a" stroke="#2d263c" stroke-width="6" stroke-linejoin="round"/>
<path d="M180 92 Q150 66 128 82 Q144 94 138 110 Q165 100 180 108 Z" fill="#7cb84a" stroke="#2d263c" stroke-width="6" stroke-linejoin="round"/>
<path d="M180 92 Q210 66 232 82 Q216 94 222 110 Q195 100 180 108 Z" fill="#7cb84a" stroke="#2d263c" stroke-width="6" stroke-linejoin="round"/>
<path d="M180 108 Q118 138 138 188 Q160 220 128 262" fill="none" stroke="#7cb84a" stroke-width="14" stroke-linecap="round"/>
<path d="M180 108 Q242 138 222 188 Q200 220 232 262" fill="none" stroke="#7cb84a" stroke-width="14" stroke-linecap="round"/>
<circle cx="164" cy="96" r="7" fill="#2d263c"/>
<circle cx="196" cy="96" r="7" fill="#2d263c"/>
</svg>