<svg xmlns="http://www.w3.org/2000/svg" viewBox="0 0 360 360">
  <!-- 尻尾ヒレ(後ろ) -->
  <ellipse cx="295" cy="230" rx="28" ry="12" fill="#1a3a6e" stroke="#2d263c" stroke-width="7" stroke-linejoin="round" transform="rotate(-20,295,230)"/>
  <ellipse cx="310" cy="218" rx="20" ry="9" fill="#1a3a6e" stroke="#2d263c" stroke-width="6" stroke-linejoin="round" transform="rotate(-35,310,218)"/>

  <!-- 後ろ足(左=右側) -->
  <path d="M245,255 C260,260 270,270 265,285 C262,294 250,298 240,292 C228,285 225,272 232,260 Z" fill="#1e4a8a" stroke="#2d263c" stroke-width="7" stroke-linejoin="round"/>
  <!-- 後ろ足貝刃 -->
  <path d="M238,288 C230,296 218,300 212,295 C206,290 210,278 220,274 Z" fill="#c25a20" stroke="#2d263c" stroke-width="5" stroke-linejoin="round"/>

  <!-- 後ろ足(右=左側) -->
  <path d="M100,255 C85,262 75,272 80,287 C83,296 96,300 106,293 C118,285 120,270 112,258 Z" fill="#1e4a8a" stroke="#2d263c" stroke-width="7" stroke-linejoin="round"/>
  <!-- 後ろ足貝刃 -->
  <path d="M108,290 C116,298 128,302 134,296 C140,290 136,278 126,273 Z" fill="#c25a20" stroke="#2d263c" stroke-width="5" stroke-linejoin="round"/>

  <!-- 体(どっしりした胴体) -->
  <path d="M70,200 C65,170 72,140 90,120 C112,96 145,88 180,90 C215,88 248,96 268,120 C286,142 292,172 288,200 C285,228 272,252 250,262 C228,272 205,275 180,274 C155,275 132,272 110,262 C88,252 74,228 70,200 Z" fill="#1e4a8a" stroke="#2d263c" stroke-width="8" stroke-linejoin="round"/>

  <!-- お腹の白い部分 -->
  <path d="M120,160 C130,145 155,138 180,138 C205,138 228,145 240,160 C252,176 255,200 250,220 C244,240 228,252 210,258 C200,262 190,263 180,263 C170,263 160,262 150,258 C132,252 116,240 110,220 C105,200 108,175 120,160 Z" fill="#e8e8f0" stroke="#2d263c" stroke-width="6" stroke-linejoin="round"/>

  <!-- 腹の模様(縦線っぽい影) -->
  <path d="M165,155 C162,170 160,190 162,210" fill="none" stroke="#c8c8d8" stroke-width="4" stroke-linecap="round"/>
  <path d="M195,155 C198,170 200,190 198,210" fill="none" stroke="#c8c8d8" stroke-width="4" stroke-linecap="round"/>

  <!-- 前足(左=右側)ひれがたな -->
  <path d="M250,185 C268,178 285,172 296,178 C308,184 310,198 302,208 C294,218 278,220 264,214 C250,208 244,196 250,185 Z" fill="#1e4a8a" stroke="#2d263c" stroke-width="7" stroke-linejoin="round"/>
  <!-- 刀の刃(貝殻型) -->
  <path d="M290,170 C305,158 322,152 330,160 C338,168 332,184 318,190 C304,196 290,190 286,180 Z" fill="#c0d4f0" stroke="#2d263c" stroke-width="5" stroke-linejoin="round"/>
  <path d="M308,156 C318,148 330,145 336,153" fill="none" stroke="#2d263c" stroke-width="4" stroke-linecap="round"/>

  <!-- 前足(右=左側)ひれがたな -->
  <path d="M110,185 C92,178 75,172 64,178 C52,184 50,198 58,208 C66,218 82,220 96,214 C110,208 116,196 110,185 Z" fill="#1e4a8a" stroke="#2d263c" stroke-width="7" stroke-linejoin="round"/>
  <!-- 刀の刃(貝殻型) -->
  <path d="M70,170 C55,158 38,152 30,160 C22,168 28,184 42,190 C56,196 70,190 74,180 Z" fill="#c0d4f0" stroke="#2d263c" stroke-width="5" stroke-linejoin="round"/>
  <path d="M52,156 C42,148 30,145 24,153" fill="none" stroke="#2d263c" stroke-width="4" stroke-linecap="round"/>

  <!-- 首まわり白い毛 -->
  <path d="M130,110 C140,100 160,95 180,94 C200,95 220,100 230,110 C238,118 236,126 228,130 C218,136 200,136 180,136 C160,136 142,136 132,130 C124,126 122,118 130,110 Z" fill="#e8e8f0" stroke="#2d263c" stroke-width="6" stroke-linejoin="round"/>

  <!-- 頭部(兜の下=顔の土台) -->
  <path d="M135,105 C140,85 158,74 180,73 C202,74 220,85 224,105 C228,118 224,130 218,136 C208,144 195,148 180,148 C165,148 152,144 142,136 C136,130 132,118 135,105 Z" fill="#f0f0f8" stroke="#2d263c" stroke-width="7" stroke-linejoin="round"/>

  <!-- 兜(頭の上の甲羅) -->
  <path d="M138,108 C135,90 140,68 155,54 C162,46 172,42 180,42 C188,42 198,46 205,54 C220,68 224,90 222,108 C218,120 205,126 180,126 C155,126 142,120 138,108 Z" fill="#1e3a7a" stroke="#2d263c" stroke-width="8" stroke-linejoin="round"/>

  <!-- 兜の茶色いふち模様 -->
  <path d="M145,108 C142,92 147,72 160,60 C168,52 174,49 180,49" fill="none" stroke="#c25a20" stroke-width="5" stroke-linecap="round"/>
  <path d="M215,108 C218,92 213,72 200,60 C192,52 186,49 180,49" fill="none" stroke="#c25a20" stroke-width="5" stroke-linecap="round"/>

  <!-- 兜の中央模様(赤茶) -->
  <path d="M172,50 C175,44 180,40 180,40 C180,40 185,44 188,50" fill="none" stroke="#c25a20" stroke-width="5" stroke-linecap="round"/>

  <!-- 兜の角(左) -->
  <path d="M155,70 C148,58 142,44 145,35 C147,28 154,26 160,32 C166,38 164,54 158,68 Z" fill="#c25a20" stroke="#2d263c" stroke-width="6" stroke-linejoin="round"/>
  <!-- 兜の角(右) -->
  <path d="M205,70 C212,58 218,44 215,35 C213,28 206,26 200,32 C194,38 196,54 202,68 Z" fill="#c25a20" stroke="#2d263c" stroke-width="6" stroke-linejoin="round"/>

  <!-- 顔:目(左) -->
  <path d="M155,118 C157,113 163,112 167,115 C170,118 169,124 165,126 C161,128 155,125 155,118 Z" fill="#2d263c"/>
  <!-- 目の光 -->
  <circle cx="163" cy="116" r="2.5" fill="white"/>

  <!-- 顔:目(右) -->
  <path d="M193,118 C195,113 201,112 205,115 C208,118 207,124 203,126 C199,128 193,125 193,118 Z" fill="#2d263c"/>
  <!-- 目の光 -->
  <circle cx="201" cy="116" r="2.5" fill="white"/>

  <!-- まゆ毛(武士顔・キリッと) -->
  <path d="M152,112 C156,108 163,107 168,110" fill="none" stroke="#2d263c" stroke-width="5" stroke-linecap="round"/>
  <path d="M192,110 C197,107 204,108 208,112" fill="none" stroke="#2d263c" stroke-width="5" stroke-linecap="round"/>

  <!-- 鼻 -->
  <path d="M176,130 C178,128 182,128 184,130" fill="none" stroke="#2d263c" stroke-width="4" stroke-linecap="round"/>

  <!-- ひげ(左側・長い白いひげ) -->
  <path d="M148,133 C132,136 112,134 92,140 C78,145 66,154 60,162" fill="none" stroke="#f0f0f8" stroke-width="5" stroke-linecap="round"/>
  <path d="M145,138 C128,145 108,148 88,158 C74,165 62,175 55,186" fill="none" stroke="#f0f0f8" stroke-width="5" stroke-linecap="round"/>

  <!-- ひげ(右側・長い白いひげ) -->
  <path d="M212,133 C228,136 248,134 268,140 C282,145 294,154 300,162" fill="none" stroke="#f0f0f8" stroke-width="5" stroke-linecap="round"/>
  <path d="M215,138 C232,145 252,148 272,158 C286,165 298,175 305,186" fill="none" stroke="#f0f0f8" stroke-width="5" stroke-linecap="round"/>

  <!-- 口(真剣な一文字) -->
  <path d="M168,136 C172,139 176,140 180,140 C184,140 188,139 192,136" fill="none" stroke="#2d263c" stroke-width="4" stroke-linecap="round"/>
</svg>