<svg xmlns="http://www.w3.org/2000/svg" viewBox="0 0 360 360">
<ellipse cx="180" cy="333" rx="72" ry="13" fill="#d9d2e6"/>
<path d="M95,255 Q68,275 63,302" fill="none" stroke="#2d263c" stroke-width="8" stroke-linecap="round" stroke-linejoin="round"/>
<path d="M265,255 Q292,275 297,302" fill="none" stroke="#2d263c" stroke-width="8" stroke-linecap="round" stroke-linejoin="round"/>
<circle cx="63" cy="307" r="15" fill="#e8479c" stroke="#2d263c" stroke-width="7"/>
<circle cx="297" cy="307" r="15" fill="#e8479c" stroke="#2d263c" stroke-width="7"/>
<ellipse cx="180" cy="238" rx="96" ry="92" fill="#e8479c" stroke="#2d263c" stroke-width="8" stroke-linejoin="round"/>
<circle cx="142" cy="300" r="6" fill="#c23f80"/>
<circle cx="222" cy="288" r="5" fill="#c23f80"/>
<ellipse cx="180" cy="141" rx="60" ry="65" fill="#f8bfdf" stroke="#2d263c" stroke-width="8" stroke-linejoin="round"/>
<path d="M148,118 Q180,98 212,118" fill="none" stroke="#d1789f" stroke-width="5" stroke-linecap="round"/>
<path d="M144,140 Q180,157 216,140" fill="none" stroke="#d1789f" stroke-width="5" stroke-linecap="round"/>
<path d="M154,161 Q180,172 206,161" fill="none" stroke="#d1789f" stroke-width="5" stroke-linecap="round"/>
<path d="M122,198 Q180,222 238,198" fill="none" stroke="#2d263c" stroke-width="6" stroke-linecap="round"/>
<ellipse cx="180" cy="252" rx="42" ry="47" fill="#ffffff" stroke="#2d263c" stroke-width="7"/>
<circle cx="182" cy="258" r="22" fill="#241a30"/>
<circle cx="170" cy="243" r="8" fill="#ffffff"/>
</svg>
