<svg xmlns="http://www.w3.org/2000/svg" viewBox="0 0 360 360">
<path d="M100,330 C60,325 50,295 65,278 C40,260 45,225 72,210 C48,192 55,155 90,145 C68,120 82,85 122,75 C115,50 150,32 180,36 C210,32 245,50 238,75 C278,85 292,120 270,145 C305,155 312,192 288,210 C315,225 320,260 295,278 C310,295 300,325 260,330 C265,336 95,336 100,330 Z" fill="#8b5cb8" stroke="#2d263c" stroke-width="7" stroke-linejoin="round" stroke-linecap="round"/>
<ellipse cx="125" cy="140" rx="32" ry="42" fill="#5e3785" stroke="#2d263c" stroke-width="6" stroke-linejoin="round"/>
<ellipse cx="245" cy="230" rx="28" ry="38" fill="#5e3785" stroke="#2d263c" stroke-width="6" stroke-linejoin="round"/>
<ellipse cx="150" cy="272" rx="22" ry="18" fill="#5e3785" stroke="#2d263c" stroke-width="6" stroke-linejoin="round"/>
<polygon points="165,45 170,20 180,28 190,20 195,45 180,38" fill="#e8dcc0" stroke="#2d263c" stroke-width="6" stroke-linejoin="round"/>
<ellipse cx="125" cy="120" rx="22" ry="26" fill="#fdf6e3" stroke="#2d263c" stroke-width="6" stroke-linejoin="round"/>
<ellipse cx="235" cy="120" rx="22" ry="26" fill="#fdf6e3" stroke="#2d263c" stroke-width="6" stroke-linejoin="round"/>
<circle cx="130" cy="122" r="9" fill="#241a2e"/>
<circle cx="230" cy="122" r="9" fill="#241a2e"/>
<path d="M110,195 Q180,172 250,195 L245,238 Q180,260 115,238 Z" fill="#2a1830" stroke="#2d263c" stroke-width="7" stroke-linejoin="round"/>
<polygon points="130,195 146,195 137,216" fill="#fdf6e3" stroke="#2d263c" stroke-width="5" stroke-linejoin="round"/>
<polygon points="170,190 188,190 179,213" fill="#fdf6e3" stroke="#2d263c" stroke-width="5" stroke-linejoin="round"/>
<polygon points="205,192 223,192 214,214" fill="#fdf6e3" stroke="#2d263c" stroke-width="5" stroke-linejoin="round"/>
<polygon points="140,238 158,238 149,217" fill="#fdf6e3" stroke="#2d263c" stroke-width="5" stroke-linejoin="round"/>
<polygon points="190,240 208,240 199,219" fill="#fdf6e3" stroke="#2d263c" stroke-width="5" stroke-linejoin="round"/>
<polygon points="22,220 45,182 63,192 58,230 73,248 40,263 20,253" fill="#c9a227" stroke="#2d263c" stroke-width="7" stroke-linejoin="round"/>
<polygon points="338,220 315,182 297,192 302,230 287,248 320,263 340,253" fill="#c9a227" stroke="#2d263c" stroke-width="7" stroke-linejoin="round"/>
<polygon points="50,175 60,150 68,180" fill="#a4841f" stroke="#2d263c" stroke-width="5" stroke-linejoin="round"/>
<polygon points="310,175 300,150 292,180" fill="#a4841f" stroke="#2d263c" stroke-width="5" stroke-linejoin="round"/>
<ellipse cx="140" cy="332" rx="8" ry="14" fill="#6fae4a" stroke="#2d263c" stroke-width="5" stroke-linejoin="round"/>
<ellipse cx="180" cy="336" rx="7" ry="12" fill="#6fae4a" stroke="#2d263c" stroke-width="5" stroke-linejoin="round"/>
<ellipse cx="215" cy="330" rx="8" ry="13" fill="#6fae4a" stroke="#2d263c" stroke-width="5" stroke-linejoin="round"/>
<circle cx="210" cy="160" r="9" fill="#c9a227" stroke="#2d263c" stroke-width="5"/>
<circle cx="100" cy="200" r="8" fill="#9b6fd1" stroke="#2d263c" stroke-width="5"/>
</svg>
