<svg xmlns="http://www.w3.org/2000/svg" viewBox="0 0 360 360">
  <path d="M170,210 C130,160 75,130 45,150 C25,170 25,230 60,262 C95,288 145,270 165,235 Z" fill="#5f8f3e" stroke="#2d263c" stroke-width="7" stroke-linejoin="round"/>
  <path d="M190,210 C230,160 285,130 315,150 C335,170 335,230 300,262 C265,288 215,270 195,235 Z" fill="#5f8f3e" stroke="#2d263c" stroke-width="7" stroke-linejoin="round"/>
  <path d="M162,222 L58,172" stroke="#3d5c28" stroke-width="5" fill="none" stroke-linecap="round"/>
  <path d="M158,238 L70,252" stroke="#3d5c28" stroke-width="5" fill="none" stroke-linecap="round"/>
  <path d="M198,222 L302,172" stroke="#3d5c28" stroke-width="5" fill="none" stroke-linecap="round"/>
  <path d="M202,238 L290,252" stroke="#3d5c28" stroke-width="5" fill="none" stroke-linecap="round"/>
  <path d="M172,195 Q150,205 160,225" stroke="#c08a52" stroke-width="20" stroke-linecap="round" fill="none"/>
  <path d="M188,195 Q210,205 200,225" stroke="#c08a52" stroke-width="20" stroke-linecap="round" fill="none"/>
  <ellipse cx="163" cy="300" rx="22" ry="25" fill="#a8703c" stroke="#2d263c" stroke-width="7"/>
  <ellipse cx="197" cy="300" rx="22" ry="25" fill="#a8703c" stroke="#2d263c" stroke-width="7"/>
  <path d="M138,220 C130,175 145,140 180,140 C215,140 230,175 222,220 C225,255 215,285 198,300 L162,300 C145,285 135,255 138,220 Z" fill="#c08a52" stroke="#2d263c" stroke-width="8" stroke-linejoin="round"/>
  <ellipse cx="180" cy="255" rx="32" ry="40" fill="#e0b57e"/>
  <path d="M140,45 C120,80 110,130 118,180 L242,180 C250,130 240,80 220,45 C210,90 195,120 180,125 C165,120 150,90 140,45 Z" fill="#375526" stroke="#2d263c" stroke-width="8" stroke-linejoin="round"/>
  <ellipse cx="180" cy="150" rx="58" ry="55" fill="#d9a86a" stroke="#2d263c" stroke-width="6"/>
  <path d="M140,135 Q155,120 172,132" stroke="#2f4a1e" stroke-width="7" fill="none" stroke-linecap="round"/>
  <path d="M220,135 Q205,120 188,132" stroke="#2f4a1e" stroke-width="7" fill="none" stroke-linecap="round"/>
  <ellipse cx="155" cy="145" rx="13" ry="11" fill="#c23b2b" stroke="#2d263c" stroke-width="4"/>
  <ellipse cx="205" cy="145" rx="13" ry="11" fill="#c23b2b" stroke="#2d263c" stroke-width="4"/>
  <circle cx="150" cy="143" r="5" fill="#201a17"/>
  <circle cx="210" cy="143" r="5" fill="#201a17"/>
  <path d="M150,213 Q180,238 210,213" stroke="#2d263c" stroke-width="7" fill="none" stroke-linecap="round"/>
  <path d="M162,216 L170,216 L166,226 Z" fill="#ffffff" stroke="#2d263c" stroke-width="2" stroke-linejoin="round"/>
  <path d="M190,216 L198,216 L194,226 Z" fill="#ffffff" stroke="#2d263c" stroke-width="2" stroke-linejoin="round"/>
  <path d="M165,150 L195,150 L180,205 Z" fill="#d1502c" stroke="#2d263c" stroke-width="7" stroke-linejoin="round"/>
</svg>
