<svg xmlns="http://www.w3.org/2000/svg" viewBox="0 0 360 360">
<path d="M100,175 Q60,210 60,240 Q50,290 45,320 Q60,300 75,290 Q90,315 100,335 Q120,310 135,295 Q145,320 160,338 Q175,310 195,295 Q205,320 220,335 Q235,305 250,290 Q265,310 275,320 Q290,280 300,240 Q305,205 260,175 Z" fill="#2b2740" stroke="#2d263c" stroke-width="7" stroke-linejoin="round" stroke-linecap="round"/>
<path d="M95,195 Q78,230 82,270 Q95,252 100,222 Q100,205 95,195 Z" fill="#1c1a29" stroke="#2d263c" stroke-width="5" stroke-linejoin="round" stroke-linecap="round"/>
<path d="M265,195 Q282,230 278,270 Q265,252 260,222 Q260,205 265,195 Z" fill="#1c1a29" stroke="#2d263c" stroke-width="5" stroke-linejoin="round" stroke-linecap="round"/>
<path d="M105,215 Q90,170 130,150 Q180,135 230,150 Q270,170 255,215 Q180,232 105,215 Z" fill="#2b2740" stroke="#2d263c" stroke-width="8" stroke-linejoin="round" stroke-linecap="round"/>
<path d="M90,180 L45,150 L85,130 L55,85 L100,95 L90,40 L140,55 L165,20 L185,55 L225,20 L245,55 L290,90 L250,100 L295,145 L250,175 Z" fill="#c9c9d4" stroke="#2d263c" stroke-width="7" stroke-linejoin="round" stroke-linecap="round"/>
<path d="M130,130 Q110,90 140,60 Q180,35 220,60 Q250,90 230,130 Q180,152 130,130 Z" fill="#2b2740" stroke="#2d263c" stroke-width="8" stroke-linejoin="round" stroke-linecap="round"/>
<ellipse cx="180" cy="197" rx="42" ry="22" fill="#e6e6ee" stroke="#2d263c" stroke-width="6"/>
<ellipse cx="160" cy="102" rx="10" ry="14" fill="#ff2b2b" stroke="#2d263c" stroke-width="4"/>
<ellipse cx="200" cy="102" rx="10" ry="14" fill="#ff2b2b" stroke="#2d263c" stroke-width="4"/>
<path d="M75,250 Q55,265 60,290 Q70,280 75,270 Q80,290 90,295 Q92,275 95,265 Q100,285 108,285 Q105,260 90,250 Q82,245 75,250 Z" fill="#2b2740" stroke="#2d263c" stroke-width="6" stroke-linejoin="round" stroke-linecap="round"/>
<path d="M285,250 Q305,265 300,290 Q290,280 285,270 Q280,290 270,295 Q268,275 265,265 Q260,285 252,285 Q255,260 270,250 Q278,245 285,250 Z" fill="#2b2740" stroke="#2d263c" stroke-width="6" stroke-linejoin="round" stroke-linecap="round"/>
</svg>
