<svg xmlns="http://www.w3.org/2000/svg" viewBox="0 0 360 360">
  <ellipse cx="180" cy="230" rx="118" ry="100" fill="#5aa8e0" stroke="#2d263c" stroke-width="8" stroke-linejoin="round"/>
  <path d="M100 175 Q90 110 140 90 Q160 78 180 92 Q200 78 220 90 Q270 110 260 175" fill="#5aa8e0" stroke="#2d263c" stroke-width="8" stroke-linejoin="round" stroke-linecap="round"/>
  <path d="M118 168 Q108 120 145 100" fill="none" stroke="#2d263c" stroke-width="7" stroke-linecap="round"/>
  <path d="M242 168 Q252 120 215 100" fill="none" stroke="#2d263c" stroke-width="7" stroke-linecap="round"/>
  <path d="M148 300 Q180 320 212 300 Q225 265 205 235 Q180 215 155 235 Q135 265 148 300 Z" fill="#f4f0e6" stroke="#2d263c" stroke-width="7" stroke-linejoin="round"/>
  <path d="M165 250 Q180 235 195 250 Q205 268 190 280 Q180 288 170 280 Q155 268 165 250 Z" fill="none" stroke="#e0602c" stroke-width="5" stroke-linejoin="round"/>
  <circle cx="180" cy="264" r="6" fill="#e0602c"/>
  <path d="M133 205 Q150 190 168 205" fill="none" stroke="#2d263c" stroke-width="7" stroke-linecap="round"/>
  <path d="M192 205 Q210 190 227 205" fill="none" stroke="#2d263c" stroke-width="7" stroke-linecap="round"/>
  <path d="M155 222 Q160 232 168 227" fill="none" stroke="#2d263c" stroke-width="5" stroke-linecap="round"/>
  <path d="M205 222 Q200 232 192 227" fill="none" stroke="#2d263c" stroke-width="5" stroke-linecap="round"/>
  <ellipse cx="120" cy="180" rx="14" ry="17" fill="#e0602c" stroke="#2d263c" stroke-width="5"/>
  <ellipse cx="240" cy="180" rx="14" ry="17" fill="#e0602c" stroke="#2d263c" stroke-width="5"/>
  <path d="M70 260 Q40 245 55 210 Q70 195 95 210 Q110 230 100 255 Q90 275 70 260 Z" fill="#5aa8e0" stroke="#2d263c" stroke-width="8" stroke-linejoin="round"/>
  <path d="M290 260 Q320 245 305 210 Q290 195 265 210 Q250 230 260 255 Q270 275 290 260 Z" fill="#5aa8e0" stroke="#2d263c" stroke-width="8" stroke-linejoin="round"/>
  <path d="M78 245 Q88 232 100 240" fill="none" stroke="#2d263c" stroke-width="5" stroke-linecap="round"/>
  <path d="M282 245 Q272 232 260 240" fill="none" stroke="#2d263c" stroke-width="5" stroke-linecap="round"/>
  <path d="M150 325 Q160 340 172 325" fill="none" stroke="#2d263c" stroke-width="7" stroke-linecap="round"/>
  <path d="M188 325 Q198 340 210 325" fill="none" stroke="#2d263c" stroke-width="7" stroke-linecap="round"/>
  <path d="M96 175 Q90 150 110 138" fill="none" stroke="#f4f0e6" stroke-width="6" stroke-linecap="round"/>
  <path d="M264 175 Q270 150 250 138" fill="none" stroke="#f4f0e6" stroke-width="6" stroke-linecap="round"/>
  <path d="M150 95 Q165 105 155 122" fill="none" stroke="#f4f0e6" stroke-width="5" stroke-linecap="round"/>
  <path d="M210 95 Q195 105 205 122" fill="none" stroke="#f4f0e6" stroke-width="5" stroke-linecap="round"/>
</svg>
