<svg xmlns="http://www.w3.org/2000/svg" viewBox="0 0 360 360">
  <path d="M112,75 Q62,95 66,148 Q70,188 110,172 Q128,148 128,110 Q122,88 112,75 Z" fill="#a8672c" stroke="#2d263c" stroke-width="7" stroke-linejoin="round"/>
  <path d="M248,75 Q298,95 294,148 Q290,188 250,172 Q232,148 232,110 Q238,88 248,75 Z" fill="#a8672c" stroke="#2d263c" stroke-width="7" stroke-linejoin="round"/>
  <path d="M92,105 Q80,135 92,162" fill="none" stroke="#2d263c" stroke-width="4" stroke-linecap="round"/>
  <path d="M268,105 Q280,135 268,162" fill="none" stroke="#2d263c" stroke-width="4" stroke-linecap="round"/>
  <path d="M178,152 C148,185 108,188 90,158 C72,128 78,88 108,63 C123,51 138,48 143,53 C133,73 118,98 121,128 C124,153 142,163 162,158 C170,156 176,154 178,152 Z" fill="#8a5423" stroke="#2d263c" stroke-width="7" stroke-linejoin="round"/>
  <path d="M112,95 Q102,118 114,142" fill="none" stroke="#2d263c" stroke-width="4" stroke-linecap="round"/>
  <circle cx="122" cy="63" r="12" fill="none" stroke="#8a8a8a" stroke-width="6"/>
  <ellipse cx="180" cy="115" rx="52" ry="48" fill="#c98d4e" stroke="#2d263c" stroke-width="7"/>
  <path d="M160,85 Q180,80 200,85" fill="none" stroke="#2d263c" stroke-width="4" stroke-linecap="round"/>
  <path d="M155,155 Q145,175 155,185 Q165,178 162,158 Z" fill="#fdf6e3" stroke="#2d263c" stroke-width="5" stroke-linejoin="round"/>
  <path d="M205,155 Q215,175 205,185 Q195,178 198,158 Z" fill="#fdf6e3" stroke="#2d263c" stroke-width="5" stroke-linejoin="round"/>
  <circle cx="163" cy="100" r="6" fill="#2d263c"/>
  <circle cx="197" cy="100" r="6" fill="#2d263c"/>
  <path d="M115,152 Q180,170 245,152 L245,174 Q180,192 115,174 Z" fill="#9a9a9a" stroke="#2d263c" stroke-width="7" stroke-linejoin="round"/>
  <circle cx="150" cy="163" r="5" fill="#5f5f5f"/>
  <circle cx="180" cy="168" r="5" fill="#5f5f5f"/>
  <circle cx="210" cy="163" r="5" fill="#5f5f5f"/>
  <path d="M130,150 Q105,150 105,180 L105,260 Q105,295 140,295 L220,295 Q255,295 255,260 L255,180 Q255,150 230,150 Q180,138 130,150 Z" fill="#c17f3a" stroke="#2d263c" stroke-width="8" stroke-linejoin="round"/>
  <ellipse cx="180" cy="220" rx="42" ry="50" fill="#f2d9ae"/>
  <path d="M130,192 Q180,204 230,192" fill="none" stroke="#2d263c" stroke-width="4" stroke-linecap="round"/>
  <path d="M130,232 Q180,244 230,232" fill="none" stroke="#2d263c" stroke-width="4" stroke-linecap="round"/>
  <path d="M125,288 Q118,288 118,300 L118,315 Q118,328 132,328 L155,328 Q168,328 168,315 L168,300 Q168,288 160,288 Z" fill="#a8672c" stroke="#2d263c" stroke-width="7" stroke-linejoin="round"/>
  <path d="M235,288 Q242,288 242,300 L242,315 Q242,328 228,328 L205,328 Q192,328 192,315 L192,300 Q192,288 200,288 Z" fill="#a8672c" stroke="#2d263c" stroke-width="7" stroke-linejoin="round"/>
  <path d="M140,320 L140,326" fill="none" stroke="#2d263c" stroke-width="4" stroke-linecap="round"/>
  <path d="M220,320 L220,326" fill="none" stroke="#2d263c" stroke-width="4" stroke-linecap="round"/>
  <ellipse cx="180" cy="330" rx="85" ry="7" fill="none" stroke="#e63946" stroke-width="5"/>
  <ellipse cx="180" cy="336" rx="60" ry="4" fill="none" stroke="#e63946" stroke-width="4"/>
</svg>
