<svg xmlns="http://www.w3.org/2000/svg" viewBox="0 0 360 360">
  <path d="M100,190 C78,205 60,235 55,278 C75,268 92,235 103,205 Z" fill="#fdf3e4" stroke="#2d263c" stroke-width="7" stroke-linejoin="round"/>
  <path d="M260,190 C282,205 300,235 305,278 C285,268 268,235 257,205 Z" fill="#fdf3e4" stroke="#2d263c" stroke-width="7" stroke-linejoin="round"/>

  <path d="M155,295 C142,315 145,335 165,330 C172,320 176,305 180,297 Z" fill="#7a2438" stroke="#2d263c" stroke-width="7" stroke-linejoin="round"/>
  <path d="M205,295 C218,315 215,335 195,330 C188,320 184,305 180,297 Z" fill="#7a2438" stroke="#2d263c" stroke-width="7" stroke-linejoin="round"/>

  <ellipse cx="180" cy="215" rx="100" ry="100" fill="#7a2438" stroke="#2d263c" stroke-width="8"/>

  <path d="M145,140 C125,105 130,65 148,30 C156,58 164,42 172,25 C180,50 189,42 198,28 C214,62 220,105 200,140 Z" fill="#e2492b" stroke="#2d263c" stroke-width="7" stroke-linejoin="round"/>
  <path d="M162,120 C155,95 160,68 172,45 C178,65 184,58 190,48 C198,70 200,95 190,120 Z" fill="#f7a13c" stroke="#2d263c" stroke-width="5" stroke-linejoin="round"/>

  <ellipse cx="180" cy="278" rx="55" ry="45" fill="#fdf3e4" stroke="#2d263c" stroke-width="7"/>

  <path d="M100,215 Q115,195 130,215 Q145,195 160,215 Q175,195 190,215 Q205,195 220,215 Q235,195 250,215 L250,250 L100,250 Z" fill="#fdf3e4" stroke="#2d263c" stroke-width="7" stroke-linejoin="round"/>

  <circle cx="160" cy="252" r="7" fill="#e3b93a" stroke="#2d263c" stroke-width="4"/>
  <circle cx="180" cy="258" r="8" fill="#e3b93a" stroke="#2d263c" stroke-width="4"/>
  <circle cx="200" cy="252" r="7" fill="#e3b93a" stroke="#2d263c" stroke-width="4"/>

  <path d="M85,195 C65,185 50,192 45,210 C62,212 78,205 90,200 Z" fill="#5c1b2a" stroke="#2d263c" stroke-width="6" stroke-linejoin="round"/>
  <path d="M275,195 C295,185 310,192 315,210 C298,212 282,205 270,200 Z" fill="#5c1b2a" stroke="#2d263c" stroke-width="6" stroke-linejoin="round"/>

  <ellipse cx="145" cy="185" rx="27" ry="29" fill="#ffffff" stroke="#2d263c" stroke-width="6"/>
  <ellipse cx="215" cy="185" rx="27" ry="29" fill="#ffffff" stroke="#2d263c" stroke-width="6"/>
  <circle cx="149" cy="192" r="11" fill="#2d263c"/>
  <circle cx="211" cy="192" r="11" fill="#2d263c"/>
  <circle cx="141" cy="179" r="5" fill="#ffffff"/>
  <circle cx="204" cy="179" r="5" fill="#ffffff"/>

  <path d="M120,155 Q140,144 165,158" fill="none" stroke="#2d263c" stroke-width="7" stroke-linecap="round"/>
  <path d="M195,158 Q220,144 240,155" fill="none" stroke="#2d263c" stroke-width="7" stroke-linecap="round"/>

  <path d="M165,213 Q180,220 195,213" fill="none" stroke="#2d263c" stroke-width="6" stroke-linecap="round"/>
</svg>
