<svg xmlns="http://www.w3.org/2000/svg" viewBox="0 0 360 360">
  <!-- 後ろ: しっぽ・後ろ足 -->
  <path d="M265,240 C300,233 316,208 300,188 C291,177 277,184 274,200 C270,215 267,228 265,240 Z" fill="#8ED65C" stroke="#2d263c" stroke-width="7" stroke-linejoin="round" stroke-linecap="round"/>
  <ellipse cx="123" cy="300" rx="25" ry="20" fill="#8ED65C" stroke="#2d263c" stroke-width="7" stroke-linejoin="round" stroke-linecap="round"/>
  <ellipse cx="247" cy="300" rx="25" ry="20" fill="#8ED65C" stroke="#2d263c" stroke-width="7" stroke-linejoin="round" stroke-linecap="round"/>

  <!-- 体 -->
  <ellipse cx="180" cy="235" rx="96" ry="76" fill="#8ED65C" stroke="#2d263c" stroke-width="8" stroke-linejoin="round" stroke-linecap="round"/>
  <ellipse cx="153" cy="311" rx="23" ry="18" fill="#8ED65C" stroke="#2d263c" stroke-width="7" stroke-linejoin="round" stroke-linecap="round"/>
  <ellipse cx="212" cy="311" rx="23" ry="18" fill="#8ED65C" stroke="#2d263c" stroke-width="7" stroke-linejoin="round" stroke-linecap="round"/>
  <ellipse cx="180" cy="252" rx="59" ry="48" fill="#FBF1C9" stroke="#2d263c" stroke-width="6" stroke-linejoin="round" stroke-linecap="round"/>

  <!-- 顔: 頭・葉っぱ・目・鼻・口 -->
  <circle cx="180" cy="135" r="72" fill="#8ED65C" stroke="#2d263c" stroke-width="8" stroke-linejoin="round" stroke-linecap="round"/>

  <path d="M175,113 C132,102 98,65 112,30 C122,10 152,8 170,26 C196,52 200,90 181,111 C179,113 177,114 175,113 Z" fill="#4F9A3A" stroke="#2d263c" stroke-width="7" stroke-linejoin="round" stroke-linecap="round"/>
  <line x1="120" y1="33" x2="176" y2="108" stroke="#356e28" stroke-width="5" stroke-linecap="round"/>

  <circle cx="150" cy="132" r="16" fill="#2d263c"/>
  <circle cx="145" cy="126" r="4.5" fill="#ffffff"/>
  <circle cx="212" cy="132" r="16" fill="#2d263c"/>
  <circle cx="207" cy="126" r="4.5" fill="#ffffff"/>

  <circle cx="181" cy="156" r="6" fill="#E8636B" stroke="#2d263c" stroke-width="3"/>
  <path d="M164,172 Q181,184 198,172" fill="none" stroke="#2d263c" stroke-width="6" stroke-linecap="round"/>
</svg>
