<svg xmlns="http://www.w3.org/2000/svg" viewBox="0 0 360 360">
  <path d="M165,128 Q132,92 118,50" fill="none" stroke="#2d263c" stroke-width="10" stroke-linecap="round"/>
  <path d="M195,128 Q228,92 242,50" fill="none" stroke="#2d263c" stroke-width="10" stroke-linecap="round"/>
  <path d="M165,128 Q135,94 121,54" fill="none" stroke="#ffd23f" stroke-width="5" stroke-linecap="round"/>
  <path d="M195,128 Q225,94 239,54" fill="none" stroke="#ffd23f" stroke-width="5" stroke-linecap="round"/>
  <circle cx="114" cy="42" r="21" fill="#ffe06a" stroke="#2d263c" stroke-width="7"/>
  <circle cx="246" cy="42" r="21" fill="#ffe06a" stroke="#2d263c" stroke-width="7"/>
  <circle cx="108" cy="35" r="7" fill="#fff6cf"/>
  <circle cx="240" cy="35" r="7" fill="#fff6cf"/>
  <path d="M78,215 L38,192 L46,236 Z" fill="#2c58b8" stroke="#2d263c" stroke-width="7" stroke-linejoin="round"/>
  <path d="M282,215 L322,192 L314,236 Z" fill="#2c58b8" stroke="#2d263c" stroke-width="7" stroke-linejoin="round"/>
  <path d="M162,308 L180,344 L198,308 Z" fill="#2c58b8" stroke="#2d263c" stroke-width="7" stroke-linejoin="round"/>
  <circle cx="180" cy="212" r="106" fill="#3d6fe0" stroke="#2d263c" stroke-width="8"/>
  <ellipse cx="180" cy="255" rx="62" ry="46" fill="#fff3c4" stroke="#2d263c" stroke-width="6"/>
  <circle cx="146" cy="188" r="29" fill="#ffffff" stroke="#2d263c" stroke-width="7"/>
  <circle cx="214" cy="188" r="29" fill="#ffffff" stroke="#2d263c" stroke-width="7"/>
  <circle cx="151" cy="192" r="13" fill="#241f2e"/>
  <circle cx="209" cy="192" r="13" fill="#241f2e"/>
  <circle cx="145" cy="184" r="4" fill="#ffffff"/>
  <circle cx="203" cy="184" r="4" fill="#ffffff"/>
  <ellipse cx="120" cy="228" rx="15" ry="9" fill="#ff9fb0" opacity="0.75"/>
  <ellipse cx="240" cy="228" rx="15" ry="9" fill="#ff9fb0" opacity="0.75"/>
  <path d="M164,242 Q180,254 196,242" fill="none" stroke="#2d263c" stroke-width="6" stroke-linecap="round"/>
</svg>
