<svg xmlns="http://www.w3.org/2000/svg" viewBox="0 0 360 360">
  <circle cx="135" cy="85" r="32" fill="#D9F0FC" stroke="#2d263c" stroke-width="7" stroke-linejoin="round"/>
  <circle cx="110" cy="110" r="26" fill="#D9F0FC" stroke="#2d263c" stroke-width="7" stroke-linejoin="round"/>
  <circle cx="160" cy="60" r="24" fill="#D9F0FC" stroke="#2d263c" stroke-width="7" stroke-linejoin="round"/>
  <circle cx="192" cy="68" r="22" fill="#D9F0FC" stroke="#2d263c" stroke-width="7" stroke-linejoin="round"/>
  <circle cx="78" cy="205" r="36" fill="#CCE9F9" stroke="#2d263c" stroke-width="7" stroke-linejoin="round"/>
  <circle cx="55" cy="228" r="26" fill="#CCE9F9" stroke="#2d263c" stroke-width="7" stroke-linejoin="round"/>
  <circle cx="88" cy="248" r="22" fill="#CCE9F9" stroke="#2d263c" stroke-width="7" stroke-linejoin="round"/>
  <circle cx="282" cy="205" r="36" fill="#CCE9F9" stroke="#2d263c" stroke-width="7" stroke-linejoin="round"/>
  <circle cx="305" cy="228" r="26" fill="#CCE9F9" stroke="#2d263c" stroke-width="7" stroke-linejoin="round"/>
  <circle cx="272" cy="248" r="22" fill="#CCE9F9" stroke="#2d263c" stroke-width="7" stroke-linejoin="round"/>
  <rect x="148" y="250" width="14" height="35" rx="6" fill="#F7B8C4" stroke="#2d263c" stroke-width="6" stroke-linejoin="round"/>
  <rect x="198" y="250" width="14" height="35" rx="6" fill="#F7B8C4" stroke="#2d263c" stroke-width="6" stroke-linejoin="round"/>
  <ellipse cx="155" cy="283" rx="15" ry="9" fill="#F7B8C4" stroke="#2d263c" stroke-width="6" stroke-linejoin="round"/>
  <ellipse cx="205" cy="283" rx="15" ry="9" fill="#F7B8C4" stroke="#2d263c" stroke-width="6" stroke-linejoin="round"/>
  <ellipse cx="180" cy="210" rx="88" ry="70" fill="#BFE4F7" stroke="#2d263c" stroke-width="8" stroke-linejoin="round"/>
  <circle cx="130" cy="252" r="20" fill="#BFE4F7" stroke="#2d263c" stroke-width="7" stroke-linejoin="round"/>
  <circle cx="230" cy="252" r="20" fill="#BFE4F7" stroke="#2d263c" stroke-width="7" stroke-linejoin="round"/>
  <circle cx="180" cy="130" r="58" fill="#BFE4F7" stroke="#2d263c" stroke-width="8" stroke-linejoin="round"/>
  <path d="M180,66 C173,50 172,40 180,34 C188,40 187,50 180,66 Z" fill="#D9F0FC" stroke="#2d263c" stroke-width="6" stroke-linejoin="round"/>
  <path d="M165,148 C165,138 174,133 180,133 C186,133 195,138 195,148 C195,158 188,163 180,163 C172,163 165,158 165,148 Z" fill="#F3AE86" stroke="#2d263c" stroke-width="6" stroke-linejoin="round"/>
  <circle cx="157" cy="122" r="12" fill="#241f2e" stroke="#2d263c" stroke-width="6"/>
  <circle cx="203" cy="122" r="12" fill="#241f2e" stroke="#2d263c" stroke-width="6"/>
  <circle cx="153" cy="118" r="4" fill="#ffffff"/>
  <circle cx="199" cy="118" r="4" fill="#ffffff"/>
</svg>
