<svg xmlns="http://www.w3.org/2000/svg" viewBox="0 0 360 360"><g stroke="#2d263c" stroke-width="7" stroke-linejoin="round" stroke-linecap="round"><path d="M250 235 Q300 245 322 290 Q328 302 314 297 Q288 280 262 264 Z" fill="#8cc1ea"/><path d="M248 250 Q278 288 272 326 Q269 336 260 326 Q246 298 236 274 Z" fill="#8cc1ea"/><path d="M150 82 Q108 50 68 62 Q52 68 62 80 Q92 72 116 96 Z" fill="#8cc1ea"/><path d="M170 70 Q158 32 114 30 Q94 30 102 45 Q136 50 148 78 Z" fill="#8cc1ea"/><path d="M140 120 Q132 170 142 205 L210 205 Q200 165 205 120 Z" fill="#8cc1ea"/><ellipse cx="135" cy="320" rx="13" ry="11" fill="#b6c0d4"/><ellipse cx="207" cy="322" rx="12" ry="10" fill="#b6c0d4"/><path d="M115 205 Q85 195 75 218 Q48 218 50 244 Q35 265 62 275 Q60 300 92 296 Q102 318 132 306 Q152 324 178 308 Q202 322 226 304 Q256 312 260 286 Q288 282 280 256 Q298 236 276 222 Q270 198 242 206 Q226 190 205 202 L115 205 Z" fill="#ffffff"/><path d="M148 252 q16 -18 33 -4 q12 10 -3 16" fill="none" stroke-width="6"/><path d="M212 270 q14 -14 28 -2" fill="none" stroke-width="6"/><circle cx="172" cy="100" r="44" fill="#8cc1ea"/><ellipse cx="141" cy="116" rx="15" ry="12" fill="#ffffff"/><ellipse cx="204" cy="118" rx="14" ry="11" fill="#ffffff"/><path d="M165 108 L181 108 L173 121 Z" fill="#aeb8cc"/><circle cx="155" cy="92" r="6" fill="#2d263c" stroke="none"/><circle cx="192" cy="90" r="6" fill="#2d263c" stroke="none"/><circle cx="157" cy="90" r="2" fill="#ffffff" stroke="none"/><circle cx="194" cy="88" r="2" fill="#ffffff" stroke="none"/></g></svg>