<svg xmlns="http://www.w3.org/2000/svg" viewBox="0 0 360 360">
  <g stroke="#2d263c" stroke-width="7" stroke-linejoin="round" stroke-linecap="round">
    <ellipse cx="179" cy="44" rx="16" ry="20" fill="#e25b51"/>
    <ellipse cx="124" cy="92" rx="19" ry="24" fill="#e25b51" transform="rotate(-18 124 92)"/>
    <ellipse cx="237" cy="87" rx="21" ry="25" fill="#e25b51" transform="rotate(14 237 87)"/>
    <path d="M150 268 Q144 296 148 316 Q132 318 132 328 Q132 336 152 335 Q168 334 166 318 Q164 296 168 268 Z" fill="#e25b51"/>
    <path d="M192 268 Q196 296 194 318 Q190 334 208 335 Q228 336 228 327 Q228 318 212 316 Q216 296 210 268 Z" fill="#e25b51"/>
    <path d="M159 147 Q139 180 147 216 Q180 222 215 215 Q223 178 201 147 Q180 152 159 147 Z" fill="#e8e4ef"/>
    <path d="M143 206 Q117 214 119 248 Q121 283 161 287 Q180 290 201 287 Q239 283 241 246 Q243 212 217 205 Q180 196 143 206 Z" fill="#e25b51"/>
    <path d="M156 158 Q128 172 137 197 Q145 212 171 199" fill="none" stroke-width="21"/>
    <path d="M205 156 Q232 170 224 196 Q216 211 189 199" fill="none" stroke-width="21"/>
    <path d="M156 158 Q128 172 137 197 Q145 212 171 199" fill="none" stroke="#e8e4ef" stroke-width="9"/>
    <path d="M205 156 Q232 170 224 196 Q216 211 189 199" fill="none" stroke="#e8e4ef" stroke-width="9"/>
    <ellipse cx="176" cy="197" rx="7" ry="12" fill="#e8e4ef" stroke-width="5"/>
    <ellipse cx="185" cy="196" rx="7" ry="12" fill="#e8e4ef" stroke-width="5"/>
    <path d="M133 106 Q130 62 179 56 Q231 60 229 104 Q227 148 181 153 Q135 150 133 106 Z" fill="#e8e4ef"/>
    <path d="M133 106 Q130 62 179 56 Q231 60 229 104 Q216 94 198 97 Q186 99 181 109 Q175 99 160 97 Q145 95 133 106 Z" fill="#e25b51"/>
    <ellipse cx="159" cy="113" rx="9" ry="13" fill="#f7cf4a" stroke-width="5" transform="rotate(-7 159 113)"/>
    <ellipse cx="203" cy="110" rx="11" ry="12" fill="#f7cf4a" stroke-width="5"/>
    <circle cx="161" cy="115" r="3.5" fill="#2d263c" stroke="none"/>
    <circle cx="200" cy="112" r="4" fill="#2d263c" stroke="none"/>
    <path d="M172 137 Q179 142 188 136" fill="none" stroke-width="6"/>
  </g>
</svg>