<svg xmlns="http://www.w3.org/2000/svg" viewBox="0 0 360 360">
  <circle cx="150" cy="78" r="36" fill="#f6efe0" stroke="#2d263c" stroke-width="7"/>
  <circle cx="212" cy="78" r="36" fill="#f6efe0" stroke="#2d263c" stroke-width="7"/>
  <circle cx="181" cy="55" r="38" fill="#f6efe0" stroke="#2d263c" stroke-width="7"/>
  <path d="M133,112 Q108,60 148,45 Q168,68 158,115 Z" fill="#9b8ec4" stroke="#2d263c" stroke-width="7" stroke-linejoin="round"/>
  <path d="M227,112 Q252,60 212,45 Q192,68 202,115 Z" fill="#9b8ec4" stroke="#2d263c" stroke-width="7" stroke-linejoin="round"/>
  <ellipse cx="138" cy="82" rx="10" ry="18" fill="#6f5f9c" stroke="#2d263c" stroke-width="5"/>
  <ellipse cx="222" cy="82" rx="10" ry="18" fill="#6f5f9c" stroke="#2d263c" stroke-width="5"/>
  <ellipse cx="180" cy="238" rx="86" ry="76" fill="#9b8ec4" stroke="#2d263c" stroke-width="8"/>
  <ellipse cx="104" cy="252" rx="22" ry="32" fill="#9b8ec4" stroke="#2d263c" stroke-width="7"/>
  <ellipse cx="256" cy="252" rx="22" ry="32" fill="#9b8ec4" stroke="#2d263c" stroke-width="7"/>
  <ellipse cx="146" cy="312" rx="26" ry="17" fill="#f6efe0" stroke="#2d263c" stroke-width="7"/>
  <ellipse cx="214" cy="312" rx="26" ry="17" fill="#f6efe0" stroke="#2d263c" stroke-width="7"/>
  <ellipse cx="180" cy="252" rx="55" ry="50" fill="#f6efe0" stroke="#2d263c" stroke-width="7"/>
  <circle cx="180" cy="165" r="68" fill="#9b8ec4" stroke="#2d263c" stroke-width="8"/>
  <ellipse cx="180" cy="182" rx="46" ry="38" fill="#f6efe0" stroke="#2d263c" stroke-width="7"/>
  <path d="M132,196 C132,176 112,176 112,196 C112,211 127,211 127,199 C127,191 117,191 117,199" fill="none" stroke="#2d263c" stroke-width="6" stroke-linecap="round"/>
  <path d="M228,196 C228,176 248,176 248,196 C248,211 233,211 233,199 C233,191 243,191 243,199" fill="none" stroke="#2d263c" stroke-width="6" stroke-linecap="round"/>
  <circle cx="160" cy="162" r="11" fill="#2d263c"/>
  <circle cx="200" cy="162" r="11" fill="#2d263c"/>
  <circle cx="164" cy="158" r="4" fill="#ffffff"/>
  <circle cx="204" cy="158" r="4" fill="#ffffff"/>
  <circle cx="180" cy="192" r="6" fill="#e8a0b0" stroke="#2d263c" stroke-width="4"/>
  <path d="M172,205 Q180,212 188,205" fill="none" stroke="#2d263c" stroke-width="5" stroke-linecap="round"/>
</svg>
