<svg xmlns="http://www.w3.org/2000/svg" viewBox="0 0 360 360">
  <!-- 後ろの翼 (右) -->
  <ellipse cx="270" cy="175" rx="68" ry="45" fill="#e8f4fa" stroke="#2d263c" stroke-width="7" stroke-linejoin="round"/>
  <ellipse cx="288" cy="155" rx="42" ry="28" fill="#ddeef7" stroke="#2d263c" stroke-width="6" stroke-linejoin="round"/>
  <ellipse cx="275" cy="140" rx="30" ry="20" fill="#cce6f4" stroke="#2d263c" stroke-width="6" stroke-linejoin="round"/>

  <!-- 後ろの翼 (左) -->
  <ellipse cx="92" cy="178" rx="68" ry="45" fill="#e8f4fa" stroke="#2d263c" stroke-width="7" stroke-linejoin="round"/>
  <ellipse cx="74" cy="157" rx="42" ry="28" fill="#ddeef7" stroke="#2d263c" stroke-width="6" stroke-linejoin="round"/>
  <ellipse cx="88" cy="141" rx="30" ry="20" fill="#cce6f4" stroke="#2d263c" stroke-width="6" stroke-linejoin="round"/>

  <!-- しっぽ (後ろ) -->
  <ellipse cx="183" cy="295" rx="50" ry="30" fill="#ddeef7" stroke="#2d263c" stroke-width="7" stroke-linejoin="round"/>
  <ellipse cx="165" cy="308" rx="32" ry="20" fill="#cce6f4" stroke="#2d263c" stroke-width="6" stroke-linejoin="round"/>
  <ellipse cx="200" cy="312" rx="28" ry="18" fill="#e4f1f8" stroke="#2d263c" stroke-width="6" stroke-linejoin="round"/>

  <!-- 体 (メイン) -->
  <ellipse cx="181" cy="215" rx="72" ry="80" fill="#7ab8d8" stroke="#2d263c" stroke-width="8" stroke-linejoin="round"/>

  <!-- お腹 (白っぽい) -->
  <ellipse cx="181" cy="230" rx="42" ry="52" fill="#c8e8f5" stroke="none"/>

  <!-- 体の綿毛テクスチャ -->
  <ellipse cx="130" cy="190" rx="22" ry="16" fill="#9ccde3" stroke="#2d263c" stroke-width="5" stroke-linejoin="round"/>
  <ellipse cx="232" cy="193" rx="20" ry="15" fill="#9ccde3" stroke="#2d263c" stroke-width="5" stroke-linejoin="round"/>
  <ellipse cx="148" cy="245" rx="18" ry="13" fill="#8ec6dd" stroke="#2d263c" stroke-width="5" stroke-linejoin="round"/>
  <ellipse cx="218" cy="248" rx="17" ry="12" fill="#8ec6dd" stroke="#2d263c" stroke-width="5" stroke-linejoin="round"/>

  <!-- 頭 -->
  <ellipse cx="181" cy="148" rx="52" ry="48" fill="#7ab8d8" stroke="#2d263c" stroke-width="8" stroke-linejoin="round"/>

  <!-- 頭の綿毛 -->
  <ellipse cx="148" cy="125" rx="24" ry="18" fill="#9ccde3" stroke="#2d263c" stroke-width="6" stroke-linejoin="round"/>
  <ellipse cx="214" cy="127" rx="22" ry="17" fill="#9ccde3" stroke="#2d263c" stroke-width="6" stroke-linejoin="round"/>
  <ellipse cx="181" cy="112" rx="28" ry="18" fill="#a0d0e4" stroke="#2d263c" stroke-width="6" stroke-linejoin="round"/>

  <!-- 角 (左) -->
  <path d="M155 118 C148 100 143 82 150 70 C154 80 157 95 158 112 Z" fill="#5896b8" stroke="#2d263c" stroke-width="6" stroke-linejoin="round" stroke-linecap="round"/>

  <!-- 角 (右) -->
  <path d="M207 120 C212 102 220 84 214 72 C209 82 205 97 204 114 Z" fill="#5896b8" stroke="#2d263c" stroke-width="6" stroke-linejoin="round" stroke-linecap="round"/>

  <!-- 目 (左) - ちょっとねむそう -->
  <ellipse cx="162" cy="148" rx="9" ry="7" fill="white" stroke="#2d263c" stroke-width="4"/>
  <ellipse cx="163" cy="149" rx="5" ry="4" fill="#1a1a2e"/>
  <ellipse cx="164" cy="148" rx="2" ry="1.5" fill="white"/>
  <!-- まぶた (ねむそう) -->
  <path d="M153 145 Q162 140 172 145" fill="none" stroke="#2d263c" stroke-width="4" stroke-linecap="round"/>

  <!-- 目 (右) - ちょっとズレてる -->
  <ellipse cx="200" cy="150" rx="8" ry="7" fill="white" stroke="#2d263c" stroke-width="4"/>
  <ellipse cx="201" cy="151" rx="4.5" ry="4" fill="#1a1a2e"/>
  <ellipse cx="202" cy="150" rx="1.8" ry="1.5" fill="white"/>
  <!-- まぶた (ねむそう) -->
  <path d="M192 147 Q200 142 209 147" fill="none" stroke="#2d263c" stroke-width="4" stroke-linecap="round"/>

  <!-- くちばし -->
  <path d="M176 163 L181 175 L187 163 Q181 168 176 163 Z" fill="#e8c840" stroke="#2d263c" stroke-width="5" stroke-linejoin="round" stroke-linecap="round"/>

  <!-- ほっぺ (左) -->
  <ellipse cx="148" cy="163" rx="11" ry="8" fill="#f0a0b8" stroke="none" opacity="0.75"/>

  <!-- ほっぺ (右) -->
  <ellipse cx="214" cy="165" rx="10" ry="8" fill="#f0a0b8" stroke="none" opacity="0.75"/>

  <!-- しっぽの綿毛 (前) -->
  <ellipse cx="183" cy="283" rx="44" ry="26" fill="#eef6fb" stroke="#2d263c" stroke-width="7" stroke-linejoin="round"/>
  <ellipse cx="163" cy="296" rx="28" ry="17" fill="#e4f1f8" stroke="#2d263c" stroke-width="6" stroke-linejoin="round"/>
  <ellipse cx="204" cy="298" rx="26" ry="16" fill="#ddeef7" stroke="#2d263c" stroke-width="6" stroke-linejoin="round"/>

  <!-- 足 (左) -->
  <path d="M162 285 C157 290 152 298 155 305 C158 298 163 295 165 290 Z" fill="#5896b8" stroke="#2d263c" stroke-width="6" stroke-linejoin="round" stroke-linecap="round"/>

  <!-- 足 (右) -->
  <path d="M200 286 C205 291 210 299 207 306 C204 299 199 296 198 291 Z" fill="#5896b8" stroke="#2d263c" stroke-width="6" stroke-linejoin="round" stroke-linecap="round"/>
</svg>