<svg xmlns="http://www.w3.org/2000/svg" viewBox="0 0 360 360">
  <ellipse cx="180" cy="255" rx="70" ry="30" fill="#8FAEC0" stroke="#2d263c" stroke-width="7"/>
  <path d="M115,230 Q100,150 130,90 Q155,45 205,45 Q255,45 275,95 Q295,150 265,230 Q250,270 180,275 Q135,270 115,230 Z" fill="#E89AA0" stroke="#2d263c" stroke-width="8" stroke-linejoin="round"/>
  <path d="M140,215 Q130,140 155,90 Q175,55 205,55 Q245,55 262,100 Q278,150 255,215 Q240,250 190,255 Q160,250 140,215 Z" fill="#F0B4B8" stroke="none"/>
  <path d="M150,235 Q170,255 210,240" fill="none" stroke="#C97880" stroke-width="4" stroke-linecap="round"/>
  <path d="M150,140 Q120,175 130,225 Q140,255 175,268 Q150,235 150,190 Q150,160 150,140 Z" fill="#A8C8D8" stroke="#2d263c" stroke-width="7" stroke-linejoin="round"/>
  <path d="M150,140 Q140,175 148,215 Q155,235 170,245" fill="none" stroke="#F5DFA0" stroke-width="10" stroke-linecap="round"/>
  <path d="M135,120 Q120,100 128,75" fill="none" stroke="#8878C0" stroke-width="7" stroke-linecap="round"/>
  <circle cx="128" cy="72" r="8" fill="#8878C0" stroke="#2d263c" stroke-width="6"/>
  <path d="M165,110 Q158,85 170,62" fill="none" stroke="#8878C0" stroke-width="7" stroke-linecap="round"/>
  <circle cx="171" cy="59" r="8" fill="#8878C0" stroke="#2d263c" stroke-width="6"/>
  <ellipse cx="142" cy="170" rx="20" ry="24" fill="#ffffff" stroke="#2d263c" stroke-width="5"/>
  <circle cx="146" cy="174" r="9" fill="#1a1a1a"/>
  <circle cx="141" cy="167" r="3" fill="#ffffff"/>
  <path d="M138,222 Q148,232 162,224" fill="none" stroke="#2d263c" stroke-width="5" stroke-linecap="round"/>
  <path d="M175,150 Q182,135 200,132" fill="none" stroke="#C97880" stroke-width="5" stroke-linecap="round"/>
  <path d="M180,175 Q190,162 210,160" fill="none" stroke="#C97880" stroke-width="5" stroke-linecap="round"/>
</svg>
