<svg xmlns="http://www.w3.org/2000/svg" viewBox="0 0 360 360"><path d="M167 48 L164 70 L197 69 L193 47 Z" fill="#F6D154" stroke="#2d263c" stroke-width="7" stroke-linejoin="round"/><ellipse cx="180" cy="44" rx="30" ry="13" fill="#F6D154" stroke="#2d263c" stroke-width="7"/><path d="M172 175 C186 200 158 212 170 234 C176 245 168 252 164 262 L148 256 C146 246 158 238 151 224 C142 205 166 196 156 178 Z" fill="#8FB8E8" stroke="#2d263c" stroke-width="7" stroke-linejoin="round"/><path d="M137 252 Q172 243 205 253 Q212 294 201 337 Q168 345 146 335 Q131 292 137 252 Z" fill="#FFF4DC" stroke="#2d263c" stroke-width="7" stroke-linejoin="round"/><path d="M140 262 L155 279 L170 260 L185 279 L199 261 L202 252 Q172 244 139 253 Z" fill="#E04A44" stroke="#2d263c" stroke-width="5" stroke-linejoin="round"/><path d="M180 62 C132 64 106 118 117 168 Q121 184 129 191 L140 181 L153 193 L167 182 L181 194 L195 182 L209 193 L222 181 L233 191 Q241 184 245 167 C255 116 229 64 180 62 Z" fill="#8FB8E8" stroke="#2d263c" stroke-width="7" stroke-linejoin="round"/><ellipse cx="142" cy="139" rx="11" ry="7" fill="#F6A9B8"/><ellipse cx="221" cy="134" rx="11" ry="7" fill="#F6A9B8"/><ellipse cx="156" cy="115" rx="5" ry="8" fill="#2d263c"/><ellipse cx="207" cy="111" rx="5" ry="8" fill="#2d263c"/><ellipse cx="182" cy="147" rx="13" ry="16" fill="#9c4a52" stroke="#2d263c" stroke-width="6"/><ellipse cx="282" cy="88" rx="9" ry="7" fill="#2d263c"/><path d="M290 85 L294 56 Q302 58 307 66" fill="none" stroke="#2d263c" stroke-width="6" stroke-linecap="round"/><ellipse cx="64" cy="104" rx="8" ry="6" fill="#2d263c"/><path d="M71 101 L75 76" fill="none" stroke="#2d263c" stroke-width="6" stroke-linecap="round"/></svg>