<svg xmlns="http://www.w3.org/2000/svg" viewBox="0 0 360 360">
  <g stroke="#2d263c" stroke-width="7" stroke-linejoin="round" stroke-linecap="round">
    <path fill="#f0ece4" d="M148,280 C146,295 145,308 144,316 C136,316 126,318 124,324 C123,330 132,331 140,329 C152,326 156,322 157,314 C158,300 159,290 160,282 Z"/>
    <path fill="#f0ece4" d="M203,279 C205,294 206,307 207,315 C215,315 226,317 228,323 C229,329 220,330 212,328 C200,325 196,321 195,313 C194,299 193,289 192,281 Z"/>
    <path fill="#d84a52" d="M143,208 C110,216 100,255 122,278 C132,290 152,292 158,278 L160,270 Q180,284 202,269 L204,277 C210,290 232,287 242,274 C262,250 252,214 220,207 Z"/>
    <path fill="#f0ece4" d="M157,150 C152,172 154,196 158,213 L205,211 C210,194 211,170 206,149 Z"/>
    <path fill="#f0ece4" d="M159,158 Q134,166 140,190 Q146,202 170,197 L171,188 Q150,190 151,177 Q153,166 163,165 Z"/>
    <path fill="#f0ece4" d="M204,157 Q229,165 223,189 Q217,201 193,196 L192,187 Q213,189 212,176 Q210,165 200,164 Z"/>
    <path fill="#f0ece4" d="M181,166 C175,172 173,184 175,197 L188,197 C190,184 188,172 183,166 Z"/>
    <path fill="#f0ece4" d="M133,100 Q132,134 156,147 Q181,156 207,146 Q229,134 228,98 Q227,72 180,70 Q134,72 133,100 Z"/>
    <ellipse fill="#f5c542" cx="184" cy="44" rx="15" ry="13"/>
    <path fill="#d84a52" d="M127,103 Q106,101 109,85 Q112,70 132,77 Q142,52 181,50 Q221,52 231,76 Q252,69 254,86 Q256,102 234,104 Q226,106 220,99 Q200,88 182,102 Q162,88 142,98 Q136,106 127,103 Z"/>
    <path fill="none" stroke-width="6" d="M150,116 Q160,107 170,115"/>
    <path fill="none" stroke-width="6" d="M194,114 Q204,106 214,116"/>
    <ellipse fill="#d84a52" stroke-width="5" cx="182" cy="137" rx="8" ry="5"/>
  </g>
</svg>