<svg xmlns="http://www.w3.org/2000/svg" viewBox="0 0 360 360">
<path d="M80 270 L280 270 L280 304 L80 304 Z" fill="#9a9388" stroke="#2d263c" stroke-width="7" stroke-linejoin="round"/>
<path d="M70 236 L290 236 L290 270 L70 270 Z" fill="#a39c8f" stroke="#2d263c" stroke-width="7" stroke-linejoin="round"/>
<path d="M80 202 L280 202 L280 236 L80 236 Z" fill="#9a9388" stroke="#2d263c" stroke-width="7" stroke-linejoin="round"/>
<path d="M70 158 L290 158 L290 202 L70 202 Z" fill="#a39c8f" stroke="#2d263c" stroke-width="7" stroke-linejoin="round"/>
<ellipse cx="180" cy="180" rx="26" ry="22" fill="#fff" stroke="#2d263c" stroke-width="7"/>
<circle cx="180" cy="181" r="11" fill="#2d263c"/>
<circle cx="176" cy="177" r="4" fill="#fff"/>
<path d="M80 124 L280 124 L280 158 L80 158 Z" fill="#9a9388" stroke="#2d263c" stroke-width="7" stroke-linejoin="round"/>
<path d="M90 90 L270 90 L270 124 L90 124 Z" fill="#a39c8f" stroke="#2d263c" stroke-width="7" stroke-linejoin="round"/>
<path d="M110 56 L250 56 L250 90 L110 90 Z" fill="#9a9388" stroke="#2d263c" stroke-width="7" stroke-linejoin="round"/>
<line x1="180" y1="270" x2="180" y2="304" stroke="#2d263c" stroke-width="6"/>
<line x1="180" y1="236" x2="180" y2="270" stroke="#2d263c" stroke-width="6"/>
<line x1="180" y1="124" x2="180" y2="158" stroke="#2d263c" stroke-width="6"/>
<line x1="180" y1="90" x2="180" y2="124" stroke="#2d263c" stroke-width="6"/>
<circle cx="120" cy="290" r="4" fill="#2d263c"/>
<circle cx="240" cy="290" r="4" fill="#2d263c"/>
<circle cx="120" cy="220" r="4" fill="#2d263c"/>
<circle cx="240" cy="220" r="4" fill="#2d263c"/>
</svg>