<svg xmlns="http://www.w3.org/2000/svg" viewBox="0 0 360 360">
  <ellipse cx="180" cy="318" rx="70" ry="14" fill="#000000" opacity="0.12"/>

  <path d="M120 300 Q110 260 130 240 Q150 250 150 285 Q150 305 138 312 Z" fill="#8f8f6c" stroke="#2d263c" stroke-width="7" stroke-linejoin="round"/>
  <path d="M240 300 Q250 260 230 240 Q210 250 210 285 Q210 305 222 312 Z" fill="#8f8f6c" stroke="#2d263c" stroke-width="7" stroke-linejoin="round"/>

  <path d="M92 240 Q60 220 58 195 Q80 190 100 210 Q112 222 108 245 Z" fill="#b7b795" stroke="#2d263c" stroke-width="7" stroke-linejoin="round"/>
  <path d="M58 195 Q45 188 40 172" fill="none" stroke="#2d263c" stroke-width="7" stroke-linecap="round"/>
  <path d="M268 240 Q300 220 302 195 Q280 190 260 210 Q248 222 252 245 Z" fill="#b7b795" stroke="#2d263c" stroke-width="7" stroke-linejoin="round"/>
  <path d="M302 195 Q315 188 320 172" fill="none" stroke="#2d263c" stroke-width="7" stroke-linecap="round"/>

  <path d="M130 290 Q120 210 140 160 Q160 130 180 128 Q200 130 220 160 Q240 210 230 290 Q225 305 180 308 Q135 305 130 290 Z"
        fill="#c7c7a2" stroke="#2d263c" stroke-width="8" stroke-linejoin="round"/>

  <path d="M136 205 Q180 218 224 205" fill="none" stroke="#8f8f6c" stroke-width="6" stroke-linecap="round"/>
  <path d="M132 238 Q180 253 228 238" fill="none" stroke="#8f8f6c" stroke-width="6" stroke-linecap="round"/>
  <path d="M132 268 Q180 282 228 268" fill="none" stroke="#8f8f6c" stroke-width="6" stroke-linecap="round"/>

  <circle cx="180" cy="130" r="72" fill="#d7d7ae" stroke="#2d263c" stroke-width="8"/>

  <path d="M180 60 L170 30 L192 46 Z" fill="#c7c7a2" stroke="#2d263c" stroke-width="6" stroke-linejoin="round"/>

  <ellipse cx="150" cy="128" rx="27" ry="34" fill="#1c1c22" stroke="#2d263c" stroke-width="6"/>
  <ellipse cx="210" cy="128" rx="27" ry="34" fill="#1c1c22" stroke="#2d263c" stroke-width="6"/>
  <circle cx="141" cy="115" r="7" fill="#ffffff"/>
  <circle cx="201" cy="115" r="7" fill="#ffffff"/>

  <path d="M165 168 Q180 178 195 168" fill="none" stroke="#2d263c" stroke-width="6" stroke-linecap="round"/>
</svg>
