<svg xmlns="http://www.w3.org/2000/svg" viewBox="0 0 360 360">
  <!-- 尾羽(後ろ) -->
  <path d="M245 268 C280 268 290 290 274 305 C262 300 252 290 248 280 Z" fill="#4a3a3a" stroke="#2d263c" stroke-width="6" stroke-linejoin="round"/>

  <!-- 足 -->
  <path d="M150 314 L150 336 M142 336 L160 336 M168 314 L168 336 M160 336 L178 336" stroke="#6a5a4a" stroke-width="5" stroke-linecap="round"/>

  <!-- 翼(後ろ) -->
  <path d="M120 210 C80 215 70 260 96 280 C108 265 116 240 122 222 Z" fill="#4a3a3a" stroke="#2d263c" stroke-width="6" stroke-linejoin="round"/>
  <path d="M240 205 C280 210 290 250 268 272 C254 258 246 235 240 218 Z" fill="#4a3a3a" stroke="#2d263c" stroke-width="6" stroke-linejoin="round"/>

  <!-- 体 -->
  <ellipse cx="180" cy="240" rx="78" ry="74" fill="#4a3a3a" stroke="#2d263c" stroke-width="8"/>

  <!-- お腹(白) -->
  <ellipse cx="180" cy="258" rx="42" ry="52" fill="#f5f0e8" stroke="#2d263c" stroke-width="6"/>

  <!-- 頭 -->
  <circle cx="180" cy="140" r="66" fill="#4a3a3a" stroke="#2d263c" stroke-width="8"/>

  <!-- 赤い頭の帽子(特徴) -->
  <path d="M120 122 C120 88 150 70 180 70 C210 70 240 88 240 122 C240 132 220 140 180 140 C140 140 120 132 120 122 Z" fill="#d44a3a" stroke="#2d263c" stroke-width="6" stroke-linejoin="round"/>

  <!-- 目 -->
  <circle cx="156" cy="138" r="13" fill="#fff" stroke="#2d263c" stroke-width="5"/>
  <circle cx="204" cy="138" r="13" fill="#fff" stroke="#2d263c" stroke-width="5"/>
  <circle cx="158" cy="140" r="7" fill="#2d263c"/>
  <circle cx="202" cy="140" r="7" fill="#2d263c"/>

  <!-- くちばし(鋭い) -->
  <path d="M170 162 L218 170 L170 176 Z" fill="#8a7a5a" stroke="#2d263c" stroke-width="5" stroke-linejoin="round"/>
</svg>
