<svg xmlns="http://www.w3.org/2000/svg" viewBox="0 0 360 360">
  <!-- 後ろ足(左) -->
  <ellipse cx="118" cy="290" rx="38" ry="28" fill="#daeef7" stroke="#2d263c" stroke-width="7" stroke-linejoin="round"/>
  <!-- 後ろ足(右) -->
  <ellipse cx="242" cy="292" rx="38" ry="27" fill="#daeef7" stroke="#2d263c" stroke-width="7" stroke-linejoin="round"/>

  <!-- 前脚(左) -->
  <path d="M108 210 Q82 240 75 278 Q85 290 105 284 Q118 260 122 230" fill="#daeef7" stroke="#2d263c" stroke-width="7" stroke-linejoin="round" stroke-linecap="round"/>
  <!-- 前脚(右) -->
  <path d="M252 210 Q278 240 285 278 Q275 290 255 284 Q242 260 238 230" fill="#daeef7" stroke="#2d263c" stroke-width="7" stroke-linejoin="round" stroke-linecap="round"/>

  <!-- 胴体 -->
  <ellipse cx="180" cy="220" rx="90" ry="95" fill="#e4f2fa" stroke="#2d263c" stroke-width="8" stroke-linejoin="round"/>

  <!-- お腹の薄い部分 -->
  <ellipse cx="182" cy="238" rx="52" ry="58" fill="#f0f9ff" stroke="none"/>

  <!-- 耳(左) -->
  <path d="M118 102 Q102 62 120 48 Q138 58 142 92" fill="#daeef7" stroke="#2d263c" stroke-width="7" stroke-linejoin="round"/>
  <!-- 耳内側(左) -->
  <path d="M122 98 Q112 72 124 62 Q134 68 136 88" fill="#c8e8f5" stroke="none"/>

  <!-- 耳(右) -->
  <path d="M242 102 Q258 62 240 48 Q222 58 218 92" fill="#daeef7" stroke="#2d263c" stroke-width="7" stroke-linejoin="round"/>
  <!-- 耳内側(右) -->
  <path d="M238 98 Q248 72 236 62 Q226 68 224 88" fill="#c8e8f5" stroke="none"/>

  <!-- 頭 -->
  <ellipse cx="180" cy="140" rx="78" ry="72" fill="#e4f2fa" stroke="#2d263c" stroke-width="8" stroke-linejoin="round"/>

  <!-- 眉(左) つり上がり -->
  <path d="M130 108 Q148 96 162 104" fill="none" stroke="#2d263c" stroke-width="8" stroke-linecap="round"/>
  <!-- 眉(右) つり上がり -->
  <path d="M198 104 Q212 96 230 108" fill="none" stroke="#2d263c" stroke-width="8" stroke-linecap="round"/>

  <!-- 目(左) -->
  <ellipse cx="148" cy="126" rx="13" ry="14" fill="#1a1a2e" stroke="#2d263c" stroke-width="4"/>
  <ellipse cx="144" cy="122" rx="4" ry="4" fill="white"/>
  <!-- 目(右) -->
  <ellipse cx="212" cy="126" rx="13" ry="14" fill="#1a1a2e" stroke="#2d263c" stroke-width="4"/>
  <ellipse cx="208" cy="122" rx="4" ry="4" fill="white"/>

  <!-- 鼻(水色の氷っぽい) -->
  <path d="M165 152 Q180 144 195 152 Q188 168 180 170 Q172 168 165 152Z" fill="#7ec8e3" stroke="#2d263c" stroke-width="5" stroke-linejoin="round"/>

  <!-- 口 -->
  <path d="M168 172 Q180 182 192 172" fill="none" stroke="#2d263c" stroke-width="6" stroke-linecap="round"/>

  <!-- 氷のひげ(つらら)左側 3本 -->
  <path d="M158 176 Q152 196 155 218" fill="none" stroke="#a8dff0" stroke-width="6" stroke-linecap="round"/>
  <path d="M163 180 Q157 204 158 228" fill="none" stroke="#a8dff0" stroke-width="5" stroke-linecap="round"/>
  <path d="M153 173 Q142 190 144 212" fill="none" stroke="#a8dff0" stroke-width="5" stroke-linecap="round"/>

  <!-- 氷のひげ(つらら)右側 3本 -->
  <path d="M202 176 Q208 196 205 218" fill="none" stroke="#a8dff0" stroke-width="6" stroke-linecap="round"/>
  <path d="M197 180 Q203 204 202 228" fill="none" stroke="#a8dff0" stroke-width="5" stroke-linecap="round"/>
  <path d="M207 173 Q218 190 216 212" fill="none" stroke="#a8dff0" stroke-width="5" stroke-linecap="round"/>

  <!-- 爪(左前足) -->
  <path d="M76 281 Q70 295 78 302" fill="none" stroke="#2d263c" stroke-width="5" stroke-linecap="round"/>
  <path d="M87 286 Q83 302 91 308" fill="none" stroke="#2d263c" stroke-width="5" stroke-linecap="round"/>
  <path d="M98 288 Q96 305 104 310" fill="none" stroke="#2d263c" stroke-width="5" stroke-linecap="round"/>

  <!-- 爪(右前足) -->
  <path d="M284 281 Q290 295 282 302" fill="none" stroke="#2d263c" stroke-width="5" stroke-linecap="round"/>
  <path d="M273 286 Q277 302 269 308" fill="none" stroke="#2d263c" stroke-width="5" stroke-linecap="round"/>
  <path d="M262 288 Q264 305 256 310" fill="none" stroke="#2d263c" stroke-width="5" stroke-linecap="round"/>

  <!-- しっぽ -->
  <ellipse cx="260" cy="298" rx="20" ry="14" fill="#daeef7" stroke="#2d263c" stroke-width="6" stroke-linejoin="round"/>
</svg>