<svg xmlns="http://www.w3.org/2000/svg" viewBox="0 0 360 360">
  <path d="M215 265 C 270 260 305 215 300 165 C 297 125 270 90 232 68 C 258 100 268 138 262 172 C 256 210 228 238 198 250 Z" fill="#6cbf4a" stroke="#2d263c" stroke-width="7" stroke-linejoin="round" stroke-linecap="round"/>
  <path d="M223 240 C 250 222 262 190 258 160 C 255 138 244 118 232 104 C 240 128 244 152 238 176 C 232 200 214 220 198 232 Z" fill="#f2d24b" stroke="#2d263c" stroke-width="6" stroke-linejoin="round" stroke-linecap="round"/>
  <ellipse cx="150" cy="308" rx="28" ry="17" fill="#5da13d" stroke="#2d263c" stroke-width="7"/>
  <ellipse cx="212" cy="308" rx="28" ry="17" fill="#5da13d" stroke="#2d263c" stroke-width="7"/>
  <ellipse cx="180" cy="235" rx="72" ry="92" fill="#7ccb56" stroke="#2d263c" stroke-width="8" stroke-linejoin="round"/>
  <ellipse cx="112" cy="222" rx="24" ry="15" fill="#7ccb56" stroke="#2d263c" stroke-width="7"/>
  <ellipse cx="248" cy="222" rx="24" ry="15" fill="#7ccb56" stroke="#2d263c" stroke-width="7"/>
  <path d="M180 156 C 158 178 152 260 180 306 C 208 260 202 178 180 156 Z" fill="#fdf0a8" stroke="#2d263c" stroke-width="6" stroke-linejoin="round"/>
  <path d="M180 156 C 168 168 163 200 168 232 C 172 200 176 178 180 156 Z" fill="#f2d24b"/>
  <path d="M180 156 C 192 168 197 200 192 232 C 188 200 184 178 180 156 Z" fill="#f2d24b"/>
  <path d="M128 150 C 150 132 210 132 232 150 C 214 168 146 168 128 150 Z" fill="#5da13d" stroke="#2d263c" stroke-width="6" stroke-linejoin="round"/>
  <circle cx="180" cy="108" r="66" fill="#7ccb56" stroke="#2d263c" stroke-width="8"/>
  <ellipse cx="195" cy="128" rx="26" ry="18" fill="#6cbf4a" stroke="#2d263c" stroke-width="5"/>
  <circle cx="152" cy="98" r="20" fill="#ffffff" stroke="#2d263c" stroke-width="6"/>
  <circle cx="208" cy="98" r="20" fill="#ffffff" stroke="#2d263c" stroke-width="6"/>
  <circle cx="156" cy="101" r="9" fill="#2d263c"/>
  <circle cx="212" cy="101" r="9" fill="#2d263c"/>
  <circle cx="160" cy="97" r="3" fill="#ffffff"/>
  <circle cx="216" cy="97" r="3" fill="#ffffff"/>
  <circle cx="188" cy="126" r="2.5" fill="#2d263c"/>
  <circle cx="202" cy="126" r="2.5" fill="#2d263c"/>
  <path d="M182 138 C 188 142 196 142 202 138" fill="none" stroke="#2d263c" stroke-width="5" stroke-linecap="round"/>
  <circle cx="142" cy="118" r="8" fill="#ffb0a0" opacity="0.6"/>
  <circle cx="222" cy="118" r="8" fill="#ffb0a0" opacity="0.6"/>
</svg>
