<svg xmlns="http://www.w3.org/2000/svg" viewBox="0 0 360 360">
  <ellipse cx="180" cy="332" rx="60" ry="9" fill="#2d263c" opacity="0.15"/>
  <ellipse cx="163" cy="306" rx="14" ry="26" fill="#e87838" stroke="#2d263c" stroke-width="8"/>
  <ellipse cx="203" cy="306" rx="14" ry="26" fill="#e87838" stroke="#2d263c" stroke-width="8"/>
  <path d="M250,252 Q304,202 286,150 Q270,118 248,140 Q244,182 232,214 Z" fill="#e87838" stroke="#2d263c" stroke-width="8" stroke-linejoin="round"/>
  <path d="M250,108 L258,200" stroke="#2d263c" stroke-width="18" stroke-linecap="round"/>
  <path d="M250,112 L257,196" stroke="#cda878" stroke-width="11" stroke-linecap="round"/>
  <path d="M254,98 Q264,82 256,74 Q270,80 274,66 Q266,78 258,70 Q256,84 244,80 Q250,92 240,94 Z" fill="#ffd24a" stroke="#2d263c" stroke-width="5" stroke-linejoin="round"/>
  <path d="M138,178 Q138,300 180,300 Q222,300 222,178 Z" fill="#e87838" stroke="#2d263c" stroke-width="9" stroke-linejoin="round"/>
  <ellipse cx="180" cy="188" rx="60" ry="36" fill="#f5e8d0" stroke="#2d263c" stroke-width="8"/>
  <ellipse cx="180" cy="250" rx="26" ry="42" fill="#f5e8d0" opacity="0.85"/>
  <ellipse cx="128" cy="228" rx="16" ry="34" fill="#e87838" stroke="#2d263c" stroke-width="8"/>
  <ellipse cx="232" cy="228" rx="16" ry="34" fill="#e87838" stroke="#2d263c" stroke-width="8"/>
  <ellipse cx="180" cy="122" rx="58" ry="54" fill="#e87838" stroke="#2d263c" stroke-width="9"/>
  <path d="M136,82 L116,28 L162,74 Z" fill="#e87838" stroke="#2d263c" stroke-width="7" stroke-linejoin="round"/>
  <path d="M224,82 L244,28 L198,74 Z" fill="#e87838" stroke="#2d263c" stroke-width="7" stroke-linejoin="round"/>
  <path d="M136,70 L126,42 L152,68 Z" fill="#ffd24a"/>
  <path d="M224,70 L234,42 L208,68 Z" fill="#ffd24a"/>
  <ellipse cx="180" cy="138" rx="34" ry="28" fill="#f5e8d0" stroke="#2d263c" stroke-width="6"/>
  <ellipse cx="160" cy="116" rx="10" ry="14" fill="#2d263c"/>
  <ellipse cx="200" cy="116" rx="10" ry="14" fill="#2d263c"/>
  <circle cx="163" cy="111" r="3.5" fill="#ffffff"/>
  <circle cx="203" cy="111" r="3.5" fill="#ffffff"/>
  <ellipse cx="180" cy="140" rx="5" ry="4" fill="#2d263c"/>
  <path d="M180,146 L180,154 M170,156 Q180,164 190,156" fill="none" stroke="#2d263c" stroke-width="5" stroke-linecap="round"/>
</svg>
