<svg xmlns="http://www.w3.org/2000/svg" viewBox="0 0 360 360">
  <ellipse cx="260" cy="230" rx="55" ry="65" fill="#ff5a3c" stroke="#2d263c" stroke-width="8" stroke-linejoin="round"/>
  <path d="M235 190 Q260 163 288 192" fill="none" stroke="#2d263c" stroke-width="7" stroke-linecap="round"/>
  <ellipse cx="140" cy="318" rx="30" ry="16" fill="#8fd8f0" stroke="#2d263c" stroke-width="7" stroke-linejoin="round"/>
  <ellipse cx="220" cy="318" rx="30" ry="16" fill="#8fd8f0" stroke="#2d263c" stroke-width="7" stroke-linejoin="round"/>
  <path d="M180 90 C230 90 268 140 265 200 C262 270 225 320 180 320 C135 320 98 270 95 200 C92 140 130 90 180 90 Z" fill="#fefefe" stroke="#2d263c" stroke-width="8" stroke-linejoin="round"/>
  <polygon points="95,210 60,190 65,240 90,250" fill="#7fd6f5" stroke="#2d263c" stroke-width="7" stroke-linejoin="round"/>
  <polygon points="265,210 300,190 295,240 270,250" fill="#7fd6f5" stroke="#2d263c" stroke-width="7" stroke-linejoin="round"/>
  <path d="M180 230 L205 262 L180 300 L155 262 Z" fill="#ff5a3c" stroke="#2d263c" stroke-width="6" stroke-linejoin="round"/>
  <polygon points="180,50 163,95 197,95" fill="#5cc4ea" stroke="#2d263c" stroke-width="7" stroke-linejoin="round"/>
  <polygon points="138,65 128,105 160,100" fill="#5cc4ea" stroke="#2d263c" stroke-width="7" stroke-linejoin="round"/>
  <polygon points="222,65 232,105 200,100" fill="#5cc4ea" stroke="#2d263c" stroke-width="7" stroke-linejoin="round"/>
  <ellipse cx="150" cy="175" rx="20" ry="24" fill="#2d263c"/>
  <ellipse cx="210" cy="175" rx="20" ry="24" fill="#2d263c"/>
  <circle cx="156" cy="166" r="6" fill="#fff"/>
  <circle cx="216" cy="166" r="6" fill="#fff"/>
  <path d="M165 205 Q180 216 195 205" fill="none" stroke="#2d263c" stroke-width="6" stroke-linecap="round"/>
</svg>
