<svg xmlns="http://www.w3.org/2000/svg" viewBox="0 0 360 360">
<g stroke="#2d263c" stroke-width="7" stroke-linejoin="round" stroke-linecap="round">
<polygon points="25,195 60,165 50,225" fill="#5c6670"/>
<rect x="95" y="215" width="26" height="95" rx="13" fill="#6b7885"/>
<rect x="130" y="220" width="24" height="90" rx="12" fill="#6b7885"/>
<rect x="215" y="210" width="26" height="100" rx="13" fill="#6b7885"/>
<rect x="248" y="215" width="24" height="95" rx="12" fill="#6b7885"/>
<ellipse cx="108" cy="312" rx="15" ry="9" fill="#3d4750"/>
<ellipse cx="142" cy="312" rx="14" ry="8" fill="#3d4750"/>
<ellipse cx="228" cy="312" rx="15" ry="9" fill="#3d4750"/>
<ellipse cx="260" cy="312" rx="14" ry="8" fill="#3d4750"/>
<ellipse cx="180" cy="180" rx="95" ry="65" fill="#8b98a6"/>
<polygon points="230,125 275,110 268,160 225,155" fill="#5c6670"/>
<polygon points="140,120 175,108 168,150 135,145" fill="#5c6670"/>
<polygon points="215,170 255,160 250,230 210,235" fill="#e6d9b8"/>
<polygon points="215,110 230,80 240,120" fill="#a9b4bf"/>
<polygon points="235,105 250,75 258,115" fill="#a9b4bf"/>
<ellipse cx="275" cy="135" rx="50" ry="45" fill="#8b98a6"/>
<polygon points="278,100 268,42 295,95" fill="#e6d9b8"/>
<polygon points="248,100 240,70 260,105" fill="#5c6670"/>
<polygon points="288,98 300,68 305,105" fill="#5c6670"/>
<ellipse cx="310" cy="155" rx="22" ry="18" fill="#5c6670"/>
<polygon points="290,170 280,205 305,200 310,175" fill="#e6d9b8"/>
<ellipse cx="288" cy="120" rx="13" ry="11" fill="#3fa9a0"/>
<circle cx="291" cy="120" r="5" fill="#1a1a1a"/>
</g>
</svg>
