<svg xmlns="http://www.w3.org/2000/svg" viewBox="0 0 360 360">
  <!-- 後ろ: 4枚の透けた羽 -->
  <ellipse cx="95" cy="130" rx="55" ry="24" fill="#bfe9ff" fill-opacity="0.55" stroke="#2d263c" stroke-width="6" stroke-linejoin="round" transform="rotate(-25 95 130)"/>
  <ellipse cx="265" cy="130" rx="55" ry="24" fill="#bfe9ff" fill-opacity="0.55" stroke="#2d263c" stroke-width="6" stroke-linejoin="round" transform="rotate(25 265 130)"/>
  <ellipse cx="100" cy="205" rx="46" ry="19" fill="#bfe9ff" fill-opacity="0.55" stroke="#2d263c" stroke-width="6" stroke-linejoin="round" transform="rotate(-15 100 205)"/>
  <ellipse cx="260" cy="205" rx="46" ry="19" fill="#bfe9ff" fill-opacity="0.55" stroke="#2d263c" stroke-width="6" stroke-linejoin="round" transform="rotate(15 260 205)"/>

  <!-- しっぽ -->
  <path d="M180 250 L170 320 L192 320 Z" fill="#3a6bd6" stroke="#2d263c" stroke-width="7" stroke-linejoin="round"/>

  <!-- 足 -->
  <ellipse cx="150" cy="298" rx="16" ry="10" fill="#e8482c" stroke="#2d263c" stroke-width="6"/>
  <ellipse cx="210" cy="298" rx="16" ry="10" fill="#e8482c" stroke="#2d263c" stroke-width="6"/>
  <rect x="140" y="255" width="18" height="45" rx="9" fill="#3a6bd6" stroke="#2d263c" stroke-width="6"/>
  <rect x="202" y="255" width="18" height="45" rx="9" fill="#3a6bd6" stroke="#2d263c" stroke-width="6"/>

  <!-- 腕(細い) -->
  <path d="M120 190 Q90 210 85 245" fill="none" stroke="#2d263c" stroke-width="8" stroke-linecap="round"/>
  <path d="M240 190 Q270 210 275 245" fill="none" stroke="#2d263c" stroke-width="8" stroke-linecap="round"/>
  <circle cx="83" cy="248" r="10" fill="#3a6bd6" stroke="#2d263c" stroke-width="6"/>
  <circle cx="277" cy="248" r="10" fill="#3a6bd6" stroke="#2d263c" stroke-width="6"/>

  <!-- 胴体 -->
  <ellipse cx="180" cy="215" rx="62" ry="55" fill="#3a6bd6" stroke="#2d263c" stroke-width="7" stroke-linejoin="round"/>
  <!-- おなか(黄色みの明るい部分) -->
  <ellipse cx="180" cy="228" rx="34" ry="34" fill="#f4c542" stroke="#2d263c" stroke-width="6"/>

  <!-- 頭(とがった三角シルエット・忍者っぽい) -->
  <path d="M180 70 L230 165 Q230 195 180 200 Q130 195 130 165 Z" fill="#3a6bd6" stroke="#2d263c" stroke-width="8" stroke-linejoin="round"/>
  <!-- 顔まわりの黄色 -->
  <path d="M180 120 L212 172 Q212 188 180 192 Q148 188 148 172 Z" fill="#f4c542" stroke="#2d263c" stroke-width="6" stroke-linejoin="round"/>

  <!-- 頭頂の突起(手裏剣っぽい耳) -->
  <path d="M180 70 L160 40 L185 68 Z" fill="#3a6bd6" stroke="#2d263c" stroke-width="7" stroke-linejoin="round"/>
  <path d="M180 70 L200 40 L175 68 Z" fill="#3a6bd6" stroke="#2d263c" stroke-width="7" stroke-linejoin="round"/>

  <!-- 目(するどい赤目) -->
  <path d="M152 155 Q163 145 174 155 Q163 162 152 155Z" fill="#e8482c" stroke="#2d263c" stroke-width="5" stroke-linejoin="round"/>
  <path d="M208 155 Q197 145 186 155 Q197 162 208 155Z" fill="#e8482c" stroke="#2d263c" stroke-width="5" stroke-linejoin="round"/>

  <!-- 口もと小さな線 -->
  <path d="M172 178 Q180 182 188 178" fill="none" stroke="#2d263c" stroke-width="5" stroke-linecap="round"/>
</svg>
