<svg xmlns="http://www.w3.org/2000/svg" viewBox="0 0 360 360">
<ellipse cx="180" cy="255" rx="88" ry="62" fill="#8fe0a8" stroke="#2d263c" stroke-width="8" stroke-linejoin="round"/>
<path d="M180 200 L220 228 L212 268 L180 288 L148 268 L140 228 Z" fill="#c9f7d9" stroke="#2d263c" stroke-width="7" stroke-linejoin="round"/>
<path d="M180 200 L220 228 L212 268 L180 288 L148 268 L140 228 Z" fill="none" stroke="#5fd48a" stroke-width="4" stroke-linejoin="round" opacity="0.6"/>
<line x1="180" y1="200" x2="180" y2="288" stroke="#2d263c" stroke-width="4"/>
<line x1="140" y1="228" x2="220" y2="228" stroke="#2d263c" stroke-width="4"/>
<line x1="148" y1="268" x2="212" y2="268" stroke="#2d263c" stroke-width="4"/>
<ellipse cx="112" cy="300" rx="20" ry="14" fill="#8fe0a8" stroke="#2d263c" stroke-width="6" stroke-linejoin="round"/>
<ellipse cx="248" cy="300" rx="20" ry="14" fill="#8fe0a8" stroke="#2d263c" stroke-width="6" stroke-linejoin="round"/>
<ellipse cx="128" cy="308" rx="15" ry="10" fill="#8fe0a8" stroke="#2d263c" stroke-width="6" stroke-linejoin="round"/>
<ellipse cx="232" cy="308" rx="15" ry="10" fill="#8fe0a8" stroke="#2d263c" stroke-width="6" stroke-linejoin="round"/>
<path d="M148 180 Q180 150 212 180 L206 215 Q180 232 154 215 Z" fill="#c9f7d9" stroke="#2d263c" stroke-width="7" stroke-linejoin="round"/>
<polygon points="180,120 168,150 192,150" fill="#5fd48a" stroke="#2d263c" stroke-width="6" stroke-linejoin="round"/>
<circle cx="163" cy="192" r="12" fill="#2d263c"/>
<circle cx="167" cy="188" r="4" fill="#ffffff"/>
<circle cx="197" cy="192" r="12" fill="#2d263c"/>
<circle cx="201" cy="188" r="4" fill="#ffffff"/>
<path d="M172 210 Q180 216 188 210" fill="none" stroke="#2d263c" stroke-width="5" stroke-linecap="round"/>
</svg>
