<svg xmlns="http://www.w3.org/2000/svg" viewBox="0 0 360 360">
<path d="M90 300 L120 220 L240 220 L270 300 Z" fill="#4a8a6a" stroke="#2d263c" stroke-width="7" stroke-linejoin="round"/>
<path d="M90 300 L78 278 L120 220 Z" fill="#3a6a52" stroke="#2d263c" stroke-width="6" stroke-linejoin="round"/>
<path d="M270 300 L282 278 L240 220 Z" fill="#3a6a52" stroke="#2d263c" stroke-width="6" stroke-linejoin="round"/>
<path d="M140 220 L150 120 L210 120 L220 220 Z" fill="#e8e8e0" stroke="#2d263c" stroke-width="7" stroke-linejoin="round"/>
<path d="M140 180 L220 180" fill="none" stroke="#2d263c" stroke-width="5"/>
<path d="M145 150 L215 150" fill="none" stroke="#2d263c" stroke-width="5"/>
<ellipse cx="180" cy="100" rx="32" ry="26" fill="#e8e8e0" stroke="#2d263c" stroke-width="7"/>
<polygon points="180,56 192,86 168,86" fill="#c0a060" stroke="#2d263c" stroke-width="5" stroke-linejoin="round"/>
<ellipse cx="170" cy="101" rx="5" ry="7" fill="#2d263c"/>
<ellipse cx="190" cy="101" rx="5" ry="7" fill="#2d263c"/>
<path d="M145 128 Q119 180 114 242 L128 244 Q133 184 159 132 Z" fill="#4a8a6a" stroke="#2d263c" stroke-width="6" stroke-linejoin="round"/>
<path d="M215 128 Q241 180 246 242 L232 244 Q227 184 201 132 Z" fill="#4a8a6a" stroke="#2d263c" stroke-width="6" stroke-linejoin="round"/>
<rect x="140" y="206" width="80" height="14" fill="#c0a060" stroke="#2d263c" stroke-width="5"/>
</svg>