<svg xmlns="http://www.w3.org/2000/svg" viewBox="0 0 360 360">
  <path d="M140,68 Q95,45 68,18 Q92,58 128,92 Z" fill="#e6432b" stroke="#2d263c" stroke-width="7" stroke-linejoin="round"/>
  <path d="M220,68 Q265,45 292,18 Q268,58 232,92 Z" fill="#e6432b" stroke="#2d263c" stroke-width="7" stroke-linejoin="round"/>
  <path d="M168,52 L180,14 L192,52 Z" fill="#e6432b" stroke="#2d263c" stroke-width="6" stroke-linejoin="round"/>
  <path d="M120,90 Q108,78 112,62 Q128,72 132,92 Z" fill="#ece7da" stroke="#2d263c" stroke-width="6" stroke-linejoin="round"/>
  <path d="M240,90 Q252,78 248,62 Q232,72 228,92 Z" fill="#ece7da" stroke="#2d263c" stroke-width="6" stroke-linejoin="round"/>
  <ellipse cx="180" cy="102" rx="50" ry="46" fill="#ece7da" stroke="#2d263c" stroke-width="8"/>
  <rect x="143" y="90" width="74" height="24" rx="11" fill="#1e1e1e" stroke="#2d263c" stroke-width="7" stroke-linejoin="round"/>
  <polygon points="152,96 172,100 154,112" fill="#e6432b" stroke="#2d263c" stroke-width="4" stroke-linejoin="round"/>
  <polygon points="208,96 188,100 206,112" fill="#e6432b" stroke="#2d263c" stroke-width="4" stroke-linejoin="round"/>
  <rect x="160" y="140" width="40" height="26" fill="#ece7da" stroke="#2d263c" stroke-width="7" stroke-linejoin="round"/>
  <path d="M138,152 L222,152 L232,235 L128,235 Z" fill="#ece7da" stroke="#2d263c" stroke-width="8" stroke-linejoin="round"/>
  <line x1="180" y1="160" x2="180" y2="228" stroke="#2d263c" stroke-width="4"/>
  <polygon points="180,178 197,196 180,214 163,196" fill="#e6432b" stroke="#2d263c" stroke-width="6" stroke-linejoin="round"/>
  <path d="M146,168 L58,258 L84,270 L164,192 Z" fill="#ece7da" stroke="#2d263c" stroke-width="8" stroke-linejoin="round"/>
  <path d="M58,258 L84,270 L70,282 L48,266 Z" fill="#1e1e1e" stroke="#2d263c" stroke-width="7" stroke-linejoin="round"/>
  <path d="M214,168 L302,258 L276,270 L196,192 Z" fill="#ece7da" stroke="#2d263c" stroke-width="8" stroke-linejoin="round"/>
  <path d="M302,258 L276,270 L290,282 L312,266 Z" fill="#1e1e1e" stroke="#2d263c" stroke-width="7" stroke-linejoin="round"/>
  <path d="M136,235 L224,235 L248,292 Q232,322 212,300 L180,336 L148,300 Q128,322 112,292 Z" fill="#1e1e1e" stroke="#2d263c" stroke-width="8" stroke-linejoin="round"/>
  <path d="M150,250 Q180,262 210,250" fill="none" stroke="#e6432b" stroke-width="6" stroke-linecap="round"/>
</svg>
