<svg xmlns="http://www.w3.org/2000/svg" viewBox="0 0 360 360">
<ellipse cx="180" cy="290" rx="18" ry="10" fill="#2d263c" opacity="0.15"/>
<rect x="120" y="230" width="16" height="55" rx="8" fill="#5b6478" stroke="#2d263c" stroke-width="7" stroke-linejoin="round" stroke-linecap="round"/>
<rect x="160" y="240" width="16" height="50" rx="8" fill="#5b6478" stroke="#2d263c" stroke-width="7" stroke-linejoin="round" stroke-linecap="round"/>
<rect x="195" y="240" width="16" height="50" rx="8" fill="#5b6478" stroke="#2d263c" stroke-width="7" stroke-linejoin="round" stroke-linecap="round"/>
<rect x="230" y="230" width="16" height="55" rx="8" fill="#5b6478" stroke="#2d263c" stroke-width="7" stroke-linejoin="round" stroke-linecap="round"/>
<path d="M110 220 Q100 175 150 165 L230 165 Q280 175 260 225 Q230 245 180 245 Q125 245 110 220 Z" fill="#454e63" stroke="#2d263c" stroke-width="8" stroke-linejoin="round"/>
<path d="M95 200 Q80 210 90 225 Q100 235 110 220 Z" fill="#454e63" stroke="#2d263c" stroke-width="7" stroke-linejoin="round"/>
<polygon points="100,140 150,95 180,150 130,175" fill="#f2f0ea" stroke="#2d263c" stroke-width="7" stroke-linejoin="round"/>
<polygon points="150,95 205,80 210,150 180,150" fill="#e3dfd4" stroke="#2d263c" stroke-width="7" stroke-linejoin="round"/>
<polygon points="205,80 250,110 235,160 210,150" fill="#f2f0ea" stroke="#2d263c" stroke-width="7" stroke-linejoin="round"/>
<polygon points="130,175 180,150 210,150 235,160 220,195 145,195" fill="#cfcabd" stroke="#2d263c" stroke-width="7" stroke-linejoin="round"/>
<polygon points="150,95 165,60 190,90 205,80" fill="#f2f0ea" stroke="#2d263c" stroke-width="6" stroke-linejoin="round"/>
<circle cx="118" cy="185" r="11" fill="#e0453c" stroke="#2d263c" stroke-width="6"/>
<circle cx="121" cy="182" r="3" fill="#fff"/>
<path d="M245 235 Q270 245 262 265 Q252 280 240 268" fill="none" stroke="#2d263c" stroke-width="7" stroke-linecap="round"/>
<line x1="160" y1="150" x2="160" y2="125" stroke="#2d263c" stroke-width="4" stroke-linecap="round" opacity="0.5"/>
<line x1="195" y1="140" x2="200" y2="110" stroke="#2d263c" stroke-width="4" stroke-linecap="round" opacity="0.5"/>
</svg>
