<svg xmlns="http://www.w3.org/2000/svg" viewBox="0 0 360 360">
  <!-- 後ろ翅(左右・黒地) -->
  <path d="M178 205 C120 175 55 110 38 55 C35 45 48 42 56 50 C82 74 115 132 150 172 Z" fill="#4a4560" stroke="#2d263c" stroke-width="7" stroke-linejoin="round" stroke-linecap="round"/>
  <path d="M182 205 C240 175 305 110 322 55 C325 45 312 42 304 50 C278 74 245 132 210 172 Z" fill="#4a4560" stroke="#2d263c" stroke-width="7" stroke-linejoin="round" stroke-linecap="round"/>
  <!-- 後ろ翅のドット模様(黄) -->
  <rect x="78" y="95" width="16" height="16" fill="#f7d22d" stroke="#2d263c" stroke-width="3"/>
  <rect x="108" y="130" width="14" height="14" fill="#f7d22d" stroke="#2d263c" stroke-width="3"/>
  <rect x="266" y="95" width="16" height="16" fill="#f7d22d" stroke="#2d263c" stroke-width="3"/>
  <rect x="238" y="130" width="14" height="14" fill="#f7d22d" stroke="#2d263c" stroke-width="3"/>

  <!-- 前翅(左右・黄橙・大きく広げる) -->
  <path d="M175 225 C130 215 70 195 48 155 C43 145 55 140 63 148 C90 175 135 205 168 218 Z" fill="#f7941d" stroke="#2d263c" stroke-width="7" stroke-linejoin="round" stroke-linecap="round"/>
  <path d="M185 225 C230 215 290 195 312 155 C317 145 305 140 297 148 C270 175 225 205 192 218 Z" fill="#f7941d" stroke="#2d263c" stroke-width="7" stroke-linejoin="round" stroke-linecap="round"/>
  <!-- 前翅の先端の黒模様 -->
  <path d="M55 158 C50 150 55 143 63 146 C72 150 66 160 58 162 Z" fill="#2d263c"/>
  <path d="M305 158 C310 150 305 143 297 146 C288 150 294 160 302 162 Z" fill="#2d263c"/>

  <!-- 胴体 -->
  <ellipse cx="180" cy="238" rx="38" ry="50" fill="#f5f0e0" stroke="#2d263c" stroke-width="8"/>
  <!-- 胸の節模様 -->
  <path d="M155 232 C162 227 198 227 205 232 C198 237 162 237 155 232 Z" fill="#4a4560" stroke="none"/>
  <path d="M158 250 C165 245 195 245 202 250 C195 255 165 255 158 250 Z" fill="#4a4560" stroke="none"/>

  <!-- 頭部モフモフ -->
  <ellipse cx="180" cy="175" rx="34" ry="30" fill="#f5f0e0" stroke="#2d263c" stroke-width="8"/>
  <path d="M158 166 C152 152 150 138 155 128 C158 137 160 152 161 166 Z" fill="#f5f0e0" stroke="#2d263c" stroke-width="5"/>
  <path d="M202 166 C208 152 210 138 205 128 C202 137 200 152 199 166 Z" fill="#f5f0e0" stroke="#2d263c" stroke-width="5"/>

  <!-- 触角(灰色ロボ風) -->
  <path d="M167 150 C160 132 152 112 148 95 C153 98 160 108 163 122 C166 132 167 144 167 150 Z" fill="#8b8b9a" stroke="#2d263c" stroke-width="4"/>
  <ellipse cx="147" cy="90" rx="7" ry="7" fill="#f7d22d" stroke="#2d263c" stroke-width="4"/>
  <path d="M193 150 C200 132 208 112 212 95 C207 98 200 108 197 122 C194 132 193 144 193 150 Z" fill="#8b8b9a" stroke="#2d263c" stroke-width="4"/>
  <ellipse cx="213" cy="90" rx="7" ry="7" fill="#f7d22d" stroke="#2d263c" stroke-width="4"/>

  <!-- 複眼(赤・大きめ) -->
  <ellipse cx="162" cy="178" rx="17" ry="15" fill="#c0392b" stroke="#2d263c" stroke-width="6"/>
  <ellipse cx="159" cy="175" rx="6" ry="5" fill="#7b0f0f"/>
  <ellipse cx="157" cy="172" rx="2.5" ry="2" fill="#fff"/>
  <ellipse cx="198" cy="178" rx="17" ry="15" fill="#c0392b" stroke="#2d263c" stroke-width="6"/>
  <ellipse cx="201" cy="175" rx="6" ry="5" fill="#7b0f0f"/>
  <ellipse cx="203" cy="172" rx="2.5" ry="2" fill="#fff"/>

  <!-- 口 -->
  <path d="M174 192 C178 196 182 196 186 192" fill="none" stroke="#2d263c" stroke-width="4" stroke-linecap="round"/>

  <!-- 脚(黒・関節ロボ風・左右3対) -->
  <path d="M150 262 L120 278 L100 305" fill="none" stroke="#2d263c" stroke-width="8" stroke-linecap="round" stroke-linejoin="round"/>
  <path d="M155 278 L128 298 L112 322" fill="none" stroke="#2d263c" stroke-width="8" stroke-linecap="round" stroke-linejoin="round"/>
  <path d="M165 288 L148 312 L138 332" fill="none" stroke="#2d263c" stroke-width="8" stroke-linecap="round" stroke-linejoin="round"/>
  <path d="M210 262 L240 278 L260 305" fill="none" stroke="#2d263c" stroke-width="8" stroke-linecap="round" stroke-linejoin="round"/>
  <path d="M205 278 L232 298 L248 322" fill="none" stroke="#2d263c" stroke-width="8" stroke-linecap="round" stroke-linejoin="round"/>
  <path d="M195 288 L212 312 L222 332" fill="none" stroke="#2d263c" stroke-width="8" stroke-linecap="round" stroke-linejoin="round"/>
</svg>
