<svg xmlns="http://www.w3.org/2000/svg" viewBox="0 0 360 360">
  <!-- 耳/アンテナ -->
  <path d="M158 58 Q150 30 168 24 Q172 42 168 62 Z" fill="#f4f1ea" stroke="#2d263c" stroke-width="7" stroke-linejoin="round"/>
  <path d="M202 58 Q210 30 192 24 Q188 42 192 62 Z" fill="#f4f1ea" stroke="#2d263c" stroke-width="7" stroke-linejoin="round"/>

  <!-- 体（丸っこいシルエット） -->
  <path d="M180 66
           C 232 66 262 108 258 158
           C 256 190 268 214 260 246
           C 250 288 214 306 180 306
           C 146 306 110 288 100 246
           C 92 214 104 190 102 158
           C 98 108 128 66 180 66 Z"
        fill="#bfe4ee" stroke="#2d263c" stroke-width="8" stroke-linejoin="round"/>

  <!-- 頭の青い帽子模様 -->
  <path d="M126 92 Q180 54 234 92 Q234 128 180 142 Q126 128 126 92 Z"
        fill="#3f5fb0" stroke="#2d263c" stroke-width="7" stroke-linejoin="round"/>

  <!-- 顔まわりの白 -->
  <ellipse cx="180" cy="150" rx="58" ry="46" fill="#f4f1ea" stroke="#2d263c" stroke-width="7"/>

  <!-- 目 -->
  <ellipse cx="156" cy="148" rx="10" ry="13" fill="#2d263c"/>
  <ellipse cx="204" cy="148" rx="10" ry="13" fill="#2d263c"/>
  <circle cx="159" cy="144" r="2.6" fill="#fff"/>
  <circle cx="207" cy="144" r="2.6" fill="#fff"/>

  <!-- ほっぺ -->
  <ellipse cx="140" cy="168" rx="8" ry="6" fill="#f4a6b0" opacity="0.8"/>
  <ellipse cx="220" cy="168" rx="8" ry="6" fill="#f4a6b0" opacity="0.8"/>

  <!-- 口 -->
  <path d="M170 176 Q180 184 190 176" fill="none" stroke="#2d263c" stroke-width="6" stroke-linecap="round"/>

  <!-- 左手（大きい赤いこぶし） -->
  <ellipse cx="88" cy="210" rx="38" ry="34" fill="#d94b3f" stroke="#2d263c" stroke-width="8"/>
  <path d="M84 190 L84 230 M100 188 L100 232" stroke="#2d263c" stroke-width="5" stroke-linecap="round"/>

  <!-- 右手（大きい赤いこぶし） -->
  <ellipse cx="272" cy="210" rx="38" ry="34" fill="#d94b3f" stroke="#2d263c" stroke-width="8"/>
  <path d="M260 188 L260 232 M276 190 L276 230" stroke="#2d263c" stroke-width="5" stroke-linecap="round"/>

  <!-- 胴のライン模様 -->
  <path d="M120 226 Q180 246 240 226" fill="none" stroke="#3f5fb0" stroke-width="7" stroke-linecap="round"/>

  <!-- 足 -->
  <ellipse cx="150" cy="300" rx="26" ry="16" fill="#3f5fb0" stroke="#2d263c" stroke-width="7"/>
  <ellipse cx="210" cy="300" rx="26" ry="16" fill="#3f5fb0" stroke="#2d263c" stroke-width="7"/>
</svg>
