<svg xmlns="http://www.w3.org/2000/svg" viewBox="0 0 360 360">
  <path d="M132,165 C95,175 68,205 62,240 C57,268 78,288 105,278 C122,271 120,232 132,200 Z" fill="#1e1e1e" stroke="#2d263c" stroke-width="7" stroke-linejoin="round"/>
  <path d="M228,165 C265,175 292,205 298,240 C303,268 282,288 255,278 C238,271 240,232 228,200 Z" fill="#1e1e1e" stroke="#2d263c" stroke-width="7" stroke-linejoin="round"/>
  <circle cx="72" cy="255" r="40" fill="#1e1e1e" stroke="#2d263c" stroke-width="7"/>
  <circle cx="288" cy="255" r="40" fill="#1e1e1e" stroke="#2d263c" stroke-width="7"/>
  <circle cx="72" cy="255" r="13" fill="#f6d43c" stroke="#2d263c" stroke-width="6"/>
  <circle cx="288" cy="255" r="13" fill="#f6d43c" stroke="#2d263c" stroke-width="6"/>
  <rect x="150" y="268" width="30" height="52" rx="13" fill="#1e1e1e" stroke="#2d263c" stroke-width="7"/>
  <rect x="180" y="268" width="30" height="52" rx="13" fill="#1e1e1e" stroke="#2d263c" stroke-width="7"/>
  <ellipse cx="165" cy="323" rx="26" ry="13" fill="#1e1e1e" stroke="#2d263c" stroke-width="7"/>
  <ellipse cx="195" cy="323" rx="26" ry="13" fill="#1e1e1e" stroke="#2d263c" stroke-width="7"/>
  <rect x="110" y="150" width="140" height="140" rx="45" fill="#ece7da" stroke="#2d263c" stroke-width="8" stroke-linejoin="round"/>
  <rect x="140" y="228" width="80" height="62" rx="22" fill="#1e1e1e" stroke="#2d263c" stroke-width="7" stroke-linejoin="round"/>
  <rect x="150" y="168" width="60" height="52" rx="16" fill="#f6d43c" stroke="#2d263c" stroke-width="7" stroke-linejoin="round"/>
  <circle cx="180" cy="196" r="11" fill="#2d263c"/>
  <path d="M160,60 Q180,42 200,60 L192,72 Q180,64 168,72 Z" fill="#f6d43c" stroke="#2d263c" stroke-width="6" stroke-linejoin="round"/>
  <circle cx="180" cy="112" r="52" fill="#ece7da" stroke="#2d263c" stroke-width="8"/>
  <polygon points="128,100 103,84 118,122" fill="#f6d43c" stroke="#2d263c" stroke-width="6" stroke-linejoin="round"/>
  <polygon points="232,100 257,84 242,122" fill="#f6d43c" stroke="#2d263c" stroke-width="6" stroke-linejoin="round"/>
  <ellipse cx="163" cy="110" rx="10" ry="15" fill="#e6432b" stroke="#2d263c" stroke-width="5"/>
  <ellipse cx="197" cy="110" rx="10" ry="15" fill="#e6432b" stroke="#2d263c" stroke-width="5"/>
  <path d="M164,136 Q180,146 196,136" fill="none" stroke="#2d263c" stroke-width="6" stroke-linecap="round"/>
</svg>
