<svg xmlns="http://www.w3.org/2000/svg" viewBox="0 0 360 360">
  <ellipse cx="195" cy="215" rx="78" ry="50" fill="#4a9a6a" stroke="#2d263c" stroke-width="8"/>
  <path d="M120,205 Q95,190 85,205 Q100,215 118,220 Z" fill="#4a9a6a" stroke="#2d263c" stroke-width="7" stroke-linejoin="round"/>
  <path d="M255,195 Q285,175 300,150 Q305,130 290,120 Q285,145 265,165 Q245,185 235,195 Z" fill="#f2ecd8" stroke="#2d263c" stroke-width="7" stroke-linejoin="round"/>
  <path d="M270,155 Q288,135 296,118" fill="none" stroke="#c9a86b" stroke-width="5" stroke-linecap="round"/>
  <ellipse cx="235" cy="175" rx="42" ry="38" fill="#4a9a6a" stroke="#2d263c" stroke-width="8"/>
  <path d="M215,150 Q225,120 245,110 Q235,135 235,150 Z" fill="#f2ecd8" stroke="#2d263c" stroke-width="6" stroke-linejoin="round"/>
  <path d="M245,145 Q258,115 280,102 Q268,130 262,148 Z" fill="#f2ecd8" stroke="#2d263c" stroke-width="6" stroke-linejoin="round"/>
  <circle cx="250" cy="180" r="10" fill="#e63946" stroke="#2d263c" stroke-width="5"/>
  <path d="M255,158 Q262,150 270,155" fill="none" stroke="#2d263c" stroke-width="5" stroke-linecap="round"/>
  <path d="M225,195 Q235,205 232,215" fill="none" stroke="#2d263c" stroke-width="5" stroke-linecap="round"/>
  <path d="M140,175 L118,160 L145,190 Z" fill="#4a9a6a" stroke="#2d263c" stroke-width="7" stroke-linejoin="round"/>
  <path d="M150,265 L140,320 L162,320 L168,268 Z" fill="#2b2b33" stroke="#2d263c" stroke-width="7" stroke-linejoin="round"/>
  <path d="M195,270 L188,325 L210,325 L214,270 Z" fill="#2b2b33" stroke="#2d263c" stroke-width="7" stroke-linejoin="round"/>
  <path d="M240,260 L245,318 L267,318 L258,262 Z" fill="#2b2b33" stroke="#2d263c" stroke-width="7" stroke-linejoin="round"/>
  <rect x="142" y="285" width="24" height="10" fill="#e8b73e" stroke="#2d263c" stroke-width="4"/>
  <rect x="190" y="290" width="22" height="10" fill="#e8b73e" stroke="#2d263c" stroke-width="4"/>
  <rect x="243" y="282" width="22" height="10" fill="#e8b73e" stroke="#2d263c" stroke-width="4"/>
  <path d="M136,320 L166,320 L162,335 L140,335 Z" fill="#8a8a8a" stroke="#2d263c" stroke-width="5" stroke-linejoin="round"/>
  <path d="M186,325 L212,325 L209,340 L189,340 Z" fill="#8a8a8a" stroke="#2d263c" stroke-width="5" stroke-linejoin="round"/>
  <path d="M243,318 L268,318 L266,333 L246,333 Z" fill="#8a8a8a" stroke="#2d263c" stroke-width="5" stroke-linejoin="round"/>
  <path d="M118,230 Q88,245 78,270 Q100,268 120,255 Q128,245 118,230 Z" fill="#f2ecd8" stroke="#2d263c" stroke-width="7" stroke-linejoin="round"/>
  <path d="M95,258 Q80,262 75,272" fill="none" stroke="#c9a86b" stroke-width="4" stroke-linecap="round"/>
</svg>
