<svg xmlns="http://www.w3.org/2000/svg" viewBox="0 0 360 360">
  <!-- 左つばさ(ジェットひれ) -->
  <path d="M125,210 Q88,182 95,148 Q116,186 137,202 Z" fill="#151a35" stroke="#2d263c" stroke-width="6" stroke-linejoin="round"/>
  <!-- 右つばさ(ジェットひれ) -->
  <path d="M235,210 Q272,182 265,148 Q244,186 223,202 Z" fill="#151a35" stroke="#2d263c" stroke-width="6" stroke-linejoin="round"/>

  <!-- 胴体 -->
  <ellipse cx="180" cy="235" rx="58" ry="78" fill="#1c2340" stroke="#2d263c" stroke-width="8"/>
  <!-- おなかパネル -->
  <ellipse cx="180" cy="252" rx="33" ry="48" fill="#3a4570"/>
  <!-- 首の継ぎ目ライン -->
  <path d="M150,178 Q180,188 210,178" fill="none" stroke="#3a4570" stroke-width="4" stroke-linecap="round"/>

  <!-- 頭(横に平たいブーメラン型) -->
  <path d="M100,150 L48,120 Q42,110 55,100 L110,80 Q180,68 250,80 L305,100 Q318,110 312,120 L260,150 Q180,172 100,150 Z" fill="#232a4a" stroke="#2d263c" stroke-width="8" stroke-linejoin="round"/>
  <!-- 頭の上パネル -->
  <path d="M112,95 Q180,84 248,95 L238,110 Q180,101 122,110 Z" fill="#3a4570"/>

  <!-- 左つのびれ -->
  <path d="M55,132 Q35,150 45,168 Q60,150 65,138 Z" fill="#232a4a" stroke="#2d263c" stroke-width="6" stroke-linejoin="round"/>
  <!-- 右つのびれ -->
  <path d="M305,132 Q325,150 315,168 Q300,150 295,138 Z" fill="#232a4a" stroke="#2d263c" stroke-width="6" stroke-linejoin="round"/>

  <!-- 赤い目のバイザー -->
  <path d="M120,132 Q180,146 240,132 L235,145 Q180,159 125,145 Z" fill="#e8232f" stroke="#2d263c" stroke-width="4" stroke-linejoin="round"/>
  <!-- 左目 -->
  <circle cx="150" cy="139" r="6" fill="#20121a"/>
  <circle cx="147.5" cy="136.5" r="2" fill="white"/>
  <!-- 右目 -->
  <circle cx="210" cy="139" r="6" fill="#20121a"/>
  <circle cx="207.5" cy="136.5" r="2" fill="white"/>

  <!-- 左うで -->
  <line x1="128" y1="220" x2="93" y2="246" stroke="#1c2340" stroke-width="10" stroke-linecap="round"/>
  <circle cx="88" cy="251" r="11" fill="#1c2340" stroke="#2d263c" stroke-width="6"/>
  <!-- 右うで -->
  <line x1="232" y1="220" x2="267" y2="246" stroke="#1c2340" stroke-width="10" stroke-linecap="round"/>
  <circle cx="272" cy="251" r="11" fill="#1c2340" stroke="#2d263c" stroke-width="6"/>

  <!-- 左あし -->
  <line x1="155" y1="300" x2="140" y2="323" stroke="#1c2340" stroke-width="11" stroke-linecap="round"/>
  <circle cx="137" cy="328" r="11" fill="#1c2340" stroke="#2d263c" stroke-width="7"/>
  <!-- 右あし -->
  <line x1="205" y1="300" x2="220" y2="323" stroke="#1c2340" stroke-width="11" stroke-linecap="round"/>
  <circle cx="223" cy="328" r="11" fill="#1c2340" stroke="#2d263c" stroke-width="7"/>

  <!-- しっぽ(ひれ) -->
  <path d="M175,295 Q159,318 168,334 Q180,322 190,334 Q199,318 185,295 Z" fill="#1c2340" stroke="#2d263c" stroke-width="7" stroke-linejoin="round"/>
  <!-- しっぽ先の赤アクセント -->
  <path d="M172,326 L180,338 L188,326 Z" fill="#e8232f"/>
</svg>
