<svg xmlns="http://www.w3.org/2000/svg" viewBox="0 0 360 360">
  <path d="M180,118 Q78,138 58,228 Q52,290 92,322 Q142,300 180,278 Q218,300 268,322 Q308,290 302,228 Q282,138 180,118 Z" fill="#2e3a63" stroke="#2d263c" stroke-width="8" stroke-linejoin="round"/>
  <path d="M150,108 L150,58 Q150,38 180,34 Q210,38 210,58 L210,108 Z" fill="#2e3a63" stroke="#2d263c" stroke-width="8" stroke-linejoin="round"/>
  <polygon points="168,50 180,22 192,50" fill="#6bc4e8" stroke="#2d263c" stroke-width="7" stroke-linejoin="round"/>
  <ellipse cx="180" cy="90" rx="26" ry="20" fill="#ece7da" stroke="#2d263c" stroke-width="7"/>
  <ellipse cx="168" cy="88" rx="5" ry="7" fill="#1e1e1e" stroke="#2d263c" stroke-width="6"/>
  <ellipse cx="192" cy="88" rx="5" ry="7" fill="#1e1e1e" stroke="#2d263c" stroke-width="6"/>
  <polygon points="150,72 122,62 138,102" fill="#2e3a63" stroke="#2d263c" stroke-width="7" stroke-linejoin="round"/>
  <polygon points="210,72 238,62 222,102" fill="#2e3a63" stroke="#2d263c" stroke-width="7" stroke-linejoin="round"/>
  <rect x="166" y="106" width="28" height="16" rx="4" fill="#ece7da" stroke="#2d263c" stroke-width="7" stroke-linejoin="round"/>
  <rect x="145" y="122" width="70" height="92" rx="18" fill="#ece7da" stroke="#2d263c" stroke-width="8" stroke-linejoin="round"/>
  <polygon points="180,142 196,164 180,186 164,164" fill="#6bc4e8" stroke="#2d263c" stroke-width="6" stroke-linejoin="round"/>
  <ellipse cx="142" cy="132" rx="20" ry="15" fill="#2e3a63" stroke="#2d263c" stroke-width="7"/>
  <ellipse cx="218" cy="132" rx="20" ry="15" fill="#2e3a63" stroke="#2d263c" stroke-width="7"/>
  <path d="M124,140 Q106,180 116,218 L136,214 Q126,178 142,144 Z" fill="#ece7da" stroke="#2d263c" stroke-width="7" stroke-linejoin="round"/>
  <path d="M236,140 Q254,180 244,218 L224,214 Q234,178 218,144 Z" fill="#ece7da" stroke="#2d263c" stroke-width="7" stroke-linejoin="round"/>
  <ellipse cx="120" cy="222" rx="11" ry="9" fill="#1e1e1e" stroke="#2d263c" stroke-width="6"/>
  <ellipse cx="240" cy="222" rx="11" ry="9" fill="#1e1e1e" stroke="#2d263c" stroke-width="6"/>
  <path d="M158,212 L152,304 L172,304 L176,212 Z" fill="#ece7da" stroke="#2d263c" stroke-width="7" stroke-linejoin="round"/>
  <path d="M202,212 L208,304 L188,304 L184,212 Z" fill="#ece7da" stroke="#2d263c" stroke-width="7" stroke-linejoin="round"/>
  <ellipse cx="160" cy="310" rx="17" ry="10" fill="#1e1e1e" stroke="#2d263c" stroke-width="7"/>
  <ellipse cx="200" cy="310" rx="17" ry="10" fill="#1e1e1e" stroke="#2d263c" stroke-width="7"/>
  <path d="M110,200 Q180,220 250,200" fill="none" stroke="#2d263c" stroke-width="4" stroke-linecap="round"/>
  <polygon points="90,240 100,255 90,270 80,255" fill="#6bc4e8" stroke="#2d263c" stroke-width="6" stroke-linejoin="round"/>
  <polygon points="270,240 280,255 270,270 260,255" fill="#6bc4e8" stroke="#2d263c" stroke-width="6" stroke-linejoin="round"/>
</svg>
