<svg xmlns="http://www.w3.org/2000/svg" viewBox="0 0 360 360">
  <!-- back tread wheel -->
  <circle cx="95" cy="275" r="55" fill="#1c1f27" stroke="#2d263c" stroke-width="8"/>
  <circle cx="95" cy="275" r="21" fill="#3fd6d6" stroke="#2d263c" stroke-width="6"/>
  <circle cx="95" cy="275" r="6" fill="#12151b" stroke="#2d263c" stroke-width="3"/>
  <line x1="95" y1="214" x2="95" y2="230" stroke="#2d263c" stroke-width="7" stroke-linecap="round"/>
  <line x1="95" y1="320" x2="95" y2="336" stroke="#2d263c" stroke-width="7" stroke-linecap="round"/>
  <line x1="34" y1="275" x2="50" y2="275" stroke="#2d263c" stroke-width="7" stroke-linecap="round"/>
  <line x1="140" y1="275" x2="156" y2="275" stroke="#2d263c" stroke-width="7" stroke-linecap="round"/>

  <!-- front tread wheel -->
  <circle cx="248" cy="275" r="55" fill="#1c1f27" stroke="#2d263c" stroke-width="8"/>
  <circle cx="248" cy="275" r="21" fill="#3fd6d6" stroke="#2d263c" stroke-width="6"/>
  <circle cx="248" cy="275" r="6" fill="#12151b" stroke="#2d263c" stroke-width="3"/>
  <line x1="248" y1="214" x2="248" y2="230" stroke="#2d263c" stroke-width="7" stroke-linecap="round"/>
  <line x1="248" y1="320" x2="248" y2="336" stroke="#2d263c" stroke-width="7" stroke-linecap="round"/>
  <line x1="187" y1="275" x2="203" y2="275" stroke="#2d263c" stroke-width="7" stroke-linecap="round"/>
  <line x1="293" y1="275" x2="309" y2="275" stroke="#2d263c" stroke-width="7" stroke-linecap="round"/>

  <!-- main body -->
  <path d="M55 235 Q45 160 115 140 L225 138 Q290 145 295 195 Q300 235 265 260 Q230 278 150 278 Q80 278 60 260 Q50 250 55 235 Z"
        fill="#2e3340" stroke="#2d263c" stroke-width="8" stroke-linejoin="round"/>

  <!-- chest plate accent -->
  <path d="M120 235 Q160 258 210 240 Q190 262 150 262 Q122 260 120 235 Z"
        fill="#3fd6d6" stroke="#2d263c" stroke-width="5" stroke-linejoin="round"/>

  <!-- back spikes -->
  <path d="M128 140 L108 88 L155 135 Z" fill="#545b6b" stroke="#2d263c" stroke-width="6" stroke-linejoin="round"/>
  <path d="M163 138 L153 76 L195 132 Z" fill="#545b6b" stroke="#2d263c" stroke-width="6" stroke-linejoin="round"/>
  <path d="M198 136 L205 86 L233 140 Z" fill="#545b6b" stroke="#2d263c" stroke-width="6" stroke-linejoin="round"/>

  <!-- head -->
  <path d="M258 155 Q315 138 335 180 Q346 212 318 233 Q292 250 262 230 Q246 198 258 155 Z"
        fill="#2e3340" stroke="#2d263c" stroke-width="8" stroke-linejoin="round"/>

  <!-- ear plate -->
  <path d="M292 148 Q285 118 307 112 Q313 136 302 152 Z" fill="#545b6b" stroke="#2d263c" stroke-width="6" stroke-linejoin="round"/>

  <!-- tusks -->
  <path d="M305 226 Q298 254 280 267 Q292 244 296 220 Z" fill="#f2efe4" stroke="#2d263c" stroke-width="6" stroke-linejoin="round"/>
  <path d="M278 224 Q262 258 232 270 Q252 244 260 218 Z" fill="#f2efe4" stroke="#2d263c" stroke-width="6" stroke-linejoin="round"/>

  <!-- eye visor -->
  <path d="M283 172 Q307 163 316 183 Q309 199 288 192 Q279 183 283 172 Z" fill="#ff3b3b" stroke="#2d263c" stroke-width="5" stroke-linejoin="round"/>
  <circle cx="300" cy="182" r="3" fill="#fff8ea"/>

  <!-- mouth line -->
  <path d="M268 213 Q285 221 302 213" fill="none" stroke="#2d263c" stroke-width="4" stroke-linecap="round"/>
</svg>
