<svg xmlns="http://www.w3.org/2000/svg" viewBox="0 0 360 360">
  <!-- 尻尾(青い袋・後ろ) -->
  <path d="M198 225 C 235 205 262 155 268 105 C 272 72 252 52 228 58 C 205 64 192 95 188 133 C 184 168 184 200 198 225 Z"
        fill="#4a7fd6" stroke="#2d263c" stroke-width="7" stroke-linejoin="round" stroke-linecap="round"/>
  <ellipse cx="238" cy="72" rx="14" ry="7" fill="#3a63ad" stroke="#2d263c" stroke-width="6" stroke-linejoin="round"/>

  <!-- 足 -->
  <ellipse cx="148" cy="298" rx="14" ry="20" fill="#f4c542" stroke="#2d263c" stroke-width="6" stroke-linejoin="round"/>
  <ellipse cx="198" cy="298" rx="14" ry="20" fill="#f4c542" stroke="#2d263c" stroke-width="6" stroke-linejoin="round"/>
  <ellipse cx="146" cy="317" rx="22" ry="11" fill="#f7d060" stroke="#2d263c" stroke-width="6" stroke-linejoin="round"/>
  <ellipse cx="200" cy="317" rx="22" ry="11" fill="#f7d060" stroke="#2d263c" stroke-width="6" stroke-linejoin="round"/>

  <!-- 胴体 -->
  <ellipse cx="172" cy="215" rx="72" ry="88" fill="#e0435c" stroke="#2d263c" stroke-width="8" stroke-linejoin="round"/>
  <ellipse cx="172" cy="232" rx="42" ry="62" fill="#ffffff" stroke="#2d263c" stroke-width="7" stroke-linejoin="round"/>

  <!-- 羽(青い腕) -->
  <path d="M112 178 C 84 190 68 225 80 255 C 90 272 112 266 120 245 C 128 220 126 195 112 178 Z"
        fill="#4a7fd6" stroke="#2d263c" stroke-width="7" stroke-linejoin="round" stroke-linecap="round"/>
  <path d="M232 178 C 260 190 276 225 264 255 C 254 272 232 266 224 245 C 216 220 218 195 232 178 Z"
        fill="#4a7fd6" stroke="#2d263c" stroke-width="7" stroke-linejoin="round" stroke-linecap="round"/>

  <!-- 頭 -->
  <circle cx="172" cy="112" r="56" fill="#e0435c" stroke="#2d263c" stroke-width="8"/>
  <path d="M172 58 C 166 42 170 26 182 20 C 176 36 178 50 182 60 Z" fill="#e0435c" stroke="#2d263c" stroke-width="6" stroke-linejoin="round"/>
  <ellipse cx="172" cy="128" rx="40" ry="33" fill="#ffffff" stroke="#2d263c" stroke-width="7" stroke-linejoin="round"/>

  <!-- ほっぺ -->
  <ellipse cx="140" cy="132" rx="10" ry="6" fill="#ffb3c0"/>
  <ellipse cx="204" cy="132" rx="10" ry="6" fill="#ffb3c0"/>

  <!-- 目 -->
  <circle cx="155" cy="112" r="9" fill="#241f2e"/>
  <circle cx="189" cy="112" r="9" fill="#241f2e"/>
  <circle cx="158" cy="109" r="3" fill="#ffffff"/>
  <circle cx="192" cy="109" r="3" fill="#ffffff"/>

  <!-- くちばし -->
  <path d="M162 130 L182 130 L172 148 Z" fill="#f2a33c" stroke="#2d263c" stroke-width="6" stroke-linejoin="round"/>
</svg>
