<svg xmlns="http://www.w3.org/2000/svg" viewBox="0 0 360 360">
  <!-- 影っぽい足元 -->
  <ellipse cx="182" cy="332" rx="62" ry="12" fill="#d9cfc0" opacity="0.5"/>

  <!-- しっぽ -->
  <path d="M240 248 Q272 240 278 218 Q284 200 268 196 Q258 194 252 210 Q246 228 238 238" fill="#f0e8c8" stroke="#2d263c" stroke-width="7" stroke-linejoin="round" stroke-linecap="round"/>

  <!-- 体 -->
  <ellipse cx="182" cy="268" rx="72" ry="70" fill="#f5edcf" stroke="#2d263c" stroke-width="8" stroke-linejoin="round"/>

  <!-- お腹の明るい部分 -->
  <ellipse cx="182" cy="278" rx="48" ry="48" fill="#fdf8e8" stroke="none"/>

  <!-- 左足 -->
  <path d="M148 318 Q138 326 132 334 Q128 340 148 340 Q162 340 164 330 L162 314" fill="#f0e8c8" stroke="#2d263c" stroke-width="7" stroke-linejoin="round" stroke-linecap="round"/>
  <!-- 右足 -->
  <path d="M218 318 Q226 326 230 334 Q236 340 216 340 Q202 340 200 330 L202 314" fill="#f0e8c8" stroke="#2d263c" stroke-width="7" stroke-linejoin="round" stroke-linecap="round"/>

  <!-- 左腕 (スコップ手) -->
  <path d="M122 258 Q98 250 84 256 Q72 262 78 276 Q84 290 100 286 Q116 282 128 272" fill="#f0e8c8" stroke="#2d263c" stroke-width="7" stroke-linejoin="round" stroke-linecap="round"/>
  <!-- 左手スコップ -->
  <ellipse cx="82" cy="268" rx="16" ry="12" fill="#e8d8a0" stroke="#2d263c" stroke-width="6" stroke-linejoin="round" transform="rotate(-20 82 268)"/>

  <!-- 右腕 (スコップ手) -->
  <path d="M242 258 Q266 250 278 258 Q290 264 286 278 Q280 292 264 288 Q248 284 238 272" fill="#f0e8c8" stroke="#2d263c" stroke-width="7" stroke-linejoin="round" stroke-linecap="round"/>
  <!-- 右手スコップ -->
  <ellipse cx="280" cy="270" rx="16" ry="12" fill="#e8d8a0" stroke="#2d263c" stroke-width="6" stroke-linejoin="round" transform="rotate(15 280 270)"/>

  <!-- 首 -->
  <rect x="166" y="195" width="34" height="28" rx="10" fill="#f5edcf" stroke="#2d263c" stroke-width="7" stroke-linejoin="round"/>

  <!-- ★ハンマー頭部(メイン) — 横に大きく両端が膨らむ形 -->
  <!-- ハンマー中央部 -->
  <rect x="100" y="112" width="162" height="88" rx="20" fill="#f0e690" stroke="#2d263c" stroke-width="8" stroke-linejoin="round"/>
  <!-- 左端の膨らみ -->
  <ellipse cx="108" cy="156" rx="36" ry="44" fill="#e8dc78" stroke="#2d263c" stroke-width="8" stroke-linejoin="round"/>
  <!-- 右端の膨らみ -->
  <ellipse cx="254" cy="156" rx="36" ry="44" fill="#e8dc78" stroke="#2d263c" stroke-width="8" stroke-linejoin="round"/>
  <!-- ハンマー頭部の上面(重ね塗り・つなぎ) -->
  <rect x="106" y="115" width="150" height="82" rx="16" fill="#f0e690" stroke="none"/>

  <!-- ハンマー頭部の横ライン模様(左) -->
  <line x1="86" y1="148" x2="130" y2="148" stroke="#c8b840" stroke-width="5" stroke-linecap="round" opacity="0.7"/>
  <line x1="82" y1="162" x2="126" y2="162" stroke="#c8b840" stroke-width="5" stroke-linecap="round" opacity="0.7"/>
  <!-- ハンマー頭部の横ライン模様(右) -->
  <line x1="234" y1="148" x2="276" y2="148" stroke="#c8b840" stroke-width="5" stroke-linecap="round" opacity="0.7"/>
  <line x1="236" y1="162" x2="278" y2="162" stroke="#c8b840" stroke-width="5" stroke-linecap="round" opacity="0.7"/>

  <!-- 小さな三角耳(頭部の上) -->
  <polygon points="148,118 138,88 162,104" fill="#f5e88a" stroke="#2d263c" stroke-width="7" stroke-linejoin="round"/>
  <polygon points="214,118 204,88 228,104" fill="#f5e88a" stroke="#2d263c" stroke-width="7" stroke-linejoin="round"/>

  <!-- 顔パーツ -->
  <!-- 左目 -->
  <ellipse cx="158" cy="154" rx="16" ry="18" fill="white" stroke="#2d263c" stroke-width="5"/>
  <ellipse cx="161" cy="156" rx="9" ry="10" fill="#1a1a2e"/>
  <ellipse cx="164" cy="152" rx="3" ry="3" fill="white"/>
  <!-- 右目 -->
  <ellipse cx="206" cy="152" rx="15" ry="17" fill="white" stroke="#2d263c" stroke-width="5"/>
  <ellipse cx="209" cy="154" rx="8" ry="9" fill="#1a1a2e"/>
  <ellipse cx="212" cy="151" rx="3" ry="3" fill="white"/>

  <!-- ほっぺ赤み -->
  <ellipse cx="140" cy="168" rx="13" ry="9" fill="#f4a0a0" opacity="0.6"/>
  <ellipse cx="224" cy="167" rx="12" ry="8" fill="#f4a0a0" opacity="0.6"/>

  <!-- 鼻 -->
  <ellipse cx="182" cy="168" rx="9" ry="7" fill="#e88a8a" stroke="#2d263c" stroke-width="4"/>

  <!-- 口(ちょっとぼんやり顔) -->
  <path d="M170 180 Q182 190 196 179" fill="none" stroke="#2d263c" stroke-width="5" stroke-linecap="round"/>
</svg>