<svg xmlns="http://www.w3.org/2000/svg" viewBox="0 0 360 360"><g stroke="#2d263c" stroke-width="7" stroke-linejoin="round" stroke-linecap="round"><path d="M215 278 C262 282 300 252 314 208 C322 180 314 156 298 140 L280 152 C292 166 298 186 292 208 C282 242 252 252 212 248 Z" fill="#FBD341"/><path d="M291 176 L311 170 L314 186 L295 192 Z" fill="#2d263c" stroke-width="5"/><path d="M272 232 L290 220 L298 232 L280 244 Z" fill="#2d263c" stroke-width="5"/><circle cx="286" cy="134" r="17" fill="#E2403B"/><path d="M105 258 C102 215 132 196 172 196 C215 196 245 220 242 262 C239 300 212 322 170 322 C130 322 108 296 105 258 Z" fill="#FBD341"/><path d="M118 240 C100 248 92 262 95 276 C106 278 120 270 128 256 Z" fill="#FBD341"/><path d="M228 242 C246 250 254 264 250 278 C240 280 226 271 219 257 Z" fill="#FBD341"/><path d="M130 316 C124 332 132 340 147 339 C158 338 162 329 158 316 Z" fill="#FBD341"/><path d="M185 317 C181 333 190 341 204 339 C215 338 219 328 214 316 Z" fill="#FBD341"/><path d="M138 339 L144 328 L150 339 Z" fill="#FFF6E3" stroke-width="4"/><path d="M193 339 L199 328 L205 339 Z" fill="#FFF6E3" stroke-width="4"/><path d="M135 262 C134 232 150 218 172 218 C196 218 212 234 211 263 C210 292 194 308 171 308 C148 308 136 290 135 262 Z" fill="#FFF6E3" stroke-width="6"/><path d="M145 152 C142 182 140 198 137 216 L198 219 C194 198 190 178 188 155 Z" fill="#FBD341"/><path d="M138 180 C155 187 175 187 191 181 L190 193 C174 198 154 198 137 192 Z" fill="#2d263c" stroke-width="5"/><path d="M136 202 C154 209 176 209 193 203 L194 214 C176 220 153 220 134 214 Z" fill="#2d263c" stroke-width="5"/><path d="M118 92 C110 70 104 50 100 30 C117 42 134 62 144 84 Z" fill="#FBD341"/><path d="M100 30 C110 38 118 48 124 60 L112 68 C107 56 103 43 100 30 Z" fill="#2d263c" stroke-width="5"/><path d="M113 80 L132 68 L138 79 L120 90 Z" fill="#2d263c" stroke-width="5"/><path d="M196 92 C208 64 228 44 252 32 C248 54 240 76 226 96 Z" fill="#FBD341"/><path d="M252 32 C242 38 234 46 227 56 L240 66 C245 54 249 43 252 32 Z" fill="#2d263c" stroke-width="5"/><path d="M222 62 L240 74 L232 86 L215 75 Z" fill="#2d263c" stroke-width="5"/><path d="M118 120 C115 92 138 75 166 76 C196 77 216 96 213 124 C210 150 192 163 163 162 C136 161 121 145 118 120 Z" fill="#FBD341"/><circle cx="167" cy="77" r="13" fill="#E2403B"/><ellipse cx="149" cy="116" rx="5.5" ry="8.5" fill="#2d263c" stroke-width="4"/><ellipse cx="191" cy="114" rx="6" ry="9" fill="#2d263c" stroke-width="4"/><circle cx="151" cy="112" r="2" fill="#ffffff" stroke="none"/><circle cx="193" cy="110" r="2" fill="#ffffff" stroke="none"/><path d="M152 140 Q168 152 186 138" fill="none" stroke-width="6"/></g></svg>