<svg xmlns="http://www.w3.org/2000/svg" viewBox="0 0 360 360">
<path d="M148 270 Q132 298 142 320 Q160 330 170 320 Q172 296 166 270 Z" fill="#6a3fa0" stroke="#2d263c" stroke-width="7" stroke-linejoin="round"/>
<path d="M212 270 Q228 298 218 320 Q200 330 190 320 Q188 296 194 270 Z" fill="#6a3fa0" stroke="#2d263c" stroke-width="7" stroke-linejoin="round"/>
<ellipse cx="155" cy="323" rx="15" ry="9" fill="#4a2d78" stroke="#2d263c" stroke-width="5"/>
<ellipse cx="205" cy="323" rx="15" ry="9" fill="#4a2d78" stroke="#2d263c" stroke-width="5"/>
<path d="M110 175 Q58 185 45 228 Q52 258 100 252 Q122 232 118 192 Z" fill="#7a4fb8" stroke="#2d263c" stroke-width="8" stroke-linejoin="round"/>
<path d="M250 175 Q302 185 315 228 Q308 258 260 252 Q238 232 242 192 Z" fill="#7a4fb8" stroke="#2d263c" stroke-width="8" stroke-linejoin="round"/>
<path d="M62 200 Q50 225 63 245" fill="none" stroke="#4a2d78" stroke-width="5" stroke-linecap="round"/>
<path d="M298 200 Q310 225 297 245" fill="none" stroke="#4a2d78" stroke-width="5" stroke-linecap="round"/>
<path d="M38 216 L28 229 L42 240 Z" fill="#4a2d78" stroke="#2d263c" stroke-width="4" stroke-linejoin="round"/>
<path d="M322 216 L332 229 L318 240 Z" fill="#4a2d78" stroke="#2d263c" stroke-width="4" stroke-linejoin="round"/>
<path d="M140 150 Q100 160 95 210 Q100 260 150 275 Q180 282 210 275 Q260 260 265 210 Q260 160 220 150 Q180 140 140 150 Z" fill="#8a5cc4" stroke="#2d263c" stroke-width="8" stroke-linejoin="round"/>
<ellipse cx="180" cy="220" rx="55" ry="46" fill="#c9a6e8"/>
<circle cx="180" cy="210" r="28" fill="#e64545" stroke="#2d263c" stroke-width="6"/>
<circle cx="180" cy="210" r="12" fill="#7a1f35"/>
<circle cx="122" cy="188" r="6" fill="#c9a6e8"/>
<circle cx="238" cy="188" r="6" fill="#c9a6e8"/>
<path d="M180 48 Q228 55 232 100 Q230 145 180 150 Q130 145 128 100 Q132 55 180 48 Z" fill="#8a5cc4" stroke="#2d263c" stroke-width="8" stroke-linejoin="round"/>
<path d="M158 58 Q148 34 160 28 Q170 34 168 58 Z" fill="#7a4fb8" stroke="#2d263c" stroke-width="6" stroke-linejoin="round"/>
<path d="M202 58 Q212 34 200 28 Q190 34 192 58 Z" fill="#7a4fb8" stroke="#2d263c" stroke-width="6" stroke-linejoin="round"/>
<path d="M133 78 Q112 60 120 48 Q135 55 140 78 Z" fill="#7a4fb8" stroke="#2d263c" stroke-width="6" stroke-linejoin="round"/>
<path d="M227 78 Q248 60 240 48 Q225 55 220 78 Z" fill="#7a4fb8" stroke="#2d263c" stroke-width="6" stroke-linejoin="round"/>
<circle cx="158" cy="98" r="9" fill="#e64545" stroke="#2d263c" stroke-width="3"/>
<circle cx="202" cy="98" r="9" fill="#e64545" stroke="#2d263c" stroke-width="3"/>
</svg>
