<svg xmlns="http://www.w3.org/2000/svg" viewBox="0 0 360 360">
<rect x="150" y="250" width="22" height="62" rx="8" fill="#f0d858" stroke="#2d263c" stroke-width="6"/>
<rect x="188" y="250" width="22" height="62" rx="8" fill="#f0d858" stroke="#2d263c" stroke-width="6"/>
<path d="M98 288 Q86 282 92 304 Q110 312 120 298 Z" fill="#f0d858" stroke="#2d263c" stroke-width="6" stroke-linejoin="round"/>
<path d="M242 288 Q254 282 248 304 Q230 312 220 298 Z" fill="#f0d858" stroke="#2d263c" stroke-width="6" stroke-linejoin="round"/>
<path d="M150 148 Q150 110 180 105 Q210 110 210 148 Q222 232 206 262 Q180 276 154 262 Q138 232 150 148 Z" fill="#f0d858" stroke="#2d263c" stroke-width="8" stroke-linejoin="round"/>
<path d="M158 162 Q173 178 158 198" fill="none" stroke="#c89030" stroke-width="11" stroke-linecap="round"/>
<path d="M198 162 Q213 178 198 198" fill="none" stroke="#c89030" stroke-width="11" stroke-linecap="round"/>
<path d="M158 214 Q173 230 158 250" fill="none" stroke="#c89030" stroke-width="11" stroke-linecap="round"/>
<path d="M198 214 Q213 230 198 250" fill="none" stroke="#c89030" stroke-width="11" stroke-linecap="round"/>
<ellipse cx="180" cy="108" rx="56" ry="50" fill="#f0d858" stroke="#2d263c" stroke-width="8"/>
<path d="M138 68 Q122 52 144 64 Q160 78 150 92 Z" fill="#f0d858" stroke="#2d263c" stroke-width="6" stroke-linejoin="round"/>
<path d="M222 68 Q238 52 216 64 Q200 78 210 92 Z" fill="#f0d858" stroke="#2d263c" stroke-width="6" stroke-linejoin="round"/>
<ellipse cx="148" cy="120" rx="36" ry="20" fill="#f4c44b" stroke="#2d263c" stroke-width="6"/>
<circle cx="112" cy="98" r="11" fill="#2d263c"/>
<circle cx="116" cy="95" r="3" fill="#ffffff"/>
<path d="M118 152 Q134 168 118 188" fill="none" stroke="#2d263c" stroke-width="5" stroke-linecap="round"/>
<path d="M242 152 Q226 168 242 188" fill="none" stroke="#2d263c" stroke-width="5" stroke-linecap="round"/>
</svg>