<svg xmlns="http://www.w3.org/2000/svg" viewBox="0 0 360 360">
<path d="M180 318 Q168 270 150 232 Q130 192 112 162" fill="none" stroke="#2d263c" stroke-width="13" stroke-linecap="round"/>
<path d="M180 318 Q180 260 180 200 Q180 160 180 146" fill="none" stroke="#2d263c" stroke-width="13" stroke-linecap="round"/>
<path d="M180 318 Q192 270 210 232 Q230 192 248 162" fill="none" stroke="#2d263c" stroke-width="13" stroke-linecap="round"/>
<path d="M180 318 Q200 282 232 252 Q252 224 252 184" fill="none" stroke="#2d263c" stroke-width="13" stroke-linecap="round"/>
<path d="M180 318 Q160 282 128 252 Q108 224 108 184" fill="none" stroke="#2d263c" stroke-width="13" stroke-linecap="round"/>
<circle cx="112" cy="162" r="13" fill="#f0e870" stroke="#2d263c" stroke-width="5"/>
<circle cx="248" cy="162" r="13" fill="#f0e870" stroke="#2d263c" stroke-width="5"/>
<circle cx="252" cy="184" r="10" fill="#f0e870" stroke="#2d263c" stroke-width="5"/>
<circle cx="108" cy="184" r="10" fill="#f0e870" stroke="#2d263c" stroke-width="5"/>
<circle cx="180" cy="120" r="28" fill="#3a3548" stroke="#2d263c" stroke-width="7"/>
<ellipse cx="170" cy="116" rx="5" ry="7" fill="#f0e870"/>
<ellipse cx="190" cy="116" rx="5" ry="7" fill="#f0e870"/>
<path d="M150 316 Q165 332 178 320 M210 316 Q195 332 182 320" fill="none" stroke="#2d263c" stroke-width="12" stroke-linecap="round"/>
</svg>