<svg xmlns="http://www.w3.org/2000/svg" viewBox="0 0 360 360">
  <g stroke="#2d263c" stroke-width="7" stroke-linejoin="round" stroke-linecap="round">
    <path d="M152,242 C115,244 84,258 66,282 C78,290 96,288 112,280 C128,272 142,266 154,266 Z" fill="#FBD64B"/>
    <path d="M98,265 C90,269 81,275 75,281 L88,291 C94,285 102,280 110,276 Z" fill="#2d263c" stroke-width="4"/>
    <circle cx="58" cy="289" r="17" fill="#E8483C"/>
    <ellipse cx="148" cy="324" rx="22" ry="13" fill="#FBD64B"/>
    <ellipse cx="216" cy="326" rx="21" ry="12" fill="#FBD64B"/>
    <path d="M154,128 C146,168 124,205 119,252 C114,300 146,322 182,322 C220,322 250,298 245,250 C240,202 218,168 209,128 Z" fill="#FBD64B"/>
    <path d="M122,240 C116,296 148,322 182,322 C218,322 248,296 243,238 C220,256 146,258 122,240 Z" fill="#FFFFFF"/>
    <path d="M146,144 Q180,154 215,144 L212,160 Q180,168 149,160 Z" fill="#2d263c" stroke-width="4"/>
    <path d="M141,166 Q180,176 219,166 L216,182 Q180,190 145,182 Z" fill="#2d263c" stroke-width="4"/>
    <path d="M138,196 C126,210 120,228 122,242 C132,236 142,224 148,210 Z" fill="#FBD64B"/>
    <path d="M222,200 C234,214 240,230 238,244 C228,238 218,226 212,212 Z" fill="#FBD64B"/>
    <path d="M128,52 L62,30 L168,96 Z" fill="#FBD64B"/>
    <path d="M62,30 L82,37 L94,50 Z" fill="#2d263c" stroke-width="4"/>
    <path d="M92,40 L102,43 L126,70 L110,60 Z" fill="#2d263c" stroke-width="4"/>
    <path d="M228,54 L296,28 L190,94 Z" fill="#FBD64B"/>
    <path d="M296,28 L276,36 L264,48 Z" fill="#2d263c" stroke-width="4"/>
    <path d="M265,40 L255,44 L232,68 L248,58 Z" fill="#2d263c" stroke-width="4"/>
    <path d="M178,50 C148,49 130,72 131,98 C132,126 154,142 180,142 C208,142 227,123 226,96 C225,70 206,51 178,50 Z" fill="#FBD64B"/>
    <circle cx="179" cy="54" r="13" fill="#E8483C"/>
    <ellipse cx="158" cy="98" rx="5.5" ry="8.5" fill="#2d263c" stroke-width="4"/>
    <ellipse cx="202" cy="96" rx="6" ry="9.5" fill="#2d263c" stroke-width="4"/>
    <path d="M162,118 Q180,132 201,116" fill="none" stroke-width="6"/>
  </g>
  <circle cx="175" cy="50" r="4" fill="#FFFFFF"/>
  <circle cx="53" cy="284" r="5" fill="#FFFFFF"/>
</svg>