<svg xmlns="http://www.w3.org/2000/svg" viewBox="0 0 360 360">
<rect x="150" y="268" width="16" height="42" rx="5" fill="#6f8035" stroke="#2d263c" stroke-width="5"/>
<rect x="194" y="268" width="16" height="42" rx="5" fill="#6f8035" stroke="#2d263c" stroke-width="5"/>
<rect x="98" y="168" width="164" height="124" rx="14" fill="#8fb84a" stroke="#2d263c" stroke-width="8"/>
<line x1="98" y1="210" x2="262" y2="210" stroke="#2d263c" stroke-width="6" stroke-linecap="round"/>
<line x1="98" y1="252" x2="262" y2="252" stroke="#2d263c" stroke-width="6" stroke-linecap="round"/>
<line x1="140" y1="168" x2="140" y2="292" stroke="#2d263c" stroke-width="6" stroke-linecap="round"/>
<line x1="220" y1="168" x2="220" y2="292" stroke="#2d263c" stroke-width="6" stroke-linecap="round"/>
<rect x="152" y="222" width="18" height="18" rx="4" fill="#f4f4a0" stroke="#2d263c" stroke-width="5"/>
<rect x="190" y="222" width="18" height="18" rx="4" fill="#f4f4a0" stroke="#2d263c" stroke-width="5"/>
<path d="M152 182 Q180 196 208 182" fill="none" stroke="#2d263c" stroke-width="6" stroke-linecap="round"/>
<circle cx="180" cy="188" r="6" fill="#2d263c"/>
<circle cx="78" cy="228" r="14" fill="#f4f4a0" stroke="#2d263c" stroke-width="5"/>
<line x1="56" y1="228" x2="46" y2="228" stroke="#2d263c" stroke-width="6" stroke-linecap="round"/>
<line x1="64" y1="214" x2="54" y2="206" stroke="#2d263c" stroke-width="6" stroke-linecap="round"/>
<line x1="64" y1="242" x2="54" y2="250" stroke="#2d263c" stroke-width="6" stroke-linecap="round"/>
</svg>