<svg xmlns="http://www.w3.org/2000/svg" viewBox="0 0 360 360">
  <!-- legs (back) -->
  <path d="M100,190 Q55,175 35,150" fill="none" stroke="#2d263c" stroke-width="8" stroke-linecap="round"/>
  <path d="M95,225 Q40,225 28,230" fill="none" stroke="#2d263c" stroke-width="8" stroke-linecap="round"/>
  <path d="M100,260 Q55,290 40,320" fill="none" stroke="#2d263c" stroke-width="8" stroke-linecap="round"/>
  <path d="M260,190 Q305,175 325,150" fill="none" stroke="#2d263c" stroke-width="8" stroke-linecap="round"/>
  <path d="M265,225 Q320,225 332,230" fill="none" stroke="#2d263c" stroke-width="8" stroke-linecap="round"/>
  <path d="M260,260 Q305,290 320,320" fill="none" stroke="#2d263c" stroke-width="8" stroke-linecap="round"/>
  <circle cx="35" cy="150" r="7" fill="#2d263c"/>
  <circle cx="28" cy="230" r="7" fill="#2d263c"/>
  <circle cx="40" cy="320" r="7" fill="#2d263c"/>
  <circle cx="325" cy="150" r="7" fill="#2d263c"/>
  <circle cx="332" cy="230" r="7" fill="#2d263c"/>
  <circle cx="320" cy="320" r="7" fill="#2d263c"/>

  <!-- body -->
  <ellipse cx="180" cy="235" rx="95" ry="70" fill="#f6d33a" stroke="#2d263c" stroke-width="9"/>
  <path d="M100,220 Q180,205 260,220 Q180,235 100,220 Z" fill="#2d263c"/>
  <path d="M95,258 Q180,272 265,258 Q180,286 95,258 Z" fill="#2d263c"/>

  <!-- head -->
  <circle cx="180" cy="125" r="55" fill="#f6d33a" stroke="#2d263c" stroke-width="8"/>
  <path d="M128,88 Q180,60 232,88 Q180,102 128,88 Z" fill="#2d263c"/>

  <!-- antennae -->
  <path d="M155,75 Q128,50 140,30 Q147,14 162,26" fill="none" stroke="#2d263c" stroke-width="7" stroke-linecap="round"/>
  <path d="M205,75 Q232,50 220,30 Q213,14 198,26" fill="none" stroke="#2d263c" stroke-width="7" stroke-linecap="round"/>
  <circle cx="162" cy="26" r="6" fill="#f6d33a" stroke="#2d263c" stroke-width="3"/>
  <circle cx="198" cy="26" r="6" fill="#f6d33a" stroke="#2d263c" stroke-width="3"/>

  <!-- face -->
  <ellipse cx="155" cy="122" rx="26" ry="30" fill="#d81e2c" stroke="#2d263c" stroke-width="6"/>
  <ellipse cx="205" cy="122" rx="26" ry="30" fill="#d81e2c" stroke="#2d263c" stroke-width="6"/>
  <circle cx="147" cy="112" r="5" fill="#ffffff"/>
  <circle cx="197" cy="112" r="5" fill="#ffffff"/>
  <path d="M160,168 Q150,180 158,192" fill="none" stroke="#2d263c" stroke-width="6" stroke-linecap="round"/>
  <path d="M200,168 Q210,180 202,192" fill="none" stroke="#2d263c" stroke-width="6" stroke-linecap="round"/>
</svg>
