<svg xmlns="http://www.w3.org/2000/svg" viewBox="0 0 360 360">
  <path d="M85,235 Q60,245 55,265" fill="none" stroke="#2d263c" stroke-width="20" stroke-linecap="round"/>
  <circle cx="52" cy="268" r="10" fill="#262a41" stroke="#2d263c" stroke-width="6"/>
  <path d="M112,262 L108,305" fill="none" stroke="#2d263c" stroke-width="20" stroke-linecap="round"/>
  <path d="M148,268 L145,308" fill="none" stroke="#2d263c" stroke-width="20" stroke-linecap="round"/>
  <path d="M206,270 L203,310" fill="none" stroke="#2d263c" stroke-width="20" stroke-linecap="round"/>
  <path d="M238,265 L233,308" fill="none" stroke="#2d263c" stroke-width="20" stroke-linecap="round"/>
  <ellipse cx="108" cy="307" rx="13" ry="7" fill="#c7c7c7" stroke="#2d263c" stroke-width="6"/>
  <ellipse cx="145" cy="310" rx="13" ry="7" fill="#c7c7c7" stroke="#2d263c" stroke-width="6"/>
  <ellipse cx="203" cy="312" rx="13" ry="7" fill="#c7c7c7" stroke="#2d263c" stroke-width="6"/>
  <ellipse cx="233" cy="310" rx="13" ry="7" fill="#c7c7c7" stroke="#2d263c" stroke-width="6"/>
  <ellipse cx="170" cy="225" rx="90" ry="55" fill="#262a41" stroke="#2d263c" stroke-width="9"/>
  <ellipse cx="205" cy="255" rx="16" ry="9" fill="#e0512b" stroke="#2d263c" stroke-width="6"/>
  <path d="M150,168 Q178,188 202,190" fill="none" stroke="#6b4a2f" stroke-width="8" stroke-linecap="round"/>
  <path d="M95,168 L100,135 L128,98 L158,118 L186,88 L214,112 L238,92 L244,148 L222,170 Z" fill="#9a9a9a" stroke="#2d263c" stroke-width="8" stroke-linejoin="round"/>
  <path d="M122,126 L136,146" fill="none" stroke="#707070" stroke-width="5" stroke-linecap="round"/>
  <path d="M190,105 L200,125" fill="none" stroke="#707070" stroke-width="5" stroke-linecap="round"/>
  <path d="M228,125 C218,98 228,70 245,60 C236,88 236,110 240,128 Z" fill="#ede4cf" stroke="#2d263c" stroke-width="7" stroke-linejoin="round"/>
  <path d="M288,125 C298,95 296,68 285,58 C292,86 290,110 282,128 Z" fill="#ede4cf" stroke="#2d263c" stroke-width="7" stroke-linejoin="round"/>
  <path d="M234,115 L224,92 L245,105 Z" fill="#333759" stroke="#2d263c" stroke-width="6" stroke-linejoin="round"/>
  <path d="M282,115 L292,92 L271,105 Z" fill="#333759" stroke="#2d263c" stroke-width="6" stroke-linejoin="round"/>
  <circle cx="258" cy="160" r="45" fill="#262a41" stroke="#2d263c" stroke-width="9"/>
  <path d="M245,178 L300,178 L292,203 L255,205 Z" fill="#e0512b" stroke="#2d263c" stroke-width="6" stroke-linejoin="round"/>
  <circle cx="290" cy="196" r="5" fill="#1c1c1c"/>
  <circle cx="272" cy="145" r="12" fill="#ff4d3d" stroke="#2d263c" stroke-width="6"/>
  <circle cx="275" cy="145" r="5" fill="#1c1c1c"/>
</svg>
