<svg xmlns="http://www.w3.org/2000/svg" viewBox="0 0 360 360">
  <!-- 髪/クリスタル(後ろ) -->
  <path d="M118 128 C92 160 92 212 120 252 L142 230 L142 158 Z" fill="#d870b0" stroke="#2d263c" stroke-width="6" stroke-linejoin="round"/>
  <path d="M242 128 C268 160 268 212 240 252 L218 230 L218 158 Z" fill="#d870b0" stroke="#2d263c" stroke-width="6" stroke-linejoin="round"/>

  <!-- ドレス(体) -->
  <path d="M180 158 C138 174 118 262 108 332 L252 332 C242 262 222 174 180 158 Z" fill="#fbf4fa" stroke="#2d263c" stroke-width="8" stroke-linejoin="round"/>

  <!-- 胸のX -->
  <path d="M156 196 L204 216 M204 196 L156 216" stroke="#d870b0" stroke-width="7" stroke-linecap="round"/>

  <!-- 腕 -->
  <path d="M132 200 C108 210 102 236 118 252" fill="none" stroke="#f0b8d8" stroke-width="11" stroke-linecap="round"/>
  <path d="M228 200 C252 210 258 236 242 252" fill="none" stroke="#f0b8d8" stroke-width="11" stroke-linecap="round"/>

  <!-- 頭 -->
  <circle cx="180" cy="124" r="55" fill="#f0b8d8" stroke="#2d263c" stroke-width="8"/>

  <!-- クリスタルの冠 -->
  <path d="M133 94 L148 42 L166 90 Z" fill="#e9a8d8" stroke="#2d263c" stroke-width="6" stroke-linejoin="round"/>
  <path d="M165 86 L180 28 L195 86 Z" fill="#f4c4e0" stroke="#2d263c" stroke-width="6" stroke-linejoin="round"/>
  <path d="M195 90 L212 42 L227 94 Z" fill="#e9a8d8" stroke="#2d263c" stroke-width="6" stroke-linejoin="round"/>
  <path d="M150 100 L162 68 L176 100 Z" fill="#c9a0dc" stroke="#2d263c" stroke-width="5" stroke-linejoin="round"/>
  <path d="M184 100 L198 68 L210 100 Z" fill="#c9a0dc" stroke="#2d263c" stroke-width="5" stroke-linejoin="round"/>

  <!-- 目 -->
  <ellipse cx="160" cy="128" rx="9" ry="13" fill="#2d263c"/>
  <ellipse cx="200" cy="128" rx="9" ry="13" fill="#2d263c"/>
  <circle cx="163" cy="124" r="3" fill="#fff"/>
  <circle cx="203" cy="124" r="3" fill="#fff"/>

  <!-- 口 -->
  <path d="M172 150 Q180 156 188 150" fill="none" stroke="#2d263c" stroke-width="5" stroke-linecap="round"/>
</svg>
