<svg xmlns="http://www.w3.org/2000/svg" viewBox="0 0 360 360">
  <!-- tail (behind body) -->
  <path d="M230 225 Q280 218 310 248 Q326 264 316 280 Q300 260 270 254 Q245 249 225 240 Z"
        fill="#3d5a8f" stroke="#2d263c" stroke-width="8" stroke-linejoin="round" stroke-linecap="round"/>

  <!-- back spike plates (gray) -->
  <path d="M195 140 L188 110 L210 145 Z" fill="#8f99a8" stroke="#2d263c" stroke-width="6" stroke-linejoin="round"/>
  <path d="M215 150 L212 115 L233 155 Z" fill="#8f99a8" stroke="#2d263c" stroke-width="6" stroke-linejoin="round"/>
  <path d="M232 168 L237 132 L250 172 Z" fill="#8f99a8" stroke="#2d263c" stroke-width="6" stroke-linejoin="round"/>

  <!-- hind legs -->
  <path d="M140 270 Q130 300 125 325 L155 325 Q158 300 160 270 Z" fill="#3d5a8f" stroke="#2d263c" stroke-width="7" stroke-linejoin="round" stroke-linecap="round"/>
  <path d="M120 322 Q118 335 135 335 Q158 335 158 322 Z" fill="#8f99a8" stroke="#2d263c" stroke-width="6" stroke-linejoin="round"/>
  <path d="M210 275 Q216 305 213 330 L243 330 Q247 300 240 272 Z" fill="#3d5a8f" stroke="#2d263c" stroke-width="7" stroke-linejoin="round" stroke-linecap="round"/>
  <path d="M208 328 Q206 340 223 340 Q246 340 243 328 Z" fill="#8f99a8" stroke="#2d263c" stroke-width="6" stroke-linejoin="round"/>

  <!-- body -->
  <path d="M125 180 Q105 230 135 270 Q165 300 215 295 Q260 285 265 235 Q270 185 235 150 Q200 118 160 128 Q130 138 125 180 Z"
        fill="#4a6fa8" stroke="#2d263c" stroke-width="8" stroke-linejoin="round"/>

  <!-- chest crystal diamond -->
  <path d="M185 185 L215 215 L185 250 L155 215 Z" fill="#bfe4f5" stroke="#2d263c" stroke-width="6" stroke-linejoin="round"/>
  <path d="M185 200 L200 215 L185 232 L170 215 Z" fill="#eaf7fb" stroke="#2d263c" stroke-width="4" stroke-linejoin="round"/>

  <!-- arms -->
  <path d="M125 205 Q100 200 90 220 Q85 230 95 235 Q100 222 125 218 Z" fill="#4a6fa8" stroke="#2d263c" stroke-width="6" stroke-linejoin="round"/>
  <path d="M265 205 Q290 200 300 220 Q305 230 295 235 Q290 222 265 218 Z" fill="#4a6fa8" stroke="#2d263c" stroke-width="6" stroke-linejoin="round"/>

  <!-- shoulder armor plates -->
  <path d="M115 175 Q100 160 110 140 Q125 130 140 145 Q145 165 130 180 Z" fill="#8f99a8" stroke="#2d263c" stroke-width="6" stroke-linejoin="round"/>
  <path d="M255 175 Q270 160 260 140 Q245 130 230 145 Q225 165 240 180 Z" fill="#8f99a8" stroke="#2d263c" stroke-width="6" stroke-linejoin="round"/>

  <!-- head -->
  <path d="M140 100 Q135 65 170 55 Q200 45 225 65 Q245 82 235 110 Q225 135 195 140 Q160 142 140 100 Z"
        fill="#4a6fa8" stroke="#2d263c" stroke-width="8" stroke-linejoin="round"/>

  <!-- jaw / face armor (gray) -->
  <path d="M150 112 Q160 135 190 138 Q218 135 225 110 Q210 130 190 130 Q168 130 150 112 Z"
        fill="#8f99a8" stroke="#2d263c" stroke-width="6" stroke-linejoin="round"/>

  <!-- teeth -->
  <path d="M172 128 L177 143 L182 128 Z" fill="#f4f1e6" stroke="#2d263c" stroke-width="4" stroke-linejoin="round"/>
  <path d="M187 130 L192 145 L197 130 Z" fill="#f4f1e6" stroke="#2d263c" stroke-width="4" stroke-linejoin="round"/>
  <path d="M202 128 L207 143 L212 128 Z" fill="#f4f1e6" stroke="#2d263c" stroke-width="4" stroke-linejoin="round"/>

  <!-- forehead crest horn -->
  <path d="M178 55 Q182 28 197 33 Q200 50 190 62 Z" fill="#37517f" stroke="#2d263c" stroke-width="6" stroke-linejoin="round"/>

  <!-- ear fins -->
  <path d="M145 75 Q122 63 118 42 Q135 53 152 70 Z" fill="#4a6fa8" stroke="#2d263c" stroke-width="6" stroke-linejoin="round"/>
  <path d="M230 75 Q253 63 257 42 Q240 53 223 70 Z" fill="#4a6fa8" stroke="#2d263c" stroke-width="6" stroke-linejoin="round"/>

  <!-- eyes -->
  <ellipse cx="172" cy="90" rx="9" ry="7" fill="#d64a3a" stroke="#2d263c" stroke-width="5"/>
  <circle cx="172" cy="91" r="2.8" fill="#1c1620"/>
  <ellipse cx="205" cy="88" rx="9" ry="7" fill="#d64a3a" stroke="#2d263c" stroke-width="5"/>
  <circle cx="205" cy="89" r="2.8" fill="#1c1620"/>

  <!-- mouth line -->
  <path d="M178 130 Q190 136 202 128" fill="none" stroke="#2d263c" stroke-width="4" stroke-linecap="round"/>

  <!-- tail crystal accent -->
  <path d="M282 248 L292 258 L282 270 L272 258 Z" fill="#bfe4f5" stroke="#2d263c" stroke-width="5" stroke-linejoin="round"/>
</svg>
