<svg xmlns="http://www.w3.org/2000/svg" viewBox="0 0 360 360">
<ellipse cx="180" cy="330" rx="70" ry="14" fill="#00000022"/>
<path d="M120 330 L112 190 Q108 120 180 105 Q252 120 248 190 L240 330 Z" fill="#a97a4b" stroke="#2d263c" stroke-width="8" stroke-linejoin="round"/>
<path d="M138 330 L133 220 Q130 165 180 158 Q230 165 227 220 L222 330 Z" fill="#f2ddb8" stroke="#2d263c" stroke-width="7" stroke-linejoin="round"/>
<path d="M112 190 Q60 210 55 300 Q52 330 90 328 Q112 320 118 280 Z" fill="#a97a4b" stroke="#2d263c" stroke-width="8" stroke-linejoin="round"/>
<path d="M248 190 Q300 210 305 300 Q308 330 270 328 Q248 320 242 280 Z" fill="#a97a4b" stroke="#2d263c" stroke-width="8" stroke-linejoin="round"/>
<ellipse cx="80" cy="318" rx="20" ry="14" fill="#7a5636" stroke="#2d263c" stroke-width="7"/>
<ellipse cx="280" cy="318" rx="20" ry="14" fill="#7a5636" stroke="#2d263c" stroke-width="7"/>
<ellipse cx="150" cy="335" rx="22" ry="14" fill="#7a5636" stroke="#2d263c" stroke-width="7"/>
<ellipse cx="210" cy="335" rx="22" ry="14" fill="#7a5636" stroke="#2d263c" stroke-width="7"/>
<path d="M248 220 Q300 230 296 150 Q292 100 250 95 Q235 130 248 170 Z" fill="#a97a4b" stroke="#2d263c" stroke-width="8" stroke-linejoin="round"/>
<ellipse cx="278" cy="110" rx="16" ry="20" fill="#7a5636" stroke="#2d263c" stroke-width="6"/>
<circle cx="180" cy="90" r="62" fill="#a97a4b" stroke="#2d263c" stroke-width="8"/>
<path d="M130 45 L120 5 L160 35 Z" fill="#a97a4b" stroke="#2d263c" stroke-width="7" stroke-linejoin="round"/>
<path d="M230 45 L240 5 L200 35 Z" fill="#a97a4b" stroke="#2d263c" stroke-width="7" stroke-linejoin="round"/>
<path d="M132 40 L128 15 L152 33 Z" fill="#6b4a2c"/>
<path d="M228 40 L232 15 L208 33 Z" fill="#6b4a2c"/>
<ellipse cx="180" cy="112" rx="34" ry="24" fill="#f2ddb8" stroke="#2d263c" stroke-width="7"/>
<circle cx="155" cy="82" r="11" fill="#2d263c"/>
<circle cx="205" cy="82" r="11" fill="#2d263c"/>
<circle cx="151" cy="78" r="3.5" fill="#fff"/>
<circle cx="201" cy="78" r="3.5" fill="#fff"/>
<path d="M150 100 Q180 96 210 100" stroke="#2d263c" stroke-width="6" fill="none" stroke-linecap="round"/>
<ellipse cx="180" cy="118" rx="8" ry="6" fill="#2d263c"/>
<path d="M160 128 Q145 140 130 132" stroke="#2d263c" stroke-width="6" fill="none" stroke-linecap="round"/>
<path d="M200 128 Q215 140 230 132" stroke="#2d263c" stroke-width="6" fill="none" stroke-linecap="round"/>
<path d="M167 133 Q180 145 193 133" stroke="#2d263c" stroke-width="6" fill="none" stroke-linecap="round"/>
<path d="M112 250 Q95 250 92 268" stroke="#2d263c" stroke-width="5" fill="none" stroke-linecap="round"/>
<path d="M248 250 Q265 250 268 268" stroke="#2d263c" stroke-width="5" fill="none" stroke-linecap="round"/>
<path d="M60 60 L45 30 M300 60 L315 30 M35 100 L10 90 M325 100 L350 90" stroke="#ffd54f" stroke-width="8" fill="none" stroke-linecap="round"/>
</svg>
