<svg xmlns="http://www.w3.org/2000/svg" viewBox="0 0 360 360">
  <!-- 尻尾(先が輪っか) -->
  <path d="M 255 235 Q 285 225 295 205 Q 300 192 292 185" fill="none" stroke="#2d263c" stroke-width="8" stroke-linecap="round"/>
  <circle cx="288" cy="180" r="12" fill="#1a1a2e" stroke="#2d263c" stroke-width="7"/>

  <!-- 後ろ足(左) -->
  <path d="M 168 258 Q 156 270 153 292 Q 151 302 158 305 L 170 305 Q 174 302 172 290 Q 172 274 178 262 Z" fill="#1a1a2e" stroke="#2d263c" stroke-width="7" stroke-linejoin="round"/>
  <!-- 後ろ足(右) -->
  <path d="M 222 258 Q 234 270 237 292 Q 239 302 232 305 L 220 305 Q 216 302 218 290 Q 218 274 212 262 Z" fill="#1a1a2e" stroke="#2d263c" stroke-width="7" stroke-linejoin="round"/>

  <!-- 体(胴体) -->
  <ellipse cx="198" cy="240" rx="65" ry="48" fill="#26263a" stroke="#2d263c" stroke-width="8"/>

  <!-- 腹側(灰色の骨っぽい模様) -->
  <ellipse cx="198" cy="250" rx="36" ry="26" fill="#8d8d9c" stroke="#2d263c" stroke-width="5"/>
  <path d="M 175 240 Q 185 236 198 236 Q 211 236 221 240" fill="none" stroke="#26263a" stroke-width="3" stroke-linecap="round"/>
  <path d="M 178 254 Q 188 250 198 250 Q 208 250 218 254" fill="none" stroke="#26263a" stroke-width="3" stroke-linecap="round"/>

  <!-- 前脚(左) -->
  <path d="M 152 248 Q 140 258 135 278 Q 132 290 140 293 L 150 293 Q 154 286 155 272 Q 156 258 162 250 Z" fill="#1a1a2e" stroke="#2d263c" stroke-width="7" stroke-linejoin="round"/>
  <!-- 前脚(右) -->
  <path d="M 244 248 Q 256 258 261 278 Q 264 290 256 293 L 246 293 Q 242 286 241 272 Q 240 258 234 250 Z" fill="#1a1a2e" stroke="#2d263c" stroke-width="7" stroke-linejoin="round"/>

  <!-- 頭 -->
  <ellipse cx="198" cy="150" rx="55" ry="48" fill="#26263a" stroke="#2d263c" stroke-width="8"/>

  <!-- 灰色の骨マスク(顔まわり) -->
  <path d="M 160 165 Q 155 140 168 118 Q 180 104 198 102 Q 216 104 228 118 Q 241 140 236 165 Q 225 178 198 182 Q 171 178 160 165 Z" fill="#a8a8b8" stroke="#2d263c" stroke-width="6"/>

  <!-- 耳(左) -->
  <path d="M 158 128 Q 140 105 138 82 Q 138 70 148 72 Q 158 76 160 96 L 168 122 Z" fill="#1a1a2e" stroke="#2d263c" stroke-width="7" stroke-linejoin="round"/>
  <!-- 耳(右) -->
  <path d="M 238 128 Q 256 105 258 82 Q 258 70 248 72 Q 238 76 236 96 L 228 122 Z" fill="#1a1a2e" stroke="#2d263c" stroke-width="7" stroke-linejoin="round"/>

  <!-- 角(左) -->
  <path d="M 178 108 Q 172 92 175 78 Q 178 68 186 70 Q 192 73 190 86 Q 188 98 188 110 Z" fill="#c8763a" stroke="#2d263c" stroke-width="5" stroke-linejoin="round"/>
  <!-- 角(右) -->
  <path d="M 218 108 Q 224 92 221 78 Q 218 68 210 70 Q 204 73 206 86 Q 208 98 208 110 Z" fill="#c8763a" stroke="#2d263c" stroke-width="5" stroke-linejoin="round"/>

  <!-- 鼻先 -->
  <path d="M 183 158 Q 178 166 178 174 Q 178 182 188 186 Q 198 189 208 186 Q 218 182 218 174 Q 218 166 213 158 Q 206 153 198 153 Q 190 153 183 158 Z" fill="#1a1a2e" stroke="#2d263c" stroke-width="6" stroke-linejoin="round"/>
  <ellipse cx="190" cy="172" rx="3.5" ry="3" fill="#444"/>
  <ellipse cx="206" cy="172" rx="3.5" ry="3" fill="#444"/>

  <!-- 目(左) -->
  <ellipse cx="178" cy="140" rx="9" ry="8" fill="#e0331a" stroke="#2d263c" stroke-width="4"/>
  <ellipse cx="179" cy="140" rx="4" ry="4" fill="#1a0000"/>
  <ellipse cx="181" cy="137" rx="2" ry="2" fill="white"/>

  <!-- 目(右) -->
  <ellipse cx="218" cy="140" rx="9" ry="8" fill="#e0331a" stroke="#2d263c" stroke-width="4"/>
  <ellipse cx="219" cy="140" rx="4" ry="4" fill="#1a0000"/>
  <ellipse cx="221" cy="137" rx="2" ry="2" fill="white"/>

  <!-- 口 -->
  <path d="M 186 186 Q 192 191 198 191 Q 204 191 210 186" fill="none" stroke="#2d263c" stroke-width="4" stroke-linecap="round"/>
  <!-- 牙(左) -->
  <path d="M 188 189 L 186 199 L 191 197 Z" fill="white" stroke="#2d263c" stroke-width="3" stroke-linejoin="round"/>
  <!-- 牙(右) -->
  <path d="M 208 189 L 210 199 L 205 197 Z" fill="white" stroke="#2d263c" stroke-width="3" stroke-linejoin="round"/>
</svg>
