<svg xmlns="http://www.w3.org/2000/svg" viewBox="0 0 360 360">
  <ellipse cx="180" cy="320" rx="34" ry="20" fill="#7FBEDB" stroke="#2d263c" stroke-width="7" stroke-linejoin="round"/>
  <ellipse cx="78" cy="255" rx="30" ry="42" fill="#5E9BC0" stroke="#2d263c" stroke-width="7" stroke-linejoin="round" stroke-linecap="round"/>
  <ellipse cx="282" cy="255" rx="30" ry="42" fill="#5E9BC0" stroke="#2d263c" stroke-width="7" stroke-linejoin="round" stroke-linecap="round"/>
  <ellipse cx="180" cy="215" rx="118" ry="98" fill="#8FCBE6" stroke="#2d263c" stroke-width="8" stroke-linejoin="round"/>
  <path d="M78,232 C100,205 118,248 145,215 C170,185 188,232 215,205 C240,182 258,215 278,235 L280,300 Q180,342 80,300 Z"
        fill="#F8F1DC" stroke="#2d263c" stroke-width="7" stroke-linejoin="round" stroke-linecap="round"/>
  <circle cx="180" cy="112" r="70" fill="#8FCBE6" stroke="#2d263c" stroke-width="8" stroke-linejoin="round"/>
  <ellipse cx="180" cy="128" rx="50" ry="42" fill="#F8F1DC" stroke="#2d263c" stroke-width="7" stroke-linejoin="round"/>
  <path d="M132,92 Q150,74 168,90" fill="none" stroke="#F8F1DC" stroke-width="9" stroke-linecap="round"/>
  <path d="M228,92 Q210,74 192,90" fill="none" stroke="#F8F1DC" stroke-width="9" stroke-linecap="round"/>
  <path d="M165,150 Q140,200 145,255 Q155,262 165,250 Q175,200 180,155 Z" fill="#FFFFFF" stroke="#2d263c" stroke-width="6" stroke-linejoin="round"/>
  <path d="M195,150 Q220,200 215,255 Q205,262 195,250 Q185,200 180,155 Z" fill="#FFFFFF" stroke="#2d263c" stroke-width="6" stroke-linejoin="round"/>
  <circle cx="150" cy="112" r="10" fill="#2d263c"/>
  <circle cx="153" cy="109" r="3" fill="#FFFFFF"/>
  <circle cx="210" cy="112" r="10" fill="#2d263c"/>
  <circle cx="213" cy="109" r="3" fill="#FFFFFF"/>
  <ellipse cx="180" cy="140" rx="11" ry="7" fill="#3A3A3A" stroke="#2d263c" stroke-width="4"/>
  <path d="M165,155 Q180,163 195,155" fill="none" stroke="#2d263c" stroke-width="6" stroke-linecap="round"/>
</svg>
