<svg xmlns="http://www.w3.org/2000/svg" viewBox="0 0 360 360">
  <path d="M112,145 C70,120 40,130 32,155 C22,175 26,195 34,205 C40,225 68,238 112,222 C98,205 100,190 96,185 C100,178 100,168 96,160 C100,155 105,150 112,145 Z" fill="#FDEFEA" stroke="#2d263c" stroke-width="7" stroke-linejoin="round" stroke-linecap="round"/>
  <path d="M60,155 C75,175 75,195 60,215" fill="none" stroke="#2d263c" stroke-width="4" stroke-linecap="round" opacity="0.5"/>
  <path d="M80,150 C92,175 92,195 80,220" fill="none" stroke="#2d263c" stroke-width="4" stroke-linecap="round" opacity="0.5"/>
  <path d="M158,135 C148,110 152,80 165,58 C172,48 178,63 183,53 C188,63 194,48 201,58 C212,80 216,110 206,135 Z" fill="#FDEFEA" stroke="#2d263c" stroke-width="7" stroke-linejoin="round" stroke-linecap="round"/>
  <path d="M148,246 C135,260 132,278 145,282 C155,270 158,255 158,248 Z" fill="#FDEFEA" stroke="#2d263c" stroke-width="7" stroke-linejoin="round" stroke-linecap="round"/>
  <path d="M192,246 C185,262 188,280 200,278 C205,262 202,250 196,246 Z" fill="#FDEFEA" stroke="#2d263c" stroke-width="7" stroke-linejoin="round" stroke-linecap="round"/>
  <path d="M243,208 C258,218 262,235 250,238 C243,225 240,215 243,208 Z" fill="#FDEFEA" stroke="#2d263c" stroke-width="7" stroke-linejoin="round" stroke-linecap="round"/>
  <ellipse cx="190" cy="190" rx="82" ry="60" fill="#F2953A" stroke="#2d263c" stroke-width="8"/>
  <path d="M130,170 C150,165 170,165 190,170" fill="none" stroke="#d9791f" stroke-width="4" stroke-linecap="round" opacity="0.6"/>
  <path d="M135,200 C155,196 175,196 195,200" fill="none" stroke="#d9791f" stroke-width="4" stroke-linecap="round" opacity="0.6"/>
  <ellipse cx="185" cy="222" rx="48" ry="25" fill="#FBE0A8" opacity="0.85"/>
  <path d="M218,145 C210,115 216,85 232,62 C246,86 244,116 236,148 Z" fill="#FFF6DC" stroke="#2d263c" stroke-width="6" stroke-linejoin="round" stroke-linecap="round"/>
  <circle cx="235" cy="195" r="11" fill="#FDBFAE" opacity="0.45"/>
  <circle cx="248" cy="172" r="17" fill="#FFFFFF" stroke="#2d263c" stroke-width="6"/>
  <circle cx="252" cy="174" r="8" fill="#2d263c"/>
  <circle cx="256" cy="168" r="3.5" fill="#FFFFFF"/>
  <path d="M262,190 Q272,196 262,202" fill="none" stroke="#2d263c" stroke-width="6" stroke-linecap="round"/>
  <path d="M230,178 C226,190 226,200 232,210" fill="none" stroke="#2d263c" stroke-width="6" stroke-linecap="round" opacity="0.8"/>
</svg>
