<svg xmlns="http://www.w3.org/2000/svg" viewBox="0 0 360 360">
<circle cx="180" cy="195" r="140" fill="#ffb84d" opacity="0.22"/>
<circle cx="180" cy="195" r="115" fill="#fff2b0" opacity="0.32"/>
<path d="M112,102 L155,119 L180,80 L205,119 L248,102 L245,148 L289,160 L260,195 L289,231 L245,242 L248,288 L205,271 L180,310 L155,271 L112,288 L115,242 L71,231 L100,195 L71,160 L115,148 Z" fill="#ffd93f" stroke="#2d263c" stroke-width="8" stroke-linejoin="round" stroke-linecap="round"/>
<path d="M150,95 L135,35 L175,90 Z" fill="#2d263c" stroke="#2d263c" stroke-width="6" stroke-linejoin="round"/>
<path d="M185,90 L225,35 L210,95 Z" fill="#2d263c" stroke="#2d263c" stroke-width="6" stroke-linejoin="round"/>
<ellipse cx="180" cy="245" rx="58" ry="46" fill="#fff9e8" stroke="#2d263c" stroke-width="7"/>
<ellipse cx="100" cy="185" rx="13" ry="28" fill="#2d263c"/>
<ellipse cx="260" cy="185" rx="13" ry="28" fill="#2d263c"/>
<circle cx="130" cy="205" r="22" fill="#ff5b5b" stroke="#2d263c" stroke-width="6"/>
<circle cx="230" cy="205" r="22" fill="#ff5b5b" stroke="#2d263c" stroke-width="6"/>
<ellipse cx="155" cy="175" rx="10" ry="13" fill="#2d263c"/>
<ellipse cx="205" cy="175" rx="10" ry="13" fill="#2d263c"/>
<circle cx="158" cy="171" r="3" fill="#ffffff"/>
<circle cx="208" cy="171" r="3" fill="#ffffff"/>
<path d="M172,188 L188,188 L180,198 Z" fill="#2d263c"/>
<path d="M165,205 Q180,216 195,205" fill="none" stroke="#2d263c" stroke-width="6" stroke-linecap="round"/>
<ellipse cx="155" cy="288" rx="14" ry="9" fill="#2d263c"/>
<ellipse cx="205" cy="288" rx="14" ry="9" fill="#2d263c"/>
<circle cx="180" cy="308" r="20" fill="#d8dbe3" stroke="#2d263c" stroke-width="7"/>
<circle cx="180" cy="326" r="7" fill="#ff5b5b" stroke="#2d263c" stroke-width="5"/>
<path d="M55,86 L61,96 L55,106 L49,96 Z" fill="#ffdf70"/>
<path d="M305,91 L311,101 L305,111 L299,101 Z" fill="#ffdf70"/>
<path d="M60,300 L66,310 L60,320 L54,310 Z" fill="#ffdf70"/>
<path d="M300,296 L306,306 L300,316 L294,306 Z" fill="#ffdf70"/>
</svg>
