<svg xmlns="http://www.w3.org/2000/svg" viewBox="0 0 360 360">
  <ellipse cx="182" cy="322" rx="86" ry="14" fill="#2d263c" opacity="0.15"/>
  <path d="M180 330 Q170 345 182 348 Q196 345 184 330 Z" fill="#3C8C42" stroke="#2d263c" stroke-width="7" stroke-linejoin="round" stroke-linecap="round"/>
  <path d="M182 40
           C 240 40 268 95 262 165
           C 258 225 250 300 182 332
           C 116 300 104 225 100 165
           C 96 92 126 40 182 40 Z"
        fill="#5FBF56" stroke="#2d263c" stroke-width="8" stroke-linejoin="round" stroke-linecap="round"/>
  <path d="M182 70
           C 200 130 202 230 182 315
           C 164 230 164 130 182 70 Z"
        fill="#D9E7A0" stroke="#2d263c" stroke-width="5" stroke-linejoin="round" stroke-linecap="round"/>
  <path d="M104 160 Q80 168 88 190 Q104 196 112 178 Z" fill="#5FBF56" stroke="#2d263c" stroke-width="7" stroke-linejoin="round" stroke-linecap="round"/>
  <path d="M260 160 Q286 166 280 190 Q262 198 254 178 Z" fill="#5FBF56" stroke="#2d263c" stroke-width="7" stroke-linejoin="round" stroke-linecap="round"/>
  <path d="M104 112 Q182 128 260 110" fill="none" stroke="#3C8C42" stroke-width="9" stroke-linecap="round"/>
  <path d="M100 160 Q182 178 262 158" fill="none" stroke="#3C8C42" stroke-width="10" stroke-linecap="round"/>
  <path d="M100 205 Q182 224 258 202" fill="none" stroke="#3C8C42" stroke-width="10" stroke-linecap="round"/>
  <path d="M106 250 Q182 268 250 246" fill="none" stroke="#3C8C42" stroke-width="9" stroke-linecap="round"/>
  <path d="M122 288 Q182 302 236 284" fill="none" stroke="#3C8C42" stroke-width="8" stroke-linecap="round"/>
  <path d="M104 112 Q182 128 260 110" fill="none" stroke="#2d263c" stroke-width="2" stroke-linecap="round" opacity="0.35"/>
  <path d="M150 46 Q182 30 214 46" fill="none" stroke="#2d263c" stroke-width="6" stroke-linecap="round" opacity="0.5"/>
  <ellipse cx="156" cy="92" rx="12" ry="15" fill="#1a1a1a" stroke="#2d263c" stroke-width="6" stroke-linejoin="round"/>
  <ellipse cx="210" cy="92" rx="12" ry="15" fill="#1a1a1a" stroke="#2d263c" stroke-width="6" stroke-linejoin="round"/>
  <circle cx="152" cy="87" r="3.5" fill="#ffffff"/>
  <circle cx="206" cy="87" r="3.5" fill="#ffffff"/>
  <circle cx="132" cy="112" r="6" fill="#8FD87E" opacity="0.8"/>
  <circle cx="234" cy="112" r="6" fill="#8FD87E" opacity="0.8"/>
</svg>
