<svg xmlns="http://www.w3.org/2000/svg" viewBox="0 0 360 360">
  <ellipse cx="185" cy="235" rx="70" ry="58" fill="#5c4a80" stroke="#2d263c" stroke-width="7" stroke-linejoin="round"/>
  <path d="M130 250 Q180 285 235 245 Q220 275 180 280 Q145 278 130 250 Z" fill="#8977ab" stroke="#2d263c" stroke-width="6" stroke-linejoin="round"/>
  <path d="M255 150 Q330 120 340 200 Q320 210 290 205 Q250 195 235 175 Z" fill="#3f3260" stroke="#2d263c" stroke-width="7" stroke-linejoin="round"/>
  <path d="M115 150 Q40 120 30 200 Q50 212 82 205 Q120 195 135 175 Z" fill="#3f3260" stroke="#2d263c" stroke-width="7" stroke-linejoin="round"/>
  <path d="M300 145 Q320 165 300 190" fill="none" stroke="#e8862f" stroke-width="7" stroke-linecap="round" stroke-linejoin="round"/>
  <path d="M70 145 Q50 165 70 190" fill="none" stroke="#e8862f" stroke-width="7" stroke-linecap="round" stroke-linejoin="round"/>
  <path d="M150 180 Q185 150 235 175 Q245 210 210 235 Q170 250 140 220 Q130 195 150 180 Z" fill="#4a3a6e" stroke="#2d263c" stroke-width="7" stroke-linejoin="round"/>
  <path d="M215 140 Q260 95 290 120 Q265 140 250 165 Q225 160 215 140 Z" fill="#4a3a6e" stroke="#2d263c" stroke-width="7" stroke-linejoin="round"/>
  <path d="M255 105 Q270 90 285 100 Q275 112 268 122 Z" fill="#e8862f" stroke="#2d263c" stroke-width="6" stroke-linejoin="round"/>
  <ellipse cx="205" cy="175" rx="10" ry="13" fill="#d1263a" stroke="#2d263c" stroke-width="5"/>
  <ellipse cx="248" cy="185" rx="9" ry="12" fill="#d1263a" stroke="#2d263c" stroke-width="5"/>
  <path d="M235 200 Q285 210 300 250 Q270 260 230 250 Q205 240 200 220 Q210 205 235 200 Z" fill="#3f3260" stroke="#2d263c" stroke-width="7" stroke-linejoin="round"/>
  <path d="M245 215 L300 235 L246 250 Z" fill="#efefe8" stroke="#2d263c" stroke-width="5" stroke-linejoin="round"/>
  <path d="M245 233 L295 250 L246 260 Z" fill="#efefe8" stroke="#2d263c" stroke-width="5" stroke-linejoin="round"/>
  <path d="M182 275 Q160 320 175 335 Q195 320 190 275 Z" fill="#e8862f" stroke="#2d263c" stroke-width="6" stroke-linejoin="round"/>
  <path d="M160 280 Q150 250 130 250" fill="none" stroke="#2d263c" stroke-width="6" stroke-linecap="round"/>
  <path d="M225 280 Q235 250 250 250" fill="none" stroke="#2d263c" stroke-width="6" stroke-linecap="round"/>
  <path d="M135 268 Q90 280 60 260 Q90 250 120 255 Z" fill="#4a3a6e" stroke="#2d263c" stroke-width="7" stroke-linejoin="round"/>
  <path d="M235 275 Q290 300 310 340 Q325 330 320 305 Q295 260 245 258 Z" fill="#5c4a80" stroke="#2d263c" stroke-width="7" stroke-linejoin="round"/>
  <path d="M295 285 Q315 290 320 275" fill="none" stroke="#e8862f" stroke-width="6" stroke-linecap="round"/>
  <ellipse cx="150" cy="300" rx="18" ry="22" fill="#3f3260" stroke="#2d263c" stroke-width="6"/>
  <ellipse cx="220" cy="300" rx="18" ry="22" fill="#3f3260" stroke="#2d263c" stroke-width="6"/>
  <path d="M138 315 L128 330 L148 322 Z" fill="#efefe8" stroke="#2d263c" stroke-width="5" stroke-linejoin="round"/>
  <path d="M228 315 L238 330 L218 322 Z" fill="#efefe8" stroke="#2d263c" stroke-width="5" stroke-linejoin="round"/>
  <path d="M175 210 Q185 225 195 210" fill="none" stroke="#2d263c" stroke-width="6" stroke-linecap="round"/>
</svg>
