<svg xmlns="http://www.w3.org/2000/svg" viewBox="0 0 360 360">
  <!-- 左足(後ろ) -->
  <ellipse cx="152" cy="298" rx="19" ry="13" fill="#FFF7DE" stroke="#2d263c" stroke-width="6"/>
  <!-- 右足(後ろ) -->
  <ellipse cx="208" cy="298" rx="19" ry="13" fill="#FFF7DE" stroke="#2d263c" stroke-width="6"/>

  <!-- 左手(後ろ) -->
  <ellipse cx="98" cy="222" rx="20" ry="29" fill="#FFF7DE" stroke="#2d263c" stroke-width="6" transform="rotate(-18 98 222)"/>
  <!-- 右手(後ろ) -->
  <ellipse cx="262" cy="222" rx="20" ry="29" fill="#FFF7DE" stroke="#2d263c" stroke-width="6" transform="rotate(18 262 222)"/>

  <!-- 体(卵型・白クリーム色) -->
  <path d="M180 88 Q236 94 249 150 Q259 196 240 240 Q222 280 180 306 Q138 280 120 240 Q101 196 111 150 Q124 94 180 88Z" fill="#FFFCEE" stroke="#2d263c" stroke-width="7" stroke-linejoin="round" stroke-linecap="round"/>

  <!-- 殻(下半身をおおうギザギザ模様・茶色) -->
  <path d="M123 218 L140 188 L157 216 L173 187 L189 216 L205 187 L221 216 L236 190 Q221 275 180 305 Q140 276 123 218Z" fill="#9A5A34" stroke="#2d263c" stroke-width="6" stroke-linejoin="round" stroke-linecap="round"/>
  <!-- 殻の模様(濃い斑点) -->
  <path d="M155 240 L170 232 L165 252Z" fill="#6E3B20"/>
  <path d="M205 245 L192 236 L200 258Z" fill="#6E3B20"/>

  <!-- 頭のとがった殻のかけら(冠) -->
  <path d="M178 90 L168 54 L192 72Z" fill="#9A5A34" stroke="#2d263c" stroke-width="6" stroke-linejoin="round"/>
  <path d="M144 100 L124 74 L156 88Z" fill="#9A5A34" stroke="#2d263c" stroke-width="6" stroke-linejoin="round"/>
  <path d="M216 100 L236 74 L204 88Z" fill="#9A5A34" stroke="#2d263c" stroke-width="6" stroke-linejoin="round"/>

  <!-- 目 -->
  <circle cx="153" cy="172" r="15" fill="#241f2e"/>
  <circle cx="207" cy="172" r="15" fill="#241f2e"/>
  <circle cx="148" cy="166" r="5" fill="#ffffff"/>
  <circle cx="202" cy="166" r="5" fill="#ffffff"/>

  <!-- ほっぺ(赤み) -->
  <circle cx="133" cy="196" r="9" fill="#FFAFC0"/>
  <circle cx="227" cy="196" r="9" fill="#FFAFC0"/>

  <!-- 口 -->
  <path d="M168 200 Q180 210 192 200" fill="none" stroke="#2d263c" stroke-width="5" stroke-linecap="round"/>
</svg>
