<svg xmlns="http://www.w3.org/2000/svg" viewBox="0 0 360 360">
<path d="M180 122 L165 78 L188 112 Z" fill="#4f5b63" stroke="#2d263c" stroke-width="7" stroke-linejoin="round"/>
<path d="M180 120 L150 84 L162 116 Z" fill="#4f5b63" stroke="#2d263c" stroke-width="7" stroke-linejoin="round"/>
<path d="M180 122 L210 84 L200 116 Z" fill="#4f5b63" stroke="#2d263c" stroke-width="7" stroke-linejoin="round"/>
<circle cx="180" cy="200" r="95" fill="#5c6b73" stroke="#2d263c" stroke-width="8"/>
<ellipse cx="180" cy="222" rx="62" ry="58" fill="#f1ece0" stroke="#2d263c" stroke-width="7"/>
<circle cx="118" cy="148" r="16" fill="#5c6b73" stroke="#2d263c" stroke-width="7"/>
<circle cx="242" cy="148" r="16" fill="#5c6b73" stroke="#2d263c" stroke-width="7"/>
<circle cx="155" cy="190" r="13" fill="#2d263c"/>
<circle cx="205" cy="190" r="13" fill="#2d263c"/>
<circle cx="159" cy="186" r="4" fill="#fff"/>
<circle cx="209" cy="186" r="4" fill="#fff"/>
<circle cx="138" cy="215" r="14" fill="#ffd84d" stroke="#2d263c" stroke-width="6"/>
<circle cx="222" cy="215" r="14" fill="#ffd84d" stroke="#2d263c" stroke-width="6"/>
<path d="M170 228 Q180 238 190 228" fill="none" stroke="#2d263c" stroke-width="6" stroke-linecap="round"/>
<ellipse cx="150" cy="288" rx="20" ry="13" fill="#5c6b73" stroke="#2d263c" stroke-width="7"/>
<ellipse cx="210" cy="288" rx="20" ry="13" fill="#5c6b73" stroke="#2d263c" stroke-width="7"/>
<path d="M90 222 L112 212 L100 196 L128 184" fill="none" stroke="#2d263c" stroke-width="14" stroke-linecap="round" stroke-linejoin="round"/>
<path d="M90 222 L112 212 L100 196 L128 184" fill="none" stroke="#ffd84d" stroke-width="7" stroke-linecap="round" stroke-linejoin="round"/>
</svg>