<svg xmlns="http://www.w3.org/2000/svg" viewBox="0 0 360 360">
<g fill="none" stroke="#2d263c" stroke-width="7" stroke-linejoin="round" stroke-linecap="round">
<path fill="#f0842a" d="M148 64 C138 42 156 32 160 52 C164 38 180 38 178 56 C186 46 196 52 186 66 Z"/>
<path fill="#f5d04a" d="M186 58 C180 44 192 38 196 54 C202 44 210 50 200 64 Z"/>
<path fill="#f0842a" d="M206 64 C200 48 214 42 216 58 C224 50 232 58 220 70 Z"/>
<path fill="#3a3540" d="M96 142 C120 96 240 96 264 142 C258 120 238 110 208 110 C198 94 162 94 152 110 C122 110 102 120 96 142 Z"/>
<circle fill="#4a4458" stroke="none" cx="138" cy="122" r="14"/>
<circle fill="#4a4458" stroke="none" cx="222" cy="122" r="14"/>
<circle fill="#4a4458" stroke="none" cx="180" cy="106" r="12"/>
<path fill="#9a6a3a" d="M86 150 L274 150 L264 250 L96 250 Z"/>
<path d="M180 150 L180 250" stroke="#6e4a28" stroke-width="4"/>
<path d="M100 180 L260 180" stroke="#6e4a28" stroke-width="4"/>
<path fill="#6a6268" d="M86 150 L274 150 L270 162 L90 162 Z"/>
<ellipse fill="#fff" cx="140" cy="202" rx="16" ry="20"/>
<ellipse fill="#fff" cx="220" cy="202" rx="16" ry="20"/>
<ellipse fill="#2d263c" cx="142" cy="206" rx="8" ry="11"/>
<ellipse fill="#2d263c" cx="222" cy="206" rx="8" ry="11"/>
<circle fill="#fff" stroke="none" cx="138" cy="200" r="3.5"/>
<circle fill="#fff" stroke="none" cx="218" cy="200" r="3.5"/>
<circle fill="#4a4458" cx="120" cy="258" r="26"/>
<circle fill="#6a6268" cx="120" cy="258" r="12"/>
<circle fill="#4a4458" cx="240" cy="258" r="26"/>
<circle fill="#6a6268" cx="240" cy="258" r="12"/>
</g>
</svg>
