<svg xmlns="http://www.w3.org/2000/svg" viewBox="0 0 360 360">
  <circle cx="248" cy="130" r="24" fill="#e8703a" stroke="#2d263c" stroke-width="7" stroke-linejoin="round"/>
  <circle cx="221" cy="90" r="24" fill="#e8703a" stroke="#2d263c" stroke-width="7" stroke-linejoin="round"/>
  <circle cx="180" cy="76" r="24" fill="#e8703a" stroke="#2d263c" stroke-width="7" stroke-linejoin="round"/>
  <circle cx="139" cy="90" r="24" fill="#e8703a" stroke="#2d263c" stroke-width="7" stroke-linejoin="round"/>
  <circle cx="112" cy="130" r="24" fill="#e8703a" stroke="#2d263c" stroke-width="7" stroke-linejoin="round"/>
  <circle cx="139" cy="206" r="24" fill="#e8703a" stroke="#2d263c" stroke-width="7" stroke-linejoin="round"/>
  <circle cx="221" cy="206" r="24" fill="#e8703a" stroke="#2d263c" stroke-width="7" stroke-linejoin="round"/>
  <circle cx="180" cy="82" r="13" fill="#ffd35c" stroke="#2d263c" stroke-width="6" stroke-linejoin="round"/>
  <ellipse cx="180" cy="330" rx="86" ry="12" fill="#c98a3e" stroke="#2d263c" stroke-width="6" stroke-linejoin="round"/>
  <path d="M148,218 C118,214 86,224 70,246 C86,256 118,250 148,238 Z" fill="#d9822f" stroke="#2d263c" stroke-width="6" stroke-linejoin="round" stroke-linecap="round"/>
  <path d="M212,218 C242,214 274,224 290,246 C274,256 242,250 212,238 Z" fill="#d9822f" stroke="#2d263c" stroke-width="6" stroke-linejoin="round" stroke-linecap="round"/>
  <path d="M150,188 C128,218 106,258 96,292 C92,310 96,326 108,334 L252,334 C262,326 266,310 262,292 C252,258 230,218 208,188 C195,200 165,200 150,188 Z" fill="#f6e2b8" stroke="#2d263c" stroke-width="8" stroke-linejoin="round"/>
  <path d="M118,290 L112,332" fill="none" stroke="#c98a3e" stroke-width="5" stroke-linecap="round"/>
  <path d="M150,300 L146,332" fill="none" stroke="#c98a3e" stroke-width="5" stroke-linecap="round"/>
  <path d="M180,304 L180,332" fill="none" stroke="#c98a3e" stroke-width="5" stroke-linecap="round"/>
  <path d="M210,300 L214,332" fill="none" stroke="#c98a3e" stroke-width="5" stroke-linecap="round"/>
  <path d="M242,290 L248,332" fill="none" stroke="#c98a3e" stroke-width="5" stroke-linecap="round"/>
  <ellipse cx="150" cy="332" rx="14" ry="7" fill="#c9743a" stroke="#2d263c" stroke-width="6" stroke-linejoin="round"/>
  <ellipse cx="210" cy="332" rx="14" ry="7" fill="#c9743a" stroke="#2d263c" stroke-width="6" stroke-linejoin="round"/>
  <circle cx="180" cy="150" r="54" fill="#fdf0da" stroke="#2d263c" stroke-width="8" stroke-linejoin="round"/>
  <circle cx="149" cy="166" r="9" fill="#f0a15a"/>
  <circle cx="211" cy="166" r="9" fill="#f0a15a"/>
  <ellipse cx="163" cy="147" rx="6" ry="9" fill="#2d263c"/>
  <ellipse cx="197" cy="147" rx="6" ry="9" fill="#2d263c"/>
  <path d="M170,170 Q180,178 190,170" fill="none" stroke="#2d263c" stroke-width="5" stroke-linecap="round"/>
</svg>
