<svg xmlns="http://www.w3.org/2000/svg" viewBox="0 0 360 360">
  <!-- 翼(左・後ろ) -->
  <ellipse cx="85" cy="190" rx="62" ry="30" fill="#2a2a3a" stroke="#2d263c" stroke-width="7" stroke-linejoin="round" transform="rotate(-20 85 190)"/>
  <!-- 翼(右・後ろ) -->
  <ellipse cx="278" cy="192" rx="60" ry="28" fill="#2a2a3a" stroke="#2d263c" stroke-width="7" stroke-linejoin="round" transform="rotate(18 278 192)"/>
  <!-- 翼先端 白 左 -->
  <ellipse cx="62" cy="204" rx="28" ry="12" fill="#f0f0f0" stroke="#2d263c" stroke-width="5" stroke-linejoin="round" transform="rotate(-22 62 204)"/>
  <!-- 翼先端 白 右 -->
  <ellipse cx="299" cy="206" rx="27" ry="11" fill="#f0f0f0" stroke="#2d263c" stroke-width="5" stroke-linejoin="round" transform="rotate(20 299 206)"/>

  <!-- 体(白い丸っこい胴体) -->
  <ellipse cx="180" cy="200" rx="88" ry="95" fill="#f5f5f5" stroke="#2d263c" stroke-width="8" stroke-linejoin="round"/>

  <!-- お腹の少し黄みがかった部分 -->
  <ellipse cx="182" cy="230" rx="55" ry="55" fill="#fdf8e8" stroke="none"/>

  <!-- 頭(白) -->
  <ellipse cx="180" cy="120" rx="68" ry="62" fill="#f5f5f5" stroke="#2d263c" stroke-width="8" stroke-linejoin="round"/>

  <!-- 超巨大くちばし(下半分・オレンジ) - 後ろ -->
  <path d="M120,155 Q105,210 115,260 Q145,290 180,292 Q215,290 245,260 Q255,210 240,155 Z"
        fill="#f09020" stroke="#2d263c" stroke-width="7" stroke-linejoin="round"/>

  <!-- くちばしの溝ライン -->
  <path d="M150,175 Q145,220 150,255" fill="none" stroke="#c07010" stroke-width="3.5" stroke-linecap="round"/>
  <path d="M210,175 Q215,220 210,255" fill="none" stroke="#c07010" stroke-width="3.5" stroke-linecap="round"/>

  <!-- くちばし上半分(オレンジ) -->
  <path d="M118,148 Q125,130 145,122 Q165,118 180,118 Q195,118 215,122 Q235,130 242,148 Q240,162 180,168 Q120,162 118,148 Z"
        fill="#f5a030" stroke="#2d263c" stroke-width="7" stroke-linejoin="round"/>

  <!-- くちばし上部のハイライト -->
  <path d="M148,128 Q180,122 212,128" fill="none" stroke="#ffd060" stroke-width="4" stroke-linecap="round"/>

  <!-- 鼻の穴 -->
  <ellipse cx="165" cy="136" rx="5" ry="3" fill="#c07010" stroke="none"/>
  <ellipse cx="195" cy="136" rx="5" ry="3" fill="#c07010" stroke="none"/>

  <!-- 目(左) - 黄色アイリング -->
  <circle cx="148" cy="108" r="16" fill="#f0d800" stroke="#2d263c" stroke-width="5"/>
  <circle cx="148" cy="108" r="10" fill="white" stroke="#2d263c" stroke-width="3"/>
  <circle cx="150" cy="110" r="6" fill="#1a1a2e" stroke="none"/>
  <circle cx="153" cy="107" r="2" fill="white" stroke="none"/>

  <!-- 目(右) - 黄色アイリング -->
  <circle cx="212" cy="107" r="16" fill="#f0d800" stroke="#2d263c" stroke-width="5"/>
  <circle cx="212" cy="107" r="10" fill="white" stroke="#2d263c" stroke-width="3"/>
  <circle cx="214" cy="109" r="6" fill="#1a1a2e" stroke="none"/>
  <circle cx="217" cy="106" r="2" fill="white" stroke="none"/>

  <!-- 頭のてっぺんの羽根 -->
  <path d="M175,60 Q170,42 182,35 Q190,42 185,60 Z" fill="#2a2a3a" stroke="#2d263c" stroke-width="5" stroke-linejoin="round"/>
  <path d="M189,65 Q188,46 198,38 Q205,47 199,65 Z" fill="#2a2a3a" stroke="#2d263c" stroke-width="4" stroke-linejoin="round"/>
  <path d="M161,67 Q157,50 168,44 Q174,53 169,67 Z" fill="#2a2a3a" stroke="#2d263c" stroke-width="4" stroke-linejoin="round"/>

  <!-- 足(左) -->
  <path d="M152,290 Q148,308 145,322" fill="none" stroke="#f09020" stroke-width="9" stroke-linecap="round"/>
  <!-- 足の指(左) -->
  <path d="M145,322 Q130,330 120,326" fill="none" stroke="#f09020" stroke-width="7" stroke-linecap="round"/>
  <path d="M145,322 Q140,335 133,334" fill="none" stroke="#f09020" stroke-width="7" stroke-linecap="round"/>
  <path d="M145,322 Q150,336 158,334" fill="none" stroke="#f09020" stroke-width="7" stroke-linecap="round"/>
  <path d="M145,322 Q158,329 168,326" fill="none" stroke="#f09020" stroke-width="7" stroke-linecap="round"/>

  <!-- 足(右) -->
  <path d="M210,288 Q214,306 218,320" fill="none" stroke="#f09020" stroke-width="9" stroke-linecap="round"/>
  <!-- 足の指(右) -->
  <path d="M218,320 Q230,330 242,326" fill="none" stroke="#f09020" stroke-width="7" stroke-linecap="round"/>
  <path d="M218,320 Q222,335 230,333" fill="none" stroke="#f09020" stroke-width="7" stroke-linecap="round"/>
  <path d="M218,320 Q212,336 204,334" fill="none" stroke="#f09020" stroke-width="7" stroke-linecap="round"/>
  <path d="M218,320 Q204,330 192,327" fill="none" stroke="#f09020" stroke-width="7" stroke-linecap="round"/>

  <!-- ほっぺ(赤みピンク) -->
  <ellipse cx="135" cy="130" rx="13" ry="9" fill="#ffaaaa" stroke="none" opacity="0.7"/>
  <ellipse cx="225" cy="129" rx="13" ry="9" fill="#ffaaaa" stroke="none" opacity="0.7"/>
</svg>