<svg xmlns="http://www.w3.org/2000/svg" viewBox="0 0 360 360">

  <!-- 影 -->
  <ellipse cx="180" cy="330" rx="55" ry="12" fill="#00000022"/>

  <!-- 尻尾(くるりと巻く) -->
  <path d="M165 300 Q140 310 130 295 Q118 278 130 262 Q142 248 158 255 Q172 262 170 278 Q168 292 158 298 Q148 302 142 295" fill="none" stroke="#2a6860" stroke-width="18" stroke-linejoin="round" stroke-linecap="round"/>
  <path d="M165 300 Q140 310 130 295 Q118 278 130 262 Q142 248 158 255 Q172 262 170 278 Q168 292 158 298 Q148 302 142 295" fill="none" stroke="#3a8070" stroke-width="10" stroke-linejoin="round" stroke-linecap="round"/>

  <!-- 胴体 -->
  <ellipse cx="180" cy="210" rx="38" ry="70" fill="#2a6860" stroke="#2d263c" stroke-width="7" stroke-linejoin="round"/>

  <!-- 腹面(明るめ) -->
  <ellipse cx="183" cy="215" rx="22" ry="52" fill="#3a8878" stroke="none"/>

  <!-- 海藻/ケルプ 胴体左 -->
  <path d="M145 180 Q128 165 132 148 Q136 132 148 140 Q152 155 148 168 Q146 175 145 180Z" fill="#3a8830" stroke="#2d263c" stroke-width="3" stroke-linejoin="round"/>
  <path d="M142 200 Q122 188 125 170 Q128 155 140 162 Q145 178 142 192 Q141 197 142 200Z" fill="#3a8830" stroke="#2d263c" stroke-width="3" stroke-linejoin="round"/>
  <path d="M143 225 Q120 215 122 198 Q124 183 137 190 Q143 206 142 220 Q142 223 143 225Z" fill="#4a9840" stroke="#2d263c" stroke-width="3" stroke-linejoin="round"/>

  <!-- 海藻/ケルプ 胴体右 -->
  <path d="M215 178 Q232 163 228 146 Q224 130 212 138 Q208 153 212 167 Q214 174 215 178Z" fill="#3a8830" stroke="#2d263c" stroke-width="3" stroke-linejoin="round"/>
  <path d="M218 200 Q238 188 235 170 Q232 155 220 162 Q215 178 218 192 Q218 197 218 200Z" fill="#3a8830" stroke="#2d263c" stroke-width="3" stroke-linejoin="round"/>
  <path d="M216 225 Q238 215 236 198 Q234 183 221 190 Q215 206 216 220 Q216 223 216 225Z" fill="#4a9840" stroke="#2d263c" stroke-width="3" stroke-linejoin="round"/>

  <!-- 首(S字カーブ) -->
  <path d="M168 148 Q148 140 150 122 Q152 105 168 102 Q182 100 188 112 Q194 125 182 138 Q175 145 168 148Z" fill="#2a6860" stroke="#2d263c" stroke-width="7" stroke-linejoin="round"/>

  <!-- 頭部(横長) -->
  <path d="M130 105 Q132 78 155 68 Q175 60 200 68 Q222 78 228 100 Q232 120 218 132 Q202 145 180 143 Q158 140 142 128 Q128 116 130 105Z" fill="#2a6860" stroke="#2d263c" stroke-width="8" stroke-linejoin="round"/>

  <!-- 頭の海藻(上) -->
  <path d="M155 68 Q148 48 155 38 Q162 30 168 42 Q170 55 162 68Z" fill="#3a8830" stroke="#2d263c" stroke-width="3" stroke-linejoin="round"/>
  <path d="M172 64 Q168 42 176 33 Q184 25 188 38 Q188 52 180 64Z" fill="#4a9840" stroke="#2d263c" stroke-width="3" stroke-linejoin="round"/>
  <path d="M188 67 Q188 46 196 38 Q204 30 208 44 Q206 58 196 67Z" fill="#3a8830" stroke="#2d263c" stroke-width="3" stroke-linejoin="round"/>
  <path d="M140 80 Q128 62 134 50 Q140 40 148 52 Q150 65 144 78Z" fill="#4a9840" stroke="#2d263c" stroke-width="3" stroke-linejoin="round"/>

  <!-- ドラゴン角/冠突起 -->
  <path d="M205 70 Q212 52 220 48 Q226 52 222 65 Q218 72 210 74Z" fill="#8030a0" stroke="#2d263c" stroke-width="4" stroke-linejoin="round"/>
  <path d="M218 78 Q228 62 236 60 Q242 65 236 76 Q230 84 222 84Z" fill="#8030a0" stroke="#2d263c" stroke-width="4" stroke-linejoin="round"/>

  <!-- 紫アクセント模様(体) -->
  <path d="M165 175 Q180 170 195 175" fill="none" stroke="#8030a0" stroke-width="4" stroke-linecap="round"/>
  <path d="M163 195 Q180 190 197 195" fill="none" stroke="#8030a0" stroke-width="4" stroke-linecap="round"/>
  <path d="M165 215 Q180 210 195 215" fill="none" stroke="#8030a0" stroke-width="4" stroke-linecap="round"/>

  <!-- 目(左) -->
  <ellipse cx="158" cy="100" rx="11" ry="10" fill="white" stroke="#2d263c" stroke-width="4"/>
  <ellipse cx="160" cy="100" rx="7" ry="7" fill="#cc2200"/>
  <ellipse cx="157" cy="97" rx="3" ry="3" fill="white"/>

  <!-- 目(右) -->
  <ellipse cx="202" cy="98" rx="11" ry="10" fill="white" stroke="#2d263c" stroke-width="4"/>
  <ellipse cx="204" cy="98" rx="7" ry="7" fill="#cc2200"/>
  <ellipse cx="201" cy="95" rx="3" ry="3" fill="white"/>

  <!-- 鼻孔 -->
  <ellipse cx="172" cy="108" rx="4" ry="3" fill="#1a4840"/>
  <ellipse cx="188" cy="108" rx="4" ry="3" fill="#1a4840"/>

  <!-- 口(細長い吻) -->
  <path d="M145 118 Q180 128 215 116" fill="none" stroke="#2d263c" stroke-width="4" stroke-linecap="round"/>

  <!-- ひれ(左、海藻に溶け込む) -->
  <path d="M142 195 Q115 188 108 175 Q105 162 118 158 Q130 155 140 168Z" fill="#3a7858" stroke="#2d263c" stroke-width="5" stroke-linejoin="round"/>
  <!-- ひれ(右) -->
  <path d="M218 195 Q245 188 252 175 Q255 162 242 158 Q230 155 220 168Z" fill="#3a7858" stroke="#2d263c" stroke-width="5" stroke-linejoin="round"/>

</svg>
