<svg xmlns="http://www.w3.org/2000/svg" viewBox="0 0 360 360">
  <!-- 尾羽(後ろ) -->
  <path d="M235 235 Q270 250 300 235 Q275 258 280 285 Q260 262 250 285 Q245 258 232 278 Q228 252 215 265 Q222 245 225 225" fill="#b8874a" stroke="#2d263c" stroke-width="7" stroke-linejoin="round" stroke-linecap="round"/>

  <!-- 左の小さな翼(後ろ) -->
  <path d="M115 215 Q90 225 78 245 Q95 232 112 232 Q100 245 96 260 Q112 245 120 232" fill="#b8874a" stroke="#2d263c" stroke-width="6" stroke-linejoin="round" stroke-linecap="round"/>

  <!-- 右の小さな翼(後ろ) -->
  <path d="M245 215 Q270 225 282 245 Q265 232 248 232 Q260 245 264 260 Q248 245 240 232" fill="#b8874a" stroke="#2d263c" stroke-width="6" stroke-linejoin="round" stroke-linecap="round"/>

  <!-- 胴体 -->
  <ellipse cx="180" cy="235" rx="88" ry="82" fill="#d9ac6c" stroke="#2d263c" stroke-width="8" stroke-linejoin="round"/>

  <!-- お腹の明るい模様 -->
  <ellipse cx="180" cy="255" rx="42" ry="46" fill="#eecf9a" stroke="#2d263c" stroke-width="4"/>

  <!-- 左脚 -->
  <path d="M148 300 Q142 320 138 340 Q130 348 120 350 Q132 344 136 336 Q128 346 122 352 Q136 348 140 338 Q140 348 134 356 Q146 350 148 336 Q152 320 158 300Z" fill="#f0c94a" stroke="#2d263c" stroke-width="6" stroke-linejoin="round" stroke-linecap="round"/>

  <!-- 右脚 -->
  <path d="M212 300 Q218 320 222 340 Q230 348 240 350 Q228 344 224 336 Q232 346 238 352 Q224 348 220 338 Q220 348 226 356 Q214 350 212 336 Q208 320 202 300Z" fill="#f0c94a" stroke="#2d263c" stroke-width="6" stroke-linejoin="round" stroke-linecap="round"/>

  <!-- 左の首 -->
  <path d="M140 195 Q118 175 108 150 Q124 168 138 178 Q132 158 128 138 Q142 160 150 182 Q156 170 158 195Z" fill="#d9ac6c" stroke="#2d263c" stroke-width="7" stroke-linejoin="round"/>

  <!-- 右の首 -->
  <path d="M220 195 Q242 175 252 150 Q236 168 222 178 Q228 158 232 138 Q218 160 210 182 Q204 170 202 195Z" fill="#d9ac6c" stroke="#2d263c" stroke-width="7" stroke-linejoin="round"/>

  <!-- 中央の首 -->
  <path d="M164 185 Q160 155 165 125 Q175 145 178 165 Q181 145 191 125 Q196 155 192 185Z" fill="#d9ac6c" stroke="#2d263c" stroke-width="7" stroke-linejoin="round"/>

  <!-- 左の頭 -->
  <ellipse cx="105" cy="128" rx="34" ry="31" fill="#d9ac6c" stroke="#2d263c" stroke-width="7" stroke-linejoin="round"/>
  <!-- 左トサカ -->
  <path d="M90 100 Q85 78 78 60 Q92 78 98 96 Q100 74 98 54 Q108 76 108 98 Q114 78 118 58 Q118 80 112 100" fill="#9c4a2e" stroke="#2d263c" stroke-width="5" stroke-linejoin="round" stroke-linecap="round"/>
  <!-- 左くちばし -->
  <path d="M75 135 Q60 138 48 140 Q62 148 76 148 L80 152 Q88 148 90 138Z" fill="#f0932c" stroke="#2d263c" stroke-width="5" stroke-linejoin="round"/>
  <!-- 左目 -->
  <circle cx="112" cy="122" r="8" fill="#1a1220" stroke="#2d263c" stroke-width="3"/>
  <circle cx="115" cy="119" r="2.5" fill="white"/>

  <!-- 右の頭 -->
  <ellipse cx="255" cy="128" rx="34" ry="31" fill="#d9ac6c" stroke="#2d263c" stroke-width="7" stroke-linejoin="round"/>
  <!-- 右トサカ -->
  <path d="M270 100 Q275 78 282 60 Q268 78 262 96 Q260 74 262 54 Q252 76 252 98 Q246 78 242 58 Q242 80 248 100" fill="#9c4a2e" stroke="#2d263c" stroke-width="5" stroke-linejoin="round" stroke-linecap="round"/>
  <!-- 右くちばし -->
  <path d="M285 135 Q300 138 312 140 Q298 148 284 148 L280 152 Q272 148 270 138Z" fill="#f0932c" stroke="#2d263c" stroke-width="5" stroke-linejoin="round"/>
  <!-- 右目 -->
  <circle cx="248" cy="122" r="8" fill="#1a1220" stroke="#2d263c" stroke-width="3"/>
  <circle cx="245" cy="119" r="2.5" fill="white"/>

  <!-- 中央の頭 -->
  <ellipse cx="180" cy="105" rx="36" ry="33" fill="#d9ac6c" stroke="#2d263c" stroke-width="8" stroke-linejoin="round"/>
  <!-- 中央トサカ -->
  <path d="M163 76 Q158 54 152 34 Q168 54 174 74 Q176 50 178 28 Q182 50 184 74 Q190 54 192 34 Q198 54 197 76" fill="#9c4a2e" stroke="#2d263c" stroke-width="5" stroke-linejoin="round" stroke-linecap="round"/>
  <!-- 中央くちばし -->
  <path d="M160 112 Q180 106 200 112 L194 128 Q180 136 166 128Z" fill="#f0932c" stroke="#2d263c" stroke-width="5" stroke-linejoin="round"/>
  <line x1="180" y1="110" x2="180" y2="128" stroke="#c46f1e" stroke-width="3" stroke-linecap="round"/>
  <!-- 中央の目 -->
  <circle cx="163" cy="98" r="9" fill="#1a1220" stroke="#2d263c" stroke-width="3"/>
  <circle cx="197" cy="98" r="9" fill="#1a1220" stroke="#2d263c" stroke-width="3"/>
  <circle cx="166" cy="94" r="3" fill="white"/>
  <circle cx="200" cy="94" r="3" fill="white"/>
</svg>
