<svg xmlns="http://www.w3.org/2000/svg" viewBox="0 0 360 360">
  <path d="M180,140 C120,180 88,238 108,298 C118,326 148,344 170,328 C155,318 150,298 165,283 C190,258 212,218 202,168 C198,153 190,144 180,140 Z" fill="#d6c8f2" stroke="#2d263c" stroke-width="7" stroke-linejoin="round" stroke-linecap="round"/>
  <path d="M108,298 Q92,314 102,330 Q114,320 118,304 Z" fill="#d6c8f2" stroke="#2d263c" stroke-width="6" stroke-linejoin="round" stroke-linecap="round"/>
  <path d="M132,312 Q120,326 128,338 Q138,330 140,316 Z" fill="#d6c8f2" stroke="#2d263c" stroke-width="6" stroke-linejoin="round" stroke-linecap="round"/>
  <path d="M140,200 Q152,212 145,228" stroke="#2d263c" stroke-width="4" fill="none" stroke-linecap="round"/>
  <path d="M160,245 Q172,258 163,272" stroke="#2d263c" stroke-width="4" fill="none" stroke-linecap="round"/>
  <path d="M170,68 Q185,28 200,68 Z" fill="#ad8fdc" stroke="#2d263c" stroke-width="6" stroke-linejoin="round" stroke-linecap="round"/>
  <path d="M128,95 Q98,78 100,115 Q118,122 132,108 Z" fill="#ad8fdc" stroke="#2d263c" stroke-width="6" stroke-linejoin="round" stroke-linecap="round"/>
  <path d="M242,95 Q272,78 270,115 Q252,122 238,108 Z" fill="#ad8fdc" stroke="#2d263c" stroke-width="6" stroke-linejoin="round" stroke-linecap="round"/>
  <ellipse cx="185" cy="115" rx="60" ry="52" fill="#cbb8ec" stroke="#2d263c" stroke-width="8" stroke-linejoin="round"/>
  <ellipse cx="185" cy="150" rx="30" ry="20" fill="#e8ddf9" stroke="#2d263c" stroke-width="6" stroke-linejoin="round"/>
  <circle cx="160" cy="112" r="20" fill="#df4b42" stroke="#2d263c" stroke-width="6"/>
  <circle cx="210" cy="112" r="20" fill="#df4b42" stroke="#2d263c" stroke-width="6"/>
  <circle cx="160" cy="115" r="7" fill="#2d263c"/>
  <circle cx="210" cy="115" r="7" fill="#2d263c"/>
  <circle cx="154" cy="105" r="4" fill="#ffffff"/>
  <circle cx="204" cy="105" r="4" fill="#ffffff"/>
  <path d="M170,160 Q185,168 200,160" stroke="#2d263c" stroke-width="5" fill="none" stroke-linecap="round"/>
  <path d="M182,161 L178,171 L186,171 Z" fill="#ffffff" stroke="#2d263c" stroke-width="3" stroke-linejoin="round"/>
</svg>
