<svg xmlns="http://www.w3.org/2000/svg" viewBox="0 0 360 360">
  <rect x="116" y="226" width="22" height="60" rx="7" fill="#a8794d" stroke="#2d263c" stroke-width="7"/>
  <rect x="150" y="229" width="22" height="57" rx="7" fill="#9c6e44" stroke="#2d263c" stroke-width="7"/>
  <rect x="111" y="282" width="32" height="15" rx="4" fill="#6b6356" stroke="#2d263c" stroke-width="6"/>
  <rect x="145" y="282" width="32" height="15" rx="4" fill="#6b6356" stroke="#2d263c" stroke-width="6"/>
  <ellipse cx="150" cy="208" rx="68" ry="46" fill="#a8794d" stroke="#2d263c" stroke-width="8"/>
  <path d="M86 200 Q70 206 74 226" fill="none" stroke="#2d263c" stroke-width="8" stroke-linecap="round"/>
  <rect x="186" y="229" width="22" height="57" rx="7" fill="#9c6e44" stroke="#2d263c" stroke-width="7"/>
  <rect x="217" y="226" width="22" height="60" rx="7" fill="#a8794d" stroke="#2d263c" stroke-width="7"/>
  <rect x="181" y="282" width="32" height="15" rx="4" fill="#6b6356" stroke="#2d263c" stroke-width="6"/>
  <rect x="213" y="282" width="32" height="15" rx="4" fill="#6b6356" stroke="#2d263c" stroke-width="6"/>
  <path d="M202 184 Q236 154 278 158 L284 196 Q252 206 216 200 Z" fill="#a8794d" stroke="#2d263c" stroke-width="8" stroke-linejoin="round"/>
  <ellipse cx="278" cy="172" rx="40" ry="33" fill="#a8794d" stroke="#2d263c" stroke-width="8"/>
  <ellipse cx="300" cy="186" rx="22" ry="17" fill="#c9a079" stroke="#2d263c" stroke-width="7"/>
  <path d="M258 142 L250 98 L272 138 Z" fill="#a8794d" stroke="#2d263c" stroke-width="7" stroke-linejoin="round"/>
  <path d="M282 140 L292 100 L296 144 Z" fill="#a8794d" stroke="#2d263c" stroke-width="7" stroke-linejoin="round"/>
  <path d="M242 162 Q248 150 259 158 Q253 173 244 173 Z" fill="#6b4a2e" stroke="#2d263c" stroke-width="6" stroke-linejoin="round"/>
  <path d="M225 178 Q232 165 243 174 Q237 187 228 184 Z" fill="#6b4a2e" stroke="#2d263c" stroke-width="6" stroke-linejoin="round"/>
  <circle cx="270" cy="166" r="7" fill="#2d263c"/>
  <circle cx="272" cy="164" r="2.2" fill="#ffffff"/>
  <circle cx="302" cy="182" r="3" fill="#2d263c"/>
</svg>
