<svg xmlns="http://www.w3.org/2000/svg" viewBox="0 0 360 360">
<ellipse cx="115" cy="262" rx="46" ry="46" fill="#2d263c"/>
<ellipse cx="270" cy="262" rx="46" ry="46" fill="#2d263c"/>
<circle cx="115" cy="262" r="17" fill="#ffd23f" stroke="#2d263c" stroke-width="6"/>
<circle cx="270" cy="262" r="17" fill="#ffd23f" stroke="#2d263c" stroke-width="6"/>
<path d="M62,190 C60,148 100,108 168,102 L 250,102 C 296,104 322,140 322,180 C 324,214 296,238 254,242 L 88,242 C 66,238 63,214 62,190 Z" fill="#8f5fc8" stroke="#2d263c" stroke-width="8" stroke-linejoin="round"/>
<path d="M64,196 C90,214 260,214 320,190 L 318,222 C 260,240 90,240 66,220 Z" fill="#5b3690" stroke="#2d263c" stroke-width="7" stroke-linejoin="round"/>
<path d="M255,104 C296,106 320,138 321,176" fill="none" stroke="#2d263c" stroke-width="8" stroke-linecap="round"/>
<path d="M296,96 C288,110 284,128 292,142 C302,126 306,108 296,96 Z" fill="#ffd23f" stroke="#2d263c" stroke-width="7" stroke-linejoin="round"/>
<path d="M262,90 C258,106 258,122 268,134 C276,116 276,100 262,90 Z" fill="#ffd23f" stroke="#2d263c" stroke-width="7" stroke-linejoin="round"/>
<ellipse cx="272" cy="168" rx="26" ry="19" fill="#ffffff" stroke="#2d263c" stroke-width="7"/>
<circle cx="279" cy="168" r="10" fill="#3fe2ff" stroke="#2d263c" stroke-width="4"/>
<path d="M290,196 C300,199 310,199 318,195" fill="none" stroke="#2d263c" stroke-width="7" stroke-linecap="round"/>
<path d="M90,150 L 150,140 L 170,160 L 230,150 L 250,170" fill="none" stroke="#ffd23f" stroke-width="9" stroke-linecap="round" stroke-linejoin="round"/>
<path d="M100,205 L 300,200" fill="none" stroke="#3fe2ff" stroke-width="6" stroke-linecap="round"/>
<path d="M60,178 C48,172 40,158 44,144 C56,150 64,162 64,178 Z" fill="#5b3690" stroke="#2d263c" stroke-width="7" stroke-linejoin="round"/>
<circle cx="130" cy="128" r="7" fill="#2d263c"/>
<circle cx="200" cy="122" r="7" fill="#2d263c"/>
<ellipse cx="150" cy="130" rx="28" ry="10" fill="#ffffff" opacity="0.35"/>
</svg>
