<svg xmlns="http://www.w3.org/2000/svg" viewBox="0 0 360 360">
  <!-- 木の葉っぱ(後ろ層) -->
  <ellipse cx="168" cy="52" rx="52" ry="38" fill="#2e8b2e" stroke="#2d263c" stroke-width="6" stroke-linejoin="round"/>
  <ellipse cx="210" cy="44" rx="40" ry="30" fill="#3aad3a" stroke="#2d263c" stroke-width="6" stroke-linejoin="round"/>
  <ellipse cx="140" cy="48" rx="36" ry="28" fill="#3aad3a" stroke="#2d263c" stroke-width="6" stroke-linejoin="round"/>
  <ellipse cx="180" cy="38" rx="32" ry="24" fill="#4dc44d" stroke="#2d263c" stroke-width="5" stroke-linejoin="round"/>

  <!-- 木の幹 -->
  <rect x="164" y="82" width="24" height="32" rx="6" fill="#7a4a1e" stroke="#2d263c" stroke-width="6" stroke-linejoin="round"/>

  <!-- 甲羅(岩) -->
  <ellipse cx="178" cy="148" rx="82" ry="52" fill="#7a6a4a" stroke="#2d263c" stroke-width="7" stroke-linejoin="round"/>
  <!-- 甲羅の岩模様 -->
  <ellipse cx="155" cy="140" rx="22" ry="16" fill="#6a5a38" stroke="#2d263c" stroke-width="4" stroke-linejoin="round"/>
  <ellipse cx="196" cy="152" rx="18" ry="13" fill="#6a5a38" stroke="#2d263c" stroke-width="4" stroke-linejoin="round"/>
  <ellipse cx="174" cy="162" rx="14" ry="10" fill="#6a5a38" stroke="#2d263c" stroke-width="3" stroke-linejoin="round"/>

  <!-- 体(胴体) -->
  <ellipse cx="178" cy="220" rx="100" ry="60" fill="#3d7a2a" stroke="#2d263c" stroke-width="8" stroke-linejoin="round"/>

  <!-- 腹(クリーム) -->
  <ellipse cx="178" cy="228" rx="62" ry="38" fill="#d4c88a" stroke="#2d263c" stroke-width="5" stroke-linejoin="round"/>

  <!-- 首まわりのギザギザえり -->
  <polygon points="120,178 132,165 142,178 154,162 164,176 176,160 188,175 200,161 210,176 222,163 232,178" fill="#e8dca0" stroke="#2d263c" stroke-width="5" stroke-linejoin="round" stroke-linecap="round"/>

  <!-- 後ろ足(左) -->
  <ellipse cx="104" cy="268" rx="26" ry="36" fill="#2e6020" stroke="#2d263c" stroke-width="7" stroke-linejoin="round"/>
  <ellipse cx="104" cy="298" rx="30" ry="14" fill="#2e6020" stroke="#2d263c" stroke-width="6" stroke-linejoin="round"/>
  <!-- 爪(左後) -->
  <ellipse cx="88" cy="308" rx="8" ry="5" fill="#1a3a10" stroke="#2d263c" stroke-width="4"/>
  <ellipse cx="104" cy="312" rx="8" ry="5" fill="#1a3a10" stroke="#2d263c" stroke-width="4"/>
  <ellipse cx="120" cy="308" rx="8" ry="5" fill="#1a3a10" stroke="#2d263c" stroke-width="4"/>

  <!-- 後ろ足(右) -->
  <ellipse cx="252" cy="268" rx="26" ry="36" fill="#2e6020" stroke="#2d263c" stroke-width="7" stroke-linejoin="round"/>
  <ellipse cx="252" cy="298" rx="30" ry="14" fill="#2e6020" stroke="#2d263c" stroke-width="6" stroke-linejoin="round"/>
  <!-- 爪(右後) -->
  <ellipse cx="236" cy="308" rx="8" ry="5" fill="#1a3a10" stroke="#2d263c" stroke-width="4"/>
  <ellipse cx="252" cy="312" rx="8" ry="5" fill="#1a3a10" stroke="#2d263c" stroke-width="4"/>
  <ellipse cx="268" cy="308" rx="8" ry="5" fill="#1a3a10" stroke="#2d263c" stroke-width="4"/>

  <!-- 前足(左) -->
  <ellipse cx="118" cy="248" rx="22" ry="30" fill="#3d7a2a" stroke="#2d263c" stroke-width="7" stroke-linejoin="round"/>
  <ellipse cx="114" cy="274" rx="26" ry="12" fill="#3d7a2a" stroke="#2d263c" stroke-width="6" stroke-linejoin="round"/>
  <!-- 爪(左前) -->
  <ellipse cx="100" cy="282" rx="7" ry="5" fill="#1a3a10" stroke="#2d263c" stroke-width="3"/>
  <ellipse cx="114" cy="286" rx="7" ry="5" fill="#1a3a10" stroke="#2d263c" stroke-width="3"/>
  <ellipse cx="128" cy="282" rx="7" ry="5" fill="#1a3a10" stroke="#2d263c" stroke-width="3"/>

  <!-- 前足(右) -->
  <ellipse cx="238" cy="248" rx="22" ry="30" fill="#3d7a2a" stroke="#2d263c" stroke-width="7" stroke-linejoin="round"/>
  <ellipse cx="242" cy="274" rx="26" ry="12" fill="#3d7a2a" stroke="#2d263c" stroke-width="6" stroke-linejoin="round"/>
  <!-- 爪(右前) -->
  <ellipse cx="228" cy="282" rx="7" ry="5" fill="#1a3a10" stroke="#2d263c" stroke-width="3"/>
  <ellipse cx="242" cy="286" rx="7" ry="5" fill="#1a3a10" stroke="#2d263c" stroke-width="3"/>
  <ellipse cx="256" cy="282" rx="7" ry="5" fill="#1a3a10" stroke="#2d263c" stroke-width="3"/>

  <!-- 頭 -->
  <ellipse cx="178" cy="184" rx="46" ry="38" fill="#3d7a2a" stroke="#2d263c" stroke-width="8" stroke-linejoin="round"/>

  <!-- 頭の葉の突起 -->
  <ellipse cx="170" cy="150" rx="10" ry="16" fill="#3aad3a" stroke="#2d263c" stroke-width="5" stroke-linejoin="round" transform="rotate(-15 170 150)"/>
  <ellipse cx="188" cy="148" rx="9" ry="14" fill="#4dc44d" stroke="#2d263c" stroke-width="4" stroke-linejoin="round" transform="rotate(10 188 148)"/>

  <!-- 顎(大きめ) -->
  <ellipse cx="178" cy="206" rx="36" ry="20" fill="#2e6020" stroke="#2d263c" stroke-width="6" stroke-linejoin="round"/>
  <!-- 口のライン -->
  <path d="M158,208 Q178,218 198,208" fill="none" stroke="#2d263c" stroke-width="5" stroke-linecap="round"/>

  <!-- 目(鋭い・左) -->
  <ellipse cx="160" cy="182" rx="11" ry="9" fill="#fff" stroke="#2d263c" stroke-width="4"/>
  <ellipse cx="162" cy="183" rx="7" ry="7" fill="#1a1a1a"/>
  <ellipse cx="164" cy="181" rx="2" ry="2" fill="#fff"/>
  <!-- まぶた(鋭く) -->
  <path d="M149,178 Q160,174 171,178" fill="none" stroke="#2d263c" stroke-width="4" stroke-linecap="round"/>

  <!-- 目(鋭い・右) -->
  <ellipse cx="196" cy="182" rx="11" ry="9" fill="#fff" stroke="#2d263c" stroke-width="4"/>
  <ellipse cx="198" cy="183" rx="7" ry="7" fill="#1a1a1a"/>
  <ellipse cx="200" cy="181" rx="2" ry="2" fill="#fff"/>
  <!-- まぶた(鋭く) -->
  <path d="M185,178 Q196,174 207,178" fill="none" stroke="#2d263c" stroke-width="4" stroke-linecap="round"/>

  <!-- 鼻の穴 -->
  <ellipse cx="172" cy="194" rx="3" ry="2" fill="#1a3a10"/>
  <ellipse cx="184" cy="194" rx="3" ry="2" fill="#1a3a10"/>
</svg>