<svg xmlns="http://www.w3.org/2000/svg" viewBox="0 0 360 360">
  <!-- 尻尾(後ろ・パレット状の先端) -->
  <path d="M222 235 Q260 210 275 165 Q288 125 300 90" fill="none" stroke="#EFE6CE" stroke-width="26" stroke-linecap="round"/>
  <path d="M222 235 Q260 210 275 165 Q288 125 300 90" fill="none" stroke="#2d263c" stroke-width="8" stroke-linecap="round" stroke-linejoin="round"/>

  <!-- パレット(尻尾の先) -->
  <path d="M262 60 Q300 40 328 62 Q344 78 332 100 Q318 122 292 118 Q268 114 258 92 Q252 76 262 60Z" fill="#F7EFDD" stroke="#2d263c" stroke-width="7" stroke-linejoin="round" stroke-linecap="round"/>
  <ellipse cx="286" cy="90" rx="10" ry="8" fill="#E4D9B8" stroke="#2d263c" stroke-width="4"/>
  <circle cx="272" cy="66" r="8" fill="#E74C3C" stroke="#2d263c" stroke-width="4"/>
  <circle cx="300" cy="58" r="8" fill="#4A90D9" stroke="#2d263c" stroke-width="4"/>
  <circle cx="322" cy="74" r="8" fill="#F4D03F" stroke="#2d263c" stroke-width="4"/>
  <circle cx="312" cy="100" r="8" fill="#4CAF50" stroke="#2d263c" stroke-width="4"/>

  <!-- 左耳(後ろ) -->
  <path d="M138 65 Q100 90 92 140 Q86 178 112 190 Q126 196 130 178 Q118 150 128 112 Q134 88 138 65Z" fill="#F7EFDD" stroke="#2d263c" stroke-width="7" stroke-linejoin="round" stroke-linecap="round"/>
  <path d="M120 108 Q108 140 112 172" fill="none" stroke="#F0AFC4" stroke-width="10" stroke-linecap="round"/>

  <!-- 右耳(後ろ) -->
  <path d="M206 65 Q244 90 252 140 Q258 178 232 190 Q218 196 214 178 Q226 150 216 112 Q210 88 206 65Z" fill="#F7EFDD" stroke="#2d263c" stroke-width="7" stroke-linejoin="round" stroke-linecap="round"/>
  <path d="M224 108 Q236 140 232 172" fill="none" stroke="#F0AFC4" stroke-width="10" stroke-linecap="round"/>

  <!-- 左脚 -->
  <path d="M146 275 Q136 305 132 332" fill="none" stroke="#F7EFDD" stroke-width="24" stroke-linecap="round"/>
  <path d="M146 275 Q136 305 132 332" fill="none" stroke="#2d263c" stroke-width="7" stroke-linecap="round"/>
  <ellipse cx="126" cy="336" rx="20" ry="12" fill="#F7EFDD" stroke="#2d263c" stroke-width="7"/>

  <!-- 右脚 -->
  <path d="M204 275 Q216 305 220 332" fill="none" stroke="#F7EFDD" stroke-width="24" stroke-linecap="round"/>
  <path d="M204 275 Q216 305 220 332" fill="none" stroke="#2d263c" stroke-width="7" stroke-linecap="round"/>
  <ellipse cx="226" cy="336" rx="20" ry="12" fill="#F7EFDD" stroke="#2d263c" stroke-width="7"/>

  <!-- 左腕 -->
  <path d="M118 205 Q92 220 84 244" fill="none" stroke="#F7EFDD" stroke-width="18" stroke-linecap="round"/>
  <path d="M118 205 Q92 220 84 244" fill="none" stroke="#2d263c" stroke-width="6" stroke-linecap="round"/>
  <ellipse cx="80" cy="250" rx="13" ry="11" fill="#F7EFDD" stroke="#2d263c" stroke-width="6"/>

  <!-- 右腕 -->
  <path d="M228 200 Q248 218 254 238" fill="none" stroke="#F7EFDD" stroke-width="18" stroke-linecap="round"/>
  <path d="M228 200 Q248 218 254 238" fill="none" stroke="#2d263c" stroke-width="6" stroke-linecap="round"/>
  <ellipse cx="256" cy="244" rx="13" ry="11" fill="#F7EFDD" stroke="#2d263c" stroke-width="6"/>

  <!-- 体 -->
  <path d="M175 128 Q235 132 244 200 Q250 250 226 280 Q198 300 175 300 Q152 300 124 280 Q100 250 106 200 Q115 132 175 128Z" fill="#F7EFDD" stroke="#2d263c" stroke-width="8" stroke-linejoin="round" stroke-linecap="round"/>

  <!-- 胸の模様(桃色パッチ) -->
  <path d="M148 220 Q175 240 202 220 Q206 250 175 262 Q144 250 148 220Z" fill="#F0AFC4" stroke="#2d263c" stroke-width="5" stroke-linejoin="round"/>

  <!-- 頭 -->
  <circle cx="175" cy="100" r="58" fill="#F7EFDD" stroke="#2d263c" stroke-width="8"/>

  <!-- マズル(鼻先・桃色) -->
  <ellipse cx="175" cy="122" rx="24" ry="16" fill="#F0AFC4" stroke="#2d263c" stroke-width="6"/>

  <!-- 目 -->
  <circle cx="153" cy="92" r="8" fill="#2d263c"/>
  <circle cx="197" cy="92" r="8" fill="#2d263c"/>

  <!-- 鼻 -->
  <circle cx="175" cy="116" r="5" fill="#2d263c"/>

  <!-- 口 -->
  <path d="M160 130 Q175 138 190 130" fill="none" stroke="#2d263c" stroke-width="5" stroke-linecap="round"/>
</svg>
