<svg xmlns="http://www.w3.org/2000/svg" viewBox="0 0 360 360">
  <path d="M215,275 C245,285 280,295 305,320 C288,300 265,292 240,285 C230,283 220,280 215,275 Z" fill="#93c3de" stroke="#2d263c" stroke-width="7" stroke-linejoin="round" stroke-linecap="round"/>
  <path d="M180,55 C125,55 88,100 85,155 C82,205 95,265 138,298 C160,313 200,313 222,298 C265,265 278,205 275,155 C272,100 235,55 180,55 Z" fill="#a9d3ea" stroke="#2d263c" stroke-width="8" stroke-linejoin="round" stroke-linecap="round"/>
  <ellipse cx="180" cy="235" rx="55" ry="45" fill="#eaf6fc"/>
  <path d="M125,95 Q150,78 175,95 Q200,112 225,95" fill="none" stroke="#33506e" stroke-width="10" stroke-linecap="round"/>
  <path d="M105,150 Q140,130 175,150 Q210,170 245,150" fill="none" stroke="#33506e" stroke-width="10" stroke-linecap="round"/>
  <circle cx="123" cy="142" r="16" fill="#d9622e" stroke="#2d263c" stroke-width="6"/>
  <circle cx="237" cy="142" r="16" fill="#d9622e" stroke="#2d263c" stroke-width="6"/>
  <ellipse cx="93" cy="205" rx="20" ry="30" fill="#8fc0dd" stroke="#2d263c" stroke-width="7"/>
  <ellipse cx="267" cy="205" rx="20" ry="30" fill="#8fc0dd" stroke="#2d263c" stroke-width="7"/>
  <path d="M155,175 Q145,195 150,222" fill="none" stroke="#2d263c" stroke-width="6" stroke-linecap="round"/>
  <path d="M205,175 Q215,195 210,222" fill="none" stroke="#2d263c" stroke-width="6" stroke-linecap="round"/>
  <circle cx="150" cy="110" r="17" fill="#ffffff" stroke="#2d263c" stroke-width="6"/>
  <circle cx="210" cy="110" r="17" fill="#ffffff" stroke="#2d263c" stroke-width="6"/>
  <circle cx="150" cy="113" r="8" fill="#2d263c"/>
  <circle cx="210" cy="113" r="8" fill="#2d263c"/>
  <path d="M165,150 Q180,161 195,150" fill="none" stroke="#2d263c" stroke-width="6" stroke-linecap="round"/>
</svg>
