<svg xmlns="http://www.w3.org/2000/svg" viewBox="0 0 360 360">
  <g stroke="#2d263c" stroke-width="7" stroke-linecap="round" stroke-linejoin="round">
    <!-- 後ろ: しっぽ・あし -->
    <ellipse cx="298" cy="238" rx="22" ry="18" fill="#c1543a"/>
    <rect x="92" y="272" width="34" height="52" rx="15" fill="#d9a066"/>
    <rect x="150" y="278" width="32" height="50" rx="15" fill="#d9a066"/>
    <rect x="222" y="278" width="32" height="50" rx="15" fill="#d9a066"/>
    <rect x="272" y="270" width="34" height="52" rx="15" fill="#d9a066"/>
    <ellipse cx="109" cy="326" rx="20" ry="10" fill="#7a5636" stroke-width="6"/>
    <ellipse cx="166" cy="330" rx="18" ry="9" fill="#7a5636" stroke-width="6"/>
    <ellipse cx="238" cy="330" rx="18" ry="9" fill="#7a5636" stroke-width="6"/>
    <ellipse cx="289" cy="324" rx="20" ry="10" fill="#7a5636" stroke-width="6"/>

    <!-- 体 -->
    <ellipse cx="185" cy="225" rx="118" ry="78" fill="#ecbb7a"/>
    <ellipse cx="196" cy="268" rx="72" ry="34" fill="#f7ddb0" stroke-width="6"/>
    <circle cx="225" cy="163" r="44" fill="#c1543a"/>
    <circle cx="225" cy="152" r="16" fill="#8f3524" stroke-width="6"/>

    <!-- 顔 -->
    <ellipse cx="55" cy="118" rx="21" ry="27" fill="#ecbb7a" stroke-width="6"/>
    <ellipse cx="128" cy="112" rx="19" ry="25" fill="#ecbb7a" stroke-width="6"/>
    <circle cx="97" cy="172" r="66" fill="#ecbb7a"/>
    <ellipse cx="44" cy="197" rx="35" ry="27" fill="#f7ddb0"/>
    <ellipse cx="24" cy="194" rx="9" ry="7" fill="#2d263c" stroke="none"/>
    <circle cx="76" cy="157" r="8" fill="#2d263c" stroke="none"/>
    <circle cx="114" cy="152" r="8" fill="#2d263c" stroke="none"/>
    <circle cx="73" cy="154" r="2.5" fill="#ffffff" stroke="none"/>
    <circle cx="111" cy="149" r="2.5" fill="#ffffff" stroke="none"/>
    <path d="M38,217 Q54,225 68,216" fill="none" stroke-width="6"/>
    <circle cx="58" cy="178" r="11" fill="#f4a68c" stroke="none"/>
    <circle cx="122" cy="171" r="11" fill="#f4a68c" stroke="none"/>
  </g>
</svg>
