<svg xmlns="http://www.w3.org/2000/svg" viewBox="0 0 360 360">

  <!-- 触手・脚(後ろ側・左右外側) -->
  <line x1="110" y1="255" x2="62" y2="310" stroke="#1a3a7a" stroke-width="7" stroke-linecap="round"/>
  <line x1="128" y1="268" x2="85" y2="335" stroke="#1a3a7a" stroke-width="7" stroke-linecap="round"/>
  <line x1="148" y1="276" x2="118" y2="348" stroke="#1a3a7a" stroke-width="7" stroke-linecap="round"/>
  <line x1="250" y1="255" x2="298" y2="310" stroke="#1a3a7a" stroke-width="7" stroke-linecap="round"/>
  <line x1="232" y1="268" x2="275" y2="335" stroke="#1a3a7a" stroke-width="7" stroke-linecap="round"/>
  <line x1="212" y1="276" x2="242" y2="348" stroke="#1a3a7a" stroke-width="7" stroke-linecap="round"/>
  <line x1="180" y1="280" x2="180" y2="350" stroke="#1a3a7a" stroke-width="7" stroke-linecap="round"/>

  <!-- ウニ型大きな青い下半身 本体 -->
  <ellipse cx="180" cy="240" rx="98" ry="80" fill="#1e4d9a" stroke="#2d263c" stroke-width="7"/>

  <!-- 下半身のトゲ(放射状・たくさん・鋭い) -->
  <!-- 上部トゲ -->
  <polygon points="180,158  172,178  188,178" fill="#1a3a7a" stroke="#2d263c" stroke-width="5" stroke-linejoin="round"/>
  <polygon points="155,162  150,183  165,180" fill="#1a3a7a" stroke="#2d263c" stroke-width="5" stroke-linejoin="round"/>
  <polygon points="205,162  195,180  210,183" fill="#1a3a7a" stroke="#2d263c" stroke-width="5" stroke-linejoin="round"/>
  <polygon points="132,172  131,193  146,187" fill="#1a3a7a" stroke="#2d263c" stroke-width="5" stroke-linejoin="round"/>
  <polygon points="228,172  214,187  229,193" fill="#1a3a7a" stroke="#2d263c" stroke-width="5" stroke-linejoin="round"/>

  <!-- 左側トゲ -->
  <polygon points="82,220  103,215  100,230" fill="#1a3a7a" stroke="#2d263c" stroke-width="5" stroke-linejoin="round"/>
  <polygon points="75,245  98,237  97,253" fill="#1a3a7a" stroke="#2d263c" stroke-width="5" stroke-linejoin="round"/>
  <polygon points="82,268  103,258  105,274" fill="#1a3a7a" stroke="#2d263c" stroke-width="5" stroke-linejoin="round"/>
  <polygon points="95,290  114,277  118,293" fill="#1a3a7a" stroke="#2d263c" stroke-width="5" stroke-linejoin="round"/>

  <!-- 右側トゲ -->
  <polygon points="278,220  257,215  260,230" fill="#1a3a7a" stroke="#2d263c" stroke-width="5" stroke-linejoin="round"/>
  <polygon points="285,245  262,237  263,253" fill="#1a3a7a" stroke="#2d263c" stroke-width="5" stroke-linejoin="round"/>
  <polygon points="278,268  257,258  255,274" fill="#1a3a7a" stroke="#2d263c" stroke-width="5" stroke-linejoin="round"/>
  <polygon points="265,290  246,277  242,293" fill="#1a3a7a" stroke="#2d263c" stroke-width="5" stroke-linejoin="round"/>

  <!-- 下側トゲ -->
  <polygon points="155,315  163,295  175,300" fill="#1a3a7a" stroke="#2d263c" stroke-width="5" stroke-linejoin="round"/>
  <polygon points="205,315  197,295  185,300" fill="#1a3a7a" stroke="#2d263c" stroke-width="5" stroke-linejoin="round"/>
  <polygon points="130,305  142,284  154,292" fill="#1a3a7a" stroke="#2d263c" stroke-width="5" stroke-linejoin="round"/>
  <polygon points="230,305  218,284  206,292" fill="#1a3a7a" stroke="#2d263c" stroke-width="5" stroke-linejoin="round"/>

  <!-- 体の模様(青の濃淡) -->
  <ellipse cx="165" cy="235" rx="18" ry="14" fill="#2860b8" opacity="0.5"/>
  <ellipse cx="200" cy="250" rx="14" ry="10" fill="#2860b8" opacity="0.4"/>
  <ellipse cx="180" cy="260" rx="12" ry="8" fill="#2860b8" opacity="0.35"/>

  <!-- ピンク〜薄紫の丸い頭 -->
  <circle cx="180" cy="175" r="52" fill="#cc6aac" stroke="#2d263c" stroke-width="7"/>

  <!-- 頭のハイライト -->
  <ellipse cx="168" cy="158" rx="16" ry="10" fill="#e090c8" opacity="0.6"/>

  <!-- 頭のトゲ冠(上部に並ぶ) -->
  <polygon points="148,130  143,108  155,125" fill="#b8559a" stroke="#2d263c" stroke-width="5" stroke-linejoin="round"/>
  <polygon points="165,122  162,98  174,118" fill="#b8559a" stroke="#2d263c" stroke-width="5" stroke-linejoin="round"/>
  <polygon points="180,118  179,93  189,115" fill="#b8559a" stroke="#2d263c" stroke-width="5" stroke-linejoin="round"/>
  <polygon points="196,122  188,118  198,98" fill="#b8559a" stroke="#2d263c" stroke-width="5" stroke-linejoin="round"/>
  <polygon points="213,130  205,125  217,108" fill="#b8559a" stroke="#2d263c" stroke-width="5" stroke-linejoin="round"/>
  <polygon points="225,140  218,138  228,120" fill="#b8559a" stroke="#2d263c" stroke-width="5" stroke-linejoin="round"/>
  <polygon points="135,140  132,120  142,138" fill="#b8559a" stroke="#2d263c" stroke-width="5" stroke-linejoin="round"/>

  <!-- 顔パーツ: 眉(不機嫌そうな黒い模様) -->
  <rect x="155" y="163" width="18" height="6" rx="3" fill="#2d263c" transform="rotate(-15 164 166)"/>
  <rect x="187" y="163" width="18" height="6" rx="3" fill="#2d263c" transform="rotate(15 196 166)"/>

  <!-- 顔パーツ: 目(赤〜オレンジ) -->
  <circle cx="163" cy="177" r="9" fill="#e84040"/>
  <circle cx="197" cy="177" r="9" fill="#e84040"/>
  <circle cx="161" cy="175" r="4" fill="#2d263c"/>
  <circle cx="195" cy="175" r="4" fill="#2d263c"/>
  <!-- 目の光 -->
  <circle cx="164" cy="173" r="2" fill="white" opacity="0.8"/>
  <circle cx="198" cy="173" r="2" fill="white" opacity="0.8"/>

  <!-- 顔パーツ: 口(への字・不機嫌) -->
  <path d="M168,195 Q180,188 192,195" fill="none" stroke="#2d263c" stroke-width="5" stroke-linecap="round"/>

  <!-- 頭の側面小トゲ -->
  <polygon points="128,172  132,185  143,178" fill="#b8559a" stroke="#2d263c" stroke-width="4" stroke-linejoin="round"/>
  <polygon points="232,172  228,185  217,178" fill="#b8559a" stroke="#2d263c" stroke-width="4" stroke-linejoin="round"/>

</svg>