<svg xmlns="http://www.w3.org/2000/svg" viewBox="0 0 360 360">
  <rect x="55" y="126" width="250" height="32" rx="15" ry="15" fill="#9B6B3C" stroke="#2d263c" stroke-width="7" stroke-linejoin="round"/>
  <ellipse cx="70" cy="142" rx="17" ry="18" fill="#6E4423" stroke="#2d263c" stroke-width="6"/>
  <ellipse cx="290" cy="142" rx="17" ry="18" fill="#6E4423" stroke="#2d263c" stroke-width="6"/>
  <rect x="128" y="270" width="45" height="55" rx="20" ry="20" fill="#D8A878" stroke="#2d263c" stroke-width="7" stroke-linejoin="round"/>
  <rect x="187" y="270" width="45" height="55" rx="20" ry="20" fill="#D8A878" stroke="#2d263c" stroke-width="7" stroke-linejoin="round"/>
  <ellipse cx="150" cy="325" rx="28" ry="14" fill="#D8A878" stroke="#2d263c" stroke-width="7"/>
  <ellipse cx="210" cy="325" rx="28" ry="14" fill="#D8A878" stroke="#2d263c" stroke-width="7"/>
  <ellipse cx="180" cy="220" rx="68" ry="72" fill="#D8A878" stroke="#2d263c" stroke-width="7"/>
  <ellipse cx="110" cy="185" rx="22" ry="48" transform="rotate(25 110 185)" fill="#D8A878" stroke="#2d263c" stroke-width="7"/>
  <ellipse cx="250" cy="185" rx="22" ry="48" transform="rotate(-25 250 185)" fill="#D8A878" stroke="#2d263c" stroke-width="7"/>
  <ellipse cx="95" cy="148" rx="20" ry="18" fill="#D8A878" stroke="#2d263c" stroke-width="7"/>
  <ellipse cx="265" cy="148" rx="20" ry="18" fill="#D8A878" stroke="#2d263c" stroke-width="7"/>
  <circle cx="180" cy="95" r="48" fill="#D8A878" stroke="#2d263c" stroke-width="7"/>
  <path d="M160,58 Q150,35 165,25 Q172,40 180,20 Q188,40 195,25 Q210,35 200,58 Q180,68 160,58 Z" fill="#3D4B70" stroke="#2d263c" stroke-width="7" stroke-linejoin="round"/>
  <circle cx="162" cy="100" r="12" fill="#2d263c" stroke="#2d263c" stroke-width="2"/>
  <circle cx="198" cy="100" r="12" fill="#2d263c" stroke="#2d263c" stroke-width="2"/>
  <circle cx="166" cy="96" r="4" fill="#ffffff"/>
  <circle cx="202" cy="96" r="4" fill="#ffffff"/>
  <path d="M162,120 Q180,132 198,120" fill="none" stroke="#2d263c" stroke-width="6" stroke-linecap="round"/>
</svg>
