<svg xmlns="http://www.w3.org/2000/svg" viewBox="0 0 360 360">
  <!-- 触手(後ろ列・奥) -->
  <!-- 左奥触手1 -->
  <path d="M155 195 Q100 175 78 140 Q70 125 80 118 Q90 112 100 128 Q108 148 155 195" fill="#7a6db8" stroke="#2d263c" stroke-width="7" stroke-linejoin="round" stroke-linecap="round"/>
  <ellipse cx="78" cy="118" rx="10" ry="13" fill="#cc2244" stroke="#2d263c" stroke-width="6" stroke-linejoin="round"/>
  <!-- 左奥触手2 -->
  <path d="M158 185 Q115 145 105 105 Q100 88 112 85 Q124 83 127 102 Q132 122 158 185" fill="#7a6db8" stroke="#2d263c" stroke-width="7" stroke-linejoin="round" stroke-linecap="round"/>
  <ellipse cx="113" cy="84" rx="10" ry="13" fill="#cc2244" stroke="#2d263c" stroke-width="6"/>
  <!-- 右奥触手1 -->
  <path d="M205 195 Q260 175 282 140 Q290 125 280 118 Q270 112 260 128 Q252 148 205 195" fill="#7a6db8" stroke="#2d263c" stroke-width="7" stroke-linejoin="round" stroke-linecap="round"/>
  <ellipse cx="282" cy="118" rx="10" ry="13" fill="#cc2244" stroke="#2d263c" stroke-width="6"/>
  <!-- 右奥触手2 -->
  <path d="M202 185 Q245 145 255 105 Q260 88 248 85 Q236 83 233 102 Q228 122 202 185" fill="#7a6db8" stroke="#2d263c" stroke-width="7" stroke-linejoin="round" stroke-linecap="round"/>
  <ellipse cx="247" cy="84" rx="10" ry="13" fill="#cc2244" stroke="#2d263c" stroke-width="6"/>
  <!-- 上の触手 -->
  <path d="M180 175 Q170 120 168 85 Q167 68 180 65 Q193 63 192 80 Q190 100 180 175" fill="#7a6db8" stroke="#2d263c" stroke-width="7" stroke-linejoin="round" stroke-linecap="round"/>
  <ellipse cx="180" cy="64" rx="11" ry="14" fill="#cc2244" stroke="#2d263c" stroke-width="6"/>

  <!-- 触手(前列・手前) -->
  <!-- 左前触手1(斜め下) -->
  <path d="M158 230 Q112 258 95 292 Q88 310 100 315 Q114 318 120 300 Q130 278 158 230" fill="#8878c8" stroke="#2d263c" stroke-width="7" stroke-linejoin="round" stroke-linecap="round"/>
  <ellipse cx="100" cy="317" rx="11" ry="14" fill="#cc2244" stroke="#2d263c" stroke-width="6"/>
  <!-- 左前触手2(横) -->
  <path d="M150 215 Q100 210 68 220 Q50 228 52 242 Q55 256 72 250 Q92 242 150 215" fill="#8878c8" stroke="#2d263c" stroke-width="7" stroke-linejoin="round" stroke-linecap="round"/>
  <ellipse cx="51" cy="242" rx="14" ry="11" fill="#cc2244" stroke="#2d263c" stroke-width="6"/>
  <!-- 右前触手1(斜め下) -->
  <path d="M202 230 Q248 258 265 292 Q272 310 260 315 Q246 318 240 300 Q230 278 202 230" fill="#8878c8" stroke="#2d263c" stroke-width="7" stroke-linejoin="round" stroke-linecap="round"/>
  <ellipse cx="260" cy="317" rx="11" ry="14" fill="#cc2244" stroke="#2d263c" stroke-width="6"/>
  <!-- 右前触手2(横) -->
  <path d="M210 215 Q260 210 292 220 Q310 228 308 242 Q305 256 288 250 Q268 242 210 215" fill="#8878c8" stroke="#2d263c" stroke-width="7" stroke-linejoin="round" stroke-linecap="round"/>
  <ellipse cx="309" cy="242" rx="14" ry="11" fill="#cc2244" stroke="#2d263c" stroke-width="6"/>

  <!-- 胴体メイン -->
  <ellipse cx="180" cy="213" rx="68" ry="60" fill="#8878c8" stroke="#2d263c" stroke-width="8" stroke-linejoin="round"/>
  <!-- 腹の薄い色 -->
  <ellipse cx="178" cy="218" rx="46" ry="40" fill="#c4b8e8" stroke="#2d263c" stroke-width="5"/>
  <!-- 体の斑点模様 -->
  <circle cx="148" cy="200" r="7" fill="#5a4e9a" stroke="#2d263c" stroke-width="3"/>
  <circle cx="213" cy="198" r="6" fill="#5a4e9a" stroke="#2d263c" stroke-width="3"/>
  <circle cx="165" cy="238" r="5" fill="#5a4e9a" stroke="#2d263c" stroke-width="3"/>
  <circle cx="196" cy="240" r="5" fill="#5a4e9a" stroke="#2d263c" stroke-width="3"/>

  <!-- 顔パーツ -->
  <!-- 目(左) ちょっとずれてバカっぽく -->
  <ellipse cx="162" cy="208" rx="16" ry="18" fill="white" stroke="#2d263c" stroke-width="6"/>
  <circle cx="166" cy="211" r="9" fill="#2d263c"/>
  <circle cx="169" cy="207" r="3" fill="white"/>
  <!-- 目(右) -->
  <ellipse cx="200" cy="205" rx="15" ry="17" fill="white" stroke="#2d263c" stroke-width="6"/>
  <circle cx="204" cy="208" r="8" fill="#2d263c"/>
  <circle cx="207" cy="204" r="3" fill="white"/>

  <!-- 口(ちょっとニヤリ) -->
  <path d="M166 228 Q180 240 196 229" fill="none" stroke="#2d263c" stroke-width="6" stroke-linecap="round"/>
  <!-- 歯チラ -->
  <path d="M173 231 L173 237" stroke="white" stroke-width="3" stroke-linecap="round"/>
  <path d="M180 233 L180 239" stroke="white" stroke-width="3" stroke-linecap="round"/>
  <path d="M187 232 L187 237" stroke="white" stroke-width="3" stroke-linecap="round"/>
</svg>