<svg xmlns="http://www.w3.org/2000/svg" viewBox="0 0 360 360">
<path d="M60,190 C55,130 100,80 180,78 C260,80 305,130 300,195 C310,250 280,300 220,315 C190,325 170,325 140,315 C80,300 50,250 60,190 Z" fill="#B7E0EA" stroke="#2d263c" stroke-width="7" stroke-linejoin="round" stroke-linecap="round"/>
<ellipse cx="180" cy="250" rx="80" ry="50" fill="#F0E8CB"/>
<path d="M160,82 C165,60 172,40 180,30 C188,40 195,60 200,82 C188,90 172,90 160,82 Z" fill="#F2A93C" stroke="#2d263c" stroke-width="6" stroke-linejoin="round" stroke-linecap="round"/>
<circle cx="128" cy="140" r="16" fill="#5C4373" stroke="#2d263c" stroke-width="4"/>
<circle cx="232" cy="140" r="16" fill="#5C4373" stroke="#2d263c" stroke-width="4"/>
<circle cx="180" cy="100" r="11" fill="#5C4373" stroke="#2d263c" stroke-width="4"/>
<ellipse cx="180" cy="258" rx="78" ry="40" fill="#E38FA1" stroke="#2d263c" stroke-width="6" stroke-linejoin="round" stroke-linecap="round"/>
<path d="M108,254 Q180,272 252,254" fill="none" stroke="#2d263c" stroke-width="5" stroke-linecap="round"/>
<circle cx="155" cy="176" r="7" fill="#2d263c"/>
<circle cx="205" cy="176" r="7" fill="#2d263c"/>
<path d="M112,248 C90,255 68,262 58,272" fill="none" stroke="#2d263c" stroke-width="5" stroke-linecap="round"/>
<path d="M248,248 C270,255 292,262 302,272" fill="none" stroke="#2d263c" stroke-width="5" stroke-linecap="round"/>
<ellipse cx="130" cy="320" rx="28" ry="20" fill="#B7E0EA" stroke="#2d263c" stroke-width="6" stroke-linejoin="round"/>
<ellipse cx="230" cy="320" rx="28" ry="20" fill="#B7E0EA" stroke="#2d263c" stroke-width="6" stroke-linejoin="round"/>
<path d="M112,332 L106,340" fill="none" stroke="#2d263c" stroke-width="5" stroke-linecap="round"/>
<path d="M130,336 L128,344" fill="none" stroke="#2d263c" stroke-width="5" stroke-linecap="round"/>
<path d="M148,332 L152,340" fill="none" stroke="#2d263c" stroke-width="5" stroke-linecap="round"/>
<path d="M212,332 L206,340" fill="none" stroke="#2d263c" stroke-width="5" stroke-linecap="round"/>
<path d="M230,336 L228,344" fill="none" stroke="#2d263c" stroke-width="5" stroke-linecap="round"/>
<path d="M248,332 L252,340" fill="none" stroke="#2d263c" stroke-width="5" stroke-linecap="round"/>
</svg>
