<svg xmlns="http://www.w3.org/2000/svg" viewBox="0 0 360 360">
  <ellipse cx="180" cy="330" rx="70" ry="14" fill="#2d263c" opacity="0.15"/>
  <path d="M180,65 C225,65 255,90 260,140 C264,180 258,225 240,260 C222,295 200,313 180,315 C160,313 138,295 120,260 C102,225 96,180 100,140 C105,90 135,65 180,65 Z"
        fill="#CDA6E8" stroke="#2d263c" stroke-width="8" stroke-linejoin="round"/>
  <ellipse cx="180" cy="288" rx="32" ry="22" fill="#B98AD1"/>
  <ellipse cx="180" cy="230" rx="36" ry="24" fill="#F7E8C6"/>
  <ellipse cx="145" cy="100" rx="20" ry="12" fill="#FFFFFF" opacity="0.5"/>
  <circle cx="228" cy="150" r="6" fill="#FFFFFF" opacity="0.4"/>
  <circle cx="203" cy="268" r="5" fill="#FFFFFF" opacity="0.3"/>
  <circle cx="180" cy="175" r="52" fill="#FFFFFF" stroke="#2d263c" stroke-width="8"/>
  <circle cx="180" cy="185" r="26" fill="#241B2F"/>
  <circle cx="195" cy="168" r="9" fill="#FFFFFF"/>
  <circle cx="167" cy="196" r="4" fill="#FFFFFF" opacity="0.7"/>
  <path d="M158,238 Q180,250 202,238" fill="none" stroke="#2d263c" stroke-width="7" stroke-linecap="round"/>
  <path d="M138,128 Q150,116 166,120" fill="none" stroke="#2d263c" stroke-width="7" stroke-linecap="round"/>
  <path d="M194,120 Q210,116 222,128" fill="none" stroke="#2d263c" stroke-width="7" stroke-linecap="round"/>
</svg>
