<svg xmlns="http://www.w3.org/2000/svg" viewBox="0 0 360 360">
  <path d="M258,205 L300,150 L282,158 L318,95 L290,140 L305,132 L262,200 Z" fill="#ffe066" stroke="#2d263c" stroke-width="7" stroke-linejoin="round" stroke-linecap="round"/>
  <path d="M128,95 L92,28 L152,100 Z" fill="#ffe066" stroke="#2d263c" stroke-width="7" stroke-linejoin="round" stroke-linecap="round"/>
  <path d="M232,95 L268,28 L208,100 Z" fill="#ffe066" stroke="#2d263c" stroke-width="7" stroke-linejoin="round" stroke-linecap="round"/>
  <path d="M92,28 L108,60 L80,55 Z" fill="#2d263c"/>
  <path d="M268,28 L252,60 L280,55 Z" fill="#2d263c"/>
  <ellipse cx="180" cy="140" rx="88" ry="75" fill="#ffe066" stroke="#2d263c" stroke-width="8" stroke-linejoin="round"/>
  <path d="M112,205 C100,250 96,295 102,328 L258,328 C264,295 260,250 248,205 C225,222 135,222 112,205 Z" fill="#ffffff" stroke="#2d263c" stroke-width="8" stroke-linejoin="round"/>
  <ellipse cx="140" cy="326" rx="26" ry="13" fill="#ffe066" stroke="#2d263c" stroke-width="6" stroke-linejoin="round"/>
  <ellipse cx="220" cy="326" rx="26" ry="13" fill="#ffe066" stroke="#2d263c" stroke-width="6" stroke-linejoin="round"/>
  <path d="M112,222 C88,232 72,255 76,282 L100,286 C104,262 112,242 124,228 Z" fill="#ffe066" stroke="#2d263c" stroke-width="6" stroke-linejoin="round" stroke-linecap="round"/>
  <path d="M248,222 C272,232 288,255 284,282 L260,286 C256,262 248,242 236,228 Z" fill="#ffe066" stroke="#2d263c" stroke-width="6" stroke-linejoin="round" stroke-linecap="round"/>
  <path d="M142,213 L180,248 L218,213" fill="none" stroke="#2d263c" stroke-width="6" stroke-linecap="round" stroke-linejoin="round"/>
  <rect x="158" y="268" width="44" height="32" rx="5" fill="#ffffff" stroke="#2d263c" stroke-width="5"/>
  <path d="M172,284 L188,284 M180,276 L180,292" stroke="#2d263c" stroke-width="4" stroke-linecap="round"/>
  <path d="M148,216 C148,236 162,246 180,248 C198,246 212,236 212,216" fill="none" stroke="#3a3a3a" stroke-width="8" stroke-linecap="round"/>
  <path d="M180,248 C178,262 176,272 175,280" fill="none" stroke="#3a3a3a" stroke-width="7" stroke-linecap="round"/>
  <circle cx="175" cy="288" r="11" fill="#d9d9d9" stroke="#2d263c" stroke-width="5"/>
  <ellipse cx="150" cy="140" rx="9" ry="12" fill="#2d263c"/>
  <ellipse cx="210" cy="140" rx="9" ry="12" fill="#2d263c"/>
  <circle cx="118" cy="163" r="15" fill="#ff5b5b"/>
  <circle cx="242" cy="163" r="15" fill="#ff5b5b"/>
  <path d="M174,155 L186,155 L180,163 Z" fill="#2d263c"/>
  <path d="M160,172 Q180,188 200,172" fill="none" stroke="#2d263c" stroke-width="5" stroke-linecap="round"/>
  <path d="M112,98 Q180,76 248,98" fill="none" stroke="#3a3a3a" stroke-width="6" stroke-linecap="round"/>
  <circle cx="180" cy="80" r="13" fill="#d9e6f0" stroke="#2d263c" stroke-width="5"/>
  <rect x="55" y="245" width="46" height="62" rx="4" fill="#ffffff" stroke="#2d263c" stroke-width="6"/>
  <path d="M63,263 L88,263 M63,278 L88,278 M63,293 L80,293" stroke="#2d263c" stroke-width="3" stroke-linecap="round"/>
  <rect x="66" y="238" width="10" height="10" fill="#9a9a9a" stroke="#2d263c" stroke-width="3"/>
</svg>
