<svg xmlns="http://www.w3.org/2000/svg" viewBox="0 0 360 360">
  <!-- 後ろ: 触手(体の下に垂れる何本もの足) -->
  <path d="M 100 205 Q 88 250 96 280 Q 100 298 90 312" fill="none" stroke="#2d263c" stroke-width="8" stroke-linecap="round"/>
  <path d="M 100 205 Q 88 250 96 280 Q 100 298 90 312" fill="none" stroke="#7a2e3a" stroke-width="5" stroke-linecap="round"/>

  <path d="M 130 200 Q 116 260 124 300 Q 128 322 118 336" fill="none" stroke="#2d263c" stroke-width="10" stroke-linecap="round"/>
  <path d="M 130 200 Q 116 260 124 300 Q 128 322 118 336" fill="none" stroke="#4a90c4" stroke-width="7" stroke-linecap="round"/>

  <path d="M 160 202 Q 152 255 158 288 Q 162 306 154 320" fill="none" stroke="#2d263c" stroke-width="8" stroke-linecap="round"/>
  <path d="M 160 202 Q 152 255 158 288 Q 162 306 154 320" fill="none" stroke="#4a90c4" stroke-width="5" stroke-linecap="round"/>

  <path d="M 200 202 Q 208 255 202 288 Q 198 306 206 320" fill="none" stroke="#2d263c" stroke-width="8" stroke-linecap="round"/>
  <path d="M 200 202 Q 208 255 202 288 Q 198 306 206 320" fill="none" stroke="#7a2e3a" stroke-width="5" stroke-linecap="round"/>

  <path d="M 230 200 Q 244 260 236 300 Q 232 322 242 336" fill="none" stroke="#2d263c" stroke-width="10" stroke-linecap="round"/>
  <path d="M 230 200 Q 244 260 236 300 Q 232 322 242 336" fill="none" stroke="#4a90c4" stroke-width="7" stroke-linecap="round"/>

  <path d="M 260 205 Q 272 250 264 280 Q 260 298 270 312" fill="none" stroke="#2d263c" stroke-width="8" stroke-linecap="round"/>
  <path d="M 260 205 Q 272 250 264 280 Q 260 298 270 312" fill="none" stroke="#7a2e3a" stroke-width="5" stroke-linecap="round"/>

  <!-- 体: 丸いドーム型の頭 -->
  <path d="M 85 205
           C 85 120 130 55 180 55
           C 230 55 275 120 275 205
           C 275 220 258 222 246 216
           C 230 232 208 232 192 218
           C 178 232 156 232 140 216
           C 124 224 104 222 94 214
           C 88 212 85 209 85 205 Z"
        fill="#4a90c4" stroke="#2d263c" stroke-width="8" stroke-linejoin="round"/>

  <!-- 体の縦スジ(軽いシェード) -->
  <path d="M 128 90 Q 118 150 122 200" fill="none" stroke="#2d263c" stroke-width="5" stroke-linecap="round" opacity="0.35"/>
  <path d="M 232 90 Q 242 150 238 200" fill="none" stroke="#2d263c" stroke-width="5" stroke-linecap="round" opacity="0.35"/>

  <!-- 頭のてっぺん: 金色トゲの王冠 -->
  <path d="M 105 100 L 120 72 L 138 95 L 155 65 L 172 88 L 180 58
           L 188 88 L 205 65 L 222 95 L 240 72 L 255 100
           L 240 84 L 222 107 L 205 77 L 188 100 L 180 70
           L 172 100 L 155 77 L 138 107 L 120 84 Z"
        fill="#f4c542" stroke="#2d263c" stroke-width="6" stroke-linejoin="round"/>

  <!-- 左右の大きな赤い宝石 -->
  <circle cx="88" cy="175" r="24" fill="#e2402a" stroke="#2d263c" stroke-width="7"/>
  <circle cx="82" cy="169" r="5" fill="#ffffff" opacity="0.8"/>
  <circle cx="272" cy="175" r="24" fill="#e2402a" stroke="#2d263c" stroke-width="7"/>
  <circle cx="278" cy="169" r="5" fill="#ffffff" opacity="0.8"/>

  <!-- 目 -->
  <circle cx="150" cy="158" r="15" fill="#ffffff" stroke="#2d263c" stroke-width="6"/>
  <circle cx="210" cy="158" r="15" fill="#ffffff" stroke="#2d263c" stroke-width="6"/>
  <circle cx="150" cy="161" r="7" fill="#241a1a"/>
  <circle cx="210" cy="161" r="7" fill="#241a1a"/>
  <circle cx="147" cy="156" r="2.5" fill="#ffffff"/>
  <circle cx="207" cy="156" r="2.5" fill="#ffffff"/>

  <!-- 口 -->
  <path d="M 165 205 Q 180 214 195 205" fill="none" stroke="#2d263c" stroke-width="6" stroke-linecap="round"/>
</svg>
