<svg xmlns="http://www.w3.org/2000/svg" viewBox="0 0 360 360">
  <ellipse cx="180" cy="312" rx="88" ry="12" fill="#2d263c" opacity="0.15"/>

  <circle cx="60" cy="185" r="40" fill="none" stroke="#3f5b40" stroke-width="16"/>
  <circle cx="300" cy="185" r="40" fill="none" stroke="#3f5b40" stroke-width="16"/>
  <circle cx="60" cy="185" r="40" fill="none" stroke="#2d263c" stroke-width="7"/>
  <circle cx="300" cy="185" r="40" fill="none" stroke="#2d263c" stroke-width="7"/>

  <ellipse cx="180" cy="282" rx="118" ry="24" fill="#4f7a4a" stroke="#2d263c" stroke-width="7"/>

  <path d="M100,160 C100,105 135,80 180,80 C225,80 260,105 260,160 C282,180 292,238 280,272 C245,296 115,296 80,272 C68,238 78,180 100,160 Z"
        fill="#7fae5f" stroke="#2d263c" stroke-width="8" stroke-linejoin="round"/>

  <path d="M100,110 C112,92 140,82 162,84 C138,92 118,110 112,140 C102,132 96,120 100,110 Z"
        fill="#9bc981" opacity="0.7"/>

  <circle cx="180" cy="55" r="16" fill="none" stroke="#3f5b40" stroke-width="12"/>
  <circle cx="180" cy="55" r="16" fill="none" stroke="#2d263c" stroke-width="6"/>

  <circle cx="112" cy="222" r="7" fill="#4f7a4a" stroke="#2d263c" stroke-width="3"/>
  <circle cx="112" cy="252" r="7" fill="#4f7a4a" stroke="#2d263c" stroke-width="3"/>
  <circle cx="248" cy="222" r="7" fill="#4f7a4a" stroke="#2d263c" stroke-width="3"/>
  <circle cx="248" cy="252" r="7" fill="#4f7a4a" stroke="#2d263c" stroke-width="3"/>

  <circle cx="180" cy="172" r="52" fill="#eae6d5" stroke="#2d263c" stroke-width="6"/>

  <path d="M180,138 L192,150 L180,162 L168,150 Z" fill="#3a6bb5" stroke="#2d263c" stroke-width="4" stroke-linejoin="round"/>
  <path d="M180,182 L192,194 L180,206 L168,194 Z" fill="#c0392b" stroke="#2d263c" stroke-width="4" stroke-linejoin="round"/>

  <circle cx="158" cy="172" r="9" fill="#2d263c"/>
  <circle cx="202" cy="172" r="9" fill="#2d263c"/>
</svg>
