<svg xmlns="http://www.w3.org/2000/svg" viewBox="0 0 360 360">
  <g stroke="#2d263c" stroke-width="7" stroke-linejoin="round" stroke-linecap="round">
    <path d="M150,118 C120,95 95,82 80,72 C100,100 120,116 138,135 Z" fill="#3f6e50"/>
    <path d="M210,118 C240,95 265,82 280,72 C260,100 240,116 222,135 Z" fill="#3f6e50"/>
    <path d="M180,110 C242,110 278,160 278,216 C278,276 236,306 180,306 C124,306 82,276 82,216 C82,160 118,110 180,110 Z" fill="#5b9a6c"/>
    <path d="M180,166 C222,166 242,196 242,226 C242,266 212,290 180,290 C148,290 118,266 118,226 C118,196 138,166 180,166 Z" fill="#a8d8b3"/>
    <path d="M90,206 C66,216 56,238 68,258 C82,248 102,240 116,236" fill="#4c855e"/>
    <path d="M270,206 C294,216 304,238 292,258 C278,248 258,240 244,236" fill="#4c855e"/>
    <path d="M150,296 C120,322 116,338 148,336 C156,326 172,318 186,308" fill="#5b9a6c"/>
    <path d="M180,72 C206,72 216,96 206,108 C196,116 164,116 154,108 C144,96 154,72 180,72 Z" fill="#7ab089"/>
    <path d="M156,100 C140,110 132,108 128,118 C140,120 150,114 158,110" fill="#7ab089"/>
    <path d="M204,100 C220,110 228,108 232,118 C220,120 210,114 202,110" fill="#7ab089"/>
  </g>
  <ellipse cx="150" cy="182" rx="17" ry="22" fill="#ffe14d" stroke="#2d263c" stroke-width="6"/>
  <ellipse cx="210" cy="182" rx="17" ry="22" fill="#ffe14d" stroke="#2d263c" stroke-width="6"/>
  <ellipse cx="150" cy="186" rx="6" ry="11" fill="#2d263c"/>
  <ellipse cx="210" cy="186" rx="6" ry="11" fill="#2d263c"/>
  <path d="M165,238 Q180,250 195,238" fill="none" stroke="#2d263c" stroke-width="6" stroke-linecap="round"/>
  <circle cx="170" cy="92" r="3.5" fill="#2d263c"/>
  <circle cx="190" cy="92" r="3.5" fill="#2d263c"/>
</svg>
