<svg xmlns="http://www.w3.org/2000/svg" viewBox="0 0 360 360">
  <!-- ガスの余煙(後ろ) -->
  <path d="M170,90 Q163,68 176,52" fill="none" stroke="#8f7ab0" stroke-width="5" stroke-linecap="round"/>
  <path d="M197,90 Q208,70 197,56" fill="none" stroke="#8f7ab0" stroke-width="5" stroke-linecap="round"/>
  <circle cx="252" cy="68" r="9" fill="#b48fd6" stroke="#2d263c" stroke-width="5"/>
  <circle cx="273" cy="94" r="5.5" fill="#b48fd6" stroke="#2d263c" stroke-width="4"/>

  <!-- 体(丸くデコボコしたガス状の胴体) -->
  <path d="M279.5,150.5
           Q269,106 224.5,101
           Q180,96 135.5,101
           Q91,106 80.5,150.5
           Q70,195 90,230
           Q110,265 145,296
           Q180,327 215,296
           Q250,265 270,230
           Q290,195 279.5,150.5 Z"
        fill="#b48fd6" stroke="#2d263c" stroke-width="8" stroke-linejoin="round"/>

  <!-- 体の模様(ドガース特有の紫の斑点) -->
  <circle cx="150" cy="140" r="20" fill="#7a4fa8" stroke="#2d263c" stroke-width="4"/>
  <circle cx="228" cy="150" r="16" fill="#7a4fa8" stroke="#2d263c" stroke-width="4"/>
  <circle cx="108" cy="190" r="13" fill="#7a4fa8" stroke="#2d263c" stroke-width="4"/>
  <circle cx="248" cy="205" r="14" fill="#7a4fa8" stroke="#2d263c" stroke-width="4"/>

  <!-- ほっぺ(かわいい落書き感) -->
  <ellipse cx="132" cy="245" rx="12" ry="8" fill="#e8a0c8" opacity="0.55"/>
  <ellipse cx="228" cy="245" rx="12" ry="8" fill="#e8a0c8" opacity="0.55"/>

  <!-- 顔(目と口) -->
  <circle cx="150" cy="232" r="13" fill="#2d263c"/>
  <circle cx="210" cy="232" r="13" fill="#2d263c"/>
  <circle cx="146" cy="228" r="4" fill="#ffffff"/>
  <circle cx="206" cy="228" r="4" fill="#ffffff"/>
  <path d="M155,262 Q180,280 205,262" fill="none" stroke="#2d263c" stroke-width="7" stroke-linecap="round"/>
</svg>
