<svg xmlns="http://www.w3.org/2000/svg" viewBox="0 0 360 360">
<ellipse cx="298" cy="300" rx="20" ry="26" fill="#B589CE" stroke="#2d263c" stroke-width="7" stroke-linejoin="round" stroke-linecap="round"/>
<ellipse cx="180" cy="190" rx="106" ry="122" fill="#C79FE0" stroke="#2d263c" stroke-width="8" stroke-linejoin="round" stroke-linecap="round"/>
<ellipse cx="180" cy="235" rx="58" ry="66" fill="#FBF2DC" stroke="#2d263c" stroke-width="6" stroke-linejoin="round" stroke-linecap="round"/>
<ellipse cx="135" cy="305" rx="38" ry="32" fill="#F5E7B8" stroke="#2d263c" stroke-width="7" stroke-linejoin="round" stroke-linecap="round"/>
<ellipse cx="225" cy="305" rx="38" ry="32" fill="#F5E7B8" stroke="#2d263c" stroke-width="7" stroke-linejoin="round" stroke-linecap="round"/>
<ellipse cx="68" cy="205" rx="28" ry="42" fill="#F5E7B8" stroke="#2d263c" stroke-width="7" stroke-linejoin="round" stroke-linecap="round"/>
<ellipse cx="292" cy="205" rx="28" ry="42" fill="#F5E7B8" stroke="#2d263c" stroke-width="7" stroke-linejoin="round" stroke-linecap="round"/>
<circle cx="90" cy="90" r="34" fill="#E9CB78" stroke="#2d263c" stroke-width="7" stroke-linejoin="round" stroke-linecap="round"/>
<circle cx="270" cy="90" r="34" fill="#E9CB78" stroke="#2d263c" stroke-width="7" stroke-linejoin="round" stroke-linecap="round"/>
<line x1="70" y1="70" x2="62" y2="58" stroke="#2d263c" stroke-width="4" stroke-linecap="round"/>
<line x1="90" y1="58" x2="90" y2="46" stroke="#2d263c" stroke-width="4" stroke-linecap="round"/>
<line x1="110" y1="70" x2="118" y2="58" stroke="#2d263c" stroke-width="4" stroke-linecap="round"/>
<line x1="290" y1="70" x2="298" y2="58" stroke="#2d263c" stroke-width="4" stroke-linecap="round"/>
<line x1="270" y1="58" x2="270" y2="46" stroke="#2d263c" stroke-width="4" stroke-linecap="round"/>
<line x1="250" y1="70" x2="242" y2="58" stroke="#2d263c" stroke-width="4" stroke-linecap="round"/>
<circle cx="90" cy="90" r="8" fill="#8B5E34" stroke="#2d263c" stroke-width="4"/>
<circle cx="270" cy="90" r="8" fill="#8B5E34" stroke="#2d263c" stroke-width="4"/>
<circle cx="180" cy="192" r="32" fill="#E8748C" stroke="#2d263c" stroke-width="7" stroke-linejoin="round" stroke-linecap="round"/>
<circle cx="150" cy="148" r="7" fill="#2d263c"/>
<circle cx="210" cy="148" r="7" fill="#2d263c"/>
<ellipse cx="180" cy="252" rx="62" ry="38" fill="#A83636" stroke="#2d263c" stroke-width="7" stroke-linejoin="round" stroke-linecap="round"/>
<ellipse cx="180" cy="255" rx="42" ry="22" fill="#4A1414"/>
<line x1="120" y1="334" x2="114" y2="341" stroke="#2d263c" stroke-width="5" stroke-linecap="round"/>
<line x1="150" y1="334" x2="156" y2="341" stroke="#2d263c" stroke-width="5" stroke-linecap="round"/>
<line x1="210" y1="334" x2="204" y2="341" stroke="#2d263c" stroke-width="5" stroke-linecap="round"/>
<line x1="240" y1="334" x2="246" y2="341" stroke="#2d263c" stroke-width="5" stroke-linecap="round"/>
<line x1="58" y1="244" x2="50" y2="250" stroke="#2d263c" stroke-width="5" stroke-linecap="round"/>
<line x1="76" y1="244" x2="82" y2="250" stroke="#2d263c" stroke-width="5" stroke-linecap="round"/>
<line x1="302" y1="244" x2="310" y2="250" stroke="#2d263c" stroke-width="5" stroke-linecap="round"/>
<line x1="284" y1="244" x2="278" y2="250" stroke="#2d263c" stroke-width="5" stroke-linecap="round"/>
</svg>
