<svg xmlns="http://www.w3.org/2000/svg" viewBox="0 0 360 360">
  <!-- tail feathers behind body -->
  <path d="M150 250 Q120 300 90 330 Q130 310 155 285 Z" fill="#2a2a3a" stroke="#2d263c" stroke-width="7" stroke-linejoin="round"/>
  <path d="M190 260 Q210 305 235 335 Q205 310 185 290 Z" fill="#2a2a3a" stroke="#2d263c" stroke-width="7" stroke-linejoin="round"/>
  <path d="M170 260 Q170 310 175 340 Q182 310 185 265 Z" fill="#39394a" stroke="#2d263c" stroke-width="7" stroke-linejoin="round"/>

  <!-- back/left wing -->
  <path d="M115 170 Q40 190 30 250 Q60 245 80 260 Q65 230 100 210 Q90 195 115 190 Z" fill="#26263a" stroke="#2d263c" stroke-width="7" stroke-linejoin="round"/>

  <!-- body -->
  <ellipse cx="180" cy="210" rx="75" ry="90" fill="#33334a" stroke="#2d263c" stroke-width="8"/>

  <!-- grey chest patch -->
  <path d="M155 200 Q180 190 205 200 Q210 250 180 290 Q150 250 155 200 Z" fill="#b9b9c6" stroke="#2d263c" stroke-width="6" stroke-linejoin="round"/>

  <!-- front/right wing -->
  <path d="M240 160 Q320 175 335 235 Q300 225 280 245 Q290 210 255 195 Q265 178 240 175 Z" fill="#3d3d55" stroke="#2d263c" stroke-width="7" stroke-linejoin="round"/>

  <!-- neck grey scarf feathers -->
  <path d="M140 165 Q180 195 220 165 Q225 185 205 200 Q180 212 155 200 Q135 185 140 165 Z" fill="#c7c7d2" stroke="#2d263c" stroke-width="6" stroke-linejoin="round"/>

  <!-- feet -->
  <path d="M155 290 L145 320 M155 290 L158 322 M155 290 L167 318" stroke="#e8a23c" stroke-width="7" fill="none" stroke-linecap="round"/>
  <path d="M205 290 L195 320 M205 290 L210 322 M205 290 L220 316" stroke="#e8a23c" stroke-width="7" fill="none" stroke-linecap="round"/>

  <!-- head -->
  <circle cx="180" cy="125" r="58" fill="#33334a" stroke="#2d263c" stroke-width="8"/>

  <!-- dark navy pompadour crest -->
  <path d="M135 100 Q150 40 185 55 Q170 70 178 90 Q195 55 220 75 Q205 90 200 105 Q225 90 232 110 Q210 115 200 128 Q225 120 222 140 Q195 138 178 122 Q160 130 150 118 Q135 115 135 100 Z" fill="#20203a" stroke="#2d263c" stroke-width="6" stroke-linejoin="round"/>

  <!-- beak -->
  <path d="M180 145 L145 158 L182 168 Z" fill="#e8a23c" stroke="#2d263c" stroke-width="6" stroke-linejoin="round"/>

  <!-- eyes -->
  <ellipse cx="162" cy="122" rx="13" ry="15" fill="#ffffff" stroke="#2d263c" stroke-width="6"/>
  <circle cx="160" cy="124" r="6" fill="#d81c2c"/>
  <ellipse cx="205" cy="122" rx="13" ry="15" fill="#ffffff" stroke="#2d263c" stroke-width="6"/>
  <circle cx="207" cy="124" r="6" fill="#d81c2c"/>
</svg>
