<svg xmlns="http://www.w3.org/2000/svg" viewBox="0 0 360 360">
  <path d="M165,290 L158,315 L172,296 Z M180,292 L180,320 L188,294 Z M195,290 L202,315 L188,296 Z" fill="#a85f2e" stroke="#2d263c" stroke-width="6" stroke-linejoin="round"/>
  <path d="M148,292 C144,300 150,315 146,330 L156,332 C160,316 158,300 162,292 Z" fill="#f0c988" stroke="#2d263c" stroke-width="7" stroke-linejoin="round"/>
  <path d="M212,292 C216,300 210,315 214,330 L204,332 C200,316 202,300 198,292 Z" fill="#f0c988" stroke="#2d263c" stroke-width="7" stroke-linejoin="round"/>
  <path d="M140,328 L151,325 L162,328 L166,340 L156,344 L151,338 L146,344 L136,340 Z" fill="#f0c988" stroke="#2d263c" stroke-width="6" stroke-linejoin="round"/>
  <path d="M220,328 L209,325 L198,328 L194,340 L204,344 L209,338 L214,344 L224,340 Z" fill="#f0c988" stroke="#2d263c" stroke-width="6" stroke-linejoin="round"/>
  <ellipse cx="180" cy="240" rx="76" ry="58" fill="#dd9a52" stroke="#2d263c" stroke-width="8"/>
  <ellipse cx="180" cy="268" rx="44" ry="30" fill="#f7e3ba" stroke="#2d263c" stroke-width="6"/>
  <ellipse cx="108" cy="232" rx="20" ry="32" fill="#c98346" stroke="#2d263c" stroke-width="6" transform="rotate(-20 108 232)"/>
  <ellipse cx="252" cy="232" rx="20" ry="32" fill="#c98346" stroke="#2d263c" stroke-width="6" transform="rotate(20 252 232)"/>
  <path d="M135,190 C120,165 100,145 95,120 L128,115 C130,145 148,165 165,185 Z" fill="#dd9a52" stroke="#2d263c" stroke-width="8" stroke-linejoin="round"/>
  <path d="M225,190 C240,165 260,145 265,120 L232,115 C230,145 212,165 195,185 Z" fill="#dd9a52" stroke="#2d263c" stroke-width="8" stroke-linejoin="round"/>
  <circle cx="100" cy="100" r="42" fill="#dd9a52" stroke="#2d263c" stroke-width="8"/>
  <circle cx="262" cy="92" r="40" fill="#dd9a52" stroke="#2d263c" stroke-width="8"/>
  <path d="M66,88 L35,100 L66,112 Z" fill="#f6ab3c" stroke="#2d263c" stroke-width="6" stroke-linejoin="round"/>
  <path d="M296,80 L325,92 L296,104 Z" fill="#f6ab3c" stroke="#2d263c" stroke-width="6" stroke-linejoin="round"/>
  <path d="M85,62 L90,40 L96,60 Z M100,58 L102,34 L108,58 Z M112,60 L120,42 L122,64 Z" fill="#a85f2e" stroke="#2d263c" stroke-width="5" stroke-linejoin="round"/>
  <path d="M275,62 L270,40 L264,60 Z M260,58 L258,34 L252,58 Z M248,60 L240,42 L238,64 Z" fill="#a85f2e" stroke="#2d263c" stroke-width="5" stroke-linejoin="round"/>
  <circle cx="88" cy="90" r="8" fill="#241b1b"/>
  <circle cx="272" cy="82" r="8" fill="#241b1b"/>
  <circle cx="91" cy="87" r="3" fill="#ffffff"/>
  <circle cx="275" cy="79" r="3" fill="#ffffff"/>
  <circle cx="118" cy="112" r="8" fill="#f4a6a6" opacity="0.55"/>
  <circle cx="248" cy="104" r="8" fill="#f4a6a6" opacity="0.55"/>
</svg>
