<svg xmlns="http://www.w3.org/2000/svg" viewBox="0 0 360 360">
  <path d="M140,196 C130,255 132,300 146,335 L214,335 C228,300 230,255 220,196 Q180,208 140,196 Z" fill="#a97d45" stroke="#2d263c" stroke-width="7" stroke-linejoin="round" stroke-linecap="round"/>
  <path d="M150,240 Q180,230 210,240" fill="none" stroke="#7a5a30" stroke-width="5" stroke-linecap="round"/>
  <path d="M148,288 Q180,278 212,288" fill="none" stroke="#7a5a30" stroke-width="5" stroke-linecap="round"/>
  <ellipse cx="150" cy="333" rx="21" ry="13" fill="#8a6535" stroke="#2d263c" stroke-width="7" stroke-linejoin="round" stroke-linecap="round"/>
  <ellipse cx="210" cy="333" rx="21" ry="13" fill="#8a6535" stroke="#2d263c" stroke-width="7" stroke-linejoin="round" stroke-linecap="round"/>

  <path d="M182,103 Q120,110 78,150 Q135,100 182,103 Z" fill="#358a3f" stroke="#2d263c" stroke-width="6" stroke-linejoin="round" stroke-linecap="round"/>
  <path d="M180,100 Q120,90 92,75 Q145,78 180,100 Z" fill="#3f9b4a" stroke="#2d263c" stroke-width="6" stroke-linejoin="round" stroke-linecap="round"/>
  <path d="M178,98 Q150,55 133,28 Q168,55 178,98 Z" fill="#358a3f" stroke="#2d263c" stroke-width="6" stroke-linejoin="round" stroke-linecap="round"/>
  <path d="M180,96 Q182,50 180,22 Q192,55 180,96 Z" fill="#3f9b4a" stroke="#2d263c" stroke-width="6" stroke-linejoin="round" stroke-linecap="round"/>
  <path d="M182,98 Q210,55 227,28 Q192,55 182,98 Z" fill="#358a3f" stroke="#2d263c" stroke-width="6" stroke-linejoin="round" stroke-linecap="round"/>
  <path d="M182,100 Q240,90 268,75 Q215,78 182,100 Z" fill="#3f9b4a" stroke="#2d263c" stroke-width="6" stroke-linejoin="round" stroke-linecap="round"/>
  <path d="M180,103 Q242,110 282,150 Q225,100 180,103 Z" fill="#358a3f" stroke="#2d263c" stroke-width="6" stroke-linejoin="round" stroke-linecap="round"/>

  <path d="M124,208 L156,196 L146,222 L118,224 Z" fill="#8a6535" stroke="#2d263c" stroke-width="5" stroke-linejoin="round"/>
  <path d="M236,208 L204,196 L214,222 L242,224 Z" fill="#8a6535" stroke="#2d263c" stroke-width="5" stroke-linejoin="round"/>
  <path d="M160,198 L200,198 L192,178 L168,178 Z" fill="#8a6535" stroke="#2d263c" stroke-width="5" stroke-linejoin="round"/>

  <ellipse cx="108" cy="168" rx="33" ry="39" fill="#f2e2b6" stroke="#2d263c" stroke-width="7" stroke-linejoin="round" stroke-linecap="round"/>
  <ellipse cx="252" cy="168" rx="33" ry="39" fill="#f2e2b6" stroke="#2d263c" stroke-width="7" stroke-linejoin="round" stroke-linecap="round"/>
  <ellipse cx="180" cy="115" rx="45" ry="55" fill="#f2e2b6" stroke="#2d263c" stroke-width="8" stroke-linejoin="round" stroke-linecap="round"/>

  <path d="M88,158 Q98,150 108,158" fill="none" stroke="#2d263c" stroke-width="5" stroke-linecap="round"/>
  <path d="M110,158 Q120,150 130,158" fill="none" stroke="#2d263c" stroke-width="5" stroke-linecap="round"/>
  <path d="M98,182 Q108,190 118,182" fill="none" stroke="#2d263c" stroke-width="5" stroke-linecap="round"/>

  <path d="M232,158 Q242,150 252,158" fill="none" stroke="#2d263c" stroke-width="5" stroke-linecap="round"/>
  <path d="M254,158 Q264,150 274,158" fill="none" stroke="#2d263c" stroke-width="5" stroke-linecap="round"/>
  <path d="M242,182 Q252,190 262,182" fill="none" stroke="#2d263c" stroke-width="5" stroke-linecap="round"/>

  <ellipse cx="163" cy="110" rx="9" ry="12" fill="#ffffff" stroke="#2d263c" stroke-width="5"/>
  <ellipse cx="199" cy="110" rx="9" ry="12" fill="#ffffff" stroke="#2d263c" stroke-width="5"/>
  <circle cx="164" cy="114" r="4.5" fill="#2d263c"/>
  <circle cx="200" cy="114" r="4.5" fill="#2d263c"/>
  <path d="M158,142 Q181,156 204,142" fill="none" stroke="#2d263c" stroke-width="6" stroke-linecap="round"/>
</svg>
