<svg xmlns="http://www.w3.org/2000/svg" viewBox="0 0 360 360">
<path d="M100,150 C88,95 130,55 180,55 C230,55 272,95 260,150 C284,205 262,300 220,325 C198,338 162,338 140,325 C98,300 76,205 100,150 Z" fill="#3f7fd6" stroke="#2d263c" stroke-width="8" stroke-linejoin="round"/>
<path d="M95,150 C82,150 62,165 55,190 C50,208 58,225 75,225 C90,225 100,205 98,180 Z" fill="#2f63b0" stroke="#2d263c" stroke-width="7" stroke-linejoin="round"/>
<path d="M265,150 C278,150 298,165 305,190 C310,208 302,225 285,225 C270,225 260,205 262,180 Z" fill="#2f63b0" stroke="#2d263c" stroke-width="7" stroke-linejoin="round"/>
<ellipse cx="140" cy="326" rx="26" ry="13" fill="#f0a839" stroke="#2d263c" stroke-width="7"/>
<ellipse cx="220" cy="326" rx="26" ry="13" fill="#f0a839" stroke="#2d263c" stroke-width="7"/>
<ellipse cx="180" cy="235" rx="58" ry="78" fill="#eef6ff" stroke="#2d263c" stroke-width="7"/>
<path d="M118,195 L150,150 L170,175 L145,215 Z" fill="#1f4a8c" stroke="#2d263c" stroke-width="6" stroke-linejoin="round"/>
<path d="M242,195 L210,150 L190,175 L215,215 Z" fill="#1f4a8c" stroke="#2d263c" stroke-width="6" stroke-linejoin="round"/>
<path d="M133,150 L165,138 L163,150 L138,160 Z" fill="#2d263c" stroke="#2d263c" stroke-width="4" stroke-linejoin="round"/>
<path d="M227,150 L195,138 L197,150 L222,160 Z" fill="#2d263c" stroke="#2d263c" stroke-width="4" stroke-linejoin="round"/>
<path d="M138,160 L155,175 L148,195 L130,180 Z" fill="#101018" stroke="#2d263c" stroke-width="6" stroke-linejoin="round"/>
<path d="M222,160 L205,175 L212,195 L230,180 Z" fill="#101018" stroke="#2d263c" stroke-width="6" stroke-linejoin="round"/>
<path d="M150,230 L165,246 L180,232 L195,246 L210,230 L222,255 C205,278 155,278 138,255 Z" fill="#101018" stroke="#2d263c" stroke-width="7" stroke-linejoin="round"/>
<path d="M163,238 L172,250 L181,238 Z" fill="#ffffff"/>
<path d="M197,238 L188,250 L179,238 Z" fill="#ffffff"/>
<circle cx="112" cy="248" r="12" fill="#7fb2ea" stroke="#2d263c" stroke-width="5"/>
<circle cx="248" cy="248" r="12" fill="#7fb2ea" stroke="#2d263c" stroke-width="5"/>
<path d="M60,95 L78,80 L70,110 Z" fill="#dff0ff" stroke="#2d263c" stroke-width="6" stroke-linejoin="round"/>
<path d="M300,95 L282,80 L290,110 Z" fill="#dff0ff" stroke="#2d263c" stroke-width="6" stroke-linejoin="round"/>
<path d="M150,90 L165,105 L155,118" fill="none" stroke="#2d263c" stroke-width="6" stroke-linecap="round" stroke-linejoin="round"/>
</svg>
