<svg xmlns="http://www.w3.org/2000/svg" viewBox="0 0 360 360">
<path d="M150,335 C143,290 148,200 157,145 C160,122 168,112 180,110 C192,112 200,122 203,145 C212,200 217,290 210,335 Z" fill="#caa06a" stroke="#2d263c" stroke-width="8" stroke-linejoin="round"/>
<path d="M155,160 Q180,167 205,160" fill="none" stroke="#2d263c" stroke-width="5" stroke-linecap="round" opacity="0.6"/>
<path d="M158,205 Q180,213 202,205" fill="none" stroke="#2d263c" stroke-width="5" stroke-linecap="round" opacity="0.6"/>
<path d="M156,255 Q180,265 204,255" fill="none" stroke="#2d263c" stroke-width="5" stroke-linecap="round" opacity="0.6"/>
<ellipse cx="163" cy="330" rx="18" ry="9" fill="#caa06a" stroke="#2d263c" stroke-width="7"/>
<ellipse cx="197" cy="330" rx="18" ry="9" fill="#caa06a" stroke="#2d263c" stroke-width="7"/>
<path d="M203,292 C218,302 238,298 252,286 C262,278 268,266 270,256 C271,251 266,250 262,254 C252,266 238,278 224,286 C213,292 203,294 198,296 Z" fill="#caa06a" stroke="#2d263c" stroke-width="7" stroke-linejoin="round" stroke-linecap="round"/>
<circle cx="274" cy="248" r="15" fill="#e0bd82" stroke="#2d263c" stroke-width="7"/>
<circle cx="269" cy="245" r="2.5" fill="#2d263c"/>
<circle cx="279" cy="245" r="2.5" fill="#2d263c"/>
<path d="M270,253 Q274,256 278,253" fill="none" stroke="#2d263c" stroke-width="3" stroke-linecap="round"/>
<path d="M168,92 Q180,22 192,92 Q180,76 168,92 Z" fill="#4a9d52" stroke="#2d263c" stroke-width="7" stroke-linejoin="round"/>
<path d="M128,105 Q95,55 138,98 Q145,108 128,105 Z" fill="#4a9d52" stroke="#2d263c" stroke-width="7" stroke-linejoin="round"/>
<path d="M232,105 Q265,55 222,98 Q215,108 232,105 Z" fill="#4a9d52" stroke="#2d263c" stroke-width="7" stroke-linejoin="round"/>
<path d="M148,95 Q125,45 158,90 Q160,100 148,95 Z" fill="#3f8a48" stroke="#2d263c" stroke-width="7" stroke-linejoin="round"/>
<path d="M212,95 Q235,45 202,90 Q200,100 212,95 Z" fill="#3f8a48" stroke="#2d263c" stroke-width="7" stroke-linejoin="round"/>
<circle cx="138" cy="118" r="30" fill="#e0bd82" stroke="#2d263c" stroke-width="7"/>
<circle cx="222" cy="118" r="30" fill="#e0bd82" stroke="#2d263c" stroke-width="7"/>
<path d="M129,116 q4,-5 8,0" fill="none" stroke="#2d263c" stroke-width="4" stroke-linecap="round"/>
<path d="M141,116 q4,-5 8,0" fill="none" stroke="#2d263c" stroke-width="4" stroke-linecap="round"/>
<path d="M213,116 q4,-5 8,0" fill="none" stroke="#2d263c" stroke-width="4" stroke-linecap="round"/>
<path d="M225,116 q4,-5 8,0" fill="none" stroke="#2d263c" stroke-width="4" stroke-linecap="round"/>
<circle cx="180" cy="98" r="42" fill="#e0bd82" stroke="#2d263c" stroke-width="8"/>
<circle cx="168" cy="92" r="5" fill="#2d263c"/>
<circle cx="192" cy="92" r="5" fill="#2d263c"/>
<path d="M168,112 Q180,122 192,112" fill="none" stroke="#2d263c" stroke-width="5" stroke-linecap="round"/>
</svg>
