<svg xmlns="http://www.w3.org/2000/svg" viewBox="0 0 360 360">
  <!-- body -->
  <ellipse cx="180" cy="195" rx="98" ry="112" fill="#3a3340" stroke="#2d263c" stroke-width="8"/>
  <!-- white pyramid spikes -->
  <path d="M113 106 L127 106 L120 78 Z" fill="#f0e8d8" stroke="#2d263c" stroke-width="5" stroke-linejoin="round"/>
  <path d="M148 87 L162 87 L155 62 Z" fill="#f0e8d8" stroke="#2d263c" stroke-width="5" stroke-linejoin="round"/>
  <path d="M198 87 L212 87 L205 62 Z" fill="#f0e8d8" stroke="#2d263c" stroke-width="5" stroke-linejoin="round"/>
  <path d="M233 106 L247 106 L240 78 Z" fill="#f0e8d8" stroke="#2d263c" stroke-width="5" stroke-linejoin="round"/>
  <path d="M85 180 L85 210 L60 195 Z" fill="#f0e8d8" stroke="#2d263c" stroke-width="5" stroke-linejoin="round"/>
  <path d="M275 180 L275 210 L300 195 Z" fill="#f0e8d8" stroke="#2d263c" stroke-width="5" stroke-linejoin="round"/>
  <path d="M113 283 L127 283 L120 308 Z" fill="#f0e8d8" stroke="#2d263c" stroke-width="5" stroke-linejoin="round"/>
  <path d="M233 283 L247 283 L240 308 Z" fill="#f0e8d8" stroke="#2d263c" stroke-width="5" stroke-linejoin="round"/>
  <!-- eyes -->
  <circle cx="150" cy="185" r="11" fill="#fff8ea" stroke="#2d263c" stroke-width="5"/>
  <circle cx="210" cy="185" r="11" fill="#fff8ea" stroke="#2d263c" stroke-width="5"/>
  <circle cx="152" cy="188" r="5" fill="#2d263c"/>
  <circle cx="212" cy="188" r="5" fill="#2d263c"/>
  <!-- pink cheeks -->
  <ellipse cx="132" cy="220" rx="13" ry="9" fill="#f08fb0" stroke="#2d263c" stroke-width="5"/>
  <ellipse cx="228" cy="220" rx="13" ry="9" fill="#f08fb0" stroke="#2d263c" stroke-width="5"/>
  <!-- mouth -->
  <path d="M170 238 Q180 246 190 238" fill="none" stroke="#2d263c" stroke-width="5" stroke-linecap="round"/>
</svg>
