<svg xmlns="http://www.w3.org/2000/svg" viewBox="0 0 360 360">
  <ellipse cx="180" cy="322" rx="98" ry="14" fill="#241f2e" opacity="0.15"/>
  <path d="M262,232 Q296,220 292,250 Q282,266 258,258 Z" fill="#E7DFA6" stroke="#2d263c" stroke-width="7" stroke-linejoin="round"/>
  <ellipse cx="97" cy="298" rx="30" ry="24" fill="#E7DFA6" stroke="#2d263c" stroke-width="7" stroke-linejoin="round"/>
  <ellipse cx="150" cy="310" rx="30" ry="24" fill="#E7DFA6" stroke="#2d263c" stroke-width="7" stroke-linejoin="round"/>
  <ellipse cx="212" cy="310" rx="30" ry="24" fill="#E7DFA6" stroke="#2d263c" stroke-width="7" stroke-linejoin="round"/>
  <ellipse cx="265" cy="298" rx="30" ry="24" fill="#E7DFA6" stroke="#2d263c" stroke-width="7" stroke-linejoin="round"/>
  <ellipse cx="180" cy="222" rx="116" ry="84" fill="#EAE2AE" stroke="#2d263c" stroke-width="8" stroke-linejoin="round"/>
  <path d="M68,220 Q66,108 180,102 Q294,108 292,220 Q292,248 180,252 Q68,248 68,220 Z" fill="#7A5233" stroke="#2d263c" stroke-width="8" stroke-linejoin="round"/>
  <path d="M96,214 Q96,132 180,126 Q264,132 264,214 Q264,230 180,234 Q96,230 96,214 Z" fill="#C9A66B" stroke="#2d263c" stroke-width="5" stroke-linejoin="round"/>
  <path d="M132,140 Q120,175 128,214" fill="none" stroke="#5E3B26" stroke-width="5" stroke-linecap="round"/>
  <path d="M180,128 Q176,172 180,220" fill="none" stroke="#5E3B26" stroke-width="5" stroke-linecap="round"/>
  <path d="M228,140 Q240,175 232,214" fill="none" stroke="#5E3B26" stroke-width="5" stroke-linecap="round"/>
  <circle cx="180" cy="120" r="60" fill="#EAE2AE" stroke="#2d263c" stroke-width="8"/>
  <path d="M122,102 Q128,56 180,54 Q232,56 238,102 Q192,74 180,74 Q168,74 122,102 Z" fill="#4F7942" stroke="#2d263c" stroke-width="7" stroke-linejoin="round"/>
  <path d="M180,58 L180,32" fill="none" stroke="#3E6134" stroke-width="7" stroke-linecap="round"/>
  <ellipse cx="166" cy="28" rx="15" ry="7" fill="#6FAE5C" stroke="#2d263c" stroke-width="5" transform="rotate(-25 166 28)"/>
  <ellipse cx="196" cy="27" rx="15" ry="7" fill="#6FAE5C" stroke="#2d263c" stroke-width="5" transform="rotate(20 196 27)"/>
  <ellipse cx="145" cy="140" rx="8" ry="7" fill="#F3B4C4" opacity="0.6"/>
  <ellipse cx="215" cy="140" rx="8" ry="7" fill="#F3B4C4" opacity="0.6"/>
  <ellipse cx="153" cy="120" rx="12" ry="15" fill="#241f2e" stroke="#2d263c" stroke-width="5"/>
  <ellipse cx="207" cy="120" rx="12" ry="15" fill="#241f2e" stroke="#2d263c" stroke-width="5"/>
  <circle cx="149" cy="114" r="4" fill="#ffffff"/>
  <circle cx="203" cy="114" r="4" fill="#ffffff"/>
  <path d="M166,142 Q180,158 194,142 Q180,152 166,142 Z" fill="#F0C33C" stroke="#2d263c" stroke-width="6" stroke-linejoin="round"/>
</svg>
