<svg xmlns="http://www.w3.org/2000/svg" viewBox="0 0 360 360">
  <ellipse cx="180" cy="205" rx="118" ry="98" fill="#9cc4ec" stroke="#2d263c" stroke-width="7" stroke-linejoin="round"/>
  <path d="M75 225 Q100 285 165 292 Q140 250 100 220 Z" fill="#e9f3ff" stroke="#2d263c" stroke-width="6" stroke-linejoin="round" stroke-linecap="round"/>
  <path d="M60 190 Q30 185 22 205 Q30 225 62 218 Q55 203 60 190 Z" fill="#7ba8dc" stroke="#2d263c" stroke-width="6" stroke-linejoin="round" stroke-linecap="round"/>
  <path d="M300 190 Q330 185 338 205 Q330 225 298 218 Q305 203 300 190 Z" fill="#7ba8dc" stroke="#2d263c" stroke-width="6" stroke-linejoin="round" stroke-linecap="round"/>
  <path d="M150 108 Q180 60 210 108 Q190 122 180 128 Q170 122 150 108 Z" fill="#7ba8dc" stroke="#2d263c" stroke-width="6" stroke-linejoin="round" stroke-linecap="round"/>
  <path d="M78 235 Q60 275 82 305 Q108 290 112 260 Z" fill="#7ba8dc" stroke="#2d263c" stroke-width="6" stroke-linejoin="round" stroke-linecap="round"/>
  <path d="M282 235 Q300 275 278 305 Q252 290 248 260 Z" fill="#7ba8dc" stroke="#2d263c" stroke-width="6" stroke-linejoin="round" stroke-linecap="round"/>
  <circle cx="150" cy="180" r="12" fill="#5a86bc" opacity="0.6"/>
  <circle cx="215" cy="170" r="9" fill="#5a86bc" opacity="0.6"/>
  <circle cx="195" cy="235" r="7" fill="#5a86bc" opacity="0.5"/>
  <path d="M140 200 Q152 190 164 200" stroke="#2d263c" stroke-width="7" fill="none" stroke-linecap="round"/>
  <path d="M196 200 Q208 190 220 200" stroke="#2d263c" stroke-width="7" fill="none" stroke-linecap="round"/>
  <path d="M155 233 Q170 245 185 233" stroke="#2d263c" stroke-width="6" fill="none" stroke-linecap="round"/>
  <circle cx="120" cy="222" r="10" fill="#f4b8c8" opacity="0.7"/>
  <circle cx="238" cy="222" r="10" fill="#f4b8c8" opacity="0.7"/>
</svg>
