<svg xmlns="http://www.w3.org/2000/svg" viewBox="0 0 360 360">
  <ellipse cx="180" cy="300" rx="34" ry="16" fill="#5a4a86" stroke="#2d263c" stroke-width="7" stroke-linejoin="round"/>
  <ellipse cx="252" cy="300" rx="34" ry="16" fill="#5a4a86" stroke="#2d263c" stroke-width="7" stroke-linejoin="round"/>
  <ellipse cx="118" cy="212" rx="30" ry="22" fill="#f4d97a" stroke="#2d263c" stroke-width="7" stroke-linejoin="round"/>
  <ellipse cx="278" cy="212" rx="30" ry="22" fill="#f4d97a" stroke="#2d263c" stroke-width="7" stroke-linejoin="round"/>
  <ellipse cx="200" cy="255" rx="98" ry="90" fill="#f7e18f" stroke="#2d263c" stroke-width="8" stroke-linejoin="round"/>
  <path d="M118 260 Q140 300 200 305 Q260 300 282 260 Q290 285 260 305 Q230 320 200 320 Q170 320 140 305 Q110 285 118 260 Z" fill="#f6c9dc" stroke="#2d263c" stroke-width="6" stroke-linejoin="round"/>
  <path d="M96 200 Q88 130 150 90 Q170 78 200 78 Q230 78 250 90 Q312 130 304 200 Q300 235 260 240 L140 240 Q100 235 96 200 Z" fill="#8b95a8" stroke="#2d263c" stroke-width="8" stroke-linejoin="round"/>
  <path d="M148 205 Q150 150 200 138 Q250 150 252 205 Q250 232 200 236 Q150 232 148 205 Z" fill="#3f4a5e" stroke="#2d263c" stroke-width="7" stroke-linejoin="round"/>
  <ellipse cx="200" cy="80" rx="14" ry="10" fill="#8b95a8" stroke="#2d263c" stroke-width="7" stroke-linejoin="round"/>
  <circle cx="180" cy="198" r="10" fill="#2d263c"/>
  <circle cx="220" cy="198" r="10" fill="#2d263c"/>
  <path d="M170 222 Q200 232 230 222" fill="none" stroke="#2d263c" stroke-width="6" stroke-linecap="round"/>
  <ellipse cx="160" cy="212" rx="8" ry="6" fill="#f2a3ba" opacity="0.85"/>
  <ellipse cx="240" cy="212" rx="8" ry="6" fill="#f2a3ba" opacity="0.85"/>
  <path d="M118 168 Q100 176 96 200" fill="none" stroke="#2d263c" stroke-width="6" stroke-linecap="round"/>
  <path d="M282 168 Q300 176 304 200" fill="none" stroke="#2d263c" stroke-width="6" stroke-linecap="round"/>
</svg>
