<svg xmlns="http://www.w3.org/2000/svg" viewBox="0 0 360 360">
  <path d="M90,150 C150,130 250,132 290,155 C250,175 150,172 90,150 Z" fill="#5bb8d9" opacity="0.45"/>
  <path d="M50,195 C50,163 82,132 135,130 C200,126 265,144 305,178 C325,188 325,202 305,212 C265,246 200,264 135,260 C82,258 50,227 50,195 Z" fill="#8fd8ee" stroke="#2d263c" stroke-width="7" stroke-linejoin="round" stroke-linecap="round"/>
  <ellipse cx="175" cy="228" rx="88" ry="26" fill="#fdf6e3"/>
  <path d="M188,128 C195,95 205,80 222,90 C230,100 225,118 210,130 Z" fill="#8fd8ee" stroke="#2d263c" stroke-width="7" stroke-linejoin="round" stroke-linecap="round"/>
  <path d="M115,238 C100,255 100,275 125,278 C145,275 150,255 140,235 Z" fill="#8fd8ee" stroke="#2d263c" stroke-width="7" stroke-linejoin="round" stroke-linecap="round"/>
  <path d="M300,180 L335,158 L318,196 L335,235 L300,210 Z" fill="#8fd8ee" stroke="#2d263c" stroke-width="7" stroke-linejoin="round" stroke-linecap="round"/>
  <path d="M320,162 L332,162 L320,196 Z" fill="#5bb8d9" opacity="0.5"/>
  <circle cx="80" cy="200" r="14" fill="#ffb6c9" opacity="0.55"/>
  <circle cx="100" cy="175" r="20" fill="#ffffff" stroke="#2d263c" stroke-width="6" stroke-linejoin="round"/>
  <circle cx="104" cy="178" r="9" fill="#2d263c"/>
  <circle cx="99" cy="172" r="3" fill="#ffffff"/>
  <ellipse cx="118" cy="138" rx="4" ry="6" fill="#2d263c"/>
  <path d="M78,205 Q95,218 112,206" fill="none" stroke="#2d263c" stroke-width="6" stroke-linecap="round"/>
</svg>
