<svg xmlns="http://www.w3.org/2000/svg" viewBox="0 0 360 360">
<ellipse cx="180" cy="272" rx="56" ry="52" fill="#b8b0c4" stroke="#2d263c" stroke-width="8" stroke-linejoin="round"/>
<ellipse cx="150" cy="318" rx="20" ry="14" fill="#b8b0c4" stroke="#2d263c" stroke-width="6"/>
<ellipse cx="210" cy="318" rx="20" ry="14" fill="#b8b0c4" stroke="#2d263c" stroke-width="6"/>
<circle cx="180" cy="150" r="92" fill="#b8b0c4" stroke="#2d263c" stroke-width="8"/>
<path d="M113 98 Q100 48 142 78 Q152 95 140 115 Z" fill="#b8b0c4" stroke="#2d263c" stroke-width="7" stroke-linejoin="round"/>
<path d="M247 98 Q260 48 218 78 Q208 95 220 115 Z" fill="#b8b0c4" stroke="#2d263c" stroke-width="7" stroke-linejoin="round"/>
<ellipse cx="128" cy="92" rx="15" ry="22" fill="#e89ab0" stroke="#2d263c" stroke-width="5"/>
<ellipse cx="232" cy="92" rx="15" ry="22" fill="#e89ab0" stroke="#2d263c" stroke-width="5"/>
<circle cx="150" cy="152" r="19" fill="#2d263c"/>
<circle cx="210" cy="152" r="19" fill="#2d263c"/>
<circle cx="157" cy="147" r="6" fill="#fff"/>
<circle cx="217" cy="147" r="6" fill="#fff"/>
<ellipse cx="180" cy="180" rx="5" ry="4" fill="#2d263c"/>
<path d="M168 190 Q180 198 192 190" fill="none" stroke="#2d263c" stroke-width="4" stroke-linecap="round"/>
<path d="M180 182 L175 190 M180 182 L185 190" stroke="#2d263c" stroke-width="4" stroke-linecap="round"/>
</svg>
