<svg xmlns="http://www.w3.org/2000/svg" viewBox="0 0 360 360">
  <!-- 後ろ足 左 -->
  <ellipse cx="108" cy="290" rx="38" ry="22" fill="#2ab05a" stroke="#2d263c" stroke-width="7" stroke-linejoin="round"/>
  <ellipse cx="88" cy="303" rx="16" ry="10" fill="#2ab05a" stroke="#2d263c" stroke-width="6" stroke-linejoin="round"/>
  <ellipse cx="108" cy="308" rx="16" ry="10" fill="#2ab05a" stroke="#2d263c" stroke-width="6" stroke-linejoin="round"/>
  <ellipse cx="128" cy="305" rx="15" ry="10" fill="#2ab05a" stroke="#2d263c" stroke-width="6" stroke-linejoin="round"/>

  <!-- 後ろ足 右 -->
  <ellipse cx="252" cy="290" rx="38" ry="22" fill="#2ab05a" stroke="#2d263c" stroke-width="7" stroke-linejoin="round"/>
  <ellipse cx="232" cy="305" rx="15" ry="10" fill="#2ab05a" stroke="#2d263c" stroke-width="6" stroke-linejoin="round"/>
  <ellipse cx="252" cy="308" rx="16" ry="10" fill="#2ab05a" stroke="#2d263c" stroke-width="6" stroke-linejoin="round"/>
  <ellipse cx="272" cy="303" rx="16" ry="10" fill="#2ab05a" stroke="#2d263c" stroke-width="6" stroke-linejoin="round"/>

  <!-- 体 -->
  <ellipse cx="180" cy="230" rx="105" ry="100" fill="#2ab05a" stroke="#2d263c" stroke-width="8" stroke-linejoin="round"/>

  <!-- 腹 (クリーム色) -->
  <ellipse cx="180" cy="248" rx="68" ry="68" fill="#f5e8b0" stroke="#2d263c" stroke-width="5" stroke-linejoin="round"/>

  <!-- 腹のグルグル模様 -->
  <path d="M180,240 C180,230 168,228 165,235 C162,242 170,252 180,252 C190,252 198,244 196,236 C194,228 184,224 176,229" fill="none" stroke="#2d263c" stroke-width="4.5" stroke-linecap="round"/>

  <!-- しっぽ -->
  <path d="M278,215 C298,205 315,195 310,178 C305,161 288,168 292,182 C296,194 285,202 275,208" fill="#2ab05a" stroke="#2d263c" stroke-width="7" stroke-linejoin="round" stroke-linecap="round"/>

  <!-- 前足 左 -->
  <ellipse cx="100" cy="262" rx="28" ry="18" fill="#2ab05a" stroke="#2d263c" stroke-width="7" stroke-linejoin="round" transform="rotate(-30,100,262)"/>
  <ellipse cx="78" cy="258" rx="13" ry="9" fill="#2ab05a" stroke="#2d263c" stroke-width="5" stroke-linejoin="round"/>
  <ellipse cx="92" cy="267" rx="13" ry="9" fill="#2ab05a" stroke="#2d263c" stroke-width="5" stroke-linejoin="round"/>
  <ellipse cx="108" cy="270" rx="12" ry="9" fill="#2ab05a" stroke="#2d263c" stroke-width="5" stroke-linejoin="round"/>

  <!-- 前足 右 -->
  <ellipse cx="260" cy="262" rx="28" ry="18" fill="#2ab05a" stroke="#2d263c" stroke-width="7" stroke-linejoin="round" transform="rotate(30,260,262)"/>
  <ellipse cx="252" cy="270" rx="12" ry="9" fill="#2ab05a" stroke="#2d263c" stroke-width="5" stroke-linejoin="round"/>
  <ellipse cx="268" cy="267" rx="13" ry="9" fill="#2ab05a" stroke="#2d263c" stroke-width="5" stroke-linejoin="round"/>
  <ellipse cx="282" cy="258" rx="13" ry="9" fill="#2ab05a" stroke="#2d263c" stroke-width="5" stroke-linejoin="round"/>

  <!-- 頭 -->
  <ellipse cx="180" cy="148" rx="85" ry="80" fill="#2ab05a" stroke="#2d263c" stroke-width="8" stroke-linejoin="round"/>

  <!-- 目 左 (大きくて丸い) -->
  <ellipse cx="148" cy="145" rx="22" ry="24" fill="white" stroke="#2d263c" stroke-width="6" stroke-linejoin="round"/>
  <ellipse cx="150" cy="147" rx="13" ry="14" fill="#1a1a2e" stroke="none"/>
  <ellipse cx="155" cy="141" rx="5" ry="5" fill="white" stroke="none"/>

  <!-- 目 右 (少しずれてる・ゆるさ演出) -->
  <ellipse cx="214" cy="142" rx="21" ry="25" fill="white" stroke="#2d263c" stroke-width="6" stroke-linejoin="round"/>
  <ellipse cx="216" cy="144" rx="12" ry="14" fill="#1a1a2e" stroke="none"/>
  <ellipse cx="221" cy="138" rx="5" ry="5" fill="white" stroke="none"/>

  <!-- おでこのグルグルコイル (赤) -->
  <path d="M180,88 C185,78 196,75 200,82 C204,90 197,100 188,102 C179,104 170,97 170,88 C170,79 178,72 187,73" fill="none" stroke="#e03030" stroke-width="5" stroke-linecap="round"/>

  <!-- ほっぺ 左 (丸い赤) -->
  <ellipse cx="130" cy="168" rx="16" ry="13" fill="#e85050" stroke="#2d263c" stroke-width="4" stroke-linejoin="round" opacity="0.85"/>

  <!-- ほっぺ 右 -->
  <ellipse cx="230" cy="165" rx="16" ry="13" fill="#e85050" stroke="#2d263c" stroke-width="4" stroke-linejoin="round" opacity="0.85"/>

  <!-- 口 (ニンマリ) -->
  <path d="M162,178 C170,186 192,188 200,179" fill="none" stroke="#2d263c" stroke-width="5" stroke-linecap="round"/>
</svg>