<svg xmlns="http://www.w3.org/2000/svg" viewBox="0 0 360 360">
  <!-- 尻尾(後ろ) -->
  <path d="M252 285 C295 280 312 240 295 212 C288 200 276 206 279 218 C283 240 268 262 248 270 Z" fill="#3a2d3f" stroke="#2d263c" stroke-width="7" stroke-linejoin="round"/>

  <!-- 後ろ脚(太め) -->
  <ellipse cx="134" cy="310" rx="30" ry="22" fill="#3a2d3f" stroke="#2d263c" stroke-width="7"/>
  <ellipse cx="226" cy="310" rx="30" ry="22" fill="#3a2d3f" stroke="#2d263c" stroke-width="7"/>
  <!-- 脚の縞 -->
  <path d="M118 312 L128 312 M140 312 L150 312" stroke="#d44a3a" stroke-width="5" stroke-linecap="round"/>
  <path d="M210 312 L220 312 M232 312 L242 312" stroke="#d44a3a" stroke-width="5" stroke-linecap="round"/>

  <!-- 体(がっしり) -->
  <path d="M180 180 C120 185 100 250 110 305 C120 330 240 330 250 305 C260 250 240 185 180 180 Z" fill="#3a2d3f" stroke="#2d263c" stroke-width="8" stroke-linejoin="round"/>

  <!-- 体の赤い縞 -->
  <path d="M138 240 Q180 234 222 240" fill="none" stroke="#d44a3a" stroke-width="9" stroke-linecap="round"/>
  <path d="M134 268 Q180 262 226 268" fill="none" stroke="#d44a3a" stroke-width="9" stroke-linecap="round"/>

  <!-- 首の火のベルト(特徴) -->
  <rect x="128" y="186" width="104" height="26" rx="13" fill="#3a2d3f" stroke="#2d263c" stroke-width="6"/>
  <circle cx="180" cy="199" r="18" fill="#f0a83c" stroke="#2d263c" stroke-width="6"/>
  <circle cx="180" cy="199" r="10" fill="#f4632a" stroke="#2d263c" stroke-width="4"/>

  <!-- 頭 -->
  <circle cx="180" cy="120" r="68" fill="#3a2d3f" stroke="#2d263c" stroke-width="8"/>

  <!-- 耳 -->
  <path d="M132 82 L112 36 L158 72 Z" fill="#3a2d3f" stroke="#2d263c" stroke-width="6" stroke-linejoin="round"/>
  <path d="M228 82 L248 36 L202 72 Z" fill="#3a2d3f" stroke="#2d263c" stroke-width="6" stroke-linejoin="round"/>
  <path d="M136 76 L124 46 L150 70 Z" fill="#d44a3a" stroke="#2d263c" stroke-width="4" stroke-linejoin="round"/>
  <path d="M224 76 L236 46 L210 70 Z" fill="#d44a3a" stroke="#2d263c" stroke-width="4" stroke-linejoin="round"/>

  <!-- 額の赤い模様 -->
  <path d="M170 66 L180 40 L190 66 L185 76 L175 76 Z" fill="#d44a3a" stroke="#2d263c" stroke-width="5" stroke-linejoin="round"/>

  <!-- 目 -->
  <ellipse cx="154" cy="118" rx="15" ry="17" fill="#f4d44a" stroke="#2d263c" stroke-width="5"/>
  <ellipse cx="206" cy="118" rx="15" ry="17" fill="#f4d44a" stroke="#2d263c" stroke-width="5"/>
  <ellipse cx="154" cy="120" rx="5" ry="12" fill="#2d263c"/>
  <ellipse cx="206" cy="120" rx="5" ry="12" fill="#2d263c"/>

  <!-- 鼻 -->
  <path d="M174 142 Q180 138 186 142 Q182 148 180 149 Q178 148 174 142 Z" fill="#e8879a" stroke="#2d263c" stroke-width="4" stroke-linejoin="round"/>

  <!-- 口 -->
  <path d="M168 158 Q174 166 180 160 Q186 166 192 158" fill="none" stroke="#2d263c" stroke-width="5" stroke-linecap="round"/>

  <!-- ひげ -->
  <path d="M128 148 L96 142 M128 156 L96 160 M128 164 L96 176" stroke="#2d263c" stroke-width="4" stroke-linecap="round"/>
  <path d="M232 148 L264 142 M232 156 L264 160 M232 164 L264 176" stroke="#2d263c" stroke-width="4" stroke-linecap="round"/>
</svg>
