<svg xmlns="http://www.w3.org/2000/svg" viewBox="0 0 360 360">
  <path d="M232,258 C270,245 300,205 298,155 C296,120 280,90 262,78 C276,92 288,120 284,158 C280,198 250,232 210,242 Z" fill="#57506a" stroke="#2d263c" stroke-width="7" stroke-linejoin="round"/>
  <path d="M255,88 C245,70 250,48 268,38 C286,48 290,72 272,90 C266,84 260,86 255,88 Z" fill="#5fae4d" stroke="#2d263c" stroke-width="6" stroke-linejoin="round"/>
  <path d="M275,175 C280,150 280,125 272,100" fill="none" stroke="#3f8a37" stroke-width="5" stroke-linecap="round"/>
  <ellipse cx="225" cy="320" rx="20" ry="13" fill="#57506a" stroke="#2d263c" stroke-width="7"/>
  <path d="M112,235 C100,272 112,308 150,322 L212,322 C250,308 262,270 250,232 C242,195 210,168 180,168 C150,168 122,193 112,235 Z" fill="#57506a" stroke="#2d263c" stroke-width="7" stroke-linejoin="round"/>
  <path d="M152,240 C146,268 156,296 180,300 C204,296 214,268 208,240 C198,254 162,254 152,240 Z" fill="#d9d6c9" stroke="#2d263c" stroke-width="3"/>
  <ellipse cx="152" cy="320" rx="19" ry="12" fill="#57506a" stroke="#2d263c" stroke-width="7"/>
  <ellipse cx="208" cy="320" rx="19" ry="12" fill="#57506a" stroke="#2d263c" stroke-width="7"/>
  <path d="M136,118 L108,55 L166,98 Z" fill="#57506a" stroke="#2d263c" stroke-width="7" stroke-linejoin="round"/>
  <path d="M224,118 L252,55 L194,98 Z" fill="#57506a" stroke="#2d263c" stroke-width="7" stroke-linejoin="round"/>
  <path d="M134,105 L118,72 L152,95 Z" fill="#847a94"/>
  <path d="M226,105 L242,72 L208,95 Z" fill="#847a94"/>
  <circle cx="180" cy="150" r="58" fill="#57506a" stroke="#2d263c" stroke-width="7"/>
  <path d="M118,178 C104,168 100,148 112,132 C122,150 128,160 136,170 Z" fill="#5fae4d" stroke="#2d263c" stroke-width="6" stroke-linejoin="round"/>
  <path d="M142,205 C126,202 114,186 119,167 C133,180 143,187 153,197 Z" fill="#5fae4d" stroke="#2d263c" stroke-width="6" stroke-linejoin="round"/>
  <path d="M180,215 C165,215 156,199 161,180 C173,193 183,201 193,209 Z" fill="#5fae4d" stroke="#2d263c" stroke-width="6" stroke-linejoin="round"/>
  <path d="M218,205 C234,202 246,186 241,167 C227,180 217,187 207,197 Z" fill="#5fae4d" stroke="#2d263c" stroke-width="6" stroke-linejoin="round"/>
  <path d="M242,178 C256,168 260,148 248,132 C238,150 232,160 224,170 Z" fill="#5fae4d" stroke="#2d263c" stroke-width="6" stroke-linejoin="round"/>
  <ellipse cx="160" cy="147" rx="13" ry="16" fill="#d7e86a" stroke="#2d263c" stroke-width="5"/>
  <ellipse cx="200" cy="147" rx="13" ry="16" fill="#d7e86a" stroke="#2d263c" stroke-width="5"/>
  <circle cx="160" cy="150" r="5" fill="#2d263c"/>
  <circle cx="200" cy="150" r="5" fill="#2d263c"/>
  <path d="M174,170 L186,170 L180,180 Z" fill="#e8879c" stroke="#2d263c" stroke-width="4" stroke-linejoin="round"/>
  <path d="M180,180 C176,188 168,190 161,186 M180,180 C184,188 192,190 199,186" fill="none" stroke="#2d263c" stroke-width="5" stroke-linecap="round"/>
  <circle cx="128" cy="162" r="3" fill="#2d263c"/>
  <circle cx="232" cy="162" r="3" fill="#2d263c"/>
</svg>
