<svg xmlns="http://www.w3.org/2000/svg" viewBox="0 0 360 360">
  <!-- しっぽ（後ろ） -->
  <path d="M260 230 Q310 190 320 240 Q330 290 280 310 Q250 320 230 290 Q215 265 260 230Z" fill="#e8637a" stroke="#2d263c" stroke-width="7" stroke-linejoin="round"/>
  <path d="M265 240 Q300 210 305 250 Q308 280 275 295 Q255 300 245 278 Q238 262 265 240Z" fill="#f2c4d8" stroke="none"/>

  <!-- 右後ろ足 -->
  <ellipse cx="255" cy="300" rx="22" ry="14" fill="#f2c4d8" stroke="#2d263c" stroke-width="7" stroke-linejoin="round"/>
  <!-- 左後ろ足 -->
  <ellipse cx="165" cy="305" rx="22" ry="14" fill="#f2c4d8" stroke="#2d263c" stroke-width="7" stroke-linejoin="round"/>

  <!-- 体 -->
  <ellipse cx="200" cy="240" rx="85" ry="75" fill="#f5dce8" stroke="#2d263c" stroke-width="8" stroke-linejoin="round"/>

  <!-- 腹の白っぽいゾーン -->
  <ellipse cx="195" cy="255" rx="52" ry="45" fill="#fdf0f5" stroke="none"/>

  <!-- 右前足 -->
  <path d="M255 268 Q270 275 268 295 Q265 308 252 308 Q240 308 238 295 Q236 278 248 268Z" fill="#f2c4d8" stroke="#2d263c" stroke-width="7" stroke-linejoin="round"/>
  <!-- 左前足 -->
  <path d="M148 268 Q135 275 137 295 Q140 308 152 308 Q164 308 165 295 Q166 278 155 268Z" fill="#f2c4d8" stroke="#2d263c" stroke-width="7" stroke-linejoin="round"/>

  <!-- 頭 -->
  <circle cx="195" cy="160" r="68" fill="#f5dce8" stroke="#2d263c" stroke-width="8" stroke-linejoin="round"/>

  <!-- 左耳(大きく垂れた耳) -->
  <path d="M148 130 Q118 100 110 155 Q105 200 140 215 Q165 222 175 185 Q182 160 165 145Z" fill="#e8637a" stroke="#2d263c" stroke-width="7" stroke-linejoin="round"/>
  <path d="M150 138 Q128 115 122 162 Q120 195 145 205 Q162 210 168 182 Q173 163 161 150Z" fill="#f2a0b8" stroke="none"/>
  <!-- 左耳の宝石 -->
  <ellipse cx="130" cy="215" rx="9" ry="7" fill="#78c8c8" stroke="#2d263c" stroke-width="4"/>

  <!-- 右耳(やや非対称) -->
  <path d="M242 128 Q272 95 282 148 Q290 192 258 210 Q236 218 228 185 Q222 162 238 143Z" fill="#e8637a" stroke="#2d263c" stroke-width="7" stroke-linejoin="round"/>
  <path d="M245 137 Q268 112 274 155 Q280 188 254 202 Q240 207 234 182 Q230 164 242 150Z" fill="#f2a0b8" stroke="none"/>
  <!-- 右耳の宝石 -->
  <ellipse cx="270" cy="208" rx="9" ry="7" fill="#78c8c8" stroke="#2d263c" stroke-width="4"/>

  <!-- 頭のリボン飾り -->
  <ellipse cx="195" cy="98" rx="18" ry="10" fill="#e8637a" stroke="#2d263c" stroke-width="5"/>
  <!-- 首のフィーラー帯（左） -->
  <path d="M163 175 Q130 165 100 150 Q78 138 72 125 Q68 114 78 110 Q88 107 98 120 Q115 140 145 158Z" fill="#f5dce8" stroke="#2d263c" stroke-width="6" stroke-linecap="round" stroke-linejoin="round"/>
  <path d="M163 178 Q130 170 102 158 Q84 148 80 138 Q82 130 90 133 Q104 140 130 160Z" fill="#e8637a" stroke="none"/>
  <!-- フィーラー先端のマル（左） -->
  <circle cx="73" cy="118" r="9" fill="#e8637a" stroke="#2d263c" stroke-width="5"/>

  <!-- 右フィーラー帯 -->
  <path d="M228 172 Q262 158 295 140 Q318 126 322 114 Q326 104 316 101 Q306 99 296 113 Q278 136 245 158Z" fill="#f5dce8" stroke="#2d263c" stroke-width="6" stroke-linecap="round" stroke-linejoin="round"/>
  <path d="M228 176 Q260 163 290 148 Q310 137 314 126 Q312 118 304 122 Q288 132 255 158Z" fill="#e8637a" stroke="none"/>
  <!-- フィーラー先端のマル（右） -->
  <circle cx="322" cy="109" r="9" fill="#e8637a" stroke="#2d263c" stroke-width="5"/>

  <!-- 目（左・うるうる） -->
  <ellipse cx="174" cy="162" rx="16" ry="18" fill="#2d7ab5" stroke="#2d263c" stroke-width="5"/>
  <ellipse cx="174" cy="164" rx="10" ry="12" fill="#1a4f80"/>
  <circle cx="170" cy="158" r="5" fill="white"/>
  <circle cx="179" cy="165" r="3" fill="white" opacity="0.7"/>

  <!-- 目（右・やや非対称でちょっと大きい） -->
  <ellipse cx="216" cy="160" rx="17" ry="19" fill="#2d7ab5" stroke="#2d263c" stroke-width="5"/>
  <ellipse cx="216" cy="162" rx="11" ry="13" fill="#1a4f80"/>
  <circle cx="211" cy="156" r="5" fill="white"/>
  <circle cx="221" cy="163" r="3" fill="white" opacity="0.7"/>

  <!-- ほっぺの青い斑点（左） -->
  <ellipse cx="158" cy="182" rx="12" ry="8" fill="#a8d8e8" opacity="0.75" stroke="none"/>
  <!-- ほっぺの青い斑点（右） -->
  <ellipse cx="232" cy="180" rx="13" ry="8" fill="#a8d8e8" opacity="0.75" stroke="none"/>

  <!-- 鼻 -->
  <ellipse cx="195" cy="177" rx="5" ry="3" fill="#d87090"/>

  <!-- 口（おちょぼ・ちょっとへにゃっとした笑顔） -->
  <path d="M187 184 Q195 191 204 184" fill="none" stroke="#d87090" stroke-width="4" stroke-linecap="round"/>
</svg>