<svg xmlns="http://www.w3.org/2000/svg" viewBox="0 0 360 360">
  <path d="M268,145 C300,125 322,92 302,66 C288,48 262,56 265,76 C267,92 284,93 286,78" fill="none" stroke="#2d263c" stroke-width="8" stroke-linecap="round" stroke-linejoin="round"/>
  <rect x="70" y="100" width="220" height="212" rx="52" ry="52" fill="#f5e2a8" stroke="#2d263c" stroke-width="8" stroke-linejoin="round"/>
  <path d="M100,112 L128,54 L156,112 Z" fill="#f5e2a8" stroke="#2d263c" stroke-width="7" stroke-linejoin="round"/>
  <path d="M204,112 L232,54 L260,112 Z" fill="#f5e2a8" stroke="#2d263c" stroke-width="7" stroke-linejoin="round"/>
  <ellipse cx="180" cy="282" rx="62" ry="30" fill="#fbeecb"/>
  <circle cx="180" cy="175" r="52" fill="#e8b923" stroke="#2d263c" stroke-width="7"/>
  <line x1="180" y1="143" x2="180" y2="207" stroke="#2d263c" stroke-width="7" stroke-linecap="round"/>
  <line x1="148" y1="175" x2="212" y2="175" stroke="#2d263c" stroke-width="7" stroke-linecap="round"/>
  <ellipse cx="145" cy="240" rx="14" ry="18" fill="#2d263c"/>
  <ellipse cx="215" cy="240" rx="14" ry="18" fill="#2d263c"/>
  <circle cx="150" cy="233" r="4" fill="#ffffff"/>
  <circle cx="220" cy="233" r="4" fill="#ffffff"/>
  <circle cx="122" cy="256" r="9" fill="#f7a8a8" opacity="0.6"/>
  <circle cx="238" cy="256" r="9" fill="#f7a8a8" opacity="0.6"/>
  <path d="M172,258 L188,258 L180,268 Z" fill="#2d263c" stroke="#2d263c" stroke-width="3" stroke-linejoin="round"/>
  <path d="M150,275 Q165,292 180,276 Q195,292 210,275" fill="none" stroke="#2d263c" stroke-width="6" stroke-linecap="round" stroke-linejoin="round"/>
  <line x1="128" y1="252" x2="66" y2="240" stroke="#2d263c" stroke-width="5" stroke-linecap="round"/>
  <line x1="128" y1="262" x2="62" y2="262" stroke="#2d263c" stroke-width="5" stroke-linecap="round"/>
  <line x1="128" y1="272" x2="66" y2="284" stroke="#2d263c" stroke-width="5" stroke-linecap="round"/>
  <line x1="232" y1="252" x2="294" y2="240" stroke="#2d263c" stroke-width="5" stroke-linecap="round"/>
  <line x1="232" y1="262" x2="298" y2="262" stroke="#2d263c" stroke-width="5" stroke-linecap="round"/>
  <line x1="232" y1="272" x2="294" y2="284" stroke="#2d263c" stroke-width="5" stroke-linecap="round"/>
  <path d="M92,190 Q80,210 92,232" fill="none" stroke="#2d263c" stroke-width="5" stroke-linecap="round"/>
  <path d="M268,190 Q280,210 268,232" fill="none" stroke="#2d263c" stroke-width="5" stroke-linecap="round"/>
  <ellipse cx="108" cy="308" rx="30" ry="20" fill="#f5e2a8" stroke="#2d263c" stroke-width="7"/>
  <ellipse cx="252" cy="308" rx="30" ry="20" fill="#f5e2a8" stroke="#2d263c" stroke-width="7"/>
</svg>
