<svg xmlns="http://www.w3.org/2000/svg" viewBox="0 0 360 360">
  <!-- tail (behind body) -->
  <path d="M225,225 Q290,235 315,275 Q325,295 305,300 Q285,302 275,280 Q255,250 210,240 Z" fill="#8E67B8" stroke="#2d263c" stroke-width="7" stroke-linejoin="round"/>

  <!-- back spikes (behind body, in front of tail) -->
  <path d="M150,95 L165,60 L180,95 Z" fill="#6E4C99" stroke="#2d263c" stroke-width="6" stroke-linejoin="round"/>
  <path d="M175,110 L192,72 L207,112 Z" fill="#6E4C99" stroke="#2d263c" stroke-width="6" stroke-linejoin="round"/>
  <path d="M205,125 L222,90 L235,128 Z" fill="#6E4C99" stroke="#2d263c" stroke-width="6" stroke-linejoin="round"/>

  <!-- legs -->
  <path d="M135,245 Q125,280 128,315 Q128,325 145,325 Q160,325 160,312 Q158,280 168,248 Z" fill="#9B72C4" stroke="#2d263c" stroke-width="7" stroke-linejoin="round"/>
  <path d="M205,248 Q212,282 210,314 Q210,325 226,325 Q242,325 242,313 Q244,280 235,246 Z" fill="#9B72C4" stroke="#2d263c" stroke-width="7" stroke-linejoin="round"/>

  <!-- feet -->
  <ellipse cx="145" cy="322" rx="27" ry="14" fill="#9B72C4" stroke="#2d263c" stroke-width="7"/>
  <ellipse cx="228" cy="322" rx="27" ry="14" fill="#9B72C4" stroke="#2d263c" stroke-width="7"/>
  <path d="M130,320 L122,332 M145,323 L142,336 M160,320 L165,333" fill="none" stroke="#2d263c" stroke-width="5" stroke-linecap="round"/>
  <path d="M213,320 L207,333 M228,324 L228,337 M244,320 L250,332" fill="none" stroke="#2d263c" stroke-width="5" stroke-linecap="round"/>

  <!-- arms -->
  <path d="M120,165 Q90,180 82,215 Q78,235 92,240 Q104,242 108,225 Q116,195 138,178 Z" fill="#9B72C4" stroke="#2d263c" stroke-width="7" stroke-linejoin="round"/>
  <path d="M240,165 Q270,182 278,216 Q283,236 268,241 Q256,243 253,226 Q246,196 224,178 Z" fill="#9B72C4" stroke="#2d263c" stroke-width="7" stroke-linejoin="round"/>
  <circle cx="93" cy="228" r="20" fill="#9B72C4" stroke="#2d263c" stroke-width="7"/>
  <circle cx="269" cy="229" r="20" fill="#9B72C4" stroke="#2d263c" stroke-width="7"/>

  <!-- torso -->
  <path d="M180,110 Q235,112 245,175 Q252,225 225,260 Q205,278 180,278 Q155,278 135,260 Q108,225 115,175 Q125,112 180,110 Z" fill="#9B72C4" stroke="#2d263c" stroke-width="8" stroke-linejoin="round"/>

  <!-- belly patch -->
  <ellipse cx="180" cy="205" rx="46" ry="58" fill="#F5E8C8" stroke="#2d263c" stroke-width="6"/>
  <path d="M162,175 Q180,185 198,175 M158,205 Q180,216 202,205 M162,235 Q180,244 198,235" fill="none" stroke="#c9b587" stroke-width="4" stroke-linecap="round"/>

  <!-- ears -->
  <path d="M118,90 Q75,70 68,35 Q66,22 80,28 Q118,45 138,80 Z" fill="#8E67B8" stroke="#2d263c" stroke-width="7" stroke-linejoin="round"/>
  <path d="M242,90 Q285,70 292,35 Q294,22 280,28 Q242,45 222,80 Z" fill="#8E67B8" stroke="#2d263c" stroke-width="7" stroke-linejoin="round"/>

  <!-- head -->
  <circle cx="180" cy="100" r="62" fill="#9B72C4" stroke="#2d263c" stroke-width="8"/>

  <!-- snout -->
  <path d="M150,120 Q180,150 210,120 Q205,140 180,142 Q155,140 150,120 Z" fill="#F5E8C8" stroke="#2d263c" stroke-width="6" stroke-linejoin="round"/>

  <!-- horn -->
  <path d="M155,58 Q178,10 200,58 Q182,48 155,58 Z" fill="#D8CFE0" stroke="#2d263c" stroke-width="7" stroke-linejoin="round"/>
  <path d="M168,42 Q178,32 190,42" fill="none" stroke="#2d263c" stroke-width="4" stroke-linecap="round"/>

  <!-- eyes -->
  <ellipse cx="155" cy="92" rx="12" ry="15" fill="#D6483C" stroke="#2d263c" stroke-width="6"/>
  <ellipse cx="207" cy="92" rx="12" ry="15" fill="#D6483C" stroke="#2d263c" stroke-width="6"/>
  <circle cx="151" cy="87" r="3.5" fill="#fff"/>
  <circle cx="203" cy="87" r="3.5" fill="#fff"/>

  <!-- nostrils -->
  <circle cx="171" cy="128" r="3.5" fill="#2d263c"/>
  <circle cx="189" cy="128" r="3.5" fill="#2d263c"/>

  <!-- mouth -->
  <path d="M165,138 Q180,146 195,138" fill="none" stroke="#2d263c" stroke-width="6" stroke-linecap="round"/>
</svg>
