<svg xmlns="http://www.w3.org/2000/svg" viewBox="0 0 360 360">
  <!-- 尻尾(後ろ) -->
  <path d="M250 290 C290 285 305 250 290 225 C284 215 274 220 276 230 C280 248 268 268 248 275 Z" fill="#3a2d3f" stroke="#2d263c" stroke-width="7" stroke-linejoin="round"/>

  <!-- 後ろ脚 -->
  <ellipse cx="138" cy="312" rx="26" ry="20" fill="#3a2d3f" stroke="#2d263c" stroke-width="7"/>
  <ellipse cx="222" cy="312" rx="26" ry="20" fill="#3a2d3f" stroke="#2d263c" stroke-width="7"/>

  <!-- 体 -->
  <path d="M180 190 C130 195 110 250 118 300 C128 328 232 328 242 300 C250 250 230 195 180 190 Z" fill="#3a2d3f" stroke="#2d263c" stroke-width="8" stroke-linejoin="round"/>

  <!-- 体の赤い縞 -->
  <path d="M150 250 Q180 245 210 250" fill="none" stroke="#d44a3a" stroke-width="8" stroke-linecap="round"/>
  <path d="M148 275 Q180 270 212 275" fill="none" stroke="#d44a3a" stroke-width="8" stroke-linecap="round"/>

  <!-- 頭 -->
  <circle cx="180" cy="130" r="66" fill="#3a2d3f" stroke="#2d263c" stroke-width="8"/>

  <!-- 耳 -->
  <path d="M134 92 L116 48 L158 80 Z" fill="#3a2d3f" stroke="#2d263c" stroke-width="6" stroke-linejoin="round"/>
  <path d="M226 92 L244 48 L202 80 Z" fill="#3a2d3f" stroke="#2d263c" stroke-width="6" stroke-linejoin="round"/>
  <path d="M138 86 L128 60 L150 78 Z" fill="#d44a3a" stroke="#2d263c" stroke-width="4" stroke-linejoin="round"/>
  <path d="M222 86 L232 60 L210 78 Z" fill="#d44a3a" stroke="#2d263c" stroke-width="4" stroke-linejoin="round"/>

  <!-- 額の赤いトサカ -->
  <path d="M170 78 L180 48 L190 78 L185 90 L175 90 Z" fill="#d44a3a" stroke="#2d263c" stroke-width="5" stroke-linejoin="round"/>

  <!-- 目 -->
  <ellipse cx="156" cy="128" rx="14" ry="16" fill="#f4d44a" stroke="#2d263c" stroke-width="5"/>
  <ellipse cx="204" cy="128" rx="14" ry="16" fill="#f4d44a" stroke="#2d263c" stroke-width="5"/>
  <ellipse cx="156" cy="130" rx="5" ry="11" fill="#2d263c"/>
  <ellipse cx="204" cy="130" rx="5" ry="11" fill="#2d263c"/>

  <!-- 鼻 -->
  <path d="M174 152 Q180 148 186 152 Q182 158 180 159 Q178 158 174 152 Z" fill="#e8879a" stroke="#2d263c" stroke-width="4" stroke-linejoin="round"/>

  <!-- 口 -->
  <path d="M168 168 Q174 176 180 170 Q186 176 192 168" fill="none" stroke="#2d263c" stroke-width="5" stroke-linecap="round"/>

  <!-- ひげ -->
  <path d="M132 158 L100 152 M132 166 L100 170 M132 174 L100 188" stroke="#2d263c" stroke-width="4" stroke-linecap="round"/>
  <path d="M228 158 L260 152 M228 166 L260 170 M228 174 L260 188" stroke="#2d263c" stroke-width="4" stroke-linecap="round"/>
</svg>
