<svg xmlns="http://www.w3.org/2000/svg" viewBox="0 0 360 360">
  <!-- しっぽ(後ろ・胴体の陰) -->
  <path d="M255 258 Q292 250 288 285 Q272 292 253 272 Z" fill="#a98ad0" stroke="#2d263c" stroke-width="7" stroke-linejoin="round"/>
  <path d="M288 250 L305 268 L282 280 Z" fill="#6b5a94" stroke="#2d263c" stroke-width="6" stroke-linejoin="round"/>

  <!-- 背中のトゲ(左右・体の陰から少し覗く) -->
  <path d="M108 178 L98 150 L128 180 Z" fill="#6b5a94" stroke="#2d263c" stroke-width="6" stroke-linejoin="round"/>
  <path d="M98 208 L86 184 L118 212 Z" fill="#6b5a94" stroke="#2d263c" stroke-width="6" stroke-linejoin="round"/>
  <path d="M252 178 L262 150 L232 180 Z" fill="#6b5a94" stroke="#2d263c" stroke-width="6" stroke-linejoin="round"/>
  <path d="M262 208 L274 184 L242 212 Z" fill="#6b5a94" stroke="#2d263c" stroke-width="6" stroke-linejoin="round"/>

  <!-- 後ろ脚 -->
  <ellipse cx="140" cy="294" rx="31" ry="37" fill="#a98ad0" stroke="#2d263c" stroke-width="8" stroke-linejoin="round"/>
  <ellipse cx="222" cy="294" rx="31" ry="37" fill="#a98ad0" stroke="#2d263c" stroke-width="8" stroke-linejoin="round"/>
  <ellipse cx="140" cy="323" rx="33" ry="15" fill="#9678c4" stroke="#2d263c" stroke-width="7" stroke-linejoin="round"/>
  <ellipse cx="222" cy="323" rx="33" ry="15" fill="#9678c4" stroke="#2d263c" stroke-width="7" stroke-linejoin="round"/>

  <!-- 胴体 -->
  <ellipse cx="180" cy="222" rx="87" ry="92" fill="#a98ad0" stroke="#2d263c" stroke-width="9" stroke-linejoin="round"/>

  <!-- お腹(明るい色) -->
  <ellipse cx="180" cy="248" rx="50" ry="63" fill="#e6dbf6" stroke="#2d263c" stroke-width="6" stroke-linejoin="round"/>

  <!-- うで -->
  <ellipse cx="98" cy="228" rx="23" ry="42" fill="#a98ad0" stroke="#2d263c" stroke-width="7" stroke-linejoin="round" transform="rotate(-14 98 228)"/>
  <ellipse cx="262" cy="228" rx="23" ry="42" fill="#a98ad0" stroke="#2d263c" stroke-width="7" stroke-linejoin="round" transform="rotate(14 262 228)"/>
  <ellipse cx="87" cy="271" rx="19" ry="15" fill="#9678c4" stroke="#2d263c" stroke-width="6" stroke-linejoin="round"/>
  <ellipse cx="273" cy="271" rx="19" ry="15" fill="#9678c4" stroke="#2d263c" stroke-width="6" stroke-linejoin="round"/>

  <!-- 頭 -->
  <ellipse cx="180" cy="118" rx="63" ry="56" fill="#a98ad0" stroke="#2d263c" stroke-width="9" stroke-linejoin="round"/>

  <!-- マズル(鼻先) -->
  <ellipse cx="180" cy="146" rx="38" ry="25" fill="#e6dbf6" stroke="#2d263c" stroke-width="6" stroke-linejoin="round"/>

  <!-- 耳(外側) -->
  <path d="M142 96 Q104 62 100 30 Q140 42 158 100 Z" fill="#8fa0c9" stroke="#2d263c" stroke-width="7" stroke-linejoin="round"/>
  <path d="M218 96 Q256 62 260 30 Q220 42 202 100 Z" fill="#8fa0c9" stroke="#2d263c" stroke-width="7" stroke-linejoin="round"/>
  <!-- 耳(内側) -->
  <path d="M138 92 Q116 68 112 46 Q136 56 148 94 Z" fill="#c9d6ef" stroke="#2d263c" stroke-width="5" stroke-linejoin="round"/>
  <path d="M222 92 Q244 68 248 46 Q224 56 212 94 Z" fill="#c9d6ef" stroke="#2d263c" stroke-width="5" stroke-linejoin="round"/>

  <!-- 角(額) -->
  <path d="M167 72 Q179 20 195 74 Q184 84 172 82 Z" fill="#8fa0c9" stroke="#2d263c" stroke-width="7" stroke-linejoin="round"/>

  <!-- 目(赤) -->
  <ellipse cx="155" cy="114" rx="14" ry="17" fill="#c0392b" stroke="#2d263c" stroke-width="5"/>
  <ellipse cx="205" cy="114" rx="14" ry="17" fill="#c0392b" stroke="#2d263c" stroke-width="5"/>
  <circle cx="159" cy="107" r="5" fill="#ffffff"/>
  <circle cx="209" cy="107" r="5" fill="#ffffff"/>

  <!-- 鼻の穴 -->
  <circle cx="172" cy="142" r="3" fill="#2d263c"/>
  <circle cx="188" cy="142" r="3" fill="#2d263c"/>

  <!-- 口 -->
  <path d="M164 160 Q180 170 196 160" fill="none" stroke="#2d263c" stroke-width="6" stroke-linecap="round"/>
</svg>
