<svg xmlns="http://www.w3.org/2000/svg" viewBox="0 0 360 360">
  <path d="M248,262 Q300,255 316,205 Q322,182 302,168 Q284,182 274,222 Q266,248 248,262 Z" fill="#b8c3e2" stroke="#2d263c" stroke-width="7" stroke-linejoin="round" stroke-linecap="round"/>
  <polygon points="298,188 310,198 298,210 286,198" fill="#5d5a86" stroke="#2d263c" stroke-width="4" stroke-linejoin="round"/>

  <ellipse cx="145" cy="288" rx="38" ry="42" fill="#b8c3e2" stroke="#2d263c" stroke-width="7"/>
  <ellipse cx="215" cy="288" rx="38" ry="42" fill="#b8c3e2" stroke="#2d263c" stroke-width="7"/>

  <ellipse cx="140" cy="318" rx="40" ry="16" fill="#b8c3e2" stroke="#2d263c" stroke-width="7"/>
  <ellipse cx="220" cy="318" rx="40" ry="16" fill="#b8c3e2" stroke="#2d263c" stroke-width="7"/>

  <polygon points="112,325 106,335 118,335" fill="#2d263c"/>
  <polygon points="168,325 162,335 174,335" fill="#2d263c"/>
  <polygon points="192,325 186,335 198,335" fill="#2d263c"/>
  <polygon points="248,325 242,335 254,335" fill="#2d263c"/>

  <path d="M180,150 C142,150 118,174 111,212 C105,246 118,280 150,294 L210,294 C242,280 255,246 249,212 C242,174 218,150 180,150 Z" fill="#b8c3e2" stroke="#2d263c" stroke-width="7" stroke-linejoin="round"/>
  <ellipse cx="180" cy="232" rx="52" ry="57" fill="#f5ecd6" stroke="#2d263c" stroke-width="6"/>

  <path d="M133,172 C104,178 85,206 88,240 C90,259 104,268 118,262 C132,253 137,215 137,187 Z" fill="#b8c3e2" stroke="#2d263c" stroke-width="7" stroke-linejoin="round"/>
  <path d="M227,172 C256,178 275,206 272,240 C270,259 256,268 242,262 C228,253 223,215 223,187 Z" fill="#b8c3e2" stroke="#2d263c" stroke-width="7" stroke-linejoin="round"/>

  <polygon points="85,245 78,255 88,258" fill="#2d263c"/>
  <polygon points="95,252 90,264 100,264" fill="#2d263c"/>
  <polygon points="275,245 282,255 272,258" fill="#2d263c"/>
  <polygon points="265,252 270,264 260,264" fill="#2d263c"/>

  <polygon points="128,178 140,190 128,202 116,190" fill="#5d5a86" stroke="#2d263c" stroke-width="4" stroke-linejoin="round"/>
  <polygon points="118,250 130,262 118,274 106,262" fill="#5d5a86" stroke="#2d263c" stroke-width="4" stroke-linejoin="round"/>
  <polygon points="242,250 254,262 242,274 230,262" fill="#5d5a86" stroke="#2d263c" stroke-width="4" stroke-linejoin="round"/>

  <path d="M180,42 C142,42 118,66 115,98 C113,126 127,145 152,152 L208,152 C233,145 247,126 245,98 C242,66 218,42 180,42 Z" fill="#b8c3e2" stroke="#2d263c" stroke-width="7" stroke-linejoin="round"/>

  <path d="M115,100 C94,96 80,110 83,128 C85,142 103,146 117,138 Z" fill="#b8c3e2" stroke="#2d263c" stroke-width="6" stroke-linejoin="round"/>
  <path d="M245,100 C266,96 280,110 277,128 C275,142 257,146 243,138 Z" fill="#b8c3e2" stroke="#2d263c" stroke-width="6" stroke-linejoin="round"/>

  <path d="M166,44 L180,23 L194,44 Z" fill="#e2ddef" stroke="#2d263c" stroke-width="6" stroke-linejoin="round"/>

  <ellipse cx="180" cy="128" rx="42" ry="27" fill="#f5ecd6" stroke="#2d263c" stroke-width="6"/>

  <circle cx="150" cy="90" r="13" fill="#e04b3d" stroke="#2d263c" stroke-width="5"/>
  <circle cx="210" cy="90" r="13" fill="#e04b3d" stroke="#2d263c" stroke-width="5"/>
  <circle cx="150" cy="90" r="5" fill="#2d263c"/>
  <circle cx="210" cy="90" r="5" fill="#2d263c"/>
  <circle cx="146" cy="86" r="3" fill="#ffffff"/>
  <circle cx="206" cy="86" r="3" fill="#ffffff"/>

  <ellipse cx="172" cy="122" rx="3" ry="4" fill="#2d263c"/>
  <ellipse cx="188" cy="122" rx="3" ry="4" fill="#2d263c"/>

  <path d="M160,140 Q180,150 200,140" fill="none" stroke="#2d263c" stroke-width="6" stroke-linecap="round"/>
</svg>
