<svg xmlns="http://www.w3.org/2000/svg" viewBox="0 0 360 360">
  <!-- tail behind body -->
  <path d="M235 250 Q290 235 300 190 Q305 165 285 150" fill="none" stroke="#2d263c" stroke-width="8" stroke-linecap="round"/>
  <path d="M285 150 Q265 130 270 105 Q290 115 300 140 Q305 150 285 150 Z" fill="#e0263c" stroke="#2d263c" stroke-width="6" stroke-linejoin="round"/>

  <!-- back leg -->
  <ellipse cx="230" cy="290" rx="28" ry="34" fill="#3a3556" stroke="#2d263c" stroke-width="7"/>

  <!-- body -->
  <path d="M130 190 Q110 240 130 290 Q150 320 190 320 Q230 320 245 290 Q260 240 235 185 Q210 150 175 150 Q145 155 130 190 Z" fill="#413c66" stroke="#2d263c" stroke-width="8" stroke-linejoin="round"/>

  <!-- belly patch -->
  <ellipse cx="190" cy="255" rx="35" ry="45" fill="#5c5590" stroke="#2d263c" stroke-width="5"/>

  <!-- front legs/feet -->
  <ellipse cx="150" cy="305" rx="24" ry="28" fill="#3a3556" stroke="#2d263c" stroke-width="7"/>
  <ellipse cx="215" cy="308" rx="24" ry="28" fill="#3a3556" stroke="#2d263c" stroke-width="7"/>
  <path d="M140 320 L136 335 M150 322 L150 337 M160 320 L164 335" stroke="#2d263c" stroke-width="6" stroke-linecap="round"/>
  <path d="M205 322 L201 337 M215 324 L215 339 M225 322 L229 337" stroke="#2d263c" stroke-width="6" stroke-linecap="round"/>

  <!-- arms -->
  <path d="M135 195 Q95 210 85 250" fill="none" stroke="#2d263c" stroke-width="8" stroke-linecap="round"/>
  <ellipse cx="82" cy="258" rx="18" ry="22" fill="#3a3556" stroke="#2d263c" stroke-width="7"/>
  <path d="M70 268 L55 285 M80 275 L72 295 M92 270 L90 292" stroke="#2d263c" stroke-width="6" stroke-linecap="round"/>

  <path d="M225 190 Q260 200 275 235" fill="none" stroke="#2d263c" stroke-width="8" stroke-linecap="round"/>
  <ellipse cx="278" cy="243" rx="18" ry="22" fill="#3a3556" stroke="#2d263c" stroke-width="7"/>
  <path d="M266 255 L255 275 M278 260 L278 282 M290 255 L298 273" stroke="#2d263c" stroke-width="6" stroke-linecap="round"/>

  <!-- head -->
  <path d="M138 150 Q130 100 175 80 Q220 65 245 100 Q260 125 245 155 Q225 185 185 185 Q150 182 138 150 Z" fill="#413c66" stroke="#2d263c" stroke-width="8" stroke-linejoin="round"/>

  <!-- ears -->
  <path d="M148 100 Q135 60 115 45 Q125 85 145 110 Z" fill="#413c66" stroke="#2d263c" stroke-width="7" stroke-linejoin="round"/>
  <path d="M210 85 Q220 45 245 30 Q235 70 218 100 Z" fill="#413c66" stroke="#2d263c" stroke-width="7" stroke-linejoin="round"/>

  <!-- head feather plume -->
  <path d="M180 82 Q170 45 185 15 Q205 45 195 82 Z" fill="#e0263c" stroke="#2d263c" stroke-width="6" stroke-linejoin="round"/>

  <!-- face -->
  <circle cx="175" cy="130" r="12" fill="#e0263c" stroke="#2d263c" stroke-width="5"/>
  <circle cx="220" cy="125" r="12" fill="#e0263c" stroke="#2d263c" stroke-width="5"/>
  <circle cx="178" cy="127" r="3.5" fill="#2d263c"/>
  <circle cx="223" cy="122" r="3.5" fill="#2d263c"/>
  <path d="M190 155 Q200 162 212 152" fill="none" stroke="#2d263c" stroke-width="6" stroke-linecap="round"/>
</svg>
