<svg xmlns="http://www.w3.org/2000/svg" viewBox="0 0 360 360">
<g transform="rotate(-14 150 180)">
<path d="M150 40 L170 78 L165 168 L135 168 L130 78 Z" fill="#d8dce4" stroke="#2d263c" stroke-width="6" stroke-linejoin="round"/>
<ellipse cx="150" cy="173" rx="50" ry="12" fill="#e8c050" stroke="#2d263c" stroke-width="6"/>
<rect x="140" y="181" width="20" height="36" rx="5" fill="#8a5a3a" stroke="#2d263c" stroke-width="6"/>
<path d="M118 217 L182 217 L174 318 L126 318 Z" fill="#6b4a8a" stroke="#2d263c" stroke-width="7" stroke-linejoin="round"/>
<ellipse cx="150" cy="183" rx="9" ry="7" fill="#fff" stroke="#2d263c" stroke-width="3"/>
<circle cx="150" cy="183" r="4" fill="#2d263c"/>
<path d="M128 200 Q108 228 120 258" fill="none" stroke="#3a6ac4" stroke-width="7" stroke-linecap="round"/>
</g>
<g transform="rotate(14 210 180)">
<path d="M210 40 L230 78 L225 168 L195 168 L190 78 Z" fill="#d8dce4" stroke="#2d263c" stroke-width="6" stroke-linejoin="round"/>
<ellipse cx="210" cy="173" rx="50" ry="12" fill="#e8c050" stroke="#2d263c" stroke-width="6"/>
<rect x="200" y="181" width="20" height="36" rx="5" fill="#8a5a3a" stroke="#2d263c" stroke-width="6"/>
<path d="M178 217 L242 217 L234 318 L186 318 Z" fill="#6b4a8a" stroke="#2d263c" stroke-width="7" stroke-linejoin="round"/>
<ellipse cx="210" cy="183" rx="9" ry="7" fill="#fff" stroke="#2d263c" stroke-width="3"/>
<circle cx="210" cy="183" r="4" fill="#2d263c"/>
<path d="M232 200 Q252 228 240 258" fill="none" stroke="#3a6ac4" stroke-width="7" stroke-linecap="round"/>
</g>
</svg>
