<svg xmlns="http://www.w3.org/2000/svg" viewBox="0 0 360 360">
  <g stroke="#2d263c" stroke-width="7" stroke-linejoin="round" stroke-linecap="round">
    <path d="M180 108 C178 84 168 64 184 50 C199 38 216 50 208 63 C202 72 190 68 193 57" fill="none" stroke-width="8"/>
    <path d="M246 172 C278 164 296 142 294 116 C293 104 310 102 309 116 C308 146 282 176 250 188 Z" fill="#8DC74F"/>
    <ellipse cx="300" cy="104" rx="16" ry="13" fill="#8DC74F"/>
    <path d="M294 92 L296 102" fill="none" stroke-width="5"/>
    <path d="M306 94 L304 104" fill="none" stroke-width="5"/>
    <circle cx="128" cy="88" r="38" fill="#8DC74F"/>
    <circle cx="230" cy="92" r="33" fill="#8DC74F"/>
    <path d="M130 112 C155 98 205 96 232 110 C268 130 282 200 268 258 C258 298 220 312 178 310 C132 308 98 292 90 252 C80 198 96 132 130 112 Z" fill="#8DC74F"/>
    <ellipse cx="114" cy="274" rx="30" ry="24" fill="#8DC74F"/>
    <ellipse cx="246" cy="277" rx="28" ry="23" fill="#8DC74F"/>
    <path d="M178 172 C220 170 238 206 233 246 C228 278 200 292 172 290 C142 288 122 268 122 236 C122 200 140 174 178 172 Z" fill="#F6EFC0"/>
    <path d="M104 196 C76 204 60 228 64 250 C66 262 82 262 82 248 C82 234 94 222 112 218 Z" fill="#8DC74F"/>
    <ellipse cx="72" cy="254" rx="15" ry="12" fill="#8DC74F"/>
    <path d="M60 264 L64 256" fill="none" stroke-width="5"/>
    <path d="M112 294 C84 292 60 304 64 318 C68 330 118 332 132 320 C140 312 132 298 112 294 Z" fill="#8DC74F"/>
    <path d="M248 296 C276 294 299 306 294 320 C289 332 240 334 228 321 C221 312 228 300 248 296 Z" fill="#8DC74F"/>
    <path d="M88 300 L91 320" fill="none" stroke-width="5"/>
    <path d="M108 298 L110 322" fill="none" stroke-width="5"/>
    <path d="M270 302 L267 322" fill="none" stroke-width="5"/>
    <path d="M250 300 L250 324" fill="none" stroke-width="5"/>
    <circle cx="126" cy="84" r="20" fill="#ffffff"/>
    <circle cx="228" cy="88" r="17" fill="#ffffff"/>
    <ellipse cx="121" cy="86" rx="7" ry="10" fill="#2d263c" stroke="none"/>
    <ellipse cx="223" cy="90" rx="6" ry="9" fill="#2d263c" stroke="none"/>
    <circle cx="124" cy="81" r="3" fill="#ffffff" stroke="none"/>
    <circle cx="226" cy="86" r="2.5" fill="#ffffff" stroke="none"/>
    <circle cx="112" cy="150" r="13" fill="#F08FA4"/>
    <circle cx="246" cy="154" r="11" fill="#F08FA4"/>
    <path d="M112 150 C140 180 214 182 246 148" fill="none"/>
  </g>
</svg>