<svg xmlns="http://www.w3.org/2000/svg" viewBox="0 0 360 360">
  <!-- 尻尾(後ろ・カールした先端) -->
  <path d="M245 300 Q292 296 302 252 Q310 214 282 190 Q258 170 240 182 Q224 193 232 208 Q240 220 252 212 Q260 206 254 196" fill="#B7BAC4" stroke="#2d263c" stroke-width="7" stroke-linejoin="round" stroke-linecap="round"/>
  <!-- 尻尾の黒い模様(輪) -->
  <path d="M270 208 Q280 214 276 226" fill="none" stroke="#2d263c" stroke-width="6" stroke-linecap="round"/>
  <path d="M288 236 Q298 244 292 258" fill="none" stroke="#2d263c" stroke-width="6" stroke-linecap="round"/>

  <!-- 体(胴体) -->
  <path d="M180 188 Q125 188 96 232 Q92 278 130 316 Q155 336 180 336 Q205 336 230 316 Q268 278 264 232 Q235 188 180 188Z" fill="#C4C8D0" stroke="#2d263c" stroke-width="8" stroke-linejoin="round" stroke-linecap="round"/>

  <!-- 背中の黒いすじ模様 -->
  <path d="M180 196 Q168 220 178 250 Q186 276 176 304" fill="none" stroke="#38343e" stroke-width="6" stroke-linecap="round"/>

  <!-- お腹の模様 -->
  <ellipse cx="180" cy="278" rx="40" ry="46" fill="#EFEFEA" stroke="#2d263c" stroke-width="5"/>

  <!-- 首まわりのもじゃもじゃの毛(えり) -->
  <path d="M124 214 Q116 198 128 188 Q120 174 134 166 Q130 152 148 152 Q148 138 166 140 Q176 130 190 140 Q208 138 210 152 Q228 152 224 166 Q238 174 232 188 Q244 198 236 214" fill="none" stroke="#2d263c" stroke-width="6" stroke-linecap="round" stroke-linejoin="round"/>

  <!-- 左腕(たれた腕) -->
  <path d="M104 232 Q78 240 72 268 Q68 292 90 300 Q112 306 118 286 Q122 262 112 244Z" fill="#C4C8D0" stroke="#2d263c" stroke-width="7" stroke-linejoin="round" stroke-linecap="round"/>

  <!-- 右腕(招き猫ポーズ・あげた腕) -->
  <path d="M248 226 Q276 220 288 190 Q296 162 278 148 Q260 138 250 154 Q242 168 252 182 Q258 190 248 200Z" fill="#C4C8D0" stroke="#2d263c" stroke-width="7" stroke-linejoin="round" stroke-linecap="round"/>
  <ellipse cx="272" cy="150" rx="22" ry="18" fill="#EFEFEA" stroke="#2d263c" stroke-width="6"/>
  <path d="M260 138 Q258 130 262 126 M270 134 Q269 126 273 122 M280 140 Q280 132 284 128" fill="none" stroke="#2d263c" stroke-width="4" stroke-linecap="round"/>

  <!-- 足(左右) -->
  <ellipse cx="146" cy="328" rx="30" ry="19" fill="#C4C8D0" stroke="#2d263c" stroke-width="7"/>
  <ellipse cx="214" cy="328" rx="30" ry="19" fill="#C4C8D0" stroke="#2d263c" stroke-width="7"/>
  <path d="M130 322 L128 336 M146 324 L146 340 M162 322 L164 336" fill="none" stroke="#2d263c" stroke-width="4" stroke-linecap="round"/>
  <path d="M198 322 L196 336 M214 324 L214 340 M230 322 L232 336" fill="none" stroke="#2d263c" stroke-width="4" stroke-linecap="round"/>

  <!-- 頭部 -->
  <circle cx="178" cy="140" r="74" fill="#C4C8D0" stroke="#2d263c" stroke-width="8"/>

  <!-- 耳(外側) -->
  <path d="M133 96 Q114 68 122 40 Q132 26 146 40 Q158 68 156 96 Q144 104 133 96Z" fill="#8B8E98" stroke="#2d263c" stroke-width="7" stroke-linejoin="round" stroke-linecap="round"/>
  <path d="M223 96 Q242 68 234 40 Q224 26 210 40 Q198 68 200 96 Q212 104 223 96Z" fill="#8B8E98" stroke="#2d263c" stroke-width="7" stroke-linejoin="round" stroke-linecap="round"/>

  <!-- 耳(内側) -->
  <path d="M136 88 Q124 66 130 46 Q140 62 146 88Z" fill="#4A4750" stroke="#2d263c" stroke-width="4" stroke-linejoin="round"/>
  <path d="M220 88 Q232 66 226 46 Q216 62 210 88Z" fill="#4A4750" stroke="#2d263c" stroke-width="4" stroke-linejoin="round"/>

  <!-- 小判(額のコイン・くすんだ銀色) -->
  <ellipse cx="178" cy="80" rx="27" ry="19" fill="#B9B7AC" stroke="#2d263c" stroke-width="6"/>
  <path d="M178 70 L178 90 M167 80 L189 80" fill="none" stroke="#2d263c" stroke-width="4" stroke-linecap="round"/>

  <!-- 目(赤い瞳) -->
  <ellipse cx="150" cy="142" rx="16" ry="20" fill="#FFFFFF" stroke="#2d263c" stroke-width="6"/>
  <ellipse cx="206" cy="142" rx="16" ry="20" fill="#FFFFFF" stroke="#2d263c" stroke-width="6"/>
  <circle cx="150" cy="148" r="8" fill="#C0392B"/>
  <circle cx="206" cy="148" r="8" fill="#C0392B"/>

  <!-- 眉(つり目の弧) -->
  <path d="M131 126 Q141 112 168 120" fill="none" stroke="#2d263c" stroke-width="7" stroke-linecap="round"/>
  <path d="M188 120 Q215 112 225 126" fill="none" stroke="#2d263c" stroke-width="7" stroke-linecap="round"/>

  <!-- 鼻 -->
  <path d="M172 162 Q178 156 184 162 Q182 170 178 172 Q174 170 172 162Z" fill="#7C8290" stroke="#2d263c" stroke-width="4" stroke-linejoin="round"/>

  <!-- 口 -->
  <path d="M158 178 Q168 190 178 180 Q188 190 198 178" fill="none" stroke="#2d263c" stroke-width="6" stroke-linecap="round"/>

  <!-- ひげ -->
  <path d="M126 168 L90 158 M124 176 L88 178 M126 184 L90 194" fill="none" stroke="#2d263c" stroke-width="4" stroke-linecap="round"/>
  <path d="M230 168 L266 158 M232 176 L268 178 M230 184 L266 194" fill="none" stroke="#2d263c" stroke-width="4" stroke-linecap="round"/>
</svg>
