<svg xmlns="http://www.w3.org/2000/svg" viewBox="0 0 360 360">
  <!-- 尻尾(後ろ) -->
  <path d="M 210 270 Q 270 240 285 200 Q 295 170 270 160 Q 250 155 240 175 Q 232 195 250 205 Q 265 215 255 235 Q 242 255 220 265 Z" fill="#5560cc" stroke="#2d263c" stroke-width="7" stroke-linejoin="round" stroke-linecap="round"/>
  <!-- 尻尾の先端(白) -->
  <ellipse cx="268" cy="163" rx="16" ry="12" fill="#f0f0f8" stroke="#2d263c" stroke-width="5" stroke-linejoin="round"/>

  <!-- 体(胴体) -->
  <ellipse cx="180" cy="240" rx="65" ry="75" fill="#4455bb" stroke="#2d263c" stroke-width="8" stroke-linejoin="round"/>

  <!-- お腹(白) -->
  <ellipse cx="178" cy="258" rx="38" ry="50" fill="#eeeeff" stroke="#2d263c" stroke-width="5" stroke-linejoin="round"/>

  <!-- 左足 -->
  <path d="M 148 295 Q 138 318 132 330 Q 128 340 145 342 Q 158 343 162 330 Q 165 318 162 300 Z" fill="#4455bb" stroke="#2d263c" stroke-width="7" stroke-linejoin="round" stroke-linecap="round"/>
  <!-- 右足 -->
  <path d="M 208 295 Q 218 318 224 330 Q 228 340 212 342 Q 198 343 194 330 Q 190 318 194 300 Z" fill="#4455bb" stroke="#2d263c" stroke-width="7" stroke-linejoin="round" stroke-linecap="round"/>

  <!-- 左腕 -->
  <path d="M 130 220 Q 108 228 100 245 Q 95 258 108 265 Q 120 270 130 255 Q 138 242 135 228 Z" fill="#4455bb" stroke="#2d263c" stroke-width="7" stroke-linejoin="round" stroke-linecap="round"/>
  <!-- 右腕 -->
  <path d="M 228 218 Q 252 228 258 244 Q 263 258 250 264 Q 237 270 228 255 Q 220 241 224 226 Z" fill="#4455bb" stroke="#2d263c" stroke-width="7" stroke-linejoin="round" stroke-linecap="round"/>

  <!-- 頭 -->
  <ellipse cx="180" cy="165" rx="60" ry="58" fill="#4455bb" stroke="#2d263c" stroke-width="8" stroke-linejoin="round"/>

  <!-- 顔の白いマスク部分 -->
  <ellipse cx="180" cy="172" rx="42" ry="38" fill="#eeeeff" stroke="#2d263c" stroke-width="5" stroke-linejoin="round"/>

  <!-- 左耳(折れた大きな耳) -->
  <path d="M 132 140 Q 118 100 108 72 Q 100 50 120 48 Q 138 47 142 78 Q 145 100 148 128 Z" fill="#4455bb" stroke="#2d263c" stroke-width="7" stroke-linejoin="round" stroke-linecap="round"/>
  <!-- 左耳内側 -->
  <path d="M 132 132 Q 122 100 115 78 Q 110 62 122 61 Q 134 61 136 82 Q 138 102 140 126 Z" fill="#c8caff" stroke="none"/>
  <!-- 左耳先端の白い光 -->
  <ellipse cx="114" cy="54" rx="9" ry="7" fill="#ffffff" stroke="none" transform="rotate(-15, 114, 54)"/>

  <!-- 右耳(少し非対称に) -->
  <path d="M 228 136 Q 246 95 255 67 Q 262 46 243 44 Q 225 44 220 75 Q 216 98 214 130 Z" fill="#4455bb" stroke="#2d263c" stroke-width="7" stroke-linejoin="round" stroke-linecap="round"/>
  <!-- 右耳内側 -->
  <path d="M 226 128 Q 242 96 248 74 Q 252 59 241 59 Q 229 60 226 80 Q 222 102 218 126 Z" fill="#c8caff" stroke="none"/>
  <!-- 右耳先端の白い光 -->
  <ellipse cx="250" cy="50" rx="9" ry="7" fill="#ffffff" stroke="none" transform="rotate(12, 250, 50)"/>

  <!-- 目(左) 切れ長ツンとした目 -->
  <path d="M 152 168 Q 162 161 172 163 Q 162 172 152 168 Z" fill="#2d263c" stroke="#2d263c" stroke-width="2"/>
  <ellipse cx="162" cy="165" rx="10" ry="7" fill="#1a1040" stroke="#2d263c" stroke-width="3"/>
  <ellipse cx="159" cy="163" rx="3" ry="2" fill="#ffffff" stroke="none"/>

  <!-- 目(右) -->
  <path d="M 188 163 Q 198 161 208 168 Q 198 172 188 163 Z" fill="#2d263c" stroke="#2d263c" stroke-width="2"/>
  <ellipse cx="198" cy="165" rx="10" ry="7" fill="#1a1040" stroke="#2d263c" stroke-width="3"/>
  <ellipse cx="195" cy="163" rx="3" ry="2" fill="#ffffff" stroke="none"/>

  <!-- 眉毛(白い眉) -->
  <path d="M 148 158 Q 158 153 170 155" fill="none" stroke="#ffffff" stroke-width="4" stroke-linecap="round"/>
  <path d="M 190 155 Q 202 153 210 158" fill="none" stroke="#ffffff" stroke-width="4" stroke-linecap="round"/>

  <!-- 鼻 -->
  <ellipse cx="180" cy="180" rx="5" ry="4" fill="#cc8899" stroke="#2d263c" stroke-width="2"/>

  <!-- 口(ちょっとへの字) -->
  <path d="M 173 188 Q 180 193 187 188" fill="none" stroke="#2d263c" stroke-width="4" stroke-linecap="round"/>

  <!-- ヒゲ(左) -->
  <path d="M 155 182 Q 130 178 108 172" fill="none" stroke="#2d263c" stroke-width="3" stroke-linecap="round"/>
  <path d="M 155 186 Q 130 185 106 183" fill="none" stroke="#2d263c" stroke-width="3" stroke-linecap="round"/>
  <path d="M 155 189 Q 132 193 112 200" fill="none" stroke="#2d263c" stroke-width="3" stroke-linecap="round"/>

  <!-- ヒゲ(右) -->
  <path d="M 205 182 Q 230 178 252 172" fill="none" stroke="#2d263c" stroke-width="3" stroke-linecap="round"/>
  <path d="M 205 186 Q 230 185 254 183" fill="none" stroke="#2d263c" stroke-width="3" stroke-linecap="round"/>
  <path d="M 205 189 Q 228 193 248 200" fill="none" stroke="#2d263c" stroke-width="3" stroke-linecap="round"/>

  <!-- 胸の白い毛モフ -->
  <path d="M 165 210 Q 180 204 195 210 Q 188 220 180 218 Q 172 220 165 210 Z" fill="#ffffff" stroke="#2d263c" stroke-width="4" stroke-linejoin="round"/>
</svg>