<svg xmlns="http://www.w3.org/2000/svg" viewBox="0 0 360 360">
  <ellipse cx="180" cy="300" rx="18" ry="10" fill="#3a3a4a" opacity="0.25"/>
  <path d="M260 235 Q300 215 292 165 Q288 140 262 140 Q258 160 240 175 Z" fill="#e8dfc0" stroke="#2d263c" stroke-width="7" stroke-linejoin="round" stroke-linecap="round"/>
  <path d="M100 240 Q75 250 90 270 Q110 285 135 270 Q120 255 118 235 Z" fill="#c9c9d4" stroke="#2d263c" stroke-width="7" stroke-linejoin="round" stroke-linecap="round"/>
  <path d="M235 245 Q245 255 232 265 Q220 258 222 245 Z" fill="#c9c9d4" stroke="#2d263c" stroke-width="7" stroke-linejoin="round" stroke-linecap="round"/>
  <path d="M108 200 Q90 260 130 300 Q170 328 210 305 Q250 285 250 235 Q252 175 200 155 Q140 140 108 200 Z" fill="#c9c9d4" stroke="#2d263c" stroke-width="8" stroke-linejoin="round" stroke-linecap="round"/>
  <path d="M118 235 Q130 265 165 275 Q200 280 220 260 Q235 240 228 210 Q195 235 160 232 Q135 228 118 235 Z" fill="#e8dfc0" stroke="#2d263c" stroke-width="6" stroke-linejoin="round" stroke-linecap="round"/>
  <circle cx="180" cy="150" r="82" fill="#c9c9d4" stroke="#2d263c" stroke-width="8"/>
  <path d="M118 108 Q100 55 130 45 Q158 65 152 108 Z" fill="#c9c9d4" stroke="#2d263c" stroke-width="7" stroke-linejoin="round"/>
  <path d="M242 108 Q260 55 230 45 Q202 65 208 108 Z" fill="#c9c9d4" stroke="#2d263c" stroke-width="7" stroke-linejoin="round"/>
  <path d="M126 100 Q118 70 134 62 Q150 75 146 100 Z" fill="#8a8a99" stroke="#2d263c" stroke-width="4" stroke-linejoin="round"/>
  <path d="M234 100 Q242 70 226 62 Q210 75 214 100 Z" fill="#8a8a99" stroke="#2d263c" stroke-width="4" stroke-linejoin="round"/>
  <path d="M130 190 Q155 210 180 195 Q205 210 230 190 Q210 220 180 220 Q150 220 130 190 Z" fill="#e8dfc0" stroke="#2d263c" stroke-width="6" stroke-linejoin="round"/>
  <ellipse cx="148" cy="145" rx="16" ry="20" fill="#fff"/>
  <ellipse cx="212" cy="145" rx="16" ry="20" fill="#fff"/>
  <ellipse cx="148" cy="150" rx="11" ry="15" fill="#4a90c4" stroke="#2d263c" stroke-width="4"/>
  <ellipse cx="212" cy="150" rx="11" ry="15" fill="#4a90c4" stroke="#2d263c" stroke-width="4"/>
  <circle cx="151" cy="144" r="4" fill="#fff"/>
  <circle cx="215" cy="144" r="4" fill="#fff"/>
  <path d="M170 175 L180 185 L190 175" fill="none" stroke="#2d263c" stroke-width="6" stroke-linejoin="round" stroke-linecap="round"/>
  <path d="M180 185 Q180 195 168 198" fill="none" stroke="#2d263c" stroke-width="6" stroke-linecap="round"/>
  <path d="M180 185 Q180 195 192 198" fill="none" stroke="#2d263c" stroke-width="6" stroke-linecap="round"/>
  <path d="M120 170 L60 160" stroke="#2d263c" stroke-width="5" stroke-linecap="round"/>
  <path d="M118 182 L58 190" stroke="#2d263c" stroke-width="5" stroke-linecap="round"/>
  <path d="M240 170 L300 160" stroke="#2d263c" stroke-width="5" stroke-linecap="round"/>
  <path d="M242 182 L302 190" stroke="#2d263c" stroke-width="5" stroke-linecap="round"/>
  <ellipse cx="130" cy="290" rx="26" ry="20" fill="#c9c9d4" stroke="#2d263c" stroke-width="7"/>
  <ellipse cx="222" cy="292" rx="26" ry="20" fill="#c9c9d4" stroke="#2d263c" stroke-width="7"/>
</svg>
