<svg xmlns="http://www.w3.org/2000/svg" viewBox="0 0 360 360">
  <!-- tail behind body, longer with plume -->
  <path d="M240 260 Q300 250 315 200 Q322 170 300 145" fill="none" stroke="#2d263c" stroke-width="8" stroke-linecap="round"/>
  <path d="M300 145 Q278 122 282 95 Q305 105 316 132 Q322 145 300 145 Z" fill="#7a4fa3" stroke="#2d263c" stroke-width="6" stroke-linejoin="round"/>

  <!-- back leg -->
  <ellipse cx="232" cy="288" rx="27" ry="33" fill="#28304a" stroke="#2d263c" stroke-width="7"/>

  <!-- body, sleeker -->
  <path d="M132 185 Q112 235 130 288 Q150 318 190 318 Q228 318 244 288 Q258 238 233 182 Q208 148 172 148 Q144 153 132 185 Z" fill="#33395c" stroke="#2d263c" stroke-width="8" stroke-linejoin="round"/>

  <!-- white fur ruff around neck/chest -->
  <path d="M148 175 Q140 200 150 225 Q170 245 190 240 Q210 245 228 222 Q238 198 228 172 Q210 195 190 198 Q170 195 148 175 Z" fill="#f4f1ea" stroke="#2d263c" stroke-width="6" stroke-linejoin="round"/>

  <!-- front legs/feet -->
  <ellipse cx="152" cy="303" rx="23" ry="27" fill="#28304a" stroke="#2d263c" stroke-width="7"/>
  <ellipse cx="216" cy="306" rx="23" ry="27" fill="#28304a" stroke="#2d263c" stroke-width="7"/>
  <path d="M142 318 L138 333 M152 320 L152 335 M162 318 L166 333" stroke="#2d263c" stroke-width="6" stroke-linecap="round"/>
  <path d="M206 320 L202 335 M216 322 L216 337 M226 320 L230 335" stroke="#2d263c" stroke-width="6" stroke-linecap="round"/>

  <!-- arms -->
  <path d="M136 192 Q97 205 87 245" fill="none" stroke="#2d263c" stroke-width="8" stroke-linecap="round"/>
  <ellipse cx="84" cy="253" rx="17" ry="21" fill="#28304a" stroke="#2d263c" stroke-width="7"/>
  <path d="M72 263 L58 280 M82 270 L75 290 M94 265 L92 287" stroke="#2d263c" stroke-width="6" stroke-linecap="round"/>

  <path d="M226 188 Q262 198 278 232" fill="none" stroke="#2d263c" stroke-width="8" stroke-linecap="round"/>
  <ellipse cx="281" cy="240" rx="17" ry="21" fill="#28304a" stroke="#2d263c" stroke-width="7"/>
  <path d="M269 252 L259 271 M281 257 L281 279 M293 252 L300 270" stroke="#2d263c" stroke-width="6" stroke-linecap="round"/>

  <!-- head, more feline/sleek -->
  <path d="M138 148 Q128 100 172 78 Q218 62 244 98 Q258 122 244 152 Q224 182 184 182 Q150 179 138 148 Z" fill="#33395c" stroke="#2d263c" stroke-width="8" stroke-linejoin="round"/>

  <!-- pointed ears -->
  <path d="M146 98 Q128 55 105 38 Q120 82 142 108 Z" fill="#33395c" stroke="#2d263c" stroke-width="7" stroke-linejoin="round"/>
  <path d="M212 82 Q225 40 250 22 Q238 65 218 96 Z" fill="#33395c" stroke="#2d263c" stroke-width="7" stroke-linejoin="round"/>

  <!-- head feather plume, purple -->
  <path d="M182 80 Q170 42 187 10 Q209 42 197 80 Z" fill="#7a4fa3" stroke="#2d263c" stroke-width="6" stroke-linejoin="round"/>

  <!-- face -->
  <circle cx="175" cy="128" r="12" fill="#f0d63a" stroke="#2d263c" stroke-width="5"/>
  <circle cx="220" cy="123" r="12" fill="#f0d63a" stroke="#2d263c" stroke-width="5"/>
  <circle cx="178" cy="125" r="3.5" fill="#2d263c"/>
  <circle cx="223" cy="120" r="3.5" fill="#2d263c"/>
  <path d="M190 152 Q200 159 210 150" fill="none" stroke="#2d263c" stroke-width="6" stroke-linecap="round"/>
</svg>
