<svg xmlns="http://www.w3.org/2000/svg" viewBox="0 0 360 360">
  <path d="M255,283 C305,273 325,223 305,165 C300,145 282,152 288,175 C298,213 285,253 245,268 Z" fill="#7fbf6a" stroke="#2d263c" stroke-width="8" stroke-linejoin="round" stroke-linecap="round"/>
  <ellipse cx="130" cy="315" rx="32" ry="20" fill="#7fbf6a" stroke="#2d263c" stroke-width="8" stroke-linejoin="round"/>
  <ellipse cx="230" cy="315" rx="32" ry="20" fill="#7fbf6a" stroke="#2d263c" stroke-width="8" stroke-linejoin="round"/>
  <ellipse cx="180" cy="253" rx="78" ry="80" fill="#7fbf6a" stroke="#2d263c" stroke-width="8" stroke-linejoin="round"/>
  <ellipse cx="180" cy="268" rx="45" ry="58" fill="#fdf3d9" stroke="#2d263c" stroke-width="7" stroke-linejoin="round"/>
  <ellipse cx="150" cy="322" rx="18" ry="12" fill="#fdf3d9" stroke="#2d263c" stroke-width="7" stroke-linejoin="round"/>
  <ellipse cx="210" cy="322" rx="18" ry="12" fill="#fdf3d9" stroke="#2d263c" stroke-width="7" stroke-linejoin="round"/>
  <circle cx="150" cy="325" r="5" fill="#f2a2b5"/>
  <circle cx="210" cy="325" r="5" fill="#f2a2b5"/>
  <circle cx="180" cy="140" r="68" fill="#7fbf6a" stroke="#2d263c" stroke-width="8" stroke-linejoin="round"/>
  <ellipse cx="180" cy="160" rx="42" ry="32" fill="#fdf3d9" stroke="#2d263c" stroke-width="7" stroke-linejoin="round"/>
  <path d="M120,100 L90,25 L155,95 Z" fill="#7fbf6a" stroke="#2d263c" stroke-width="8" stroke-linejoin="round"/>
  <path d="M240,100 L270,25 L205,95 Z" fill="#7fbf6a" stroke="#2d263c" stroke-width="8" stroke-linejoin="round"/>
  <path d="M118,92 L100,45 L145,90 Z" fill="#4f9c52" stroke="#2d263c" stroke-width="6" stroke-linejoin="round"/>
  <path d="M242,92 L260,45 L215,90 Z" fill="#4f9c52" stroke="#2d263c" stroke-width="6" stroke-linejoin="round"/>
  <path d="M180,72 C168,42 168,15 180,15 C192,15 192,42 180,72 Z" fill="#4f9c52" stroke="#2d263c" stroke-width="7" stroke-linejoin="round"/>
  <ellipse cx="153" cy="135" rx="20" ry="24" fill="#fffdf5" stroke="#2d263c" stroke-width="6" stroke-linejoin="round"/>
  <ellipse cx="207" cy="135" rx="20" ry="24" fill="#fffdf5" stroke="#2d263c" stroke-width="6" stroke-linejoin="round"/>
  <circle cx="153" cy="141" r="10" fill="#2d263c"/>
  <circle cx="207" cy="141" r="10" fill="#2d263c"/>
  <circle cx="148" cy="132" r="4" fill="#fffdf5"/>
  <circle cx="202" cy="132" r="4" fill="#fffdf5"/>
  <path d="M172,172 L188,172 L180,182 Z" fill="#f2a2b5" stroke="#2d263c" stroke-width="5" stroke-linejoin="round"/>
  <path d="M180,182 Q168,192 156,184" fill="none" stroke="#2d263c" stroke-width="5" stroke-linecap="round"/>
  <path d="M180,182 Q192,192 204,184" fill="none" stroke="#2d263c" stroke-width="5" stroke-linecap="round"/>
  <line x1="140" y1="165" x2="98" y2="158" stroke="#2d263c" stroke-width="4" stroke-linecap="round"/>
  <line x1="140" y1="177" x2="98" y2="180" stroke="#2d263c" stroke-width="4" stroke-linecap="round"/>
  <line x1="220" y1="165" x2="262" y2="158" stroke="#2d263c" stroke-width="4" stroke-linecap="round"/>
  <line x1="220" y1="177" x2="262" y2="180" stroke="#2d263c" stroke-width="4" stroke-linecap="round"/>
  <circle cx="126" cy="163" r="10" fill="#f2a2b5" opacity="0.5"/>
  <circle cx="234" cy="163" r="10" fill="#f2a2b5" opacity="0.5"/>
</svg>
