<svg xmlns="http://www.w3.org/2000/svg" viewBox="0 0 360 360">
  <path d="M170,120 C120,110 75,130 65,165 C85,175 115,185 135,175 C150,168 160,155 165,140 Z" fill="#eaf6ff" fill-opacity="0.55" stroke="#2d263c" stroke-width="6" stroke-linejoin="round"/>
  <path d="M190,120 C240,110 285,130 295,165 C275,175 245,185 225,175 C210,168 200,155 195,140 Z" fill="#eaf6ff" fill-opacity="0.55" stroke="#2d263c" stroke-width="6" stroke-linejoin="round"/>
  <path d="M100,165 L150,172" fill="none" stroke="#bcdcea" stroke-width="3" stroke-linecap="round"/>
  <path d="M260,165 L210,172" fill="none" stroke="#bcdcea" stroke-width="3" stroke-linecap="round"/>
  <path d="M165,80 L158,52" fill="none" stroke="#2d263c" stroke-width="7" stroke-linecap="round"/>
  <path d="M195,80 L202,52" fill="none" stroke="#2d263c" stroke-width="7" stroke-linecap="round"/>
  <circle cx="157" cy="50" r="6" fill="#8a6a3c" stroke="#2d263c" stroke-width="6"/>
  <circle cx="203" cy="50" r="6" fill="#8a6a3c" stroke="#2d263c" stroke-width="6"/>
  <path d="M180,78
           C138,78 108,108 103,158
           C99,205 108,255 138,288
           L152,318
           L163,286
           C172,296 188,296 197,286
           L208,318
           L222,288
           C252,255 261,205 257,158
           C252,108 222,78 180,78 Z"
        fill="#d9b476" stroke="#2d263c" stroke-width="8" stroke-linejoin="round"/>
  <path d="M195,90 C222,100 245,128 250,160 C254,200 248,240 228,270 C242,235 245,195 240,158 C235,125 218,100 195,90 Z" fill="#c39c5c"/>
  <ellipse cx="180" cy="205" rx="34" ry="46" fill="#241c30" stroke="#2d263c" stroke-width="7"/>
  <ellipse cx="155" cy="152" rx="20" ry="24" fill="#1a1a1a"/>
  <circle cx="149" cy="144" r="5" fill="#ffffff"/>
  <ellipse cx="206" cy="152" rx="20" ry="24" fill="#1a1a1a"/>
  <circle cx="200" cy="144" r="5" fill="#ffffff"/>
  <path d="M162,182 Q180,192 199,182" fill="none" stroke="#2d263c" stroke-width="5" stroke-linecap="round"/>
  <path d="M112,195 C90,205 76,214 68,222" fill="none" stroke="#2d263c" stroke-width="7" stroke-linecap="round"/>
  <path d="M68,222 L58,214 M68,222 L60,228 M68,222 L70,232" fill="none" stroke="#2d263c" stroke-width="5" stroke-linecap="round"/>
  <path d="M248,195 C270,205 284,214 292,222" fill="none" stroke="#2d263c" stroke-width="7" stroke-linecap="round"/>
  <path d="M292,222 L302,214 M292,222 L300,228 M292,222 L290,232" fill="none" stroke="#2d263c" stroke-width="5" stroke-linecap="round"/>
  <path d="M152,318 L146,336" fill="none" stroke="#2d263c" stroke-width="7" stroke-linecap="round"/>
  <path d="M208,318 L214,336" fill="none" stroke="#2d263c" stroke-width="7" stroke-linecap="round"/>
  <path d="M146,336 L136,340 M146,336 L152,342" fill="none" stroke="#2d263c" stroke-width="4" stroke-linecap="round"/>
  <path d="M214,336 L224,340 M214,336 L208,342" fill="none" stroke="#2d263c" stroke-width="4" stroke-linecap="round"/>
</svg>
