<svg xmlns="http://www.w3.org/2000/svg" viewBox="0 0 360 360">
  <!-- ===== しっぽ (後ろ) ===== -->
  <path d="M195 295 Q240 320 255 305 Q268 290 250 275 Q235 265 215 278 Q205 285 195 295Z"
    fill="#7b9bb5" stroke="#2d263c" stroke-width="7" stroke-linejoin="round" stroke-linecap="round"/>

  <!-- ===== 左足 ===== -->
  <ellipse cx="148" cy="308" rx="28" ry="18"
    fill="#6a8fa8" stroke="#2d263c" stroke-width="7"/>
  <ellipse cx="148" cy="315" rx="22" ry="10"
    fill="#7b9bb5" stroke="#2d263c" stroke-width="5"/>

  <!-- ===== 右足 ===== -->
  <ellipse cx="212" cy="305" rx="26" ry="17"
    fill="#6a8fa8" stroke="#2d263c" stroke-width="7"/>
  <ellipse cx="213" cy="312" rx="20" ry="9"
    fill="#7b9bb5" stroke="#2d263c" stroke-width="5"/>

  <!-- ===== 胴体 ===== -->
  <ellipse cx="180" cy="235" rx="72" ry="82"
    fill="#7bb8d4" stroke="#2d263c" stroke-width="8" stroke-linejoin="round"/>

  <!-- ===== 腹(クリーム色) ===== -->
  <ellipse cx="180" cy="248" rx="46" ry="57"
    fill="#e8dfc0" stroke="#2d263c" stroke-width="5" stroke-linejoin="round"/>

  <!-- ===== 左腕 ===== -->
  <path d="M115 210 Q88 225 82 248 Q80 265 95 268 Q112 270 122 250 Q130 232 120 218Z"
    fill="#7bb8d4" stroke="#2d263c" stroke-width="7" stroke-linejoin="round" stroke-linecap="round"/>
  <!-- 左手の指っぽい丸 -->
  <circle cx="86" cy="262" r="9" fill="#6a8fa8" stroke="#2d263c" stroke-width="5"/>
  <circle cx="96" cy="272" r="8" fill="#6a8fa8" stroke="#2d263c" stroke-width="5"/>

  <!-- ===== 右腕 ===== -->
  <path d="M244 208 Q272 220 278 244 Q280 262 265 265 Q248 267 240 248 Q232 228 240 214Z"
    fill="#7bb8d4" stroke="#2d263c" stroke-width="7" stroke-linejoin="round" stroke-linecap="round"/>
  <!-- 右手の指っぽい丸 -->
  <circle cx="276" cy="259" r="9" fill="#6a8fa8" stroke="#2d263c" stroke-width="5"/>
  <circle cx="265" cy="270" r="8" fill="#6a8fa8" stroke="#2d263c" stroke-width="5"/>

  <!-- ===== 頭部 (大きめ・ちょっと傾いた感じ) ===== -->
  <ellipse cx="183" cy="138" rx="78" ry="72"
    fill="#7bb8d4" stroke="#2d263c" stroke-width="8" stroke-linejoin="round"/>

  <!-- ===== 左耳たぶ(ドロっとした長い耳) ===== -->
  <path d="M118 130 Q90 118 70 148 Q55 175 72 192 Q88 205 108 185 Q125 165 120 145Z"
    fill="#6a8fa8" stroke="#2d263c" stroke-width="7" stroke-linejoin="round"/>
  <!-- 耳の内側 -->
  <path d="M112 135 Q95 125 80 150 Q68 172 82 186 Q98 197 112 178 Q122 162 116 145Z"
    fill="#b8d0e0" stroke="none"/>
  <!-- ぬめり垂れ -->
  <path d="M72 190 Q65 210 68 228 Q70 235 75 232 Q80 228 78 210 Q76 200 72 190Z"
    fill="#8ac4db" stroke="#2d263c" stroke-width="5" stroke-linejoin="round"/>

  <!-- ===== 右耳たぶ ===== -->
  <path d="M248 125 Q275 112 295 140 Q310 166 294 184 Q278 198 258 180 Q240 162 244 140Z"
    fill="#6a8fa8" stroke="#2d263c" stroke-width="7" stroke-linejoin="round"/>
  <!-- 耳の内側 -->
  <path d="M253 130 Q275 118 292 143 Q305 165 291 180 Q276 192 258 178 Q244 162 248 143Z"
    fill="#b8d0e0" stroke="none"/>
  <!-- ぬめり垂れ -->
  <path d="M294 182 Q302 202 300 220 Q298 228 293 225 Q288 221 290 203 Q292 192 294 182Z"
    fill="#8ac4db" stroke="#2d263c" stroke-width="5" stroke-linejoin="round"/>

  <!-- ===== 角(触角/突起 2本) ===== -->
  <!-- 左角 -->
  <path d="M155 75 Q145 48 138 30 Q136 24 143 26 Q152 30 158 55 Q162 68 158 80Z"
    fill="#5a7a9a" stroke="#2d263c" stroke-width="6" stroke-linejoin="round" stroke-linecap="round"/>
  <!-- 右角 -->
  <path d="M208 72 Q218 44 224 28 Q226 22 232 25 Q236 30 228 52 Q222 66 216 78Z"
    fill="#5a7a9a" stroke="#2d263c" stroke-width="6" stroke-linejoin="round" stroke-linecap="round"/>

  <!-- ===== 目(大きくてつぶら・少しズレてて愛嬌あり) ===== -->
  <!-- 左目 白目 -->
  <ellipse cx="158" cy="142" rx="20" ry="22" fill="white" stroke="#2d263c" stroke-width="6"/>
  <!-- 左目 瞳 -->
  <ellipse cx="161" cy="145" rx="12" ry="14" fill="#2d263c"/>
  <!-- 左目 ハイライト -->
  <circle cx="155" cy="139" r="5" fill="white"/>

  <!-- 右目 白目 -->
  <ellipse cx="208" cy="140" rx="19" ry="21" fill="white" stroke="#2d263c" stroke-width="6"/>
  <!-- 右目 瞳 -->
  <ellipse cx="210" cy="143" rx="11" ry="13" fill="#2d263c"/>
  <!-- 右目 ハイライト -->
  <circle cx="205" cy="138" r="4" fill="white"/>

  <!-- ===== ほっぺ(ぷっくり) ===== -->
  <ellipse cx="142" cy="165" rx="16" ry="12" fill="#a8cfe0" stroke="#2d263c" stroke-width="4" opacity="0.7"/>
  <ellipse cx="224" cy="163" rx="15" ry="11" fill="#a8cfe0" stroke="#2d263c" stroke-width="4" opacity="0.7"/>

  <!-- ===== 鼻・口 ===== -->
  <!-- 鼻 小さな三角 -->
  <path d="M180 158 L176 165 L184 165Z" fill="#2d263c"/>
  <!-- 口 にっこり -->
  <path d="M170 174 Q182 185 196 173"
    fill="none" stroke="#2d263c" stroke-width="5" stroke-linecap="round"/>

  <!-- ===== 体のぬめり感(腹に縦の薄い模様) ===== -->
  <path d="M172 200 Q175 230 173 260" fill="none" stroke="#ccd8a0" stroke-width="3" opacity="0.5" stroke-linecap="round"/>
  <path d="M182 198 Q185 228 183 262" fill="none" stroke="#ccd8a0" stroke-width="3" opacity="0.5" stroke-linecap="round"/>
  <path d="M192 200 Q195 230 193 260" fill="none" stroke="#ccd8a0" stroke-width="3" opacity="0.5" stroke-linecap="round"/>
</svg>