<svg xmlns="http://www.w3.org/2000/svg" viewBox="0 0 360 360">
  <ellipse cx="138" cy="298" rx="16" ry="12" fill="#7a96c9" stroke="#2d263c" stroke-width="6"/>
  <ellipse cx="222" cy="298" rx="16" ry="12" fill="#7a96c9" stroke="#2d263c" stroke-width="6"/>
  <ellipse cx="180" cy="238" rx="58" ry="55" fill="#7a96c9" stroke="#2d263c" stroke-width="8"/>
  <path d="M180 192 L180 286" fill="none" stroke="#2d263c" stroke-width="5" stroke-linecap="round"/>
  <ellipse cx="126" cy="240" rx="14" ry="23" fill="#7a96c9" stroke="#2d263c" stroke-width="7"/>
  <ellipse cx="234" cy="240" rx="14" ry="23" fill="#7a96c9" stroke="#2d263c" stroke-width="7"/>
  <circle cx="180" cy="152" r="62" fill="#e8a8b8" stroke="#2d263c" stroke-width="8"/>
  <circle cx="130" cy="106" r="21" fill="#e8a8b8" stroke="#2d263c" stroke-width="7"/>
  <circle cx="230" cy="106" r="21" fill="#e8a8b8" stroke="#2d263c" stroke-width="7"/>
  <circle cx="130" cy="106" r="9" fill="#d88a9c"/>
  <circle cx="230" cy="106" r="9" fill="#d88a9c"/>
  <path d="M150 166 Q180 198 210 166 Q180 178 150 166 Z" fill="#f4ecdc" stroke="#2d263c" stroke-width="6" stroke-linejoin="round"/>
  <circle cx="160" cy="148" r="9" fill="#2d263c"/>
  <circle cx="200" cy="148" r="9" fill="#2d263c"/>
  <circle cx="163" cy="145" r="3" fill="#ffffff"/>
  <circle cx="203" cy="145" r="3" fill="#ffffff"/>
  <ellipse cx="180" cy="166" rx="6" ry="4" fill="#2d263c"/>
  <path d="M180 170 L180 178 M171 184 Q180 191 189 184" fill="none" stroke="#2d263c" stroke-width="5" stroke-linecap="round"/>
  <rect x="116" y="278" width="24" height="15" rx="3" fill="#f4ecdc" stroke="#2d263c" stroke-width="5" transform="rotate(-22 128 285)"/>
</svg>
