<svg xmlns="http://www.w3.org/2000/svg" viewBox="0 0 360 360">
  <path d="M148 298 L142 314 L166 314 Z" fill="#e8e0d0" stroke="#2d263c" stroke-width="6" stroke-linejoin="round"/>
  <path d="M212 298 L194 314 L218 314 Z" fill="#e8e0d0" stroke="#2d263c" stroke-width="6" stroke-linejoin="round"/>
  <path d="M134 290 Q128 228 180 213 Q232 228 226 290 Z" fill="#f2ece0" stroke="#2d263c" stroke-width="8" stroke-linejoin="round"/>
  <path d="M92 164 Q92 88 180 88 Q268 88 268 164 Q268 186 246 186 Q180 202 114 186 Q92 186 92 164 Z" fill="#6fa8d6" stroke="#2d263c" stroke-width="8" stroke-linejoin="round"/>
  <ellipse cx="134" cy="132" rx="12" ry="9" fill="#eaf4fb"/>
  <ellipse cx="202" cy="112" rx="15" ry="11" fill="#eaf4fb"/>
  <ellipse cx="238" cy="146" rx="10" ry="8" fill="#eaf4fb"/>
  <circle cx="158" cy="244" r="14" fill="#2d263c"/>
  <circle cx="202" cy="244" r="14" fill="#2d263c"/>
  <circle cx="162" cy="240" r="4" fill="#ffffff"/>
  <circle cx="206" cy="240" r="4" fill="#ffffff"/>
  <path d="M172 270 Q180 276 188 270" fill="none" stroke="#2d263c" stroke-width="5" stroke-linecap="round"/>
</svg>
