<svg xmlns="http://www.w3.org/2000/svg" viewBox="0 0 360 360">
  <g stroke="#2d263c" stroke-width="7" stroke-linejoin="round" stroke-linecap="round">
    <path d="M110 300 Q88 322 100 336 Q122 328 118 302 Z" fill="#eebd7e"/>
    <path d="M138 306 Q126 332 144 342 Q160 326 152 306 Z" fill="#eebd7e"/>
    <rect x="140" y="288" width="18" height="38" rx="8" fill="#f2933f"/>
    <rect x="188" y="288" width="18" height="38" rx="8" fill="#f2933f"/>
    <ellipse cx="149" cy="330" rx="20" ry="9" fill="#f2933f"/>
    <ellipse cx="197" cy="330" rx="20" ry="9" fill="#f2933f"/>
    <ellipse cx="175" cy="228" rx="90" ry="93" fill="#eebd7e"/>
    <ellipse cx="178" cy="252" rx="54" ry="62" fill="#fff6e2"/>
    <path d="M222 68 Q258 38 248 88 Q233 84 222 98 Z" fill="#9fb4c9"/>
    <path d="M244 88 Q284 74 264 118 Q249 106 238 116 Z" fill="#9fb4c9"/>
    <path d="M228 108 Q262 118 238 142 Q224 128 219 128 Z" fill="#9fb4c9"/>
    <circle cx="170" cy="118" r="68" fill="#eebd7e"/>
    <path d="M163 44 Q175 18 190 44 Q178 54 163 48 Z" fill="#e6483c"/>
    <path d="M118 98 Q140 78 165 93 Q145 104 126 110 Z" fill="#c9762e"/>
    <path d="M180 93 Q205 78 226 98 Q210 110 190 106 Z" fill="#c9762e"/>
    <ellipse cx="140" cy="116" rx="13" ry="15" fill="#ffffff"/>
    <ellipse cx="200" cy="116" rx="13" ry="15" fill="#ffffff"/>
    <circle cx="143" cy="120" r="5.5" fill="#2d263c"/>
    <circle cx="203" cy="120" r="5.5" fill="#2d263c"/>
    <path d="M153 138 Q170 162 187 138 Q170 148 153 138 Z" fill="#f2933f"/>
    <ellipse cx="93" cy="216" rx="26" ry="34" fill="#eebd7e"/>
    <ellipse cx="248" cy="216" rx="30" ry="36" fill="#eebd7e"/>
    <path d="M228 262 L248 260 L296 60 L274 58 Z" fill="#f5f2e3"/>
    <path d="M285 62 Q262 32 288 15 Q305 40 285 62 Z" fill="#6fae4e"/>
    <path d="M285 62 Q308 26 328 48 Q310 68 285 62 Z" fill="#6fae4e"/>
  </g>
</svg>
