<svg xmlns="http://www.w3.org/2000/svg" viewBox="0 0 360 360">
  <ellipse cx="150" cy="322" rx="16" ry="9" fill="#7a7264" stroke="#2d263c" stroke-width="6" stroke-linejoin="round"/>
  <ellipse cx="212" cy="322" rx="16" ry="9" fill="#7a7264" stroke="#2d263c" stroke-width="6" stroke-linejoin="round"/>
  <path d="M 155 300 L 148 250 L 168 250 L 162 300 Z" fill="#9c9284" stroke="#2d263c" stroke-width="7" stroke-linejoin="round"/>
  <path d="M 207 300 L 200 250 L 220 250 L 214 300 Z" fill="#9c9284" stroke="#2d263c" stroke-width="7" stroke-linejoin="round"/>
  <path d="M 90 230 Q 60 210 55 240 Q 62 270 100 255 Z" fill="#c79a5b" stroke="#2d263c" stroke-width="7" stroke-linejoin="round"/>
  <path d="M 272 230 Q 302 210 307 240 Q 300 270 262 255 Z" fill="#c79a5b" stroke="#2d263c" stroke-width="7" stroke-linejoin="round"/>
  <ellipse cx="182" cy="245" rx="82" ry="88" fill="#e0b673" stroke="#2d263c" stroke-width="8" stroke-linejoin="round"/>
  <ellipse cx="182" cy="278" rx="46" ry="42" fill="#f3ddb0" stroke="#2d263c" stroke-width="6" stroke-linejoin="round"/>
  <circle cx="182" cy="140" r="64" fill="#eec988" stroke="#2d263c" stroke-width="8"/>
  <path d="M 130 100 Q 118 55 145 68 Q 150 40 172 62 Q 178 30 198 60 Q 222 40 218 70 Q 248 58 232 100 Q 250 110 230 128 Q 195 100 165 108 Q 140 112 130 100 Z" fill="#5b7a3a" stroke="#2d263c" stroke-width="7" stroke-linejoin="round"/>
  <path d="M 150 96 Q 145 70 162 78" fill="none" stroke="#3f5a26" stroke-width="5" stroke-linecap="round"/>
  <path d="M 195 92 Q 200 66 216 78" fill="none" stroke="#3f5a26" stroke-width="5" stroke-linecap="round"/>
  <circle cx="155" cy="145" r="20" fill="#e8632c" stroke="#2d263c" stroke-width="6"/>
  <circle cx="209" cy="145" r="20" fill="#e8632c" stroke="#2d263c" stroke-width="6"/>
  <circle cx="152" cy="147" r="7" fill="#2d263c"/>
  <circle cx="206" cy="147" r="7" fill="#2d263c"/>
  <circle cx="149" cy="141" r="3" fill="#fff"/>
  <circle cx="203" cy="141" r="3" fill="#fff"/>
  <path d="M 170 172 Q 182 184 194 172 Q 186 190 178 190 Q 172 190 170 172 Z" fill="#4a4038" stroke="#2d263c" stroke-width="6" stroke-linejoin="round"/>
</svg>
