<svg xmlns="http://www.w3.org/2000/svg" viewBox="0 0 360 360">
<polygon points="130,150 86,108 142,134" fill="#3a3a4a" stroke="#2d263c" stroke-width="6" stroke-linejoin="round"/>
<polygon points="230,150 274,108 218,134" fill="#3a3a4a" stroke="#2d263c" stroke-width="6" stroke-linejoin="round"/>
<polygon points="180,108 232,170 212,256 148,256 128,170" fill="#2a2a35" stroke="#2d263c" stroke-width="7" stroke-linejoin="round"/>
<polygon points="180,156 200,180 180,204 160,180" fill="#e8c84a" stroke="#2d263c" stroke-width="5" stroke-linejoin="round"/>
<polygon points="180,170 188,180 180,190 172,180" fill="#6ac8e0"/>
<polygon points="180,58 214,96 198,120 162,120 146,96" fill="#2a2a35" stroke="#2d263c" stroke-width="7" stroke-linejoin="round"/>
<polygon points="180,36 190,66 170,66" fill="#4a4a6a" stroke="#2d263c" stroke-width="5" stroke-linejoin="round"/>
<ellipse cx="170" cy="92" rx="5" ry="7" fill="#6ac8e0"/>
<ellipse cx="190" cy="92" rx="5" ry="7" fill="#6ac8e0"/>
<polygon points="132,176 96,206 104,236 124,214" fill="#2a2a35" stroke="#2d263c" stroke-width="6" stroke-linejoin="round"/>
<polygon points="228,176 264,206 256,236 236,214" fill="#2a2a35" stroke="#2d263c" stroke-width="6" stroke-linejoin="round"/>
<circle cx="100" cy="210" r="6" fill="#e8c84a" stroke="#2d263c" stroke-width="3"/>
<circle cx="260" cy="210" r="6" fill="#e8c84a" stroke="#2d263c" stroke-width="3"/>
<polygon points="158,256 140,312 158,312 168,256" fill="#2a2a35" stroke="#2d263c" stroke-width="6" stroke-linejoin="round"/>
<polygon points="202,256 220,312 202,312 192,256" fill="#2a2a35" stroke="#2d263c" stroke-width="6" stroke-linejoin="round"/>
</svg>