<svg xmlns="http://www.w3.org/2000/svg" viewBox="0 0 360 360">
  <!-- body -->
  <ellipse cx="180" cy="225" rx="95" ry="68" fill="#8aa0b0" stroke="#2d263c" stroke-width="8"/>
  <!-- ears -->
  <ellipse cx="118" cy="115" rx="30" ry="32" fill="#8aa0b0" stroke="#2d263c" stroke-width="8"/>
  <ellipse cx="242" cy="115" rx="30" ry="32" fill="#8aa0b0" stroke="#2d263c" stroke-width="8"/>
  <ellipse cx="118" cy="118" rx="14" ry="16" fill="#c8d4dc" stroke="#2d263c" stroke-width="5"/>
  <ellipse cx="242" cy="118" rx="14" ry="16" fill="#c8d4dc" stroke="#2d263c" stroke-width="5"/>
  <!-- head -->
  <ellipse cx="180" cy="142" rx="66" ry="58" fill="#8aa0b0" stroke="#2d263c" stroke-width="8"/>
  <!-- sleeping eyes -->
  <path d="M150 142 Q160 132 172 142" fill="none" stroke="#2d263c" stroke-width="6" stroke-linecap="round"/>
  <path d="M188 142 Q200 132 210 142" fill="none" stroke="#2d263c" stroke-width="6" stroke-linecap="round"/>
  <!-- nose -->
  <ellipse cx="180" cy="160" rx="13" ry="9" fill="#2d263c"/>
  <!-- mouth -->
  <path d="M173 176 Q180 182 187 176" fill="none" stroke="#2d263c" stroke-width="5" stroke-linecap="round"/>
  <!-- log held in front -->
  <path d="M95 205 Q95 200 100 200 L260 200 Q265 200 265 205 L265 263 Q265 268 260 268 L100 268 Q95 268 95 263 Z" fill="#a87850" stroke="#2d263c" stroke-width="8" stroke-linejoin="round"/>
  <!-- log end rings -->
  <ellipse cx="108" cy="234" rx="11" ry="24" fill="#d8a878" stroke="#2d263c" stroke-width="6"/>
  <ellipse cx="252" cy="234" rx="11" ry="24" fill="#d8a878" stroke="#2d263c" stroke-width="6"/>
  <!-- arms hugging log -->
  <ellipse cx="96" cy="215" rx="20" ry="16" fill="#8aa0b0" stroke="#2d263c" stroke-width="7"/>
  <ellipse cx="264" cy="215" rx="20" ry="16" fill="#8aa0b0" stroke="#2d263c" stroke-width="7"/>
</svg>
