<svg xmlns="http://www.w3.org/2000/svg" viewBox="0 0 360 360">
  <ellipse cx="180" cy="325" rx="95" ry="14" fill="#2d263c" opacity="0.18"/>
  <ellipse cx="180" cy="42" rx="10" ry="18" fill="#7bbf6a" stroke="#2d263c" stroke-width="6" stroke-linejoin="round" stroke-linecap="round"/>
  <ellipse cx="180" cy="250" rx="88" ry="80" fill="#f7e6ac" stroke="#2d263c" stroke-width="8" stroke-linejoin="round"/>
  <ellipse cx="88" cy="255" rx="26" ry="38" transform="rotate(-25 88 255)" fill="#f7e6ac" stroke="#2d263c" stroke-width="7" stroke-linejoin="round"/>
  <ellipse cx="272" cy="255" rx="26" ry="38" transform="rotate(25 272 255)" fill="#f7e6ac" stroke="#2d263c" stroke-width="7" stroke-linejoin="round"/>
  <ellipse cx="145" cy="316" rx="24" ry="16" fill="#f7e6ac" stroke="#2d263c" stroke-width="7" stroke-linejoin="round"/>
  <ellipse cx="215" cy="316" rx="24" ry="16" fill="#f7e6ac" stroke="#2d263c" stroke-width="7" stroke-linejoin="round"/>
  <path d="M180,55
    C130,55 85,80 68,140
    C58,175 58,205 65,228
    Q75,255 95,262
    Q110,235 130,260
    Q145,232 165,258
    Q180,235 195,258
    Q210,232 230,260
    Q250,235 265,262
    Q285,255 295,228
    C302,205 302,175 292,140
    C275,80 230,55 180,55 Z"
    fill="#7d3659" stroke="#2d263c" stroke-width="8" stroke-linejoin="round"/>
  <ellipse cx="120" cy="115" rx="20" ry="13" transform="rotate(-15 120 115)" fill="#5c2647"/>
  <ellipse cx="240" cy="115" rx="20" ry="13" transform="rotate(15 240 115)" fill="#5c2647"/>
  <ellipse cx="180" cy="192" rx="55" ry="46" fill="#f7e6ac" stroke="#2d263c" stroke-width="7" stroke-linejoin="round"/>
  <circle cx="152" cy="205" r="9" fill="#f4a8a0" opacity="0.6"/>
  <circle cx="208" cy="205" r="9" fill="#f4a8a0" opacity="0.6"/>
  <path d="M150,187 Q160,177 170,187" stroke="#2d263c" stroke-width="7" fill="none" stroke-linecap="round"/>
  <path d="M190,187 Q200,177 210,187" stroke="#2d263c" stroke-width="7" fill="none" stroke-linecap="round"/>
  <path d="M168,208 Q180,203 192,208" stroke="#2d263c" stroke-width="6" fill="none" stroke-linecap="round"/>
  <ellipse cx="115" cy="90" rx="16" ry="9" transform="rotate(-30 115 90)" fill="#ffffff" opacity="0.35"/>
</svg>
