<svg xmlns="http://www.w3.org/2000/svg" viewBox="0 0 360 360">
  <ellipse cx="180" cy="312" rx="66" ry="13" fill="#2d263c" opacity="0.15"/>
  <path d="M 122,186 C 108,222 100,264 180,312 C 260,264 252,222 238,186 C 238,186 200,204 180,204 C 160,204 122,186 122,186 Z" fill="#c1652a" stroke="#2d263c" stroke-width="7" stroke-linejoin="round" stroke-linecap="round"/>
  <ellipse cx="180" cy="232" rx="52" ry="10" fill="none" stroke="#8a3d15" stroke-width="5" stroke-linecap="round"/>
  <ellipse cx="180" cy="268" rx="40" ry="9" fill="none" stroke="#8a3d15" stroke-width="5" stroke-linecap="round"/>
  <path d="M 100,150 C 100,88 132,48 180,48 C 228,48 260,88 260,150 C 260,192 228,212 180,212 C 132,212 100,192 100,150 Z" fill="#7fa9b3" stroke="#2d263c" stroke-width="8" stroke-linejoin="round"/>
  <path d="M 104,138 C 68,146 50,172 56,200 C 60,214 78,218 90,206 C 102,190 106,162 106,138 Z" fill="#7fa9b3" stroke="#2d263c" stroke-width="7" stroke-linejoin="round" stroke-linecap="round"/>
  <ellipse cx="66" cy="204" rx="14" ry="11" fill="#5f8791" stroke="#2d263c" stroke-width="6"/>
  <path d="M 256,138 C 292,146 310,172 304,200 C 300,214 282,218 270,206 C 258,190 254,162 256,138 Z" fill="#7fa9b3" stroke="#2d263c" stroke-width="7" stroke-linejoin="round" stroke-linecap="round"/>
  <ellipse cx="294" cy="204" rx="14" ry="11" fill="#5f8791" stroke="#2d263c" stroke-width="6"/>
  <ellipse cx="180" cy="54" rx="22" ry="13" fill="#5f8791" stroke="#2d263c" stroke-width="6"/>
  <path d="M 155,102 L 172,120 L 155,138 L 138,120 Z" fill="#f4efe2" stroke="#2d263c" stroke-width="6" stroke-linejoin="round"/>
  <path d="M 205,102 L 222,120 L 205,138 L 188,120 Z" fill="#f4efe2" stroke="#2d263c" stroke-width="6" stroke-linejoin="round"/>
  <circle cx="155" cy="120" r="7" fill="#cc2b2b"/>
  <circle cx="205" cy="120" r="7" fill="#cc2b2b"/>
</svg>
