<svg xmlns="http://www.w3.org/2000/svg" viewBox="0 0 360 360">
  <ellipse cx="180" cy="325" rx="120" ry="16" fill="#2d263c" opacity="0.15"/>

  <path d="M92 318
           C68 316 62 286 74 246
           C86 198 104 158 132 128
           C152 106 166 96 180 92
           C194 96 208 106 228 128
           C256 158 274 198 286 246
           C298 286 292 316 268 318
           C246 332 114 332 92 318 Z"
        fill="#7098c2" stroke="#2d263c" stroke-width="8" stroke-linejoin="round"/>

  <path d="M76 256 C120 274 240 274 284 256
           C296 292 292 314 268 318
           C246 332 114 332 92 318
           C68 316 64 292 76 256 Z"
        fill="#4d6f9c" stroke="#2d263c" stroke-width="7" stroke-linejoin="round"/>

  <path d="M102 200 C140 216 220 216 258 200"
        fill="none" stroke="#2d263c" stroke-width="6" stroke-linecap="round"/>
  <path d="M76 256 C120 274 240 274 284 256"
        fill="none" stroke="#2d263c" stroke-width="6" stroke-linecap="round"/>

  <ellipse cx="98" cy="222" rx="18" ry="14" fill="#6089b8" stroke="#2d263c" stroke-width="7"/>
  <ellipse cx="262" cy="222" rx="18" ry="14" fill="#6089b8" stroke="#2d263c" stroke-width="7"/>

  <circle cx="120" cy="150" r="7" fill="#3f5f88" opacity="0.6"/>
  <circle cx="240" cy="160" r="6" fill="#3f5f88" opacity="0.6"/>
  <circle cx="150" cy="280" r="7" fill="#3f5f88" opacity="0.5"/>
  <circle cx="220" cy="290" r="6" fill="#3f5f88" opacity="0.5"/>

  <circle cx="152" cy="170" r="11" fill="#241f2e"/>
  <circle cx="208" cy="170" r="11" fill="#241f2e"/>
  <circle cx="149" cy="167" r="3" fill="#fff"/>
  <circle cx="205" cy="167" r="3" fill="#fff"/>

  <path d="M180 148 L206 192 L180 236 L154 192 Z"
        fill="#e2453a" stroke="#2d263c" stroke-width="7" stroke-linejoin="round"/>
  <path d="M180 148 L191 192 L180 236" fill="none" stroke="#2d263c" stroke-width="5" stroke-linecap="round"/>
  <path d="M154 192 L206 192" fill="none" stroke="#2d263c" stroke-width="5" stroke-linecap="round"/>

  <path d="M158 258 C170 268 190 268 202 258"
        fill="none" stroke="#2d263c" stroke-width="7" stroke-linecap="round"/>
</svg>
