<svg xmlns="http://www.w3.org/2000/svg" viewBox="0 0 360 360">
<ellipse cx="180" cy="150" rx="95" ry="70" fill="#f5efe0" stroke="#2d263c" stroke-width="8" stroke-linejoin="round" stroke-linecap="round"/>
<path d="M95 150 Q90 210 130 235 Q160 250 180 250 Q200 250 210 235 Q250 210 245 150" fill="#e8567a" stroke="#2d263c" stroke-width="8" stroke-linejoin="round" stroke-linecap="round"/>
<path d="M115 175 Q140 200 165 178" fill="none" stroke="#2d263c" stroke-width="6" stroke-linecap="round"/>
<path d="M145 190 Q170 212 195 188" fill="none" stroke="#2d263c" stroke-width="6" stroke-linecap="round"/>
<path d="M180 195 Q205 215 230 190" fill="none" stroke="#2d263c" stroke-width="6" stroke-linecap="round"/>
<path d="M120 225 Q100 260 85 295 Q80 305 92 308 Q108 312 118 292 Q135 260 150 235" fill="#5fc9c0" stroke="#2d263c" stroke-width="7" stroke-linejoin="round" stroke-linecap="round"/>
<path d="M150 238 Q145 275 138 310 Q136 320 148 321 Q162 322 165 305 Q172 270 175 240" fill="#5fc9c0" stroke="#2d263c" stroke-width="7" stroke-linejoin="round" stroke-linecap="round"/>
<path d="M210 238 Q216 275 224 310 Q226 320 214 321 Q200 322 197 305 Q190 270 187 240" fill="#5fc9c0" stroke="#2d263c" stroke-width="7" stroke-linejoin="round" stroke-linecap="round"/>
<path d="M240 225 Q262 260 277 295 Q282 305 270 308 Q254 312 244 292 Q227 260 212 235" fill="#5fc9c0" stroke="#2d263c" stroke-width="7" stroke-linejoin="round" stroke-linecap="round"/>
<circle cx="150" cy="130" r="10" fill="#2d263c"/>
<circle cx="210" cy="130" r="10" fill="#2d263c"/>
<path d="M162 158 Q180 168 198 158" fill="none" stroke="#2d263c" stroke-width="6" stroke-linecap="round"/>
<path d="M120 95 Q140 70 165 88" fill="none" stroke="#2d263c" stroke-width="6" stroke-linecap="round"/>
<path d="M195 88 Q220 70 240 95" fill="none" stroke="#2d263c" stroke-width="6" stroke-linecap="round"/>
</svg>
