<svg xmlns="http://www.w3.org/2000/svg" viewBox="0 0 360 360">
  <path d="M150,222 C130,245 112,270 100,300 C115,308 135,300 152,275 C160,255 158,238 150,222 Z" fill="#57C078" stroke="#2d263c" stroke-width="7" stroke-linejoin="round"/>
  <path d="M210,222 C230,245 248,270 260,300 C245,308 225,300 208,275 C200,255 202,238 210,222 Z" fill="#57C078" stroke="#2d263c" stroke-width="7" stroke-linejoin="round"/>
  <path d="M100,300 L85,317 M100,300 L100,322 M100,300 L116,315" stroke="#2d263c" stroke-width="7" fill="none" stroke-linecap="round"/>
  <path d="M260,300 L275,317 M260,300 L260,322 M260,300 L244,315" stroke="#2d263c" stroke-width="7" fill="none" stroke-linecap="round"/>
  <path d="M130,118 C105,110 78,98 55,90 C62,105 88,120 118,132 Z" fill="#57C078" stroke="#2d263c" stroke-width="7" stroke-linejoin="round"/>
  <path d="M230,118 C255,110 282,98 305,90 C298,105 272,120 242,132 Z" fill="#57C078" stroke="#2d263c" stroke-width="7" stroke-linejoin="round"/>
  <path d="M55,90 L36,74 M55,90 L38,92 M55,90 L43,109" stroke="#2d263c" stroke-width="7" fill="none" stroke-linecap="round"/>
  <path d="M305,90 L324,74 M305,90 L322,92 M305,90 L317,109" stroke="#2d263c" stroke-width="7" fill="none" stroke-linecap="round"/>
  <path d="M132,112 C118,145 122,180 148,200 L148,222 C165,232 195,232 212,222 L212,200 C238,180 242,145 228,112 C205,98 155,98 132,112 Z" fill="#4FBF77" stroke="#2d263c" stroke-width="8" stroke-linejoin="round"/>
  <polygon points="180,138 203,163 180,191 157,163" fill="#E8402C" stroke="#2d263c" stroke-width="6" stroke-linejoin="round"/>
  <ellipse cx="172" cy="152" rx="6" ry="10" fill="#ffffff"/>
  <ellipse cx="180" cy="75" rx="38" ry="42" fill="#5FCB84" stroke="#2d263c" stroke-width="7"/>
  <path d="M158,45 C135,30 115,18 108,20 C112,35 130,48 152,58 Z" fill="#57C078" stroke="#2d263c" stroke-width="6" stroke-linejoin="round"/>
  <path d="M202,45 C225,30 245,18 252,20 C248,35 230,48 208,58 Z" fill="#57C078" stroke="#2d263c" stroke-width="6" stroke-linejoin="round"/>
  <ellipse cx="163" cy="72" rx="12" ry="6" fill="#B5271F" stroke="#2d263c" stroke-width="5" transform="rotate(-20 163 72)"/>
  <ellipse cx="197" cy="72" rx="12" ry="6" fill="#B5271F" stroke="#2d263c" stroke-width="5" transform="rotate(20 197 72)"/>
  <path d="M172,95 Q180,101 188,95" stroke="#2d263c" stroke-width="6" fill="none" stroke-linecap="round"/>
</svg>
