<svg xmlns="http://www.w3.org/2000/svg" viewBox="0 0 360 360">
<g fill="none" stroke="#2d263c" stroke-width="7" stroke-linejoin="round" stroke-linecap="round">
<ellipse fill="#a8a878" cx="296" cy="252" rx="28" ry="38" transform="rotate(24 296 252)"/>
<path fill="#c9be93" d="M140,95 C120,70 118,35 138,20 C150,12 160,25 158,45 C156,65 152,85 148,102 Z"/>
<path fill="#c9be93" d="M220,95 C240,70 242,35 222,20 C210,12 200,25 202,45 C204,65 208,85 212,102 Z"/>
<ellipse fill="#c9be93" cx="180" cy="230" rx="98" ry="88"/>
<ellipse fill="#a8a878" cx="138" cy="315" rx="30" ry="22"/>
<ellipse fill="#a8a878" cx="222" cy="315" rx="30" ry="22"/>
<ellipse fill="#c9be93" cx="78" cy="215" rx="26" ry="42" transform="rotate(-15 78 215)"/>
<ellipse fill="#c9be93" cx="282" cy="215" rx="26" ry="42" transform="rotate(15 282 215)"/>
<circle fill="#a8a878" cx="235" cy="205" r="15"/>
<ellipse fill="#f2ecd1" cx="182" cy="248" rx="56" ry="58"/>
<circle fill="#c9be93" cx="180" cy="125" r="68"/>
<ellipse fill="#f2ecd1" cx="138" cy="55" rx="10" ry="22" transform="rotate(-15 138 55)"/>
<ellipse fill="#f2ecd1" cx="222" cy="55" rx="10" ry="22" transform="rotate(15 222 55)"/>
<ellipse fill="#f2ecd1" cx="180" cy="150" rx="42" ry="32"/>
<ellipse fill="#241d30" cx="155" cy="118" rx="10" ry="14"/>
<ellipse fill="#241d30" cx="205" cy="118" rx="10" ry="14"/>
<circle fill="#ffffff" stroke="none" cx="151" cy="112" r="3"/>
<circle fill="#ffffff" stroke="none" cx="201" cy="112" r="3"/>
<ellipse fill="#f5b9a0" cx="132" cy="145" rx="10" ry="7"/>
<ellipse fill="#f5b9a0" cx="228" cy="145" rx="10" ry="7"/>
<ellipse fill="#241d30" cx="180" cy="142" rx="7" ry="5"/>
<path d="M163,155 Q172,165 180,157 Q188,165 197,155"/>
</g>
</svg>
