<svg xmlns="http://www.w3.org/2000/svg" viewBox="0 0 360 360">
  <path d="M195,95 C130,110 250,170 190,195 C130,220 250,270 185,300 C150,320 120,315 105,330" fill="none" stroke="#2d263c" stroke-width="66" stroke-linecap="round" stroke-linejoin="round"/>
  <path d="M195,95 C130,110 250,170 190,195 C130,220 250,270 185,300 C150,320 120,315 105,330" fill="none" stroke="#7CD6E8" stroke-width="52" stroke-linecap="round" stroke-linejoin="round"/>
  <ellipse cx="160" cy="150" rx="22" ry="10" fill="#FFFDF3" opacity="0.85" transform="rotate(-30 160 150)"/>
  <ellipse cx="170" cy="240" rx="22" ry="10" fill="#FFFDF3" opacity="0.85" transform="rotate(25 170 240)"/>
  <ellipse cx="140" cy="300" rx="20" ry="9" fill="#FFFDF3" opacity="0.85" transform="rotate(-10 140 300)"/>
  <circle cx="120" cy="112" r="17" fill="#FFFDF3" stroke="#2d263c" stroke-width="6"/>
  <circle cx="232" cy="270" r="15" fill="#FFFDF3" stroke="#2d263c" stroke-width="6"/>
  <ellipse cx="215" cy="140" rx="9" ry="22" fill="#ffffff" opacity="0.3" transform="rotate(40 215 140)"/>
  <ellipse cx="195" cy="65" rx="42" ry="37" fill="#7CD6E8" stroke="#2d263c" stroke-width="7"/>
  <path d="M195,22 L180,50 L210,50 Z" fill="#FFFDF3" stroke="#2d263c" stroke-width="6" stroke-linejoin="round"/>
  <ellipse cx="165" cy="72" rx="10" ry="6" fill="#f7b8c2" opacity="0.7"/>
  <ellipse cx="225" cy="72" rx="10" ry="6" fill="#f7b8c2" opacity="0.7"/>
  <ellipse cx="178" cy="62" rx="7" ry="9" fill="#d94f4f" stroke="#2d263c" stroke-width="3"/>
  <ellipse cx="212" cy="62" rx="7" ry="9" fill="#d94f4f" stroke="#2d263c" stroke-width="3"/>
  <path d="M185,82 Q195,90 205,82" fill="none" stroke="#2d263c" stroke-width="4" stroke-linecap="round"/>
  <ellipse cx="182" cy="50" rx="10" ry="6" fill="#ffffff" opacity="0.45" transform="rotate(-20 182 50)"/>
</svg>
