<svg xmlns="http://www.w3.org/2000/svg" viewBox="0 0 360 360">
  <ellipse cx="255" cy="255" rx="26" ry="34" fill="#F6BFCF" stroke="#2d263c" stroke-width="7" stroke-linejoin="round"/>
  <ellipse cx="180" cy="215" rx="112" ry="130" fill="#F7C6D4" stroke="#2d263c" stroke-width="8" stroke-linejoin="round" stroke-linecap="round"/>
  <ellipse cx="76" cy="220" rx="30" ry="46" fill="#F7C6D4" stroke="#2d263c" stroke-width="7" stroke-linejoin="round"/>
  <ellipse cx="284" cy="220" rx="30" ry="46" fill="#F7C6D4" stroke="#2d263c" stroke-width="7" stroke-linejoin="round"/>
  <ellipse cx="138" cy="332" rx="32" ry="22" fill="#F7C6D4" stroke="#2d263c" stroke-width="7" stroke-linejoin="round"/>
  <ellipse cx="222" cy="332" rx="32" ry="22" fill="#F7C6D4" stroke="#2d263c" stroke-width="7" stroke-linejoin="round"/>
  <path d="M 160 95 Q 150 65 172 55 Q 190 47 182 68 Q 176 82 195 78" fill="none" stroke="#2d263c" stroke-width="7" stroke-linecap="round" stroke-linejoin="round"/>
  <path d="M 160 95 Q 150 65 172 55 Q 190 47 182 68 Q 176 82 195 78" fill="none" stroke="#F6A9C0" stroke-width="4" stroke-linecap="round" stroke-linejoin="round"/>
  <path d="M 105 235 Q 108 205 145 200 L 215 200 Q 252 205 255 235 L 258 305 Q 258 320 240 320 L 120 320 Q 102 320 102 305 Z" fill="#FFF6E3" stroke="#2d263c" stroke-width="7" stroke-linejoin="round"/>
  <ellipse cx="180" cy="235" rx="34" ry="40" fill="#FCEBC9" stroke="#2d263c" stroke-width="6" stroke-linejoin="round"/>
  <circle cx="168" cy="222" r="4" fill="#D9A25C"/>
  <circle cx="192" cy="228" r="4" fill="#D9A25C"/>
  <circle cx="178" cy="248" r="4" fill="#D9A25C"/>
  <ellipse cx="140" cy="140" rx="13" ry="16" fill="#2d263c"/>
  <ellipse cx="220" cy="140" rx="13" ry="16" fill="#2d263c"/>
  <circle cx="144" cy="134" r="4" fill="#ffffff"/>
  <circle cx="224" cy="134" r="4" fill="#ffffff"/>
  <ellipse cx="118" cy="168" rx="14" ry="9" fill="#F6A0BB" opacity="0.6"/>
  <ellipse cx="242" cy="168" rx="14" ry="9" fill="#F6A0BB" opacity="0.6"/>
  <path d="M 165 175 Q 180 186 195 175" fill="none" stroke="#2d263c" stroke-width="6" stroke-linecap="round"/>
</svg>
