<svg xmlns="http://www.w3.org/2000/svg" viewBox="0 0 360 360">
  <ellipse cx="180" cy="326" rx="92" ry="12" fill="#2d263c" opacity="0.15"/>
  <ellipse cx="138" cy="312" rx="22" ry="15" fill="#c9a45a" stroke="#2d263c" stroke-width="7"/>
  <ellipse cx="222" cy="312" rx="22" ry="15" fill="#c9a45a" stroke="#2d263c" stroke-width="7"/>
  <ellipse cx="92" cy="218" rx="26" ry="22" fill="#8fb84a" stroke="#2d263c" stroke-width="8"/>
  <ellipse cx="268" cy="218" rx="26" ry="22" fill="#8fb84a" stroke="#2d263c" stroke-width="8"/>
  <circle cx="180" cy="192" r="122" fill="#9bc856" stroke="#2d263c" stroke-width="9"/>
  <circle cx="180" cy="80" r="26" fill="#9bc856" stroke="#2d263c" stroke-width="7"/>
  <circle cx="112" cy="112" r="25" fill="#9bc856" stroke="#2d263c" stroke-width="7"/>
  <circle cx="248" cy="112" r="25" fill="#9bc856" stroke="#2d263c" stroke-width="7"/>
  <ellipse cx="180" cy="212" rx="62" ry="80" fill="#f0e0b0" stroke="#2d263c" stroke-width="8"/>
  <ellipse cx="153" cy="198" rx="13" ry="18" fill="#2d263c"/>
  <ellipse cx="207" cy="198" rx="13" ry="18" fill="#2d263c"/>
  <circle cx="158" cy="193" r="4" fill="#ffffff"/>
  <circle cx="212" cy="193" r="4" fill="#ffffff"/>
  <ellipse cx="136" cy="230" rx="12" ry="8" fill="#f0a0a0" opacity="0.7"/>
  <ellipse cx="224" cy="230" rx="12" ry="8" fill="#f0a0a0" opacity="0.7"/>
  <ellipse cx="180" cy="224" rx="5" ry="4" fill="#2d263c"/>
  <path d="M168,244 Q180,254 192,244" fill="none" stroke="#2d263c" stroke-width="5" stroke-linecap="round"/>
</svg>
