<svg xmlns="http://www.w3.org/2000/svg" viewBox="0 0 360 360">
  <ellipse cx="268" cy="252" rx="20" ry="13" fill="#6b8f4e" stroke="#2d263c" stroke-width="7" stroke-linejoin="round"/>
  <ellipse cx="145" cy="308" rx="24" ry="19" fill="#f0dfae" stroke="#2d263c" stroke-width="7" stroke-linejoin="round"/>
  <ellipse cx="215" cy="308" rx="24" ry="19" fill="#f0dfae" stroke="#2d263c" stroke-width="7" stroke-linejoin="round"/>
  <ellipse cx="180" cy="238" rx="80" ry="70" fill="#f0dfae" stroke="#2d263c" stroke-width="8" stroke-linejoin="round"/>
  <ellipse cx="97" cy="228" rx="20" ry="30" fill="#f0dfae" stroke="#2d263c" stroke-width="7" stroke-linejoin="round"/>
  <ellipse cx="263" cy="228" rx="20" ry="30" fill="#f0dfae" stroke="#2d263c" stroke-width="7" stroke-linejoin="round"/>
  <path d="M110,185 Q180,215 250,185 L250,155 Q180,180 110,155 Z" fill="#457f45" stroke="#2d263c" stroke-width="7" stroke-linejoin="round"/>
  <path d="M95,140 L65,105 L112,155 Z" fill="#3f7d3f" stroke="#2d263c" stroke-width="7" stroke-linejoin="round"/>
  <path d="M265,140 L295,105 L248,155 Z" fill="#3f7d3f" stroke="#2d263c" stroke-width="7" stroke-linejoin="round"/>
  <circle cx="180" cy="142" r="63" fill="#f0dfae" stroke="#2d263c" stroke-width="8"/>
  <path d="M118,140 Q120,75 152,55 L180,35 L208,55 Q240,75 242,140 Q210,110 180,108 Q150,110 118,140 Z" fill="#4f9a4f" stroke="#2d263c" stroke-width="7" stroke-linejoin="round"/>
  <circle cx="155" cy="142" r="15" fill="#ffffff" stroke="#2d263c" stroke-width="6"/>
  <circle cx="207" cy="142" r="15" fill="#ffffff" stroke="#2d263c" stroke-width="6"/>
  <circle cx="152" cy="145" r="7" fill="#2d263c"/>
  <circle cx="210" cy="145" r="7" fill="#2d263c"/>
  <ellipse cx="181" cy="167" rx="9" ry="7" fill="#e8934a" stroke="#2d263c" stroke-width="6"/>
  <path d="M162,183 Q181,196 200,183" fill="none" stroke="#2d263c" stroke-width="7" stroke-linecap="round"/>
</svg>
