<svg xmlns="http://www.w3.org/2000/svg" viewBox="0 0 360 360">
  <polygon points="230,235 285,205 265,192 315,135 292,128 328,55 300,78 272,148 288,152 245,215" fill="#ffcb05" stroke="#2d263c" stroke-width="7" stroke-linejoin="round"/>
  <circle cx="300" cy="110" r="10" fill="#e63946" stroke="#2d263c" stroke-width="3"/>
  <ellipse cx="108" cy="255" rx="26" ry="42" fill="#ffcb05" stroke="#2d263c" stroke-width="7" transform="rotate(-15 108 255)"/>
  <ellipse cx="255" cy="250" rx="24" ry="40" fill="#ffcb05" stroke="#2d263c" stroke-width="7" transform="rotate(20 255 250)"/>
  <ellipse cx="180" cy="265" rx="88" ry="68" fill="#ffcb05" stroke="#2d263c" stroke-width="8"/>
  <ellipse cx="150" cy="322" rx="30" ry="16" fill="#ffcb05" stroke="#2d263c" stroke-width="7"/>
  <ellipse cx="212" cy="322" rx="30" ry="16" fill="#ffcb05" stroke="#2d263c" stroke-width="7"/>
  <polygon points="150,205 118,215 128,305 168,290 158,210" fill="#1a1a1a" stroke="#2d263c" stroke-width="5" stroke-linejoin="round"/>
  <polygon points="210,205 242,215 232,305 192,290 202,210" fill="#1a1a1a" stroke="#2d263c" stroke-width="5" stroke-linejoin="round"/>
  <circle cx="140" cy="240" r="6" fill="#cfcfcf"/>
  <circle cx="145" cy="272" r="6" fill="#cfcfcf"/>
  <circle cx="220" cy="240" r="6" fill="#cfcfcf"/>
  <circle cx="215" cy="272" r="6" fill="#cfcfcf"/>
  <polygon points="180,235 195,255 180,275 165,255" fill="#e63946" stroke="#2d263c" stroke-width="3" stroke-linejoin="round"/>
  <circle cx="180" cy="150" r="68" fill="#ffcb05" stroke="#2d263c" stroke-width="8"/>
  <polygon points="145,100 108,24 168,92" fill="#ffcb05" stroke="#2d263c" stroke-width="7" stroke-linejoin="round"/>
  <polygon points="120,40 108,24 132,52" fill="#1a1a1a"/>
  <polygon points="215,100 252,24 192,92" fill="#ffcb05" stroke="#2d263c" stroke-width="7" stroke-linejoin="round"/>
  <polygon points="240,40 252,24 228,52" fill="#1a1a1a"/>
  <polygon points="150,88 158,32 168,75 178,22 188,75 198,32 208,88" fill="#1a1a1a" stroke="#2d263c" stroke-width="5" stroke-linejoin="round"/>
  <circle cx="126" cy="168" r="15" fill="#e63946"/>
  <circle cx="234" cy="168" r="15" fill="#e63946"/>
  <ellipse cx="152" cy="145" rx="26" ry="17" fill="#1a1a1a"/>
  <ellipse cx="208" cy="145" rx="26" ry="17" fill="#1a1a1a"/>
  <rect x="172" y="139" width="16" height="8" fill="#1a1a1a"/>
  <circle cx="145" cy="140" r="4" fill="#ffffff"/>
  <circle cx="201" cy="140" r="4" fill="#ffffff"/>
  <circle cx="180" cy="162" r="3" fill="#2d263c"/>
  <path d="M162,178 Q180,192 198,178" stroke="#2d263c" stroke-width="5" fill="none" stroke-linecap="round"/>
  <rect x="70" y="145" width="10" height="80" fill="#1a1a1a" stroke="#2d263c" stroke-width="4" transform="rotate(-8 75 185)"/>
  <polygon points="62,140 88,140 82,120 68,120" fill="#1a1a1a"/>
  <ellipse cx="88" cy="240" rx="24" ry="32" fill="#e63946" stroke="#2d263c" stroke-width="6"/>
  <circle cx="88" cy="240" r="8" fill="#1a1a1a"/>
  <circle cx="92" cy="248" r="16" fill="#ffcb05" stroke="#2d263c" stroke-width="6"/>
  <circle cx="270" cy="235" r="15" fill="#ffcb05" stroke="#2d263c" stroke-width="6"/>
</svg>
