<svg xmlns="http://www.w3.org/2000/svg" viewBox="0 0 360 360">

  <!-- 影 -->
  <ellipse cx="180" cy="322" rx="68" ry="15" fill="#00000022"/>

  <!-- 毒のオーラ -->
  <ellipse cx="180" cy="205" rx="105" ry="105" fill="#6020A0" opacity="0.10"/>

  <!-- 体の針(後ろ) -->
  <path d="M138,150 L118,110 L130,148 Z" fill="#2d263c" stroke="#2d263c" stroke-width="4" stroke-linejoin="round"/>
  <path d="M218,150 L240,110 L228,148 Z" fill="#2d263c" stroke="#2d263c" stroke-width="4" stroke-linejoin="round"/>
  <path d="M155,132 L145,88 L162,130 Z" fill="#2d263c" stroke="#2d263c" stroke-width="4" stroke-linejoin="round"/>
  <path d="M202,132 L215,88 L198,130 Z" fill="#2d263c" stroke="#2d263c" stroke-width="4" stroke-linejoin="round"/>
  <path d="M178,128 L178,82 L184,128 Z" fill="#2d263c" stroke="#2d263c" stroke-width="4" stroke-linejoin="round"/>

  <!-- 脚(左) -->
  <path d="M148,272 Q138,294 140,312 Q150,318 162,314 Q168,295 165,273" fill="#4A2080" stroke="#2d263c" stroke-width="7" stroke-linejoin="round"/>
  <!-- 爪(左) -->
  <path d="M142,310 L135,325 M152,314 L148,328 M162,313 L162,328" stroke="#2d263c" stroke-width="5" stroke-linecap="round" fill="none"/>

  <!-- 脚(右) -->
  <path d="M213,272 Q222,294 220,312 Q210,318 198,314 Q192,295 195,273" fill="#4A2080" stroke="#2d263c" stroke-width="7" stroke-linejoin="round"/>
  <!-- 爪(右) -->
  <path d="M218,310 L225,325 M208,314 L212,328 M198,313 L198,328" stroke="#2d263c" stroke-width="5" stroke-linecap="round" fill="none"/>

  <!-- 体 -->
  <path d="M128,180 Q120,215 125,252 Q135,278 178,286 Q222,278 232,252 Q238,215 230,180 Q218,152 178,147 Q138,152 128,180 Z" fill="#4A2080" stroke="#2d263c" stroke-width="9" stroke-linejoin="round"/>

  <!-- 体の針(側面) -->
  <path d="M126,190 L95,180 L120,195 Z" fill="#2d263c" stroke="#2d263c" stroke-width="4" stroke-linejoin="round"/>
  <path d="M124,215 L88,208 L118,220 Z" fill="#2d263c" stroke="#2d263c" stroke-width="4" stroke-linejoin="round"/>
  <path d="M232,190 L265,180 L240,195 Z" fill="#2d263c" stroke="#2d263c" stroke-width="4" stroke-linejoin="round"/>
  <path d="M234,215 L272,208 L240,220 Z" fill="#2d263c" stroke="#2d263c" stroke-width="4" stroke-linejoin="round"/>

  <!-- お腹(毒の斑点模様) -->
  <ellipse cx="178" cy="222" rx="38" ry="50" fill="#6030A8" stroke="#2d263c" stroke-width="5" stroke-linejoin="round"/>
  <!-- 毒の斑点 -->
  <circle cx="162" cy="205" r="7" fill="#90C020" stroke="#2d263c" stroke-width="3"/>
  <circle cx="195" cy="208" r="6" fill="#90C020" stroke="#2d263c" stroke-width="3"/>
  <circle cx="170" cy="232" r="8" fill="#90C020" stroke="#2d263c" stroke-width="3"/>
  <circle cx="200" cy="235" r="5" fill="#90C020" stroke="#2d263c" stroke-width="3"/>
  <circle cx="175" cy="255" r="6" fill="#90C020" stroke="#2d263c" stroke-width="3"/>

  <!-- 腕(左) -->
  <path d="M130,205 Q102,195 95,215 Q88,238 108,248 Q128,254 140,235" fill="#4A2080" stroke="#2d263c" stroke-width="7" stroke-linejoin="round" stroke-linecap="round"/>
  <!-- 腕の針 -->
  <path d="M95,215 L72,205 L90,220 Z" fill="#2d263c" stroke="#2d263c" stroke-width="4" stroke-linejoin="round"/>

  <!-- 腕(右) -->
  <path d="M228,205 Q258,195 265,215 Q272,238 252,248 Q232,254 220,235" fill="#4A2080" stroke="#2d263c" stroke-width="7" stroke-linejoin="round" stroke-linecap="round"/>
  <!-- 腕の針 -->
  <path d="M265,215 L288,205 L270,220 Z" fill="#2d263c" stroke="#2d263c" stroke-width="4" stroke-linejoin="round"/>

  <!-- 首 -->
  <rect x="162" y="145" width="32" height="20" rx="9" fill="#4A2080" stroke="#2d263c" stroke-width="6" stroke-linejoin="round"/>

  <!-- 頭 -->
  <ellipse cx="178" cy="118" rx="55" ry="52" fill="#3A1860" stroke="#2d263c" stroke-width="8" stroke-linejoin="round"/>

  <!-- 頭の針 -->
  <path d="M158,68 L152,38 L162,66 Z" fill="#2d263c" stroke="#2d263c" stroke-width="4" stroke-linejoin="round"/>
  <path d="M178,64 L178,30 L184,64 Z" fill="#2d263c" stroke="#2d263c" stroke-width="4" stroke-linejoin="round"/>
  <path d="M198,68 L206,38 L196,66 Z" fill="#2d263c" stroke="#2d263c" stroke-width="4" stroke-linejoin="round"/>

  <!-- 目(左) - 赤く光る -->
  <ellipse cx="158" cy="112" rx="14" ry="15" fill="white" stroke="#2d263c" stroke-width="5"/>
  <circle cx="160" cy="111" r="9" fill="#CC1010"/>
  <circle cx="163" cy="108" r="4" fill="#FF6060" opacity="0.8"/>

  <!-- 目(右) -->
  <ellipse cx="198" cy="112" rx="14" ry="15" fill="white" stroke="#2d263c" stroke-width="5"/>
  <circle cx="200" cy="111" r="9" fill="#CC1010"/>
  <circle cx="203" cy="108" r="4" fill="#FF6060" opacity="0.8"/>

  <!-- 口(悪い笑み) -->
  <path d="M158,138 Q178,152 198,138" fill="none" stroke="#2d263c" stroke-width="6" stroke-linecap="round"/>
  <!-- 牙 -->
  <path d="M162,140 L160,152 M175,142 L174,154 M192,141 L194,153" stroke="white" stroke-width="4" stroke-linecap="round" fill="none"/>

  <!-- 毒の液(口周り) -->
  <circle cx="155" cy="148" r="5" fill="#90C020" stroke="#2d263c" stroke-width="2"/>
  <circle cx="202" cy="148" r="4" fill="#90C020" stroke="#2d263c" stroke-width="2"/>

</svg>
