<svg xmlns="http://www.w3.org/2000/svg" viewBox="0 0 360 360">
  <g stroke="#2d263c" stroke-width="7" stroke-linejoin="round" stroke-linecap="round">
    <path d="M165,182 C 128 152, 108 112, 118 80 C 140 100, 158 132, 169 162 Z" fill="#E4E5F1"/>
    <path d="M196,180 C 232 148, 254 108, 243 78 C 221 98, 203 130, 192 158 Z" fill="#E4E5F1"/>
    <path d="M150,190 L116,196" stroke-width="28"/>
    <path d="M212,188 L248,192" stroke-width="28"/>
    <path d="M150,190 L116,196" stroke="#C13530" stroke-width="14"/>
    <path d="M212,188 L248,192" stroke="#C13530" stroke-width="14"/>
    <path d="M166,288 L152,320" stroke-width="26"/>
    <path d="M198,288 L213,318" stroke-width="26"/>
    <path d="M166,288 L152,320" stroke="#C13530" stroke-width="13"/>
    <path d="M198,288 L213,318" stroke="#C13530" stroke-width="13"/>
    <path d="M142,316 L165,313 L154,338 Z" fill="#C13530"/>
    <path d="M203,314 L226,311 L220,337 Z" fill="#C13530"/>
    <path d="M180,150 C 150 152, 142 172, 144 196 C 146 214, 156 222, 162 228 C 150 238, 144 252, 148 270 C 154 292, 206 296, 214 272 C 219 254, 212 238, 200 228 C 208 220, 216 210, 217 194 C 219 170, 208 152, 180 150 Z" fill="#C13530"/>
    <ellipse cx="180" cy="229" rx="17" ry="8" fill="#ABACBE"/>
    <path d="M116,168 C 96 134, 44 136, 32 172 C 30 180, 28 186, 29 191 L 64 200 L 31 211 C 38 252, 98 260, 114 228 C 126 204 124 184 116 168 Z" fill="#C13530"/>
    <path d="M246,166 C 268 130, 322 134, 332 172 C 334 180, 335 187, 334 192 L 296 202 L 333 212 C 328 254, 264 262, 246 230 C 234 206 238 184 246 166 Z" fill="#C13530"/>
    <circle cx="86" cy="214" r="11" fill="#2d263c" stroke="none"/>
    <circle cx="290" cy="212" r="12" fill="#2d263c" stroke="none"/>
    <circle cx="82" cy="210" r="3.5" fill="#ffffff" stroke="none"/>
    <circle cx="286" cy="208" r="4" fill="#ffffff" stroke="none"/>
    <path d="M163,88 C 150 76, 142 58, 145 40 L 158 45 C 158 62, 165 73, 174 83 Z" fill="#C13530"/>
    <path d="M198,86 C 212 76, 223 62, 222 44 L 207 47 C 206 62, 198 72, 190 81 Z" fill="#C13530"/>
    <path d="M180,78 C 152 78, 138 96, 140 116 C 142 138, 158 150, 181 150 C 204 150, 220 136, 221 114 C 222 94, 206 78, 180 78 Z" fill="#C13530"/>
    <path d="M160,130 Q 180 148 202 129 Q 200 144 180 146 Q 162 143 160 130 Z" fill="#ABACBE" stroke-width="5"/>
    <path d="M162,132 L170,139 L178,131 L186,139 L194,131 L201,137" fill="none" stroke-width="4"/>
    <path d="M149,104 L171,97 L173,119 L153,123 Z" fill="#F7D02C" stroke-width="5"/>
    <path d="M211,96 L233,102 L229,122 L209,118 Z" fill="#F7D02C" stroke-width="5"/>
    <circle cx="158" cy="106" r="3" fill="#ffffff" stroke="none"/>
    <circle cx="224" cy="106" r="3" fill="#ffffff" stroke="none"/>
  </g>
</svg>