<svg xmlns="http://www.w3.org/2000/svg" viewBox="0 0 360 360">
  <ellipse cx="180" cy="298" rx="27" ry="40" fill="#4f9153" stroke="#2d263c" stroke-width="7" stroke-linejoin="round"/>
  <ellipse cx="136" cy="282" rx="23" ry="38" fill="#4f9153" stroke="#2d263c" stroke-width="7" stroke-linejoin="round" transform="rotate(-38 136 282)"/>
  <ellipse cx="224" cy="282" rx="23" ry="38" fill="#4f9153" stroke="#2d263c" stroke-width="7" stroke-linejoin="round" transform="rotate(38 224 282)"/>
  <path d="M180 298 L180 260" stroke="#3a6e40" stroke-width="4" stroke-linecap="round"/>
  <circle cx="180" cy="188" r="86" fill="#dfe7a1" stroke="#2d263c" stroke-width="8" stroke-linejoin="round"/>
  <ellipse cx="180" cy="78" rx="26" ry="42" fill="#f2a0c4" stroke="#2d263c" stroke-width="7" stroke-linejoin="round"/>
  <ellipse cx="148" cy="76" rx="21" ry="37" fill="#f2a0c4" stroke="#2d263c" stroke-width="7" stroke-linejoin="round" transform="rotate(-33 148 76)"/>
  <ellipse cx="212" cy="76" rx="21" ry="37" fill="#f2a0c4" stroke="#2d263c" stroke-width="7" stroke-linejoin="round" transform="rotate(33 212 76)"/>
  <circle cx="150" cy="176" r="25" fill="#ffffff" stroke="#2d263c" stroke-width="6"/>
  <circle cx="210" cy="176" r="25" fill="#ffffff" stroke="#2d263c" stroke-width="6"/>
  <circle cx="156" cy="182" r="11" fill="#2d263c"/>
  <circle cx="216" cy="182" r="11" fill="#2d263c"/>
  <circle cx="152" cy="175" r="4" fill="#ffffff"/>
  <circle cx="212" cy="175" r="4" fill="#ffffff"/>
  <circle cx="123" cy="206" r="14" fill="#f7b9d0"/>
  <circle cx="237" cy="206" r="14" fill="#f7b9d0"/>
  <path d="M167 206 Q180 217 193 206" fill="none" stroke="#2d263c" stroke-width="6" stroke-linecap="round"/>
</svg>
