<svg xmlns="http://www.w3.org/2000/svg" viewBox="0 0 360 360">
  <path d="M170 288 C 130 296 118 328 152 338 C 175 342 202 318 196 294 C 190 278 180 281 170 288 Z" fill="#3a2560" stroke="#2d263c" stroke-width="7" stroke-linejoin="round"/>
  <path d="M162 300 C 148 312 150 326 165 332" fill="none" stroke="#6b4aa0" stroke-width="4" stroke-linecap="round"/>

  <path d="M182 140 C 260 150 128 188 208 210 C 288 232 118 258 188 296" fill="none" stroke="#2d263c" stroke-width="56" stroke-linecap="round" stroke-linejoin="round"/>
  <path d="M182 140 C 260 150 128 188 208 210 C 288 232 118 258 188 296" fill="none" stroke="#5b3a8f" stroke-width="42" stroke-linecap="round" stroke-linejoin="round"/>

  <ellipse cx="150" cy="178" rx="14" ry="9" fill="#f2e6bf" stroke="#2d263c" stroke-width="5" transform="rotate(-20 150 178)"/>
  <ellipse cx="245" cy="222" rx="14" ry="9" fill="#f2e6bf" stroke="#2d263c" stroke-width="5" transform="rotate(20 245 222)"/>
  <ellipse cx="150" cy="270" rx="14" ry="9" fill="#f2e6bf" stroke="#2d263c" stroke-width="5" transform="rotate(-15 150 270)"/>

  <ellipse cx="205" cy="160" rx="10" ry="6" fill="#7455ad" stroke="#2d263c" stroke-width="4" transform="rotate(15 205 160)"/>
  <ellipse cx="175" cy="200" rx="10" ry="6" fill="#7455ad" stroke="#2d263c" stroke-width="4" transform="rotate(-10 175 200)"/>
  <ellipse cx="255" cy="245" rx="10" ry="6" fill="#7455ad" stroke="#2d263c" stroke-width="4" transform="rotate(15 255 245)"/>
  <ellipse cx="170" cy="255" rx="10" ry="6" fill="#7455ad" stroke="#2d263c" stroke-width="4" transform="rotate(-15 170 255)"/>

  <ellipse cx="182" cy="92" rx="72" ry="56" fill="#5b3a8f" stroke="#2d263c" stroke-width="8"/>

  <path d="M118 78 Q182 60 246 78 L246 100 Q182 116 118 100 Z" fill="#3a2560" stroke="#2d263c" stroke-width="6"/>

  <ellipse cx="152" cy="86" rx="11" ry="13" fill="#e0304a" stroke="#2d263c" stroke-width="5"/>
  <ellipse cx="212" cy="86" rx="11" ry="13" fill="#e0304a" stroke="#2d263c" stroke-width="5"/>
  <circle cx="152" cy="88" r="4" fill="#1a1420"/>
  <circle cx="212" cy="88" r="4" fill="#1a1420"/>
  <circle cx="149" cy="83" r="2" fill="#ffffff"/>
  <circle cx="209" cy="83" r="2" fill="#ffffff"/>

  <path d="M128 122 Q182 152 236 122 Q182 140 128 122 Z" fill="#7a1f2e" stroke="#2d263c" stroke-width="6" stroke-linejoin="round"/>

  <path d="M156 124 L163 141 L169 124 Z" fill="#ffffff" stroke="#2d263c" stroke-width="3" stroke-linejoin="round"/>
  <path d="M195 124 L201 141 L208 124 Z" fill="#ffffff" stroke="#2d263c" stroke-width="3" stroke-linejoin="round"/>

  <path d="M182 140 L176 158 L182 152 L188 158 Z" fill="#c22b3c" stroke="#2d263c" stroke-width="3" stroke-linejoin="round"/>
</svg>
