<svg xmlns="http://www.w3.org/2000/svg" viewBox="0 0 360 360">
<path d="M270 195 L322 150 L316 200 L322 250 Z" fill="#4fc3e8" stroke="#2d263c" stroke-width="8" stroke-linejoin="round"/>
<path d="M180 120 L280 200 L180 280 L80 200 Z" fill="#e85d8a" stroke="#2d263c" stroke-width="8" stroke-linejoin="round"/>
<path d="M170 125 L150 68 L196 110 Z" fill="#4fc3e8" stroke="#2d263c" stroke-width="8" stroke-linejoin="round"/>
<path d="M170 275 L150 322 L196 290 Z" fill="#4fc3e8" stroke="#2d263c" stroke-width="8" stroke-linejoin="round"/>
<path d="M120 215 Q92 252 110 278 L142 246 Z" fill="#b84a72" stroke="#2d263c" stroke-width="7" stroke-linejoin="round"/>
<path d="M128 175 Q160 165 192 175" fill="none" stroke="#ffe14d" stroke-width="7" stroke-linecap="round"/>
<path d="M118 210 Q160 198 202 210" fill="none" stroke="#ffe14d" stroke-width="7" stroke-linecap="round"/>
<path d="M128 245 Q160 235 192 245" fill="none" stroke="#ffe14d" stroke-width="7" stroke-linecap="round"/>
<circle cx="150" cy="178" r="14" fill="#fff" stroke="#2d263c" stroke-width="6"/>
<circle cx="153" cy="180" r="7" fill="#2d263c"/>
<path d="M92 200 Q98 186 120 190 Q136 195 142 205 Q136 222 118 224 Q96 220 92 208 Z" fill="#7a2d4a" stroke="#2d263c" stroke-width="6" stroke-linejoin="round"/>
<path d="M102 212 L108 220 L114 212 L120 220 L126 212 L132 220" fill="none" stroke="#fff" stroke-width="5" stroke-linecap="round" stroke-linejoin="round"/>
</svg>