<svg xmlns="http://www.w3.org/2000/svg" viewBox="0 0 360 360"><g stroke="#2d263c" stroke-width="7" stroke-linejoin="round" stroke-linecap="round"><path d="M180 45 Q260 50 280 110 Q312 150 305 220 Q300 285 245 315 Q180 335 115 315 Q60 285 55 220 Q48 150 80 100 Q110 55 180 45 Z" fill="#eef8fc"/><path d="M85 130 L130 108 L142 160 L96 178 Z" fill="#9fd8ea"/><path d="M235 105 L285 122 L270 175 L222 158 Z" fill="#9fd8ea"/><path d="M150 210 L212 205 L216 262 L154 267 Z" fill="#d8f0f8"/><path d="M160 60 L202 55 L192 92 Z" fill="#9fd8ea"/><circle cx="145" cy="115" r="14" fill="#2d263c"/><circle cx="215" cy="115" r="14" fill="#2d263c"/><circle cx="140" cy="110" r="4" fill="#ffffff" stroke-width="0"/><circle cx="210" cy="110" r="4" fill="#ffffff" stroke-width="0"/><ellipse cx="180" cy="150" rx="11" ry="8" fill="#5ec2e0"/><path d="M155 178 Q180 192 205 178" fill="none"/><path d="M150 185 Q128 222 138 262 Q150 268 159 256 Q154 220 165 190 Z" fill="#fffdf3"/><path d="M210 185 Q232 222 222 262 Q210 268 201 256 Q206 220 195 190 Z" fill="#fffdf3"/><path d="M55 210 Q28 226 34 262 Q55 273 71 252 Q65 226 60 210 Z" fill="#bfe8f5"/><path d="M305 210 Q332 226 326 262 Q305 273 289 252 Q295 226 300 210 Z" fill="#bfe8f5"/><ellipse cx="130" cy="318" rx="30" ry="14" fill="#bfe8f5"/><ellipse cx="230" cy="318" rx="30" ry="14" fill="#bfe8f5"/></g></svg>
