<svg xmlns="http://www.w3.org/2000/svg" viewBox="0 0 360 360">
  <!-- 尻尾 -->
  <path d="M120 250 Q70 240 60 280 Q88 270 120 268" fill="#E8B820" stroke="#2d263c" stroke-width="7" stroke-linejoin="round" stroke-linecap="round"/>
  <!-- 足 左 -->
  <path d="M140 280 L132 322 L160 322 L156 280 Z" fill="#5A3E78" stroke="#2d263c" stroke-width="7" stroke-linejoin="round"/>
  <!-- 足 右 -->
  <path d="M204 280 L200 322 L228 322 L220 280 Z" fill="#5A3E78" stroke="#2d263c" stroke-width="7" stroke-linejoin="round"/>
  <!-- 体 -->
  <path d="M130 180 Q120 250 160 270 Q200 276 220 250 Q230 200 210 170 Q170 160 130 180Z" fill="#E8B820" stroke="#2d263c" stroke-width="8" stroke-linejoin="round"/>
  <!-- 胸のトゲ(紫) -->
  <path d="M156 210 L150 232 L168 222 Z" fill="#5A3E78" stroke="#2d263c" stroke-width="6" stroke-linejoin="round"/>
  <path d="M180 214 L176 240 L196 226 Z" fill="#5A3E78" stroke="#2d263c" stroke-width="6" stroke-linejoin="round"/>
  <path d="M206 210 L210 232 L196 222 Z" fill="#5A3E78" stroke="#2d263c" stroke-width="6" stroke-linejoin="round"/>
  <!-- 腕(上げ・ギター風) -->
  <path d="M214 186 Q252 168 268 134 Q262 124 250 130 Q226 158 206 184" fill="#E8B820" stroke="#2d263c" stroke-width="7" stroke-linejoin="round"/>
  <!-- 腕(下) -->
  <path d="M134 196 Q108 220 110 250 Q120 254 128 246 Q138 222 146 206" fill="#E8B820" stroke="#2d263c" stroke-width="7" stroke-linejoin="round"/>
  <!-- 頭 -->
  <path d="M150 110 Q150 70 196 66 Q244 72 246 116 Q242 156 196 158 Q150 154 150 110Z" fill="#F0C830" stroke="#2d263c" stroke-width="8" stroke-linejoin="round"/>
  <!-- ツノ/耳(尖) -->
  <path d="M158 80 L142 44 L172 72 Z" fill="#5A3E78" stroke="#2d263c" stroke-width="6" stroke-linejoin="round"/>
  <path d="M238 80 L254 44 L224 72 Z" fill="#5A3E78" stroke="#2d263c" stroke-width="6" stroke-linejoin="round"/>
  <!-- トサカ(紫の毛) -->
  <path d="M180 64 L176 38 L192 56 L204 36 L206 64 Z" fill="#6A4A8A" stroke="#2d263c" stroke-width="6" stroke-linejoin="round"/>
  <!-- 目 左 -->
  <ellipse cx="172" cy="110" rx="16" ry="18" fill="#FFFFFF" stroke="#2d263c" stroke-width="6"/>
  <ellipse cx="174" cy="113" rx="6" ry="9" fill="#241f2e"/>
  <!-- 目 右 -->
  <ellipse cx="222" cy="110" rx="16" ry="18" fill="#FFFFFF" stroke="#2d263c" stroke-width="6"/>
  <ellipse cx="220" cy="113" rx="6" ry="9" fill="#241f2e"/>
  <!-- 口 -->
  <path d="M182 138 Q196 146 210 138" fill="none" stroke="#2d263c" stroke-width="6" stroke-linecap="round"/>
</svg>
