<svg xmlns="http://www.w3.org/2000/svg" viewBox="0 0 360 360">

  <!-- ゴーストオーラ(外側・半透明) -->
  <ellipse cx="180" cy="210" rx="105" ry="90" fill="#7040c0" opacity="0.13"/>
  <ellipse cx="180" cy="210" rx="82" ry="70" fill="#7040c0" opacity="0.10"/>

  <!-- 影 -->
  <ellipse cx="180" cy="318" rx="60" ry="10" fill="#00000022"/>

  <!-- 尻尾(ゆらゆら幽霊っぽい) -->
  <path d="M248 215 Q272 200 278 178 Q280 158 265 148 Q252 140 240 152 Q235 162 242 175 Q248 188 245 200 Q242 212 248 215Z" fill="#3a2860" stroke="#2d263c" stroke-width="6" stroke-linejoin="round" stroke-linecap="round"/>
  <path d="M255 180 Q268 168 264 155 Q258 145 248 152 Q243 162 248 172Z" fill="#5038a0" stroke="none"/>

  <!-- 体(犬シルエット、ゆらゆらアウトライン) -->
  <path d="M100 230 Q92 208 98 185 Q106 160 128 150 Q150 140 178 142 Q208 144 228 158 Q248 172 250 198 Q252 222 238 240 Q222 258 200 264 Q178 268 158 262 Q132 254 115 242 Q104 236 100 230Z" fill="#3a2860" stroke="#2d263c" stroke-width="8" stroke-linejoin="round"/>

  <!-- 体内のグラデ風明るい部分 -->
  <ellipse cx="180" cy="210" rx="55" ry="45" fill="#4a3878" opacity="0.6"/>

  <!-- 前足左(もやっとした) -->
  <path d="M120 258 Q108 268 105 282 Q106 295 118 298 Q128 299 132 288 Q134 276 128 265 Q124 260 120 258Z" fill="#3a2860" stroke="#2d263c" stroke-width="6" stroke-linejoin="round"/>
  <path d="M108 292 Q112 302 118 304 Q126 303 128 296" fill="#2a1848" stroke="none"/>

  <!-- 前足右(もやっとした) -->
  <path d="M200 258 Q212 268 215 282 Q214 295 202 298 Q192 299 188 288 Q186 276 192 265 Q196 260 200 258Z" fill="#3a2860" stroke="#2d263c" stroke-width="6" stroke-linejoin="round"/>
  <path d="M212 292 Q208 302 202 304 Q194 303 192 296" fill="#2a1848" stroke="none"/>

  <!-- 後足左 -->
  <path d="M128 262 Q115 275 112 292 Q113 305 124 307 Q134 308 136 296 Q138 284 132 272Z" fill="#3a2860" stroke="#2d263c" stroke-width="5" stroke-linejoin="round"/>
  <!-- 後足右 -->
  <path d="M232 262 Q245 275 248 292 Q247 305 236 307 Q226 308 224 296 Q222 284 228 272Z" fill="#3a2860" stroke="#2d263c" stroke-width="5" stroke-linejoin="round"/>

  <!-- 首輪(骨モチーフ) -->
  <rect x="148" y="170" width="68" height="18" rx="9" fill="#555555" stroke="#2d263c" stroke-width="5"/>
  <!-- 首輪 骨マーク -->
  <circle cx="164" cy="179" r="5" fill="#888888" stroke="#2d263c" stroke-width="2"/>
  <circle cx="180" cy="179" r="5" fill="#888888" stroke="#2d263c" stroke-width="2"/>
  <circle cx="196" cy="179" r="5" fill="#888888" stroke="#2d263c" stroke-width="2"/>
  <rect x="163" y="176" width="34" height="6" rx="2" fill="#888888" stroke="none"/>
  <!-- 墓マーク(首輪中央) -->
  <path d="M177 175 L177 183 M174 175 L180 175" fill="none" stroke="#cccccc" stroke-width="2.5" stroke-linecap="round"/>

  <!-- 頭部(犬の頭) -->
  <path d="M138 152 Q140 118 160 106 Q178 96 198 106 Q218 118 220 148 Q222 170 210 178 Q196 188 180 188 Q162 188 150 178 Q138 168 138 152Z" fill="#3a2860" stroke="#2d263c" stroke-width="8" stroke-linejoin="round"/>

  <!-- 耳 左(立ち耳・ゴーストっぽく) -->
  <path d="M148 128 Q138 100 132 82 Q136 72 146 78 Q154 90 158 118 Q158 128 152 132Z" fill="#3a2860" stroke="#2d263c" stroke-width="6" stroke-linejoin="round"/>
  <path d="M148 124 Q140 100 138 86 Q142 78 148 85 Q154 100 156 120Z" fill="#5040a0" opacity="0.5" stroke="none"/>

  <!-- 耳 右(立ち耳) -->
  <path d="M212 128 Q222 100 228 82 Q224 72 214 78 Q206 90 202 118 Q202 128 208 132Z" fill="#3a2860" stroke="#2d263c" stroke-width="6" stroke-linejoin="round"/>
  <path d="M212 124 Q220 100 222 86 Q218 78 212 85 Q206 100 204 120Z" fill="#5040a0" opacity="0.5" stroke="none"/>

  <!-- 口/鼻先 -->
  <ellipse cx="180" cy="162" rx="22" ry="15" fill="#2a1848" stroke="#2d263c" stroke-width="5" stroke-linejoin="round"/>
  <ellipse cx="180" cy="158" rx="10" ry="7" fill="#1a0a30"/>
  <!-- 鼻 -->
  <ellipse cx="180" cy="153" rx="8" ry="6" fill="#1a0a2a" stroke="#2d263c" stroke-width="3"/>

  <!-- 目 左(青白く光る) -->
  <ellipse cx="157" cy="138" rx="14" ry="13" fill="#0a0820" stroke="#2d263c" stroke-width="5"/>
  <ellipse cx="157" cy="138" rx="9" ry="9" fill="#80ccff"/>
  <ellipse cx="157" cy="138" rx="5" ry="6" fill="#b8eeff"/>
  <ellipse cx="155" cy="135" rx="2.5" ry="2.5" fill="white" opacity="0.9"/>

  <!-- 目 右(青白く光る) -->
  <ellipse cx="203" cy="138" rx="14" ry="13" fill="#0a0820" stroke="#2d263c" stroke-width="5"/>
  <ellipse cx="203" cy="138" rx="9" ry="9" fill="#80ccff"/>
  <ellipse cx="203" cy="138" rx="5" ry="6" fill="#b8eeff"/>
  <ellipse cx="201" cy="135" rx="2.5" ry="2.5" fill="white" opacity="0.9"/>

  <!-- 目の青白い光(外側グロー) -->
  <ellipse cx="157" cy="138" rx="14" ry="13" fill="#80ccff" opacity="0.25"/>
  <ellipse cx="203" cy="138" rx="14" ry="13" fill="#80ccff" opacity="0.25"/>

  <!-- 背中の墓石モチーフ -->
  <path d="M170 148 Q170 136 180 133 Q190 136 190 148 L188 160 L172 160 Z" fill="#888888" stroke="#2d263c" stroke-width="4" stroke-linejoin="round"/>
  <!-- 墓石の十字 -->
  <path d="M180 138 L180 148 M176 142 L184 142" fill="none" stroke="#555555" stroke-width="2.5" stroke-linecap="round"/>

  <!-- ゴーストオーラ(前面・薄) -->
  <ellipse cx="155" cy="138" rx="20" ry="18" fill="#80ccff" opacity="0.08"/>
  <ellipse cx="203" cy="138" rx="20" ry="18" fill="#80ccff" opacity="0.08"/>

</svg>
