<svg xmlns="http://www.w3.org/2000/svg" viewBox="0 0 360 360">
  <g stroke="#2d263c" stroke-width="7" stroke-linejoin="round" stroke-linecap="round">
    <path d="M95,140 L80,62 L118,100 L130,40 L155,95 L180,26 L205,95 L230,40 L242,100 L280,62 L265,140 C230,122 130,122 95,140 Z" fill="#1c1a2b"/>
    <path d="M170,278 C152,296 143,312 149,330" fill="none" stroke="#1c1a2b" stroke-width="6"/>
    <path d="M180,282 C182,300 179,316 182,332" fill="none" stroke="#1c1a2b" stroke-width="6"/>
    <path d="M190,278 C208,296 216,312 208,328" fill="none" stroke="#1c1a2b" stroke-width="6"/>
    <ellipse cx="180" cy="150" rx="60" ry="56" fill="#fbf3e6"/>
    <ellipse cx="180" cy="245" rx="40" ry="46" fill="#fbf3e6"/>
    <path d="M145,222 C110,232 85,248 68,268" fill="none" stroke="#1c1a2b" stroke-width="10"/>
    <circle cx="68" cy="268" r="9" fill="#1c1a2b" stroke="none"/>
    <path d="M215,222 C250,232 275,248 292,268" fill="none" stroke="#1c1a2b" stroke-width="10"/>
    <circle cx="292" cy="268" r="9" fill="#1c1a2b" stroke="none"/>
    <path d="M165,285 C155,305 148,320 148,334" fill="none" stroke="#1c1a2b" stroke-width="10"/>
    <ellipse cx="148" cy="336" rx="13" ry="7" fill="#1c1a2b" stroke="none"/>
    <path d="M195,285 C205,305 212,320 212,334" fill="none" stroke="#1c1a2b" stroke-width="10"/>
    <ellipse cx="212" cy="336" rx="13" ry="7" fill="#1c1a2b" stroke="none"/>
    <ellipse cx="155" cy="142" rx="15" ry="19" transform="rotate(-8 155 142)" fill="#1c1a2b" stroke="none"/>
    <ellipse cx="205" cy="142" rx="15" ry="19" transform="rotate(8 205 142)" fill="#1c1a2b" stroke="none"/>
    <circle cx="155" cy="148" r="7" fill="#ff5a3d" stroke="none"/>
    <circle cx="205" cy="148" r="7" fill="#ff5a3d" stroke="none"/>
    <circle cx="152" cy="144" r="2.3" fill="#ffffff" stroke="none"/>
    <circle cx="202" cy="144" r="2.3" fill="#ffffff" stroke="none"/>
    <path d="M164,176 Q180,186 196,176" fill="none" stroke="#1c1a2b" stroke-width="5"/>
    <ellipse cx="122" cy="168" rx="10" ry="6" fill="#ffb6c9" stroke="none" opacity="0.85"/>
    <ellipse cx="238" cy="168" rx="10" ry="6" fill="#ffb6c9" stroke="none" opacity="0.85"/>
  </g>
</svg>
