<svg xmlns="http://www.w3.org/2000/svg" viewBox="0 0 360 360"><g stroke="#2d263c" stroke-width="7" stroke-linejoin="round" stroke-linecap="round"><path d="M75,308 L33,332 L90,293 Z" fill="#8b93a3"/><path d="M245,192 L292,158 L262,206 Z" fill="#8b93a3"/><path d="M262,214 L312,216 L264,236 Z" fill="#8b93a3"/><path d="M250,238 L284,274 L236,244 Z" fill="#8b93a3"/><path d="M122,300 L95,332 L140,312 Z" fill="#8b93a3"/><path d="M140,311 L151,337 L156,307 Z" fill="#8b93a3"/><circle cx="80" cy="295" r="21" fill="#b6bdc9"/><circle cx="135" cy="289" r="26" fill="#b6bdc9"/><circle cx="200" cy="273" r="30" fill="#b6bdc9"/><circle cx="237" cy="215" r="33" fill="#b6bdc9"/><circle cx="187" cy="166" r="36" fill="#b6bdc9"/><path d="M92,110 L60,121 L94,129 Z" fill="#8b93a3"/><path d="M224,104 L257,114 L222,124 Z" fill="#8b93a3"/><path d="M105,52 L210,48 L228,95 L219,136 L201,160 L158,166 L115,158 L95,130 L88,90 Z" fill="#b6bdc9"/><path d="M101,127 Q160,150 219,123 L213,148 Q158,170 106,149 Z" fill="#564f66"/><path d="M104,131 L115,147 L127,133 L139,149 L154,135 L168,150 L182,134 L196,147 L208,130" fill="#ffffff" stroke-width="5"/><path d="M117,87 L146,95 L121,104 Z" fill="#e23b3b" stroke-width="5"/><path d="M198,86 L170,94 L195,103 Z" fill="#e23b3b" stroke-width="5"/><path d="M110,78 L148,86" fill="none" stroke-width="6"/><path d="M205,77 L168,85" fill="none" stroke-width="6"/><path d="M150,112 L153,116" fill="none" stroke-width="5"/><path d="M166,112 L169,116" fill="none" stroke-width="5"/><path d="M125,55 L122,42" fill="none" stroke-width="6"/><path d="M190,52 L194,39" fill="none" stroke-width="6"/></g></svg>