<svg xmlns="http://www.w3.org/2000/svg" viewBox="0 0 360 360">
  <ellipse cx="140" cy="316" rx="24" ry="15" fill="#5FB6CE" stroke="#2d263c" stroke-width="7" stroke-linejoin="round"/>
  <ellipse cx="220" cy="316" rx="24" ry="15" fill="#5FB6CE" stroke="#2d263c" stroke-width="7" stroke-linejoin="round"/>
  <ellipse cx="180" cy="222" rx="98" ry="92" fill="#6EC1D6" stroke="#2d263c" stroke-width="8" stroke-linejoin="round"/>
  <ellipse cx="180" cy="262" rx="50" ry="42" fill="#FBF3D2" stroke="#2d263c" stroke-width="6" stroke-linejoin="round"/>
  <path d="M62,158 C60,92 122,52 180,52 C238,52 300,92 298,158 C297,182 250,196 180,193 C110,196 63,182 62,158 Z" fill="#69A83E" stroke="#2d263c" stroke-width="8" stroke-linejoin="round"/>
  <path d="M70,168 C75,186 122,198 180,196 C238,198 285,186 290,168 C283,190 234,204 180,202 C126,204 77,190 70,168 Z" fill="#CBDF8A" stroke="#2d263c" stroke-width="6" stroke-linejoin="round"/>
  <path d="M180,64 C150,86 110,112 84,150" fill="none" stroke="#417A2B" stroke-width="6" stroke-linecap="round"/>
  <path d="M180,64 C210,86 250,112 276,150" fill="none" stroke="#417A2B" stroke-width="6" stroke-linecap="round"/>
  <path d="M180,64 L180,150" fill="none" stroke="#417A2B" stroke-width="6" stroke-linecap="round"/>
  <circle cx="147" cy="216" r="15" fill="#241f2e" stroke="#2d263c" stroke-width="6"/>
  <circle cx="213" cy="216" r="15" fill="#241f2e" stroke="#2d263c" stroke-width="6"/>
  <circle cx="142" cy="211" r="5" fill="#ffffff"/>
  <circle cx="208" cy="211" r="5" fill="#ffffff"/>
  <path d="M162,246 C170,254 190,254 198,246" fill="none" stroke="#2d263c" stroke-width="7" stroke-linecap="round"/>
</svg>
