<svg xmlns="http://www.w3.org/2000/svg" viewBox="0 0 360 360">
  <!-- 影 -->
  <ellipse cx="182" cy="310" rx="75" ry="16" fill="#00000022"/>

  <!-- トゲ(体周囲・下部) -->
  <polygon points="145,270 135,300 155,275" fill="#F0F0E0" stroke="#8040A0" stroke-width="4" stroke-linejoin="round"/>
  <polygon points="170,278 165,312 180,280" fill="#F0F0E0" stroke="#8040A0" stroke-width="4" stroke-linejoin="round"/>
  <polygon points="198,277 198,312 210,278" fill="#F0F0E0" stroke="#8040A0" stroke-width="4" stroke-linejoin="round"/>
  <polygon points="220,268 230,300 235,270" fill="#F0F0E0" stroke="#8040A0" stroke-width="4" stroke-linejoin="round"/>

  <!-- トゲ(体周囲・左) -->
  <polygon points="112,200 78,195 112,215" fill="#F0F0E0" stroke="#8040A0" stroke-width="4" stroke-linejoin="round"/>
  <polygon points="105,230 68,235 108,245" fill="#F0F0E0" stroke="#8040A0" stroke-width="4" stroke-linejoin="round"/>
  <polygon points="110,170 72,162 112,182" fill="#F0F0E0" stroke="#8040A0" stroke-width="4" stroke-linejoin="round"/>
  <polygon points="120,145 88,130 120,160" fill="#F0F0E0" stroke="#8040A0" stroke-width="4" stroke-linejoin="round"/>

  <!-- トゲ(体周囲・右) -->
  <polygon points="252,200 288,195 252,215" fill="#F0F0E0" stroke="#8040A0" stroke-width="4" stroke-linejoin="round"/>
  <polygon points="255,230 295,235 255,245" fill="#F0F0E0" stroke="#8040A0" stroke-width="4" stroke-linejoin="round"/>
  <polygon points="250,170 290,162 250,182" fill="#F0F0E0" stroke="#8040A0" stroke-width="4" stroke-linejoin="round"/>
  <polygon points="242,145 275,130 242,160" fill="#F0F0E0" stroke="#8040A0" stroke-width="4" stroke-linejoin="round"/>

  <!-- トゲ(上部) -->
  <polygon points="155,118 145,80 168,120" fill="#F0F0E0" stroke="#8040A0" stroke-width="4" stroke-linejoin="round"/>
  <polygon points="182,110 180,72 195,112" fill="#F0F0E0" stroke="#8040A0" stroke-width="4" stroke-linejoin="round"/>
  <polygon points="210,118 220,80 198,122" fill="#F0F0E0" stroke="#8040A0" stroke-width="4" stroke-linejoin="round"/>
  <polygon points="135,140 100,118 138,152" fill="#F0F0E0" stroke="#8040A0" stroke-width="4" stroke-linejoin="round"/>
  <polygon points="228,140 262,118 225,152" fill="#F0F0E0" stroke="#8040A0" stroke-width="4" stroke-linejoin="round"/>

  <!-- お腹(薄い青緑) -->
  <ellipse cx="182" cy="215" rx="55" ry="60" fill="#7ACAD8" stroke="#2d263c" stroke-width="7" stroke-linejoin="round"/>

  <!-- 体(青緑) -->
  <ellipse cx="182" cy="205" rx="80" ry="90" fill="#3A9AB0" stroke="#2d263c" stroke-width="7" stroke-linejoin="round"/>

  <!-- お腹模様 -->
  <ellipse cx="182" cy="220" rx="48" ry="52" fill="#7ACAD8" stroke="#2d263c" stroke-width="4" stroke-linejoin="round"/>

  <!-- ひれ・左(小さい) -->
  <ellipse cx="118" cy="205" rx="18" ry="12" fill="#3A9AB0" stroke="#2d263c" stroke-width="5" transform="rotate(-30,118,205)" stroke-linejoin="round"/>
  <!-- ひれ・右(小さい) -->
  <ellipse cx="246" cy="205" rx="18" ry="12" fill="#3A9AB0" stroke="#2d263c" stroke-width="5" transform="rotate(30,246,205)" stroke-linejoin="round"/>

  <!-- 尾びれ -->
  <path d="M182,290 Q155,320 145,305 Q170,295 182,290Z" fill="#3A9AB0" stroke="#2d263c" stroke-width="5" stroke-linejoin="round"/>
  <path d="M182,290 Q210,320 220,305 Q195,295 182,290Z" fill="#3A9AB0" stroke="#2d263c" stroke-width="5" stroke-linejoin="round"/>

  <!-- 目・左(白目) -->
  <ellipse cx="155" cy="185" rx="20" ry="22" fill="white" stroke="#2d263c" stroke-width="5"/>
  <!-- 目・左(黒目) -->
  <ellipse cx="158" cy="188" rx="12" ry="13" fill="#2d263c"/>
  <!-- 目・左(ハイライト) -->
  <circle cx="163" cy="183" r="4" fill="white"/>

  <!-- 目・右(白目) -->
  <ellipse cx="208" cy="185" rx="20" ry="22" fill="white" stroke="#2d263c" stroke-width="5"/>
  <!-- 目・右(黒目) -->
  <ellipse cx="210" cy="188" rx="12" ry="13" fill="#2d263c"/>
  <!-- 目・右(ハイライト) -->
  <circle cx="215" cy="183" r="4" fill="white"/>

  <!-- 口(小さい) -->
  <path d="M174,220 Q182,228 190,220" fill="none" stroke="#2d263c" stroke-width="5" stroke-linecap="round"/>
</svg>
