<svg xmlns="http://www.w3.org/2000/svg" viewBox="0 0 360 360">
  <g stroke="#2d263c" stroke-width="7" stroke-linejoin="round" stroke-linecap="round">
    <path d="M80,286 L26,294 L74,318 Z" fill="#8B92A3"/>
    <circle cx="96" cy="295" r="20" fill="#8B92A3"/>
    <path d="M128,326 L137,352 L153,330 Z" fill="#A9AFBC"/>
    <path d="M158,332 L173,351 L181,329 Z" fill="#A9AFBC"/>
    <circle cx="150" cy="308" r="30" fill="#A9AFBC"/>
    <circle cx="207" cy="300" r="22" fill="#8B92A3"/>
    <path d="M276,250 L310,242 L286,272 Z" fill="#A9AFBC"/>
    <path d="M280,282 L298,308 L262,294 Z" fill="#A9AFBC"/>
    <circle cx="254" cy="262" r="30" fill="#A9AFBC"/>
    <circle cx="271" cy="210" r="22" fill="#8B92A3"/>
    <circle cx="256" cy="160" r="28" fill="#A9AFBC"/>
    <path d="M95,128 Q84,173 120,182 L240,178 Q263,168 253,128 Z" fill="#A9AFBC"/>
    <rect x="164" y="158" width="24" height="13" rx="5" fill="#8B92A3"/>
    <path d="M106,134 L246,130 L242,151 Q175,162 111,153 Z" fill="#4a4258"/>
    <path d="M125,137 L132,153 L139,137 Z" fill="#FAF8FC" stroke-width="4"/>
    <path d="M148,137 L155,154 L162,137 Z" fill="#FAF8FC" stroke-width="4"/>
    <path d="M171,136 L178,152 L185,136 Z" fill="#FAF8FC" stroke-width="4"/>
    <path d="M196,136 L203,151 L210,135 Z" fill="#FAF8FC" stroke-width="4"/>
    <path d="M218,135 L224,148 L230,134 Z" fill="#FAF8FC" stroke-width="4"/>
    <path d="M103,136 Q89,92 124,66 Q166,42 208,58 Q246,76 249,114 Q251,130 243,137 Q175,147 103,136 Z" fill="#B9BFCB"/>
    <path d="M122,90 Q142,93 160,101" fill="none" stroke-width="9"/>
    <path d="M187,101 Q204,93 224,89" fill="none" stroke-width="9"/>
    <circle cx="143" cy="111" r="9" fill="#D5382E" stroke-width="5"/>
    <circle cx="202" cy="109" r="9" fill="#D5382E" stroke-width="5"/>
    <circle cx="145" cy="112" r="2.5" fill="#2d263c" stroke="none"/>
    <circle cx="204" cy="110" r="2.5" fill="#2d263c" stroke="none"/>
    <ellipse cx="221" cy="121" rx="3.5" ry="2.5" fill="#2d263c" stroke="none"/>
    <ellipse cx="234" cy="115" rx="3.5" ry="2.5" fill="#2d263c" stroke="none"/>
  </g>
</svg>