<svg xmlns="http://www.w3.org/2000/svg" viewBox="0 0 360 360">
  <!-- 羽(背中・後ろレイヤー) -->
  <ellipse cx="148" cy="155" rx="28" ry="52" fill="#b8bfc8" stroke="#2d263c" stroke-width="6" stroke-linejoin="round" transform="rotate(-18,148,155)"/>
  <ellipse cx="212" cy="155" rx="28" ry="52" fill="#b0b8c2" stroke="#2d263c" stroke-width="6" stroke-linejoin="round" transform="rotate(18,212,155)"/>
  <ellipse cx="142" cy="162" rx="18" ry="38" fill="#cfd6de" stroke="#2d263c" stroke-width="5" stroke-linejoin="round" transform="rotate(-22,142,162)"/>
  <ellipse cx="218" cy="162" rx="18" ry="38" fill="#cfd6de" stroke="#2d263c" stroke-width="5" stroke-linejoin="round" transform="rotate(22,218,162)"/>

  <!-- 尾部 -->
  <path d="M165 295 Q180 320 195 295" fill="#b52020" stroke="#2d263c" stroke-width="7" stroke-linejoin="round"/>

  <!-- 脚 左 -->
  <path d="M158 268 Q140 292 128 310 M128 310 L118 316 M128 310 L124 320 M128 310 L136 318" fill="none" stroke="#1a1a2e" stroke-width="7" stroke-linecap="round"/>
  <!-- 脚 右 -->
  <path d="M202 268 Q220 292 232 310 M232 310 L222 316 M232 310 L228 320 M232 310 L240 318" fill="none" stroke="#1a1a2e" stroke-width="7" stroke-linecap="round"/>
  <!-- 脚 中 左 -->
  <path d="M155 255 Q132 275 120 295 M120 295 L112 300 M120 295 L116 305" fill="none" stroke="#1a1a2e" stroke-width="6" stroke-linecap="round"/>
  <!-- 脚 中 右 -->
  <path d="M205 255 Q228 275 240 295 M240 295 L248 300 M240 295 L244 305" fill="none" stroke="#1a1a2e" stroke-width="6" stroke-linecap="round"/>

  <!-- 腹部(下部) -->
  <ellipse cx="180" cy="250" rx="42" ry="38" fill="#c42828" stroke="#2d263c" stroke-width="7" stroke-linejoin="round"/>
  <!-- 腹部の分節線 -->
  <path d="M142 245 Q180 252 218 245" fill="none" stroke="#2d263c" stroke-width="4" stroke-linecap="round"/>
  <path d="M144 257 Q180 265 216 257" fill="none" stroke="#2d263c" stroke-width="4" stroke-linecap="round"/>

  <!-- 腰(くびれ) -->
  <path d="M162 200 Q155 215 152 228 Q160 236 180 238 Q200 236 208 228 Q205 215 198 200 Z" fill="#8a1a1a" stroke="#2d263c" stroke-width="7" stroke-linejoin="round"/>

  <!-- 胸部 -->
  <ellipse cx="180" cy="185" rx="52" ry="46" fill="#d93030" stroke="#2d263c" stroke-width="8" stroke-linejoin="round"/>
  <!-- 胸の甲冑ライン -->
  <path d="M155 172 Q180 178 205 172" fill="none" stroke="#2d263c" stroke-width="4" stroke-linecap="round"/>
  <path d="M150 185 Q180 192 210 185" fill="none" stroke="#2d263c" stroke-width="4" stroke-linecap="round"/>

  <!-- 左腕(上腕) -->
  <path d="M132 178 Q100 168 80 158" fill="none" stroke="#c42828" stroke-width="16" stroke-linecap="round"/>
  <!-- 左前腕 -->
  <path d="M80 158 Q62 148 52 138" fill="none" stroke="#b52020" stroke-width="13" stroke-linecap="round"/>

  <!-- 右腕(上腕) -->
  <path d="M228 178 Q260 168 280 158" fill="none" stroke="#c42828" stroke-width="16" stroke-linecap="round"/>
  <!-- 右前腕 -->
  <path d="M280 158 Q298 148 308 138" fill="none" stroke="#b52020" stroke-width="13" stroke-linecap="round"/>

  <!-- 左ハサミ(外側・大) -->
  <path d="M52 138 Q22 115 15 90 Q18 75 34 80 Q42 95 55 115 Z" fill="#c42828" stroke="#2d263c" stroke-width="7" stroke-linejoin="round"/>
  <!-- 左ハサミ(内側・小) -->
  <path d="M52 138 Q30 148 18 158 Q10 170 20 178 Q32 178 45 162 Q50 150 55 138 Z" fill="#b52020" stroke="#2d263c" stroke-width="7" stroke-linejoin="round"/>
  <!-- 左ハサミ 目玉模様(外) -->
  <ellipse cx="38" cy="102" rx="14" ry="14" fill="#f0d020" stroke="#2d263c" stroke-width="4"/>
  <ellipse cx="38" cy="102" rx="7" ry="7" fill="#1a1a2e"/>
  <ellipse cx="35" cy="99" rx="3" ry="3" fill="#ffffff"/>

  <!-- 右ハサミ(外側・大) -->
  <path d="M308 138 Q338 115 345 90 Q342 75 326 80 Q318 95 305 115 Z" fill="#c42828" stroke="#2d263c" stroke-width="7" stroke-linejoin="round"/>
  <!-- 右ハサミ(内側・小) -->
  <path d="M308 138 Q330 148 342 158 Q350 170 340 178 Q328 178 315 162 Q310 150 305 138 Z" fill="#b52020" stroke="#2d263c" stroke-width="7" stroke-linejoin="round"/>
  <!-- 右ハサミ 目玉模様(外) -->
  <ellipse cx="322" cy="102" rx="14" ry="14" fill="#f0d020" stroke="#2d263c" stroke-width="4"/>
  <ellipse cx="322" cy="102" rx="7" ry="7" fill="#1a1a2e"/>
  <ellipse cx="319" cy="99" rx="3" ry="3" fill="#ffffff"/>

  <!-- 首 -->
  <rect x="168" y="130" width="24" height="22" rx="8" fill="#a82020" stroke="#2d263c" stroke-width="6" stroke-linejoin="round"/>

  <!-- 頭部(三日月形) -->
  <!-- 三日月のベース円 -->
  <path d="M148 118 Q145 88 165 70 Q180 58 195 70 Q215 88 212 118 Q200 108 180 106 Q160 108 148 118 Z" fill="#d93030" stroke="#2d263c" stroke-width="7" stroke-linejoin="round"/>
  <!-- 三日月の欠け(内側くぼみ) -->
  <path d="M155 118 Q165 98 180 95 Q195 98 205 118 Q195 112 180 110 Q165 112 155 118 Z" fill="#a82020" stroke="none"/>
  <!-- 頭頂の角・突起 -->
  <path d="M170 68 Q175 48 180 42 Q185 48 190 68" fill="#c42828" stroke="#2d263c" stroke-width="6" stroke-linejoin="round"/>
  <!-- 頭の左突起 -->
  <path d="M150 100 Q135 90 130 80 Q138 82 148 92" fill="#c42828" stroke="#2d263c" stroke-width="5" stroke-linejoin="round"/>
  <!-- 頭の右突起 -->
  <path d="M210 100 Q225 90 230 80 Q222 82 212 92" fill="#c42828" stroke="#2d263c" stroke-width="5" stroke-linejoin="round"/>

  <!-- 顔: 目(白い小さな目) -->
  <ellipse cx="168" cy="100" rx="7" ry="6" fill="#ffffff" stroke="#2d263c" stroke-width="3"/>
  <ellipse cx="192" cy="100" rx="7" ry="6" fill="#ffffff" stroke="#2d263c" stroke-width="3"/>
  <ellipse cx="169" cy="101" rx="3" ry="3" fill="#1a1a2e"/>
  <ellipse cx="193" cy="101" rx="3" ry="3" fill="#1a1a2e"/>
</svg>