<svg xmlns="http://www.w3.org/2000/svg" viewBox="0 0 360 360"><g stroke="#2d263c" stroke-width="7" stroke-linejoin="round" stroke-linecap="round"><path d="M158 150 Q110 192 118 252 Q146 246 162 196 Q168 168 158 150 Z" fill="#dcdce6"/><path d="M205 148 Q252 194 246 248 Q218 240 202 194 Q196 166 205 148 Z" fill="#dcdce6"/><path d="M168 80 L146 30 L162 25 L180 76 Z" fill="#d63b3f"/><path d="M196 78 L214 28 L230 36 L210 82 Z" fill="#d63b3f"/><path d="M152 142 Q118 144 98 160 L108 178 Q130 162 154 162 Z" fill="#d63b3f"/><path d="M212 140 Q246 140 266 154 L258 174 Q236 160 210 160 Z" fill="#d63b3f"/><path d="M104 148 Q66 108 38 134 Q18 160 36 192 Q58 220 100 208 Q88 196 72 190 Q92 184 102 170 Q108 156 104 148 Z" fill="#d63b3f"/><path d="M256 144 Q296 104 324 132 Q342 158 324 190 Q300 218 260 204 Q272 194 288 188 Q268 180 258 166 Q252 152 256 144 Z" fill="#d63b3f"/><circle cx="62" cy="160" r="14" fill="#f6d32d"/><circle cx="62" cy="161" r="6" fill="#2d263c" stroke="none"/><circle cx="297" cy="156" r="13" fill="#f6d32d"/><circle cx="298" cy="156" r="6" fill="#2d263c" stroke="none"/><path d="M170 192 Q150 230 162 266 Q180 282 200 264 Q212 228 196 192 Z" fill="#d63b3f"/><path d="M163 232 Q181 242 199 230" fill="none" stroke-width="5"/><path d="M170 258 L150 316 L168 322 L184 264 Z" fill="#d63b3f"/><path d="M194 260 L212 318 L228 310 L206 256 Z" fill="#d63b3f"/><path d="M148 318 L136 334" fill="none" stroke-width="6"/><path d="M162 320 L160 338" fill="none" stroke-width="6"/><path d="M214 316 L210 336" fill="none" stroke-width="6"/><path d="M226 312 L234 332" fill="none" stroke-width="6"/><path d="M150 128 Q140 168 162 196 Q182 206 202 194 Q222 164 212 126 Q180 112 150 128 Z" fill="#d63b3f"/><path d="M148 92 Q146 60 180 54 Q216 58 214 94 Q212 118 180 122 Q150 116 148 92 Z" fill="#d63b3f"/><ellipse cx="160" cy="90" rx="11" ry="14" fill="#f6d32d"/><ellipse cx="201" cy="88" rx="10" ry="13" fill="#f6d32d"/><circle cx="162" cy="92" r="4" fill="#2d263c" stroke="none"/><circle cx="199" cy="89" r="4" fill="#2d263c" stroke="none"/><path d="M150 70 L168 77" fill="none" stroke-width="5"/><path d="M212 68 L193 76" fill="none" stroke-width="5"/><path d="M172 110 L180 106 L188 111" fill="none" stroke-width="5"/></g></svg>