<svg xmlns="http://www.w3.org/2000/svg" viewBox="0 0 360 360">
  <path d="M230 252 Q295 248 320 282 Q334 302 314 320 L319 300 L299 314 L303 293 L284 303 Q248 298 220 286 Z" fill="#9FBE55" stroke="#2d263c" stroke-width="7" stroke-linejoin="round" stroke-linecap="round"/>
  <path d="M126 175 L92 158 L116 196 L88 192 L112 226 L126 232 Z" fill="#9FBE55" stroke="#2d263c" stroke-width="7" stroke-linejoin="round" stroke-linecap="round"/>
  <path d="M236 172 L268 152 L248 194 L276 192 L250 228 L236 234 Z" fill="#9FBE55" stroke="#2d263c" stroke-width="7" stroke-linejoin="round" stroke-linecap="round"/>
  <path d="M138 280 Q124 312 124 338 L133 329 L139 344 L147 331 L155 343 L163 330 L169 339 Q173 310 165 286 Z" fill="#9FBE55" stroke="#2d263c" stroke-width="7" stroke-linejoin="round" stroke-linecap="round"/>
  <path d="M198 284 Q192 312 192 340 L201 330 L207 345 L215 332 L223 344 L231 330 L237 338 Q240 308 230 284 Z" fill="#9FBE55" stroke="#2d263c" stroke-width="7" stroke-linejoin="round" stroke-linecap="round"/>
  <path d="M142 148 C108 175 102 245 118 290 Q150 308 182 308 Q216 308 244 290 C258 242 252 178 220 148 Q180 132 142 148 Z" fill="#9FBE55" stroke="#2d263c" stroke-width="7" stroke-linejoin="round" stroke-linecap="round"/>
  <path d="M126 192 Q98 204 94 232 L104 226 L102 242 L112 234 L112 250 L124 240 Q134 218 130 196 Z" fill="#9FBE55" stroke="#2d263c" stroke-width="7" stroke-linejoin="round" stroke-linecap="round"/>
  <path d="M236 190 Q262 200 268 230 L258 224 L261 240 L250 232 L250 248 L238 238 Q228 216 232 192 Z" fill="#9FBE55" stroke="#2d263c" stroke-width="7" stroke-linejoin="round" stroke-linecap="round"/>
  <path d="M181 172 L210 206 L181 242 L153 205 Z" fill="#4E5DA8" stroke="#2d263c" stroke-width="6" stroke-linejoin="round"/>
  <path d="M181 252 L198 272 L181 290 L165 271 Z" fill="#4E5DA8" stroke="#2d263c" stroke-width="6" stroke-linejoin="round"/>
  <ellipse cx="141" cy="256" rx="7" ry="9" fill="#2d263c"/>
  <ellipse cx="223" cy="258" rx="7" ry="9" fill="#2d263c"/>
  <path d="M132 132 L116 114 L134 102 L120 80 L144 78 L150 54 L165 66 L181 40 L196 64 L212 50 L218 76 L242 76 L230 98 L248 112 L230 130 L236 142 Q214 162 181 162 Q150 162 138 146 Z" fill="#9FBE55" stroke="#2d263c" stroke-width="7" stroke-linejoin="round" stroke-linecap="round"/>
  <path d="M142 136 L154 147 L167 134 L181 148 L195 134 L208 146 L220 133" fill="none" stroke="#2d263c" stroke-width="6" stroke-linejoin="round" stroke-linecap="round"/>
  <path d="M148 100 L170 96 L166 114 Z" fill="#ffffff" stroke="#2d263c" stroke-width="5" stroke-linejoin="round"/>
  <path d="M214 98 L192 95 L197 112 Z" fill="#ffffff" stroke="#2d263c" stroke-width="5" stroke-linejoin="round"/>
  <circle cx="162" cy="104" r="4" fill="#2d263c"/>
  <circle cx="200" cy="102" r="4" fill="#2d263c"/>
  <path d="M149 91 L171 98" fill="none" stroke="#2d263c" stroke-width="6" stroke-linecap="round"/>
  <path d="M213 89 L192 97" fill="none" stroke="#2d263c" stroke-width="6" stroke-linecap="round"/>
  <circle cx="174" cy="124" r="2.5" fill="#2d263c"/>
  <circle cx="189" cy="123" r="2.5" fill="#2d263c"/>
</svg>