<svg xmlns="http://www.w3.org/2000/svg" viewBox="0 0 360 360">
  <ellipse cx="185" cy="215" rx="58" ry="64" fill="#241f33"/>
  <path d="M235 200 Q290 195 300 245 Q305 275 268 280 Q235 282 228 250 Z" fill="#ffb02e" stroke="#2d263c" stroke-width="7" stroke-linejoin="round"/>
  <ellipse cx="185" cy="215" rx="58" ry="64" fill="#2f2846" stroke="#2d263c" stroke-width="8" stroke-linejoin="round"/>
  <path d="M140 175 Q185 150 232 178 Q210 205 185 200 Q160 205 140 175 Z" fill="#28223a" stroke="#2d263c" stroke-width="7" stroke-linejoin="round"/>
  <ellipse cx="115" cy="285" rx="20" ry="14" fill="#241f33" stroke="#2d263c" stroke-width="6" stroke-linejoin="round"/>
  <ellipse cx="255" cy="285" rx="20" ry="14" fill="#241f33" stroke="#2d263c" stroke-width="6" stroke-linejoin="round"/>
  <ellipse cx="185" cy="300" rx="18" ry="13" fill="#241f33" stroke="#2d263c" stroke-width="6" stroke-linejoin="round"/>
  <path d="M148 200 Q185 218 222 200 Q225 250 185 258 Q145 250 148 200 Z" fill="#ffd23f" stroke="#2d263c" stroke-width="6" stroke-linejoin="round"/>
  <path d="M170 258 Q185 268 200 258 Q198 285 185 288 Q172 285 170 258 Z" fill="#ffd23f" stroke="#2d263c" stroke-width="5" stroke-linejoin="round"/>
  <circle cx="185" cy="130" r="52" fill="#2f2846" stroke="#2d263c" stroke-width="8"/>
  <path d="M138 108 Q160 78 185 100 Q160 92 145 118 Z" fill="#ffd23f" stroke="#2d263c" stroke-width="6" stroke-linejoin="round"/>
  <path d="M232 108 Q210 78 185 100 Q210 92 225 118 Z" fill="#ffd23f" stroke="#2d263c" stroke-width="6" stroke-linejoin="round"/>
  <circle cx="163" cy="132" r="15" fill="#ffffff" stroke="#2d263c" stroke-width="6"/>
  <circle cx="207" cy="132" r="15" fill="#ffffff" stroke="#2d263c" stroke-width="6"/>
  <circle cx="163" cy="134" r="9" fill="#e8342a"/>
  <circle cx="207" cy="134" r="9" fill="#e8342a"/>
  <circle cx="160" cy="131" r="3" fill="#ffffff"/>
  <circle cx="204" cy="131" r="3" fill="#ffffff"/>
  <path d="M172 160 Q185 168 198 160" stroke="#2d263c" stroke-width="6" fill="none" stroke-linecap="round"/>
  <path d="M120 118 Q100 95 108 70" stroke="#2d263c" stroke-width="7" fill="none" stroke-linecap="round"/>
  <path d="M250 118 Q270 95 262 70" stroke="#2d263c" stroke-width="7" fill="none" stroke-linecap="round"/>
  <circle cx="106" cy="66" r="8" fill="#e8342a" stroke="#2d263c" stroke-width="5"/>
  <circle cx="264" cy="66" r="8" fill="#e8342a" stroke="#2d263c" stroke-width="5"/>
</svg>
