<svg xmlns="http://www.w3.org/2000/svg" viewBox="0 0 360 360"><g stroke="#2d263c" stroke-width="7" stroke-linejoin="round" stroke-linecap="round"><path d="M126,268 L121,322 Q121,330 131,330 L146,329 Q154,329 153,321 L150,266 Z" fill="#b03f24"/><path d="M238,270 L234,321 Q234,330 244,330 L259,329 Q266,329 265,320 L262,268 Z" fill="#b03f24"/><path d="M168,275 L165,323 Q165,331 175,331 L190,330 Q197,330 196,322 L193,276 Z" fill="#c84b2d"/><path d="M276,272 L274,318 Q274,327 284,327 L297,326 Q304,326 303,318 L300,268 Z" fill="#c84b2d"/><circle cx="176" cy="58" r="13" fill="#dcdee6"/><circle cx="196" cy="70" r="8" fill="#dcdee6"/><circle cx="258" cy="72" r="10" fill="#dcdee6"/><path d="M140,168 C146,140 152,112 160,100 L198,103 C206,118 212,146 216,166 Z" fill="#9298ab"/><path d="M222,172 C228,148 233,124 240,110 L272,113 C279,128 285,152 290,172 Z" fill="#9298ab"/><ellipse cx="179" cy="101" rx="22" ry="8" fill="#6b7085"/><ellipse cx="256" cy="111" rx="19" ry="7" fill="#6b7085"/><path d="M305,228 Q325,232 320,250 Q310,260 302,250 Z" fill="#c84b2d"/><path d="M98,212 C90,172 132,152 182,149 C247,145 301,166 307,216 C312,260 281,290 231,295 C176,301 148,296 122,288 C97,280 103,248 98,212 Z" fill="#c84b2d"/><circle cx="196" cy="228" r="16" fill="none" stroke="#3f63c8" stroke-width="8"/><circle cx="248" cy="240" r="12" fill="none" stroke="#3f63c8" stroke-width="8"/><circle cx="287" cy="214" r="9" fill="none" stroke="#3f63c8" stroke-width="8"/><path d="M52,144 Q40,128 52,120 Q66,118 66,134 Z" fill="#b03f24"/><path d="M136,140 Q146,122 134,115 Q120,113 122,130 Z" fill="#b03f24"/><path d="M96,128 Q92,112 104,116 Q106,104 116,112 Q126,106 126,120 Z" fill="#b03f24"/><path d="M56,166 C52,136 80,120 106,125 C133,131 143,156 139,183 C136,211 112,226 87,222 C61,218 60,194 56,166 Z" fill="#c84b2d"/><path d="M66,160 Q77,154 88,161" fill="none" stroke-width="5"/><path d="M103,158 Q113,152 123,159" fill="none" stroke-width="5"/><ellipse cx="78" cy="169" rx="6" ry="5" fill="#2d263c" stroke="none"/><ellipse cx="113" cy="167" rx="5" ry="5" fill="#2d263c" stroke="none"/><path d="M83,191 L83,196" fill="none" stroke-width="5"/><path d="M101,190 L101,195" fill="none" stroke-width="5"/><path d="M68,202 Q92,214 120,199" fill="none"/><path d="M130,288 Q140,278 150,288" fill="none" stroke-width="5"/><path d="M210,294 Q220,284 230,293" fill="none" stroke-width="5"/></g></svg>