<svg xmlns="http://www.w3.org/2000/svg" viewBox="0 0 360 360">
  <ellipse cx="95" cy="280" rx="20" ry="11" fill="#332b45" stroke="#2d263c" stroke-width="6" stroke-linejoin="round"/>
  <ellipse cx="88" cy="300" rx="18" ry="10" fill="#332b45" stroke="#2d263c" stroke-width="6" stroke-linejoin="round"/>
  <ellipse cx="100" cy="318" rx="16" ry="9" fill="#332b45" stroke="#2d263c" stroke-width="6" stroke-linejoin="round"/>
  <ellipse cx="265" cy="280" rx="20" ry="11" fill="#332b45" stroke="#2d263c" stroke-width="6" stroke-linejoin="round"/>
  <ellipse cx="272" cy="300" rx="18" ry="10" fill="#332b45" stroke="#2d263c" stroke-width="6" stroke-linejoin="round"/>
  <ellipse cx="260" cy="318" rx="16" ry="9" fill="#332b45" stroke="#2d263c" stroke-width="6" stroke-linejoin="round"/>
  <ellipse cx="180" cy="215" rx="105" ry="95" fill="#332b45" stroke="#2d263c" stroke-width="8" stroke-linejoin="round"/>
  <ellipse cx="180" cy="252" rx="55" ry="42" fill="#7c8fc0"/>
  <circle cx="140" cy="250" r="6" fill="#f5c518"/>
  <circle cx="220" cy="255" r="6" fill="#f5c518"/>
  <circle cx="160" cy="282" r="5" fill="#f5c518"/>
  <circle cx="205" cy="284" r="5" fill="#f5c518"/>
  <path d="M150 148 C125 110 90 80 95 35 C120 70 145 95 168 140 Z" fill="#f5c518" stroke="#2d263c" stroke-width="7" stroke-linejoin="round"/>
  <path d="M140 140 C122 110 105 85 108 55 C122 80 135 105 150 135 Z" fill="#d99e0a"/>
  <path d="M210 148 C235 110 270 80 265 35 C240 70 215 95 192 140 Z" fill="#f5c518" stroke="#2d263c" stroke-width="7" stroke-linejoin="round"/>
  <path d="M220 140 C238 110 255 85 252 55 C238 80 225 105 210 135 Z" fill="#d99e0a"/>
  <path d="M118 168 Q140 156 158 168" stroke="#2d263c" stroke-width="6" fill="none" stroke-linecap="round"/>
  <path d="M202 168 Q220 156 242 168" stroke="#2d263c" stroke-width="6" fill="none" stroke-linecap="round"/>
  <circle cx="140" cy="196" r="26" fill="#ffe066" stroke="#2d263c" stroke-width="6"/>
  <circle cx="220" cy="196" r="26" fill="#ffe066" stroke="#2d263c" stroke-width="6"/>
  <ellipse cx="140" cy="201" rx="9" ry="13" fill="#2d263c"/>
  <ellipse cx="220" cy="201" rx="9" ry="13" fill="#2d263c"/>
  <circle cx="133" cy="190" r="5" fill="#ffffff"/>
  <circle cx="213" cy="190" r="5" fill="#ffffff"/>
  <path d="M165 232 Q180 242 195 232" stroke="#2d263c" stroke-width="7" fill="none" stroke-linecap="round"/>
</svg>
