<svg xmlns="http://www.w3.org/2000/svg" viewBox="0 0 360 360">
  <!-- ===== しっぽ (後ろ) ===== -->
  <path d="M290 175 Q310 185 318 205 Q324 225 316 248 Q308 268 298 278 Q290 265 292 245 Q294 222 288 200 Z" fill="#c8a96e" stroke="#2d263c" stroke-width="7" stroke-linejoin="round" stroke-linecap="round"/>
  <path d="M285 178 Q306 190 312 212 Q318 233 308 258 Q300 272 292 278 Q286 262 290 242 Q294 218 284 196 Z" fill="#d4b87a" stroke="none"/>

  <!-- ===== 胴体メイン ===== -->
  <ellipse cx="190" cy="195" rx="112" ry="72" fill="#7a4a2a" stroke="#2d263c" stroke-width="8" stroke-linejoin="round"/>

  <!-- ===== 胴体上面(背中の丸み) ===== -->
  <path d="M88 175 Q100 148 135 138 Q165 130 200 132 Q240 132 268 140 Q292 148 300 165 Q300 175 290 175 Q265 162 230 158 Q195 155 160 158 Q125 162 96 175 Z" fill="#8b5233" stroke="#2d263c" stroke-width="7" stroke-linejoin="round"/>

  <!-- ===== 後ろ脚 奥 (左後) ===== -->
  <rect x="247" y="245" width="28" height="68" rx="8" fill="#6a3a1e" stroke="#2d263c" stroke-width="7" stroke-linejoin="round"/>
  <!-- 泥はね クリーム -->
  <ellipse cx="261" cy="303" rx="20" ry="12" fill="#d4c89a" stroke="#2d263c" stroke-width="5" stroke-linejoin="round"/>
  <ellipse cx="261" cy="310" rx="16" ry="8" fill="#e2d8b0" stroke="none"/>

  <!-- ===== 前脚 奥 (左前) ===== -->
  <rect x="112" y="248" width="28" height="65" rx="8" fill="#6a3a1e" stroke="#2d263c" stroke-width="7" stroke-linejoin="round"/>
  <!-- 泥はね クリーム -->
  <ellipse cx="126" cy="303" rx="20" ry="12" fill="#d4c89a" stroke="#2d263c" stroke-width="5" stroke-linejoin="round"/>
  <ellipse cx="126" cy="310" rx="16" ry="8" fill="#e2d8b0" stroke="none"/>

  <!-- ===== 後ろ脚 手前 (右後) ===== -->
  <path d="M268 242 Q278 248 280 262 Q282 280 280 312 Q274 318 266 318 Q258 318 254 312 Q252 280 255 262 Q258 248 268 242 Z" fill="#7a4520" stroke="#2d263c" stroke-width="7" stroke-linejoin="round"/>
  <!-- 泥はね クリーム -->
  <ellipse cx="267" cy="308" rx="22" ry="13" fill="#d4c89a" stroke="#2d263c" stroke-width="5" stroke-linejoin="round"/>
  <ellipse cx="267" cy="316" rx="18" ry="9" fill="#e2d8b0" stroke="none"/>
  <!-- ひづめ -->
  <ellipse cx="267" cy="320" rx="14" ry="6" fill="#4a3020" stroke="#2d263c" stroke-width="4"/>

  <!-- ===== 前脚 手前 (右前) ===== -->
  <path d="M132 245 Q143 252 145 266 Q147 284 145 314 Q139 320 131 320 Q123 320 120 314 Q118 284 120 266 Q123 252 132 245 Z" fill="#7a4520" stroke="#2d263c" stroke-width="7" stroke-linejoin="round"/>
  <!-- 泥はね クリーム -->
  <ellipse cx="132" cy="308" rx="22" ry="13" fill="#d4c89a" stroke="#2d263c" stroke-width="5" stroke-linejoin="round"/>
  <ellipse cx="132" cy="316" rx="18" ry="9" fill="#e2d8b0" stroke="none"/>
  <!-- ひづめ -->
  <ellipse cx="132" cy="320" rx="14" ry="6" fill="#4a3020" stroke="#2d263c" stroke-width="4"/>

  <!-- ===== 首 ===== -->
  <path d="M96 175 Q82 165 72 148 Q66 132 70 118 Q74 108 84 108 Q94 108 100 118 Q108 132 108 150 Q108 162 100 172 Z" fill="#8b5233" stroke="#2d263c" stroke-width="8" stroke-linejoin="round"/>

  <!-- ===== 頭 ===== -->
  <!-- 頭の基本形(長い馬面) -->
  <path d="M84 105 Q80 90 76 70 Q72 52 68 36 Q64 22 66 16 Q70 10 78 12 Q86 14 90 24 Q94 36 96 52 Q100 70 102 88 Q104 104 100 112 Q94 116 84 112 Z" fill="#8b5233" stroke="#2d263c" stroke-width="8" stroke-linejoin="round"/>

  <!-- 鼻面(少し突き出る) -->
  <path d="M68 36 Q58 38 52 48 Q48 58 52 68 Q56 76 66 76 Q76 76 80 66 Q84 56 78 46 Z" fill="#8b5233" stroke="#2d263c" stroke-width="7" stroke-linejoin="round"/>

  <!-- 顔のクリーム色縦模様 -->
  <path d="M78 14 Q76 28 72 48 Q68 64 68 72 Q70 76 74 75 Q80 68 82 52 Q86 34 84 14 Z" fill="#d4c89a" stroke="none"/>

  <!-- 鼻孔 -->
  <ellipse cx="56" cy="58" rx="5" ry="3" fill="#5a2e10" stroke="#2d263c" stroke-width="3"/>
  <ellipse cx="60" cy="62" rx="4" ry="2.5" fill="#5a2e10" stroke="none"/>

  <!-- 口 -->
  <path d="M54 70 Q58 74 64 72" fill="none" stroke="#2d263c" stroke-width="4" stroke-linecap="round"/>

  <!-- 目 -->
  <ellipse cx="88" cy="52" rx="7" ry="6" fill="#1a1218" stroke="#2d263c" stroke-width="4"/>
  <ellipse cx="90" cy="50" rx="2.5" ry="2" fill="white"/>

  <!-- まつ毛/まぶた -->
  <path d="M82 48 Q86 44 92 46" fill="none" stroke="#2d263c" stroke-width="4" stroke-linecap="round"/>

  <!-- 耳 -->
  <path d="M90 18 Q94 8 100 6 Q106 8 104 18 Q100 24 92 22 Z" fill="#8b5233" stroke="#2d263c" stroke-width="6" stroke-linejoin="round"/>
  <path d="M92 18 Q96 10 100 8 Q103 12 100 18 Z" fill="#c48060" stroke="none"/>

  <!-- ===== たてがみ(前髪〜首・ぼってり) ===== -->
  <!-- 首のたてがみ -->
  <path d="M100 118 Q112 125 115 140 Q115 155 108 165 Q102 170 96 168 Q88 162 90 148 Q92 132 96 120 Z" fill="#c8a96e" stroke="#2d263c" stroke-width="6" stroke-linejoin="round"/>
  <path d="M104 122 Q116 132 118 148 Q118 162 110 170 Q115 158 114 144 Q112 130 104 120 Z" fill="#d4b87a" stroke="none"/>

  <!-- 額の前髪ぼってり -->
  <path d="M84 105 Q78 100 72 92 Q66 82 68 72 Q72 65 78 68 Q84 74 86 84 Q90 94 88 106 Z" fill="#c8a96e" stroke="#2d263c" stroke-width="6" stroke-linejoin="round"/>
  <!-- 前髪の垂れ毛1 -->
  <path d="M70 72 Q62 80 60 90 Q60 98 66 100 Q72 98 74 90 Q74 82 72 74 Z" fill="#c8a96e" stroke="#2d263c" stroke-width="5" stroke-linejoin="round"/>
  <!-- 前髪の垂れ毛2 -->
  <path d="M74 68 Q68 78 68 90 Q70 98 76 96 Q80 90 78 80 Q76 72 74 66 Z" fill="#b8986a" stroke="none"/>

  <!-- ===== 胴体の輪郭再強調 ===== -->
  <path d="M88 175 Q90 240 92 262 Q94 268 100 270" fill="none" stroke="#2d263c" stroke-width="7" stroke-linecap="round"/>
  <path d="M290 175 Q292 240 288 262 Q285 268 278 270" fill="none" stroke="#2d263c" stroke-width="7" stroke-linecap="round"/>

  <!-- ===== 腹部の影(グラデ代わりのフラット暗色) ===== -->
  <ellipse cx="190" cy="240" rx="90" ry="24" fill="#5a3018" stroke="none" opacity="0.35"/>

  <!-- ===== 後ろ脚付け根(お尻の丸み) ===== -->
  <path d="M278 175 Q300 178 306 195 Q310 212 298 225 Q286 238 270 240 Q276 225 278 205 Q280 190 276 178 Z" fill="#7a4a2a" stroke="#2d263c" stroke-width="7" stroke-linejoin="round"/>

  <!-- ===== ひづめ 奥2本 ===== -->
  <ellipse cx="261" cy="316" rx="13" ry="5.5" fill="#4a3020" stroke="#2d263c" stroke-width="4"/>
  <ellipse cx="126" cy="316" rx="13" ry="5.5" fill="#4a3020" stroke="#2d263c" stroke-width="4"/>
</svg>