<svg xmlns="http://www.w3.org/2000/svg" viewBox="0 0 360 360">
  <!-- しっぽ (後ろ) -->
  <path d="M 225 265 Q 300 240 315 195 Q 330 155 295 140 Q 275 132 265 150 Q 255 165 270 175 Q 285 185 278 205 Q 268 230 240 248" fill="#e86d1a" stroke="#2d263c" stroke-width="7" stroke-linejoin="round" stroke-linecap="round"/>
  <!-- しっぽ先端の炎 -->
  <path d="M 295 138 Q 285 118 298 100 Q 305 88 295 78 Q 288 92 280 88 Q 288 72 280 60 Q 272 74 262 70 Q 270 85 258 92 Q 248 98 252 115 Q 255 128 265 135 Q 275 142 285 138 Z" fill="#f0a000" stroke="#2d263c" stroke-width="6" stroke-linejoin="round" stroke-linecap="round"/>
  <path d="M 284 100 Q 290 86 284 74 Q 278 86 270 82 Q 278 98 276 112 Q 282 106 284 100 Z" fill="#ffcc00" stroke="none"/>

  <!-- 後ろ足 左 -->
  <path d="M 148 285 Q 138 305 132 318 Q 145 322 158 318 Q 162 306 165 290" fill="#e86d1a" stroke="#2d263c" stroke-width="7" stroke-linejoin="round" stroke-linecap="round"/>
  <!-- 後ろ足 右 -->
  <path d="M 205 288 Q 208 308 212 322 Q 225 326 236 318 Q 228 304 222 286" fill="#e86d1a" stroke="#2d263c" stroke-width="7" stroke-linejoin="round" stroke-linecap="round"/>

  <!-- 胴体 -->
  <path d="M 138 200 Q 128 228 130 258 Q 132 278 155 292 Q 178 302 205 290 Q 228 278 232 255 Q 236 228 228 200 Q 218 175 182 170 Q 150 168 138 200 Z" fill="#e86d1a" stroke="#2d263c" stroke-width="8" stroke-linejoin="round"/>

  <!-- お腹 -->
  <ellipse cx="183" cy="248" rx="36" ry="44" fill="#f5dfa0" stroke="#2d263c" stroke-width="5"/>

  <!-- 前足 左 -->
  <path d="M 143 230 Q 122 245 118 268 Q 118 280 132 282 Q 144 283 150 270 Q 155 255 155 238" fill="#e86d1a" stroke="#2d263c" stroke-width="7" stroke-linejoin="round" stroke-linecap="round"/>
  <!-- 前足 右 -->
  <path d="M 222 232 Q 242 248 244 270 Q 242 282 230 282 Q 218 282 215 268 Q 212 252 210 238" fill="#e86d1a" stroke="#2d263c" stroke-width="7" stroke-linejoin="round" stroke-linecap="round"/>

  <!-- 首の縞模様 -->
  <path d="M 152 198 Q 182 190 215 198" fill="none" stroke="#c04800" stroke-width="4" stroke-linecap="round"/>
  <path d="M 155 208 Q 182 200 212 208" fill="none" stroke="#c04800" stroke-width="3.5" stroke-linecap="round"/>

  <!-- 頭 -->
  <ellipse cx="182" cy="148" rx="72" ry="66" fill="#e86d1a" stroke="#2d263c" stroke-width="8"/>

  <!-- 耳 左 (少しゆがんだ三角) -->
  <path d="M 120 115 Q 108 72 130 60 Q 148 55 152 90 Q 148 108 138 118 Z" fill="#e86d1a" stroke="#2d263c" stroke-width="7" stroke-linejoin="round"/>
  <path d="M 124 108 Q 116 80 132 68 Q 144 64 146 90 Z" fill="#f0a0a0" stroke="none"/>

  <!-- 耳 右 (少しゆがんだ三角) -->
  <path d="M 238 112 Q 250 68 234 57 Q 216 52 210 88 Q 213 106 224 116 Z" fill="#e86d1a" stroke="#2d263c" stroke-width="7" stroke-linejoin="round"/>
  <path d="M 234 104 Q 242 78 230 66 Q 218 62 216 88 Z" fill="#f0a0a0" stroke="none"/>

  <!-- 額のひし形マーク (炎っぽく) -->
  <path d="M 182 98 Q 192 112 183 124 Q 175 112 182 98 Z" fill="#e03030" stroke="#2d263c" stroke-width="4" stroke-linejoin="round"/>
  <path d="M 182 105 Q 188 115 183 122 Q 178 115 182 105 Z" fill="#ff6666" stroke="none"/>

  <!-- 目 左 (つり目) -->
  <path d="M 148 148 Q 158 138 168 145 Q 162 155 150 154 Z" fill="#1a1a2e" stroke="#2d263c" stroke-width="3" stroke-linejoin="round"/>
  <circle cx="156" cy="148" r="3.5" fill="#1a1a2e"/>
  <circle cx="158" cy="146" r="1.5" fill="white"/>
  <!-- つり目の線 -->
  <path d="M 145 146 Q 158 136 172 143" fill="none" stroke="#2d263c" stroke-width="4" stroke-linecap="round"/>

  <!-- 目 右 (つり目、少し細め) -->
  <path d="M 195 148 Q 205 138 216 144 Q 211 155 198 154 Z" fill="#1a1a2e" stroke="#2d263c" stroke-width="3" stroke-linejoin="round"/>
  <circle cx="205" cy="148" r="3.5" fill="#1a1a2e"/>
  <circle cx="207" cy="146" r="1.5" fill="white"/>
  <!-- つり目の線 -->
  <path d="M 193 146 Q 206 135 220 142" fill="none" stroke="#2d263c" stroke-width="4" stroke-linecap="round"/>

  <!-- 鼻 -->
  <ellipse cx="182" cy="163" rx="7" ry="5" fill="#c04848" stroke="#2d263c" stroke-width="3"/>

  <!-- 口 (ニヤッと) -->
  <path d="M 170 172 Q 182 183 195 172" fill="none" stroke="#2d263c" stroke-width="5" stroke-linecap="round"/>
  <path d="M 170 172 Q 165 168 168 164" fill="none" stroke="#2d263c" stroke-width="4" stroke-linecap="round"/>
  <path d="M 195 172 Q 200 168 197 164" fill="none" stroke="#2d263c" stroke-width="4" stroke-linecap="round"/>

  <!-- ほっぺ 左 (赤い縞 2本) -->
  <ellipse cx="138" cy="168" rx="18" ry="12" fill="#f5a0a0" stroke="none" opacity="0.7"/>
  <path d="M 128 164 Q 136 162 144 165" fill="none" stroke="#e03030" stroke-width="3" stroke-linecap="round"/>
  <path d="M 126 170 Q 135 168 144 171" fill="none" stroke="#e03030" stroke-width="3" stroke-linecap="round"/>

  <!-- ほっぺ 右 (赤い縞 2本) -->
  <ellipse cx="226" cy="168" rx="18" ry="12" fill="#f5a0a0" stroke="none" opacity="0.7"/>
  <path d="M 218 164 Q 226 162 234 165" fill="none" stroke="#e03030" stroke-width="3" stroke-linecap="round"/>
  <path d="M 218 170 Q 226 168 235 171" fill="none" stroke="#e03030" stroke-width="3" stroke-linecap="round"/>
</svg>