<svg xmlns="http://www.w3.org/2000/svg" viewBox="0 0 360 360">
  <!-- 尻尾の炎(後ろレイヤー) -->
  <ellipse cx="290" cy="255" rx="28" ry="38" fill="#c77dff" stroke="#2d263c" stroke-width="6" stroke-linejoin="round"/>
  <ellipse cx="305" cy="235" rx="18" ry="30" fill="#e0aaff" stroke="#2d263c" stroke-width="5" stroke-linejoin="round"/>
  <ellipse cx="282" cy="222" rx="13" ry="22" fill="#f0d9ff" stroke="#2d263c" stroke-width="5" stroke-linejoin="round"/>

  <!-- 尻尾本体 -->
  <path d="M235 270 Q265 260 285 250 Q300 245 298 265 Q290 285 270 285 Q248 288 235 270Z" fill="#e8e0c8" stroke="#2d263c" stroke-width="7" stroke-linejoin="round" stroke-linecap="round"/>

  <!-- 体 -->
  <ellipse cx="178" cy="230" rx="88" ry="78" fill="#e8e0c8" stroke="#2d263c" stroke-width="8" stroke-linejoin="round"/>

  <!-- お腹(クリーム色) -->
  <ellipse cx="172" cy="245" rx="52" ry="48" fill="#f5f0e0" stroke="#2d263c" stroke-width="5" stroke-linejoin="round"/>

  <!-- 後ろ足(左) -->
  <path d="M130 285 Q118 298 115 315 Q120 320 135 318 Q148 315 148 300 Q146 288 130 285Z" fill="#e8e0c8" stroke="#2d263c" stroke-width="7" stroke-linejoin="round"/>
  <!-- 後ろ足(右) -->
  <path d="M215 282 Q228 296 232 313 Q226 320 212 318 Q200 314 198 300 Q198 287 215 282Z" fill="#e8e0c8" stroke="#2d263c" stroke-width="7" stroke-linejoin="round"/>

  <!-- 前足(左) -->
  <path d="M110 235 Q88 248 82 265 Q88 272 100 270 Q114 266 118 252 Q118 240 110 235Z" fill="#e8e0c8" stroke="#2d263c" stroke-width="7" stroke-linejoin="round"/>
  <!-- 前足(右) -->
  <path d="M240 232 Q262 244 268 262 Q262 270 250 268 Q237 263 233 249 Q232 237 240 232Z" fill="#e8e0c8" stroke="#2d263c" stroke-width="7" stroke-linejoin="round"/>

  <!-- 首まわりの炎たてがみ(紫) -->
  <path d="M108 175 Q88 150 92 125 Q102 110 118 130 Q115 108 128 100 Q142 95 145 122 Q148 100 162 96 Q176 94 172 120 Q180 98 194 100 Q208 105 202 128 Q215 112 228 120 Q238 135 225 158 Q240 148 248 162 Q252 182 235 190 Q238 210 220 215" fill="#9b5de5" stroke="#2d263c" stroke-width="6" stroke-linejoin="round" stroke-linecap="round"/>
  <path d="M108 175 Q98 190 100 210 Q108 222 120 218" fill="#9b5de5" stroke="#2d263c" stroke-width="5" stroke-linejoin="round" stroke-linecap="round"/>

  <!-- 首まわりの炎(内側・明るい紫) -->
  <path d="M118 178 Q105 162 108 142 Q116 128 128 142 Q126 126 136 122 Q148 120 148 138 Q154 124 166 122 Q178 122 175 140 Q182 126 192 128 Q202 132 198 148 Q208 136 218 144 Q224 158 215 172 Q222 166 228 176 Q228 192 218 196" fill="#c77dff" stroke="#2d263c" stroke-width="5" stroke-linejoin="round" stroke-linecap="round"/>

  <!-- 頭 -->
  <ellipse cx="172" cy="152" rx="62" ry="56" fill="#e8e0c8" stroke="#2d263c" stroke-width="8" stroke-linejoin="round"/>

  <!-- 耳(左) -->
  <path d="M125 120 Q112 90 122 72 Q134 60 148 80 Q150 100 140 118Z" fill="#e8e0c8" stroke="#2d263c" stroke-width="7" stroke-linejoin="round"/>
  <path d="M130 112 Q122 92 128 78 Q136 70 144 82 Q144 96 136 112Z" fill="#c9b8e8" stroke="none"/>

  <!-- 耳(右) -->
  <path d="M200 118 Q210 88 222 72 Q234 62 238 82 Q236 100 220 118Z" fill="#e8e0c8" stroke="#2d263c" stroke-width="7" stroke-linejoin="round"/>
  <path d="M204 112 Q212 90 220 78 Q228 72 230 84 Q228 96 216 112Z" fill="#c9b8e8" stroke="none"/>

  <!-- 目(左) うつろ・細め -->
  <ellipse cx="148" cy="155" rx="14" ry="10" fill="white" stroke="#2d263c" stroke-width="5"/>
  <ellipse cx="150" cy="157" rx="8" ry="7" fill="#3d2b6b"/>
  <ellipse cx="152" cy="155" rx="4" ry="3" fill="#1a0f3c"/>
  <path d="M134 150 Q148 147 162 150" fill="none" stroke="#2d263c" stroke-width="5" stroke-linecap="round"/>

  <!-- 目(右) うつろ・細め -->
  <ellipse cx="196" cy="154" rx="14" ry="10" fill="white" stroke="#2d263c" stroke-width="5"/>
  <ellipse cx="198" cy="156" rx="8" ry="7" fill="#3d2b6b"/>
  <ellipse cx="200" cy="154" rx="4" ry="3" fill="#1a0f3c"/>
  <path d="M182 149 Q196 146 210 149" fill="none" stroke="#2d263c" stroke-width="5" stroke-linecap="round"/>

  <!-- 鼻 -->
  <ellipse cx="172" cy="172" rx="10" ry="7" fill="#b8a0d0" stroke="#2d263c" stroke-width="4"/>
  <ellipse cx="168" cy="171" rx="3" ry="2" fill="#2d263c"/>
  <ellipse cx="176" cy="171" rx="3" ry="2" fill="#2d263c"/>

  <!-- 口(むっつり) -->
  <path d="M158 184 Q172 180 186 184" fill="none" stroke="#2d263c" stroke-width="5" stroke-linecap="round"/>

  <!-- ほっぺ(うっすら紫) -->
  <ellipse cx="130" cy="170" rx="14" ry="10" fill="#d4a8f0" opacity="0.6"/>
  <ellipse cx="214" cy="169" rx="14" ry="10" fill="#d4a8f0" opacity="0.6"/>

  <!-- 頭頂の炎つまみ -->
  <path d="M158 100 Q152 78 160 62 Q168 50 175 65 Q180 50 188 58 Q196 70 188 90" fill="#9b5de5" stroke="#2d263c" stroke-width="5" stroke-linejoin="round" stroke-linecap="round"/>
  <path d="M162 96 Q158 80 164 68 Q170 58 175 68 Q180 58 184 68 Q186 80 184 94" fill="#c77dff" stroke="none"/>
</svg>