<svg xmlns="http://www.w3.org/2000/svg" viewBox="0 0 360 360">
  <path d="M70 215 Q48 218 50 245 Q52 268 75 270 Q92 268 88 240 Q85 222 70 215 Z" fill="#8ed4f0" stroke="#2d263c" stroke-width="7" stroke-linejoin="round" stroke-linecap="round"/>
  <path d="M290 215 Q312 218 310 245 Q308 268 285 270 Q268 268 272 240 Q275 222 290 215 Z" fill="#8ed4f0" stroke="#2d263c" stroke-width="7" stroke-linejoin="round" stroke-linecap="round"/>
  <ellipse cx="140" cy="330" rx="20" ry="11" fill="#8ed4f0" stroke="#2d263c" stroke-width="7"/>
  <ellipse cx="220" cy="330" rx="20" ry="11" fill="#8ed4f0" stroke="#2d263c" stroke-width="7"/>
  <path d="M75 325
           Q55 260 65 200
           Q72 160 90 130
           Q105 100 130 90
           Q148 82 158 105
           Q165 122 180 128
           Q195 122 202 105
           Q212 82 230 90
           Q255 100 270 130
           Q288 160 295 200
           Q305 260 285 325
           Q250 342 180 342
           Q110 342 75 325 Z"
        fill="#fdf6ec" stroke="#2d263c" stroke-width="8" stroke-linejoin="round" stroke-linecap="round"/>
  <path d="M85 205 Q140 190 195 205 Q245 218 275 210" fill="none" stroke="#8ed4f0" stroke-width="6" stroke-linecap="round"/>
  <path d="M82 250 Q140 235 195 252 Q245 265 278 255" fill="none" stroke="#8ed4f0" stroke-width="6" stroke-linecap="round"/>
  <path d="M85 295 Q140 282 195 297 Q245 308 278 300" fill="none" stroke="#8ed4f0" stroke-width="6" stroke-linecap="round"/>
  <path d="M106 152 Q122 140 138 152" fill="none" stroke="#2d263c" stroke-width="7" stroke-linecap="round"/>
  <path d="M220 152 Q236 140 252 152" fill="none" stroke="#2d263c" stroke-width="7" stroke-linecap="round"/>
  <ellipse cx="122" cy="174" rx="15" ry="9" fill="#f7a8c4"/>
  <ellipse cx="236" cy="174" rx="15" ry="9" fill="#f7a8c4"/>
  <path d="M114 190 Q122 197 130 190" fill="none" stroke="#2d263c" stroke-width="6" stroke-linecap="round"/>
  <path d="M228 190 Q236 197 244 190" fill="none" stroke="#2d263c" stroke-width="6" stroke-linecap="round"/>
</svg>
