<svg xmlns="http://www.w3.org/2000/svg" viewBox="0 0 360 360">
<path d="M210 240 Q280 225 278 165 Q275 135 248 145" stroke="#2d263c" stroke-width="8" fill="none" stroke-linecap="round"/>
<path d="M165 245 L155 307" stroke="#2d263c" stroke-width="9" stroke-linecap="round"/>
<path d="M195 245 L205 307" stroke="#2d263c" stroke-width="9" stroke-linecap="round"/>
<ellipse cx="155" cy="309" rx="15" ry="9" fill="#e08838" stroke="#2d263c" stroke-width="6"/>
<ellipse cx="205" cy="309" rx="15" ry="9" fill="#e08838" stroke="#2d263c" stroke-width="6"/>
<path d="M142 160 Q138 250 180 255 Q222 250 218 160 Z" fill="#5fa83a" stroke="#2d263c" stroke-width="8" stroke-linejoin="round"/>
<ellipse cx="180" cy="205" rx="22" ry="34" fill="#cfe8a6" stroke="#2d263c" stroke-width="6"/>
<path d="M145 170 L110 205" stroke="#2d263c" stroke-width="8" stroke-linecap="round"/>
<path d="M215 170 L250 205" stroke="#2d263c" stroke-width="8" stroke-linecap="round"/>
<path d="M99 150 h 2 a 5 5 0 0 1 5 5 v 60 a 5 5 0 0 1 -5 5 h -2 a 5 5 0 0 1 -5 -5 v -60 a 5 5 0 0 1 5 -5 z" fill="#e08838" stroke="#2d263c" stroke-width="6" transform="rotate(-15 101 185)"/>
<path d="M259 150 h 2 a 5 5 0 0 1 5 5 v 60 a 5 5 0 0 1 -5 5 h -2 a 5 5 0 0 1 -5 -5 v -60 a 5 5 0 0 1 5 -5 z" fill="#e08838" stroke="#2d263c" stroke-width="6" transform="rotate(15 259 185)"/>
<circle cx="180" cy="110" r="52" fill="#5fa83a" stroke="#2d263c" stroke-width="8"/>
<path d="M132 95 Q180 60 228 95 Q230 110 180 100 Q130 110 132 95 Z" fill="#3d7a26" stroke="#2d263c" stroke-width="6" stroke-linejoin="round"/>
<ellipse cx="180" cy="122" rx="36" ry="32" fill="#cfe8a6" stroke="#2d263c" stroke-width="6"/>
<circle cx="132" cy="98" r="14" fill="#5fa83a" stroke="#2d263c" stroke-width="6"/>
<circle cx="228" cy="98" r="14" fill="#5fa83a" stroke="#2d263c" stroke-width="6"/>
<ellipse cx="164" cy="115" rx="10" ry="12" fill="#fff" stroke="#2d263c" stroke-width="6"/>
<ellipse cx="196" cy="115" rx="10" ry="12" fill="#fff" stroke="#2d263c" stroke-width="6"/>
<circle cx="166" cy="118" r="5" fill="#2d263c"/>
<circle cx="198" cy="118" r="5" fill="#2d263c"/>
<path d="M170 142 Q180 148 190 142" stroke="#2d263c" stroke-width="6" fill="none" stroke-linecap="round"/>
</svg>