<svg xmlns="http://www.w3.org/2000/svg" viewBox="0 0 360 360">
  <!-- 尻尾 -->
  <path d="M295 230 Q330 210 325 185 Q318 165 300 172 Q285 178 290 200 Q292 215 285 228 Z" fill="#c85a1a" stroke="#2d263c" stroke-width="7" stroke-linejoin="round" stroke-linecap="round"/>
  <!-- 尻尾のしま -->
  <path d="M305 195 Q318 190 312 200 Q306 205 302 200" fill="none" stroke="#4a7aad" stroke-width="4" stroke-linecap="round"/>

  <!-- 後ろ足 左 -->
  <ellipse cx="105" cy="285" rx="30" ry="22" fill="#c85a1a" stroke="#2d263c" stroke-width="7"/>
  <ellipse cx="105" cy="302" rx="26" ry="13" fill="#8b3a10" stroke="#2d263c" stroke-width="6"/>
  <!-- 後ろ足 右 -->
  <ellipse cx="255" cy="285" rx="28" ry="22" fill="#c85a1a" stroke="#2d263c" stroke-width="7"/>
  <ellipse cx="255" cy="302" rx="24" ry="13" fill="#8b3a10" stroke="#2d263c" stroke-width="6"/>

  <!-- 体 メイン -->
  <ellipse cx="180" cy="250" rx="135" ry="90" fill="#d96420" stroke="#2d263c" stroke-width="8" stroke-linejoin="round"/>

  <!-- 腹 クリーム色 -->
  <ellipse cx="180" cy="268" rx="80" ry="55" fill="#f5d9a0" stroke="#2d263c" stroke-width="5"/>

  <!-- 体のしま模様 -->
  <path d="M115 215 Q125 200 145 210 Q130 230 118 235 Z" fill="#4a7aad" stroke="#2d263c" stroke-width="3"/>
  <path d="M148 200 Q160 186 175 195 Q165 215 150 220 Z" fill="#4a7aad" stroke="#2d263c" stroke-width="3"/>
  <path d="M200 195 Q215 183 228 192 Q220 212 205 218 Z" fill="#4a7aad" stroke="#2d263c" stroke-width="3"/>
  <path d="M232 210 Q248 198 260 208 Q252 228 240 232 Z" fill="#4a7aad" stroke="#2d263c" stroke-width="3"/>

  <!-- 前足 左 -->
  <ellipse cx="118" cy="312" rx="27" ry="18" fill="#c85a1a" stroke="#2d263c" stroke-width="7"/>
  <ellipse cx="118" cy="326" rx="23" ry="11" fill="#8b3a10" stroke="#2d263c" stroke-width="6"/>
  <!-- 前足 右 -->
  <ellipse cx="242" cy="312" rx="27" ry="18" fill="#c85a1a" stroke="#2d263c" stroke-width="7"/>
  <ellipse cx="242" cy="326" rx="23" ry="11" fill="#8b3a10" stroke="#2d263c" stroke-width="6"/>

  <!-- 火山こぶ 左後ろ(一番奥) -->
  <ellipse cx="135" cy="195" rx="30" ry="34" fill="#b84d14" stroke="#2d263c" stroke-width="7" stroke-linejoin="round"/>
  <ellipse cx="135" cy="178" rx="17" ry="12" fill="#3a6fa8" stroke="#2d263c" stroke-width="5"/>
  <ellipse cx="135" cy="178" rx="9" ry="6" fill="#e8440a"/>

  <!-- 火山こぶ 右後ろ -->
  <ellipse cx="225" cy="190" rx="30" ry="34" fill="#b84d14" stroke="#2d263c" stroke-width="7" stroke-linejoin="round"/>
  <ellipse cx="225" cy="173" rx="17" ry="12" fill="#3a6fa8" stroke="#2d263c" stroke-width="5"/>
  <ellipse cx="225" cy="173" rx="9" ry="6" fill="#e8440a"/>

  <!-- 火山こぶ 真ん中(一番高い) -->
  <ellipse cx="180" cy="178" rx="35" ry="42" fill="#c85a1a" stroke="#2d263c" stroke-width="8" stroke-linejoin="round"/>
  <ellipse cx="180" cy="156" rx="20" ry="15" fill="#3a6fa8" stroke="#2d263c" stroke-width="6"/>
  <ellipse cx="180" cy="156" rx="11" ry="8" fill="#e8440a"/>
  <!-- 噴火の煙ちょっと -->
  <circle cx="175" cy="143" r="7" fill="#ffaa44" stroke="#2d263c" stroke-width="3" opacity="0.85"/>
  <circle cx="184" cy="138" r="5" fill="#ff7722" stroke="#2d263c" stroke-width="3" opacity="0.8"/>

  <!-- 首・頭 -->
  <ellipse cx="175" cy="210" rx="58" ry="48" fill="#d96420" stroke="#2d263c" stroke-width="8" stroke-linejoin="round"/>

  <!-- 耳(左) -->
  <path d="M128 190 Q115 165 130 155 Q148 148 152 175 Z" fill="#c85a1a" stroke="#2d263c" stroke-width="6" stroke-linejoin="round" stroke-linecap="round"/>
  <path d="M133 183 Q124 168 133 162 Q143 157 144 174 Z" fill="#e87040"/>
  <!-- 耳(右) -->
  <path d="M222 188 Q232 162 222 153 Q207 147 204 174 Z" fill="#c85a1a" stroke="#2d263c" stroke-width="6" stroke-linejoin="round" stroke-linecap="round"/>
  <path d="M218 181 Q225 166 218 160 Q210 155 208 172 Z" fill="#e87040"/>

  <!-- 目 左 -->
  <ellipse cx="157" cy="205" rx="11" ry="10" fill="white" stroke="#2d263c" stroke-width="5"/>
  <ellipse cx="159" cy="206" rx="6" ry="6" fill="#1a1a2e"/>
  <ellipse cx="161" cy="204" rx="2" ry="2" fill="white"/>
  <!-- 目 右 -->
  <ellipse cx="196" cy="203" rx="11" ry="10" fill="white" stroke="#2d263c" stroke-width="5"/>
  <ellipse cx="198" cy="204" rx="6" ry="6" fill="#1a1a2e"/>
  <ellipse cx="200" cy="202" rx="2" ry="2" fill="white"/>

  <!-- 鼻(大きくて丸い・バクーダらしさ) -->
  <ellipse cx="177" cy="224" rx="25" ry="18" fill="#9b3510" stroke="#2d263c" stroke-width="6"/>
  <!-- 鼻の穴 -->
  <ellipse cx="168" cy="226" rx="6" ry="5" fill="#5a1a05"/>
  <ellipse cx="186" cy="226" rx="6" ry="5" fill="#5a1a05"/>

  <!-- 口 のんびりした感じ -->
  <path d="M160 240 Q177 248 194 240" fill="none" stroke="#2d263c" stroke-width="5" stroke-linecap="round"/>
  <!-- ほっぺ赤み -->
  <ellipse cx="143" cy="222" rx="12" ry="9" fill="#e85a2a" opacity="0.5"/>
  <ellipse cx="211" cy="220" rx="12" ry="9" fill="#e85a2a" opacity="0.5"/>
</svg>