<svg xmlns="http://www.w3.org/2000/svg" viewBox="0 0 360 360">
  <!-- 尾羽(後ろ) -->
  <path d="M158 275 Q145 305 128 325 Q148 312 162 292 Q166 315 158 335 Q178 315 176 288 Q188 312 190 335 Q196 312 188 285 Q198 305 205 325 Q200 300 190 275" fill="#333a52" stroke="#2d263c" stroke-width="6" stroke-linejoin="round" stroke-linecap="round"/>

  <!-- 左翼(後ろ・大きく広げる) -->
  <path d="M112 195 Q70 180 42 150 Q56 168 60 185 Q30 168 20 132 Q34 172 36 198 Q18 184 12 158 Q28 192 44 212 Q68 226 96 220" fill="#333a52" stroke="#2d263c" stroke-width="7" stroke-linejoin="round" stroke-linecap="round"/>

  <!-- 右翼(後ろ・大きく広げる) -->
  <path d="M248 195 Q290 180 318 150 Q304 168 300 185 Q330 168 340 132 Q326 172 324 198 Q342 184 348 158 Q332 192 316 212 Q292 226 264 220" fill="#333a52" stroke="#2d263c" stroke-width="7" stroke-linejoin="round" stroke-linecap="round"/>

  <!-- 胴体 -->
  <ellipse cx="180" cy="220" rx="66" ry="78" fill="#333a52" stroke="#2d263c" stroke-width="8" stroke-linejoin="round"/>

  <!-- お腹の薄いクリーム模様 -->
  <path d="M150 195 Q180 185 210 195 Q220 230 208 265 Q195 282 180 284 Q165 282 152 265 Q140 230 150 195Z" fill="#d8c9b8" stroke="#2d263c" stroke-width="5" stroke-linejoin="round"/>

  <!-- 首元のピンクふわふわ襟 -->
  <path d="M135 165 Q120 175 118 190 Q128 178 140 174 Q130 188 128 202 Q140 186 148 178 Q225 178 233 202 Q231 188 220 174 Q233 178 243 190 Q241 175 226 165 Q205 155 180 154 Q158 155 135 165Z" fill="#e8a3b8" stroke="#2d263c" stroke-width="6" stroke-linejoin="round" stroke-linecap="round"/>

  <!-- 頭部 -->
  <ellipse cx="180" cy="132" rx="42" ry="40" fill="#333a52" stroke="#2d263c" stroke-width="8" stroke-linejoin="round"/>

  <!-- ピンクの巻き毛(ウィッグ・骨のような形)左 -->
  <path d="M140 108 Q118 100 112 82 Q124 92 138 96 Q120 84 118 66 Q132 82 146 90 Q135 74 138 58 Q148 78 155 95" fill="none" stroke="#e8a3b8" stroke-width="9" stroke-linecap="round" stroke-linejoin="round"/>

  <!-- ピンクの巻き毛 右 -->
  <path d="M220 108 Q242 100 248 82 Q236 92 222 96 Q240 84 242 66 Q228 82 214 90 Q225 74 222 58 Q212 78 205 95" fill="none" stroke="#e8a3b8" stroke-width="9" stroke-linecap="round" stroke-linejoin="round"/>

  <!-- ピンクの巻き毛 中央後ろ -->
  <path d="M165 78 Q168 58 160 42 Q175 55 180 72 Q185 55 200 42 Q192 58 195 78" fill="none" stroke="#e8a3b8" stroke-width="8" stroke-linecap="round" stroke-linejoin="round"/>

  <!-- 目 -->
  <ellipse cx="163" cy="128" rx="11" ry="10" fill="#f2eee8" stroke="#2d263c" stroke-width="4"/>
  <ellipse cx="197" cy="128" rx="11" ry="10" fill="#f2eee8" stroke="#2d263c" stroke-width="4"/>
  <circle cx="164" cy="129" r="6" fill="#c81e2e"/>
  <circle cx="196" cy="129" r="6" fill="#c81e2e"/>
  <circle cx="166" cy="126" r="2" fill="white"/>
  <circle cx="198" cy="126" r="2" fill="white"/>

  <!-- くちばし(ピンク・鋭いカーブ) -->
  <path d="M165 145 Q180 140 195 145 Q198 158 188 168 Q182 174 180 176 Q178 174 172 168 Q162 158 165 145Z" fill="#e8a3b8" stroke="#2d263c" stroke-width="6" stroke-linejoin="round"/>
  <line x1="180" y1="142" x2="180" y2="170" stroke="#c07a90" stroke-width="2.5" stroke-linecap="round"/>

  <!-- 左脚 -->
  <path d="M155 292 Q150 305 146 318 Q140 324 132 326 Q144 320 148 312 Q145 322 140 328 Q150 322 154 312 Q155 322 152 330 Q160 322 158 310 Q163 300 160 292Z" fill="#e0b840" stroke="#2d263c" stroke-width="6" stroke-linejoin="round" stroke-linecap="round"/>

  <!-- 右脚 -->
  <path d="M205 292 Q210 305 214 318 Q220 324 228 326 Q216 320 212 312 Q215 322 220 328 Q210 322 206 312 Q205 322 208 330 Q200 322 202 310 Q197 300 200 292Z" fill="#e0b840" stroke="#2d263c" stroke-width="6" stroke-linejoin="round" stroke-linecap="round"/>
</svg>
