<svg xmlns="http://www.w3.org/2000/svg" viewBox="0 0 360 360">
  <path d="M92,176 L62,140 L92,140 L76,84 L112,104 L106,30 L142,80 L160,20 L178,68 L200,22 L216,72 L248,28 L248,88 L284,62 L272,114 L302,116 L276,150 L294,176 L250,184 L200,192 L148,192 Z" fill="#e63f2e" stroke="#2d263c" stroke-width="7" stroke-linejoin="round" stroke-linecap="round"/>
  <path d="M112,172 L94,128 L120,134 L122,68 L150,104 L172,52 L190,100 L218,58 L226,114 L256,96 L246,142 L268,162 L210,178 L156,178 Z" fill="#fb8c2a" stroke="#2d263c" stroke-width="6" stroke-linejoin="round" stroke-linecap="round"/>
  <path d="M138,168 L132,118 L160,136 L180,92 L198,134 L222,114 L212,154 L234,166 L185,174 Z" fill="#ffd64f" stroke="#2d263c" stroke-width="6" stroke-linejoin="round" stroke-linecap="round"/>
  <path d="M132,148 C110,176 100,230 110,282 C116,306 144,314 182,314 C220,314 246,304 252,278 C260,228 250,176 230,148 C204,162 158,162 132,148 Z" fill="#3a5a7a" stroke="#2d263c" stroke-width="8" stroke-linejoin="round" stroke-linecap="round"/>
  <path d="M150,170 C136,205 134,255 146,295 C168,305 198,305 216,292 C226,250 224,202 210,170 C190,180 168,180 150,170 Z" fill="#f3e2b6" stroke="#2d263c" stroke-width="6" stroke-linejoin="round" stroke-linecap="round"/>
  <path d="M118,182 C96,192 84,222 94,248 C100,262 120,262 128,250 C137,235 134,202 128,186 Z" fill="#3a5a7a" stroke="#2d263c" stroke-width="7" stroke-linejoin="round" stroke-linecap="round"/>
  <path d="M242,182 C262,190 276,218 268,246 C262,262 242,264 234,250 C226,234 232,200 236,184 Z" fill="#3a5a7a" stroke="#2d263c" stroke-width="7" stroke-linejoin="round" stroke-linecap="round"/>
  <path d="M96,252 L90,270 L106,260 Z M110,256 L108,274 L122,262 Z" fill="#ffffff" stroke="#2d263c" stroke-width="5" stroke-linejoin="round" stroke-linecap="round"/>
  <path d="M264,250 L272,268 L254,260 Z M250,256 L252,274 L238,262 Z" fill="#ffffff" stroke="#2d263c" stroke-width="5" stroke-linejoin="round" stroke-linecap="round"/>
  <path d="M120,300 C108,304 104,322 116,330 C128,336 152,336 160,328 C166,318 160,302 148,298 Z" fill="#3a5a7a" stroke="#2d263c" stroke-width="7" stroke-linejoin="round" stroke-linecap="round"/>
  <path d="M210,296 C198,302 196,320 208,328 C222,334 244,332 250,322 C254,312 246,298 234,296 Z" fill="#3a5a7a" stroke="#2d263c" stroke-width="7" stroke-linejoin="round" stroke-linecap="round"/>
  <path d="M122,328 L118,340 L132,334 Z M140,332 L140,342 L152,334 Z" fill="#ffffff" stroke="#2d263c" stroke-width="4" stroke-linejoin="round" stroke-linecap="round"/>
  <path d="M212,328 L212,340 L224,332 Z M232,330 L236,340 L244,330 Z" fill="#ffffff" stroke="#2d263c" stroke-width="4" stroke-linejoin="round" stroke-linecap="round"/>
  <path d="M138,42 L130,24 L156,32 Z" fill="#3a5a7a" stroke="#2d263c" stroke-width="6" stroke-linejoin="round" stroke-linecap="round"/>
  <path d="M214,36 L228,18 L236,40 Z" fill="#3a5a7a" stroke="#2d263c" stroke-width="6" stroke-linejoin="round" stroke-linecap="round"/>
  <path d="M122,78 C118,44 156,24 184,26 C224,28 250,52 246,88 C243,116 218,134 180,135 C144,135 126,108 122,78 Z" fill="#3a5a7a" stroke="#2d263c" stroke-width="8" stroke-linejoin="round" stroke-linecap="round"/>
  <path d="M130,92 C138,120 158,134 182,134 C214,133 240,114 243,86 C224,100 204,106 182,105 C160,104 144,100 130,92 Z" fill="#f3e2b6" stroke="#2d263c" stroke-width="6" stroke-linejoin="round" stroke-linecap="round"/>
  <path d="M144,70 L174,82 L170,93 L142,80 Z" fill="#e0372e" stroke="#2d263c" stroke-width="5" stroke-linejoin="round" stroke-linecap="round"/>
  <path d="M190,82 L220,68 L224,78 L194,93 Z" fill="#e0372e" stroke="#2d263c" stroke-width="5" stroke-linejoin="round" stroke-linecap="round"/>
  <path d="M142,63 L176,76" fill="none" stroke="#2d263c" stroke-width="6" stroke-linecap="round"/>
  <path d="M188,76 L222,61" fill="none" stroke="#2d263c" stroke-width="6" stroke-linecap="round"/>
  <path d="M176,104 L190,104 L183,112 Z" fill="#2d263c" stroke="#2d263c" stroke-width="4" stroke-linejoin="round"/>
  <path d="M160,120 C170,128 196,128 208,118" fill="none" stroke="#2d263c" stroke-width="6" stroke-linecap="round"/>
  <path d="M198,122 L206,122 L202,131 Z" fill="#ffffff" stroke="#2d263c" stroke-width="3" stroke-linejoin="round"/>
</svg>