<svg xmlns="http://www.w3.org/2000/svg" viewBox="0 0 360 360">
  <!-- giant gmax upper wings -->
  <path d="M155 175 Q105 165 70 140 Q35 115 25 75 Q22 45 50 35 Q80 28 105 50 Q130 72 145 105 Q158 135 158 165 Z" fill="#e2599a" stroke="#2d263c" stroke-width="8" stroke-linejoin="round" stroke-linecap="round"/>
  <path d="M205 175 Q255 165 290 140 Q325 115 335 75 Q338 45 310 35 Q280 28 255 50 Q230 72 215 105 Q202 135 202 165 Z" fill="#e2599a" stroke="#2d263c" stroke-width="8" stroke-linejoin="round" stroke-linecap="round"/>

  <!-- giant gmax lower wings -->
  <path d="M150 225 Q110 235 80 260 Q45 285 40 315 Q40 335 65 330 Q95 322 120 295 Q145 265 152 235 Z" fill="#e2599a" stroke="#2d263c" stroke-width="8" stroke-linejoin="round" stroke-linecap="round"/>
  <path d="M210 225 Q250 235 280 260 Q315 285 320 315 Q320 335 295 330 Q265 322 240 295 Q215 265 208 235 Z" fill="#e2599a" stroke="#2d263c" stroke-width="8" stroke-linejoin="round" stroke-linecap="round"/>

  <!-- fluffy wing-tip poofs -->
  <circle cx="33" cy="45" r="13" fill="#e2599a" stroke="#2d263c" stroke-width="6"/>
  <circle cx="327" cy="45" r="13" fill="#e2599a" stroke="#2d263c" stroke-width="6"/>
  <circle cx="47" cy="316" r="12" fill="#e2599a" stroke="#2d263c" stroke-width="6"/>
  <circle cx="313" cy="316" r="12" fill="#e2599a" stroke="#2d263c" stroke-width="6"/>

  <!-- wing pattern (upper) -->
  <circle cx="80" cy="85" r="14" fill="#8f2f66"/>
  <circle cx="55" cy="112" r="9" fill="#8f2f66"/>
  <circle cx="280" cy="85" r="14" fill="#8f2f66"/>
  <circle cx="305" cy="112" r="9" fill="#8f2f66"/>

  <!-- wing pattern (lower) -->
  <circle cx="95" cy="270" r="11" fill="#8f2f66"/>
  <circle cx="265" cy="270" r="11" fill="#8f2f66"/>
  <path d="M70 295 Q90 305 108 300" stroke="#8f2f66" stroke-width="6" fill="none" stroke-linecap="round"/>
  <path d="M290 295 Q270 305 252 300" stroke="#8f2f66" stroke-width="6" fill="none" stroke-linecap="round"/>

  <!-- body -->
  <path d="M147 165 Q133 235 150 292 Q180 315 210 292 Q227 235 213 165 Q180 142 147 165 Z" fill="#faf3e6" stroke="#2d263c" stroke-width="8" stroke-linejoin="round" stroke-linecap="round"/>
  <path d="M153 212 Q180 221 207 212" stroke="#d8cfae" stroke-width="5" fill="none" stroke-linecap="round"/>
  <path d="M157 252 Q180 261 203 252" stroke="#d8cfae" stroke-width="5" fill="none" stroke-linecap="round"/>

  <!-- legs -->
  <path d="M155 290 Q145 312 135 325" stroke="#2d263c" stroke-width="7" fill="none" stroke-linecap="round"/>
  <path d="M205 290 Q215 312 225 325" stroke="#2d263c" stroke-width="7" fill="none" stroke-linecap="round"/>

  <!-- antennae -->
  <path d="M163 105 Q138 58 112 33" stroke="#2d263c" stroke-width="7" fill="none" stroke-linecap="round"/>
  <path d="M197 105 Q222 58 248 33" stroke="#2d263c" stroke-width="7" fill="none" stroke-linecap="round"/>
  <circle cx="112" cy="33" r="10" fill="#2d263c"/>
  <circle cx="248" cy="33" r="10" fill="#2d263c"/>

  <!-- head -->
  <circle cx="180" cy="130" r="50" fill="#faf3e6" stroke="#2d263c" stroke-width="8"/>

  <!-- eyes -->
  <circle cx="157" cy="128" r="20" fill="#c0284a" stroke="#2d263c" stroke-width="7"/>
  <circle cx="203" cy="128" r="20" fill="#c0284a" stroke="#2d263c" stroke-width="7"/>
  <circle cx="151" cy="120" r="6" fill="#faf3e6"/>
  <circle cx="197" cy="120" r="6" fill="#faf3e6"/>

  <!-- proboscis -->
  <path d="M180 155 Q175 172 182 185 Q189 172 180 155 Z" fill="#8f2f66" stroke="#2d263c" stroke-width="5" stroke-linejoin="round"/>

  <!-- front arms -->
  <path d="M148 178 Q132 190 124 206" stroke="#2d263c" stroke-width="7" fill="none" stroke-linecap="round"/>
  <path d="M212 178 Q228 190 236 206" stroke="#2d263c" stroke-width="7" fill="none" stroke-linecap="round"/>

  <!-- floating toxic powder -->
  <circle cx="60" cy="150" r="6" fill="#c9e07a"/>
  <circle cx="300" cy="160" r="5" fill="#c9e07a"/>
  <circle cx="180" cy="333" r="5" fill="#c9e07a"/>

  <!-- gmax dynamax energy wisps -->
  <path d="M125 300 L133 312 L122 316 L130 326" stroke="#e2445c" stroke-width="5" fill="none" stroke-linecap="round" stroke-linejoin="round"/>
  <path d="M235 300 L227 312 L238 316 L230 326" stroke="#e2445c" stroke-width="5" fill="none" stroke-linecap="round" stroke-linejoin="round"/>
</svg>
