<svg xmlns="http://www.w3.org/2000/svg" viewBox="0 0 360 360">
<g fill="none" stroke="#2d263c" stroke-width="7" stroke-linejoin="round" stroke-linecap="round">
<path fill="#b0a89c" d="M250 248 C246 282 254 316 270 318 C284 316 282 282 276 258 Z"/>
<path fill="#b0a89c" d="M288 248 C284 282 292 316 306 318 C318 316 316 282 310 258 Z"/>
<ellipse fill="#f0e8d4" cx="215" cy="195" rx="98" ry="74"/>
<path fill="#3a3540" stroke="none" d="M165 150 C195 142 222 156 216 180 C210 200 176 200 162 186 C150 174 152 156 165 150 Z"/>
<path fill="#3a3540" stroke="none" d="M255 220 C282 214 298 232 288 252 C278 264 254 258 248 244 C244 234 248 222 255 220 Z"/>
<path fill="#3a3540" stroke="none" d="M195 232 C214 228 226 246 216 258 C206 266 188 260 184 248 C182 240 188 234 195 232 Z"/>
<path fill="#b0a89c" d="M150 250 C146 282 154 316 170 318 C184 316 182 282 176 258 Z"/>
<path fill="#b0a89c" d="M186 252 C182 284 190 316 204 318 C216 316 214 284 208 260 Z"/>
<path fill="#b0a89c" d="M130 180 C112 192 104 222 114 244 C124 256 150 250 156 232 C158 206 152 186 138 176 Z"/>
<path fill="#ede4cf" d="M112 158 C84 144 58 160 66 186 C72 200 92 198 96 184 C92 176 100 168 110 172 Z"/>
<path fill="#ede4cf" d="M126 152 C104 134 76 146 80 172 C86 186 106 184 112 172 Z"/>
<path fill="#b0a89c" d="M108 158 C80 158 62 186 68 214 C76 236 104 240 122 226 C130 212 128 188 120 172 C116 164 112 158 108 158 Z"/>
<path fill="#b0a89c" d="M120 165 C118 146 132 138 140 148 C142 160 132 168 126 170 Z"/>
<ellipse fill="#fff" cx="92" cy="196" rx="10" ry="13"/>
<ellipse fill="#2d263c" cx="90" cy="199" rx="5" ry="7"/>
<circle fill="#fff" stroke="none" cx="88" cy="194" r="2.5"/>
<ellipse fill="#2d263c" cx="74" cy="218" rx="7" ry="5"/>
<path d="M70 228 C78 232 86 232 92 228"/>
</g>
</svg>
