<svg xmlns="http://www.w3.org/2000/svg" viewBox="0 0 360 360"><path d="M52 98 Q42 78 58 64 Q55 77 67 71 Q76 86 64 98 Q57 106 52 98 Z" fill="#9b6fc6" stroke="#2d263c" stroke-width="6" stroke-linejoin="round" stroke-linecap="round"/><path d="M306 152 Q298 132 315 119 Q312 132 324 128 Q331 143 320 154 Q311 162 306 152 Z" fill="#9b6fc6" stroke="#2d263c" stroke-width="6" stroke-linejoin="round" stroke-linecap="round"/><path d="M86 192 C68 168 76 140 96 144 C90 116 114 106 122 126 C124 98 150 96 152 118 C180 108 182 108 208 118 C212 94 238 100 236 124 C248 104 270 116 262 140 C284 140 288 168 270 190 Q180 228 86 192 Z" fill="#cf3650" stroke="#2d263c" stroke-width="7" stroke-linejoin="round" stroke-linecap="round"/><path d="M104 134 Q95 108 114 102 Q121 116 115 131 Z" fill="#8f5bb5" stroke="#2d263c" stroke-width="6" stroke-linejoin="round"/><path d="M242 130 Q249 104 265 112 Q263 129 251 139 Z" fill="#8f5bb5" stroke="#2d263c" stroke-width="6" stroke-linejoin="round"/><path d="M124 176 Q96 232 106 296 Q108 324 142 324 Q180 332 216 322 Q252 324 254 292 Q262 230 236 176 Q180 156 124 176 Z" fill="#443e5c" stroke="#2d263c" stroke-width="8" stroke-linejoin="round" stroke-linecap="round"/><path d="M130 192 Q108 206 116 236 Q124 250 138 240 Q147 221 142 198 Z" fill="#443e5c" stroke="#2d263c" stroke-width="7" stroke-linejoin="round"/><path d="M232 190 Q253 202 246 234 Q238 250 224 238 Q217 217 224 194 Z" fill="#443e5c" stroke="#2d263c" stroke-width="7" stroke-linejoin="round"/><path d="M120 312 Q114 333 142 331 Q157 329 150 309 Z" fill="#3a3450" stroke="#2d263c" stroke-width="7" stroke-linejoin="round"/><path d="M212 310 Q206 330 232 331 Q248 330 242 311 Z" fill="#3a3450" stroke="#2d263c" stroke-width="7" stroke-linejoin="round"/><path d="M180 192 Q230 196 234 252 Q236 304 180 308 Q126 306 126 250 Q130 196 180 192 Z" fill="#f2e8c9" stroke="#2d263c" stroke-width="7" stroke-linejoin="round"/><path d="M150 186 Q141 207 152 221 Q163 208 158 188 Z" fill="#cf3650" stroke="#2d263c" stroke-width="6" stroke-linejoin="round"/><path d="M204 184 Q215 204 204 219 Q193 206 198 186 Z" fill="#cf3650" stroke="#2d263c" stroke-width="6" stroke-linejoin="round"/><path d="M138 78 Q126 52 150 54 Q160 60 152 74 Z" fill="#443e5c" stroke="#2d263c" stroke-width="7" stroke-linejoin="round"/><path d="M214 72 Q226 46 240 60 Q242 72 226 80 Z" fill="#443e5c" stroke="#2d263c" stroke-width="7" stroke-linejoin="round"/><path d="M118 122 Q112 76 156 64 Q182 54 214 66 Q248 78 242 124 Q238 156 180 160 Q124 158 118 122 Z" fill="#443e5c" stroke="#2d263c" stroke-width="8" stroke-linejoin="round" stroke-linecap="round"/><path d="M134 118 Q138 100 158 102 Q180 95 204 102 Q224 100 228 120 Q230 146 206 152 Q202 176 181 178 Q162 176 157 152 Q132 146 134 118 Z" fill="#f2e8c9" stroke="#2d263c" stroke-width="7" stroke-linejoin="round"/><path d="M146 117 Q157 107 169 115 Q158 124 146 117 Z" fill="#d83a4e" stroke="#2d263c" stroke-width="5" stroke-linejoin="round"/><path d="M193 114 Q205 106 216 116 Q204 123 193 114 Z" fill="#d83a4e" stroke="#2d263c" stroke-width="5" stroke-linejoin="round"/><path d="M144 110 Q157 102 171 109" fill="none" stroke="#2d263c" stroke-width="6" stroke-linecap="round"/><path d="M191 108 Q205 100 218 110" fill="none" stroke="#2d263c" stroke-width="6" stroke-linecap="round"/><ellipse cx="181" cy="168" rx="8" ry="6" fill="#2d263c"/><path d="M172 181 Q181 187 191 180" fill="none" stroke="#2d263c" stroke-width="5" stroke-linecap="round"/></svg>