<svg xmlns="http://www.w3.org/2000/svg" viewBox="0 0 360 360">
  <g stroke="#2d263c" stroke-width="7" stroke-linejoin="round" stroke-linecap="round">
    <path d="M150,266 C150,288 144,302 144,316 C137,324 130,323 128,317 C128,304 134,289 138,270" fill="#f0ece2"/>
    <path d="M210,266 C210,288 216,302 216,316 C223,324 230,323 232,317 C232,304 226,289 222,270" fill="#f0ece2"/>
    <path d="M180,150 C230,150 256,184 256,236 C256,276 230,296 180,296 C130,296 104,276 104,236 C104,184 130,150 180,150 Z" fill="#5aa86a"/>
    <path d="M180,150 C222,150 244,178 244,222 C244,258 223,278 180,278 C137,278 116,258 116,222 C116,178 138,150 180,150 Z" fill="#6fb87e"/>
    <path d="M114,236 C130,252 230,252 246,236 C246,250 236,265 216,268 C200,255 160,255 144,268 C124,265 114,250 114,236 Z" fill="#8a5ab8"/>
    <path d="M180,80 C220,80 240,106 240,140 C240,166 218,182 180,182 C142,182 120,166 120,140 C120,106 140,80 180,80 Z" fill="#f2eee5"/>
    <path d="M135,90 C120,60 122,44 135,42 C145,54 150,76 152,92" fill="#5aa86a"/>
    <path d="M135,42 C128,32 132,24 142,28" fill="#8a5ab8"/>
    <path d="M225,90 C240,60 238,44 225,42 C215,54 210,76 208,92" fill="#5aa86a"/>
    <path d="M225,42 C232,32 228,24 218,28" fill="#8a5ab8"/>
  </g>
  <ellipse cx="155" cy="138" rx="11" ry="14" fill="#fff" stroke="#2d263c" stroke-width="6"/>
  <ellipse cx="205" cy="138" rx="11" ry="14" fill="#fff" stroke="#2d263c" stroke-width="6"/>
  <circle cx="157" cy="141" r="5.5" fill="#5aa86a"/>
  <circle cx="207" cy="141" r="5.5" fill="#5aa86a"/>
  <circle cx="159" cy="139" r="2" fill="#fff"/>
  <circle cx="209" cy="139" r="2" fill="#fff"/>
  <path d="M170,165 Q180,170 190,165" fill="none" stroke="#2d263c" stroke-width="6" stroke-linecap="round"/>
</svg>
