<svg xmlns="http://www.w3.org/2000/svg" viewBox="0 0 360 360">
  <!-- 炎(背面・たてがみ) -->
  <ellipse cx="180" cy="108" rx="22" ry="38" fill="#ff6a00" stroke="#2d263c" stroke-width="6" stroke-linejoin="round"/>
  <ellipse cx="155" cy="115" rx="14" ry="28" fill="#ff4500" stroke="#2d263c" stroke-width="5" stroke-linejoin="round"/>
  <ellipse cx="205" cy="118" rx="13" ry="24" fill="#ff8c00" stroke="#2d263c" stroke-width="5" stroke-linejoin="round"/>
  <ellipse cx="180" cy="100" rx="11" ry="22" fill="#ffd700" stroke="none"/>
  <ellipse cx="158" cy="108" rx="7" ry="15" fill="#ffec60" stroke="none"/>
  <ellipse cx="203" cy="111" rx="6" ry="13" fill="#ffec60" stroke="none"/>

  <!-- しっぽ -->
  <path d="M228 268 Q265 255 272 232 Q278 212 260 205 Q248 200 238 215" fill="#1e3470" stroke="#2d263c" stroke-width="7" stroke-linejoin="round" stroke-linecap="round"/>
  <!-- しっぽ先炎 -->
  <ellipse cx="268" cy="196" rx="14" ry="20" fill="#ff6a00" stroke="#2d263c" stroke-width="5"/>
  <ellipse cx="268" cy="190" rx="8" ry="12" fill="#ffd700" stroke="none"/>

  <!-- 胴体 -->
  <ellipse cx="180" cy="230" rx="72" ry="82" fill="#1e3470" stroke="#2d263c" stroke-width="8" stroke-linejoin="round"/>

  <!-- お腹(クリーム) -->
  <ellipse cx="180" cy="248" rx="46" ry="58" fill="#f5e6c8" stroke="#2d263c" stroke-width="5" stroke-linejoin="round"/>

  <!-- 首〜たてがみ暗部ライン -->
  <path d="M155 148 Q160 135 180 130 Q200 135 205 148" fill="#152a5c" stroke="#2d263c" stroke-width="5" stroke-linejoin="round"/>

  <!-- 頭 -->
  <ellipse cx="180" cy="163" rx="55" ry="52" fill="#1e3470" stroke="#2d263c" stroke-width="8" stroke-linejoin="round"/>

  <!-- 顔前面(クリーム) -->
  <ellipse cx="180" cy="172" rx="36" ry="34" fill="#f5e6c8" stroke="#2d263c" stroke-width="5" stroke-linejoin="round"/>

  <!-- 耳(左) -->
  <path d="M132 138 Q118 108 128 92 Q140 100 145 128" fill="#1e3470" stroke="#2d263c" stroke-width="7" stroke-linejoin="round"/>
  <!-- 耳内側(左) -->
  <path d="M134 133 Q124 112 130 100 Q138 106 141 126" fill="#f5c0b0" stroke="none"/>

  <!-- 耳(右) -->
  <path d="M228 138 Q242 108 232 92 Q220 100 215 128" fill="#1e3470" stroke="#2d263c" stroke-width="7" stroke-linejoin="round"/>
  <!-- 耳内側(右) -->
  <path d="M226 133 Q236 112 230 100 Q222 106 219 126" fill="#f5c0b0" stroke="none"/>

  <!-- 頭の黒スポット -->
  <ellipse cx="168" cy="148" rx="8" ry="7" fill="#0d1f4a"/>
  <ellipse cx="192" cy="146" rx="7" ry="6" fill="#0d1f4a"/>
  <ellipse cx="180" cy="155" rx="5" ry="4" fill="#0d1f4a"/>

  <!-- 目(左) -->
  <ellipse cx="163" cy="166" rx="10" ry="10" fill="white" stroke="#2d263c" stroke-width="4"/>
  <ellipse cx="164" cy="167" rx="6" ry="7" fill="#1a1a1a"/>
  <ellipse cx="165" cy="164" rx="2" ry="2" fill="white"/>

  <!-- 目(右) - ちょっとずれてバカっぽく -->
  <ellipse cx="197" cy="165" rx="11" ry="9" fill="white" stroke="#2d263c" stroke-width="4"/>
  <ellipse cx="198" cy="166" rx="7" ry="6" fill="#1a1a1a"/>
  <ellipse cx="200" cy="163" rx="2" ry="2" fill="white"/>

  <!-- 眉(怒り気味) -->
  <path d="M153 156 Q164 151 172 155" fill="none" stroke="#2d263c" stroke-width="5" stroke-linecap="round"/>
  <path d="M188 154 Q197 150 208 154" fill="none" stroke="#2d263c" stroke-width="5" stroke-linecap="round"/>

  <!-- 鼻 -->
  <ellipse cx="180" cy="177" rx="5" ry="4" fill="#c97a60" stroke="#2d263c" stroke-width="3"/>

  <!-- 口(ちょっとへにゃっと) -->
  <path d="M170 186 Q180 192 190 186" fill="none" stroke="#2d263c" stroke-width="5" stroke-linecap="round"/>

  <!-- 腕(左) -->
  <path d="M118 220 Q96 230 90 255 Q94 270 112 268 Q128 265 135 248" fill="#1e3470" stroke="#2d263c" stroke-width="7" stroke-linejoin="round" stroke-linecap="round"/>
  <!-- 爪(左) -->
  <path d="M93 268 Q85 278 90 283" fill="none" stroke="#2d263c" stroke-width="5" stroke-linecap="round"/>
  <path d="M103 274 Q98 285 103 290" fill="none" stroke="#2d263c" stroke-width="5" stroke-linecap="round"/>
  <path d="M113 276 Q111 288 116 292" fill="none" stroke="#2d263c" stroke-width="5" stroke-linecap="round"/>

  <!-- 腕(右) -->
  <path d="M242 220 Q264 230 270 255 Q266 270 248 268 Q232 265 225 248" fill="#1e3470" stroke="#2d263c" stroke-width="7" stroke-linejoin="round" stroke-linecap="round"/>
  <!-- 爪(右) -->
  <path d="M267 268 Q275 278 270 283" fill="none" stroke="#2d263c" stroke-width="5" stroke-linecap="round"/>
  <path d="M257 274 Q262 285 257 290" fill="none" stroke="#2d263c" stroke-width="5" stroke-linecap="round"/>
  <path d="M247 276 Q249 288 244 292" fill="none" stroke="#2d263c" stroke-width="5" stroke-linecap="round"/>

  <!-- 足(左) -->
  <path d="M148 296 Q138 308 136 325 Q148 334 164 328 Q172 315 168 298" fill="#1e3470" stroke="#2d263c" stroke-width="7" stroke-linejoin="round"/>

  <!-- 足(右) -->
  <path d="M212 296 Q222 308 224 325 Q212 334 196 328 Q188 315 192 298" fill="#1e3470" stroke="#2d263c" stroke-width="7" stroke-linejoin="round"/>

  <!-- ほっぺ赤み -->
  <ellipse cx="148" cy="178" rx="10" ry="7" fill="#ff9999" opacity="0.6"/>
  <ellipse cx="212" cy="178" rx="10" ry="7" fill="#ff9999" opacity="0.6"/>
</svg>