<svg xmlns="http://www.w3.org/2000/svg" viewBox="0 0 360 360">
<g stroke="#2d263c" stroke-width="7" stroke-linejoin="round" stroke-linecap="round">
<ellipse cx="190" cy="262" rx="120" ry="7" fill="#000000" opacity="0.15" stroke="none"/>
<ellipse cx="190" cy="180" rx="110" ry="50" fill="#E8C77E"/>
<circle cx="96" cy="150" r="44" fill="#E8C77E"/>
<ellipse cx="64" cy="164" rx="26" ry="18" fill="#F2DDB0" stroke="none"/>
<path d="M84 120 q-22 -4 -28 22 q-2 18 14 20 q14 -4 18 -22 q0 -16 -4 -20Z" fill="#D9B25C"/>
<path d="M118 114 q22 -2 26 22 q2 18 -12 22 q-14 -2 -20 -20 q-2 -18 6 -24Z" fill="#D9B25C"/>
<path d="M150 150 q8 18 0 36" fill="none" stroke="#C9A05A" stroke-width="6"/>
<path d="M190 148 q8 20 0 38" fill="none" stroke="#C9A05A" stroke-width="6"/>
<path d="M230 150 q8 18 0 36" fill="none" stroke="#C9A05A" stroke-width="6"/>
<ellipse cx="120" cy="232" rx="14" ry="20" fill="#E8C77E"/>
<ellipse cx="168" cy="236" rx="14" ry="18" fill="#E8C77E"/>
<ellipse cx="232" cy="236" rx="14" ry="18" fill="#E8C77E"/>
<ellipse cx="278" cy="232" rx="14" ry="20" fill="#E8C77E"/>
<path d="M296 170 q26 -6 28 16 q-10 -6 -18 -2" fill="#E8C77E"/>
<circle cx="92" cy="140" r="7.5" fill="#2d263c" stroke="none"/>
<circle cx="94" cy="137" r="2.5" fill="#fff" stroke="none"/>
<ellipse cx="48" cy="162" rx="6" ry="5" fill="#2d263c" stroke="none"/>
<path d="M56 176 q8 8 16 2" fill="none" stroke="#2d263c" stroke-width="6"/>
</g>
</svg>