<svg xmlns="http://www.w3.org/2000/svg" viewBox="0 0 360 360">
  <!-- 影 -->
  <ellipse cx="185" cy="325" rx="65" ry="15" fill="#00000022"/>

  <!-- 羽毛(背中・赤茶) -->
  <path d="M150,155 Q110,145 100,175 Q108,200 138,195Z" fill="#A03018" stroke="#2d263c" stroke-width="6" stroke-linejoin="round"/>
  <path d="M155,170 Q112,165 108,195 Q120,218 148,210Z" fill="#A03018" stroke="#2d263c" stroke-width="6" stroke-linejoin="round"/>

  <!-- 足・左(細長い・オレンジ) -->
  <path d="M162,258 Q150,285 145,315 Q150,320 158,318 Q162,295 168,270Z" fill="#E07030" stroke="#2d263c" stroke-width="7" stroke-linejoin="round"/>
  <!-- 足・左の爪 -->
  <path d="M145,315 Q135,328 140,332 Q148,325 155,318Z" fill="#2d263c" stroke="#2d263c" stroke-width="4" stroke-linejoin="round"/>
  <path d="M158,318 Q155,332 162,334 Q164,322 162,315Z" fill="#2d263c" stroke="#2d263c" stroke-width="4" stroke-linejoin="round"/>

  <!-- 足・右(細長い・オレンジ) -->
  <path d="M202,255 Q215,282 222,312 Q217,318 208,318 Q206,293 198,268Z" fill="#E07030" stroke="#2d263c" stroke-width="7" stroke-linejoin="round"/>
  <!-- 足・右の爪 -->
  <path d="M222,312 Q232,325 228,330 Q220,323 212,318Z" fill="#2d263c" stroke="#2d263c" stroke-width="4" stroke-linejoin="round"/>
  <path d="M208,318 Q208,332 202,334 Q198,322 200,315Z" fill="#2d263c" stroke="#2d263c" stroke-width="4" stroke-linejoin="round"/>

  <!-- 腕・左 -->
  <path d="M148,195 Q120,210 112,235 Q118,245 130,240 Q138,220 152,210Z" fill="#D04820" stroke="#2d263c" stroke-width="7" stroke-linejoin="round"/>
  <!-- 炎・左手首 -->
  <path d="M112,235 Q98,250 105,260 Q115,255 118,242Z" fill="#FF6020" stroke="#2d263c" stroke-width="4" stroke-linejoin="round"/>
  <path d="M108,240 Q95,258 103,268 Q112,262 116,248Z" fill="#FFB020" stroke="#2d263c" stroke-width="3" stroke-linejoin="round"/>
  <path d="M118,242 Q108,255 114,265 Q122,258 124,246Z" fill="#FF6020" stroke="#2d263c" stroke-width="3" stroke-linejoin="round"/>

  <!-- 腕・右 -->
  <path d="M218,195 Q248,210 255,232 Q250,242 238,238 Q228,218 215,210Z" fill="#D04820" stroke="#2d263c" stroke-width="7" stroke-linejoin="round"/>
  <!-- 炎・右手首 -->
  <path d="M255,232 Q268,248 262,258 Q252,252 248,240Z" fill="#FF6020" stroke="#2d263c" stroke-width="4" stroke-linejoin="round"/>
  <path d="M260,238 Q274,256 268,265 Q258,260 254,246Z" fill="#FFB020" stroke="#2d263c" stroke-width="3" stroke-linejoin="round"/>
  <path d="M250,240 Q260,254 255,263 Q248,258 246,246Z" fill="#FF6020" stroke="#2d263c" stroke-width="3" stroke-linejoin="round"/>

  <!-- 胴体 -->
  <path d="M148,175 Q148,270 183,275 Q218,270 218,175 Q205,150 183,148 Q162,150 148,175Z" fill="#D04820" stroke="#2d263c" stroke-width="7" stroke-linejoin="round"/>

  <!-- 胸毛(黄色いふわふわ) -->
  <ellipse cx="183" cy="210" rx="38" ry="45" fill="#F0C840" stroke="#2d263c" stroke-width="5" stroke-linejoin="round"/>
  <!-- 胸毛のふわふわ感 -->
  <circle cx="158" cy="198" r="18" fill="#F0C840" stroke="#2d263c" stroke-width="5"/>
  <circle cx="208" cy="198" r="18" fill="#F0C840" stroke="#2d263c" stroke-width="5"/>
  <circle cx="183" cy="185" r="20" fill="#F0C840" stroke="#2d263c" stroke-width="5"/>
  <circle cx="165" cy="225" r="16" fill="#F0C840" stroke="#2d263c" stroke-width="4"/>
  <circle cx="202" cy="225" r="16" fill="#F0C840" stroke="#2d263c" stroke-width="4"/>

  <!-- 頭部 -->
  <ellipse cx="183" cy="140" rx="52" ry="58" fill="#D04820" stroke="#2d263c" stroke-width="7" stroke-linejoin="round"/>

  <!-- 顔(クリーム色) -->
  <ellipse cx="183" cy="148" rx="35" ry="40" fill="#F0E8C0" stroke="#2d263c" stroke-width="5" stroke-linejoin="round"/>

  <!-- トサカ -->
  <path d="M165,90 Q183,60 200,90" fill="#D04820" stroke="#2d263c" stroke-width="6" stroke-linejoin="round"/>
  <path d="M155,100 Q172,72 183,98" fill="#A03018" stroke="#2d263c" stroke-width="5" stroke-linejoin="round"/>

  <!-- 目・左(青) -->
  <ellipse cx="165" cy="138" rx="12" ry="13" fill="white" stroke="#2d263c" stroke-width="4"/>
  <ellipse cx="167" cy="140" rx="7" ry="8" fill="#2050A0"/>
  <ellipse cx="168" cy="142" rx="4" ry="4" fill="#2d263c"/>
  <circle cx="170" cy="138" r="2.5" fill="white"/>

  <!-- 目・右(青) -->
  <ellipse cx="200" cy="138" rx="12" ry="13" fill="white" stroke="#2d263c" stroke-width="4"/>
  <ellipse cx="201" cy="140" rx="7" ry="8" fill="#2050A0"/>
  <ellipse cx="202" cy="142" rx="4" ry="4" fill="#2d263c"/>
  <circle cx="204" cy="138" r="2.5" fill="white"/>

  <!-- くちばし -->
  <path d="M175,158 Q183,170 192,158 Q183,155 175,158Z" fill="#D08020" stroke="#2d263c" stroke-width="4" stroke-linejoin="round"/>
</svg>
