<svg xmlns="http://www.w3.org/2000/svg" viewBox="0 0 360 360">
  <!-- 尻尾 -->
  <path d="M215 290 Q245 300 250 320 Q248 335 235 330 Q222 325 210 310 Z" fill="#2d6e5c" stroke="#2d263c" stroke-width="7" stroke-linejoin="round"/>

  <!-- 背中の棘(後ろ) -->
  <ellipse cx="165" cy="140" rx="12" ry="28" fill="#1e5040" stroke="#2d263c" stroke-width="6" transform="rotate(-20 165 140)"/>
  <ellipse cx="185" cy="120" rx="11" ry="30" fill="#1e5040" stroke="#2d263c" stroke-width="6" transform="rotate(-8 185 120)"/>
  <ellipse cx="208" cy="128" rx="10" ry="26" fill="#1e5040" stroke="#2d263c" stroke-width="6" transform="rotate(10 208 128)"/>

  <!-- 胴体メイン -->
  <path d="M118 200 Q105 170 112 145 Q120 118 148 108 Q175 98 200 105 Q225 112 238 132 Q252 155 248 185 Q244 220 235 250 Q222 280 200 295 Q178 308 160 300 Q138 290 128 268 Q115 240 118 200 Z" fill="#336b55" stroke="#2d263c" stroke-width="8" stroke-linejoin="round"/>

  <!-- 腹部(黄色) -->
  <path d="M145 210 Q140 195 145 178 Q152 162 168 158 Q182 155 192 162 Q202 170 205 188 Q208 208 202 228 Q196 248 180 255 Q163 260 153 248 Q143 235 145 210 Z" fill="#e8a430" stroke="#2d263c" stroke-width="6" stroke-linejoin="round"/>

  <!-- 腹の模様(ひし形ライン) -->
  <path d="M160 180 L172 168 L184 180 L172 192 Z" fill="none" stroke="#c47820" stroke-width="3.5" stroke-linejoin="round"/>
  <path d="M158 210 L170 198 L182 210 L170 222 Z" fill="none" stroke="#c47820" stroke-width="3.5" stroke-linejoin="round"/>
  <path d="M162 238 L172 228 L182 238 L172 248 Z" fill="none" stroke="#c47820" stroke-width="3.5" stroke-linejoin="round"/>

  <!-- 左腕 -->
  <path d="M118 200 Q98 195 88 210 Q80 225 90 240 Q100 252 115 245 Q128 240 130 225 Z" fill="#2d6e5c" stroke="#2d263c" stroke-width="7" stroke-linejoin="round"/>
  <!-- 左手の爪 -->
  <path d="M88 240 Q78 252 74 262" stroke="#2d263c" stroke-width="7" stroke-linecap="round" fill="none"/>
  <path d="M95 248 Q88 262 86 272" stroke="#2d263c" stroke-width="7" stroke-linecap="round" fill="none"/>
  <path d="M104 252 Q100 265 100 275" stroke="#2d263c" stroke-width="7" stroke-linecap="round" fill="none"/>

  <!-- 右腕 -->
  <path d="M244 195 Q262 188 272 202 Q280 218 270 232 Q260 244 246 238 Q232 232 232 215 Z" fill="#2d6e5c" stroke="#2d263c" stroke-width="7" stroke-linejoin="round"/>
  <!-- 右手の爪 -->
  <path d="M270 232 Q280 244 285 254" stroke="#2d263c" stroke-width="7" stroke-linecap="round" fill="none"/>
  <path d="M262 240 Q270 254 272 264" stroke="#2d263c" stroke-width="7" stroke-linecap="round" fill="none"/>
  <path d="M254 244 Q258 258 258 268" stroke="#2d263c" stroke-width="7" stroke-linecap="round" fill="none"/>

  <!-- 左足 -->
  <path d="M148 292 Q138 298 132 315 Q128 330 138 336 Q150 340 162 330 Q170 318 165 302 Z" fill="#2d6e5c" stroke="#2d263c" stroke-width="7" stroke-linejoin="round"/>
  <!-- 左足爪 -->
  <path d="M130 336 Q122 346 120 354" stroke="#2d263c" stroke-width="6" stroke-linecap="round" fill="none"/>
  <path d="M140 340 Q136 350 136 357" stroke="#2d263c" stroke-width="6" stroke-linecap="round" fill="none"/>

  <!-- 右足 -->
  <path d="M195 290 Q205 296 210 314 Q214 330 204 336 Q192 340 182 330 Q174 318 178 302 Z" fill="#2d6e5c" stroke="#2d263c" stroke-width="7" stroke-linejoin="round"/>
  <!-- 右足爪 -->
  <path d="M212 336 Q220 346 222 353" stroke="#2d263c" stroke-width="6" stroke-linecap="round" fill="none"/>
  <path d="M202 340 Q206 350 207 357" stroke="#2d263c" stroke-width="6" stroke-linecap="round" fill="none"/>

  <!-- 肩の棘(左) -->
  <path d="M120 148 Q105 135 100 118 Q108 115 118 125 Q126 135 124 148 Z" fill="#1e5040" stroke="#2d263c" stroke-width="6" stroke-linejoin="round"/>
  <!-- 肩の棘(右) -->
  <path d="M242 142 Q258 128 262 112 Q254 110 245 120 Q236 132 238 144 Z" fill="#1e5040" stroke="#2d263c" stroke-width="6" stroke-linejoin="round"/>

  <!-- 首 -->
  <path d="M148 108 Q160 90 180 85 Q200 80 210 92 Q218 105 215 115 Q200 105 180 103 Q162 102 148 108 Z" fill="#336b55" stroke="#2d263c" stroke-width="7" stroke-linejoin="round"/>

  <!-- 頭 -->
  <path d="M142 88 Q138 65 148 48 Q162 30 182 28 Q202 26 214 42 Q224 58 222 78 Q220 95 208 105 Q195 115 178 114 Q160 112 150 100 Q143 92 142 88 Z" fill="#336b55" stroke="#2d263c" stroke-width="8" stroke-linejoin="round"/>

  <!-- 頭の耳/角(左) -->
  <path d="M148 52 Q138 35 134 20 Q142 18 150 30 Q156 42 154 55 Z" fill="#2d6e5c" stroke="#2d263c" stroke-width="6" stroke-linejoin="round"/>
  <!-- 頭の耳/角(右) -->
  <path d="M214 46 Q224 28 230 15 Q222 12 214 24 Q207 36 210 50 Z" fill="#2d6e5c" stroke="#2d263c" stroke-width="6" stroke-linejoin="round"/>

  <!-- 顔: 左目(赤) -->
  <ellipse cx="163" cy="72" rx="11" ry="10" fill="#e82020" stroke="#2d263c" stroke-width="5"/>
  <ellipse cx="166" cy="70" rx="4" ry="4" fill="#ff5050"/>
  <ellipse cx="168" cy="68" rx="2" ry="2" fill="white"/>

  <!-- 顔: 右目(赤) -->
  <ellipse cx="198" cy="70" rx="10" ry="10" fill="#e82020" stroke="#2d263c" stroke-width="5"/>
  <ellipse cx="200" cy="68" rx="4" ry="4" fill="#ff5050"/>
  <ellipse cx="202" cy="66" rx="2" ry="2" fill="white"/>

  <!-- 口・顎ライン -->
  <path d="M158 90 Q180 100 205 90" stroke="#2d263c" stroke-width="6" stroke-linecap="round" fill="none"/>
  <!-- 牙(左) -->
  <path d="M164 98 Q160 108 162 116" stroke="#f0f0e0" stroke-width="5" stroke-linecap="round" fill="none"/>
  <!-- 牙(右) -->
  <path d="M196 97 Q200 107 198 115" stroke="#f0f0e0" stroke-width="5" stroke-linecap="round" fill="none"/>

  <!-- 眉(怒り顔) -->
  <path d="M154 62 Q163 55 172 60" stroke="#2d263c" stroke-width="5" stroke-linecap="round" fill="none"/>
  <path d="M192 58 Q200 52 208 57" stroke="#2d263c" stroke-width="5" stroke-linecap="round" fill="none"/>

  <!-- 頭の模様(ひし形) -->
  <path d="M178 40 L185 33 L192 40 L185 47 Z" fill="none" stroke="#1e5040" stroke-width="3" stroke-linejoin="round"/>

  <!-- 背中の一番大きい棘 -->
  <path d="M175 100 Q170 80 174 62 Q180 55 186 62 Q190 80 185 100 Z" fill="#1e5040" stroke="#2d263c" stroke-width="6" stroke-linejoin="round"/>
</svg>