<svg xmlns="http://www.w3.org/2000/svg" viewBox="0 0 360 360">
  <!-- 後ろ: きのこ2本(赤オレンジ・白斑点) -->
  <ellipse cx="130" cy="110" rx="52" ry="44" fill="#e2452a" stroke="#2d263c" stroke-width="7" stroke-linejoin="round"/>
  <rect x="112" y="120" width="36" height="46" rx="14" fill="#c73a22" stroke="#2d263c" stroke-width="7" stroke-linejoin="round"/>
  <ellipse cx="240" cy="104" rx="56" ry="46" fill="#e2452a" stroke="#2d263c" stroke-width="7" stroke-linejoin="round"/>
  <rect x="216" y="116" width="38" height="50" rx="14" fill="#c73a22" stroke="#2d263c" stroke-width="7" stroke-linejoin="round"/>
  <!-- きのこの白斑点 -->
  <circle cx="112" cy="96" r="9" fill="#fff3e0"/>
  <circle cx="140" cy="82" r="7" fill="#fff3e0"/>
  <circle cx="152" cy="112" r="8" fill="#fff3e0"/>
  <circle cx="222" cy="88" r="9" fill="#fff3e0"/>
  <circle cx="252" cy="76" r="7" fill="#fff3e0"/>
  <circle cx="266" cy="108" r="9" fill="#fff3e0"/>
  <circle cx="238" cy="118" r="7" fill="#fff3e0"/>
  <!-- 脚(6本・赤茶) -->
  <path d="M100 250 L60 280" stroke="#2d263c" stroke-width="9" stroke-linecap="round" fill="none"/>
  <path d="M100 250 L60 280" stroke="#b8341f" stroke-width="6" stroke-linecap="round" fill="none"/>
  <path d="M105 275 L68 308" stroke="#2d263c" stroke-width="9" stroke-linecap="round" fill="none"/>
  <path d="M105 275 L68 308" stroke="#b8341f" stroke-width="6" stroke-linecap="round" fill="none"/>
  <path d="M260 250 L300 280" stroke="#2d263c" stroke-width="9" stroke-linecap="round" fill="none"/>
  <path d="M260 250 L300 280" stroke="#b8341f" stroke-width="6" stroke-linecap="round" fill="none"/>
  <path d="M255 275 L292 308" stroke="#2d263c" stroke-width="9" stroke-linecap="round" fill="none"/>
  <path d="M255 275 L292 308" stroke="#b8341f" stroke-width="6" stroke-linecap="round" fill="none"/>
  <!-- はさみ(小さいツメ)左右 -->
  <ellipse cx="72" cy="230" rx="20" ry="16" fill="#d4472a" stroke="#2d263c" stroke-width="7"/>
  <ellipse cx="288" cy="230" rx="20" ry="16" fill="#d4472a" stroke="#2d263c" stroke-width="7"/>
  <!-- 体(丸っこい赤オレンジ・虫っぽいクラブ体) -->
  <ellipse cx="180" cy="235" rx="95" ry="70" fill="#d4472a" stroke="#2d263c" stroke-width="8" stroke-linejoin="round"/>
  <!-- 体の腹側(明るいクリーム) -->
  <ellipse cx="180" cy="258" rx="62" ry="38" fill="#f6e2c4" stroke="#2d263c" stroke-width="6"/>
  <!-- 体の横縞模様 -->
  <path d="M110 220 Q180 240 250 220" stroke="#a8301b" stroke-width="6" fill="none" stroke-linecap="round"/>
  <!-- 顔: 目(丸くて黒) -->
  <circle cx="150" cy="220" r="14" fill="#2d263c"/>
  <circle cx="210" cy="220" r="14" fill="#2d263c"/>
  <circle cx="154" cy="216" r="4" fill="#fff"/>
  <circle cx="214" cy="216" r="4" fill="#fff"/>
  <!-- 口(小さい笑顔) -->
  <path d="M165 248 Q180 258 195 248" stroke="#2d263c" stroke-width="6" fill="none" stroke-linecap="round"/>
</svg>
