<svg xmlns="http://www.w3.org/2000/svg" viewBox="0 0 360 360">
  <ellipse cx="273" cy="248" rx="18" ry="26" fill="#f5ecd9" stroke="#2d263c" stroke-width="7" stroke-linejoin="round"/>
  <ellipse cx="135" cy="62" rx="22" ry="30" fill="#f5ecd9" stroke="#2d263c" stroke-width="7" stroke-linejoin="round"/>
  <ellipse cx="225" cy="62" rx="22" ry="30" fill="#f5ecd9" stroke="#2d263c" stroke-width="7" stroke-linejoin="round"/>
  <ellipse cx="135" cy="67" rx="10" ry="15" fill="#f0b8c4"/>
  <ellipse cx="225" cy="67" rx="10" ry="15" fill="#f0b8c4"/>
  <ellipse cx="140" cy="318" rx="30" ry="20" fill="#f5ecd9" stroke="#2d263c" stroke-width="7" stroke-linejoin="round"/>
  <ellipse cx="220" cy="318" rx="30" ry="20" fill="#f5ecd9" stroke="#2d263c" stroke-width="7" stroke-linejoin="round"/>
  <ellipse cx="85" cy="230" rx="28" ry="45" fill="#f5ecd9" stroke="#2d263c" stroke-width="7" stroke-linejoin="round"/>
  <ellipse cx="275" cy="230" rx="28" ry="45" fill="#f5ecd9" stroke="#2d263c" stroke-width="7" stroke-linejoin="round"/>
  <ellipse cx="180" cy="235" rx="95" ry="90" fill="#f5ecd9" stroke="#2d263c" stroke-width="8" stroke-linejoin="round"/>
  <circle cx="180" cy="120" r="78" fill="#f5ecd9" stroke="#2d263c" stroke-width="8"/>
  <path d="M120,190 q20,-15 40,-5 q10,18 -8,28 q-25,8 -32,-23 Z" fill="#4a3b32"/>
  <path d="M235,210 q22,-8 30,12 q4,20 -18,22 q-22,0 -22,-20 q0,-10 10,-14 Z" fill="#4a3b32"/>
  <path d="M150,78 q18,-10 30,4 q6,16 -12,20 q-20,2 -22,-14 q0,-6 4,-10 Z" fill="#4a3b32"/>
  <path d="M205,95 q14,-6 20,8 q2,14 -12,16 q-14,0 -14,-12 q0,-6 6,-12 Z" fill="#4a3b32"/>
  <circle cx="150" cy="115" r="20" fill="#ffffff" stroke="#2d263c" stroke-width="6"/>
  <circle cx="210" cy="115" r="20" fill="#ffffff" stroke="#2d263c" stroke-width="6"/>
  <path d="M150,115 q8,-8 0,-14 q-8,-6 -2,-12" fill="none" stroke="#2d263c" stroke-width="5" stroke-linecap="round"/>
  <path d="M210,115 q8,-8 0,-14 q-8,-6 -2,-12" fill="none" stroke="#2d263c" stroke-width="5" stroke-linecap="round"/>
  <ellipse cx="180" cy="150" rx="10" ry="7" fill="#e88a9a" stroke="#2d263c" stroke-width="4"/>
  <path d="M165,168 q15,12 30,0" fill="none" stroke="#2d263c" stroke-width="6" stroke-linecap="round"/>
  <ellipse cx="130" cy="140" rx="10" ry="6" fill="#f6b3bb" opacity="0.7"/>
  <ellipse cx="230" cy="140" rx="10" ry="6" fill="#f6b3bb" opacity="0.7"/>
</svg>
