<svg xmlns="http://www.w3.org/2000/svg" viewBox="0 0 360 360">
  <!-- ゴースト下半身(テール部分) -->
  <ellipse cx="180" cy="290" rx="38" ry="18" fill="#2B2040" stroke="#2d263c" stroke-width="6" stroke-linejoin="round"/>
  <!-- ゴーストの揺れる裾(左) -->
  <path d="M142 285 Q130 305 145 318 Q155 330 148 312 Q140 298 148 285Z" fill="#2B2040" stroke="#2d263c" stroke-width="5" stroke-linejoin="round" stroke-linecap="round"/>
  <!-- ゴーストの揺れる裾(右) -->
  <path d="M218 285 Q230 305 215 318 Q205 330 212 312 Q220 298 212 285Z" fill="#2B2040" stroke="#2d263c" stroke-width="5" stroke-linejoin="round" stroke-linecap="round"/>
  <!-- ゴーストの揺れる裾(中) -->
  <path d="M168 292 Q162 315 180 322 Q198 315 192 292Z" fill="#2B2040" stroke="#2d263c" stroke-width="5" stroke-linejoin="round" stroke-linecap="round"/>

  <!-- カボチャ本体(オレンジ) -->
  <ellipse cx="180" cy="220" rx="68" ry="58" fill="#F07A1A" stroke="#2d263c" stroke-width="7" stroke-linejoin="round"/>
  <!-- カボチャの稜線(縦筋)左 -->
  <path d="M148 175 Q138 220 148 265" fill="none" stroke="#C85A08" stroke-width="4" stroke-linecap="round"/>
  <!-- カボチャの稜線(縦筋)右 -->
  <path d="M212 175 Q222 220 212 265" fill="none" stroke="#C85A08" stroke-width="4" stroke-linecap="round"/>
  <!-- カボチャの稜線(縦筋)中左 -->
  <path d="M163 170 Q158 220 163 268" fill="none" stroke="#C85A08" stroke-width="3" stroke-linecap="round"/>
  <!-- カボチャの稜線(縦筋)中右 -->
  <path d="M197 170 Q202 220 197 268" fill="none" stroke="#C85A08" stroke-width="3" stroke-linecap="round"/>

  <!-- カボチャのヘタ(茎・緑) -->
  <path d="M176 168 Q174 152 180 142 Q186 152 184 168Z" fill="#4A9A1A" stroke="#2d263c" stroke-width="5" stroke-linejoin="round" stroke-linecap="round"/>
  <!-- 葉っぱ小 -->
  <path d="M180 148 Q168 138 162 144 Q170 148 176 155Z" fill="#4A9A1A" stroke="#2d263c" stroke-width="4" stroke-linejoin="round" stroke-linecap="round"/>

  <!-- ゴースト上半身(頭・カボチャの上) -->
  <ellipse cx="180" cy="175" rx="48" ry="42" fill="#2B2040" stroke="#2d263c" stroke-width="7" stroke-linejoin="round"/>
  <!-- ゴースト頭頂のとがり -->
  <path d="M168 138 Q180 118 192 138" fill="#2B2040" stroke="#2d263c" stroke-width="6" stroke-linejoin="round" stroke-linecap="round"/>

  <!-- 腕(左) -->
  <path d="M134 178 Q112 168 104 178 Q112 188 134 185" fill="#2B2040" stroke="#2d263c" stroke-width="6" stroke-linejoin="round" stroke-linecap="round"/>
  <!-- 手先(左) -->
  <ellipse cx="104" cy="178" rx="10" ry="8" fill="#2B2040" stroke="#2d263c" stroke-width="5"/>
  <!-- 腕(右) -->
  <path d="M226 178 Q248 168 256 178 Q248 188 226 185" fill="#2B2040" stroke="#2d263c" stroke-width="6" stroke-linejoin="round" stroke-linecap="round"/>
  <!-- 手先(右) -->
  <ellipse cx="256" cy="178" rx="10" ry="8" fill="#2B2040" stroke="#2d263c" stroke-width="5"/>

  <!-- ランタンの目(左)三角形くりぬき風 -->
  <polygon points="158,162 168,148 178,162" fill="#F5E642" stroke="#2d263c" stroke-width="3" stroke-linejoin="round"/>
  <!-- ランタンの目(右)三角形くりぬき風 -->
  <polygon points="182,162 192,148 202,162" fill="#F5E642" stroke="#2d263c" stroke-width="3" stroke-linejoin="round"/>
  <!-- 目の光(左) -->
  <ellipse cx="168" cy="158" rx="3" ry="3" fill="#FFFBAA"/>
  <!-- 目の光(右) -->
  <ellipse cx="192" cy="158" rx="3" ry="3" fill="#FFFBAA"/>

  <!-- ランタンの口(ギザギザ) -->
  <path d="M158,182 L163,175 L168,182 L173,174 L178,182 L183,174 L188,182 L193,175 L198,182" fill="none" stroke="#F5E642" stroke-width="4" stroke-linejoin="round" stroke-linecap="round"/>
  <!-- 口の輪郭 -->
  <path d="M158,182 Q178,192 198,182" fill="none" stroke="#F5E642" stroke-width="3" stroke-linejoin="round" stroke-linecap="round"/>
</svg>