<svg xmlns="http://www.w3.org/2000/svg" viewBox="0 0 360 360">
<g fill="none" stroke="#2d263c" stroke-width="7" stroke-linejoin="round" stroke-linecap="round">
<path fill="#e8c84a" d="M278 168 C306 158 318 174 310 192 C300 198 284 188 280 178 Z"/>
<path fill="#e8c84a" d="M250 208 C246 248 252 296 266 298 C280 296 278 254 272 214 Z"/>
<ellipse fill="#8a6a3a" cx="268" cy="300" rx="14" ry="8"/>
<path fill="#e8c84a" d="M286 208 C282 248 288 296 302 298 C314 296 312 254 306 214 Z"/>
<ellipse fill="#8a6a3a" cx="304" cy="300" rx="14" ry="8"/>
<path fill="#e8c84a" d="M160 168 C220 156 268 166 286 190 C288 208 274 218 250 216 C210 212 170 208 150 198 Z"/>
<path fill="#8a6a3a" stroke="none" d="M200 160 C240 152 270 160 278 178 C268 184 248 182 232 178 C214 174 200 168 200 160 Z"/>
<path fill="#e8c84a" d="M156 198 C152 246 158 296 174 298 C190 296 188 254 180 204 Z"/>
<ellipse fill="#8a6a3a" cx="176" cy="300" rx="14" ry="8"/>
<path fill="#e8c84a" d="M188 202 C184 248 190 296 206 298 C220 296 218 256 210 208 Z"/>
<ellipse fill="#8a6a3a" cx="208" cy="300" rx="14" ry="8"/>
<path fill="#e8c84a" d="M132 158 C116 172 108 204 118 230 C130 242 150 236 156 216 C156 194 150 172 138 158 Z"/>
<path fill="#5aa84a" d="M110 212 C124 222 146 222 156 212 C154 220 146 226 134 226 C122 226 114 220 110 212 Z"/>
<circle fill="#f5d04a" cx="134" cy="226" r="6"/>
<path fill="#e8c84a" d="M104 130 C92 100 96 76 116 80 C124 94 122 120 118 136 Z"/>
<path fill="#8a6a3a" stroke="none" d="M108 124 C102 104 106 90 114 92 C118 104 116 120 114 130 Z"/>
<path fill="#e8c84a" d="M134 124 C128 92 138 72 156 78 C160 92 154 120 148 134 Z"/>
<path fill="#8a6a3a" stroke="none" d="M136 120 C134 98 140 86 148 88 C150 100 146 116 144 128 Z"/>
<ellipse fill="#e8c84a" cx="112" cy="148" rx="42" ry="38"/>
<ellipse fill="#fff" cx="98" cy="144" rx="9" ry="12"/>
<ellipse fill="#2d263c" cx="96" cy="147" rx="5" ry="7"/>
<circle fill="#fff" stroke="none" cx="94" cy="142" r="2.5"/>
<ellipse fill="#2d263c" cx="80" cy="162" rx="7" ry="6"/>
<path d="M78 176 C86 182 94 182 100 176"/>
<path d="M80 178 L80 184"/>
</g>
</svg>
