<svg xmlns="http://www.w3.org/2000/svg" viewBox="0 0 360 360">
  <g stroke="#2d263c" stroke-width="7" stroke-linejoin="round" stroke-linecap="round">
    <path d="M262,195 C285,190 305,175 312,150 C316,130 310,112 298,108 C300,128 292,150 275,168 C266,178 260,188 262,195 Z" fill="#263257"/>
    <path d="M295,114 C305,98 320,84 330,90 C325,104 312,119 300,129 Z" fill="#d8f3f8"/>
    <path d="M253,204 C248,230 247,256 252,283 L270,283 C273,257 271,231 268,200 Z" fill="#202a4a"/>
    <path d="M250,281 L245,297 L262,293 L266,281 Z" fill="#bcdfe8"/>
    <path d="M222,210 C216,240 214,271 220,300 L244,300 C248,268 246,236 244,208 Z" fill="#263257"/>
    <path d="M218,298 L212,314 L230,310 L236,298 Z" fill="#cdeef5"/>
    <path d="M158,217 C153,241 152,265 157,288 L176,288 C178,262 176,238 174,215 Z" fill="#202a4a"/>
    <path d="M155,286 L150,300 L166,298 L170,286 Z" fill="#bcdfe8"/>
    <path d="M128,212 C122,241 120,270 126,298 L148,298 C150,268 148,238 145,210 Z" fill="#263257"/>
    <path d="M124,296 L118,312 L134,308 L140,296 Z" fill="#cdeef5"/>
    <path d="M130,166 C120,151 140,141 165,143 C210,139 260,141 275,161 C288,176 285,201 275,216 C260,231 220,236 180,233 C150,231 128,223 120,206 C112,191 118,176 130,166 Z" fill="#263257"/>
    <path d="M150,206 C160,221 200,226 235,221 C250,218 258,209 255,201 C230,213 190,213 160,201 Z" fill="#4d5c82"/>
    <path d="M140,151 C132,126 108,109 80,109 C55,109 38,123 35,146 C33,166 42,183 58,196 L50,216 C45,226 50,233 60,229 C72,224 80,211 88,201 C105,189 122,176 132,169 C138,165 141,159 140,151 Z" fill="#263257"/>
    <path d="M70,113 L60,81 L88,106 Z" fill="#263257"/>
    <path d="M95,111 L92,79 L112,109 Z" fill="#1c2645"/>
    <path d="M100,111 C95,86 105,56 130,39 C150,26 165,36 160,56 C155,76 140,96 122,113 C114,119 104,119 100,111 Z" fill="#d8f3f8"/>
    <path d="M115,101 C112,86 118,66 132,53 C142,45 148,51 144,63 C138,79 128,93 118,105 Z" fill="#a8dbe8"/>
    <path d="M85,191 C95,176 100,166 95,151 L110,169 L108,146 L125,166 L122,143 L138,163 C140,179 132,196 118,206 C105,214 92,206 85,191 Z" fill="#cdeef5"/>
    <path d="M55,206 C50,221 48,239 55,249 C62,237 65,219 66,205 Z" fill="#fbfbfb"/>
    <path d="M68,209 C64,223 63,237 68,245 C74,234 76,220 77,207 Z" fill="#f2f2f2"/>
    <path d="M95,176 L108,166 L100,186 Z" fill="#cdeef5"/>
    <path d="M135,156 L150,141 L145,169 Z" fill="#cdeef5"/>
    <path d="M270,166 L285,151 L278,179 Z" fill="#cdeef5"/>
  </g>
  <circle cx="68" cy="155" r="8" fill="#e6394a" stroke="#2d263c" stroke-width="6"/>
  <circle cx="71" cy="152" r="2.5" fill="#ffffff"/>
  <circle cx="36" cy="147" r="5" fill="#14101f"/>
</svg>
