<svg xmlns="http://www.w3.org/2000/svg" viewBox="0 0 360 360">
  <path d="M85,168 C85,85 125,38 180,38 C235,38 275,85 275,168 Z" fill="#d6432a" stroke="#2d263c" stroke-width="8" stroke-linejoin="round"/>
  <path d="M228,58 C253,80 268,120 266,158 C252,138 238,98 228,58 Z" fill="#b8331e"/>
  <ellipse cx="130" cy="95" rx="14" ry="10" fill="#fbeecb"/>
  <ellipse cx="195" cy="80" rx="13" ry="9" fill="#fbeecb"/>
  <ellipse cx="165" cy="125" rx="12" ry="9" fill="#fbeecb"/>
  <ellipse cx="230" cy="115" rx="11" ry="8" fill="#fbeecb"/>
  <ellipse cx="105" cy="140" rx="10" ry="8" fill="#fbeecb"/>
  <ellipse cx="180" cy="168" rx="95" ry="14" fill="#f3ddb0"/>
  <path d="M97,298 Q97,338 105,338 Q113,338 113,298 Z" fill="#b9834e" stroke="#2d263c" stroke-width="7" stroke-linejoin="round"/>
  <path d="M127,298 Q127,338 135,338 Q143,338 143,298 Z" fill="#b9834e" stroke="#2d263c" stroke-width="7" stroke-linejoin="round"/>
  <path d="M157,298 Q157,338 165,338 Q173,338 173,298 Z" fill="#b9834e" stroke="#2d263c" stroke-width="7" stroke-linejoin="round"/>
  <path d="M187,298 Q187,338 195,338 Q203,338 203,298 Z" fill="#b9834e" stroke="#2d263c" stroke-width="7" stroke-linejoin="round"/>
  <path d="M217,298 Q217,338 225,338 Q233,338 233,298 Z" fill="#b9834e" stroke="#2d263c" stroke-width="7" stroke-linejoin="round"/>
  <path d="M247,298 Q247,338 255,338 Q263,338 263,298 Z" fill="#b9834e" stroke="#2d263c" stroke-width="7" stroke-linejoin="round"/>
  <path d="M95,210 Q55,200 42,222 Q30,245 52,262 Q75,272 100,250 Q105,230 95,210 Z" fill="#cf9a5e" stroke="#2d263c" stroke-width="7" stroke-linejoin="round"/>
  <path d="M50,228 L68,242" fill="none" stroke="#2d263c" stroke-width="4" stroke-linecap="round"/>
  <path d="M265,210 Q305,200 318,222 Q330,245 308,262 Q285,272 260,250 Q255,230 265,210 Z" fill="#cf9a5e" stroke="#2d263c" stroke-width="7" stroke-linejoin="round"/>
  <path d="M310,228 L292,242" fill="none" stroke="#2d263c" stroke-width="4" stroke-linecap="round"/>
  <path d="M100,165 Q90,165 90,200 L90,255 Q90,300 130,305 L230,305 Q270,300 270,255 L270,200 Q270,165 260,165 Z" fill="#d2a06b" stroke="#2d263c" stroke-width="8" stroke-linejoin="round"/>
  <ellipse cx="180" cy="245" rx="50" ry="40" fill="#b98850"/>
  <ellipse cx="155" cy="195" rx="11" ry="13" fill="#ffffff" stroke="#2d263c" stroke-width="4"/>
  <ellipse cx="157" cy="197" rx="5" ry="6" fill="#1a1a1a"/>
  <ellipse cx="205" cy="195" rx="11" ry="13" fill="#ffffff" stroke="#2d263c" stroke-width="4"/>
  <ellipse cx="203" cy="197" rx="5" ry="6" fill="#1a1a1a"/>
  <path d="M165,218 Q172,228 180,218 Q188,228 195,218" fill="none" stroke="#2d263c" stroke-width="5" stroke-linecap="round"/>
</svg>
