<svg xmlns="http://www.w3.org/2000/svg" viewBox="0 0 360 360">
<g stroke="#2d263c" stroke-width="7" stroke-linejoin="round" stroke-linecap="round">
<ellipse cx="180" cy="326" rx="95" ry="7" fill="#000000" opacity="0.15" stroke="none"/>
<ellipse cx="130" cy="72" rx="17" ry="40" fill="#F4B942" transform="rotate(-16 130 72)"/>
<ellipse cx="230" cy="72" rx="17" ry="40" fill="#F4B942" transform="rotate(16 230 72)"/>
<ellipse cx="130" cy="76" rx="7" ry="24" fill="#E8744C" transform="rotate(-16 130 76)" stroke="none"/>
<ellipse cx="230" cy="76" rx="7" ry="24" fill="#E8744C" transform="rotate(16 230 76)" stroke="none"/>
<ellipse cx="180" cy="238" rx="80" ry="74" fill="#F4B942"/>
<circle cx="180" cy="146" r="76" fill="#F4B942"/>
<path d="M132 186 q48 40 96 0 q-6 34 -48 34 q-42 0 -48 -34Z" fill="#FBE9C8"/>
<circle cx="120" cy="162" r="17" fill="#E8744C"/>
<circle cx="240" cy="162" r="17" fill="#E8744C"/>
<ellipse cx="102" cy="224" rx="14" ry="26" fill="#F4B942" transform="rotate(-22 102 224)"/>
<ellipse cx="258" cy="224" rx="14" ry="26" fill="#F4B942" transform="rotate(22 258 224)"/>
<ellipse cx="150" cy="302" rx="21" ry="14" fill="#F4B942"/>
<ellipse cx="210" cy="302" rx="21" ry="14" fill="#F4B942"/>
<circle cx="150" cy="138" r="11" fill="#2d263c" stroke="none"/>
<circle cx="210" cy="138" r="11" fill="#2d263c" stroke="none"/>
<circle cx="154" cy="134" r="3.5" fill="#fff" stroke="none"/>
<circle cx="214" cy="134" r="3.5" fill="#fff" stroke="none"/>
<path d="M170 170 q10 10 20 0" fill="none" stroke="#2d263c" stroke-width="6"/>
<path d="M258 248 q26 -2 26 -26" fill="none" stroke="#2d263c" stroke-width="6"/>
</g>
</svg>