<svg xmlns="http://www.w3.org/2000/svg" viewBox="0 0 360 360">
<g stroke="#2d263c" stroke-width="7" stroke-linejoin="round" stroke-linecap="round">
<ellipse cx="180" cy="332" rx="100" ry="7" fill="#000000" opacity="0.15" stroke="none"/>
<ellipse cx="128" cy="66" rx="15" ry="44" fill="#F2B83E" transform="rotate(-14 128 66)"/>
<ellipse cx="232" cy="66" rx="15" ry="44" fill="#F2B83E" transform="rotate(14 232 66)"/>
<ellipse cx="126" cy="48" rx="11" ry="22" fill="#C9853F" transform="rotate(-14 126 48)" stroke="none"/>
<ellipse cx="234" cy="48" rx="11" ry="22" fill="#C9853F" transform="rotate(14 234 48)" stroke="none"/>
<path d="M160 78 q20 -16 40 0 q4 20 -20 20 q-24 0 -20 -20Z" fill="#C9853F" stroke="none"/>
<ellipse cx="180" cy="238" rx="76" ry="82" fill="#F2B83E"/>
<ellipse cx="180" cy="256" rx="44" ry="56" fill="#F7EFD9" stroke="none"/>
<circle cx="180" cy="120" r="60" fill="#F2B83E"/>
<ellipse cx="180" cy="134" rx="32" ry="24" fill="#F7EFD9" stroke="none"/>
<ellipse cx="104" cy="222" rx="14" ry="30" fill="#F2B83E" transform="rotate(-26 104 222)"/>
<ellipse cx="256" cy="222" rx="14" ry="30" fill="#F2B83E" transform="rotate(26 256 222)"/>
<ellipse cx="144" cy="308" rx="28" ry="16" fill="#F2B83E"/>
<ellipse cx="216" cy="308" rx="28" ry="16" fill="#F2B83E"/>
<circle cx="160" cy="118" r="10" fill="#2d263c" stroke="none"/>
<circle cx="200" cy="118" r="10" fill="#2d263c" stroke="none"/>
<circle cx="163" cy="114" r="3" fill="#fff" stroke="none"/>
<circle cx="203" cy="114" r="3" fill="#fff" stroke="none"/>
<circle cx="180" cy="138" r="3.5" fill="#2d263c" stroke="none"/>
<path d="M168 150 q12 12 24 0" fill="none" stroke="#2d263c" stroke-width="6"/>
</g>
</svg>