<svg xmlns="http://www.w3.org/2000/svg" viewBox="0 0 360 360">
  <!-- tail -->
  <path d="M235 250 Q270 255 268 285 Q262 300 245 292 Q240 270 225 255 Z" fill="#3f6fc4" stroke="#2d263c" stroke-width="7" stroke-linejoin="round" stroke-linecap="round"/>

  <!-- back leg (small, blue, dino-like) -->
  <path d="M205 275 Q198 305 190 320 L222 320 Q228 300 224 275 Z" fill="#3f6fc4" stroke="#2d263c" stroke-width="7" stroke-linejoin="round" stroke-linecap="round"/>
  <path d="M188 318 Q186 330 200 330 L222 330 Q224 320 220 318 Z" fill="#cfe6ff" stroke="#2d263c" stroke-width="6" stroke-linejoin="round"/>

  <!-- front leg -->
  <path d="M140 275 Q133 305 126 320 L158 320 Q163 300 160 275 Z" fill="#3f6fc4" stroke="#2d263c" stroke-width="7" stroke-linejoin="round" stroke-linecap="round"/>
  <path d="M124 318 Q122 330 136 330 L158 330 Q160 320 156 318 Z" fill="#cfe6ff" stroke="#2d263c" stroke-width="6" stroke-linejoin="round"/>

  <!-- big fluffy orange body -->
  <path d="M115 160 Q95 220 130 265 Q165 300 200 280 Q245 255 245 200 Q245 140 195 115 Q140 100 115 160 Z"
        fill="#f2942f" stroke="#2d263c" stroke-width="8" stroke-linejoin="round"/>

  <!-- fluff tufts on body -->
  <path d="M118 175 Q108 168 108 155" fill="none" stroke="#2d263c" stroke-width="5" stroke-linecap="round"/>
  <path d="M230 175 Q242 168 244 152" fill="none" stroke="#2d263c" stroke-width="5" stroke-linecap="round"/>

  <!-- cream belly patch -->
  <path d="M150 195 Q145 235 175 255 Q205 265 215 235 Q220 205 195 190 Q170 178 150 195 Z"
        fill="#fff3d6" stroke="#2d263c" stroke-width="6" stroke-linejoin="round"/>

  <!-- small nub arm left -->
  <path d="M112 195 Q90 200 80 215 Q92 222 105 212 Z" fill="#f2942f" stroke="#2d263c" stroke-width="6" stroke-linejoin="round"/>

  <!-- small nub arm right -->
  <path d="M248 195 Q270 200 280 215 Q268 222 255 212 Z" fill="#f2942f" stroke="#2d263c" stroke-width="6" stroke-linejoin="round"/>

  <!-- head -->
  <circle cx="180" cy="120" r="62" fill="#f2942f" stroke="#2d263c" stroke-width="8"/>

  <!-- head fluff / lightning tuft -->
  <path d="M180 60 Q168 30 188 15 Q178 40 195 45 Q210 30 205 55 Q200 68 182 65 Z"
        fill="#ffd93f" stroke="#2d263c" stroke-width="6" stroke-linejoin="round"/>

  <!-- cheek fluff -->
  <path d="M120 130 Q100 125 95 108" fill="none" stroke="#2d263c" stroke-width="5" stroke-linecap="round"/>
  <path d="M240 130 Q260 125 265 108" fill="none" stroke="#2d263c" stroke-width="5" stroke-linecap="round"/>

  <!-- big round eyes -->
  <circle cx="158" cy="118" r="17" fill="#fff8ea" stroke="#2d263c" stroke-width="5"/>
  <circle cx="203" cy="118" r="17" fill="#fff8ea" stroke="#2d263c" stroke-width="5"/>
  <circle cx="161" cy="121" r="7" fill="#2d263c"/>
  <circle cx="206" cy="121" r="7" fill="#2d263c"/>

  <!-- small beak -->
  <path d="M172 142 Q180 152 188 142 Q180 148 172 142 Z" fill="#3f6fc4" stroke="#2d263c" stroke-width="5" stroke-linejoin="round"/>

  <!-- ice crystal on chest -->
  <path d="M180 210 L188 225 L180 240 L172 225 Z" fill="#a9d8ff" stroke="#2d263c" stroke-width="5" stroke-linejoin="round"/>
</svg>
