<svg xmlns="http://www.w3.org/2000/svg" viewBox="0 0 360 360">

  <!-- ツル(後ろ) -->
  <path d="M178 78 Q165 55 150 42 Q138 32 145 25 Q155 18 162 30 Q170 48 175 68" fill="#3A7D44" stroke="#2d263c" stroke-width="6" stroke-linecap="round" stroke-linejoin="round"/>

  <!-- 葉っぱ左 -->
  <path d="M163 48 Q140 28 125 35 Q118 50 140 58 Q155 62 163 52 Z" fill="#4CAF50" stroke="#2d263c" stroke-width="5" stroke-linecap="round" stroke-linejoin="round"/>
  <!-- 葉っぱ右 -->
  <path d="M172 44 Q195 22 210 30 Q215 45 196 54 Q180 60 173 48 Z" fill="#4CAF50" stroke="#2d263c" stroke-width="5" stroke-linecap="round" stroke-linejoin="round"/>

  <!-- ゴースト頭部(体の後ろ側・影) -->
  <ellipse cx="182" cy="120" rx="52" ry="58" fill="#3a4455" stroke="none"/>

  <!-- カボチャ本体(でかい・ゆがみ気味) -->
  <path d="M65 205 Q58 160 80 138 Q105 115 180 112 Q258 112 283 138 Q305 162 298 208 Q295 250 275 272 Q250 295 182 298 Q112 298 88 272 Q62 248 65 205 Z" fill="#E07030" stroke="#2d263c" stroke-width="8" stroke-linecap="round" stroke-linejoin="round"/>

  <!-- カボチャの縦リブ(筋) -->
  <path d="M130 120 Q118 200 128 285" fill="none" stroke="#C05820" stroke-width="5" stroke-linecap="round"/>
  <path d="M157 114 Q148 200 152 295" fill="none" stroke="#C05820" stroke-width="5" stroke-linecap="round"/>
  <path d="M182 112 Q182 200 182 298" fill="none" stroke="#C05820" stroke-width="5" stroke-linecap="round"/>
  <path d="M207 114 Q216 200 210 295" fill="none" stroke="#C05820" stroke-width="5" stroke-linecap="round"/>
  <path d="M232 120 Q244 200 234 285" fill="none" stroke="#C05820" stroke-width="5" stroke-linecap="round"/>

  <!-- ゴースト頭部 -->
  <path d="M135 148 Q128 108 138 90 Q152 68 182 67 Q213 66 226 90 Q236 110 230 148" fill="#5B6880" stroke="#2d263c" stroke-width="7" stroke-linecap="round" stroke-linejoin="round"/>

  <!-- ゴーストの耳みたいなとんがり -->
  <path d="M138 108 Q128 82 118 72 Q125 68 140 88 Z" fill="#5B6880" stroke="#2d263c" stroke-width="5" stroke-linecap="round" stroke-linejoin="round"/>
  <path d="M226 105 Q236 79 246 70 Q238 67 224 88 Z" fill="#5B6880" stroke="#2d263c" stroke-width="5" stroke-linecap="round" stroke-linejoin="round"/>

  <!-- ゴーストの目(白目) -->
  <ellipse cx="162" cy="105" rx="14" ry="15" fill="white" stroke="#2d263c" stroke-width="4"/>
  <ellipse cx="202" cy="104" rx="13" ry="15" fill="white" stroke="#2d263c" stroke-width="4"/>
  <!-- 瞳 -->
  <ellipse cx="165" cy="107" rx="8" ry="10" fill="#1a1a2e"/>
  <ellipse cx="204" cy="106" rx="7" ry="10" fill="#1a1a2e"/>
  <!-- ハイライト -->
  <circle cx="168" cy="103" r="3" fill="white"/>
  <circle cx="207" cy="102" r="3" fill="white"/>

  <!-- ゴーストの口(ニヤリ) -->
  <path d="M158 122 Q170 132 182 128 Q196 132 208 122" fill="none" stroke="#2d263c" stroke-width="5" stroke-linecap="round"/>

  <!-- カボチャの三角目(左) -->
  <path d="M112 188 L130 165 L148 188 Z" fill="#1a1a00" stroke="#2d263c" stroke-width="4" stroke-linejoin="round"/>
  <!-- カボチャの三角目(右) -->
  <path d="M215 188 L233 165 L250 188 Z" fill="#1a1a00" stroke="#2d263c" stroke-width="4" stroke-linejoin="round"/>

  <!-- カボチャのギザギザ口 -->
  <path d="M118 225 L138 208 L153 225 L168 208 L183 225 L198 208 L213 225 L228 208 L246 225 Q240 258 182 262 Q122 258 118 225 Z" fill="#1a1a00" stroke="#2d263c" stroke-width="5" stroke-linejoin="round" stroke-linecap="round"/>
  <!-- 口の中(明るい) -->
  <path d="M132 228 L145 218 L157 230 L170 218 L182 230 L196 218 L208 230 L220 218 L234 228 Q228 252 182 254 Q136 252 132 228 Z" fill="#7B3A0A"/>

  <!-- カボチャ底の出っぱり(かわいい) -->
  <path d="M160 296 Q182 310 204 296" fill="none" stroke="#2d263c" stroke-width="6" stroke-linecap="round"/>

  <!-- ほっぺ(かわいい赤み) -->
  <ellipse cx="106" cy="225" rx="18" ry="12" fill="#FF7755" opacity="0.45"/>
  <ellipse cx="258" cy="225" rx="18" ry="12" fill="#FF7755" opacity="0.45"/>

</svg>