<svg xmlns="http://www.w3.org/2000/svg" viewBox="0 0 360 360">
<g stroke="#2d263c" stroke-width="7" stroke-linejoin="round" stroke-linecap="round">
<ellipse cx="180" cy="332" rx="108" ry="7" fill="#000000" opacity="0.15" stroke="none"/>
<ellipse cx="126" cy="72" rx="13" ry="44" fill="#A9703F" transform="rotate(-12 126 72)"/>
<ellipse cx="234" cy="72" rx="13" ry="44" fill="#A9703F" transform="rotate(12 234 72)"/>
<ellipse cx="126" cy="56" rx="8" ry="22" fill="#7E4F2A" transform="rotate(-12 126 56)" stroke="none"/>
<ellipse cx="234" cy="56" rx="8" ry="22" fill="#7E4F2A" transform="rotate(12 234 56)" stroke="none"/>
<ellipse cx="180" cy="240" rx="78" ry="80" fill="#A9703F"/>
<ellipse cx="180" cy="236" rx="48" ry="58" fill="#F5F0E6" stroke="none"/>
<circle cx="150" cy="186" r="15" fill="#F5F0E6" stroke="none"/>
<circle cx="180" cy="178" r="17" fill="#F5F0E6" stroke="none"/>
<circle cx="210" cy="186" r="15" fill="#F5F0E6" stroke="none"/>
<circle cx="180" cy="124" r="58" fill="#A9703F"/>
<ellipse cx="180" cy="140" rx="32" ry="24" fill="#F5F0E6" stroke="none"/>
<ellipse cx="104" cy="218" rx="15" ry="32" fill="#A9703F" transform="rotate(-28 104 218)"/>
<ellipse cx="256" cy="218" rx="15" ry="32" fill="#A9703F" transform="rotate(28 256 218)"/>
<ellipse cx="142" cy="308" rx="30" ry="18" fill="#A9703F"/>
<ellipse cx="218" cy="308" rx="30" ry="18" fill="#A9703F"/>
<circle cx="120" cy="312" r="4" fill="#7E4F2A" stroke="none"/>
<circle cx="142" cy="318" r="4" fill="#7E4F2A" stroke="none"/>
<circle cx="164" cy="312" r="4" fill="#7E4F2A" stroke="none"/>
<circle cx="196" cy="312" r="4" fill="#7E4F2A" stroke="none"/>
<circle cx="218" cy="318" r="4" fill="#7E4F2A" stroke="none"/>
<circle cx="240" cy="312" r="4" fill="#7E4F2A" stroke="none"/>
<circle cx="158" cy="120" r="10" fill="#2d263c" stroke="none"/>
<circle cx="202" cy="120" r="10" fill="#2d263c" stroke="none"/>
<circle cx="161" cy="116" r="3" fill="#fff" stroke="none"/>
<circle cx="205" cy="116" r="3" fill="#fff" stroke="none"/>
<path d="M170 142 q10 10 20 0" fill="none" stroke="#2d263c" stroke-width="6"/>
</g>
</svg>