<svg xmlns="http://www.w3.org/2000/svg" viewBox="0 0 360 360">
<g stroke="#2d263c" stroke-width="7" stroke-linejoin="round" stroke-linecap="round">
<ellipse cx="180" cy="313" rx="95" ry="7" fill="#000000" opacity="0.15" stroke="none"/>
<path d="M120 85 q-32 8 -34 42 q-2 24 18 26 q18 -4 22 -30 q2 -30 -6 -38Z" fill="#F3E4B0"/>
<path d="M240 85 q32 8 34 42 q2 24 -18 26 q-18 -4 -22 -30 q-2 -30 6 -38Z" fill="#F3E4B0"/>
<ellipse cx="180" cy="227" rx="74" ry="64" fill="#F3E4B0"/>
<circle cx="180" cy="127" r="64" fill="#F3E4B0"/>
<ellipse cx="180" cy="149" rx="30" ry="22" fill="#FBF3D8" stroke="none"/>
<path d="M148 93 q12 -8 22 0" fill="none" stroke="#D9C27E" stroke-width="6"/>
<path d="M190 93 q12 -8 22 0" fill="none" stroke="#D9C27E" stroke-width="6"/>
<ellipse cx="146" cy="283" rx="13" ry="20" fill="#F3E4B0"/>
<ellipse cx="214" cy="283" rx="13" ry="20" fill="#F3E4B0"/>
<circle cx="156" cy="121" r="9" fill="#2d263c" stroke="none"/>
<circle cx="204" cy="121" r="9" fill="#2d263c" stroke="none"/>
<circle cx="159" cy="117" r="3" fill="#fff" stroke="none"/>
<circle cx="207" cy="117" r="3" fill="#fff" stroke="none"/>
<ellipse cx="180" cy="143" rx="6" ry="4.5" fill="#2d263c" stroke="none"/>
<path d="M180 151 q0 12 -10 14" fill="none" stroke="#2d263c" stroke-width="6"/>
<path d="M180 151 q0 12 10 14" fill="none" stroke="#2d263c" stroke-width="6"/>
<path d="M250 215 q24 -8 32 8 q-10 -2 -16 6" fill="#F3E4B0"/>
</g>
</svg>