<svg xmlns="http://www.w3.org/2000/svg" viewBox="0 0 360 360">
  <!-- 髪(腕)左後ろ -->
  <path d="M120 200 Q70 210 55 260 Q48 290 65 310 Q58 280 75 260 Q90 240 110 230" fill="#1e1030" stroke="#2d263c" stroke-width="7" stroke-linejoin="round" stroke-linecap="round"/>
  <!-- 髪(腕)右後ろ -->
  <path d="M240 200 Q295 215 308 268 Q315 295 300 318 Q305 285 288 262 Q272 240 252 228" fill="#1e1030" stroke="#2d263c" stroke-width="7" stroke-linejoin="round" stroke-linecap="round"/>

  <!-- かぼちゃ胴体 -->
  <ellipse cx="182" cy="238" rx="88" ry="74" fill="#e07020" stroke="#2d263c" stroke-width="8" stroke-linejoin="round"/>
  <!-- かぼちゃの溝(縦線) -->
  <path d="M182 168 Q168 195 166 238 Q166 278 182 310" fill="none" stroke="#b85518" stroke-width="5" stroke-linecap="round"/>
  <path d="M182 168 Q196 195 198 238 Q198 278 182 310" fill="none" stroke="#b85518" stroke-width="5" stroke-linecap="round"/>
  <path d="M148 175 Q132 200 130 240 Q130 275 148 305" fill="none" stroke="#b85518" stroke-width="4" stroke-linecap="round"/>
  <path d="M216 175 Q232 200 234 240 Q234 275 216 305" fill="none" stroke="#b85518" stroke-width="4" stroke-linecap="round"/>

  <!-- ヘタ(茎) -->
  <path d="M170 172 Q164 150 158 138 Q168 142 178 148" fill="#4a8c20" stroke="#2d263c" stroke-width="7" stroke-linejoin="round" stroke-linecap="round"/>
  <path d="M194 170 Q200 148 205 135 Q196 140 186 147" fill="#4a8c20" stroke="#2d263c" stroke-width="7" stroke-linejoin="round" stroke-linecap="round"/>
  <ellipse cx="182" cy="172" rx="18" ry="10" fill="#5aaa28" stroke="#2d263c" stroke-width="7"/>

  <!-- 頭(魔女帽子型・暗紫黒) -->
  <path d="M145 172 Q138 148 128 122 Q118 94 122 68 Q135 48 155 38 Q170 28 182 30 Q196 28 210 38 Q224 50 226 70 Q228 96 220 122 Q212 148 218 172 Z" fill="#2a1545" stroke="#2d263c" stroke-width="8" stroke-linejoin="round"/>
  <!-- 帽子のつば -->
  <ellipse cx="182" cy="173" rx="44" ry="13" fill="#2a1545" stroke="#2d263c" stroke-width="7"/>
  <!-- 帽子の先のカール -->
  <path d="M182 30 Q190 20 200 18 Q212 16 214 26 Q212 18 202 22 Q194 26 188 34" fill="#2a1545" stroke="#2d263c" stroke-width="6" stroke-linecap="round"/>

  <!-- 帽子のリボン/帯(かぼちゃ色) -->
  <path d="M150 138 Q182 143 214 138 Q214 148 182 152 Q150 148 150 138 Z" fill="#e07020" stroke="#2d263c" stroke-width="5"/>

  <!-- 顔の目(三角→三日月型) 左 -->
  <path d="M152 208 L160 196 L168 208 Z" fill="#ffe040" stroke="#2d263c" stroke-width="4"/>
  <!-- 顔の目 右 -->
  <path d="M196 208 L204 196 L212 208 Z" fill="#ffe040" stroke="#2d263c" stroke-width="4"/>
  <!-- 目の光絞り -->
  <ellipse cx="160" cy="204" rx="5" ry="7" fill="#fffa60" stroke="none"/>
  <ellipse cx="204" cy="204" rx="5" ry="7" fill="#fffa60" stroke="none"/>

  <!-- 口(ギザギザ) -->
  <path d="M156 228 L162 218 L168 228 L174 218 L180 228 L186 218 L192 228 L198 218 L204 228" fill="none" stroke="#2d263c" stroke-width="6" stroke-linejoin="round" stroke-linecap="round"/>
  <!-- 口の中(暗い) -->
  <path d="M156 228 L162 218 L168 228 L174 218 L180 228 L186 218 L192 228 L198 218 L204 228 L204 238 Q180 244 156 238 Z" fill="#1a0a2e" stroke="#2d263c" stroke-width="5" stroke-linejoin="round"/>

  <!-- 髪(腕)左前 -->
  <path d="M128 210 Q88 225 72 272 Q65 298 78 322" fill="none" stroke="#2d263c" stroke-width="9" stroke-linecap="round"/>
  <path d="M128 210 Q88 225 72 272 Q65 298 78 322" fill="#1e1030" stroke="#2d263c" stroke-width="8" stroke-linecap="round"/>

  <!-- 髪(腕)右前 -->
  <path d="M236 210 Q278 228 292 275 Q298 300 285 324" fill="none" stroke="#2d263c" stroke-width="9" stroke-linecap="round"/>
  <path d="M236 210 Q278 228 292 275 Q298 300 285 324" fill="#1e1030" stroke="#2d263c" stroke-width="8" stroke-linecap="round"/>

  <!-- 小さな葉っぱ(ヘタの飾り) -->
  <path d="M160 155 Q148 140 150 128 Q162 135 164 148 Z" fill="#5aaa28" stroke="#2d263c" stroke-width="5" stroke-linejoin="round"/>
  <path d="M204 155 Q216 140 214 128 Q202 135 200 148 Z" fill="#5aaa28" stroke="#2d263c" stroke-width="5" stroke-linejoin="round"/>
</svg>