<svg xmlns="http://www.w3.org/2000/svg" viewBox="0 0 360 360">
  <!-- しっぽ(後ろ) -->
  <path d="M 232 300 C 202 262 196 200 222 150 C 244 104 278 68 312 84 C 338 98 324 150 298 186 C 272 220 252 260 246 306 Z"
        fill="#5fb8e6" stroke="#2d263c" stroke-width="8" stroke-linejoin="round" stroke-linecap="round"/>
  <circle cx="302" cy="96" r="46" fill="#5fb8e6" stroke="#2d263c" stroke-width="8"/>
  <ellipse cx="252" cy="238" rx="17" ry="42" transform="rotate(-52 252 238)" fill="#fdf9ef" stroke="#2d263c" stroke-width="5" stroke-linejoin="round"/>
  <ellipse cx="276" cy="168" rx="15" ry="38" transform="rotate(-38 276 168)" fill="#fdf9ef" stroke="#2d263c" stroke-width="5" stroke-linejoin="round"/>
  <ellipse cx="296" cy="108" rx="20" ry="24" fill="#2d263c"/>

  <!-- 体 -->
  <ellipse cx="180" cy="252" rx="90" ry="80" fill="#fdf9ef" stroke="#2d263c" stroke-width="8"/>

  <!-- 背中の青い模様 -->
  <path d="M 176 190 Q 206 236 176 292 Q 146 236 176 190 Z" fill="#5fb8e6" stroke="#2d263c" stroke-width="6" stroke-linejoin="round"/>

  <!-- 頭 -->
  <circle cx="176" cy="140" r="70" fill="#fdf9ef" stroke="#2d263c" stroke-width="8"/>

  <!-- 耳 -->
  <path d="M 130 108 Q 108 60 122 32 Q 150 46 152 100 Z" fill="#5fb8e6" stroke="#2d263c" stroke-width="7" stroke-linejoin="round"/>
  <path d="M 222 108 Q 244 60 230 32 Q 202 46 200 100 Z" fill="#5fb8e6" stroke="#2d263c" stroke-width="7" stroke-linejoin="round"/>
  <ellipse cx="122" cy="38" rx="12" ry="16" fill="#2d263c"/>
  <ellipse cx="230" cy="38" rx="12" ry="16" fill="#2d263c"/>

  <!-- 前足 -->
  <ellipse cx="102" cy="272" rx="24" ry="32" fill="#fdf9ef" stroke="#2d263c" stroke-width="7"/>
  <ellipse cx="258" cy="272" rx="24" ry="32" fill="#fdf9ef" stroke="#2d263c" stroke-width="7"/>

  <!-- 足 -->
  <ellipse cx="148" cy="326" rx="27" ry="20" fill="#fdf9ef" stroke="#2d263c" stroke-width="7"/>
  <ellipse cx="212" cy="326" rx="27" ry="20" fill="#fdf9ef" stroke="#2d263c" stroke-width="7"/>

  <!-- ほっぺ -->
  <ellipse cx="128" cy="172" rx="17" ry="10" fill="#ffd0d6" opacity="0.7"/>
  <ellipse cx="224" cy="172" rx="17" ry="10" fill="#ffd0d6" opacity="0.7"/>

  <!-- 目 -->
  <circle cx="148" cy="148" r="15" fill="#2d263c"/>
  <circle cx="204" cy="148" r="15" fill="#2d263c"/>
  <circle cx="153" cy="142" r="5" fill="#fff"/>
  <circle cx="209" cy="142" r="5" fill="#fff"/>

  <!-- 鼻・口 -->
  <ellipse cx="176" cy="170" rx="6" ry="5" fill="#2d263c"/>
  <path d="M 160 186 Q 176 198 192 186" fill="none" stroke="#2d263c" stroke-width="6" stroke-linecap="round"/>
</svg>
