<svg xmlns="http://www.w3.org/2000/svg" viewBox="0 0 360 360">
  <!-- ゴーストのしっぽ（後ろ） -->
  <path d="M155 290 Q140 320 150 345 Q160 355 170 340 Q175 360 185 345 Q190 360 200 345 Q210 360 215 340 Q225 355 220 320 Q215 295 210 285" fill="#2a1a50" stroke="#2d263c" stroke-width="7" stroke-linejoin="round" stroke-linecap="round"/>

  <!-- 左腕 -->
  <path d="M135 210 Q100 200 80 220 Q70 240 90 250 Q75 255 80 270 Q90 278 105 265 Q110 280 125 272" fill="#2a1a50" stroke="#2d263c" stroke-width="7" stroke-linejoin="round" stroke-linecap="round"/>

  <!-- 右腕 -->
  <path d="M230 215 Q265 200 285 218 Q298 238 278 250 Q295 253 292 268 Q282 278 267 265 Q262 278 248 272" fill="#2a1a50" stroke="#2d263c" stroke-width="7" stroke-linejoin="round" stroke-linecap="round"/>

  <!-- カボチャ本体（溝あり・デコボコ） -->
  <path d="M110 240 Q105 190 115 165 Q130 140 155 135 Q165 130 180 132 Q195 130 205 135 Q230 142 242 168 Q252 192 248 242 Q242 268 220 278 Q200 285 180 284 Q158 284 140 274 Q118 262 110 240Z" fill="#E8751A" stroke="#2d263c" stroke-width="8" stroke-linejoin="round"/>

  <!-- カボチャの溝（縦スジ） -->
  <path d="M180 135 Q175 180 178 284" fill="none" stroke="#C05A0A" stroke-width="4" stroke-linecap="round"/>
  <path d="M155 138 Q148 182 148 278" fill="none" stroke="#C05A0A" stroke-width="3" stroke-linecap="round"/>
  <path d="M205 138 Q212 182 213 278" fill="none" stroke="#C05A0A" stroke-width="3" stroke-linecap="round"/>
  <path d="M133 155 Q124 195 128 265" fill="none" stroke="#C05A0A" stroke-width="3" stroke-linecap="round"/>
  <path d="M228 158 Q238 198 234 268" fill="none" stroke="#C05A0A" stroke-width="3" stroke-linecap="round"/>

  <!-- ゴーストの頭部（カボチャの上） -->
  <path d="M132 175 Q128 135 138 108 Q148 80 168 68 Q180 60 192 68 Q212 80 222 108 Q232 136 228 175" fill="#2a1a50" stroke="#2d263c" stroke-width="8" stroke-linejoin="round"/>

  <!-- 頭頂部のでっぱり（不規則にゆらゆら） -->
  <path d="M148 90 Q145 68 155 52 Q162 40 168 38 Q158 52 162 70" fill="#2a1a50" stroke="#2d263c" stroke-width="6" stroke-linejoin="round" stroke-linecap="round"/>
  <path d="M175 82 Q172 58 180 42 Q188 28 192 30 Q184 46 188 68" fill="#2a1a50" stroke="#2d263c" stroke-width="6" stroke-linejoin="round" stroke-linecap="round"/>
  <path d="M200 86 Q202 62 212 50 Q218 42 220 46 Q214 56 216 74" fill="#2a1a50" stroke="#2d263c" stroke-width="6" stroke-linejoin="round" stroke-linecap="round"/>

  <!-- ゴーストの目（白い丸） -->
  <ellipse cx="163" cy="118" rx="14" ry="16" fill="white" stroke="#2d263c" stroke-width="5"/>
  <ellipse cx="197" cy="116" rx="13" ry="15" fill="white" stroke="#2d263c" stroke-width="5"/>
  <!-- 瞳 -->
  <ellipse cx="166" cy="120" rx="7" ry="9" fill="#2a1a50"/>
  <ellipse cx="200" cy="118" rx="6" ry="8" fill="#2a1a50"/>
  <!-- ハイライト -->
  <circle cx="169" cy="117" r="3" fill="white"/>
  <circle cx="203" cy="115" r="2.5" fill="white"/>

  <!-- カボチャの顔（くりぬき風） -->
  <!-- 三角の目（左） -->
  <path d="M143 198 L155 178 L167 198Z" fill="#F5D020" stroke="#2d263c" stroke-width="4" stroke-linejoin="round"/>
  <!-- 三角の目（右） -->
  <path d="M193 196 L207 176 L219 196Z" fill="#F5D020" stroke="#2d263c" stroke-width="4" stroke-linejoin="round"/>
  <!-- ギザギザ口 -->
  <path d="M143 228 L150 218 L158 230 L167 216 L176 232 L185 216 L194 232 L203 218 L210 230 L217 220 L222 230" fill="none" stroke="#F5D020" stroke-width="5" stroke-linejoin="round" stroke-linecap="round"/>

  <!-- ヘタ（緑） -->
  <path d="M172 134 Q175 118 170 108 Q176 120 182 108 Q178 120 185 134" fill="#5A8C2A" stroke="#2d263c" stroke-width="5" stroke-linejoin="round" stroke-linecap="round"/>
  <ellipse cx="178" cy="134" rx="10" ry="6" fill="#5A8C2A" stroke="#2d263c" stroke-width="5"/>
</svg>