<svg xmlns="http://www.w3.org/2000/svg" viewBox="0 0 360 360">
  <ellipse cx="180" cy="300" rx="55" ry="24" fill="#e8d4a0" stroke="#2d263c" stroke-width="7"/>
  <ellipse cx="180" cy="195" rx="88" ry="98" fill="#f7ecd0" stroke="#2d263c" stroke-width="8" stroke-linejoin="round"/>
  <ellipse cx="90" cy="210" rx="28" ry="40" fill="#e8d4a0" stroke="#2d263c" stroke-width="7" transform="rotate(-20 90 210)"/>
  <ellipse cx="270" cy="210" rx="28" ry="40" fill="#e8d4a0" stroke="#2d263c" stroke-width="7" transform="rotate(20 270 210)"/>
  <path d="M150 105 C130 70 140 40 175 45 C160 60 165 85 180 100 Z" fill="#a8393f" stroke="#2d263c" stroke-width="7" stroke-linejoin="round"/>
  <path d="M185 100 C190 65 215 45 235 55 C215 60 205 80 200 105 Z" fill="#c24b4f" stroke="#2d263c" stroke-width="7" stroke-linejoin="round"/>
  <path d="M170 95 C175 60 200 35 220 42 C200 50 195 75 190 100 Z" fill="#a8393f" stroke="#2d263c" stroke-width="7" stroke-linejoin="round"/>
  <ellipse cx="128" cy="220" rx="14" ry="9" fill="#f3b8a0"/>
  <ellipse cx="232" cy="220" rx="14" ry="9" fill="#f3b8a0"/>
  <circle cx="150" cy="185" r="20" fill="#2d263c"/>
  <circle cx="210" cy="185" r="20" fill="#2d263c"/>
  <circle cx="156" cy="178" r="6" fill="#ffffff"/>
  <circle cx="216" cy="178" r="6" fill="#ffffff"/>
  <path d="M168 210 L192 210 L180 226 Z" fill="#e8892f" stroke="#2d263c" stroke-width="6" stroke-linejoin="round"/>
  <path d="M155 288 L150 320" fill="none" stroke="#e8892f" stroke-width="9" stroke-linecap="round"/>
  <path d="M205 288 L210 320" fill="none" stroke="#e8892f" stroke-width="9" stroke-linecap="round"/>
  <ellipse cx="145" cy="325" rx="16" ry="8" fill="#e8892f" stroke="#2d263c" stroke-width="6"/>
  <ellipse cx="215" cy="325" rx="16" ry="8" fill="#e8892f" stroke="#2d263c" stroke-width="6"/>
</svg>
