<svg xmlns="http://www.w3.org/2000/svg" viewBox="0 0 360 360">
  <!-- しっぽの炎(後ろ) -->
  <path d="M270 250 Q320 235 305 195 Q330 210 320 165 Q300 175 295 200 Q280 205 270 250 Z" fill="#FFCC33" stroke="#2d263c" stroke-width="6" stroke-linejoin="round" stroke-linecap="round"/>
  <path d="M283 232 Q308 222 300 200" fill="none" stroke="#FF7A1A" stroke-width="6" stroke-linecap="round"/>

  <!-- しっぽ本体(体の後ろ) -->
  <path d="M235 250 Q290 235 278 195 Q272 175 245 190 Q255 215 235 250 Z" fill="#E8672E" stroke="#2d263c" stroke-width="7" stroke-linejoin="round" stroke-linecap="round"/>

  <!-- 耳(後ろ・顔より先) -->
  <ellipse cx="140" cy="118" rx="20" ry="24" fill="#E8672E" stroke="#2d263c" stroke-width="7"/>
  <ellipse cx="222" cy="118" rx="20" ry="24" fill="#E8672E" stroke="#2d263c" stroke-width="7"/>
  <ellipse cx="140" cy="120" rx="9" ry="12" fill="#FFE3B0"/>
  <ellipse cx="222" cy="120" rx="9" ry="12" fill="#FFE3B0"/>

  <!-- あし(奥) -->
  <ellipse cx="140" cy="305" rx="30" ry="20" fill="#E8672E" stroke="#2d263c" stroke-width="7"/>
  <ellipse cx="222" cy="305" rx="30" ry="20" fill="#E8672E" stroke="#2d263c" stroke-width="7"/>
  <ellipse cx="140" cy="308" rx="16" ry="10" fill="#FFE3B0"/>
  <ellipse cx="222" cy="308" rx="16" ry="10" fill="#FFE3B0"/>

  <!-- からだ -->
  <path d="M181 130
           C240 130 260 175 258 225
           C256 270 235 300 181 300
           C127 300 106 270 104 225
           C102 175 122 130 181 130 Z"
        fill="#E8672E" stroke="#2d263c" stroke-width="8" stroke-linejoin="round"/>

  <!-- おなか(クリーム色) -->
  <path d="M181 175 C215 175 228 205 226 235 C224 262 208 275 181 275 C154 275 138 262 136 235 C134 205 147 175 181 175 Z"
        fill="#FFE9C4" stroke="#2d263c" stroke-width="6" stroke-linejoin="round"/>

  <!-- うで -->
  <path d="M104 200 Q75 210 68 245 Q65 265 82 270 Q100 258 108 235" fill="#E8672E" stroke="#2d263c" stroke-width="7" stroke-linejoin="round" stroke-linecap="round"/>
  <path d="M258 200 Q287 210 294 245 Q297 265 280 270 Q262 258 254 235" fill="#E8672E" stroke="#2d263c" stroke-width="7" stroke-linejoin="round" stroke-linecap="round"/>
  <ellipse cx="76" cy="262" rx="16" ry="13" fill="#FFE3B0" stroke="#2d263c" stroke-width="5"/>
  <ellipse cx="286" cy="262" rx="16" ry="13" fill="#FFE3B0" stroke="#2d263c" stroke-width="5"/>

  <!-- 頭のほのお(小さな炎の毛) -->
  <path d="M181 60 Q195 78 186 100 Q205 88 200 65 Q212 82 197 108 Q181 118 165 108 Q150 82 162 65 Q157 88 176 100 Q167 78 181 60 Z"
        fill="#FFCC33" stroke="#2d263c" stroke-width="6" stroke-linejoin="round" stroke-linecap="round"/>
  <path d="M181 78 Q186 90 181 100" fill="none" stroke="#FF7A1A" stroke-width="5" stroke-linecap="round"/>

  <!-- あたま -->
  <circle cx="181" cy="150" r="68" fill="#E8672E" stroke="#2d263c" stroke-width="8"/>

  <!-- 顔まわり(クリーム色マズル) -->
  <ellipse cx="181" cy="168" rx="46" ry="38" fill="#FFE9C4" stroke="#2d263c" stroke-width="6"/>

  <!-- 目 -->
  <ellipse cx="158" cy="150" rx="13" ry="16" fill="#fff" stroke="#2d263c" stroke-width="5"/>
  <ellipse cx="204" cy="150" rx="13" ry="16" fill="#fff" stroke="#2d263c" stroke-width="5"/>
  <circle cx="160" cy="153" r="7" fill="#3E7BD8"/>
  <circle cx="206" cy="153" r="7" fill="#3E7BD8"/>
  <circle cx="163" cy="150" r="2.5" fill="#fff"/>
  <circle cx="209" cy="150" r="2.5" fill="#fff"/>

  <!-- 鼻 -->
  <ellipse cx="181" cy="178" rx="7" ry="5" fill="#2d263c"/>

  <!-- 口 -->
  <path d="M164 190 Q181 200 198 190" fill="none" stroke="#2d263c" stroke-width="5" stroke-linecap="round"/>

  <!-- ほっぺ -->
  <ellipse cx="140" cy="172" rx="9" ry="6" fill="#FF9A6B" opacity="0.7"/>
  <ellipse cx="222" cy="172" rx="9" ry="6" fill="#FF9A6B" opacity="0.7"/>
</svg>
