<svg xmlns="http://www.w3.org/2000/svg" viewBox="0 0 360 360">
  <!-- 特徴: 1.丸くどっしりした体型 2.クリーム色の下あご/マズル 3.頭～背中にかけて濃い茶色のヘルメット状模様(目の上でとがる) 4.横向きの半円耳 5.太くて短い脚と大きな鼻の穴 -->
  <ellipse cx="302" cy="212" rx="20" ry="14" fill="#d9a468" stroke="#2d263c" stroke-width="6" stroke-linejoin="round"/>
  <rect x="58" y="248" width="38" height="58" rx="17" fill="#b98650" stroke="#2d263c" stroke-width="6" stroke-linejoin="round"/>
  <rect x="264" y="248" width="38" height="58" rx="17" fill="#b98650" stroke="#2d263c" stroke-width="6" stroke-linejoin="round"/>
  <ellipse cx="180" cy="185" rx="115" ry="105" fill="#dda86a" stroke="#2d263c" stroke-width="8" stroke-linejoin="round"/>
  <rect x="93" y="258" width="48" height="64" rx="20" fill="#c48f57" stroke="#2d263c" stroke-width="7" stroke-linejoin="round"/>
  <rect x="219" y="258" width="48" height="64" rx="20" fill="#c48f57" stroke="#2d263c" stroke-width="7" stroke-linejoin="round"/>
  <ellipse cx="117" cy="320" rx="27" ry="14" fill="#5c3220" stroke="#2d263c" stroke-width="6" stroke-linejoin="round"/>
  <ellipse cx="243" cy="320" rx="27" ry="14" fill="#5c3220" stroke="#2d263c" stroke-width="6" stroke-linejoin="round"/>
  <ellipse cx="180" cy="232" rx="72" ry="42" fill="#f2decb" stroke="#2d263c" stroke-width="6" stroke-linejoin="round"/>
  <circle cx="103" cy="98" r="28" fill="#5c3220" stroke="#2d263c" stroke-width="7" stroke-linejoin="round"/>
  <circle cx="257" cy="98" r="28" fill="#5c3220" stroke="#2d263c" stroke-width="7" stroke-linejoin="round"/>
  <path d="M75,158 C68,98 112,68 180,68 C248,68 292,98 285,158 C283,180 262,190 244,183 C228,177 226,158 210,148 C199,141 195,138 180,138 C165,138 161,141 150,148 C134,158 132,177 116,183 C98,190 77,180 75,158 Z" fill="#5c3220" stroke="#2d263c" stroke-width="7" stroke-linejoin="round"/>
  <circle cx="148" cy="166" r="12" fill="#221a14" stroke="#2d263c" stroke-width="6" stroke-linejoin="round"/>
  <circle cx="212" cy="166" r="12" fill="#221a14" stroke="#2d263c" stroke-width="6" stroke-linejoin="round"/>
  <circle cx="151" cy="162" r="3.5" fill="#f7efe0"/>
  <circle cx="215" cy="162" r="3.5" fill="#f7efe0"/>
  <ellipse cx="156" cy="223" rx="13" ry="10" fill="#221a14" stroke="#2d263c" stroke-width="6" stroke-linejoin="round"/>
  <ellipse cx="204" cy="223" rx="13" ry="10" fill="#221a14" stroke="#2d263c" stroke-width="6" stroke-linejoin="round"/>
  <path d="M132,256 Q180,278 228,256" fill="none" stroke="#2d263c" stroke-width="8" stroke-linecap="round"/>
</svg>
