<svg xmlns="http://www.w3.org/2000/svg" viewBox="0 0 360 360">
  <!-- tail -->
  <path d="M225,268 C262,280 278,238 270,198 C264,162 284,148 306,154 C288,166 274,178 279,206 C284,246 262,278 231,286 Z" fill="#F5842C" stroke="#2d263c" stroke-width="7" stroke-linejoin="round" stroke-linecap="round"/>
  <!-- flame outer -->
  <path d="M300,158 C278,142 272,110 294,78 C300,68 306,68 312,79 C330,110 324,142 300,158 Z" fill="#FFAE42" stroke="#2d263c" stroke-width="6" stroke-linejoin="round" stroke-linecap="round"/>
  <!-- flame inner -->
  <path d="M300,146 C286,132 283,110 297,92 C300,88 303,88 306,92 C317,110 313,132 300,146 Z" fill="#FFEB6B" stroke="#2d263c" stroke-width="5" stroke-linejoin="round" stroke-linecap="round"/>
  <!-- back feet (drawn behind body) -->
  <ellipse cx="146" cy="322" rx="24" ry="17" fill="#F5842C" stroke="#2d263c" stroke-width="7"/>
  <ellipse cx="216" cy="322" rx="24" ry="17" fill="#F5842C" stroke="#2d263c" stroke-width="7"/>
  <!-- body -->
  <path d="M118,192 C88,222 92,272 120,302 C142,324 162,328 181,327 C201,328 224,322 244,300 C268,270 270,220 240,190 C229,206 204,216 180,216 C155,216 129,207 118,192 Z" fill="#F5842C" stroke="#2d263c" stroke-width="8" stroke-linejoin="round" stroke-linecap="round"/>
  <!-- belly patch -->
  <path d="M152,228 C146,258 151,292 181,302 C211,291 215,258 209,228 C195,241 166,241 152,228 Z" fill="#FCE9A6" stroke="#2d263c" stroke-width="5" stroke-linejoin="round" stroke-linecap="round"/>
  <!-- left arm -->
  <path d="M120,232 C98,236 88,257 99,272 C108,283 123,281 129,267 C134,251 131,239 120,232 Z" fill="#F5842C" stroke="#2d263c" stroke-width="7" stroke-linejoin="round" stroke-linecap="round"/>
  <!-- right arm -->
  <path d="M242,232 C264,236 274,257 263,272 C254,283 239,281 233,267 C228,251 231,239 242,232 Z" fill="#F5842C" stroke="#2d263c" stroke-width="7" stroke-linejoin="round" stroke-linecap="round"/>
  <!-- head -->
  <path d="M118,152 C112,100 144,68 181,70 C220,68 251,100 247,152 C250,188 214,208 181,206 C146,208 114,188 118,152 Z" fill="#F5842C" stroke="#2d263c" stroke-width="8" stroke-linejoin="round" stroke-linecap="round"/>
  <!-- eyes -->
  <ellipse cx="153" cy="136" rx="17" ry="21" fill="#FFFFFF" stroke="#2d263c" stroke-width="6"/>
  <ellipse cx="208" cy="136" rx="17" ry="21" fill="#FFFFFF" stroke="#2d263c" stroke-width="6"/>
  <circle cx="157" cy="142" r="8" fill="#2d263c"/>
  <circle cx="204" cy="142" r="8" fill="#2d263c"/>
  <circle cx="153" cy="137" r="2.5" fill="#FFFFFF"/>
  <circle cx="200" cy="137" r="2.5" fill="#FFFFFF"/>
  <!-- mouth -->
  <path d="M164,177 Q181,188 197,176" fill="none" stroke="#2d263c" stroke-width="6" stroke-linecap="round"/>
  <!-- blush -->
  <ellipse cx="126" cy="158" rx="13" ry="8" fill="#FF9DA6" opacity="0.55"/>
  <ellipse cx="236" cy="158" rx="13" ry="8" fill="#FF9DA6" opacity="0.55"/>
  <!-- claw lines on hands -->
  <path d="M104,265 L112,272" stroke="#2d263c" stroke-width="5" stroke-linecap="round"/>
  <path d="M258,265 L250,272" stroke="#2d263c" stroke-width="5" stroke-linecap="round"/>
  <!-- toe lines on feet -->
  <path d="M136,332 L133,340" stroke="#2d263c" stroke-width="5" stroke-linecap="round"/>
  <path d="M156,332 L159,340" stroke="#2d263c" stroke-width="5" stroke-linecap="round"/>
  <path d="M206,332 L203,340" stroke="#2d263c" stroke-width="5" stroke-linecap="round"/>
  <path d="M226,332 L229,340" stroke="#2d263c" stroke-width="5" stroke-linecap="round"/>
</svg>
