<svg xmlns="http://www.w3.org/2000/svg" viewBox="0 0 360 360">
<path d="M165 240 L155 295" stroke="#2d263c" stroke-width="9" stroke-linecap="round"/>
<path d="M195 240 L205 295" stroke="#2d263c" stroke-width="9" stroke-linecap="round"/>
<ellipse cx="155" cy="298" rx="18" ry="11" fill="#f08838" stroke="#2d263c" stroke-width="7"/>
<ellipse cx="205" cy="298" rx="18" ry="11" fill="#f08838" stroke="#2d263c" stroke-width="7"/>
<path d="M142 165 Q138 245 180 250 Q222 245 218 165 Z" fill="#f2f2ee" stroke="#2d263c" stroke-width="8" stroke-linejoin="round"/>
<path d="M148 180 L130 220" stroke="#2d263c" stroke-width="8" stroke-linecap="round"/>
<path d="M212 180 L230 220" stroke="#2d263c" stroke-width="8" stroke-linecap="round"/>
<path d="M155 100 Q140 30 158 30 Q172 32 168 100 Z" fill="#f2f2ee" stroke="#2d263c" stroke-width="7" stroke-linejoin="round"/>
<path d="M205 100 Q220 30 202 30 Q188 32 192 100 Z" fill="#f2f2ee" stroke="#2d263c" stroke-width="7" stroke-linejoin="round"/>
<path d="M152 55 Q158 35 164 55" fill="#f08838" stroke="#2d263c" stroke-width="6"/>
<path d="M208 55 Q202 35 196 55" fill="#f08838" stroke="#2d263c" stroke-width="6"/>
<circle cx="180" cy="125" r="50" fill="#f2f2ee" stroke="#2d263c" stroke-width="8"/>
<ellipse cx="163" cy="120" rx="9" ry="12" fill="#2d263c"/>
<ellipse cx="197" cy="120" rx="9" ry="12" fill="#2d263c"/>
<circle cx="166" cy="116" r="3" fill="#fff"/>
<circle cx="200" cy="116" r="3" fill="#fff"/>
<ellipse cx="180" cy="145" rx="14" ry="9" fill="#f08838" stroke="#2d263c" stroke-width="6"/>
<path d="M176 143 Q180 148 184 143" stroke="#2d263c" stroke-width="6" fill="#2d263c" stroke-linecap="round" stroke-linejoin="round"/>
<path d="M170 158 Q180 164 190 158" stroke="#2d263c" stroke-width="6" fill="none" stroke-linecap="round"/>
<path d="M148 138 Q142 135 145 130" stroke="#2d263c" stroke-width="6" fill="none" stroke-linecap="round"/>
<path d="M212 138 Q218 135 215 130" stroke="#2d263c" stroke-width="6" fill="none" stroke-linecap="round"/>
</svg>