<svg xmlns="http://www.w3.org/2000/svg" viewBox="0 0 360 360">
  <ellipse cx="180" cy="300" rx="100" ry="18" fill="#2d263c" opacity="0.15"/>
  <path d="M 180 35 L 215.3 131.5 L 317.9 135.2 L 237.1 198.5 L 265.3 297.3 L 180 240 L 94.7 297.3 L 122.9 198.5 L 42.1 135.2 L 144.7 131.5 Z"
        fill="#e79a5c" stroke="#2d263c" stroke-width="8" stroke-linejoin="round" stroke-linecap="round"/>
  <path d="M 180 78.5 L 204.7 146 L 276.5 148.6 L 220 193 L 239.7 262.1 L 180 222 L 120.3 262.1 L 140 193 L 83.5 148.6 L 155.3 146 Z"
        fill="none" stroke="#f4cf4e" stroke-width="6" stroke-linejoin="round" stroke-linecap="round" opacity="0.9"/>
  <line x1="180" y1="145" x2="180" y2="55" stroke="#c97a3d" stroke-width="5" stroke-linecap="round"/>
  <line x1="213.3" y1="169.2" x2="300.6" y2="141.8" stroke="#c97a3d" stroke-width="5" stroke-linecap="round"/>
  <line x1="200.6" y1="208.3" x2="253.4" y2="282.2" stroke="#c97a3d" stroke-width="5" stroke-linecap="round"/>
  <line x1="159.4" y1="208.3" x2="106.6" y2="282.2" stroke="#c97a3d" stroke-width="5" stroke-linecap="round"/>
  <line x1="146.7" y1="169.2" x2="59.4" y2="141.8" stroke="#c97a3d" stroke-width="5" stroke-linecap="round"/>
  <circle cx="180" cy="182" r="32" fill="#e6413b" stroke="#2d263c" stroke-width="7"/>
  <ellipse cx="169" cy="171" rx="10" ry="6" fill="#ffffff" opacity="0.55"/>
  <path d="M 180 158 L 186 176 L 204 182 L 186 188 L 180 206 L 174 188 L 156 182 L 174 176 Z"
        fill="#ff8b7a" opacity="0.5"/>
</svg>
