<svg xmlns="http://www.w3.org/2000/svg" viewBox="0 0 360 360">
<path d="M180 30 L202 72 L196 184 L164 184 L158 72 Z" fill="#d8dce4" stroke="#2d263c" stroke-width="7" stroke-linejoin="round"/>
<path d="M180 30 L180 72" stroke="#2d263c" stroke-width="5" stroke-linecap="round"/>
<ellipse cx="180" cy="190" rx="56" ry="14" fill="#e8c050" stroke="#2d263c" stroke-width="7"/>
<rect x="167" y="200" width="26" height="42" rx="7" fill="#8a5a3a" stroke="#2d263c" stroke-width="7"/>
<path d="M138 242 L222 242 L212 338 L148 338 Z" fill="#6b4a8a" stroke="#2d263c" stroke-width="8" stroke-linejoin="round"/>
<path d="M138 242 L222 242" stroke="#2d263c" stroke-width="5"/>
<ellipse cx="180" cy="200" rx="11" ry="9" fill="#fff" stroke="#2d263c" stroke-width="4"/>
<circle cx="180" cy="200" r="5" fill="#2d263c"/>
<path d="M153 224 Q126 256 144 296 Q116 286 108 316" fill="none" stroke="#3a6ac4" stroke-width="9" stroke-linecap="round"/>
<path d="M207 224 Q234 256 216 296 Q244 286 252 316" fill="none" stroke="#3a6ac4" stroke-width="9" stroke-linecap="round"/>
</svg>
