<svg xmlns="http://www.w3.org/2000/svg" viewBox="0 0 360 360">
  <ellipse cx="180" cy="332" rx="55" ry="9" fill="#2d263c" opacity="0.15"/>
  <path d="M165,300 L162,330" stroke="#2d263c" stroke-width="7" stroke-linecap="round"/>
  <path d="M195,300 L198,330" stroke="#2d263c" stroke-width="7" stroke-linecap="round"/>
  <path d="M152,276 L98,284 L120,302 L152,296 Z" fill="#8a8f95" stroke="#2d263c" stroke-width="7" stroke-linejoin="round"/>
  <ellipse cx="180" cy="232" rx="58" ry="66" fill="#9aa0a6" stroke="#2d263c" stroke-width="9"/>
  <ellipse cx="180" cy="256" rx="40" ry="44" fill="#e87838" stroke="#2d263c" stroke-width="7"/>
  <path d="M180,244 Q172,260 180,274 Q188,260 180,244 Z" fill="#ffd24a" stroke="#2d263c" stroke-width="4" stroke-linejoin="round"/>
  <path d="M138,228 Q118,258 146,288 Q162,272 160,242 Z" fill="#7a8087" stroke="#2d263c" stroke-width="7" stroke-linejoin="round"/>
  <circle cx="180" cy="146" r="46" fill="#9aa0a6" stroke="#2d263c" stroke-width="9"/>
  <path d="M168,158 L192,158 L180,178 Z" fill="#3a3a3a" stroke="#2d263c" stroke-width="6" stroke-linejoin="round"/>
  <circle cx="164" cy="142" r="9" fill="#2d263c"/>
  <circle cx="196" cy="142" r="9" fill="#2d263c"/>
  <circle cx="167" cy="139" r="3" fill="#ffffff"/>
  <circle cx="199" cy="139" r="3" fill="#ffffff"/>
  <path d="M150,128 Q180,116 210,128" fill="none" stroke="#e87838" stroke-width="7" stroke-linecap="round"/>
  <path d="M180,104 Q172,86 186,84 Q180,98 192,100" fill="#3a3a3a" stroke="#2d263c" stroke-width="5" stroke-linejoin="round"/>
</svg>
