<svg xmlns="http://www.w3.org/2000/svg" viewBox="0 0 360 360">
  <!-- 背景炎のオーラ（後ろ） -->
  <ellipse cx="180" cy="290" rx="80" ry="18" fill="#FF4400" opacity="0.35"/>

  <!-- 翼炎・左（後ろ） -->
  <path d="M90 190 Q55 160 40 120 Q60 140 75 155 Q50 110 65 75 Q85 110 78 140 Q95 110 105 90 Q110 125 95 165 Z" fill="#FF5500" stroke="#2d263c" stroke-width="6" stroke-linejoin="round" stroke-linecap="round"/>

  <!-- 翼炎・右（後ろ） -->
  <path d="M270 190 Q305 160 320 120 Q300 140 285 155 Q310 110 295 75 Q275 110 282 140 Q265 110 255 90 Q250 125 265 165 Z" fill="#FF5500" stroke="#2d263c" stroke-width="6" stroke-linejoin="round" stroke-linecap="round"/>

  <!-- オーブン胴体 -->
  <rect x="108" y="195" width="148" height="120" rx="12" ry="12" fill="#CC3300" stroke="#2d263c" stroke-width="8" stroke-linejoin="round"/>

  <!-- オーブン扉 -->
  <rect x="122" y="208" width="120" height="85" rx="8" ry="8" fill="#AA2200" stroke="#2d263c" stroke-width="6" stroke-linejoin="round"/>

  <!-- 扉の窓（丸） -->
  <circle cx="182" cy="248" r="28" fill="#FF8800" stroke="#2d263c" stroke-width="5"/>
  <circle cx="182" cy="248" r="20" fill="#FFCC00" opacity="0.85" stroke="none"/>
  <!-- 窓の内炎グロー -->
  <circle cx="182" cy="248" r="12" fill="#FFEE88" opacity="0.7" stroke="none"/>

  <!-- 扉ハンドル -->
  <rect x="148" y="300" width="70" height="10" rx="5" fill="#FF6600" stroke="#2d263c" stroke-width="5" stroke-linejoin="round"/>

  <!-- 胴体の炎ライン（左） -->
  <path d="M108 230 Q90 220 85 240 Q95 235 108 250" fill="none" stroke="#FF7700" stroke-width="4" stroke-linecap="round"/>
  <!-- 胴体の炎ライン（右） -->
  <path d="M256 230 Q274 220 279 240 Q269 235 256 250" fill="none" stroke="#FF7700" stroke-width="4" stroke-linecap="round"/>

  <!-- 足・左 -->
  <ellipse cx="148" cy="320" rx="22" ry="11" fill="#BB2200" stroke="#2d263c" stroke-width="6"/>
  <!-- 足・右 -->
  <ellipse cx="218" cy="320" rx="22" ry="11" fill="#BB2200" stroke="#2d263c" stroke-width="6"/>

  <!-- 首 -->
  <rect x="165" y="165" width="34" height="38" rx="8" fill="#FF4400" stroke="#2d263c" stroke-width="7" stroke-linejoin="round"/>

  <!-- 頭本体（少し歪んだ丸） -->
  <path d="M118 148 Q115 90 145 68 Q170 52 185 55 Q215 50 235 72 Q255 95 250 145 Q245 175 215 188 Q185 198 155 185 Q125 172 118 148 Z" fill="#FF4400" stroke="#2d263c" stroke-width="8" stroke-linejoin="round"/>

  <!-- 耳・左（ギザギザ角） -->
  <path d="M128 100 Q110 78 100 55 Q118 68 125 80 Q128 62 135 50 Q140 68 138 85 Z" fill="#FF5500" stroke="#2d263c" stroke-width="6" stroke-linejoin="round" stroke-linecap="round"/>

  <!-- 耳・右（ちょっとでかい） -->
  <path d="M232 98 Q252 72 265 48 Q248 64 238 78 Q240 58 230 46 Q224 66 226 84 Z" fill="#FF5500" stroke="#2d263c" stroke-width="6" stroke-linejoin="round" stroke-linecap="round"/>

  <!-- 目・左（炎目） -->
  <ellipse cx="152" cy="128" rx="18" ry="16" fill="#FFDD00" stroke="#2d263c" stroke-width="5"/>
  <ellipse cx="152" cy="130" rx="10" ry="11" fill="#FF0000"/>
  <ellipse cx="148" cy="126" rx="4" ry="4" fill="#FFEEAA" opacity="0.8"/>

  <!-- 目・右（少しつり目で悪戯っぽく） -->
  <ellipse cx="214" cy="126" rx="19" ry="15" fill="#FFDD00" stroke="#2d263c" stroke-width="5"/>
  <ellipse cx="215" cy="128" rx="11" ry="10" fill="#FF0000"/>
  <ellipse cx="211" cy="124" rx="4" ry="4" fill="#FFEEAA" opacity="0.8"/>

  <!-- 眉・左（怒り気味でヤンチャ） -->
  <path d="M136 112 Q148 106 165 110" fill="none" stroke="#2d263c" stroke-width="6" stroke-linecap="round"/>
  <!-- 眉・右 -->
  <path d="M200 108 Q215 103 228 108" fill="none" stroke="#2d263c" stroke-width="6" stroke-linecap="round"/>

  <!-- 口（ニヤリ・ギザギザ歯） -->
  <path d="M148 162 Q160 178 182 180 Q202 178 216 162" fill="none" stroke="#2d263c" stroke-width="6" stroke-linecap="round" stroke-linejoin="round"/>
  <!-- ギザ歯 -->
  <path d="M155 167 L160 158 L167 167 L174 157 L181 167 L188 157 L195 167 L202 158 L208 167" fill="#FFFAAA" stroke="#2d263c" stroke-width="4" stroke-linejoin="round" stroke-linecap="round"/>

  <!-- ほっぺの赤み・左 -->
  <ellipse cx="137" cy="148" rx="13" ry="9" fill="#FF2200" opacity="0.45"/>
  <!-- ほっぺの赤み・右 -->
  <ellipse cx="228" cy="146" rx="13" ry="9" fill="#FF2200" opacity="0.45"/>

  <!-- 頭上の炎（小） -->
  <path d="M182 55 Q175 38 180 22 Q186 38 192 28 Q193 42 186 52 Z" fill="#FFBB00" stroke="#2d263c" stroke-width="5" stroke-linejoin="round" stroke-linecap="round"/>

  <!-- しっぽ炎 -->
  <path d="M182 315 Q170 340 162 355 Q178 342 182 330 Q186 342 197 355 Q192 340 182 315 Z" fill="#FF5500" stroke="#2d263c" stroke-width="5" stroke-linejoin="round" stroke-linecap="round"/>
</svg>