<svg xmlns="http://www.w3.org/2000/svg" viewBox="0 0 360 360">
  <!-- rear leg left (behind body) -->
  <path d="M108 240 Q98 275 94 305 Q92 316 106 317 Q120 318 122 306 Q128 278 122 242 Z" fill="#38343f" stroke="#2d263c" stroke-width="7" stroke-linejoin="round" stroke-linecap="round"/>
  <!-- rear leg right (behind body) -->
  <path d="M258 240 Q268 275 272 305 Q274 316 260 317 Q246 318 244 306 Q238 278 244 242 Z" fill="#38343f" stroke="#2d263c" stroke-width="7" stroke-linejoin="round" stroke-linecap="round"/>
  <!-- rear foot glows -->
  <ellipse cx="107" cy="313" rx="11" ry="5" fill="#ff8a2e" stroke="#2d263c" stroke-width="6"/>
  <ellipse cx="258" cy="313" rx="11" ry="5" fill="#ff8a2e" stroke="#2d263c" stroke-width="6"/>

  <!-- body (dark iron/magma) -->
  <path d="M90 170 Q80 230 130 258 Q170 278 230 262 Q285 240 280 185 Q276 132 220 118 Q170 105 122 122 Q94 138 90 170 Z" fill="#3a3742" stroke="#2d263c" stroke-width="8" stroke-linejoin="round"/>

  <!-- belly molten glow patch -->
  <path d="M130 230 Q160 255 200 250 Q230 245 245 220 Q220 240 180 240 Q150 238 130 230 Z" fill="#ff7a22" stroke="#2d263c" stroke-width="6" stroke-linejoin="round"/>

  <!-- lava fissure cracks on body -->
  <path d="M110 165 L128 178 L112 192 L130 205 L116 218" fill="none" stroke="#ff7a22" stroke-width="7" stroke-linecap="round" stroke-linejoin="round"/>
  <path d="M260 168 L242 181 L258 195 L240 208 L254 221" fill="none" stroke="#ff7a22" stroke-width="7" stroke-linecap="round" stroke-linejoin="round"/>

  <!-- front leg left -->
  <path d="M140 248 Q130 285 126 313 Q124 325 140 326 Q156 327 154 314 Q160 285 156 250 Z" fill="#3f3b47" stroke="#2d263c" stroke-width="7" stroke-linejoin="round" stroke-linecap="round"/>
  <!-- front leg right -->
  <path d="M226 248 Q236 285 240 313 Q242 325 226 326 Q210 327 212 314 Q206 285 210 250 Z" fill="#3f3b47" stroke="#2d263c" stroke-width="7" stroke-linejoin="round" stroke-linecap="round"/>
  <!-- front foot glows -->
  <ellipse cx="140" cy="323" rx="11" ry="5" fill="#ff8a2e" stroke="#2d263c" stroke-width="6"/>
  <ellipse cx="226" cy="323" rx="11" ry="5" fill="#ff8a2e" stroke="#2d263c" stroke-width="6"/>

  <!-- iron cross plate rising from back -->
  <path d="M172 82 Q172 76 180 76 L188 76 Q196 76 196 82 L196 140 L172 140 Z" fill="#8f8b93" stroke="#2d263c" stroke-width="7" stroke-linejoin="round"/>
  <path d="M138 100 Q132 100 132 108 L132 116 Q132 124 138 124 L230 124 Q236 124 236 116 L236 108 Q236 100 230 100 Z" fill="#8f8b93" stroke="#2d263c" stroke-width="7" stroke-linejoin="round"/>
  <circle cx="145" cy="112" r="4" fill="#5a5560"/>
  <circle cx="223" cy="112" r="4" fill="#5a5560"/>

  <!-- head / iron mask -->
  <path d="M128 155 Q120 108 183 96 Q246 108 238 155 Q240 190 205 205 Q183 213 161 205 Q126 190 128 155 Z" fill="#9a969e" stroke="#2d263c" stroke-width="8" stroke-linejoin="round"/>

  <!-- ear/horn plates -->
  <path d="M120 130 Q100 118 96 100 Q112 105 128 122 Z" fill="#8f8b93" stroke="#2d263c" stroke-width="7" stroke-linejoin="round"/>
  <path d="M246 130 Q266 118 270 100 Q254 105 238 122 Z" fill="#8f8b93" stroke="#2d263c" stroke-width="7" stroke-linejoin="round"/>

  <!-- brow ridge -->
  <path d="M140 140 Q183 122 226 140" fill="none" stroke="#2d263c" stroke-width="6" stroke-linecap="round"/>

  <!-- eyes -->
  <ellipse cx="160" cy="150" rx="13" ry="7" fill="#ffcf3d" stroke="#2d263c" stroke-width="6"/>
  <ellipse cx="206" cy="150" rx="13" ry="7" fill="#ffcf3d" stroke="#2d263c" stroke-width="6"/>
  <ellipse cx="160" cy="150" rx="4" ry="5" fill="#2d263c"/>
  <ellipse cx="206" cy="150" rx="4" ry="5" fill="#2d263c"/>

  <!-- nostrils -->
  <ellipse cx="172" cy="178" rx="4" ry="3" fill="#4a4550"/>
  <ellipse cx="194" cy="178" rx="4" ry="3" fill="#4a4550"/>

  <!-- jaw / metal teeth -->
  <path d="M150 190 Q160 200 172 192 Q183 202 194 192 Q206 200 216 190" fill="none" stroke="#2d263c" stroke-width="6" stroke-linecap="round" stroke-linejoin="round"/>

  <!-- chin molten glow -->
  <path d="M165 200 Q183 212 201 200 Q195 208 183 209 Q171 208 165 200 Z" fill="#ff8a2e" stroke="#2d263c" stroke-width="6" stroke-linejoin="round"/>
</svg>
