<svg xmlns="http://www.w3.org/2000/svg" viewBox="0 0 360 360">
<g fill="none" stroke="#2d263c" stroke-width="7" stroke-linejoin="round" stroke-linecap="round">
<path fill="#e87a6a" d="M180 58 C198 58 202 84 190 96 C186 100 176 100 172 96 C160 84 164 58 180 58 Z"/>
<path fill="#e87a6a" d="M148 70 C162 64 180 78 174 92 C170 100 158 100 152 92 C146 82 144 74 148 70 Z"/>
<path fill="#e87a6a" d="M212 70 C198 64 180 78 186 92 C190 100 202 100 208 92 C214 82 216 74 212 70 Z"/>
<path fill="#e87a6a" d="M152 118 C142 110 140 98 150 94 C164 92 176 104 174 118 C170 126 158 126 152 118 Z"/>
<path fill="#e87a6a" d="M208 118 C218 110 220 98 210 94 C196 92 184 104 186 118 C190 126 202 126 208 118 Z"/>
<circle fill="#f5d04a" cx="180" cy="100" r="20"/>
<path fill="#7ab04a" d="M120 212 C90 200 76 222 88 238 C106 248 126 232 128 220 Z"/>
<path fill="#7ab04a" d="M240 212 C270 200 284 222 272 238 C254 248 234 232 232 220 Z"/>
<path fill="#bcd06a" d="M180 150 C230 152 246 196 244 236 C240 280 214 300 180 300 C146 300 120 280 116 236 C114 196 130 152 180 150 Z"/>
<path fill="#a8c058" stroke="none" d="M140 250 C160 276 200 276 220 250 C214 274 200 288 180 288 C160 288 146 274 140 250 Z"/>
<ellipse fill="#2d263c" cx="158" cy="214" rx="11" ry="14"/>
<ellipse fill="#2d263c" cx="202" cy="214" rx="11" ry="14"/>
<ellipse fill="#fff" stroke="none" cx="162" cy="208" rx="4" ry="5"/>
<ellipse fill="#fff" stroke="none" cx="206" cy="208" rx="4" ry="5"/>
<ellipse fill="#f5a8b0" stroke="none" cx="142" cy="234" rx="9" ry="6" opacity="0.8"/>
<ellipse fill="#f5a8b0" stroke="none" cx="218" cy="234" rx="9" ry="6" opacity="0.8"/>
<path d="M168 248 C176 256 184 256 192 248"/>
</g>
</svg>
