<svg xmlns="http://www.w3.org/2000/svg" viewBox="0 0 360 360">
  <!-- 影 -->
  <ellipse cx="180" cy="322" rx="88" ry="14" fill="#2d263c" opacity="0.15"/>

  <!-- 頭のスプラウト(芽) -->
  <path d="M180,84 C170,55 150,42 128,40 C140,64 152,78 168,88 Z" fill="#4f9a3c" stroke="#2d263c" stroke-width="7" stroke-linejoin="round" stroke-linecap="round"/>
  <path d="M180,84 C190,55 210,42 232,40 C220,64 208,78 192,88 Z" fill="#5cae46" stroke="#2d263c" stroke-width="7" stroke-linejoin="round" stroke-linecap="round"/>
  <path d="M180,86 C178,66 180,54 180,44" fill="none" stroke="#2d263c" stroke-width="6" stroke-linecap="round"/>

  <!-- 種っぽい丸い体(タネのシルエット) -->
  <path d="M180,80
           C232,80 268,138 272,192
           C276,252 234,312 180,312
           C126,312 84,252 88,192
           C92,138 128,80 180,80 Z"
        fill="#dfe25a" stroke="#2d263c" stroke-width="8" stroke-linejoin="round" stroke-linecap="round"/>

  <!-- 種の筋模様(放射状の縞) -->
  <path d="M180,84 C170,150 168,230 178,308" fill="none" stroke="#9aa22e" stroke-width="6" stroke-linecap="round" opacity="0.85"/>
  <path d="M148,92 C124,150 116,230 140,300" fill="none" stroke="#9aa22e" stroke-width="6" stroke-linecap="round" opacity="0.85"/>
  <path d="M212,92 C236,150 244,230 220,300" fill="none" stroke="#9aa22e" stroke-width="6" stroke-linecap="round" opacity="0.85"/>

  <!-- おなか側の明るい部分 -->
  <path d="M120,240 C140,286 160,304 180,306 C200,304 220,286 240,240
           C210,268 190,278 180,278 C170,278 150,268 120,240 Z"
        fill="#f4eeb0" stroke="#2d263c" stroke-width="5" stroke-linejoin="round" opacity="0.9"/>

  <!-- ほっぺ -->
  <ellipse cx="130" cy="212" rx="16" ry="11" fill="#f6a8ad" opacity="0.8"/>
  <ellipse cx="230" cy="212" rx="16" ry="11" fill="#f6a8ad" opacity="0.8"/>

  <!-- 目 -->
  <circle cx="150" cy="188" r="11" fill="#2d263c"/>
  <circle cx="210" cy="188" r="11" fill="#2d263c"/>
  <circle cx="153" cy="184" r="3" fill="#ffffff"/>
  <circle cx="213" cy="184" r="3" fill="#ffffff"/>

  <!-- 口 -->
  <path d="M168,214 C174,222 186,222 192,214" fill="none" stroke="#2d263c" stroke-width="6" stroke-linecap="round"/>
</svg>
