<svg xmlns="http://www.w3.org/2000/svg" viewBox="0 0 360 360">
  <path d="M180,75 L209,140 L280,148 L228,196 L242,265 L180,230 L118,265 L132,196 L80,148 L151,140 Z" fill="#8e5fb0" stroke="#2d263c" stroke-width="7" stroke-linejoin="round"/>
  <circle cx="180" cy="82" r="12" fill="#f0d048" stroke="#2d263c" stroke-width="5"/>
  <circle cx="278" cy="150" r="12" fill="#f0d048" stroke="#2d263c" stroke-width="5"/>
  <circle cx="242" cy="262" r="12" fill="#f0d048" stroke="#2d263c" stroke-width="5"/>
  <circle cx="118" cy="262" r="12" fill="#f0d048" stroke="#2d263c" stroke-width="5"/>
  <circle cx="82" cy="150" r="12" fill="#f0d048" stroke="#2d263c" stroke-width="5"/>
  <circle cx="180" cy="180" r="50" fill="#a572c6" stroke="#2d263c" stroke-width="7"/>
  <circle cx="163" cy="163" r="8" fill="#cda7e2"/>
  <circle cx="196" cy="170" r="6" fill="#cda7e2"/>
  <circle cx="165" cy="182" r="9" fill="#2d263c"/>
  <circle cx="199" cy="182" r="9" fill="#2d263c"/>
  <circle cx="168" cy="179" r="2.8" fill="#ffffff"/>
  <circle cx="202" cy="179" r="2.8" fill="#ffffff"/>
  <path d="M170 204 Q182 213 194 204" fill="none" stroke="#2d263c" stroke-width="5" stroke-linecap="round"/>
</svg>
