<svg xmlns="http://www.w3.org/2000/svg" viewBox="0 0 360 360">
  <ellipse cx="180" cy="322" rx="92" ry="16" fill="#2d263c" opacity="0.18"/>
  <circle cx="180" cy="185" r="115" fill="#ee1c25"/>
  <path d="M 65 185 A 115 115 0 0 0 295 185 Z" fill="#ffffff"/>
  <rect x="63" y="169" width="234" height="32" fill="#2d263c"/>
  <path d="M 90 145 Q 130 100 175 108" fill="none" stroke="#ffffff" stroke-width="10" stroke-linecap="round" opacity="0.28"/>
  <circle cx="180" cy="185" r="115" fill="none" stroke="#2d263c" stroke-width="8" stroke-linejoin="round"/>
  <line x1="63" y1="169" x2="297" y2="169" stroke="#2d263c" stroke-width="8"/>
  <line x1="63" y1="201" x2="297" y2="201" stroke="#2d263c" stroke-width="8"/>
  <circle cx="180" cy="185" r="30" fill="#ffffff" stroke="#2d263c" stroke-width="8"/>
  <circle cx="180" cy="185" r="13" fill="#2d263c"/>
  <ellipse cx="150" cy="128" rx="12" ry="16" fill="#2d263c"/>
  <ellipse cx="210" cy="128" rx="12" ry="16" fill="#2d263c"/>
  <circle cx="153" cy="122" r="4" fill="#ffffff"/>
  <circle cx="213" cy="122" r="4" fill="#ffffff"/>
  <path d="M 128 108 L 158 118" fill="none" stroke="#2d263c" stroke-width="6" stroke-linecap="round"/>
  <path d="M 232 108 L 202 118" fill="none" stroke="#2d263c" stroke-width="6" stroke-linecap="round"/>
</svg>
