<svg xmlns="http://www.w3.org/2000/svg" viewBox="0 0 360 360">
<path d="M108,232 Q82,218 88,188 Q108,208 114,232 Q110,244 100,244 Z" fill="#6aa84f" stroke="#2d263c" stroke-width="7" stroke-linejoin="round" stroke-linecap="round"/>
<rect x="136" y="248" width="16" height="58" rx="8" fill="#2b2b2b" stroke="#2d263c" stroke-width="7" stroke-linejoin="round"/>
<rect x="162" y="248" width="16" height="58" rx="8" fill="#2b2b2b" stroke="#2d263c" stroke-width="7" stroke-linejoin="round"/>
<ellipse cx="182" cy="218" rx="76" ry="46" fill="#f2efe6" stroke="#2d263c" stroke-width="8" stroke-linejoin="round"/>
<rect x="196" y="252" width="18" height="60" rx="9" fill="#2b2b2b" stroke="#2d263c" stroke-width="7" stroke-linejoin="round"/>
<rect x="222" y="252" width="18" height="60" rx="9" fill="#2b2b2b" stroke="#2d263c" stroke-width="7" stroke-linejoin="round"/>
<ellipse cx="205" cy="258" rx="11" ry="6" fill="#f2efe6" stroke="#2d263c" stroke-width="5" stroke-linejoin="round"/>
<ellipse cx="231" cy="258" rx="11" ry="6" fill="#f2efe6" stroke="#2d263c" stroke-width="5" stroke-linejoin="round"/>
<polygon points="205,200 210,150 188,158 202,118 222,132 220,96 242,115 236,152 260,150 250,200" fill="#6aa84f" stroke="#2d263c" stroke-width="7" stroke-linejoin="round"/>
<path d="M250,175 Q268,192 258,214 Q246,198 246,178 Z" fill="#6aa84f" stroke="#2d263c" stroke-width="7" stroke-linejoin="round"/>
<polygon points="215,198 250,150 276,155 246,208" fill="#f2efe6" stroke="#2d263c" stroke-width="7" stroke-linejoin="round"/>
<ellipse cx="282" cy="118" rx="42" ry="36" fill="#f2efe6" stroke="#2d263c" stroke-width="8" stroke-linejoin="round"/>
<ellipse cx="312" cy="128" rx="17" ry="13" fill="#f2efe6" stroke="#2d263c" stroke-width="6" stroke-linejoin="round"/>
<polygon points="262,92 270,55 280,90" fill="#f2efe6" stroke="#2d263c" stroke-width="6" stroke-linejoin="round"/>
<path d="M288,88 Q305,58 288,32 Q277,54 280,80 Z" fill="#e0c04c" stroke="#2d263c" stroke-width="6" stroke-linejoin="round"/>
<path d="M272,92 Q292,66 282,42 Q270,62 270,88 Z" fill="#e0c04c" stroke="#2d263c" stroke-width="6" stroke-linejoin="round"/>
<circle cx="298" cy="113" r="7" fill="#cc3333" stroke="#2d263c" stroke-width="5"/>
<circle cx="328" cy="127" r="5" fill="#2b2b2b" stroke="#2d263c" stroke-width="4"/>
<path d="M303,138 Q313,144 322,136" fill="none" stroke="#2d263c" stroke-width="6" stroke-linecap="round"/>
</svg>
