<svg xmlns="http://www.w3.org/2000/svg" viewBox="0 0 360 360">
  <!-- tail: flame-star peeking behind body -->
  <path d="M275,270 L286,292 L310,294 L291,309 L297,332 L275,320 L253,332 L259,309 L240,294 L264,292 Z" fill="#FF8C2E" stroke="#2d263c" stroke-width="7" stroke-linejoin="round"/>

  <!-- ears (behind head) -->
  <path d="M120,150 C95,115 68,70 62,38 C92,52 128,88 148,138 Z" fill="#FFF6DA" stroke="#2d263c" stroke-width="7" stroke-linejoin="round"/>
  <path d="M240,150 C265,115 292,70 298,38 C268,52 232,88 212,138 Z" fill="#FFF6DA" stroke="#2d263c" stroke-width="7" stroke-linejoin="round"/>
  <path d="M62,38 C78,50 90,63 98,76 C86,72 72,60 62,45 Z" fill="#2d263c"/>
  <path d="M298,38 C282,50 270,63 262,76 C274,72 288,60 298,45 Z" fill="#2d263c"/>

  <!-- small forehead flame / V spark -->
  <path d="M165,120 L180,62 L195,120 Z" fill="#FF8C2E" stroke="#2d263c" stroke-width="6" stroke-linejoin="round"/>

  <!-- body -->
  <ellipse cx="180" cy="215" rx="98" ry="102" fill="#FFF6DA" stroke="#2d263c" stroke-width="8"/>

  <!-- arms -->
  <ellipse cx="82" cy="235" rx="24" ry="32" fill="#FFF6DA" stroke="#2d263c" stroke-width="7"/>
  <ellipse cx="278" cy="235" rx="24" ry="32" fill="#FFF6DA" stroke="#2d263c" stroke-width="7"/>

  <!-- legs / feet -->
  <ellipse cx="142" cy="322" rx="27" ry="21" fill="#FFF6DA" stroke="#2d263c" stroke-width="7"/>
  <ellipse cx="218" cy="322" rx="27" ry="21" fill="#FFF6DA" stroke="#2d263c" stroke-width="7"/>

  <!-- orange victory V on chest -->
  <path d="M145,255 L180,320 L215,255 L198,255 L180,292 L162,255 Z" fill="#FF8C2E" stroke="#2d263c" stroke-width="6" stroke-linejoin="round"/>

  <!-- blush -->
  <ellipse cx="108" cy="222" rx="14" ry="8" fill="#FFA6B8"/>
  <ellipse cx="252" cy="222" rx="14" ry="8" fill="#FFA6B8"/>

  <!-- eyes -->
  <ellipse cx="143" cy="198" rx="23" ry="27" fill="#2d263c"/>
  <ellipse cx="217" cy="198" rx="23" ry="27" fill="#2d263c"/>
  <circle cx="136" cy="187" r="7" fill="#ffffff"/>
  <circle cx="210" cy="187" r="7" fill="#ffffff"/>
  <circle cx="149" cy="205" r="3.5" fill="#ffffff"/>
  <circle cx="223" cy="205" r="3.5" fill="#ffffff"/>

  <!-- mouth -->
  <path d="M163,238 Q180,250 197,238" fill="none" stroke="#2d263c" stroke-width="6" stroke-linecap="round"/>
</svg>
