<svg xmlns="http://www.w3.org/2000/svg" viewBox="0 0 360 360">
  <ellipse cx="120" cy="150" rx="55" ry="24" fill="#eaf6ff" opacity="0.75" stroke="#b8d8e8" stroke-width="3" transform="rotate(-22 120 150)"/>
  <ellipse cx="240" cy="150" rx="55" ry="24" fill="#eaf6ff" opacity="0.75" stroke="#b8d8e8" stroke-width="3" transform="rotate(22 240 150)"/>
  <ellipse cx="112" cy="188" rx="48" ry="20" fill="#eaf6ff" opacity="0.7" stroke="#b8d8e8" stroke-width="3" transform="rotate(-10 112 188)"/>
  <ellipse cx="248" cy="188" rx="48" ry="20" fill="#eaf6ff" opacity="0.7" stroke="#b8d8e8" stroke-width="3" transform="rotate(10 248 188)"/>
  <path d="M170,318 L190,318 L180,340 Z" fill="#4a3f5c" stroke="#2d263c" stroke-width="6" stroke-linejoin="round"/>
  <ellipse cx="180" cy="235" rx="70" ry="90" fill="#f7ce3e" stroke="#2d263c" stroke-width="8"/>
  <ellipse cx="180" cy="188" rx="60" ry="12" fill="#221f2b"/>
  <ellipse cx="180" cy="222" rx="67" ry="12" fill="#221f2b"/>
  <ellipse cx="180" cy="256" rx="65" ry="12" fill="#221f2b"/>
  <path d="M132,150 L152,182 L38,206 Z" fill="#a99bc9" stroke="#2d263c" stroke-width="7" stroke-linejoin="round"/>
  <path d="M228,150 L208,182 L322,206 Z" fill="#a99bc9" stroke="#2d263c" stroke-width="7" stroke-linejoin="round"/>
  <ellipse cx="180" cy="165" rx="52" ry="45" fill="#f7ce3e" stroke="#2d263c" stroke-width="8"/>
  <path d="M155,205 Q142,225 149,246" fill="none" stroke="#2d263c" stroke-width="7" stroke-linecap="round"/>
  <path d="M205,205 Q218,225 211,246" fill="none" stroke="#2d263c" stroke-width="7" stroke-linecap="round"/>
  <circle cx="180" cy="108" r="46" fill="#f7ce3e" stroke="#2d263c" stroke-width="8"/>
  <path d="M166,78 L194,78 L180,42 Z" fill="#4a3f5c" stroke="#2d263c" stroke-width="6" stroke-linejoin="round"/>
  <path d="M158,68 Q138,38 118,54" fill="none" stroke="#2d263c" stroke-width="6" stroke-linecap="round"/>
  <path d="M202,68 Q222,38 242,54" fill="none" stroke="#2d263c" stroke-width="6" stroke-linecap="round"/>
  <ellipse cx="160" cy="106" rx="15" ry="20" fill="#c0392b" stroke="#2d263c" stroke-width="5" transform="rotate(-14 160 106)"/>
  <ellipse cx="200" cy="106" rx="15" ry="20" fill="#c0392b" stroke="#2d263c" stroke-width="5" transform="rotate(14 200 106)"/>
  <circle cx="156" cy="98" r="4" fill="#ffffff"/>
  <circle cx="204" cy="98" r="4" fill="#ffffff"/>
  <path d="M168,132 Q180,140 192,132" fill="none" stroke="#2d263c" stroke-width="5" stroke-linecap="round"/>
</svg>
