<svg xmlns="http://www.w3.org/2000/svg" viewBox="0 0 360 360">
  <ellipse cx="180" cy="322" rx="92" ry="16" fill="#2d263c" opacity="0.18"/>
  <circle cx="180" cy="185" r="115" fill="#6b4226"/>
  <path d="M 65 185 A 115 115 0 0 0 295 185 Z" fill="#f2e4c4"/>
  <rect x="63" y="169" width="234" height="32" fill="#2d263c"/>
  <path d="M 92 100 A 115 115 0 0 1 268 100" fill="none" stroke="#8a5a34" stroke-width="10" stroke-linecap="round"/>
  <path d="M 92 270 A 115 115 0 0 0 268 270" fill="none" stroke="#d9c69e" stroke-width="10" stroke-linecap="round" opacity="0.7"/>
  <path d="M 90 145 Q 130 105 175 112" fill="none" stroke="#c9924f" stroke-width="10" stroke-linecap="round" opacity="0.35"/>
  <circle cx="180" cy="185" r="115" fill="none" stroke="#2d263c" stroke-width="8" stroke-linejoin="round"/>
  <line x1="63" y1="169" x2="297" y2="169" stroke="#2d263c" stroke-width="8"/>
  <line x1="63" y1="201" x2="297" y2="201" stroke="#2d263c" stroke-width="8"/>
  <circle cx="180" cy="185" r="32" fill="#f2e4c4" stroke="#2d263c" stroke-width="8"/>
  <circle cx="180" cy="185" r="14" fill="#7ac142" stroke="#2d263c" stroke-width="4"/>
  <path d="M 180 171 L 180 199 M 166 185 L 194 185" stroke="#2d263c" stroke-width="3" stroke-linecap="round" opacity="0.5"/>
  <ellipse cx="150" cy="126" rx="11" ry="15" fill="#2d263c"/>
  <ellipse cx="210" cy="126" rx="11" ry="15" fill="#2d263c"/>
  <circle cx="153" cy="120" r="4" fill="#ffffff"/>
  <circle cx="213" cy="120" r="4" fill="#ffffff"/>
  <path d="M 126 106 L 156 116" fill="none" stroke="#2d263c" stroke-width="6" stroke-linecap="round"/>
  <path d="M 234 106 L 204 116" fill="none" stroke="#2d263c" stroke-width="6" stroke-linecap="round"/>
  <path d="M 78 210 Q 70 240 90 258" fill="none" stroke="#8a5a34" stroke-width="7" stroke-linecap="round"/>
  <path d="M 282 210 Q 290 240 270 258" fill="none" stroke="#8a5a34" stroke-width="7" stroke-linecap="round"/>
</svg>
