<svg xmlns="http://www.w3.org/2000/svg" viewBox="0 0 360 360">
  <ellipse cx="182" cy="320" rx="72" ry="14" fill="#2d263c" opacity="0.15"/>
  <path d="M212 298 L262 330 L228 314 Z" fill="#DE5236" stroke="#2d263c" stroke-width="7" stroke-linejoin="round" stroke-linecap="round"/>
  <ellipse cx="178" cy="286" rx="58" ry="46" fill="#F0CB4E" stroke="#2d263c" stroke-width="7"/>
  <ellipse cx="178" cy="292" rx="30" ry="19" fill="#FCEA9A"/>
  <ellipse cx="176" cy="204" rx="72" ry="60" fill="#F0CB4E" stroke="#2d263c" stroke-width="8"/>
  <ellipse cx="176" cy="222" rx="38" ry="26" fill="#FCEA9A"/>
  <ellipse cx="176" cy="107" rx="64" ry="56" fill="#F0CB4E" stroke="#2d263c" stroke-width="8"/>
  <ellipse cx="120" cy="257" rx="20" ry="15" fill="#E3A93C" stroke="#2d263c" stroke-width="6"/>
  <ellipse cx="232" cy="257" rx="20" ry="15" fill="#E3A93C" stroke="#2d263c" stroke-width="6"/>
  <path d="M144 86 Q176 26 210 88 Q192 73 176 73 Q160 73 144 86 Z" fill="#DE5236" stroke="#2d263c" stroke-width="7" stroke-linejoin="round"/>
  <ellipse cx="176" cy="52" rx="7" ry="13" fill="#F08064" opacity="0.7"/>
  <ellipse cx="150" cy="117" rx="19" ry="21" fill="#ffffff" stroke="#2d263c" stroke-width="6"/>
  <circle cx="153" cy="121" r="9" fill="#2d263c"/>
  <circle cx="149" cy="115" r="3" fill="#ffffff"/>
  <ellipse cx="205" cy="117" rx="19" ry="21" fill="#ffffff" stroke="#2d263c" stroke-width="6"/>
  <circle cx="202" cy="121" r="9" fill="#2d263c"/>
  <circle cx="198" cy="115" r="3" fill="#ffffff"/>
  <path d="M162 147 Q176 157 190 147" fill="none" stroke="#2d263c" stroke-width="6" stroke-linecap="round"/>
  <path d="M116 165 Q176 184 236 165" fill="none" stroke="#2d263c" stroke-width="5" stroke-linecap="round" opacity="0.5"/>
  <path d="M122 249 Q176 266 230 249" fill="none" stroke="#2d263c" stroke-width="5" stroke-linecap="round" opacity="0.5"/>
</svg>
