<svg xmlns="http://www.w3.org/2000/svg" viewBox="0 0 360 360">
<path d="M150,118 C132,98 116,58 108,34 C132,52 152,84 163,113 Z" fill="#FFE248" stroke="#2d263c" stroke-width="7" stroke-linejoin="round" stroke-linecap="round"/>
<path d="M108,34 C118,44 122,55 123,64 C112,60 101,52 96,42 Z" fill="#2d263c"/>
<path d="M210,118 C228,98 244,58 252,34 C228,52 208,84 197,113 Z" fill="#FFE248" stroke="#2d263c" stroke-width="7" stroke-linejoin="round" stroke-linecap="round"/>
<path d="M252,34 C242,44 238,55 237,64 C248,60 259,52 264,42 Z" fill="#2d263c"/>
<circle cx="180" cy="168" r="66" fill="#FFE248" stroke="#2d263c" stroke-width="8" stroke-linejoin="round"/>
<ellipse cx="180" cy="268" rx="60" ry="52" fill="#FFE248" stroke="#2d263c" stroke-width="8" stroke-linejoin="round"/>
<ellipse cx="180" cy="288" rx="32" ry="22" fill="#FFF3B0"/>
<ellipse cx="164" cy="235" rx="16" ry="7" fill="#B5651D" stroke="#2d263c" stroke-width="4" transform="rotate(-8 164 235)"/>
<ellipse cx="200" cy="235" rx="16" ry="7" fill="#B5651D" stroke="#2d263c" stroke-width="4" transform="rotate(8 200 235)"/>
<circle cx="128" cy="188" r="16" fill="#E84C4C" stroke="#2d263c" stroke-width="5"/>
<circle cx="232" cy="188" r="16" fill="#E84C4C" stroke="#2d263c" stroke-width="5"/>
<circle cx="155" cy="160" r="9" fill="#2d263c"/>
<circle cx="205" cy="160" r="9" fill="#2d263c"/>
<circle cx="152" cy="156" r="3" fill="#ffffff"/>
<circle cx="202" cy="156" r="3" fill="#ffffff"/>
<ellipse cx="180" cy="182" rx="4" ry="3" fill="#2d263c"/>
<path d="M164,199 Q180,212 196,199" fill="none" stroke="#2d263c" stroke-width="6" stroke-linecap="round"/>
<ellipse cx="112" cy="258" rx="17" ry="23" fill="#FFE248" stroke="#2d263c" stroke-width="7" transform="rotate(18 112 258)"/>
<ellipse cx="248" cy="258" rx="17" ry="23" fill="#FFE248" stroke="#2d263c" stroke-width="7" transform="rotate(-18 248 258)"/>
<ellipse cx="147" cy="322" rx="25" ry="16" fill="#FFE248" stroke="#2d263c" stroke-width="7"/>
<ellipse cx="213" cy="322" rx="25" ry="16" fill="#FFE248" stroke="#2d263c" stroke-width="7"/>
<path d="M236,252 L272,222 L256,230 L296,182 L272,196 L308,148 L280,168 L262,196 L250,188 Z" fill="#FFE248" stroke="#2d263c" stroke-width="7" stroke-linejoin="round"/>
<path d="M250,188 L262,196 L272,222 L256,230 Z" fill="#B5651D" stroke="#2d263c" stroke-width="5" stroke-linejoin="round"/>
</svg>
