<svg xmlns="http://www.w3.org/2000/svg" viewBox="0 0 360 360">
  <path d="M150,150 Q118,92 85,52 Q68,90 98,142 Q120,158 150,150 Z" fill="#FBAFC7" stroke="#2d263c" stroke-width="7" stroke-linejoin="round"/>
  <path d="M210,150 Q242,92 275,52 Q292,90 262,142 Q240,158 210,150 Z" fill="#FBAFC7" stroke="#2d263c" stroke-width="7" stroke-linejoin="round"/>
  <ellipse cx="180" cy="210" rx="85" ry="80" fill="#FBAFC7" stroke="#2d263c" stroke-width="8" stroke-linejoin="round"/>
  <ellipse cx="93" cy="222" rx="23" ry="33" fill="#FBAFC7" stroke="#2d263c" stroke-width="7" stroke-linejoin="round"/>
  <ellipse cx="267" cy="222" rx="23" ry="33" fill="#FBAFC7" stroke="#2d263c" stroke-width="7" stroke-linejoin="round"/>
  <ellipse cx="144" cy="296" rx="33" ry="26" fill="#FBAFC7" stroke="#2d263c" stroke-width="7" stroke-linejoin="round"/>
  <ellipse cx="216" cy="296" rx="33" ry="26" fill="#FBAFC7" stroke="#2d263c" stroke-width="7" stroke-linejoin="round"/>
  <path d="M180,98 C178,80 202,80 196,60 C192,46 174,46 174,60" fill="none" stroke="#2d263c" stroke-width="7" stroke-linecap="round"/>
  <ellipse cx="180" cy="252" rx="42" ry="32" fill="#FFD6E5"/>
  <ellipse cx="150" cy="196" rx="15" ry="19" fill="#2d263c"/>
  <ellipse cx="210" cy="196" rx="15" ry="19" fill="#2d263c"/>
  <circle cx="155" cy="189" r="4.5" fill="#ffffff"/>
  <circle cx="215" cy="189" r="4.5" fill="#ffffff"/>
  <circle cx="122" cy="224" r="13" fill="#FF8FAE"/>
  <circle cx="238" cy="224" r="13" fill="#FF8FAE"/>
  <path d="M168,224 Q180,235 192,224" fill="none" stroke="#2d263c" stroke-width="6" stroke-linecap="round"/>
</svg>
