<svg xmlns="http://www.w3.org/2000/svg" viewBox="0 0 360 360"><g stroke="#2d263c" stroke-width="7" stroke-linejoin="round" stroke-linecap="round"><ellipse cx="180" cy="318" rx="140" ry="18" fill="#ff2f6d" fill-opacity="0.3" stroke="none"/><ellipse cx="180" cy="320" rx="85" ry="12" fill="#ff2f6d" fill-opacity="0.5" stroke="none"/><path d="M232,250 L280,236 L262,204 L304,190 L286,156 L328,142 L306,112 L334,98 L312,54 L278,70 L290,116 L258,132 L272,164 L238,182 L250,214 L220,230 Z" fill="#f9d31d"/><path d="M232,250 L220,230 L250,214 L262,240 Z" fill="#8a5a2b"/><path d="M158,320 C140,318 122,322 120,330 C119,336 132,338 146,336 C158,334 166,330 164,322 Z" fill="#f9d31d"/><path d="M202,320 C220,318 238,322 240,330 C241,336 228,338 214,336 C202,334 194,330 196,322 Z" fill="#f9d31d"/><path d="M150,210 C126,242 114,282 122,308 C130,330 158,338 190,338 C222,338 250,330 258,308 C266,282 254,242 230,210 C204,220 176,220 150,210 Z" fill="#f9d31d"/><ellipse cx="120" cy="250" rx="14" ry="18" fill="#f9d31d"/><ellipse cx="240" cy="250" rx="14" ry="18" fill="#f9d31d"/><ellipse cx="134" cy="300" rx="12" ry="15" fill="#f9d31d"/><ellipse cx="226" cy="300" rx="12" ry="15" fill="#f9d31d"/><path d="M160,214 Q180,232 200,214 Q196,230 180,236 Q164,230 160,214 Z" fill="#fff5d1"/><path d="M89,150 C89,106 124,78 180,78 C236,78 271,106 271,150 C271,178 254,199 226,209 C213,214 197,216 180,216 C163,216 147,214 134,209 C106,199 89,178 89,150 Z" fill="#f9d31d"/><path d="M150,96 Q106,70 82,32 Q78,22 88,24 Q136,46 182,84 Q166,94 150,96 Z" fill="#f9d31d"/><path d="M82,32 Q78,22 88,24 Q110,36 130,54 Q118,66 102,56 Q90,46 82,32 Z" fill="#2d263c"/><path d="M210,96 Q254,70 278,32 Q282,22 272,24 Q224,46 178,84 Q194,94 210,96 Z" fill="#f9d31d"/><path d="M278,32 Q282,22 272,24 Q250,36 230,54 Q242,66 258,56 Q270,46 278,32 Z" fill="#2d263c"/><circle cx="126" cy="192" r="23" fill="#e23d2d" stroke-width="6"/><circle cx="234" cy="192" r="23" fill="#e23d2d" stroke-width="6"/><circle cx="152" cy="146" r="12" fill="#2d263c" stroke="none"/><circle cx="208" cy="146" r="12" fill="#2d263c" stroke="none"/><circle cx="147" cy="141" r="5" fill="#ffffff" stroke="none"/><circle cx="213" cy="141" r="5" fill="#ffffff" stroke="none"/><path d="M177,160 L183,160 L180,164 Z" fill="#2d263c" stroke="none"/><path d="M154,168 Q168,180 180,170 Q192,180 206,168 Q202,198 180,199 Q158,198 154,168 Z" fill="#7a3226" stroke-width="5"/><path d="M168,188 Q180,180 192,188 Q189,197 180,197 Q171,197 168,188 Z" fill="#f4929c" stroke="none"/><path d="M60,90 L74,90 L64,110 L78,110 L58,138 L66,112 L52,112 Z" fill="#fff176" stroke-width="5"/><path d="M300,90 L286,90 L296,110 L282,110 L302,138 L294,112 L308,112 Z" fill="#fff176" stroke-width="5"/></g></svg>