<svg xmlns="http://www.w3.org/2000/svg" viewBox="0 0 360 360"><g stroke="#2d263c" stroke-width="7" stroke-linejoin="round" stroke-linecap="round"><path d="M248,258 L278,232 L262,226 L292,192 L276,188 L300,152 L282,152 L266,182 L282,187 L252,220 L268,226 Z" fill="#f9d31d"/><path d="M300,152 L282,152 L288,140 L302,140 Z" fill="#2d263c"/><path d="M148,92 Q118,48 106,32 Q102,25 110,28 Q140,44 160,78 Z" fill="#f9d31d"/><path d="M106,32 Q102,25 110,28 Q122,36 132,50 Q120,54 111,44 Z" fill="#2d263c"/><path d="M212,92 Q242,48 254,32 Q258,25 250,28 Q220,44 200,78 Z" fill="#f9d31d"/><path d="M254,32 Q258,25 250,28 Q238,36 228,50 Q240,54 249,44 Z" fill="#2d263c"/><path d="M100,222 C90,150 128,88 180,88 C232,88 270,150 260,222 C270,272 236,322 180,322 C124,322 90,272 100,222 Z" fill="#f9d31d"/><ellipse cx="104" cy="228" rx="20" ry="24" fill="#f9d31d"/><ellipse cx="256" cy="228" rx="20" ry="24" fill="#f9d31d"/><ellipse cx="150" cy="308" rx="24" ry="16" fill="#f9d31d"/><ellipse cx="210" cy="308" rx="24" ry="16" fill="#f9d31d"/><circle cx="150" cy="190" r="15" fill="#2d263c" stroke="none"/><circle cx="210" cy="190" r="15" fill="#2d263c" stroke="none"/><circle cx="145" cy="185" r="5" fill="#ffffff" stroke="none"/><circle cx="205" cy="185" r="5" fill="#ffffff" stroke="none"/><circle cx="122" cy="216" r="15" fill="#e23d2d" stroke-width="5"/><circle cx="238" cy="216" r="15" fill="#e23d2d" stroke-width="5"/><path d="M172,204 L188,204 L180,210 Z" fill="#2d263c" stroke="none"/><path d="M158,222 Q180,238 202,222" fill="none" stroke-width="6"/></g></svg>
