<svg xmlns="http://www.w3.org/2000/svg" viewBox="0 0 360 360">
  <!-- tail feathers (behind body) -->
  <path d="M235 240 L320 220 L275 262 Z" fill="#caa06a" stroke="#2d263c" stroke-width="7" stroke-linejoin="round" stroke-linecap="round"/>
  <path d="M240 258 L318 258 L268 280 Z" fill="#b98a54" stroke="#2d263c" stroke-width="7" stroke-linejoin="round" stroke-linecap="round"/>
  <path d="M232 272 L295 292 L250 296 Z" fill="#caa06a" stroke="#2d263c" stroke-width="7" stroke-linejoin="round" stroke-linecap="round"/>

  <!-- legs / feet -->
  <path d="M152 305 L142 340" stroke="#2d263c" stroke-width="9" stroke-linecap="round"/>
  <path d="M210 305 L222 340" stroke="#2d263c" stroke-width="9" stroke-linecap="round"/>
  <path d="M118 343 L142 340 L162 346" fill="#e8a13c" stroke="#2d263c" stroke-width="7" stroke-linejoin="round" stroke-linecap="round"/>
  <path d="M200 346 L222 340 L246 343" fill="#e8a13c" stroke="#2d263c" stroke-width="7" stroke-linejoin="round" stroke-linecap="round"/>

  <!-- left wing -->
  <path d="M92 190 C40 195 25 260 58 292 C85 275 106 240 116 208 Z" fill="#caa06a" stroke="#2d263c" stroke-width="8" stroke-linejoin="round" stroke-linecap="round"/>
  <path d="M60 260 C50 275 55 285 65 288" fill="none" stroke="#f7ecce" stroke-width="7" stroke-linecap="round"/>

  <!-- right wing -->
  <path d="M262 185 C318 182 340 240 308 280 C280 262 258 232 250 202 Z" fill="#b98a54" stroke="#2d263c" stroke-width="8" stroke-linejoin="round" stroke-linecap="round"/>
  <path d="M300 250 C312 265 308 278 297 282" fill="none" stroke="#f7ecce" stroke-width="7" stroke-linecap="round"/>

  <!-- body -->
  <path d="M180 115 C270 118 288 215 258 278 C236 322 128 322 104 278 C74 215 92 118 180 115 Z" fill="#e0b787" stroke="#2d263c" stroke-width="9" stroke-linejoin="round" stroke-linecap="round"/>

  <!-- belly patch -->
  <path d="M150 205 C176 194 202 200 212 226 C222 258 202 298 176 300 C150 298 130 258 138 228 C141 218 145 210 150 205 Z" fill="#f7ecce" stroke="#2d263c" stroke-width="6" stroke-linejoin="round" stroke-linecap="round"/>

  <!-- head -->
  <circle cx="178" cy="128" r="82" fill="#e0b787" stroke="#2d263c" stroke-width="9"/>

  <!-- long swept-back crest feathers -->
  <path d="M140 70 C110 40 90 -5 100 5 C130 20 155 45 165 65 Z" fill="#c9463f" stroke="#2d263c" stroke-width="7" stroke-linejoin="round" stroke-linecap="round"/>
  <path d="M172 58 C160 15 168 -25 172 -12 C195 5 205 35 198 62 Z" fill="#d9645a" stroke="#2d263c" stroke-width="7" stroke-linejoin="round" stroke-linecap="round"/>
  <path d="M205 68 C220 30 250 5 244 18 C238 45 222 65 210 78 Z" fill="#c9463f" stroke="#2d263c" stroke-width="7" stroke-linejoin="round" stroke-linecap="round"/>

  <!-- cheeks -->
  <circle cx="124" cy="150" r="17" fill="#f2b3ab"/>
  <circle cx="232" cy="150" r="17" fill="#f2b3ab"/>

  <!-- eyes -->
  <circle cx="148" cy="118" r="16" fill="#fff" stroke="#2d263c" stroke-width="6"/>
  <circle cx="212" cy="118" r="16" fill="#fff" stroke="#2d263c" stroke-width="6"/>
  <circle cx="151" cy="121" r="7" fill="#2d263c"/>
  <circle cx="209" cy="121" r="7" fill="#2d263c"/>

  <!-- beak -->
  <path d="M166 155 L194 155 L180 180 Z" fill="#e8a13c" stroke="#2d263c" stroke-width="7" stroke-linejoin="round" stroke-linecap="round"/>
</svg>
