<svg xmlns="http://www.w3.org/2000/svg" viewBox="0 0 360 360"><g stroke="#2d263c" stroke-width="7" stroke-linejoin="round" stroke-linecap="round"><path d="M100 175 Q 55 160 45 185 Q 70 190 60 205 Q 85 210 80 228 Q 105 232 112 214 Z" fill="#fbdce6"/><path d="M262 172 Q 305 152 318 178 Q 292 185 303 200 Q 278 206 284 224 Q 258 226 252 208 Z" fill="#fbdce6"/><path d="M268 262 Q 312 248 318 278 Q 322 304 292 305 Q 270 304 272 284 Z" fill="#f9c2d2"/><path d="M 296 280 Q 308 278 306 290 Q 302 300 288 295 Q 276 288 282 274 Q 290 262 308 268" fill="none"/><ellipse cx="142" cy="312" rx="30" ry="16" fill="#f9c2d2"/><ellipse cx="220" cy="314" rx="33" ry="15" fill="#f9c2d2"/><path d="M120 140 Q 90 95 78 42 Q 120 70 170 115 Z" fill="#f9c2d2"/><path d="M78 42 Q 88 65 95 82 Q 105 77 115 71 Q 96 55 78 42 Z" fill="#5a4140"/><path d="M240 138 Q 272 92 284 38 Q 238 66 192 112 Z" fill="#f9c2d2"/><path d="M284 38 Q 274 60 266 78 Q 256 73 247 68 Q 266 52 284 38 Z" fill="#5a4140"/><path d="M 130 130 Q 100 140 88 185 Q 76 235 100 272 Q 130 308 182 310 Q 238 308 263 270 Q 285 232 272 182 Q 260 138 228 126 Q 180 108 130 130 Z" fill="#f9c2d2"/><path d="M 110 206 Q 80 214 66 240 Q 60 250 70 250 Q 64 260 74 260 Q 82 260 84 253 Q 86 262 95 257 Q 104 250 108 234 Q 110 222 114 214 Z" fill="#f9c2d2"/><path d="M 258 188 Q 285 176 296 150 Q 288 144 281 150 Q 282 139 273 141 Q 265 143 266 151 Q 260 142 252 148 Q 246 156 248 172 Q 250 184 256 198 Z" fill="#f9c2d2"/><path d="M 170 122 Q 178 100 196 104 Q 210 108 204 122 Q 199 132 188 126" fill="none"/><ellipse cx="152" cy="183" rx="7" ry="11" fill="#2d263c" stroke="none"/><ellipse cx="210" cy="179" rx="7" ry="11" fill="#2d263c" stroke="none"/><circle cx="155" cy="179" r="2.5" fill="#ffffff" stroke="none"/><circle cx="213" cy="175" r="2.5" fill="#ffffff" stroke="none"/><ellipse cx="122" cy="202" rx="12" ry="9" fill="#f09ab0" stroke="none"/><ellipse cx="238" cy="197" rx="12" ry="9" fill="#f09ab0" stroke="none"/><path d="M168 212 Q 180 223 194 210" fill="none"/></g></svg>