<svg xmlns="http://www.w3.org/2000/svg" viewBox="0 0 360 360">
  <!-- 翼(後ろ) -->
  <ellipse cx="118" cy="170" rx="38" ry="22" fill="#d8b4f8" stroke="#2d263c" stroke-width="6" stroke-linejoin="round" transform="rotate(-30 118 170)"/>
  <ellipse cx="108" cy="195" rx="28" ry="16" fill="#c89ef0" stroke="#2d263c" stroke-width="6" stroke-linejoin="round" transform="rotate(-20 108 195)"/>
  <ellipse cx="242" cy="170" rx="38" ry="22" fill="#d8b4f8" stroke="#2d263c" stroke-width="6" stroke-linejoin="round" transform="rotate(30 242 170)"/>
  <ellipse cx="252" cy="195" rx="28" ry="16" fill="#c89ef0" stroke="#2d263c" stroke-width="6" stroke-linejoin="round" transform="rotate(20 252 195)"/>

  <!-- しっぽ -->
  <path d="M 222 270 Q 258 285 262 268 Q 266 250 248 252 Q 236 253 238 262" fill="#f4a7c3" stroke="#2d263c" stroke-width="7" stroke-linejoin="round" stroke-linecap="round"/>

  <!-- 耳(左) -->
  <polygon points="128,95 108,38 152,75" fill="#f4a7c3" stroke="#2d263c" stroke-width="7" stroke-linejoin="round"/>
  <polygon points="130,88 115,52 146,78" fill="#e87fa8"/>

  <!-- 耳(右) -->
  <polygon points="232,95 252,38 208,75" fill="#f4a7c3" stroke="#2d263c" stroke-width="7" stroke-linejoin="round"/>
  <polygon points="230,88 245,52 214,78" fill="#e87fa8"/>

  <!-- 体 -->
  <ellipse cx="180" cy="235" rx="78" ry="72" fill="#f4a7c3" stroke="#2d263c" stroke-width="8" stroke-linejoin="round"/>

  <!-- お腹 -->
  <ellipse cx="178" cy="248" rx="48" ry="44" fill="#fde8f0"/>

  <!-- 頭 -->
  <ellipse cx="180" cy="148" rx="68" ry="62" fill="#f4a7c3" stroke="#2d263c" stroke-width="8" stroke-linejoin="round"/>

  <!-- ほっぺ(左) -->
  <ellipse cx="130" cy="162" rx="18" ry="13" fill="#f07baa" opacity="0.7"/>
  <!-- ほっぺ(右) -->
  <ellipse cx="230" cy="162" rx="18" ry="13" fill="#f07baa" opacity="0.7"/>

  <!-- 目(左) -->
  <ellipse cx="155" cy="145" rx="13" ry="15" fill="#fff" stroke="#2d263c" stroke-width="5"/>
  <ellipse cx="157" cy="147" rx="8" ry="9" fill="#3a8ee6"/>
  <ellipse cx="157" cy="147" rx="4" ry="5" fill="#1a3a7a"/>
  <circle cx="161" cy="143" r="3" fill="#fff"/>

  <!-- 目(右) -->
  <ellipse cx="205" cy="145" rx="13" ry="15" fill="#fff" stroke="#2d263c" stroke-width="5"/>
  <ellipse cx="207" cy="147" rx="8" ry="9" fill="#3a8ee6"/>
  <ellipse cx="207" cy="147" rx="4" ry="5" fill="#1a3a7a"/>
  <circle cx="211" cy="143" r="3" fill="#fff"/>

  <!-- 鼻 -->
  <ellipse cx="181" cy="163" rx="5" ry="3.5" fill="#e06090"/>

  <!-- 口(にこっ) -->
  <path d="M 165 174 Q 181 188 197 174" fill="none" stroke="#2d263c" stroke-width="5" stroke-linecap="round"/>

  <!-- 足(左) -->
  <ellipse cx="148" cy="300" rx="28" ry="18" fill="#f4a7c3" stroke="#2d263c" stroke-width="7" stroke-linejoin="round"/>
  <!-- 足(右) -->
  <ellipse cx="213" cy="302" rx="28" ry="18" fill="#f4a7c3" stroke="#2d263c" stroke-width="7" stroke-linejoin="round"/>

  <!-- 腕(左) -->
  <ellipse cx="112" cy="228" rx="18" ry="28" fill="#f4a7c3" stroke="#2d263c" stroke-width="7" stroke-linejoin="round" transform="rotate(-20 112 228)"/>
  <!-- 腕(右) -->
  <ellipse cx="248" cy="228" rx="18" ry="28" fill="#f4a7c3" stroke="#2d263c" stroke-width="7" stroke-linejoin="round" transform="rotate(20 248 228)"/>
</svg>