<svg xmlns="http://www.w3.org/2000/svg" viewBox="0 0 360 360">
  <!-- 尾羽(後ろ) -->
  <ellipse cx="180" cy="285" rx="55" ry="18" fill="#E8C040" stroke="#2d263c" stroke-width="7" stroke-linejoin="round"/>
  <ellipse cx="155" cy="288" rx="30" ry="14" fill="#D03030" stroke="#2d263c" stroke-width="6" stroke-linejoin="round"/>
  <ellipse cx="205" cy="290" rx="28" ry="13" fill="#D03030" stroke="#2d263c" stroke-width="6" stroke-linejoin="round"/>
  <ellipse cx="180" cy="282" rx="22" ry="16" fill="#E8C040" stroke="#2d263c" stroke-width="6" stroke-linejoin="round"/>

  <!-- 左翼(後ろ側) -->
  <path d="M130 170 Q60 130 40 90 Q55 95 70 110 Q80 80 100 70 Q115 100 120 140 Z" fill="#A06020" stroke="#2d263c" stroke-width="7" stroke-linejoin="round" stroke-linecap="round"/>

  <!-- 右翼(後ろ側) -->
  <path d="M230 170 Q300 130 320 90 Q305 95 290 110 Q280 80 260 70 Q245 100 240 140 Z" fill="#A06020" stroke="#2d263c" stroke-width="7" stroke-linejoin="round" stroke-linecap="round"/>

  <!-- 胴体 -->
  <ellipse cx="180" cy="220" rx="68" ry="75" fill="#C8822A" stroke="#2d263c" stroke-width="8" stroke-linejoin="round"/>

  <!-- お腹(クリーム色) -->
  <ellipse cx="180" cy="235" rx="42" ry="52" fill="#F5E8B0" stroke="#2d263c" stroke-width="5" stroke-linejoin="round"/>

  <!-- 左翼(前側) -->
  <path d="M118 185 Q50 155 32 200 Q50 210 72 200 Q65 230 80 245 Q105 220 118 210 Z" fill="#C8822A" stroke="#2d263c" stroke-width="7" stroke-linejoin="round" stroke-linecap="round"/>

  <!-- 右翼(前側) -->
  <path d="M242 185 Q310 155 328 200 Q310 210 288 200 Q295 230 280 245 Q255 220 242 210 Z" fill="#C8822A" stroke="#2d263c" stroke-width="7" stroke-linejoin="round" stroke-linecap="round"/>

  <!-- 翼の羽模様(左) -->
  <path d="M60 200 Q72 210 80 225" fill="none" stroke="#A06020" stroke-width="4" stroke-linecap="round"/>
  <path d="M52 193 Q65 205 70 218" fill="none" stroke="#A06020" stroke-width="3" stroke-linecap="round"/>

  <!-- 翼の羽模様(右) -->
  <path d="M300 200 Q288 210 280 225" fill="none" stroke="#A06020" stroke-width="4" stroke-linecap="round"/>
  <path d="M308 193 Q295 205 290 218" fill="none" stroke="#A06020" stroke-width="3" stroke-linecap="round"/>

  <!-- 首 -->
  <rect x="160" y="145" width="40" height="38" rx="14" fill="#F5E8B0" stroke="#2d263c" stroke-width="7" stroke-linejoin="round"/>

  <!-- 頭 -->
  <ellipse cx="180" cy="130" rx="50" ry="48" fill="#C8822A" stroke="#2d263c" stroke-width="8" stroke-linejoin="round"/>

  <!-- 顔の白い部分 -->
  <ellipse cx="180" cy="138" rx="32" ry="30" fill="#F5E8B0" stroke="#2d263c" stroke-width="4" stroke-linejoin="round"/>

  <!-- トサカ(後ろの赤) -->
  <path d="M158 92 Q148 55 135 30 Q152 48 162 75 Z" fill="#D03030" stroke="#2d263c" stroke-width="6" stroke-linejoin="round" stroke-linecap="round"/>
  <path d="M170 88 Q165 45 158 18 Q170 42 178 72 Z" fill="#D03030" stroke="#2d263c" stroke-width="6" stroke-linejoin="round" stroke-linecap="round"/>
  <path d="M183 87 Q184 42 182 15 Q188 42 190 70 Z" fill="#D03030" stroke="#2d263c" stroke-width="6" stroke-linejoin="round" stroke-linecap="round"/>

  <!-- トサカ(前の黄色先端) -->
  <path d="M158 92 Q148 55 135 30 Q137 32 140 35 Q143 55 155 80 Z" fill="#E8C040" stroke="none"/>
  <path d="M170 88 Q165 45 158 18 Q160 22 163 28 Q166 50 168 76 Z" fill="#E8C040" stroke="none"/>
  <path d="M183 87 Q184 42 182 15 Q184 20 186 25 Q187 48 186 72 Z" fill="#E8C040" stroke="none"/>

  <!-- 右ほっぺの赤い模様 -->
  <ellipse cx="208" cy="140" rx="10" ry="7" fill="#D03030" stroke="#2d263c" stroke-width="3"/>

  <!-- 左ほっぺの赤い模様 -->
  <ellipse cx="152" cy="140" rx="10" ry="7" fill="#D03030" stroke="#2d263c" stroke-width="3"/>

  <!-- 目(左) -->
  <ellipse cx="162" cy="128" rx="10" ry="10" fill="#F0D000" stroke="#2d263c" stroke-width="5"/>
  <circle cx="164" cy="126" r="5" fill="#1a1a1a"/>
  <circle cx="166" cy="124" r="2" fill="white"/>

  <!-- 目(右) -->
  <ellipse cx="198" cy="128" rx="10" ry="10" fill="#F0D000" stroke="#2d263c" stroke-width="5"/>
  <circle cx="200" cy="126" r="5" fill="#1a1a1a"/>
  <circle cx="202" cy="124" r="2" fill="white"/>

  <!-- くちばし上 -->
  <path d="M170 148 Q180 144 190 148 Q186 162 180 170 Q174 162 170 148 Z" fill="#D0A020" stroke="#2d263c" stroke-width="5" stroke-linejoin="round"/>
  <!-- くちばし下 -->
  <path d="M174 158 Q180 156 186 158 Q183 166 180 170 Q177 166 174 158 Z" fill="#B08010" stroke="#2d263c" stroke-width="4" stroke-linejoin="round"/>

  <!-- 足(左) -->
  <path d="M160 285 Q155 300 148 308 M160 285 Q158 302 152 312 M160 285 Q162 302 158 314" fill="none" stroke="#D0A020" stroke-width="6" stroke-linecap="round"/>
  <ellipse cx="160" cy="285" rx="12" ry="8" fill="#D0A020" stroke="#2d263c" stroke-width="5"/>

  <!-- 足(右) -->
  <path d="M200 285 Q205 300 212 308 M200 285 Q202 302 208 312 M200 285 Q198 302 202 314" fill="none" stroke="#D0A020" stroke-width="6" stroke-linecap="round"/>
  <ellipse cx="200" cy="285" rx="12" ry="8" fill="#D0A020" stroke="#2d263c" stroke-width="5"/>
</svg>