<svg xmlns="http://www.w3.org/2000/svg" viewBox="0 0 360 360">
  <path d="M178 100 C 142 66 88 70 48 112 C 82 110 96 128 86 154 C 116 136 146 140 154 160 C 166 140 174 116 178 100 Z" fill="#f9d44a" stroke="#2d263c" stroke-width="7" stroke-linejoin="round" stroke-linecap="round"/>
  <path d="M194 84 C 190 34 118 12 54 40 C 92 46 104 66 90 90 C 128 74 154 84 164 110 C 178 102 190 94 194 84 Z" fill="#e8403f" stroke="#2d263c" stroke-width="7" stroke-linejoin="round" stroke-linecap="round"/>
  <path d="M148 272 L 118 334 L 156 304 Z" fill="#f9d44a" stroke="#2d263c" stroke-width="7" stroke-linejoin="round"/>
  <path d="M214 272 L 250 328 L 212 304 Z" fill="#f9d44a" stroke="#2d263c" stroke-width="7" stroke-linejoin="round"/>
  <path d="M176 276 L 184 344 L 206 300 Z" fill="#e8403f" stroke="#2d263c" stroke-width="7" stroke-linejoin="round"/>
  <path d="M126 176 C 80 150 38 168 30 214 C 54 204 66 214 62 236 C 84 224 98 232 100 250 C 114 238 122 206 126 176 Z" fill="#c89c60" stroke="#2d263c" stroke-width="7" stroke-linejoin="round" stroke-linecap="round"/>
  <path d="M238 180 C 284 158 326 178 330 222 C 308 210 296 222 298 242 C 278 228 264 238 262 254 C 250 240 240 210 238 180 Z" fill="#c89c60" stroke="#2d263c" stroke-width="7" stroke-linejoin="round" stroke-linecap="round"/>
  <path d="M180 142 C 132 146 112 192 116 238 C 120 284 146 306 182 306 C 220 306 246 280 248 234 C 250 190 230 146 180 142 Z" fill="#d9b078" stroke="#2d263c" stroke-width="7" stroke-linejoin="round"/>
  <path d="M152 296 L 146 324 L 132 336 L 148 332 L 150 344 L 158 332 L 170 338 L 162 322 L 164 298 Z" fill="#f0a0a0" stroke="#2d263c" stroke-width="6" stroke-linejoin="round"/>
  <path d="M208 298 L 206 324 L 192 338 L 206 332 L 210 344 L 218 330 L 232 336 L 220 322 L 218 298 Z" fill="#f0a0a0" stroke="#2d263c" stroke-width="6" stroke-linejoin="round"/>
  <path d="M182 196 C 152 198 140 224 142 252 C 144 280 160 296 184 296 C 208 296 222 278 222 250 C 222 222 210 196 182 196 Z" fill="#f5e6c0" stroke="#2d263c" stroke-width="6" stroke-linejoin="round"/>
  <path d="M180 64 C 142 64 118 94 120 124 C 122 154 150 170 182 170 C 216 170 242 150 240 116 C 238 86 216 64 180 64 Z" fill="#d9b078" stroke="#2d263c" stroke-width="7" stroke-linejoin="round"/>
  <path d="M128 108 L 166 114 L 162 128 L 126 120 Z" fill="#2d263c"/>
  <path d="M232 106 L 196 114 L 200 128 L 234 118 Z" fill="#2d263c"/>
  <circle cx="151" cy="120" r="8" fill="#ffffff" stroke="#2d263c" stroke-width="4"/>
  <circle cx="209" cy="119" r="8" fill="#ffffff" stroke="#2d263c" stroke-width="4"/>
  <circle cx="152" cy="121" r="3.4" fill="#2d263c"/>
  <circle cx="208" cy="121" r="3.4" fill="#2d263c"/>
  <path d="M162 134 Q 181 126 200 133 L 190 156 Q 183 170 176 155 Z" fill="#e8a87e" stroke="#2d263c" stroke-width="6" stroke-linejoin="round" stroke-linecap="round"/>
</svg>