<svg xmlns="http://www.w3.org/2000/svg" viewBox="0 0 360 360">
  <ellipse cx="292" cy="238" rx="20" ry="26" fill="#FF9EB5" stroke="#2d263c" stroke-width="7" stroke-linejoin="round"/>
  <ellipse cx="138" cy="298" rx="30" ry="22" fill="#FF9EB5" stroke="#2d263c" stroke-width="7" stroke-linejoin="round"/>
  <ellipse cx="222" cy="298" rx="30" ry="22" fill="#FF9EB5" stroke="#2d263c" stroke-width="7" stroke-linejoin="round"/>
  <ellipse cx="82" cy="196" rx="24" ry="36" fill="#FFC1CC" stroke="#2d263c" stroke-width="7" stroke-linejoin="round" transform="rotate(-15 82 196)"/>
  <ellipse cx="278" cy="196" rx="24" ry="36" fill="#FFC1CC" stroke="#2d263c" stroke-width="7" stroke-linejoin="round" transform="rotate(15 278 196)"/>
  <ellipse cx="180" cy="185" rx="98" ry="115" fill="#FFC1CC" stroke="#2d263c" stroke-width="8" stroke-linejoin="round"/>
  <path d="M100,150 Q180,120 260,150 L255,240 L235,225 L215,245 L195,225 L175,245 L155,225 L135,245 L115,225 Z" fill="#FFF8EC" stroke="#2d263c" stroke-width="6" stroke-linejoin="round"/>
  <path d="M170,72 Q150,55 165,45 Q182,38 178,58" fill="none" stroke="#2d263c" stroke-width="7" stroke-linecap="round"/>
  <circle cx="132" cy="207" r="12" fill="#FF8FA8"/>
  <circle cx="228" cy="207" r="12" fill="#FF8FA8"/>
  <ellipse cx="150" cy="175" rx="13" ry="18" fill="#2d263c"/>
  <ellipse cx="210" cy="175" rx="13" ry="18" fill="#2d263c"/>
  <circle cx="154" cy="168" r="4" fill="#ffffff"/>
  <circle cx="214" cy="168" r="4" fill="#ffffff"/>
  <path d="M168,215 Q180,225 192,215" fill="none" stroke="#2d263c" stroke-width="6" stroke-linecap="round"/>
</svg>
