<svg xmlns="http://www.w3.org/2000/svg" viewBox="0 0 360 360">
  <ellipse cx="180" cy="235" rx="60" ry="52" fill="#5a5ad1" stroke="#2d263c" stroke-width="7" stroke-linejoin="round"/>
  <path d="M215 210 C260 195 300 165 305 130 C280 150 250 165 220 175 Z" fill="#8b7fe0" stroke="#2d263c" stroke-width="7" stroke-linejoin="round" stroke-linecap="round"/>
  <path d="M145 210 C100 195 60 165 55 130 C80 150 110 165 140 175 Z" fill="#8b7fe0" stroke="#2d263c" stroke-width="7" stroke-linejoin="round" stroke-linecap="round"/>
  <path d="M170 250 C150 290 130 310 105 330" fill="none" stroke="#2d263c" stroke-width="7" stroke-linecap="round"/>
  <path d="M170 250 C150 290 130 310 105 330" fill="none" stroke="#c9c2f5" stroke-width="4" stroke-linecap="round"/>
  <path d="M182 258 C176 300 168 320 158 335" fill="none" stroke="#2d263c" stroke-width="7" stroke-linecap="round"/>
  <path d="M182 258 C176 300 168 320 158 335" fill="none" stroke="#c9c2f5" stroke-width="4" stroke-linecap="round"/>
  <path d="M195 255 C205 295 215 315 230 332" fill="none" stroke="#2d263c" stroke-width="7" stroke-linecap="round"/>
  <path d="M195 255 C205 295 215 315 230 332" fill="none" stroke="#c9c2f5" stroke-width="4" stroke-linecap="round"/>
  <path d="M195 195 C185 150 175 110 178 75" fill="none" stroke="#2d263c" stroke-width="9" stroke-linecap="round"/>
  <path d="M195 195 C185 150 175 110 178 75" fill="none" stroke="#5a5ad1" stroke-width="6" stroke-linecap="round"/>
  <ellipse cx="178" cy="60" rx="34" ry="30" fill="#5a5ad1" stroke="#2d263c" stroke-width="7"/>
  <path d="M150 40 C140 10 150 5 165 25 Z" fill="#e64fa0" stroke="#2d263c" stroke-width="6" stroke-linejoin="round"/>
  <path d="M178 30 C178 0 195 -5 200 22 Z" fill="#e64fa0" stroke="#2d263c" stroke-width="6" stroke-linejoin="round"/>
  <path d="M205 45 C230 30 240 40 220 55 Z" fill="#e64fa0" stroke="#2d263c" stroke-width="6" stroke-linejoin="round"/>
  <circle cx="167" cy="58" r="6" fill="#2d263c"/>
  <path d="M195 62 C210 60 218 68 210 78 C202 84 190 80 190 70 Z" fill="#d9d3f8" stroke="#2d263c" stroke-width="6" stroke-linejoin="round"/>
  <ellipse cx="150" cy="245" rx="10" ry="16" fill="#3d3aa0" stroke="#2d263c" stroke-width="5"/>
  <ellipse cx="210" cy="245" rx="10" ry="16" fill="#3d3aa0" stroke="#2d263c" stroke-width="5"/>
  <ellipse cx="180" cy="270" rx="12" ry="9" fill="#3d3aa0" stroke="#2d263c" stroke-width="5"/>
</svg>
