<svg xmlns="http://www.w3.org/2000/svg" viewBox="0 0 360 360">
  <!-- 裾・ドレス下部(後ろ) -->
  <ellipse cx="183" cy="295" rx="72" ry="42" fill="#f0ebe0" stroke="#2d263c" stroke-width="7" stroke-linejoin="round"/>

  <!-- ドレス本体 -->
  <path d="M130 230 Q118 260 122 295 Q148 330 183 332 Q218 330 244 295 Q248 260 236 230 Q215 218 183 216 Q151 218 130 230Z" fill="#f5f0e8" stroke="#2d263c" stroke-width="7" stroke-linejoin="round"/>

  <!-- ドレスの緑模様ライン -->
  <path d="M148 242 Q183 238 218 242" fill="none" stroke="#7bc67e" stroke-width="4" stroke-linecap="round"/>
  <path d="M140 262 Q183 257 226 262" fill="none" stroke="#7bc67e" stroke-width="3.5" stroke-linecap="round"/>

  <!-- 体の赤い花飾り(胸前) -->
  <circle cx="183" cy="250" r="13" fill="#e8394a" stroke="#2d263c" stroke-width="5"/>
  <ellipse cx="183" cy="236" rx="7" ry="10" fill="#e8394a" stroke="#2d263c" stroke-width="4"/>
  <ellipse cx="183" cy="264" rx="7" ry="10" fill="#e8394a" stroke="#2d263c" stroke-width="4"/>
  <ellipse cx="169" cy="250" rx="10" ry="7" fill="#e8394a" stroke="#2d263c" stroke-width="4"/>
  <ellipse cx="197" cy="250" rx="10" ry="7" fill="#e8394a" stroke="#2d263c" stroke-width="4"/>
  <circle cx="183" cy="250" r="6" fill="#ffcb3d"/>

  <!-- 首 -->
  <path d="M170 185 Q169 210 170 220 Q183 225 196 220 Q197 210 196 185Z" fill="#f5f0e8" stroke="#2d263c" stroke-width="6" stroke-linejoin="round"/>

  <!-- 左腕 -->
  <path d="M165 215 Q148 220 136 235 Q130 248 134 256" fill="none" stroke="#f5f0e8" stroke-width="12" stroke-linecap="round" stroke-linejoin="round"/>
  <path d="M165 215 Q148 220 136 235 Q130 248 134 256" fill="none" stroke="#2d263c" stroke-width="7" stroke-linecap="round" stroke-linejoin="round"/>

  <!-- 右腕 -->
  <path d="M201 215 Q218 220 230 234 Q236 247 233 256" fill="none" stroke="#f5f0e8" stroke-width="12" stroke-linecap="round" stroke-linejoin="round"/>
  <path d="M201 215 Q218 220 230 234 Q236 247 233 256" fill="none" stroke="#2d263c" stroke-width="7" stroke-linecap="round" stroke-linejoin="round"/>

  <!-- 頭 -->
  <ellipse cx="183" cy="165" rx="38" ry="35" fill="#f5f0e8" stroke="#2d263c" stroke-width="7" stroke-linejoin="round"/>

  <!-- 左の大きな花(頭飾り) -->
  <ellipse cx="128" cy="148" rx="11" ry="17" fill="#e8394a" stroke="#2d263c" stroke-width="5" transform="rotate(-25 128 148)"/>
  <ellipse cx="113" cy="160" rx="11" ry="17" fill="#e8394a" stroke="#2d263c" stroke-width="5" transform="rotate(-65 113 160)"/>
  <ellipse cx="116" cy="140" rx="11" ry="17" fill="#e8394a" stroke="#2d263c" stroke-width="5" transform="rotate(10 116 140)"/>
  <ellipse cx="104" cy="152" rx="11" ry="17" fill="#cc2233" stroke="#2d263c" stroke-width="4" transform="rotate(-40 104 152)"/>
  <circle cx="118" cy="153" r="12" fill="#ffcb3d" stroke="#2d263c" stroke-width="4"/>
  <!-- 花の中心小円 -->
  <circle cx="118" cy="153" r="5" fill="#e89030"/>

  <!-- 右の大きな花(頭飾り) -->
  <ellipse cx="238" cy="148" rx="11" ry="17" fill="#e8394a" stroke="#2d263c" stroke-width="5" transform="rotate(25 238 148)"/>
  <ellipse cx="253" cy="160" rx="11" ry="17" fill="#e8394a" stroke="#2d263c" stroke-width="5" transform="rotate(65 253 160)"/>
  <ellipse cx="250" cy="140" rx="11" ry="17" fill="#e8394a" stroke="#2d263c" stroke-width="5" transform="rotate(-10 250 140)"/>
  <ellipse cx="262" cy="152" rx="11" ry="17" fill="#cc2233" stroke="#2d263c" stroke-width="4" transform="rotate(40 262 152)"/>
  <circle cx="248" cy="153" r="12" fill="#ffcb3d" stroke="#2d263c" stroke-width="4"/>
  <circle cx="248" cy="153" r="5" fill="#e89030"/>

  <!-- 緑の茎(花と頭をつなぐ) -->
  <path d="M148 158 Q155 162 162 163" fill="none" stroke="#5baa60" stroke-width="5" stroke-linecap="round"/>
  <path d="M218 158 Q211 162 204 163" fill="none" stroke="#5baa60" stroke-width="5" stroke-linecap="round"/>

  <!-- 目(左) ちょっとたれ目 -->
  <ellipse cx="170" cy="166" rx="9" ry="10" fill="#fff" stroke="#2d263c" stroke-width="4"/>
  <ellipse cx="172" cy="168" rx="5" ry="6" fill="#4a90d9" stroke="#2d263c" stroke-width="2"/>
  <circle cx="173" cy="166" r="2.5" fill="#1a1a2e"/>
  <circle cx="175" cy="165" r="1.2" fill="white"/>

  <!-- 目(右) ちょっと大きくしてバランス崩す(味) -->
  <ellipse cx="196" cy="164" rx="10" ry="11" fill="#fff" stroke="#2d263c" stroke-width="4"/>
  <ellipse cx="198" cy="166" rx="6" ry="7" fill="#4a90d9" stroke="#2d263c" stroke-width="2"/>
  <circle cx="199" cy="164" r="3" fill="#1a1a2e"/>
  <circle cx="201" cy="163" r="1.4" fill="white"/>

  <!-- まゆ毛 -->
  <path d="M163 154 Q170 150 177 153" fill="none" stroke="#2d263c" stroke-width="3.5" stroke-linecap="round"/>
  <path d="M189 152 Q196 148 204 151" fill="none" stroke="#2d263c" stroke-width="3.5" stroke-linecap="round"/>

  <!-- 口(小さくちょっとへの字) -->
  <path d="M179 180 Q183 184 188 180" fill="none" stroke="#2d263c" stroke-width="3.5" stroke-linecap="round"/>

  <!-- ほっぺ(薄いピンク) -->
  <ellipse cx="161" cy="176" rx="8" ry="5" fill="#f4a0a8" opacity="0.6"/>
  <ellipse cx="205" cy="175" rx="8" ry="5" fill="#f4a0a8" opacity="0.6"/>

  <!-- 頭の上の小さな葉っぱ飾り -->
  <ellipse cx="183" cy="132" rx="8" ry="14" fill="#7bc67e" stroke="#2d263c" stroke-width="4" transform="rotate(-8 183 132)"/>
  <ellipse cx="193" cy="129" rx="6" ry="12" fill="#5baa60" stroke="#2d263c" stroke-width="3.5" transform="rotate(15 193 129)"/>
</svg>