<svg xmlns="http://www.w3.org/2000/svg" viewBox="0 0 360 360">
  <!-- 尻尾(後ろ) -->
  <path d="M255 250 Q320 230 330 160 Q334 130 310 135 Q315 175 270 210 Z" fill="#f5d94e" stroke="#2d263c" stroke-width="7" stroke-linejoin="round"/>
  <!-- 体(胴体・後ろ足含む) -->
  <path d="M120 340 Q90 300 95 250 Q80 220 90 190 Q75 150 110 110 Q140 75 185 75 Q235 75 255 120 Q270 150 255 190 Q265 230 240 270 Q245 310 210 340 Q170 355 120 340 Z" fill="#2f5fae" stroke="#2d263c" stroke-width="8" stroke-linejoin="round"/>
  <!-- お腹(クリーム色) -->
  <path d="M150 330 Q130 290 135 240 Q125 200 140 160 Q150 130 180 130 Q205 130 210 165 Q220 205 210 245 Q215 290 195 330 Q175 340 150 330 Z" fill="#fbeecb" stroke="#2d263c" stroke-width="6" stroke-linejoin="round"/>
  <!-- 前足 -->
  <ellipse cx="105" cy="300" rx="22" ry="34" fill="#2f5fae" stroke="#2d263c" stroke-width="7"/>
  <ellipse cx="225" cy="300" rx="22" ry="34" fill="#2f5fae" stroke="#2d263c" stroke-width="7"/>
  <ellipse cx="105" cy="322" rx="16" ry="12" fill="#fbeecb" stroke="#2d263c" stroke-width="5"/>
  <ellipse cx="225" cy="322" rx="16" ry="12" fill="#fbeecb" stroke="#2d263c" stroke-width="5"/>
  <!-- 胸の浮き袋(星形の黄色いパーツ) -->
  <path d="M165 150 L180 120 L195 150 L228 152 L202 172 L212 205 L180 185 L148 205 L158 172 L132 152 Z" fill="#f5d94e" stroke="#2d263c" stroke-width="6" stroke-linejoin="round"/>
  <!-- 頭 -->
  <ellipse cx="180" cy="90" rx="58" ry="52" fill="#2f5fae" stroke="#2d263c" stroke-width="8"/>
  <!-- 顔の白い部分 -->
  <path d="M150 105 Q180 130 210 105 Q210 75 180 65 Q150 75 150 105 Z" fill="#fbeecb" stroke="#2d263c" stroke-width="5" stroke-linejoin="round"/>
  <!-- 耳 -->
  <circle cx="135" cy="55" r="20" fill="#2f5fae" stroke="#2d263c" stroke-width="7"/>
  <circle cx="225" cy="55" r="20" fill="#2f5fae" stroke="#2d263c" stroke-width="7"/>
  <circle cx="135" cy="55" r="8" fill="#fbeecb"/>
  <circle cx="225" cy="55" r="8" fill="#fbeecb"/>
  <!-- 頭の黄色いヒレ(アンテナ) -->
  <path d="M178 40 Q170 5 195 10 Q205 30 185 48 Z" fill="#f5d94e" stroke="#2d263c" stroke-width="6" stroke-linejoin="round"/>
  <!-- 目 -->
  <ellipse cx="160" cy="95" rx="7" ry="9" fill="#2d263c"/>
  <ellipse cx="200" cy="95" rx="7" ry="9" fill="#2d263c"/>
  <circle cx="162" cy="92" r="2" fill="#fff"/>
  <circle cx="202" cy="92" r="2" fill="#fff"/>
  <!-- 鼻 -->
  <ellipse cx="180" cy="112" rx="4" ry="3" fill="#2d263c"/>
</svg>
