<svg xmlns="http://www.w3.org/2000/svg" viewBox="0 0 360 360">
  <path d="M168 74 Q179 40 194 72 Z" fill="#c9cad6" stroke="#2d263c" stroke-width="7" stroke-linejoin="round" stroke-linecap="round"/>
  <path d="M112 138 Q62 92 45 65 Q40 54 51 49 Q61 46 68 56 Q94 92 134 120 Z" fill="#c9cad6" stroke="#2d263c" stroke-width="7" stroke-linejoin="round" stroke-linecap="round"/>
  <path d="M248 134 Q300 90 315 67 Q321 56 310 50 Q299 47 293 58 Q268 90 228 118 Z" fill="#c9cad6" stroke="#2d263c" stroke-width="7" stroke-linejoin="round" stroke-linecap="round"/>
  <path d="M114 268 Q64 306 50 327 Q44 337 55 342 Q65 345 72 335 Q98 304 134 280 Z" fill="#c9cad6" stroke="#2d263c" stroke-width="7" stroke-linejoin="round" stroke-linecap="round"/>
  <path d="M248 270 Q296 304 311 325 Q317 335 306 340 Q296 343 290 333 Q266 304 228 282 Z" fill="#c9cad6" stroke="#2d263c" stroke-width="7" stroke-linejoin="round" stroke-linecap="round"/>
  <ellipse cx="180" cy="202" rx="98" ry="58" fill="#443a52" stroke="#2d263c" stroke-width="7"/>
  <path d="M76 180 Q70 108 140 78 Q180 60 224 80 Q290 110 286 178 Q236 168 180 170 Q120 168 76 180 Z" fill="#a05ca6" stroke="#2d263c" stroke-width="7" stroke-linejoin="round" stroke-linecap="round"/>
  <path d="M80 236 Q124 246 180 247 Q238 246 281 234 Q286 290 224 314 Q180 330 142 316 Q78 288 80 236 Z" fill="#a05ca6" stroke="#2d263c" stroke-width="7" stroke-linejoin="round" stroke-linecap="round"/>
  <path d="M76 180 Q120 168 180 170 Q236 168 286 178 Q288 188 284 193 Q236 182 180 184 Q122 182 79 195 Q74 186 76 180 Z" fill="#dcdde4" stroke="#2d263c" stroke-width="6" stroke-linejoin="round" stroke-linecap="round"/>
  <path d="M83 221 Q124 232 180 233 Q236 231 279 219 Q284 228 281 234 Q238 246 180 247 Q124 246 80 236 Q79 227 83 221 Z" fill="#dcdde4" stroke="#2d263c" stroke-width="6" stroke-linejoin="round" stroke-linecap="round"/>
  <path d="M104 110 Q126 88 156 82" fill="none" stroke="#c08cc8" stroke-width="8" stroke-linecap="round"/>
  <circle cx="132" cy="128" r="7" fill="#7c4486" stroke="#2d263c" stroke-width="5"/>
  <circle cx="231" cy="136" r="6" fill="#7c4486" stroke="#2d263c" stroke-width="5"/>
  <circle cx="214" cy="288" r="6" fill="#7c4486" stroke="#2d263c" stroke-width="5"/>
  <circle cx="152" cy="206" r="10" fill="#ee4035" stroke="#2d263c" stroke-width="6"/>
  <circle cx="213" cy="205" r="9" fill="#ee4035" stroke="#2d263c" stroke-width="6"/>
  <circle cx="149" cy="202" r="3.5" fill="#ffffff"/>
  <circle cx="210" cy="201" r="3" fill="#ffffff"/>
</svg>