<svg xmlns="http://www.w3.org/2000/svg" viewBox="0 0 360 360"><path d="M173 64 L181 24 L196 62 Z" fill="#C9C9D6" stroke="#2d263c" stroke-width="7" stroke-linejoin="round" stroke-linecap="round"/><path d="M97 112 L46 60 L122 80 Z" fill="#C9C9D6" stroke="#2d263c" stroke-width="7" stroke-linejoin="round" stroke-linecap="round"/><path d="M260 106 L318 56 L243 76 Z" fill="#C9C9D6" stroke="#2d263c" stroke-width="7" stroke-linejoin="round" stroke-linecap="round"/><path d="M94 298 L42 336 L116 320 Z" fill="#C9C9D6" stroke="#2d263c" stroke-width="7" stroke-linejoin="round" stroke-linecap="round"/><path d="M266 296 L320 332 L246 320 Z" fill="#C9C9D6" stroke="#2d263c" stroke-width="7" stroke-linejoin="round" stroke-linecap="round"/><ellipse cx="180" cy="220" rx="112" ry="92" fill="#463F4D" stroke="#2d263c" stroke-width="7"/><path d="M62 198 Q 54 112 130 76 Q 182 52 240 78 Q 306 108 300 192 Q 250 206 178 200 Q 110 206 62 198 Z" fill="#A8509E" stroke="#2d263c" stroke-width="8" stroke-linejoin="round" stroke-linecap="round"/><path d="M70 246 Q 122 240 180 244 Q 246 238 292 244 Q 296 302 236 328 Q 178 348 122 324 Q 66 300 70 246 Z" fill="#A8509E" stroke="#2d263c" stroke-width="8" stroke-linejoin="round" stroke-linecap="round"/><path d="M112 102 Q 142 80 178 84 Q 158 102 152 128 Q 128 122 112 102 Z" fill="#CD85C6"/><path d="M230 280 Q 252 290 256 268 Q 244 262 230 280 Z" fill="#CD85C6"/><path d="M96 168 Q 120 182 150 184" fill="none" stroke="#2d263c" stroke-width="6" stroke-linecap="round"/><path d="M214 182 Q 244 180 266 166" fill="none" stroke="#2d263c" stroke-width="6" stroke-linecap="round"/><path d="M132 300 Q 168 312 212 302" fill="none" stroke="#2d263c" stroke-width="6" stroke-linecap="round"/><circle cx="140" cy="221" r="13" fill="#ffffff" stroke="#2d263c" stroke-width="6"/><circle cx="216" cy="219" r="12" fill="#ffffff" stroke="#2d263c" stroke-width="6"/><circle cx="143" cy="222" r="5" fill="#2d263c"/><circle cx="213" cy="220" r="5" fill="#2d263c"/></svg>