<svg xmlns="http://www.w3.org/2000/svg" viewBox="0 0 360 360">
 <g stroke="#2d263c" stroke-width="7" stroke-linejoin="round" stroke-linecap="round">
  <ellipse fill="#2f8a46" cx="95" cy="165" rx="60" ry="28" transform="rotate(-25 95 165)"/>
  <ellipse fill="#2f8a46" cx="265" cy="165" rx="60" ry="28" transform="rotate(25 265 165)"/>
  <path fill="#1f6b34" d="M128 145 C100 150 70 175 68 215 C67 235 80 248 100 245 C90 230 90 205 108 185 C118 175 128 165 132 155 Z"/>
  <path fill="#1f6b34" d="M232 145 C260 150 290 175 292 215 C293 235 280 248 260 245 C270 230 270 205 252 185 C242 175 232 165 228 155 Z"/>
  <ellipse fill="#a8253a" cx="125" cy="118" rx="24" ry="42" transform="rotate(-50 125 118)"/>
  <ellipse fill="#c62e42" cx="152" cy="88" rx="25" ry="44" transform="rotate(-22 152 88)"/>
  <ellipse fill="#d13a4d" cx="180" cy="72" rx="26" ry="44"/>
  <ellipse fill="#c62e42" cx="208" cy="88" rx="25" ry="44" transform="rotate(22 208 88)"/>
  <ellipse fill="#a8253a" cx="235" cy="118" rx="24" ry="42" transform="rotate(50 235 118)"/>
  <circle fill="#6e1f2c" cx="180" cy="118" r="26"/>
  <circle fill="#f2a93c" stroke-width="5" cx="180" cy="118" r="13"/>
  <circle fill="#6e1f2c" stroke="none" cx="172" cy="110" r="3"/>
  <circle fill="#6e1f2c" stroke="none" cx="180" cy="105" r="3"/>
  <circle fill="#6e1f2c" stroke="none" cx="188" cy="110" r="3"/>
  <ellipse fill="#3f9d52" cx="180" cy="250" rx="115" ry="82"/>
  <ellipse fill="#a5d96b" cx="180" cy="262" rx="72" ry="50"/>
  <path fill="none" stroke-width="4" d="M145 245 Q180 236 215 245 M152 262 Q180 254 208 262"/>
  <rect fill="#3f9d52" x="78" y="296" width="46" height="38" rx="16"/>
  <rect fill="#3f9d52" x="236" y="296" width="46" height="38" rx="16"/>
  <path fill="none" stroke-width="5" d="M84 334 Q82 344 79 347 M96 335 Q96 346 95 349 M108 334 Q111 344 112 347"/>
  <path fill="none" stroke-width="5" d="M276 334 Q278 344 281 347 M264 335 Q264 346 265 349 M252 334 Q249 344 248 347"/>
  <path fill="#1f6b34" d="M96 258 C78 265 68 285 74 305 C80 300 88 285 100 275 C104 270 102 262 96 258 Z"/>
  <path fill="#1f6b34" d="M264 258 C282 265 292 285 286 305 C280 300 272 285 260 275 C256 270 258 262 264 258 Z"/>
  <rect fill="#3f9d52" x="155" y="195" width="50" height="42" rx="18"/>
  <ellipse fill="#3f9d52" cx="180" cy="192" rx="58" ry="44"/>
  <polygon fill="#3f9d52" points="128,178 114,146 140,159"/>
  <polygon fill="#3f9d52" points="232,178 246,146 220,159"/>
  <path fill="none" d="M150 183 Q163 176 174 181 M186 181 Q197 176 210 183"/>
  <ellipse fill="#e83030" cx="158" cy="193" rx="13" ry="12"/>
  <ellipse fill="#e83030" cx="202" cy="193" rx="13" ry="12"/>
  <circle fill="#ffffff" stroke="none" cx="163" cy="189" r="4"/>
  <circle fill="#ffffff" stroke="none" cx="207" cy="189" r="4"/>
  <path fill="#2d6b28" stroke-width="3" d="M167 205 a5 4 0 1 0 10 0 a5 4 0 1 0 -10 0 Z M183 205 a5 4 0 1 0 10 0 a5 4 0 1 0 -10 0 Z"/>
  <path fill="none" stroke-width="6" d="M152 213 Q170 224 180 222 Q190 224 208 213"/>
  <circle fill="#6ad65a" stroke-width="3" opacity="0.7" cx="140" cy="206" r="8"/>
  <circle fill="#6ad65a" stroke-width="3" opacity="0.7" cx="220" cy="206" r="8"/>
  <circle fill="#fce87a" stroke="none" opacity="0.85" cx="85" cy="95" r="6"/>
  <circle fill="#fce87a" stroke="none" opacity="0.85" cx="275" cy="100" r="5"/>
  <circle fill="#fce87a" stroke="none" opacity="0.85" cx="180" cy="40" r="5"/>
 </g>
</svg>
