<svg xmlns="http://www.w3.org/2000/svg" viewBox="0 0 360 360">
  <path d="M155,248 L135,270 L152,278 L120,300 L145,308 L115,330 L148,325 L160,300 L172,270 L165,250 Z" fill="#c8451c" stroke="#2d263c" stroke-width="7" stroke-linejoin="round" stroke-linecap="round"/>
  <path d="M120,300 L108,320 L128,318 L118,332 L138,312 Z" fill="#ffd23f"/>
  <path d="M225,190 L262,168 L268,140 L285,158 L305,135 L298,162 L322,155 L300,180 L318,195 L288,192 L295,215 L265,205 L255,225 L235,205 Z" fill="#c8451c" stroke="#2d263c" stroke-width="7" stroke-linejoin="round" stroke-linecap="round"/>
  <ellipse cx="170" cy="210" rx="76" ry="66" fill="#e8622a" stroke="#2d263c" stroke-width="7"/>
  <path d="M205,150 L238,143 L258,168 L232,182 L200,178 Z" fill="#e8622a" stroke="#2d263c" stroke-width="6" stroke-linejoin="round"/>
  <ellipse cx="168" cy="232" rx="40" ry="32" fill="#f7b955" stroke="#2d263c" stroke-width="6"/>
  <ellipse cx="195" cy="185" rx="18" ry="13" fill="#f7b955" stroke="#2d263c" stroke-width="6"/>
  <path d="M110,188 L68,158 L42,163 L52,128 L22,120 L38,155 L20,158 L42,182 L24,205 L52,203 L38,232 L68,218 L58,248 L96,225 L108,205 Z" fill="#e8622a" stroke="#2d263c" stroke-width="7" stroke-linejoin="round" stroke-linecap="round"/>
  <path d="M50,130 L32,108 L58,140 Z" fill="#ffd23f"/>
  <path d="M27,160 L20,140 L46,168 Z" fill="#ffd23f"/>
  <path d="M45,208 L24,228 L54,222 Z" fill="#ffd23f"/>
  <path d="M155,268 L148,300" fill="none" stroke="#2d263c" stroke-width="7" stroke-linecap="round"/>
  <path d="M148,300 L132,312 M148,300 L148,318 M148,300 L164,312" fill="none" stroke="#2d263c" stroke-width="6" stroke-linecap="round"/>
  <path d="M195,268 L204,300" fill="none" stroke="#2d263c" stroke-width="7" stroke-linecap="round"/>
  <path d="M204,300 L188,312 M204,300 L204,318 M204,300 L220,312" fill="none" stroke="#2d263c" stroke-width="6" stroke-linecap="round"/>
  <circle cx="235" cy="105" r="44" fill="#e8622a" stroke="#2d263c" stroke-width="7"/>
  <path d="M205,78 L188,40 L178,62 L168,32 L162,66 L182,88 Z" fill="#ff8a3d" stroke="#2d263c" stroke-width="6" stroke-linejoin="round"/>
  <path d="M232,76 L220,30 L236,52 L248,24 L244,58 L252,78 Z" fill="#ff8a3d" stroke="#2d263c" stroke-width="6" stroke-linejoin="round"/>
  <path d="M258,80 L272,36 L280,60 L292,34 L286,64 L266,90 Z" fill="#ff8a3d" stroke="#2d263c" stroke-width="6" stroke-linejoin="round"/>
  <path d="M230,68 L226,40 L238,58 L246,36 L240,62 Z" fill="#ffd23f"/>
  <path d="M270,95 L308,104 L272,116 Z" fill="#f2b53d" stroke="#2d263c" stroke-width="6" stroke-linejoin="round"/>
  <path d="M272,116 L306,112 L274,128 Z" fill="#d99a26" stroke="#2d263c" stroke-width="6" stroke-linejoin="round"/>
  <path d="M215,86 L248,78" fill="none" stroke="#2d263c" stroke-width="7" stroke-linecap="round"/>
  <circle cx="232" cy="100" r="7" fill="#2d263c"/>
  <circle cx="229" cy="97" r="2.5" fill="#ffffff"/>
  <path d="M245,118 Q255,128 248,138 Q238,130 245,118 Z" fill="#c8451c"/>
</svg>
