<svg xmlns="http://www.w3.org/2000/svg" viewBox="0 0 360 360">
  <!-- 翼(後ろ) -->
  <path d="M108 210 C66 220 58 275 92 300 C108 282 116 255 120 230 Z" fill="#a8884a" stroke="#2d263c" stroke-width="6" stroke-linejoin="round"/>
  <path d="M252 210 C294 220 302 275 268 300 C252 282 244 255 240 230 Z" fill="#a8884a" stroke="#2d263c" stroke-width="6" stroke-linejoin="round"/>

  <!-- 足 -->
  <path d="M152 318 L150 340 M168 320 L168 340 M184 320 L184 340" stroke="#f0a83c" stroke-width="5" stroke-linecap="round"/>
  <path d="M196 318 L194 340 M212 320 L212 340 M228 320 L228 340" stroke="#f0a83c" stroke-width="5" stroke-linecap="round"/>

  <!-- 体(縦長) -->
  <ellipse cx="180" cy="240" rx="78" ry="92" fill="#c9a86a" stroke="#2d263c" stroke-width="8"/>

  <!-- お腹 -->
  <ellipse cx="180" cy="258" rx="48" ry="62" fill="#e8d3a0" stroke="#2d263c" stroke-width="6"/>

  <!-- 頭 -->
  <circle cx="180" cy="140" r="74" fill="#c9a86a" stroke="#2d263c" stroke-width="8"/>

  <!-- 横に流した緑の冠毛(特徴) -->
  <path d="M122 108 C92 98 68 108 62 132 C58 150 78 160 96 152 C112 144 122 130 122 116 Z" fill="#5fa848" stroke="#2d263c" stroke-width="6" stroke-linejoin="round"/>
  <path d="M118 118 C100 114 88 126 92 140" fill="none" stroke="#3d7a30" stroke-width="4" stroke-linecap="round"/>

  <!-- 顔(白) -->
  <ellipse cx="188" cy="150" rx="56" ry="50" fill="#f5ecd8" stroke="#2d263c" stroke-width="6"/>

  <!-- 目のまわりマスク -->
  <ellipse cx="162" cy="148" rx="20" ry="22" fill="#8a6a3a" stroke="#2d263c" stroke-width="5"/>
  <ellipse cx="214" cy="148" rx="20" ry="22" fill="#8a6a3a" stroke="#2d263c" stroke-width="5"/>

  <!-- 目 -->
  <ellipse cx="162" cy="148" rx="12" ry="14" fill="#fff" stroke="#2d263c" stroke-width="5"/>
  <ellipse cx="214" cy="148" rx="12" ry="14" fill="#fff" stroke="#2d263c" stroke-width="5"/>
  <circle cx="164" cy="151" r="6" fill="#2d263c"/>
  <circle cx="212" cy="151" r="6" fill="#2d263c"/>

  <!-- くちばし -->
  <path d="M174 172 L198 172 L186 190 Z" fill="#f0a83c" stroke="#2d263c" stroke-width="5" stroke-linejoin="round"/>

  <!-- 葉の蝶ネクタイ -->
  <path d="M182 198 L166 191 L166 205 Z" fill="#5fa848" stroke="#2d263c" stroke-width="5" stroke-linejoin="round"/>
  <path d="M186 198 L202 191 L202 205 Z" fill="#5fa848" stroke="#2d263c" stroke-width="5" stroke-linejoin="round"/>
</svg>
