<svg xmlns="http://www.w3.org/2000/svg" viewBox="0 0 360 360">
<g fill="none" stroke="#2d263c" stroke-width="7" stroke-linejoin="round" stroke-linecap="round">
<path fill="#f5f0e6" d="M250 250 C296 250 308 300 282 320 C266 328 250 318 252 304 Z"/>
<path fill="#8b97a8" d="M230 232 C280 238 296 280 280 308 C272 316 258 312 252 298 C246 280 236 260 222 248 Z"/>
<ellipse fill="#5a5468" cx="206" cy="316" rx="22" ry="16"/>
<ellipse fill="#5a5468" cx="150" cy="320" rx="22" ry="16"/>
<path fill="#8b97a8" d="M130 180 C120 240 128 300 180 312 C232 304 244 248 232 186 C215 168 150 168 130 180 Z"/>
<path fill="#f5f0e6" d="M158 195 C150 240 156 280 182 290 C210 282 214 244 206 198 C192 186 170 186 158 195 Z"/>
<path fill="#8b97a8" d="M132 205 C108 215 96 245 108 260 C120 268 134 252 138 234 Z"/>
<path fill="#8b97a8" d="M228 200 C252 208 264 238 252 255 C240 263 226 248 222 230 Z"/>
<path fill="#8b97a8" d="M180 70 C225 72 250 110 246 150 C242 186 214 206 180 206 C146 206 118 186 114 150 C110 110 135 72 180 70 Z"/>
<path fill="#8b97a8" d="M118 96 C108 60 122 40 142 48 C150 56 146 80 140 100 Z"/>
<path fill="#5a5468" d="M124 88 C120 66 128 56 138 60 C140 72 136 84 132 94 Z"/>
<path fill="#8b97a8" d="M242 96 C252 60 238 40 218 48 C210 56 214 80 220 100 Z"/>
<path fill="#5a5468" d="M236 88 C240 66 232 56 222 60 C220 72 224 84 228 94 Z"/>
<path fill="#3d3848" d="M116 132 C110 150 116 168 140 174 C160 178 200 178 220 174 C244 168 250 150 244 132 C240 120 228 116 220 122 C208 130 152 130 140 122 C132 116 120 120 116 132 Z"/>
<path fill="#f5f0e6" d="M128 120 C124 108 136 102 148 110 C150 120 142 126 136 126 Z"/>
<path fill="#f5f0e6" d="M232 120 C236 108 224 102 212 110 C210 120 218 126 224 126 Z"/>
<path fill="#fff7d8" d="M180 156 C196 156 208 170 206 184 C202 196 190 198 180 198 C170 198 158 196 154 184 C152 170 164 156 180 156 Z"/>
<ellipse fill="#fff7d8" cx="158" cy="146" rx="12" ry="14"/>
<ellipse fill="#fff7d8" cx="202" cy="146" rx="12" ry="14"/>
<ellipse fill="#2d263c" cx="160" cy="148" rx="6" ry="9"/>
<ellipse fill="#2d263c" cx="204" cy="148" rx="6" ry="9"/>
<circle fill="#fff" stroke="none" cx="156" cy="143" r="2.5"/>
<circle fill="#fff" stroke="none" cx="200" cy="143" r="2.5"/>
<path fill="#2d263c" d="M176 170 C176 164 184 164 184 170 C184 176 176 176 176 170 Z"/>
<path d="M170 186 C176 192 184 192 190 186"/>
</g>
</svg>
