<svg xmlns="http://www.w3.org/2000/svg" viewBox="0 0 360 360">
  <!-- 特徴: ①丸いクラゲ型の頭(半透明感のある水色ドーム) ②左右に垂れる細長い青いうで(触手) ③頭の下からのびるピンク/マゼンタのフリフリした裾(ベール) ④大きな丸い白目に黒目のあどけない顔 ⑤ベールにある小さな模様の点 -->
  <path d="M95,165 C75,190 65,230 78,265 Q85,280 95,275 C105,235 108,195 115,170 Z" fill="#8fd0ec" stroke="#2d263c" stroke-width="7" stroke-linejoin="round" stroke-linecap="round"/>
  <path d="M265,165 C285,190 295,230 282,265 Q275,280 265,275 C255,235 252,195 245,170 Z" fill="#8fd0ec" stroke="#2d263c" stroke-width="7" stroke-linejoin="round" stroke-linecap="round"/>
  <path d="M125,190 C110,230 112,270 125,300 Q140,315 155,300 Q168,320 182,302 Q196,320 210,300 Q225,315 238,300 C250,270 252,230 235,190 Z" fill="#d24e86" fill-opacity="0.9" stroke="#2d263c" stroke-width="7" stroke-linejoin="round" stroke-linecap="round"/>
  <circle cx="160" cy="235" r="6" fill="#9c2f60" fill-opacity="0.6"/>
  <circle cx="200" cy="235" r="6" fill="#9c2f60" fill-opacity="0.6"/>
  <ellipse cx="180" cy="150" rx="92" ry="78" fill="#a6dcf0" stroke="#2d263c" stroke-width="8" stroke-linejoin="round"/>
  <ellipse cx="180" cy="195" rx="68" ry="32" fill="#6fb8dc" fill-opacity="0.4"/>
  <ellipse cx="125" cy="160" rx="12" ry="7" fill="#f5a9c7" fill-opacity="0.5"/>
  <ellipse cx="235" cy="160" rx="12" ry="7" fill="#f5a9c7" fill-opacity="0.5"/>
  <circle cx="150" cy="140" r="22" fill="#ffffff" stroke="#2d263c" stroke-width="5"/>
  <circle cx="210" cy="140" r="22" fill="#ffffff" stroke="#2d263c" stroke-width="5"/>
  <circle cx="150" cy="146" r="10" fill="#2d263c"/>
  <circle cx="210" cy="146" r="10" fill="#2d263c"/>
  <circle cx="144" cy="138" r="4" fill="#ffffff"/>
  <circle cx="204" cy="138" r="4" fill="#ffffff"/>
  <ellipse cx="180" cy="175" rx="10" ry="6" fill="#2d263c"/>
</svg>
