<svg xmlns="http://www.w3.org/2000/svg" viewBox="0 0 360 360">
  <path d="M155,248 L135,270 L152,278 L120,300 L145,308 L115,330 L148,325 L160,300 L172,270 L165,250 Z" fill="#242138" stroke="#2d263c" stroke-width="7" stroke-linejoin="round" stroke-linecap="round"/>
  <path d="M120,300 L108,320 L128,318 L118,332 L138,312 Z" fill="#7a2f14"/>
  <path d="M225,188 L260,168 L266,140 L284,158 L304,136 L296,162 L320,155 L299,180 L316,196 L287,192 L294,214 L266,205 L254,224 L235,206 Z" fill="#2b2140" stroke="#2d263c" stroke-width="7" stroke-linejoin="round" stroke-linecap="round"/>
  <path d="M296,160 L282,142 L300,150 Z" fill="#8a2f14"/>
  <ellipse cx="170" cy="215" rx="75" ry="65" fill="#242138" stroke="#2d263c" stroke-width="7"/>
  <path d="M205,150 L238,143 L258,168 L232,182 L200,178 Z" fill="#2b2140" stroke="#2d263c" stroke-width="6" stroke-linejoin="round"/>
  <ellipse cx="168" cy="235" rx="40" ry="30" fill="#4b4664" stroke="#2d263c" stroke-width="6"/>
  <ellipse cx="195" cy="185" rx="18" ry="13" fill="#4b4664" stroke="#2d263c" stroke-width="6"/>
  <path d="M110,188 L68,158 L42,163 L52,128 L22,120 L38,155 L20,158 L42,182 L24,205 L52,203 L38,232 L68,218 L58,248 L96,225 L108,205 Z" fill="#2b2140" stroke="#2d263c" stroke-width="7" stroke-linejoin="round" stroke-linecap="round"/>
  <path d="M50,130 L32,108 L58,140 Z" fill="#8a2f14"/>
  <path d="M27,160 L20,140 L46,168 Z" fill="#8a2f14"/>
  <path d="M45,208 L24,228 L54,222 Z" fill="#8a2f14"/>
  <path d="M155,268 L148,300" fill="none" stroke="#2d263c" stroke-width="7" stroke-linecap="round"/>
  <path d="M148,300 L132,312 M148,300 L148,318 M148,300 L164,312" fill="none" stroke="#2d263c" stroke-width="6" stroke-linecap="round"/>
  <path d="M195,268 L204,300" fill="none" stroke="#2d263c" stroke-width="7" stroke-linecap="round"/>
  <path d="M204,300 L188,312 M204,300 L204,318 M204,300 L220,312" fill="none" stroke="#2d263c" stroke-width="6" stroke-linecap="round"/>
  <circle cx="235" cy="105" r="44" fill="#242138" stroke="#2d263c" stroke-width="7"/>
  <path d="M205,78 L188,40 L178,62 L168,32 L162,66 L182,88 Z" fill="#332750" stroke="#2d263c" stroke-width="6" stroke-linejoin="round"/>
  <path d="M232,76 L220,30 L236,52 L248,24 L244,58 L252,78 Z" fill="#332750" stroke="#2d263c" stroke-width="6" stroke-linejoin="round"/>
  <path d="M258,80 L272,36 L280,60 L292,34 L286,64 L266,90 Z" fill="#332750" stroke="#2d263c" stroke-width="6" stroke-linejoin="round"/>
  <path d="M230,68 L226,40 L238,58 L246,36 L240,62 Z" fill="#7a2f14"/>
  <path d="M270,95 L308,104 L272,116 Z" fill="#4a4560" stroke="#2d263c" stroke-width="6" stroke-linejoin="round"/>
  <path d="M272,116 L306,112 L274,128 Z" fill="#35314a" stroke="#2d263c" stroke-width="6" stroke-linejoin="round"/>
  <path d="M245,118 Q255,128 248,138 Q238,130 245,118 Z" fill="#7a1f1f"/>
  <path d="M212,82 L250,72" fill="none" stroke="#2d263c" stroke-width="7" stroke-linecap="round"/>
  <circle cx="232" cy="100" r="8" fill="#ff5a1f"/>
  <ellipse cx="232" cy="100" rx="2.5" ry="6" fill="#1a1020"/>
  <circle cx="229" cy="96" r="2" fill="#ffffff"/>
</svg>
