<svg xmlns="http://www.w3.org/2000/svg" viewBox="0 0 360 360">
  <!-- 尾羽(後ろ) -->
  <path d="M155 280 Q140 320 120 348 Q145 318 160 295Z" fill="#2a3a6e" stroke="#2d263c" stroke-width="7" stroke-linejoin="round" stroke-linecap="round"/>
  <path d="M205 280 Q220 322 245 350 Q218 316 200 294Z" fill="#2a3a6e" stroke="#2d263c" stroke-width="7" stroke-linejoin="round" stroke-linecap="round"/>
  <!-- 翼(左・後ろ) -->
  <path d="M105 185 Q55 155 28 120 Q40 145 60 160 Q35 150 22 175 Q50 168 72 178 Q48 185 38 210 Q70 195 98 200Z" fill="#2a3a6e" stroke="#2d263c" stroke-width="7" stroke-linejoin="round" stroke-linecap="round"/>
  <!-- 翼の炎縞(左) -->
  <path d="M65 135 Q80 148 88 165" fill="none" stroke="#e8481a" stroke-width="5" stroke-linecap="round"/>
  <path d="M50 155 Q66 165 76 182" fill="none" stroke="#e8481a" stroke-width="4" stroke-linecap="round"/>
  <path d="M40 178 Q58 182 68 196" fill="none" stroke="#e8481a" stroke-width="4" stroke-linecap="round"/>
  <!-- 翼(右・後ろ) -->
  <path d="M252 185 Q310 155 335 118 Q322 144 300 160 Q328 148 340 174 Q312 166 288 178 Q314 186 325 210 Q292 194 260 200Z" fill="#2a3a6e" stroke="#2d263c" stroke-width="7" stroke-linejoin="round" stroke-linecap="round"/>
  <!-- 翼の炎縞(右) -->
  <path d="M295 133 Q278 147 270 164" fill="none" stroke="#e8481a" stroke-width="5" stroke-linecap="round"/>
  <path d="M313 155 Q295 166 282 183" fill="none" stroke="#e8481a" stroke-width="4" stroke-linecap="round"/>
  <path d="M322 178 Q303 182 292 196" fill="none" stroke="#e8481a" stroke-width="4" stroke-linecap="round"/>
  <!-- 体(胴) -->
  <path d="M148 145 Q148 260 160 285 Q180 296 200 285 Q212 260 212 145 Q195 130 180 128 Q165 130 148 145Z" fill="#3a4e8c" stroke="#2d263c" stroke-width="8" stroke-linejoin="round" stroke-linecap="round"/>
  <!-- 腹(白クリーム) -->
  <path d="M162 170 Q160 255 168 278 Q180 285 192 278 Q200 255 198 170 Q190 162 180 161 Q170 162 162 170Z" fill="#f2ede2" stroke="#2d263c" stroke-width="5" stroke-linejoin="round" stroke-linecap="round"/>
  <!-- 胸のオレンジ赤 -->
  <path d="M163 168 Q162 200 166 218 Q180 222 194 218 Q198 200 197 168 Q190 158 180 157 Q170 158 163 168Z" fill="#e8481a" stroke="#2d263c" stroke-width="5" stroke-linejoin="round" stroke-linecap="round"/>
  <!-- 首 -->
  <path d="M162 148 Q155 138 158 128 Q168 118 192 128 Q196 138 198 148 Q190 140 180 139 Q170 140 162 148Z" fill="#3a4e8c" stroke="#2d263c" stroke-width="6" stroke-linejoin="round" stroke-linecap="round"/>
  <!-- 頭 -->
  <ellipse cx="180" cy="105" rx="36" ry="32" fill="#3a4e8c" stroke="#2d263c" stroke-width="8" stroke-linejoin="round"/>
  <!-- 頭上クレスト羽毛 -->
  <path d="M170 76 Q165 55 158 42 Q168 60 172 72Z" fill="#e8481a" stroke="#2d263c" stroke-width="5" stroke-linecap="round" stroke-linejoin="round"/>
  <path d="M180 72 Q178 48 176 33 Q182 52 184 68Z" fill="#e8481a" stroke="#2d263c" stroke-width="5" stroke-linecap="round" stroke-linejoin="round"/>
  <path d="M190 76 Q195 55 202 44 Q194 62 188 74Z" fill="#e8481a" stroke="#2d263c" stroke-width="5" stroke-linecap="round" stroke-linejoin="round"/>
  <!-- 目(右・白眼) -->
  <ellipse cx="163" cy="105" rx="10" ry="9" fill="white" stroke="#2d263c" stroke-width="4"/>
  <!-- 目(右・赤リング) -->
  <ellipse cx="163" cy="105" rx="8" ry="7" fill="#e8481a" stroke="none"/>
  <!-- 目(右・瞳) -->
  <ellipse cx="161" cy="104" rx="5" ry="5" fill="#1a1228" stroke="none"/>
  <!-- 目の光(右) -->
  <ellipse cx="159" cy="102" rx="2" ry="2" fill="white" stroke="none"/>
  <!-- 目(左・白眼) -->
  <ellipse cx="197" cy="105" rx="10" ry="9" fill="white" stroke="#2d263c" stroke-width="4"/>
  <!-- 目(左・赤リング) -->
  <ellipse cx="197" cy="105" rx="8" ry="7" fill="#e8481a" stroke="none"/>
  <!-- 目(左・瞳) -->
  <ellipse cx="196" cy="104" rx="5" ry="5" fill="#1a1228" stroke="none"/>
  <!-- 目の光(左) -->
  <ellipse cx="194" cy="102" rx="2" ry="2" fill="white" stroke="none"/>
  <!-- 眉ライン(白・凛々しく) -->
  <path d="M152 97 Q162 91 174 93" fill="none" stroke="white" stroke-width="4" stroke-linecap="round"/>
  <path d="M186 93 Q196 90 208 96" fill="none" stroke="white" stroke-width="4" stroke-linecap="round"/>
  <!-- くちばし -->
  <path d="M172 118 Q180 128 188 118 Q184 112 180 110 Q176 112 172 118Z" fill="#d4a830" stroke="#2d263c" stroke-width="5" stroke-linejoin="round" stroke-linecap="round"/>
  <!-- くちばし先端 -->
  <path d="M176 122 Q180 130 184 122" fill="none" stroke="#2d263c" stroke-width="3" stroke-linecap="round"/>
  <!-- 足(左) -->
  <path d="M168 283 Q162 298 158 312" fill="none" stroke="#2d263c" stroke-width="7" stroke-linecap="round"/>
  <path d="M158 312 Q150 320 142 316 M158 312 Q158 322 152 328 M158 312 Q165 320 162 328" fill="none" stroke="#2d263c" stroke-width="5" stroke-linecap="round"/>
  <!-- 足(右) -->
  <path d="M192 283 Q198 298 202 312" fill="none" stroke="#2d263c" stroke-width="7" stroke-linecap="round"/>
  <path d="M202 312 Q210 320 218 316 M202 312 Q202 322 208 328 M202 312 Q196 320 198 328" fill="none" stroke="#2d263c" stroke-width="5" stroke-linecap="round"/>
</svg>