<svg xmlns="http://www.w3.org/2000/svg" viewBox="0 0 360 360">

  <!-- 尻尾 -->
  <path d="M195 270 Q230 290 245 320 Q250 335 235 330 Q215 310 200 295" fill="#C8A840" stroke="#2d263c" stroke-width="7" stroke-linejoin="round" stroke-linecap="round"/>

  <!-- 左足 -->
  <ellipse cx="155" cy="305" rx="22" ry="12" fill="#C8A840" stroke="#2d263c" stroke-width="6" stroke-linejoin="round"/>
  <!-- 右足 -->
  <ellipse cx="198" cy="310" rx="20" ry="11" fill="#C8A840" stroke="#2d263c" stroke-width="6" stroke-linejoin="round"/>

  <!-- 左脚 -->
  <path d="M150 275 Q148 292 155 305" fill="none" stroke="#2d263c" stroke-width="8" stroke-linecap="round"/>
  <!-- 右脚 -->
  <path d="M185 278 Q187 296 198 308" fill="none" stroke="#2d263c" stroke-width="8" stroke-linecap="round"/>

  <!-- 胴体 -->
  <path d="M138 175 Q125 210 130 255 Q138 278 168 282 Q190 284 205 275 Q220 260 215 235 Q210 210 205 175 Z" fill="#C8A840" stroke="#2d263c" stroke-width="7" stroke-linejoin="round"/>

  <!-- 腹（クリーム） -->
  <ellipse cx="172" cy="230" rx="28" ry="38" fill="#EFE0A0" stroke="#2d263c" stroke-width="5"/>

  <!-- 胸の毛（茶色もしゃもしゃ） -->
  <path d="M148 185 Q155 170 165 178 Q170 165 178 175 Q185 163 192 173 Q200 162 205 175 Q212 168 210 182" fill="#8B5E2A" stroke="#2d263c" stroke-width="5" stroke-linejoin="round" stroke-linecap="round"/>

  <!-- 左腕（スプーン持ってる） -->
  <path d="M138 195 Q112 200 98 215 Q88 228 92 238 Q96 248 105 242 Q115 230 128 218" fill="#C8A840" stroke="#2d263c" stroke-width="7" stroke-linejoin="round" stroke-linecap="round"/>
  <!-- 左スプーン -->
  <line x1="88" y1="250" x2="70" y2="300" stroke="#2d263c" stroke-width="6" stroke-linecap="round"/>
  <ellipse cx="65" cy="306" rx="10" ry="7" fill="#D0D0D0" stroke="#2d263c" stroke-width="5"/>

  <!-- 右腕（スプーン持ってる） -->
  <path d="M205 195 Q232 198 248 210 Q260 222 257 234 Q254 245 244 240 Q232 228 218 216" fill="#C8A840" stroke="#2d263c" stroke-width="7" stroke-linejoin="round" stroke-linecap="round"/>
  <!-- 右スプーン -->
  <line x1="260" y1="244" x2="278" y2="295" stroke="#2d263c" stroke-width="6" stroke-linecap="round"/>
  <ellipse cx="282" cy="302" rx="10" ry="7" fill="#D0D0D0" stroke="#2d263c" stroke-width="5"/>

  <!-- 頭（少し歪ませてキツネっぽく） -->
  <path d="M125 142 Q120 100 145 78 Q162 60 182 58 Q205 57 220 75 Q238 97 232 140 Q228 162 200 172 Q178 178 155 170 Q133 162 125 142 Z" fill="#C8A840" stroke="#2d263c" stroke-width="7" stroke-linejoin="round"/>

  <!-- 耳（左） -->
  <path d="M138 105 Q128 68 145 52 Q155 42 162 65 Q158 85 148 100 Z" fill="#C8A840" stroke="#2d263c" stroke-width="6" stroke-linejoin="round"/>
  <!-- 耳内（左） -->
  <path d="M141 100 Q134 74 147 60 Q153 68 150 90 Z" fill="#E8844A" stroke="none"/>

  <!-- 耳（右） -->
  <path d="M215 102 Q228 65 215 50 Q205 40 198 62 Q200 84 208 98 Z" fill="#C8A840" stroke="#2d263c" stroke-width="6" stroke-linejoin="round"/>
  <!-- 耳内（右） -->
  <path d="M212 97 Q222 72 213 57 Q207 65 208 88 Z" fill="#E8844A" stroke="none"/>

  <!-- 額の★マーク -->
  <path d="M178 78 L181 70 L184 78 L192 78 L186 83 L188 92 L181 87 L174 92 L176 83 L170 78 Z" fill="#A0522D" stroke="#2d263c" stroke-width="3"/>

  <!-- 目（左）細長い・眠そう -->
  <ellipse cx="158" cy="122" rx="13" ry="7" fill="white" stroke="#2d263c" stroke-width="5"/>
  <ellipse cx="160" cy="123" rx="6" ry="5" fill="#1a1a1a"/>
  <!-- まぶた（左） -->
  <path d="M145 118 Q158 112 171 118" fill="none" stroke="#2d263c" stroke-width="5" stroke-linecap="round"/>

  <!-- 目（右）細長い・疲れ目 -->
  <ellipse cx="200" cy="120" rx="12" ry="7" fill="white" stroke="#2d263c" stroke-width="5"/>
  <ellipse cx="198" cy="121" rx="6" ry="5" fill="#1a1a1a"/>
  <!-- まぶた（右） -->
  <path d="M188 116 Q200 110 212 116" fill="none" stroke="#2d263c" stroke-width="5" stroke-linecap="round"/>

  <!-- 鼻（小さいV） -->
  <path d="M177 134 L180 138 L183 134" fill="none" stroke="#2d263c" stroke-width="4" stroke-linecap="round" stroke-linejoin="round"/>

  <!-- 口（ちょっとしまりない） -->
  <path d="M170 143 Q180 151 192 143" fill="none" stroke="#2d263c" stroke-width="5" stroke-linecap="round"/>

  <!-- ひげ左（3本） -->
  <line x1="162" y1="138" x2="112" y2="128" stroke="#2d263c" stroke-width="4" stroke-linecap="round"/>
  <line x1="160" y1="143" x2="108" y2="140" stroke="#2d263c" stroke-width="4" stroke-linecap="round"/>
  <line x1="158" y1="149" x2="110" y2="155" stroke="#2d263c" stroke-width="4" stroke-linecap="round"/>

  <!-- ひげ右（3本） -->
  <line x1="196" y1="138" x2="246" y2="126" stroke="#2d263c" stroke-width="4" stroke-linecap="round"/>
  <line x1="198" y1="143" x2="250" y2="140" stroke="#2d263c" stroke-width="4" stroke-linecap="round"/>
  <line x1="196" y1="149" x2="248" y2="153" stroke="#2d263c" stroke-width="4" stroke-linecap="round"/>

</svg>