<svg xmlns="http://www.w3.org/2000/svg" viewBox="0 0 360 360">
  <path d="M165,290 C120,300 70,320 50,300 C35,285 45,255 75,245 C105,235 140,255 165,270 Z" fill="#4f86d1" stroke="#2d263c" stroke-width="7" stroke-linejoin="round"/>
  <path d="M55,290 C45,300 40,315 55,320 C70,325 85,310 80,295 C75,285 62,282 55,290 Z" fill="#7fb3e0" stroke="#2d263c" stroke-width="6" stroke-linejoin="round"/>

  <ellipse cx="185" cy="255" rx="80" ry="70" fill="#4f86d1" stroke="#2d263c" stroke-width="8"/>

  <ellipse cx="185" cy="270" rx="45" ry="45" fill="#f5e6c8" stroke="#2d263c" stroke-width="6"/>

  <ellipse cx="150" cy="322" rx="26" ry="22" fill="#4f86d1" stroke="#2d263c" stroke-width="7"/>
  <ellipse cx="225" cy="322" rx="26" ry="22" fill="#4f86d1" stroke="#2d263c" stroke-width="7"/>
  <ellipse cx="145" cy="338" rx="20" ry="10" fill="#f5e6c8" stroke="#2d263c" stroke-width="5"/>
  <ellipse cx="230" cy="338" rx="20" ry="10" fill="#f5e6c8" stroke="#2d263c" stroke-width="5"/>

  <ellipse cx="110" cy="250" rx="20" ry="28" fill="#4f86d1" stroke="#2d263c" stroke-width="7"/>
  <ellipse cx="262" cy="250" rx="20" ry="28" fill="#4f86d1" stroke="#2d263c" stroke-width="7"/>

  <path d="M100,180 C90,120 120,55 185,50 C250,55 285,115 275,175 C270,205 250,225 220,232 C200,236 170,236 150,232 C120,225 105,205 100,180 Z" fill="#4f86d1" stroke="#2d263c" stroke-width="8" stroke-linejoin="round"/>

  <path d="M100,150 C70,140 45,150 40,175 C38,195 55,205 75,195 C90,187 100,170 100,150 Z" fill="#4f86d1" stroke="#2d263c" stroke-width="7" stroke-linejoin="round"/>
  <path d="M275,150 C305,140 330,150 335,175 C337,195 320,205 300,195 C285,187 275,170 275,150 Z" fill="#4f86d1" stroke="#2d263c" stroke-width="7" stroke-linejoin="round"/>

  <path d="M125,175 C150,205 220,205 245,175 C240,205 210,222 185,222 C160,222 130,205 125,175 Z" fill="#8b2e2e" stroke="#2d263c" stroke-width="6" stroke-linejoin="round"/>

  <path d="M135,180 L145,195 L155,180 Z" fill="#ffffff" stroke="#2d263c" stroke-width="3" stroke-linejoin="round"/>
  <path d="M165,183 L175,198 L185,183 Z" fill="#ffffff" stroke="#2d263c" stroke-width="3" stroke-linejoin="round"/>
  <path d="M195,183 L205,198 L215,183 Z" fill="#ffffff" stroke="#2d263c" stroke-width="3" stroke-linejoin="round"/>
  <path d="M220,180 L230,195 L240,180 Z" fill="#ffffff" stroke="#2d263c" stroke-width="3" stroke-linejoin="round"/>

  <circle cx="150" cy="120" r="18" fill="#e74c3c" stroke="#2d263c" stroke-width="6"/>
  <circle cx="150" cy="122" r="7" fill="#000000"/>
  <circle cx="220" cy="120" r="18" fill="#e74c3c" stroke="#2d263c" stroke-width="6"/>
  <circle cx="220" cy="122" r="7" fill="#000000"/>

  <circle cx="175" cy="165" r="4" fill="#2d263c"/>
  <circle cx="195" cy="165" r="4" fill="#2d263c"/>
</svg>
