<svg xmlns="http://www.w3.org/2000/svg" viewBox="0 0 360 360"><g stroke="#2d263c" stroke-width="7" stroke-linejoin="round" stroke-linecap="round" fill="#E5C158"><path d="M148 98 L106 26 Q140 60 166 80 Z"/><path d="M212 96 L258 30 Q222 62 196 78 Z"/><ellipse cx="94" cy="104" rx="11" ry="16" fill="#D8DEE8"/><path d="M96 122 L107 158" fill="none"/><ellipse cx="297" cy="163" rx="10" ry="16" fill="#D8DEE8" transform="rotate(42 297 163)"/><path d="M288 174 L262 194" fill="none"/><path d="M154 178 Q124 192 112 170 L124 152 Q142 166 160 168 Z"/><path d="M206 178 Q236 178 256 188 L251 208 Q230 202 207 200 Z"/><path d="M160 250 Q152 282 150 296 Q146 312 128 318 Q150 327 163 318 Q171 290 177 254 Z"/><path d="M198 254 Q204 290 212 316 Q225 327 245 318 Q226 312 222 296 Q218 278 212 250 Z"/><path d="M152 168 Q141 202 148 254 L214 252 Q221 198 209 166 Q180 180 152 168 Z"/><path d="M150 178 Q180 194 210 176 L214 206 Q180 221 148 208 Z" fill="#9C6B33"/><path d="M150 214 Q180 227 212 212 L214 237 Q180 247 150 238 Z" fill="#9C6B33"/><circle cx="149" cy="180" r="11" fill="#9C6B33"/><circle cx="211" cy="178" r="11" fill="#9C6B33"/><circle cx="156" cy="289" r="12" fill="#9C6B33"/><circle cx="210" cy="291" r="12" fill="#9C6B33"/><circle cx="108" cy="162" r="12"/><circle cx="262" cy="197" r="12"/><path d="M152 72 Q130 92 134 118 Q142 146 178 152 Q214 147 224 116 Q229 90 208 70 Q181 83 152 72 Z"/><path d="M180 128 Q146 128 132 156 Q121 182 130 203 Q138 172 154 156 Q166 144 182 140 Z" fill="#F7F3E8"/><path d="M182 128 Q216 126 233 154 Q243 180 236 204 Q226 172 210 154 Q198 143 180 140 Z" fill="#F7F3E8"/><path d="M148 100 L172 110" fill="none"/><path d="M213 96 L190 108" fill="none"/><path d="M176 117 L184 117 L180 125 Z" fill="#2d263c" stroke="none"/></g></svg>