<svg xmlns="http://www.w3.org/2000/svg" viewBox="0 0 360 360">
  <ellipse cx="95" cy="140" rx="75" ry="32" transform="rotate(-30 95 140)" fill="#bdf2df" fill-opacity="0.75" stroke="#2d263c" stroke-width="6" stroke-linejoin="round"/>
  <ellipse cx="265" cy="140" rx="75" ry="32" transform="rotate(30 265 140)" fill="#bdf2df" fill-opacity="0.75" stroke="#2d263c" stroke-width="6" stroke-linejoin="round"/>
  <ellipse cx="105" cy="200" rx="60" ry="26" transform="rotate(-18 105 200)" fill="#bdf2df" fill-opacity="0.7" stroke="#2d263c" stroke-width="6" stroke-linejoin="round"/>
  <ellipse cx="255" cy="200" rx="60" ry="26" transform="rotate(18 255 200)" fill="#bdf2df" fill-opacity="0.7" stroke="#2d263c" stroke-width="6" stroke-linejoin="round"/>
  <path d="M205,250 Q270,255 300,285 Q315,300 305,315 Q290,328 275,310 Q255,285 220,265 Q205,258 205,250 Z" fill="#5fa84a" stroke="#2d263c" stroke-width="7" stroke-linejoin="round"/>
  <path d="M150,270 Q138,300 142,325 Q150,335 165,332 Q172,330 168,300 Q165,280 160,268 Z" fill="#5fa84a" stroke="#2d263c" stroke-width="7" stroke-linejoin="round"/>
  <path d="M210,270 Q222,300 218,325 Q210,335 195,332 Q188,330 192,300 Q195,280 200,268 Z" fill="#5fa84a" stroke="#2d263c" stroke-width="7" stroke-linejoin="round"/>
  <path d="M155,105 Q100,80 85,35 Q120,55 155,95 Q162,100 155,105 Z" fill="#468c40" stroke="#2d263c" stroke-width="7" stroke-linejoin="round"/>
  <path d="M205,105 Q260,80 275,35 Q240,55 205,95 Q198,100 205,105 Z" fill="#468c40" stroke="#2d263c" stroke-width="7" stroke-linejoin="round"/>
  <path d="M145,190 Q120,200 112,220 Q120,230 135,218 Q148,208 150,195 Z" fill="#5fa84a" stroke="#2d263c" stroke-width="7" stroke-linejoin="round"/>
  <path d="M215,190 Q240,200 248,220 Q240,230 225,218 Q212,208 210,195 Z" fill="#5fa84a" stroke="#2d263c" stroke-width="7" stroke-linejoin="round"/>
  <path d="M140,165 Q122,215 135,265 Q150,295 180,297 Q210,295 225,265 Q238,215 220,165 Q205,145 180,143 Q155,145 140,165 Z" fill="#5fa84a" stroke="#2d263c" stroke-width="8" stroke-linejoin="round"/>
  <path d="M158,205 Q150,245 165,275 Q173,288 180,288 Q187,288 195,275 Q210,245 202,205 Q192,195 180,195 Q168,195 158,205 Z" fill="#f2e2ab" stroke="#2d263c" stroke-width="6" stroke-linejoin="round"/>
  <path d="M148,140 Q135,105 155,80 Q168,65 180,65 Q192,65 205,80 Q225,105 212,140 Q200,152 180,153 Q160,152 148,140 Z" fill="#5fa84a" stroke="#2d263c" stroke-width="7" stroke-linejoin="round"/>
  <ellipse cx="163" cy="108" rx="7" ry="5" fill="#8f1d1d" stroke="#2d263c" stroke-width="4"/>
  <ellipse cx="197" cy="108" rx="7" ry="5" fill="#8f1d1d" stroke="#2d263c" stroke-width="4"/>
  <ellipse cx="180" cy="132" rx="20" ry="14" fill="#f2e2ab" stroke="#2d263c" stroke-width="6"/>
  <path d="M168,140 Q180,146 192,140" fill="none" stroke="#2d263c" stroke-width="6" stroke-linecap="round"/>
  <circle cx="174" cy="128" r="2.5" fill="#2d263c"/>
  <circle cx="186" cy="128" r="2.5" fill="#2d263c"/>
</svg>
