<svg xmlns="http://www.w3.org/2000/svg" viewBox="0 0 360 360">
  <!-- しっぽ(後ろ) -->
  <line x1="285" y1="230" x2="310" y2="195" stroke="#2d263c" stroke-width="7" stroke-linecap="round"/>
  <circle cx="316" cy="183" r="18" fill="#e8e4d8" stroke="#2d263c" stroke-width="7"/>
  <circle cx="312" cy="178" r="10" fill="#c8c3b0" stroke="none"/>

  <!-- 後ろ脚(左・奥) -->
  <path d="M230 270 Q225 295 215 310 Q210 318 220 318 Q232 318 238 310 Q245 295 242 272" fill="#e8e4d8" stroke="#2d263c" stroke-width="7" stroke-linejoin="round"/>
  <!-- 後ろ足カフス(左) -->
  <ellipse cx="220" cy="312" rx="14" ry="9" fill="#c8c3b0" stroke="#2d263c" stroke-width="5"/>

  <!-- 体 -->
  <path d="M110 210 Q95 240 100 275 Q105 305 130 308 Q160 312 180 305 Q210 300 235 290 Q265 275 270 250 Q278 225 265 200 Q250 170 220 158 Q190 148 160 152 Q128 158 115 178 Z" fill="#f0ede0" stroke="#2d263c" stroke-width="8" stroke-linejoin="round"/>

  <!-- 前脚(右) -->
  <path d="M148 285 Q144 305 138 320 Q133 330 143 330 Q153 330 158 320 Q164 305 162 285" fill="#f0ede0" stroke="#2d263c" stroke-width="7" stroke-linejoin="round"/>
  <!-- 前足カフス(右) -->
  <ellipse cx="145" cy="324" rx="14" ry="9" fill="#c8c3b0" stroke="#2d263c" stroke-width="5"/>

  <!-- 前脚(左) -->
  <path d="M178 288 Q175 308 170 323 Q165 333 175 333 Q185 333 190 323 Q196 308 194 288" fill="#f0ede0" stroke="#2d263c" stroke-width="7" stroke-linejoin="round"/>
  <!-- 前足カフス(左) -->
  <ellipse cx="178" cy="327" rx="14" ry="9" fill="#c8c3b0" stroke="#2d263c" stroke-width="5"/>

  <!-- 後ろ脚(右・手前) -->
  <path d="M218 278 Q216 300 210 315 Q206 325 216 325 Q226 325 232 315 Q238 300 236 278" fill="#f0ede0" stroke="#2d263c" stroke-width="7" stroke-linejoin="round"/>
  <!-- 後ろ足カフス(右) -->
  <ellipse cx="218" cy="319" rx="14" ry="9" fill="#c8c3b0" stroke="#2d263c" stroke-width="5"/>

  <!-- 首 -->
  <path d="M145 178 Q148 148 158 130 Q168 112 182 108 Q196 104 205 118 Q215 135 212 162" fill="#f0ede0" stroke="#2d263c" stroke-width="8" stroke-linejoin="round"/>

  <!-- 首まわりのふわふわ毛 -->
  <ellipse cx="178" cy="180" rx="44" ry="30" fill="#e0dcc8" stroke="#2d263c" stroke-width="6"/>
  <ellipse cx="158" cy="173" rx="22" ry="18" fill="#e8e4d8" stroke="#2d263c" stroke-width="5"/>
  <ellipse cx="200" cy="173" rx="22" ry="18" fill="#e8e4d8" stroke="#2d263c" stroke-width="5"/>
  <ellipse cx="178" cy="165" rx="20" ry="16" fill="#f0ede0" stroke="#2d263c" stroke-width="5"/>

  <!-- 頭 -->
  <ellipse cx="178" cy="98" rx="52" ry="46" fill="#f0ede0" stroke="#2d263c" stroke-width="8"/>

  <!-- 耳(左・奥) -->
  <path d="M140 68 Q128 42 130 28 Q135 15 148 22 Q158 30 155 58" fill="#3a3530" stroke="#2d263c" stroke-width="6" stroke-linejoin="round"/>

  <!-- 耳(右・手前) -->
  <path d="M218 65 Q232 38 228 22 Q223 10 210 18 Q200 27 204 56" fill="#3a3530" stroke="#2d263c" stroke-width="6" stroke-linejoin="round"/>

  <!-- 頭のふわふわ毛(トップノット) -->
  <ellipse cx="178" cy="62" rx="30" ry="20" fill="#e0dcc8" stroke="#2d263c" stroke-width="5"/>
  <ellipse cx="162" cy="58" rx="18" ry="14" fill="#e8e4d8" stroke="#2d263c" stroke-width="4"/>
  <ellipse cx="195" cy="57" rx="17" ry="14" fill="#e8e4d8" stroke="#2d263c" stroke-width="4"/>
  <ellipse cx="178" cy="50" rx="16" ry="12" fill="#f0ede0" stroke="#2d263c" stroke-width="4"/>

  <!-- 目(右) -->
  <ellipse cx="161" cy="100" rx="9" ry="7" fill="#2d263c"/>
  <ellipse cx="158" cy="98" rx="3" ry="2.5" fill="white"/>

  <!-- 目(左) -->
  <ellipse cx="196" cy="99" rx="9" ry="7" fill="#2d263c"/>
  <ellipse cx="193" cy="97" rx="3" ry="2.5" fill="white"/>

  <!-- 鼻 -->
  <ellipse cx="178" cy="113" rx="7" ry="5" fill="#3a3530"/>

  <!-- ひげ(右) -->
  <line x1="185" y1="115" x2="215" y2="110" stroke="#2d263c" stroke-width="3" stroke-linecap="round"/>
  <line x1="184" y1="120" x2="213" y2="120" stroke="#2d263c" stroke-width="3" stroke-linecap="round"/>

  <!-- ひげ(左) -->
  <line x1="171" y1="115" x2="141" y2="110" stroke="#2d263c" stroke-width="3" stroke-linecap="round"/>
  <line x1="172" y1="120" x2="143" y2="120" stroke="#2d263c" stroke-width="3" stroke-linecap="round"/>

  <!-- 口(ちょっとすまし顔) -->
  <path d="M172 124 Q178 128 184 124" fill="none" stroke="#2d263c" stroke-width="3" stroke-linecap="round"/>
</svg>