<svg xmlns="http://www.w3.org/2000/svg" viewBox="0 0 360 360">
  <path d="M150,205 C112,222 78,250 66,288 C92,294 128,282 150,252 C160,236 158,218 150,205 Z" fill="#d9f1fa" stroke="#2d263c" stroke-width="7" stroke-linejoin="round" stroke-linecap="round"/>
  <path d="M210,205 C248,222 282,250 294,288 C268,294 232,282 210,252 C200,236 202,218 210,205 Z" fill="#d9f1fa" stroke="#2d263c" stroke-width="7" stroke-linejoin="round" stroke-linecap="round"/>
  <path d="M168,152 C138,112 92,72 58,38 C42,58 36,92 46,132 C62,152 92,166 122,168 C142,168 158,162 168,152 Z" fill="#bfe6f5" stroke="#2d263c" stroke-width="8" stroke-linejoin="round" stroke-linecap="round"/>
  <path d="M192,152 C222,112 268,72 302,38 C318,58 324,92 314,132 C298,152 268,166 238,168 C218,168 202,162 192,152 Z" fill="#bfe6f5" stroke="#2d263c" stroke-width="8" stroke-linejoin="round" stroke-linecap="round"/>
  <ellipse cx="78" cy="72" rx="20" ry="10" fill="#4a8fc4" stroke="#2d263c" stroke-width="4" transform="rotate(-35 78 72)"/>
  <ellipse cx="282" cy="72" rx="20" ry="10" fill="#4a8fc4" stroke="#2d263c" stroke-width="4" transform="rotate(35 282 72)"/>
  <path d="M105,102 L105,128 M92,115 L118,115 M96,106 L114,124 M96,124 L114,106" fill="none" stroke="#234a72" stroke-width="3" stroke-linecap="round"/>
  <path d="M255,102 L255,128 M242,115 L268,115 M246,106 L264,124 M246,124 L264,106" fill="none" stroke="#234a72" stroke-width="3" stroke-linecap="round"/>
  <path d="M158,290 Q152,308 146,322" fill="none" stroke="#2d263c" stroke-width="6" stroke-linecap="round"/>
  <path d="M202,290 Q208,308 214,322" fill="none" stroke="#2d263c" stroke-width="6" stroke-linecap="round"/>
  <ellipse cx="146" cy="326" rx="9" ry="6" fill="#7fb8d9" stroke="#2d263c" stroke-width="4"/>
  <ellipse cx="214" cy="326" rx="9" ry="6" fill="#7fb8d9" stroke="#2d263c" stroke-width="4"/>
  <ellipse cx="180" cy="232" rx="58" ry="68" fill="#f7f0df" stroke="#2d263c" stroke-width="8"/>
  <ellipse cx="180" cy="248" rx="28" ry="38" fill="#fffaf0" stroke="#2d263c" stroke-width="4"/>
  <circle cx="180" cy="142" r="44" fill="#f7f0df" stroke="#2d263c" stroke-width="8"/>
  <path d="M160,105 Q180,80 200,105 Q180,95 160,105 Z" fill="#fffaf0" stroke="#2d263c" stroke-width="4" stroke-linejoin="round"/>
  <circle cx="160" cy="142" r="17" fill="#2c5f7a" stroke="#2d263c" stroke-width="5"/>
  <circle cx="157" cy="145" r="7" fill="#14202b"/>
  <circle cx="153" cy="138" r="3" fill="#ffffff"/>
  <circle cx="200" cy="142" r="17" fill="#2c5f7a" stroke="#2d263c" stroke-width="5"/>
  <circle cx="203" cy="145" r="7" fill="#14202b"/>
  <circle cx="207" cy="138" r="3" fill="#ffffff"/>
  <path d="M170,163 Q180,168 190,163" fill="none" stroke="#2d263c" stroke-width="4" stroke-linecap="round"/>
  <path d="M150,112 Q136,92 128,70 M142,100 L130,94 M137,88 L125,84 M132,77 L120,75" fill="none" stroke="#234a72" stroke-width="4" stroke-linecap="round"/>
  <path d="M210,112 Q224,92 232,70 M218,100 L230,94 M223,88 L235,84 M228,77 L240,75" fill="none" stroke="#234a72" stroke-width="4" stroke-linecap="round"/>
</svg>
