<svg xmlns="http://www.w3.org/2000/svg" viewBox="0 0 360 360">
  <path d="M235,275 C275,270 300,225 292,180 C288,155 268,145 250,158 C238,168 232,195 235,225 C237,245 232,262 235,275 Z" fill="#EFA05C" stroke="#2d263c" stroke-width="7" stroke-linejoin="round"/>
  <ellipse cx="272" cy="185" rx="18" ry="24" fill="#FFF6DD" stroke="#2d263c" stroke-width="6" stroke-linejoin="round"/>
  <path d="M180,68 C138,68 104,100 96,148 C88,196 90,248 108,282 C120,304 145,320 180,322 C215,320 240,304 252,282 C270,248 272,196 264,148 C256,100 222,68 180,68 Z" fill="#EFA05C" stroke="#2d263c" stroke-width="8" stroke-linejoin="round"/>
  <rect x="146" y="288" width="20" height="42" rx="9" fill="#D97B3E" stroke="#2d263c" stroke-width="7" stroke-linejoin="round"/>
  <rect x="194" y="288" width="20" height="42" rx="9" fill="#D97B3E" stroke="#2d263c" stroke-width="7" stroke-linejoin="round"/>
  <ellipse cx="156" cy="330" rx="22" ry="10" fill="#2A2A2A" stroke="#2d263c" stroke-width="6" stroke-linejoin="round"/>
  <ellipse cx="204" cy="330" rx="22" ry="10" fill="#2A2A2A" stroke="#2d263c" stroke-width="6" stroke-linejoin="round"/>
  <ellipse cx="95" cy="210" rx="22" ry="30" fill="#EFA05C" stroke="#2d263c" stroke-width="7" stroke-linejoin="round"/>
  <ellipse cx="265" cy="210" rx="22" ry="30" fill="#EFA05C" stroke="#2d263c" stroke-width="7" stroke-linejoin="round"/>
  <path d="M130,45 L112,20 M130,45 L100,25" fill="none" stroke="#8B5E3C" stroke-width="6" stroke-linecap="round"/>
  <path d="M230,45 L248,20 M230,45 L260,25" fill="none" stroke="#8B5E3C" stroke-width="6" stroke-linecap="round"/>
  <path d="M150,120 C128,98 114,58 126,32 C140,44 160,78 168,116 Z" fill="#EFA05C" stroke="#2d263c" stroke-width="7" stroke-linejoin="round"/>
  <path d="M126,32 C120,26 128,18 136,22 C140,30 134,40 128,38 Z" fill="#2A2A2A" stroke="#2d263c" stroke-width="5" stroke-linejoin="round"/>
  <path d="M148,108 C136,90 130,64 136,46 C146,56 156,80 160,104 Z" fill="#8A3B32" stroke="#2d263c" stroke-width="5" stroke-linejoin="round"/>
  <path d="M210,120 C232,98 246,58 234,32 C220,44 200,78 192,116 Z" fill="#EFA05C" stroke="#2d263c" stroke-width="7" stroke-linejoin="round"/>
  <path d="M234,32 C240,26 232,18 224,22 C220,30 226,40 232,38 Z" fill="#2A2A2A" stroke="#2d263c" stroke-width="5" stroke-linejoin="round"/>
  <path d="M212,108 C224,90 230,64 224,46 C214,56 204,80 200,104 Z" fill="#8A3B32" stroke="#2d263c" stroke-width="5" stroke-linejoin="round"/>
  <ellipse cx="180" cy="196" rx="42" ry="34" fill="#FFF6DD" stroke="#2d263c" stroke-width="6" stroke-linejoin="round"/>
  <ellipse cx="180" cy="268" rx="52" ry="48" fill="#FFF6DD" stroke="#2d263c" stroke-width="6" stroke-linejoin="round"/>
  <circle cx="155" cy="168" r="12" fill="#241f2e" stroke="#2d263c" stroke-width="6"/>
  <circle cx="205" cy="168" r="12" fill="#241f2e" stroke="#2d263c" stroke-width="6"/>
  <circle cx="151" cy="164" r="4" fill="#ffffff"/>
  <circle cx="201" cy="164" r="4" fill="#ffffff"/>
  <path d="M180,192 L172,204 L188,204 Z" fill="#2A2A2A" stroke="#2d263c" stroke-width="4" stroke-linejoin="round"/>
  <path d="M168,210 Q180,218 192,210" fill="none" stroke="#2d263c" stroke-width="4" stroke-linecap="round"/>
</svg>
