<svg xmlns="http://www.w3.org/2000/svg" viewBox="0 0 360 360">
  <!-- back legs (peeking behind body, drawn first) -->
  <ellipse cx="76" cy="262" rx="26" ry="21" fill="#6FB588" stroke="#2d263c" stroke-width="7" stroke-linejoin="round"/>
  <ellipse cx="288" cy="266" rx="25" ry="20" fill="#6FB588" stroke="#2d263c" stroke-width="7" stroke-linejoin="round"/>

  <!-- bulb on the back, peeking up behind/above the head -->
  <path d="M180 52
           C226 48 262 76 268 116
           C274 154 250 186 208 190
           C168 194 132 172 128 132
           C124 92 148 58 180 52 Z"
        fill="#57A247" stroke="#2d263c" stroke-width="7" stroke-linejoin="round"/>
  <ellipse cx="163" cy="108" rx="13" ry="10" fill="#3D7A32" stroke="#2d263c" stroke-width="5"/>
  <ellipse cx="212" cy="98" rx="11" ry="9" fill="#3D7A32" stroke="#2d263c" stroke-width="5"/>
  <ellipse cx="196" cy="140" rx="12" ry="9" fill="#3D7A32" stroke="#2d263c" stroke-width="5"/>
  <path d="M148 96 Q180 78 220 100" fill="none" stroke="#3D7A32" stroke-width="4" stroke-linecap="round"/>

  <!-- body + head (single lumpy blob, chibi merge) -->
  <path d="M180 152
           C232 148 270 180 274 226
           C278 270 234 306 182 309
           C128 312 84 272 88 224
           C90 176 128 156 180 152 Z"
        fill="#8BCB9E" stroke="#2d263c" stroke-width="8" stroke-linejoin="round"/>

  <!-- tiny head nubs -->
  <path d="M124 168 C114 154 116 138 128 132 C136 144 136 160 128 172 Z" fill="#8BCB9E" stroke="#2d263c" stroke-width="6" stroke-linejoin="round"/>
  <path d="M238 166 C250 152 248 136 236 130 C228 142 228 158 236 170 Z" fill="#8BCB9E" stroke="#2d263c" stroke-width="6" stroke-linejoin="round"/>

  <!-- front legs, drawn in front of body bottom -->
  <path d="M112 272 C98 278 92 298 104 312 C118 320 138 316 140 298 C142 284 128 270 112 272 Z"
        fill="#8BCB9E" stroke="#2d263c" stroke-width="7" stroke-linejoin="round"/>
  <path d="M250 274 C264 278 270 298 258 312 C244 320 224 316 222 298 C220 284 234 272 250 274 Z"
        fill="#8BCB9E" stroke="#2d263c" stroke-width="7" stroke-linejoin="round"/>
  <!-- toes -->
  <path d="M104 312 Q108 320 114 313" fill="none" stroke="#2d263c" stroke-width="5" stroke-linecap="round"/>
  <path d="M122 316 Q126 324 132 317" fill="none" stroke="#2d263c" stroke-width="5" stroke-linecap="round"/>
  <path d="M258 312 Q254 320 248 313" fill="none" stroke="#2d263c" stroke-width="5" stroke-linecap="round"/>
  <path d="M240 316 Q236 324 230 317" fill="none" stroke="#2d263c" stroke-width="5" stroke-linecap="round"/>

  <!-- belly patch -->
  <path d="M126 258 C150 288 214 288 236 260 C230 292 196 304 180 302 C154 300 130 284 126 258 Z"
        fill="#D9F2E0" stroke="#2d263c" stroke-width="5" stroke-linejoin="round"/>

  <!-- body spots -->
  <ellipse cx="106" cy="220" rx="12" ry="15" fill="#5FA85A" stroke="#2d263c" stroke-width="5"/>
  <ellipse cx="256" cy="228" rx="13" ry="16" fill="#5FA85A" stroke="#2d263c" stroke-width="5"/>
  <ellipse cx="218" cy="256" rx="10" ry="8" fill="#5FA85A" stroke="#2d263c" stroke-width="5"/>

  <!-- face: eyes -->
  <ellipse cx="148" cy="212" rx="27" ry="29" fill="#FFFFFF" stroke="#2d263c" stroke-width="7"/>
  <ellipse cx="216" cy="210" rx="25" ry="27" fill="#FFFFFF" stroke="#2d263c" stroke-width="7"/>
  <circle cx="155" cy="218" r="11" fill="#2d263c"/>
  <circle cx="210" cy="216" r="10" fill="#2d263c"/>
  <circle cx="150" cy="210" r="3.5" fill="#ffffff"/>
  <circle cx="206" cy="208" r="3" fill="#ffffff"/>

  <!-- nostrils -->
  <circle cx="174" cy="246" r="3.5" fill="#2d263c"/>
  <circle cx="190" cy="246" r="3.5" fill="#2d263c"/>

  <!-- mouth -->
  <path d="M160 236 Q182 248 204 236" fill="none" stroke="#2d263c" stroke-width="6" stroke-linecap="round"/>
</svg>
