<svg xmlns="http://www.w3.org/2000/svg" viewBox="0 0 360 360">
  <path d="M180 95 C150 65 118 72 105 35 C138 45 162 68 178 100 Z" fill="#3f9b52" stroke="#2d263c" stroke-width="7" stroke-linejoin="round" stroke-linecap="round"/>
  <path d="M198 95 C228 58 258 68 270 32 C238 42 210 66 196 100 Z" fill="#4caf62" stroke="#2d263c" stroke-width="7" stroke-linejoin="round" stroke-linecap="round"/>

  <ellipse cx="190" cy="120" rx="55" ry="40" fill="#dd8bab" stroke="#2d263c" stroke-width="8"/>
  <ellipse cx="190" cy="118" rx="28" ry="18" fill="#c9678f" stroke="#2d263c" stroke-width="5"/>

  <ellipse cx="105" cy="292" rx="32" ry="36" fill="#79bd8d" stroke="#2d263c" stroke-width="8"/>
  <ellipse cx="272" cy="292" rx="32" ry="36" fill="#79bd8d" stroke="#2d263c" stroke-width="8"/>

  <path d="M76 222 C54 158 98 96 190 96 C282 96 306 168 288 226 C304 262 282 314 190 314 C98 314 60 262 76 222 Z" fill="#8ccb9b" stroke="#2d263c" stroke-width="8" stroke-linejoin="round"/>

  <ellipse cx="190" cy="232" rx="68" ry="52" fill="#f0efc9" stroke="#2d263c" stroke-width="6"/>

  <ellipse cx="118" cy="182" rx="17" ry="12" fill="#4f9a6a"/>
  <ellipse cx="262" cy="192" rx="15" ry="19" fill="#4f9a6a"/>
  <ellipse cx="198" cy="152" rx="13" ry="9" fill="#4f9a6a"/>
  <ellipse cx="95" cy="230" rx="12" ry="16" fill="#4f9a6a"/>

  <ellipse cx="132" cy="300" rx="29" ry="33" fill="#8ccb9b" stroke="#2d263c" stroke-width="8"/>
  <ellipse cx="252" cy="300" rx="29" ry="33" fill="#8ccb9b" stroke="#2d263c" stroke-width="8"/>

  <ellipse cx="76" cy="250" rx="14" ry="18" fill="#8ccb9b" stroke="#2d263c" stroke-width="6"/>

  <path d="M122 92 L100 28 L152 82 Z" fill="#8ccb9b" stroke="#2d263c" stroke-width="7" stroke-linejoin="round"/>
  <path d="M258 92 L288 28 L238 82 Z" fill="#8ccb9b" stroke="#2d263c" stroke-width="7" stroke-linejoin="round"/>

  <ellipse cx="150" cy="202" rx="17" ry="21" fill="#ffffff" stroke="#2d263c" stroke-width="5"/>
  <ellipse cx="232" cy="202" rx="17" ry="21" fill="#ffffff" stroke="#2d263c" stroke-width="5"/>
  <circle cx="150" cy="208" r="9" fill="#c0392b"/>
  <circle cx="232" cy="208" r="9" fill="#c0392b"/>

  <path d="M158 252 Q190 274 224 252" fill="none" stroke="#2d263c" stroke-width="7" stroke-linecap="round"/>
</svg>
