<svg xmlns="http://www.w3.org/2000/svg" viewBox="0 0 360 360">
  <path d="M110,205 C88,235 72,262 63,300" fill="none" stroke="#2d263c" stroke-width="9" stroke-linecap="round"/>
  <path d="M110,205 C88,235 72,262 63,300" fill="none" stroke="#33447a" stroke-width="16" stroke-linecap="round"/>
  <path d="M250,205 C272,235 288,262 297,300" fill="none" stroke="#2d263c" stroke-width="9" stroke-linecap="round"/>
  <path d="M250,205 C272,235 288,262 297,300" fill="none" stroke="#33447a" stroke-width="16" stroke-linecap="round"/>
  <circle cx="63" cy="302" r="15" fill="#ffffff" stroke="#2d263c" stroke-width="6"/>
  <circle cx="297" cy="302" r="15" fill="#ffffff" stroke="#2d263c" stroke-width="6"/>
  <path d="M92,175 L78,255 L102,232 L118,300 L140,245 L158,300 L180,250 L202,300 L220,245 L242,300 L258,232 L282,255 L268,175 C230,200 130,200 92,175 Z"
        fill="#33447a" stroke="#2d263c" stroke-width="9" stroke-linejoin="round"/>
  <path d="M180,205 L212,245 L180,300 L148,245 Z" fill="#f4a9cf" stroke="#2d263c" stroke-width="6" stroke-linejoin="round"/>
  <path d="M150,80 C135,60 132,42 122,30" fill="none" stroke="#2d263c" stroke-width="9" stroke-linecap="round"/>
  <path d="M150,80 C135,60 132,42 122,30" fill="none" stroke="#33447a" stroke-width="14" stroke-linecap="round"/>
  <path d="M210,80 C225,60 228,42 238,30" fill="none" stroke="#2d263c" stroke-width="9" stroke-linecap="round"/>
  <path d="M210,80 C225,60 228,42 238,30" fill="none" stroke="#33447a" stroke-width="14" stroke-linecap="round"/>
  <circle cx="122" cy="28" r="9" fill="#33447a" stroke="#2d263c" stroke-width="6"/>
  <circle cx="238" cy="28" r="9" fill="#33447a" stroke="#2d263c" stroke-width="6"/>
  <ellipse cx="180" cy="150" rx="98" ry="82" fill="#33447a" stroke="#2d263c" stroke-width="9"/>
  <ellipse cx="112" cy="122" rx="18" ry="26" transform="rotate(-18 112 122)" fill="#f4a9cf"/>
  <ellipse cx="248" cy="122" rx="18" ry="26" transform="rotate(18 248 122)" fill="#f4a9cf"/>
  <ellipse cx="138" cy="145" rx="33" ry="39" fill="#ffffff" stroke="#2d263c" stroke-width="7"/>
  <ellipse cx="222" cy="145" rx="33" ry="39" fill="#ffffff" stroke="#2d263c" stroke-width="7"/>
  <circle cx="132" cy="152" r="13" fill="#231d2c"/>
  <circle cx="228" cy="152" r="13" fill="#231d2c"/>
  <circle cx="128" cy="148" r="4" fill="#ffffff"/>
  <circle cx="224" cy="148" r="4" fill="#ffffff"/>
  <path d="M122,192 Q180,238 238,192 L236,212 Q180,252 124,212 Z" fill="#231d2c" stroke="#2d263c" stroke-width="6" stroke-linejoin="round"/>
  <path d="M128,197 L140,209 L152,197 L164,209 L176,197 L188,209 L200,197 L212,209 L224,197 L232,206" fill="none" stroke="#ffffff" stroke-width="8" stroke-linecap="round" stroke-linejoin="round"/>
</svg>
