<svg xmlns="http://www.w3.org/2000/svg" viewBox="0 0 360 360">
 <g stroke="#2d263c" stroke-width="7" stroke-linejoin="round" stroke-linecap="round">
  <path fill="#8c6239" d="M162 108 C160 130 156 150 150 170 L210 170 C204 150 200 130 198 108 Z"/>
  <path fill="#3f9d52" d="M176 166 C132 152 92 122 64 68 C74 92 86 108 100 120 L82 116 C106 146 140 164 174 174 Z"/>
  <path fill="#3f9d52" d="M184 166 C228 152 268 122 296 68 C286 92 274 108 260 120 L278 116 C254 146 220 164 186 174 Z"/>
  <path fill="#ef5a7e" d="M180 100 C158 84 150 56 158 34 L169 46 L180 32 L191 46 L202 34 C210 56 202 84 180 100 Z"/>
  <path fill="#ef5a7e" d="M176 102 C148 100 120 84 104 52 L119 56 L116 40 L132 50 L136 34 C158 50 172 76 176 102 Z"/>
  <path fill="#ef5a7e" d="M184 102 C212 100 240 84 256 52 L241 56 L244 40 L228 50 L224 34 C202 50 188 76 184 102 Z"/>
  <path fill="#ef5a7e" d="M178 102 C152 112 124 112 100 98 L114 94 L106 80 L122 84 L120 70 C146 76 168 88 178 102 Z"/>
  <path fill="#ef5a7e" d="M182 102 C208 112 236 112 260 98 L246 94 L254 80 L238 84 L240 70 C214 76 192 88 182 102 Z"/>
  <ellipse fill="#f6c453" cx="180" cy="99" rx="15" ry="9"/>
  <path fill="#3f9d52" d="M152 176 C120 160 92 162 66 150 L72 162 C56 156 42 146 30 133 C44 162 70 178 100 184 C122 188 142 184 152 182 Z"/>
  <path fill="#3f9d52" d="M208 176 C240 160 268 162 294 150 L288 162 C304 156 318 146 330 133 C316 162 290 178 260 184 C238 188 218 184 208 182 Z"/>
  <path fill="#5fb398" d="M60 238 C50 270 50 300 58 326 L104 326 C99 298 97 268 99 242 Z"/>
  <path fill="#5fb398" d="M300 238 C310 270 310 300 302 326 L256 326 C261 298 263 268 261 242 Z"/>
  <path fill="#f7f3e8" stroke-width="6" d="M62 322 L69 336 L76 322 Z M80 322 L87 336 L94 322 Z"/>
  <path fill="#f7f3e8" stroke-width="6" d="M266 322 L273 336 L280 322 Z M284 322 L291 336 L298 322 Z"/>
  <path fill="#5fb398" d="M78 240 C70 200 96 172 150 164 L210 164 C264 172 290 200 282 240 C276 280 250 305 210 312 L150 312 C110 305 84 280 78 240 Z"/>
  <ellipse fill="#3a8a70" stroke="none" cx="96" cy="262" rx="10" ry="13"/>
  <ellipse fill="#3a8a70" stroke="none" cx="264" cy="262" rx="10" ry="13"/>
  <path fill="#5fb398" d="M108 326 C102 306 102 286 108 270 C114 262 146 262 152 270 C156 286 156 306 152 326 Z"/>
  <path fill="#5fb398" d="M208 326 C204 306 204 286 208 270 C214 262 246 262 252 270 C256 286 256 306 252 326 Z"/>
  <path fill="#f7f3e8" stroke-width="6" d="M110 322 L117 338 L124 322 Z M127 322 L134 338 L141 322 Z M144 322 L150 336 L156 322 Z"/>
  <path fill="#f7f3e8" stroke-width="6" d="M204 322 L210 336 L216 322 Z M219 322 L226 338 L233 322 Z M236 322 L243 336 L250 322 Z"/>
  <path fill="#5fb398" d="M124 182 C113 170 109 154 114 142 C127 149 137 162 141 176 Z"/>
  <path fill="#5fb398" d="M236 182 C247 170 251 154 246 142 C233 149 223 162 219 176 Z"/>
  <path fill="#5fb398" d="M112 212 C110 182 140 164 180 164 C220 164 250 182 252 212 C252 246 226 272 180 274 C134 272 112 246 112 212 Z"/>
  <ellipse fill="#3a8a70" stroke="none" cx="148" cy="184" rx="13" ry="8"/>
  <ellipse fill="#3a8a70" stroke="none" cx="212" cy="184" rx="13" ry="8"/>
  <path fill="#d6394d" stroke-width="6" d="M134 204 C144 199 158 203 166 212 C168 222 160 228 150 226 C140 224 134 214 134 204 Z"/>
  <path fill="#d6394d" stroke-width="6" d="M226 204 C216 199 202 203 194 212 C192 222 200 228 210 226 C220 224 226 214 226 204 Z"/>
  <circle fill="#ffffff" stroke="none" cx="151" cy="213" r="4"/>
  <circle fill="#ffffff" stroke="none" cx="209" cy="213" r="4"/>
  <path fill="none" stroke-width="6" d="M170 233 q2 4 0 8 M190 233 q-2 4 0 8"/>
  <path fill="none" d="M132 246 C152 262 208 262 228 246"/>
  <path fill="#ffffff" stroke-width="6" d="M133 250 L141 236 L149 253 Z"/>
  <path fill="#ffffff" stroke-width="6" d="M211 253 L219 236 L227 250 Z"/>
 </g>
</svg>