<svg xmlns="http://www.w3.org/2000/svg" viewBox="0 0 360 360">
  <ellipse cx="180" cy="322" rx="90" ry="14" fill="#2d263c" opacity="0.12"/>
  <ellipse cx="180" cy="235" rx="98" ry="88" fill="#aad65e" stroke="#2d263c" stroke-width="8" stroke-linejoin="round"/>
  <path d="M150,304 C148,314 138,320 128,318 C120,316 118,306 124,300 C132,294 148,296 150,304 Z" fill="#ffb144" stroke="#2d263c" stroke-width="7" stroke-linejoin="round"/>
  <path d="M210,304 C212,314 222,320 232,318 C240,316 242,306 236,300 C228,294 212,296 210,304 Z" fill="#ffb144" stroke="#2d263c" stroke-width="7" stroke-linejoin="round"/>
  <path d="M180,308 C180,317 172,322 165,318 C160,314 162,305 168,302 C175,299 180,301 180,308 Z" fill="#ffb144" stroke="#2d263c" stroke-width="7" stroke-linejoin="round"/>
  <path d="M118,262 C150,272 210,272 242,262" fill="none" stroke="#7fae3f" stroke-width="6" stroke-linecap="round"/>
  <path d="M112,285 C150,296 210,296 248,285" fill="none" stroke="#7fae3f" stroke-width="6" stroke-linecap="round"/>
  <path d="M180,38 C238,42 296,96 306,156 C310,180 288,200 254,192 C233,187 218,172 180,169 C142,172 127,187 106,192 C72,200 50,180 54,156 C64,96 122,42 180,38 Z" fill="#4f9130" stroke="#2d263c" stroke-width="8" stroke-linejoin="round"/>
  <path d="M180,50 L180,168" fill="none" stroke="#357023" stroke-width="6" stroke-linecap="round"/>
  <path d="M180,90 C210,100 240,120 262,148" fill="none" stroke="#357023" stroke-width="5" stroke-linecap="round"/>
  <path d="M180,90 C150,100 120,120 98,148" fill="none" stroke="#357023" stroke-width="5" stroke-linecap="round"/>
  <path d="M180,130 C205,138 228,152 244,172" fill="none" stroke="#357023" stroke-width="5" stroke-linecap="round"/>
  <path d="M180,130 C155,138 132,152 116,172" fill="none" stroke="#357023" stroke-width="5" stroke-linecap="round"/>
  <circle cx="150" cy="188" r="13" fill="#232323"/>
  <circle cx="210" cy="188" r="13" fill="#232323"/>
  <circle cx="146" cy="184" r="3.5" fill="#ffffff"/>
  <circle cx="206" cy="184" r="3.5" fill="#ffffff"/>
  <path d="M164,212 C172,218 188,218 196,212" fill="none" stroke="#2d263c" stroke-width="5" stroke-linecap="round"/>
</svg>
