<svg xmlns="http://www.w3.org/2000/svg" viewBox="0 0 360 360">
  <ellipse cx="185" cy="210" rx="118" ry="70" fill="#1c2340" stroke="#2d263c" stroke-width="8" stroke-linejoin="round"/>
  <path d="M75 220 Q40 195 55 150 Q90 165 100 205 Z" fill="#1c2340" stroke="#2d263c" stroke-width="7" stroke-linejoin="round"/>
  <path d="M295 210 Q335 190 320 145 Q285 160 275 200 Z" fill="#1c2340" stroke="#2d263c" stroke-width="7" stroke-linejoin="round"/>
  <ellipse cx="185" cy="245" rx="95" ry="42" fill="#dfe9ee" stroke="#2d263c" stroke-width="7" stroke-linejoin="round"/>
  <path d="M110 175 Q185 130 260 175" fill="none" stroke="#f0c419" stroke-width="9" stroke-linecap="round"/>
  <path d="M185 90 Q170 130 185 165 Q200 130 185 90 Z" fill="#f0c419" stroke="#2d263c" stroke-width="7" stroke-linejoin="round"/>
  <circle cx="185" cy="100" r="10" fill="#e63946" stroke="#2d263c" stroke-width="6"/>
  <ellipse cx="140" cy="195" rx="16" ry="20" fill="#e63946" stroke="#2d263c" stroke-width="7"/>
  <ellipse cx="230" cy="195" rx="16" ry="20" fill="#e63946" stroke="#2d263c" stroke-width="7"/>
  <circle cx="140" cy="192" r="5" fill="#fff"/>
  <circle cx="230" cy="192" r="5" fill="#fff"/>
  <path d="M160 235 Q185 250 210 235" fill="none" stroke="#2d263c" stroke-width="7" stroke-linecap="round"/>
  <path d="M60 235 Q30 250 15 285 Q45 280 70 260 Z" fill="#1c2340" stroke="#2d263c" stroke-width="7" stroke-linejoin="round"/>
  <path d="M310 235 Q345 250 350 285 Q320 278 300 260 Z" fill="#1c2340" stroke="#2d263c" stroke-width="7" stroke-linejoin="round"/>
  <ellipse cx="130" cy="285" rx="20" ry="10" fill="#f0c419" stroke="#2d263c" stroke-width="6"/>
  <ellipse cx="240" cy="285" rx="20" ry="10" fill="#f0c419" stroke="#2d263c" stroke-width="6"/>
  <path d="M185 155 L155 190 L215 190 Z" fill="#4a5578" stroke="#2d263c" stroke-width="6" stroke-linejoin="round"/>
</svg>
