<svg xmlns="http://www.w3.org/2000/svg" viewBox="0 0 360 360">

  <!-- 後ろ足(左) -->
  <ellipse cx="118" cy="298" rx="28" ry="18" fill="#1a1a2e" stroke="#2d263c" stroke-width="7" stroke-linejoin="round"/>
  <!-- 後ろ足(右) -->
  <ellipse cx="242" cy="301" rx="30" ry="17" fill="#1a1a2e" stroke="#2d263c" stroke-width="7" stroke-linejoin="round"/>

  <!-- 前足リング(左) -->
  <ellipse cx="107" cy="256" rx="14" ry="7" fill="none" stroke="#f5d020" stroke-width="5" stroke-linecap="round"/>
  <!-- 前足リング(右) -->
  <ellipse cx="250" cy="259" rx="14" ry="7" fill="none" stroke="#f5d020" stroke-width="5" stroke-linecap="round"/>

  <!-- 後ろ足リング(左) -->
  <ellipse cx="118" cy="296" rx="16" ry="7" fill="none" stroke="#f5d020" stroke-width="5" stroke-linecap="round"/>
  <!-- 後ろ足リング(右) -->
  <ellipse cx="242" cy="299" rx="16" ry="7" fill="none" stroke="#f5d020" stroke-width="5" stroke-linecap="round"/>

  <!-- しっぽ -->
  <path d="M 258 230 Q 315 210 308 265 Q 300 290 272 278" fill="#1a1a2e" stroke="#2d263c" stroke-width="7" stroke-linejoin="round" stroke-linecap="round"/>
  <!-- しっぽリング -->
  <ellipse cx="300" cy="258" rx="13" ry="8" fill="none" stroke="#f5d020" stroke-width="5" stroke-linecap="round" transform="rotate(-20 300 258)"/>

  <!-- 胴体 -->
  <ellipse cx="178" cy="240" rx="82" ry="70" fill="#1a1a2e" stroke="#2d263c" stroke-width="8" stroke-linejoin="round"/>

  <!-- 前足(左) -->
  <path d="M 120 255 Q 100 265 97 285 Q 95 298 115 295 Q 130 293 128 278 Z" fill="#1a1a2e" stroke="#2d263c" stroke-width="7" stroke-linejoin="round"/>
  <!-- 前足(右) -->
  <path d="M 238 258 Q 258 268 261 288 Q 263 301 243 299 Q 228 297 230 282 Z" fill="#1a1a2e" stroke="#2d263c" stroke-width="7" stroke-linejoin="round"/>

  <!-- 首 -->
  <path d="M 148 195 Q 155 168 178 162 Q 200 158 210 190" fill="#1a1a2e" stroke="#2d263c" stroke-width="8" stroke-linejoin="round"/>

  <!-- 耳(左・後ろ側) -->
  <path d="M 138 130 Q 118 75 135 52 Q 148 38 162 68 Q 170 95 158 130" fill="#1a1a2e" stroke="#2d263c" stroke-width="7" stroke-linejoin="round"/>
  <!-- 耳(左)内側リング -->
  <ellipse cx="148" cy="92" rx="9" ry="22" fill="none" stroke="#f5d020" stroke-width="5" stroke-linecap="round" transform="rotate(-8 148 92)"/>

  <!-- 耳(右) -->
  <path d="M 198 128 Q 212 72 228 52 Q 240 38 248 65 Q 252 88 232 128" fill="#1a1a2e" stroke="#2d263c" stroke-width="7" stroke-linejoin="round"/>
  <!-- 耳(右)内側リング -->
  <ellipse cx="228" cy="90" rx="9" ry="22" fill="none" stroke="#f5d020" stroke-width="5" stroke-linecap="round" transform="rotate(10 228 90)"/>

  <!-- 頭 -->
  <ellipse cx="183" cy="148" rx="58" ry="52" fill="#1a1a2e" stroke="#2d263c" stroke-width="8" stroke-linejoin="round"/>

  <!-- 額リング -->
  <ellipse cx="183" cy="120" rx="12" ry="7" fill="none" stroke="#f5d020" stroke-width="5" stroke-linecap="round"/>

  <!-- 目(左)白目 -->
  <ellipse cx="162" cy="148" rx="12" ry="9" fill="#cc0000"/>
  <!-- 目(左)瞳 -->
  <ellipse cx="164" cy="149" rx="6" ry="7" fill="#880000"/>

  <!-- 目(右)白目 -->
  <ellipse cx="205" cy="147" rx="11" ry="9" fill="#cc0000"/>
  <!-- 目(右)瞳 -->
  <ellipse cx="207" cy="148" rx="5" ry="7" fill="#880000"/>

  <!-- 目のつり上がり線(左) -->
  <path d="M 151 142 Q 162 138 174 143" fill="none" stroke="#2d263c" stroke-width="4" stroke-linecap="round"/>
  <!-- 目のつり上がり線(右) -->
  <path d="M 195 141 Q 205 136 216 141" fill="none" stroke="#2d263c" stroke-width="4" stroke-linecap="round"/>

  <!-- 鼻 -->
  <ellipse cx="183" cy="163" rx="5" ry="3" fill="#3a2a50"/>

  <!-- 口(ちょっとニヤリ) -->
  <path d="M 172 172 Q 183 180 194 172" fill="none" stroke="#2d263c" stroke-width="4" stroke-linecap="round"/>

  <!-- ほっぺ(左)ほのかな色 -->
  <ellipse cx="148" cy="165" rx="12" ry="8" fill="#3a1a4a" opacity="0.7"/>
  <!-- ほっぺ(右) -->
  <ellipse cx="218" cy="164" rx="11" ry="8" fill="#3a1a4a" opacity="0.7"/>

  <!-- 首のリング -->
  <path d="M 153 192 Q 178 185 206 190" fill="none" stroke="#f5d020" stroke-width="5" stroke-linecap="round"/>

</svg>