<svg xmlns="http://www.w3.org/2000/svg" viewBox="0 0 360 360"><g stroke="#2d263c" stroke-linejoin="round" stroke-linecap="round"><path d="M238 252 C 302 246 327 200 316 150 C 312 131 297 123 287 132 C 277 141 284 157 297 159 C 299 198 274 224 234 228 Z" fill="#3a3542" stroke-width="7"/><path d="M283 202 L320 187 L315 167 L279 183 Z" fill="#f8d030" stroke-width="6"/><ellipse cx="110" cy="300" rx="21" ry="17" fill="#3a3542" stroke-width="7"/><ellipse cx="259" cy="303" rx="23" ry="15" fill="#3a3542" stroke-width="7"/><rect x="246" y="291" width="26" height="13" rx="6" fill="#f8d030" stroke-width="6"/><ellipse cx="185" cy="250" rx="73" ry="53" fill="#3a3542" stroke-width="8"/><path d="M138 266 L137 322 Q137 333 150 333 Q163 333 163 322 L163 270 Z" fill="#3a3542" stroke-width="7"/><path d="M203 268 L203 326 Q203 337 216 336 Q229 336 229 325 L229 270 Z" fill="#3a3542" stroke-width="7"/><rect x="133" y="285" width="33" height="14" rx="7" fill="#f8d030" stroke-width="6"/><rect x="199" y="289" width="33" height="14" rx="7" fill="#f8d030" stroke-width="6"/><path d="M150 108 L112 30 L182 84 Z" fill="#3a3542" stroke-width="7"/><path d="M127 61 L139 52 L153 64 L135 77 Z" fill="#f8d030" stroke-width="6"/><path d="M196 96 L266 36 L238 108 Z" fill="#3a3542" stroke-width="7"/><path d="M236 54 L254 63 L248 77 L222 64 Z" fill="#f8d030" stroke-width="6"/><ellipse cx="178" cy="140" rx="62" ry="55" fill="#3a3542" stroke-width="8"/><circle cx="178" cy="111" r="13" fill="none" stroke="#f8d030" stroke-width="8"/><ellipse cx="151" cy="142" rx="13" ry="16" fill="#e04438" stroke-width="6"/><ellipse cx="209" cy="140" rx="14" ry="18" fill="#e04438" stroke-width="6"/><ellipse cx="153" cy="144" rx="5" ry="8" fill="#2d263c" stroke="none"/><ellipse cx="207" cy="142" rx="5" ry="9" fill="#2d263c" stroke="none"/><circle cx="147" cy="136" r="3" fill="#ffffff" stroke="none"/><circle cx="203" cy="133" r="3.5" fill="#ffffff" stroke="none"/><path d="M172 166 L186 166 L179 174 Z" fill="#2d263c" stroke-width="6"/><path d="M163 181 Q179 192 197 179" fill="none" stroke-width="6"/></g></svg>