<svg xmlns="http://www.w3.org/2000/svg" viewBox="0 0 360 360">
  <ellipse cx="185" cy="318" rx="130" ry="16" fill="#2d263c" opacity="0.15"/>
  <path d="M60,300 C38,258 44,188 92,158 C132,133 192,128 232,140 C272,152 302,172 306,212 C310,252 288,282 248,296 C188,318 108,316 60,300 Z"
        fill="#ff7a29" stroke="#2d263c" stroke-width="7" stroke-linejoin="round"/>
  <path d="M120,148 C150,132 200,130 232,142 C250,148 260,156 262,166 C230,178 180,178 140,168 C122,162 112,156 120,148 Z"
        fill="#8d8175" stroke="#2d263c" stroke-width="6" stroke-linejoin="round"/>
  <path d="M180,168 C200,164 224,166 244,174 C252,178 254,184 250,190 C220,196 194,194 172,186 C166,180 170,172 180,168 Z"
        fill="#6f6459" stroke="#2d263c" stroke-width="6" stroke-linejoin="round"/>
  <ellipse cx="112" cy="205" rx="46" ry="52" fill="#8a2a15" stroke="#2d263c" stroke-width="6"/>
  <circle cx="96" cy="196" r="15" fill="#ffe14d" stroke="#2d263c" stroke-width="5"/>
  <circle cx="98" cy="198" r="6" fill="#2d263c"/>
  <circle cx="134" cy="200" r="15" fill="#ffe14d" stroke="#2d263c" stroke-width="5"/>
  <circle cx="136" cy="202" r="6" fill="#2d263c"/>
  <path d="M100,232 C112,240 124,240 134,231" fill="none" stroke="#2d263c" stroke-width="6" stroke-linecap="round"/>
  <path d="M148,296 C144,306 144,316 152,324 C160,316 160,306 154,296 Z" fill="#e8590c" stroke="#2d263c" stroke-width="6" stroke-linejoin="round"/>
  <path d="M198,300 C194,312 194,322 202,330 C210,322 210,312 204,300 Z" fill="#e8590c" stroke="#2d263c" stroke-width="6" stroke-linejoin="round"/>
  <path d="M244,290 C240,300 240,310 248,318 C256,310 256,300 250,290 Z" fill="#e8590c" stroke="#2d263c" stroke-width="6" stroke-linejoin="round"/>
  <circle cx="200" cy="230" r="10" fill="#ffb347" opacity="0.85"/>
  <circle cx="240" cy="255" r="8" fill="#ffb347" opacity="0.85"/>
  <circle cx="170" cy="260" r="7" fill="#ffb347" opacity="0.85"/>
</svg>
