<svg xmlns="http://www.w3.org/2000/svg" viewBox="0 0 360 360">
  <!-- しっぽ(後ろ) -->
  <path d="M200 270 Q240 260 265 240 Q285 220 278 200 Q270 185 255 195 Q245 205 248 225 Q235 248 210 260 Z"
    fill="#6A7F9A" stroke="#2d263c" stroke-width="7" stroke-linejoin="round" stroke-linecap="round"/>
  <!-- しっぽの六角形模様 -->
  <polygon points="260,215 268,210 272,215 268,220 260,220 256,215"
    fill="#4A6080" stroke="#2d263c" stroke-width="3" stroke-linejoin="round"/>
  <polygon points="246,232 254,227 258,232 254,237 246,237 242,232"
    fill="#4A6080" stroke="#2d263c" stroke-width="3" stroke-linejoin="round"/>

  <!-- 翼(左) -->
  <path d="M130 220 Q95 200 80 175 Q72 155 90 150 Q108 146 118 168 Q125 190 128 210 Z"
    fill="#8EA8C2" stroke="#2d263c" stroke-width="7" stroke-linejoin="round" stroke-linecap="round"/>
  <!-- 翼の内側筋 -->
  <line x1="92" y1="153" x2="120" y2="205" stroke="#6A8BA8" stroke-width="3" stroke-linecap="round"/>
  <line x1="105" y1="152" x2="125" y2="200" stroke="#6A8BA8" stroke-width="3" stroke-linecap="round"/>

  <!-- 翼(右) -->
  <path d="M225 215 Q262 198 278 172 Q287 152 268 148 Q250 145 240 167 Q232 190 228 210 Z"
    fill="#8EA8C2" stroke="#2d263c" stroke-width="7" stroke-linejoin="round" stroke-linecap="round"/>
  <!-- 翼の内側筋 -->
  <line x1="274" y1="152" x2="242" y2="202" stroke="#6A8BA8" stroke-width="3" stroke-linecap="round"/>
  <line x1="263" y1="150" x2="238" y2="198" stroke="#6A8BA8" stroke-width="3" stroke-linecap="round"/>

  <!-- 胴体 -->
  <ellipse cx="178" cy="248" rx="58" ry="50"
    fill="#7B90A8" stroke="#2d263c" stroke-width="8" stroke-linejoin="round"/>

  <!-- お腹(薄い色) -->
  <ellipse cx="178" cy="258" rx="36" ry="32"
    fill="#C8D8C0" stroke="#2d263c" stroke-width="5" stroke-linejoin="round"/>

  <!-- お腹の六角形模様 -->
  <polygon points="178,250 186,245 190,250 186,255 178,255 174,250"
    fill="#A8C4A0" stroke="#2d263c" stroke-width="3" stroke-linejoin="round"/>
  <polygon points="168,265 176,260 180,265 176,270 168,270 164,265"
    fill="#A8C4A0" stroke="#2d263c" stroke-width="3" stroke-linejoin="round"/>
  <polygon points="188,265 196,260 200,265 196,270 188,270 184,265"
    fill="#A8C4A0" stroke="#2d263c" stroke-width="3" stroke-linejoin="round"/>

  <!-- 胴体の六角形装甲(左) -->
  <polygon points="132,240 142,233 148,240 144,248 134,248 128,242"
    fill="#5A7090" stroke="#2d263c" stroke-width="4" stroke-linejoin="round"/>
  <!-- 胴体の六角形装甲(右) -->
  <polygon points="208,238 218,231 224,238 220,246 210,246 204,240"
    fill="#5A7090" stroke="#2d263c" stroke-width="4" stroke-linejoin="round"/>

  <!-- 首 -->
  <path d="M162 202 Q158 175 160 148 Q162 125 170 118 Q178 112 186 118 Q194 125 196 148 Q198 175 195 202 Z"
    fill="#7B90A8" stroke="#2d263c" stroke-width="7" stroke-linejoin="round"/>

  <!-- 首の結晶装甲 -->
  <polygon points="168,168 175,163 181,168 178,175 170,175 165,170"
    fill="#5A7090" stroke="#2d263c" stroke-width="3.5" stroke-linejoin="round"/>
  <polygon points="170,148 177,143 183,148 180,155 172,155 167,150"
    fill="#5A7090" stroke="#2d263c" stroke-width="3.5" stroke-linejoin="round"/>

  <!-- 頭 -->
  <ellipse cx="178" cy="102" rx="32" ry="28"
    fill="#8EA8C2" stroke="#2d263c" stroke-width="8" stroke-linejoin="round"/>

  <!-- 左の角(水晶) -->
  <polygon points="155,88 160,65 165,68 163,88"
    fill="#B0D0E8" stroke="#2d263c" stroke-width="5" stroke-linejoin="round"/>
  <polygon points="160,65 165,68 163,78 157,75"
    fill="#D0E8F4" stroke="#2d263c" stroke-width="3" stroke-linejoin="round"/>

  <!-- 右の角(水晶) -->
  <polygon points="192,87 196,64 202,66 200,88"
    fill="#B0D0E8" stroke="#2d263c" stroke-width="5" stroke-linejoin="round"/>
  <polygon points="196,64 202,66 200,76 194,73"
    fill="#D0E8F4" stroke="#2d263c" stroke-width="3" stroke-linejoin="round"/>

  <!-- 顔の六角形額装甲 -->
  <polygon points="178,82 186,78 190,83 187,90 179,90 175,85"
    fill="#6A8AAA" stroke="#2d263c" stroke-width="3.5" stroke-linejoin="round"/>

  <!-- 目(左) まじめそうな目 -->
  <ellipse cx="162" cy="105" rx="9" ry="10" fill="white" stroke="#2d263c" stroke-width="4"/>
  <ellipse cx="163" cy="107" rx="5" ry="5" fill="#2d263c"/>
  <ellipse cx="165" cy="105" rx="2" ry="2" fill="white"/>

  <!-- 目(右) ちょっとずれてる落書き感 -->
  <ellipse cx="194" cy="104" rx="8" ry="9" fill="white" stroke="#2d263c" stroke-width="4"/>
  <ellipse cx="195" cy="106" rx="5" ry="5" fill="#2d263c"/>
  <ellipse cx="197" cy="104" rx="2" ry="2" fill="white"/>

  <!-- 口(ちょっとへの字) -->
  <path d="M170 118 Q178 122 186 118" fill="none" stroke="#2d263c" stroke-width="4" stroke-linecap="round"/>

  <!-- ほっぺのぷくっと感 -->
  <ellipse cx="150" cy="112" rx="8" ry="6" fill="#9ABCCC" stroke="none" opacity="0.6"/>
  <ellipse cx="206" cy="111" rx="8" ry="6" fill="#9ABCCC" stroke="none" opacity="0.6"/>

  <!-- 足(左) -->
  <path d="M155 290 Q148 308 140 320 Q145 326 155 320 Q160 308 162 292 Z"
    fill="#6A7F9A" stroke="#2d263c" stroke-width="7" stroke-linejoin="round" stroke-linecap="round"/>
  <!-- 足爪(左) -->
  <path d="M140 320 Q133 328 136 334 Q142 330 148 325"
    fill="#5A6E88" stroke="#2d263c" stroke-width="5" stroke-linecap="round"/>
  <path d="M152 322 Q148 332 152 337 Q157 332 158 324"
    fill="#5A6E88" stroke="#2d263c" stroke-width="5" stroke-linecap="round"/>

  <!-- 足(右) -->
  <path d="M198 290 Q205 308 214 320 Q210 326 200 320 Q194 308 192 292 Z"
    fill="#6A7F9A" stroke="#2d263c" stroke-width="7" stroke-linejoin="round" stroke-linecap="round"/>
  <!-- 足爪(右) -->
  <path d="M214 320 Q221 328 218 334 Q212 330 206 325"
    fill="#5A6E88" stroke="#2d263c" stroke-width="5" stroke-linecap="round"/>
  <path d="M202 322 Q206 332 202 337 Q197 332 196 324"
    fill="#5A6E88" stroke="#2d263c" stroke-width="5" stroke-linecap="round"/>
</svg>