<svg xmlns="http://www.w3.org/2000/svg" viewBox="0 0 360 360">
  <g stroke="#2d263c" stroke-width="7" stroke-linejoin="round" stroke-linecap="round">
    <path d="M112,256 C76,262 50,240 49,202 C48,184 57,168 72,162 C66,182 68,202 86,220 C97,231 102,236 114,238 Z" fill="#3d3d4d"/>
    <path d="M52,212 C50,198 55,184 64,175 C74,181 81,192 82,204 C72,214 62,216 52,212 Z" fill="#f8d544"/>
    <path d="M140,120 C122,82 110,55 96,32 C130,44 158,72 168,100 Z" fill="#3d3d4d"/>
    <path d="M113,60 L150,86 L143,102 L116,80 Z" fill="#f8d544"/>
    <path d="M220,120 C236,80 248,52 266,28 C232,42 206,70 196,100 Z" fill="#3d3d4d"/>
    <path d="M252,56 L212,82 L220,100 L258,74 Z" fill="#f8d544"/>
    <ellipse cx="106" cy="284" rx="26" ry="33" fill="#3d3d4d"/>
    <circle cx="97" cy="277" r="13" fill="#f8d544"/>
    <circle cx="97" cy="277" r="6" fill="#3d3d4d"/>
    <ellipse cx="264" cy="282" rx="26" ry="33" fill="#3d3d4d"/>
    <circle cx="272" cy="275" r="13" fill="#f8d544"/>
    <circle cx="272" cy="275" r="6" fill="#3d3d4d"/>
    <ellipse cx="185" cy="258" rx="72" ry="52" fill="#3d3d4d"/>
    <path d="M152,288 L147,332 L172,334 L174,290 Z" fill="#3d3d4d"/>
    <path d="M149,298 L173,300 L172,313 L148,311 Z" fill="#f8d544"/>
    <path d="M204,290 L206,334 L231,332 L226,288 Z" fill="#3d3d4d"/>
    <path d="M205,300 L227,298 L228,311 L206,313 Z" fill="#f8d544"/>
    <ellipse cx="180" cy="158" rx="72" ry="64" fill="#3d3d4d" transform="rotate(-2 180 158)"/>
    <circle cx="180" cy="121" r="17" fill="#f8d544"/>
    <circle cx="181" cy="121" r="8" fill="#3d3d4d"/>
    <ellipse cx="150" cy="161" rx="13" ry="16" fill="#e8443a"/>
    <ellipse cx="213" cy="158" rx="14" ry="17" fill="#e8443a"/>
    <path d="M170,197 Q178,206 187,196" fill="none" stroke-width="6"/>
  </g>
  <ellipse cx="151" cy="163" rx="4.5" ry="7.5" fill="#2d263c"/>
  <ellipse cx="214" cy="160" rx="5" ry="8" fill="#2d263c"/>
  <circle cx="146" cy="154" r="3.5" fill="#ffffff"/>
  <circle cx="208" cy="151" r="3.5" fill="#ffffff"/>
  <path d="M176,186 L187,186 L181,194 Z" fill="#1f1a2e"/>
</svg>