<svg xmlns="http://www.w3.org/2000/svg" viewBox="0 0 360 360">
<g fill="none" stroke="#2d263c" stroke-width="7" stroke-linejoin="round" stroke-linecap="round">
<path fill="#f6a8c8" d="M248,225 C268,220 282,234 273,252 C266,265 248,260 249,247 C250,239 253,235 258,236 Z"/>
<ellipse fill="#f6a8c8" cx="118" cy="292" rx="27" ry="36"/>
<ellipse fill="#f6a8c8" cx="242" cy="292" rx="27" ry="36"/>
<ellipse fill="#f6a8c8" cx="150" cy="306" rx="26" ry="34"/>
<ellipse fill="#f6a8c8" cx="210" cy="306" rx="26" ry="34"/>
<ellipse fill="#fdf0d3" cx="150" cy="328" rx="20" ry="13"/>
<ellipse fill="#fdf0d3" cx="210" cy="328" rx="20" ry="13"/>
<path fill="#f6a8c8" d="M108,288 C99,240 122,193 180,190 C238,193 261,240 252,288 C245,314 196,326 180,326 C164,326 115,314 108,288 Z"/>
<path fill="#e685ab" d="M124,200 C117,185 130,171 146,181 C154,168 170,168 180,180 C190,168 206,168 214,181 C230,171 243,185 236,200 C220,209 140,209 124,200 Z"/>
<path fill="#e685ab" d="M96,112 C55,110 44,160 66,197 C79,219 101,215 109,196 C117,175 111,138 108,114 Z"/>
<path fill="#e685ab" d="M264,112 C305,110 316,160 294,197 C281,219 259,215 251,196 C243,175 249,138 252,114 Z"/>
<circle fill="#f6a8c8" cx="180" cy="150" r="93"/>
<ellipse fill="#ffc7de" cx="180" cy="192" rx="58" ry="46"/>
<path fill="#fdf0d3" d="M167,76 C166,55 177,34 188,45 C197,54 191,74 182,88 Z"/>
<path fill="none" stroke="#2d263c" stroke-width="5" d="M150,158 C160,165 170,165 179,159"/>
<path fill="none" stroke="#2d263c" stroke-width="5" d="M181,159 C190,165 200,165 210,158"/>
<ellipse fill="#241d30" cx="148" cy="146" rx="13" ry="15"/>
<ellipse fill="#241d30" cx="212" cy="146" rx="13" ry="15"/>
<circle fill="#ffffff" stroke="none" cx="143" cy="140" r="4"/>
<circle fill="#ffffff" stroke="none" cx="207" cy="140" r="4"/>
<ellipse fill="#241d30" cx="180" cy="180" rx="11" ry="8"/>
<path fill="none" stroke="#2d263c" stroke-width="6" d="M152,201 C165,213 195,213 208,201"/>
<path fill="#ffffff" d="M158,199 L166,174 L175,200 Z"/>
<path fill="#ffffff" d="M185,200 L194,174 L202,199 Z"/>
<ellipse fill="#ff9fbb" stroke="none" cx="126" cy="172" rx="12" ry="8"/>
<ellipse fill="#ff9fbb" stroke="none" cx="234" cy="172" rx="12" ry="8"/>
</g>
</svg>
