<svg xmlns="http://www.w3.org/2000/svg" viewBox="0 0 360 360">
  <!-- 紫マント左(後ろ) -->
  <path d="M132 195 Q92 218 76 278 Q86 300 112 290 Q126 258 142 228 Z" fill="#6b3fa0" stroke="#2d263c" stroke-width="7" stroke-linejoin="round" stroke-linecap="round"/>
  <!-- 紫マント右(後ろ) -->
  <path d="M228 195 Q268 220 284 282 Q274 302 248 292 Q234 260 218 230 Z" fill="#6b3fa0" stroke="#2d263c" stroke-width="7" stroke-linejoin="round" stroke-linecap="round"/>
  <!-- 刀身(メイン・ブレード) -->
  <path d="M167 58 L193 58 L201 198 L180 232 L159 198 Z" fill="#b9c6cf" stroke="#2d263c" stroke-width="8" stroke-linejoin="round" stroke-linecap="round"/>
  <!-- 刀身の光沢ライン -->
  <line x1="180" y1="74" x2="180" y2="208" stroke="#eef4f8" stroke-width="4" stroke-linecap="round"/>
  <!-- 刀身先端 -->
  <path d="M159 198 L180 246 L201 198 Z" fill="#93a4ac" stroke="#2d263c" stroke-width="6" stroke-linejoin="round"/>
  <!-- 鍔(ガード・金色) -->
  <path d="M138 192 Q150 182 170 180 L180 177 L190 180 Q210 182 222 192 Q216 214 200 218 L180 222 L160 218 Q144 214 138 192 Z" fill="#f5c518" stroke="#2d263c" stroke-width="7" stroke-linejoin="round"/>
  <!-- 鍔の装飾ライン -->
  <line x1="148" y1="198" x2="212" y2="198" stroke="#c8a000" stroke-width="3" stroke-linecap="round"/>
  <!-- 柄(グリップ) -->
  <rect x="169" y="220" width="22" height="54" rx="6" fill="#f5c518" stroke="#2d263c" stroke-width="7" stroke-linejoin="round"/>
  <!-- 柄の巻き模様 -->
  <line x1="169" y1="234" x2="191" y2="234" stroke="#c8a000" stroke-width="3"/>
  <line x1="169" y1="249" x2="191" y2="249" stroke="#c8a000" stroke-width="3"/>
  <!-- 柄頭 -->
  <ellipse cx="180" cy="278" rx="19" ry="12" fill="#f5c518" stroke="#2d263c" stroke-width="7" stroke-linejoin="round"/>
  <!-- 王冠型頭部(金色) -->
  <path d="M152 98 L147 66 L165 84 L180 53 L195 84 L213 66 L208 98 Z" fill="#f5c518" stroke="#2d263c" stroke-width="8" stroke-linejoin="round" stroke-linecap="round"/>
  <!-- 頭部の面(金色ベース) -->
  <path d="M150 98 Q147 128 155 144 L180 151 L205 144 Q213 128 210 98 Z" fill="#f5c518" stroke="#2d263c" stroke-width="7" stroke-linejoin="round"/>
  <!-- 目(ひとつ目・赤) -->
  <ellipse cx="180" cy="121" rx="17" ry="13" fill="#cc0000" stroke="#2d263c" stroke-width="5"/>
  <!-- 瞳孔 -->
  <ellipse cx="182" cy="123" rx="7" ry="8" fill="#6a0000"/>
  <!-- 目の光沢 -->
  <ellipse cx="175" cy="117" rx="4" ry="3" fill="#ff6666" opacity="0.7"/>
  <!-- 王冠の宝石(中央) -->
  <ellipse cx="180" cy="76" rx="7" ry="6" fill="#cc0000" stroke="#2d263c" stroke-width="3"/>
  <!-- 王冠の宝石(左) -->
  <ellipse cx="157" cy="79" rx="5" ry="4" fill="#cc0000" stroke="#2d263c" stroke-width="2.5"/>
  <!-- 王冠の宝石(右) -->
  <ellipse cx="203" cy="79" rx="5" ry="4" fill="#cc0000" stroke="#2d263c" stroke-width="2.5"/>
  <!-- 左腕(白骨) -->
  <path d="M138 226 Q112 232 100 250 Q96 262 105 266 Q118 260 132 246 Q142 236 145 224 Z" fill="#e8e8e8" stroke="#2d263c" stroke-width="6" stroke-linejoin="round"/>
  <!-- 左ミニ盾 -->
  <path d="M92 249 Q81 244 74 254 Q71 266 82 271 Q93 273 100 264 Q102 255 92 249 Z" fill="#f5c518" stroke="#2d263c" stroke-width="6" stroke-linejoin="round"/>
  <!-- 左ミニ盾のクロス -->
  <line x1="82" y1="253" x2="94" y2="266" stroke="#c8a000" stroke-width="2.5"/>
  <line x1="94" y1="253" x2="82" y2="266" stroke="#c8a000" stroke-width="2.5"/>
  <!-- 右腕(白骨) -->
  <path d="M222 226 Q248 233 260 251 Q264 263 255 266 Q242 260 228 247 Q218 237 215 225 Z" fill="#e8e8e8" stroke="#2d263c" stroke-width="6" stroke-linejoin="round"/>
  <!-- 右ミニ盾 -->
  <path d="M268 252 Q279 247 286 257 Q289 269 278 274 Q267 276 260 267 Q258 258 268 252 Z" fill="#f5c518" stroke="#2d263c" stroke-width="6" stroke-linejoin="round"/>
  <!-- 右ミニ盾のクロス -->
  <line x1="265" y1="256" x2="277" y2="268" stroke="#c8a000" stroke-width="2.5"/>
  <line x1="277" y1="256" x2="265" y2="268" stroke="#c8a000" stroke-width="2.5"/>
  <!-- 紫マント裾のモヤ -->
  <path d="M100 268 Q116 296 138 306 Q158 313 180 311 Q202 313 222 306 Q244 296 260 268" fill="none" stroke="#6b3fa0" stroke-width="5" stroke-linecap="round" opacity="0.7"/>
</svg>
