<svg xmlns="http://www.w3.org/2000/svg" viewBox="0 0 360 360">
  <!-- 尻尾(後ろ) -->
  <path d="M235 270 Q290 260 300 210 Q305 250 270 285 Q255 292 235 285 Z" fill="#f4c95d" stroke="#2d263c" stroke-width="7" stroke-linejoin="round"/>

  <!-- 背中の炎(後ろ) -->
  <path d="M120 90 Q100 55 115 25 Q125 55 130 80 Z" fill="#ff8a2b" stroke="#2d263c" stroke-width="6" stroke-linejoin="round"/>
  <path d="M240 90 Q262 52 250 20 Q238 52 232 80 Z" fill="#ff8a2b" stroke="#2d263c" stroke-width="6" stroke-linejoin="round"/>

  <!-- 体(濃紺) -->
  <path d="M180 120
           C120 120 95 175 100 230
           C104 275 140 310 180 312
           C220 310 256 275 260 230
           C265 175 240 120 180 120 Z"
        fill="#2b3a63" stroke="#2d263c" stroke-width="8" stroke-linejoin="round"/>

  <!-- おなか(クリーム色) -->
  <path d="M180 165
           C150 165 132 200 135 240
           C138 272 158 292 180 293
           C202 292 222 272 225 240
           C228 200 210 165 180 165 Z"
        fill="#f7e2b0" stroke="#2d263c" stroke-width="6" stroke-linejoin="round"/>

  <!-- 首周りの炎の襟(左右のシェル+炎) -->
  <path d="M100 150 Q60 140 55 100 Q90 108 112 140 Z" fill="#ff8a2b" stroke="#2d263c" stroke-width="7" stroke-linejoin="round"/>
  <path d="M70 118 Q45 95 48 65 Q68 85 82 112 Z" fill="#ffd23f" stroke="#2d263c" stroke-width="6" stroke-linejoin="round"/>
  <path d="M260 150 Q300 140 305 100 Q270 108 248 140 Z" fill="#ff8a2b" stroke="#2d263c" stroke-width="7" stroke-linejoin="round"/>
  <path d="M290 118 Q315 95 312 65 Q292 85 278 112 Z" fill="#ffd23f" stroke="#2d263c" stroke-width="6" stroke-linejoin="round"/>

  <!-- 腕 -->
  <path d="M104 195 Q70 210 65 245 Q64 262 80 268 Q100 262 105 235 Q110 215 104 195 Z" fill="#2b3a63" stroke="#2d263c" stroke-width="7" stroke-linejoin="round"/>
  <path d="M256 195 Q290 210 295 245 Q296 262 280 268 Q260 262 255 235 Q250 215 256 195 Z" fill="#2b3a63" stroke="#2d263c" stroke-width="7" stroke-linejoin="round"/>
  <!-- 手(クリーム) -->
  <circle cx="79" cy="263" r="17" fill="#f7e2b0" stroke="#2d263c" stroke-width="6"/>
  <circle cx="281" cy="263" r="17" fill="#f7e2b0" stroke="#2d263c" stroke-width="6"/>

  <!-- 脚 -->
  <path d="M135 295 Q128 320 140 335 Q160 340 168 322 Q170 305 158 293 Z" fill="#2b3a63" stroke="#2d263c" stroke-width="7" stroke-linejoin="round"/>
  <path d="M225 295 Q232 320 220 335 Q200 340 192 322 Q190 305 202 293 Z" fill="#2b3a63" stroke="#2d263c" stroke-width="7" stroke-linejoin="round"/>
  <!-- 足(クリーム) -->
  <ellipse cx="150" cy="333" rx="20" ry="13" fill="#f7e2b0" stroke="#2d263c" stroke-width="6"/>
  <ellipse cx="210" cy="333" rx="20" ry="13" fill="#f7e2b0" stroke="#2d263c" stroke-width="6"/>

  <!-- 頭(クリーム顔) -->
  <ellipse cx="180" cy="105" rx="68" ry="60" fill="#f7e2b0" stroke="#2d263c" stroke-width="8"/>

  <!-- 頭の紺の縁取り(上部) -->
  <path d="M118 90 Q120 45 180 40 Q240 45 242 90 Q220 65 180 62 Q140 65 118 90 Z" fill="#2b3a63" stroke="#2d263c" stroke-width="7" stroke-linejoin="round"/>

  <!-- 耳 -->
  <path d="M128 65 Q118 35 140 25 Q145 55 148 72 Z" fill="#2b3a63" stroke="#2d263c" stroke-width="6" stroke-linejoin="round"/>
  <path d="M232 65 Q242 35 220 25 Q215 55 212 72 Z" fill="#2b3a63" stroke="#2d263c" stroke-width="6" stroke-linejoin="round"/>

  <!-- マズル -->
  <ellipse cx="180" cy="128" rx="30" ry="20" fill="#f7e2b0" stroke="#2d263c" stroke-width="6"/>
  <ellipse cx="180" cy="132" rx="9" ry="6" fill="#2d263c"/>

  <!-- 目 -->
  <circle cx="152" cy="100" r="11" fill="#2d263c"/>
  <circle cx="208" cy="100" r="11" fill="#2d263c"/>
  <circle cx="155" cy="96" r="3" fill="#ffffff"/>
  <circle cx="211" cy="96" r="3" fill="#ffffff"/>
</svg>
