<svg xmlns="http://www.w3.org/2000/svg" viewBox="0 0 360 360">
  <g stroke="#2d263c" stroke-width="7" stroke-linejoin="round" stroke-linecap="round">
    <path d="M268,200 C302,194 322,216 316,246 C300,232 284,226 270,228" fill="#9fd8ec"/>
    <path d="M120,210 C115,180 140,166 180,166 C230,166 270,176 275,206 C278,240 250,258 200,258 C150,258 130,240 120,210 Z" fill="#f0f2f5"/>
    <path d="M145,250 C145,275 140,290 140,302 C133,310 126,309 124,303 C124,290 130,275 134,256" fill="#e2e8ee"/>
    <path d="M175,255 C175,280 170,295 170,305 C163,313 156,312 154,306 C154,293 160,278 164,260" fill="#e2e8ee"/>
    <path d="M225,253 C225,278 220,293 220,303 C213,311 206,310 204,304 C204,291 210,276 214,258" fill="#e2e8ee"/>
    <path d="M258,248 C258,273 253,288 253,298 C246,306 239,305 237,299 C237,286 243,271 247,253" fill="#e2e8ee"/>
    <path d="M140,180 C118,158 108,136 120,114 C130,100 148,102 158,114 C162,138 160,166 168,184" fill="#f0f2f5"/>
    <path d="M120,116 C98,114 82,128 86,150 C90,170 110,178 128,170 C140,162 142,138 134,122 C130,114 124,114 120,116 Z" fill="#f0f2f5"/>
    <path d="M150,150 L138,126 L156,138 L148,110 L166,128 L162,102 L180,128 L186,108 L190,134" fill="#9fd8ec"/>
    <path d="M196,150 L202,124 L214,144 L222,124 L222,150" fill="#9fd8ec"/>
    <path d="M230,160 L240,138 L250,160" fill="#9fd8ec"/>
  </g>
  <ellipse cx="108" cy="140" rx="6" ry="8" fill="#e84a4a" stroke="#2d263c" stroke-width="6"/>
  <circle cx="92" cy="150" r="3.5" fill="#2d263c"/>
</svg>
