<svg xmlns="http://www.w3.org/2000/svg" viewBox="0 0 360 360"><g stroke="#2d263c" stroke-width="7" stroke-linejoin="round" stroke-linecap="round"><path d="M132 242 C96 262 54 246 50 212 C28 202 32 160 64 158 C54 126 94 106 118 130 C132 110 166 122 160 152 C174 164 168 190 150 194 L140 240 Z" fill="#FFE08A"/><path d="M72 176 C66 186 66 196 70 204 M104 142 C98 150 96 160 98 168" fill="none" stroke-width="6"/><path d="M150 96 C138 72 124 44 114 26 C140 34 164 54 176 78 Z" fill="#E8602C"/><path d="M212 92 C226 62 244 36 258 26 C263 52 248 78 230 98 Z" fill="#E8602C"/><path d="M147 82 C140 64 132 48 127 39 C142 50 154 63 161 76 Z" fill="#8C4A2F" stroke-width="6"/><path d="M222 84 C232 66 242 50 250 40 C252 56 244 72 232 86 Z" fill="#8C4A2F" stroke-width="6"/><ellipse cx="126" cy="306" rx="16" ry="13" fill="#E8602C"/><ellipse cx="238" cy="304" rx="15" ry="14" fill="#E8602C"/><path d="M134 230 C112 252 110 286 128 302 C160 318 208 316 234 300 C252 282 248 246 228 226 Z" fill="#E8602C"/><path d="M150 294 L146 322 C145 331 162 332 163 322 L164 298 Z" fill="#E8602C"/><path d="M202 296 L200 324 C200 333 216 332 216 322 L214 295 Z" fill="#E8602C"/><path d="M118 222 C100 200 118 182 138 192 C140 176 166 172 176 186 C188 170 214 174 216 190 C238 180 256 198 240 218 C258 226 248 252 224 246 C214 262 186 264 176 250 C160 264 134 258 132 244 C112 250 104 232 118 222 Z" fill="#FFE08A"/><path d="M180 78 C214 74 236 102 232 134 C236 162 208 184 178 182 C148 184 124 160 128 130 C124 100 148 80 180 78 Z" fill="#E8602C"/><path d="M152 84 C142 66 158 54 170 64 C172 46 196 44 201 60 C214 50 230 64 221 80 C229 90 214 102 202 94 C194 104 174 104 168 92 C158 100 147 96 152 84 Z" fill="#FFE08A"/><ellipse cx="158" cy="132" rx="9" ry="12" fill="#2d263c"/><ellipse cx="205" cy="135" rx="10" ry="13" fill="#2d263c"/><circle cx="161" cy="127" r="3" fill="#ffffff" stroke="none"/><circle cx="209" cy="130" r="3.5" fill="#ffffff" stroke="none"/><path d="M175 152 L189 152 L182 161 Z" fill="#2d263c" stroke-width="6"/><path d="M182 161 C180 171 172 173 165 169 M182 161 C184 171 193 173 199 168" fill="none" stroke-width="6"/></g></svg>