<svg xmlns="http://www.w3.org/2000/svg" viewBox="0 0 360 360">

  <!-- 頭の触角(アンコウ風・後ろ) -->
  <path d="M148,66 Q128,50 133,28" fill="none" stroke="#241f36" stroke-width="8" stroke-linecap="round"/>
  <path d="M212,66 Q233,50 227,28" fill="none" stroke="#241f36" stroke-width="8" stroke-linecap="round"/>
  <circle cx="133" cy="26" r="9" fill="#b8302a" stroke="#241f36" stroke-width="5"/>
  <circle cx="227" cy="26" r="9" fill="#b8302a" stroke="#241f36" stroke-width="5"/>

  <!-- クラゲ型の傘(頭・体) -->
  <path d="M68,192
    Q70,120 118,80
    Q148,58 180,58
    Q212,58 242,80
    Q290,120 292,192
    Z"
    fill="#39508c" stroke="#241f36" stroke-width="8" stroke-linejoin="round" stroke-linecap="round"/>

  <!-- ちぎれたマント(触手の裾・ギザギザ) -->
  <path d="M68,192
    L292,192
    L292,232
    L268,322
    L242,252
    L216,322
    L190,250
    L164,322
    L138,252
    L112,322
    L88,232
    Z"
    fill="#2a3a68" stroke="#241f36" stroke-width="7" stroke-linejoin="round" stroke-linecap="round"/>

  <!-- 胸の白いパッチ(核が透けて見える部分) -->
  <ellipse cx="180" cy="180" rx="58" ry="62" fill="#f2f2ec" stroke="#241f36" stroke-width="6"/>

  <!-- 中の核(赤黒い玉) -->
  <circle cx="180" cy="186" r="26" fill="#8f2c22" stroke="#241f36" stroke-width="5"/>
  <circle cx="169" cy="174" r="9" fill="#c85040"/>

  <!-- 左目 -->
  <ellipse cx="140" cy="150" rx="23" ry="27" fill="#ffffff" stroke="#241f36" stroke-width="6"/>
  <circle cx="143" cy="156" r="10" fill="#1a1626"/>
  <circle cx="138" cy="150" r="3" fill="#ffffff"/>

  <!-- 右目 -->
  <ellipse cx="220" cy="150" rx="23" ry="27" fill="#ffffff" stroke="#241f36" stroke-width="6"/>
  <circle cx="223" cy="156" r="10" fill="#1a1626"/>
  <circle cx="218" cy="150" r="3" fill="#ffffff"/>

  <!-- 吊り眉(意地悪な表情) -->
  <path d="M114,120 L156,132" stroke="#241f36" stroke-width="9" stroke-linecap="round"/>
  <path d="M246,120 L204,132" stroke="#241f36" stroke-width="9" stroke-linecap="round"/>

  <!-- ニヤリ口 -->
  <path d="M136,208 Q180,236 224,208 Q180,196 136,208 Z" fill="#1a1626" stroke="#241f36" stroke-width="5" stroke-linejoin="round"/>
  <!-- ギザギザ歯 -->
  <path d="M148,207 L145,220 M164,211 L163,224 M180,213 L180,226 M196,211 L197,224 M212,207 L215,220" stroke="#ffffff" stroke-width="4" stroke-linecap="round" fill="none"/>

</svg>
