<svg xmlns="http://www.w3.org/2000/svg" viewBox="0 0 360 360">
  <rect x="80" y="115" width="200" height="165" rx="34" fill="#a3a3ab" stroke="#2d263c" stroke-width="8" stroke-linejoin="round"/>
  <rect x="100" y="126" width="160" height="46" rx="18" fill="#c3c3cc"/>
  <rect x="96" y="74" width="26" height="46" rx="10" fill="#6b7563" stroke="#2d263c" stroke-width="6" stroke-linejoin="round"/>
  <rect x="238" y="74" width="26" height="46" rx="10" fill="#6b7563" stroke="#2d263c" stroke-width="6" stroke-linejoin="round"/>
  <ellipse cx="140" cy="170" rx="15" ry="19" fill="#2d263c" stroke="#2d263c" stroke-width="6" stroke-linejoin="round"/>
  <ellipse cx="220" cy="170" rx="15" ry="19" fill="#2d263c" stroke="#2d263c" stroke-width="6" stroke-linejoin="round"/>
  <circle cx="145" cy="163" r="5" fill="#ffffff"/>
  <circle cx="225" cy="163" r="5" fill="#ffffff"/>
  <path d="M180,200 Q150,195 135,205 Q120,213 128,228 Q138,222 150,215 Q165,210 180,212 Z" fill="#5c6a4a" stroke="#2d263c" stroke-width="7" stroke-linejoin="round"/>
  <path d="M180,200 Q210,195 225,205 Q240,213 232,228 Q222,222 210,215 Q195,210 180,212 Z" fill="#5c6a4a" stroke="#2d263c" stroke-width="7" stroke-linejoin="round"/>
  <line x1="165" y1="235" x2="165" y2="255" stroke="#2d263c" stroke-width="8" stroke-linecap="round"/>
  <line x1="180" y1="235" x2="180" y2="258" stroke="#2d263c" stroke-width="8" stroke-linecap="round"/>
  <line x1="195" y1="235" x2="195" y2="255" stroke="#2d263c" stroke-width="8" stroke-linecap="round"/>
  <circle cx="135" cy="280" r="38" fill="#2d263c" stroke="#2d263c" stroke-width="6" stroke-linejoin="round"/>
  <circle cx="135" cy="280" r="15" fill="#c7c7cf" stroke="#2d263c" stroke-width="6"/>
  <circle cx="245" cy="280" r="38" fill="#2d263c" stroke="#2d263c" stroke-width="6" stroke-linejoin="round"/>
  <circle cx="245" cy="280" r="15" fill="#c7c7cf" stroke="#2d263c" stroke-width="6"/>
  <circle cx="100" cy="132" r="7" fill="#7d7d85" stroke="#2d263c" stroke-width="5"/>
  <circle cx="260" cy="132" r="7" fill="#7d7d85" stroke="#2d263c" stroke-width="5"/>
  <circle cx="85" cy="200" r="7" fill="#7d7d85" stroke="#2d263c" stroke-width="5"/>
  <circle cx="275" cy="200" r="7" fill="#7d7d85" stroke="#2d263c" stroke-width="5"/>
  <line x1="83" y1="245" x2="100" y2="245" stroke="#2d263c" stroke-width="6" stroke-linecap="round"/>
  <line x1="260" y1="245" x2="277" y2="245" stroke="#2d263c" stroke-width="6" stroke-linecap="round"/>
</svg>
