<svg xmlns="http://www.w3.org/2000/svg" viewBox="0 0 360 360">
  <ellipse cx="180" cy="336" rx="118" ry="16" fill="#1a1428" opacity="0.22"/>
  <path d="M180 24 Q140 30 108 56 Q58 72 48 122 Q92 104 132 108 Q158 98 180 100 Q202 98 228 108 Q268 104 312 122 Q302 72 252 56 Q220 30 180 24 Z"
    fill="#f7b9d3" stroke="#2d263c" stroke-width="8" stroke-linejoin="round"/>
  <path d="M150 58 Q180 46 210 58 Q206 82 180 84 Q154 82 150 58 Z"
    fill="#e991ba" stroke="#2d263c" stroke-width="5" stroke-linejoin="round"/>
  <ellipse cx="180" cy="152" rx="58" ry="62" fill="#fbf3e4" stroke="#2d263c" stroke-width="6"/>
  <path d="M112 112 Q88 182 100 262 Q106 302 132 332 Q144 292 126 244 Q118 172 142 122 Z"
    fill="#c14f8c" stroke="#2d263c" stroke-width="7" stroke-linejoin="round"/>
  <path d="M248 112 Q272 182 260 262 Q254 302 228 332 Q216 292 234 244 Q242 172 218 122 Z"
    fill="#c14f8c" stroke="#2d263c" stroke-width="7" stroke-linejoin="round"/>
  <path d="M180 98 Q174 180 180 262 Q183 300 177 322" fill="none" stroke="#c14f8c" stroke-width="10" stroke-linecap="round"/>
  <circle cx="152" cy="166" r="15" fill="#e2213c" stroke="#2d263c" stroke-width="5"/>
  <circle cx="210" cy="166" r="15" fill="#e2213c" stroke="#2d263c" stroke-width="5"/>
  <circle cx="149" cy="161" r="4" fill="#fdf3e4"/>
  <circle cx="207" cy="161" r="4" fill="#fdf3e4"/>
  <path d="M163 196 Q180 208 197 196" fill="none" stroke="#2d263c" stroke-width="5" stroke-linecap="round"/>
  <path d="M108 226 Q86 268 78 312 Q124 336 180 338 Q236 336 282 312 Q274 268 252 226 Q220 246 180 246 Q140 246 108 226 Z"
    fill="#fbf3e4" stroke="#2d263c" stroke-width="7" stroke-linejoin="round"/>
  <path d="M126 262 Q180 282 234 262" fill="none" stroke="#f0d9c0" stroke-width="6" stroke-linecap="round"/>
  <path d="M96 202 Q74 210 66 232 Q90 226 104 214 Z" fill="#c14f8c" stroke="#2d263c" stroke-width="6" stroke-linejoin="round"/>
  <path d="M264 202 Q286 210 294 232 Q270 226 256 214 Z" fill="#c14f8c" stroke="#2d263c" stroke-width="6" stroke-linejoin="round"/>
  <path d="M95 300 Q118 320 145 328" fill="none" stroke="#2d263c" stroke-width="5" stroke-linecap="round"/>
  <path d="M265 300 Q242 320 215 328" fill="none" stroke="#2d263c" stroke-width="5" stroke-linecap="round"/>
  <path d="M180 20 L186 32 L198 30 L188 40 L192 52 L180 44 L168 52 L172 40 L162 30 L174 32 Z"
    fill="#fdf3e4" stroke="#e2213c" stroke-width="3" stroke-linejoin="round"/>
  <path d="M46 150 L52 160 L62 158 L55 166 L58 176 L48 170 L40 176 L43 166 L34 158 L44 160 Z"
    fill="#fdf3e4" stroke="#e2213c" stroke-width="3" stroke-linejoin="round"/>
  <path d="M314 150 L320 160 L330 158 L323 166 L326 176 L316 170 L308 176 L311 166 L302 158 L312 160 Z"
    fill="#fdf3e4" stroke="#e2213c" stroke-width="3" stroke-linejoin="round"/>
</svg>
