<svg xmlns="http://www.w3.org/2000/svg" viewBox="0 0 360 360">
  <!-- しっぽ(後ろ) -->
  <path d="M 248 220 C 280 200 310 195 320 210 C 332 228 318 255 300 260 C 278 268 255 255 245 240 C 235 225 240 215 248 220 Z" fill="#F5A623" stroke="#2d263c" stroke-width="7" stroke-linejoin="round"/>
  <path d="M 248 220 C 265 198 295 180 315 185 C 330 190 335 205 325 215 C 310 200 288 202 268 215 Z" fill="#F7C04A" stroke="#2d263c" stroke-width="5" stroke-linejoin="round"/>
  <path d="M 252 225 C 272 205 305 190 318 198 C 328 208 320 225 305 232 C 285 240 260 238 252 225 Z" fill="#F9D060" stroke="none"/>

  <!-- 後ろ足(左奥) -->
  <ellipse cx="230" cy="285" rx="22" ry="16" fill="#E8650A" stroke="#2d263c" stroke-width="7"/>
  <ellipse cx="230" cy="298" rx="18" ry="10" fill="#F7801C" stroke="#2d263c" stroke-width="6"/>

  <!-- 体 -->
  <ellipse cx="185" cy="230" rx="72" ry="62" fill="#F7801C" stroke="#2d263c" stroke-width="8" stroke-linejoin="round"/>

  <!-- 腹の白クリーム -->
  <ellipse cx="178" cy="242" rx="40" ry="35" fill="#FFF0CB" stroke="#2d263c" stroke-width="5"/>

  <!-- 前足(右) -->
  <path d="M 218 268 C 228 265 240 270 242 280 C 244 292 234 302 222 302 C 210 302 204 292 206 280 C 208 270 212 268 218 268 Z" fill="#F7801C" stroke="#2d263c" stroke-width="7" stroke-linejoin="round"/>

  <!-- 前足(左) -->
  <path d="M 145 268 C 155 265 167 270 169 280 C 171 292 161 302 149 302 C 137 302 131 292 133 280 C 135 270 139 268 145 268 Z" fill="#F7801C" stroke="#2d263c" stroke-width="7" stroke-linejoin="round"/>

  <!-- 首のたてがみ下部 -->
  <path d="M 150 175 C 145 162 148 148 155 143 C 162 138 172 140 178 148 C 184 140 196 137 204 143 C 212 150 212 166 206 176 Z" fill="#F7C955" stroke="#2d263c" stroke-width="6" stroke-linejoin="round"/>

  <!-- 頭 -->
  <ellipse cx="178" cy="165" rx="55" ry="50" fill="#F7801C" stroke="#2d263c" stroke-width="8"/>

  <!-- 耳(左) -->
  <path d="M 135 138 C 122 115 118 88 128 78 C 138 68 152 75 155 95 C 158 110 152 132 145 142 Z" fill="#F7801C" stroke="#2d263c" stroke-width="7" stroke-linejoin="round"/>
  <path d="M 136 134 C 126 114 124 92 132 84 C 136 80 143 84 145 98 C 147 111 143 130 138 138 Z" fill="#F5A040" stroke="none"/>

  <!-- 耳(右) -->
  <path d="M 218 140 C 225 120 230 95 222 80 C 214 65 200 70 197 90 C 194 108 200 130 210 142 Z" fill="#F7801C" stroke="#2d263c" stroke-width="7" stroke-linejoin="round"/>
  <path d="M 217 136 C 222 118 226 96 219 84 C 215 77 207 80 205 95 C 203 110 207 130 215 138 Z" fill="#F5A040" stroke="none"/>

  <!-- 頭頂たてがみ炎(後ろ層) -->
  <path d="M 148 118 C 140 100 142 75 152 65 C 158 58 167 62 170 75 C 172 60 178 50 185 52 C 192 54 194 68 192 80 C 196 65 204 58 210 62 C 218 68 216 90 208 108 Z" fill="#F9D060" stroke="#2d263c" stroke-width="6" stroke-linejoin="round"/>

  <!-- 頭頂たてがみ炎(前層) -->
  <path d="M 155 122 C 148 104 150 80 160 70 C 165 65 173 68 174 82 C 177 68 183 60 189 63 C 195 67 195 84 190 98 C 195 82 203 76 208 82 C 212 90 208 110 200 120 Z" fill="#FFF0A0" stroke="#2d263c" stroke-width="5" stroke-linejoin="round"/>

  <!-- 顔: 目(左) -->
  <ellipse cx="162" cy="166" rx="12" ry="13" fill="#1a1020" stroke="#2d263c" stroke-width="4"/>
  <ellipse cx="159" cy="162" rx="4" ry="4" fill="white"/>

  <!-- 顔: 目(右) -->
  <ellipse cx="196" cy="164" rx="11" ry="13" fill="#1a1020" stroke="#2d263c" stroke-width="4"/>
  <ellipse cx="193" cy="160" rx="4" ry="4" fill="white"/>

  <!-- 鼻 -->
  <ellipse cx="179" cy="178" rx="7" ry="5" fill="#cc4400" stroke="#2d263c" stroke-width="4"/>

  <!-- 口(ちょっとドヤ顔) -->
  <path d="M 168 188 C 172 196 186 197 191 188" fill="none" stroke="#2d263c" stroke-width="5" stroke-linecap="round"/>

  <!-- ほっぺのあかみ -->
  <ellipse cx="150" cy="180" rx="11" ry="7" fill="#F28B3A" opacity="0.5"/>
  <ellipse cx="207" cy="178" rx="11" ry="7" fill="#F28B3A" opacity="0.5"/>
</svg>