<svg xmlns="http://www.w3.org/2000/svg" viewBox="0 0 360 360">
  <path d="M255,255 C240,225 250,185 292,168 C320,195 315,235 288,258 C275,262 262,262 255,255 Z" fill="#FFD23F" stroke="#2d263c" stroke-width="7" stroke-linejoin="round" stroke-linecap="round"/>
  <path d="M262,248 C252,222 262,195 292,182 C310,202 305,228 285,248 C275,252 266,252 262,248 Z" fill="#FF7A1A" stroke="#2d263c" stroke-width="4" stroke-linejoin="round" stroke-linecap="round"/>
  <path d="M220,225 C240,225 250,230 258,238 L250,255 C238,245 225,240 215,245 Z" fill="#D9601A" stroke="#2d263c" stroke-width="7" stroke-linejoin="round" stroke-linecap="round"/>
  <path d="M155,290 L150,325 L165,325 L168,292 Z" fill="#F0801E" stroke="#2d263c" stroke-width="7" stroke-linejoin="round" stroke-linecap="round"/>
  <path d="M195,292 L198,325 L213,325 L208,290 Z" fill="#F0801E" stroke="#2d263c" stroke-width="7" stroke-linejoin="round" stroke-linecap="round"/>
  <path d="M150,325 L145,338 L156,328 Z M158,326 L158,340 L163,328 Z M165,325 L170,338 L160,329 Z" fill="#D9601A" stroke="#2d263c" stroke-width="5" stroke-linejoin="round" stroke-linecap="round"/>
  <path d="M198,326 L193,338 L204,328 Z M206,326 L206,340 L211,328 Z M213,325 L219,337 L209,329 Z" fill="#D9601A" stroke="#2d263c" stroke-width="5" stroke-linejoin="round" stroke-linecap="round"/>
  <ellipse cx="178" cy="235" rx="62" ry="72" fill="#F0801E" stroke="#2d263c" stroke-width="8"/>
  <ellipse cx="178" cy="250" rx="36" ry="48" fill="#FCC24C" stroke="#2d263c" stroke-width="6"/>
  <path d="M160,210 L196,210 L178,232 Z" fill="#C1392B"/>
  <path d="M158,240 L198,240 L178,264 Z" fill="#C1392B"/>
  <path d="M160,270 L196,270 L178,292 Z" fill="#C1392B"/>
  <path d="M135,200 C110,205 95,215 90,235 C88,242 92,248 100,248 C108,235 122,220 140,212 Z" fill="#F0801E" stroke="#2d263c" stroke-width="7" stroke-linejoin="round" stroke-linecap="round"/>
  <path d="M220,200 C245,205 258,215 262,232 C264,240 260,246 252,246 C246,232 233,218 215,210 Z" fill="#F0801E" stroke="#2d263c" stroke-width="7" stroke-linejoin="round" stroke-linecap="round"/>
  <path d="M85,238 L76,230 M90,246 L80,242 M96,249 L88,254" fill="none" stroke="#2d263c" stroke-width="5" stroke-linecap="round"/>
  <path d="M257,232 L266,224 M252,242 L262,238 M246,246 L254,251" fill="none" stroke="#2d263c" stroke-width="5" stroke-linecap="round"/>
  <path d="M155,150 L195,150 L200,185 L150,185 Z" fill="#F0801E" stroke="#2d263c" stroke-width="7" stroke-linejoin="round"/>
  <circle cx="175" cy="105" r="50" fill="#F0801E" stroke="#2d263c" stroke-width="8"/>
  <path d="M145,65 L160,95 L128,90 Z" fill="#D9601A" stroke="#2d263c" stroke-width="6" stroke-linejoin="round"/>
  <path d="M175,48 L192,88 L158,88 Z" fill="#D9601A" stroke="#2d263c" stroke-width="6" stroke-linejoin="round"/>
  <path d="M205,65 L222,90 L190,95 Z" fill="#D9601A" stroke="#2d263c" stroke-width="6" stroke-linejoin="round"/>
  <path d="M178,118 C205,112 225,120 228,132 C210,138 190,136 178,128 Z" fill="#B23A2E" stroke="#2d263c" stroke-width="7" stroke-linejoin="round"/>
  <path d="M180,132 C202,130 220,138 222,148 C205,152 188,148 180,140 Z" fill="#8E2B22" stroke="#2d263c" stroke-width="7" stroke-linejoin="round"/>
  <circle cx="150" cy="100" r="17" fill="#FFFFFF" stroke="#2d263c" stroke-width="6"/>
  <circle cx="200" cy="102" r="17" fill="#FFFFFF" stroke="#2d263c" stroke-width="6"/>
  <circle cx="154" cy="102" r="8" fill="#2d263c"/>
  <circle cx="204" cy="104" r="8" fill="#2d263c"/>
</svg>
