<svg xmlns="http://www.w3.org/2000/svg" viewBox="0 0 360 360">
<g stroke="#2d263c" stroke-width="7" stroke-linejoin="round" stroke-linecap="round">
<ellipse cx="170" cy="326" rx="80" ry="7" fill="#000000" opacity="0.15" stroke="none"/>
<path d="M240 250 q40 4 50 -20 q-22 6 -34 -2Z" fill="#2E4FA0"/>
<ellipse cx="170" cy="222" rx="74" ry="76" fill="#3B6FC4"/>
<ellipse cx="170" cy="240" rx="40" ry="52" fill="#9FCBEF" stroke="none"/>
<path d="M120 200 q-26 18 -20 50 q24 -8 34 -30Z" fill="#2E4FA0"/>
<circle cx="160" cy="130" r="50" fill="#3B6FC4"/>
<path d="M158 96 q-16 -46 6 -70 q4 30 12 56Z" fill="#2E4FA0"/>
<path d="M170 92 q4 -50 30 -64 q-2 32 -12 60Z" fill="#2E4FA0"/>
<path d="M148 98 q-24 -32 -6 -58 q10 28 16 50Z" fill="#2E4FA0"/>
<path d="M116 138 q-22 -4 -26 10 q10 10 24 6Z" fill="#E8622A"/>
<path d="M150 296 q-2 16 6 22" fill="none" stroke="#E8A23A" stroke-width="7"/>
<path d="M186 296 q2 16 -6 22" fill="none" stroke="#E8A23A" stroke-width="7"/>
<path d="M138 316 q12 6 22 0" fill="none" stroke="#E8A23A" stroke-width="7"/>
<path d="M170 316 q12 6 22 0" fill="none" stroke="#E8A23A" stroke-width="7"/>
<circle cx="156" cy="128" r="9" fill="#fff"/>
<circle cx="158" cy="130" r="4.5" fill="#2d263c" stroke="none"/>
</g>
</svg>
