<svg xmlns="http://www.w3.org/2000/svg" viewBox="0 0 360 360">
  <path d="M138,118 L127,60 L166,102 Z" fill="#FFB3D1" stroke="#2d263c" stroke-width="7" stroke-linejoin="round"/>
  <path d="M222,118 L233,60 L194,102 Z" fill="#FFB3D1" stroke="#2d263c" stroke-width="7" stroke-linejoin="round"/>
  <ellipse cx="180" cy="205" rx="106" ry="100" fill="#FFB3D1" stroke="#2d263c" stroke-width="8"/>
  <ellipse cx="180" cy="252" rx="52" ry="38" fill="#FFD9EC" opacity="0.6"/>
  <ellipse cx="90" cy="228" rx="30" ry="21" fill="#FFB3D1" stroke="#2d263c" stroke-width="7"/>
  <ellipse cx="270" cy="228" rx="30" ry="21" fill="#FFB3D1" stroke="#2d263c" stroke-width="7"/>
  <ellipse cx="138" cy="300" rx="27" ry="18" fill="#FFB3D1" stroke="#2d263c" stroke-width="7"/>
  <ellipse cx="222" cy="300" rx="27" ry="18" fill="#FFB3D1" stroke="#2d263c" stroke-width="7"/>
  <path d="M181,102 C170,82 176,54 197,59 C214,63 208,86 191,79" fill="none" stroke="#2d263c" stroke-width="7" stroke-linecap="round"/>
  <circle cx="144" cy="192" r="27" fill="#FFFFFF" stroke="#2d263c" stroke-width="6"/>
  <circle cx="216" cy="192" r="27" fill="#FFFFFF" stroke="#2d263c" stroke-width="6"/>
  <circle cx="149" cy="198" r="14" fill="#3B5C9E"/>
  <circle cx="211" cy="198" r="14" fill="#3B5C9E"/>
  <circle cx="142" cy="188" r="5" fill="#FFFFFF"/>
  <circle cx="204" cy="188" r="5" fill="#FFFFFF"/>
  <ellipse cx="115" cy="220" rx="13" ry="9" fill="#FF8FBF" opacity="0.75"/>
  <ellipse cx="245" cy="220" rx="13" ry="9" fill="#FF8FBF" opacity="0.75"/>
  <path d="M163,232 Q180,244 197,232" fill="none" stroke="#2d263c" stroke-width="7" stroke-linecap="round"/>
</svg>
