<svg xmlns="http://www.w3.org/2000/svg" viewBox="0 0 360 360">
  <ellipse cx="120" cy="255" rx="26" ry="34" fill="#5b8fae" stroke="#2d263c" stroke-width="7" stroke-linejoin="round"/>
  <ellipse cx="240" cy="255" rx="26" ry="34" fill="#5b8fae" stroke="#2d263c" stroke-width="7" stroke-linejoin="round"/>
  <ellipse cx="128" cy="150" rx="22" ry="30" fill="#5b8fae" stroke="#2d263c" stroke-width="7" stroke-linejoin="round"/>
  <ellipse cx="232" cy="150" rx="22" ry="30" fill="#5b8fae" stroke="#2d263c" stroke-width="7" stroke-linejoin="round"/>
  <ellipse cx="180" cy="230" rx="100" ry="70" fill="#6fa2c2" stroke="#2d263c" stroke-width="8" stroke-linejoin="round"/>
  <path d="M85 210 Q180 90 275 210 Q290 260 180 270 Q70 260 85 210 Z" fill="#233a63" stroke="#2d263c" stroke-width="8" stroke-linejoin="round" stroke-linecap="round"/>
  <path d="M130 175 Q180 210 230 175" fill="none" stroke="#7fb8dc" stroke-width="7" stroke-linecap="round"/>
  <path d="M115 205 Q180 245 245 205" fill="none" stroke="#7fb8dc" stroke-width="7" stroke-linecap="round"/>
  <path d="M105 235 Q180 265 255 235" fill="none" stroke="#7fb8dc" stroke-width="6" stroke-linecap="round"/>
  <path d="M180 130 L180 150" stroke="#7fb8dc" stroke-width="6" stroke-linecap="round"/>
  <ellipse cx="180" cy="150" rx="55" ry="52" fill="#d98a3d" stroke="#2d263c" stroke-width="8" stroke-linejoin="round"/>
  <ellipse cx="180" cy="182" rx="34" ry="20" fill="#f4e2c0" stroke="#2d263c" stroke-width="6" stroke-linejoin="round"/>
  <path d="M158 186 Q180 198 202 186" fill="none" stroke="#2d263c" stroke-width="6" stroke-linecap="round"/>
  <circle cx="158" cy="138" r="12" fill="#241f2e" stroke="#2d263c" stroke-width="6"/>
  <circle cx="202" cy="138" r="12" fill="#241f2e" stroke="#2d263c" stroke-width="6"/>
  <circle cx="162" cy="133" r="3" fill="#ffffff"/>
  <circle cx="206" cy="133" r="3" fill="#ffffff"/>
  <ellipse cx="140" cy="158" rx="8" ry="6" fill="#e0503a" stroke="#2d263c" stroke-width="4"/>
  <ellipse cx="220" cy="158" rx="8" ry="6" fill="#e0503a" stroke="#2d263c" stroke-width="4"/>
</svg>
