<svg xmlns="http://www.w3.org/2000/svg" viewBox="0 0 360 360">
  <!-- 左翼(奥) -->
  <path d="M 80 170 Q 30 90 20 40 Q 50 80 70 100 Q 40 60 55 30 Q 80 70 90 110 Q 75 55 95 35 Q 105 80 100 130 Q 120 75 130 55 Q 130 110 120 150 Z" fill="#7a8fa0" stroke="#2d263c" stroke-width="7" stroke-linejoin="round" stroke-linecap="round"/>
  <!-- 右翼(奥) -->
  <path d="M 280 170 Q 330 90 340 40 Q 310 80 290 100 Q 320 60 305 30 Q 280 70 270 110 Q 285 55 265 35 Q 255 80 260 130 Q 240 75 230 55 Q 230 110 240 150 Z" fill="#7a8fa0" stroke="#2d263c" stroke-width="7" stroke-linejoin="round" stroke-linecap="round"/>
  <!-- しっぽ -->
  <path d="M 155 255 Q 148 290 140 310 Q 160 295 172 285 Q 168 300 175 320 Q 182 298 185 282 Q 192 295 205 310 Q 195 292 200 278 Q 210 282 220 265 Q 195 268 180 260 Z" fill="#5d7282" stroke="#2d263c" stroke-width="6" stroke-linejoin="round" stroke-linecap="round"/>
  <!-- 胴体 -->
  <ellipse cx="180" cy="215" rx="55" ry="50" fill="#8fa8bc" stroke="#2d263c" stroke-width="8" stroke-linejoin="round"/>
  <!-- 腹部(明るい) -->
  <ellipse cx="180" cy="225" rx="35" ry="32" fill="#b8cdd8" stroke="none"/>
  <!-- 左翼付け根〜体 -->
  <path d="M 110 150 Q 95 180 95 210 Q 110 230 135 235 Q 150 240 165 238" fill="#7a8fa0" stroke="#2d263c" stroke-width="7" stroke-linejoin="round" stroke-linecap="round"/>
  <!-- 右翼付け根〜体 -->
  <path d="M 250 150 Q 265 180 265 210 Q 250 230 225 235 Q 210 240 195 238" fill="#7a8fa0" stroke="#2d263c" stroke-width="7" stroke-linejoin="round" stroke-linecap="round"/>
  <!-- 首 -->
  <path d="M 163 192 Q 158 175 160 158 Q 165 148 175 142 Q 185 138 190 148 Q 196 158 194 175 Q 192 188 185 195" fill="#8fa8bc" stroke="#2d263c" stroke-width="7" stroke-linejoin="round" stroke-linecap="round"/>
  <!-- 頭 -->
  <ellipse cx="177" cy="140" rx="32" ry="26" fill="#8fa8bc" stroke="#2d263c" stroke-width="8"/>
  <!-- 後頭部クレスト(菱形の冠) -->
  <path d="M 192 125 Q 215 105 232 88 Q 222 112 220 128 Q 210 118 200 122 Z" fill="#6a7f8e" stroke="#2d263c" stroke-width="6" stroke-linejoin="round"/>
  <!-- くちばし上 -->
  <path d="M 150 145 Q 130 142 112 148 Q 118 155 135 158 Q 145 160 155 157 Z" fill="#8fa8bc" stroke="#2d263c" stroke-width="6" stroke-linejoin="round" stroke-linecap="round"/>
  <!-- くちばし下(あご) -->
  <path d="M 150 150 Q 130 150 115 158 Q 122 165 140 165 Q 150 164 158 160 Z" fill="#7a9aac" stroke="#2d263c" stroke-width="6" stroke-linejoin="round" stroke-linecap="round"/>
  <!-- 牙(上) -->
  <path d="M 130 152 L 125 162 L 133 158 Z" fill="#f0f0e0" stroke="#2d263c" stroke-width="3" stroke-linejoin="round"/>
  <path d="M 140 150 L 136 162 L 144 158 Z" fill="#f0f0e0" stroke="#2d263c" stroke-width="3" stroke-linejoin="round"/>
  <!-- 目(赤・つり上がり) -->
  <ellipse cx="164" cy="135" rx="10" ry="8" fill="#cc2020" stroke="#2d263c" stroke-width="4"/>
  <ellipse cx="164" cy="134" rx="5" ry="4" fill="#880000"/>
  <path d="M 155 130 Q 162 126 173 129" fill="none" stroke="#2d263c" stroke-width="4" stroke-linecap="round"/>
  <!-- 白目ハイライト -->
  <circle cx="167" cy="133" r="2.5" fill="white" opacity="0.7"/>
  <!-- 左足 -->
  <path d="M 158 258 Q 152 272 148 285 M 148 285 L 140 292 M 148 285 L 148 295 M 148 285 L 156 291" fill="none" stroke="#2d263c" stroke-width="6" stroke-linecap="round"/>
  <!-- 右足 -->
  <path d="M 200 258 Q 206 272 210 285 M 210 285 L 202 292 M 210 285 L 210 295 M 210 285 L 218 291" fill="none" stroke="#2d263c" stroke-width="6" stroke-linecap="round"/>
  <!-- 翼の爪(左) -->
  <path d="M 68 108 Q 60 100 55 92" fill="none" stroke="#2d263c" stroke-width="5" stroke-linecap="round"/>
  <!-- 翼の爪(右) -->
  <path d="M 292 108 Q 300 100 305 92" fill="none" stroke="#2d263c" stroke-width="5" stroke-linecap="round"/>
  <!-- 体の模様(腹の線) -->
  <path d="M 168 205 Q 180 200 192 205" fill="none" stroke="#9fbdcc" stroke-width="3" stroke-linecap="round"/>
  <path d="M 165 215 Q 180 210 195 215" fill="none" stroke="#9fbdcc" stroke-width="3" stroke-linecap="round"/>
</svg>