<svg xmlns="http://www.w3.org/2000/svg" viewBox="0 0 360 360">
<path d="M120,125 C95,95 70,60 62,40 C90,55 118,88 142,120 Z" fill="#FFD500" stroke="#2d263c" stroke-width="7" stroke-linejoin="round" stroke-linecap="round"/>
<ellipse cx="64" cy="42" rx="15" ry="17" fill="#221c2c" stroke="#2d263c" stroke-width="6" stroke-linejoin="round"/>
<path d="M240,125 C265,95 290,60 298,40 C270,55 242,88 218,120 Z" fill="#FFD500" stroke="#2d263c" stroke-width="7" stroke-linejoin="round" stroke-linecap="round"/>
<ellipse cx="296" cy="42" rx="15" ry="17" fill="#221c2c" stroke="#2d263c" stroke-width="6" stroke-linejoin="round"/>
<polygon points="278,222 288,240 310,242 292,256 297,278 278,266 259,278 264,256 246,242 268,240" fill="#EE3B33" stroke="#2d263c" stroke-width="6" stroke-linejoin="round"/>
<path d="M100,150 C100,90 260,90 260,150 C270,190 270,260 240,290 C210,320 150,320 120,290 C90,260 90,190 100,150 Z" fill="#FFD500" stroke="#2d263c" stroke-width="8" stroke-linejoin="round" stroke-linecap="round"/>
<ellipse cx="95" cy="205" rx="24" ry="32" transform="rotate(-18 95 205)" fill="#FFD500" stroke="#2d263c" stroke-width="7" stroke-linejoin="round"/>
<ellipse cx="265" cy="205" rx="24" ry="32" transform="rotate(18 265 205)" fill="#FFD500" stroke="#2d263c" stroke-width="7" stroke-linejoin="round"/>
<ellipse cx="140" cy="302" rx="28" ry="20" fill="#FFD500" stroke="#2d263c" stroke-width="7" stroke-linejoin="round"/>
<ellipse cx="220" cy="302" rx="28" ry="20" fill="#FFD500" stroke="#2d263c" stroke-width="7" stroke-linejoin="round"/>
<ellipse cx="180" cy="235" rx="55" ry="65" fill="#FFF2AE" stroke="none"/>
<polygon points="111,198 125,198 125,208 135,208 135,222 125,222 125,232 111,232 111,222 101,222 101,208 111,208" fill="#EE3B33" stroke="#2d263c" stroke-width="6" stroke-linejoin="round"/>
<polygon points="235,198 249,198 249,208 259,208 259,222 249,222 249,232 235,232 235,222 225,222 225,208 235,208" fill="#EE3B33" stroke="#2d263c" stroke-width="6" stroke-linejoin="round"/>
<polygon points="170,247 190,247 190,260 205,260 205,280 190,280 190,297 170,297 170,280 155,280 155,260 170,260" fill="#EE3B33" stroke="#2d263c" stroke-width="7" stroke-linejoin="round"/>
<circle cx="148" cy="180" r="15" fill="#221c2c" stroke="#2d263c" stroke-width="6"/>
<circle cx="212" cy="180" r="15" fill="#221c2c" stroke="#2d263c" stroke-width="6"/>
<circle cx="153" cy="174" r="4.5" fill="#ffffff"/>
<circle cx="217" cy="174" r="4.5" fill="#ffffff"/>
<path d="M164,214 Q180,226 196,214" fill="none" stroke="#2d263c" stroke-width="7" stroke-linecap="round"/>
<circle cx="128" cy="203" r="10" fill="#ff9fae" opacity="0.55"/>
<circle cx="232" cy="203" r="10" fill="#ff9fae" opacity="0.55"/>
</svg>
