<svg xmlns="http://www.w3.org/2000/svg" viewBox="0 0 360 360"><path d="M150 182 Q110 115 36 78 Q58 128 76 158 Q94 144 112 184 Q132 166 150 206 Z" fill="#9b8cb4" stroke="#2d263c" stroke-width="7" stroke-linejoin="round" stroke-linecap="round"/><path d="M210 182 Q250 115 322 84 Q302 130 284 158 Q266 144 248 184 Q228 166 210 206 Z" fill="#9b8cb4" stroke="#2d263c" stroke-width="7" stroke-linejoin="round" stroke-linecap="round"/><path d="M40 80 Q30 70 32 58" fill="none" stroke="#2d263c" stroke-width="6" stroke-linecap="round"/><path d="M318 86 Q328 74 326 62" fill="none" stroke="#2d263c" stroke-width="6" stroke-linecap="round"/><path d="M204 52 L244 24 L222 64 Z" fill="#8f80ab" stroke="#2d263c" stroke-width="7" stroke-linejoin="round"/><path d="M194 248 Q232 276 250 310" fill="none" stroke="#2d263c" stroke-width="20" stroke-linecap="round"/><path d="M194 248 Q232 276 250 310" fill="none" stroke="#b3a6c9" stroke-width="8" stroke-linecap="round"/><path d="M232 302 L276 296 L254 336 Z" fill="#b3a6c9" stroke="#2d263c" stroke-width="7" stroke-linejoin="round"/><path d="M158 256 q-10 26 -8 40 l7 -6 l4 10 l6 -9 l7 7 q2 -22 -2 -42 z" fill="#b3a6c9" stroke="#2d263c" stroke-width="6" stroke-linejoin="round"/><path d="M202 256 q10 26 8 40 l-7 -6 l-4 10 l-6 -9 l-7 7 q-2 -22 2 -42 z" fill="#b3a6c9" stroke="#2d263c" stroke-width="6" stroke-linejoin="round"/><path d="M152 138 Q130 200 146 250 Q164 274 188 272 Q216 268 224 238 Q236 192 212 138 Z" fill="#b3a6c9" stroke="#2d263c" stroke-width="7" stroke-linejoin="round"/><ellipse cx="184" cy="220" rx="24" ry="32" fill="#d4cae1" stroke="#2d263c" stroke-width="5"/><path d="M128 112 Q118 70 148 56 L138 32 L164 50 Q180 42 198 48 L224 30 L212 56 Q244 74 234 114 Q228 142 182 148 Q134 142 128 112 Z" fill="#b3a6c9" stroke="#2d263c" stroke-width="7" stroke-linejoin="round" stroke-linecap="round"/><path d="M136 112 Q180 132 228 110 Q226 144 182 152 Q140 144 136 112 Z" fill="#5b3b63" stroke="#2d263c" stroke-width="7" stroke-linejoin="round"/><path d="M139 114 L151 132 L161 123 L173 137 L183 125 L196 136 L207 121 L218 130 L225 112 Q180 133 139 114 Z" fill="#ffffff" stroke="#2d263c" stroke-width="4" stroke-linejoin="round"/><path d="M172 104 l3 5 M190 103 l3 5" fill="none" stroke="#2d263c" stroke-width="4" stroke-linecap="round"/><ellipse cx="157" cy="92" rx="11" ry="9.5" fill="#ffffff" stroke="#2d263c" stroke-width="5"/><circle cx="159.5" cy="93" r="4.2" fill="#2d263c"/><ellipse cx="205" cy="89" rx="12" ry="10" fill="#ffffff" stroke="#2d263c" stroke-width="5"/><circle cx="202" cy="91" r="4.5" fill="#2d263c"/><path d="M141 80 L171 89" fill="none" stroke="#2d263c" stroke-width="6" stroke-linecap="round"/><path d="M221 76 L191 86" fill="none" stroke="#2d263c" stroke-width="6" stroke-linecap="round"/></svg>