<svg xmlns="http://www.w3.org/2000/svg" viewBox="0 0 360 360">
  <g stroke="#2d263c" stroke-width="7" stroke-linejoin="round" stroke-linecap="round">
    <path d="M250,200 C295,192 316,152 304,110" fill="none"/>
    <polygon points="288,112 322,90 314,132" fill="#3a3540" stroke-width="6"/>
    <path d="M114,94 C112,52 146,28 186,33 C156,42 134,62 132,96 Z" fill="#ece1cc"/>
    <path d="M136,90 C144,52 182,35 224,49 C194,51 168,64 158,93 Z" fill="#ece1cc"/>
    <path d="M236,232 C232,268 232,294 234,314 L262,315 C260,294 262,264 266,238 Z" fill="#322d39"/>
    <path d="M204,242 C202,272 201,294 202,313 L228,314 C227,294 229,268 232,246 Z" fill="#3a3540"/>
    <path d="M231,292 L265,293 L264,309 L230,307 Z" fill="#ece1cc" stroke-width="5"/>
    <path d="M118,168 C92,182 88,228 118,248 C150,264 228,264 254,244 C278,226 274,184 246,168 C214,152 148,152 118,168 Z" fill="#3a3540"/>
    <ellipse cx="190" cy="247" rx="50" ry="15" fill="#e07b39" stroke-width="5"/>
    <path d="M174,156 C182,170 183,186 177,200 L193,202 C199,186 198,168 190,154 Z" fill="#ece1cc" stroke-width="5"/>
    <path d="M216,158 C224,170 225,184 220,196 L235,198 C240,184 239,170 232,156 Z" fill="#ece1cc" stroke-width="5"/>
    <path d="M124,238 C120,268 118,292 120,316 L146,318 C146,294 148,268 152,244 Z" fill="#3a3540"/>
    <path d="M160,246 C158,272 156,294 158,316 L184,317 C184,295 186,272 188,250 Z" fill="#3a3540"/>
    <path d="M116,294 L148,296 L147,312 L115,309 Z" fill="#ece1cc" stroke-width="5"/>
    <path d="M110,144 C136,162 174,164 198,148 L203,168 C174,184 134,182 104,162 Z" fill="#ece1cc"/>
    <circle cx="155" cy="188" r="13" fill="#ece1cc" stroke-width="5"/>
    <circle cx="150" cy="186" r="2.6" fill="#2d263c" stroke="none"/>
    <circle cx="160" cy="186" r="2.6" fill="#2d263c" stroke="none"/>
    <path d="M112,92 C100,118 108,144 136,152 C166,160 190,146 194,116 C197,90 176,70 148,72 C130,74 119,79 112,92 Z" fill="#3a3540"/>
    <path d="M114,114 C94,113 81,126 85,140 C90,155 114,160 136,152 C144,140 142,124 134,114 C128,110 120,113 114,114 Z" fill="#e07b39"/>
    <ellipse cx="90" cy="129" rx="8" ry="6.5" fill="#2d263c" stroke-width="4"/>
    <path d="M95,145 C107,152 122,153 133,148" fill="none" stroke-width="5"/>
    <path d="M108,150 L114,161 L120,149 Z" fill="#ffffff" stroke-width="4"/>
    <ellipse cx="131" cy="106" rx="11" ry="6.5" transform="rotate(12 131 106)" fill="#e8473f" stroke-width="5"/>
    <circle cx="134" cy="107" r="2.8" fill="#2d263c" stroke="none"/>
    <ellipse cx="169" cy="103" rx="11" ry="6.5" transform="rotate(-6 169 103)" fill="#e8473f" stroke-width="5"/>
    <circle cx="171" cy="104" r="2.8" fill="#2d263c" stroke="none"/>
    <path d="M117,93 L143,100" fill="none" stroke-width="6"/>
    <path d="M184,91 L157,97" fill="none" stroke-width="6"/>
    <path d="M131,318 L132,308" fill="none" stroke-width="5"/>
    <path d="M170,317 L171,308" fill="none" stroke-width="5"/>
    <path d="M247,315 L248,306" fill="none" stroke-width="5"/>
  </g>
</svg>