<svg xmlns="http://www.w3.org/2000/svg" viewBox="0 0 360 360"><g stroke="#2d263c" stroke-width="7" stroke-linejoin="round" stroke-linecap="round"><path d="M150 122 Q136 96 127 84" fill="none"/><path d="M212 124 Q227 100 241 91" fill="none"/><circle cx="123" cy="77" r="10" fill="#3d59a8"/><circle cx="246" cy="86" r="9" fill="#3d59a8"/><path d="M122 200 Q70 216 62 264 Q60 286 79 282 Q96 277 103 250 Q111 226 129 222 Z" fill="#3d59a8"/><path d="M240 198 Q298 211 305 261 Q307 284 286 280 Q269 275 261 248 Q253 224 235 220 Z" fill="#3d59a8"/><path d="M85 241 L59 229 L80 257 Z" fill="#f4f0e6"/><path d="M279 236 L305 227 L286 254 Z" fill="#f4f0e6"/><path d="M139 298 Q131 330 123 339 Q140 348 153 341 L159 306 Z" fill="#3d59a8"/><path d="M217 298 Q228 332 237 340 Q220 349 205 341 L201 307 Z" fill="#3d59a8"/><path d="M167 150 Q168 110 170 88 Q158 70 145 52 Q159 41 172 56 Q178 64 181 71 Q186 60 196 49 Q211 41 215 56 Q204 66 192 88 Q195 112 197 150 Z" fill="#3d59a8"/><path d="M180 108 Q119 111 103 170 Q91 215 100 261 Q111 312 180 316 Q252 313 260 256 Q267 212 256 167 Q241 110 180 108 Z" fill="#3d59a8"/><path d="M132 241 Q129 300 180 304 Q231 299 228 238 Q204 224 180 226 Q154 223 132 241 Z" fill="#5b76c4"/><path d="M141 269 Q181 281 221 266" fill="none"/><ellipse cx="148" cy="172" rx="14" ry="20" fill="#f7d23e"/><ellipse cx="214" cy="169" rx="13" ry="19" fill="#f7d23e"/><path d="M168 207 Q181 215 195 204" fill="none"/></g><circle cx="144" cy="164" r="4" fill="#ffffff"/><circle cx="210" cy="161" r="4" fill="#ffffff"/></svg>