<svg xmlns="http://www.w3.org/2000/svg" viewBox="0 0 360 360">
  <!-- 翅(背中の羽根) - 後ろレイヤー -->
  <ellipse cx="148" cy="178" rx="38" ry="52" fill="#8B3A3A" stroke="#2d263c" stroke-width="7" stroke-linejoin="round" transform="rotate(-18 148 178)"/>
  <ellipse cx="212" cy="175" rx="36" ry="50" fill="#8B3A3A" stroke="#2d263c" stroke-width="7" stroke-linejoin="round" transform="rotate(15 212 175)"/>
  <!-- 翅の光沢筋 -->
  <path d="M155 160 Q148 188 151 210" fill="none" stroke="#6B2A2A" stroke-width="3" stroke-linecap="round"/>
  <path d="M205 158 Q213 185 208 208" fill="none" stroke="#6B2A2A" stroke-width="3" stroke-linecap="round"/>

  <!-- 胴体 -->
  <ellipse cx="180" cy="218" rx="68" ry="75" fill="#4A7DE8" stroke="#2d263c" stroke-width="8" stroke-linejoin="round"/>

  <!-- 腹部の縞模様(明るい青) -->
  <ellipse cx="180" cy="248" rx="44" ry="35" fill="#6B9EF0" stroke="#2d263c" stroke-width="5" stroke-linejoin="round"/>
  <path d="M145 248 Q180 258 215 248" fill="none" stroke="#2d263c" stroke-width="3.5" stroke-linecap="round"/>
  <path d="M148 258 Q180 267 212 258" fill="none" stroke="#2d263c" stroke-width="3" stroke-linecap="round"/>

  <!-- 頭 -->
  <ellipse cx="180" cy="148" rx="55" ry="50" fill="#4A7DE8" stroke="#2d263c" stroke-width="8" stroke-linejoin="round"/>

  <!-- 角(Y字フォーク型) - ヘラクロスの最大特徴 -->
  <path d="M180 102 L180 55" fill="none" stroke="#3A6AC8" stroke-width="14" stroke-linecap="round"/>
  <path d="M180 68 L155 40" fill="none" stroke="#3A6AC8" stroke-width="12" stroke-linecap="round"/>
  <path d="M180 68 L205 38" fill="none" stroke="#3A6AC8" stroke-width="12" stroke-linecap="round"/>
  <!-- 角の輪郭線 -->
  <path d="M180 102 L180 55" fill="none" stroke="#2d263c" stroke-width="8" stroke-linecap="round"/>
  <path d="M180 68 L155 40" fill="none" stroke="#2d263c" stroke-width="7" stroke-linecap="round"/>
  <path d="M180 68 L205 38" fill="none" stroke="#2d263c" stroke-width="7" stroke-linecap="round"/>

  <!-- 目(大きな赤い複眼) -->
  <ellipse cx="158" cy="142" rx="18" ry="17" fill="#E83030" stroke="#2d263c" stroke-width="5"/>
  <ellipse cx="202" cy="142" rx="18" ry="17" fill="#E83030" stroke="#2d263c" stroke-width="5"/>
  <!-- 目の光 -->
  <ellipse cx="152" cy="137" rx="6" ry="5" fill="#FF7070" stroke="none"/>
  <ellipse cx="196" cy="137" rx="6" ry="5" fill="#FF7070" stroke="none"/>
  <!-- 目の瞳 -->
  <ellipse cx="161" cy="145" rx="5" ry="5" fill="#1A0A0A"/>
  <ellipse cx="205" cy="145" rx="5" ry="5" fill="#1A0A0A"/>

  <!-- 口(ニッとした感じ) -->
  <path d="M163 163 Q180 175 197 163" fill="none" stroke="#2d263c" stroke-width="5" stroke-linecap="round"/>
  <!-- 頬の丸み -->
  <ellipse cx="148" cy="155" rx="10" ry="8" fill="#6B9EF0" stroke="#2d263c" stroke-width="3"/>
  <ellipse cx="212" cy="155" rx="10" ry="8" fill="#6B9EF0" stroke="#2d263c" stroke-width="3"/>

  <!-- 左腕(太め・大きいこぶし) -->
  <path d="M120 205 Q90 215 78 235" fill="none" stroke="#4A7DE8" stroke-width="22" stroke-linecap="round"/>
  <path d="M120 205 Q90 215 78 235" fill="none" stroke="#2d263c" stroke-width="8" stroke-linecap="round"/>
  <!-- 左こぶし -->
  <circle cx="75" cy="240" r="20" fill="#4A7DE8" stroke="#2d263c" stroke-width="7"/>
  <!-- 爪 -->
  <path d="M60 232 L50 224" fill="none" stroke="#2d263c" stroke-width="5" stroke-linecap="round"/>
  <path d="M58 244 L46 240" fill="none" stroke="#2d263c" stroke-width="5" stroke-linecap="round"/>

  <!-- 右腕 -->
  <path d="M240 205 Q268 213 282 233" fill="none" stroke="#4A7DE8" stroke-width="22" stroke-linecap="round"/>
  <path d="M240 205 Q268 213 282 233" fill="none" stroke="#2d263c" stroke-width="8" stroke-linecap="round"/>
  <!-- 右こぶし -->
  <circle cx="285" cy="238" r="20" fill="#4A7DE8" stroke="#2d263c" stroke-width="7"/>
  <!-- 爪 -->
  <path d="M299 230 L309 222" fill="none" stroke="#2d263c" stroke-width="5" stroke-linecap="round"/>
  <path d="M301 242 L313 238" fill="none" stroke="#2d263c" stroke-width="5" stroke-linecap="round"/>

  <!-- 前脚(左) -->
  <path d="M148 278 Q132 298 128 318" fill="none" stroke="#3A6AC8" stroke-width="14" stroke-linecap="round"/>
  <path d="M148 278 Q132 298 128 318" fill="none" stroke="#2d263c" stroke-width="6" stroke-linecap="round"/>
  <!-- 前脚(右) -->
  <path d="M212 278 Q228 298 232 318" fill="none" stroke="#3A6AC8" stroke-width="14" stroke-linecap="round"/>
  <path d="M212 278 Q228 298 232 318" fill="none" stroke="#2d263c" stroke-width="6" stroke-linecap="round"/>

  <!-- 後脚(左) -->
  <path d="M155 285 Q135 310 118 330" fill="none" stroke="#3A6AC8" stroke-width="11" stroke-linecap="round"/>
  <path d="M155 285 Q135 310 118 330" fill="none" stroke="#2d263c" stroke-width="5" stroke-linecap="round"/>
  <!-- 後脚(右) -->
  <path d="M205 285 Q225 310 242 330" fill="none" stroke="#3A6AC8" stroke-width="11" stroke-linecap="round"/>
  <path d="M205 285 Q225 310 242 330" fill="none" stroke="#2d263c" stroke-width="5" stroke-linecap="round"/>

  <!-- 触角(小さいやつ) -->
  <path d="M162 103 Q150 85 140 72" fill="none" stroke="#3A6AC8" stroke-width="6" stroke-linecap="round"/>
  <path d="M162 103 Q150 85 140 72" fill="none" stroke="#2d263c" stroke-width="4" stroke-linecap="round"/>
  <circle cx="138" cy="70" r="5" fill="#2d263c"/>
  <path d="M198 103 Q210 85 220 72" fill="none" stroke="#3A6AC8" stroke-width="6" stroke-linecap="round"/>
  <path d="M198 103 Q210 85 220 72" fill="none" stroke="#2d263c" stroke-width="4" stroke-linecap="round"/>
  <circle cx="222" cy="70" r="5" fill="#2d263c"/>
</svg>