<svg xmlns="http://www.w3.org/2000/svg" viewBox="0 0 360 360">
  <path d="M155,235 C148,252 148,266 154,280 L206,280 C212,266 212,252 205,235 Z" fill="#8a2230" stroke="#2d263c" stroke-width="7" stroke-linejoin="round"/>
  <path d="M150,278 C143,293 143,306 150,318 L210,318 C217,306 217,293 210,278 Z" fill="#7a1c28" stroke="#2d263c" stroke-width="7" stroke-linejoin="round"/>
  <path d="M142,315 L180,300 L218,315 L198,338 L180,326 L162,338 Z" fill="#6b1722" stroke="#2d263c" stroke-width="7" stroke-linejoin="round"/>
  <path d="M132,250 L112,282 L124,288 L142,258 Z" fill="#8a2230" stroke="#2d263c" stroke-width="7" stroke-linejoin="round"/>
  <path d="M228,250 L248,282 L236,288 L218,258 Z" fill="#8a2230" stroke="#2d263c" stroke-width="7" stroke-linejoin="round"/>
  <path d="M148,260 L138,294 L150,297 L160,264 Z" fill="#8a2230" stroke="#2d263c" stroke-width="7" stroke-linejoin="round"/>
  <path d="M212,260 L222,294 L210,297 L200,264 Z" fill="#8a2230" stroke="#2d263c" stroke-width="7" stroke-linejoin="round"/>
  <path d="M120,150 C118,102 148,68 180,68 C212,68 242,102 240,150 C246,192 244,232 218,258 C198,278 162,278 142,258 C116,232 114,192 120,150 Z" fill="#b8303f" stroke="#2d263c" stroke-width="8" stroke-linejoin="round"/>
  <ellipse cx="180" cy="210" rx="40" ry="52" fill="#e6cfa4" stroke="#2d263c" stroke-width="7"/>
  <path d="M125,145 C102,138 78,138 62,145 L60,178 C78,186 102,182 122,172 Z" fill="#5b4b8a" stroke="#2d263c" stroke-width="7" stroke-linejoin="round"/>
  <path d="M235,145 C258,138 282,138 298,145 L300,178 C282,186 258,182 238,172 Z" fill="#5b4b8a" stroke="#2d263c" stroke-width="7" stroke-linejoin="round"/>
  <ellipse cx="60" cy="155" rx="40" ry="36" fill="#6a58a0" stroke="#2d263c" stroke-width="8"/>
  <ellipse cx="300" cy="155" rx="40" ry="36" fill="#6a58a0" stroke="#2d263c" stroke-width="8"/>
  <path d="M27,130 L58,142 L26,155 Z" fill="#4c3d78" stroke="#2d263c" stroke-width="7" stroke-linejoin="round"/>
  <path d="M27,180 L58,168 L26,155 Z" fill="#4c3d78" stroke="#2d263c" stroke-width="7" stroke-linejoin="round"/>
  <path d="M333,130 L302,142 L334,155 Z" fill="#4c3d78" stroke="#2d263c" stroke-width="7" stroke-linejoin="round"/>
  <path d="M333,180 L302,168 L334,155 Z" fill="#4c3d78" stroke="#2d263c" stroke-width="7" stroke-linejoin="round"/>
  <path d="M150,112 L138,48 L168,98 Z" fill="#7a1c28" stroke="#2d263c" stroke-width="7" stroke-linejoin="round"/>
  <path d="M178,106 L178,32 L202,100 Z" fill="#6b1722" stroke="#2d263c" stroke-width="7" stroke-linejoin="round"/>
  <path d="M210,112 L222,48 L192,98 Z" fill="#7a1c28" stroke="#2d263c" stroke-width="7" stroke-linejoin="round"/>
  <path d="M152,70 C138,52 128,32 122,16" fill="none" stroke="#2d263c" stroke-width="7" stroke-linecap="round"/>
  <path d="M208,70 C222,52 232,32 238,16" fill="none" stroke="#2d263c" stroke-width="7" stroke-linecap="round"/>
  <path d="M142,142 L168,132 L152,150 Z" fill="#8a2230" stroke="#2d263c" stroke-width="6" stroke-linejoin="round"/>
  <path d="M218,142 L192,132 L208,150 Z" fill="#8a2230" stroke="#2d263c" stroke-width="6" stroke-linejoin="round"/>
  <ellipse cx="157" cy="164" rx="15" ry="17" fill="#ffd23c" stroke="#2d263c" stroke-width="6"/>
  <ellipse cx="203" cy="164" rx="15" ry="17" fill="#ffd23c" stroke="#2d263c" stroke-width="6"/>
  <ellipse cx="159" cy="167" rx="6" ry="9" fill="#1a1a1a"/>
  <ellipse cx="201" cy="167" rx="6" ry="9" fill="#1a1a1a"/>
  <path d="M166,200 Q180,210 194,200" fill="none" stroke="#2d263c" stroke-width="6" stroke-linecap="round"/>
</svg>
