<svg xmlns="http://www.w3.org/2000/svg" viewBox="0 0 360 360">
  <path d="M25 168 L20 180 L25 192 Z" fill="#9bc4d6" stroke="#2d263c" stroke-width="6" stroke-linejoin="round" stroke-linecap="round"/>
  <path d="M25 180 C38 128,85 88,150 80 C210 74,268 82,302 106 C328 124,340 150,340 180 C340 210,328 236,302 254 C268 278,210 286,150 280 C85 272,38 232,25 180 Z" fill="#6b8aa1" stroke="#2d263c" stroke-width="8" stroke-linejoin="round" stroke-linecap="round"/>
  <path d="M175 78 L195 40 L222 82 Z" fill="#9bc4d6" stroke="#2d263c" stroke-width="6" stroke-linejoin="round" stroke-linecap="round"/>
  <path d="M95 86 L108 55 L128 90 Z" fill="#9bc4d6" stroke="#2d263c" stroke-width="6" stroke-linejoin="round" stroke-linecap="round"/>
  <path d="M278 258 C296 272,302 296,284 302 C272 294,268 276,278 258 Z" fill="#9bc4d6" stroke="#2d263c" stroke-width="6" stroke-linejoin="round" stroke-linecap="round"/>
  <circle cx="268" cy="170" r="38" fill="#587b92"/>
  <ellipse cx="185" cy="265" rx="120" ry="28" fill="#f0e4b8"/>
  <ellipse cx="200" cy="270" rx="45" ry="12" fill="#f7ecc4"/>
  <ellipse cx="110" cy="94" rx="16" ry="10" fill="#d9ecf3"/>
  <ellipse cx="155" cy="84" rx="16" ry="10" fill="#d9ecf3"/>
  <ellipse cx="205" cy="80" rx="16" ry="10" fill="#d9ecf3"/>
  <ellipse cx="250" cy="90" rx="16" ry="10" fill="#d9ecf3"/>
  <circle cx="298" cy="150" r="12" fill="#f7f3e8" stroke="#2d263c" stroke-width="6" stroke-linejoin="round" stroke-linecap="round"/>
  <circle cx="301" cy="151" r="5" fill="#232030"/>
  <path d="M278 196 C292 212,314 213,330 200" fill="none" stroke="#2d263c" stroke-width="7" stroke-linecap="round" stroke-linejoin="round"/>
  <path d="M280 226 C272 252,262 280,258 308" fill="none" stroke="#2d263c" stroke-width="7" stroke-linecap="round" stroke-linejoin="round"/>
  <path d="M320 230 C330 256,336 282,330 308" fill="none" stroke="#2d263c" stroke-width="7" stroke-linecap="round" stroke-linejoin="round"/>
  <path d="M258 138 C266 155,266 172,256 188" fill="none" stroke="#2d263c" stroke-width="6" stroke-linecap="round" stroke-linejoin="round"/>
</svg>
