<svg xmlns="http://www.w3.org/2000/svg" viewBox="0 0 360 360"><g stroke="#2d263c" stroke-width="7" stroke-linejoin="round" stroke-linecap="round"><path d="M155,125 C148,108 138,92 128,78" fill="none"/><path d="M205,125 C214,107 226,90 236,76" fill="none"/><circle cx="124" cy="72" r="8" fill="#355FA8"/><circle cx="241" cy="69" r="10" fill="#355FA8"/><path d="M166,152 C160,120 158,95 157,72 L197,72 C195,95 192,120 190,152 Z" fill="#355FA8"/><path d="M128,72 C112,60 126,42 142,50 C166,40 192,40 216,50 C232,42 246,60 230,72 C198,84 160,84 128,72 Z" fill="#355FA8"/><path d="M140,198 C100,190 72,202 58,224 L74,222 L66,238 L84,238 C100,226 118,224 142,230 Z" fill="#355FA8"/><path d="M220,198 C260,190 288,202 302,224 L286,222 L294,238 L276,238 C260,226 242,224 218,230 Z" fill="#355FA8"/><path d="M168,292 L181,330 L194,292 Z" fill="#355FA8"/><path d="M150,290 C140,310 138,322 142,332 L168,332 C166,318 168,305 172,295 Z" fill="#355FA8"/><path d="M210,290 C220,310 222,322 218,332 L192,332 C194,318 192,305 188,295 Z" fill="#355FA8"/><path d="M180,178 C214,178 240,204 238,242 C236,278 214,302 179,302 C146,302 124,276 122,240 C120,205 147,178 180,178 Z" fill="#355FA8"/><ellipse cx="180" cy="251" rx="33" ry="38" fill="#6E97D4"/><path d="M180,116 C204,116 219,131 218,151 C217,172 202,184 179,184 C157,184 143,171 142,150 C141,130 157,116 180,116 Z" fill="#355FA8"/><ellipse cx="161" cy="148" rx="9" ry="12" fill="#F6CE49" stroke-width="5"/><ellipse cx="199" cy="146" rx="11" ry="14" fill="#F6CE49" stroke-width="5"/><path d="M168,172 Q180,181 193,170" fill="none" stroke-width="5"/><path d="M150,332 L151,323 M159,332 L159,324" fill="none" stroke-width="5"/><path d="M201,332 L201,324 M210,332 L209,323" fill="none" stroke-width="5"/></g><circle cx="158" cy="143" r="3" fill="#ffffff"/><circle cx="195" cy="140" r="3.5" fill="#ffffff"/></svg>