<svg xmlns="http://www.w3.org/2000/svg" viewBox="0 0 360 360">
  <!-- 尻尾(矢印型) -->
  <path d="M 265 230 Q 300 210 310 185 Q 320 165 308 155 L 295 168 L 310 155 L 298 142 Q 285 158 278 175 Q 270 195 260 215 Z" fill="#1a1a2e" stroke="#2d263c" stroke-width="7" stroke-linejoin="round" stroke-linecap="round"/>
  <!-- 尻尾の先(三叉) -->
  <path d="M 308 155 L 320 140 M 308 155 L 322 158 M 308 155 L 316 170" fill="none" stroke="#2d263c" stroke-width="6" stroke-linecap="round"/>

  <!-- 後ろ足(左) -->
  <path d="M 175 255 Q 160 270 155 295 Q 152 308 160 312 L 175 312 Q 180 308 178 295 Q 178 275 185 260 Z" fill="#1a1a2e" stroke="#2d263c" stroke-width="7" stroke-linejoin="round"/>
  <!-- 後ろ足(右) -->
  <path d="M 225 255 Q 238 270 242 295 Q 244 308 236 312 L 222 312 Q 217 308 219 295 Q 220 275 215 260 Z" fill="#1a1a2e" stroke="#2d263c" stroke-width="7" stroke-linejoin="round"/>

  <!-- 体(胴体) -->
  <ellipse cx="200" cy="240" rx="75" ry="55" fill="#222235" stroke="#2d263c" stroke-width="8"/>

  <!-- 腹部(オレンジベージュ) -->
  <ellipse cx="200" cy="252" rx="45" ry="32" fill="#c8763a" stroke="#2d263c" stroke-width="5"/>

  <!-- 胴のリング模様 -->
  <path d="M 148 235 Q 160 220 200 218 Q 240 220 252 235" fill="none" stroke="#c8763a" stroke-width="5" stroke-linecap="round"/>
  <path d="M 152 248 Q 165 237 200 235 Q 236 237 248 248" fill="none" stroke="#c8763a" stroke-width="4" stroke-linecap="round"/>

  <!-- 首 -->
  <path d="M 175 200 Q 170 195 172 185 Q 174 175 185 172 L 215 172 Q 226 175 228 185 Q 230 195 225 200 Z" fill="#222235" stroke="#2d263c" stroke-width="7" stroke-linejoin="round"/>

  <!-- 首の骨リング -->
  <ellipse cx="200" cy="186" rx="28" ry="10" fill="none" stroke="#d4a843" stroke-width="6"/>

  <!-- 前脚(左) -->
  <path d="M 152 248 Q 138 258 132 280 Q 128 295 136 300 L 148 300 Q 152 292 153 275 Q 155 260 162 252 Z" fill="#222235" stroke="#2d263c" stroke-width="7" stroke-linejoin="round"/>
  <!-- 前脚骨リング -->
  <ellipse cx="140" cy="270" rx="10" ry="5" fill="none" stroke="#d4a843" stroke-width="4" transform="rotate(-15 140 270)"/>

  <!-- 前脚(右) -->
  <path d="M 248 248 Q 262 258 268 280 Q 272 295 264 300 L 252 300 Q 248 292 247 275 Q 245 260 238 252 Z" fill="#222235" stroke="#2d263c" stroke-width="7" stroke-linejoin="round"/>
  <!-- 前脚骨リング -->
  <ellipse cx="260" cy="270" rx="10" ry="5" fill="none" stroke="#d4a843" stroke-width="4" transform="rotate(15 260 270)"/>

  <!-- 頭 -->
  <ellipse cx="200" cy="148" rx="52" ry="45" fill="#222235" stroke="#2d263c" stroke-width="8"/>

  <!-- 耳(左・大きく尖る) -->
  <path d="M 160 120 Q 145 90 148 65 Q 152 55 162 60 Q 170 65 168 90 L 172 115 Z" fill="#222235" stroke="#2d263c" stroke-width="7" stroke-linejoin="round"/>
  <!-- 耳内側(左) -->
  <path d="M 162 112 Q 152 88 154 70 Q 157 62 162 66 Q 166 70 164 88 Z" fill="#8b2020" stroke="none"/>

  <!-- 耳(右・大きく尖る) -->
  <path d="M 240 120 Q 255 90 252 65 Q 248 55 238 60 Q 230 65 232 90 L 228 115 Z" fill="#222235" stroke="#2d263c" stroke-width="7" stroke-linejoin="round"/>
  <!-- 耳内側(右) -->
  <path d="M 238 112 Q 248 88 246 70 Q 243 62 238 66 Q 234 70 236 88 Z" fill="#8b2020" stroke="none"/>

  <!-- 角(左・後ろ向きにカーブ) -->
  <path d="M 172 108 Q 158 90 152 72 Q 148 58 156 52 Q 164 48 170 62 Q 175 75 178 98 Z" fill="#c8763a" stroke="#2d263c" stroke-width="6" stroke-linejoin="round"/>

  <!-- 角(右・後ろ向きにカーブ) -->
  <path d="M 228 108 Q 242 90 248 72 Q 252 58 244 52 Q 236 48 230 62 Q 225 75 222 98 Z" fill="#c8763a" stroke="#2d263c" stroke-width="6" stroke-linejoin="round"/>

  <!-- 鼻先(長め) -->
  <path d="M 185 160 Q 180 170 178 180 Q 176 188 182 192 Q 192 198 200 196 Q 210 196 215 188 Q 218 180 214 170 Q 210 162 200 160 Z" fill="#1a1a2e" stroke="#2d263c" stroke-width="6" stroke-linejoin="round"/>

  <!-- 鼻の穴 -->
  <ellipse cx="191" cy="182" rx="4" ry="3" fill="#444"/>
  <ellipse cx="209" cy="182" rx="4" ry="3" fill="#444"/>

  <!-- 目(左・つり目で怖い) -->
  <ellipse cx="180" cy="143" rx="10" ry="9" fill="#cc2200" stroke="#2d263c" stroke-width="4"/>
  <ellipse cx="181" cy="143" rx="5" ry="5" fill="#1a0000"/>
  <ellipse cx="183" cy="140" rx="2" ry="2" fill="white"/>
  <!-- 目の上のまゆ(怒り眉) -->
  <path d="M 170 133 Q 178 128 190 131" fill="none" stroke="#2d263c" stroke-width="5" stroke-linecap="round"/>

  <!-- 目(右・つり目) -->
  <ellipse cx="220" cy="143" rx="10" ry="9" fill="#cc2200" stroke="#2d263c" stroke-width="4"/>
  <ellipse cx="219" cy="143" rx="5" ry="5" fill="#1a0000"/>
  <ellipse cx="221" cy="140" rx="2" ry="2" fill="white"/>
  <!-- 眉(右) -->
  <path d="M 210 131 Q 222 128 230 133" fill="none" stroke="#2d263c" stroke-width="5" stroke-linecap="round"/>

  <!-- 口・牙 -->
  <path d="M 185 192 Q 192 200 200 200 Q 208 200 215 192" fill="none" stroke="#2d263c" stroke-width="5" stroke-linecap="round"/>
  <!-- 牙(左) -->
  <path d="M 188 196 L 186 210 L 192 208 Z" fill="white" stroke="#2d263c" stroke-width="3" stroke-linejoin="round"/>
  <!-- 牙(右) -->
  <path d="M 212 196 L 214 210 L 208 208 Z" fill="white" stroke="#2d263c" stroke-width="3" stroke-linejoin="round"/>

  <!-- 炎のにおいっぽいほっぺの模様 -->
  <ellipse cx="163" cy="158" rx="8" ry="6" fill="#cc4400" opacity="0.6"/>
  <ellipse cx="237" cy="158" rx="8" ry="6" fill="#cc4400" opacity="0.6"/>
</svg>