<svg xmlns="http://www.w3.org/2000/svg" viewBox="0 0 360 360">
  <path d="M252 248 C298 240 320 204 308 158" fill="none" stroke="#2d263c" stroke-width="11" stroke-linecap="round"/>
  <polygon points="294,152 324,150 310,124" fill="#423c48" stroke="#2d263c" stroke-width="6" stroke-linejoin="round"/>
  <ellipse cx="131" cy="292" rx="21" ry="31" fill="#423c48" stroke="#2d263c" stroke-width="6"/>
  <ellipse cx="237" cy="296" rx="20" ry="30" fill="#423c48" stroke="#2d263c" stroke-width="6"/>
  <path d="M138 108 C116 118 106 146 116 168 C127 151 134 138 146 130 Z" fill="#423c48" stroke="#2d263c" stroke-width="6" stroke-linejoin="round"/>
  <path d="M218 104 C242 112 252 142 244 166 C232 149 226 136 212 128 Z" fill="#423c48" stroke="#2d263c" stroke-width="6" stroke-linejoin="round"/>
  <path d="M152 94 C134 60 120 52 98 60 C118 68 128 86 134 104 Z" fill="#f4ecd9" stroke="#2d263c" stroke-width="6" stroke-linejoin="round"/>
  <path d="M206 90 C226 54 242 46 264 56 C243 64 233 84 227 100 Z" fill="#f4ecd9" stroke="#2d263c" stroke-width="6" stroke-linejoin="round"/>
  <ellipse cx="185" cy="250" rx="63" ry="70" fill="#423c48" stroke="#2d263c" stroke-width="7"/>
  <ellipse cx="183" cy="272" rx="33" ry="44" fill="#e8813c" stroke="#2d263c" stroke-width="6"/>
  <rect x="116" y="226" width="34" height="13" rx="6" fill="#f4ecd9" stroke="#2d263c" stroke-width="5" transform="rotate(18 133 232)"/>
  <rect x="212" y="232" width="36" height="13" rx="6" fill="#f4ecd9" stroke="#2d263c" stroke-width="5" transform="rotate(-21 230 238)"/>
  <rect x="150" y="252" width="26" height="72" rx="12" fill="#423c48" stroke="#2d263c" stroke-width="6"/>
  <rect x="203" y="256" width="26" height="70" rx="12" fill="#423c48" stroke="#2d263c" stroke-width="6"/>
  <rect x="147" y="296" width="32" height="13" rx="6" fill="#f4ecd9" stroke="#2d263c" stroke-width="5"/>
  <rect x="201" y="301" width="31" height="13" rx="6" fill="#f4ecd9" stroke="#2d263c" stroke-width="5"/>
  <ellipse cx="181" cy="184" rx="45" ry="16" fill="#f4ecd9" stroke="#2d263c" stroke-width="6"/>
  <circle cx="181" cy="204" r="12" fill="#f4ecd9" stroke="#2d263c" stroke-width="5"/>
  <rect x="173" y="210" width="16" height="11" rx="4" fill="#f4ecd9" stroke="#2d263c" stroke-width="4"/>
  <circle cx="175.5" cy="202" r="2.6" fill="#2d263c"/>
  <circle cx="186.5" cy="202" r="2.6" fill="#2d263c"/>
  <circle cx="178" cy="125" r="46" fill="#423c48" stroke="#2d263c" stroke-width="7"/>
  <rect x="149" y="122" width="60" height="42" rx="17" fill="#e8813c" stroke="#2d263c" stroke-width="6"/>
  <ellipse cx="179" cy="128" rx="9" ry="6" fill="#2d263c"/>
  <path d="M160 150 Q179 162 198 148" fill="none" stroke="#2d263c" stroke-width="5" stroke-linecap="round"/>
  <polygon points="162,152 171,155 166,141" fill="#ffffff" stroke="#2d263c" stroke-width="3" stroke-linejoin="round"/>
  <polygon points="196,151 205,148 200,137" fill="#ffffff" stroke="#2d263c" stroke-width="3" stroke-linejoin="round"/>
  <ellipse cx="157" cy="105" rx="9" ry="7" fill="#ffffff" stroke="#2d263c" stroke-width="4"/>
  <ellipse cx="200" cy="103" rx="9" ry="7" fill="#ffffff" stroke="#2d263c" stroke-width="4"/>
  <circle cx="159" cy="106" r="3.6" fill="#d62828"/>
  <circle cx="198" cy="104" r="3.6" fill="#d62828"/>
  <path d="M143 90 L167 99" stroke="#2d263c" stroke-width="6" stroke-linecap="round"/>
  <path d="M215 87 L191 98" stroke="#2d263c" stroke-width="6" stroke-linecap="round"/>
</svg>