<svg xmlns="http://www.w3.org/2000/svg" viewBox="0 0 360 360">
  <ellipse cx="272" cy="245" rx="36" ry="52" fill="#F2A9B8" stroke="#2d263c" stroke-width="7" stroke-linejoin="round"/>
  <ellipse cx="60" cy="215" rx="32" ry="46" fill="#F2A9B8" stroke="#2d263c" stroke-width="7" stroke-linejoin="round"/>
  <ellipse cx="300" cy="215" rx="32" ry="46" fill="#F2A9B8" stroke="#2d263c" stroke-width="7" stroke-linejoin="round"/>
  <ellipse cx="125" cy="302" rx="38" ry="30" fill="#F2A9B8" stroke="#2d263c" stroke-width="7" stroke-linejoin="round"/>
  <ellipse cx="235" cy="302" rx="38" ry="30" fill="#F2A9B8" stroke="#2d263c" stroke-width="7" stroke-linejoin="round"/>
  <ellipse cx="180" cy="185" rx="115" ry="128" fill="#F2A9B8" stroke="#2d263c" stroke-width="8" stroke-linejoin="round"/>
  <ellipse cx="180" cy="235" rx="58" ry="72" fill="#FDEEEE" stroke="#2d263c" stroke-width="6" stroke-linejoin="round"/>
  <circle cx="115" cy="185" r="14" fill="#FF8FA3" opacity="0.5"/>
  <circle cx="245" cy="185" r="14" fill="#FF8FA3" opacity="0.5"/>
  <ellipse cx="145" cy="150" rx="24" ry="28" fill="#FFFFFF" stroke="#2d263c" stroke-width="6" stroke-linejoin="round"/>
  <ellipse cx="215" cy="150" rx="24" ry="28" fill="#FFFFFF" stroke="#2d263c" stroke-width="6" stroke-linejoin="round"/>
  <circle cx="148" cy="158" r="10" fill="#2d263c"/>
  <circle cx="212" cy="158" r="10" fill="#2d263c"/>
  <path d="M148,197 Q180,218 212,197" fill="#7A3B46" stroke="#2d263c" stroke-width="7" stroke-linecap="round" stroke-linejoin="round"/>
  <path d="M162,198 C150,235 148,275 160,312 C168,330 192,330 200,312 C212,275 210,235 198,198 C190,206 170,206 162,198 Z" fill="#E8607A" stroke="#2d263c" stroke-width="7" stroke-linejoin="round" stroke-linecap="round"/>
  <path d="M180,215 C176,250 176,280 180,308" fill="none" stroke="#c94c66" stroke-width="4" stroke-linecap="round"/>
</svg>
