<svg xmlns="http://www.w3.org/2000/svg" viewBox="0 0 360 360">
<path d="M295,230 Q320,222 328,200 Q332,188 326,180 Q315,182 305,198 Q292,215 280,238 Z" fill="#8fc93e" stroke="#2d263c" stroke-width="7" stroke-linejoin="round"/>
<ellipse cx="318" cy="182" rx="10" ry="15" fill="#4f8f28" stroke="#2d263c" stroke-width="6" stroke-linejoin="round"/>
<ellipse cx="332" cy="192" rx="9" ry="14" fill="#4f8f28" stroke="#2d263c" stroke-width="6" stroke-linejoin="round"/>
<ellipse cx="320" cy="203" rx="9" ry="13" fill="#4f8f28" stroke="#2d263c" stroke-width="6" stroke-linejoin="round"/>
<rect x="195" y="260" width="30" height="55" rx="14" fill="#8fc93e" stroke="#2d263c" stroke-width="7" stroke-linejoin="round"/>
<rect x="245" y="255" width="30" height="55" rx="14" fill="#8fc93e" stroke="#2d263c" stroke-width="7" stroke-linejoin="round"/>
<rect x="108" y="270" width="34" height="58" rx="16" fill="#8fc93e" stroke="#2d263c" stroke-width="7" stroke-linejoin="round"/>
<rect x="160" y="275" width="34" height="58" rx="16" fill="#8fc93e" stroke="#2d263c" stroke-width="7" stroke-linejoin="round"/>
<ellipse cx="210" cy="313" rx="16" ry="7" fill="#4f8f28"/>
<ellipse cx="260" cy="308" rx="16" ry="7" fill="#4f8f28"/>
<ellipse cx="125" cy="326" rx="17" ry="7" fill="#4f8f28"/>
<ellipse cx="177" cy="331" rx="17" ry="7" fill="#4f8f28"/>
<ellipse cx="195" cy="225" rx="105" ry="65" fill="#8fc93e" stroke="#2d263c" stroke-width="8" stroke-linejoin="round"/>
<ellipse cx="190" cy="256" rx="58" ry="27" fill="#f7f0c8" stroke="#2d263c" stroke-width="6" stroke-linejoin="round"/>
<circle cx="225" cy="176" r="13" fill="#4f8f28" stroke="#2d263c" stroke-width="6"/>
<circle cx="256" cy="187" r="11" fill="#4f8f28" stroke="#2d263c" stroke-width="6"/>
<path d="M100,175 Q94,138 130,118 Q165,102 206,113 Q246,124 250,164 Q252,186 234,196 Q222,206 214,190 Q205,212 189,196 Q178,216 164,199 Q149,219 137,201 Q119,211 108,195 Q100,190 100,175 Z" fill="#5a9e2f" stroke="#2d263c" stroke-width="7" stroke-linejoin="round"/>
<path d="M176,138 L164,198 M176,138 L189,196 M176,138 L137,201" fill="none" stroke="#3c7d1f" stroke-width="4" stroke-linecap="round"/>
<circle cx="125" cy="140" r="58" fill="#8fc93e" stroke="#2d263c" stroke-width="8"/>
<ellipse cx="100" cy="168" rx="30" ry="21" fill="#f7f0c8" stroke="#2d263c" stroke-width="5"/>
<circle cx="98" cy="135" r="10" fill="#2d263c"/>
<circle cx="139" cy="131" r="10" fill="#2d263c"/>
<circle cx="94" cy="131" r="3" fill="#ffffff"/>
<circle cx="135" cy="127" r="3" fill="#ffffff"/>
<path d="M104,178 Q118,190 132,178" fill="none" stroke="#2d263c" stroke-width="6" stroke-linecap="round"/>
</svg>
