<svg xmlns="http://www.w3.org/2000/svg" viewBox="0 0 360 360">
  <ellipse cx="180" cy="322" rx="145" ry="20" fill="#3d2a52" opacity="0.45"/>

  <path d="M 100,300 C 92,315 100,332 112,330 C 122,328 122,308 112,296 Z" fill="#5A3E7A" stroke="#2d263c" stroke-width="7" stroke-linejoin="round" stroke-linecap="round"/>
  <path d="M 178,306 C 172,322 182,338 194,334 C 204,330 202,310 190,298 Z" fill="#5A3E7A" stroke="#2d263c" stroke-width="7" stroke-linejoin="round" stroke-linecap="round"/>
  <path d="M 258,296 C 252,312 262,326 273,322 C 282,318 280,300 268,290 Z" fill="#5A3E7A" stroke="#2d263c" stroke-width="7" stroke-linejoin="round" stroke-linecap="round"/>

  <path d="M 55,150 C 35,95 80,40 155,38 C 205,35 255,45 285,85 C 325,105 335,155 320,195 C 335,225 315,255 305,278 C 310,298 292,308 277,298 C 272,320 250,330 235,310 C 220,325 198,320 188,300 C 168,322 148,315 143,293 C 118,308 92,298 88,272 C 68,282 48,262 53,232 C 32,210 38,175 55,150 Z"
        fill="#5A3E7A" stroke="#2d263c" stroke-width="8" stroke-linejoin="round" stroke-linecap="round"/>

  <ellipse cx="120" cy="90" rx="34" ry="26" fill="#8F6BB0" opacity="0.85"/>
  <ellipse cx="245" cy="100" rx="28" ry="22" fill="#8F6BB0" opacity="0.85"/>
  <ellipse cx="90" cy="220" rx="26" ry="34" fill="#8F6BB0" opacity="0.8"/>
  <ellipse cx="280" cy="210" rx="24" ry="30" fill="#8F6BB0" opacity="0.8"/>
  <ellipse cx="185" cy="255" rx="30" ry="20" fill="#8F6BB0" opacity="0.75"/>

  <ellipse cx="110" cy="60" rx="45" ry="28" fill="#ffffff" opacity="0.18"/>

  <circle cx="98" cy="70" r="3.5" fill="#2d263c"/>
  <circle cx="112" cy="66" r="3.5" fill="#2d263c"/>

  <ellipse cx="130" cy="155" rx="42" ry="44" fill="#ffffff" stroke="#2d263c" stroke-width="7"/>
  <ellipse cx="235" cy="150" rx="40" ry="42" fill="#ffffff" stroke="#2d263c" stroke-width="7"/>

  <circle cx="140" cy="165" r="19" fill="#2d263c"/>
  <circle cx="242" cy="160" r="18" fill="#2d263c"/>
  <circle cx="133" cy="157" r="6" fill="#ffffff"/>
  <circle cx="236" cy="152" r="5.5" fill="#ffffff"/>

  <path d="M 130,215 C 155,255 210,255 235,213 C 210,240 155,240 130,215 Z" fill="#2d263c" stroke="#2d263c" stroke-width="7" stroke-linejoin="round"/>
  <path d="M 148,222 L 158,236 L 168,222 Z" fill="#ffffff"/>
  <path d="M 178,225 L 188,240 L 198,225 Z" fill="#ffffff"/>
  <path d="M 208,222 L 216,235 L 224,220 Z" fill="#ffffff"/>
</svg>
