<svg xmlns="http://www.w3.org/2000/svg" viewBox="0 0 360 360">
  <path d="M250,255 Q300,250 295,215 Q292,195 272,202 Q278,225 258,238 Z" fill="#8a5fb0" stroke="#2d263c" stroke-width="7" stroke-linejoin="round"/>
  <path d="M180,120 C232,118 262,152 266,202 C270,252 248,302 202,320 C186,325 174,325 158,320 C112,302 90,252 94,202 C98,152 128,118 180,120 Z" fill="#8a5fb0" stroke="#2d263c" stroke-width="8" stroke-linejoin="round"/>
  <ellipse cx="180" cy="252" rx="46" ry="56" fill="#b592d6" stroke="#2d263c" stroke-width="6"/>
  <ellipse cx="100" cy="252" rx="19" ry="30" transform="rotate(-12 100 252)" fill="#8a5fb0" stroke="#2d263c" stroke-width="7"/>
  <ellipse cx="260" cy="252" rx="19" ry="30" transform="rotate(12 260 252)" fill="#8a5fb0" stroke="#2d263c" stroke-width="7"/>
  <ellipse cx="155" cy="318" rx="21" ry="15" fill="#8a5fb0" stroke="#2d263c" stroke-width="7"/>
  <ellipse cx="205" cy="318" rx="21" ry="15" fill="#8a5fb0" stroke="#2d263c" stroke-width="7"/>
  <path d="M108,175 C90,165 60,150 56,138 C70,155 100,165 116,192 Z" fill="#8a5fb0" stroke="#2d263c" stroke-width="7" stroke-linejoin="round"/>
  <path d="M252,175 C270,165 300,150 304,138 C290,155 260,165 244,192 Z" fill="#8a5fb0" stroke="#2d263c" stroke-width="7" stroke-linejoin="round"/>
  <path d="M100,163 C92,158 74,148 70,140 C80,152 96,158 106,175 Z" fill="#6b4590" stroke="none"/>
  <path d="M260,163 C268,158 286,148 290,140 C280,152 264,158 254,175 Z" fill="#6b4590" stroke="none"/>
  <path d="M115,150 C105,110 120,75 145,88 C150,62 168,58 180,80 C192,58 210,62 215,88 C240,75 255,110 245,150 C230,128 212,140 195,124 C186,138 174,138 165,124 C148,140 130,128 115,150 Z" fill="#cbb37e" stroke="#2d263c" stroke-width="7" stroke-linejoin="round"/>
  <path d="M128,140 C122,112 132,88 148,95 C142,68 160,62 180,82 C200,62 218,68 212,95 C228,88 238,112 232,140 C220,120 205,130 190,116 C182,128 178,128 170,116 C155,130 140,120 128,140 Z" fill="#e8d9a8" stroke="#2d263c" stroke-width="6" stroke-linejoin="round"/>
  <path d="M150,100 Q155,88 162,82" fill="none" stroke="#cbb37e" stroke-width="4" stroke-linecap="round"/>
  <path d="M210,100 Q205,88 198,82" fill="none" stroke="#cbb37e" stroke-width="4" stroke-linecap="round"/>
  <ellipse cx="148" cy="208" rx="20" ry="24" transform="rotate(-8 148 208)" fill="#4a1f3a" stroke="#2d263c" stroke-width="6"/>
  <ellipse cx="212" cy="208" rx="20" ry="24" transform="rotate(8 212 208)" fill="#4a1f3a" stroke="#2d263c" stroke-width="6"/>
  <circle cx="153" cy="199" r="5.5" fill="#ffffff"/>
  <circle cx="217" cy="199" r="5.5" fill="#ffffff"/>
  <path d="M115,192 Q130,182 140,190" fill="none" stroke="#2d263c" stroke-width="6" stroke-linecap="round"/>
  <path d="M245,192 Q230,182 220,190" fill="none" stroke="#2d263c" stroke-width="6" stroke-linecap="round"/>
  <path d="M148,246 Q180,272 218,242" fill="none" stroke="#2d263c" stroke-width="7" stroke-linecap="round"/>
  <path d="M196,248 L202,266 L208,247 Z" fill="#ffffff" stroke="#2d263c" stroke-width="4" stroke-linejoin="round"/>
</svg>
