<svg xmlns="http://www.w3.org/2000/svg" viewBox="0 0 360 360">
<path d="M165 255 C130 270 110 285 92 308" stroke="#2d263c" stroke-width="8" fill="none" stroke-linecap="round"/>
<path d="M168 235 Q160 200 180 192 Q200 200 192 235 Q198 270 180 278 Q162 270 168 235 Z" fill="#8a6db0" stroke="#2d263c" stroke-width="8" stroke-linejoin="round"/>
<path d="M173 276 L168 302" stroke="#2d263c" stroke-width="8" stroke-linecap="round"/>
<path d="M187 276 L192 302" stroke="#2d263c" stroke-width="8" stroke-linecap="round"/>
<path d="M164 210 L142 222" stroke="#2d263c" stroke-width="8" stroke-linecap="round"/>
<path d="M196 210 L218 222" stroke="#2d263c" stroke-width="8" stroke-linecap="round"/>
<path d="M118 140 Q120 80 180 78 Q240 80 242 140 Q242 185 180 188 Q118 185 118 140 Z" fill="#a98ecb" stroke="#2d263c" stroke-width="8" stroke-linejoin="round"/>
<path d="M138 88 Q122 55 132 36 L146 50 Q150 75 150 90 Z" fill="#8a6db0" stroke="#2d263c" stroke-width="8" stroke-linejoin="round"/>
<path d="M222 88 Q238 55 228 36 L214 50 Q210 75 210 90 Z" fill="#8a6db0" stroke="#2d263c" stroke-width="8" stroke-linejoin="round"/>
<ellipse cx="158" cy="138" rx="15" ry="18" fill="#fff" stroke="#2d263c" stroke-width="7"/>
<ellipse cx="202" cy="138" rx="15" ry="18" fill="#fff" stroke="#2d263c" stroke-width="7"/>
<circle cx="160" cy="142" r="7" fill="#2d263c"/>
<circle cx="204" cy="142" r="7" fill="#2d263c"/>
<path d="M170 168 Q180 178 190 168" stroke="#2d263c" stroke-width="6" fill="none" stroke-linecap="round"/>
<circle cx="132" cy="155" r="6" fill="#5d4180"/>
<circle cx="228" cy="155" r="6" fill="#5d4180"/>
</svg>