<svg xmlns="http://www.w3.org/2000/svg" viewBox="0 0 360 360">
  <ellipse cx="180" cy="322" rx="145" ry="20" fill="#3d2a52" opacity="0.4"/>

  <path d="M 100,300 C 92,315 100,332 112,330 C 122,328 122,308 112,296 Z" fill="#7A4E96" stroke="#2d263c" stroke-width="7" stroke-linejoin="round" stroke-linecap="round"/>
  <path d="M 178,306 C 172,322 182,338 194,334 C 204,330 202,310 190,298 Z" fill="#7A4E96" stroke="#2d263c" stroke-width="7" stroke-linejoin="round" stroke-linecap="round"/>
  <path d="M 258,296 C 252,312 262,326 273,322 C 282,318 280,300 268,290 Z" fill="#7A4E96" stroke="#2d263c" stroke-width="7" stroke-linejoin="round" stroke-linecap="round"/>

  <path d="M 55,150 C 35,95 80,40 155,38 C 205,35 255,45 285,85 C 325,105 335,155 320,195 C 335,225 315,255 305,278 C 310,298 292,308 277,298 C 272,320 250,330 235,310 C 220,325 198,320 188,300 C 168,322 148,315 143,293 C 118,308 92,298 88,272 C 68,282 48,262 53,232 C 32,210 38,175 55,150 Z"
        fill="#7A4E96" stroke="#2d263c" stroke-width="8" stroke-linejoin="round" stroke-linecap="round"/>

  <ellipse cx="118" cy="88" rx="36" ry="26" fill="#E86FB8" opacity="0.9"/>
  <ellipse cx="248" cy="98" rx="30" ry="22" fill="#E86FB8" opacity="0.9"/>
  <ellipse cx="86" cy="222" rx="26" ry="34" fill="#E86FB8" opacity="0.85"/>
  <ellipse cx="282" cy="212" rx="24" ry="30" fill="#E86FB8" opacity="0.85"/>
  <ellipse cx="185" cy="258" rx="30" ry="20" fill="#E86FB8" opacity="0.8"/>

  <ellipse cx="110" cy="60" rx="45" ry="28" fill="#ffffff" opacity="0.16"/>

  <path d="M 118,215 C 108,250 118,280 112,300 C 105,290 100,255 108,220 Z" fill="#F3E9C9" stroke="#2d263c" stroke-width="5" stroke-linejoin="round"/>

  <ellipse cx="130" cy="155" rx="42" ry="44" fill="#ffffff" stroke="#2d263c" stroke-width="7"/>
  <ellipse cx="235" cy="150" rx="40" ry="42" fill="#ffffff" stroke="#2d263c" stroke-width="7"/>

  <circle cx="140" cy="165" r="19" fill="#2d263c"/>
  <circle cx="242" cy="160" r="18" fill="#2d263c"/>
  <circle cx="133" cy="157" r="6" fill="#ffffff"/>
  <circle cx="236" cy="152" r="5.5" fill="#ffffff"/>

  <path d="M 130,215 C 155,258 210,258 235,213 C 210,242 155,242 130,215 Z" fill="#2d263c" stroke="#2d263c" stroke-width="7" stroke-linejoin="round"/>
  <path d="M 148,222 L 158,238 L 168,222 Z" fill="#ffffff"/>
  <path d="M 178,226 L 188,242 L 198,226 Z" fill="#ffffff"/>
  <path d="M 208,222 L 216,236 L 224,220 Z" fill="#ffffff"/>

  <path d="M 165,232 C 160,255 168,280 160,300 C 154,285 150,258 158,230 Z" fill="#F3E9C9" opacity="0.9" stroke="#2d263c" stroke-width="4" stroke-linejoin="round"/>
</svg>
