<svg xmlns="http://www.w3.org/2000/svg" viewBox="0 0 360 360">
  <ellipse cx="180" cy="150" rx="108" ry="88" fill="#5fae78" stroke="#2d263c" stroke-width="8" stroke-linejoin="round"/>
  <path d="M90 150 Q100 100 180 92" fill="none" stroke="#2d263c" stroke-width="6" stroke-linecap="round"/>
  <path d="M270 150 Q260 100 180 92" fill="none" stroke="#2d263c" stroke-width="6" stroke-linecap="round"/>
  <line x1="155" y1="72" x2="140" y2="40" stroke="#2d263c" stroke-width="7" stroke-linecap="round"/>
  <line x1="205" y1="72" x2="220" y2="40" stroke="#2d263c" stroke-width="7" stroke-linecap="round"/>
  <circle cx="140" cy="36" r="10" fill="#5fae78" stroke="#2d263c" stroke-width="6" stroke-linejoin="round"/>
  <circle cx="220" cy="36" r="10" fill="#5fae78" stroke="#2d263c" stroke-width="6" stroke-linejoin="round"/>
  <circle cx="180" cy="150" r="60" fill="#f0759e" stroke="#2d263c" stroke-width="7" stroke-linejoin="round"/>
  <path d="M145 118 Q180 100 215 118" fill="none" stroke="#c94f78" stroke-width="6" stroke-linecap="round"/>
  <circle cx="153" cy="145" r="20" fill="#ffffff" stroke="#2d263c" stroke-width="6" stroke-linejoin="round"/>
  <circle cx="207" cy="145" r="20" fill="#ffffff" stroke="#2d263c" stroke-width="6" stroke-linejoin="round"/>
  <circle cx="157" cy="149" r="8" fill="#2d263c"/>
  <circle cx="203" cy="149" r="8" fill="#2d263c"/>
  <path d="M162 185 Q180 198 198 185" fill="none" stroke="#2d263c" stroke-width="6" stroke-linecap="round"/>
  <path d="M85 175 Q55 200 45 235" fill="none" stroke="#2d263c" stroke-width="9" stroke-linecap="round"/>
  <path d="M78 195 Q40 215 25 250" fill="none" stroke="#2d263c" stroke-width="9" stroke-linecap="round"/>
  <path d="M85 220 Q45 235 32 275" fill="none" stroke="#2d263c" stroke-width="9" stroke-linecap="round"/>
  <path d="M275 175 Q305 200 315 235" fill="none" stroke="#2d263c" stroke-width="9" stroke-linecap="round"/>
  <path d="M282 195 Q320 215 335 250" fill="none" stroke="#2d263c" stroke-width="9" stroke-linecap="round"/>
  <path d="M275 220 Q315 235 328 275" fill="none" stroke="#2d263c" stroke-width="9" stroke-linecap="round"/>
  <circle cx="180" cy="290" r="42" fill="#e8622c" stroke="#2d263c" stroke-width="8" stroke-linejoin="round"/>
  <path d="M160 275 Q180 265 200 275" fill="none" stroke="#f4966a" stroke-width="6" stroke-linecap="round"/>
  <path d="M120 130 Q135 165 120 195" fill="none" stroke="#3d8a5c" stroke-width="5" stroke-linecap="round"/>
  <path d="M240 130 Q225 165 240 195" fill="none" stroke="#3d8a5c" stroke-width="5" stroke-linecap="round"/>
</svg>
