<svg xmlns="http://www.w3.org/2000/svg" viewBox="0 0 360 360">
  <path d="M70,300 C50,270 55,230 75,210 C60,180 70,140 110,120 C100,90 140,60 190,65 C230,55 280,80 285,120 C310,140 305,190 285,220 C300,250 280,290 250,300 C255,325 210,335 180,330 C160,340 110,335 90,320 C80,330 65,315 70,300 Z" fill="#5c3a78" stroke="#2d263c" stroke-width="7" stroke-linejoin="round"/>

  <path d="M65,290 C42,258 50,210 78,185 C58,150 72,105 118,85 C112,55 160,35 195,45 C235,30 285,55 292,95 C320,110 322,160 298,190 C315,220 298,262 262,275 C268,300 220,315 188,305 C165,320 118,312 100,292 C85,305 68,308 65,290 Z" fill="#8a5fa8" stroke="#2d263c" stroke-width="8" stroke-linejoin="round"/>

  <path d="M75,230 C45,220 20,245 28,270 C35,292 65,295 80,278 C92,262 88,240 75,230 Z" fill="#8a5fa8" stroke="#2d263c" stroke-width="7" stroke-linejoin="round"/>

  <path d="M285,225 C315,215 340,240 332,265 C325,288 298,293 283,278 C273,262 278,238 285,225 Z" fill="#8a5fa8" stroke="#2d263c" stroke-width="7" stroke-linejoin="round"/>

  <circle cx="112" cy="82" r="18" fill="#8a5fa8" stroke="#2d263c" stroke-width="6"/>
  <circle cx="255" cy="70" r="16" fill="#8a5fa8" stroke="#2d263c" stroke-width="6"/>
  <circle cx="292" cy="150" r="14" fill="#8a5fa8" stroke="#2d263c" stroke-width="6"/>

  <path d="M90,300 C85,320 100,335 115,325 C120,315 110,300 90,300 Z" fill="#8a5fa8" stroke="#2d263c" stroke-width="6" stroke-linejoin="round"/>
  <path d="M170,308 C165,328 185,340 198,325 C200,315 188,305 170,308 Z" fill="#8a5fa8" stroke="#2d263c" stroke-width="6" stroke-linejoin="round"/>
  <path d="M235,290 C232,312 252,320 262,305 C263,295 250,288 235,290 Z" fill="#8a5fa8" stroke="#2d263c" stroke-width="6" stroke-linejoin="round"/>

  <path d="M130,190 C150,225 210,225 230,190 C215,215 145,215 130,190 Z" fill="#2d263c" stroke="#2d263c" stroke-width="6" stroke-linejoin="round"/>

  <path d="M148,196 L158,214 L168,196 Z" fill="#ffffff" stroke="#2d263c" stroke-width="6" stroke-linejoin="round"/>
  <path d="M192,196 L202,214 L212,196 Z" fill="#ffffff" stroke="#2d263c" stroke-width="6" stroke-linejoin="round"/>

  <ellipse cx="135" cy="145" rx="22" ry="26" fill="#ffffff" stroke="#2d263c" stroke-width="6"/>
  <ellipse cx="225" cy="145" rx="22" ry="26" fill="#ffffff" stroke="#2d263c" stroke-width="6"/>
  <circle cx="140" cy="152" r="10" fill="#2d263c"/>
  <circle cx="220" cy="152" r="10" fill="#2d263c"/>
  <circle cx="133" cy="146" r="3" fill="#ffffff"/>
  <circle cx="213" cy="146" r="3" fill="#ffffff"/>
</svg>
