<svg xmlns="http://www.w3.org/2000/svg" viewBox="0 0 360 360">
<g stroke="#2d263c" stroke-width="7" stroke-linejoin="round" stroke-linecap="round">
<path fill="#4a9bd6" d="M105,200 Q45,175 30,215 L55,218 Q40,240 60,245 Q90,248 108,235 Z"/>
<path fill="#4a9bd6" d="M255,198 Q315,172 332,212 L306,216 Q322,238 300,244 Q272,247 252,232 Z"/>
<path fill="#4a9bd6" d="M118,275 L78,308 L126,300 Z"/>
<path fill="#fdfdf6" d="M115,240 Q105,305 180,312 Q258,306 248,238 Q180,258 115,240 Z"/>
<path fill="#f2c23d" d="M148,300 L136,332 L150,325 L158,336 L168,327 L176,334 L178,300 Z"/>
<path fill="#f2c23d" d="M212,300 L210,334 L220,326 L230,336 L238,324 L250,331 L242,300 Z"/>
<path fill="#fdfdf6" d="M122,110 Q118,55 180,52 Q244,54 240,112 Q238,150 180,154 Q124,152 122,110 Z"/>
<path fill="#f7d34e" d="M64,176 Q56,248 130,262 Q182,272 235,260 Q304,244 296,176 Q180,162 64,176 Z"/>
<path fill="#f7d34e" d="M64,176 Q58,150 96,146 Q180,134 268,144 Q300,148 296,176 Q180,162 64,176 Z"/>
<path fill="#4a9bd6" d="M130,85 Q125,50 155,62 Q158,34 184,50 Q200,26 212,52 Q238,44 232,84 Q184,64 130,85 Z"/>
<circle fill="#2d263c" cx="160" cy="122" r="8"/>
<circle fill="#2d263c" cx="198" cy="120" r="9"/>
<circle fill="#fdfdf6" stroke="none" cx="163" cy="119" r="2.5"/>
<circle fill="#fdfdf6" stroke="none" cx="201" cy="117" r="2.5"/>
</g>
</svg>