<svg xmlns="http://www.w3.org/2000/svg" viewBox="0 0 360 360">
  <!-- 左翼（後ろ） -->
  <path d="M 60 175 C 30 140 18 105 25 75 C 32 55 50 50 65 62 C 80 75 88 100 92 130 C 96 155 95 170 90 180 Z"
        fill="#3a8bc8" stroke="#2d263c" stroke-width="7" stroke-linejoin="round" stroke-linecap="round"/>
  <!-- 左翼の先端の羽根模様 -->
  <path d="M 25 75 C 15 65 12 50 20 40 C 28 30 42 35 52 50"
        fill="#3a8bc8" stroke="#2d263c" stroke-width="6" stroke-linejoin="round" stroke-linecap="round"/>
  <path d="M 32 58 C 22 45 22 30 30 22 C 38 14 52 20 58 35"
        fill="#3a8bc8" stroke="#2d263c" stroke-width="6" stroke-linejoin="round" stroke-linecap="round"/>

  <!-- 右翼（後ろ） -->
  <path d="M 300 175 C 330 140 342 105 335 75 C 328 55 310 50 295 62 C 280 75 272 100 268 130 C 264 155 265 170 270 180 Z"
        fill="#3a8bc8" stroke="#2d263c" stroke-width="7" stroke-linejoin="round" stroke-linecap="round"/>
  <!-- 右翼の先端の羽根模様 -->
  <path d="M 335 75 C 345 65 348 50 340 40 C 332 30 318 35 308 50"
        fill="#3a8bc8" stroke="#2d263c" stroke-width="6" stroke-linejoin="round" stroke-linecap="round"/>
  <path d="M 328 58 C 338 45 338 30 330 22 C 322 14 308 20 302 35"
        fill="#3a8bc8" stroke="#2d263c" stroke-width="6" stroke-linejoin="round" stroke-linecap="round"/>

  <!-- 胴体（青い背中側・後ろ層） -->
  <ellipse cx="180" cy="190" rx="90" ry="85"
           fill="#3a8bc8" stroke="#2d263c" stroke-width="8" stroke-linejoin="round"/>

  <!-- 腹（白） -->
  <path d="M 135 175 C 128 195 128 225 138 255 C 148 278 165 292 180 293 C 195 292 212 278 222 255 C 232 225 232 195 225 175 C 215 165 195 160 180 160 C 165 160 145 165 135 175 Z"
        fill="#f0f0f0" stroke="#2d263c" stroke-width="6" stroke-linejoin="round"/>

  <!-- 左翼（前・体に被さる部分） -->
  <path d="M 95 180 C 80 160 72 135 75 108 C 78 88 92 80 108 88 C 122 96 128 118 130 145 C 132 165 128 178 120 185 Z"
        fill="#3a8bc8" stroke="#2d263c" stroke-width="7" stroke-linejoin="round" stroke-linecap="round"/>

  <!-- 右翼（前・体に被さる部分） -->
  <path d="M 265 180 C 280 160 288 135 285 108 C 282 88 268 80 252 88 C 238 96 232 118 230 145 C 228 165 232 178 240 185 Z"
        fill="#3a8bc8" stroke="#2d263c" stroke-width="7" stroke-linejoin="round" stroke-linecap="round"/>

  <!-- 尾羽 -->
  <path d="M 158 285 C 152 305 148 320 155 330 C 162 338 175 338 180 330 C 185 338 198 338 205 330 C 212 320 208 305 202 285 Z"
        fill="#3a8bc8" stroke="#2d263c" stroke-width="7" stroke-linejoin="round"/>
  <line x1="180" y1="290" x2="180" y2="328" stroke="#2d263c" stroke-width="4" stroke-linecap="round"/>

  <!-- 足（左） -->
  <path d="M 158 290 C 152 298 148 310 145 318"
        fill="none" stroke="#2d263c" stroke-width="7" stroke-linecap="round"/>
  <!-- 左足の水かき -->
  <path d="M 145 318 C 136 322 128 325 122 320 C 130 316 138 312 145 318 Z"
        fill="#e07820" stroke="#2d263c" stroke-width="5" stroke-linejoin="round"/>
  <path d="M 145 318 C 140 328 135 334 128 332 C 133 325 140 320 145 318 Z"
        fill="#e07820" stroke="#2d263c" stroke-width="5" stroke-linejoin="round"/>
  <path d="M 145 318 C 148 330 148 338 142 340 C 142 332 142 325 145 318 Z"
        fill="#e07820" stroke="#2d263c" stroke-width="5" stroke-linejoin="round"/>

  <!-- 足（右） -->
  <path d="M 202 290 C 208 298 212 310 215 318"
        fill="none" stroke="#2d263c" stroke-width="7" stroke-linecap="round"/>
  <!-- 右足の水かき -->
  <path d="M 215 318 C 224 322 232 325 238 320 C 230 316 222 312 215 318 Z"
        fill="#e07820" stroke="#2d263c" stroke-width="5" stroke-linejoin="round"/>
  <path d="M 215 318 C 220 328 225 334 232 332 C 227 325 220 320 215 318 Z"
        fill="#e07820" stroke="#2d263c" stroke-width="5" stroke-linejoin="round"/>
  <path d="M 215 318 C 212 330 212 338 218 340 C 218 332 218 325 215 318 Z"
        fill="#e07820" stroke="#2d263c" stroke-width="5" stroke-linejoin="round"/>

  <!-- 頭（青） -->
  <ellipse cx="182" cy="118" rx="62" ry="58"
           fill="#3a8bc8" stroke="#2d263c" stroke-width="8" stroke-linejoin="round"/>

  <!-- 顔の白い部分（頰〜顎） -->
  <path d="M 145 125 C 142 138 145 158 155 168 C 165 176 180 178 182 178 C 184 178 197 176 207 168 C 218 158 220 138 218 125 C 210 115 195 110 182 110 C 168 110 152 115 145 125 Z"
        fill="#f0f0f0" stroke="#2d263c" stroke-width="6" stroke-linejoin="round"/>

  <!-- 大きな嘴袋（黄色・メイン） -->
  <path d="M 148 148 C 138 158 132 175 135 198 C 138 218 152 235 170 242 C 178 245 186 245 192 242 C 210 235 222 218 224 198 C 226 175 220 158 212 148 C 205 140 195 138 182 138 C 168 138 155 140 148 148 Z"
        fill="#f0c030" stroke="#2d263c" stroke-width="7" stroke-linejoin="round"/>

  <!-- 嘴の上部（固い部分） -->
  <path d="M 155 148 C 158 138 165 130 175 126 C 182 123 188 123 192 126 C 200 130 206 138 210 148"
        fill="#f0c030" stroke="#2d263c" stroke-width="6" stroke-linejoin="round" stroke-linecap="round"/>

  <!-- 嘴の先端（くちばしの突起） -->
  <path d="M 163 242 C 158 252 160 265 170 270 C 176 273 188 273 194 270 C 204 265 206 252 200 242"
        fill="#f0c030" stroke="#2d263c" stroke-width="6" stroke-linejoin="round"/>

  <!-- 嘴袋のシワ線（ぷっくり感） -->
  <path d="M 145 178 C 152 172 168 170 182 170 C 196 170 212 172 218 178"
        fill="none" stroke="#c8a020" stroke-width="4" stroke-linecap="round"/>
  <path d="M 140 198 C 150 192 166 190 182 190 C 198 190 214 192 224 198"
        fill="none" stroke="#c8a020" stroke-width="3" stroke-linecap="round"/>

  <!-- 嘴の中央線（上下を分ける） -->
  <path d="M 152 152 C 160 148 172 146 182 146 C 192 146 204 148 212 152"
        fill="none" stroke="#2d263c" stroke-width="5" stroke-linecap="round"/>

  <!-- 左目 -->
  <ellipse cx="158" cy="110" rx="13" ry="14"
           fill="white" stroke="#2d263c" stroke-width="5"/>
  <ellipse cx="160" cy="112" rx="7" ry="7" fill="#1a1a2e"/>
  <ellipse cx="162" cy="110" rx="3" ry="3" fill="white"/>

  <!-- 右目 -->
  <ellipse cx="206" cy="110" rx="13" ry="14"
           fill="white" stroke="#2d263c" stroke-width="5"/>
  <ellipse cx="208" cy="112" rx="7" ry="7" fill="#1a1a2e"/>
  <ellipse cx="210" cy="110" rx="3" ry="3" fill="white"/>

  <!-- 眉（ちょっとムスッとした表情） -->
  <path d="M 147 100 C 152 95 160 93 167 96"
        fill="none" stroke="#2d263c" stroke-width="5" stroke-linecap="round"/>
  <path d="M 195 96 C 202 93 210 95 215 100"
        fill="none" stroke="#2d263c" stroke-width="5" stroke-linecap="round"/>

  <!-- 頭の青い部分と白い顔の境界の羽模様（頭頂部） -->
  <path d="M 165 75 C 168 65 178 60 182 58 C 186 60 194 65 198 75"
        fill="#3a8bc8" stroke="#2d263c" stroke-width="5" stroke-linejoin="round" stroke-linecap="round"/>
</svg>