<svg xmlns="http://www.w3.org/2000/svg" viewBox="0 0 360 360">
  <!-- 影 -->
  <ellipse cx="200" cy="318" rx="110" ry="13" fill="#00000022"/>

  <!-- 尾部 (後端・尖った形) -->
  <path d="M305,175 Q330,180 340,165 Q325,195 305,195 Z"
        fill="#8a2098" stroke="#2d263c" stroke-width="6" stroke-linejoin="round"/>

  <!-- 胴節 5-6個 (右から左へ繋ぐ) -->
  <!-- 胴節6 (最後尾) -->
  <ellipse cx="290" cy="185" rx="28" ry="24" fill="#8a2098" stroke="#2d263c" stroke-width="7" stroke-linejoin="round"/>
  <ellipse cx="290" cy="193" rx="22" ry="12" fill="#c060d0" stroke="#2d263c" stroke-width="4" stroke-linejoin="round"/>

  <!-- 胴節5 -->
  <ellipse cx="248" cy="183" rx="28" ry="25" fill="#8a2098" stroke="#2d263c" stroke-width="7" stroke-linejoin="round"/>
  <ellipse cx="248" cy="191" rx="22" ry="12" fill="#c060d0" stroke="#2d263c" stroke-width="4" stroke-linejoin="round"/>

  <!-- 胴節4 -->
  <ellipse cx="206" cy="180" rx="28" ry="26" fill="#8a2098" stroke="#2d263c" stroke-width="7" stroke-linejoin="round"/>
  <ellipse cx="206" cy="188" rx="22" ry="13" fill="#c060d0" stroke="#2d263c" stroke-width="4" stroke-linejoin="round"/>

  <!-- 胴節3 -->
  <ellipse cx="164" cy="178" rx="28" ry="26" fill="#8a2098" stroke="#2d263c" stroke-width="7" stroke-linejoin="round"/>
  <ellipse cx="164" cy="186" rx="22" ry="13" fill="#c060d0" stroke="#2d263c" stroke-width="4" stroke-linejoin="round"/>

  <!-- 胴節2 -->
  <ellipse cx="140" cy="178" rx="22" ry="24" fill="#8a2098" stroke="#2d263c" stroke-width="7" stroke-linejoin="round"/>
  <ellipse cx="140" cy="186" rx="17" ry="12" fill="#c060d0" stroke="#2d263c" stroke-width="4" stroke-linejoin="round"/>

  <!-- 脚 (各節から2本ずつ, 赤) -->
  <!-- 節6の脚 -->
  <path d="M278,193 Q268,215 258,225" stroke="#cc2222" stroke-width="5" stroke-linecap="round" fill="none"/>
  <path d="M302,193 Q312,215 320,222" stroke="#cc2222" stroke-width="5" stroke-linecap="round" fill="none"/>
  <!-- 節5の脚 -->
  <path d="M236,191 Q226,213 216,222" stroke="#cc2222" stroke-width="5" stroke-linecap="round" fill="none"/>
  <path d="M260,191 Q270,213 278,220" stroke="#cc2222" stroke-width="5" stroke-linecap="round" fill="none"/>
  <!-- 節4の脚 -->
  <path d="M194,188 Q184,210 174,218" stroke="#cc2222" stroke-width="5" stroke-linecap="round" fill="none"/>
  <path d="M218,188 Q228,210 235,217" stroke="#cc2222" stroke-width="5" stroke-linecap="round" fill="none"/>
  <!-- 節3の脚 -->
  <path d="M152,186 Q142,208 132,216" stroke="#cc2222" stroke-width="5" stroke-linecap="round" fill="none"/>
  <path d="M176,186 Q185,208 192,215" stroke="#cc2222" stroke-width="5" stroke-linecap="round" fill="none"/>
  <!-- 節2の脚 -->
  <path d="M128,186 Q118,206 110,213" stroke="#cc2222" stroke-width="5" stroke-linecap="round" fill="none"/>
  <path d="M152,186 Q160,206 165,212" stroke="#cc2222" stroke-width="5" stroke-linecap="round" fill="none"/>

  <!-- 頭部 -->
  <ellipse cx="108" cy="175" rx="40" ry="38" fill="#a030b0" stroke="#2d263c" stroke-width="8" stroke-linejoin="round"/>
  <!-- 頭腹側 -->
  <ellipse cx="108" cy="188" rx="30" ry="16" fill="#c060d0" stroke="#2d263c" stroke-width="4" stroke-linejoin="round"/>

  <!-- 角1 左 (先が赤) -->
  <path d="M90,142 Q75,100 68,72" stroke="#2d263c" stroke-width="6" stroke-linecap="round" fill="none"/>
  <path d="M90,142 Q78,105 72,78 Q80,90 92,118 Z"
        fill="#8a2098" stroke="#2d263c" stroke-width="5" stroke-linejoin="round"/>
  <ellipse cx="70" cy="74" rx="8" ry="6" fill="#ff4444" stroke="#2d263c" stroke-width="4" transform="rotate(-20,70,74)"/>

  <!-- 角2 右 (先が赤) -->
  <path d="M126,142 Q141,100 148,72" stroke="#2d263c" stroke-width="6" stroke-linecap="round" fill="none"/>
  <path d="M126,142 Q138,105 144,78 Q136,90 124,118 Z"
        fill="#8a2098" stroke="#2d263c" stroke-width="5" stroke-linejoin="round"/>
  <ellipse cx="146" cy="74" rx="8" ry="6" fill="#ff4444" stroke="#2d263c" stroke-width="4" transform="rotate(20,146,74)"/>

  <!-- 目 左 -->
  <circle cx="95" cy="168" r="8" fill="white" stroke="#2d263c" stroke-width="3"/>
  <circle cx="96" cy="169" r="5" fill="#cc0000"/>
  <circle cx="98" cy="167" r="2" fill="white"/>

  <!-- 目 右 -->
  <circle cx="121" cy="168" r="8" fill="white" stroke="#2d263c" stroke-width="3"/>
  <circle cx="122" cy="169" r="5" fill="#cc0000"/>
  <circle cx="124" cy="167" r="2" fill="white"/>

  <!-- 顎/牙 -->
  <path d="M88,192 Q108,205 128,192" fill="#7a1888" stroke="#2d263c" stroke-width="5" stroke-linecap="round"/>
  <!-- 牙 左 -->
  <path d="M95,195 L90,212 L100,200" fill="white" stroke="#2d263c" stroke-width="3" stroke-linejoin="round"/>
  <!-- 牙 右 -->
  <path d="M121,195 L126,212 L116,200" fill="white" stroke="#2d263c" stroke-width="3" stroke-linejoin="round"/>
</svg>
