<svg xmlns="http://www.w3.org/2000/svg" viewBox="0 0 360 360">
  <path d="M228,262 C268,278 300,258 292,222 C286,196 254,198 258,222 C260,236 276,236 274,224" fill="none" stroke="#2d263c" stroke-width="16" stroke-linecap="round"/>
  <path d="M228,262 C268,278 300,258 292,222 C286,196 254,198 258,222 C260,236 276,236 274,224" fill="none" stroke="#8257ad" stroke-width="10" stroke-linecap="round"/>

  <ellipse cx="99" cy="198" rx="30" ry="46" transform="rotate(-18 99 198)" fill="#dd6a12" stroke="#2d263c" stroke-width="7"/>
  <ellipse cx="257" cy="203" rx="27" ry="43" transform="rotate(20 257 203)" fill="#dd6a12" stroke="#2d263c" stroke-width="7"/>

  <ellipse cx="177" cy="205" rx="76" ry="86" fill="#f4841f" stroke="#2d263c" stroke-width="8"/>

  <ellipse cx="179" cy="228" rx="42" ry="55" fill="#fff4d6" stroke="#2d263c" stroke-width="6"/>

  <path d="M147,138 Q100,102 90,42 Q122,72 152,112 Q159,126 147,138 Z" fill="#7a4fa3" stroke="#2d263c" stroke-width="7" stroke-linejoin="round"/>
  <path d="M207,138 Q254,102 264,42 Q232,72 202,112 Q195,126 207,138 Z" fill="#7a4fa3" stroke="#2d263c" stroke-width="7" stroke-linejoin="round"/>

  <circle cx="128" cy="212" r="9" fill="#ffb37a" opacity="0.65"/>
  <circle cx="228" cy="216" r="9" fill="#ffb37a" opacity="0.65"/>

  <ellipse cx="150" cy="184" rx="19" ry="23" fill="#ffffff" stroke="#2d263c" stroke-width="6"/>
  <ellipse cx="206" cy="184" rx="19" ry="23" fill="#ffffff" stroke="#2d263c" stroke-width="6"/>
  <circle cx="152" cy="190" r="9" fill="#2d263c"/>
  <circle cx="208" cy="190" r="9" fill="#2d263c"/>
  <circle cx="148" cy="185" r="3" fill="#ffffff"/>
  <circle cx="204" cy="185" r="3" fill="#ffffff"/>

  <polygon points="164,215 192,215 178,236" fill="#ffce3d" stroke="#2d263c" stroke-width="6" stroke-linejoin="round"/>

  <polygon points="149,314 167,314 158,336" fill="#ffce3d" stroke="#2d263c" stroke-width="6" stroke-linejoin="round"/>
  <polygon points="196,314 214,314 205,336" fill="#ffce3d" stroke="#2d263c" stroke-width="6" stroke-linejoin="round"/>
</svg>
