<svg xmlns="http://www.w3.org/2000/svg" viewBox="0 0 360 360">
  <!-- tail (behind body) -->
  <path d="M255 235 C300 220 320 170 305 130 C298 112 282 108 278 122 C274 136 286 140 292 152 C302 172 288 205 250 215 Z" fill="#f6e9c9" stroke="#2d263c" stroke-width="7" stroke-linejoin="round" stroke-linecap="round"/>

  <!-- back legs -->
  <path d="M120 260 C112 285 108 305 112 320 C114 328 130 328 132 320 C136 300 138 280 140 262 Z" fill="#f6e9c9" stroke="#2d263c" stroke-width="7" stroke-linejoin="round"/>
  <path d="M235 260 C240 285 244 305 240 320 C238 328 222 328 220 320 C216 300 214 280 213 262 Z" fill="#f6e9c9" stroke="#2d263c" stroke-width="7" stroke-linejoin="round"/>

  <!-- front legs -->
  <path d="M145 255 C140 280 138 300 142 318 C144 326 160 326 161 318 C164 298 165 278 165 258 Z" fill="#f6e9c9" stroke="#2d263c" stroke-width="7" stroke-linejoin="round"/>
  <path d="M210 255 C215 280 217 300 213 318 C211 326 195 326 194 318 C191 298 190 278 190 258 Z" fill="#f6e9c9" stroke="#2d263c" stroke-width="7" stroke-linejoin="round"/>

  <!-- body -->
  <ellipse cx="180" cy="235" rx="80" ry="55" fill="#f6e9c9" stroke="#2d263c" stroke-width="8"/>

  <!-- neck ruff / mane -->
  <path d="M110 190 C95 175 92 150 108 138 C112 150 118 158 122 160 C118 145 122 122 140 112 C138 128 142 140 150 146 C155 128 168 112 185 108 C180 125 180 138 186 146 C196 130 212 120 228 122 C218 135 214 148 216 158 C226 148 240 145 250 152 C240 162 234 175 236 190 C220 178 200 172 180 172 C155 172 128 178 110 190 Z" fill="#fbf3dc" stroke="#2d263c" stroke-width="7" stroke-linejoin="round"/>

  <!-- head -->
  <ellipse cx="180" cy="150" rx="62" ry="52" fill="#f6e9c9" stroke="#2d263c" stroke-width="8"/>

  <!-- ears -->
  <path d="M132 118 C118 88 122 62 138 48 C144 70 152 92 158 108 Z" fill="#f6e9c9" stroke="#2d263c" stroke-width="7" stroke-linejoin="round"/>
  <path d="M228 118 C242 88 238 62 222 48 C216 70 208 92 202 108 Z" fill="#f6e9c9" stroke="#2d263c" stroke-width="7" stroke-linejoin="round"/>
  <path d="M136 108 C127 90 130 72 138 62 C142 78 147 94 152 104 Z" fill="#3a3038"/>
  <path d="M224 108 C233 90 230 72 222 62 C218 78 213 94 208 104 Z" fill="#3a3038"/>

  <!-- forehead swirl mark -->
  <path d="M180 128 C186 122 194 124 194 132 C194 140 184 140 182 133 C180 128 176 130 178 136" fill="none" stroke="#d8b978" stroke-width="6" stroke-linecap="round"/>

  <!-- eyes -->
  <ellipse cx="158" cy="150" rx="12" ry="14" fill="#e0413a" stroke="#2d263c" stroke-width="5"/>
  <ellipse cx="202" cy="150" rx="12" ry="14" fill="#e0413a" stroke="#2d263c" stroke-width="5"/>
  <circle cx="161" cy="146" r="3" fill="#fff"/>
  <circle cx="205" cy="146" r="3" fill="#fff"/>

  <!-- nose and mouth -->
  <path d="M172 172 L188 172 L180 182 Z" fill="#e88fa0" stroke="#2d263c" stroke-width="5" stroke-linejoin="round"/>
  <path d="M180 182 C176 190 168 192 162 188 M180 182 C184 190 192 192 198 188" fill="none" stroke="#2d263c" stroke-width="6" stroke-linecap="round"/>

  <!-- whiskers -->
  <path d="M120 158 L70 150 M120 166 L68 168 M240 158 L290 150 M240 166 L292 168" fill="none" stroke="#2d263c" stroke-width="4" stroke-linecap="round"/>

  <!-- tail tip curl detail -->
  <circle cx="280" cy="126" r="6" fill="none" stroke="#2d263c" stroke-width="5"/>
</svg>
