<svg xmlns="http://www.w3.org/2000/svg" viewBox="0 0 360 360">
  <g stroke="#2d263c" stroke-width="7" stroke-linejoin="round" stroke-linecap="round">
    <path d="M78 178 C 38 152, 26 104, 52 74 C 62 110, 80 132, 100 146 C 92 162, 86 172, 78 178 Z" fill="#4f7ec2"/>
    <path d="M286 184 C 330 162, 346 108, 318 78 C 306 114, 286 136, 264 150 C 272 168, 280 178, 286 184 Z" fill="#4f7ec2"/>
    <path d="M100 270 C 78 278, 62 292, 56 310 C 74 304, 90 296, 104 288 Z" fill="#4f7ec2"/>
    <ellipse cx="184" cy="282" rx="80" ry="44" fill="#f7f4ec"/>
    <path d="M138 292 L 128 332 L 142 322 L 148 336 L 158 324 L 170 332 L 162 294 Z" fill="#f0a040"/>
    <path d="M204 294 L 198 330 L 210 322 L 218 336 L 228 322 L 240 328 L 230 292 Z" fill="#f0a040"/>
    <path d="M72 208 C 58 268, 110 298, 182 298 C 254 298, 306 264, 290 204 C 228 190, 134 192, 72 208 Z" fill="#f0b830"/>
    <path d="M64 196 C 60 160, 112 142, 180 142 C 250 142, 302 162, 298 196 C 297 206, 290 211, 281 209 C 220 196, 140 197, 81 211 C 72 213, 65 206, 64 196 Z" fill="#f6c945"/>
    <path d="M90 162 C 78 92, 122 44, 181 46 C 243 44, 286 90, 274 160 C 238 148, 124 150, 90 162 Z" fill="#f7f4ec"/>
    <path d="M88 116 C 130 94, 232 92, 274 118 C 272 100, 264 84, 252 72 C 216 90, 146 90, 110 70 C 98 82, 90 100, 88 116 Z" fill="#4f7ec2"/>
  </g>
  <circle cx="142" cy="129" r="7" fill="#2d263c"/>
  <circle cx="220" cy="127" r="8.5" fill="#2d263c"/>
  <circle cx="144.5" cy="126.5" r="2.2" fill="#ffffff"/>
  <circle cx="223" cy="124" r="2.6" fill="#ffffff"/>
</svg>