<svg xmlns="http://www.w3.org/2000/svg" viewBox="0 0 360 360">
<path d="M248,255 Q300,230 315,170 Q325,120 300,85 Q290,72 293,90 Q310,125 300,165 Q285,215 235,240 Z" fill="#b9b3d6" stroke="#2d263c" stroke-width="7" stroke-linejoin="round" stroke-linecap="round"/>
<ellipse cx="300" cy="90" rx="14" ry="18" fill="#8f89b3" stroke="#2d263c" stroke-width="7"/>
<ellipse cx="110" cy="290" rx="16" ry="24" fill="#b9b3d6" stroke="#2d263c" stroke-width="7"/>
<ellipse cx="250" cy="290" rx="16" ry="24" fill="#b9b3d6" stroke="#2d263c" stroke-width="7"/>
<path d="M75,155 L100,120 L118,165 L140,115 L165,168 L180,110 L195,168 L220,115 L242,165 L260,120 L285,155 Q270,230 180,245 Q90,230 75,155 Z" fill="#8f89b3" stroke="#2d263c" stroke-width="7" stroke-linejoin="round" stroke-linecap="round"/>
<ellipse cx="180" cy="245" rx="78" ry="68" fill="#b9b3d6" stroke="#2d263c" stroke-width="7"/>
<ellipse cx="180" cy="258" rx="32" ry="46" fill="#dcd7ec" stroke="#2d263c" stroke-width="7"/>
<path d="M112,190 Q142,172 175,182 Q150,208 118,214 Z" fill="#8f89b3" stroke="#2d263c" stroke-width="7" stroke-linejoin="round" stroke-linecap="round"/>
<ellipse cx="145" cy="300" rx="20" ry="32" fill="#b9b3d6" stroke="#2d263c" stroke-width="7"/>
<ellipse cx="215" cy="300" rx="20" ry="32" fill="#b9b3d6" stroke="#2d263c" stroke-width="7"/>
<ellipse cx="145" cy="322" rx="17" ry="9" fill="#8f89b3" stroke="#2d263c" stroke-width="7"/>
<ellipse cx="215" cy="322" rx="17" ry="9" fill="#8f89b3" stroke="#2d263c" stroke-width="7"/>
<circle cx="180" cy="150" r="68" fill="#b9b3d6" stroke="#2d263c" stroke-width="7"/>
<path d="M118,100 L148,38 L168,112 Z" fill="#b9b3d6" stroke="#2d263c" stroke-width="7" stroke-linejoin="round"/>
<path d="M242,100 L212,38 L192,112 Z" fill="#b9b3d6" stroke="#2d263c" stroke-width="7" stroke-linejoin="round"/>
<path d="M129,94 L145,58 L157,99 Z" fill="#8f89b3" stroke="#2d263c" stroke-width="6" stroke-linejoin="round"/>
<path d="M231,94 L215,58 L203,99 Z" fill="#8f89b3" stroke="#2d263c" stroke-width="6" stroke-linejoin="round"/>
<circle cx="180" cy="112" r="13" fill="#d6455a" stroke="#2d263c" stroke-width="7"/>
<path d="M131,120 L173,132" fill="none" stroke="#2d263c" stroke-width="7" stroke-linecap="round"/>
<path d="M229,120 L187,132" fill="none" stroke="#2d263c" stroke-width="7" stroke-linecap="round"/>
<path d="M128,148 Q150,128 176,146 Q150,160 128,148 Z" fill="#f2c94c" stroke="#2d263c" stroke-width="7" stroke-linejoin="round"/>
<path d="M232,148 Q210,128 184,146 Q210,160 232,148 Z" fill="#f2c94c" stroke="#2d263c" stroke-width="7" stroke-linejoin="round"/>
<ellipse cx="152" cy="146" rx="4" ry="9" fill="#2d263c"/>
<ellipse cx="208" cy="146" rx="4" ry="9" fill="#2d263c"/>
<path d="M172,178 L188,178 L180,190 Z" fill="#e8879b" stroke="#2d263c" stroke-width="7" stroke-linejoin="round"/>
<path d="M160,190 Q170,200 180,190 Q190,200 200,190" fill="none" stroke="#2d263c" stroke-width="7" stroke-linecap="round"/>
<path d="M112,172 L62,160" fill="none" stroke="#2d263c" stroke-width="6" stroke-linecap="round"/>
<path d="M112,182 L62,192" fill="none" stroke="#2d263c" stroke-width="6" stroke-linecap="round"/>
<path d="M248,172 L298,160" fill="none" stroke="#2d263c" stroke-width="6" stroke-linecap="round"/>
<path d="M248,182 L298,192" fill="none" stroke="#2d263c" stroke-width="6" stroke-linecap="round"/>
</svg>
