<svg xmlns="http://www.w3.org/2000/svg" viewBox="0 0 360 360">
  <path d="M155,250 L150,290 L210,290 L205,250 Z" fill="#e8b429" stroke="#2d263c" stroke-width="7" stroke-linejoin="round" stroke-linecap="round"/>
  <path d="M150,285 L115,340 L145,320 L140,352 L180,315 L180,350 L215,320 L210,340 L210,285 Z" fill="#e63329" stroke="#2d263c" stroke-width="7" stroke-linejoin="round" stroke-linecap="round"/>

  <path d="M145,155 L25,85 L35,150 L45,205 L60,230 L112,208 L132,168 Z" fill="#e8b429" stroke="#2d263c" stroke-width="7" stroke-linejoin="round" stroke-linecap="round"/>
  <circle cx="28" cy="95" r="14" fill="#e63329" stroke="#2d263c" stroke-width="6"/>
  <circle cx="32" cy="140" r="14" fill="#f2932e" stroke="#2d263c" stroke-width="6"/>
  <circle cx="42" cy="182" r="14" fill="#7fbf5b" stroke="#2d263c" stroke-width="6"/>
  <circle cx="58" cy="218" r="14" fill="#4a90d9" stroke="#2d263c" stroke-width="6"/>

  <path d="M215,155 L335,85 L325,150 L315,205 L300,230 L248,208 L228,168 Z" fill="#e8b429" stroke="#2d263c" stroke-width="7" stroke-linejoin="round" stroke-linecap="round"/>
  <circle cx="332" cy="95" r="14" fill="#e63329" stroke="#2d263c" stroke-width="6"/>
  <circle cx="328" cy="140" r="14" fill="#f2932e" stroke="#2d263c" stroke-width="6"/>
  <circle cx="318" cy="182" r="14" fill="#7fbf5b" stroke="#2d263c" stroke-width="6"/>
  <circle cx="302" cy="218" r="14" fill="#4a90d9" stroke="#2d263c" stroke-width="6"/>

  <path d="M165,255 L155,255 L150,310 L162,310 Z" fill="#f6c945" stroke="#2d263c" stroke-width="7" stroke-linejoin="round" stroke-linecap="round"/>
  <path d="M195,255 L205,255 L210,310 L198,310 Z" fill="#f6c945" stroke="#2d263c" stroke-width="7" stroke-linejoin="round" stroke-linecap="round"/>
  <path d="M150,310 L138,328 L162,310 Z" fill="#f2932e" stroke="#2d263c" stroke-width="6" stroke-linejoin="round" stroke-linecap="round"/>
  <path d="M210,310 L222,328 L198,310 Z" fill="#f2932e" stroke="#2d263c" stroke-width="6" stroke-linejoin="round" stroke-linecap="round"/>

  <ellipse cx="180" cy="190" rx="58" ry="78" fill="#f6c945" stroke="#2d263c" stroke-width="8" stroke-linejoin="round"/>
  <ellipse cx="180" cy="205" rx="28" ry="42" fill="#fff3d6" stroke="#2d263c" stroke-width="6" stroke-linejoin="round"/>

  <circle cx="180" cy="110" r="45" fill="#f6c945" stroke="#2d263c" stroke-width="8"/>

  <path d="M150,80 L130,25 L165,70 Z" fill="#e63329" stroke="#2d263c" stroke-width="7" stroke-linejoin="round" stroke-linecap="round"/>
  <path d="M170,70 L180,15 L195,70 Z" fill="#e8b429" stroke="#2d263c" stroke-width="7" stroke-linejoin="round" stroke-linecap="round"/>
  <path d="M200,70 L235,25 L215,80 Z" fill="#e63329" stroke="#2d263c" stroke-width="7" stroke-linejoin="round" stroke-linecap="round"/>

  <path d="M165,150 L195,150 L180,172 Z" fill="#f2932e" stroke="#2d263c" stroke-width="7" stroke-linejoin="round" stroke-linecap="round"/>

  <circle cx="163" cy="105" r="9" fill="#3cba5a" stroke="#2d263c" stroke-width="6"/>
  <circle cx="197" cy="105" r="9" fill="#3cba5a" stroke="#2d263c" stroke-width="6"/>
  <circle cx="166" cy="101" r="3" fill="#ffffff" stroke="none"/>
  <circle cx="200" cy="101" r="3" fill="#ffffff" stroke="none"/>
</svg>
