<svg xmlns="http://www.w3.org/2000/svg" viewBox="0 0 360 360">
  <!-- 左耳(奥・くわ状の先端) -->
  <path d="M148 96 C104 78 78 128 84 192 C88 240 96 274 112 300 C120 313 138 309 134 292 C126 258 118 228 121 194 C124 152 142 118 164 102 C170 97 158 99 148 96Z" fill="#C99A5B" stroke="#2d263c" stroke-width="7" stroke-linejoin="round" stroke-linecap="round"/>
  <path d="M98 272 C104 290 122 304 136 296 C142 292 138 280 130 272 C120 262 106 264 98 272Z" fill="#5A3A22" stroke="#2d263c" stroke-width="6" stroke-linejoin="round" stroke-linecap="round"/>

  <!-- 右耳(奥・くわ状の先端) -->
  <path d="M212 96 C256 78 282 128 276 192 C272 240 264 274 248 300 C240 313 222 309 226 292 C234 258 242 228 239 194 C236 152 218 118 196 102 C190 97 202 99 212 96Z" fill="#DCA968" stroke="#2d263c" stroke-width="7" stroke-linejoin="round" stroke-linecap="round"/>
  <path d="M262 272 C256 290 238 304 224 296 C218 292 222 280 230 272 C240 262 254 264 262 272Z" fill="#6B4526" stroke="#2d263c" stroke-width="6" stroke-linejoin="round" stroke-linecap="round"/>

  <!-- しっぽ(体の後ろ) -->
  <ellipse cx="260" cy="270" rx="20" ry="17" fill="#F2DFB0" stroke="#2d263c" stroke-width="6"/>

  <!-- 体(丸っこいシルエット) -->
  <path d="M180 130 C232 130 262 168 264 218 C266 260 236 298 180 300 C124 298 94 260 96 218 C98 168 128 130 180 130Z" fill="#F2DFB0" stroke="#2d263c" stroke-width="8" stroke-linejoin="round" stroke-linecap="round"/>

  <!-- 背中(頭〜背の茶色パッチ) -->
  <path d="M180 130 C220 130 248 156 256 190 C230 176 204 168 180 168 C156 168 130 176 104 190 C112 156 140 130 180 130Z" fill="#B98A4E" stroke="#2d263c" stroke-width="6" stroke-linejoin="round" stroke-linecap="round"/>

  <!-- おなか(明るいパッチ) -->
  <path d="M180 210 C210 210 232 226 236 254 C222 278 200 292 180 292 C160 292 138 278 124 254 C128 226 150 210 180 210Z" fill="#FBF0D9" stroke="#2d263c" stroke-width="5" stroke-linejoin="round"/>

  <!-- 前あし -->
  <ellipse cx="140" cy="298" rx="20" ry="16" fill="#F2DFB0" stroke="#2d263c" stroke-width="6"/>
  <ellipse cx="220" cy="298" rx="20" ry="16" fill="#F2DFB0" stroke="#2d263c" stroke-width="6"/>
  <path d="M126 300 Q140 312 154 300" fill="none" stroke="#2d263c" stroke-width="4" stroke-linecap="round"/>
  <path d="M206 300 Q220 312 234 300" fill="none" stroke="#2d263c" stroke-width="4" stroke-linecap="round"/>

  <!-- 頭のアホ毛 -->
  <path d="M180 128 C176 112 182 98 192 92 C186 106 188 118 190 128Z" fill="#B98A4E" stroke="#2d263c" stroke-width="5" stroke-linejoin="round"/>

  <!-- 目 -->
  <circle cx="152" cy="210" r="13" fill="#2d263c"/>
  <circle cx="208" cy="210" r="13" fill="#2d263c"/>
  <circle cx="156" cy="205" r="4" fill="#FFFFFF"/>
  <circle cx="212" cy="205" r="4" fill="#FFFFFF"/>

  <!-- 鼻 -->
  <path d="M172 232 Q180 226 188 232 Q182 240 180 240 Q178 240 172 232Z" fill="#5A3A22" stroke="#2d263c" stroke-width="4" stroke-linejoin="round"/>

  <!-- 口 -->
  <path d="M180 240 Q180 250 168 252" fill="none" stroke="#2d263c" stroke-width="4" stroke-linecap="round"/>
  <path d="M180 240 Q180 250 192 252" fill="none" stroke="#2d263c" stroke-width="4" stroke-linecap="round"/>

  <!-- ひげ -->
  <path d="M120 226 Q140 228 152 234" fill="none" stroke="#2d263c" stroke-width="3" stroke-linecap="round"/>
  <path d="M118 240 Q138 238 150 240" fill="none" stroke="#2d263c" stroke-width="3" stroke-linecap="round"/>
  <path d="M240 226 Q220 228 208 234" fill="none" stroke="#2d263c" stroke-width="3" stroke-linecap="round"/>
  <path d="M242 240 Q222 238 210 240" fill="none" stroke="#2d263c" stroke-width="3" stroke-linecap="round"/>
</svg>
