<svg xmlns="http://www.w3.org/2000/svg" viewBox="0 0 360 360">
<ellipse cx="180" cy="300" rx="70" ry="18" fill="#dfe6ee"/>
<path d="M100 260 C70 220 60 150 100 100 C130 60 180 55 200 90 C230 80 260 100 250 140 C280 150 290 190 260 210 C270 250 230 280 190 270 C160 300 110 300 100 260 Z" fill="#f4f7fb" stroke="#2d263c" stroke-width="8" stroke-linejoin="round" stroke-linecap="round"/>
<path d="M60 130 C30 110 10 70 30 40 C50 55 65 80 75 105 Z" fill="#eef3fa" stroke="#2d263c" stroke-width="7" stroke-linejoin="round" stroke-linecap="round"/>
<path d="M40 95 C20 90 5 70 10 45 C30 55 45 70 55 90 Z" fill="#bcd4e8" stroke="#2d263c" stroke-width="6" stroke-linejoin="round" stroke-linecap="round"/>
<path d="M260 120 C300 100 330 60 320 30 C295 45 270 75 255 105 Z" fill="#eef3fa" stroke="#2d263c" stroke-width="7" stroke-linejoin="round" stroke-linecap="round"/>
<path d="M290 90 C315 80 335 55 330 30 C305 45 285 65 275 90 Z" fill="#bcd4e8" stroke="#2d263c" stroke-width="6" stroke-linejoin="round" stroke-linecap="round"/>
<path d="M90 260 C60 270 30 260 25 235 C50 235 75 245 95 255 Z" fill="#eef3fa" stroke="#2d263c" stroke-width="7" stroke-linejoin="round" stroke-linecap="round"/>
<path d="M270 250 C300 260 330 250 335 225 C310 225 285 235 265 245 Z" fill="#eef3fa" stroke="#2d263c" stroke-width="7" stroke-linejoin="round" stroke-linecap="round"/>
<path d="M120 245 C110 275 130 300 165 295 C155 275 140 258 120 245 Z" fill="#bcd4e8" stroke="#2d263c" stroke-width="6" stroke-linejoin="round" stroke-linecap="round"/>
<path d="M210 260 C215 285 195 300 175 292 C185 278 195 268 210 260 Z" fill="#bcd4e8" stroke="#2d263c" stroke-width="6" stroke-linejoin="round" stroke-linecap="round"/>
<path d="M120 95 C110 70 130 45 155 55 C145 70 135 82 120 95 Z" fill="#bcd4e8" stroke="#2d263c" stroke-width="6" stroke-linejoin="round" stroke-linecap="round"/>
<path d="M195 88 C205 65 190 45 165 52 C175 65 185 78 195 88 Z" fill="#bcd4e8" stroke="#2d263c" stroke-width="6" stroke-linejoin="round" stroke-linecap="round"/>
<circle cx="140" cy="145" r="17" fill="#fff"/>
<circle cx="140" cy="145" r="9" fill="#3ab0e0"/>
<circle cx="196" cy="145" r="17" fill="#fff"/>
<circle cx="196" cy="145" r="9" fill="#3ab0e0"/>
<path d="M120 178 Q168 198 216 178" fill="none" stroke="#2d263c" stroke-width="7" stroke-linecap="round"/>
<path d="M128 195 L138 210 L148 195" fill="#bcd4e8" stroke="#2d263c" stroke-width="5" stroke-linejoin="round"/>
<path d="M188 195 L198 210 L208 195" fill="#bcd4e8" stroke="#2d263c" stroke-width="5" stroke-linejoin="round"/>
<circle cx="118" cy="120" r="6" fill="#3ab0e0"/>
<circle cx="218" cy="120" r="6" fill="#3ab0e0"/>
</svg>
