<svg xmlns="http://www.w3.org/2000/svg" viewBox="0 0 360 360">
  <ellipse cx="180" cy="235" rx="82" ry="68" fill="#f7f4ea" stroke="#2d263c" stroke-width="7" stroke-linejoin="round"/>
  <ellipse cx="180" cy="300" rx="46" ry="24" fill="#e7e1cf" stroke="#2d263c" stroke-width="6" stroke-linejoin="round"/>
  <circle cx="180" cy="150" r="58" fill="#f7f4ea" stroke="#2d263c" stroke-width="7"/>
  <path d="M150 100 L140 40 L168 92 Z" fill="#ffffff" stroke="#2d263c" stroke-width="6" stroke-linejoin="round"/>
  <path d="M180 92 L180 28 L200 90 Z" fill="#ffffff" stroke="#2d263c" stroke-width="6" stroke-linejoin="round"/>
  <path d="M208 100 L222 42 L232 96 Z" fill="#ffffff" stroke="#2d263c" stroke-width="6" stroke-linejoin="round"/>
  <path d="M155 160 Q180 178 205 160 L198 178 Q180 190 162 178 Z" fill="#ff9d3d" stroke="#2d263c" stroke-width="6" stroke-linejoin="round"/>
  <circle cx="157" cy="140" r="12" fill="#2d263c"/>
  <circle cx="203" cy="140" r="12" fill="#2d263c"/>
  <circle cx="160" cy="137" r="3.5" fill="#ffffff"/>
  <circle cx="206" cy="137" r="3.5" fill="#ffffff"/>
  <path d="M138 120 Q152 108 170 116" fill="none" stroke="#2d263c" stroke-width="7" stroke-linecap="round"/>
  <path d="M190 116 Q208 108 222 120" fill="none" stroke="#2d263c" stroke-width="7" stroke-linecap="round"/>
  <circle cx="140" cy="160" r="12" fill="#ff9d3d" opacity="0.8"/>
  <circle cx="220" cy="160" r="12" fill="#ff9d3d" opacity="0.8"/>
  <path d="M98 210 Q60 220 55 265 Q85 260 105 235 Z" fill="#e7e1cf" stroke="#2d263c" stroke-width="7" stroke-linejoin="round"/>
  <path d="M262 210 Q300 220 305 265 Q275 260 255 235 Z" fill="#e7e1cf" stroke="#2d263c" stroke-width="7" stroke-linejoin="round"/>
  <path d="M150 296 L140 340 L162 300 Z" fill="#ffffff" stroke="#2d263c" stroke-width="6" stroke-linejoin="round"/>
  <path d="M180 300 L178 344 L198 302 Z" fill="#ffffff" stroke="#2d263c" stroke-width="6" stroke-linejoin="round"/>
  <path d="M210 296 L222 338 L198 300 Z" fill="#ffffff" stroke="#2d263c" stroke-width="6" stroke-linejoin="round"/>
  <path d="M150 296 Q150 316 142 330 Q136 314 142 298 Z" fill="#ff9d3d" stroke="#2d263c" stroke-width="6" stroke-linejoin="round"/>
  <path d="M212 330 Q206 314 212 298 Z" fill="#ff9d3d" stroke="#2d263c" stroke-width="0"/>
  <path d="M150 290 Q140 250 155 208" fill="none" stroke="#2d263c" stroke-width="5" stroke-linecap="round" opacity="0.35"/>
  <path d="M210 290 Q220 250 205 208" fill="none" stroke="#2d263c" stroke-width="5" stroke-linecap="round" opacity="0.35"/>
</svg>
