<svg xmlns="http://www.w3.org/2000/svg" viewBox="0 0 360 360">
<g stroke="#2d263c" stroke-width="7" stroke-linejoin="round" stroke-linecap="round">
<path d="M228 248 Q258 244 252 280 Q232 290 222 270 Z" fill="#b9824a"/>
<ellipse cx="180" cy="230" rx="60" ry="55" fill="#b9824a"/>
<ellipse cx="180" cy="246" rx="35" ry="34" fill="#ecd6b0"/>
<ellipse cx="180" cy="155" rx="58" ry="50" fill="#b9824a"/>
<circle cx="135" cy="170" r="20" fill="#a86f3c"/>
<circle cx="225" cy="170" r="20" fill="#a86f3c"/>
<ellipse cx="180" cy="166" rx="35" ry="27" fill="#ecd6b0"/>
<ellipse cx="148" cy="115" rx="10" ry="13" fill="#8a5a35"/>
<ellipse cx="212" cy="115" rx="10" ry="13" fill="#8a5a35"/>
<circle cx="163" cy="155" r="6" fill="#2d263c"/>
<circle cx="197" cy="155" r="6" fill="#2d263c"/>
<circle cx="180" cy="173" r="4" fill="#2d263c"/>
<path d="M180 177 L180 186 M180 186 Q172 192 166 188 M180 186 Q188 192 194 188" fill="none"/>
<ellipse cx="155" cy="283" rx="16" ry="10" fill="#8a5a35"/>
<ellipse cx="205" cy="283" rx="16" ry="10" fill="#8a5a35"/>
</g>
</svg>