<svg xmlns="http://www.w3.org/2000/svg" viewBox="0 0 360 360">
  <ellipse cx="180" cy="320" rx="90" ry="14" fill="#2d263c" opacity="0.12"/>

  <ellipse cx="140" cy="235" rx="34" ry="24" fill="#5FB9E0" stroke="#2d263c" stroke-width="7" stroke-linejoin="round"/>
  <ellipse cx="220" cy="235" rx="34" ry="24" fill="#5FB9E0" stroke="#2d263c" stroke-width="7" stroke-linejoin="round"/>

  <path d="M180 300 Q160 330 180 340 Q200 330 180 300 Z" fill="#5FB9E0" stroke="#2d263c" stroke-width="7" stroke-linejoin="round"/>

  <circle cx="180" cy="200" r="118" fill="#8FDCF6" stroke="#2d263c" stroke-width="8" stroke-linejoin="round"/>

  <path d="M85 220 Q180 300 275 220 Q275 285 180 300 Q85 285 85 220 Z" fill="#FFF5DC" stroke="#2d263c" stroke-width="7" stroke-linejoin="round"/>

  <ellipse cx="150" cy="150" rx="16" ry="18" fill="#2d263c"/>
  <ellipse cx="210" cy="150" rx="16" ry="18" fill="#2d263c"/>
  <circle cx="155" cy="144" r="4" fill="#ffffff"/>
  <circle cx="215" cy="144" r="4" fill="#ffffff"/>

  <ellipse cx="180" cy="185" rx="14" ry="10" fill="#2d263c"/>

  <ellipse cx="122" cy="185" rx="12" ry="7" fill="#FFB6C1" opacity="0.7"/>
  <ellipse cx="238" cy="185" rx="12" ry="7" fill="#FFB6C1" opacity="0.7"/>

  <path d="M150 205 Q180 220 210 205" fill="none" stroke="#2d263c" stroke-width="6" stroke-linecap="round"/>
</svg>
