<svg xmlns="http://www.w3.org/2000/svg" viewBox="0 0 360 360">
  <ellipse cx="180" cy="260" rx="22" ry="34" fill="#a97c4f" stroke="#2d263c" stroke-width="7" stroke-linejoin="round"/>
  <path d="M158 90 Q150 40 190 55 Q175 70 168 100 Z" fill="#e8933a" stroke="#2d263c" stroke-width="7" stroke-linejoin="round" stroke-linecap="round"/>
  <ellipse cx="180" cy="200" rx="95" ry="105" fill="#c9a468" stroke="#2d263c" stroke-width="8" stroke-linejoin="round"/>
  <path d="M95 190 Q60 210 75 260 Q95 250 110 220 Z" fill="#b8905a" stroke="#2d263c" stroke-width="7" stroke-linejoin="round"/>
  <path d="M265 190 Q300 210 285 260 Q265 250 250 220 Z" fill="#b8905a" stroke="#2d263c" stroke-width="7" stroke-linejoin="round"/>
  <ellipse cx="180" cy="225" rx="58" ry="68" fill="#efe0b8" stroke="#2d263c" stroke-width="7" stroke-linejoin="round"/>
  <path d="M150 300 q-8 20 -22 24" fill="none" stroke="#2d263c" stroke-width="8" stroke-linecap="round"/>
  <path d="M210 300 q8 20 22 24" fill="none" stroke="#2d263c" stroke-width="8" stroke-linecap="round"/>
  <path d="M118 320 l-14 10 M128 322 l-6 14 M138 320 l4 14" fill="none" stroke="#e8933a" stroke-width="7" stroke-linecap="round"/>
  <path d="M222 320 l14 10 M232 322 l6 14 M242 320 l-4 14" fill="none" stroke="#e8933a" stroke-width="7" stroke-linecap="round"/>
  <circle cx="155" cy="180" r="17" fill="#20161a" stroke="#2d263c" stroke-width="6"/>
  <circle cx="205" cy="180" r="17" fill="#20161a" stroke="#2d263c" stroke-width="6"/>
  <circle cx="150" cy="175" r="4" fill="#ffffff"/>
  <circle cx="200" cy="175" r="4" fill="#ffffff"/>
  <path d="M165 205 Q180 218 195 205 Q188 222 180 224 Q172 222 165 205 Z" fill="#f2a33a" stroke="#2d263c" stroke-width="6" stroke-linejoin="round"/>
</svg>
