<svg xmlns="http://www.w3.org/2000/svg" viewBox="0 0 360 360">
  <ellipse cx="180" cy="317" rx="78" ry="11" fill="#000000" opacity="0.15"/>
  <ellipse cx="132" cy="295" rx="11" ry="7" fill="#2b2b30" stroke="#2d263c" stroke-width="6"/>
  <ellipse cx="162" cy="298" rx="11" ry="7" fill="#2b2b30" stroke="#2d263c" stroke-width="6"/>
  <ellipse cx="198" cy="298" rx="11" ry="7" fill="#2b2b30" stroke="#2d263c" stroke-width="6"/>
  <ellipse cx="228" cy="295" rx="11" ry="7" fill="#2b2b30" stroke="#2d263c" stroke-width="6"/>
  <ellipse cx="180" cy="190" rx="92" ry="110" fill="#3b3540" stroke="#2d263c" stroke-width="8"/>
  <polygon points="100,128 68,140 100,153" fill="#f0c23e" stroke="#2d263c" stroke-width="6" stroke-linejoin="round"/>
  <polygon points="88,175 54,190 88,206" fill="#f0c23e" stroke="#2d263c" stroke-width="6" stroke-linejoin="round"/>
  <polygon points="100,227 68,240 100,253" fill="#f0c23e" stroke="#2d263c" stroke-width="6" stroke-linejoin="round"/>
  <polygon points="260,128 292,140 260,153" fill="#f0c23e" stroke="#2d263c" stroke-width="6" stroke-linejoin="round"/>
  <polygon points="272,175 306,190 272,206" fill="#f0c23e" stroke="#2d263c" stroke-width="6" stroke-linejoin="round"/>
  <polygon points="260,227 292,240 260,253" fill="#f0c23e" stroke="#2d263c" stroke-width="6" stroke-linejoin="round"/>
  <rect x="115" y="115" width="130" height="20" rx="10" fill="#f0c23e" stroke="#2d263c" stroke-width="6"/>
  <rect x="100" y="148" width="160" height="20" rx="10" fill="#f0c23e" stroke="#2d263c" stroke-width="6"/>
  <rect x="95" y="182" width="170" height="20" rx="10" fill="#f0c23e" stroke="#2d263c" stroke-width="6"/>
  <rect x="100" y="216" width="160" height="20" rx="10" fill="#f0c23e" stroke="#2d263c" stroke-width="6"/>
  <rect x="115" y="250" width="130" height="20" rx="10" fill="#f0c23e" stroke="#2d263c" stroke-width="6"/>
  <polygon points="150,182 140,196 158,192" fill="#2d263c"/>
  <polygon points="210,182 220,196 202,192" fill="#2d263c"/>
  <path d="M165,178 Q180,190 195,178" fill="none" stroke="#2d263c" stroke-width="6" stroke-linecap="round"/>
  <circle cx="155" cy="150" r="16" fill="#e63946" stroke="#2d263c" stroke-width="6"/>
  <circle cx="205" cy="150" r="16" fill="#e63946" stroke="#2d263c" stroke-width="6"/>
  <circle cx="150" cy="145" r="4" fill="#ffffff"/>
  <circle cx="200" cy="145" r="4" fill="#ffffff"/>
</svg>
