<svg xmlns="http://www.w3.org/2000/svg" viewBox="0 0 360 360">
  <!-- しっぽ(後ろ) -->
  <path d="M235 270 Q270 285 278 305 Q272 318 255 310 Q242 295 228 285 Z"
        fill="#3a3a48" stroke="#2d263c" stroke-width="7" stroke-linejoin="round" stroke-linecap="round"/>

  <!-- 右足(後ろ) -->
  <path d="M210 280 Q222 295 220 318 Q208 326 198 318 Q196 305 200 288 Z"
        fill="#3a3a48" stroke="#2d263c" stroke-width="7" stroke-linejoin="round" stroke-linecap="round"/>
  <!-- 右足の爪 -->
  <path d="M198 318 Q192 328 186 322 M205 320 Q202 332 196 328 M213 319 Q212 331 206 327"
        fill="none" stroke="#2d263c" stroke-width="5" stroke-linecap="round"/>

  <!-- 胴体 -->
  <path d="M105 190 Q98 220 100 258 Q108 278 148 284 Q188 290 225 278 Q252 268 254 245 Q258 218 248 195 Q238 168 215 158 Q182 148 150 152 Q118 156 105 190 Z"
        fill="#2e2e3c" stroke="#2d263c" stroke-width="8" stroke-linejoin="round"/>

  <!-- 背中装甲プレート群 -->
  <path d="M138 158 Q150 135 168 132 Q185 130 195 148 Q175 142 155 145 Z"
        fill="#8a8fa8" stroke="#2d263c" stroke-width="6" stroke-linejoin="round"/>
  <path d="M158 148 Q172 125 192 122 Q208 120 215 140 Q198 132 175 136 Z"
        fill="#9a9fb8" stroke="#2d263c" stroke-width="5" stroke-linejoin="round"/>
  <path d="M108 195 Q95 175 108 162 Q120 155 132 165 Q118 170 112 182 Z"
        fill="#8a8fa8" stroke="#2d263c" stroke-width="6" stroke-linejoin="round"/>
  <path d="M248 200 Q262 178 252 164 Q240 155 228 166 Q242 172 248 186 Z"
        fill="#8a8fa8" stroke="#2d263c" stroke-width="6" stroke-linejoin="round"/>

  <!-- 胸の逆三角プレート -->
  <path d="M148 185 Q180 178 212 186 Q205 225 180 232 Q155 228 148 185 Z"
        fill="#7a7f96" stroke="#2d263c" stroke-width="6" stroke-linejoin="round"/>
  <!-- 胸プレートのリブ線 -->
  <path d="M162 195 L175 228 M180 190 L180 232 M198 195 L185 228"
        fill="none" stroke="#5a5f72" stroke-width="3" stroke-linecap="round"/>

  <!-- 左腕 -->
  <path d="M105 198 Q80 205 72 228 Q70 245 84 250 Q100 255 112 240 Q120 225 112 208 Z"
        fill="#2e2e3c" stroke="#2d263c" stroke-width="7" stroke-linejoin="round"/>
  <!-- 左腕の爪 -->
  <path d="M72 235 Q60 240 58 252 M79 248 Q68 255 68 266 M90 252 Q83 262 84 272"
        fill="none" stroke="#2d263c" stroke-width="5" stroke-linecap="round"/>

  <!-- 右腕 -->
  <path d="M248 200 Q272 208 280 228 Q282 246 268 252 Q252 257 240 242 Q232 226 238 208 Z"
        fill="#2e2e3c" stroke="#2d263c" stroke-width="7" stroke-linejoin="round"/>
  <!-- 右腕の爪 -->
  <path d="M282 234 Q294 238 296 250 M275 250 Q285 256 284 268 M264 254 Q272 263 270 273"
        fill="none" stroke="#2d263c" stroke-width="5" stroke-linecap="round"/>

  <!-- 左足 -->
  <path d="M138 278 Q128 295 130 318 Q142 328 152 320 Q156 305 152 285 Z"
        fill="#3a3a48" stroke="#2d263c" stroke-width="7" stroke-linejoin="round"/>
  <!-- 左足の爪 -->
  <path d="M130 318 Q124 330 118 324 M138 322 Q136 334 130 330 M148 320 Q148 332 142 328"
        fill="none" stroke="#2d263c" stroke-width="5" stroke-linecap="round"/>

  <!-- 首 -->
  <path d="M148 158 Q156 140 170 136 Q185 132 198 140 Q210 152 210 162 Q192 155 170 154 Z"
        fill="#2e2e3c" stroke="#2d263c" stroke-width="7" stroke-linejoin="round"/>

  <!-- 頭部 -->
  <path d="M138 118 Q140 85 165 72 Q182 62 200 68 Q222 76 228 98 Q234 118 225 138 Q212 152 188 156 Q162 158 148 142 Q136 132 138 118 Z"
        fill="#3a3a48" stroke="#2d263c" stroke-width="8" stroke-linejoin="round"/>

  <!-- 頭部装甲プレート(背面) -->
  <path d="M148 110 Q148 85 168 75 Q182 68 196 72 Q210 78 216 96 Q200 88 178 90 Q162 92 148 110 Z"
        fill="#8a8fa8" stroke="#2d263c" stroke-width="6" stroke-linejoin="round"/>

  <!-- 角1(左・やや外向き) -->
  <path d="M158 90 Q150 68 148 48 Q154 40 162 44 Q168 50 166 70 Z"
        fill="#c0c4d4" stroke="#2d263c" stroke-width="6" stroke-linejoin="round"/>
  <!-- 角2(右・やや外向き) -->
  <path d="M202 88 Q208 66 212 46 Q218 38 226 42 Q230 50 224 70 Z"
        fill="#c0c4d4" stroke="#2d263c" stroke-width="6" stroke-linejoin="round"/>

  <!-- あご・下顔 -->
  <path d="M148 128 Q152 148 168 158 Q182 164 196 158 Q212 148 216 128 Q200 138 180 138 Q162 138 148 128 Z"
        fill="#4a4a5a" stroke="#2d263c" stroke-width="6" stroke-linejoin="round"/>

  <!-- 目(左) - 怒り顔・細め -->
  <ellipse cx="165" cy="112" rx="11" ry="9" fill="#cc1818" stroke="#2d263c" stroke-width="4"/>
  <ellipse cx="165" cy="114" rx="6" ry="5" fill="#880000"/>
  <!-- 目の光 -->
  <circle cx="168" cy="111" r="2.5" fill="#ff6666"/>
  <!-- まゆ(左) -->
  <path d="M154 103 Q163 98 176 102" fill="none" stroke="#2d263c" stroke-width="5" stroke-linecap="round"/>

  <!-- 目(右) - 怒り顔・細め -->
  <ellipse cx="198" cy="112" rx="11" ry="9" fill="#cc1818" stroke="#2d263c" stroke-width="4"/>
  <ellipse cx="198" cy="114" rx="6" ry="5" fill="#880000"/>
  <!-- 目の光 -->
  <circle cx="201" cy="111" r="2.5" fill="#ff6666"/>
  <!-- まゆ(右) -->
  <path d="M188 102 Q198 97 210 102" fill="none" stroke="#2d263c" stroke-width="5" stroke-linecap="round"/>

  <!-- 鼻の穴 -->
  <ellipse cx="177" cy="128" rx="4" ry="3" fill="#1a1a26"/>
  <ellipse cx="190" cy="128" rx="4" ry="3" fill="#1a1a26"/>

  <!-- 口(不満そうなへの字) -->
  <path d="M162 142 Q172 148 182 146 Q192 144 200 142" fill="none" stroke="#2d263c" stroke-width="5" stroke-linecap="round"/>

  <!-- 腹の装甲リブ(縦ライン追加) -->
  <path d="M155 240 Q158 268 162 280 M180 244 L180 282 M205 240 Q202 268 198 280"
        fill="none" stroke="#5a5f72" stroke-width="3.5" stroke-linecap="round"/>
</svg>