<svg xmlns="http://www.w3.org/2000/svg" viewBox="0 0 360 360">
  <!-- 蒸気(後ろ) -->
  <path d="M90 140 C78 132 86 120 96 124 C92 112 104 106 108 118 C118 110 126 120 116 130" fill="none" stroke="#e8e8ec" stroke-width="5" stroke-linecap="round" stroke-linejoin="round"/>
  <path d="M270 140 C282 132 274 120 264 124 C268 112 256 106 252 118 C242 110 234 120 244 130" fill="none" stroke="#e8e8ec" stroke-width="5" stroke-linecap="round" stroke-linejoin="round"/>

  <!-- 後ろ脚 -->
  <rect x="92" y="278" width="26" height="52" rx="12" fill="#2d6e6e" stroke="#2d263c" stroke-width="6"/>
  <rect x="242" y="278" width="26" height="52" rx="12" fill="#2d6e6e" stroke="#2d263c" stroke-width="6"/>

  <!-- 体(タンク胴) -->
  <path d="M180 150 C252 150 292 202 286 262 C280 306 240 322 180 322 C120 322 80 306 74 262 C68 202 108 150 180 150 Z" fill="#4a9a9a" stroke="#2d263c" stroke-width="8" stroke-linejoin="round"/>

  <!-- 前脚 -->
  <rect x="112" y="268" width="28" height="58" rx="13" fill="#4a9a9a" stroke="#2d263c" stroke-width="6"/>
  <rect x="220" y="268" width="28" height="58" rx="13" fill="#4a9a9a" stroke="#2d263c" stroke-width="6"/>

  <!-- 腹(赤茶) -->
  <path d="M180 200 C222 200 248 232 248 266 C248 296 216 312 180 312 C144 312 112 296 112 266 C112 232 138 200 180 200 Z" fill="#8a3a3a" stroke="#2d263c" stroke-width="6" stroke-linejoin="round"/>

  <!-- 肩の大砲(左右・リング) -->
  <circle cx="104" cy="170" r="34" fill="#2d6e6e" stroke="#2d263c" stroke-width="7"/>
  <circle cx="104" cy="170" r="18" fill="#8a3a3a" stroke="#2d263c" stroke-width="5"/>
  <circle cx="256" cy="170" r="34" fill="#2d6e6e" stroke="#2d263c" stroke-width="7"/>
  <circle cx="256" cy="170" r="18" fill="#8a3a3a" stroke="#2d263c" stroke-width="5"/>

  <!-- 鼻面/頭 -->
  <path d="M180 162 C148 162 136 184 144 206 C152 222 212 222 216 206 C224 184 212 162 180 162 Z" fill="#4a9a9a" stroke="#2d263c" stroke-width="7" stroke-linejoin="round"/>

  <!-- 目 -->
  <ellipse cx="160" cy="188" rx="9" ry="11" fill="#f4d44a" stroke="#2d263c" stroke-width="5"/>
  <ellipse cx="200" cy="188" rx="9" ry="11" fill="#f4d44a" stroke="#2d263c" stroke-width="5"/>
  <circle cx="161" cy="190" r="4" fill="#2d263c"/>
  <circle cx="199" cy="190" r="4" fill="#2d263c"/>
</svg>
