<svg xmlns="http://www.w3.org/2000/svg" viewBox="0 0 360 360"><g stroke="#2d263c" stroke-width="7" stroke-linejoin="round" stroke-linecap="round"><path d="M148,268 L143,322 L159,322 L163,270 Z" fill="#2d263c"/><path d="M212,270 L217,322 L201,322 L196,268 Z" fill="#2d263c"/><path d="M138,322 Q150,314 164,322 Q160,332 148,332 Q138,330 138,322 Z" fill="#2d263c"/><path d="M222,322 Q210,314 196,322 Q200,332 212,332 Q222,330 222,322 Z" fill="#2d263c"/><path d="M130,232 Q180,248 230,232 L238,268 Q180,286 122,268 Z" fill="#efe6cc"/><path d="M142,172 Q112,192 110,222 Q108,238 126,240 Q134,222 136,196 Q138,180 142,172 Z" fill="#2d263c"/><path d="M218,172 Q248,192 250,222 Q252,238 234,240 Q226,222 224,196 Q222,180 218,172 Z" fill="#2d263c"/><circle cx="118" cy="232" r="11" fill="#2d263c"/><circle cx="242" cy="232" r="11" fill="#2d263c"/><path d="M140,168 Q180,158 220,168 L230,232 Q180,248 130,232 Z" fill="#f7f0dc"/><path d="M180,182 L189,194 L180,206 L171,194 Z" fill="#f2909f"/><path d="M124,120 Q128,58 180,54 Q232,58 236,120 Q206,100 180,100 Q154,100 124,120 Z" fill="#3ecab8"/><circle cx="180" cy="122" r="54" fill="#f7f0dc"/><path d="M130,100 Q96,116 104,158 Q108,184 138,188 Q116,178 114,154 Q112,124 138,108 Z" fill="#3ecab8"/><path d="M230,100 Q264,116 256,158 Q252,184 222,188 Q244,178 246,154 Q248,124 222,108 Z" fill="#3ecab8"/><path d="M170,55 Q180,26 190,55 Q180,40 170,55 Z" fill="#3ecab8"/><circle cx="180" cy="30" r="9" fill="#e6b667"/><circle cx="142" cy="132" r="9" fill="#f2909f" stroke="none"/><circle cx="218" cy="132" r="9" fill="#f2909f" stroke="none"/><circle cx="160" cy="118" r="7" fill="#2d263c" stroke="none"/><circle cx="200" cy="118" r="7" fill="#2d263c" stroke="none"/><circle cx="157" cy="115" r="2" fill="#ffffff" stroke="none"/><circle cx="197" cy="115" r="2" fill="#ffffff" stroke="none"/><path d="M170,142 Q180,148 190,142" fill="none" stroke-width="5"/></g></svg>
