<svg xmlns="http://www.w3.org/2000/svg" viewBox="0 0 360 360">
  <path d="M224,226 Q308,232 338,294 Q296,310 254,288 Q226,268 216,252 Z" fill="#5c6672" stroke="#2d263c" stroke-width="7" stroke-linejoin="round" stroke-linecap="round"/>
  <path d="M128,78 Q100,50 78,26 Q108,36 150,64 Z" fill="#eef1f4" stroke="#2d263c" stroke-width="7" stroke-linejoin="round" stroke-linecap="round"/>
  <path d="M228,74 Q262,44 292,30 Q278,64 242,86 Z" fill="#eef1f4" stroke="#2d263c" stroke-width="7" stroke-linejoin="round" stroke-linecap="round"/>
  <path d="M122,196 Q102,242 116,288 Q148,314 184,314 Q222,312 246,286 Q258,240 240,194 Q180,176 122,196 Z" fill="#5c6672" stroke="#2d263c" stroke-width="7" stroke-linejoin="round" stroke-linecap="round"/>
  <path d="M136,296 Q130,328 136,336 Q158,342 172,334 Q176,318 170,300 Z" fill="#5c6672" stroke="#2d263c" stroke-width="7" stroke-linejoin="round" stroke-linecap="round"/>
  <path d="M196,300 Q192,322 198,334 Q220,340 236,330 Q240,314 232,294 Z" fill="#5c6672" stroke="#2d263c" stroke-width="7" stroke-linejoin="round" stroke-linecap="round"/>
  <path d="M132,336 l9,-12 8,12 Z M152,339 l9,-13 8,12 Z" fill="#eef1f4" stroke="#2d263c" stroke-width="6" stroke-linejoin="round" stroke-linecap="round"/>
  <path d="M198,335 l9,-13 9,12 Z M218,336 l9,-13 8,12 Z" fill="#eef1f4" stroke="#2d263c" stroke-width="6" stroke-linejoin="round" stroke-linecap="round"/>
  <path d="M120,210 Q96,238 90,268 Q104,280 120,272 Q132,246 136,222 Z" fill="#5c6672" stroke="#2d263c" stroke-width="7" stroke-linejoin="round" stroke-linecap="round"/>
  <path d="M240,206 Q266,232 272,262 Q258,276 244,268 Q234,240 228,216 Z" fill="#5c6672" stroke="#2d263c" stroke-width="7" stroke-linejoin="round" stroke-linecap="round"/>
  <path d="M90,266 l-14,14 18,2 Z M104,274 l-7,17 15,-3 Z" fill="#eef1f4" stroke="#2d263c" stroke-width="6" stroke-linejoin="round" stroke-linecap="round"/>
  <path d="M270,260 l16,12 -18,4 Z M258,270 l8,16 -15,-4 Z" fill="#eef1f4" stroke="#2d263c" stroke-width="6" stroke-linejoin="round" stroke-linecap="round"/>
  <path d="M96,198 l-24,-13 14,23 Z" fill="#eef1f4" stroke="#2d263c" stroke-width="6" stroke-linejoin="round" stroke-linecap="round"/>
  <path d="M266,192 l26,-15 -13,25 Z" fill="#eef1f4" stroke="#2d263c" stroke-width="6" stroke-linejoin="round" stroke-linecap="round"/>
  <ellipse cx="118" cy="206" rx="24" ry="18" fill="#dfe3e8" stroke="#2d263c" stroke-width="7"/>
  <ellipse cx="246" cy="201" rx="25" ry="17" fill="#dfe3e8" stroke="#2d263c" stroke-width="7"/>
  <path d="M126,236 Q180,250 238,232 L240,252 Q180,268 124,256 Z" fill="#dfe3e8" stroke="#2d263c" stroke-width="6" stroke-linejoin="round" stroke-linecap="round"/>
  <path d="M128,272 Q180,286 236,268 L238,286 Q180,302 128,292 Z" fill="#dfe3e8" stroke="#2d263c" stroke-width="6" stroke-linejoin="round" stroke-linecap="round"/>
  <path d="M126,158 Q180,178 234,156 Q242,190 218,204 Q180,216 144,204 Q120,188 126,158 Z" fill="#5c6672" stroke="#2d263c" stroke-width="7" stroke-linejoin="round" stroke-linecap="round"/>
  <path d="M140,186 Q180,202 222,184" fill="none" stroke="#2d263c" stroke-width="6" stroke-linecap="round"/>
  <path d="M150,191 l6,9 7,-12 Z M196,192 l6,9 7,-13 Z" fill="#eef1f4" stroke="#2d263c" stroke-width="5" stroke-linejoin="round" stroke-linecap="round"/>
  <path d="M112,64 Q178,34 248,66 Q270,98 262,134 Q254,160 232,164 Q180,176 130,162 Q106,154 100,124 Q96,90 112,64 Z" fill="#dfe3e8" stroke="#2d263c" stroke-width="7" stroke-linejoin="round" stroke-linecap="round"/>
  <ellipse cx="120" cy="112" rx="10" ry="12" fill="#434b58" stroke="#2d263c" stroke-width="6"/>
  <ellipse cx="242" cy="107" rx="11" ry="12" fill="#434b58" stroke="#2d263c" stroke-width="6"/>
  <ellipse cx="151" cy="133" rx="13" ry="10" fill="#8fd2ee" stroke="#2d263c" stroke-width="6"/>
  <ellipse cx="211" cy="129" rx="14" ry="11" fill="#8fd2ee" stroke="#2d263c" stroke-width="6"/>
  <circle cx="154" cy="134" r="4" fill="#2d263c"/>
  <circle cx="213" cy="130" r="4" fill="#2d263c"/>
  <path d="M171,158 L181,126 L193,159 Z" fill="#eef1f4" stroke="#2d263c" stroke-width="6" stroke-linejoin="round" stroke-linecap="round"/>
</svg>