<svg xmlns="http://www.w3.org/2000/svg" viewBox="0 0 360 360">
  <g fill="none" stroke="#2d263c" stroke-width="7" stroke-linejoin="round" stroke-linecap="round">
    <!-- back tail fin -->
    <polygon points="118,205 72,175 78,235 110,240" fill="#4E80C4"/>
    <!-- back top ridge fin -->
    <polygon points="168,72 182,32 198,74" fill="#4E80C4"/>
    <!-- left arm flipper -->
    <polygon points="128,228 96,252 108,282 142,262" fill="#EEC29E"/>
    <polygon points="100,250 96,252 108,282 116,272" fill="#4E80C4"/>
    <!-- right arm flipper -->
    <polygon points="236,232 262,258 250,286 216,266" fill="#EEC29E"/>
    <polygon points="258,254 262,258 250,286 244,278" fill="#4E80C4"/>
    <!-- body main -->
    <polygon points="180,140 232,152 252,192 246,242 210,278 180,288 150,278 114,242 108,192 130,152" fill="#EEC29E"/>
    <!-- body facet shade -->
    <polygon points="180,140 232,152 246,242 210,278 180,288" fill="#DCA97E"/>
    <!-- chest big diamond pattern -->
    <polygon points="180,182 210,214 180,254 150,214" fill="#4E80C4"/>
    <!-- chest inner triangle shade -->
    <polygon points="180,200 198,216 180,240" fill="#3A66A0"/>
    <!-- belly small diamond accent -->
    <polygon points="180,262 192,272 180,282 168,272" fill="#4E80C4"/>
    <!-- foot stubs -->
    <path d="M 150,278 Q 148,300 165,304 Q 150,296 150,278 Z" fill="#EEC29E"/>
    <path d="M 210,278 Q 212,300 195,304 Q 210,296 210,278 Z" fill="#EEC29E"/>
    <ellipse cx="160" cy="300" rx="14" ry="8" fill="#4E80C4"/>
    <ellipse cx="200" cy="300" rx="14" ry="8" fill="#4E80C4"/>
    <!-- head base -->
    <polygon points="180,66 208,78 226,104 222,132 200,150 160,150 138,132 134,104 152,78" fill="#EEC29E"/>
    <!-- head facet shade -->
    <polygon points="180,66 208,78 222,132 200,150 160,150" fill="#DCA97E"/>
    <!-- beak/snout pointing right -->
    <polygon points="222,102 256,96 260,116 224,124" fill="#4E80C4"/>
    <!-- eye background diamond -->
    <polygon points="160,100 176,112 160,128 144,112" fill="#3A66A0"/>
    <!-- pupil -->
    <circle cx="160" cy="112" r="6" fill="#161620" stroke="none"/>
    <!-- head top small fin -->
    <polygon points="176,68 188,42 198,70" fill="#4E80C4"/>
  </g>
</svg>
