<svg xmlns="http://www.w3.org/2000/svg" viewBox="0 0 360 360">
  <path d="M108,220 Q75,215 55,235 Q80,245 100,238 Q118,232 108,220 Z" fill="#7bc96f" stroke="#2d263c" stroke-width="7" stroke-linejoin="round" stroke-linecap="round"/>
  <path d="M252,220 Q285,215 305,235 Q280,245 260,238 Q242,232 252,220 Z" fill="#7bc96f" stroke="#2d263c" stroke-width="7" stroke-linejoin="round" stroke-linecap="round"/>
  <ellipse cx="150" cy="312" rx="16" ry="11" fill="#3f9d95" stroke="#2d263c" stroke-width="6" stroke-linejoin="round" stroke-linecap="round"/>
  <ellipse cx="210" cy="312" rx="16" ry="11" fill="#3f9d95" stroke="#2d263c" stroke-width="6" stroke-linejoin="round" stroke-linecap="round"/>
  <ellipse cx="180" cy="228" rx="90" ry="94" fill="#5fd0c9" stroke="#2d263c" stroke-width="8" stroke-linejoin="round" stroke-linecap="round"/>
  <g transform="rotate(120 180 140)">
    <path d="M180,140 Q158,105 172,55 Q180,38 188,55 Q202,105 180,140 Z" fill="#f2a0c8" stroke="#2d263c" stroke-width="7" stroke-linejoin="round" stroke-linecap="round"/>
  </g>
  <g transform="rotate(-120 180 140)">
    <path d="M180,140 Q158,105 172,55 Q180,38 188,55 Q202,105 180,140 Z" fill="#f2a0c8" stroke="#2d263c" stroke-width="7" stroke-linejoin="round" stroke-linecap="round"/>
  </g>
  <path d="M180,140 Q158,105 172,55 Q180,38 188,55 Q202,105 180,140 Z" fill="#f2a0c8" stroke="#2d263c" stroke-width="7" stroke-linejoin="round" stroke-linecap="round"/>
  <ellipse cx="140" cy="238" rx="14" ry="10" fill="#ffc2d6" opacity="0.7"/>
  <ellipse cx="220" cy="238" rx="14" ry="10" fill="#ffc2d6" opacity="0.7"/>
  <circle cx="155" cy="212" r="17" fill="#2d263c"/>
  <circle cx="205" cy="212" r="17" fill="#2d263c"/>
  <circle cx="150" cy="206" r="5" fill="#ffffff"/>
  <circle cx="200" cy="206" r="5" fill="#ffffff"/>
  <path d="M168,242 Q180,250 192,242" fill="none" stroke="#2d263c" stroke-width="6" stroke-linecap="round"/>
</svg>
