<svg xmlns="http://www.w3.org/2000/svg" viewBox="0 0 360 360">
  <ellipse cx="76" cy="192" rx="26" ry="58" transform="rotate(-22 76 192)" fill="#2A4F85" stroke="#2d263c" stroke-width="7" stroke-linejoin="round"/>
  <ellipse cx="284" cy="192" rx="26" ry="58" transform="rotate(22 284 192)" fill="#2A4F85" stroke="#2d263c" stroke-width="7" stroke-linejoin="round"/>
  <ellipse cx="138" cy="323" rx="34" ry="17" fill="#F5A623" stroke="#2d263c" stroke-width="7" stroke-linejoin="round"/>
  <ellipse cx="222" cy="323" rx="34" ry="17" fill="#F5A623" stroke="#2d263c" stroke-width="7" stroke-linejoin="round"/>
  <path d="M180 50 C125 50 90 95 85 150 C80 195 78 235 85 265 C92 300 130 320 180 320 C230 320 268 300 275 265 C282 235 280 195 275 150 C270 95 235 50 180 50 Z" fill="#3B6DB0" stroke="#2d263c" stroke-width="8" stroke-linejoin="round"/>
  <ellipse cx="145" cy="65" rx="19" ry="24" transform="rotate(-25 145 65)" fill="#2A4F85" stroke="#2d263c" stroke-width="6" stroke-linejoin="round"/>
  <ellipse cx="215" cy="65" rx="19" ry="24" transform="rotate(25 215 65)" fill="#2A4F85" stroke="#2d263c" stroke-width="6" stroke-linejoin="round"/>
  <ellipse cx="180" cy="228" rx="90" ry="102" fill="#FFF6DD" stroke="#2d263c" stroke-width="7" stroke-linejoin="round"/>
  <path d="M118 138 Q180 192 242 138 L233 168 Q180 210 127 168 Z" fill="#8FCBE8" stroke="#2d263c" stroke-width="6" stroke-linejoin="round"/>
  <ellipse cx="116" cy="198" rx="15" ry="9" fill="#FFC9D6"/>
  <ellipse cx="244" cy="198" rx="15" ry="9" fill="#FFC9D6"/>
  <ellipse cx="150" cy="170" rx="27" ry="31" fill="#FFFFFF" stroke="#2d263c" stroke-width="7" stroke-linejoin="round"/>
  <ellipse cx="210" cy="170" rx="27" ry="31" fill="#FFFFFF" stroke="#2d263c" stroke-width="7" stroke-linejoin="round"/>
  <circle cx="150" cy="180" r="14" fill="#22314f" stroke="#2d263c" stroke-width="6"/>
  <circle cx="210" cy="180" r="14" fill="#22314f" stroke="#2d263c" stroke-width="6"/>
  <circle cx="144" cy="171" r="5" fill="#FFFFFF"/>
  <circle cx="204" cy="171" r="5" fill="#FFFFFF"/>
  <path d="M160 202 L200 202 L180 230 Z" fill="#F5A623" stroke="#2d263c" stroke-width="7" stroke-linejoin="round"/>
</svg>
