<svg xmlns="http://www.w3.org/2000/svg" viewBox="0 0 360 360">
  <!-- 小さい手(左右・ちょっと大きさちがう) -->
  <circle cx="88" cy="206" r="20" fill="#E4E7F2" stroke="#2d263c" stroke-width="7" stroke-linejoin="round" stroke-linecap="round"/>
  <circle cx="274" cy="197" r="17" fill="#E4E7F2" stroke="#2d263c" stroke-width="7" stroke-linejoin="round" stroke-linecap="round"/>
  <!-- 頭(灰白色のまんまる・ゆるい手描き円) -->
  <path d="M180,76 C232,72 264,112 266,158 C268,210 230,247 178,249 C126,251 95,208 96,154 C97,107 132,80 180,76 Z" fill="#E4E7F2" stroke="#2d263c" stroke-width="8" stroke-linejoin="round" stroke-linecap="round"/>
  <!-- てっぺんの渦巻きアンテナ(灰色・くるん) -->
  <path d="M181,82 C175,58 183,34 205,34 C222,34 228,52 215,59 C206,63 199,55 206,49" fill="none" stroke="#2d263c" stroke-width="17" stroke-linejoin="round" stroke-linecap="round"/>
  <path d="M181,82 C175,58 183,34 205,34 C222,34 228,52 215,59 C206,63 199,55 206,49" fill="none" stroke="#A9AFC6" stroke-width="7" stroke-linejoin="round" stroke-linecap="round"/>
  <!-- 下半身の白い雲モコモコ(3つ・前に重ねる) -->
  <path d="M132,246 C106,242 88,258 90,280 C92,302 112,314 134,310 C150,322 174,322 188,310 C162,302 150,268 132,246 Z" fill="#FFFFFF" stroke="#2d263c" stroke-width="8" stroke-linejoin="round" stroke-linecap="round"/>
  <path d="M230,244 C256,240 274,256 272,278 C270,300 250,312 228,307 C216,316 200,316 190,308 C210,298 220,266 230,244 Z" fill="#FFFFFF" stroke="#2d263c" stroke-width="8" stroke-linejoin="round" stroke-linecap="round"/>
  <path d="M146,254 C140,290 152,318 181,320 C212,322 224,292 216,252 C196,266 166,266 146,254 Z" fill="#FFFFFF" stroke="#2d263c" stroke-width="8" stroke-linejoin="round" stroke-linecap="round"/>
  <!-- 目(白目+大きい黒目・左右ちょいズレ) -->
  <ellipse cx="147" cy="152" rx="17" ry="21" fill="#FFFFFF" stroke="#2d263c" stroke-width="6"/>
  <ellipse cx="215" cy="147" rx="15" ry="19" fill="#FFFFFF" stroke="#2d263c" stroke-width="6"/>
  <circle cx="150" cy="156" r="9" fill="#2d263c"/>
  <circle cx="212" cy="151" r="8" fill="#2d263c"/>
  <circle cx="153" cy="152" r="3" fill="#FFFFFF"/>
  <circle cx="215" cy="148" r="2.5" fill="#FFFFFF"/>
  <!-- 小さいにっこり口 -->
  <path d="M165,189 Q181,204 198,186" fill="none" stroke="#2d263c" stroke-width="6" stroke-linecap="round"/>
</svg>