<svg xmlns="http://www.w3.org/2000/svg" viewBox="0 0 360 360">
  <!-- 後ろ: しっぽ・後ろ足 -->
  <path d="M 268 232 q 22 -6 20 14 q -2 16 -20 10 q -6 -12 0 -24 Z" fill="#e8a24a" stroke="#2d263c" stroke-width="7" stroke-linejoin="round" stroke-linecap="round"/>
  <ellipse cx="122" cy="300" rx="26" ry="22" fill="#f4e3c4" stroke="#2d263c" stroke-width="7" stroke-linejoin="round"/>
  <ellipse cx="240" cy="300" rx="26" ry="22" fill="#f4e3c4" stroke="#2d263c" stroke-width="7" stroke-linejoin="round"/>

  <!-- 体 -->
  <ellipse cx="180" cy="235" rx="98" ry="78" fill="#f0954a" stroke="#2d263c" stroke-width="8" stroke-linejoin="round"/>
  <ellipse cx="150" cy="296" rx="28" ry="24" fill="#f4e3c4" stroke="#2d263c" stroke-width="7" stroke-linejoin="round"/>
  <ellipse cx="216" cy="296" rx="28" ry="24" fill="#f4e3c4" stroke="#2d263c" stroke-width="7" stroke-linejoin="round"/>
  <ellipse cx="180" cy="258" rx="58" ry="46" fill="#fbe9cd" stroke="#2d263c" stroke-width="7" stroke-linejoin="round"/>

  <!-- 顔 -->
  <ellipse cx="127" cy="98" rx="24" ry="30" fill="#d97a2e" stroke="#2d263c" stroke-width="7" stroke-linejoin="round"/>
  <ellipse cx="233" cy="98" rx="24" ry="30" fill="#d97a2e" stroke="#2d263c" stroke-width="7" stroke-linejoin="round"/>
  <circle cx="180" cy="150" r="82" fill="#f0954a" stroke="#2d263c" stroke-width="8" stroke-linejoin="round"/>
  <path d="M 100 108 q 80 -46 160 0 q -14 -50 -80 -50 q -66 0 -80 50 Z" fill="#d97a2e" stroke="#2d263c" stroke-width="7" stroke-linejoin="round"/>

  <circle cx="143" cy="140" r="15" fill="#fff" stroke="#2d263c" stroke-width="6"/>
  <circle cx="217" cy="140" r="15" fill="#fff" stroke="#2d263c" stroke-width="6"/>
  <circle cx="146" cy="143" r="7" fill="#2d263c"/>
  <circle cx="220" cy="143" r="7" fill="#2d263c"/>

  <ellipse cx="128" cy="168" rx="12" ry="8" fill="#ff9d9d" opacity="0.7"/>
  <ellipse cx="232" cy="168" rx="12" ry="8" fill="#ff9d9d" opacity="0.7"/>

  <ellipse cx="180" cy="180" rx="46" ry="32" fill="#4a4550" stroke="#2d263c" stroke-width="7" stroke-linejoin="round"/>
  <circle cx="164" cy="180" r="7" fill="#2d263c"/>
  <circle cx="196" cy="180" r="7" fill="#2d263c"/>
  <path d="M 178 206 q 6 14 -2 22 q -10 6 -14 -6 q -2 -12 8 -18 Z" fill="#e8543a" stroke="#2d263c" stroke-width="6" stroke-linejoin="round"/>
</svg>
