<svg xmlns="http://www.w3.org/2000/svg" viewBox="0 0 360 360">
<path d="M215 178 Q235 132 258 118 L296 150 Q252 208 208 202 Z" fill="#fdf5ec" stroke="#2d263c" stroke-width="7" stroke-linejoin="round"/>
<ellipse cx="165" cy="208" rx="86" ry="56" fill="#fdf5ec" stroke="#2d263c" stroke-width="8" stroke-linejoin="round"/>
<circle cx="266" cy="150" r="43" fill="#fdf5ec" stroke="#2d263c" stroke-width="8"/>
<ellipse cx="70" cy="185" rx="15" ry="27" transform="rotate(24 70 185)" fill="#bfe3fb" stroke="#2d263c" stroke-width="6" stroke-linejoin="round"/>
<ellipse cx="56" cy="212" rx="14" ry="25" transform="rotate(34 56 212)" fill="#f6b9d9" stroke="#2d263c" stroke-width="6" stroke-linejoin="round"/>
<ellipse cx="48" cy="240" rx="13" ry="22" transform="rotate(44 48 240)" fill="#fff3d6" stroke="#2d263c" stroke-width="6" stroke-linejoin="round"/>
<path d="M125 250 L146 250 L146 300 L125 300 Z" fill="#fdf5ec" stroke="#2d263c" stroke-width="7" stroke-linejoin="round"/>
<path d="M150 254 L171 254 L171 302 L150 302 Z" fill="#fdf5ec" stroke="#2d263c" stroke-width="7" stroke-linejoin="round"/>
<path d="M205 254 L226 254 L226 302 L205 302 Z" fill="#fdf5ec" stroke="#2d263c" stroke-width="7" stroke-linejoin="round"/>
<path d="M230 250 L251 250 L251 300 L230 300 Z" fill="#fdf5ec" stroke="#2d263c" stroke-width="7" stroke-linejoin="round"/>
<ellipse cx="135" cy="288" rx="15" ry="9" fill="#fff9f2" stroke="#2d263c" stroke-width="5"/>
<ellipse cx="160" cy="292" rx="15" ry="9" fill="#fff9f2" stroke="#2d263c" stroke-width="5"/>
<ellipse cx="215" cy="292" rx="15" ry="9" fill="#fff9f2" stroke="#2d263c" stroke-width="5"/>
<ellipse cx="240" cy="288" rx="15" ry="9" fill="#fff9f2" stroke="#2d263c" stroke-width="5"/>
<ellipse cx="135" cy="304" rx="14" ry="8" fill="#4a4a4a" stroke="#2d263c" stroke-width="6"/>
<ellipse cx="160" cy="308" rx="14" ry="8" fill="#4a4a4a" stroke="#2d263c" stroke-width="6"/>
<ellipse cx="215" cy="308" rx="14" ry="8" fill="#4a4a4a" stroke="#2d263c" stroke-width="6"/>
<ellipse cx="240" cy="304" rx="14" ry="8" fill="#4a4a4a" stroke="#2d263c" stroke-width="6"/>
<ellipse cx="138" cy="176" rx="14" ry="24" transform="rotate(-22 138 176)" fill="#f6b9d9" stroke="#2d263c" stroke-width="6" stroke-linejoin="round"/>
<ellipse cx="163" cy="156" rx="15" ry="26" transform="rotate(-27 163 156)" fill="#bfe3fb" stroke="#2d263c" stroke-width="6" stroke-linejoin="round"/>
<ellipse cx="190" cy="136" rx="15" ry="27" transform="rotate(-33 190 136)" fill="#fff3d6" stroke="#2d263c" stroke-width="6" stroke-linejoin="round"/>
<ellipse cx="216" cy="116" rx="15" ry="28" transform="rotate(-38 216 116)" fill="#f6b9d9" stroke="#2d263c" stroke-width="6" stroke-linejoin="round"/>
<ellipse cx="240" cy="100" rx="15" ry="27" transform="rotate(-42 240 100)" fill="#bfe3fb" stroke="#2d263c" stroke-width="6" stroke-linejoin="round"/>
<ellipse cx="258" cy="92" rx="12" ry="20" transform="rotate(10 258 92)" fill="#fff3d6" stroke="#2d263c" stroke-width="6" stroke-linejoin="round"/>
<path d="M244 116 L228 80 L266 108 Z" fill="#fdf5ec" stroke="#2d263c" stroke-width="6" stroke-linejoin="round"/>
<path d="M272 108 L280 66 L292 104 Z" fill="#ffe9a8" stroke="#2d263c" stroke-width="6" stroke-linejoin="round"/>
<ellipse cx="301" cy="168" rx="17" ry="12" fill="#fff9f2" stroke="#2d263c" stroke-width="6"/>
<circle cx="310" cy="168" r="3" fill="#2d263c"/>
<circle cx="281" cy="146" r="11" fill="#ffffff" stroke="#2d263c" stroke-width="6"/>
<circle cx="283" cy="146" r="6" fill="#c0245f"/>
<circle cx="285" cy="143" r="2" fill="#ffffff"/>
</svg>
