<svg xmlns="http://www.w3.org/2000/svg" viewBox="0 0 360 360">
  <!-- 尻尾 -->
  <ellipse cx="180" cy="300" rx="20" ry="12" fill="#1e4a73" stroke="#2d263c" stroke-width="7" stroke-linejoin="round"/>

  <!-- マントのような背中の羽根(左) -->
  <path d="M120,175 C95,200 88,240 100,270 L128,255 C120,225 122,195 132,175 Z" fill="#1e4a73" stroke="#2d263c" stroke-width="7" stroke-linejoin="round" stroke-linecap="round"/>
  <!-- マントのような背中の羽根(右) -->
  <path d="M240,175 C265,200 272,240 260,270 L232,255 C240,225 238,195 228,175 Z" fill="#1e4a73" stroke="#2d263c" stroke-width="7" stroke-linejoin="round" stroke-linecap="round"/>

  <!-- 体(胴体) -->
  <ellipse cx="180" cy="235" rx="82" ry="92" fill="#3a6ea8" stroke="#2d263c" stroke-width="8" stroke-linejoin="round"/>

  <!-- おなか(白っぽい水色) -->
  <ellipse cx="178" cy="245" rx="50" ry="65" fill="#eaf6fb" stroke="#2d263c" stroke-width="5" stroke-linejoin="round"/>

  <!-- おなかの星もよう -->
  <polygon points="178,205 188,225 210,228 192,242 197,264 178,252 159,264 164,242 146,228 168,225" fill="#bfe3f0" stroke="#2d263c" stroke-width="4" stroke-linejoin="round"/>

  <!-- 左ヒレ -->
  <path d="M100,205 Q75,225 82,255 Q98,258 108,238 Z" fill="#1e4a73" stroke="#2d263c" stroke-width="6" stroke-linejoin="round" stroke-linecap="round"/>
  <!-- 右ヒレ -->
  <path d="M260,205 Q285,225 278,255 Q262,258 252,238 Z" fill="#1e4a73" stroke="#2d263c" stroke-width="6" stroke-linejoin="round" stroke-linecap="round"/>

  <!-- 左足 -->
  <ellipse cx="155" cy="320" rx="20" ry="11" fill="#f0a030" stroke="#2d263c" stroke-width="6" stroke-linejoin="round"/>
  <!-- 右足 -->
  <ellipse cx="205" cy="320" rx="20" ry="11" fill="#f0a030" stroke="#2d263c" stroke-width="6" stroke-linejoin="round"/>

  <!-- 頭 -->
  <ellipse cx="180" cy="128" rx="62" ry="58" fill="#3a6ea8" stroke="#2d263c" stroke-width="8" stroke-linejoin="round"/>

  <!-- 頭のトサカ(黄色い一本角) -->
  <path d="M178,72 Q168,35 190,55 Q182,60 184,78 Z" fill="#f0c030" stroke="#2d263c" stroke-width="6" stroke-linejoin="round" stroke-linecap="round"/>

  <!-- 左目 -->
  <ellipse cx="160" cy="128" rx="13" ry="14" fill="white" stroke="#2d263c" stroke-width="4"/>
  <ellipse cx="162" cy="130" rx="8" ry="9" fill="#1a1a2e"/>
  <ellipse cx="164" cy="126" rx="3" ry="3" fill="white"/>

  <!-- 右目 -->
  <ellipse cx="200" cy="128" rx="13" ry="14" fill="white" stroke="#2d263c" stroke-width="4"/>
  <ellipse cx="202" cy="130" rx="8" ry="9" fill="#1a1a2e"/>
  <ellipse cx="204" cy="126" rx="3" ry="3" fill="white"/>

  <!-- くちばし -->
  <polygon points="168,145 192,145 180,165" fill="#3a3a3a" stroke="#2d263c" stroke-width="5" stroke-linejoin="round"/>

  <!-- ほっぺ -->
  <ellipse cx="147" cy="145" rx="9" ry="7" fill="#7fc8e8" opacity="0.6"/>
  <ellipse cx="213" cy="145" rx="9" ry="7" fill="#7fc8e8" opacity="0.6"/>
</svg>
