<svg xmlns="http://www.w3.org/2000/svg" viewBox="0 0 360 360">
  <!-- tail feathers (behind body) -->
  <path d="M225 245 L300 235 L260 270 Z" fill="#caa06a" stroke="#2d263c" stroke-width="7" stroke-linejoin="round" stroke-linecap="round"/>
  <path d="M228 260 L295 275 L250 285 Z" fill="#b98a54" stroke="#2d263c" stroke-width="7" stroke-linejoin="round" stroke-linecap="round"/>

  <!-- legs / feet -->
  <path d="M150 300 L140 335" stroke="#2d263c" stroke-width="8" stroke-linecap="round"/>
  <path d="M205 300 L218 335" stroke="#2d263c" stroke-width="8" stroke-linecap="round"/>
  <path d="M120 338 L140 335 L158 340" fill="#e79a4d" stroke="#2d263c" stroke-width="7" stroke-linejoin="round" stroke-linecap="round"/>
  <path d="M198 340 L218 335 L238 338" fill="#e79a4d" stroke="#2d263c" stroke-width="7" stroke-linejoin="round" stroke-linecap="round"/>

  <!-- left wing -->
  <path d="M95 195 C55 200 45 250 70 275 C90 260 105 235 112 210 Z" fill="#caa06a" stroke="#2d263c" stroke-width="7" stroke-linejoin="round" stroke-linecap="round"/>

  <!-- right wing -->
  <path d="M255 190 C300 190 315 235 292 265 C270 250 252 225 245 205 Z" fill="#b98a54" stroke="#2d263c" stroke-width="7" stroke-linejoin="round" stroke-linecap="round"/>

  <!-- body -->
  <path d="M180 120 C260 120 275 210 250 270 C230 315 130 315 108 270 C82 210 100 120 180 120 Z" fill="#e0b787" stroke="#2d263c" stroke-width="8" stroke-linejoin="round" stroke-linecap="round"/>

  <!-- belly patch -->
  <path d="M150 200 C175 190 200 195 210 220 C218 250 200 290 175 292 C150 290 132 250 140 222 C143 212 146 205 150 200 Z" fill="#f7ecce" stroke="#2d263c" stroke-width="6" stroke-linejoin="round" stroke-linecap="round"/>

  <!-- head -->
  <circle cx="178" cy="130" r="80" fill="#e0b787" stroke="#2d263c" stroke-width="8"/>

  <!-- crest feathers -->
  <path d="M150 65 L142 20 L168 58 Z" fill="#c9605a" stroke="#2d263c" stroke-width="6" stroke-linejoin="round" stroke-linecap="round"/>
  <path d="M178 58 L178 14 L198 55 Z" fill="#d97b6a" stroke="#2d263c" stroke-width="6" stroke-linejoin="round" stroke-linecap="round"/>
  <path d="M203 62 L215 22 L228 62 Z" fill="#c9605a" stroke="#2d263c" stroke-width="6" stroke-linejoin="round" stroke-linecap="round"/>

  <!-- cheeks -->
  <circle cx="128" cy="150" r="16" fill="#f2b3ab"/>
  <circle cx="228" cy="150" r="16" fill="#f2b3ab"/>

  <!-- eyes -->
  <circle cx="150" cy="120" r="15" fill="#fff" stroke="#2d263c" stroke-width="6"/>
  <circle cx="210" cy="120" r="15" fill="#fff" stroke="#2d263c" stroke-width="6"/>
  <circle cx="153" cy="123" r="7" fill="#2d263c"/>
  <circle cx="207" cy="123" r="7" fill="#2d263c"/>

  <!-- beak -->
  <path d="M168 152 L192 152 L180 172 Z" fill="#e8a13c" stroke="#2d263c" stroke-width="6" stroke-linejoin="round" stroke-linecap="round"/>
</svg>
