<svg xmlns="http://www.w3.org/2000/svg" viewBox="0 0 360 360">
  <rect x="85" y="235" width="22" height="80" rx="10" fill="#f8dfa8" stroke="#2d263c" stroke-width="7" stroke-linejoin="round"/>
  <ellipse cx="96" cy="316" rx="14" ry="9" fill="#c9922f" stroke="#2d263c" stroke-width="6"/>
  <rect x="125" y="235" width="22" height="80" rx="10" fill="#f8dfa8" stroke="#2d263c" stroke-width="7" stroke-linejoin="round"/>
  <ellipse cx="136" cy="316" rx="14" ry="9" fill="#c9922f" stroke="#2d263c" stroke-width="6"/>
  <path d="M80,205 C55,200 40,190 45,165 C30,155 25,130 40,105 C35,130 50,120 50,145 C60,115 55,90 75,75 C65,110 80,115 75,140 C90,120 95,100 85,80 C100,110 105,140 90,165 C100,175 95,195 80,205 Z" fill="#ff7b1a" stroke="#2d263c" stroke-width="6" stroke-linejoin="round"/>
  <path d="M75,195 C60,190 53,175 57,160 C45,150 43,135 53,120 C53,140 63,135 63,150 C70,130 67,115 80,105 C73,125 81,130 79,145 C89,132 91,118 85,105 C93,122 95,140 85,155 C91,162 87,178 75,195 Z" fill="#ffd94d"/>
  <ellipse cx="150" cy="200" rx="88" ry="52" fill="#f8dfa8" stroke="#2d263c" stroke-width="8"/>
  <rect x="175" y="235" width="22" height="85" rx="10" fill="#f8dfa8" stroke="#2d263c" stroke-width="7" stroke-linejoin="round"/>
  <ellipse cx="186" cy="321" rx="14" ry="9" fill="#c9922f" stroke="#2d263c" stroke-width="6"/>
  <rect x="213" y="235" width="22" height="85" rx="10" fill="#f8dfa8" stroke="#2d263c" stroke-width="7" stroke-linejoin="round"/>
  <ellipse cx="224" cy="321" rx="14" ry="9" fill="#c9922f" stroke="#2d263c" stroke-width="6"/>
  <ellipse cx="235" cy="180" rx="42" ry="55" fill="#f8dfa8" stroke="#2d263c" stroke-width="7"/>
  <path d="M285,185 C260,180 245,165 253,145 C235,140 225,120 237,100 C233,120 247,115 245,135 C255,110 253,85 270,68 C263,92 275,98 271,115 C283,95 290,75 280,58 C290,78 297,100 285,118 C297,112 305,95 300,78 C307,100 307,122 293,138 C300,145 295,165 285,185 Z" fill="#ff7b1a" stroke="#2d263c" stroke-width="6" stroke-linejoin="round"/>
  <path d="M280,175 C263,170 253,158 259,143 C245,138 238,122 247,108 C245,122 255,120 253,133 C261,115 260,98 273,85 C267,102 276,107 273,120 C282,105 287,90 280,78 C287,93 292,108 283,120 C292,116 298,103 295,90 C301,105 301,120 290,132 C295,138 291,153 280,175 Z" fill="#ffd94d"/>
  <polygon points="248,110 235,65 265,100" fill="#f8dfa8" stroke="#2d263c" stroke-width="7" stroke-linejoin="round"/>
  <polygon points="290,100 300,58 310,102" fill="#f8dfa8" stroke="#2d263c" stroke-width="7" stroke-linejoin="round"/>
  <circle cx="280" cy="140" r="50" fill="#f8dfa8" stroke="#2d263c" stroke-width="8"/>
  <path d="M268,95 C260,90 257,80 263,68 C258,78 265,80 265,88 C271,75 269,62 278,52 C273,65 279,68 277,78 C284,68 288,58 283,48 C289,60 291,73 282,83 C287,86 285,96 275,100 C273,97 270,97 268,95 Z" fill="#ff7b1a" stroke="#2d263c" stroke-width="5" stroke-linejoin="round"/>
  <path d="M270,90 C265,86 263,80 267,72 C264,78 268,80 268,85 C272,76 270,68 276,60 C273,68 277,70 275,77 C280,70 282,63 279,57 C283,65 284,73 278,79 C281,81 279,87 273,90 Z" fill="#ffd94d"/>
  <ellipse cx="320" cy="160" rx="18" ry="15" fill="#fff3da" stroke="#2d263c" stroke-width="6"/>
  <ellipse cx="297" cy="148" rx="9" ry="5" fill="#ff9e9e" opacity="0.5"/>
  <circle cx="290" cy="130" r="9" fill="#2d263c"/>
  <circle cx="294" cy="126" r="3" fill="#ffffff"/>
  <circle cx="332" cy="165" r="3" fill="#2d263c"/>
  <path d="M305,178 Q315,183 325,178" fill="none" stroke="#2d263c" stroke-width="5" stroke-linecap="round"/>
</svg>
