<svg xmlns="http://www.w3.org/2000/svg" viewBox="0 0 360 360">
  <path d="M75,140 C65,95 95,55 180,55 C265,55 295,95 285,140 C298,175 275,205 255,235 C270,255 260,278 240,290 C248,308 225,322 180,340 C135,322 112,308 120,290 C100,278 90,255 105,235 C85,205 62,175 75,140 Z" fill="#FFF6E0" stroke="#2d263c" stroke-width="7" stroke-linecap="round" stroke-linejoin="round"/>
  <path d="M75,195 C45,188 35,215 55,228 C68,236 85,222 78,200 Z" fill="#FFF6E0" stroke="#2d263c" stroke-width="7" stroke-linecap="round" stroke-linejoin="round"/>
  <path d="M285,195 C315,188 325,215 305,228 C292,236 275,222 282,200 Z" fill="#FFF6E0" stroke="#2d263c" stroke-width="7" stroke-linecap="round" stroke-linejoin="round"/>
  <path d="M140,90 C160,110 130,130 150,155" fill="none" stroke="#E8D9B0" stroke-width="5" stroke-linecap="round" stroke-linejoin="round"/>
  <path d="M210,100 C195,120 220,140 200,165" fill="none" stroke="#E8D9B0" stroke-width="5" stroke-linecap="round" stroke-linejoin="round"/>
  <path d="M165,22 Q180,5 195,22 Q180,15 165,22 Z" fill="#6FBE6F" stroke="#2d263c" stroke-width="6" stroke-linecap="round" stroke-linejoin="round"/>
  <path d="M160,40 C160,28 168,20 180,20 C192,20 200,28 200,40 C200,60 190,78 180,88 C170,78 160,60 160,40 Z" fill="#E8536B" stroke="#2d263c" stroke-width="7" stroke-linecap="round" stroke-linejoin="round"/>
  <ellipse cx="172" cy="45" rx="3" ry="4" fill="#FCE38A"/>
  <ellipse cx="188" cy="45" rx="3" ry="4" fill="#FCE38A"/>
  <ellipse cx="177" cy="60" rx="3" ry="4" fill="#FCE38A"/>
  <ellipse cx="183" cy="70" rx="3" ry="4" fill="#FCE38A"/>
  <circle cx="120" cy="190" r="11" fill="#FFAEC9" opacity="0.6"/>
  <circle cx="240" cy="190" r="11" fill="#FFAEC9" opacity="0.6"/>
  <ellipse cx="150" cy="160" rx="9" ry="13" fill="#2d263c"/>
  <ellipse cx="210" cy="160" rx="9" ry="13" fill="#2d263c"/>
  <circle cx="147" cy="155" r="2.5" fill="#ffffff"/>
  <circle cx="207" cy="155" r="2.5" fill="#ffffff"/>
  <path d="M165,200 Q180,210 195,200" fill="none" stroke="#2d263c" stroke-width="6" stroke-linecap="round" stroke-linejoin="round"/>
</svg>
