<svg xmlns="http://www.w3.org/2000/svg" viewBox="0 0 360 360">
<path d="M118 122 Q118 78 180 68 Q242 78 242 122 L258 222 Q180 254 102 222 Z" fill="#8a5ab8" stroke="#2d263c" stroke-width="8" stroke-linejoin="round"/>
<path d="M102 222 Q116 254 108 286 L124 288 Q132 256 120 226 Z" fill="#6b4a98" stroke="#2d263c" stroke-width="6" stroke-linejoin="round"/>
<path d="M138 238 Q142 268 128 288 L144 290 Q152 262 146 240 Z" fill="#6b4a98" stroke="#2d263c" stroke-width="6" stroke-linejoin="round"/>
<path d="M180 242 L180 294" stroke="#6b4a98" stroke-width="16" stroke-linecap="round" fill="none"/>
<path d="M222 238 Q218 268 232 288 L216 290 Q208 262 214 240 Z" fill="#6b4a98" stroke="#2d263c" stroke-width="6" stroke-linejoin="round"/>
<path d="M258 222 Q244 254 252 286 L236 288 Q228 256 240 226 Z" fill="#6b4a98" stroke="#2d263c" stroke-width="6" stroke-linejoin="round"/>
<circle cx="150" cy="162" r="23" fill="#fff" stroke="#2d263c" stroke-width="5"/>
<circle cx="210" cy="162" r="23" fill="#fff" stroke="#2d263c" stroke-width="5"/>
<circle cx="153" cy="165" r="12" fill="#2d263c"/>
<circle cx="213" cy="165" r="12" fill="#2d263c"/>
<circle cx="157" cy="160" r="4" fill="#fff"/>
<circle cx="217" cy="160" r="4" fill="#fff"/>
<path d="M168 198 Q180 204 192 198" fill="none" stroke="#2d263c" stroke-width="4" stroke-linecap="round"/>
<circle cx="180" cy="108" r="9" fill="#f0d048" stroke="#2d263c" stroke-width="3"/>
<circle cx="144" cy="118" r="6" fill="#f0d048"/>
<circle cx="216" cy="118" r="6" fill="#f0d048"/>
</svg>
