<svg xmlns="http://www.w3.org/2000/svg" viewBox="0 0 360 360">
  <!-- spikes around the seed-pod body -->
  <path d="M320,190 L290,172 L290,208 Z" fill="#e6dcc0" stroke="#2d263c" stroke-width="7" stroke-linejoin="round" stroke-linecap="round"/>
  <path d="M279,289 L245,280.5 L270.5,255 Z" fill="#e6dcc0" stroke="#2d263c" stroke-width="7" stroke-linejoin="round" stroke-linecap="round"/>
  <path d="M180,330 L162,300 L198,300 Z" fill="#e6dcc0" stroke="#2d263c" stroke-width="7" stroke-linejoin="round" stroke-linecap="round"/>
  <path d="M81,289 L89.5,255.1 L114.9,280.5 Z" fill="#e6dcc0" stroke="#2d263c" stroke-width="7" stroke-linejoin="round" stroke-linecap="round"/>
  <path d="M40,190 L70,172 L70,208 Z" fill="#e6dcc0" stroke="#2d263c" stroke-width="7" stroke-linejoin="round" stroke-linecap="round"/>
  <path d="M81,91 L114.9,99.5 L89.5,124.9 Z" fill="#e6dcc0" stroke="#2d263c" stroke-width="7" stroke-linejoin="round" stroke-linecap="round"/>
  <path d="M180,50 L198,80 L162,80 Z" fill="#e6dcc0" stroke="#2d263c" stroke-width="7" stroke-linejoin="round" stroke-linecap="round"/>
  <path d="M279,91 L270.5,124.9 L245.1,99.5 Z" fill="#e6dcc0" stroke="#2d263c" stroke-width="7" stroke-linejoin="round" stroke-linecap="round"/>

  <!-- leafy sprout on top (araucaria-seed motif) -->
  <ellipse cx="180" cy="85" rx="15" ry="11" fill="#8a6a42" stroke="#2d263c" stroke-width="6"/>
  <path d="M170,88 Q175,45 180,24 Q186,45 191,88 Z" fill="#6fa84f" stroke="#2d263c" stroke-width="6" stroke-linejoin="round"/>
  <path d="M151,96 Q123,58 109,32 Q137,55 160,92 Z" fill="#6fa84f" stroke="#2d263c" stroke-width="6" stroke-linejoin="round"/>
  <path d="M209,96 Q237,58 251,32 Q223,55 200,92 Z" fill="#6fa84f" stroke="#2d263c" stroke-width="6" stroke-linejoin="round"/>

  <!-- main round body -->
  <circle cx="180" cy="190" r="110" fill="#f2ead6" stroke="#2d263c" stroke-width="8"/>
  <!-- lower half in muted red-brown, split by the seam -->
  <path d="M70,190 A110,110 0 0 0 290,190 Z" fill="#a8402f" stroke="#2d263c" stroke-width="8" stroke-linejoin="round"/>

  <!-- center button (classic ball-family mark) -->
  <circle cx="180" cy="190" r="24" fill="#f2ead6" stroke="#2d263c" stroke-width="7"/>
  <circle cx="180" cy="190" r="9" fill="#2d263c"/>

  <!-- shine -->
  <ellipse cx="140" cy="138" rx="17" ry="9" fill="#ffffff" opacity="0.55"/>

  <!-- doodle face on the pale top -->
  <circle cx="143" cy="150" r="15" fill="#fdf9f0" stroke="#2d263c" stroke-width="6"/>
  <circle cx="145" cy="153" r="6" fill="#2d263c"/>
  <circle cx="217" cy="150" r="15" fill="#fdf9f0" stroke="#2d263c" stroke-width="6"/>
  <circle cx="215" cy="153" r="6" fill="#2d263c"/>
  <path d="M158,175 Q180,190 202,175" fill="none" stroke="#2d263c" stroke-width="7" stroke-linecap="round"/>
</svg>
