<svg xmlns="http://www.w3.org/2000/svg" viewBox="0 0 360 360">
  <ellipse cx="153" cy="314" rx="17" ry="11" fill="#e8e0d0" stroke="#2d263c" stroke-width="6"/>
  <ellipse cx="207" cy="314" rx="17" ry="11" fill="#e8e0d0" stroke="#2d263c" stroke-width="6"/>
  <path d="M120 232 Q66 238 74 284 Q96 278 112 262 Q122 252 126 246 Z" fill="#f2ece0" stroke="#2d263c" stroke-width="7" stroke-linejoin="round"/>
  <path d="M240 232 Q294 238 286 284 Q264 278 248 262 Q238 252 234 246 Z" fill="#f2ece0" stroke="#2d263c" stroke-width="7" stroke-linejoin="round"/>
  <path d="M144 310 Q138 220 180 200 Q222 220 216 310 Z" fill="#f2ece0" stroke="#2d263c" stroke-width="8" stroke-linejoin="round"/>
  <path d="M68 158 Q68 68 180 68 Q292 68 292 158 Q292 184 260 184 Q180 206 100 184 Q68 184 68 158 Z" fill="#c77ba0" stroke="#2d263c" stroke-width="8" stroke-linejoin="round"/>
  <path d="M100 184 Q180 202 260 184" fill="none" stroke="#a85e85" stroke-width="5" stroke-linecap="round"/>
  <circle cx="158" cy="240" r="17" fill="#2d263c"/>
  <circle cx="202" cy="240" r="17" fill="#2d263c"/>
  <circle cx="163" cy="235" r="5" fill="#ffffff"/>
  <circle cx="207" cy="235" r="5" fill="#ffffff"/>
  <path d="M170 268 Q180 276 190 268" fill="none" stroke="#2d263c" stroke-width="5" stroke-linecap="round"/>
</svg>
