<svg xmlns="http://www.w3.org/2000/svg" viewBox="0 0 360 360">
  <!-- ダイマックス光る地面 -->
  <ellipse cx="180" cy="330" rx="100" ry="14" fill="#D8401E" opacity="0.2"/>
  <!-- 尻尾の炎(根元) -->
  <path d="M78 302 Q48 278 60 252 Q74 270 80 262 Q72 232 96 228 Q88 260 106 270 Q84 294 90 310 Q68 314 78 302Z" fill="#F0A020" stroke="#2d263c" stroke-width="6" stroke-linejoin="round"/>
  <!-- 頭上の大炎(奥・中央) -->
  <path d="M140 66 Q116 32 144 18 Q146 44 160 34 Q156 60 176 50 Q182 24 204 26 Q194 54 210 64 Q178 80 140 66Z" fill="#F2C032" stroke="#2d263c" stroke-width="7" stroke-linejoin="round"/>
  <!-- 頭上の炎(左) -->
  <path d="M118 88 Q98 66 110 46 Q120 62 126 56 Q120 78 136 84 Q126 96 118 88Z" fill="#F0A020" stroke="#2d263c" stroke-width="6" stroke-linejoin="round"/>
  <!-- 頭上の炎(右) -->
  <path d="M222 90 Q246 70 236 48 Q224 64 220 56 Q222 80 206 86 Q216 96 222 90Z" fill="#F0A020" stroke="#2d263c" stroke-width="6" stroke-linejoin="round"/>
  <!-- 胴(下段・土台) -->
  <ellipse cx="176" cy="303" rx="78" ry="42" fill="#2a1a20" stroke="#2d263c" stroke-width="8"/>
  <!-- 胴(第2節) -->
  <ellipse cx="208" cy="252" rx="70" ry="44" fill="#33202a" stroke="#2d263c" stroke-width="8"/>
  <!-- 胴(第3節) -->
  <ellipse cx="152" cy="198" rx="64" ry="42" fill="#2a1a20" stroke="#2d263c" stroke-width="8"/>
  <!-- 胴(第4節) -->
  <ellipse cx="198" cy="144" rx="56" ry="40" fill="#33202a" stroke="#2d263c" stroke-width="8"/>
  <!-- 頭 -->
  <ellipse cx="166" cy="88" rx="52" ry="46" fill="#3a2028" stroke="#2d263c" stroke-width="8"/>
  <!-- 大あご(上) -->
  <path d="M204 58 Q234 44 232 20 Q216 30 208 46" fill="#F0A020" stroke="#2d263c" stroke-width="6" stroke-linejoin="round"/>
  <!-- 大あご(下) -->
  <path d="M204 118 Q234 132 232 156 Q216 146 208 130" fill="#F0A020" stroke="#2d263c" stroke-width="6" stroke-linejoin="round"/>
  <!-- 目(白目) -->
  <ellipse cx="188" cy="80" rx="13" ry="16" fill="#FFF6E0" stroke="#2d263c" stroke-width="5"/>
  <!-- 目(瞳) -->
  <ellipse cx="192" cy="84" rx="6" ry="8" fill="#241f2e"/>
  <!-- 頭のハイライト -->
  <ellipse cx="148" cy="70" rx="14" ry="9" fill="#5a3440" opacity="0.7"/>
  <!-- 節の光る線(4本) -->
  <path d="M112 258 Q112 296 112 300 M188 210 Q188 250 188 250 M128 156 Q128 198 128 198 M170 108 Q170 148 170 148" fill="none" stroke="#F2A83C" stroke-width="6" stroke-linecap="round"/>
  <!-- 燃える亀裂(赤) -->
  <path d="M144 270 L160 288 M228 236 L212 218 M120 180 L138 200 M212 130 L196 150" fill="none" stroke="#E8401E" stroke-width="5" stroke-linecap="round"/>
  <!-- 足(左) -->
  <path d="M108 288 L84 296 M138 244 L112 250 M92 190 L66 196 M148 138 L124 132" fill="none" stroke="#7A2E12" stroke-width="6" stroke-linecap="round"/>
  <!-- 足(右) -->
  <path d="M244 288 L268 296 M276 244 L302 250 M212 190 L238 196 M244 138 L268 132" fill="none" stroke="#7A2E12" stroke-width="6" stroke-linecap="round"/>
  <!-- ダイマックス粒子 -->
  <circle cx="60" cy="220" r="6" fill="#FF5A3C" opacity="0.6"/>
  <circle cx="304" cy="200" r="5" fill="#FF5A3C" opacity="0.6"/>
  <circle cx="284" cy="320" r="6" fill="#FF5A3C" opacity="0.5"/>
</svg>
