<svg xmlns="http://www.w3.org/2000/svg" viewBox="0 0 360 360">
  <!-- ホイップクリームの渦巻きツノ(一番後ろ) -->
  <ellipse cx="185" cy="62" rx="18" ry="14" fill="#FFF0F5" stroke="#2d263c" stroke-width="6" stroke-linejoin="round"/>
  <path d="M167 72 Q158 55 168 42 Q178 28 192 38 Q205 48 198 62 Q192 74 180 70 Q168 66 172 54 Q176 44 184 48 Q190 52 187 60" fill="none" stroke="#2d263c" stroke-width="7" stroke-linecap="round" stroke-linejoin="round"/>
  <path d="M167 72 Q158 55 168 42 Q178 28 192 38 Q205 48 198 62 Q192 74 180 70 Q168 66 172 54 Q176 44 184 48 Q190 52 187 60" fill="#FFE8F0" stroke="none"/>

  <!-- ホイップツノ本体(ソフトクリーム形) -->
  <path d="M162 88 Q155 60 168 42 Q178 25 196 36 Q210 48 204 70 Q198 86 185 88 Z" fill="#FFF5FA" stroke="#2d263c" stroke-width="7" stroke-linejoin="round"/>
  <path d="M168 75 Q172 55 182 46" fill="none" stroke="#2d263c" stroke-width="4" stroke-linecap="round"/>
  <path d="M185 48 Q192 56 191 68" fill="none" stroke="#2d263c" stroke-width="4" stroke-linecap="round"/>

  <!-- 小さなハート(頭のアクセント) -->
  <path d="M145 95 Q143 90 148 90 Q153 90 150 95 Q148 99 145 95Z" fill="#FF9EC0" stroke="#2d263c" stroke-width="3"/>
  <path d="M210 88 Q208 83 213 83 Q218 83 215 88 Q213 92 210 88Z" fill="#FF9EC0" stroke="#2d263c" stroke-width="3"/>

  <!-- 体(クリーム色の丸い胴体) -->
  <ellipse cx="182" cy="200" rx="88" ry="82" fill="#F5E8CC" stroke="#2d263c" stroke-width="8" stroke-linejoin="round"/>

  <!-- コーン(ワッフルスカート部分) -->
  <path d="M112 240 Q95 290 182 320 Q268 290 250 240 Z" fill="#D4A76A" stroke="#2d263c" stroke-width="8" stroke-linejoin="round"/>
  <!-- コーン格子模様 -->
  <line x1="130" y1="245" x2="165" y2="315" stroke="#2d263c" stroke-width="3" stroke-linecap="round"/>
  <line x1="155" y1="242" x2="178" y2="318" stroke="#2d263c" stroke-width="3" stroke-linecap="round"/>
  <line x1="182" y1="241" x2="182" y2="320" stroke="#2d263c" stroke-width="3" stroke-linecap="round"/>
  <line x1="208" y1="242" x2="185" y2="318" stroke="#2d263c" stroke-width="3" stroke-linecap="round"/>
  <line x1="232" y1="245" x2="200" y2="315" stroke="#2d263c" stroke-width="3" stroke-linecap="round"/>
  <path d="M115 256 Q182 272 248 256" fill="none" stroke="#2d263c" stroke-width="3" stroke-linecap="round"/>
  <path d="M120 270 Q182 288 242 270" fill="none" stroke="#2d263c" stroke-width="3" stroke-linecap="round"/>
  <path d="M126 284 Q182 300 236 284" fill="none" stroke="#2d263c" stroke-width="3" stroke-linecap="round"/>

  <!-- おなか(クリーム内側の丸) -->
  <ellipse cx="182" cy="195" rx="58" ry="52" fill="#FFFBF0" stroke="#2d263c" stroke-width="4" stroke-linejoin="round"/>

  <!-- 目(左・大きくてキラキラ) -->
  <ellipse cx="158" cy="188" rx="17" ry="20" fill="#ffffff" stroke="#2d263c" stroke-width="6"/>
  <ellipse cx="160" cy="191" rx="11" ry="13" fill="#3a2060"/>
  <ellipse cx="163" cy="185" rx="5" ry="6" fill="#6040B0"/>
  <ellipse cx="153" cy="182" rx="4" ry="4" fill="#ffffff"/>
  <ellipse cx="165" cy="196" rx="2" ry="2" fill="#ffffff"/>

  <!-- 目(右・大きくてキラキラ) -->
  <ellipse cx="208" cy="186" rx="16" ry="20" fill="#ffffff" stroke="#2d263c" stroke-width="6"/>
  <ellipse cx="210" cy="189" rx="11" ry="13" fill="#3a2060"/>
  <ellipse cx="213" cy="183" rx="5" ry="6" fill="#6040B0"/>
  <ellipse cx="203" cy="180" rx="4" ry="4" fill="#ffffff"/>
  <ellipse cx="216" cy="194" rx="2" ry="2" fill="#ffffff"/>

  <!-- ほっぺのチーク -->
  <ellipse cx="140" cy="210" rx="14" ry="9" fill="#FFB8D0" opacity="0.75"/>
  <ellipse cx="226" cy="208" rx="14" ry="9" fill="#FFB8D0" opacity="0.75"/>

  <!-- 口(にっこり) -->
  <path d="M168 218 Q182 232 197 218" fill="none" stroke="#2d263c" stroke-width="6" stroke-linecap="round"/>

  <!-- 体の周りのハート飾り -->
  <path d="M105 175 Q102 169 108 169 Q114 169 110 175 Q107 180 105 175Z" fill="#FF9EC0" stroke="#2d263c" stroke-width="3"/>
  <path d="M252 168 Q249 162 255 162 Q261 162 257 168 Q254 173 252 168Z" fill="#FF9EC0" stroke="#2d263c" stroke-width="3"/>
  <path d="M120 148 Q117 142 123 142 Q129 142 125 148 Q122 153 120 148Z" fill="#FFD0E8" stroke="#2d263c" stroke-width="3"/>
  <path d="M240 145 Q237 139 243 139 Q249 139 245 145 Q242 150 240 145Z" fill="#FFD0E8" stroke="#2d263c" stroke-width="3"/>

  <!-- 小さな手(左) -->
  <ellipse cx="104" cy="222" rx="22" ry="16" fill="#F5E8CC" stroke="#2d263c" stroke-width="6" stroke-linejoin="round"/>
  <path d="M90 215 Q85 208 92 207" fill="none" stroke="#2d263c" stroke-width="5" stroke-linecap="round"/>
  <path d="M98 210 Q96 202 103 202" fill="none" stroke="#2d263c" stroke-width="5" stroke-linecap="round"/>
  <path d="M109 209 Q110 201 116 203" fill="none" stroke="#2d263c" stroke-width="5" stroke-linecap="round"/>

  <!-- 小さな手(右) -->
  <ellipse cx="260" cy="220" rx="22" ry="16" fill="#F5E8CC" stroke="#2d263c" stroke-width="6" stroke-linejoin="round"/>
  <path d="M248 211 Q246 203 253 203" fill="none" stroke="#2d263c" stroke-width="5" stroke-linecap="round"/>
  <path d="M259 209 Q260 201 266 203" fill="none" stroke="#2d263c" stroke-width="5" stroke-linecap="round"/>
  <path d="M270 213 Q275 206 280 210" fill="none" stroke="#2d263c" stroke-width="5" stroke-linecap="round"/>

  <!-- 体のアウトライン再描画(一番上) -->
  <ellipse cx="182" cy="200" rx="88" ry="82" fill="none" stroke="#2d263c" stroke-width="8" stroke-linejoin="round"/>
</svg>