<svg xmlns="http://www.w3.org/2000/svg" viewBox="0 0 360 360">
<rect x="120" y="258" width="26" height="58" rx="10" fill="#8a4ba0" stroke="#2d263c" stroke-width="6"/>
<rect x="214" y="258" width="26" height="58" rx="10" fill="#8a4ba0" stroke="#2d263c" stroke-width="6"/>
<ellipse cx="180" cy="208" rx="86" ry="72" fill="#9b5fb5" stroke="#2d263c" stroke-width="8" stroke-linejoin="round"/>
<path d="M96 180 Q70 162 68 196 Q84 218 112 206 Z" fill="#9b5fb5" stroke="#2d263c" stroke-width="6" stroke-linejoin="round"/>
<path d="M264 180 Q290 162 292 196 Q276 218 248 206 Z" fill="#9b5fb5" stroke="#2d263c" stroke-width="6" stroke-linejoin="round"/>
<circle cx="66" cy="190" r="24" fill="#c77fd6" stroke="#2d263c" stroke-width="6"/>
<circle cx="294" cy="190" r="24" fill="#c77fd6" stroke="#2d263c" stroke-width="6"/>
<ellipse cx="180" cy="152" rx="22" ry="15" fill="#f4d04a" stroke="#2d263c" stroke-width="6"/>
<ellipse cx="150" cy="196" rx="20" ry="22" fill="#f4d04a" stroke="#2d263c" stroke-width="6"/>
<ellipse cx="210" cy="196" rx="20" ry="22" fill="#f4d04a" stroke="#2d263c" stroke-width="6"/>
<circle cx="153" cy="200" r="11" fill="#2d263c"/>
<circle cx="213" cy="200" r="11" fill="#2d263c"/>
<circle cx="156" cy="196" r="4" fill="#ffffff"/>
<circle cx="216" cy="196" r="4" fill="#ffffff"/>
<path d="M164 236 Q180 250 196 236" fill="none" stroke="#2d263c" stroke-width="6" stroke-linecap="round"/>
<path d="M124 240 Q114 254 120 268" fill="none" stroke="#2d263c" stroke-width="6" stroke-linecap="round"/>
<path d="M236 240 Q246 254 240 268" fill="none" stroke="#2d263c" stroke-width="6" stroke-linecap="round"/>
</svg>