<svg xmlns="http://www.w3.org/2000/svg" viewBox="0 0 360 360">
  <!-- cape -->
  <path d="M120 130 Q80 220 110 300 Q140 270 150 220 Z" fill="#ffb02e" stroke="#2d263c" stroke-width="7" stroke-linejoin="round"/>
  <path d="M240 130 Q280 220 250 300 Q220 270 210 220 Z" fill="#ffb02e" stroke="#2d263c" stroke-width="7" stroke-linejoin="round"/>
  <!-- legs -->
  <path d="M140 250 Q135 300 130 320 L165 320 Q168 290 170 250 Z" fill="#2d5fa8" stroke="#2d263c" stroke-width="7" stroke-linejoin="round"/>
  <path d="M220 250 Q225 300 230 320 L195 320 Q192 290 190 250 Z" fill="#2d5fa8" stroke="#2d263c" stroke-width="7" stroke-linejoin="round"/>
  <ellipse cx="147" cy="325" rx="24" ry="12" fill="#eef6ff" stroke="#2d263c" stroke-width="6"/>
  <ellipse cx="213" cy="325" rx="24" ry="12" fill="#eef6ff" stroke="#2d263c" stroke-width="6"/>
  <!-- torso -->
  <path d="M130 170 Q120 230 140 260 Q180 275 220 260 Q240 230 230 170 Q225 130 180 120 Q135 130 130 170 Z" fill="#2d5fa8" stroke="#2d263c" stroke-width="8" stroke-linejoin="round"/>
  <!-- belly -->
  <ellipse cx="180" cy="205" rx="38" ry="45" fill="#eef6ff" stroke="#2d263c" stroke-width="6"/>
  <!-- arms -->
  <path d="M128 165 Q90 175 75 210 Q70 225 85 230 Q100 210 115 195 Z" fill="#2d5fa8" stroke="#2d263c" stroke-width="7" stroke-linejoin="round"/>
  <path d="M232 165 Q270 175 285 210 Q290 225 275 230 Q260 210 245 195 Z" fill="#2d5fa8" stroke="#2d263c" stroke-width="7" stroke-linejoin="round"/>
  <ellipse cx="80" cy="225" rx="15" ry="13" fill="#2d5fa8" stroke="#2d263c" stroke-width="6"/>
  <ellipse cx="280" cy="225" rx="15" ry="13" fill="#2d5fa8" stroke="#2d263c" stroke-width="6"/>
  <!-- head -->
  <path d="M140 100 Q135 55 180 45 Q225 55 220 100 Q225 130 180 138 Q135 130 140 100 Z" fill="#2d5fa8" stroke="#2d263c" stroke-width="8" stroke-linejoin="round"/>
  <!-- dorsal fin on head -->
  <path d="M172 45 Q180 15 190 45 Z" fill="#2d5fa8" stroke="#2d263c" stroke-width="6" stroke-linejoin="round"/>
  <!-- visor/mask -->
  <path d="M143 92 Q180 78 217 92 Q212 108 180 110 Q148 108 143 92 Z" fill="#1a2340" stroke="#2d263c" stroke-width="6" stroke-linejoin="round"/>
  <circle cx="163" cy="98" r="6" fill="#ffe94a"/>
  <circle cx="197" cy="98" r="6" fill="#ffe94a"/>
  <!-- snout -->
  <path d="M165 120 Q180 132 195 120 Q188 128 180 129 Q172 128 165 120 Z" fill="#eef6ff" stroke="#2d263c" stroke-width="5" stroke-linejoin="round"/>
</svg>
