<svg xmlns="http://www.w3.org/2000/svg" viewBox="0 0 360 360">
  <ellipse cx="180" cy="322" rx="130" ry="22" fill="#ff8c1a" stroke="#2d263c" stroke-width="6"/>
  <ellipse cx="180" cy="322" rx="78" ry="11" fill="#ffd23f" stroke="none"/>

  <path d="M110,180 C90,120 150,60 220,70 C290,80 300,150 260,190 C230,220 180,210 170,180 C165,160 185,145 205,155 C220,163 215,180 200,182"
        fill="#e2451f" stroke="#2d263c" stroke-width="7" stroke-linejoin="round" stroke-linecap="round"/>

  <path d="M140,140 L160,150 L150,165" fill="none" stroke="#ffd23f" stroke-width="6" stroke-linecap="round" stroke-linejoin="round"/>
  <path d="M210,100 L225,115 L215,128" fill="none" stroke="#ffd23f" stroke-width="6" stroke-linecap="round" stroke-linejoin="round"/>
  <path d="M250,150 L235,160" fill="none" stroke="#ffd23f" stroke-width="6" stroke-linecap="round" stroke-linejoin="round"/>

  <path d="M80,230 C70,190 100,170 140,175 C150,150 190,140 210,165 C250,160 280,190 270,230 C280,270 250,310 200,315 C160,320 100,320 80,290 C60,270 65,245 80,230 Z"
        fill="#57565c" stroke="#2d263c" stroke-width="7" stroke-linejoin="round"/>

  <path d="M150,160 C145,130 140,100 135,80" fill="none" stroke="#2d263c" stroke-width="7" stroke-linecap="round"/>
  <circle cx="133" cy="75" r="10" fill="#e2451f" stroke="#2d263c" stroke-width="6"/>
  <path d="M180,155 C185,125 195,95 200,75" fill="none" stroke="#2d263c" stroke-width="7" stroke-linecap="round"/>
  <circle cx="202" cy="70" r="10" fill="#e2451f" stroke="#2d263c" stroke-width="6"/>

  <path d="M110,225 C118,215 132,215 138,225" fill="none" stroke="#2d263c" stroke-width="6" stroke-linecap="round"/>
  <ellipse cx="124" cy="232" rx="7" ry="5" fill="#2d263c"/>
  <path d="M160,225 C168,215 182,215 188,225" fill="none" stroke="#2d263c" stroke-width="6" stroke-linecap="round"/>
  <ellipse cx="174" cy="232" rx="7" ry="5" fill="#2d263c"/>

  <path d="M135,255 C145,262 165,262 175,255" fill="none" stroke="#2d263c" stroke-width="6" stroke-linecap="round"/>

  <path d="M90,300 C85,310 90,320 100,318 C105,314 100,304 90,300 Z" fill="#ff8c1a" stroke="#2d263c" stroke-width="6"/>
  <path d="M200,305 C198,315 205,322 213,318 C216,312 210,304 200,305 Z" fill="#ff8c1a" stroke="#2d263c" stroke-width="6"/>
</svg>
