<svg xmlns="http://www.w3.org/2000/svg" viewBox="0 0 360 360">
  <!-- 影 -->
  <ellipse cx="182" cy="300" rx="110" ry="18" fill="#00000022"/>

  <!-- しっぽ -->
  <ellipse cx="182" cy="258" rx="28" ry="18" fill="#4a5a28" stroke="#2d263c" stroke-width="6" stroke-linejoin="round"/>
  <polygon points="182,242 165,272 199,272" fill="#5a6e32" stroke="#2d263c" stroke-width="5" stroke-linejoin="round"/>

  <!-- トラップの下あご部分(後ろ) -->
  <path d="M72,195 Q82,230 100,240 Q140,262 182,260 Q224,262 262,240 Q280,230 290,195" fill="#3a4a1a" stroke="#2d263c" stroke-width="7" stroke-linejoin="round"/>

  <!-- トラップのギザギザ下(歯) -->
  <path d="M72,195 L82,183 L92,200 L104,182 L116,200 L128,180 L140,200 L154,178 L166,200 L180,176 L194,200 L208,178 L220,200 L232,182 L244,200 L256,183 L268,200 L278,186 L290,195" fill="#2d3a10" stroke="#2d263c" stroke-width="5" stroke-linejoin="round"/>

  <!-- 体(メインボディ) - カーキ緑 -->
  <ellipse cx="182" cy="170" rx="118" ry="78" fill="#7a8c42" stroke="#2d263c" stroke-width="7" stroke-linejoin="round"/>

  <!-- 腹の模様(黄緑っぽい斑) -->
  <ellipse cx="182" cy="168" rx="80" ry="50" fill="#a0b050" stroke="none"/>

  <!-- 縞模様 -->
  <path d="M130,120 Q182,112 235,122" fill="none" stroke="#5a6e28" stroke-width="8" stroke-linecap="round"/>
  <path d="M110,148 Q182,136 254,150" fill="none" stroke="#5a6e28" stroke-width="7" stroke-linecap="round"/>
  <path d="M108,175 Q182,162 256,177" fill="none" stroke="#5a6e28" stroke-width="6" stroke-linecap="round"/>
  <path d="M112,200 Q182,190 252,202" fill="none" stroke="#5a6e28" stroke-width="5" stroke-linecap="round"/>

  <!-- トラップのギザギザ上(歯) -->
  <path d="M64,162 L76,174 L88,158 L100,176 L114,156 L128,176 L142,154 L158,174 L172,152 L186,172 L200,150 L214,172 L228,154 L242,174 L256,157 L268,175 L280,160 L292,172 L300,162" fill="#2d3a10" stroke="#2d263c" stroke-width="5" stroke-linejoin="round"/>

  <!-- トラップの上あご外縁 -->
  <path d="M64,162 Q68,130 90,108 Q130,82 182,78 Q234,82 272,108 Q294,130 300,162" fill="none" stroke="#2d263c" stroke-width="8" stroke-linejoin="round"/>

  <!-- 体の上面輪郭 -->
  <ellipse cx="182" cy="140" rx="118" ry="65" fill="none" stroke="#2d263c" stroke-width="7"/>

  <!-- ほっぺ(赤) -->
  <ellipse cx="142" cy="148" rx="16" ry="10" fill="#e05030" opacity="0.75"/>
  <ellipse cx="222" cy="148" rx="16" ry="10" fill="#e05030" opacity="0.75"/>

  <!-- 目(左) -->
  <ellipse cx="148" cy="128" rx="18" ry="17" fill="white" stroke="#2d263c" stroke-width="6"/>
  <ellipse cx="152" cy="131" rx="10" ry="11" fill="#1a1a2e"/>
  <ellipse cx="156" cy="128" rx="4" ry="4" fill="white"/>

  <!-- 目(右) -->
  <ellipse cx="216" cy="126" rx="17" ry="18" fill="white" stroke="#2d263c" stroke-width="6"/>
  <ellipse cx="219" cy="129" rx="10" ry="11" fill="#1a1a2e"/>
  <ellipse cx="223" cy="126" rx="4" ry="4" fill="white"/>

  <!-- 眉毛(ちょっとバカっぽく) -->
  <path d="M135,113 Q148,106 161,112" fill="none" stroke="#2d263c" stroke-width="5" stroke-linecap="round"/>
  <path d="M203,110 Q216,104 229,109" fill="none" stroke="#2d263c" stroke-width="5" stroke-linecap="round"/>

  <!-- 口(トラップの合わせ目) -->
  <path d="M152,172 Q182,182 212,172" fill="none" stroke="#2d263c" stroke-width="6" stroke-linecap="round"/>

  <!-- 小さな鼻 -->
  <ellipse cx="182" cy="158" rx="6" ry="4" fill="#5a6e28"/>
</svg>