<svg xmlns="http://www.w3.org/2000/svg" viewBox="0 0 360 360">
  <path d="M245 205 C 300 170, 300 90, 275 65" fill="none" stroke="#2d263c" stroke-width="9" stroke-linecap="round"/>
  <path d="M245 205 C 300 170, 300 90, 275 65" fill="none" stroke="#3E7BD6" stroke-width="8" stroke-linecap="round"/>
  <circle cx="272" cy="62" r="34" fill="#3E7BD6" stroke="#2d263c" stroke-width="7"/>
  <circle cx="260" cy="50" r="11" fill="#7FB8F2"/>
  <ellipse cx="140" cy="108" rx="34" ry="46" fill="#8ED4F8" stroke="#2d263c" stroke-width="7"/>
  <ellipse cx="222" cy="108" rx="34" ry="46" fill="#8ED4F8" stroke="#2d263c" stroke-width="7"/>
  <ellipse cx="140" cy="90" rx="15" ry="20" fill="#26314A"/>
  <ellipse cx="222" cy="90" rx="15" ry="20" fill="#26314A"/>
  <ellipse cx="90" cy="235" rx="24" ry="32" fill="#8ED4F8" stroke="#2d263c" stroke-width="7"/>
  <ellipse cx="272" cy="235" rx="24" ry="32" fill="#8ED4F8" stroke="#2d263c" stroke-width="7"/>
  <ellipse cx="181" cy="222" rx="98" ry="90" fill="#8ED4F8" stroke="#2d263c" stroke-width="8"/>
  <ellipse cx="181" cy="255" rx="58" ry="46" fill="#FFF7E0" stroke="#2d263c" stroke-width="6"/>
  <ellipse cx="150" cy="330" rx="30" ry="20" fill="#8ED4F8" stroke="#2d263c" stroke-width="7"/>
  <ellipse cx="216" cy="330" rx="30" ry="20" fill="#8ED4F8" stroke="#2d263c" stroke-width="7"/>
  <ellipse cx="135" cy="218" rx="15" ry="17" fill="#FFC3D6"/>
  <ellipse cx="230" cy="218" rx="15" ry="17" fill="#FFC3D6"/>
  <circle cx="152" cy="195" r="11" fill="#26314A"/>
  <circle cx="212" cy="195" r="11" fill="#26314A"/>
  <circle cx="148" cy="191" r="3.5" fill="#FFFFFF"/>
  <circle cx="208" cy="191" r="3.5" fill="#FFFFFF"/>
  <path d="M170 218 Q 181 226, 192 218" fill="none" stroke="#2d263c" stroke-width="6" stroke-linecap="round"/>
</svg>
