<svg xmlns="http://www.w3.org/2000/svg" viewBox="0 0 360 360">
  <!-- tail feather (behind) -->
  <path d="M195 230 Q230 260 260 290 Q275 310 255 315 Q235 318 220 295 Q205 270 190 245 Z" fill="#c0392b" stroke="#2d263c" stroke-width="6" stroke-linejoin="round" stroke-linecap="round"/>
  <path d="M192 235 Q220 255 240 285 Q248 300 232 302 Q218 300 210 280 Q200 258 188 242 Z" fill="#e74c3c" stroke="none"/>

  <!-- back leg (left) -->
  <path d="M148 255 Q138 275 132 295 Q128 308 140 310 Q152 312 158 298 Q162 282 162 265 Z" fill="#1a2040" stroke="#2d263c" stroke-width="7" stroke-linejoin="round"/>
  <!-- back claw left -->
  <path d="M135 308 Q122 318 118 330 Q130 328 140 318 Z" fill="#e8e0d0" stroke="#2d263c" stroke-width="5" stroke-linejoin="round"/>
  <path d="M143 312 Q133 325 132 338 Q143 332 150 318 Z" fill="#e8e0d0" stroke="#2d263c" stroke-width="5" stroke-linejoin="round"/>

  <!-- back leg (right) -->
  <path d="M205 260 Q215 280 220 298 Q224 312 212 314 Q200 314 196 300 Q192 284 192 266 Z" fill="#1a2040" stroke="#2d263c" stroke-width="7" stroke-linejoin="round"/>
  <!-- back claw right -->
  <path d="M218 310 Q228 322 230 334 Q220 330 212 318 Z" fill="#e8e0d0" stroke="#2d263c" stroke-width="5" stroke-linejoin="round"/>
  <path d="M208 315 Q215 330 214 342 Q205 334 202 320 Z" fill="#e8e0d0" stroke="#2d263c" stroke-width="5" stroke-linejoin="round"/>

  <!-- body -->
  <ellipse cx="178" cy="220" rx="58" ry="72" fill="#1e2355" stroke="#2d263c" stroke-width="8" stroke-linejoin="round"/>

  <!-- belly patch -->
  <ellipse cx="175" cy="230" rx="30" ry="42" fill="#4ecdc4" stroke="#2d263c" stroke-width="5"/>

  <!-- left arm/wing -->
  <path d="M122 190 Q98 178 85 162 Q78 148 90 142 Q102 138 114 152 Q126 168 130 185 Z" fill="#1e2355" stroke="#2d263c" stroke-width="7" stroke-linejoin="round"/>
  <!-- left claw -->
  <path d="M86 143 Q72 132 65 120 Q78 124 88 136 Z" fill="#e8e0d0" stroke="#2d263c" stroke-width="5" stroke-linejoin="round"/>
  <path d="M93 138 Q82 124 79 110 Q90 118 97 132 Z" fill="#e8e0d0" stroke="#2d263c" stroke-width="5" stroke-linejoin="round"/>
  <path d="M101 136 Q95 120 96 106 Q105 116 108 130 Z" fill="#e8e0d0" stroke="#2d263c" stroke-width="5" stroke-linejoin="round"/>

  <!-- right arm/wing -->
  <path d="M232 188 Q256 175 268 158 Q276 144 263 139 Q250 136 238 150 Q226 166 224 184 Z" fill="#1e2355" stroke="#2d263c" stroke-width="7" stroke-linejoin="round"/>
  <!-- right claw -->
  <path d="M265 140 Q278 128 284 116 Q272 121 263 134 Z" fill="#e8e0d0" stroke="#2d263c" stroke-width="5" stroke-linejoin="round"/>
  <path d="M258 136 Q268 121 270 107 Q260 116 254 130 Z" fill="#e8e0d0" stroke="#2d263c" stroke-width="5" stroke-linejoin="round"/>
  <path d="M250 134 Q256 118 254 104 Q246 115 244 129 Z" fill="#e8e0d0" stroke="#2d263c" stroke-width="5" stroke-linejoin="round"/>

  <!-- neck -->
  <rect x="158" y="148" width="40" height="30" rx="10" fill="#1e2355" stroke="#2d263c" stroke-width="7"/>

  <!-- head -->
  <ellipse cx="178" cy="130" rx="52" ry="48" fill="#1e2355" stroke="#2d263c" stroke-width="8" stroke-linejoin="round"/>

  <!-- face light area -->
  <ellipse cx="178" cy="135" rx="30" ry="28" fill="#2d3a6e"/>

  <!-- left ear feather (longer, red ribbon) -->
  <path d="M148 100 Q135 70 128 40 Q125 20 138 18 Q150 18 154 40 Q158 60 155 88 Z" fill="#c0392b" stroke="#2d263c" stroke-width="6" stroke-linejoin="round"/>
  <path d="M151 95 Q140 68 136 42 Q134 26 143 26 Q150 28 153 50 Q156 68 154 92 Z" fill="#e74c3c" stroke="none"/>

  <!-- right ear feather (shorter) -->
  <path d="M208 96 Q220 70 224 45 Q226 28 215 26 Q204 26 202 48 Q200 66 204 90 Z" fill="#c0392b" stroke="#2d263c" stroke-width="6" stroke-linejoin="round"/>
  <path d="M205 93 Q216 70 218 48 Q218 34 210 34 Q204 36 203 54 Q202 70 204 90 Z" fill="#e74c3c" stroke="none"/>

  <!-- forehead gem (red jewel) -->
  <ellipse cx="178" cy="112" rx="10" ry="8" fill="#e74c3c" stroke="#2d263c" stroke-width="4"/>
  <ellipse cx="175" cy="110" rx="4" ry="3" fill="#ff8080" stroke="none"/>

  <!-- left cheek dot -->
  <circle cx="152" cy="138" r="9" fill="#c0392b" stroke="#2d263c" stroke-width="4"/>
  <circle cx="150" cy="136" r="3" fill="#e87070" stroke="none"/>

  <!-- right cheek dot -->
  <circle cx="204" cy="140" r="7" fill="#c0392b" stroke="#2d263c" stroke-width="4"/>

  <!-- eyes -->
  <!-- left eye (slightly bigger, cat-like) -->
  <ellipse cx="162" cy="128" rx="10" ry="9" fill="#f0f0f0" stroke="#2d263c" stroke-width="4"/>
  <ellipse cx="163" cy="129" rx="5" ry="7" fill="#1a0020" stroke="none"/>
  <circle cx="164" cy="127" r="2" fill="white" stroke="none"/>

  <!-- right eye -->
  <ellipse cx="194" cy="127" rx="9" ry="10" fill="#f0f0f0" stroke="#2d263c" stroke-width="4"/>
  <ellipse cx="194" cy="128" rx="5" ry="7" fill="#1a0020" stroke="none"/>
  <circle cx="196" cy="126" r="2" fill="white" stroke="none"/>

  <!-- sly mouth smirk -->
  <path d="M168 148 Q178 155 188 148" fill="none" stroke="#2d263c" stroke-width="5" stroke-linecap="round"/>
  <path d="M188 148 Q192 145 190 142" fill="none" stroke="#2d263c" stroke-width="4" stroke-linecap="round"/>

  <!-- small fang -->
  <path d="M178 152 L175 159 L181 155 Z" fill="white" stroke="#2d263c" stroke-width="3"/>
</svg>