<svg xmlns="http://www.w3.org/2000/svg" viewBox="0 0 360 360"><g stroke="#2d263c" stroke-width="7" stroke-linejoin="round" stroke-linecap="round"><path d="M236 282 L272 268 L254 240 L292 226 L276 198" fill="none" stroke-width="8"/><circle cx="284" cy="180" r="20" fill="#4d9be6"/><ellipse cx="120" cy="80" rx="27" ry="54" fill="#4d9be6" transform="rotate(-24 120 80)"/><ellipse cx="240" cy="74" rx="28" ry="53" fill="#4d9be6" transform="rotate(19 240 74)"/><ellipse cx="118" cy="74" rx="13" ry="32" fill="#cf4a63" transform="rotate(-24 118 74)"/><ellipse cx="243" cy="68" rx="14" ry="30" fill="#cf4a63" transform="rotate(19 243 68)"/><path d="M180 115 C 115 118, 92 175, 95 235 C 98 296, 135 330, 182 328 C 232 326, 268 292, 266 230 C 264 170, 242 112, 180 115 Z" fill="#4d9be6"/><path d="M110 232 C 122 214, 142 228, 160 216 C 178 204, 198 224, 218 212 C 238 202, 252 220, 252 236 C 254 288, 226 318, 180 320 C 136 320, 108 290, 110 232 Z" fill="#ffffff"/><ellipse cx="150" cy="266" rx="16" ry="20" fill="#4d9be6"/><ellipse cx="208" cy="273" rx="13" ry="17" fill="#4d9be6"/><ellipse cx="98" cy="226" rx="14" ry="24" fill="#4d9be6" transform="rotate(22 98 226)"/><ellipse cx="263" cy="228" rx="13" ry="22" fill="#4d9be6" transform="rotate(-26 263 228)"/><ellipse cx="140" cy="324" rx="29" ry="14" fill="#ffffff"/><ellipse cx="219" cy="327" rx="32" ry="13" fill="#ffffff"/><circle cx="150" cy="170" r="9" fill="#2d263c" stroke="none"/><circle cx="213" cy="166" r="11" fill="#2d263c" stroke="none"/><circle cx="153" cy="167" r="3" fill="#ffffff" stroke="none"/><circle cx="217" cy="162" r="3.5" fill="#ffffff" stroke="none"/><path d="M172 193 q 11 9 23 0" fill="none" stroke-width="6"/></g></svg>