<svg xmlns="http://www.w3.org/2000/svg" viewBox="0 0 360 360">
  <g fill="none" stroke="#2d263c" stroke-width="7" stroke-linecap="round" stroke-linejoin="round">
    <!-- tail -->
    <path d="M255 250 Q320 250 315 190 Q310 150 270 160" fill="#7c4fb0"/>
    <!-- legs/feet -->
    <ellipse cx="150" cy="320" rx="26" ry="16" fill="#5c3a86"/>
    <ellipse cx="215" cy="320" rx="26" ry="16" fill="#5c3a86"/>
    <path d="M150 250 L150 306" fill="#7c4fb0"/>
    <path d="M215 250 L215 306" fill="#7c4fb0"/>
    <!-- body -->
    <ellipse cx="182" cy="230" rx="88" ry="82" fill="#8a5cc4"/>
    <!-- belly/chest patch -->
    <ellipse cx="182" cy="245" rx="46" ry="60" fill="#f5ecd2"/>
    <!-- chest marker -->
    <path d="M182 210 L192 232 L182 254 L172 232 Z" fill="#8a5cc4" stroke-width="5"/>
    <!-- arm holding stick -->
    <path d="M110 205 Q70 215 65 260" fill="#7c4fb0"/>
    <ellipse cx="62" cy="266" rx="16" ry="14" fill="#5c3a86"/>
    <path d="M60 200 L60 300" stroke="#8b5a2b" stroke-width="9"/>
    <ellipse cx="60" cy="192" rx="18" ry="12" fill="#c98b3a" stroke-width="6"/>
    <!-- other arm -->
    <path d="M256 205 Q290 220 278 260" fill="#7c4fb0"/>
    <ellipse cx="275" cy="266" rx="16" ry="14" fill="#5c3a86"/>
    <!-- ears -->
    <path d="M118 100 Q108 70 138 78 Z" fill="#7c4fb0"/>
    <path d="M246 100 Q256 70 226 78 Z" fill="#7c4fb0"/>
    <!-- head -->
    <circle cx="182" cy="130" r="76" fill="#8a5cc4"/>
    <!-- head crest / flame tuft -->
    <path d="M140 62 Q150 20 175 55 Q184 15 195 55 Q220 22 228 64 Q205 50 182 60 Q158 48 140 62 Z" fill="#5c3a86"/>
    <!-- face patch -->
    <ellipse cx="182" cy="150" rx="52" ry="42" fill="#f5ecd2"/>
    <!-- eyebrows -->
    <path d="M138 118 Q155 100 172 116" fill="none" stroke-width="7"/>
    <path d="M192 116 Q209 100 226 118" fill="none" stroke-width="7"/>
    <!-- eyes -->
    <ellipse cx="156" cy="140" rx="17" ry="20" fill="#f6a635"/>
    <ellipse cx="208" cy="140" rx="17" ry="20" fill="#f6a635"/>
    <circle cx="156" cy="144" r="7" fill="#2d263c" stroke="none"/>
    <circle cx="208" cy="144" r="7" fill="#2d263c" stroke="none"/>
    <!-- nose/mouth -->
    <path d="M172 172 Q182 180 192 172" fill="none" stroke-width="6"/>
    <circle cx="182" cy="164" r="3" fill="#2d263c" stroke="none"/>
  </g>
</svg>
