<svg xmlns="http://www.w3.org/2000/svg" viewBox="0 0 360 360">
  <!-- 脚(後ろ) -->
  <path d="M150,306 Q138,324 147,340" stroke="#2d263c" stroke-width="26" fill="none" stroke-linecap="round"/>
  <path d="M150,306 Q138,324 147,340" stroke="#f7c6d9" stroke-width="18" fill="none" stroke-linecap="round"/>
  <ellipse cx="147" cy="337" rx="20" ry="10" fill="#4f8fdb" stroke="#2d263c" stroke-width="5"/>
  <path d="M210,306 Q222,324 213,340" stroke="#2d263c" stroke-width="26" fill="none" stroke-linecap="round"/>
  <path d="M210,306 Q222,324 213,340" stroke="#f7c6d9" stroke-width="18" fill="none" stroke-linecap="round"/>
  <ellipse cx="213" cy="337" rx="20" ry="10" fill="#4f8fdb" stroke="#2d263c" stroke-width="5"/>

  <!-- 体 -->
  <ellipse cx="180" cy="228" rx="84" ry="86" fill="#f7c6d9" stroke="#2d263c" stroke-width="7"/>
  <ellipse cx="180" cy="242" rx="46" ry="54" fill="#fdf6e3" stroke="#2d263c" stroke-width="5"/>
  <polygon points="180,196 202,228 180,260 158,228" fill="#8fd3f4" stroke="#2d263c" stroke-width="5"/>

  <!-- 腕 -->
  <path d="M104,206 Q64,232 70,280" stroke="#2d263c" stroke-width="30" fill="none" stroke-linecap="round"/>
  <path d="M104,206 Q64,232 70,280" stroke="#f7c6d9" stroke-width="22" fill="none" stroke-linecap="round"/>
  <circle cx="70" cy="282" r="17" fill="#fdf6e3" stroke="#2d263c" stroke-width="6"/>
  <path d="M256,206 Q296,232 290,280" stroke="#2d263c" stroke-width="30" fill="none" stroke-linecap="round"/>
  <path d="M256,206 Q296,232 290,280" stroke="#f7c6d9" stroke-width="22" fill="none" stroke-linecap="round"/>
  <circle cx="290" cy="282" r="17" fill="#fdf6e3" stroke="#2d263c" stroke-width="6"/>

  <!-- 頭 -->
  <circle cx="180" cy="112" r="58" fill="#f7c6d9" stroke="#2d263c" stroke-width="7"/>

  <!-- 前髪(青) -->
  <circle cx="180" cy="52" r="20" fill="#4f8fdb" stroke="#2d263c" stroke-width="6"/>
  <ellipse cx="142" cy="68" rx="30" ry="34" fill="#4f8fdb" stroke="#2d263c" stroke-width="6" transform="rotate(-18 142 68)"/>
  <ellipse cx="218" cy="68" rx="30" ry="34" fill="#4f8fdb" stroke="#2d263c" stroke-width="6" transform="rotate(18 218 68)"/>

  <!-- まゆげ -->
  <path d="M132,82 Q155,68 178,84" stroke="#4f8fdb" stroke-width="7" fill="none" stroke-linecap="round"/>
  <path d="M182,84 Q205,68 228,82" stroke="#4f8fdb" stroke-width="7" fill="none" stroke-linecap="round"/>

  <!-- ほほ -->
  <circle cx="128" cy="132" r="9" fill="#f7a3b8" opacity="0.6"/>
  <circle cx="232" cy="132" r="9" fill="#f7a3b8" opacity="0.6"/>

  <!-- 目 -->
  <ellipse cx="155" cy="108" rx="19" ry="23" fill="#ffffff" stroke="#2d263c" stroke-width="5"/>
  <ellipse cx="205" cy="108" rx="19" ry="23" fill="#ffffff" stroke="#2d263c" stroke-width="5"/>
  <circle cx="155" cy="112" r="9" fill="#2d5fa8"/>
  <circle cx="205" cy="112" r="9" fill="#2d5fa8"/>
  <circle cx="157" cy="114" r="3.5" fill="#241f30"/>
  <circle cx="207" cy="114" r="3.5" fill="#241f30"/>

  <!-- 鼻 -->
  <circle cx="180" cy="132" r="7" fill="#e0455a" stroke="#2d263c" stroke-width="4"/>

  <!-- 口 -->
  <path d="M163,148 Q180,158 197,148" stroke="#2d263c" stroke-width="5" fill="none" stroke-linecap="round"/>
</svg>
