<svg xmlns="http://www.w3.org/2000/svg" viewBox="0 0 360 360">
  <!-- 根っこ(後ろ・地面にはえる根) -->
  <path d="M163,298 Q150,320 138,338" fill="none" stroke="#2d263c" stroke-width="9" stroke-linecap="round"/>
  <path d="M163,298 Q150,320 138,338" fill="none" stroke="#4d7a34" stroke-width="6" stroke-linecap="round"/>
  <path d="M174,303 Q168,322 162,340" fill="none" stroke="#2d263c" stroke-width="9" stroke-linecap="round"/>
  <path d="M174,303 Q168,322 162,340" fill="none" stroke="#4d7a34" stroke-width="6" stroke-linecap="round"/>
  <path d="M188,303 Q196,322 202,340" fill="none" stroke="#2d263c" stroke-width="9" stroke-linecap="round"/>
  <path d="M188,303 Q196,322 202,340" fill="none" stroke="#4d7a34" stroke-width="6" stroke-linecap="round"/>
  <path d="M199,298 Q212,320 224,336" fill="none" stroke="#2d263c" stroke-width="9" stroke-linecap="round"/>
  <path d="M199,298 Q212,320 224,336" fill="none" stroke="#4d7a34" stroke-width="6" stroke-linecap="round"/>

  <!-- くき(体・細い茎) -->
  <path d="M153,208 L207,208 L200,302 L160,302 Z" fill="#5a9c3d" stroke="#2d263c" stroke-width="8" stroke-linejoin="round"/>

  <!-- 頭部(大きなつぼ状トラップ・緑) -->
  <ellipse cx="180" cy="142" rx="90" ry="68" fill="#5fa844" stroke="#2d263c" stroke-width="9" stroke-linejoin="round"/>

  <!-- 体のしま模様(こい緑) -->
  <path d="M115,105 Q104,142 118,182" fill="none" stroke="#3d7228" stroke-width="8" stroke-linecap="round"/>
  <path d="M245,105 Q256,142 242,182" fill="none" stroke="#3d7228" stroke-width="8" stroke-linecap="round"/>

  <!-- 上のはっぱ(アンテナ) -->
  <path d="M168,98 L180,48 L194,98 Z" fill="#3d7228" stroke="#2d263c" stroke-width="8" stroke-linejoin="round"/>

  <!-- 口(赤い内側) -->
  <ellipse cx="180" cy="163" rx="62" ry="44" fill="#cf3a3a" stroke="#2d263c" stroke-width="8" stroke-linejoin="round"/>

  <!-- くちびる(上・下) -->
  <path d="M122,150 Q180,118 238,150" fill="none" stroke="#8a2323" stroke-width="9" stroke-linecap="round"/>
  <path d="M122,178 Q180,210 238,178" fill="none" stroke="#8a2323" stroke-width="9" stroke-linecap="round"/>

  <!-- 口の中の白いギザギザ(牙もよう) -->
  <path d="M132,150 L146,170 L160,150 L174,170 L188,150 L202,170 L216,150 L230,170" fill="none" stroke="#ffffff" stroke-width="7" stroke-linecap="round" stroke-linejoin="round"/>

  <!-- 目(黄色) -->
  <ellipse cx="143" cy="100" rx="14" ry="16" fill="#f4d03f" stroke="#2d263c" stroke-width="5"/>
  <ellipse cx="217" cy="100" rx="14" ry="16" fill="#f4d03f" stroke="#2d263c" stroke-width="5"/>
  <!-- ひとみ -->
  <circle cx="146" cy="103" r="5.5" fill="#2d263c"/>
  <circle cx="220" cy="103" r="5.5" fill="#2d263c"/>
  <!-- 目の光 -->
  <circle cx="140" cy="97" r="2" fill="#ffffff"/>
  <circle cx="214" cy="97" r="2" fill="#ffffff"/>
</svg>
