<svg xmlns="http://www.w3.org/2000/svg" viewBox="0 0 360 360">
  <!-- しっぽ(後ろ) -->
  <path d="M 255 210 Q 310 180 320 220 Q 330 260 295 255 Q 270 250 260 240 Z" fill="#5bc8e8" stroke="#2d263c" stroke-width="7" stroke-linejoin="round" stroke-linecap="round"/>
  <!-- しっぽ先の球 -->
  <ellipse cx="308" cy="245" rx="22" ry="20" fill="#5bc8e8" stroke="#2d263c" stroke-width="7"/>
  <!-- しっぽ球の縞 -->
  <path d="M 290 238 Q 308 230 326 238" fill="none" stroke="#2d263c" stroke-width="5" stroke-linecap="round"/>
  <path d="M 288 248 Q 308 240 328 248" fill="none" stroke="#2d263c" stroke-width="5" stroke-linecap="round"/>

  <!-- 左うで(後ろ) -->
  <ellipse cx="95" cy="238" rx="20" ry="28" fill="#5bc8e8" stroke="#2d263c" stroke-width="7" stroke-linejoin="round"/>

  <!-- 右うで -->
  <ellipse cx="265" cy="238" rx="20" ry="28" fill="#5bc8e8" stroke="#2d263c" stroke-width="7" stroke-linejoin="round"/>

  <!-- 体 -->
  <ellipse cx="180" cy="220" rx="100" ry="95" fill="#5bc8e8" stroke="#2d263c" stroke-width="8" stroke-linejoin="round"/>

  <!-- 白いおなか -->
  <ellipse cx="178" cy="238" rx="66" ry="60" fill="#f0f8ff" stroke="#2d263c" stroke-width="5"/>

  <!-- 左足 -->
  <ellipse cx="140" cy="305" rx="28" ry="18" fill="#5bc8e8" stroke="#2d263c" stroke-width="7" stroke-linejoin="round"/>
  <!-- 右足 -->
  <ellipse cx="218" cy="308" rx="28" ry="17" fill="#5bc8e8" stroke="#2d263c" stroke-width="7" stroke-linejoin="round"/>

  <!-- 頭 -->
  <ellipse cx="180" cy="138" rx="88" ry="82" fill="#5bc8e8" stroke="#2d263c" stroke-width="8" stroke-linejoin="round"/>

  <!-- 左耳 -->
  <ellipse cx="110" cy="72" rx="32" ry="34" fill="#5bc8e8" stroke="#2d263c" stroke-width="8" stroke-linejoin="round"/>
  <!-- 左耳の内側 -->
  <ellipse cx="110" cy="72" rx="16" ry="18" fill="#d0eef8" stroke="none"/>
  <!-- 左耳の黒丸模様 -->
  <ellipse cx="110" cy="78" rx="8" ry="9" fill="#2d263c"/>

  <!-- 右耳 -->
  <ellipse cx="250" cy="68" rx="34" ry="35" fill="#5bc8e8" stroke="#2d263c" stroke-width="8" stroke-linejoin="round"/>
  <!-- 右耳の内側 -->
  <ellipse cx="250" cy="68" rx="17" ry="19" fill="#d0eef8" stroke="none"/>
  <!-- 右耳の黒丸模様 -->
  <ellipse cx="252" cy="74" rx="8" ry="9" fill="#2d263c"/>

  <!-- 左目 -->
  <ellipse cx="152" cy="138" rx="16" ry="18" fill="#1a1a2e" stroke="#2d263c" stroke-width="3"/>
  <ellipse cx="147" cy="133" rx="5" ry="5" fill="white"/>

  <!-- 右目 (少し斜め気味でゆるく) -->
  <ellipse cx="210" cy="135" rx="15" ry="17" fill="#1a1a2e" stroke="#2d263c" stroke-width="3"/>
  <ellipse cx="205" cy="130" rx="5" ry="5" fill="white"/>

  <!-- 鼻 -->
  <ellipse cx="182" cy="156" rx="5" ry="4" fill="#2d263c"/>

  <!-- 口(ちょっとへにゃっと) -->
  <path d="M 165 168 Q 182 182 200 167" fill="none" stroke="#2d263c" stroke-width="6" stroke-linecap="round"/>

  <!-- 左ほっぺ -->
  <ellipse cx="134" cy="162" rx="20" ry="16" fill="white" stroke="#2d263c" stroke-width="4" opacity="0.9"/>

  <!-- 右ほっぺ -->
  <ellipse cx="228" cy="158" rx="22" ry="17" fill="white" stroke="#2d263c" stroke-width="4" opacity="0.9"/>
</svg>