<svg xmlns="http://www.w3.org/2000/svg" viewBox="0 0 360 360">
<ellipse cx="180" cy="322" rx="95" ry="16" fill="#332e3d"/>
<ellipse cx="180" cy="250" rx="112" ry="92" fill="#46414f" stroke="#2d263c" stroke-width="8"/>
<circle cx="180" cy="130" r="95" fill="#8d8496" stroke="#2d263c" stroke-width="8"/>
<circle cx="160" cy="140" r="68" fill="#766c82"/>
<circle cx="142" cy="150" r="44" fill="#5b5468"/>
<circle cx="128" cy="160" r="20" fill="#2d2635"/>
<circle cx="128" cy="160" r="11" fill="#ff7f27"/>
<path d="M215,60 L200,85 L212,100 L195,120" fill="none" stroke="#ff6a1a" stroke-width="5" stroke-linecap="round" stroke-linejoin="round"/>
<path d="M255,120 L232,128 L240,145 L222,150" fill="none" stroke="#ff6a1a" stroke-width="5" stroke-linecap="round" stroke-linejoin="round"/>
<path d="M235,190 L215,178 L222,160 L205,155" fill="none" stroke="#ff6a1a" stroke-width="5" stroke-linecap="round" stroke-linejoin="round"/>
<path d="M110,110 L128,120 L118,138 L134,148" fill="none" stroke="#ff6a1a" stroke-width="5" stroke-linecap="round" stroke-linejoin="round"/>
<ellipse cx="110" cy="205" rx="13" ry="11" fill="#ff9c42"/>
<ellipse cx="245" cy="195" rx="11" ry="10" fill="#ff9c42"/>
<ellipse cx="180" cy="222" rx="10" ry="9" fill="#ffb347"/>
<path d="M155,180 Q147,160 152,144" fill="none" stroke="#2d263c" stroke-width="11" stroke-linecap="round"/>
<path d="M205,180 Q213,160 208,144" fill="none" stroke="#2d263c" stroke-width="11" stroke-linecap="round"/>
<ellipse cx="180" cy="210" rx="58" ry="48" fill="#57505f" stroke="#2d263c" stroke-width="7"/>
<circle cx="155" cy="205" r="15" fill="#ffffff" stroke="#2d263c" stroke-width="4"/>
<circle cx="205" cy="205" r="15" fill="#ffffff" stroke="#2d263c" stroke-width="4"/>
<circle cx="155" cy="208" r="7" fill="#221c2b"/>
<circle cx="205" cy="208" r="7" fill="#221c2b"/>
<circle cx="151" cy="203" r="2.5" fill="#ffffff"/>
<circle cx="201" cy="203" r="2.5" fill="#ffffff"/>
<path d="M168,235 Q180,244 192,235" fill="none" stroke="#2d263c" stroke-width="5" stroke-linecap="round"/>
</svg>
