<svg xmlns="http://www.w3.org/2000/svg" viewBox="0 0 360 360">
  <path d="M180,255 C172,275 176,300 180,332 C184,300 188,275 180,255 Z" fill="#3b537f" stroke="#2d263c" stroke-width="6" stroke-linejoin="round" stroke-linecap="round"/>
  <path d="M180,105 C128,100 68,128 32,178 C58,206 100,220 142,215 C152,238 166,252 180,258 C194,252 208,238 218,215 C260,220 302,206 328,178 C292,128 232,100 180,105 Z" fill="#46639e" stroke="#2d263c" stroke-width="8" stroke-linejoin="round" stroke-linecap="round"/>
  <path d="M32,178 C58,150 88,128 120,116 C95,142 70,168 55,196 Z" fill="#33507f" stroke="none"/>
  <path d="M328,178 C302,150 272,128 240,116 C265,142 290,168 305,196 Z" fill="#33507f" stroke="none"/>
  <path d="M142,215 C158,222 168,232 178,240 C170,224 160,214 148,206 Z" fill="#33507f" stroke="none"/>
  <path d="M218,215 C202,222 192,232 182,240 C190,224 200,214 212,206 Z" fill="#33507f" stroke="none"/>
  <ellipse cx="180" cy="185" rx="66" ry="42" fill="#f7f4e8" stroke="#2d263c" stroke-width="6"/>
  <circle cx="150" cy="200" r="7" fill="#bdd0ec"/>
  <circle cx="210" cy="200" r="7" fill="#bdd0ec"/>
  <circle cx="180" cy="215" r="6" fill="#bdd0ec"/>
  <path d="M150,108 Q128,88 122,58 Q142,76 160,102 Z" fill="#2f3f66" stroke="#2d263c" stroke-width="6" stroke-linejoin="round"/>
  <path d="M210,108 Q232,88 238,58 Q218,76 200,102 Z" fill="#2f3f66" stroke="#2d263c" stroke-width="6" stroke-linejoin="round"/>
  <circle cx="153" cy="122" r="12" fill="#ffffff" stroke="#2d263c" stroke-width="5"/>
  <circle cx="207" cy="122" r="12" fill="#ffffff" stroke="#2d263c" stroke-width="5"/>
  <circle cx="155" cy="124" r="5" fill="#2d263c"/>
  <circle cx="209" cy="124" r="5" fill="#2d263c"/>
  <path d="M162,148 Q180,160 198,148" fill="none" stroke="#2d263c" stroke-width="6" stroke-linecap="round"/>
  <path d="M100,150 L70,170" fill="none" stroke="#2d263c" stroke-width="6" stroke-linecap="round" opacity="0.5"/>
  <path d="M260,150 L290,170" fill="none" stroke="#2d263c" stroke-width="6" stroke-linecap="round" opacity="0.5"/>
</svg>
