<svg xmlns="http://www.w3.org/2000/svg" viewBox="0 0 360 360">
  <!-- しっぽ -->
  <path d="M280 230 C300 220 308 232 300 244 C292 254 278 250 272 240 Z" fill="#d9a95f" stroke="#2d263c" stroke-width="6" stroke-linejoin="round"/>

  <!-- 後ろ足(左右) -->
  <ellipse cx="120" cy="300" rx="34" ry="26" fill="#c8934a" stroke="#2d263c" stroke-width="7" stroke-linejoin="round"/>
  <ellipse cx="240" cy="300" rx="34" ry="26" fill="#c8934a" stroke="#2d263c" stroke-width="7" stroke-linejoin="round"/>

  <!-- 体(ずんぐりマッチョ) -->
  <path d="M100 200 C90 250 100 300 130 316 C160 328 200 328 232 316 C262 300 272 250 258 200 C240 178 120 178 100 200 Z" fill="#d9a95f" stroke="#2d263c" stroke-width="8" stroke-linejoin="round"/>

  <!-- 胸の毛(クリーム色) -->
  <ellipse cx="180" cy="240" rx="46" ry="56" fill="#f0dcae" stroke="#2d263c" stroke-width="5" stroke-linejoin="round"/>

  <!-- 前足(左右) -->
  <ellipse cx="128" cy="288" rx="26" ry="34" fill="#d9a95f" stroke="#2d263c" stroke-width="7" stroke-linejoin="round"/>
  <ellipse cx="232" cy="288" rx="26" ry="34" fill="#d9a95f" stroke="#2d263c" stroke-width="7" stroke-linejoin="round"/>

  <!-- 首の棘カラー(黒) -->
  <path d="M108 188 C140 210 220 210 252 188 C252 178 240 168 180 168 C120 168 108 178 108 188 Z" fill="#2a2732" stroke="#2d263c" stroke-width="6" stroke-linejoin="round"/>
  <path d="M120 174 L112 156" stroke="#2d263c" stroke-width="6" stroke-linecap="round"/>
  <path d="M150 168 L146 148" stroke="#2d263c" stroke-width="6" stroke-linecap="round"/>
  <path d="M180 166 L180 144" stroke="#2d263c" stroke-width="6" stroke-linecap="round"/>
  <path d="M210 168 L214 148" stroke="#2d263c" stroke-width="6" stroke-linecap="round"/>
  <path d="M240 174 L248 156" stroke="#2d263c" stroke-width="6" stroke-linecap="round"/>

  <!-- 耳(黒・立ち耳) -->
  <path d="M118 108 C104 84 100 62 116 50 C132 66 134 92 132 116 Z" fill="#2a2732" stroke="#2d263c" stroke-width="7" stroke-linejoin="round"/>
  <path d="M242 108 C256 84 260 62 244 50 C228 66 226 92 228 116 Z" fill="#2a2732" stroke="#2d263c" stroke-width="7" stroke-linejoin="round"/>

  <!-- 頭(大きくしわしわ・マッスィブ) -->
  <ellipse cx="180" cy="150" rx="90" ry="76" fill="#d9a95f" stroke="#2d263c" stroke-width="8" stroke-linejoin="round"/>

  <!-- 黒マスク(目の周り〜鼻先) -->
  <path d="M108 140 C104 108 130 82 180 82 C230 82 256 108 252 140 C252 170 224 190 180 190 C136 190 108 170 108 140 Z" fill="#2a2732" stroke="#2d263c" stroke-width="7" stroke-linejoin="round"/>

  <!-- しわ模様(額) -->
  <path d="M140 96 C150 90 160 90 168 96" fill="none" stroke="#1a1720" stroke-width="4" stroke-linecap="round"/>
  <path d="M192 96 C200 90 210 90 220 96" fill="none" stroke="#1a1720" stroke-width="4" stroke-linecap="round"/>

  <!-- 目(左右・赤くつり目) -->
  <path d="M136 130 C148 118 168 118 176 130 C168 140 148 140 136 130 Z" fill="#ff5a3c" stroke="#2d263c" stroke-width="5" stroke-linejoin="round"/>
  <path d="M184 130 C192 118 212 118 224 130 C212 140 192 140 184 130 Z" fill="#ff5a3c" stroke="#2d263c" stroke-width="5" stroke-linejoin="round"/>
  <ellipse cx="160" cy="129" rx="6" ry="7" fill="#1a1a2e"/>
  <ellipse cx="200" cy="129" rx="6" ry="7" fill="#1a1a2e"/>

  <!-- 下顎(受け口・出っ歯) -->
  <path d="M144 168 C160 190 200 190 216 168 C210 182 200 190 180 192 C160 190 150 182 144 168 Z" fill="#c8934a" stroke="#2d263c" stroke-width="6" stroke-linejoin="round"/>
  <path d="M164 178 L162 192" stroke="#f5f0e6" stroke-width="6" stroke-linecap="round"/>
  <path d="M196 178 L198 192" stroke="#f5f0e6" stroke-width="6" stroke-linecap="round"/>

  <!-- 鼻 -->
  <ellipse cx="180" cy="152" rx="13" ry="9" fill="#1a1720" stroke="#2d263c" stroke-width="4"/>
</svg>
