<svg xmlns="http://www.w3.org/2000/svg" viewBox="0 0 360 360">
  <path d="M275,175 Q325,135 338,190 Q325,245 275,215 Q285,195 275,175 Z" fill="#eab630" stroke="#2d263c" stroke-width="7" stroke-linejoin="round"/>
  <path d="M145,115 Q160,55 215,95 Q205,120 150,125 Z" fill="#eab630" stroke="#2d263c" stroke-width="6" stroke-linejoin="round"/>
  <path d="M88,222 Q45,238 55,275 Q90,265 112,232 Z" fill="#eab630" stroke="#2d263c" stroke-width="6" stroke-linejoin="round"/>
  <path d="M255,228 Q298,246 288,280 Q252,268 235,240 Z" fill="#eab630" stroke="#2d263c" stroke-width="6" stroke-linejoin="round"/>
  <ellipse cx="180" cy="200" rx="120" ry="95" fill="#5f5878" stroke="#2d263c" stroke-width="8"/>
  <ellipse cx="180" cy="252" rx="82" ry="52" fill="#f6dd8c"/>
  <ellipse cx="148" cy="140" rx="18" ry="13" fill="#f6dd8c"/>
  <ellipse cx="212" cy="150" rx="15" ry="11" fill="#f6dd8c"/>
  <ellipse cx="182" cy="118" rx="12" ry="9" fill="#f6dd8c"/>
  <path d="M132,232 Q108,278 96,322" fill="none" stroke="#2d263c" stroke-width="7" stroke-linecap="round"/>
  <path d="M148,242 Q140,290 128,332" fill="none" stroke="#2d263c" stroke-width="7" stroke-linecap="round"/>
  <path d="M228,232 Q252,278 264,322" fill="none" stroke="#2d263c" stroke-width="7" stroke-linecap="round"/>
  <path d="M212,242 Q220,290 232,332" fill="none" stroke="#2d263c" stroke-width="7" stroke-linecap="round"/>
  <path d="M138,252 Q180,292 222,252" fill="none" stroke="#2d263c" stroke-width="7" stroke-linecap="round"/>
  <ellipse cx="150" cy="176" rx="10" ry="12" fill="#ffffff" stroke="#2d263c" stroke-width="3"/>
  <circle cx="151" cy="179" r="4.5" fill="#201a2c"/>
  <ellipse cx="212" cy="176" rx="10" ry="12" fill="#ffffff" stroke="#2d263c" stroke-width="3"/>
  <circle cx="211" cy="179" r="4.5" fill="#201a2c"/>
</svg>
