<svg xmlns="http://www.w3.org/2000/svg" viewBox="0 0 360 360">
<ellipse cx="185" cy="245" rx="45" ry="18" fill="#3a3350" opacity="0.18"/>
<path d="M255 205 Q300 175 298 225 Q296 268 255 260 Q225 253 232 220 Q238 205 255 205 Z" fill="#9a86bd" stroke="#2d263c" stroke-width="7" stroke-linejoin="round"/>
<path d="M278 208 Q315 195 300 240 Q288 260 262 245 Z" fill="#f3ecd8" stroke="#2d263c" stroke-width="6" stroke-linejoin="round"/>
<ellipse cx="180" cy="230" rx="88" ry="66" fill="#9a86bd" stroke="#2d263c" stroke-width="8" stroke-linejoin="round"/>
<ellipse cx="180" cy="248" rx="52" ry="40" fill="#f3ecd8" stroke="#2d263c" stroke-width="6" stroke-linejoin="round"/>
<ellipse cx="120" cy="288" rx="17" ry="22" fill="#9a86bd" stroke="#2d263c" stroke-width="6" stroke-linejoin="round"/>
<ellipse cx="238" cy="288" rx="17" ry="22" fill="#9a86bd" stroke="#2d263c" stroke-width="6" stroke-linejoin="round"/>
<ellipse cx="120" cy="303" rx="16" ry="8" fill="#3a3350" stroke="#2d263c" stroke-width="4" stroke-linejoin="round"/>
<ellipse cx="238" cy="303" rx="16" ry="8" fill="#3a3350" stroke="#2d263c" stroke-width="4" stroke-linejoin="round"/>
<circle cx="180" cy="150" r="66" fill="#9a86bd" stroke="#2d263c" stroke-width="8"/>
<path d="M130 100 Q118 55 150 78 Q140 100 130 100 Z" fill="#9a86bd" stroke="#2d263c" stroke-width="7" stroke-linejoin="round"/>
<path d="M230 100 Q244 55 210 78 Q222 100 230 100 Z" fill="#9a86bd" stroke="#2d263c" stroke-width="7" stroke-linejoin="round"/>
<path d="M136 92 Q128 65 148 80 Q143 92 136 92 Z" fill="#3a3350"/>
<path d="M224 92 Q233 65 213 80 Q218 92 224 92 Z" fill="#3a3350"/>
<ellipse cx="180" cy="163" rx="46" ry="42" fill="#f3ecd8" stroke="#2d263c" stroke-width="6"/>
<path d="M136 140 Q160 120 180 140 Q200 120 224 140" fill="none" stroke="#3a3350" stroke-width="10" stroke-linecap="round"/>
<circle cx="158" cy="160" r="13" fill="#e0293f" stroke="#2d263c" stroke-width="5"/>
<circle cx="202" cy="160" r="13" fill="#e0293f" stroke="#2d263c" stroke-width="5"/>
<circle cx="158" cy="163" r="5" fill="#1c1626"/>
<circle cx="202" cy="163" r="5" fill="#1c1626"/>
<ellipse cx="180" cy="183" rx="8" ry="6" fill="#3a3350" stroke="#2d263c" stroke-width="3"/>
<path d="M167 195 Q180 202 193 195" fill="none" stroke="#2d263c" stroke-width="5" stroke-linecap="round"/>
<path d="M118 165 Q98 168 108 185" fill="none" stroke="#2d263c" stroke-width="6" stroke-linecap="round"/>
<path d="M242 165 Q262 168 252 185" fill="none" stroke="#2d263c" stroke-width="6" stroke-linecap="round"/>
</svg>
