<svg xmlns="http://www.w3.org/2000/svg" viewBox="0 0 360 360">
<path d="M176 78 Q166 52 186 46 Q208 46 200 70 Q196 80 184 76 Z" fill="#3a3548" stroke="#2d263c" stroke-width="6" stroke-linejoin="round"/>
<ellipse cx="180" cy="118" rx="44" ry="42" fill="#3a3548" stroke="#2d263c" stroke-width="7"/>
<ellipse cx="180" cy="124" rx="30" ry="32" fill="#2a2634"/>
<ellipse cx="168" cy="120" rx="6" ry="9" fill="#f0d870"/>
<ellipse cx="192" cy="120" rx="6" ry="9" fill="#f0d870"/>
<path d="M150 150 Q180 142 210 150 L204 230 Q180 224 156 230 Z" fill="#3a3548" stroke="#2d263c" stroke-width="7" stroke-linejoin="round"/>
<path d="M152 156 Q128 180 124 214 L138 218 Q142 188 162 168 Z" fill="#3a3548" stroke="#2d263c" stroke-width="6" stroke-linejoin="round"/>
<path d="M208 156 Q232 180 236 214 L222 218 Q218 188 198 168 Z" fill="#3a3548" stroke="#2d263c" stroke-width="6" stroke-linejoin="round"/>
<path d="M150 228 Q108 262 104 304 Q114 332 146 322 Q156 344 182 328 Q200 344 220 326 Q244 344 256 318 Q260 278 214 228 Z" fill="#3a3548" stroke="#2d263c" stroke-width="7" stroke-linejoin="round"/>
<path d="M120 300 Q110 314 122 316 Q128 308 120 300 Z" fill="none" stroke="#4a4555" stroke-width="4"/>
<path d="M240 300 Q250 314 238 316 Q232 308 240 300 Z" fill="none" stroke="#4a4555" stroke-width="4"/>
</svg>