<svg xmlns="http://www.w3.org/2000/svg" viewBox="0 0 360 360">
<ellipse cx="130" cy="205" rx="75" ry="72" fill="#d17fc9" stroke="#2d263c" stroke-width="7" stroke-linejoin="round"/>
<ellipse cx="230" cy="205" rx="75" ry="72" fill="#b959ae" stroke="#2d263c" stroke-width="7" stroke-linejoin="round"/>
<path d="M180,140 C168,180 168,232 180,270" fill="none" stroke="#2d263c" stroke-width="5" stroke-linecap="round"/>
<path d="M75,225 Q130,270 185,225 Q130,250 75,225 Z" fill="#f6c6ee"/>
<path d="M175,225 Q230,270 285,225 Q230,250 175,225 Z" fill="#f6c6ee"/>
<rect x="97" y="55" width="30" height="95" rx="8" fill="#6b3a68" stroke="#2d263c" stroke-width="7" stroke-linejoin="round"/>
<ellipse cx="112" cy="55" rx="20" ry="11" fill="#79d1b3" stroke="#2d263c" stroke-width="7"/>
<ellipse cx="112" cy="100" rx="15" ry="6" fill="#f2b9e8"/>
<rect x="222" y="90" width="28" height="63" rx="8" fill="#6b3a68" stroke="#2d263c" stroke-width="7" stroke-linejoin="round"/>
<ellipse cx="236" cy="90" rx="18" ry="10" fill="#79d1b3" stroke="#2d263c" stroke-width="7"/>
<ellipse cx="236" cy="125" rx="14" ry="6" fill="#f2b9e8"/>
<circle cx="105" cy="190" r="6" fill="#2d263c"/>
<circle cx="140" cy="190" r="6" fill="#2d263c"/>
<circle cx="220" cy="190" r="6" fill="#2d263c"/>
<circle cx="250" cy="190" r="6" fill="#2d263c"/>
<path d="M105,215 Q122,224 140,215" fill="none" stroke="#2d263c" stroke-width="6" stroke-linecap="round"/>
<path d="M215,215 Q235,224 252,215" fill="none" stroke="#2d263c" stroke-width="6" stroke-linecap="round"/>
<path d="M98,175 L128,168" fill="none" stroke="#2d263c" stroke-width="6" stroke-linecap="round"/>
<path d="M232,168 L262,175" fill="none" stroke="#2d263c" stroke-width="6" stroke-linecap="round"/>
<circle cx="95" cy="170" r="6" fill="#9a3f92"/>
<circle cx="150" cy="235" r="5" fill="#9a3f92"/>
<circle cx="255" cy="175" r="6" fill="#9a3f92"/>
<circle cx="205" cy="240" r="5" fill="#9a3f92"/>
<circle cx="112" cy="30" r="8" fill="#cfe9c9"/>
<circle cx="90" cy="32" r="5" fill="#cfe9c9"/>
<circle cx="236" cy="62" r="7" fill="#cfe9c9"/>
<circle cx="250" cy="50" r="5" fill="#cfe9c9"/>
</svg>
