<svg xmlns="http://www.w3.org/2000/svg" viewBox="0 0 360 360">
  <path d="M145,115 C130,80 115,55 108,30 C130,45 150,70 162,105 Z" fill="#f7d02c" stroke="#2d263c" stroke-width="7" stroke-linejoin="round"/>
  <path d="M108,30 C118,42 128,54 135,66 C122,61 111,48 103,38 Z" fill="#2d263c"/>
  <path d="M215,115 C230,80 245,55 252,30 C230,45 210,70 198,105 Z" fill="#f7d02c" stroke="#2d263c" stroke-width="7" stroke-linejoin="round"/>
  <path d="M252,30 C242,42 232,54 225,66 C238,61 249,48 257,38 Z" fill="#2d263c"/>
  <circle cx="180" cy="152" r="68" fill="#f7d02c" stroke="#2d263c" stroke-width="7"/>
  <path d="M145,205 C110,230 90,280 95,325 C130,336 230,336 265,325 C270,280 250,230 215,205 C205,215 155,215 145,205 Z" fill="#f78fb3" stroke="#2d263c" stroke-width="8" stroke-linejoin="round"/>
  <path d="M100,318 Q125,330 150,318 Q175,330 200,318 Q225,330 250,318" fill="none" stroke="#c2185b" stroke-width="4" stroke-linecap="round"/>
  <ellipse cx="108" cy="218" rx="18" ry="27" transform="rotate(-22 108 218)" fill="#f7d02c" stroke="#2d263c" stroke-width="6"/>
  <ellipse cx="252" cy="218" rx="18" ry="27" transform="rotate(22 252 218)" fill="#f7d02c" stroke="#2d263c" stroke-width="6"/>
  <circle cx="99" cy="244" r="10" fill="#2d263c"/>
  <circle cx="261" cy="244" r="10" fill="#2d263c"/>
  <path d="M276,150 L256,208 L275,203 L260,258 L299,190 L278,194 Z" fill="#f7d02c" stroke="#2d263c" stroke-width="6" stroke-linejoin="round"/>
  <path d="M272,160 L262,198 L272,195 L264,222 Z" fill="#8a5a2b"/>
  <circle cx="156" cy="146" r="10" fill="#2d263c"/>
  <circle cx="204" cy="146" r="10" fill="#2d263c"/>
  <circle cx="159" cy="142" r="3" fill="#ffffff"/>
  <circle cx="207" cy="142" r="3" fill="#ffffff"/>
  <circle cx="124" cy="168" r="14" fill="#ef5350"/>
  <circle cx="236" cy="168" r="14" fill="#ef5350"/>
  <ellipse cx="180" cy="160" rx="4" ry="3" fill="#2d263c"/>
  <path d="M170,176 Q180,184 190,176" fill="none" stroke="#2d263c" stroke-width="5" stroke-linecap="round"/>
  <circle cx="222" cy="86" r="14" fill="#f8a5c2"/>
  <circle cx="209" cy="99" r="13" fill="#f8a5c2"/>
  <circle cx="235" cy="99" r="13" fill="#f8a5c2"/>
  <circle cx="222" cy="96" r="8" fill="#e0578a" stroke="#2d263c" stroke-width="4"/>
  <path d="M204,107 Q193,118 204,129 Q212,118 204,107 Z" fill="#4caf7d"/>
  <path d="M165,203 L149,194 L149,213 Z" fill="#f78fb3" stroke="#2d263c" stroke-width="4" stroke-linejoin="round"/>
  <path d="M195,203 L211,194 L211,213 Z" fill="#f78fb3" stroke="#2d263c" stroke-width="4" stroke-linejoin="round"/>
  <circle cx="180" cy="203" r="7" fill="#e0578a"/>
</svg>
