<svg xmlns="http://www.w3.org/2000/svg" viewBox="0 0 360 360">
<ellipse cx="118" cy="172" rx="42" ry="66" fill="#e8dec8" stroke="#2d263c" stroke-width="6" transform="rotate(22 118 172)"/>
<ellipse cx="242" cy="172" rx="42" ry="66" fill="#e8dec8" stroke="#2d263c" stroke-width="6" transform="rotate(-22 242 172)"/>
<path d="M122 200 Q90 168 86 110 Q120 140 150 188 Z" fill="#c84030" stroke="#2d263c" stroke-width="7" stroke-linejoin="round"/>
<path d="M238 200 Q270 168 274 110 Q240 140 210 188 Z" fill="#c84030" stroke="#2d263c" stroke-width="7" stroke-linejoin="round"/>
<ellipse cx="120" cy="116" rx="20" ry="24" fill="#a83020" stroke="#2d263c" stroke-width="6"/>
<ellipse cx="240" cy="116" rx="20" ry="24" fill="#a83020" stroke="#2d263c" stroke-width="6"/>
<ellipse cx="180" cy="218" rx="60" ry="74" fill="#c84030" stroke="#2d263c" stroke-width="8"/>
<path d="M150 196 Q180 186 210 196" fill="none" stroke="#8a2820" stroke-width="6" stroke-linecap="round"/>
<ellipse cx="180" cy="132" rx="38" ry="30" fill="#c84030" stroke="#2d263c" stroke-width="7"/>
<ellipse cx="167" cy="126" rx="8" ry="11" fill="#f0d040" stroke="#2d263c" stroke-width="4"/>
<ellipse cx="193" cy="126" rx="8" ry="11" fill="#f0d040" stroke="#2d263c" stroke-width="4"/>
<path d="M180 158 L196 196 L204 210 L188 172 Z" fill="#5a2018" stroke="#2d263c" stroke-width="5" stroke-linejoin="round"/>
<rect x="166" y="278" width="13" height="46" rx="6" fill="#a83020" stroke="#2d263c" stroke-width="6"/>
<rect x="181" y="278" width="13" height="46" rx="6" fill="#a83020" stroke="#2d263c" stroke-width="6"/>
</svg>