<svg xmlns="http://www.w3.org/2000/svg" viewBox="0 0 360 360">
  <path d="M258 272 L292 285 L281 250 L312 244" fill="none" stroke="#2d263c" stroke-width="7" stroke-linejoin="round" stroke-linecap="round"/>
  <circle cx="319" cy="234" r="17" fill="#4585d6" stroke="#2d263c" stroke-width="7"/>
  <ellipse cx="118" cy="84" rx="29" ry="58" transform="rotate(-21 118 84)" fill="#4585d6" stroke="#2d263c" stroke-width="7" stroke-linejoin="round"/>
  <ellipse cx="118" cy="80" rx="15" ry="38" transform="rotate(-21 118 80)" fill="#243a6b" stroke="#2d263c" stroke-width="6"/>
  <ellipse cx="238" cy="78" rx="31" ry="61" transform="rotate(14 238 78)" fill="#4585d6" stroke="#2d263c" stroke-width="7" stroke-linejoin="round"/>
  <ellipse cx="238" cy="74" rx="16" ry="40" transform="rotate(14 238 74)" fill="#243a6b" stroke="#2d263c" stroke-width="6"/>
  <path d="M178 112 C 118 116 91 166 89 221 C 87 283 130 319 182 317 C 241 315 273 277 271 215 C 269 159 239 108 178 112 Z" fill="#4585d6" stroke="#2d263c" stroke-width="8" stroke-linejoin="round"/>
  <ellipse cx="143" cy="318" rx="27" ry="14" fill="#4585d6" stroke="#2d263c" stroke-width="7"/>
  <ellipse cx="221" cy="321" rx="24" ry="13" fill="#4585d6" stroke="#2d263c" stroke-width="7"/>
  <path d="M180 192 C 136 194 117 231 121 268 C 125 300 150 313 181 312 C 215 311 237 295 239 261 C 241 226 223 190 180 192 Z" fill="#ffffff" stroke="#2d263c" stroke-width="7" stroke-linejoin="round"/>
  <ellipse cx="126" cy="184" rx="15" ry="10" transform="rotate(-16 126 184)" fill="#ffffff" stroke="#2d263c" stroke-width="6"/>
  <ellipse cx="237" cy="180" rx="12" ry="9" transform="rotate(12 237 180)" fill="#ffffff" stroke="#2d263c" stroke-width="6"/>
  <circle cx="100" cy="232" r="17" fill="#4585d6" stroke="#2d263c" stroke-width="7"/>
  <circle cx="260" cy="237" r="15" fill="#4585d6" stroke="#2d263c" stroke-width="7"/>
  <circle cx="150" cy="152" r="10" fill="#2d263c"/>
  <circle cx="153" cy="149" r="3.5" fill="#ffffff"/>
  <circle cx="211" cy="149" r="11" fill="#2d263c"/>
  <circle cx="214" cy="146" r="3.5" fill="#ffffff"/>
  <circle cx="181" cy="162" r="4" fill="#2d263c"/>
  <path d="M169 173 q 11 13 24 -2" fill="none" stroke="#2d263c" stroke-width="6" stroke-linecap="round"/>
</svg>