<svg xmlns="http://www.w3.org/2000/svg" viewBox="0 0 360 360">
  <path d="M150,255 L210,255 L180,325 Z" fill="#8a7d68" stroke="#2d263c" stroke-width="7" stroke-linejoin="round" stroke-linecap="round"/>
  <path d="M166,296 L194,296 L180,323 Z" fill="#2d263c" stroke="#2d263c" stroke-width="6" stroke-linejoin="round" stroke-linecap="round"/>
  <path d="M70,170 Q48,222 76,270 Q100,292 121,260 Q101,220 106,176 Q90,158 70,170 Z" fill="#a4967c" stroke="#2d263c" stroke-width="7" stroke-linejoin="round" stroke-linecap="round"/>
  <path d="M290,170 Q312,222 284,270 Q260,292 239,260 Q259,220 254,176 Q270,158 290,170 Z" fill="#a4967c" stroke="#2d263c" stroke-width="7" stroke-linejoin="round" stroke-linecap="round"/>
  <ellipse cx="94" cy="228" rx="10" ry="15" fill="#6f6552" stroke="#2d263c" stroke-width="6" stroke-linejoin="round"/>
  <ellipse cx="266" cy="228" rx="10" ry="15" fill="#6f6552" stroke="#2d263c" stroke-width="6" stroke-linejoin="round"/>
  <ellipse cx="180" cy="225" rx="95" ry="80" fill="#c7b696" stroke="#2d263c" stroke-width="8" stroke-linejoin="round"/>
  <ellipse cx="180" cy="252" rx="54" ry="41" fill="#e7dcc0" stroke="#2d263c" stroke-width="6" stroke-linejoin="round"/>
  <ellipse cx="145" cy="300" rx="17" ry="11" fill="#e8927e" stroke="#2d263c" stroke-width="6" stroke-linejoin="round"/>
  <ellipse cx="215" cy="300" rx="17" ry="11" fill="#e8927e" stroke="#2d263c" stroke-width="6" stroke-linejoin="round"/>
  <path d="M95,165 C130,195 230,195 265,165 L265,142 C230,172 130,172 95,142 Z" fill="#2d2a33" stroke="#2d263c" stroke-width="7" stroke-linejoin="round" stroke-linecap="round"/>
  <circle cx="180" cy="112" r="62" fill="#e3c7c3" stroke="#2d263c" stroke-width="8"/>
  <circle cx="153" cy="105" r="11" fill="#201c28" stroke="#2d263c" stroke-width="6"/>
  <circle cx="149" cy="100" r="4" fill="#ffffff"/>
  <circle cx="207" cy="105" r="11" fill="#201c28" stroke="#2d263c" stroke-width="6"/>
  <circle cx="203" cy="100" r="4" fill="#ffffff"/>
  <path d="M163,135 L197,135 L180,160 Z" fill="#eda23f" stroke="#2d263c" stroke-width="6" stroke-linejoin="round" stroke-linecap="round"/>
  <path d="M172,152 L188,152 L180,164 Z" fill="#d98a2c" stroke="#2d263c" stroke-width="6" stroke-linejoin="round" stroke-linecap="round"/>
</svg>
