<svg xmlns="http://www.w3.org/2000/svg" viewBox="0 0 360 360">
  <ellipse cx="115" cy="285" rx="50" ry="48" fill="#fffaf0" stroke="#2d263c" stroke-width="7" stroke-linejoin="round"/>
  <ellipse cx="180" cy="280" rx="58" ry="56" fill="#fffaf0" stroke="#2d263c" stroke-width="7" stroke-linejoin="round"/>
  <ellipse cx="245" cy="285" rx="50" ry="48" fill="#fffaf0" stroke="#2d263c" stroke-width="7" stroke-linejoin="round"/>
  <ellipse cx="140" cy="213" rx="40" ry="38" fill="#ffd9ec" stroke="#2d263c" stroke-width="7" stroke-linejoin="round"/>
  <ellipse cx="180" cy="208" rx="46" ry="44" fill="#ffd9ec" stroke="#2d263c" stroke-width="7" stroke-linejoin="round"/>
  <ellipse cx="220" cy="213" rx="40" ry="38" fill="#ffd9ec" stroke="#2d263c" stroke-width="7" stroke-linejoin="round"/>
  <ellipse cx="150" cy="152" rx="33" ry="31" fill="#fffaf0" stroke="#2d263c" stroke-width="6" stroke-linejoin="round"/>
  <ellipse cx="180" cy="148" rx="38" ry="36" fill="#fffaf0" stroke="#2d263c" stroke-width="6" stroke-linejoin="round"/>
  <ellipse cx="210" cy="152" rx="33" ry="31" fill="#fffaf0" stroke="#2d263c" stroke-width="6" stroke-linejoin="round"/>
  <ellipse cx="157" cy="97" rx="26" ry="25" fill="#ffd9ec" stroke="#2d263c" stroke-width="6" stroke-linejoin="round"/>
  <ellipse cx="180" cy="93" rx="30" ry="28" fill="#ffd9ec" stroke="#2d263c" stroke-width="6" stroke-linejoin="round"/>
  <ellipse cx="203" cy="97" rx="26" ry="25" fill="#ffd9ec" stroke="#2d263c" stroke-width="6" stroke-linejoin="round"/>
  <ellipse cx="180" cy="55" rx="22" ry="21" fill="#fffaf0" stroke="#2d263c" stroke-width="6" stroke-linejoin="round"/>
  <path d="M180,22 Q186,10 176,6" fill="none" stroke="#5a8f4a" stroke-width="5" stroke-linecap="round"/>
  <circle cx="180" cy="32" r="11" fill="#e0405a" stroke="#2d263c" stroke-width="6"/>
  <path d="M120,270 Q150,240 130,200 Q110,160 150,140" fill="none" stroke="#ff8fc0" stroke-width="5" stroke-linecap="round"/>
  <path d="M240,270 Q210,240 230,200 Q250,160 210,140" fill="none" stroke="#ff8fc0" stroke-width="5" stroke-linecap="round"/>
  <circle cx="200" cy="270" r="6" fill="#ffd23f" stroke="#2d263c" stroke-width="4"/>
  <circle cx="160" cy="160" r="6" fill="#5cc8ff" stroke="#2d263c" stroke-width="4"/>
  <circle cx="205" cy="100" r="5" fill="#ffd23f" stroke="#2d263c" stroke-width="4"/>
  <circle cx="145" cy="215" r="9" fill="#ff9db8"/>
  <circle cx="215" cy="215" r="9" fill="#ff9db8"/>
  <circle cx="163" cy="203" r="6" fill="#2d263c"/>
  <circle cx="197" cy="203" r="6" fill="#2d263c"/>
  <circle cx="161" cy="201" r="2" fill="#ffffff"/>
  <circle cx="195" cy="201" r="2" fill="#ffffff"/>
  <path d="M168,222 Q180,230 192,222" fill="none" stroke="#2d263c" stroke-width="6" stroke-linecap="round"/>
</svg>
