<svg xmlns="http://www.w3.org/2000/svg" viewBox="0 0 360 360">
  <!-- ぶら下がる糸 -->
  <path d="M180,42 L180,20" fill="none" stroke="#2d263c" stroke-width="6" stroke-linecap="round"/>

  <!-- 体(まゆ型) -->
  <path d="M180,50
           C142,55 100,92 96,144
           C92,196 92,244 102,272
           C112,302 144,318 180,320
           C216,318 248,302 258,272
           C268,244 268,196 264,144
           C260,92 218,55 180,50 Z"
        fill="#6b4a86" stroke="#2d263c" stroke-width="8" stroke-linejoin="round" stroke-linecap="round"/>

  <!-- 頭側の丸み(明るいハイライト) -->
  <path d="M140,85 C130,110 122,140 122,160 C122,168 132,170 136,162
           C140,138 148,110 158,90 C154,84 146,82 140,85 Z"
        fill="#8a68a8" stroke="none"/>

  <!-- 節目の帯(上) -->
  <path d="M100,150 C130,168 230,168 262,150" fill="none" stroke="#4a3564" stroke-width="7" stroke-linecap="round"/>

  <!-- 節目の帯(中央・淡い色) -->
  <path d="M95,205 C130,226 232,226 265,205 L263,232 C230,252 130,252 97,232 Z"
        fill="#c79ce0" stroke="#2d263c" stroke-width="6" stroke-linejoin="round"/>

  <!-- 節目の帯(下) -->
  <path d="M104,268 C136,286 226,286 258,268" fill="none" stroke="#4a3564" stroke-width="7" stroke-linecap="round"/>

  <!-- とがった突起(左) -->
  <path d="M96,150 C82,148 70,158 66,172 C78,172 90,168 100,160 Z"
        fill="#4a3564" stroke="#2d263c" stroke-width="6" stroke-linejoin="round"/>

  <!-- とがった突起(右) -->
  <path d="M264,150 C278,148 290,158 294,172 C282,172 270,168 260,160 Z"
        fill="#4a3564" stroke="#2d263c" stroke-width="6" stroke-linejoin="round"/>

  <!-- 下の小さいフック(左) -->
  <path d="M120,300 C112,308 110,318 116,326 C122,320 126,312 126,304 Z"
        fill="#4a3564" stroke="#2d263c" stroke-width="6" stroke-linejoin="round"/>

  <!-- 下の小さいフック(右) -->
  <path d="M240,300 C248,308 250,318 244,326 C238,320 234,312 234,304 Z"
        fill="#4a3564" stroke="#2d263c" stroke-width="6" stroke-linejoin="round"/>

  <!-- 目(左・つり目でちょっと怒り顔) -->
  <path d="M138,128 C146,120 158,120 164,126 C156,132 146,134 138,128 Z"
        fill="#1c1626" stroke="#2d263c" stroke-width="4" stroke-linejoin="round"/>

  <!-- 目(右・つり目でちょっと怒り顔) -->
  <path d="M222,126 C228,120 240,120 248,128 C240,134 230,132 222,126 Z"
        fill="#1c1626" stroke="#2d263c" stroke-width="4" stroke-linejoin="round"/>

  <!-- 口(への字) -->
  <path d="M166,150 C174,146 194,146 202,150" fill="none" stroke="#2d263c" stroke-width="5" stroke-linecap="round"/>
</svg>
