<svg xmlns="http://www.w3.org/2000/svg" viewBox="0 0 360 360">
<g fill="none" stroke="#2d263c" stroke-width="7" stroke-linejoin="round" stroke-linecap="round">
<path fill="#d4e07a" d="M180,55 C140,55 118,90 112,135 C105,185 108,240 130,275 C148,303 165,315 180,315 C195,315 212,303 230,275 C252,240 255,185 248,135 C242,90 220,55 180,55 Z"/>
<path stroke="#a9bb4a" stroke-width="5" d="M118,150 C155,165 205,165 242,150"/>
<path stroke="#a9bb4a" stroke-width="5" d="M112,195 C155,212 205,212 248,195"/>
<path stroke="#a9bb4a" stroke-width="5" d="M120,240 C155,254 205,254 240,240"/>
<path d="M150,80 C140,60 128,45 112,40" stroke-width="6"/>
<path d="M210,80 C220,60 232,45 248,40" stroke-width="6"/>
<circle fill="#2d263c" stroke="none" cx="112" cy="38" r="6"/>
<circle fill="#2d263c" stroke="none" cx="248" cy="38" r="6"/>
<circle fill="#221c2c" cx="145" cy="150" r="34"/>
<circle fill="#221c2c" cx="215" cy="150" r="34"/>
<circle fill="#ffffff" stroke="none" cx="134" cy="138" r="9"/>
<circle fill="#ffffff" stroke="none" cx="204" cy="138" r="9"/>
<path fill="#c58a3a" d="M155,192 C155,182 165,178 172,185 C176,178 184,178 188,185 C195,178 205,182 205,192 C205,204 190,212 180,206 C170,212 155,204 155,192 Z"/>
<path fill="#8bab3a" d="M108,215 C90,222 80,240 84,258 C96,255 108,240 112,222 Z"/>
<path fill="#8bab3a" d="M252,215 C270,222 280,240 276,258 C264,255 252,240 248,222 Z"/>
<path fill="#8bab3a" d="M138,285 C130,300 130,315 142,320 C152,312 154,296 148,282 Z"/>
<path fill="#8bab3a" d="M222,285 C230,300 230,315 218,320 C208,312 206,296 212,282 Z"/>
</g>
</svg>
