<svg xmlns="http://www.w3.org/2000/svg" viewBox="0 0 360 360">
  <!-- 杖(後ろ) -->
  <line x1="255" y1="60" x2="210" y2="230" stroke="#7a5c30" stroke-width="7" stroke-linecap="round"/>
  <!-- 杖先の光 -->
  <ellipse cx="256" cy="56" rx="10" ry="13" fill="#fff7a0" stroke="#e8c030" stroke-width="3"/>
  <ellipse cx="256" cy="56" rx="5" ry="7" fill="#ffe040"/>

  <!-- しっぽ -->
  <path d="M175 260 Q220 290 230 320 Q220 340 200 330 Q185 310 175 280 Z" fill="#e8492a" stroke="#2d263c" stroke-width="7" stroke-linejoin="round"/>
  <path d="M175 260 Q218 287 226 316" fill="none" stroke="#c43010" stroke-width="4" stroke-linecap="round"/>
  <!-- しっぽ先 クリーム -->
  <ellipse cx="210" cy="330" rx="16" ry="10" fill="#f5e6c2" stroke="#2d263c" stroke-width="5" transform="rotate(-20 210 330)"/>

  <!-- 体のスカート状毛皮 -->
  <path d="M130 210 Q110 240 115 270 Q135 285 165 278 Q185 275 200 275 Q225 280 235 265 Q242 245 225 215 Z" fill="#e8492a" stroke="#2d263c" stroke-width="7" stroke-linejoin="round"/>
  <!-- スカート内側クリーム -->
  <path d="M145 220 Q130 250 140 268 Q165 278 195 272 Q215 268 222 250 Q225 232 210 220 Z" fill="#f5e6c2"/>

  <!-- 胴体 -->
  <path d="M145 145 Q138 185 135 215 Q160 228 180 226 Q205 225 220 212 Q222 185 215 148 Z" fill="#e8492a" stroke="#2d263c" stroke-width="8" stroke-linejoin="round"/>
  <!-- 胸・腹 クリーム -->
  <path d="M158 152 Q150 185 152 210 Q168 220 185 218 Q202 215 205 195 Q208 172 200 152 Q185 148 170 148 Z" fill="#f5e6c2"/>

  <!-- 左腕(奥) -->
  <path d="M145 158 Q118 170 105 195 Q100 210 108 220 Q120 215 130 200 Q140 182 148 168 Z" fill="#e8492a" stroke="#2d263c" stroke-width="7" stroke-linejoin="round"/>
  <!-- 左手 黒 -->
  <ellipse cx="105" cy="222" rx="14" ry="10" fill="#3d1a0a" stroke="#2d263c" stroke-width="5" transform="rotate(-20 105 222)"/>

  <!-- 右腕(杖を持つ) -->
  <path d="M215 155 Q235 165 248 190 Q252 205 242 215 Q230 210 222 195 Q215 178 212 162 Z" fill="#e8492a" stroke="#2d263c" stroke-width="7" stroke-linejoin="round"/>
  <!-- 右手 黒 -->
  <ellipse cx="243" cy="216" rx="14" ry="10" fill="#3d1a0a" stroke="#2d263c" stroke-width="5" transform="rotate(15 243 216)"/>

  <!-- 足(左) -->
  <path d="M148 272 Q140 295 138 315 Q148 325 158 318 Q164 300 162 278 Z" fill="#e8492a" stroke="#2d263c" stroke-width="7" stroke-linejoin="round"/>
  <path d="M138 315 Q130 330 128 338 Q145 342 158 335 Q162 325 158 318 Z" fill="#3d1a0a" stroke="#2d263c" stroke-width="6" stroke-linejoin="round"/>

  <!-- 足(右) -->
  <path d="M188 272 Q192 295 195 315 Q205 325 215 318 Q218 300 210 278 Z" fill="#e8492a" stroke="#2d263c" stroke-width="7" stroke-linejoin="round"/>
  <path d="M195 315 Q198 330 200 338 Q215 340 225 332 Q222 320 215 318 Z" fill="#3d1a0a" stroke="#2d263c" stroke-width="6" stroke-linejoin="round"/>

  <!-- 頭 -->
  <ellipse cx="180" cy="118" rx="52" ry="58" fill="#e8492a" stroke="#2d263c" stroke-width="8"/>
  <!-- 顔 クリーム -->
  <ellipse cx="180" cy="125" rx="36" ry="38" fill="#f5e6c2"/>

  <!-- 耳(左・奥) -->
  <path d="M138 82 Q120 42 128 20 Q140 30 148 55 Q152 68 148 88 Z" fill="#1a1018" stroke="#2d263c" stroke-width="7" stroke-linejoin="round"/>
  <path d="M138 78 Q124 48 130 30 Q136 40 142 60 Q145 70 144 84 Z" fill="#cc1a22"/>

  <!-- 耳(右) -->
  <path d="M222 82 Q240 42 232 20 Q220 30 212 55 Q208 68 212 88 Z" fill="#1a1018" stroke="#2d263c" stroke-width="7" stroke-linejoin="round"/>
  <path d="M222 78 Q236 48 230 30 Q224 40 218 60 Q215 70 216 84 Z" fill="#cc1a22"/>

  <!-- 頭頂の黒い毛束 -->
  <path d="M165 72 Q168 50 160 35 Q172 42 175 58 Q180 46 182 32 Q188 44 185 60 Q192 48 196 34 Q200 46 196 64" fill="none" stroke="#1a1018" stroke-width="8" stroke-linecap="round"/>

  <!-- 黄色ほっぺ(左) -->
  <ellipse cx="152" cy="132" rx="15" ry="11" fill="#f5c842" opacity="0.85"/>
  <!-- 黄色ほっぺ(右) -->
  <ellipse cx="208" cy="132" rx="15" ry="11" fill="#f5c842" opacity="0.85"/>

  <!-- 目(左) -->
  <path d="M162 112 Q168 106 176 110 Q173 118 165 118 Z" fill="#1a1018"/>
  <ellipse cx="166" cy="113" rx="2" ry="1.5" fill="#ffffff" opacity="0.7"/>

  <!-- 目(右) -->
  <path d="M184 110 Q192 106 198 112 Q194 118 186 118 Z" fill="#1a1018"/>
  <ellipse cx="193" cy="112" rx="2" ry="1.5" fill="#ffffff" opacity="0.7"/>

  <!-- 鼻 -->
  <ellipse cx="180" cy="125" rx="4" ry="3" fill="#c43010" opacity="0.7"/>

  <!-- 口 (ちょっとニヤっと) -->
  <path d="M170 135 Q180 143 190 135" fill="none" stroke="#2d263c" stroke-width="4" stroke-linecap="round"/>

  <!-- 首の毛(えり) -->
  <path d="M155 160 Q150 148 158 142 Q165 138 172 142 Q180 136 188 142 Q196 138 202 148 Q207 160 200 165 Q185 155 180 158 Q165 160 155 160 Z" fill="#f5e6c2" stroke="#2d263c" stroke-width="5" stroke-linejoin="round"/>
</svg>