<svg xmlns="http://www.w3.org/2000/svg" viewBox="0 0 360 360"><g stroke="#2d263c" stroke-width="7" stroke-linejoin="round" stroke-linecap="round"><path d="M238,252 L284,238 L268,208 L308,194 L292,162 L334,148 L322,56 L286,70 L296,120 L262,136 L276,168 L240,184 L254,216 L224,232 Z" fill="#f9d31d"/><path d="M238,252 L224,232 L254,216 L268,240 Z" fill="#8a5a2b"/><path d="M180,190 L128,298 L180,266 L232,298 Z" fill="#2a6fdb"/><path d="M134,196 C114,226 104,266 110,294 C116,322 142,332 178,332 C214,332 240,322 246,294 C252,266 242,226 222,196 C196,206 160,206 134,196 Z" fill="#f9d31d"/><path d="M146,98 Q104,72 82,36 Q76,24 88,28 Q134,48 176,84 Q162,94 146,98 Z" fill="#f9d31d"/><path d="M82,36 Q76,24 88,28 Q108,38 128,56 Q116,68 100,58 Q88,48 82,36 Z" fill="#2d263c"/><path d="M214,98 Q256,72 278,36 Q284,24 272,28 Q226,48 184,84 Q198,94 214,98 Z" fill="#f9d31d"/><path d="M278,36 Q284,24 272,28 Q252,38 232,56 Q244,68 260,58 Q272,48 278,36 Z" fill="#2d263c"/><path d="M104,150 C104,110 136,84 180,84 C224,84 256,110 256,150 C256,176 240,196 214,205 C203,209 192,211 180,211 C168,211 157,209 146,205 C120,196 104,176 104,150 Z" fill="#1c1b22"/><ellipse cx="156" cy="150" rx="20" ry="24" fill="#ffffff" stroke-width="5"/><ellipse cx="204" cy="150" rx="20" ry="24" fill="#ffffff" stroke-width="5"/><circle cx="156" cy="154" r="10" fill="#2d263c" stroke="none"/><circle cx="204" cy="154" r="10" fill="#2d263c" stroke="none"/><path d="M180,86 L186,96 L197,100 L186,104 L180,114 L174,104 L163,100 L174,96 Z" fill="#ff6fa5" stroke-width="5"/><circle cx="136" cy="198" r="16" fill="#e23d2d" stroke-width="5"/><circle cx="224" cy="198" r="16" fill="#e23d2d" stroke-width="5"/><path d="M164,206 Q180,216 196,206" fill="none" stroke-width="5"/><ellipse cx="116" cy="252" rx="17" ry="23" fill="#2a6fdb" stroke-width="6"/><ellipse cx="240" cy="252" rx="17" ry="23" fill="#2a6fdb" stroke-width="6"/><ellipse cx="150" cy="322" rx="21" ry="14" fill="#2a6fdb" stroke-width="6"/><ellipse cx="210" cy="322" rx="21" ry="14" fill="#2a6fdb" stroke-width="6"/></g></svg>
