<svg xmlns="http://www.w3.org/2000/svg" viewBox="0 0 360 360">
<path d="M95 300 C70 280 65 240 85 210 C65 195 70 165 95 150 C80 130 90 100 120 90 C110 65 140 50 160 65 C165 40 195 40 200 65 C220 50 250 65 240 90 C270 100 280 130 265 150 C290 165 295 195 275 210 C295 240 290 280 265 300 C260 320 100 320 95 300 Z" fill="#fff4d6" stroke="#2d263c" stroke-width="8" stroke-linejoin="round" stroke-linecap="round"/>
<path d="M110 130 Q125 170 110 205" fill="none" stroke="#e8c97a" stroke-width="5" stroke-linecap="round"/>
<path d="M180 90 Q195 140 180 210" fill="none" stroke="#e8c97a" stroke-width="5" stroke-linecap="round"/>
<path d="M250 130 Q235 170 250 205" fill="none" stroke="#e8c97a" stroke-width="5" stroke-linecap="round"/>
<circle cx="80" cy="230" r="20" fill="#fff4d6" stroke="#2d263c" stroke-width="7"/>
<circle cx="280" cy="230" r="20" fill="#fff4d6" stroke="#2d263c" stroke-width="7"/>
<circle cx="150" cy="200" r="9" fill="#2d263c"/>
<circle cx="210" cy="200" r="9" fill="#2d263c"/>
<ellipse cx="130" cy="212" rx="11" ry="6" fill="#ffb3c6"/>
<ellipse cx="230" cy="212" rx="11" ry="6" fill="#ffb3c6"/>
<path d="M160 218 Q170 228 180 218 Q190 228 200 218" fill="none" stroke="#2d263c" stroke-width="6" stroke-linecap="round"/>
<circle cx="180" cy="60" r="27" fill="#ff6f91" stroke="#2d263c" stroke-width="7"/>
<circle cx="170" cy="55" r="3" fill="#ffe066"/>
<circle cx="192" cy="58" r="3" fill="#ffe066"/>
<circle cx="178" cy="72" r="3" fill="#ffe066"/>
<path d="M165 38 L180 20 L195 38 L180 30 Z" fill="#7ac74c" stroke="#2d263c" stroke-width="5" stroke-linejoin="round"/>
</svg>
