<svg xmlns="http://www.w3.org/2000/svg" viewBox="0 0 360 360">
  <g stroke="#2d263c" stroke-width="7" stroke-linejoin="round" stroke-linecap="round">
    <path d="M262 286 C270 240 285 205 308 195 C320 192 322 210 310 232 C300 252 285 272 268 290 Z" fill="#4d7fc4"/>
    <path d="M266 288 C295 270 325 262 338 272 C344 280 330 292 308 294 C292 296 278 294 266 292 Z" fill="#4d7fc4"/>
    <path d="M264 292 C285 300 305 318 308 336 C308 346 292 344 278 330 C268 320 262 306 260 294 Z" fill="#4d7fc4"/>
    <path d="M258 294 C258 312 252 330 238 340 C228 346 222 334 230 318 C236 306 246 298 254 292 Z" fill="#4d7fc4"/>
    <ellipse cx="296" cy="228" rx="10" ry="6" fill="#ed6f9e" stroke="none" transform="rotate(-62 296 228)"/>
    <ellipse cx="312" cy="281" rx="10" ry="6" fill="#ed6f9e" stroke="none" transform="rotate(-8 312 281)"/>
    <ellipse cx="290" cy="320" rx="10" ry="6" fill="#ed6f9e" stroke="none" transform="rotate(45 290 320)"/>
    <ellipse cx="241" cy="320" rx="9" ry="6" fill="#ed6f9e" stroke="none" transform="rotate(75 241 320)"/>
    <path d="M135 65 C110 70 95 100 100 135 C102 155 92 170 80 178 C95 182 112 170 117 150 C123 125 128 95 142 75 Z" fill="#e6d3a8"/>
    <path d="M165 65 C192 72 205 100 200 132 C197 150 207 165 220 172 C204 178 188 164 184 145 C179 120 172 92 158 74 Z" fill="#e6d3a8"/>
    <path d="M138 108 C112 138 100 180 122 212 C142 240 185 248 220 268 C236 277 248 288 254 300 L276 284 C266 262 246 250 220 240 C178 224 150 205 160 170 C165 150 172 130 172 110 C162 118 148 118 138 108 Z" fill="#f2e3be"/>
    <path d="M204 233 L212 239 L208 265 L200 259 Z" fill="#ed6f9e" stroke-width="6"/>
    <path d="M224 241 L232 247 L228 275 L220 269 Z" fill="#4d7fc4" stroke-width="6"/>
    <path d="M242 249 L250 255 L246 281 L238 275 Z" fill="#ed6f9e" stroke-width="6"/>
    <path d="M140 68 L150 40 L160 68 Z" fill="#e6d3a8"/>
    <ellipse cx="150" cy="90" rx="33" ry="31" fill="#f2e3be"/>
    <path d="M168 78 C200 60 225 45 248 50 C252 53 245 60 230 60 C212 62 195 75 175 88 Z" fill="#d14152" stroke-width="6"/>
    <path d="M132 78 C105 62 80 48 62 56 C58 60 68 66 82 64 C100 64 115 76 126 88 Z" fill="#d14152" stroke-width="6"/>
    <circle cx="137" cy="92" r="9" fill="#d8344e" stroke-width="6"/>
    <circle cx="164" cy="91" r="9" fill="#d8344e" stroke-width="6"/>
    <circle cx="134" cy="89" r="3" fill="#ffffff" stroke="none"/>
    <circle cx="161" cy="88" r="3" fill="#ffffff" stroke="none"/>
    <path d="M144 110 Q151 116 159 109" fill="none" stroke-width="6"/>
    <ellipse cx="120" cy="104" rx="6" ry="4" fill="#f4a8b8" stroke="none"/>
    <ellipse cx="181" cy="103" rx="6" ry="4" fill="#f4a8b8" stroke="none"/>
  </g>
</svg>