<svg xmlns="http://www.w3.org/2000/svg" viewBox="0 0 360 360">
  <path d="M78,150 L30,128 L58,178 L30,232 L78,205 Z" fill="#3a7bc8" stroke="#2d263c" stroke-width="7" stroke-linejoin="round" stroke-linecap="round"/>
  <path d="M75,150 C90,100 120,82 160,78 C200,74 240,84 268,104 C290,120 305,132 316,142 L325,150 L325,190 L316,198 C305,210 288,222 265,238 C238,256 200,266 160,268 C120,266 92,248 78,205 C73,190 72,168 75,150 Z" fill="#f5c94a" stroke="#2d263c" stroke-width="8" stroke-linejoin="round" stroke-linecap="round"/>
  <path d="M152,88 L178,58 L205,92 Z" fill="#3a7bc8" stroke="#2d263c" stroke-width="7" stroke-linejoin="round" stroke-linecap="round"/>
  <path d="M232,252 L218,298 L258,272 Z" fill="#f5c94a" stroke="#2d263c" stroke-width="7" stroke-linejoin="round" stroke-linecap="round"/>
  <ellipse cx="170" cy="235" rx="85" ry="24" fill="#fff3c2"/>
  <ellipse cx="140" cy="108" rx="10" ry="6" fill="#3a7bc8"/>
  <ellipse cx="195" cy="112" rx="9" ry="5" fill="#3a7bc8"/>
  <ellipse cx="225" cy="118" rx="8" ry="5" fill="#3a7bc8"/>
  <path d="M250,140 C258,155 258,172 250,186" fill="none" stroke="#2d263c" stroke-width="5" stroke-linecap="round"/>
  <path d="M262,108 C282,96 308,102 318,124 C324,138 318,152 300,158 C280,164 262,152 258,132 C256,122 257,114 262,108 Z" fill="#274a80" stroke="#2d263c" stroke-width="6" stroke-linejoin="round" stroke-linecap="round"/>
  <circle cx="294" cy="126" r="11" fill="#ffffff" stroke="#2d263c" stroke-width="5"/>
  <circle cx="296" cy="126" r="4.5" fill="#2d263c"/>
  <path d="M255,200 C272,207 298,207 315,199" fill="none" stroke="#2d263c" stroke-width="6" stroke-linecap="round"/>
  <path d="M274,203 L286,203 L283,232 L277,232 Z" fill="#ffffff" stroke="#2d263c" stroke-width="5" stroke-linejoin="round" stroke-linecap="round"/>
  <path d="M290,203 L302,203 L299,230 L293,230 Z" fill="#ffffff" stroke="#2d263c" stroke-width="5" stroke-linejoin="round" stroke-linecap="round"/>
</svg>
