<svg xmlns="http://www.w3.org/2000/svg" viewBox="0 0 360 360">
<g stroke="#2d263c" stroke-width="7" stroke-linejoin="round" stroke-linecap="round">
<ellipse cx="180" cy="312" rx="80" ry="7" fill="#000000" opacity="0.15" stroke="none"/>
<path d="M180 96 q-2 -20 4 -34" fill="none" stroke="#7E5A2E" stroke-width="7"/>
<path d="M180 80 q-30 -8 -44 10 q24 14 44 -2Z" fill="#7FB04A"/>
<path d="M180 80 q30 -8 44 10 q-24 14 -44 -2Z" fill="#7FB04A"/>
<ellipse cx="180" cy="210" rx="80" ry="86" fill="#A7C957"/>
<ellipse cx="180" cy="220" rx="48" ry="58" fill="#C2D97A" stroke="none"/>
<ellipse cx="150" cy="292" rx="16" ry="11" fill="#8A6A3C"/>
<ellipse cx="210" cy="292" rx="16" ry="11" fill="#8A6A3C"/>
<circle cx="152" cy="190" r="13" fill="#fff"/>
<circle cx="208" cy="190" r="13" fill="#fff"/>
<circle cx="154" cy="192" r="6" fill="#2d263c" stroke="none"/>
<circle cx="210" cy="192" r="6" fill="#2d263c" stroke="none"/>
<circle cx="156" cy="189" r="2" fill="#fff" stroke="none"/>
<circle cx="212" cy="189" r="2" fill="#fff" stroke="none"/>
<path d="M168 220 q12 10 24 0" fill="none" stroke="#2d263c" stroke-width="6"/>
</g>
</svg>