<svg xmlns="http://www.w3.org/2000/svg" viewBox="0 0 360 360">
  <!-- 後ろの耳(左・垂れ耳・茶色先端) -->
  <path d="M130 90 C115 60 100 30 108 15 C112 8 122 10 128 20 C138 38 142 70 138 100" fill="#c8a46e" stroke="#2d263c" stroke-width="7" stroke-linejoin="round" stroke-linecap="round"/>
  <!-- 左耳の先端モフモフ(茶色) -->
  <ellipse cx="112" cy="18" rx="14" ry="10" fill="#7a4f2a" stroke="#2d263c" stroke-width="6" stroke-linejoin="round"/>

  <!-- 右耳(くるんと巻いた耳) -->
  <path d="M220 85 C238 55 255 25 248 12 C244 5 233 8 227 18 C216 38 210 68 215 95" fill="#c8a46e" stroke="#2d263c" stroke-width="7" stroke-linejoin="round" stroke-linecap="round"/>
  <!-- 右耳の先端(巻いてる・茶色) -->
  <path d="M248 12 C260 5 272 15 268 28 C264 42 250 48 240 42 C230 36 228 22 238 16 Z" fill="#7a4f2a" stroke="#2d263c" stroke-width="6" stroke-linejoin="round"/>

  <!-- しっぽ(茶色・丸ふさふさ) -->
  <ellipse cx="248" cy="248" rx="22" ry="18" fill="#7a4f2a" stroke="#2d263c" stroke-width="6" stroke-linejoin="round"/>
  <ellipse cx="255" cy="238" rx="14" ry="12" fill="#7a4f2a" stroke="#2d263c" stroke-width="5" stroke-linejoin="round"/>

  <!-- 下半身(体・茶色) -->
  <ellipse cx="180" cy="252" rx="68" ry="58" fill="#8b5e3c" stroke="#2d263c" stroke-width="8" stroke-linejoin="round"/>

  <!-- 足(左) -->
  <ellipse cx="148" cy="298" rx="26" ry="16" fill="#8b5e3c" stroke="#2d263c" stroke-width="7" stroke-linejoin="round"/>
  <!-- 足(右) -->
  <ellipse cx="212" cy="302" rx="28" ry="15" fill="#8b5e3c" stroke="#2d263c" stroke-width="7" stroke-linejoin="round"/>

  <!-- 上半身(クリームベージュ) -->
  <ellipse cx="180" cy="210" rx="62" ry="55" fill="#f0d9a8" stroke="#2d263c" stroke-width="8" stroke-linejoin="round"/>

  <!-- 腕(左・クリーム) -->
  <path d="M122 215 C105 220 95 240 102 255 C108 265 122 262 130 250 C138 238 135 220 122 215 Z" fill="#f0d9a8" stroke="#2d263c" stroke-width="7" stroke-linejoin="round"/>
  <!-- 腕(右) -->
  <path d="M238 215 C255 220 266 240 258 255 C252 265 238 262 230 250 C222 238 225 220 238 215 Z" fill="#f0d9a8" stroke="#2d263c" stroke-width="7" stroke-linejoin="round"/>

  <!-- 頭(クリームベージュ・まるっと) -->
  <ellipse cx="180" cy="158" rx="65" ry="58" fill="#f0d9a8" stroke="#2d263c" stroke-width="8" stroke-linejoin="round"/>

  <!-- 耳の前面(左・ベージュ内側) -->
  <path d="M142 105 C130 78 122 48 128 25 C130 18 136 16 140 22 C148 38 150 72 148 105" fill="#f0d9a8" stroke="#2d263c" stroke-width="5" stroke-linejoin="round" stroke-linecap="round"/>

  <!-- 頭のふわふわ毛 -->
  <ellipse cx="163" cy="108" rx="15" ry="10" fill="#f0d9a8" stroke="#2d263c" stroke-width="5" stroke-linejoin="round"/>
  <ellipse cx="180" cy="104" rx="14" ry="9" fill="#f0d9a8" stroke="#2d263c" stroke-width="5" stroke-linejoin="round"/>
  <ellipse cx="197" cy="108" rx="13" ry="9" fill="#f0d9a8" stroke="#2d263c" stroke-width="5" stroke-linejoin="round"/>

  <!-- 目(左・くりくり) -->
  <ellipse cx="160" cy="162" rx="13" ry="15" fill="#1a1a2e" stroke="#2d263c" stroke-width="4"/>
  <ellipse cx="157" cy="158" rx="4" ry="4" fill="white"/>

  <!-- 目(右・やや大きめ・ゆるさ) -->
  <ellipse cx="202" cy="160" rx="14" ry="13" fill="#1a1a2e" stroke="#2d263c" stroke-width="4"/>
  <ellipse cx="199" cy="156" rx="4" ry="4" fill="white"/>

  <!-- 鼻(小さな三角) -->
  <ellipse cx="181" cy="178" rx="5" ry="4" fill="#c08060" stroke="#2d263c" stroke-width="3"/>

  <!-- 口(ニコッ) -->
  <path d="M170 186 C175 192 188 192 193 186" fill="none" stroke="#2d263c" stroke-width="5" stroke-linecap="round"/>

  <!-- ほっぺ(赤チーク・左) -->
  <ellipse cx="144" cy="176" rx="14" ry="10" fill="#f08080" opacity="0.75"/>
  <!-- ほっぺ(赤チーク・右) -->
  <ellipse cx="218" cy="174" rx="13" ry="9" fill="#f08080" opacity="0.75"/>
</svg>