<svg xmlns="http://www.w3.org/2000/svg" viewBox="0 0 360 360">

  <!-- 尻尾ヒレ(後ろ) 大きな扇 -->
  <ellipse cx="182" cy="318" rx="68" ry="22" fill="#a8d8f0" stroke="#2d263c" stroke-width="7" stroke-linejoin="round"/>
  <path d="M120 308 Q115 290 130 278 Q148 268 182 272 Q216 268 234 278 Q248 290 244 308" fill="#e87a9a" stroke="#2d263c" stroke-width="7" stroke-linejoin="round"/>
  <!-- 尻尾ヒレ 扇の縁飾り -->
  <path d="M118 312 Q100 295 108 278 Q120 262 140 268" fill="none" stroke="#e87a9a" stroke-width="8" stroke-linecap="round"/>
  <path d="M246 312 Q264 295 256 278 Q244 262 224 268" fill="none" stroke="#e87a9a" stroke-width="8" stroke-linecap="round"/>

  <!-- 胴体の波打ちしっぽ下部 -->
  <path d="M152 285 Q140 260 148 238 Q158 215 170 200 Q180 188 188 200 Q196 215 205 238 Q212 260 208 285" fill="#e8f4fb" stroke="#2d263c" stroke-width="7" stroke-linejoin="round"/>

  <!-- 胴体メイン(白クリーム色の長い胴) -->
  <path d="M148 230 Q130 210 128 185 Q126 160 135 138 Q144 115 158 100 Q168 88 178 82 Q188 88 198 100 Q212 115 221 138 Q230 160 228 185 Q226 210 208 230 Q200 242 182 245 Q164 242 148 230Z" fill="#f0f6fa" stroke="#2d263c" stroke-width="7" stroke-linejoin="round"/>

  <!-- 胴体の縞模様(赤ピンク帯) -->
  <path d="M143 205 Q160 212 182 212 Q204 212 217 205 Q215 215 200 220 Q190 223 182 223 Q174 223 162 220 Q147 215 143 205Z" fill="#f08090" stroke="none"/>
  <path d="M140 178 Q157 186 182 186 Q207 186 220 178 Q218 190 204 195 Q193 198 182 198 Q171 198 158 195 Q142 190 140 178Z" fill="#f08090" stroke="none"/>
  <path d="M139 150 Q156 158 182 158 Q208 158 221 150 Q219 162 205 167 Q194 170 182 170 Q170 170 157 167 Q141 162 139 150Z" fill="#f08090" stroke="none"/>

  <!-- 首の白いふわふわ飾り(左) -->
  <path d="M155 108 Q138 95 128 78 Q122 64 132 58 Q142 54 152 66 Q158 74 160 88 Q162 98 158 108Z" fill="#f5f0f8" stroke="#2d263c" stroke-width="6" stroke-linejoin="round"/>
  <path d="M150 105 Q134 98 122 86 Q114 72 120 62 Q126 52 138 60 Q146 66 150 80 Q152 92 150 105Z" fill="#f5f0f8" stroke="#2d263c" stroke-width="6" stroke-linejoin="round"/>

  <!-- 首の白いふわふわ飾り(右) -->
  <path d="M205 108 Q222 95 232 78 Q238 64 228 58 Q218 54 208 66 Q202 74 200 88 Q198 98 202 108Z" fill="#f5f0f8" stroke="#2d263c" stroke-width="6" stroke-linejoin="round"/>
  <path d="M210 105 Q226 98 238 86 Q246 72 240 62 Q234 52 222 60 Q214 66 210 80 Q208 92 210 105Z" fill="#f5f0f8" stroke="#2d263c" stroke-width="6" stroke-linejoin="round"/>

  <!-- 頭部 -->
  <ellipse cx="182" cy="68" rx="34" ry="30" fill="#e8f4fb" stroke="#2d263c" stroke-width="7" stroke-linejoin="round"/>

  <!-- 頭の赤い宝石模様(額) -->
  <ellipse cx="182" cy="52" rx="9" ry="7" fill="#e82040" stroke="#2d263c" stroke-width="4"/>
  <!-- 宝石のハイライト -->
  <ellipse cx="179" cy="49" rx="3" ry="2" fill="#ff8090" stroke="none"/>

  <!-- アンテナ(左・赤・ちょっとゆがんで) -->
  <path d="M168 44 Q160 28 154 15 Q150 6 156 4" fill="none" stroke="#e82040" stroke-width="8" stroke-linecap="round"/>
  <circle cx="155" cy="8" r="6" fill="#e82040" stroke="#2d263c" stroke-width="4"/>

  <!-- アンテナ(右・赤・少しだけ違う角度) -->
  <path d="M196 44 Q206 27 210 14 Q214 5 208 3" fill="none" stroke="#e82040" stroke-width="8" stroke-linecap="round"/>
  <circle cx="209" cy="7" r="6" fill="#e82040" stroke="#2d263c" stroke-width="4"/>

  <!-- 目(左) やさしい感じ -->
  <ellipse cx="168" cy="68" rx="8" ry="9" fill="#a0c8e8" stroke="#2d263c" stroke-width="4"/>
  <ellipse cx="168" cy="69" rx="5" ry="6" fill="#2860a8" stroke="none"/>
  <circle cx="166" cy="66" r="2" fill="white" stroke="none"/>

  <!-- 目(右) -->
  <ellipse cx="196" cy="67" rx="8" ry="10" fill="#a0c8e8" stroke="#2d263c" stroke-width="4"/>
  <ellipse cx="196" cy="68" rx="5" ry="6" fill="#2860a8" stroke="none"/>
  <circle cx="194" cy="65" r="2" fill="white" stroke="none"/>

  <!-- まつげ(ちょっとキュート) -->
  <path d="M162 61 Q160 57 158 54" fill="none" stroke="#2d263c" stroke-width="3" stroke-linecap="round"/>
  <path d="M168 59 Q167 55 166 51" fill="none" stroke="#2d263c" stroke-width="3" stroke-linecap="round"/>
  <path d="M174 61 Q174 57 175 53" fill="none" stroke="#2d263c" stroke-width="3" stroke-linecap="round"/>

  <!-- 口・ほほえみ -->
  <path d="M174 80 Q182 86 190 80" fill="none" stroke="#2d263c" stroke-width="4" stroke-linecap="round"/>

  <!-- ほっぺの赤み(左) -->
  <ellipse cx="158" cy="76" rx="8" ry="5" fill="#f0a0b0" stroke="none" opacity="0.7"/>
  <!-- ほっぺの赤み(右) -->
  <ellipse cx="206" cy="75" rx="8" ry="5" fill="#f0a0b0" stroke="none" opacity="0.7"/>

  <!-- 胸ビレ(左) -->
  <path d="M148 145 Q128 138 118 125 Q112 116 118 112 Q126 108 136 118 Q144 128 148 142Z" fill="#a8d8f0" stroke="#2d263c" stroke-width="6" stroke-linejoin="round"/>

  <!-- 胸ビレ(右) -->
  <path d="M216 145 Q236 138 246 125 Q252 116 246 112 Q238 108 228 118 Q220 128 216 142Z" fill="#a8d8f0" stroke="#2d263c" stroke-width="6" stroke-linejoin="round"/>

</svg>