<svg xmlns="http://www.w3.org/2000/svg" viewBox="0 0 360 360">
  <path d="M245 235 Q300 245 315 285 Q300 300 265 285 Q235 270 240 240 Z" fill="#5aa7e0" stroke="#2d263c" stroke-width="7" stroke-linejoin="round"/>
  <ellipse cx="88" cy="255" rx="24" ry="32" fill="#5aa7e0" stroke="#2d263c" stroke-width="7"/>
  <ellipse cx="272" cy="255" rx="24" ry="32" fill="#5aa7e0" stroke="#2d263c" stroke-width="7"/>
  <ellipse cx="112" cy="292" rx="30" ry="24" fill="#5aa7e0" stroke="#2d263c" stroke-width="7"/>
  <ellipse cx="248" cy="292" rx="30" ry="24" fill="#5aa7e0" stroke="#2d263c" stroke-width="7"/>
  <path d="M96 305 L92 315" fill="none" stroke="#2d263c" stroke-width="5" stroke-linecap="round"/>
  <path d="M114 308 L112 318" fill="none" stroke="#2d263c" stroke-width="5" stroke-linecap="round"/>
  <path d="M246 308 L248 318" fill="none" stroke="#2d263c" stroke-width="5" stroke-linecap="round"/>
  <path d="M264 305 L268 315" fill="none" stroke="#2d263c" stroke-width="5" stroke-linecap="round"/>
  <ellipse cx="180" cy="215" rx="100" ry="85" fill="#5aa7e0" stroke="#2d263c" stroke-width="8"/>
  <circle cx="180" cy="112" r="80" fill="#5aa7e0" stroke="#2d263c" stroke-width="8"/>
  <path d="M150 65 Q152 20 188 22 Q222 26 202 68 Q188 92 156 78 Q148 72 150 65 Z" fill="#f0a030" stroke="#2d263c" stroke-width="7" stroke-linejoin="round"/>
  <circle cx="104" cy="128" r="20" fill="#f0a030" stroke="#2d263c" stroke-width="7"/>
  <circle cx="256" cy="128" r="20" fill="#f0a030" stroke="#2d263c" stroke-width="7"/>
  <ellipse cx="180" cy="238" rx="58" ry="46" fill="#fdf0d5" stroke="#2d263c" stroke-width="7"/>
  <ellipse cx="150" cy="102" rx="19" ry="21" fill="#ffffff" stroke="#2d263c" stroke-width="6"/>
  <ellipse cx="212" cy="102" rx="19" ry="21" fill="#ffffff" stroke="#2d263c" stroke-width="6"/>
  <circle cx="152" cy="107" r="9" fill="#221c2e"/>
  <circle cx="210" cy="107" r="9" fill="#221c2e"/>
  <circle cx="155" cy="102" r="3" fill="#ffffff"/>
  <circle cx="213" cy="102" r="3" fill="#ffffff"/>
  <path d="M156 142 Q180 158 204 142" fill="none" stroke="#2d263c" stroke-width="7" stroke-linecap="round"/>
  <circle cx="172" cy="122" r="3.5" fill="#2d263c"/>
  <circle cx="188" cy="122" r="3.5" fill="#2d263c"/>
</svg>
