<svg xmlns="http://www.w3.org/2000/svg" viewBox="0 0 360 360">
<circle cx="180" cy="190" r="145" fill="#fff2b8" opacity="0.35"/>
<path d="M120,115 Q95,80 100,35 Q112,55 130,75 Q140,90 138,110 Z" fill="#f0dca6" stroke="#2d263c" stroke-width="7" stroke-linejoin="round" stroke-linecap="round"/>
<path d="M100,35 Q106,45 115,55 Q104,50 97,42 Z" fill="#2d263c" stroke="#2d263c" stroke-width="6" stroke-linejoin="round" stroke-linecap="round"/>
<path d="M240,115 Q265,80 260,35 Q248,55 230,75 Q220,90 222,110 Z" fill="#f0dca6" stroke="#2d263c" stroke-width="7" stroke-linejoin="round" stroke-linecap="round"/>
<path d="M260,35 Q254,45 245,55 Q256,50 263,42 Z" fill="#2d263c" stroke="#2d263c" stroke-width="6" stroke-linejoin="round" stroke-linecap="round"/>
<path d="M100,150 C100,95 135,60 180,60 C225,60 260,95 260,150 L260,250 L245,285 L225,250 L205,285 L185,250 L165,285 L145,250 L125,285 L105,250 Z" fill="#f0dca6" stroke="#2d263c" stroke-width="8" stroke-linejoin="round" stroke-linecap="round"/>
<path d="M175,205 L205,210 L200,240 L170,235 Z" fill="#f7e9bd" stroke="#2d263c" stroke-width="6" stroke-linejoin="round" stroke-linecap="round"/>
<path d="M178,212 L184,218" stroke="#2d263c" stroke-width="5" stroke-linecap="round"/>
<path d="M190,215 L196,221" stroke="#2d263c" stroke-width="5" stroke-linecap="round"/>
<path d="M182,228 L188,234" stroke="#2d263c" stroke-width="5" stroke-linecap="round"/>
<ellipse cx="148" cy="150" rx="16" ry="20" fill="#2d263c" stroke="#2d263c" stroke-width="6" stroke-linejoin="round"/>
<circle cx="142" cy="142" r="5" fill="#ffffff"/>
<ellipse cx="212" cy="152" rx="14" ry="18" fill="#2d263c" stroke="#2d263c" stroke-width="6" stroke-linejoin="round"/>
<circle cx="207" cy="145" r="4" fill="#ffffff"/>
<path d="M150,190 Q165,205 180,192 Q195,178 210,193" fill="none" stroke="#2d263c" stroke-width="7" stroke-linecap="round" stroke-linejoin="round"/>
<path d="M230,165 Q240,160 245,170 Q238,178 230,175 Z" fill="#2d263c" stroke="#2d263c" stroke-width="5" stroke-linejoin="round"/>
<circle cx="237" cy="170" r="4" fill="#e0473c"/>
<path d="M250,270 Q270,275 275,295 Q260,300 245,290 Q240,278 250,270 Z" fill="#f0dca6" stroke="#2d263c" stroke-width="7" stroke-linejoin="round" stroke-linecap="round"/>
<path d="M270,292 L278,298" stroke="#2d263c" stroke-width="5" stroke-linecap="round"/>
<path d="M140,282 Q150,300 165,290 Q155,282 140,282 Z" fill="#2d263c" stroke="#2d263c" stroke-width="6" stroke-linejoin="round"/>
<path d="M150,288 L155,296" stroke="#2d263c" stroke-width="4" stroke-linecap="round"/>
<path d="M225,282 Q215,300 200,290 Q210,282 225,282 Z" fill="#2d263c" stroke="#2d263c" stroke-width="6" stroke-linejoin="round"/>
<path d="M215,288 L210,296" stroke="#2d263c" stroke-width="4" stroke-linecap="round"/>
<path d="M80,50 L83,57 L90,60 L83,63 L80,70 L77,63 L70,60 L77,57 Z" fill="#ffd23f"/>
<path d="M285,70 L288,77 L295,80 L288,83 L285,90 L282,83 L275,80 L282,77 Z" fill="#ffd23f"/>
<path d="M90,300 L93,307 L100,310 L93,313 L90,320 L87,313 L80,310 L87,307 Z" fill="#ffd23f"/>
</svg>
