<svg xmlns="http://www.w3.org/2000/svg" viewBox="0 0 360 360">
  <!-- 尻尾(後ろ) -->
  <path d="M 260 230 Q 310 200 320 170 Q 335 140 310 120 Q 295 110 280 130 Q 270 150 275 175 Q 278 200 260 220" fill="#7a5c35" stroke="#2d263c" stroke-width="7" stroke-linejoin="round" stroke-linecap="round"/>
  <!-- 尻尾の縞 -->
  <path d="M 305 128 Q 318 148 308 165" fill="none" stroke="#4a3220" stroke-width="5" stroke-linecap="round"/>
  <path d="M 295 145 Q 312 162 305 180" fill="none" stroke="#4a3220" stroke-width="5" stroke-linecap="round"/>
  <path d="M 282 165 Q 295 180 290 198" fill="none" stroke="#4a3220" stroke-width="4" stroke-linecap="round"/>

  <!-- 後ろ足(左) -->
  <ellipse cx="148" cy="290" rx="28" ry="18" fill="#8a6640" stroke="#2d263c" stroke-width="7" stroke-linejoin="round"/>
  <!-- 後ろ足(右) -->
  <ellipse cx="218" cy="292" rx="26" ry="17" fill="#8a6640" stroke="#2d263c" stroke-width="7" stroke-linejoin="round"/>

  <!-- 体(メイン) -->
  <ellipse cx="183" cy="220" rx="78" ry="75" fill="#a07840" stroke="#2d263c" stroke-width="8" stroke-linejoin="round"/>

  <!-- 体の縞模様 -->
  <path d="M 118 195 Q 135 180 183 178 Q 230 180 248 195" fill="none" stroke="#5a3e22" stroke-width="8" stroke-linecap="round"/>
  <path d="M 112 218 Q 130 205 183 203 Q 236 205 254 218" fill="none" stroke="#5a3e22" stroke-width="7" stroke-linecap="round"/>
  <path d="M 116 240 Q 135 230 183 228 Q 232 230 250 240" fill="none" stroke="#5a3e22" stroke-width="7" stroke-linecap="round"/>

  <!-- 腹部(クリーム色) -->
  <ellipse cx="183" cy="245" rx="45" ry="42" fill="#e8c87a" stroke="#2d263c" stroke-width="5" stroke-linejoin="round"/>

  <!-- 前足(左) -->
  <path d="M 128 245 Q 108 255 105 278 Q 104 292 120 295 Q 136 297 140 278 Q 142 262 135 248" fill="#8a6640" stroke="#2d263c" stroke-width="7" stroke-linejoin="round" stroke-linecap="round"/>
  <!-- 前足(右) -->
  <path d="M 238 248 Q 257 258 260 280 Q 261 294 245 296 Q 229 298 226 279 Q 224 263 232 250" fill="#8a6640" stroke="#2d263c" stroke-width="7" stroke-linejoin="round" stroke-linecap="round"/>

  <!-- 首〜頭のつなぎ -->
  <ellipse cx="183" cy="165" rx="50" ry="38" fill="#a07840" stroke="#2d263c" stroke-width="7" stroke-linejoin="round"/>

  <!-- 頭 -->
  <ellipse cx="183" cy="128" rx="62" ry="58" fill="#a07840" stroke="#2d263c" stroke-width="8" stroke-linejoin="round"/>

  <!-- 耳(左) -->
  <ellipse cx="138" cy="78" rx="20" ry="25" fill="#8a6640" stroke="#2d263c" stroke-width="7" stroke-linejoin="round"/>
  <ellipse cx="138" cy="80" rx="11" ry="15" fill="#5a3e22" stroke="none"/>

  <!-- 耳(右) -->
  <ellipse cx="230" cy="76" rx="19" ry="24" fill="#8a6640" stroke="#2d263c" stroke-width="7" stroke-linejoin="round"/>
  <ellipse cx="231" cy="78" rx="10" ry="14" fill="#5a3e22" stroke="none"/>

  <!-- 額の縞 -->
  <path d="M 155 88 Q 183 82 210 88" fill="none" stroke="#5a3e22" stroke-width="6" stroke-linecap="round"/>
  <path d="M 150 102 Q 183 96 215 102" fill="none" stroke="#5a3e22" stroke-width="5" stroke-linecap="round"/>

  <!-- 目(白目・左) -->
  <ellipse cx="158" cy="128" rx="22" ry="24" fill="#f5f0d0" stroke="#2d263c" stroke-width="6" stroke-linejoin="round"/>
  <!-- 目(白目・右) -->
  <ellipse cx="209" cy="126" rx="21" ry="23" fill="#f5f0d0" stroke="#2d263c" stroke-width="6" stroke-linejoin="round"/>

  <!-- 目(オレンジリング・左) -->
  <ellipse cx="158" cy="129" rx="16" ry="18" fill="#e07820" stroke="none"/>
  <!-- 目(オレンジリング・右) -->
  <ellipse cx="209" cy="127" rx="15" ry="17" fill="#e07820" stroke="none"/>

  <!-- 目(黄色・左) -->
  <ellipse cx="158" cy="130" rx="11" ry="13" fill="#f0d800" stroke="none"/>
  <!-- 目(黄色・右) -->
  <ellipse cx="209" cy="128" rx="10" ry="12" fill="#f0d800" stroke="none"/>

  <!-- 瞳(こげ茶・左) -->
  <ellipse cx="161" cy="132" rx="6" ry="8" fill="#2d1a0a" stroke="none"/>
  <!-- 瞳(こげ茶・右) -->
  <ellipse cx="212" cy="130" rx="6" ry="7" fill="#2d1a0a" stroke="none"/>

  <!-- 目のハイライト(左) -->
  <ellipse cx="164" cy="129" rx="2.5" ry="3" fill="white" stroke="none"/>
  <!-- 目のハイライト(右) -->
  <ellipse cx="215" cy="127" rx="2.5" ry="3" fill="white" stroke="none"/>

  <!-- 鼻 -->
  <ellipse cx="183" cy="148" rx="10" ry="7" fill="#5a3218" stroke="#2d263c" stroke-width="4" stroke-linejoin="round"/>
  <ellipse cx="179" cy="149" rx="3" ry="2.5" fill="#8a5030" stroke="none"/>
  <ellipse cx="187" cy="149" rx="3" ry="2.5" fill="#8a5030" stroke="none"/>

  <!-- 口 -->
  <path d="M 165 160 Q 183 172 200 160" fill="none" stroke="#2d263c" stroke-width="5" stroke-linecap="round"/>

  <!-- ひげ(左・上) -->
  <path d="M 162 152 Q 132 145 108 148" fill="none" stroke="#f0ead8" stroke-width="5" stroke-linecap="round"/>
  <!-- ひげ(左・下) -->
  <path d="M 160 160 Q 128 158 104 163" fill="none" stroke="#f0ead8" stroke-width="4.5" stroke-linecap="round"/>
  <!-- ひげ(左・最下) -->
  <path d="M 158 167 Q 130 170 108 178" fill="none" stroke="#f0ead8" stroke-width="4" stroke-linecap="round"/>

  <!-- ひげ(右・上) -->
  <path d="M 202 152 Q 232 145 256 148" fill="none" stroke="#f0ead8" stroke-width="5" stroke-linecap="round"/>
  <!-- ひげ(右・下) -->
  <path d="M 204 160 Q 236 158 260 163" fill="none" stroke="#f0ead8" stroke-width="4.5" stroke-linecap="round"/>
  <!-- ひげ(右・最下) -->
  <path d="M 205 167 Q 234 170 256 178" fill="none" stroke="#f0ead8" stroke-width="4" stroke-linecap="round"/>

  <!-- ほっぺ赤み(左) -->
  <ellipse cx="142" cy="145" rx="14" ry="9" fill="#d06840" fill-opacity="0.45" stroke="none"/>
  <!-- ほっぺ赤み(右) -->
  <ellipse cx="224" cy="143" rx="13" ry="9" fill="#d06840" fill-opacity="0.4" stroke="none"/>
</svg>