<svg xmlns="http://www.w3.org/2000/svg" viewBox="0 0 360 360">
  <!-- しっぽ(後ろ・長く湾曲) -->
  <path d="M215 275 Q290 270 300 200 Q308 150 275 118 Q290 155 268 195 Q250 245 205 250 Z" fill="#b490dc" stroke="#2d263c" stroke-width="7" stroke-linejoin="round" stroke-linecap="round"/>

  <!-- 後ろ脚(奥) -->
  <ellipse cx="222" cy="305" rx="26" ry="34" fill="#a078c8" stroke="#2d263c" stroke-width="7" stroke-linejoin="round"/>
  <ellipse cx="222" cy="336" rx="24" ry="12" fill="#8c5cc0" stroke="#2d263c" stroke-width="6" stroke-linejoin="round"/>

  <!-- 前脚(手前) -->
  <ellipse cx="150" cy="308" rx="28" ry="36" fill="#b490dc" stroke="#2d263c" stroke-width="7" stroke-linejoin="round"/>
  <ellipse cx="150" cy="340" rx="26" ry="13" fill="#8c5cc0" stroke="#2d263c" stroke-width="6" stroke-linejoin="round"/>

  <!-- 体(胴) -->
  <ellipse cx="182" cy="228" rx="68" ry="80" fill="#b490dc" stroke="#2d263c" stroke-width="8" stroke-linejoin="round"/>

  <!-- お腹の薄い模様 -->
  <ellipse cx="182" cy="245" rx="38" ry="52" fill="#ecdff8" stroke="#2d263c" stroke-width="6" stroke-linejoin="round"/>

  <!-- 右うで(奥・下げて先端に3本指) -->
  <path d="M240 190 Q272 210 262 250 Q258 268 236 274" fill="none" stroke="#2d263c" stroke-width="9" stroke-linecap="round"/>
  <ellipse cx="240" cy="190" rx="17" ry="20" fill="#a078c8" stroke="#2d263c" stroke-width="7" stroke-linejoin="round"/>
  <ellipse cx="236" cy="274" rx="14" ry="12" fill="#b490dc" stroke="#2d263c" stroke-width="6" stroke-linejoin="round"/>
  <path d="M226 280 Q224 292 220 296 M236 284 Q236 296 236 300 M246 280 Q249 292 253 296" fill="none" stroke="#2d263c" stroke-width="5" stroke-linecap="round"/>

  <!-- 左うで(手前) -->
  <path d="M126 188 Q96 208 104 246 Q108 264 130 270" fill="none" stroke="#2d263c" stroke-width="9" stroke-linecap="round"/>
  <ellipse cx="126" cy="188" rx="18" ry="21" fill="#b490dc" stroke="#2d263c" stroke-width="7" stroke-linejoin="round"/>
  <ellipse cx="130" cy="270" rx="15" ry="13" fill="#b490dc" stroke="#2d263c" stroke-width="6" stroke-linejoin="round"/>
  <path d="M120 276 Q117 288 112 292 M130 280 Q130 292 130 296 M140 276 Q144 288 148 292" fill="none" stroke="#2d263c" stroke-width="5" stroke-linecap="round"/>

  <!-- 首のチューブ状の突起(後頭部) -->
  <path d="M198 130 Q222 128 224 108 Q225 92 210 84" fill="none" stroke="#2d263c" stroke-width="8" stroke-linecap="round"/>
  <ellipse cx="210" cy="84" rx="10" ry="8" fill="#8c5cc0" stroke="#2d263c" stroke-width="6" stroke-linejoin="round"/>

  <!-- 首 -->
  <rect x="160" y="150" width="44" height="36" rx="14" fill="#a078c8" stroke="#2d263c" stroke-width="7" stroke-linejoin="round"/>

  <!-- 頭 -->
  <path d="M182 44 Q246 50 250 118 Q252 156 214 176 Q188 190 158 176 Q118 156 118 112 Q120 52 182 44 Z" fill="#b490dc" stroke="#2d263c" stroke-width="8" stroke-linejoin="round"/>

  <!-- 突き出たあご -->
  <path d="M158 168 Q182 200 210 170 Q198 186 182 186 Q166 186 158 168 Z" fill="#a078c8" stroke="#2d263c" stroke-width="7" stroke-linejoin="round"/>

  <!-- 頭頂の小さなでっぱり -->
  <ellipse cx="182" cy="52" rx="14" ry="10" fill="#a078c8" stroke="#2d263c" stroke-width="6" stroke-linejoin="round"/>

  <!-- 目(左) -->
  <ellipse cx="150" cy="112" rx="19" ry="16" fill="#3a2554" stroke="#2d263c" stroke-width="6"/>
  <ellipse cx="146" cy="107" rx="6" ry="5" fill="#c896f0"/>
  <!-- 目(右) -->
  <ellipse cx="212" cy="112" rx="19" ry="16" fill="#3a2554" stroke="#2d263c" stroke-width="6"/>
  <ellipse cx="216" cy="107" rx="6" ry="5" fill="#c896f0"/>

  <!-- 口もと -->
  <path d="M170 158 Q182 165 194 158" fill="none" stroke="#2d263c" stroke-width="5" stroke-linecap="round"/>
</svg>
