<svg xmlns="http://www.w3.org/2000/svg" viewBox="0 0 360 360">
  <ellipse cx="180" cy="322" rx="70" ry="14" fill="#2d263c" opacity="0.12"/>
  <path d="M180 40 C230 90 260 190 250 260 C246 292 214 316 180 316 C146 316 114 292 110 260 C100 190 130 90 180 40 Z" fill="#fbdce6" stroke="#2d263c" stroke-width="8" stroke-linejoin="round" stroke-linecap="round"/>
  <path d="M180 40 C150 100 138 150 140 190 C160 178 200 178 220 190 C222 150 210 100 180 40 Z" fill="#a9d8ee" stroke="#2d263c" stroke-width="7" stroke-linejoin="round" stroke-linecap="round"/>
  <path d="M140 190 C160 210 200 210 220 190 C214 230 186 244 180 244 C174 244 146 230 140 190 Z" fill="#a9d8ee" stroke="#2d263c" stroke-width="6" stroke-linejoin="round"/>
  <circle cx="204" cy="196" r="9" fill="#2d263c"/>
  <circle cx="207" cy="193" r="2.5" fill="#fff"/>
  <path d="M118 258 C108 274 100 292 104 306" fill="none" stroke="#2d263c" stroke-width="7" stroke-linecap="round"/>
  <path d="M242 258 C252 274 260 292 256 306" fill="none" stroke="#2d263c" stroke-width="7" stroke-linecap="round"/>
  <ellipse cx="150" cy="300" rx="16" ry="10" fill="#fbdce6" stroke="#2d263c" stroke-width="6"/>
  <ellipse cx="210" cy="300" rx="16" ry="10" fill="#fbdce6" stroke="#2d263c" stroke-width="6"/>
  <path d="M160 236 Q180 250 200 236" fill="none" stroke="#2d263c" stroke-width="5" stroke-linecap="round"/>
  <circle cx="150" cy="228" r="8" fill="#f7b8cf" opacity="0.7"/>
  <circle cx="210" cy="228" r="8" fill="#f7b8cf" opacity="0.7"/>
</svg>
