<svg xmlns="http://www.w3.org/2000/svg" viewBox="0 0 360 360">
<path d="M225,250 C262,255 288,278 292,312 C294,328 289,338 278,332 C274,316 268,296 244,278 C233,270 226,262 222,250 Z" fill="#F6B9D6" stroke="#2d263c" stroke-width="7" stroke-linejoin="round"/>
<circle cx="283" cy="322" r="13" fill="#F6B9D6" stroke="#2d263c" stroke-width="7"/>
<ellipse cx="145" cy="62" rx="17" ry="23" fill="#F6B9D6" stroke="#2d263c" stroke-width="7" transform="rotate(-18 145 62)"/>
<ellipse cx="215" cy="62" rx="17" ry="23" fill="#F6B9D6" stroke="#2d263c" stroke-width="7" transform="rotate(18 215 62)"/>
<path d="M180,58 C225,58 253,92 250,135 C271,160 263,252 205,300 C192,310 168,310 155,300 C97,252 89,160 110,135 C107,92 135,58 180,58 Z" fill="#F6B9D6" stroke="#2d263c" stroke-width="8" stroke-linejoin="round"/>
<ellipse cx="180" cy="232" rx="44" ry="54" fill="#FDE0EE"/>
<ellipse cx="97" cy="196" rx="25" ry="15" fill="#F6B9D6" stroke="#2d263c" stroke-width="7" transform="rotate(22 97 196)"/>
<ellipse cx="263" cy="196" rx="25" ry="15" fill="#F6B9D6" stroke="#2d263c" stroke-width="7" transform="rotate(-22 263 196)"/>
<ellipse cx="150" cy="296" rx="21" ry="14" fill="#F6B9D6" stroke="#2d263c" stroke-width="7"/>
<ellipse cx="210" cy="296" rx="21" ry="14" fill="#F6B9D6" stroke="#2d263c" stroke-width="7"/>
<ellipse cx="155" cy="145" rx="23" ry="27" fill="#4FA8D8" stroke="#2d263c" stroke-width="6"/>
<ellipse cx="205" cy="145" rx="23" ry="27" fill="#4FA8D8" stroke="#2d263c" stroke-width="6"/>
<circle cx="150" cy="140" r="9" fill="#2d263c"/>
<circle cx="200" cy="140" r="9" fill="#2d263c"/>
<circle cx="146" cy="132" r="4" fill="#ffffff"/>
<circle cx="196" cy="132" r="4" fill="#ffffff"/>
<path d="M165,182 Q180,192 195,182" fill="none" stroke="#2d263c" stroke-width="6" stroke-linecap="round"/>
<circle cx="123" cy="172" r="10" fill="#FF9FC0" opacity="0.5"/>
<circle cx="237" cy="172" r="10" fill="#FF9FC0" opacity="0.5"/>
</svg>
