<svg xmlns="http://www.w3.org/2000/svg" viewBox="0 0 360 360">
  <path d="M96 128 Q70 100 80 65 Q108 78 118 112 Z" fill="#5c9c3e" stroke="#2d263c" stroke-width="7" stroke-linejoin="round"/>
  <path d="M264 128 Q292 100 282 65 Q254 78 244 112 Z" fill="#5c9c3e" stroke="#2d263c" stroke-width="7" stroke-linejoin="round"/>
  <path d="M148 250 Q90 250 62 262" fill="none" stroke="#7bc350" stroke-width="15" stroke-linecap="round"/>
  <path d="M212 250 Q270 250 298 262" fill="none" stroke="#7bc350" stroke-width="15" stroke-linecap="round"/>
  <circle cx="62" cy="264" r="15" fill="#8bc76a" stroke="#2d263c" stroke-width="6"/>
  <circle cx="298" cy="264" r="15" fill="#8bc76a" stroke="#2d263c" stroke-width="6"/>
  <ellipse cx="150" cy="308" rx="22" ry="17" fill="#7bc350" stroke="#2d263c" stroke-width="7"/>
  <ellipse cx="210" cy="308" rx="22" ry="17" fill="#7bc350" stroke="#2d263c" stroke-width="7"/>
  <circle cx="180" cy="200" r="92" fill="#8bc76a" stroke="#2d263c" stroke-width="8"/>
  <ellipse cx="180" cy="220" rx="63" ry="50" fill="#fff6d6" stroke="#2d263c" stroke-width="6"/>
  <circle cx="145" cy="228" r="9" fill="#f2a3c4" opacity="0.8"/>
  <circle cx="215" cy="228" r="9" fill="#f2a3c4" opacity="0.8"/>
  <circle cx="152" cy="210" r="13" fill="#2d263c"/>
  <circle cx="208" cy="210" r="13" fill="#2d263c"/>
  <circle cx="148" cy="205" r="4" fill="#ffffff"/>
  <circle cx="204" cy="205" r="4" fill="#ffffff"/>
  <path d="M162 240 Q180 252 198 240" fill="none" stroke="#2d263c" stroke-width="6" stroke-linecap="round"/>
  <path d="M180 110 C170 90 195 78 186 60" fill="none" stroke="#5c9c3e" stroke-width="9" stroke-linecap="round"/>
  <path d="M172 78 Q152 70 158 88 Q170 92 176 82 Z" fill="#5c9c3e" stroke="#2d263c" stroke-width="6" stroke-linejoin="round"/>
  <circle cx="188" cy="52" r="26" fill="#e8557f" stroke="#2d263c" stroke-width="7"/>
  <circle cx="178" cy="43" r="7" fill="#ffb6cf" opacity="0.9"/>
</svg>
