<svg xmlns="http://www.w3.org/2000/svg" viewBox="0 0 360 360">
  <!-- 尻尾の先端(細く先細り) -->
  <path d="M58 340 Q46 330 55 316 Q64 305 78 316 Q84 328 72 338 Q64 344 58 340 Z" fill="#82CDE0" stroke="#2d263c" stroke-width="7" stroke-linejoin="round" stroke-linecap="round"/>

  <!-- 体・下側のうねり(尾寄り) -->
  <path d="M75 330 Q55 292 85 256 Q115 222 155 228 Q196 234 206 268 Q213 296 180 313 Q145 331 105 322 Q85 318 75 330 Z" fill="#82CDE0" stroke="#2d263c" stroke-width="7" stroke-linejoin="round" stroke-linecap="round"/>

  <!-- お腹の輪っか模様(下段) -->
  <path d="M92 300 Q132 322 176 300" fill="none" stroke="#FFF3D6" stroke-width="16" stroke-linecap="round"/>

  <!-- 体・中段のうねり -->
  <path d="M150 250 Q120 235 118 196 Q116 156 155 139 Q193 123 219 149 Q239 171 222 201 Q205 229 175 241 Q160 247 150 250 Z" fill="#72BFD4" stroke="#2d263c" stroke-width="7" stroke-linejoin="round" stroke-linecap="round"/>

  <!-- お腹の輪っか模様(中段) -->
  <path d="M140 212 Q170 227 206 206" fill="none" stroke="#FFF3D6" stroke-width="15" stroke-linecap="round"/>

  <!-- 体・首元へ続くうねり -->
  <path d="M206 166 Q196 136 216 109 Q236 86 266 96 Q286 104 281 129 Q276 151 251 161 Q226 171 206 166 Z" fill="#82CDE0" stroke="#2d263c" stroke-width="7" stroke-linejoin="round" stroke-linecap="round"/>

  <!-- お腹の輪っか模様(首元) -->
  <path d="M216 142 Q240 152 266 132" fill="none" stroke="#FFF3D6" stroke-width="13" stroke-linecap="round"/>

  <!-- 頭部 -->
  <circle cx="245" cy="92" r="52" fill="#82CDE0" stroke="#2d263c" stroke-width="7"/>

  <!-- 目 左 -->
  <ellipse cx="228" cy="76" rx="13" ry="14" fill="#FFFDF6" stroke="#2d263c" stroke-width="5"/>
  <circle cx="230" cy="79" r="6" fill="#2d263c"/>
  <circle cx="233" cy="76" r="2" fill="#FFFDF6"/>

  <!-- 目 右 -->
  <ellipse cx="262" cy="72" rx="13" ry="14" fill="#FFFDF6" stroke="#2d263c" stroke-width="5"/>
  <circle cx="264" cy="75" r="6" fill="#2d263c"/>
  <circle cx="267" cy="72" r="2" fill="#FFFDF6"/>

  <!-- 鼻の穴 -->
  <circle cx="252" cy="58" r="3" fill="#2d263c"/>
  <circle cx="266" cy="57" r="3" fill="#2d263c"/>

  <!-- 口 -->
  <path d="M226 100 Q245 114 266 98" fill="none" stroke="#2d263c" stroke-width="5" stroke-linecap="round"/>
</svg>
