<svg xmlns="http://www.w3.org/2000/svg" viewBox="0 0 360 360">
  <g stroke="#2d263c" stroke-linejoin="round" stroke-linecap="round">
    <path d="M96 96 C80 74 66 56 50 48 C40 44 32 52 32 66 C32 82 40 98 50 110 C58 100 62 86 70 76 C78 68 86 78 92 92 Z" fill="#B7AC98" stroke-width="6"/>
    <path d="M40 70 C38 82 42 94 50 104 C56 96 58 86 55 78 C51 71 43 68 40 70 Z" fill="#3A322C" stroke-width="4"/>
    <path d="M188 84 C202 58 220 40 244 34 C258 30 272 32 282 40 C274 52 260 60 246 62 C232 66 220 78 214 94 Z" fill="#B7AC98" stroke-width="6"/>
    <path d="M258 36 C266 33 274 35 280 40 C275 48 266 54 257 56 C253 50 253 41 258 36 Z" fill="#3A322C" stroke-width="4"/>
    <path d="M132 78 C160 70 192 82 206 108 C216 128 214 150 200 168 C210 178 202 188 214 198 C226 210 236 232 244 258 C248 278 238 288 244 306 C248 320 234 328 224 316 C218 328 202 330 194 318 C188 330 172 330 164 318 C156 330 140 328 134 316 C124 328 108 322 106 306 C102 288 108 270 100 258 C92 244 96 224 108 208 C96 196 106 184 96 170 C84 152 86 128 100 108 C110 92 118 82 132 78 Z" fill="#C9C0AC" stroke-width="7"/>
    <path d="M108 306 L118 322 L130 304 L142 324 L154 302 L166 322 L178 302 L190 322 L202 304 L214 320 L224 302" fill="none" stroke-width="5"/>
    <path d="M150 180 C158 172 170 174 174 184 C177 194 168 202 158 200 C148 198 144 188 150 180 Z" fill="#2d263c" stroke="none"/>
    <path d="M186 232 C196 226 208 232 208 244 C208 254 196 258 188 250 C182 244 180 238 186 232 Z" fill="#2d263c" stroke="none"/>
    <ellipse cx="160" cy="188" rx="5" ry="6" fill="#FF5A4A" stroke="none"/>
    <ellipse cx="196" cy="242" rx="4" ry="5" fill="#FF5A4A" stroke="none"/>
    <g transform="rotate(-9 150 128)">
      <path d="M110 112 C120 100 136 102 140 114 C144 126 132 134 120 130 C110 126 104 120 110 112 Z" fill="#2d263c" stroke="none"/>
      <path d="M176 108 C186 98 202 100 206 112 C210 124 196 132 184 128 C174 124 170 116 176 108 Z" fill="#2d263c" stroke="none"/>
      <path d="M118 150 C126 142 134 148 140 156 C146 148 154 142 162 150 C168 158 176 150 182 144" fill="none" stroke-width="5"/>
    </g>
    <path d="M112 200 L120 208 M120 200 L112 208" stroke-width="3.5"/>
    <path d="M212 168 L220 176 M220 168 L212 176" stroke-width="3.5"/>
    <path d="M186 296 C182 312 188 326 200 330 C196 318 200 306 210 300 C202 296 194 294 186 296 Z" fill="#241E30" stroke-width="5"/>
    <path d="M300 100 L306 88 L312 100 L324 94 L312 108 L318 120 L306 114 L294 124 L298 110 Z" fill="#F6E27A" stroke-width="3"/>
    <path d="M46 210 L52 200 L58 210 L68 206 L60 218 L64 228 L54 224 L44 232 L48 220 Z" fill="#F6E27A" stroke-width="3"/>
  </g>
</svg>
