<svg xmlns="http://www.w3.org/2000/svg" viewBox="0 0 360 360">
  <g stroke="#2d263c" stroke-linejoin="round" stroke-linecap="round">
    <path d="M216 204 L252 180 L284 152 L322 120 L306 96 L266 124 L272 138 L242 164 L204 192 Z" fill="#6B4B33" stroke-width="6"/>
    <path d="M288 142 L312 122 L301 104 L276 124 Z" fill="#52382A" stroke="none"/>
    <path d="M120 88 C106 70 94 54 80 48 C66 44 56 54 54 70 C52 88 56 106 64 120 C74 110 76 94 84 82 C94 72 104 82 112 98 C114 102 118 96 120 88 Z" fill="#EFE0BC" stroke-width="6"/>
    <path d="M56 86 C54 98 57 110 64 118 C71 109 73 97 71 88 C67 80 59 79 56 86 Z" fill="#4B3C36" stroke-width="5"/>
    <path d="M174 94 C188 66 206 46 232 38 C248 33 264 34 276 42 C268 56 252 64 236 66 C220 70 206 84 200 102 Z" fill="#EFE0BC" stroke-width="6"/>
    <path d="M252 38 C262 34 271 36 279 42 C273 52 262 59 251 62 C246 55 246 44 252 38 Z" fill="#4B3C36" stroke-width="5"/>
    <path d="M148 76 C178 74 204 92 214 122 C222 146 220 170 208 188 C226 206 240 232 248 264 C253 286 252 306 242 318 C236 326 226 328 218 320 C212 330 198 333 189 324 C181 333 167 334 159 325 C151 333 137 332 130 323 C123 331 111 330 104 320 C94 306 90 284 92 258 C94 232 102 210 116 192 C100 178 90 158 90 136 C90 104 116 78 148 76 Z" fill="#EFE0BC" stroke-width="7"/>
    <path d="M120 198 C144 210 178 210 202 196" fill="none" stroke-width="4.5"/>
    <path d="M136 248 C132 274 134 300 142 320" fill="none" stroke-width="4"/>
    <path d="M196 244 C202 270 200 298 192 318" fill="none" stroke-width="4"/>
    <g transform="rotate(-7 152 148)">
      <path d="M112 130 C119 121 131 122 136 131 C140 140 133 149 123 148 C113 147 108 139 112 130 Z" fill="#2d263c" stroke="none"/>
      <path d="M168 124 C175 115 187 116 192 125 C196 134 189 143 179 142 C169 141 164 133 168 124 Z" fill="#2d263c" stroke="none"/>
      <ellipse cx="104" cy="162" rx="12" ry="10" fill="#F6A23B" stroke="none"/>
      <ellipse cx="198" cy="155" rx="12" ry="10" fill="#F6A23B" stroke="none"/>
      <path d="M126 172 C132 163 139 163 143 171 C147 179 153 179 157 171 C161 163 168 163 173 170" fill="none" stroke-width="5"/>
    </g>
    <ellipse cx="150" cy="240" rx="4.5" ry="5.5" fill="#443C46" stroke="none"/>
    <ellipse cx="171" cy="244" rx="4.5" ry="5.5" fill="#443C46" stroke="none"/>
  </g>
</svg>