<svg xmlns="http://www.w3.org/2000/svg" viewBox="0 0 360 360">
  <!-- 尻尾+もう一つの頭(後ろ側)を先に描く -->
  <path d="M228,215 Q250,190 260,165 Q268,148 274,132 L294,138 Q284,164 272,190 Q258,206 248,222 Z" fill="#F3D9A0" stroke="#2d263c" stroke-width="7" stroke-linejoin="round" stroke-linecap="round"/>
  <ellipse cx="298" cy="128" rx="28" ry="22" fill="#4B3B63" stroke="#2d263c" stroke-width="7" stroke-linejoin="round"/>
  <path d="M289,112 L286,93 L296,113 Z" fill="#FBF4DC" stroke="#2d263c" stroke-width="6" stroke-linejoin="round"/>
  <path d="M306,109 L311,90 L314,111 Z" fill="#FBF4DC" stroke="#2d263c" stroke-width="6" stroke-linejoin="round"/>
  <path d="M287,124 Q295,118 303,124" fill="none" stroke="#2d263c" stroke-width="6" stroke-linecap="round"/>
  <path d="M289,138 Q298,143 307,137" fill="none" stroke="#2d263c" stroke-width="6" stroke-linecap="round"/>

  <!-- 脚(体より先) -->
  <rect x="115" y="250" width="22" height="75" rx="10" fill="#F3D9A0" stroke="#2d263c" stroke-width="7" stroke-linejoin="round"/>
  <rect x="150" y="255" width="22" height="72" rx="10" fill="#F3D9A0" stroke="#2d263c" stroke-width="7" stroke-linejoin="round"/>
  <rect x="205" y="250" width="22" height="75" rx="10" fill="#F3D9A0" stroke="#2d263c" stroke-width="7" stroke-linejoin="round"/>
  <rect x="235" y="258" width="22" height="68" rx="10" fill="#F3D9A0" stroke="#2d263c" stroke-width="7" stroke-linejoin="round"/>
  <ellipse cx="126" cy="325" rx="13" ry="8" fill="#3B2F2F" stroke="#2d263c" stroke-width="6"/>
  <ellipse cx="161" cy="327" rx="13" ry="8" fill="#3B2F2F" stroke="#2d263c" stroke-width="6"/>
  <ellipse cx="216" cy="325" rx="13" ry="8" fill="#3B2F2F" stroke="#2d263c" stroke-width="6"/>
  <ellipse cx="246" cy="326" rx="13" ry="8" fill="#3B2F2F" stroke="#2d263c" stroke-width="6"/>

  <!-- 体 -->
  <ellipse cx="180" cy="225" rx="78" ry="45" fill="#F3D9A0" stroke="#2d263c" stroke-width="8" stroke-linejoin="round"/>
  <ellipse cx="155" cy="205" rx="16" ry="11" fill="#8B5A2B" stroke="#2d263c" stroke-width="5"/>
  <ellipse cx="197" cy="238" rx="20" ry="13" fill="#8B5A2B" stroke="#2d263c" stroke-width="5"/>
  <ellipse cx="165" cy="258" rx="14" ry="9" fill="#8B5A2B" stroke="#2d263c" stroke-width="5"/>
  <ellipse cx="212" cy="205" rx="12" ry="8" fill="#8B5A2B" stroke="#2d263c" stroke-width="5"/>

  <!-- 首(顔の一部として最後の手前に) -->
  <path d="M120,206 Q100,150 90,90 L130,85 Q146,150 159,206 Z" fill="#F3D9A0" stroke="#2d263c" stroke-width="7" stroke-linejoin="round"/>
  <path d="M118,206 Q107,150 102,93 L113,91 Q122,150 129,206 Z" fill="#8B5A2B" stroke="none"/>

  <!-- 顔 -->
  <ellipse cx="108" cy="75" rx="36" ry="29" fill="#F3D9A0" stroke="#2d263c" stroke-width="8" stroke-linejoin="round"/>
  <path d="M83,57 L94,40 L100,59 Z" fill="#F3D9A0" stroke="#2d263c" stroke-width="6" stroke-linejoin="round"/>
  <path d="M120,52 L131,37 L136,55 Z" fill="#F3D9A0" stroke="#2d263c" stroke-width="6" stroke-linejoin="round"/>
  <path d="M104,48 L108,25 L114,50 Z" fill="#FBF4DC" stroke="#2d263c" stroke-width="6" stroke-linejoin="round"/>
  <circle cx="100" cy="73" r="10" fill="#FFFFFF" stroke="#2d263c" stroke-width="5"/>
  <circle cx="102" cy="73" r="6" fill="#E8622C"/>
  <circle cx="103" cy="73" r="2.5" fill="#1A1A1A"/>
  <path d="M93,96 Q108,104 120,94" fill="none" stroke="#2d263c" stroke-width="6" stroke-linecap="round"/>
  <circle cx="121" cy="89" r="2.5" fill="#2d263c"/>
</svg>
