<svg xmlns="http://www.w3.org/2000/svg" viewBox="0 0 360 360">

  <!-- 夢のけむり(後ろ) -->
  <path d="M165,100 Q145,75 148,50 Q158,60 162,75 Q160,55 172,45 Q175,62 175,78 Q178,58 188,50 Q188,65 185,80 Q192,60 202,55 Q200,72 195,88 Q205,65 215,62 Q210,80 205,95" fill="#E898C8" stroke="#2d263c" stroke-width="4" stroke-linejoin="round" stroke-linecap="round" opacity="0.85"/>

  <!-- 夢のけむりの丸(ふわふわ) -->
  <circle cx="155" cy="68" r="18" fill="#F0B0D8" stroke="#2d263c" stroke-width="4" opacity="0.8"/>
  <circle cx="175" cy="52" r="22" fill="#F0B0D8" stroke="#2d263c" stroke-width="4" opacity="0.85"/>
  <circle cx="200" cy="62" r="16" fill="#F0B0D8" stroke="#2d263c" stroke-width="4" opacity="0.75"/>
  <circle cx="215" cy="82" r="13" fill="#F0B0D8" stroke="#2d263c" stroke-width="4" opacity="0.7"/>

  <!-- 影 -->
  <ellipse cx="182" cy="320" rx="90" ry="18" fill="#00000022"/>

  <!-- 体(大きな卵型) -->
  <ellipse cx="182" cy="240" rx="112" ry="95" fill="#E898C8" stroke="#2d263c" stroke-width="9" stroke-linejoin="round"/>

  <!-- お腹のクリーム色 -->
  <ellipse cx="185" cy="258" rx="72" ry="68" fill="#F8E0C0" stroke="#2d263c" stroke-width="5" stroke-linejoin="round"/>

  <!-- 花柄の模様 -->
  <circle cx="158" cy="238" r="12" fill="#C860A0" stroke="#2d263c" stroke-width="3"/>
  <circle cx="158" cy="238" r="6" fill="#F8E0C0" stroke="none"/>
  <circle cx="210" cy="242" r="10" fill="#C860A0" stroke="#2d263c" stroke-width="3"/>
  <circle cx="210" cy="242" r="5" fill="#F8E0C0" stroke="none"/>
  <circle cx="180" cy="275" r="9" fill="#C860A0" stroke="#2d263c" stroke-width="3"/>
  <circle cx="180" cy="275" r="4.5" fill="#F8E0C0" stroke="none"/>

  <!-- 小さな足(左) -->
  <ellipse cx="140" cy="310" rx="25" ry="16" fill="#E898C8" stroke="#2d263c" stroke-width="6" stroke-linejoin="round"/>

  <!-- 小さな足(右) -->
  <ellipse cx="224" cy="310" rx="25" ry="16" fill="#E898C8" stroke="#2d263c" stroke-width="6" stroke-linejoin="round"/>

  <!-- 頭部 -->
  <ellipse cx="182" cy="168" rx="68" ry="62" fill="#E898C8" stroke="#2d263c" stroke-width="8" stroke-linejoin="round"/>

  <!-- 額の夢の穴 -->
  <ellipse cx="182" cy="140" rx="15" ry="12" fill="#C860A0" stroke="#2d263c" stroke-width="4"/>
  <ellipse cx="182" cy="140" rx="9" ry="7" fill="#8820A0"/>

  <!-- まぶた(眠っている) -->
  <path d="M148,170 Q158,162 170,170" fill="none" stroke="#2d263c" stroke-width="7" stroke-linecap="round"/>
  <path d="M195,170 Q207,162 218,170" fill="none" stroke="#2d263c" stroke-width="7" stroke-linecap="round"/>

  <!-- まつ毛 -->
  <path d="M150,168 L146,160 M158,164 L156,156 M166,165 L165,157" stroke="#2d263c" stroke-width="4" stroke-linecap="round" fill="none"/>
  <path d="M198,164 L196,156 M206,164 L205,156 M215,168 L219,160" stroke="#2d263c" stroke-width="4" stroke-linecap="round" fill="none"/>

  <!-- 口(ほほえみ) -->
  <path d="M165,190 Q182,202 200,190" fill="none" stroke="#2d263c" stroke-width="6" stroke-linecap="round"/>

  <!-- ほっぺ(ピンク) -->
  <ellipse cx="145" cy="182" rx="14" ry="10" fill="#FF9DC8" stroke="#2d263c" stroke-width="3"/>
  <ellipse cx="220" cy="182" rx="14" ry="10" fill="#FF9DC8" stroke="#2d263c" stroke-width="3"/>

</svg>
