<svg xmlns="http://www.w3.org/2000/svg" viewBox="0 0 360 360">
  <ellipse cx="180" cy="322" rx="72" ry="14" fill="#2d263c" opacity="0.15"/>

  <path d="M118 300 q-10 22 -6 34 q14 4 22 -6 q4 -16 2 -30 z" fill="#3a2a20" stroke="#2d263c" stroke-width="7" stroke-linejoin="round"/>
  <path d="M242 300 q10 22 6 34 q-14 4 -22 -6 q-4 -16 -2 -30 z" fill="#3a2a20" stroke="#2d263c" stroke-width="7" stroke-linejoin="round"/>

  <path d="M180 250 q60 20 76 70 q-30 14 -58 -6 q-20 -30 -18 -64 z" fill="#241a14" stroke="#2d263c" stroke-width="8" stroke-linejoin="round"/>

  <path d="M92 200 q-30 30 -18 78 q28 18 46 -6 q10 -40 -6 -74 z" fill="#8a5a35" stroke="#2d263c" stroke-width="8" stroke-linejoin="round"/>
  <path d="M268 200 q30 30 18 78 q-28 18 -46 -6 q-10 -40 6 -74 z" fill="#8a5a35" stroke="#2d263c" stroke-width="8" stroke-linejoin="round"/>

  <ellipse cx="180" cy="222" rx="82" ry="92" fill="#a06a3d" stroke="#2d263c" stroke-width="8"/>

  <ellipse cx="180" cy="252" rx="52" ry="58" fill="#f6e7c8" stroke="#2d263c" stroke-width="7"/>

  <circle cx="180" cy="120" r="72" fill="#241a14" stroke="#2d263c" stroke-width="8"/>

  <path d="M158 60 q-6 -34 -22 -44 q10 32 6 46 z" fill="#241a14" stroke="#2d263c" stroke-width="7" stroke-linejoin="round"/>
  <path d="M182 52 q0 -36 -8 -50 q-2 34 2 50 z" fill="#241a14" stroke="#2d263c" stroke-width="7" stroke-linejoin="round"/>
  <path d="M204 60 q10 -32 26 -40 q-12 30 -10 44 z" fill="#241a14" stroke="#2d263c" stroke-width="7" stroke-linejoin="round"/>

  <ellipse cx="128" cy="128" rx="26" ry="30" fill="#f6e7c8" stroke="#2d263c" stroke-width="6"/>
  <ellipse cx="232" cy="128" rx="26" ry="30" fill="#f6e7c8" stroke="#2d263c" stroke-width="6"/>

  <circle cx="160" cy="118" r="13" fill="#1a1420" stroke="#2d263c" stroke-width="5"/>
  <circle cx="200" cy="118" r="13" fill="#1a1420" stroke="#2d263c" stroke-width="5"/>
  <circle cx="156" cy="113" r="4" fill="#ffffff"/>
  <circle cx="196" cy="113" r="4" fill="#ffffff"/>

  <path d="M164 148 q16 14 32 0 q-8 22 -16 22 q-8 0 -16 -22 z" fill="#f4a637" stroke="#2d263c" stroke-width="7" stroke-linejoin="round"/>

  <path d="M144 296 q-2 16 4 24 q10 4 16 -4 q0 -12 -4 -20 z" fill="#f4a637" stroke="#2d263c" stroke-width="6" stroke-linejoin="round"/>
  <path d="M216 296 q2 16 -4 24 q-10 4 -16 -4 q0 -12 4 -20 z" fill="#f4a637" stroke="#2d263c" stroke-width="6" stroke-linejoin="round"/>
</svg>
