<svg xmlns="http://www.w3.org/2000/svg" viewBox="0 0 360 360">
  <g stroke="#2d263c" stroke-width="8" stroke-linejoin="round" stroke-linecap="round">
    <path d="M180,30 L196,84 L226,46 L224,100 L262,66 L246,116 L302,96 L266,140 L326,140 L272,168 L328,196 L268,204 L316,240 L258,228 L288,272 L238,244 L252,300 L210,258 L204,320 L180,270 L156,320 L150,258 L108,300 L122,244 L72,272 L102,228 L44,240 L92,204 L32,196 L88,168 L34,140 L94,140 L58,116 L114,96 L98,66 L136,100 L134,46 L164,84 Z" fill="#7a4bb0"/>
    <path d="M120,150 C90,150 66,178 66,214 C66,270 116,320 180,320 C244,320 294,270 294,214 C294,178 270,150 240,150 Z" fill="#5d3f8a"/>
    <path d="M92,214 C92,268 132,296 180,296 C228,296 268,268 268,214 C268,236 240,254 180,254 C120,254 92,236 92,214 Z" fill="#3a2a52"/>
    <path d="M76,230 C60,236 48,252 50,270 C64,266 78,256 88,244 Z" fill="#4a3a5c"/>
    <path d="M284,230 C300,236 312,252 310,270 C296,266 282,256 272,244 Z" fill="#4a3a5c"/>
  </g>
  <path d="M96,236 C112,268 148,290 180,290 C212,290 248,268 264,236 C250,262 216,274 180,274 C144,274 110,262 96,236 Z" fill="#ffffff" stroke="#2d263c" stroke-width="7" stroke-linejoin="round"/>
  <path d="M110,236 L120,254 L130,236 L140,254 L150,236 L160,254 L170,236 L180,254 L190,236 L200,254 L210,236 L220,254 L230,236 L240,254 L250,236" fill="#ffffff" stroke="#2d263c" stroke-width="5" stroke-linejoin="round" stroke-linecap="round"/>
  <ellipse cx="150" cy="180" rx="16" ry="20" fill="#ff3d5c" stroke="#2d263c" stroke-width="7"/>
  <ellipse cx="210" cy="180" rx="16" ry="20" fill="#ff3d5c" stroke="#2d263c" stroke-width="7"/>
  <ellipse cx="150" cy="184" rx="6" ry="9" fill="#2d263c"/>
  <ellipse cx="210" cy="184" rx="6" ry="9" fill="#2d263c"/>
  <circle cx="180" cy="216" r="26" fill="#1a1626" stroke="#2d263c" stroke-width="7"/>
  <path d="M180,196 L188,214 L204,216 L190,228 L194,244 L180,234 L166,244 L170,228 L156,216 L172,214 Z" fill="#ff3d5c"/>
</svg>
