<svg xmlns="http://www.w3.org/2000/svg" viewBox="0 0 360 360">
  <g stroke="#2d263c" stroke-width="7" stroke-linejoin="round" stroke-linecap="round">
    <path d="M118,210 C92,242 88,278 110,292 C116,266 132,246 152,236" fill="#4a3a5c"/>
    <path d="M242,210 C268,242 272,278 250,292 C244,266 228,246 208,236" fill="#4a3a5c"/>
    <path d="M152,250 C142,302 162,332 200,332 C238,332 250,302 240,256 Z" fill="#5d4a6e"/>
    <path d="M165,220 C160,160 165,120 180,96 C195,120 200,160 195,220 Z" fill="#4a3a5c"/>
    <path d="M150,206 C120,200 100,212 96,236 C112,234 130,234 150,236" fill="#4a3a5c"/>
    <path d="M210,206 C240,200 260,212 264,236 C248,234 230,234 210,236" fill="#4a3a5c"/>
    <path d="M180,76 C206,76 222,92 222,112 C222,130 206,142 180,142 C154,142 138,130 138,112 C138,92 154,76 180,76 Z" fill="#5d4a6e"/>
    <path d="M150,86 C138,62 128,52 120,54 C128,70 138,84 148,92" fill="#433556"/>
    <path d="M210,86 C222,62 232,52 240,54 C232,70 222,84 212,92" fill="#433556"/>
  </g>
  <ellipse cx="180" cy="216" rx="34" ry="40" fill="#ff7a3d" stroke="#2d263c" stroke-width="6"/>
  <ellipse cx="180" cy="216" rx="18" ry="22" fill="#ffd24d"/>
  <ellipse cx="165" cy="110" rx="7" ry="10" fill="#ff5a7a" stroke="#2d263c" stroke-width="6"/>
  <ellipse cx="195" cy="110" rx="7" ry="10" fill="#ff5a7a" stroke="#2d263c" stroke-width="6"/>
  <path d="M168,130 Q180,140 192,130" fill="none" stroke="#2d263c" stroke-width="6" stroke-linecap="round"/>
  <path d="M96,236 L88,248 M102,240 L96,252 M110,240 L104,253" stroke="#2d263c" stroke-width="6" stroke-linecap="round" fill="none"/>
  <path d="M264,236 L272,248 M258,240 L264,252 M250,240 L256,253" stroke="#2d263c" stroke-width="6" stroke-linecap="round" fill="none"/>
</svg>
