<svg xmlns="http://www.w3.org/2000/svg" viewBox="0 0 360 360">
  <ellipse cx="180" cy="316" rx="66" ry="14" fill="#cbb8e8" opacity="0.5"/>
  <path d="M140,168 C110,178 75,205 62,240 C55,262 58,272 60,280 L90,305 L120,280 L150,305 L180,280 L210,305 L240,280 L270,305 L300,280 C302,272 305,262 298,240 C285,205 250,178 220,168 C205,182 195,190 180,190 C165,190 155,182 140,168 Z"
        fill="#3d2c5c" stroke="#2d263c" stroke-width="8" stroke-linejoin="round" stroke-linecap="round"/>
  <path d="M60,280 L90,305 L120,280 Z" fill="#6a54a0" stroke="#2d263c" stroke-width="6" stroke-linejoin="round"/>
  <path d="M150,280 L180,305 L210,280 Z" fill="#6a54a0" stroke="#2d263c" stroke-width="6" stroke-linejoin="round"/>
  <path d="M240,280 L270,305 L300,280 Z" fill="#6a54a0" stroke="#2d263c" stroke-width="6" stroke-linejoin="round"/>
  <path d="M165,180 C159,212 157,242 165,270 C173,281 187,281 195,270 C203,242 201,212 195,180 C188,175 172,175 165,180 Z"
        fill="#8a72b8" stroke="#2d263c" stroke-width="6" stroke-linejoin="round"/>
  <path d="M105,150 C93,108 118,68 180,70 C242,68 267,108 255,150 C250,166 235,177 220,168 L180,190 L140,168 C125,177 110,166 105,150 Z"
        fill="#5b4a82" stroke="#2d263c" stroke-width="8" stroke-linejoin="round" stroke-linecap="round"/>
  <path d="M164,72 L180,16 L199,72 Z" fill="#5b4a82" stroke="#2d263c" stroke-width="7" stroke-linejoin="round" stroke-linecap="round"/>
  <ellipse cx="180" cy="135" rx="42" ry="38" fill="#cbb8e8" stroke="#2d263c" stroke-width="7"/>
  <circle cx="94" cy="156" r="27" fill="#5b4a82" stroke="#2d263c" stroke-width="6"/>
  <circle cx="87" cy="145" r="11" fill="#3d2c5c" stroke="#2d263c" stroke-width="5"/>
  <circle cx="266" cy="156" r="27" fill="#5b4a82" stroke="#2d263c" stroke-width="6"/>
  <circle cx="273" cy="145" r="11" fill="#3d2c5c" stroke="#2d263c" stroke-width="5"/>
  <ellipse cx="163" cy="130" rx="9" ry="13" fill="#a8123a"/>
  <ellipse cx="197" cy="130" rx="9" ry="13" fill="#a8123a"/>
  <path d="M170,150 Q180,158 190,150" fill="none" stroke="#2d263c" stroke-width="5" stroke-linecap="round"/>
  <path d="M160,178 Q180,196 200,178 L194,167 Q180,180 166,167 Z" fill="#3d2c5c" stroke="#2d263c" stroke-width="5" stroke-linejoin="round"/>
</svg>
