<svg xmlns="http://www.w3.org/2000/svg" viewBox="0 0 360 360"><g stroke="#2d263c" stroke-width="7" stroke-linejoin="round" stroke-linecap="round"><ellipse cx="180" cy="320" rx="65" ry="12" fill="#000000" opacity="0.15" stroke="none"/><path d="M180,90 C135,90 100,115 92,155 C88,175 90,195 95,215 L115,295 L140,225 L165,300 L190,225 L215,300 L240,225 L260,295 L265,215 C270,195 272,175 268,155 C260,115 225,90 180,90 Z" fill="#453a6e"/><ellipse cx="180" cy="212" rx="42" ry="55" fill="#7a6bab"/><path d="M75,145 L45,120 L60,175 Z" fill="#b8354f"/><path d="M285,145 L315,120 L300,175 Z" fill="#b8354f"/><path d="M193,95 C190,70 175,50 185,38 C196,28 215,35 210,55 C207,66 197,64 197,80 Z" fill="#b8354f"/><circle cx="60" cy="250" r="8" fill="#7a6bab" opacity="0.6" stroke="none"/><circle cx="300" cy="250" r="8" fill="#7a6bab" opacity="0.6" stroke="none"/><circle cx="150" cy="160" r="15" fill="#e2314a"/><circle cx="210" cy="160" r="15" fill="#e2314a"/><circle cx="145" cy="155" r="4" fill="#ffffff" stroke="none"/><circle cx="205" cy="155" r="4" fill="#ffffff" stroke="none"/><path d="M160,195 Q180,208 200,195" fill="none" stroke-width="6"/></g></svg>
