<svg xmlns="http://www.w3.org/2000/svg" viewBox="0 0 360 360">
  <!-- 髪飾りの大きな菱形クリスタル(頭上) -->
  <path d="M180 24 L206 62 L180 100 L154 62 Z" fill="#ffe9f4" stroke="#2d263c" stroke-width="7" stroke-linejoin="round"/>
  <path d="M180 40 L180 84" stroke="#2d263c" stroke-width="4" stroke-linecap="round"/>
  <!-- 顔まわりの結晶ふさふさ(左右) -->
  <path d="M120 88 Q92 74 84 100 Q78 122 104 128 Q98 108 120 88 Z" fill="#ffd7ea" stroke="#2d263c" stroke-width="6" stroke-linejoin="round"/>
  <path d="M240 88 Q268 74 276 100 Q282 122 256 128 Q262 108 240 88 Z" fill="#ffd7ea" stroke="#2d263c" stroke-width="6" stroke-linejoin="round"/>
  <!-- 頭部 -->
  <circle cx="180" cy="128" r="52" fill="#ffc9e4" stroke="#2d263c" stroke-width="7"/>
  <!-- 目 -->
  <ellipse cx="160" cy="126" rx="8" ry="10" fill="#2d263c"/>
  <ellipse cx="202" cy="126" rx="8" ry="10" fill="#2d263c"/>
  <circle cx="163" cy="122" r="2.5" fill="#fff"/>
  <circle cx="205" cy="122" r="2.5" fill="#fff"/>
  <!-- ほほの結晶 -->
  <path d="M138 142 L148 152 L138 162 L128 152 Z" fill="#b8e6ff" stroke="#2d263c" stroke-width="4" stroke-linejoin="round"/>
  <path d="M222 142 L232 152 L222 162 L212 152 Z" fill="#b8e6ff" stroke="#2d263c" stroke-width="4" stroke-linejoin="round"/>
  <!-- 口 -->
  <path d="M170 148 Q180 154 190 148" stroke="#2d263c" stroke-width="5" fill="none" stroke-linecap="round"/>
  <!-- 胴体(菱形基調のドレス風) -->
  <path d="M180 178 L232 210 L214 300 L146 300 L128 210 Z" fill="#ffb3d9" stroke="#2d263c" stroke-width="8" stroke-linejoin="round"/>
  <!-- 胸の大きなハート型ダイヤモンド -->
  <path d="M180 208 L200 232 L180 262 L160 232 Z" fill="#c9f0ff" stroke="#2d263c" stroke-width="6" stroke-linejoin="round"/>
  <path d="M180 220 L180 250" stroke="#2d263c" stroke-width="3" stroke-linecap="round"/>
  <!-- 腰まわりの追加クリスタル(メガ進化の飾り) -->
  <path d="M146 262 L162 280 L146 298 L130 280 Z" fill="#ffe0ef" stroke="#2d263c" stroke-width="5" stroke-linejoin="round"/>
  <path d="M214 262 L230 280 L214 298 L198 280 Z" fill="#ffe0ef" stroke="#2d263c" stroke-width="5" stroke-linejoin="round"/>
  <!-- 腕 -->
  <path d="M128 210 Q96 220 88 250 Q84 268 100 274" fill="none" stroke="#2d263c" stroke-width="8" stroke-linecap="round"/>
  <path d="M232 210 Q264 220 272 250 Q276 268 260 274" fill="none" stroke="#2d263c" stroke-width="8" stroke-linecap="round"/>
  <!-- 手先の菱形 -->
  <path d="M92 266 L104 278 L92 290 L80 278 Z" fill="#ffd7ea" stroke="#2d263c" stroke-width="5" stroke-linejoin="round"/>
  <path d="M268 266 L280 278 L268 290 L256 278 Z" fill="#ffd7ea" stroke="#2d263c" stroke-width="5" stroke-linejoin="round"/>
  <!-- 足元の小さな菱形 -->
  <path d="M150 300 L164 316 L150 332 L136 316 Z" fill="#ffc9e4" stroke="#2d263c" stroke-width="6" stroke-linejoin="round"/>
  <path d="M210 300 L224 316 L210 332 L196 316 Z" fill="#ffc9e4" stroke="#2d263c" stroke-width="6" stroke-linejoin="round"/>
  <!-- きらめき -->
  <path d="M100 60 L104 68 L112 72 L104 76 L100 84 L96 76 L88 72 L96 68 Z" fill="#fff6fb" stroke="#2d263c" stroke-width="3" stroke-linejoin="round"/>
  <path d="M270 200 L273 206 L279 209 L273 212 L270 218 L267 212 L261 209 L267 206 Z" fill="#fff6fb" stroke="#2d263c" stroke-width="3" stroke-linejoin="round"/>
</svg>
