<svg xmlns="http://www.w3.org/2000/svg" viewBox="0 0 360 360">

  <!-- 影 -->
  <ellipse cx="180" cy="330" rx="62" ry="14" fill="#00000022"/>

  <!-- 脚の炎(後ろ) -->
  <path d="M152,295 Q132,310 120,330 Q138,318 148,325 Q140,340 155,340 Q155,325 162,315 Z" fill="#FF6010" stroke="#2d263c" stroke-width="5" stroke-linejoin="round" stroke-linecap="round"/>
  <path d="M208,295 Q228,310 240,330 Q222,318 212,325 Q220,340 205,340 Q205,325 198,315 Z" fill="#FF6010" stroke="#2d263c" stroke-width="5" stroke-linejoin="round" stroke-linecap="round"/>

  <!-- 脚 -->
  <path d="M148,260 Q140,280 145,300 Q152,312 162,308 Q170,300 168,280 Q165,268 158,260 Z" fill="#E07030" stroke="#2d263c" stroke-width="7" stroke-linejoin="round"/>
  <path d="M212,260 Q220,280 215,300 Q208,312 198,308 Q190,300 192,280 Q195,268 202,260 Z" fill="#E07030" stroke="#2d263c" stroke-width="7" stroke-linejoin="round"/>

  <!-- 体 -->
  <path d="M140,185 Q132,218 140,252 Q152,275 178,280 Q204,272 218,248 Q228,215 220,182 Q210,158 178,152 Q146,158 140,185 Z" fill="#CC5510" stroke="#2d263c" stroke-width="8" stroke-linejoin="round"/>

  <!-- 胸の白い羽 -->
  <ellipse cx="178" cy="215" rx="35" ry="42" fill="#F8EED8" stroke="#2d263c" stroke-width="5" stroke-linejoin="round"/>

  <!-- 拳の炎(左) -->
  <path d="M105,210 Q88,198 80,185 Q92,190 96,182 Q90,172 100,168 Q105,178 112,175 Q108,185 118,188 Z" fill="#FF6010" stroke="#2d263c" stroke-width="5" stroke-linejoin="round" stroke-linecap="round"/>
  <path d="M105,218 Q85,212 80,200 Q92,207 98,200 Q92,192 102,190" fill="#FF4000" stroke="none" opacity="0.7"/>

  <!-- 腕(左) -->
  <path d="M142,198 Q118,188 108,208 Q100,228 116,238 Q134,244 148,228" fill="#CC5510" stroke="#2d263c" stroke-width="7" stroke-linejoin="round" stroke-linecap="round"/>

  <!-- 拳の炎(右) -->
  <path d="M255,210 Q272,198 280,185 Q268,190 264,182 Q270,172 260,168 Q255,178 248,175 Q252,185 242,188 Z" fill="#FF6010" stroke="#2d263c" stroke-width="5" stroke-linejoin="round" stroke-linecap="round"/>

  <!-- 腕(右) -->
  <path d="M218,198 Q242,188 252,208 Q260,228 244,238 Q226,244 212,228" fill="#CC5510" stroke="#2d263c" stroke-width="7" stroke-linejoin="round" stroke-linecap="round"/>

  <!-- 首 -->
  <rect x="162" y="142" width="32" height="22" rx="10" fill="#CC5510" stroke="#2d263c" stroke-width="7" stroke-linejoin="round"/>

  <!-- 頭 -->
  <ellipse cx="178" cy="118" rx="50" ry="48" fill="#CC5510" stroke="#2d263c" stroke-width="8" stroke-linejoin="round"/>

  <!-- 顔マスク(クリーム色) -->
  <path d="M155,108 Q165,95 178,93 Q191,95 202,108 Q210,122 205,138 Q198,150 178,152 Q158,150 152,138 Q147,125 155,108 Z" fill="#F8EED8" stroke="#2d263c" stroke-width="5" stroke-linejoin="round"/>

  <!-- 目(左) -->
  <ellipse cx="163" cy="118" rx="11" ry="12" fill="white" stroke="#2d263c" stroke-width="5"/>
  <circle cx="165" cy="117" r="7" fill="#CC2200"/>
  <circle cx="167" cy="115" r="3" fill="white"/>

  <!-- 目(右) -->
  <ellipse cx="194" cy="118" rx="11" ry="12" fill="white" stroke="#2d263c" stroke-width="5"/>
  <circle cx="196" cy="117" r="7" fill="#CC2200"/>
  <circle cx="198" cy="115" r="3" fill="white"/>

  <!-- 口 -->
  <path d="M168,138 Q178,146 188,138" fill="none" stroke="#2d263c" stroke-width="5" stroke-linecap="round"/>

  <!-- 頭の炎の羽(メガ) -->
  <path d="M165,72 Q158,45 145,25 Q155,40 162,55 Q155,35 168,20 Q170,42 172,60 Z" fill="#FF6010" stroke="#2d263c" stroke-width="5" stroke-linejoin="round" stroke-linecap="round"/>
  <path d="M178,70 Q178,40 178,18 Q183,40 184,65 Z" fill="#FF8030" stroke="#2d263c" stroke-width="4" stroke-linejoin="round" stroke-linecap="round"/>
  <path d="M192,72 Q200,45 212,25 Q205,40 198,55 Q205,35 192,20 Q190,42 188,60 Z" fill="#FF6010" stroke="#2d263c" stroke-width="5" stroke-linejoin="round" stroke-linecap="round"/>

</svg>
