<svg xmlns="http://www.w3.org/2000/svg" viewBox="0 0 360 360">
  <g stroke="#2d263c" stroke-width="7" stroke-linejoin="round" stroke-linecap="round">
    <path d="M78 175 L28 138 L72 205 Z" fill="#5a3f8a"/>
    <path d="M288 168 L338 126 L294 198 Z" fill="#5a3f8a"/>
    <path d="M95 208 Q58 196 38 214 L54 224 L34 238 L58 241 L50 259 Q82 252 97 236 Z" fill="#7b5aa6"/>
    <path d="M266 202 Q304 188 327 204 L311 217 L330 230 L307 234 L317 253 Q284 249 264 230 Z" fill="#7b5aa6"/>
    <path d="M85 248 Q68 192 86 150 L58 88 L112 126 L116 58 L151 110 L176 42 L206 110 L236 63 L246 126 L302 93 Q298 176 281 218 Q268 268 180 276 Q96 274 85 248 Z" fill="#7b5aa6"/>
    <path d="M95 248 Q140 262 180 262 Q225 262 268 244 Q258 270 180 276 Q104 272 95 248 Z" fill="#5b3f87"/>
    <path d="M55 274 Q70 250 112 258 Q180 242 250 257 Q300 250 313 272 Q320 294 268 297 Q180 312 96 300 Q48 294 55 274 Z" fill="#412d66"/>
    <path d="M181 78 Q198 104 182 132 Q165 105 181 78 Z" fill="#f6c145"/>
    <path d="M181 92 Q188 105 182 119 Q175 105 181 92 Z" fill="#d8403c" stroke-width="4"/>
    <path d="M125 152 L168 137 L164 173 L130 175 Z" fill="#e23b3b"/>
    <path d="M239 150 L196 138 L200 172 L234 174 Z" fill="#e23b3b"/>
    <path d="M112 188 Q180 258 252 182 Q182 213 112 188 Z" fill="#ffffff"/>
    <path d="M148 199 L152 228" fill="none" stroke-width="5"/>
    <path d="M180 204 L181 234" fill="none" stroke-width="5"/>
    <path d="M212 199 L215 226" fill="none" stroke-width="5"/>
  </g>
  <circle cx="152" cy="151" r="5" fill="#ffffff"/>
  <circle cx="212" cy="151" r="5" fill="#ffffff"/>
</svg>