<svg xmlns="http://www.w3.org/2000/svg" viewBox="0 0 360 360"><g stroke="#2d263c" stroke-width="7" stroke-linejoin="round" stroke-linecap="round"><path d="M128,196 C70,150 26,176 32,232 C38,284 96,292 134,254 Z" fill="#f6a13c"/><path d="M118,210 C84,184 56,198 58,232 C62,262 98,268 122,242 Z" fill="#ffcf73" stroke-width="5"/><path d="M234,194 C292,146 336,172 330,230 C324,282 266,290 228,252 Z" fill="#f6a13c"/><path d="M244,208 C278,182 306,196 304,230 C300,260 264,266 240,240 Z" fill="#ffcf73" stroke-width="5"/><path d="M146,132 C118,116 96,84 104,52 C110,30 136,26 150,44 C166,64 168,100 164,130 Z" fill="#ece3c8"/><path d="M163,62 L178,56 L166,76 Z" fill="#ece3c8" stroke-width="5"/><path d="M166,88 L181,84 L168,102 Z" fill="#ece3c8" stroke-width="5"/><path d="M165,110 L179,108 L166,124 Z" fill="#ece3c8" stroke-width="5"/><path d="M218,130 C246,114 266,82 258,50 C250,28 226,28 212,46 C198,66 196,102 200,128 Z" fill="#ece3c8"/><path d="M199,60 L184,54 L196,74 Z" fill="#ece3c8" stroke-width="5"/><path d="M196,86 L181,82 L194,100 Z" fill="#ece3c8" stroke-width="5"/><path d="M197,108 L183,106 L196,122 Z" fill="#ece3c8" stroke-width="5"/><path d="M160,298 C154,316 150,328 152,334 L178,334 C176,320 176,308 178,300 Z" fill="#8a6437"/><path d="M205,299 C210,314 214,326 212,333 L188,334 C189,320 188,308 187,300 Z" fill="#8a6437"/><path d="M132,210 C102,218 84,242 88,266 C96,272 106,270 108,262 C112,244 126,230 142,224 Z" fill="#a9824f"/><path d="M88,266 L72,278 L92,278 Z" fill="#ece3c8" stroke-width="5"/><path d="M97,270 L90,290 L106,279 Z" fill="#ece3c8" stroke-width="5"/><path d="M104,238 L88,231 L100,251 Z" fill="#ece3c8" stroke-width="5"/><path d="M232,208 C262,214 282,238 278,264 C270,272 260,268 258,260 C254,242 240,228 224,222 Z" fill="#a9824f"/><path d="M278,264 L294,277 L273,276 Z" fill="#ece3c8" stroke-width="5"/><path d="M269,268 L276,288 L261,276 Z" fill="#ece3c8" stroke-width="5"/><path d="M262,236 L278,230 L266,250 Z" fill="#ece3c8" stroke-width="5"/><path d="M182,114 C144,114 124,148 120,192 C114,244 132,294 182,300 C230,295 248,246 242,192 C238,148 218,114 182,114 Z" fill="#a9824f" stroke-width="8"/><path d="M152,232 C162,224 202,224 212,234 C220,260 208,288 181,293 C154,287 145,258 152,232 Z" fill="#c9a96e" stroke-width="6"/><path d="M150,254 C170,248 196,248 214,255" fill="none" stroke-width="5"/><path d="M155,276 C172,270 192,270 209,276" fill="none" stroke-width="5"/><ellipse cx="158" cy="172" rx="13" ry="15" fill="#cfeaf4" stroke-width="6"/><ellipse cx="207" cy="170" rx="14" ry="16" fill="#cfeaf4" stroke-width="6"/><circle cx="161" cy="175" r="4.5" fill="#2d263c" stroke="none"/><circle cx="204" cy="173" r="5" fill="#2d263c" stroke="none"/><path d="M142,154 L172,162" fill="none"/><path d="M223,151 L193,160" fill="none"/><path d="M142,206 L156,199 L163,212 L176,200 L186,213 L198,200 L207,212 L221,202" fill="none" stroke-width="6"/></g></svg>