<svg xmlns="http://www.w3.org/2000/svg" viewBox="0 0 360 360"><g transform="translate(0,26)" stroke="#2d263c" stroke-width="7" stroke-linejoin="round" stroke-linecap="round"><g transform="translate(62,96) rotate(-33)"><path d="M-3,9 Q-4,26 -2,42 L4,42 Q5,26 3,9 Z" fill="#CDD2DC" stroke-width="6"/><ellipse cx="0" cy="0" rx="9" ry="13" fill="#CDD2DC" stroke-width="6"/></g><g transform="translate(114,54) rotate(-15)"><path d="M-3,9 Q-4,26 -2,42 L4,42 Q5,26 3,9 Z" fill="#CDD2DC" stroke-width="6"/><ellipse cx="0" cy="0" rx="9" ry="13" fill="#CDD2DC" stroke-width="6"/></g><g transform="translate(181,34) rotate(4)"><path d="M-3,9 Q-4,26 -2,42 L4,42 Q5,26 3,9 Z" fill="#CDD2DC" stroke-width="6"/><ellipse cx="0" cy="0" rx="9" ry="13" fill="#CDD2DC" stroke-width="6"/></g><g transform="translate(248,54) rotate(16)"><path d="M-3,9 Q-4,26 -2,42 L4,42 Q5,26 3,9 Z" fill="#CDD2DC" stroke-width="6"/><ellipse cx="0" cy="0" rx="9" ry="13" fill="#CDD2DC" stroke-width="6"/></g><g transform="translate(300,96) rotate(31)"><path d="M-3,9 Q-4,26 -2,42 L4,42 Q5,26 3,9 Z" fill="#CDD2DC" stroke-width="6"/><ellipse cx="0" cy="0" rx="9" ry="13" fill="#CDD2DC" stroke-width="6"/></g><path d="M150,78 Q126,58 110,26 Q140,46 170,66 Q160,74 150,78 Z" fill="#E6BE5A"/><path d="M210,78 Q236,56 254,22 Q222,44 192,64 Q202,72 210,78 Z" fill="#E6BE5A"/><path d="M150,154 Q126,162 118,178 Q104,162 102,142" fill="none" stroke-width="23"/><path d="M210,154 Q234,162 242,178 Q256,162 258,142" fill="none" stroke-width="23"/><path d="M150,154 Q126,162 118,178 Q104,162 102,142" fill="none" stroke="#E6BE5A" stroke-width="11"/><path d="M210,154 Q234,162 242,178 Q256,162 258,142" fill="none" stroke="#E6BE5A" stroke-width="11"/><circle cx="101" cy="136" r="9" fill="#E6BE5A"/><circle cx="259" cy="135" r="9" fill="#E6BE5A"/><path d="M156,128 Q144,180 150,220 Q180,236 210,220 Q216,180 204,128 Z" fill="#E6BE5A"/><ellipse cx="180" cy="230" rx="42" ry="22" fill="#9C5B2E"/><path d="M162,238 Q114,244 104,262 Q110,278 132,275 Q168,272 198,266 Q203,255 190,250 Q174,245 162,238 Z" fill="#E6BE5A"/><path d="M198,238 Q248,246 256,264 Q250,280 228,276 Q190,272 158,268 Q154,258 168,252 Q186,246 198,238 Z" fill="#E6BE5A"/><path d="M146,64 Q180,48 216,66 Q234,84 226,104 Q214,118 196,124 Q188,134 180,135 Q172,133 165,124 Q146,118 135,102 Q128,82 146,64 Z" fill="#E6BE5A"/><circle cx="181" cy="77" r="8.5" fill="#D8403A" stroke-width="6"/><ellipse cx="156" cy="96" rx="8" ry="3.5" fill="#2d263c" stroke="none" transform="rotate(-10 156 96)"/><ellipse cx="204" cy="96" rx="8" ry="3.5" fill="#2d263c" stroke="none" transform="rotate(11 204 96)"/><path d="M145,85 L167,91" fill="none" stroke-width="6"/><path d="M216,84 L194,91" fill="none" stroke-width="6"/><path d="M152,116 Q126,108 106,120 Q124,138 150,134 Q144,168 152,208 Q162,250 180,260 Q198,252 208,210 Q216,170 210,134 Q236,138 254,120 Q234,108 208,116 Q194,126 180,126 Q166,126 152,116 Z" fill="#F8F3E7"/><path d="M173,113 L187,113 L180,123 Z" fill="#2d263c" stroke-width="6"/></g></svg>