<svg xmlns="http://www.w3.org/2000/svg" viewBox="0 0 360 360">
<g id="mega-burst"><circle cx="180" cy="180" r="172" fill="#fff3c0"/><polygon points="180,180 450.0,180.0 444.8,232.7" fill="#ffd96b"/><polygon points="180,180 429.4,283.3 404.5,330.0" fill="#ffb13d"/><polygon points="180,180 370.9,370.9 330.0,404.5" fill="#ffd96b"/><polygon points="180,180 283.3,429.4 232.7,444.8" fill="#ffb13d"/><polygon points="180,180 180.0,450.0 127.3,444.8" fill="#ffd96b"/><polygon points="180,180 76.7,429.4 30.0,404.5" fill="#ffb13d"/><polygon points="180,180 -10.9,370.9 -44.5,330.0" fill="#ffd96b"/><polygon points="180,180 -69.4,283.3 -84.8,232.7" fill="#ffb13d"/><polygon points="180,180 -90.0,180.0 -84.8,127.3" fill="#ffd96b"/><polygon points="180,180 -69.4,76.7 -44.5,30.0" fill="#ffb13d"/><polygon points="180,180 -10.9,-10.9 30.0,-44.5" fill="#ffd96b"/><polygon points="180,180 76.7,-69.4 127.3,-84.8" fill="#ffb13d"/><polygon points="180,180 180.0,-90.0 232.7,-84.8" fill="#ffd96b"/><polygon points="180,180 283.3,-69.4 330.0,-44.5" fill="#ffb13d"/><polygon points="180,180 370.9,-10.9 404.5,30.0" fill="#ffd96b"/><polygon points="180,180 429.4,76.7 444.8,127.3" fill="#ffb13d"/><circle cx="180" cy="180" r="120" fill="#fff3c0" opacity="0.55"/></g>
  <!-- Shadow/ground melt — bottom layer -->
  <ellipse cx="180" cy="320" rx="130" ry="28" fill="#2a1545" opacity="0.85"/>
  <ellipse cx="180" cy="318" rx="105" ry="20" fill="#1e0f35" opacity="0.7"/>

  <!-- Lower body melting into ground -->
  <path d="M100,265 C85,285 78,310 80,328 C90,335 130,338 180,338 C230,338 270,335 280,328 C282,310 275,285 260,265 C240,255 210,248 180,248 C150,248 120,255 100,265 Z" fill="#3d1f6b" stroke="#2d263c" stroke-width="6" stroke-linejoin="round"/>

  <!-- Body spikes — left side, back layer -->
  <polygon points="92,190 55,155 88,170" fill="#5a2080" stroke="#2d263c" stroke-width="6" stroke-linejoin="round"/>
  <polygon points="78,225 38,200 75,210" fill="#5a2080" stroke="#2d263c" stroke-width="6" stroke-linejoin="round"/>
  <polygon points="88,160 60,125 90,148" fill="#5a2080" stroke="#2d263c" stroke-width="6" stroke-linejoin="round"/>

  <!-- Body spikes — right side, back layer -->
  <polygon points="268,190 305,155 272,170" fill="#5a2080" stroke="#2d263c" stroke-width="6" stroke-linejoin="round"/>
  <polygon points="282,225 322,200 285,210" fill="#5a2080" stroke="#2d263c" stroke-width="6" stroke-linejoin="round"/>
  <polygon points="272,160 300,125 270,148" fill="#5a2080" stroke="#2d263c" stroke-width="6" stroke-linejoin="round"/>

  <!-- Back spikes (top center) -->
  <polygon points="180,58 165,20 195,55" fill="#5a2080" stroke="#2d263c" stroke-width="6" stroke-linejoin="round"/>
  <polygon points="148,68 128,30 155,65" fill="#5a2080" stroke="#2d263c" stroke-width="6" stroke-linejoin="round"/>
  <polygon points="212,68 232,30 205,65" fill="#5a2080" stroke="#2d263c" stroke-width="6" stroke-linejoin="round"/>

  <!-- Main body — large, crouching, frame-filling -->
  <path d="M95,270 C80,240 72,205 75,175 C78,140 95,110 118,92 C138,76 158,68 180,68 C202,68 222,76 242,92 C265,110 282,140 285,175 C288,205 280,240 265,270 C245,278 215,282 180,282 C145,282 115,278 95,270 Z" fill="#5c2d8c" stroke="#2d263c" stroke-width="8" stroke-linejoin="round"/>

  <!-- Belly / lighter underbelly -->
  <ellipse cx="180" cy="195" rx="62" ry="68" fill="#8a5bbf"/>
  <ellipse cx="180" cy="205" rx="50" ry="55" fill="#9b6fd4"/>

  <!-- Left arm — reaching down to ground, large clawed -->
  <path d="M105,185 C80,195 60,220 55,248 C52,260 58,268 68,265 C78,262 88,252 95,240 C100,230 105,218 108,205 Z" fill="#5c2d8c" stroke="#2d263c" stroke-width="7" stroke-linejoin="round"/>
  <!-- Left hand claws -->
  <path d="M55,248 C48,258 40,272 42,280" fill="none" stroke="#2d263c" stroke-width="6" stroke-linecap="round"/>
  <path d="M62,258 C56,270 52,282 55,290" fill="none" stroke="#2d263c" stroke-width="6" stroke-linecap="round"/>
  <path d="M70,264 C66,276 64,288 68,295" fill="none" stroke="#2d263c" stroke-width="6" stroke-linecap="round"/>
  <!-- Left hand base -->
  <ellipse cx="58" cy="266" rx="22" ry="14" fill="#5c2d8c" stroke="#2d263c" stroke-width="6"/>

  <!-- Right arm — reaching down to ground, large clawed -->
  <path d="M255,185 C280,195 300,220 305,248 C308,260 302,268 292,265 C282,262 272,252 265,240 C260,230 255,218 252,205 Z" fill="#5c2d8c" stroke="#2d263c" stroke-width="7" stroke-linejoin="round"/>
  <!-- Right hand claws -->
  <path d="M305,248 C312,258 320,272 318,280" fill="none" stroke="#2d263c" stroke-width="6" stroke-linecap="round"/>
  <path d="M298,258 C304,270 308,282 305,290" fill="none" stroke="#2d263c" stroke-width="6" stroke-linecap="round"/>
  <path d="M290,264 C294,276 296,288 292,295" fill="none" stroke="#2d263c" stroke-width="6" stroke-linecap="round"/>
  <!-- Right hand base -->
  <ellipse cx="302" cy="266" rx="22" ry="14" fill="#5c2d8c" stroke="#2d263c" stroke-width="6"/>

  <!-- Head — large, dominant -->
  <circle cx="180" cy="128" r="72" fill="#5c2d8c" stroke="#2d263c" stroke-width="8"/>

  <!-- Ear spikes on head -->
  <polygon points="128,80 108,42 142,72" fill="#5c2d8c" stroke="#2d263c" stroke-width="7" stroke-linejoin="round"/>
  <polygon points="232,80 252,42 218,72" fill="#5c2d8c" stroke="#2d263c" stroke-width="7" stroke-linejoin="round"/>

  <!-- Eyes — large red glowing eyes (Mega Gengar has red eyes) -->
  <ellipse cx="158" cy="122" rx="22" ry="18" fill="#cc1111"/>
  <ellipse cx="202" cy="122" rx="22" ry="18" fill="#cc1111"/>
  <!-- Eye shine -->
  <ellipse cx="152" cy="116" rx="7" ry="6" fill="#ff4444"/>
  <ellipse cx="196" cy="116" rx="7" ry="6" fill="#ff4444"/>
  <!-- Eye pupils -->
  <ellipse cx="160" cy="124" rx="9" ry="11" fill="#1a0020"/>
  <ellipse cx="204" cy="124" rx="9" ry="11" fill="#1a0020"/>

  <!-- Third eye — forehead, red and narrow/vertical (signature Mega feature) -->
  <ellipse cx="180" cy="96" rx="7" ry="14" fill="#dd0000" stroke="#2d263c" stroke-width="3"/>
  <ellipse cx="180" cy="96" rx="3" ry="9" fill="#ff2222"/>
  <ellipse cx="180" cy="93" rx="2" ry="3" fill="#ff8888"/>

  <!-- Wicked wide grin — asymmetric, showing lots of teeth -->
  <path d="M138,152 C148,168 163,176 180,177 C197,176 212,168 222,152" fill="#1a0028" stroke="#2d263c" stroke-width="6" stroke-linecap="round"/>
  <!-- Jagged teeth -->
  <polygon points="142,154 147,166 152,154" fill="white" stroke="#2d263c" stroke-width="2"/>
  <polygon points="152,158 157,172 162,158" fill="white" stroke="#2d263c" stroke-width="2"/>
  <polygon points="162,160 167,175 172,160" fill="white" stroke="#2d263c" stroke-width="2"/>
  <polygon points="172,161 177,177 182,161" fill="white" stroke="#2d263c" stroke-width="2"/>
  <polygon points="182,161 187,177 192,161" fill="white" stroke="#2d263c" stroke-width="2"/>
  <polygon points="192,160 197,175 202,160" fill="white" stroke="#2d263c" stroke-width="2"/>
  <polygon points="202,157 207,171 212,157" fill="white" stroke="#2d263c" stroke-width="2"/>
  <polygon points="212,154 216,165 220,154" fill="white" stroke="#2d263c" stroke-width="2"/>

  <!-- Cheek blobs / Gengar cheek circles -->
  <circle cx="130" cy="140" r="12" fill="#7a3daa" stroke="#2d263c" stroke-width="4"/>
  <circle cx="230" cy="140" r="12" fill="#7a3daa" stroke="#2d263c" stroke-width="4"/>

  <!-- Extra sharp back spikes on body sides for more menace -->
  <polygon points="95,195 62,175 90,185" fill="#4a1870" stroke="#2d263c" stroke-width="5" stroke-linejoin="round"/>
  <polygon points="265,195 298,175 270,185" fill="#4a1870" stroke="#2d263c" stroke-width="5" stroke-linejoin="round"/>

  <!-- Ghost wisps / energy from body -->
  <path d="M110,290 C100,305 95,318 98,328" fill="none" stroke="#7a3daa" stroke-width="4" stroke-linecap="round" opacity="0.7"/>
  <path d="M250,290 C260,305 265,318 262,328" fill="none" stroke="#7a3daa" stroke-width="4" stroke-linecap="round" opacity="0.7"/>
</svg>