<svg xmlns="http://www.w3.org/2000/svg" viewBox="0 0 360 360">
<g stroke="#2d263c" stroke-width="7" stroke-linejoin="round" stroke-linecap="round">
<path d="M248 252 C292 240 312 212 314 178" fill="none" stroke-width="9"/>
<path d="M300 196 L302 160 L332 178 Z" fill="#3b3340"/>
<path d="M158 102 C115 100 78 80 56 40 C70 88 102 114 144 122 Z" fill="#f2ead9"/>
<path d="M202 102 C245 100 284 78 302 44 C292 90 260 114 218 124 Z" fill="#f2ead9"/>
<path d="M134 120 q-24 8 -27 34 q15 4 28 -8 Z" fill="#3b3340"/>
<path d="M226 120 q24 8 27 34 q-15 4 -28 -8 Z" fill="#3b3340"/>
<path d="M110 262 q-15 36 -8 70 q15 5 28 1 q4 -30 -1 -54 Z" fill="#3b3340"/>
<path d="M258 262 q15 36 8 70 q-15 5 -28 1 q-4 -30 1 -54 Z" fill="#3b3340"/>
<path d="M110 331 l6 -10 6 10 Z" fill="#d8403c" stroke-width="4"/>
<path d="M246 331 l6 -10 6 10 Z" fill="#d8403c" stroke-width="4"/>
<ellipse cx="185" cy="255" rx="80" ry="53" fill="#3b3340"/>
<ellipse cx="185" cy="283" rx="46" ry="23" fill="#e87a3a"/>
<path d="M118 234 q67 -26 134 2 l-4 13 q-63 -24 -126 -2 Z" fill="#f2ead9"/>
<path d="M128 261 q57 -20 114 2 l-4 12 q-53 -18 -106 -1 Z" fill="#f2ead9"/>
<path d="M137 180 q44 22 86 0 l3 24 q-46 20 -92 0 Z" fill="#f2ead9"/>
<circle cx="181" cy="224" r="13" fill="#f2ead9"/>
<path d="M175 222 a3 3 0 1 0 .1 0 M187 222 a3 3 0 1 0 .1 0" fill="#2d263c" stroke="none"/>
<path d="M141 278 q-9 30 -4 56 q14 5 27 1 q5 -28 2 -52 Z" fill="#3b3340"/>
<path d="M214 278 q9 30 4 56 q-14 5 -27 1 q-5 -28 -2 -52 Z" fill="#3b3340"/>
<path d="M139 332 l6 -11 6 11 Z M152 333 l6 -11 6 11 Z" fill="#d8403c" stroke-width="4"/>
<path d="M196 333 l6 -11 6 11 Z M209 332 l6 -11 6 11 Z" fill="#d8403c" stroke-width="4"/>
<path d="M135 298 q15 6 31 1 l1 12 q-17 6 -33 0 Z" fill="#f2ead9" stroke-width="5"/>
<path d="M191 299 q15 6 31 -1 l1 13 q-17 6 -33 0 Z" fill="#f2ead9" stroke-width="5"/>
<ellipse cx="180" cy="138" rx="55" ry="47" fill="#3b3340"/>
<ellipse cx="157" cy="129" rx="10" ry="8" fill="#ffffff"/>
<ellipse cx="203" cy="128" rx="10" ry="8" fill="#ffffff"/>
<circle cx="159" cy="131" r="3.5" fill="#c5283d" stroke="none"/>
<circle cx="201" cy="130" r="3.5" fill="#c5283d" stroke="none"/>
<path d="M143 114 l25 8" fill="none" stroke-width="6"/>
<path d="M217 113 l-25 9" fill="none" stroke-width="6"/>
<path d="M148 153 Q180 144 212 154 Q216 180 181 188 Q144 180 148 153 Z" fill="#e87a3a"/>
<ellipse cx="180" cy="155" rx="7" ry="5" fill="#2d263c" stroke="none"/>
<path d="M161 170 q21 12 41 -2" fill="none" stroke-width="6"/>
<path d="M164 171 l5 10 6 -7 Z" fill="#ffffff" stroke-width="4"/>
<path d="M192 174 l5 7 5 -10 Z" fill="#ffffff" stroke-width="4"/>
</g>
</svg>