<svg xmlns="http://www.w3.org/2000/svg" viewBox="0 0 360 360">
<g id="mega-burst"><circle cx="180" cy="180" r="172" fill="#fff3c0"/><polygon points="180,180 450.0,180.0 444.8,232.7" fill="#ffd96b"/><polygon points="180,180 429.4,283.3 404.5,330.0" fill="#ffb13d"/><polygon points="180,180 370.9,370.9 330.0,404.5" fill="#ffd96b"/><polygon points="180,180 283.3,429.4 232.7,444.8" fill="#ffb13d"/><polygon points="180,180 180.0,450.0 127.3,444.8" fill="#ffd96b"/><polygon points="180,180 76.7,429.4 30.0,404.5" fill="#ffb13d"/><polygon points="180,180 -10.9,370.9 -44.5,330.0" fill="#ffd96b"/><polygon points="180,180 -69.4,283.3 -84.8,232.7" fill="#ffb13d"/><polygon points="180,180 -90.0,180.0 -84.8,127.3" fill="#ffd96b"/><polygon points="180,180 -69.4,76.7 -44.5,30.0" fill="#ffb13d"/><polygon points="180,180 -10.9,-10.9 30.0,-44.5" fill="#ffd96b"/><polygon points="180,180 76.7,-69.4 127.3,-84.8" fill="#ffb13d"/><polygon points="180,180 180.0,-90.0 232.7,-84.8" fill="#ffd96b"/><polygon points="180,180 283.3,-69.4 330.0,-44.5" fill="#ffb13d"/><polygon points="180,180 370.9,-10.9 404.5,30.0" fill="#ffd96b"/><polygon points="180,180 429.4,76.7 444.8,127.3" fill="#ffb13d"/><circle cx="180" cy="180" r="120" fill="#fff3c0" opacity="0.55"/></g>

  <!-- 影 -->
  <ellipse cx="180" cy="335" rx="115" ry="15" fill="#00000022"/>

  <!-- 胴体 後部節 (最後ろ) -->
  <ellipse cx="180" cy="300" rx="46" ry="28" fill="#801850" stroke="#2d263c" stroke-width="7" stroke-linejoin="round"/>

  <!-- 胴体 中部節 -->
  <ellipse cx="180" cy="256" rx="54" ry="32" fill="#901840" stroke="#2d263c" stroke-width="7" stroke-linejoin="round"/>

  <!-- 足 (中部節から左右) -->
  <line x1="126" y1="248" x2="92" y2="260" stroke="#601040" stroke-width="6" stroke-linecap="round"/>
  <line x1="126" y1="258" x2="90" y2="272" stroke="#601040" stroke-width="6" stroke-linecap="round"/>
  <line x1="234" y1="248" x2="268" y2="260" stroke="#601040" stroke-width="6" stroke-linecap="round"/>
  <line x1="234" y1="258" x2="270" y2="272" stroke="#601040" stroke-width="6" stroke-linecap="round"/>

  <!-- 胸節 (前部) -->
  <ellipse cx="180" cy="210" rx="62" ry="36" fill="#A02060" stroke="#2d263c" stroke-width="8" stroke-linejoin="round"/>

  <!-- 足 (胸節から左右) -->
  <line x1="118" y1="202" x2="80" y2="210" stroke="#601040" stroke-width="6" stroke-linecap="round"/>
  <line x1="118" y1="215" x2="78" y2="225" stroke="#601040" stroke-width="6" stroke-linecap="round"/>
  <line x1="118" y1="228" x2="82" y2="240" stroke="#601040" stroke-width="6" stroke-linecap="round"/>
  <line x1="242" y1="202" x2="280" y2="210" stroke="#601040" stroke-width="6" stroke-linecap="round"/>
  <line x1="242" y1="215" x2="282" y2="225" stroke="#601040" stroke-width="6" stroke-linecap="round"/>
  <line x1="242" y1="228" x2="278" y2="240" stroke="#601040" stroke-width="6" stroke-linecap="round"/>

  <!-- 頭 (大きな楕円) -->
  <ellipse cx="180" cy="148" rx="58" ry="52" fill="#A02060" stroke="#2d263c" stroke-width="8" stroke-linejoin="round"/>
  <!-- 頭の腹側(薄め) -->
  <ellipse cx="180" cy="162" rx="38" ry="30" fill="#D06080" stroke="none"/>

  <!-- ツノ 左 (大きく湾曲・二重ストローク) -->
  <path d="M148,115 Q78,88 46,145 Q30,182 55,212" fill="none" stroke="#2d263c" stroke-width="30" stroke-linecap="round" stroke-linejoin="round"/>
  <path d="M148,115 Q78,88 46,145 Q30,182 55,212" fill="none" stroke="#D04080" stroke-width="20" stroke-linecap="round" stroke-linejoin="round"/>

  <!-- ツノ 右 (大きく湾曲・二重ストローク) -->
  <path d="M212,115 Q282,88 314,145 Q330,182 305,212" fill="none" stroke="#2d263c" stroke-width="30" stroke-linecap="round" stroke-linejoin="round"/>
  <path d="M212,115 Q282,88 314,145 Q330,182 305,212" fill="none" stroke="#D04080" stroke-width="20" stroke-linecap="round" stroke-linejoin="round"/>

  <!-- ツノの先端 (鋭い) -->
  <ellipse cx="55" cy="212" rx="12" ry="10" fill="#601040" stroke="#2d263c" stroke-width="5" stroke-linejoin="round"/>
  <ellipse cx="305" cy="212" rx="12" ry="10" fill="#601040" stroke="#2d263c" stroke-width="5" stroke-linejoin="round"/>

  <!-- 目 左 (赤く鋭い) -->
  <ellipse cx="152" cy="138" rx="18" ry="12" fill="#FF2020" stroke="#2d263c" stroke-width="5" stroke-linejoin="round" stroke-linecap="round" transform="rotate(-10 152 138)"/>
  <ellipse cx="152" cy="138" rx="10" ry="7" fill="#880000"/>
  <ellipse cx="148" cy="135" rx="4" ry="3" fill="#FF6060" opacity="0.8"/>

  <!-- 目 右 (赤く鋭い) -->
  <ellipse cx="208" cy="138" rx="18" ry="12" fill="#FF2020" stroke="#2d263c" stroke-width="5" stroke-linejoin="round" stroke-linecap="round" transform="rotate(10 208 138)"/>
  <ellipse cx="208" cy="138" rx="10" ry="7" fill="#880000"/>
  <ellipse cx="212" cy="135" rx="4" ry="3" fill="#FF6060" opacity="0.8"/>

  <!-- 口 (鋭いV字) -->
  <polyline points="162,162 180,172 198,162" fill="none" stroke="#2d263c" stroke-width="5" stroke-linecap="round" stroke-linejoin="round"/>

  <!-- 頭の節の溝 -->
  <path d="M128,150 Q180,144 232,150" fill="none" stroke="#601040" stroke-width="4" stroke-linecap="round"/>

</svg>
