<svg xmlns="http://www.w3.org/2000/svg" viewBox="0 0 360 360">
  <g stroke="#2d263c" stroke-width="7" stroke-linejoin="round" stroke-linecap="round">
    <path d="M118 152 L90 100 L122 126 L114 82 L148 124 Z" fill="#8FAE43"/>
    <path d="M242 150 L274 94 L242 122 L252 78 L216 122 Z" fill="#8FAE43"/>
    <path d="M150 102 C130 72 118 42 130 24 C146 40 158 70 164 96 Z" fill="#A6C34F"/>
    <path d="M210 98 C220 64 236 36 252 26 C256 48 240 78 222 104 Z" fill="#A6C34F"/>
    <path d="M226 240 C280 230 318 252 330 282 L310 277 L322 304 L299 289 L302 314 L276 288 C258 272 240 266 226 264 Z" fill="#A6C34F"/>
    <path d="M132 150 C104 190 100 240 112 272 C124 296 150 304 180 304 C214 304 244 294 252 266 C262 232 254 188 228 150 Z" fill="#A6C34F"/>
    <path d="M164 158 L180 172 L198 156 Z" fill="#E03C4B"/>
    <path d="M180 172 L214 203 L180 233 L150 202 Z" fill="#5D6B91"/>
    <path d="M180 238 L208 263 L180 289 L154 262 Z" fill="#5D6B91"/>
    <path d="M134 210 q-5 14 3 26" fill="none" stroke="#E03C4B" stroke-width="6"/>
    <path d="M228 208 q7 14 -1 28" fill="none" stroke="#E03C4B" stroke-width="6"/>
    <path d="M128 188 C104 192 92 206 94 220 C108 227 126 218 134 206 Z" fill="#A6C34F"/>
    <path d="M236 186 C258 192 268 204 266 218 C252 226 234 216 228 204 Z" fill="#A6C34F"/>
    <path d="M96 214 L78 222 L98 229 Z" fill="#EFE9D8" stroke-width="4"/>
    <path d="M101 225 L88 238 L107 233 Z" fill="#EFE9D8" stroke-width="4"/>
    <path d="M264 212 L281 220 L262 227 Z" fill="#EFE9D8" stroke-width="4"/>
    <path d="M259 223 L272 236 L253 230 Z" fill="#EFE9D8" stroke-width="4"/>
    <path d="M138 296 C128 314 128 330 138 334 L172 334 C172 318 168 304 162 298 Z" fill="#A6C34F"/>
    <path d="M222 296 C230 312 232 330 224 334 L190 334 C190 318 194 304 200 298 Z" fill="#A6C34F"/>
    <path d="M136 332 L121 343 L141 344 Z" fill="#EFE9D8" stroke-width="4"/>
    <path d="M153 334 L147 347 L161 345 Z" fill="#EFE9D8" stroke-width="4"/>
    <path d="M225 332 L240 343 L221 344 Z" fill="#EFE9D8" stroke-width="4"/>
    <path d="M207 334 L213 347 L199 345 Z" fill="#EFE9D8" stroke-width="4"/>
    <path d="M134 124 L108 132 L136 146 Z" fill="#A6C34F"/>
    <path d="M226 122 L252 128 L226 141 Z" fill="#A6C34F"/>
    <path d="M180 76 C140 76 126 104 130 132 C134 152 156 162 180 162 C206 162 228 150 230 128 C233 100 218 76 180 76 Z" fill="#A6C34F"/>
    <path d="M173 92 L180 66 L188 92 Z" fill="#E03C4B" stroke-width="5"/>
    <circle cx="161" cy="122" r="8" fill="#E03C4B" stroke-width="4"/>
    <circle cx="199" cy="119" r="7" fill="#E03C4B" stroke-width="4"/>
    <circle cx="162" cy="122" r="2.5" fill="#2d263c" stroke="none"/>
    <circle cx="200" cy="119" r="2.5" fill="#2d263c" stroke="none"/>
    <path d="M146 107 L173 116" fill="none" stroke-width="6"/>
    <path d="M214 104 L190 114" fill="none" stroke-width="6"/>
    <path d="M146 140 L160 149 L172 142 L185 151 L198 142 L212 148" fill="none" stroke-width="6"/>
  </g>
</svg>