<svg xmlns="http://www.w3.org/2000/svg" viewBox="0 0 360 360"><path d="M256 272 C296 268 318 246 310 206 L292 204 C298 238 278 252 250 252 Z" fill="#A5D76E" stroke="#2d263c" stroke-width="7" stroke-linejoin="round" stroke-linecap="round"/><path d="M302 166 Q322 158 321 180 Q334 196 314 202 Q302 220 290 202 Q270 196 283 180 Q282 158 302 166 Z" fill="#F58FA8" stroke="#2d263c" stroke-width="6" stroke-linejoin="round"/><circle cx="302" cy="186" r="7" fill="#F6D04D" stroke="#2d263c" stroke-width="5"/><path d="M170 295 L166 330 Q178 337 189 330 L186 296 Z" fill="#8CC152" stroke="#2d263c" stroke-width="7" stroke-linejoin="round"/><path d="M256 290 L254 328 Q266 335 277 328 L274 292 Z" fill="#8CC152" stroke="#2d263c" stroke-width="7" stroke-linejoin="round"/><path d="M134 240 C110 205 102 165 107 110 L137 108 C133 160 142 198 166 232 Z" fill="#A5D76E" stroke="#2d263c" stroke-width="7" stroke-linejoin="round"/><ellipse cx="190" cy="245" rx="85" ry="60" fill="#A5D76E" stroke="#2d263c" stroke-width="8"/><ellipse cx="190" cy="268" rx="52" ry="26" fill="#F6F2CF" stroke="#2d263c" stroke-width="6"/><path d="M138 292 L132 332 Q145 340 157 332 L153 294 Z" fill="#A5D76E" stroke="#2d263c" stroke-width="7" stroke-linejoin="round"/><path d="M222 294 L218 333 Q231 341 243 333 L240 295 Z" fill="#A5D76E" stroke="#2d263c" stroke-width="7" stroke-linejoin="round"/><path d="M200 162 q14 7 7 20 q-9 9 -16 1 q-7 -13 9 -21 z" fill="#F58FA8" stroke="#2d263c" stroke-width="6" stroke-linejoin="round"/><path d="M240 182 q11 5 6 16 q-8 8 -14 1 q-5 -11 8 -17 z" fill="#F58FA8" stroke="#2d263c" stroke-width="6" stroke-linejoin="round"/><ellipse cx="122" cy="104" rx="16" ry="34" fill="#F58FA8" stroke="#2d263c" stroke-width="6" transform="rotate(-5 122 138)"/><ellipse cx="122" cy="104" rx="16" ry="34" fill="#F58FA8" stroke="#2d263c" stroke-width="6" transform="rotate(42 122 138)"/><ellipse cx="122" cy="104" rx="16" ry="34" fill="#F58FA8" stroke="#2d263c" stroke-width="6" transform="rotate(95 122 138)"/><ellipse cx="122" cy="104" rx="16" ry="34" fill="#F58FA8" stroke="#2d263c" stroke-width="6" transform="rotate(138 122 138)"/><ellipse cx="122" cy="104" rx="16" ry="34" fill="#F58FA8" stroke="#2d263c" stroke-width="6" transform="rotate(185 122 138)"/><ellipse cx="122" cy="104" rx="16" ry="34" fill="#F58FA8" stroke="#2d263c" stroke-width="6" transform="rotate(230 122 138)"/><ellipse cx="122" cy="104" rx="16" ry="34" fill="#F58FA8" stroke="#2d263c" stroke-width="6" transform="rotate(272 122 138)"/><ellipse cx="122" cy="104" rx="16" ry="34" fill="#F58FA8" stroke="#2d263c" stroke-width="6" transform="rotate(318 122 138)"/><ellipse cx="122" cy="117" rx="9" ry="21" fill="#FFF6EE" stroke="#2d263c" stroke-width="6" transform="rotate(22 122 138)"/><ellipse cx="122" cy="117" rx="9" ry="21" fill="#FFF6EE" stroke="#2d263c" stroke-width="6" transform="rotate(90 122 138)"/><ellipse cx="122" cy="117" rx="9" ry="21" fill="#FFF6EE" stroke="#2d263c" stroke-width="6" transform="rotate(160 122 138)"/><ellipse cx="122" cy="117" rx="9" ry="21" fill="#FFF6EE" stroke="#2d263c" stroke-width="6" transform="rotate(250 122 138)"/><ellipse cx="122" cy="117" rx="9" ry="21" fill="#FFF6EE" stroke="#2d263c" stroke-width="6" transform="rotate(310 122 138)"/><path d="M110 152 L109 108 L136 108 L134 152 Q122 158 110 152 Z" fill="#A5D76E" stroke="#2d263c" stroke-width="6" stroke-linejoin="round"/><path d="M106 68 C100 52 86 44 78 54 C74 60 80 66 86 62" fill="none" stroke="#2d263c" stroke-width="11" stroke-linecap="round"/><path d="M122 66 C126 46 142 40 150 52 C154 60 146 66 140 61" fill="none" stroke="#2d263c" stroke-width="11" stroke-linecap="round"/><path d="M80 98 Q78 86 92 78 Q98 64 116 64 Q134 64 138 80 Q142 96 134 104 Q120 112 100 108 Q84 108 80 98 Z" fill="#A5D76E" stroke="#2d263c" stroke-width="7" stroke-linejoin="round"/><path d="M106 68 C100 52 86 44 78 54 C74 60 80 66 86 62" fill="none" stroke="#F6D04D" stroke-width="5" stroke-linecap="round"/><path d="M122 66 C126 46 142 40 150 52 C154 60 146 66 140 61" fill="none" stroke="#F6D04D" stroke-width="5" stroke-linecap="round"/><ellipse cx="104" cy="87" rx="4" ry="5.5" fill="#2d263c"/><ellipse cx="127" cy="85" rx="4.5" ry="5" fill="#2d263c"/><circle cx="105.5" cy="85" r="1.6" fill="#ffffff"/><circle cx="128.5" cy="83" r="1.6" fill="#ffffff"/><circle cx="88" cy="93" r="2" fill="#2d263c"/><circle cx="96" cy="90" r="2" fill="#2d263c"/><path d="M92 98 Q110 110 130 99" fill="none" stroke="#2d263c" stroke-width="5" stroke-linecap="round"/></svg>