<svg xmlns="http://www.w3.org/2000/svg" viewBox="0 0 360 360">
  <path d="M152,152 C112,88 68,58 28,60 L44,84 L29,98 L52,122 L38,138 L64,148 L58,166 C92,174 124,168 152,152 Z" fill="#2F7E8F" stroke="#2d263c" stroke-width="7" stroke-linejoin="round" stroke-linecap="round"/>
  <path d="M150,148 C112,86 72,56 28,60 L36,76 C76,74 112,104 142,154 Z" fill="#F08030" stroke="#2d263c" stroke-width="6" stroke-linejoin="round" stroke-linecap="round"/>
  <path d="M208,152 C250,92 298,60 335,55 L320,82 L334,96 L310,120 L324,136 L296,146 L302,164 C268,172 235,168 208,152 Z" fill="#2F7E8F" stroke="#2d263c" stroke-width="7" stroke-linejoin="round" stroke-linecap="round"/>
  <path d="M205,148 C248,90 296,58 335,55 L328,72 C292,76 252,108 214,152 Z" fill="#F08030" stroke="#2d263c" stroke-width="6" stroke-linejoin="round" stroke-linecap="round"/>
  <path d="M198,236 C245,252 282,242 290,210 L310,206 C304,252 250,272 192,258 Z" fill="#F08030" stroke="#2d263c" stroke-width="7" stroke-linejoin="round" stroke-linecap="round"/>
  <path d="M302,205 C285,192 280,165 290,140 C292,156 300,158 301,146 C304,128 318,118 320,104 C330,126 332,152 326,172 C321,190 314,200 302,205 Z" fill="#F2542D" stroke="#2d263c" stroke-width="6" stroke-linejoin="round" stroke-linecap="round"/>
  <path d="M303,198 C294,188 292,170 298,152 C300,162 306,164 307,154 C309,142 316,138 318,130 C323,146 322,166 317,180 C313,190 309,194 303,198 Z" fill="#FFD23F" stroke="none"/>
  <path d="M193,96 C208,80 222,62 232,40 L242,62 C234,84 216,100 200,110 Z" fill="#F08030" stroke="#2d263c" stroke-width="6" stroke-linejoin="round" stroke-linecap="round"/>
  <path d="M183,80 L192,56 L198,82 Z" fill="#F08030" stroke="#2d263c" stroke-width="6" stroke-linejoin="round" stroke-linecap="round"/>
  <path d="M170,82 L177,62 L186,80 Z" fill="#F08030" stroke="#2d263c" stroke-width="6" stroke-linejoin="round" stroke-linecap="round"/>
  <path d="M168,146 C144,162 134,200 140,238 C146,268 166,282 188,280 C212,276 226,246 222,206 C219,178 208,158 196,146 C186,140 176,140 168,146 Z" fill="#F08030" stroke="#2d263c" stroke-width="7" stroke-linejoin="round" stroke-linecap="round"/>
  <path d="M148,262 C136,272 132,290 138,302 L170,302 C172,288 168,272 160,262 Z" fill="#F08030" stroke="#2d263c" stroke-width="7" stroke-linejoin="round" stroke-linecap="round"/>
  <path d="M140,300 L146,312 L151,300 L156,312 L161,300 Z" fill="#ffffff" stroke="#2d263c" stroke-width="4" stroke-linejoin="round" stroke-linecap="round"/>
  <path d="M198,262 C192,274 192,292 198,302 L228,300 C232,286 226,268 214,260 Z" fill="#F08030" stroke="#2d263c" stroke-width="7" stroke-linejoin="round" stroke-linecap="round"/>
  <path d="M200,301 L206,313 L211,300 L216,312 L221,299 Z" fill="#ffffff" stroke="#2d263c" stroke-width="4" stroke-linejoin="round" stroke-linecap="round"/>
  <path d="M162,178 C150,202 150,238 160,262 C174,276 196,274 206,258 C214,236 212,204 202,182 C188,170 172,168 162,178 Z" fill="#F5D7A1" stroke="#2d263c" stroke-width="6" stroke-linejoin="round" stroke-linecap="round"/>
  <path d="M158,210 C172,216 192,216 206,210 M158,234 C172,240 192,240 206,234" fill="none" stroke="#2d263c" stroke-width="5" stroke-linejoin="round" stroke-linecap="round"/>
  <path d="M126,206 L96,196 L108,210 L92,214 L110,222 Z" fill="#F08030" stroke="#2d263c" stroke-width="5" stroke-linejoin="round" stroke-linecap="round"/>
  <path d="M158,186 C140,190 126,202 124,220 L133,217 L131,228 L140,223 L141,233 L150,224 C156,212 160,198 158,186 Z" fill="#F08030" stroke="#2d263c" stroke-width="6" stroke-linejoin="round" stroke-linecap="round"/>
  <path d="M239,208 L268,198 L256,212 L272,216 L254,224 Z" fill="#F08030" stroke="#2d263c" stroke-width="5" stroke-linejoin="round" stroke-linecap="round"/>
  <path d="M210,186 C228,192 240,204 241,222 L232,218 L234,230 L225,224 L224,234 L216,225 C210,212 207,198 210,186 Z" fill="#F08030" stroke="#2d263c" stroke-width="6" stroke-linejoin="round" stroke-linecap="round"/>
  <path d="M198,148 C207,128 207,104 197,90 C188,77 172,72 158,77 C142,82 128,90 120,99 C126,106 138,110 148,110 C146,120 150,134 160,146 C172,156 188,156 198,148 Z" fill="#F08030" stroke="#2d263c" stroke-width="7" stroke-linejoin="round" stroke-linecap="round"/>
  <path d="M120,99 C132,106 146,109 156,107" fill="none" stroke="#2d263c" stroke-width="6" stroke-linecap="round"/>
  <path d="M132,107 L136,117 L141,106 Z" fill="#ffffff" stroke="#2d263c" stroke-width="4" stroke-linejoin="round"/>
  <circle cx="127" cy="93" r="2.5" fill="#2d263c"/>
  <ellipse cx="166" cy="98" rx="7" ry="9" fill="#ffffff" stroke="#2d263c" stroke-width="5"/>
  <circle cx="164" cy="100" r="3" fill="#2d263c"/>
  <path d="M154,86 L176,92" fill="none" stroke="#2d263c" stroke-width="6" stroke-linecap="round"/>
</svg>