<svg xmlns="http://www.w3.org/2000/svg" viewBox="0 0 360 360">
  <!-- 左翼(後ろ) -->
  <polygon points="30,60 10,30 50,10 90,40 120,20 140,55 110,80 70,90 40,100" fill="#1C2B50" stroke="#2d263c" stroke-width="7" stroke-linejoin="round"/>
  <!-- 右翼(後ろ) -->
  <polygon points="330,60 350,30 310,10 270,40 240,20 220,55 250,80 290,90 320,100" fill="#1C2B50" stroke="#2d263c" stroke-width="7" stroke-linejoin="round"/>
  <!-- しっぽ -->
  <path d="M205,290 Q230,320 220,345 Q210,360 200,350 Q185,340 190,310 Q195,295 205,290Z" fill="#FF6B35" stroke="#2d263c" stroke-width="6" stroke-linejoin="round"/>
  <!-- 炎(しっぽ先端) -->
  <ellipse cx="205" cy="355" rx="14" ry="18" fill="#7ECFFF" stroke="#2d263c" stroke-width="5"/>
  <ellipse cx="205" cy="350" rx="8" ry="12" fill="#FFFFFF" stroke="none"/>
  <!-- 胴体 -->
  <ellipse cx="180" cy="220" rx="65" ry="85" fill="#FF6B35" stroke="#2d263c" stroke-width="8" stroke-linejoin="round"/>
  <!-- 腹 -->
  <ellipse cx="178" cy="235" rx="40" ry="58" fill="#FFD580" stroke="#2d263c" stroke-width="5"/>
  <!-- 腹の縞模様 -->
  <path d="M158,220 Q178,215 198,220" fill="none" stroke="#E8B840" stroke-width="3" stroke-linecap="round"/>
  <path d="M155,238 Q178,232 201,238" fill="none" stroke="#E8B840" stroke-width="3" stroke-linecap="round"/>
  <path d="M158,256 Q178,250 198,256" fill="none" stroke="#E8B840" stroke-width="3" stroke-linecap="round"/>
  <!-- 左腕 -->
  <path d="M120,200 Q90,210 75,240 Q80,255 90,250 Q100,245 115,225 Q125,210 130,205Z" fill="#FF6B35" stroke="#2d263c" stroke-width="7" stroke-linejoin="round"/>
  <!-- 左手の爪 -->
  <path d="M78,248 Q65,258 60,270" fill="none" stroke="#2d263c" stroke-width="6" stroke-linecap="round"/>
  <path d="M86,252 Q76,265 74,278" fill="none" stroke="#2d263c" stroke-width="6" stroke-linecap="round"/>
  <path d="M93,252 Q88,267 88,280" fill="none" stroke="#2d263c" stroke-width="6" stroke-linecap="round"/>
  <!-- 右腕 -->
  <path d="M240,200 Q270,210 285,240 Q280,255 270,250 Q260,245 245,225 Q235,210 230,205Z" fill="#FF6B35" stroke="#2d263c" stroke-width="7" stroke-linejoin="round"/>
  <!-- 右手の爪 -->
  <path d="M282,248 Q295,258 300,270" fill="none" stroke="#2d263c" stroke-width="6" stroke-linecap="round"/>
  <path d="M274,252 Q284,265 286,278" fill="none" stroke="#2d263c" stroke-width="6" stroke-linecap="round"/>
  <path d="M267,252 Q272,267 272,280" fill="none" stroke="#2d263c" stroke-width="6" stroke-linecap="round"/>
  <!-- 左足 -->
  <path d="M148,295 Q135,315 132,335 Q138,345 148,340 Q158,335 162,315 Q164,300 158,293Z" fill="#FF6B35" stroke="#2d263c" stroke-width="7" stroke-linejoin="round"/>
  <!-- 左足爪 -->
  <path d="M130,340 Q118,352 115,362" fill="none" stroke="#2d263c" stroke-width="6" stroke-linecap="round"/>
  <path d="M143,345 Q138,356 136,366" fill="none" stroke="#2d263c" stroke-width="6" stroke-linecap="round"/>
  <!-- 右足 -->
  <path d="M212,295 Q225,315 228,335 Q222,345 212,340 Q202,335 198,315 Q196,300 202,293Z" fill="#FF6B35" stroke="#2d263c" stroke-width="7" stroke-linejoin="round"/>
  <!-- 右足爪 -->
  <path d="M230,340 Q242,352 245,362" fill="none" stroke="#2d263c" stroke-width="6" stroke-linecap="round"/>
  <path d="M217,345 Q222,356 224,366" fill="none" stroke="#2d263c" stroke-width="6" stroke-linecap="round"/>
  <!-- 首 -->
  <rect x="158" y="148" width="44" height="42" rx="10" fill="#FF6B35" stroke="#2d263c" stroke-width="7"/>
  <!-- 頭 -->
  <ellipse cx="180" cy="130" rx="55" ry="52" fill="#FF6B35" stroke="#2d263c" stroke-width="8"/>
  <!-- 頭の角(Y字型・左) -->
  <path d="M150,95 Q130,70 118,50" fill="none" stroke="#2d263c" stroke-width="9" stroke-linecap="round"/>
  <path d="M118,50 Q108,35 100,42" fill="none" stroke="#2d263c" stroke-width="8" stroke-linecap="round"/>
  <!-- 頭の角(Y字型・右) -->
  <path d="M210,95 Q230,70 242,50" fill="none" stroke="#2d263c" stroke-width="9" stroke-linecap="round"/>
  <path d="M242,50 Q252,35 260,42" fill="none" stroke="#2d263c" stroke-width="8" stroke-linecap="round"/>
  <!-- 顎の突起 -->
  <path d="M165,168 Q180,178 195,168 Q188,188 180,190 Q172,188 165,168Z" fill="#FF6B35" stroke="#2d263c" stroke-width="6" stroke-linejoin="round"/>
  <!-- 目(左) -->
  <ellipse cx="158" cy="125" rx="14" ry="12" fill="#FFE033" stroke="#2d263c" stroke-width="5"/>
  <ellipse cx="160" cy="126" rx="7" ry="8" fill="#2d263c"/>
  <ellipse cx="158" cy="123" rx="3" ry="3" fill="white"/>
  <!-- 目(右) -->
  <ellipse cx="202" cy="125" rx="14" ry="12" fill="#FFE033" stroke="#2d263c" stroke-width="5"/>
  <ellipse cx="200" cy="126" rx="7" ry="8" fill="#2d263c"/>
  <ellipse cx="202" cy="123" rx="3" ry="3" fill="white"/>
  <!-- 眉(吊り上がり・左) -->
  <path d="M145,110 Q158,103 168,108" fill="none" stroke="#2d263c" stroke-width="6" stroke-linecap="round"/>
  <!-- 眉(吊り上がり・右) -->
  <path d="M192,108 Q202,103 215,110" fill="none" stroke="#2d263c" stroke-width="6" stroke-linecap="round"/>
  <!-- 鼻孔 -->
  <ellipse cx="172" cy="143" rx="5" ry="4" fill="#CC4A1A"/>
  <ellipse cx="188" cy="143" rx="5" ry="4" fill="#CC4A1A"/>
  <!-- 口(ニヤッと) -->
  <path d="M162,155 Q180,165 198,155" fill="none" stroke="#2d263c" stroke-width="5" stroke-linecap="round"/>
  <!-- 背中のヒレ(背びれ) -->
  <path d="M175,148 Q165,128 158,110 Q163,115 170,118 Q172,100 168,85 Q175,95 178,105 Q180,90 180,75 Q182,90 182,105 Q185,95 192,85 Q188,100 190,118 Q197,115 202,110 Q195,128 185,148Z" fill="#FF9E5C" stroke="#2d263c" stroke-width="5" stroke-linejoin="round"/>
</svg>