<svg xmlns="http://www.w3.org/2000/svg" viewBox="0 0 360 360">
<path d="M180 175 Q120 240 145 290 Q180 320 215 290 Q240 240 180 175 Z" fill="#b8c0cc" stroke="#2d263c" stroke-width="8" stroke-linejoin="round"/>
<path d="M165 230 Q175 250 190 240" stroke="#e6ebf2" stroke-width="6" fill="none" stroke-linecap="round"/>
<ellipse cx="180" cy="310" rx="40" ry="14" fill="#a8b0bc" stroke="#2d263c" stroke-width="7"/>
<path d="M178 150 h 4 a 8 8 0 0 1 8 8 v 24 a 8 8 0 0 1 -8 8 h -4 a 8 8 0 0 1 -8 -8 v -24 a 8 8 0 0 1 8 -8 z" fill="#b8c0cc" stroke="#2d263c" stroke-width="7"/>
<path d="M180 70 L230 100 L230 150 L180 180 L130 150 L130 100 Z" fill="#c8d0dc" stroke="#2d263c" stroke-width="8" stroke-linejoin="round"/>
<circle cx="180" cy="125" r="30" fill="#2d263c"/>
<circle cx="180" cy="125" r="16" fill="#fff"/>
<circle cx="183" cy="128" r="9" fill="#2d263c"/>
<circle cx="180" cy="122" r="3" fill="#fff"/>
<path d="M158 312 L158 320 M180 314 L180 322 M202 312 L202 320" stroke="#2d263c" stroke-width="6" fill="none" stroke-linecap="round"/>
</svg>