<svg xmlns="http://www.w3.org/2000/svg" viewBox="0 0 360 360">
<g id="mega-burst"><circle cx="180" cy="180" r="172" fill="#fff3c0"/><polygon points="180,180 450.0,180.0 444.8,232.7" fill="#ffd96b"/><polygon points="180,180 429.4,283.3 404.5,330.0" fill="#ffb13d"/><polygon points="180,180 370.9,370.9 330.0,404.5" fill="#ffd96b"/><polygon points="180,180 283.3,429.4 232.7,444.8" fill="#ffb13d"/><polygon points="180,180 180.0,450.0 127.3,444.8" fill="#ffd96b"/><polygon points="180,180 76.7,429.4 30.0,404.5" fill="#ffb13d"/><polygon points="180,180 -10.9,370.9 -44.5,330.0" fill="#ffd96b"/><polygon points="180,180 -69.4,283.3 -84.8,232.7" fill="#ffb13d"/><polygon points="180,180 -90.0,180.0 -84.8,127.3" fill="#ffd96b"/><polygon points="180,180 -69.4,76.7 -44.5,30.0" fill="#ffb13d"/><polygon points="180,180 -10.9,-10.9 30.0,-44.5" fill="#ffd96b"/><polygon points="180,180 76.7,-69.4 127.3,-84.8" fill="#ffb13d"/><polygon points="180,180 180.0,-90.0 232.7,-84.8" fill="#ffd96b"/><polygon points="180,180 283.3,-69.4 330.0,-44.5" fill="#ffb13d"/><polygon points="180,180 370.9,-10.9 404.5,30.0" fill="#ffd96b"/><polygon points="180,180 429.4,76.7 444.8,127.3" fill="#ffb13d"/><circle cx="180" cy="180" r="120" fill="#fff3c0" opacity="0.55"/></g>
  <!-- 翼(後ろ) -->
  <path d="M95,175 Q55,130 40,95 Q60,100 75,115 Q65,80 80,55 Q95,85 98,120 Q108,110 115,145 Z" fill="#7a2040" stroke="#2d263c" stroke-width="7" stroke-linejoin="round" stroke-linecap="round"/>
  <path d="M265,175 Q305,130 320,95 Q300,100 285,115 Q295,80 280,55 Q265,85 262,120 Q252,110 245,145 Z" fill="#7a2040" stroke="#2d263c" stroke-width="7" stroke-linejoin="round" stroke-linecap="round"/>

  <!-- 翼の膜筋 -->
  <line x1="95" y1="175" x2="40" y2="95" stroke="#9a2850" stroke-width="3" stroke-linecap="round"/>
  <line x1="95" y1="175" x2="80" y2="55" stroke="#9a2850" stroke-width="3" stroke-linecap="round"/>
  <line x1="265" y1="175" x2="320" y2="95" stroke="#9a2850" stroke-width="3" stroke-linecap="round"/>
  <line x1="265" y1="175" x2="280" y2="55" stroke="#9a2850" stroke-width="3" stroke-linecap="round"/>

  <!-- 胴体(袋型) -->
  <ellipse cx="180" cy="210" rx="78" ry="95" fill="#2a2238" stroke="#2d263c" stroke-width="8" stroke-linejoin="round"/>

  <!-- 腹の縫い目ライン -->
  <path d="M180,138 Q183,155 180,175 Q177,195 180,215 Q183,235 180,255 Q177,270 180,285" fill="none" stroke="#4a3a5e" stroke-width="3" stroke-dasharray="8,5" stroke-linecap="round"/>

  <!-- 腹の明るめカラー帯 -->
  <ellipse cx="180" cy="215" rx="48" ry="65" fill="#332848" stroke="none"/>

  <!-- しっぽ -->
  <path d="M155,295 Q140,315 130,330 Q140,325 148,320 Q145,332 152,338 Q158,328 162,315 Q172,300 178,295" fill="#2a2238" stroke="#2d263c" stroke-width="7" stroke-linejoin="round" stroke-linecap="round"/>
  <!-- しっぽ先のジッパー口 -->
  <ellipse cx="139" cy="331" rx="9" ry="6" fill="#f5c518" stroke="#2d263c" stroke-width="4" transform="rotate(-20,139,331)"/>
  <line x1="133" y1="329" x2="145" y2="333" stroke="#2d263c" stroke-width="2"/>

  <!-- 左腕 -->
  <path d="M112,195 Q88,205 78,222 Q88,230 100,225 Q96,238 108,238 Q116,225 118,208 Z" fill="#2a2238" stroke="#2d263c" stroke-width="7" stroke-linejoin="round" stroke-linecap="round"/>
  <!-- 右腕 -->
  <path d="M248,195 Q272,205 282,222 Q272,230 260,225 Q264,238 252,238 Q244,225 242,208 Z" fill="#2a2238" stroke="#2d263c" stroke-width="7" stroke-linejoin="round" stroke-linecap="round"/>

  <!-- 頭部 -->
  <ellipse cx="180" cy="142" rx="72" ry="65" fill="#2a2238" stroke="#2d263c" stroke-width="8" stroke-linejoin="round"/>

  <!-- 耳状突起(左右) -->
  <path d="M118,115 Q105,90 112,72 Q122,82 128,100 Z" fill="#2a2238" stroke="#2d263c" stroke-width="7" stroke-linejoin="round"/>
  <path d="M242,115 Q255,90 248,72 Q238,82 232,100 Z" fill="#2a2238" stroke="#2d263c" stroke-width="7" stroke-linejoin="round"/>

  <!-- メガ進化X角(頭頂) -->
  <!-- X左斜め -->
  <path d="M162,68 L198,35" stroke="#c0a000" stroke-width="9" stroke-linecap="round"/>
  <path d="M162,35 L198,68" stroke="#c0a000" stroke-width="9" stroke-linecap="round"/>
  <!-- X太め -->
  <path d="M163,70 L199,37" stroke="#f5c518" stroke-width="5" stroke-linecap="round"/>
  <path d="M163,37 L199,70" stroke="#f5c518" stroke-width="5" stroke-linecap="round"/>

  <!-- ジッパーピン(頭) -->
  <circle cx="180" cy="82" r="7" fill="#f5c518" stroke="#2d263c" stroke-width="4"/>

  <!-- 目(左) つり上がり黄色 -->
  <ellipse cx="152" cy="138" rx="16" ry="12" fill="#f5c518" stroke="#2d263c" stroke-width="5"/>
  <ellipse cx="155" cy="137" rx="7" ry="7" fill="#1a1228" stroke="none"/>
  <ellipse cx="157" cy="135" rx="3" ry="3" fill="white" stroke="none"/>
  <!-- 目(右) -->
  <ellipse cx="208" cy="138" rx="16" ry="12" fill="#f5c518" stroke="#2d263c" stroke-width="5"/>
  <ellipse cx="210" cy="137" rx="7" ry="7" fill="#1a1228" stroke="none"/>
  <ellipse cx="212" cy="135" rx="3" ry="3" fill="white" stroke="none"/>
  <!-- 眉毛風つり上がり線 -->
  <path d="M138,125 Q153,118 168,122" fill="none" stroke="#2d263c" stroke-width="5" stroke-linecap="round"/>
  <path d="M192,122 Q207,118 222,125" fill="none" stroke="#2d263c" stroke-width="5" stroke-linecap="round"/>

  <!-- 口(ジッパー大きな裂け口) -->
  <path d="M138,165 Q158,158 180,162 Q202,158 222,165 Q210,185 180,188 Q150,185 138,165 Z" fill="#1a0a0e" stroke="#2d263c" stroke-width="6" stroke-linejoin="round"/>
  <!-- ジッパー歯(上) -->
  <path d="M145,165 L150,172 M157,162 L160,170 M168,160 L170,168 M180,160 L180,168 M192,160 L190,168 M203,162 L200,170 M213,165 L208,172" stroke="#f5c518" stroke-width="3.5" stroke-linecap="round"/>

  <!-- ジッパーピン(口横) -->
  <circle cx="136" cy="164" r="6" fill="#f5c518" stroke="#2d263c" stroke-width="3.5"/>

  <!-- 体のピン飾り -->
  <circle cx="153" cy="225" r="5" fill="#f5c518" stroke="#2d263c" stroke-width="3"/>
  <circle cx="207" cy="225" r="5" fill="#f5c518" stroke="#2d263c" stroke-width="3"/>
  <circle cx="180" cy="260" r="5" fill="#f5c518" stroke="#2d263c" stroke-width="3"/>
</svg>