<svg xmlns="http://www.w3.org/2000/svg" viewBox="0 0 360 360">
  <!-- 花びら(首輪)後ろ側 -->
  <ellipse cx="180" cy="210" rx="52" ry="22" fill="#e8559a" stroke="#2d263c" stroke-width="6" stroke-linejoin="round" transform="rotate(-55 180 210)"/>
  <ellipse cx="180" cy="210" rx="52" ry="22" fill="#e8559a" stroke="#2d263c" stroke-width="6" stroke-linejoin="round" transform="rotate(-15 180 210)"/>
  <ellipse cx="180" cy="210" rx="52" ry="22" fill="#f070b0" stroke="#2d263c" stroke-width="6" stroke-linejoin="round" transform="rotate(25 180 210)"/>

  <!-- 胴体 -->
  <ellipse cx="182" cy="248" rx="75" ry="58" fill="#78c850" stroke="#2d263c" stroke-width="8" stroke-linejoin="round"/>

  <!-- 腹 -->
  <ellipse cx="183" cy="258" rx="45" ry="35" fill="#c8e890" stroke="#2d263c" stroke-width="5" stroke-linejoin="round"/>

  <!-- 花びら前側3枚 -->
  <ellipse cx="180" cy="210" rx="52" ry="22" fill="#f070b0" stroke="#2d263c" stroke-width="6" stroke-linejoin="round" transform="rotate(65 180 210)"/>
  <ellipse cx="180" cy="210" rx="52" ry="22" fill="#e8559a" stroke="#2d263c" stroke-width="6" stroke-linejoin="round" transform="rotate(105 180 210)"/>
  <ellipse cx="180" cy="210" rx="52" ry="22" fill="#f070b0" stroke="#2d263c" stroke-width="6" stroke-linejoin="round" transform="rotate(145 180 210)"/>

  <!-- 花びら中央(黄色) -->
  <circle cx="180" cy="210" r="16" fill="#f8e030" stroke="#2d263c" stroke-width="6"/>

  <!-- 首 -->
  <path d="M155 215 Q148 185 160 162 Q170 148 183 145 Q196 142 205 158 Q215 175 210 210" fill="#78c850" stroke="#2d263c" stroke-width="7" stroke-linejoin="round" stroke-linecap="round"/>

  <!-- 頭 -->
  <ellipse cx="183" cy="128" rx="44" ry="38" fill="#78c850" stroke="#2d263c" stroke-width="8" stroke-linejoin="round"/>

  <!-- 顔下部(口元) -->
  <path d="M158 138 Q168 155 183 157 Q198 155 208 138" fill="#a0d870" stroke="#2d263c" stroke-width="5" stroke-linejoin="round"/>

  <!-- 目(左) -->
  <ellipse cx="168" cy="120" rx="11" ry="13" fill="white" stroke="#2d263c" stroke-width="5"/>
  <ellipse cx="170" cy="122" rx="7" ry="8" fill="#2d263c"/>
  <circle cx="172" cy="119" r="3" fill="white"/>

  <!-- 目(右) -->
  <ellipse cx="200" cy="118" rx="11" ry="13" fill="white" stroke="#2d263c" stroke-width="5"/>
  <ellipse cx="202" cy="120" rx="7" ry="8" fill="#2d263c"/>
  <circle cx="204" cy="117" r="3" fill="white"/>

  <!-- 鼻孔 -->
  <ellipse cx="178" cy="140" rx="4" ry="3" fill="#2d263c"/>
  <ellipse cx="190" cy="139" rx="4" ry="3" fill="#2d263c"/>

  <!-- にっこり口 -->
  <path d="M170 149 Q183 162 196 149" fill="none" stroke="#2d263c" stroke-width="5" stroke-linecap="round"/>

  <!-- 額アンテナ左(花芽) -->
  <path d="M170 93 Q163 72 166 58" fill="none" stroke="#2d263c" stroke-width="6" stroke-linecap="round"/>
  <ellipse cx="166" cy="53" rx="8" ry="11" fill="#f8e030" stroke="#2d263c" stroke-width="5" stroke-linejoin="round"/>

  <!-- 額アンテナ右(花芽) -->
  <path d="M196 91 Q202 70 200 56" fill="none" stroke="#2d263c" stroke-width="6" stroke-linecap="round"/>
  <ellipse cx="201" cy="51" rx="8" ry="11" fill="#f8e030" stroke="#2d263c" stroke-width="5" stroke-linejoin="round"/>

  <!-- 前左足 -->
  <path d="M145 278 Q132 295 130 315 Q128 325 138 324 Q148 323 150 313 Q155 296 158 280" fill="#78c850" stroke="#2d263c" stroke-width="7" stroke-linejoin="round" stroke-linecap="round"/>

  <!-- 前右足 -->
  <path d="M218 276 Q228 293 232 313 Q234 323 224 324 Q214 325 212 314 Q208 297 204 278" fill="#78c850" stroke="#2d263c" stroke-width="7" stroke-linejoin="round" stroke-linecap="round"/>

  <!-- 後左足 -->
  <path d="M150 295 Q140 308 136 328 Q134 337 145 336 Q155 335 157 325 Q162 310 165 295" fill="#68b840" stroke="#2d263c" stroke-width="7" stroke-linejoin="round" stroke-linecap="round"/>

  <!-- 後右足 -->
  <path d="M215 293 Q226 306 230 326 Q232 335 221 336 Q210 337 208 327 Q205 311 200 294" fill="#68b840" stroke="#2d263c" stroke-width="7" stroke-linejoin="round" stroke-linecap="round"/>

  <!-- しっぽ(葉っぱ型) -->
  <path d="M252 252 Q278 238 300 230 Q318 224 315 240 Q312 256 295 258 Q274 262 252 260 Z" fill="#5ab030" stroke="#2d263c" stroke-width="6" stroke-linejoin="round"/>
  <path d="M253 256 Q280 248 308 238" fill="none" stroke="#2d263c" stroke-width="3" stroke-linecap="round"/>

  <!-- ほっぺピンク -->
  <ellipse cx="155" cy="133" rx="10" ry="7" fill="#f8a0c0" opacity="0.7"/>
  <ellipse cx="211" cy="131" rx="10" ry="7" fill="#f8a0c0" opacity="0.7"/>
</svg>