<svg xmlns="http://www.w3.org/2000/svg" viewBox="0 0 360 360">
<g id="mega-burst"><circle cx="180" cy="180" r="172" fill="#fff3c0"/><polygon points="180,180 450.0,180.0 444.8,232.7" fill="#ffd96b"/><polygon points="180,180 429.4,283.3 404.5,330.0" fill="#ffb13d"/><polygon points="180,180 370.9,370.9 330.0,404.5" fill="#ffd96b"/><polygon points="180,180 283.3,429.4 232.7,444.8" fill="#ffb13d"/><polygon points="180,180 180.0,450.0 127.3,444.8" fill="#ffd96b"/><polygon points="180,180 76.7,429.4 30.0,404.5" fill="#ffb13d"/><polygon points="180,180 -10.9,370.9 -44.5,330.0" fill="#ffd96b"/><polygon points="180,180 -69.4,283.3 -84.8,232.7" fill="#ffb13d"/><polygon points="180,180 -90.0,180.0 -84.8,127.3" fill="#ffd96b"/><polygon points="180,180 -69.4,76.7 -44.5,30.0" fill="#ffb13d"/><polygon points="180,180 -10.9,-10.9 30.0,-44.5" fill="#ffd96b"/><polygon points="180,180 76.7,-69.4 127.3,-84.8" fill="#ffb13d"/><polygon points="180,180 180.0,-90.0 232.7,-84.8" fill="#ffd96b"/><polygon points="180,180 283.3,-69.4 330.0,-44.5" fill="#ffb13d"/><polygon points="180,180 370.9,-10.9 404.5,30.0" fill="#ffd96b"/><polygon points="180,180 429.4,76.7 444.8,127.3" fill="#ffb13d"/><circle cx="180" cy="180" r="120" fill="#fff3c0" opacity="0.55"/></g>
  <!-- 左翼(後ろ) -->
  <path d="M60 155 Q30 120 20 80 Q35 90 50 115 Q40 75 55 50 Q65 80 60 110 Q80 70 100 60 Q95 95 75 120 Q100 105 120 100 Q110 130 80 145 Z" fill="#1e3a7a" stroke="#2d263c" stroke-width="7" stroke-linejoin="round" stroke-linecap="round"/>
  <!-- 右翼(後ろ) -->
  <path d="M300 155 Q330 120 340 80 Q325 90 310 115 Q320 75 305 50 Q295 80 300 110 Q280 70 260 60 Q265 95 285 120 Q260 105 240 100 Q250 130 280 145 Z" fill="#1e3a7a" stroke="#2d263c" stroke-width="7" stroke-linejoin="round" stroke-linecap="round"/>
  <!-- しっぽ -->
  <path d="M180 295 Q170 315 155 330 Q172 318 175 335 Q180 320 185 335 Q188 318 205 330 Q190 315 180 295 Z" fill="#c0392b" stroke="#2d263c" stroke-width="6" stroke-linejoin="round" stroke-linecap="round"/>
  <path d="M175 270 Q172 295 180 310 Q188 295 185 270 Z" fill="#2b4a8c" stroke="#2d263c" stroke-width="6" stroke-linejoin="round"/>
  <!-- 胴体 -->
  <ellipse cx="180" cy="210" rx="55" ry="85" fill="#2b4a8c" stroke="#2d263c" stroke-width="8" stroke-linejoin="round"/>
  <!-- 腹 -->
  <ellipse cx="180" cy="218" rx="32" ry="60" fill="#e8d89a" stroke="#2d263c" stroke-width="5" stroke-linejoin="round"/>
  <!-- 左腕(前) - 鎌型翼 -->
  <path d="M130 190 Q90 165 65 140 Q75 155 68 175 Q85 162 95 180 Q80 185 82 210 Q100 195 110 215 Q120 200 130 210 Z" fill="#2b4a8c" stroke="#2d263c" stroke-width="7" stroke-linejoin="round" stroke-linecap="round"/>
  <!-- 右腕(前) - 鎌型翼 -->
  <path d="M230 190 Q270 165 295 140 Q285 155 292 175 Q275 162 265 180 Q280 185 278 210 Q260 195 250 215 Q240 200 230 210 Z" fill="#2b4a8c" stroke="#2d263c" stroke-width="7" stroke-linejoin="round" stroke-linecap="round"/>
  <!-- 左足 -->
  <path d="M155 280 Q145 300 140 318 Q148 310 150 322 Q156 308 158 320 Q162 305 165 295 Z" fill="#2b4a8c" stroke="#2d263c" stroke-width="6" stroke-linejoin="round"/>
  <!-- 右足 -->
  <path d="M205 280 Q215 300 220 318 Q212 310 210 322 Q204 308 202 320 Q198 305 195 295 Z" fill="#2b4a8c" stroke="#2d263c" stroke-width="6" stroke-linejoin="round"/>
  <!-- 首 -->
  <ellipse cx="180" cy="148" rx="30" ry="28" fill="#2b4a8c" stroke="#2d263c" stroke-width="7"/>
  <!-- 頭 -->
  <ellipse cx="180" cy="112" rx="42" ry="38" fill="#2b4a8c" stroke="#2d263c" stroke-width="8"/>
  <!-- 鼻先 -->
  <path d="M160 118 Q155 130 158 142 Q168 136 180 138 Q192 136 202 142 Q205 130 200 118 Q190 122 180 122 Q170 122 160 118 Z" fill="#2b4a8c" stroke="#2d263c" stroke-width="6" stroke-linejoin="round"/>
  <!-- 角 左 -->
  <path d="M160 95 Q148 72 142 52 Q152 65 158 85 Q162 60 170 45 Q172 68 166 88 Z" fill="#c0392b" stroke="#2d263c" stroke-width="6" stroke-linejoin="round"/>
  <!-- 角 右 -->
  <path d="M200 95 Q212 72 218 52 Q208 65 202 85 Q198 60 190 45 Q188 68 194 88 Z" fill="#c0392b" stroke="#2d263c" stroke-width="6" stroke-linejoin="round"/>
  <!-- 目 左 -->
  <ellipse cx="163" cy="108" rx="9" ry="7" fill="#f5f5dc" stroke="#2d263c" stroke-width="4"/>
  <ellipse cx="164" cy="109" rx="5" ry="5" fill="#c0392b"/>
  <ellipse cx="163" cy="107" rx="2" ry="2" fill="#1a0a0a"/>
  <!-- 目 右 -->
  <ellipse cx="197" cy="108" rx="9" ry="7" fill="#f5f5dc" stroke="#2d263c" stroke-width="4"/>
  <ellipse cx="196" cy="109" rx="5" ry="5" fill="#c0392b"/>
  <ellipse cx="197" cy="107" rx="2" ry="2" fill="#1a0a0a"/>
  <!-- 眉(鋭く) 左 -->
  <path d="M155 100 Q162 97 170 99" fill="none" stroke="#2d263c" stroke-width="5" stroke-linecap="round"/>
  <!-- 眉(鋭く) 右 -->
  <path d="M190 99 Q198 97 205 100" fill="none" stroke="#2d263c" stroke-width="5" stroke-linecap="round"/>
  <!-- 口/牙 -->
  <path d="M168 128 Q180 134 192 128" fill="none" stroke="#2d263c" stroke-width="4" stroke-linecap="round"/>
  <path d="M172 128 L170 137" fill="none" stroke="#e8d89a" stroke-width="4" stroke-linecap="round"/>
  <path d="M188 128 L190 137" fill="none" stroke="#e8d89a" stroke-width="4" stroke-linecap="round"/>
  <!-- ほっぺ赤み 左 -->
  <ellipse cx="148" cy="118" rx="9" ry="6" fill="#e84040" opacity="0.45"/>
  <!-- ほっぺ赤み 右 -->
  <ellipse cx="212" cy="118" rx="9" ry="6" fill="#e84040" opacity="0.45"/>
  <!-- 背中の突起 -->
  <path d="M175 148 Q172 130 175 115" fill="none" stroke="#c0392b" stroke-width="6" stroke-linecap="round"/>
  <path d="M185 148 Q188 130 185 115" fill="none" stroke="#c0392b" stroke-width="6" stroke-linecap="round"/>
</svg>