<svg xmlns="http://www.w3.org/2000/svg" viewBox="0 0 360 360">
<g id="mega-burst"><circle cx="180" cy="180" r="172" fill="#fff3c0"/><polygon points="180,180 450.0,180.0 444.8,232.7" fill="#ffd96b"/><polygon points="180,180 429.4,283.3 404.5,330.0" fill="#ffb13d"/><polygon points="180,180 370.9,370.9 330.0,404.5" fill="#ffd96b"/><polygon points="180,180 283.3,429.4 232.7,444.8" fill="#ffb13d"/><polygon points="180,180 180.0,450.0 127.3,444.8" fill="#ffd96b"/><polygon points="180,180 76.7,429.4 30.0,404.5" fill="#ffb13d"/><polygon points="180,180 -10.9,370.9 -44.5,330.0" fill="#ffd96b"/><polygon points="180,180 -69.4,283.3 -84.8,232.7" fill="#ffb13d"/><polygon points="180,180 -90.0,180.0 -84.8,127.3" fill="#ffd96b"/><polygon points="180,180 -69.4,76.7 -44.5,30.0" fill="#ffb13d"/><polygon points="180,180 -10.9,-10.9 30.0,-44.5" fill="#ffd96b"/><polygon points="180,180 76.7,-69.4 127.3,-84.8" fill="#ffb13d"/><polygon points="180,180 180.0,-90.0 232.7,-84.8" fill="#ffd96b"/><polygon points="180,180 283.3,-69.4 330.0,-44.5" fill="#ffb13d"/><polygon points="180,180 370.9,-10.9 404.5,30.0" fill="#ffd96b"/><polygon points="180,180 429.4,76.7 444.8,127.3" fill="#ffb13d"/><circle cx="180" cy="180" r="120" fill="#fff3c0" opacity="0.55"/></g>

  <!-- 影 -->
  <ellipse cx="180" cy="322" rx="72" ry="16" fill="#00000022"/>

  <!-- 雷のしっぽ(大) -->
  <path d="M245,240 L278,185 L258,183 L288,130 L262,138 L292,82 L258,105 L272,65 L232,125 L252,124 L220,180 L242,178 Z" fill="#B89010" stroke="#2d263c" stroke-width="6" stroke-linejoin="round" stroke-linecap="round"/>

  <!-- 体 -->
  <ellipse cx="172" cy="230" rx="78" ry="75" fill="#F8D030" stroke="#2d263c" stroke-width="8" stroke-linejoin="round"/>

  <!-- お腹(薄黄) -->
  <ellipse cx="172" cy="248" rx="50" ry="48" fill="#F5E888" stroke="#2d263c" stroke-width="5" stroke-linejoin="round"/>

  <!-- 茶色の背中模様 -->
  <ellipse cx="120" cy="208" rx="20" ry="30" fill="#C07818" stroke="#2d263c" stroke-width="5" stroke-linejoin="round"/>
  <ellipse cx="224" cy="208" rx="20" ry="30" fill="#C07818" stroke="#2d263c" stroke-width="5" stroke-linejoin="round"/>

  <!-- 腕(左) -->
  <path d="M108,228 Q82,218 74,245 Q72,268 100,270 Q118,268 122,248" fill="#F8D030" stroke="#2d263c" stroke-width="7" stroke-linejoin="round" stroke-linecap="round"/>

  <!-- 腕(右) -->
  <path d="M238,228 Q264,218 272,245 Q274,268 246,270 Q228,268 224,248" fill="#F8D030" stroke="#2d263c" stroke-width="7" stroke-linejoin="round" stroke-linecap="round"/>

  <!-- 足(左) -->
  <ellipse cx="148" cy="300" rx="24" ry="14" fill="#F8D030" stroke="#2d263c" stroke-width="6" stroke-linejoin="round"/>
  <path d="M132,295 Q122,308 120,318 M148,298 Q144,310 143,320 M163,295 Q168,308 170,318" stroke="#C07818" stroke-width="5" stroke-linecap="round" fill="none"/>

  <!-- 足(右) -->
  <ellipse cx="200" cy="300" rx="24" ry="14" fill="#F8D030" stroke="#2d263c" stroke-width="6" stroke-linejoin="round"/>
  <path d="M184,295 Q174,308 172,318 M200,298 Q196,310 195,320 M215,295 Q220,308 222,318" stroke="#C07818" stroke-width="5" stroke-linecap="round" fill="none"/>

  <!-- 頭 -->
  <ellipse cx="178" cy="148" rx="60" ry="58" fill="#F8D030" stroke="#2d263c" stroke-width="8" stroke-linejoin="round"/>

  <!-- 耳(左) -->
  <path d="M128,108 Q112,52 126,28 Q142,55 148,100" fill="#2d263c" stroke="#2d263c" stroke-width="6" stroke-linejoin="round"/>
  <path d="M130,105 Q116,58 128,38 Q140,60 145,98" fill="#5A3098" stroke="none"/>

  <!-- 耳(右) -->
  <path d="M228,108 Q244,52 230,28 Q214,55 212,100" fill="#2d263c" stroke="#2d263c" stroke-width="6" stroke-linejoin="round"/>
  <path d="M226,105 Q240,58 228,38 Q216,60 214,98" fill="#5A3098" stroke="none"/>

  <!-- ほっぺ(でんき) 左 -->
  <ellipse cx="132" cy="162" rx="16" ry="13" fill="#FF8800" stroke="#2d263c" stroke-width="4"/>

  <!-- ほっぺ(でんき) 右 -->
  <ellipse cx="224" cy="162" rx="16" ry="13" fill="#FF8800" stroke="#2d263c" stroke-width="4"/>

  <!-- 茶色の目周り -->
  <ellipse cx="158" cy="145" rx="20" ry="18" fill="#C07818" stroke="#2d263c" stroke-width="4"/>
  <ellipse cx="198" cy="145" rx="20" ry="18" fill="#C07818" stroke="#2d263c" stroke-width="4"/>

  <!-- 目(左) -->
  <ellipse cx="158" cy="143" rx="11" ry="13" fill="white" stroke="#2d263c" stroke-width="5"/>
  <circle cx="160" cy="142" r="7" fill="#1a1a1a"/>
  <circle cx="163" cy="139" r="3" fill="white"/>

  <!-- 目(右) -->
  <ellipse cx="198" cy="143" rx="11" ry="13" fill="white" stroke="#2d263c" stroke-width="5"/>
  <circle cx="200" cy="142" r="7" fill="#1a1a1a"/>
  <circle cx="203" cy="139" r="3" fill="white"/>

  <!-- 口 -->
  <path d="M165,165 Q178,176 192,165" fill="none" stroke="#2d263c" stroke-width="5" stroke-linecap="round"/>

  <!-- メガ額の電気クリスタル -->
  <polygon points="172,92 178,68 184,92" fill="#FFE840" stroke="#2d263c" stroke-width="4" stroke-linejoin="round"/>
  <polygon points="163,88 168,66 174,88" fill="#FFE840" stroke="#2d263c" stroke-width="3" stroke-linejoin="round"/>
  <polygon points="183,88 188,66 193,88" fill="#FFE840" stroke="#2d263c" stroke-width="3" stroke-linejoin="round"/>

  <!-- 電気ビリビリ -->
  <path d="M80,220 L68,208 L82,204 L70,192" stroke="#FFE030" stroke-width="4" stroke-linecap="round" fill="none"/>

</svg>
