<svg xmlns="http://www.w3.org/2000/svg" viewBox="0 0 360 360">
<g id="mega-burst"><circle cx="180" cy="180" r="172" fill="#fff3c0"/><polygon points="180,180 450.0,180.0 444.8,232.7" fill="#ffd96b"/><polygon points="180,180 429.4,283.3 404.5,330.0" fill="#ffb13d"/><polygon points="180,180 370.9,370.9 330.0,404.5" fill="#ffd96b"/><polygon points="180,180 283.3,429.4 232.7,444.8" fill="#ffb13d"/><polygon points="180,180 180.0,450.0 127.3,444.8" fill="#ffd96b"/><polygon points="180,180 76.7,429.4 30.0,404.5" fill="#ffb13d"/><polygon points="180,180 -10.9,370.9 -44.5,330.0" fill="#ffd96b"/><polygon points="180,180 -69.4,283.3 -84.8,232.7" fill="#ffb13d"/><polygon points="180,180 -90.0,180.0 -84.8,127.3" fill="#ffd96b"/><polygon points="180,180 -69.4,76.7 -44.5,30.0" fill="#ffb13d"/><polygon points="180,180 -10.9,-10.9 30.0,-44.5" fill="#ffd96b"/><polygon points="180,180 76.7,-69.4 127.3,-84.8" fill="#ffb13d"/><polygon points="180,180 180.0,-90.0 232.7,-84.8" fill="#ffd96b"/><polygon points="180,180 283.3,-69.4 330.0,-44.5" fill="#ffb13d"/><polygon points="180,180 370.9,-10.9 404.5,30.0" fill="#ffd96b"/><polygon points="180,180 429.4,76.7 444.8,127.3" fill="#ffb13d"/><circle cx="180" cy="180" r="120" fill="#fff3c0" opacity="0.55"/></g>
  <!-- 後ろ足(後方) -->
  <ellipse cx="215" cy="305" rx="20" ry="30" fill="#e8c86e" stroke="#2d263c" stroke-width="7" stroke-linejoin="round"/>
  <ellipse cx="240" cy="318" rx="22" ry="10" fill="#d4a840" stroke="#2d263c" stroke-width="5" stroke-linejoin="round"/>

  <!-- しっぽ -->
  <path d="M235 270 Q268 258 275 272 Q270 285 255 280 Z" fill="#e8c86e" stroke="#2d263c" stroke-width="6" stroke-linejoin="round" stroke-linecap="round"/>
  <ellipse cx="266" cy="272" rx="6" ry="9" fill="#cf7b2e" stroke="#2d263c" stroke-width="4"/>

  <!-- 体 -->
  <ellipse cx="185" cy="268" rx="72" ry="55" fill="#b5da6e" stroke="#2d263c" stroke-width="8" stroke-linejoin="round"/>

  <!-- 腹 -->
  <ellipse cx="175" cy="278" rx="42" ry="38" fill="#f0f0c0" stroke="#2d263c" stroke-width="4" stroke-linejoin="round"/>

  <!-- 体の模様(橙色斑点) -->
  <ellipse cx="160" cy="255" rx="13" ry="10" fill="#e07b30" stroke="#2d263c" stroke-width="3"/>
  <ellipse cx="210" cy="248" rx="10" ry="13" fill="#e07b30" stroke="#2d263c" stroke-width="3"/>
  <ellipse cx="223" cy="275" rx="9" ry="8" fill="#e07b30" stroke="#2d263c" stroke-width="3"/>
  <ellipse cx="142" cy="278" rx="8" ry="10" fill="#e07b30" stroke="#2d263c" stroke-width="3"/>

  <!-- 前足(左) -->
  <rect x="128" y="295" width="25" height="38" rx="10" fill="#b5da6e" stroke="#2d263c" stroke-width="7" stroke-linejoin="round"/>
  <ellipse cx="140" cy="333" rx="16" ry="9" fill="#d4a840" stroke="#2d263c" stroke-width="5"/>

  <!-- 前足(右) -->
  <rect x="195" y="298" width="25" height="36" rx="10" fill="#b5da6e" stroke="#2d263c" stroke-width="7" stroke-linejoin="round"/>
  <ellipse cx="207" cy="334" rx="16" ry="9" fill="#d4a840" stroke="#2d263c" stroke-width="5"/>

  <!-- 背中の岩結晶突起(メガ進化) -->
  <polygon points="155,222 143,190 135,230" fill="#7a7090" stroke="#2d263c" stroke-width="6" stroke-linejoin="round"/>
  <polygon points="175,210 168,172 158,215" fill="#9080aa" stroke="#2d263c" stroke-width="6" stroke-linejoin="round"/>
  <polygon points="200,205 196,165 186,208" fill="#7a7090" stroke="#2d263c" stroke-width="6" stroke-linejoin="round"/>
  <polygon points="218,215 217,185 205,218" fill="#8868a0" stroke="#2d263c" stroke-width="5" stroke-linejoin="round"/>

  <!-- 首 -->
  <path d="M155 240 Q148 195 152 160 Q168 140 184 158 Q188 190 188 235" fill="#b5da6e" stroke="#2d263c" stroke-width="8" stroke-linejoin="round"/>

  <!-- 首の模様 -->
  <ellipse cx="162" cy="200" rx="8" ry="6" fill="#e07b30" stroke="#2d263c" stroke-width="3" transform="rotate(-15 162 200)"/>
  <ellipse cx="178" cy="185" rx="7" ry="5" fill="#e07b30" stroke="#2d263c" stroke-width="3" transform="rotate(10 178 185)"/>

  <!-- 頭 -->
  <ellipse cx="170" cy="138" rx="38" ry="30" fill="#b5da6e" stroke="#2d263c" stroke-width="8" stroke-linejoin="round"/>

  <!-- メガ進化の巨大岩角(右・大) -->
  <polygon points="192,118 220,75 210,115" fill="#7a7090" stroke="#2d263c" stroke-width="7" stroke-linejoin="round"/>
  <polygon points="205,112 240,88 228,120" fill="#6060a0" stroke="#2d263c" stroke-width="6" stroke-linejoin="round"/>

  <!-- メガ進化の岩角(左・中) -->
  <polygon points="148,115 118,78 138,118" fill="#9080aa" stroke="#2d263c" stroke-width="7" stroke-linejoin="round"/>
  <polygon points="135,112 108,95 128,118" fill="#7a7090" stroke="#2d263c" stroke-width="5" stroke-linejoin="round"/>

  <!-- 角の飾り(上中央のとんがり) -->
  <polygon points="170,110 163,80 178,110" fill="#8060b8" stroke="#2d263c" stroke-width="6" stroke-linejoin="round"/>

  <!-- 耳(小さな突起) -->
  <polygon points="148,120 140,103 158,118" fill="#d4c050" stroke="#2d263c" stroke-width="5" stroke-linejoin="round"/>
  <polygon points="192,118 200,102 186,116" fill="#d4c050" stroke="#2d263c" stroke-width="5" stroke-linejoin="round"/>

  <!-- 目(左・少しずれた味のある配置) -->
  <ellipse cx="153" cy="134" rx="12" ry="13" fill="white" stroke="#2d263c" stroke-width="5"/>
  <ellipse cx="155" cy="135" rx="7" ry="8" fill="#2d263c"/>
  <ellipse cx="153" cy="133" rx="3" ry="3" fill="white"/>

  <!-- 目(右・少し大きめ) -->
  <ellipse cx="184" cy="132" rx="13" ry="12" fill="white" stroke="#2d263c" stroke-width="5"/>
  <ellipse cx="186" cy="133" rx="8" ry="7" fill="#2d263c"/>
  <ellipse cx="184" cy="131" rx="3" ry="3" fill="white"/>

  <!-- ほっぺ(ピンク) -->
  <ellipse cx="145" cy="144" rx="10" ry="7" fill="#f59cbc" stroke="none" opacity="0.7"/>
  <ellipse cx="196" cy="142" rx="10" ry="7" fill="#f59cbc" stroke="none" opacity="0.7"/>

  <!-- 鼻 -->
  <ellipse cx="168" cy="150" rx="7" ry="4" fill="#d4a840" stroke="#2d263c" stroke-width="4"/>
  <ellipse cx="164" cy="150" rx="2" ry="2" fill="#2d263c"/>
  <ellipse cx="172" cy="150" rx="2" ry="2" fill="#2d263c"/>

  <!-- 口(ゆるい笑顔) -->
  <path d="M157 158 Q168 166 180 157" fill="none" stroke="#2d263c" stroke-width="5" stroke-linecap="round"/>

  <!-- 後ろ足(前方・見える分) -->
  <rect x="157" y="300" width="22" height="35" rx="9" fill="#b5da6e" stroke="#2d263c" stroke-width="7" stroke-linejoin="round"/>
  <ellipse cx="168" cy="335" rx="15" ry="8" fill="#d4a840" stroke="#2d263c" stroke-width="5"/>
</svg>