<svg xmlns="http://www.w3.org/2000/svg" viewBox="0 0 360 360">
  <path d="M150 100 C182 36 252 38 292 76 C330 114 334 196 296 246 C303 212 288 198 270 202 C288 168 278 138 250 130 C236 110 196 94 166 98 Z" fill="#F6D34F" stroke="#2d263c" stroke-width="7" stroke-linejoin="round" stroke-linecap="round"/>
  <path d="M176 88 C222 60 268 84 284 128 C296 162 288 202 268 228 C276 192 266 172 252 168 C264 144 252 120 228 114 C212 102 192 94 176 88 Z" fill="#E8503E" stroke="#2d263c" stroke-width="6" stroke-linejoin="round" stroke-linecap="round"/>
  <path d="M140 82 C124 54 134 30 160 22 C148 42 150 60 160 76 Z" fill="#E8503E" stroke="#2d263c" stroke-width="6" stroke-linejoin="round" stroke-linecap="round"/>
  <path d="M198 244 C238 258 264 284 274 310 C250 306 220 290 200 270 Z" fill="#E8503E" stroke="#2d263c" stroke-width="6" stroke-linejoin="round" stroke-linecap="round"/>
  <path d="M184 254 C208 278 220 304 222 328 C202 314 186 290 178 266 Z" fill="#F6D34F" stroke="#2d263c" stroke-width="6" stroke-linejoin="round" stroke-linecap="round"/>
  <path d="M126 182 C92 150 58 144 32 158 C46 164 52 170 56 178 C42 178 32 184 27 194 C42 195 51 200 55 208 C46 212 42 220 42 230 C72 236 112 226 132 206 Z" fill="#A8794A" stroke="#2d263c" stroke-width="7" stroke-linejoin="round" stroke-linecap="round"/>
  <path d="M204 182 C246 166 280 180 290 210 C278 214 272 220 270 228 C258 224 250 226 244 232 C240 226 230 226 222 230 C212 234 202 230 198 222 Z" fill="#A8794A" stroke="#2d263c" stroke-width="7" stroke-linejoin="round" stroke-linecap="round"/>
  <path d="M120 165 C95 185 88 230 105 262 C125 290 185 295 212 270 C232 250 235 205 215 178 C190 152 145 148 120 165 Z" fill="#A8794A" stroke="#2d263c" stroke-width="7" stroke-linejoin="round" stroke-linecap="round"/>
  <path d="M130 214 C124 244 140 270 168 274 C194 277 210 254 207 230 C194 214 150 204 130 214 Z" fill="#F4E7C3" stroke="#2d263c" stroke-width="6" stroke-linejoin="round"/>
  <path d="M146 286 L142 312" fill="none" stroke="#2d263c" stroke-width="7" stroke-linecap="round"/>
  <path d="M182 286 L186 312" fill="none" stroke="#2d263c" stroke-width="7" stroke-linecap="round"/>
  <path d="M128 312 C126 326 136 332 142 324 C146 332 156 330 156 320 L154 308 Z" fill="#E9A8A2" stroke="#2d263c" stroke-width="6" stroke-linejoin="round"/>
  <path d="M172 310 C170 324 180 332 186 324 C190 332 200 328 198 318 L194 306 Z" fill="#E9A8A2" stroke="#2d263c" stroke-width="6" stroke-linejoin="round"/>
  <path d="M106 112 C106 80 130 62 152 64 C180 66 196 88 192 116 C188 144 160 158 134 152 C114 147 106 132 106 112 Z" fill="#A8794A" stroke="#2d263c" stroke-width="7" stroke-linejoin="round"/>
  <path d="M118 120 C122 102 140 96 156 100 C176 105 186 118 182 132 C172 148 138 150 124 138 Z" fill="#F4E7C3" stroke="#2d263c" stroke-width="6" stroke-linejoin="round"/>
  <path d="M116 108 L132 104 L128 118 Z" fill="#2d263c" stroke="#2d263c" stroke-width="4" stroke-linejoin="round"/>
  <path d="M186 110 L172 106 L176 120 Z" fill="#2d263c" stroke="#2d263c" stroke-width="4" stroke-linejoin="round"/>
  <circle cx="138" cy="116" r="8" fill="#D8413C" stroke="#2d263c" stroke-width="5"/>
  <circle cx="168" cy="118" r="8" fill="#D8413C" stroke="#2d263c" stroke-width="5"/>
  <circle cx="136" cy="113" r="2.5" fill="#ffffff"/>
  <circle cx="166" cy="115" r="2.5" fill="#ffffff"/>
  <path d="M144 132 C150 127 158 127 164 132 C162 146 156 154 152 156 C148 150 144 142 144 132 Z" fill="#E9A8A2" stroke="#2d263c" stroke-width="6" stroke-linejoin="round"/>
</svg>