<svg xmlns="http://www.w3.org/2000/svg" viewBox="0 0 360 360">
<g id="mega-burst"><circle cx="180" cy="180" r="172" fill="#fff3c0"/><polygon points="180,180 450.0,180.0 444.8,232.7" fill="#ffd96b"/><polygon points="180,180 429.4,283.3 404.5,330.0" fill="#ffb13d"/><polygon points="180,180 370.9,370.9 330.0,404.5" fill="#ffd96b"/><polygon points="180,180 283.3,429.4 232.7,444.8" fill="#ffb13d"/><polygon points="180,180 180.0,450.0 127.3,444.8" fill="#ffd96b"/><polygon points="180,180 76.7,429.4 30.0,404.5" fill="#ffb13d"/><polygon points="180,180 -10.9,370.9 -44.5,330.0" fill="#ffd96b"/><polygon points="180,180 -69.4,283.3 -84.8,232.7" fill="#ffb13d"/><polygon points="180,180 -90.0,180.0 -84.8,127.3" fill="#ffd96b"/><polygon points="180,180 -69.4,76.7 -44.5,30.0" fill="#ffb13d"/><polygon points="180,180 -10.9,-10.9 30.0,-44.5" fill="#ffd96b"/><polygon points="180,180 76.7,-69.4 127.3,-84.8" fill="#ffb13d"/><polygon points="180,180 180.0,-90.0 232.7,-84.8" fill="#ffd96b"/><polygon points="180,180 283.3,-69.4 330.0,-44.5" fill="#ffb13d"/><polygon points="180,180 370.9,-10.9 404.5,30.0" fill="#ffd96b"/><polygon points="180,180 429.4,76.7 444.8,127.3" fill="#ffb13d"/><circle cx="180" cy="180" r="120" fill="#fff3c0" opacity="0.55"/></g>
  <!-- 左翼(後ろ) -->
  <polygon points="60,210 20,110 55,85 90,120 110,170 95,200" fill="#3a2e50" stroke="#2d263c" stroke-width="7" stroke-linejoin="round"/>
  <!-- 左翼 膜 -->
  <polygon points="60,210 20,110 55,85 45,135 80,160 95,200" fill="#4f3d6e" stroke="none"/>

  <!-- 右翼(後ろ) -->
  <polygon points="300,210 340,110 305,85 270,120 250,170 265,200" fill="#3a2e50" stroke="#2d263c" stroke-width="7" stroke-linejoin="round"/>
  <!-- 右翼 膜 -->
  <polygon points="300,210 340,110 305,85 315,135 280,160 265,200" fill="#4f3d6e" stroke="none"/>

  <!-- しっぽ -->
  <polygon points="155,285 180,340 205,285 195,270 165,270" fill="#3a2e50" stroke="#2d263c" stroke-width="7" stroke-linejoin="round"/>

  <!-- 胴体 -->
  <ellipse cx="180" cy="230" rx="72" ry="65" fill="#5c4a7a" stroke="#2d263c" stroke-width="8" stroke-linejoin="round"/>

  <!-- 腹部 -->
  <ellipse cx="180" cy="245" rx="42" ry="42" fill="#9b8fb5" stroke="#2d263c" stroke-width="5"/>

  <!-- 腹のライン -->
  <line x1="175" y1="215" x2="170" y2="275" stroke="#7a6e94" stroke-width="3"/>
  <line x1="185" y1="213" x2="190" y2="273" stroke="#7a6e94" stroke-width="3"/>

  <!-- 左足 -->
  <path d="M155,285 Q140,300 128,315 Q122,325 132,327 Q140,329 148,318 Q155,305 160,295" fill="#4a3d60" stroke="#2d263c" stroke-width="6" stroke-linejoin="round" stroke-linecap="round"/>
  <!-- 左爪 -->
  <path d="M128,315 L115,325" stroke="#2d263c" stroke-width="5" stroke-linecap="round"/>
  <path d="M132,327 L120,335" stroke="#2d263c" stroke-width="5" stroke-linecap="round"/>
  <path d="M148,318 L140,330" stroke="#2d263c" stroke-width="5" stroke-linecap="round"/>

  <!-- 右足 -->
  <path d="M205,285 Q220,300 232,315 Q238,325 228,327 Q220,329 212,318 Q205,305 200,295" fill="#4a3d60" stroke="#2d263c" stroke-width="6" stroke-linejoin="round" stroke-linecap="round"/>
  <!-- 右爪 -->
  <path d="M232,315 L245,325" stroke="#2d263c" stroke-width="5" stroke-linecap="round"/>
  <path d="M228,327 L240,335" stroke="#2d263c" stroke-width="5" stroke-linecap="round"/>
  <path d="M212,318 L220,330" stroke="#2d263c" stroke-width="5" stroke-linecap="round"/>

  <!-- 背中の岩トゲ(メガ進化の特徴) -->
  <polygon points="160,178 150,145 170,158" fill="#2d263c" stroke="#2d263c" stroke-width="4" stroke-linejoin="round"/>
  <polygon points="178,172 172,135 190,155" fill="#2d263c" stroke="#2d263c" stroke-width="4" stroke-linejoin="round"/>
  <polygon points="198,176 195,140 210,162" fill="#2d263c" stroke="#2d263c" stroke-width="4" stroke-linejoin="round"/>

  <!-- 首 -->
  <rect x="160" y="150" width="40" height="35" rx="8" fill="#5c4a7a" stroke="#2d263c" stroke-width="7"/>

  <!-- 頭部 -->
  <ellipse cx="180" cy="130" rx="50" ry="38" fill="#5c4a7a" stroke="#2d263c" stroke-width="8"/>

  <!-- 頭のトゲ(メガ進化・頭頂部岩トゲ) -->
  <polygon points="145,110 130,70 158,100" fill="#3a2e50" stroke="#2d263c" stroke-width="6" stroke-linejoin="round"/>
  <polygon points="180,95 175,52 198,90" fill="#3a2e50" stroke="#2d263c" stroke-width="6" stroke-linejoin="round"/>
  <polygon points="212,108 220,68 228,105" fill="#3a2e50" stroke="#2d263c" stroke-width="6" stroke-linejoin="round"/>

  <!-- アゴ/口 ワニっぽい長い口 -->
  <path d="M135,142 Q180,160 225,142" fill="#4a3d60" stroke="#2d263c" stroke-width="7" stroke-linecap="round"/>
  <!-- 上顎 -->
  <path d="M135,138 Q180,128 225,138" fill="none" stroke="#2d263c" stroke-width="5" stroke-linecap="round"/>

  <!-- 牙 -->
  <polygon points="148,142 143,158 155,142" fill="#e8e0f0" stroke="#2d263c" stroke-width="3"/>
  <polygon points="165,146 161,163 172,146" fill="#e8e0f0" stroke="#2d263c" stroke-width="3"/>
  <polygon points="196,146 193,163 204,146" fill="#e8e0f0" stroke="#2d263c" stroke-width="3"/>
  <polygon points="212,142 209,158 220,142" fill="#e8e0f0" stroke="#2d263c" stroke-width="3"/>

  <!-- 口の中 -->
  <path d="M140,142 Q180,155 220,142 Q180,165 140,142" fill="#c0392b" stroke="none"/>

  <!-- 左目 -->
  <ellipse cx="158" cy="118" rx="14" ry="12" fill="#f5e642" stroke="#2d263c" stroke-width="5"/>
  <ellipse cx="161" cy="116" rx="7" ry="8" fill="#1a0a2e" stroke="none"/>
  <circle cx="163" cy="113" r="2" fill="white"/>

  <!-- 右目 -->
  <ellipse cx="204" cy="118" rx="14" ry="12" fill="#f5e642" stroke="#2d263c" stroke-width="5"/>
  <ellipse cx="207" cy="116" rx="7" ry="8" fill="#1a0a2e" stroke="none"/>
  <circle cx="209" cy="113" r="2" fill="white"/>

  <!-- 眉毛(怒り眉) -->
  <path d="M146,108 L170,112" stroke="#2d263c" stroke-width="5" stroke-linecap="round"/>
  <path d="M196,112 L220,108" stroke="#2d263c" stroke-width="5" stroke-linecap="round"/>

  <!-- 翼のツメ(先端) -->
  <path d="M28,108 L18,92 L35,103" fill="#2d263c" stroke="#2d263c" stroke-width="3" stroke-linejoin="round"/>
  <path d="M332,108 L342,92 L325,103" fill="#2d263c" stroke="#2d263c" stroke-width="3" stroke-linejoin="round"/>

  <!-- 翼 膜の縦スジ(らしさ) -->
  <path d="M60,210 Q40,155 25,112" fill="none" stroke="#3a2e50" stroke-width="3"/>
  <path d="M95,200 Q70,158 52,95" fill="none" stroke="#3a2e50" stroke-width="3"/>
  <path d="M300,210 Q320,155 335,112" fill="none" stroke="#3a2e50" stroke-width="3"/>
  <path d="M265,200 Q290,158 308,95" fill="none" stroke="#3a2e50" stroke-width="3"/>
</svg>