<svg xmlns="http://www.w3.org/2000/svg" viewBox="0 0 360 360"><g stroke="#2d263c" stroke-width="7" stroke-linejoin="round" stroke-linecap="round"><polygon points="44,100 24,88 40,76" fill="#46414f"/><polygon points="316,100 336,88 320,76" fill="#46414f"/><path d="M146,188 Q85,120 42,96 L50,128 Q64,146 56,168 Q84,178 78,200 Q108,204 114,220 Q130,210 144,214 Z" fill="#9587B5"/><path d="M214,186 Q278,116 320,94 L312,128 Q300,146 308,168 Q280,176 286,198 Q258,202 250,218 Q234,208 218,212 Z" fill="#9587B5"/><path d="M200,240 Q252,262 258,300 L236,308 Q230,272 186,256 Z" fill="#AC9FCB"/><polygon points="246,296 260,290 258,306 276,308 260,318 266,334 250,324 238,334 242,316 230,310" fill="#46414f"/><ellipse cx="180" cy="215" rx="48" ry="52" fill="#AC9FCB"/><ellipse cx="180" cy="230" rx="28" ry="34" fill="#D8CFE6"/><path d="M152,255 Q142,285 146,300 L158,302 Q160,280 168,258 Z" fill="#AC9FCB"/><path d="M208,255 Q218,283 214,299 L202,301 Q202,278 194,257 Z" fill="#AC9FCB"/><path d="M146,300 L138,309 M153,301 L151,312" fill="none" stroke-width="5"/><path d="M214,299 L223,307 M208,300 L211,311" fill="none" stroke-width="5"/><polygon points="116,192 126,154 136,184 148,150 158,188" fill="#46414f"/><polygon points="202,186 212,150 222,182 232,154 242,190" fill="#46414f"/><polygon points="138,88 150,50 162,82 177,38 192,80 206,48 218,86" fill="#46414f"/><path d="M125,140 Q116,88 152,70 Q182,56 214,72 Q246,90 238,138 Q180,156 125,140 Z" fill="#AC9FCB"/><path d="M126,141 Q180,157 237,139 Q234,170 181,176 Q130,170 126,141 Z" fill="#6b3f63"/><path d="M140,144 L146,160 L153,146 Z M165,149 L171,165 L178,150 Z M192,150 L198,165 L205,148 Z M216,145 L221,160 L227,143 Z" fill="#ffffff" stroke-width="4"/><path d="M130,166 Q180,182 233,164 Q230,194 180,199 Q133,192 130,166 Z" fill="#AC9FCB"/><path d="M153,170 L159,157 L166,171 Z M180,174 L186,161 L193,174 Z M206,170 L211,157 L217,168 Z" fill="#ffffff" stroke-width="4"/><polygon points="148,194 156,220 166,196 177,226 187,196 197,218 206,192" fill="#46414f" stroke-width="6"/><ellipse cx="155" cy="111" rx="10" ry="12" fill="#ffffff" stroke-width="5"/><ellipse cx="208" cy="108" rx="11" ry="12" fill="#ffffff" stroke-width="5"/><circle cx="157" cy="113" r="3.5" fill="#2d263c" stroke="none"/><circle cx="206" cy="110" r="3.5" fill="#2d263c" stroke="none"/><path d="M140,96 L166,104 M222,93 L196,102" fill="none" stroke-width="6"/><circle cx="174" cy="129" r="3" fill="#2d263c" stroke="none"/><circle cx="190" cy="128" r="3" fill="#2d263c" stroke="none"/></g></svg>