<svg xmlns="http://www.w3.org/2000/svg" viewBox="0 0 360 360"><g stroke="#2d263c" stroke-width="7" stroke-linejoin="round" stroke-linecap="round"><path fill="#6ecf9a" d="M128 118 C 96 150, 110 196, 84 230 C 74 246, 58 254, 66 263 C 84 268, 100 245, 107 224 C 119 190, 112 158, 142 132 Z"/><path fill="#6ecf9a" d="M232 114 C 264 148, 250 200, 277 238 C 289 254, 304 257, 297 268 C 276 273, 257 247, 249 222 C 239 188, 246 154, 219 128 Z"/><path fill="#fbfaf3" d="M178 178 C 122 192, 76 246, 58 330 C 84 320, 104 335, 130 326 C 154 337, 182 324, 206 333 C 234 322, 262 337, 298 328 C 284 242, 240 190, 196 180 Z"/><path fill="none" stroke-width="6" d="M141 232 C 130 262, 122 290, 117 316"/><path fill="none" stroke-width="6" d="M221 236 C 230 264, 237 292, 241 318"/><path fill="#fbfaf3" d="M166 138 C 138 146, 108 164, 84 192 C 77 199, 69 206, 76 212 C 85 216, 95 206, 103 198 C 124 176, 150 165, 172 160 Z"/><path fill="#fbfaf3" d="M196 137 C 224 138, 254 150, 277 173 C 285 181, 295 188, 288 196 C 280 202, 268 192, 258 184 C 238 168, 214 161, 192 158 Z"/><path fill="#e8504e" d="M203 170 L 231 157 L 211 186 Z"/><path fill="#fbfaf3" d="M164 120 C 160 150, 162 172, 150 196 C 168 207, 196 207, 212 194 C 200 170, 200 148, 198 120 Z"/><path fill="#e8504e" d="M181 142 C 167 156, 161 170, 166 185 C 172 201, 178 212, 182 227 C 189 210, 196 198, 198 182 C 200 167, 192 153, 181 142 Z"/><path fill="#6ecf9a" d="M180 28 C 134 26, 110 58, 114 96 C 116 126, 130 150, 151 157 C 164 162, 199 162, 212 154 C 232 146, 247 122, 246 93 C 247 56, 225 30, 180 28 Z"/><path fill="#6ecf9a" d="M117 92 C 100 91, 87 100, 77 113 C 94 117, 109 112, 119 105 Z"/><path fill="#6ecf9a" d="M243 90 C 261 87, 274 95, 286 106 C 270 113, 254 110, 243 102 Z"/><path fill="#fdfcf6" d="M180 70 C 156 70, 144 86, 146 110 C 148 132, 162 147, 181 147 C 199 146, 212 130, 214 107 C 215 86, 203 70, 180 70 Z"/><path fill="#6ecf9a" d="M161 71 C 169 83, 176 88, 180 96 C 186 86, 193 79, 201 71 Z"/><ellipse fill="#e8504e" stroke-width="6" cx="164" cy="113" rx="7" ry="10"/><ellipse fill="#e8504e" stroke-width="6" cx="199" cy="111" rx="7" ry="10"/><path fill="none" stroke-width="6" d="M173 133 C 178 137, 184 137, 189 132"/></g><circle fill="#ffffff" cx="166" cy="109" r="2.6"/><circle fill="#ffffff" cx="201" cy="107" r="2.6"/><ellipse fill="#f7b8c4" cx="151" cy="126" rx="6" ry="4"/><ellipse fill="#f7b8c4" cx="211" cy="124" rx="6" ry="4"/></svg>