<svg xmlns="http://www.w3.org/2000/svg" viewBox="0 0 360 360"><g stroke="#2d263c" stroke-width="7" stroke-linejoin="round" stroke-linecap="round"><path d="M228 270 C 285 292 330 268 330 218 C 330 190 312 170 294 181 C 279 191 286 218 268 232 C 255 242 240 246 226 244 Z" fill="#F5A04A"/><circle cx="312" cy="212" r="14" fill="#4C86E8"/><circle cx="282" cy="250" r="10" fill="#4C86E8"/><path d="M120 178 C 92 154 86 124 103 108 C 111 132 126 148 139 160 Z" fill="#5BC0A8"/><path d="M242 180 C 268 150 272 124 257 110 C 250 134 236 150 224 162 Z" fill="#5BC0A8"/><path d="M78 46 C 64 36 70 26 56 24" fill="none" stroke-width="6"/><path d="M284 44 C 298 34 290 24 304 26" fill="none" stroke-width="6"/><path d="M132 95 C 95 88 68 66 70 42 C 95 50 118 61 134 72 C 142 80 142 90 132 95 Z" fill="#FCFCF6"/><path d="M228 92 C 268 88 294 62 289 40 C 264 50 240 62 226 74 C 218 82 219 88 228 92 Z" fill="#FCFCF6"/><path d="M140 298 C 132 320 134 332 150 334 C 166 336 172 326 168 306 Z" fill="#F5A04A"/><path d="M212 300 C 222 320 220 332 204 334 C 190 335 184 326 188 306 Z" fill="#F5A04A"/><path d="M180 165 C 130 165 112 205 115 250 C 118 295 145 315 182 313 C 220 311 246 290 246 248 C 246 205 228 165 180 165 Z" fill="#F5A04A"/><path d="M122 215 C 100 222 92 240 100 252 C 112 248 124 238 130 228 Z" fill="#F5A04A"/><path d="M238 218 C 258 226 266 242 258 254 C 246 250 234 240 230 230 Z" fill="#F5A04A"/><path d="M134 180 l-17 -13 l5 18 Z" fill="#FCFCF6"/><path d="M228 182 l18 -11 l-6 17 Z" fill="#FCFCF6"/><path d="M132 280 l-16 -8 l6 16 Z" fill="#FCFCF6"/><path d="M230 282 l16 -9 l-5 17 Z" fill="#FCFCF6"/><path d="M180 195 C 150 195 140 225 142 258 C 144 290 160 304 181 303 C 203 302 218 288 219 256 C 220 224 210 195 180 195 Z" fill="#FBE3A0"/><path d="M155 232 C 172 225 192 225 208 232" fill="none" stroke-width="5"/><path d="M152 260 C 172 253 192 253 209 260" fill="none" stroke-width="5"/><path d="M176 64 C 172 44 178 32 191 26 C 195 42 192 54 186 64 Z" fill="#FCFCF6"/><path d="M180 60 C 140 60 122 92 124 118 C 126 148 150 165 180 165 C 212 165 236 147 237 117 C 238 90 220 60 180 60 Z" fill="#F5A04A"/><circle cx="156" cy="108" r="13" fill="#FCFCF6"/><circle cx="206" cy="106" r="15" fill="#FCFCF6"/><circle cx="158" cy="110" r="5" fill="#2d263c" stroke="none"/><circle cx="204" cy="108" r="6" fill="#2d263c" stroke="none"/><path d="M173 126 l4 2 M191 125 l4 2" fill="none" stroke-width="5"/><path d="M149 134 C 164 152 199 153 215 131" fill="none"/></g></svg>