<svg xmlns="http://www.w3.org/2000/svg" viewBox="0 0 360 360">
  <g stroke="#2d263c" stroke-width="7" stroke-linejoin="round" stroke-linecap="round">
    <path d="M196,72 Q160,42 112,28 Q150,62 188,88 Z" fill="#cc2f3f"/>
    <path d="M148,182 Q105,112 28,92 Q72,155 138,198 Z" fill="#c9d2e2"/>
    <path d="M146,196 Q92,158 24,148 Q76,190 136,212 Z" fill="#c9d2e2"/>
    <path d="M148,210 Q100,198 38,200 Q86,230 140,226 Z" fill="#c9d2e2"/>
    <path d="M212,182 Q255,118 336,82 Q295,150 224,198 Z" fill="#c9d2e2"/>
    <path d="M214,196 Q268,160 338,140 Q288,185 226,212 Z" fill="#c9d2e2"/>
    <path d="M212,210 Q262,196 330,192 Q280,228 222,226 Z" fill="#c9d2e2"/>
    <path d="M155,180 Q118,172 112,205 Q122,228 152,224 Z" fill="#cc2f3f"/>
    <path d="M205,180 Q245,170 250,205 Q240,230 208,225 Z" fill="#cc2f3f"/>
    <path d="M150,235 Q115,265 82,302 Q120,290 158,255 Z" fill="#cc2f3f"/>
    <path d="M158,245 Q135,280 112,315 Q148,295 170,262 Z" fill="#cc2f3f"/>
    <path d="M170,255 L164,302" fill="none"/>
    <path d="M164,302 l-12,16 M164,302 l1,18 M164,302 l13,14" fill="none" stroke-width="6"/>
    <path d="M204,255 L210,304" fill="none"/>
    <path d="M210,304 l-12,15 M210,304 l2,17 M210,304 l13,13" fill="none" stroke-width="6"/>
    <path d="M182,172 Q232,178 236,218 Q234,252 184,258 Q132,254 130,214 Q132,180 182,172 Z" fill="#c9d2e2"/>
    <path d="M150,232 Q182,250 216,230 Q210,254 182,258 Q152,252 150,232 Z" fill="#94a1ba"/>
    <path d="M170,180 Q166,134 190,100 L212,108 Q196,142 202,180 Z" fill="#c9d2e2"/>
    <path d="M174,150 Q188,156 202,148" fill="none" stroke-width="6"/>
    <path d="M180,124 Q192,130 206,122" fill="none" stroke-width="6"/>
    <path d="M218,74 L272,84 L222,96 Q214,86 218,74 Z" fill="#8e9bb4"/>
    <path d="M252,82 L245,90" fill="none" stroke-width="6"/>
    <path d="M186,64 Q214,58 222,82 Q222,102 198,106 Q180,104 178,84 Q178,68 186,64 Z" fill="#c9d2e2"/>
    <circle cx="204" cy="80" r="8" fill="#f6d743"/>
    <circle cx="206" cy="81" r="3.5" fill="#2d263c" stroke="none"/>
  </g>
</svg>