<svg xmlns="http://www.w3.org/2000/svg" viewBox="0 0 360 360">
  <ellipse cx="180" cy="205" rx="88" ry="72" fill="#8fc7e8" stroke="#2d263c" stroke-width="8" stroke-linejoin="round"/>
  <path d="M 40 190 Q 20 140 55 95 Q 75 130 92 175 Z" fill="#8fc7e8" stroke="#2d263c" stroke-width="7" stroke-linejoin="round" stroke-linecap="round"/>
  <path d="M 320 190 Q 340 140 305 95 Q 285 130 268 175 Z" fill="#8fc7e8" stroke="#2d263c" stroke-width="7" stroke-linejoin="round" stroke-linecap="round"/>
  <path d="M 55 95 Q 60 75 78 68 Q 70 90 75 118 Z" fill="#c0304a" stroke="#2d263c" stroke-width="6" stroke-linejoin="round"/>
  <path d="M 305 95 Q 300 75 282 68 Q 290 90 285 118 Z" fill="#c0304a" stroke="#2d263c" stroke-width="6" stroke-linejoin="round"/>
  <path d="M 180 45 Q 145 55 138 95 Q 165 78 180 78 Q 195 78 222 95 Q 215 55 180 45 Z" fill="#8fc7e8" stroke="#2d263c" stroke-width="8" stroke-linejoin="round"/>
  <path d="M 180 55 Q 165 68 162 90 Q 172 82 180 82 Q 188 82 198 90 Q 195 68 180 55 Z" fill="#c0304a" stroke="#2d263c" stroke-width="5" stroke-linejoin="round"/>
  <ellipse cx="180" cy="150" rx="60" ry="55" fill="#8fc7e8" stroke="#2d263c" stroke-width="8" stroke-linejoin="round"/>
  <path d="M 150 175 Q 180 195 210 175 Q 205 215 180 225 Q 155 215 150 175 Z" fill="#f4efe4" stroke="#2d263c" stroke-width="6" stroke-linejoin="round"/>
  <path d="M 150 245 Q 180 260 210 245 Q 202 280 180 288 Q 158 280 150 245 Z" fill="#f4efe4" stroke="#2d263c" stroke-width="6" stroke-linejoin="round"/>
  <path d="M 170 195 L 180 180 L 190 195 L 180 260 Z" fill="#c0304a" stroke="#2d263c" stroke-width="5" stroke-linejoin="round"/>
  <circle cx="156" cy="140" r="10" fill="#7a1c2b" stroke="#2d263c" stroke-width="6"/>
  <circle cx="204" cy="140" r="10" fill="#7a1c2b" stroke="#2d263c" stroke-width="6"/>
  <circle cx="159" cy="137" r="3" fill="#f4efe4"/>
  <circle cx="207" cy="137" r="3" fill="#f4efe4"/>
  <path d="M 180 265 Q 165 300 180 330 Q 195 300 180 265 Z" fill="#c0304a" stroke="#2d263c" stroke-width="7" stroke-linejoin="round"/>
  <path d="M 120 250 Q 105 265 110 285 Q 128 275 132 258 Z" fill="#8fc7e8" stroke="#2d263c" stroke-width="6" stroke-linejoin="round"/>
  <path d="M 240 250 Q 255 265 250 285 Q 232 275 228 258 Z" fill="#8fc7e8" stroke="#2d263c" stroke-width="6" stroke-linejoin="round"/>
</svg>
