<svg xmlns="http://www.w3.org/2000/svg" viewBox="0 0 360 360">
<g id="mega-burst"><circle cx="180" cy="180" r="172" fill="#fff3c0"/><polygon points="180,180 450.0,180.0 444.8,232.7" fill="#ffd96b"/><polygon points="180,180 429.4,283.3 404.5,330.0" fill="#ffb13d"/><polygon points="180,180 370.9,370.9 330.0,404.5" fill="#ffd96b"/><polygon points="180,180 283.3,429.4 232.7,444.8" fill="#ffb13d"/><polygon points="180,180 180.0,450.0 127.3,444.8" fill="#ffd96b"/><polygon points="180,180 76.7,429.4 30.0,404.5" fill="#ffb13d"/><polygon points="180,180 -10.9,370.9 -44.5,330.0" fill="#ffd96b"/><polygon points="180,180 -69.4,283.3 -84.8,232.7" fill="#ffb13d"/><polygon points="180,180 -90.0,180.0 -84.8,127.3" fill="#ffd96b"/><polygon points="180,180 -69.4,76.7 -44.5,30.0" fill="#ffb13d"/><polygon points="180,180 -10.9,-10.9 30.0,-44.5" fill="#ffd96b"/><polygon points="180,180 76.7,-69.4 127.3,-84.8" fill="#ffb13d"/><polygon points="180,180 180.0,-90.0 232.7,-84.8" fill="#ffd96b"/><polygon points="180,180 283.3,-69.4 330.0,-44.5" fill="#ffb13d"/><polygon points="180,180 370.9,-10.9 404.5,30.0" fill="#ffd96b"/><polygon points="180,180 429.4,76.7 444.8,127.3" fill="#ffb13d"/><circle cx="180" cy="180" r="120" fill="#fff3c0" opacity="0.55"/></g>

  <!-- 影 -->
  <ellipse cx="180" cy="348" rx="75" ry="11" fill="#00000022"/>

  <!-- 尾羽 (後ろ・最下層) -->
  <ellipse cx="180" cy="315" rx="50" ry="22" fill="#2a2535" stroke="#2d263c" stroke-width="6" stroke-linejoin="round"/>
  <ellipse cx="156" cy="325" rx="18" ry="27" fill="#F5F0E8" stroke="#2d263c" stroke-width="5" stroke-linejoin="round" transform="rotate(-14 156 325)"/>
  <ellipse cx="180" cy="330" rx="15" ry="28" fill="#2a2535" stroke="#2d263c" stroke-width="5" stroke-linejoin="round"/>
  <ellipse cx="204" cy="325" rx="18" ry="27" fill="#F5F0E8" stroke="#2d263c" stroke-width="5" stroke-linejoin="round" transform="rotate(14 204 325)"/>

  <!-- 翼 左 (大きく開いたメガ翼) -->
  <polygon points="110,215 20,118 12,175 36,248 80,266 132,254" fill="#F5F0E8" stroke="#2d263c" stroke-width="7" stroke-linejoin="round"/>
  <polygon points="110,215 22,102 50,94 108,188" fill="#808090" stroke="#2d263c" stroke-width="6" stroke-linejoin="round"/>
  <polygon points="50,94 22,102 28,68 62,60" fill="#2a2535" stroke="#2d263c" stroke-width="6" stroke-linejoin="round"/>
  <line x1="78" y1="105" x2="42" y2="152" stroke="#606070" stroke-width="4" stroke-linecap="round"/>
  <line x1="88" y1="135" x2="52" y2="182" stroke="#606070" stroke-width="4" stroke-linecap="round"/>

  <!-- 翼 右 (大きく開いたメガ翼) -->
  <polygon points="250,215 340,118 348,175 324,248 280,266 228,254" fill="#F5F0E8" stroke="#2d263c" stroke-width="7" stroke-linejoin="round"/>
  <polygon points="250,215 338,102 310,94 252,188" fill="#808090" stroke="#2d263c" stroke-width="6" stroke-linejoin="round"/>
  <polygon points="310,94 338,102 332,68 298,60" fill="#2a2535" stroke="#2d263c" stroke-width="6" stroke-linejoin="round"/>
  <line x1="282" y1="105" x2="318" y2="152" stroke="#606070" stroke-width="4" stroke-linecap="round"/>
  <line x1="272" y1="135" x2="308" y2="182" stroke="#606070" stroke-width="4" stroke-linecap="round"/>

  <!-- 体 (暗灰色の卵形) -->
  <ellipse cx="180" cy="248" rx="68" ry="72" fill="#505060" stroke="#2d263c" stroke-width="8" stroke-linejoin="round"/>
  <!-- 腹 (白い楕円) -->
  <ellipse cx="180" cy="260" rx="42" ry="55" fill="#F5F0E8" stroke="#2d263c" stroke-width="5" stroke-linejoin="round"/>

  <!-- 足 左 -->
  <line x1="162" y1="310" x2="148" y2="340" stroke="#C09820" stroke-width="8" stroke-linecap="round"/>
  <line x1="148" y1="340" x2="130" y2="350" stroke="#C09820" stroke-width="6" stroke-linecap="round"/>
  <line x1="148" y1="340" x2="148" y2="354" stroke="#C09820" stroke-width="6" stroke-linecap="round"/>
  <line x1="148" y1="340" x2="165" y2="348" stroke="#C09820" stroke-width="6" stroke-linecap="round"/>

  <!-- 足 右 -->
  <line x1="198" y1="310" x2="212" y2="340" stroke="#C09820" stroke-width="8" stroke-linecap="round"/>
  <line x1="212" y1="340" x2="195" y2="350" stroke="#C09820" stroke-width="6" stroke-linecap="round"/>
  <line x1="212" y1="340" x2="212" y2="354" stroke="#C09820" stroke-width="6" stroke-linecap="round"/>
  <line x1="212" y1="340" x2="229" y2="348" stroke="#C09820" stroke-width="6" stroke-linecap="round"/>

  <!-- 頭 (暗灰色の円) -->
  <ellipse cx="180" cy="155" rx="52" ry="50" fill="#404050" stroke="#2d263c" stroke-width="8" stroke-linejoin="round"/>
  <!-- 顔の白い部分 -->
  <ellipse cx="180" cy="165" rx="36" ry="36" fill="#F5F0E8" stroke="#2d263c" stroke-width="5" stroke-linejoin="round"/>

  <!-- 冠羽(トサカ・メガ=非常に大きく後方にそびえる) -->
  <path d="M168,110 C158,86 138,58 130,26 C150,40 160,66 164,86 C162,52 170,26 177,14 C180,40 176,70 177,89 C183,54 196,30 206,20 C202,50 190,72 188,92 C196,66 215,48 230,44 C216,66 200,84 192,108" fill="#F8F8F2" stroke="#2d263c" stroke-width="6" stroke-linejoin="round" stroke-linecap="round"/>
  <!-- 冠羽ハイライト -->
  <path d="M172,102 C165,78 148,52 146,30 C160,46 166,70 168,88" fill="#FFFFFF" stroke="none" opacity="0.6"/>
  <!-- 冠羽の先端赤丸 -->
  <circle cx="130" cy="26" r="9" fill="#D04030" stroke="#2d263c" stroke-width="4"/>
  <circle cx="177" cy="14" r="8" fill="#D04030" stroke="#2d263c" stroke-width="4"/>
  <circle cx="206" cy="20" r="7" fill="#D04030" stroke="#2d263c" stroke-width="4"/>

  <!-- 赤いほっぺ (丸・特徴的) -->
  <ellipse cx="148" cy="168" rx="17" ry="13" fill="#D04030" stroke="none"/>
  <ellipse cx="212" cy="168" rx="17" ry="13" fill="#D04030" stroke="none"/>

  <!-- 目 左 (赤い目) -->
  <ellipse cx="160" cy="154" rx="12" ry="13" fill="#CC2020" stroke="#2d263c" stroke-width="5" stroke-linejoin="round" stroke-linecap="round"/>
  <ellipse cx="159" cy="153" rx="5" ry="5.5" fill="#1a0505"/>
  <circle cx="157" cy="151" r="2" fill="white"/>

  <!-- 目 右 -->
  <ellipse cx="202" cy="154" rx="12" ry="13" fill="#CC2020" stroke="#2d263c" stroke-width="5" stroke-linejoin="round" stroke-linecap="round"/>
  <ellipse cx="203" cy="153" rx="5" ry="5.5" fill="#1a0505"/>
  <circle cx="201" cy="151" r="2" fill="white"/>

  <!-- くちばし (鋭く下向き) -->
  <polygon points="172,174 188,174 184,196 176,196" fill="#E0A020" stroke="#2d263c" stroke-width="5" stroke-linejoin="round"/>
  <line x1="172" y1="174" x2="188" y2="174" stroke="#2d263c" stroke-width="3" stroke-linecap="round"/>

</svg>
