<svg xmlns="http://www.w3.org/2000/svg" viewBox="0 0 360 360"><g stroke="#2d263c" stroke-width="7" stroke-linejoin="round" stroke-linecap="round"><path d="M152,70 C118,80 92,112 86,148 C84,162 98,166 104,154 C108,170 126,172 128,156 C132,128 144,98 162,84 Z" fill="#84d9a6"/><path d="M208,70 C242,82 266,116 272,150 C274,164 258,168 254,156 C248,170 232,170 232,154 C230,126 216,96 200,82 Z" fill="#84d9a6"/><path d="M158,172 C118,196 88,250 64,326 L82,314 L96,330 L114,316 L132,332 L152,318 L172,334 L192,318 L212,332 L230,316 L248,330 L264,314 L296,324 C274,248 244,196 204,172 Z" fill="#f7f5fa"/><path d="M150,202 C140,240 131,278 123,314" fill="none" stroke="#d8d2e6" stroke-width="5"/><path d="M212,204 C221,242 228,278 235,312" fill="none" stroke="#d8d2e6" stroke-width="5"/><polygon points="164,148 134,160 164,170" fill="#e8504f"/><path d="M164,134 C142,138 118,134 100,122 L86,110 L99,108 L93,97 L108,103 C122,112 144,122 166,122 Z" fill="#f7f5fa"/><path d="M198,128 C220,128 242,116 256,100 L270,88 L260,86 L265,76 L252,85 C240,96 220,110 196,116 Z" fill="#f7f5fa"/><path d="M166,104 C157,128 154,156 158,180 C172,188 192,188 204,180 C206,154 202,126 194,104 Z" fill="#f7f5fa"/><polygon points="180,138 197,158 180,184 164,158" fill="#ee4b4c"/><path d="M180,44 C150,44 134,66 136,90 C138,112 158,122 180,122 C202,122 222,110 224,88 C226,64 210,44 180,44 Z" fill="#f7f5fa"/><path d="M180,30 C136,30 106,56 112,88 C116,104 134,106 140,94 C146,102 160,96 158,86 C170,92 192,92 202,86 C202,98 216,102 222,92 C230,100 246,96 248,82 C252,52 224,30 180,30 Z" fill="#84d9a6"/></g><ellipse cx="162" cy="100" rx="5.5" ry="7.5" fill="#d93a4e"/><ellipse cx="199" cy="99" rx="5" ry="7.5" fill="#d93a4e"/><circle cx="164" cy="97" r="1.8" fill="#ffffff"/><circle cx="201" cy="96" r="1.8" fill="#ffffff"/><path d="M172,112 Q180,117 189,111" fill="none" stroke="#2d263c" stroke-width="6" stroke-linecap="round"/><circle cx="147" cy="106" r="4" fill="#f7b6c2"/><circle cx="214" cy="104" r="4.5" fill="#f7b6c2"/></svg>