<svg xmlns="http://www.w3.org/2000/svg" viewBox="0 0 360 360">
<g id="mega-burst"><circle cx="180" cy="180" r="172" fill="#fff3c0"/><polygon points="180,180 450.0,180.0 444.8,232.7" fill="#ffd96b"/><polygon points="180,180 429.4,283.3 404.5,330.0" fill="#ffb13d"/><polygon points="180,180 370.9,370.9 330.0,404.5" fill="#ffd96b"/><polygon points="180,180 283.3,429.4 232.7,444.8" fill="#ffb13d"/><polygon points="180,180 180.0,450.0 127.3,444.8" fill="#ffd96b"/><polygon points="180,180 76.7,429.4 30.0,404.5" fill="#ffb13d"/><polygon points="180,180 -10.9,370.9 -44.5,330.0" fill="#ffd96b"/><polygon points="180,180 -69.4,283.3 -84.8,232.7" fill="#ffb13d"/><polygon points="180,180 -90.0,180.0 -84.8,127.3" fill="#ffd96b"/><polygon points="180,180 -69.4,76.7 -44.5,30.0" fill="#ffb13d"/><polygon points="180,180 -10.9,-10.9 30.0,-44.5" fill="#ffd96b"/><polygon points="180,180 76.7,-69.4 127.3,-84.8" fill="#ffb13d"/><polygon points="180,180 180.0,-90.0 232.7,-84.8" fill="#ffd96b"/><polygon points="180,180 283.3,-69.4 330.0,-44.5" fill="#ffb13d"/><polygon points="180,180 370.9,-10.9 404.5,30.0" fill="#ffd96b"/><polygon points="180,180 429.4,76.7 444.8,127.3" fill="#ffb13d"/><circle cx="180" cy="180" r="120" fill="#fff3c0" opacity="0.55"/></g>
  <!-- 後ろの翼(左) -->
  <ellipse cx="82" cy="185" rx="38" ry="70" fill="#c8eeff" stroke="#2d263c" stroke-width="7" stroke-linejoin="round" stroke-linecap="round" transform="rotate(-18 82 185)"/>
  <line x1="82" y1="130" x2="88" y2="250" stroke="#7ad4f5" stroke-width="3" stroke-linecap="round"/>
  <line x1="62" y1="148" x2="100" y2="240" stroke="#7ad4f5" stroke-width="3" stroke-linecap="round"/>

  <!-- 後ろの翼(右) -->
  <ellipse cx="278" cy="185" rx="38" ry="70" fill="#c8eeff" stroke="#2d263c" stroke-width="7" stroke-linejoin="round" stroke-linecap="round" transform="rotate(18 278 185)"/>
  <line x1="278" y1="130" x2="272" y2="250" stroke="#7ad4f5" stroke-width="3" stroke-linecap="round"/>
  <line x1="298" y1="148" x2="260" y2="240" stroke="#7ad4f5" stroke-width="3" stroke-linecap="round"/>

  <!-- 星形頭飾り(後ろの尖り・大) -->
  <!-- 左上の大きな尖り -->
  <polygon points="148,90 138,30 162,82" fill="#ffe040" stroke="#2d263c" stroke-width="7" stroke-linejoin="round"/>
  <!-- 右上の大きな尖り -->
  <polygon points="212,90 222,30 198,82" fill="#ffe040" stroke="#2d263c" stroke-width="7" stroke-linejoin="round"/>
  <!-- 左の尖り -->
  <polygon points="135,115 90,90 140,128" fill="#ffe040" stroke="#2d263c" stroke-width="7" stroke-linejoin="round"/>
  <!-- 右の尖り -->
  <polygon points="225,115 270,90 220,128" fill="#ffe040" stroke="#2d263c" stroke-width="7" stroke-linejoin="round"/>
  <!-- 真上の尖り(メガ用・大きい) -->
  <polygon points="180,78 165,15 195,15 180,78" fill="#ffd700" stroke="#2d263c" stroke-width="7" stroke-linejoin="round"/>

  <!-- 体(メイン・丸い) -->
  <ellipse cx="180" cy="215" rx="75" ry="80" fill="#ffffff" stroke="#2d263c" stroke-width="8" stroke-linejoin="round"/>

  <!-- 頭(丸い・やや大きめ) -->
  <circle cx="180" cy="150" r="68" fill="#ffffff" stroke="#2d263c" stroke-width="8"/>

  <!-- 星形頭飾りのリング(金色の輪) -->
  <circle cx="180" cy="150" r="72" fill="none" stroke="#ffd700" stroke-width="10"/>
  <circle cx="180" cy="150" r="72" fill="none" stroke="#2d263c" stroke-width="3" stroke-dasharray="none"/>

  <!-- 耳(小さい突起) -->
  <ellipse cx="132" cy="98" rx="14" ry="8" fill="#ffe040" stroke="#2d263c" stroke-width="6" transform="rotate(-30 132 98)"/>
  <ellipse cx="228" cy="98" rx="14" ry="8" fill="#ffe040" stroke="#2d263c" stroke-width="6" transform="rotate(30 228 98)"/>

  <!-- おでこの宝石(水色) -->
  <ellipse cx="180" cy="116" rx="12" ry="9" fill="#7adcff" stroke="#2d263c" stroke-width="5"/>
  <ellipse cx="178" cy="114" rx="5" ry="3" fill="#d0f5ff" opacity="0.8"/>

  <!-- 目(青くてつぶら) -->
  <ellipse cx="160" cy="145" rx="14" ry="15" fill="#3ab8f7" stroke="#2d263c" stroke-width="5"/>
  <ellipse cx="200" cy="145" rx="14" ry="15" fill="#3ab8f7" stroke="#2d263c" stroke-width="5"/>
  <!-- 瞳 -->
  <ellipse cx="162" cy="147" rx="7" ry="8" fill="#1a3a6b"/>
  <ellipse cx="202" cy="147" rx="7" ry="8" fill="#1a3a6b"/>
  <!-- ハイライト -->
  <circle cx="165" cy="143" r="3" fill="white"/>
  <circle cx="205" cy="143" r="3" fill="white"/>

  <!-- 口(にっこり) -->
  <path d="M165,170 Q180,182 195,170" fill="none" stroke="#2d263c" stroke-width="5" stroke-linecap="round"/>

  <!-- ほっぺ(ピンク) -->
  <ellipse cx="148" cy="165" rx="12" ry="8" fill="#ffb7c5" opacity="0.75"/>
  <ellipse cx="212" cy="165" rx="12" ry="8" fill="#ffb7c5" opacity="0.75"/>

  <!-- 腹の目(第三の目・黄色い) -->
  <ellipse cx="180" cy="225" rx="22" ry="18" fill="#ffe040" stroke="#2d263c" stroke-width="6"/>
  <ellipse cx="180" cy="225" rx="12" ry="10" fill="#f9a800" stroke="#2d263c" stroke-width="4"/>
  <ellipse cx="180" cy="225" rx="5" ry="5" fill="#2d1a00"/>
  <circle cx="182" cy="223" r="2" fill="white"/>

  <!-- 小さな手(左) -->
  <ellipse cx="118" cy="258" rx="18" ry="13" fill="#ffffff" stroke="#2d263c" stroke-width="7" transform="rotate(-20 118 258)"/>
  <!-- 小さな手(右) -->
  <ellipse cx="242" cy="258" rx="18" ry="13" fill="#ffffff" stroke="#2d263c" stroke-width="7" transform="rotate(20 242 258)"/>

  <!-- 足(左) -->
  <ellipse cx="158" cy="290" rx="20" ry="13" fill="#ffffff" stroke="#2d263c" stroke-width="7"/>
  <!-- 足(右) -->
  <ellipse cx="202" cy="290" rx="20" ry="13" fill="#ffffff" stroke="#2d263c" stroke-width="7"/>

  <!-- しっぽ状のリボン(左) -->
  <path d="M140,285 Q112,310 108,340 Q118,325 130,330 Q120,308 148,298" fill="#c8eeff" stroke="#2d263c" stroke-width="6" stroke-linejoin="round" stroke-linecap="round"/>
  <!-- しっぽ状のリボン(右) -->
  <path d="M220,285 Q248,310 252,340 Q242,325 230,330 Q240,308 212,298" fill="#c8eeff" stroke="#2d263c" stroke-width="6" stroke-linejoin="round" stroke-linecap="round"/>

  <!-- メガ用の金の追加模様(体のライン) -->
  <path d="M155,200 Q180,195 205,200" fill="none" stroke="#ffd700" stroke-width="4" stroke-linecap="round"/>
</svg>