<svg xmlns="http://www.w3.org/2000/svg" viewBox="0 0 360 360">
  <!-- 背後の翼(左) -->
  <ellipse cx="105" cy="185" rx="68" ry="28" fill="#4a3b8c" stroke="#2d263c" stroke-width="7" stroke-linejoin="round" transform="rotate(-38 105 185)"/>
  <ellipse cx="95" cy="168" rx="52" ry="18" fill="#7b6fd4" stroke="#2d263c" stroke-width="6" stroke-linejoin="round" transform="rotate(-48 95 168)"/>

  <!-- 背後の翼(右) -->
  <ellipse cx="255" cy="185" rx="68" ry="28" fill="#4a3b8c" stroke="#2d263c" stroke-width="7" stroke-linejoin="round" transform="rotate(38 255 185)"/>
  <ellipse cx="265" cy="168" rx="52" ry="18" fill="#7b6fd4" stroke="#2d263c" stroke-width="6" stroke-linejoin="round" transform="rotate(48 265 168)"/>

  <!-- しっぽ -->
  <path d="M155 290 Q130 335 150 345 Q172 355 178 330 Q185 310 175 295" fill="#4a3b8c" stroke="#2d263c" stroke-width="7" stroke-linejoin="round" stroke-linecap="round"/>
  <path d="M175 295 Q182 318 195 330 Q210 345 218 335 Q228 320 210 308 Q198 300 185 290" fill="#4a3b8c" stroke="#2d263c" stroke-width="7" stroke-linejoin="round" stroke-linecap="round"/>
  <!-- しっぽの白いリング模様 -->
  <ellipse cx="163" cy="322" rx="10" ry="5" fill="none" stroke="#f0edf8" stroke-width="4" transform="rotate(-20 163 322)"/>
  <ellipse cx="205" cy="318" rx="10" ry="5" fill="none" stroke="#f0edf8" stroke-width="4" transform="rotate(20 205 318)"/>

  <!-- 体 -->
  <ellipse cx="180" cy="240" rx="62" ry="68" fill="#f5f0ff" stroke="#2d263c" stroke-width="8" stroke-linejoin="round"/>

  <!-- お腹(白い部分) -->
  <ellipse cx="180" cy="252" rx="38" ry="48" fill="#ffffff" stroke="none"/>
  <ellipse cx="180" cy="252" rx="38" ry="48" fill="none" stroke="#d8d0f0" stroke-width="2"/>

  <!-- 腕(左) -->
  <path d="M124 230 Q105 245 108 268 Q112 278 122 272 Q132 265 130 248 Q129 238 124 230Z" fill="#4a3b8c" stroke="#2d263c" stroke-width="7" stroke-linejoin="round"/>
  <!-- 手先(左) -->
  <ellipse cx="115" cy="274" rx="13" ry="9" fill="#f5f0ff" stroke="#2d263c" stroke-width="6" stroke-linejoin="round"/>

  <!-- 腕(右) -->
  <path d="M236 230 Q255 245 252 268 Q248 278 238 272 Q228 265 230 248 Q231 238 236 230Z" fill="#4a3b8c" stroke="#2d263c" stroke-width="7" stroke-linejoin="round"/>
  <!-- 手先(右) -->
  <ellipse cx="245" cy="274" rx="13" ry="9" fill="#f5f0ff" stroke="#2d263c" stroke-width="6" stroke-linejoin="round"/>

  <!-- 脚(左) -->
  <path d="M152 295 Q142 310 145 328 Q148 338 162 332 Q168 320 165 305Z" fill="#4a3b8c" stroke="#2d263c" stroke-width="7" stroke-linejoin="round"/>
  <!-- 脚先(左) -->
  <ellipse cx="152" cy="333" rx="16" ry="8" fill="#f5f0ff" stroke="#2d263c" stroke-width="6" transform="rotate(-8 152 333)"/>

  <!-- 脚(右) -->
  <path d="M208 295 Q218 310 215 328 Q212 338 198 332 Q192 320 195 305Z" fill="#4a3b8c" stroke="#2d263c" stroke-width="7" stroke-linejoin="round"/>
  <!-- 脚先(右) -->
  <ellipse cx="208" cy="333" rx="16" ry="8" fill="#f5f0ff" stroke="#2d263c" stroke-width="6" transform="rotate(8 208 333)"/>

  <!-- 首 -->
  <rect x="162" y="176" width="36" height="30" rx="12" fill="#f5f0ff" stroke="none"/>

  <!-- 頭 -->
  <ellipse cx="180" cy="155" rx="58" ry="55" fill="#f5f0ff" stroke="#2d263c" stroke-width="8" stroke-linejoin="round"/>

  <!-- 耳(左) - 大きく開いたメガ進化耳 -->
  <polygon points="118,120 100,60 135,78 142,112" fill="#4a3b8c" stroke="#2d263c" stroke-width="7" stroke-linejoin="round"/>
  <!-- 耳の内側(左) - 第三の目が開いている -->
  <polygon points="120,115 106,72 132,85 137,110" fill="#7b6fd4"/>
  <!-- 耳の中の目(左) -->
  <ellipse cx="121" cy="95" rx="10" ry="13" fill="#ffe566" stroke="#2d263c" stroke-width="3"/>
  <ellipse cx="121" cy="95" rx="5" ry="7" fill="#2d263c"/>
  <ellipse cx="119" cy="92" rx="2" ry="2" fill="#ffffff"/>

  <!-- 耳(右) - 大きく開いたメガ進化耳 -->
  <polygon points="242,120 260,60 225,78 218,112" fill="#4a3b8c" stroke="#2d263c" stroke-width="7" stroke-linejoin="round"/>
  <!-- 耳の内側(右) -->
  <polygon points="240,115 254,72 228,85 223,110" fill="#7b6fd4"/>
  <!-- 耳の中の目(右) -->
  <ellipse cx="239" cy="95" rx="10" ry="13" fill="#ffe566" stroke="#2d263c" stroke-width="3"/>
  <ellipse cx="239" cy="95" rx="5" ry="7" fill="#2d263c"/>
  <ellipse cx="237" cy="92" rx="2" ry="2" fill="#ffffff"/>

  <!-- 額の模様(ひし形) -->
  <polygon points="180,108 188,117 180,126 172,117" fill="#7b6fd4" stroke="#4a3b8c" stroke-width="2"/>

  <!-- アイマーク(目の周りの青紫模様) -->
  <ellipse cx="157" cy="162" rx="22" ry="14" fill="#4a3b8c"/>
  <ellipse cx="203" cy="162" rx="22" ry="14" fill="#4a3b8c"/>

  <!-- 目(左) - きつめの切れ長 -->
  <ellipse cx="157" cy="162" rx="15" ry="10" fill="#5cc8ff" stroke="#2d263c" stroke-width="3"/>
  <ellipse cx="160" cy="163" rx="7" ry="8" fill="#1a1040"/>
  <ellipse cx="158" cy="160" rx="3" ry="3" fill="#ffffff"/>

  <!-- 目(右) - きつめの切れ長 -->
  <ellipse cx="203" cy="162" rx="15" ry="10" fill="#5cc8ff" stroke="#2d263c" stroke-width="3"/>
  <ellipse cx="200" cy="163" rx="7" ry="8" fill="#1a1040"/>
  <ellipse cx="198" cy="160" rx="3" ry="3" fill="#ffffff"/>

  <!-- まぶた(ツン目線) -->
  <path d="M142 158 Q157 152 172 158" fill="none" stroke="#2d263c" stroke-width="4" stroke-linecap="round"/>
  <path d="M188 158 Q203 152 218 158" fill="none" stroke="#2d263c" stroke-width="4" stroke-linecap="round"/>

  <!-- 鼻・口(小さくてツン) -->
  <ellipse cx="180" cy="176" rx="4" ry="3" fill="#e8a0c0"/>
  <path d="M174 183 Q180 187 186 183" fill="none" stroke="#2d263c" stroke-width="3.5" stroke-linecap="round"/>

  <!-- ほっぺ(うっすらピンク) -->
  <ellipse cx="143" cy="172" rx="12" ry="8" fill="#ffb8d8" opacity="0.55"/>
  <ellipse cx="217" cy="172" rx="12" ry="8" fill="#ffb8d8" opacity="0.55"/>

  <!-- 首元のリボン/ネックレス風模様 -->
  <path d="M162 188 Q180 196 198 188" fill="none" stroke="#7b6fd4" stroke-width="5" stroke-linecap="round"/>
</svg>