<svg xmlns="http://www.w3.org/2000/svg" viewBox="0 0 360 360">
  <g stroke="#2d263c" stroke-width="7" stroke-linejoin="round" stroke-linecap="round">
    <path fill="#7dbf6a" d="M228 288 Q260 296 286 280 Q310 264 312 238 L334 230 L312 222 L326 204 L302 208 Q282 196 268 214 Q252 234 244 252 Q236 272 222 276 Z"/>
    <path fill="#e8413c" stroke-width="6" d="M312 222 L334 230 L312 238 Q316 230 312 222 Z"/>
    <path fill="#cfdfb8" d="M96 196 L64 184 L94 218 Z"/>
    <path fill="#cfdfb8" d="M100 234 L70 236 L102 256 Z"/>
    <path fill="#cfdfb8" d="M264 202 L292 188 L266 228 Z"/>
    <path fill="#cfdfb8" d="M118 160 L90 140 L122 182 Z"/>
    <path fill="#cfdfb8" d="M242 156 L270 134 L240 178 Z"/>
    <path fill="#7dbf6a" d="M128 86 L106 42 L142 62 L164 26 L186 60 L226 36 L216 88 Q172 70 128 86 Z"/>
    <path fill="#2d263c" stroke-width="6" d="M150 70 L164 44 L178 68 Z"/>
    <path fill="#7dbf6a" d="M150 142 Q108 158 100 210 Q92 268 122 300 Q150 318 184 316 Q222 314 244 292 Q266 264 258 210 Q250 160 212 144 Q180 132 150 142 Z"/>
    <path fill="#7dbf6a" d="M136 292 Q124 314 130 332 Q146 340 168 334 Q170 312 166 298 Z"/>
    <path fill="#7dbf6a" d="M196 298 Q194 320 200 334 Q220 340 234 330 Q238 308 228 292 Z"/>
    <path fill="#f3efe2" stroke-width="6" d="M130 332 L116 346 L140 338 Z M146 337 L142 352 L158 339 Z M202 336 L200 352 L216 340 Z M222 335 L228 350 L236 330 Z"/>
    <path fill="#cfdfb8" stroke-width="6" d="M132 302 L114 294 L134 318 Z"/>
    <path fill="#cfdfb8" stroke-width="6" d="M230 300 L248 290 L228 316 Z"/>
    <path fill="#7dbf6a" d="M118 190 Q100 202 104 224 Q116 234 130 226 Q132 206 126 194 Z"/>
    <path fill="#f3efe2" stroke-width="6" d="M104 224 L92 238 L114 232 Z"/>
    <path fill="#7dbf6a" d="M242 188 Q262 198 258 222 Q246 232 232 224 Q230 204 236 192 Z"/>
    <path fill="#f3efe2" stroke-width="6" d="M258 222 L270 236 L248 230 Z"/>
    <path fill="#b9d99a" d="M148 168 Q132 210 138 262 Q140 288 162 296 Q182 302 202 294 Q222 286 224 258 Q228 206 212 168 Q180 156 148 168 Z"/>
    <path fill="none" stroke-width="6" d="M142 210 Q180 220 220 208 M140 248 Q180 258 222 246 M146 280 Q180 290 214 278"/>
    <path fill="#e8413c" stroke-width="6" d="M180 174 L202 204 L180 234 L158 204 Z"/>
    <path fill="#7dbf6a" d="M132 78 Q118 102 124 128 Q132 152 168 156 Q206 156 218 130 Q226 104 212 80 Q186 62 158 64 Q140 66 132 78 Z"/>
    <path fill="#e8413c" stroke-width="6" d="M128 116 L112 126 L128 134 Z"/>
    <path fill="#e8413c" stroke-width="6" d="M216 114 L232 122 L214 130 Z"/>
    <ellipse fill="#f6c945" stroke-width="6" cx="147" cy="105" rx="10" ry="12"/>
    <ellipse fill="#f6c945" stroke-width="6" cx="191" cy="102" rx="10" ry="12"/>
    <circle fill="#2d263c" stroke="none" cx="149" cy="107" r="4"/>
    <circle fill="#2d263c" stroke="none" cx="189" cy="104" r="4"/>
    <path fill="none" d="M132 90 L160 97 M206 88 L178 95"/>
    <path fill="none" d="M134 133 L146 141 L157 130 L169 142 L181 130 L193 141 L205 129 L213 137"/>
    <path fill="none" stroke-width="6" d="M160 120 L162 120 M180 119 L182 119"/>
  </g>
</svg>