<svg xmlns="http://www.w3.org/2000/svg" viewBox="0 0 360 360">
<g id="mega-burst"><circle cx="180" cy="180" r="172" fill="#fff3c0"/><polygon points="180,180 450.0,180.0 444.8,232.7" fill="#ffd96b"/><polygon points="180,180 429.4,283.3 404.5,330.0" fill="#ffb13d"/><polygon points="180,180 370.9,370.9 330.0,404.5" fill="#ffd96b"/><polygon points="180,180 283.3,429.4 232.7,444.8" fill="#ffb13d"/><polygon points="180,180 180.0,450.0 127.3,444.8" fill="#ffd96b"/><polygon points="180,180 76.7,429.4 30.0,404.5" fill="#ffb13d"/><polygon points="180,180 -10.9,370.9 -44.5,330.0" fill="#ffd96b"/><polygon points="180,180 -69.4,283.3 -84.8,232.7" fill="#ffb13d"/><polygon points="180,180 -90.0,180.0 -84.8,127.3" fill="#ffd96b"/><polygon points="180,180 -69.4,76.7 -44.5,30.0" fill="#ffb13d"/><polygon points="180,180 -10.9,-10.9 30.0,-44.5" fill="#ffd96b"/><polygon points="180,180 76.7,-69.4 127.3,-84.8" fill="#ffb13d"/><polygon points="180,180 180.0,-90.0 232.7,-84.8" fill="#ffd96b"/><polygon points="180,180 283.3,-69.4 330.0,-44.5" fill="#ffb13d"/><polygon points="180,180 370.9,-10.9 404.5,30.0" fill="#ffd96b"/><polygon points="180,180 429.4,76.7 444.8,127.3" fill="#ffb13d"/><circle cx="180" cy="180" r="120" fill="#fff3c0" opacity="0.55"/></g>
  <!-- 背景の巨大砲(後ろレイヤー) -->
  <!-- 砲身 本体後方 -->
  <rect x="152" y="18" width="56" height="130" rx="14" ry="14" fill="#5a4a2a" stroke="#2d263c" stroke-width="7" stroke-linejoin="round"/>
  <!-- 砲身 上部ノズル(砲口) -->
  <ellipse cx="180" cy="18" rx="34" ry="16" fill="#3a3020" stroke="#2d263c" stroke-width="7"/>
  <!-- 砲口の穴 -->
  <ellipse cx="180" cy="18" rx="20" ry="9" fill="#1a1510"/>
  <!-- 砲身バンド装飾 -->
  <rect x="148" y="55" width="64" height="10" rx="4" fill="#7a6535" stroke="#2d263c" stroke-width="4"/>
  <rect x="148" y="90" width="64" height="10" rx="4" fill="#7a6535" stroke="#2d263c" stroke-width="4"/>
  <rect x="148" y="125" width="64" height="10" rx="4" fill="#7a6535" stroke="#2d263c" stroke-width="4"/>

  <!-- 甲羅(背中) -->
  <ellipse cx="180" cy="210" rx="105" ry="95" fill="#9b7d2a" stroke="#2d263c" stroke-width="8" stroke-linejoin="round"/>
  <!-- 甲羅 六角模様 -->
  <polygon points="180,155 200,168 200,192 180,205 160,192 160,168" fill="#7a6015" stroke="#2d263c" stroke-width="3.5"/>
  <polygon points="200,168 220,155 240,168 240,192 220,205 200,192" fill="#7a6015" stroke="#2d263c" stroke-width="3.5"/>
  <polygon points="160,168 180,155 200,168 200,192 180,205 160,192" fill="#7a6015" stroke="#2d263c" stroke-width="3.5"/>
  <polygon points="120,168 140,155 160,168 160,192 140,205 120,192" fill="#7a6015" stroke="#2d263c" stroke-width="3.5"/>
  <polygon points="180,205 200,192 220,205 220,228 200,242 180,228" fill="#7a6015" stroke="#2d263c" stroke-width="3.5"/>
  <polygon points="140,205 160,192 180,205 180,228 160,242 140,228" fill="#7a6015" stroke="#2d263c" stroke-width="3.5"/>
  <polygon points="220,205 240,192 255,210 245,235 220,242 210,228" fill="#7a6015" stroke="#2d263c" stroke-width="3.5"/>

  <!-- 体(胴体) -->
  <ellipse cx="180" cy="245" rx="88" ry="78" fill="#4a8ccc" stroke="#2d263c" stroke-width="8" stroke-linejoin="round"/>
  <!-- 腹部(薄い色) -->
  <ellipse cx="180" cy="258" rx="58" ry="52" fill="#a8d4f5" stroke="#2d263c" stroke-width="5"/>

  <!-- 左腕(向かって右) -->
  <ellipse cx="90" cy="235" rx="32" ry="45" fill="#4a8ccc" stroke="#2d263c" stroke-width="7" stroke-linejoin="round" transform="rotate(-15 90 235)"/>
  <!-- 左腕の甲羅砲(小型) -->
  <ellipse cx="72" cy="215" rx="22" ry="18" fill="#9b7d2a" stroke="#2d263c" stroke-width="6"/>
  <rect x="48" y="196" width="48" height="22" rx="8" fill="#7a6015" stroke="#2d263c" stroke-width="5" transform="rotate(-20 72 207)"/>
  <ellipse cx="42" cy="192" rx="14" ry="9" fill="#3a3020" stroke="#2d263c" stroke-width="5" transform="rotate(-20 42 192)"/>
  <ellipse cx="42" cy="192" rx="8" ry="5" fill="#111" transform="rotate(-20 42 192)"/>
  <!-- 左手 -->
  <ellipse cx="78" cy="278" rx="24" ry="18" fill="#4a8ccc" stroke="#2d263c" stroke-width="6" transform="rotate(10 78 278)"/>

  <!-- 右腕(向かって左) -->
  <ellipse cx="270" cy="235" rx="32" ry="45" fill="#4a8ccc" stroke="#2d263c" stroke-width="7" stroke-linejoin="round" transform="rotate(15 270 235)"/>
  <!-- 右腕の甲羅砲(小型) -->
  <ellipse cx="288" cy="215" rx="22" ry="18" fill="#9b7d2a" stroke="#2d263c" stroke-width="6"/>
  <rect x="264" y="196" width="48" height="22" rx="8" fill="#7a6015" stroke="#2d263c" stroke-width="5" transform="rotate(20 288 207)"/>
  <ellipse cx="318" cy="192" rx="14" ry="9" fill="#3a3020" stroke="#2d263c" stroke-width="5" transform="rotate(20 318 192)"/>
  <ellipse cx="318" cy="192" rx="8" ry="5" fill="#111" transform="rotate(20 318 192)"/>
  <!-- 右手 -->
  <ellipse cx="282" cy="278" rx="24" ry="18" fill="#4a8ccc" stroke="#2d263c" stroke-width="6" transform="rotate(-10 282 278)"/>

  <!-- 足 左 -->
  <ellipse cx="145" cy="320" rx="30" ry="22" fill="#4a8ccc" stroke="#2d263c" stroke-width="7" transform="rotate(-5 145 320)"/>
  <!-- 足 右 -->
  <ellipse cx="215" cy="320" rx="30" ry="22" fill="#4a8ccc" stroke="#2d263c" stroke-width="7" transform="rotate(5 215 320)"/>
  <!-- 爪左 -->
  <ellipse cx="128" cy="338" rx="10" ry="8" fill="#cca83a" stroke="#2d263c" stroke-width="4"/>
  <ellipse cx="145" cy="342" rx="10" ry="8" fill="#cca83a" stroke="#2d263c" stroke-width="4"/>
  <ellipse cx="162" cy="338" rx="10" ry="8" fill="#cca83a" stroke="#2d263c" stroke-width="4"/>
  <!-- 爪右 -->
  <ellipse cx="198" cy="338" rx="10" ry="8" fill="#cca83a" stroke="#2d263c" stroke-width="4"/>
  <ellipse cx="215" cy="342" rx="10" ry="8" fill="#cca83a" stroke="#2d263c" stroke-width="4"/>
  <ellipse cx="232" cy="338" rx="10" ry="8" fill="#cca83a" stroke="#2d263c" stroke-width="4"/>

  <!-- 頭 -->
  <ellipse cx="180" cy="168" rx="72" ry="62" fill="#4a8ccc" stroke="#2d263c" stroke-width="8" stroke-linejoin="round"/>

  <!-- 耳後ろ突起(左) -->
  <polygon points="120,138 100,105 118,120" fill="#4a8ccc" stroke="#2d263c" stroke-width="6" stroke-linejoin="round"/>
  <!-- 耳後ろ突起(右) -->
  <polygon points="240,138 260,105 242,120" fill="#4a8ccc" stroke="#2d263c" stroke-width="6" stroke-linejoin="round"/>

  <!-- 耳 左 -->
  <ellipse cx="118" cy="152" rx="16" ry="22" fill="#4a8ccc" stroke="#2d263c" stroke-width="6" transform="rotate(-20 118 152)"/>
  <!-- 耳 右 -->
  <ellipse cx="242" cy="152" rx="16" ry="22" fill="#4a8ccc" stroke="#2d263c" stroke-width="6" transform="rotate(20 242 152)"/>

  <!-- 目 左 -->
  <ellipse cx="158" cy="162" rx="18" ry="16" fill="white" stroke="#2d263c" stroke-width="5"/>
  <ellipse cx="162" cy="164" rx="10" ry="11" fill="#e83030"/>
  <ellipse cx="165" cy="162" rx="5" ry="6" fill="#1a0808"/>
  <!-- 目ハイライト -->
  <ellipse cx="160" cy="159" rx="3" ry="2.5" fill="white" opacity="0.8"/>
  <!-- 目 右 -->
  <ellipse cx="202" cy="162" rx="18" ry="16" fill="white" stroke="#2d263c" stroke-width="5"/>
  <ellipse cx="198" cy="164" rx="10" ry="11" fill="#e83030"/>
  <ellipse cx="195" cy="162" rx="5" ry="6" fill="#1a0808"/>
  <ellipse cx="200" cy="159" rx="3" ry="2.5" fill="white" opacity="0.8"/>

  <!-- まゆ(怖い顔) 左 -->
  <path d="M142,148 Q162,140 174,148" fill="none" stroke="#2d263c" stroke-width="7" stroke-linecap="round"/>
  <!-- まゆ 右 -->
  <path d="M186,148 Q198,140 218,148" fill="none" stroke="#2d263c" stroke-width="7" stroke-linecap="round"/>

  <!-- 鼻 -->
  <ellipse cx="180" cy="183" rx="8" ry="5" fill="#3575aa"/>
  <!-- 口(強そうな表情) -->
  <path d="M158,196 Q170,206 180,200 Q190,206 202,196" fill="none" stroke="#2d263c" stroke-width="5" stroke-linecap="round"/>

  <!-- 尻尾 -->
  <ellipse cx="180" cy="305" rx="18" ry="12" fill="#4a8ccc" stroke="#2d263c" stroke-width="5"/>
  <ellipse cx="180" cy="320" rx="12" ry="9" fill="#4a8ccc" stroke="#2d263c" stroke-width="4"/>
</svg>