<svg xmlns="http://www.w3.org/2000/svg" viewBox="0 0 360 360"><path d="M176 152 C128 116 64 118 30 164 C58 196 132 196 178 170 Z" fill="#3f9d4e" stroke="#2d263c" stroke-width="7" stroke-linejoin="round" stroke-linecap="round"/><path d="M184 150 C238 112 306 122 332 166 C300 200 226 194 182 170 Z" fill="#3f9d4e" stroke="#2d263c" stroke-width="7" stroke-linejoin="round" stroke-linecap="round"/><path d="M126 176 C92 192 76 238 94 268 C118 264 138 226 140 190 Z" fill="#3f9d4e" stroke="#2d263c" stroke-width="7" stroke-linejoin="round" stroke-linecap="round"/><path d="M238 178 C274 196 286 240 266 268 C242 262 224 224 224 190 Z" fill="#3f9d4e" stroke="#2d263c" stroke-width="7" stroke-linejoin="round" stroke-linecap="round"/><path d="M180 152 C146 156 122 182 132 208 C162 222 202 222 230 206 C238 180 212 154 180 152 Z" fill="#46aa56" stroke="#2d263c" stroke-width="7" stroke-linejoin="round" stroke-linecap="round"/><path d="M77 160 a7 7 0 1 0 -14 0 a7 7 0 1 0 14 0 M125 182 a5 5 0 1 0 -10 0 a5 5 0 1 0 10 0 M256 180 a6 6 0 1 0 -12 0 a6 6 0 1 0 12 0 M301 158 a5 5 0 1 0 -10 0 a5 5 0 1 0 10 0 M109 230 a5 5 0 1 0 -10 0 a5 5 0 1 0 10 0 M263 232 a5 5 0 1 0 -10 0 a5 5 0 1 0 10 0 M160 180 a5 5 0 1 0 -10 0 a5 5 0 1 0 10 0 M214 182 a4 4 0 1 0 -8 0 a4 4 0 1 0 8 0" fill="#e8f6e0"/><path d="M174 80 C148 66 140 32 164 24 C188 18 192 58 174 80 Z" fill="#f0608f" stroke="#2d263c" stroke-width="7" stroke-linejoin="round" stroke-linecap="round"/><path d="M188 78 C198 52 212 22 234 32 C248 44 218 72 188 78 Z" fill="#f0608f" stroke="#2d263c" stroke-width="7" stroke-linejoin="round" stroke-linecap="round"/><path d="M168 86 C140 72 106 76 104 96 C108 116 150 104 168 86 Z" fill="#f0608f" stroke="#2d263c" stroke-width="7" stroke-linejoin="round" stroke-linecap="round"/><path d="M194 86 C222 70 256 76 256 96 C252 116 212 104 194 86 Z" fill="#f0608f" stroke="#2d263c" stroke-width="7" stroke-linejoin="round" stroke-linecap="round"/><path d="M170 44 a4 4 0 1 0 -8 0 a4 4 0 1 0 8 0 M228 42 a4 4 0 1 0 -8 0 a4 4 0 1 0 8 0 M126 92 a4 4 0 1 0 -8 0 a4 4 0 1 0 8 0 M244 94 a4 4 0 1 0 -8 0 a4 4 0 1 0 8 0" fill="#fcd9e6"/><circle cx="181" cy="84" r="13" fill="#ffd66b" stroke="#2d263c" stroke-width="6"/><path d="M102 330 C78 304 78 252 112 226 C148 206 216 206 250 228 C282 252 282 304 258 330 C204 340 156 340 102 330 Z" fill="#5dc0a2" stroke="#2d263c" stroke-width="8" stroke-linejoin="round" stroke-linecap="round"/><path d="M116 282 C104 300 104 322 116 332 C130 336 146 334 152 330 C156 312 152 292 146 282 Z" fill="#5dc0a2" stroke="#2d263c" stroke-width="7" stroke-linejoin="round" stroke-linecap="round"/><path d="M214 284 C208 294 206 314 210 330 C220 336 238 336 248 330 C256 318 254 296 244 284 Z" fill="#5dc0a2" stroke="#2d263c" stroke-width="7" stroke-linejoin="round" stroke-linecap="round"/><path d="M118 330 L126 318 L132 330 Z M134 332 L142 320 L148 331 Z M214 331 L222 319 L228 331 Z M230 330 L238 318 L244 330 Z" fill="#ffffff" stroke="#2d263c" stroke-width="4" stroke-linejoin="round"/><path d="M137 306 a7 7 0 1 0 -14 0 a7 7 0 1 0 14 0 M257 298 a7 7 0 1 0 -14 0 a7 7 0 1 0 14 0 M104 276 a6 6 0 1 0 -12 0 a6 6 0 1 0 12 0" fill="#3c9077"/><path d="M140 206 L130 182 L160 200 Z" fill="#5dc0a2" stroke="#2d263c" stroke-width="6" stroke-linejoin="round"/><path d="M222 204 L234 180 L204 198 Z" fill="#5dc0a2" stroke="#2d263c" stroke-width="6" stroke-linejoin="round"/><path d="M112 248 C110 214 140 198 180 198 C220 198 250 214 248 250 C246 282 214 296 178 296 C142 296 114 282 112 248 Z" fill="#5dc0a2" stroke="#2d263c" stroke-width="8" stroke-linejoin="round" stroke-linecap="round"/><path d="M135 228 a5 5 0 1 0 -10 0 a5 5 0 1 0 10 0 M235.5 232 a4.5 4.5 0 1 0 -9 0 a4.5 4.5 0 1 0 9 0" fill="#3c9077"/><path d="M187 194 a7 7 0 1 0 -14 0 a7 7 0 1 0 14 0 M200 203 a7 7 0 1 0 -14 0 a7 7 0 1 0 14 0 M195 218 a7 7 0 1 0 -14 0 a7 7 0 1 0 14 0 M179 218 a7 7 0 1 0 -14 0 a7 7 0 1 0 14 0 M174 203 a7 7 0 1 0 -14 0 a7 7 0 1 0 14 0" fill="#f0608f" stroke="#2d263c" stroke-width="4" stroke-linejoin="round"/><circle cx="180" cy="207" r="5.5" fill="#fff3f7" stroke="#2d263c" stroke-width="4"/><ellipse cx="148" cy="247" rx="9" ry="13" transform="rotate(-14 148 247)" fill="#d63d52" stroke="#2d263c" stroke-width="5"/><ellipse cx="212" cy="246" rx="9" ry="13" transform="rotate(13 212 246)" fill="#d63d52" stroke="#2d263c" stroke-width="5"/><path d="M153.5 243 a3.5 3.5 0 1 0 -7 0 a3.5 3.5 0 1 0 7 0 M213.5 242 a3.5 3.5 0 1 0 -7 0 a3.5 3.5 0 1 0 7 0" fill="#ffffff"/><path d="M170 261 l7 2 M190 263 l7 -2" fill="none" stroke="#2d263c" stroke-width="4" stroke-linecap="round"/><path d="M134 270 C150 284 210 286 226 268" fill="none" stroke="#2d263c" stroke-width="7" stroke-linecap="round"/><path d="M142 273 L148 286 L155 274 Z M205 275 L211 288 L218 273 Z" fill="#ffffff" stroke="#2d263c" stroke-width="4" stroke-linejoin="round"/></svg>