<svg xmlns="http://www.w3.org/2000/svg" viewBox="0 0 360 360">
<g id="mega-burst"><circle cx="180" cy="180" r="172" fill="#fff3c0"/><polygon points="180,180 450.0,180.0 444.8,232.7" fill="#ffd96b"/><polygon points="180,180 429.4,283.3 404.5,330.0" fill="#ffb13d"/><polygon points="180,180 370.9,370.9 330.0,404.5" fill="#ffd96b"/><polygon points="180,180 283.3,429.4 232.7,444.8" fill="#ffb13d"/><polygon points="180,180 180.0,450.0 127.3,444.8" fill="#ffd96b"/><polygon points="180,180 76.7,429.4 30.0,404.5" fill="#ffb13d"/><polygon points="180,180 -10.9,370.9 -44.5,330.0" fill="#ffd96b"/><polygon points="180,180 -69.4,283.3 -84.8,232.7" fill="#ffb13d"/><polygon points="180,180 -90.0,180.0 -84.8,127.3" fill="#ffd96b"/><polygon points="180,180 -69.4,76.7 -44.5,30.0" fill="#ffb13d"/><polygon points="180,180 -10.9,-10.9 30.0,-44.5" fill="#ffd96b"/><polygon points="180,180 76.7,-69.4 127.3,-84.8" fill="#ffb13d"/><polygon points="180,180 180.0,-90.0 232.7,-84.8" fill="#ffd96b"/><polygon points="180,180 283.3,-69.4 330.0,-44.5" fill="#ffb13d"/><polygon points="180,180 370.9,-10.9 404.5,30.0" fill="#ffd96b"/><polygon points="180,180 429.4,76.7 444.8,127.3" fill="#ffb13d"/><circle cx="180" cy="180" r="120" fill="#fff3c0" opacity="0.55"/></g>
  <!-- メガドリュウズ - がんばって描いた落書き風 -->

  <!-- 後ろ足(左) -->
  <ellipse cx="128" cy="295" rx="28" ry="18" fill="#7a4e2b" stroke="#2d263c" stroke-width="7" stroke-linejoin="round"/>
  <rect x="108" y="303" width="44" height="16" rx="8" fill="#5a3519" stroke="#2d263c" stroke-width="6" stroke-linejoin="round"/>

  <!-- 後ろ足(右) -->
  <ellipse cx="235" cy="298" rx="30" ry="17" fill="#7a4e2b" stroke="#2d263c" stroke-width="7" stroke-linejoin="round"/>
  <rect x="215" y="305" width="46" height="15" rx="8" fill="#5a3519" stroke="#2d263c" stroke-width="6" stroke-linejoin="round"/>

  <!-- 胴体 -->
  <ellipse cx="182" cy="230" rx="72" ry="78" fill="#e8d8b0" stroke="#2d263c" stroke-width="8" stroke-linejoin="round"/>

  <!-- 胴体の縦縞模様 -->
  <line x1="162" y1="158" x2="155" y2="305" stroke="#c4a87a" stroke-width="9" stroke-linecap="round" opacity="0.7"/>
  <line x1="183" y1="153" x2="183" y2="307" stroke="#c4a87a" stroke-width="9" stroke-linecap="round" opacity="0.7"/>
  <line x1="204" y1="157" x2="210" y2="305" stroke="#c4a87a" stroke-width="9" stroke-linecap="round" opacity="0.7"/>

  <!-- お腹の薄い色 -->
  <ellipse cx="183" cy="250" rx="42" ry="48" fill="#f5ecd6" stroke="none"/>

  <!-- 左腕(後ろ) -->
  <path d="M 118 200 Q 85 210 72 235 Q 65 250 75 260" fill="#8c5c30" stroke="#2d263c" stroke-width="7" stroke-linejoin="round" stroke-linecap="round" fill-opacity="0"/>
  <path d="M 118 200 Q 85 210 72 235 Q 65 250 75 262 Q 82 255 90 248 Q 98 225 122 215 Z" fill="#8c5c30" stroke="#2d263c" stroke-width="7" stroke-linejoin="round"/>

  <!-- 左の大きな爪3本 -->
  <path d="M 72 255 Q 55 248 42 238 Q 38 232 45 228 Q 52 224 62 234" fill="#d0d0d0" stroke="#2d263c" stroke-width="6" stroke-linejoin="round"/>
  <path d="M 76 263 Q 58 260 44 255 Q 39 248 47 245 Q 55 242 64 252" fill="#d0d0d0" stroke="#2d263c" stroke-width="6" stroke-linejoin="round"/>
  <path d="M 78 270 Q 62 272 48 270 Q 42 264 51 260 Q 59 257 68 264" fill="#d0d0d0" stroke="#2d263c" stroke-width="6" stroke-linejoin="round"/>

  <!-- 右腕 -->
  <path d="M 248 205 Q 278 215 292 238 Q 300 252 290 264 Q 282 257 274 250 Q 265 228 242 218 Z" fill="#8c5c30" stroke="#2d263c" stroke-width="7" stroke-linejoin="round"/>

  <!-- 右の大きな爪3本 -->
  <path d="M 292 258 Q 310 250 324 240 Q 328 234 321 230 Q 314 226 304 236" fill="#d0d0d0" stroke="#2d263c" stroke-width="6" stroke-linejoin="round"/>
  <path d="M 288 266 Q 307 263 321 257 Q 326 250 318 247 Q 310 244 301 254" fill="#d0d0d0" stroke="#2d263c" stroke-width="6" stroke-linejoin="round"/>
  <path d="M 285 273 Q 302 276 317 273 Q 323 266 314 262 Q 306 259 296 266" fill="#d0d0d0" stroke="#2d263c" stroke-width="6" stroke-linejoin="round"/>

  <!-- 頭 -->
  <ellipse cx="182" cy="148" rx="65" ry="60" fill="#7a4e2b" stroke="#2d263c" stroke-width="8" stroke-linejoin="round"/>

  <!-- 頭の茶色ライン -->
  <path d="M 130 120 Q 182 108 234 122" stroke="#5a3519" stroke-width="10" fill="none" stroke-linecap="round" opacity="0.6"/>

  <!-- 耳(左・ちょっとずれてる) -->
  <path d="M 128 102 Q 115 72 122 55 Q 130 42 140 58 Q 148 75 142 100" fill="#7a4e2b" stroke="#2d263c" stroke-width="7" stroke-linejoin="round"/>
  <path d="M 130 98 Q 120 76 125 62 Q 130 54 136 64 Q 142 78 138 98" fill="#c4856a" stroke="none"/>

  <!-- 耳(右・少し大きい) -->
  <path d="M 235 98 Q 248 65 242 48 Q 234 35 224 50 Q 216 66 222 97" fill="#7a4e2b" stroke="#2d263c" stroke-width="7" stroke-linejoin="round"/>
  <path d="M 232 95 Q 243 70 238 55 Q 233 46 227 57 Q 221 70 225 95" fill="#c4856a" stroke="none"/>

  <!-- 目(左・小さくて赤い) -->
  <circle cx="158" cy="148" r="10" fill="#2d263c" stroke="#2d263c" stroke-width="3"/>
  <circle cx="158" cy="148" r="6" fill="#cc2222"/>
  <circle cx="160" cy="146" r="2" fill="white"/>

  <!-- 目(右・ちょっとでかい) -->
  <circle cx="207" cy="151" r="11" fill="#2d263c" stroke="#2d263c" stroke-width="3"/>
  <circle cx="207" cy="151" r="7" fill="#cc2222"/>
  <circle cx="209" cy="149" r="2.5" fill="white"/>

  <!-- 巨大ドリル(メガ進化版) -->
  <!-- ドリル土台 -->
  <path d="M 160 178 Q 182 172 204 178 L 198 205 Q 182 210 166 205 Z" fill="#b8b8b8" stroke="#2d263c" stroke-width="7" stroke-linejoin="round"/>

  <!-- ドリル本体 -->
  <path d="M 166 205 Q 182 210 198 205 L 188 265 Q 182 272 176 265 Z" fill="#c8c8c8" stroke="#2d263c" stroke-width="7" stroke-linejoin="round"/>

  <!-- ドリル先端 -->
  <path d="M 176 265 Q 182 272 188 265 L 182 310 Z" fill="#a0a0a0" stroke="#2d263c" stroke-width="6" stroke-linejoin="round"/>

  <!-- ドリルの螺旋線 -->
  <path d="M 167 218 Q 197 212 197 218" stroke="#888" stroke-width="4" fill="none" stroke-linecap="round"/>
  <path d="M 169 230 Q 196 224 195 230" stroke="#888" stroke-width="4" fill="none" stroke-linecap="round"/>
  <path d="M 171 242 Q 194 236 193 242" stroke="#888" stroke-width="4" fill="none" stroke-linecap="round"/>
  <path d="M 173 254 Q 191 249 190 254" stroke="#888" stroke-width="4" fill="none" stroke-linecap="round"/>

  <!-- メガ進化のエネルギー線(ちょっとぴかっとしてる) -->
  <line x1="105" y1="90" x2="88" y2="68" stroke="#ffdd00" stroke-width="5" stroke-linecap="round" opacity="0.85"/>
  <line x1="98" y1="82" x2="78" y2="78" stroke="#ffdd00" stroke-width="4" stroke-linecap="round" opacity="0.75"/>
  <line x1="262" y1="85" x2="280" y2="62" stroke="#ffdd00" stroke-width="5" stroke-linecap="round" opacity="0.85"/>
  <line x1="268" y1="78" x2="288" y2="75" stroke="#ffdd00" stroke-width="4" stroke-linecap="round" opacity="0.75"/>
</svg>