<svg xmlns="http://www.w3.org/2000/svg" viewBox="0 0 360 360">
<g id="mega-burst"><circle cx="180" cy="180" r="172" fill="#fff3c0"/><polygon points="180,180 450.0,180.0 444.8,232.7" fill="#ffd96b"/><polygon points="180,180 429.4,283.3 404.5,330.0" fill="#ffb13d"/><polygon points="180,180 370.9,370.9 330.0,404.5" fill="#ffd96b"/><polygon points="180,180 283.3,429.4 232.7,444.8" fill="#ffb13d"/><polygon points="180,180 180.0,450.0 127.3,444.8" fill="#ffd96b"/><polygon points="180,180 76.7,429.4 30.0,404.5" fill="#ffb13d"/><polygon points="180,180 -10.9,370.9 -44.5,330.0" fill="#ffd96b"/><polygon points="180,180 -69.4,283.3 -84.8,232.7" fill="#ffb13d"/><polygon points="180,180 -90.0,180.0 -84.8,127.3" fill="#ffd96b"/><polygon points="180,180 -69.4,76.7 -44.5,30.0" fill="#ffb13d"/><polygon points="180,180 -10.9,-10.9 30.0,-44.5" fill="#ffd96b"/><polygon points="180,180 76.7,-69.4 127.3,-84.8" fill="#ffb13d"/><polygon points="180,180 180.0,-90.0 232.7,-84.8" fill="#ffd96b"/><polygon points="180,180 283.3,-69.4 330.0,-44.5" fill="#ffb13d"/><polygon points="180,180 370.9,-10.9 404.5,30.0" fill="#ffd96b"/><polygon points="180,180 429.4,76.7 444.8,127.3" fill="#ffb13d"/><circle cx="180" cy="180" r="120" fill="#fff3c0" opacity="0.55"/></g>

  <!-- 影 -->
  <ellipse cx="180" cy="325" rx="88" ry="16" fill="#00000022"/>

  <!-- 甲羅(石板模様) -->
  <path d="M105,155 Q98,185 100,220 Q105,258 130,280 Q155,298 180,300 Q205,298 230,280 Q255,258 260,220 Q262,185 255,155 Q245,122 215,108 Q195,100 180,100 Q165,100 145,108 Q115,122 105,155 Z" fill="#5A4020" stroke="#2d263c" stroke-width="9" stroke-linejoin="round"/>

  <!-- 甲羅の岩の亀甲模様 -->
  <polygon points="180,118 200,132 200,155 180,168 160,155 160,132" fill="#6A5025" stroke="#2d263c" stroke-width="5" stroke-linejoin="round"/>
  <polygon points="210,138 228,150 228,170 210,182 192,170 192,150" fill="#6A5025" stroke="#2d263c" stroke-width="4" stroke-linejoin="round"/>
  <polygon points="150,138 168,150 168,170 150,182 132,170 132,150" fill="#6A5025" stroke="#2d263c" stroke-width="4" stroke-linejoin="round"/>
  <polygon points="215,178 230,190 228,210 215,218 202,208 204,188" fill="#6A5025" stroke="#2d263c" stroke-width="4" stroke-linejoin="round"/>
  <polygon points="145,178 158,188 158,210 145,218 132,208 132,188" fill="#6A5025" stroke="#2d263c" stroke-width="4" stroke-linejoin="round"/>
  <polygon points="180,202 198,213 196,236 180,244 164,236 162,213" fill="#6A5025" stroke="#2d263c" stroke-width="4" stroke-linejoin="round"/>

  <!-- 甲羅のひび(岩タイプ) -->
  <path d="M155,132 L148,145 M205,130 L212,143 M135,168 L125,175 M225,168 L235,175" stroke="#2d263c" stroke-width="3" stroke-linecap="round" fill="none" opacity="0.7"/>

  <!-- 足(左前) - 岩みたいに硬い -->
  <path d="M100,230 Q72,240 62,265 Q70,278 88,278 Q102,268 108,255" fill="#7A5530" stroke="#2d263c" stroke-width="7" stroke-linejoin="round" stroke-linecap="round"/>
  <!-- 爪(左前) -->
  <path d="M65,272 Q55,282 55,292 M76,276 Q68,287 70,297 M88,278 Q84,290 86,299" stroke="#2d263c" stroke-width="5" stroke-linecap="round" fill="none"/>

  <!-- 足(右前) -->
  <path d="M260,230 Q288,240 298,265 Q290,278 272,278 Q258,268 252,255" fill="#7A5530" stroke="#2d263c" stroke-width="7" stroke-linejoin="round" stroke-linecap="round"/>
  <!-- 爪(右前) -->
  <path d="M295,272 Q305,282 305,292 M284,276 Q292,287 290,297 M272,278 Q276,290 274,299" stroke="#2d263c" stroke-width="5" stroke-linecap="round" fill="none"/>

  <!-- 足(左後ろ) -->
  <path d="M118,290 Q105,308 108,322 Q118,328 130,325 Q138,315 132,300" fill="#7A5530" stroke="#2d263c" stroke-width="6" stroke-linejoin="round"/>

  <!-- 足(右後ろ) -->
  <path d="M242,290 Q255,308 252,322 Q242,328 230,325 Q222,315 228,300" fill="#7A5530" stroke="#2d263c" stroke-width="6" stroke-linejoin="round"/>

  <!-- 頭 -->
  <ellipse cx="180" cy="128" rx="48" ry="42" fill="#8A6535" stroke="#2d263c" stroke-width="8" stroke-linejoin="round"/>

  <!-- 頭の岩模様 -->
  <path d="M158,108 Q168,100 180,98 Q192,100 202,108" fill="none" stroke="#5A4020" stroke-width="5" stroke-linecap="round"/>

  <!-- 目(左) - 鋭い -->
  <ellipse cx="160" cy="125" rx="13" ry="14" fill="white" stroke="#2d263c" stroke-width="5"/>
  <circle cx="162" cy="124" r="8" fill="#1a1a1a"/>
  <circle cx="165" cy="121" r="3" fill="white"/>

  <!-- 目(右) -->
  <ellipse cx="200" cy="125" rx="13" ry="14" fill="white" stroke="#2d263c" stroke-width="5"/>
  <circle cx="202" cy="124" r="8" fill="#1a1a1a"/>
  <circle cx="205" cy="121" r="3" fill="white"/>

  <!-- 口(食いしばり) -->
  <path d="M164,148 Q180,156 196,148" fill="none" stroke="#2d263c" stroke-width="6" stroke-linecap="round"/>
  <path d="M167,150 L170,158 M178,151 L178,159 M189,150 L186,158" stroke="white" stroke-width="4" stroke-linecap="round" fill="none"/>

  <!-- メガの岩の突起 -->
  <polygon points="132,130 118,108 140,118" fill="#7A5530" stroke="#2d263c" stroke-width="5" stroke-linejoin="round"/>
  <polygon points="228,130 242,108 220,118" fill="#7A5530" stroke="#2d263c" stroke-width="5" stroke-linejoin="round"/>
  <polygon points="178,88 172,65 188,78" fill="#7A5530" stroke="#2d263c" stroke-width="5" stroke-linejoin="round"/>

</svg>
