<svg xmlns="http://www.w3.org/2000/svg" viewBox="0 0 360 360">
<g id="mega-burst"><circle cx="180" cy="180" r="172" fill="#fff3c0"/><polygon points="180,180 450.0,180.0 444.8,232.7" fill="#ffd96b"/><polygon points="180,180 429.4,283.3 404.5,330.0" fill="#ffb13d"/><polygon points="180,180 370.9,370.9 330.0,404.5" fill="#ffd96b"/><polygon points="180,180 283.3,429.4 232.7,444.8" fill="#ffb13d"/><polygon points="180,180 180.0,450.0 127.3,444.8" fill="#ffd96b"/><polygon points="180,180 76.7,429.4 30.0,404.5" fill="#ffb13d"/><polygon points="180,180 -10.9,370.9 -44.5,330.0" fill="#ffd96b"/><polygon points="180,180 -69.4,283.3 -84.8,232.7" fill="#ffb13d"/><polygon points="180,180 -90.0,180.0 -84.8,127.3" fill="#ffd96b"/><polygon points="180,180 -69.4,76.7 -44.5,30.0" fill="#ffb13d"/><polygon points="180,180 -10.9,-10.9 30.0,-44.5" fill="#ffd96b"/><polygon points="180,180 76.7,-69.4 127.3,-84.8" fill="#ffb13d"/><polygon points="180,180 180.0,-90.0 232.7,-84.8" fill="#ffd96b"/><polygon points="180,180 283.3,-69.4 330.0,-44.5" fill="#ffb13d"/><polygon points="180,180 370.9,-10.9 404.5,30.0" fill="#ffd96b"/><polygon points="180,180 429.4,76.7 444.8,127.3" fill="#ffb13d"/><circle cx="180" cy="180" r="120" fill="#fff3c0" opacity="0.55"/></g>
  <!-- === 後ろ: しっぽ === -->
  <path d="M215 245 Q260 220 275 190 Q285 165 268 152 Q252 140 240 158 Q232 170 242 182 Q255 195 248 212 Q238 230 220 245" fill="#e8e0f0" stroke="#2d263c" stroke-width="7" stroke-linejoin="round" stroke-linecap="round"/>
  <!-- しっぽ先の広がり -->
  <ellipse cx="262" cy="148" rx="18" ry="12" transform="rotate(-30 262 148)" fill="#b8a8d0" stroke="#2d263c" stroke-width="6" stroke-linejoin="round"/>

  <!-- === 後ろ足(左=画面右) === -->
  <path d="M200 290 Q206 310 198 330 Q194 340 188 338 Q180 336 181 326 Q183 316 186 305 Q188 295 192 290" fill="#d8d0e8" stroke="#2d263c" stroke-width="7" stroke-linejoin="round" stroke-linecap="round"/>
  <!-- 後ろ足つま先 -->
  <ellipse cx="187" cy="334" rx="11" ry="6" fill="#9888b8" stroke="#2d263c" stroke-width="5"/>

  <!-- === 後ろ足(右=画面左) === -->
  <path d="M148 290 Q142 312 148 330 Q151 340 158 338 Q166 336 165 326 Q163 316 160 305 Q157 295 153 290" fill="#d8d0e8" stroke="#2d263c" stroke-width="7" stroke-linejoin="round" stroke-linecap="round"/>
  <ellipse cx="158" cy="334" rx="11" ry="6" fill="#9888b8" stroke="#2d263c" stroke-width="5"/>

  <!-- === 体(メイン) === -->
  <path d="M115 200 Q108 240 110 280 Q112 300 148 298 Q170 296 178 292 Q186 296 200 298 Q236 302 242 278 Q248 255 244 215 Q240 185 230 170 Q210 148 178 146 Q146 146 128 168 Q116 183 115 200Z" fill="#f0ecd8" stroke="#2d263c" stroke-width="8" stroke-linejoin="round"/>

  <!-- お腹の色(薄クリーム円) -->
  <ellipse cx="178" cy="235" rx="38" ry="48" fill="#faf8f0" stroke="none"/>

  <!-- === 首のリング(青い飾り) === -->
  <path d="M148 168 Q178 158 210 168 Q215 175 210 182 Q178 172 148 182 Q143 175 148 168Z" fill="#7ab8d4" stroke="#2d263c" stroke-width="6" stroke-linejoin="round"/>

  <!-- === 腰の飾り(マント状・紫) === -->
  <path d="M116 220 Q98 225 90 240 Q88 252 100 258 Q112 262 120 252 Q118 238 116 220Z" fill="#c0a8dc" stroke="#2d263c" stroke-width="6" stroke-linejoin="round" stroke-linecap="round"/>
  <path d="M240 218 Q258 222 266 238 Q269 250 257 257 Q245 263 237 252 Q240 236 240 218Z" fill="#c0a8dc" stroke="#2d263c" stroke-width="6" stroke-linejoin="round" stroke-linecap="round"/>

  <!-- === 前足(左=画面右) === -->
  <path d="M210 220 Q224 230 228 252 Q230 265 222 268 Q212 270 208 260 Q206 248 210 234 Q210 226 210 220Z" fill="#e8e0f0" stroke="#2d263c" stroke-width="7" stroke-linejoin="round" stroke-linecap="round"/>
  <ellipse cx="214" cy="267" rx="10" ry="5" fill="#9888b8" stroke="#2d263c" stroke-width="5"/>

  <!-- === 前足(右=画面左) === -->
  <path d="M146 218 Q132 228 128 250 Q126 263 134 267 Q144 270 148 260 Q151 248 148 232 Q147 224 146 218Z" fill="#e8e0f0" stroke="#2d263c" stroke-width="7" stroke-linejoin="round" stroke-linecap="round"/>
  <ellipse cx="138" cy="266" rx="10" ry="5" fill="#9888b8" stroke="#2d263c" stroke-width="5"/>

  <!-- === 頭 === -->
  <ellipse cx="178" cy="115" rx="52" ry="48" fill="#f0ecd8" stroke="#2d263c" stroke-width="8" stroke-linejoin="round"/>

  <!-- === 耳(左=画面右) ★メガニャオニクス特徴の大きい耳 === -->
  <path d="M196 80 Q202 42 218 22 Q228 10 238 16 Q248 24 242 42 Q236 58 222 72 Q210 82 200 84Z" fill="#e8e0f0" stroke="#2d263c" stroke-width="7" stroke-linejoin="round" stroke-linecap="round"/>
  <!-- 耳内側(紫) -->
  <path d="M200 78 Q206 48 218 30 Q226 18 234 22 Q240 28 235 44 Q230 58 218 70 Q208 78 202 80Z" fill="#c0a0d8" stroke="none"/>

  <!-- === 耳(右=画面左) === -->
  <path d="M160 80 Q154 42 138 22 Q128 10 118 16 Q108 24 114 42 Q120 58 134 72 Q146 82 156 84Z" fill="#e8e0f0" stroke="#2d263c" stroke-width="7" stroke-linejoin="round" stroke-linecap="round"/>
  <!-- 耳内側(紫) -->
  <path d="M156 78 Q150 48 138 30 Q130 18 124 22 Q118 28 123 44 Q128 58 140 70 Q150 78 154 80Z" fill="#c0a0d8" stroke="none"/>

  <!-- === 耳先の"第三の目"(メガ特徴) === -->
  <!-- 右耳先の目 -->
  <ellipse cx="228" cy="28" rx="10" ry="8" fill="#6aebeb" stroke="#2d263c" stroke-width="4"/>
  <ellipse cx="228" cy="28" rx="5" ry="6" fill="#2466aa" stroke="none"/>
  <ellipse cx="226" cy="26" rx="2" ry="2" fill="white" stroke="none"/>
  <!-- 左耳先の目 -->
  <ellipse cx="128" cy="28" rx="10" ry="8" fill="#6aebeb" stroke="#2d263c" stroke-width="4"/>
  <ellipse cx="128" cy="28" rx="5" ry="6" fill="#2466aa" stroke="none"/>
  <ellipse cx="126" cy="26" rx="2" ry="2" fill="white" stroke="none"/>

  <!-- === 顔パーツ === -->
  <!-- 目(右=画面左) つり目でクール -->
  <path d="M150 112 Q156 106 164 108 Q168 114 164 120 Q157 122 152 118 Q148 115 150 112Z" fill="#2466aa" stroke="#2d263c" stroke-width="4" stroke-linejoin="round"/>
  <!-- 目のハイライト -->
  <ellipse cx="157" cy="112" rx="3" ry="2" fill="white" stroke="none"/>
  <!-- まぶた(つり目ライン) -->
  <path d="M148 110 Q156 104 166 107" fill="none" stroke="#2d263c" stroke-width="4" stroke-linecap="round"/>

  <!-- 目(左=画面右) -->
  <path d="M192 112 Q198 106 206 108 Q210 114 206 120 Q199 122 194 118 Q190 115 192 112Z" fill="#2466aa" stroke="#2d263c" stroke-width="4" stroke-linejoin="round"/>
  <ellipse cx="199" cy="112" rx="3" ry="2" fill="white" stroke="none"/>
  <path d="M190 110 Q198 104 208 107" fill="none" stroke="#2d263c" stroke-width="4" stroke-linecap="round"/>

  <!-- 鼻(三角) -->
  <path d="M175 124 L178 120 L181 124 Q179 128 178 128 Q177 128 175 124Z" fill="#d4a0b8" stroke="#2d263c" stroke-width="3"/>

  <!-- 口(ちょっとへの字) -->
  <path d="M170 132 Q178 136 186 132" fill="none" stroke="#2d263c" stroke-width="4" stroke-linecap="round"/>

  <!-- ひげ(右) -->
  <path d="M183 126 L215 118" fill="none" stroke="#2d263c" stroke-width="3" stroke-linecap="round"/>
  <path d="M184 130 L216 128" fill="none" stroke="#2d263c" stroke-width="3" stroke-linecap="round"/>
  <path d="M183 134 L213 138" fill="none" stroke="#2d263c" stroke-width="3" stroke-linecap="round"/>
  <!-- ひげ(左) -->
  <path d="M173 126 L141 118" fill="none" stroke="#2d263c" stroke-width="3" stroke-linecap="round"/>
  <path d="M172 130 L140 128" fill="none" stroke="#2d263c" stroke-width="3" stroke-linecap="round"/>
  <path d="M173 134 L143 138" fill="none" stroke="#2d263c" stroke-width="3" stroke-linecap="round"/>

  <!-- ほっぺ(うっすらピンク) -->
  <ellipse cx="148" cy="130" rx="12" ry="8" fill="#f4b8c8" opacity="0.5" stroke="none"/>
  <ellipse cx="208" cy="130" rx="12" ry="8" fill="#f4b8c8" opacity="0.5" stroke="none"/>

  <!-- === 額のサイキックマーク(メガ特徴) === -->
  <path d="M170 90 Q178 82 186 90 Q182 97 178 96 Q174 97 170 90Z" fill="#9870c8" stroke="#2d263c" stroke-width="4" stroke-linejoin="round"/>
</svg>