<svg xmlns="http://www.w3.org/2000/svg" viewBox="0 0 360 360">
  <path d="M140,170 C134,130 135,90 142,64 C168,55 198,55 221,62 C226,96 224,134 216,170 Z" fill="#9a9183" stroke="#2d263c" stroke-width="7" stroke-linejoin="round" stroke-linecap="round"/>
  <path d="M142,110 C166,118 198,118 218,107 L216,127 C196,135 166,135 143,128 Z" fill="#75695a" stroke="#2d263c" stroke-width="6" stroke-linejoin="round"/>
  <ellipse cx="181" cy="62" rx="42" ry="17" fill="#75695a" stroke="#2d263c" stroke-width="7"/>
  <ellipse cx="181" cy="61" rx="26" ry="9" fill="#36302b" stroke="#2d263c" stroke-width="6"/>
  <circle cx="154" cy="151" r="5" fill="#6b6258" stroke="#2d263c" stroke-width="6"/>
  <circle cx="206" cy="148" r="5" fill="#6b6258" stroke="#2d263c" stroke-width="6"/>
  <path d="M238,288 C266,301 291,287 284,258 C280,275 265,282 249,275 Z" fill="#4596c8" stroke="#2d263c" stroke-width="7" stroke-linejoin="round" stroke-linecap="round"/>
  <path d="M124,196 C105,210 103,247 118,267 L132,258 C120,242 120,213 133,201 Z" fill="#8a5f3b" stroke="#2d263c" stroke-width="7" stroke-linejoin="round"/>
  <path d="M236,195 C255,209 257,246 242,266 L228,257 C240,241 240,212 227,200 Z" fill="#8a5f3b" stroke="#2d263c" stroke-width="7" stroke-linejoin="round"/>
  <path d="M180,168 C133,167 113,196 114,235 C115,279 141,301 181,300 C221,299 247,277 246,233 C245,195 227,169 180,168 Z" fill="#4596c8" stroke="#2d263c" stroke-width="8" stroke-linejoin="round"/>
  <path d="M180,182 C151,182 136,205 137,237 C138,268 155,288 181,288 C208,288 226,266 225,234 C224,203 209,182 180,182 Z" fill="#f3dfae" stroke="#2d263c" stroke-width="7" stroke-linejoin="round"/>
  <path d="M141,223 C163,231 200,231 221,221 M143,254 C164,262 198,262 219,252" fill="none" stroke="#2d263c" stroke-width="6" stroke-linecap="round"/>
  <path d="M122,212 C100,219 86,237 85,257 C93,266 107,268 116,260 C121,244 126,227 129,216 Z" fill="#4596c8" stroke="#2d263c" stroke-width="7" stroke-linejoin="round"/>
  <path d="M239,209 C261,213 277,228 282,247 C275,258 261,262 252,255 C246,240 242,223 238,213 Z" fill="#4596c8" stroke="#2d263c" stroke-width="7" stroke-linejoin="round"/>
  <rect x="66" y="244" width="35" height="47" rx="15" fill="#9a9183" stroke="#2d263c" stroke-width="7"/>
  <rect x="258" y="240" width="35" height="47" rx="15" fill="#9a9183" stroke="#2d263c" stroke-width="7"/>
  <ellipse cx="83" cy="291" rx="12" ry="6" fill="#36302b" stroke="#2d263c" stroke-width="6"/>
  <ellipse cx="276" cy="287" rx="12" ry="6" fill="#36302b" stroke="#2d263c" stroke-width="6"/>
  <path d="M143,291 C128,295 121,310 127,322 C139,330 157,330 165,321 C163,308 157,296 153,290 Z" fill="#4596c8" stroke="#2d263c" stroke-width="7" stroke-linejoin="round"/>
  <path d="M218,290 C233,294 239,309 233,321 C221,329 203,329 196,320 C198,307 204,295 209,289 Z" fill="#4596c8" stroke="#2d263c" stroke-width="7" stroke-linejoin="round"/>
  <path d="M139,323 L134,334 M151,327 L150,336 M210,326 L211,335 M222,322 L227,333" fill="none" stroke="#2d263c" stroke-width="6" stroke-linecap="round"/>
  <path d="M140,106 L116,90 L133,122 Z" fill="#2e6391" stroke="#2d263c" stroke-width="6" stroke-linejoin="round"/>
  <path d="M222,103 L247,86 L231,119 Z" fill="#2e6391" stroke="#2d263c" stroke-width="6" stroke-linejoin="round"/>
  <path d="M180,90 C148,90 130,112 131,141 C132,168 152,182 181,182 C211,182 230,166 230,138 C230,110 212,90 180,90 Z" fill="#4596c8" stroke="#2d263c" stroke-width="8" stroke-linejoin="round"/>
  <path d="M146,118 C155,110 167,110 174,116" fill="none" stroke="#2e6391" stroke-width="8" stroke-linecap="round"/>
  <path d="M188,115 C196,108 208,109 216,116" fill="none" stroke="#2e6391" stroke-width="8" stroke-linecap="round"/>
  <ellipse cx="160" cy="135" rx="10" ry="11" fill="#ffffff" stroke="#2d263c" stroke-width="6"/>
  <ellipse cx="203" cy="134" rx="11" ry="10" fill="#ffffff" stroke="#2d263c" stroke-width="6"/>
  <circle cx="163" cy="137" r="4.5" fill="#5b3a23"/>
  <circle cx="200" cy="136" r="4.5" fill="#5b3a23"/>
  <path d="M172,149 L176,151 M190,148 L186,150" fill="none" stroke="#2d263c" stroke-width="6" stroke-linecap="round"/>
  <path d="M151,157 C165,166 198,166 212,155" fill="none" stroke="#2d263c" stroke-width="7" stroke-linecap="round"/>
</svg>