<svg xmlns="http://www.w3.org/2000/svg" viewBox="0 0 360 360"><g stroke="#2d263c" stroke-width="7" stroke-linejoin="round" stroke-linecap="round"><path d="M100 215 C70 215 40 195 26 162 C50 168 86 178 106 196 Z" fill="#4f9e45"/><path d="M262 195 C292 198 322 176 336 142 C310 150 276 162 258 180 Z" fill="#4f9e45"/><path d="M186 56 C184 44 188 34 198 26 L212 34 C202 42 199 50 201 58 Z" fill="#4f9e45"/><path d="M200 32 C232 20 290 20 322 40 C290 58 240 62 202 46 Z" fill="#4f9e45"/><path d="M210 36 Q264 36 312 40" fill="none" stroke-width="5"/><path d="M180 52 C142 52 116 78 114 110 C113 132 110 150 102 164 C66 192 50 242 58 276 C66 310 104 332 152 334 C206 336 264 326 288 296 C308 268 308 218 284 184 C270 164 248 146 246 118 C244 84 218 52 180 52 Z" fill="#f2cc4a"/><path d="M96 238 Q88 262 98 284" fill="none" stroke-width="5"/><path d="M252 224 Q263 250 254 276" fill="none" stroke-width="5"/><path d="M104 158 Q180 186 250 152 L254 168 Q180 204 102 176 Z" fill="#6a9a3f" stroke-width="6"/><path d="M104 182 Q180 210 252 176 L254 192 Q180 226 104 200 Z" fill="#6a9a3f" stroke-width="6"/><ellipse cx="258" cy="164" rx="11" ry="9" fill="#6a9a3f" stroke-width="6"/><ellipse cx="263" cy="186" rx="9" ry="8" fill="#6a9a3f" stroke-width="6"/><path d="M124 110 C138 90 162 96 180 102 C198 96 222 90 236 110 C212 120 148 120 124 110 Z" fill="#ef85a8"/><path d="M126 112 C134 138 156 152 180 152 C204 152 226 138 234 112 C212 124 148 124 126 112 Z" fill="#ef85a8"/><path d="M128 111 Q180 122 232 111" fill="none" stroke-width="6"/><path d="M238 118 C234 132 229 142 233 152 C236 160 245 158 246 150 C247 140 242 130 238 118 Z" fill="#9c5fd0" stroke-width="5"/><path d="M128 62 Q144 72 162 74" fill="none"/><path d="M234 60 Q218 70 200 72" fill="none"/><ellipse cx="148" cy="81" rx="7" ry="6" fill="#2d263c" stroke-width="4"/><ellipse cx="212" cy="79" rx="7" ry="6" fill="#2d263c" stroke-width="4"/></g></svg>