<svg xmlns="http://www.w3.org/2000/svg" viewBox="0 0 360 360">
  <g stroke="#2d263c" stroke-linejoin="round" stroke-linecap="round">
    <path transform="translate(-6 58)" d="M 128 196 C 96 188 64 168 46 134 C 40 122 38 108 40 94 C 58 100 72 110 82 122 C 80 106 82 92 88 78 C 104 92 114 110 118 128 C 124 116 132 106 144 100 C 148 124 144 152 132 176 Z" fill="#fff4f8" stroke-width="8"/>
    <path transform="translate(4 55)" d="M 232 192 C 268 186 300 164 318 128 C 324 114 326 100 324 86 C 306 94 292 104 282 116 C 286 100 286 84 280 70 C 264 86 252 106 248 124 C 242 112 234 102 222 96 C 216 122 220 152 232 176 Z" fill="#fff4f8" stroke-width="8"/>
    <path d="M 260 258 C 286 246 312 258 314 282 C 315 302 296 314 278 308 C 264 303 258 290 266 280 Z" fill="#f7b3cb" stroke-width="7"/>
    <path d="M 282 296 C 272 292 270 282 278 277 C 286 272 296 278 294 288" fill="none" stroke-width="5"/>
    <path d="M 150 112 C 138 86 118 56 95 38 C 88 68 94 100 110 124 Z" fill="#f7b3cb" stroke-width="8"/>
    <path d="M 218 108 C 232 82 248 52 268 34 C 278 64 272 100 252 124 Z" fill="#f7b3cb" stroke-width="8"/>
    <path d="M 95 38 C 102 52 108 64 113 76 C 121 68 128 58 134 50 C 122 44 108 40 95 38 Z" fill="#6e4a3c" stroke-width="6"/>
    <path d="M 268 34 C 270 50 268 62 263 76 C 254 68 246 58 240 48 C 249 42 258 37 268 34 Z" fill="#6e4a3c" stroke-width="6"/>
    <path d="M 178 92 C 138 94 118 122 116 152 C 100 168 88 200 92 238 C 95 278 122 306 162 312 C 175 316 192 315 206 311 C 244 303 268 274 270 234 C 272 198 260 166 244 150 C 240 118 216 90 178 92 Z" fill="#f7b3cb" stroke-width="8"/>
    <path d="M 165 100 C 150 74 168 50 192 56 C 210 61 212 82 197 90 C 187 95 176 90 178 79 C 186 84 194 78 189 70 C 183 61 169 66 170 82 Z" fill="#f7b3cb" stroke-width="6"/>
    <path d="M 104 214 C 84 224 72 240 70 256 C 82 264 98 260 110 250 C 114 238 112 224 104 214 Z" fill="#f7b3cb" stroke-width="7"/>
    <path d="M 76 246 L 84 238 M 84 256 L 92 246" fill="none" stroke-width="5"/>
    <path d="M 252 200 C 274 190 290 172 296 150 C 284 142 268 146 258 160 C 250 174 248 188 252 200 Z" fill="#f7b3cb" stroke-width="7"/>
    <path d="M 290 148 L 283 158 M 296 156 L 287 162" fill="none" stroke-width="5"/>
    <path d="M 134 308 C 124 316 124 326 134 330 C 146 334 158 330 160 320 C 158 310 144 304 134 308 Z" fill="#f7b3cb" stroke-width="7"/>
    <path d="M 196 312 C 192 322 196 330 208 332 C 220 334 230 328 228 318 C 224 308 204 304 196 312 Z" fill="#f7b3cb" stroke-width="7"/>
    <ellipse cx="138" cy="192" rx="13" ry="9" fill="#f4849f" stroke="none"/>
    <ellipse cx="232" cy="188" rx="12" ry="8" fill="#f4849f" stroke="none"/>
    <ellipse cx="157" cy="167" rx="6.5" ry="9" fill="#2d263c" stroke="none"/>
    <ellipse cx="213" cy="164" rx="7.5" ry="10" fill="#2d263c" stroke="none"/>
    <circle cx="159" cy="164" r="2.5" fill="#ffffff" stroke="none"/>
    <circle cx="215" cy="161" r="2.8" fill="#ffffff" stroke="none"/>
    <path d="M 166 197 C 176 207 198 206 207 195 C 204 219 172 220 166 197 Z" fill="#a14e68" stroke-width="6"/>
    <path d="M 46 246 L 52 260 L 66 266 L 52 272 L 46 286 L 40 272 L 26 266 L 40 260 Z" fill="#ffd86b" stroke-width="5"/>
    <path d="M 312 32 L 317 43 L 328 48 L 317 53 L 312 64 L 307 53 L 296 48 L 307 43 Z" fill="#ffd86b" stroke-width="5"/>
  </g>
</svg>