<svg xmlns="http://www.w3.org/2000/svg" viewBox="0 0 360 360">
<g id="mega-burst"><circle cx="180" cy="180" r="172" fill="#fff3c0"/><polygon points="180,180 450.0,180.0 444.8,232.7" fill="#ffd96b"/><polygon points="180,180 429.4,283.3 404.5,330.0" fill="#ffb13d"/><polygon points="180,180 370.9,370.9 330.0,404.5" fill="#ffd96b"/><polygon points="180,180 283.3,429.4 232.7,444.8" fill="#ffb13d"/><polygon points="180,180 180.0,450.0 127.3,444.8" fill="#ffd96b"/><polygon points="180,180 76.7,429.4 30.0,404.5" fill="#ffb13d"/><polygon points="180,180 -10.9,370.9 -44.5,330.0" fill="#ffd96b"/><polygon points="180,180 -69.4,283.3 -84.8,232.7" fill="#ffb13d"/><polygon points="180,180 -90.0,180.0 -84.8,127.3" fill="#ffd96b"/><polygon points="180,180 -69.4,76.7 -44.5,30.0" fill="#ffb13d"/><polygon points="180,180 -10.9,-10.9 30.0,-44.5" fill="#ffd96b"/><polygon points="180,180 76.7,-69.4 127.3,-84.8" fill="#ffb13d"/><polygon points="180,180 180.0,-90.0 232.7,-84.8" fill="#ffd96b"/><polygon points="180,180 283.3,-69.4 330.0,-44.5" fill="#ffb13d"/><polygon points="180,180 370.9,-10.9 404.5,30.0" fill="#ffd96b"/><polygon points="180,180 429.4,76.7 444.8,127.3" fill="#ffb13d"/><circle cx="180" cy="180" r="120" fill="#fff3c0" opacity="0.55"/></g>
  <!-- 後ろの翼(下2枚) -->
  <ellipse cx="105" cy="155" rx="52" ry="28" fill="#ffd6ea" stroke="#2d263c" stroke-width="6" stroke-linejoin="round" transform="rotate(-35 105 155)"/>
  <ellipse cx="258" cy="158" rx="50" ry="26" fill="#ffd6ea" stroke="#2d263c" stroke-width="6" stroke-linejoin="round" transform="rotate(30 258 158)"/>

  <!-- しっぽ -->
  <path d="M 195 248 Q 225 270 238 255 Q 252 238 230 232" fill="none" stroke="#f07fa0" stroke-width="10" stroke-linecap="round" stroke-linejoin="round"/>
  <circle cx="233" cy="230" r="9" fill="#f07fa0" stroke="#2d263c" stroke-width="5"/>

  <!-- 体 -->
  <ellipse cx="182" cy="228" rx="70" ry="58" fill="#ffb7c5" stroke="#2d263c" stroke-width="8" stroke-linejoin="round"/>

  <!-- お腹(薄い色) -->
  <ellipse cx="182" cy="238" rx="42" ry="34" fill="#ffe0eb" stroke="#2d263c" stroke-width="5" stroke-linejoin="round"/>

  <!-- 前の翼(上2枚) -->
  <ellipse cx="100" cy="175" rx="60" ry="22" fill="#fff0f6" stroke="#2d263c" stroke-width="6" stroke-linejoin="round" transform="rotate(-25 100 175)"/>
  <ellipse cx="265" cy="178" rx="58" ry="21" fill="#fff0f6" stroke="#2d263c" stroke-width="6" stroke-linejoin="round" transform="rotate(22 265 178)"/>

  <!-- 頭 -->
  <ellipse cx="181" cy="168" rx="56" ry="52" fill="#ffb7c5" stroke="#2d263c" stroke-width="8" stroke-linejoin="round"/>

  <!-- 左耳 -->
  <polygon points="138,130 128,72 158,118" fill="#ffb7c5" stroke="#2d263c" stroke-width="7" stroke-linejoin="round"/>
  <!-- 左耳内側 -->
  <polygon points="140,124 133,82 154,116" fill="#f07fa0" stroke="none"/>

  <!-- 右耳(少し非対称) -->
  <polygon points="224,128 238,68 213,115" fill="#ffb7c5" stroke="#2d263c" stroke-width="7" stroke-linejoin="round"/>
  <!-- 右耳内側 -->
  <polygon points="221,122 232,78 212,113" fill="#f07fa0" stroke="none"/>

  <!-- 目(左) — 大きめ青目 -->
  <ellipse cx="158" cy="172" rx="16" ry="17" fill="white" stroke="#2d263c" stroke-width="5"/>
  <ellipse cx="160" cy="174" rx="11" ry="12" fill="#5ab4e8"/>
  <ellipse cx="161" cy="175" rx="7" ry="7" fill="#2255aa"/>
  <circle cx="164" cy="171" r="4" fill="white"/>

  <!-- 目(右) — 少し違う形 -->
  <ellipse cx="207" cy="171" rx="15" ry="18" fill="white" stroke="#2d263c" stroke-width="5"/>
  <ellipse cx="208" cy="173" rx="10" ry="12" fill="#5ab4e8"/>
  <ellipse cx="209" cy="174" rx="7" ry="7" fill="#2255aa"/>
  <circle cx="212" cy="170" r="4" fill="white"/>

  <!-- ほっぺ (チーク) -->
  <ellipse cx="143" cy="190" rx="13" ry="9" fill="#f07fa0" opacity="0.7"/>
  <ellipse cx="223" cy="189" rx="12" ry="9" fill="#f07fa0" opacity="0.7"/>

  <!-- 鼻 -->
  <ellipse cx="182" cy="188" rx="5" ry="4" fill="#e06080"/>

  <!-- 口 (ちょっとニヤッとした感じ) -->
  <path d="M 171 198 Q 182 208 194 198" fill="none" stroke="#2d263c" stroke-width="5" stroke-linecap="round"/>

  <!-- 足(左) -->
  <ellipse cx="158" cy="282" rx="22" ry="15" fill="#ffb7c5" stroke="#2d263c" stroke-width="7" stroke-linejoin="round"/>
  <!-- 足(右) -->
  <ellipse cx="207" cy="284" rx="21" ry="14" fill="#ffb7c5" stroke="#2d263c" stroke-width="7" stroke-linejoin="round"/>

  <!-- 手(左) -->
  <ellipse cx="122" cy="232" rx="16" ry="12" fill="#ffb7c5" stroke="#2d263c" stroke-width="6" stroke-linejoin="round" transform="rotate(-20 122 232)"/>
  <!-- 手(右) -->
  <ellipse cx="244" cy="234" rx="15" ry="12" fill="#ffb7c5" stroke="#2d263c" stroke-width="6" stroke-linejoin="round" transform="rotate(15 244 234)"/>

  <!-- 頭の輝きっぽいハイライト(メガシンカ演出) -->
  <circle cx="148" cy="148" r="6" fill="#ffffff" stroke="#2d263c" stroke-width="3" opacity="0.8"/>
  <circle cx="215" cy="142" r="4" fill="#ffffff" stroke="#2d263c" stroke-width="2.5" opacity="0.7"/>
</svg>