<svg xmlns="http://www.w3.org/2000/svg" viewBox="0 0 360 360">
<g id="mega-burst"><circle cx="180" cy="180" r="172" fill="#fff3c0"/><polygon points="180,180 450.0,180.0 444.8,232.7" fill="#ffd96b"/><polygon points="180,180 429.4,283.3 404.5,330.0" fill="#ffb13d"/><polygon points="180,180 370.9,370.9 330.0,404.5" fill="#ffd96b"/><polygon points="180,180 283.3,429.4 232.7,444.8" fill="#ffb13d"/><polygon points="180,180 180.0,450.0 127.3,444.8" fill="#ffd96b"/><polygon points="180,180 76.7,429.4 30.0,404.5" fill="#ffb13d"/><polygon points="180,180 -10.9,370.9 -44.5,330.0" fill="#ffd96b"/><polygon points="180,180 -69.4,283.3 -84.8,232.7" fill="#ffb13d"/><polygon points="180,180 -90.0,180.0 -84.8,127.3" fill="#ffd96b"/><polygon points="180,180 -69.4,76.7 -44.5,30.0" fill="#ffb13d"/><polygon points="180,180 -10.9,-10.9 30.0,-44.5" fill="#ffd96b"/><polygon points="180,180 76.7,-69.4 127.3,-84.8" fill="#ffb13d"/><polygon points="180,180 180.0,-90.0 232.7,-84.8" fill="#ffd96b"/><polygon points="180,180 283.3,-69.4 330.0,-44.5" fill="#ffb13d"/><polygon points="180,180 370.9,-10.9 404.5,30.0" fill="#ffd96b"/><polygon points="180,180 429.4,76.7 444.8,127.3" fill="#ffb13d"/><circle cx="180" cy="180" r="120" fill="#fff3c0" opacity="0.55"/></g>
  <!-- 翼(左・後ろ) -->
  <path d="M80 130 Q20 80 10 40 Q30 60 50 75 Q15 30 25 10 Q55 55 65 90 Q40 50 55 35 Q75 75 72 110 Z" fill="#1a2550" stroke="#2d263c" stroke-width="7" stroke-linejoin="round" stroke-linecap="round"/>
  <!-- 翼(右・後ろ) -->
  <path d="M275 130 Q340 80 350 40 Q330 60 310 75 Q345 30 335 10 Q305 55 295 90 Q320 50 305 35 Q285 75 288 110 Z" fill="#1a2550" stroke="#2d263c" stroke-width="7" stroke-linejoin="round" stroke-linecap="round"/>

  <!-- しっぽ -->
  <path d="M190 270 Q220 300 235 330 Q215 310 200 340 Q185 310 178 335 Q170 305 175 275 Z" fill="#1e2d6b" stroke="#2d263c" stroke-width="7" stroke-linejoin="round" stroke-linecap="round"/>
  <!-- 青い炎 -->
  <path d="M200 335 Q215 320 225 340 Q218 325 230 345 Q205 360 192 342 Q180 355 185 338 Q193 320 200 335 Z" fill="#5ab4ff" stroke="#2d7ac9" stroke-width="4" stroke-linejoin="round" stroke-linecap="round"/>
  <path d="M200 338 Q208 328 213 342 Q206 332 215 347 Q202 355 196 345 Q191 350 193 340 Q197 328 200 338 Z" fill="#a0d8ff" stroke="none"/>

  <!-- 体 -->
  <ellipse cx="180" cy="200" rx="62" ry="80" fill="#1a2a6e" stroke="#2d263c" stroke-width="8" stroke-linejoin="round"/>
  <!-- 腹甲 -->
  <ellipse cx="178" cy="208" rx="36" ry="52" fill="#e8d8b0" stroke="#2d263c" stroke-width="5" stroke-linejoin="round"/>
  <!-- 腹甲の横線 -->
  <path d="M152 190 Q178 185 204 190" fill="none" stroke="#c4a87a" stroke-width="3" stroke-linecap="round"/>
  <path d="M148 205 Q178 200 208 205" fill="none" stroke="#c4a87a" stroke-width="3" stroke-linecap="round"/>
  <path d="M150 220 Q178 216 206 220" fill="none" stroke="#c4a87a" stroke-width="3" stroke-linecap="round"/>

  <!-- 腕(左) -->
  <path d="M122 175 Q90 185 78 210 Q85 215 95 210 Q88 230 98 238 Q108 215 118 205 Z" fill="#1a2a6e" stroke="#2d263c" stroke-width="7" stroke-linejoin="round" stroke-linecap="round"/>
  <!-- 爪(左) -->
  <path d="M78 210 Q68 215 65 225" fill="none" stroke="#2d263c" stroke-width="6" stroke-linecap="round"/>
  <path d="M85 215 Q76 222 75 233" fill="none" stroke="#2d263c" stroke-width="6" stroke-linecap="round"/>
  <path d="M95 210 Q90 220 92 230" fill="none" stroke="#2d263c" stroke-width="6" stroke-linecap="round"/>

  <!-- 腕(右) -->
  <path d="M238 175 Q270 185 282 210 Q275 215 265 210 Q272 230 262 238 Q252 215 242 205 Z" fill="#1a2a6e" stroke="#2d263c" stroke-width="7" stroke-linejoin="round" stroke-linecap="round"/>
  <!-- 爪(右) -->
  <path d="M282 210 Q292 215 295 225" fill="none" stroke="#2d263c" stroke-width="6" stroke-linecap="round"/>
  <path d="M275 215 Q284 222 285 233" fill="none" stroke="#2d263c" stroke-width="6" stroke-linecap="round"/>
  <path d="M265 210 Q270 220 268 230" fill="none" stroke="#2d263c" stroke-width="6" stroke-linecap="round"/>

  <!-- 足(左) -->
  <path d="M158 272 Q148 295 140 315 Q155 308 158 320 Q165 305 168 320 Q172 305 178 318 Q175 295 172 272 Z" fill="#1a2a6e" stroke="#2d263c" stroke-width="7" stroke-linejoin="round" stroke-linecap="round"/>
  <!-- 足(右) -->
  <path d="M202 272 Q212 295 220 315 Q205 308 202 320 Q195 305 190 320 Q186 305 182 318 Q185 295 188 272 Z" fill="#1a2a6e" stroke="#2d263c" stroke-width="7" stroke-linejoin="round" stroke-linecap="round"/>

  <!-- 首 -->
  <path d="M158 130 Q160 118 180 115 Q200 118 202 130 L200 150 Q180 145 160 150 Z" fill="#1a2a6e" stroke="#2d263c" stroke-width="7" stroke-linejoin="round"/>

  <!-- 頭 -->
  <ellipse cx="180" cy="100" rx="48" ry="42" fill="#1a2a6e" stroke="#2d263c" stroke-width="8" stroke-linejoin="round"/>
  <!-- 顎下(クリーム色) -->
  <ellipse cx="180" cy="118" rx="25" ry="16" fill="#e8d8b0" stroke="#2d263c" stroke-width="4"/>

  <!-- 角(左・大) -->
  <path d="M148 80 Q118 58 110 30 Q128 52 138 65 Q122 38 130 18 Q148 50 148 75 Z" fill="#2550c8" stroke="#2d263c" stroke-width="6" stroke-linejoin="round" stroke-linecap="round"/>
  <!-- 角(右・大) -->
  <path d="M212 80 Q242 58 250 30 Q232 52 222 65 Q238 38 230 18 Q212 50 212 75 Z" fill="#2550c8" stroke="#2d263c" stroke-width="6" stroke-linejoin="round" stroke-linecap="round"/>
  <!-- 鼻先の小さな角 -->
  <path d="M175 95 Q172 80 168 70" fill="none" stroke="#2d263c" stroke-width="6" stroke-linecap="round"/>
  <path d="M168 70 Q164 62 166 56" fill="none" stroke="#2d263c" stroke-width="5" stroke-linecap="round"/>

  <!-- 目(左) -->
  <ellipse cx="163" cy="95" rx="9" ry="10" fill="white" stroke="#2d263c" stroke-width="4"/>
  <ellipse cx="165" cy="96" rx="5" ry="6" fill="#ff4444"/>
  <ellipse cx="166" cy="95" rx="2.5" ry="3" fill="#1a0000"/>
  <ellipse cx="167" cy="94" rx="1" ry="1" fill="white"/>

  <!-- 目(右) -->
  <ellipse cx="197" cy="95" rx="9" ry="10" fill="white" stroke="#2d263c" stroke-width="4"/>
  <ellipse cx="199" cy="96" rx="5" ry="6" fill="#ff4444"/>
  <ellipse cx="200" cy="95" rx="2.5" ry="3" fill="#1a0000"/>
  <ellipse cx="201" cy="94" rx="1" ry="1" fill="white"/>

  <!-- 眉(怒り顔) -->
  <path d="M155 84 Q162 80 170 83" fill="none" stroke="#2d263c" stroke-width="5" stroke-linecap="round"/>
  <path d="M190 83 Q198 80 205 84" fill="none" stroke="#2d263c" stroke-width="5" stroke-linecap="round"/>

  <!-- 鼻の穴 -->
  <ellipse cx="175" cy="108" rx="4" ry="3" fill="#0d1a4a"/>
  <ellipse cx="185" cy="108" rx="4" ry="3" fill="#0d1a4a"/>

  <!-- 口(ちょっとニヤリ) -->
  <path d="M168 118 Q180 127 192 118" fill="none" stroke="#2d263c" stroke-width="5" stroke-linecap="round"/>

  <!-- 翼の前部分(左・上に重ねる) -->
  <path d="M130 155 Q95 130 75 145 Q90 152 85 165 Q100 155 105 170 Q115 155 125 168 Z" fill="#1e3080" stroke="#2d263c" stroke-width="6" stroke-linejoin="round" stroke-linecap="round"/>
  <!-- 翼の前部分(右・上に重ねる) -->
  <path d="M230 155 Q265 130 285 145 Q270 152 275 165 Q260 155 255 170 Q245 155 235 168 Z" fill="#1e3080" stroke="#2d263c" stroke-width="6" stroke-linejoin="round" stroke-linecap="round"/>

  <!-- 肩のトゲ(左) -->
  <path d="M130 155 Q112 140 108 125 Q122 140 128 148 Z" fill="#2550c8" stroke="#2d263c" stroke-width="5" stroke-linejoin="round"/>
  <!-- 肩のトゲ(右) -->
  <path d="M230 155 Q248 140 252 125 Q238 140 232 148 Z" fill="#2550c8" stroke="#2d263c" stroke-width="5" stroke-linejoin="round"/>
</svg>