<svg xmlns="http://www.w3.org/2000/svg" viewBox="0 0 360 360">
  <path d="M95 205 C62 192 36 200 40 220 C44 238 78 238 96 226 Z" fill="#b89be0" stroke="#2d263c" stroke-width="7" stroke-linejoin="round" stroke-linecap="round"/>
  <path d="M252 160 C282 142 312 148 308 168 C305 186 272 188 254 178 Z" fill="#b89be0" stroke="#2d263c" stroke-width="7" stroke-linejoin="round" stroke-linecap="round"/>
  <path d="M72 232 C60 195 88 170 104 138 C116 112 148 76 186 80 C228 84 252 112 256 142 C259 168 292 180 294 216 C296 244 282 262 262 272 C268 286 252 296 238 290 C220 304 196 302 182 294 C168 306 140 304 130 292 C108 298 86 284 80 262 C74 250 70 242 72 232 Z" fill="#b89be0" stroke="#2d263c" stroke-width="8" stroke-linejoin="round" stroke-linecap="round"/>
  <ellipse cx="148" cy="114" rx="26" ry="12" transform="rotate(-18 148 114)" fill="#d9c8f0"/>
  <ellipse cx="106" cy="160" rx="9" ry="6" transform="rotate(-30 106 160)" fill="#d9c8f0"/>
  <path d="M196 96 Q212 100 222 112" fill="none" stroke="#2d263c" stroke-width="6" stroke-linecap="round"/>
  <circle cx="150" cy="168" r="6" fill="#2d263c"/>
  <circle cx="214" cy="161" r="7" fill="#2d263c"/>
  <path d="M122 198 Q158 215 185 210 Q218 206 244 191" fill="none" stroke="#2d263c" stroke-width="7" stroke-linecap="round"/>
  <path d="M306 286 C300 272 318 268 322 280 C325 290 312 296 306 286 Z" fill="#b89be0" stroke="#2d263c" stroke-width="6" stroke-linejoin="round" stroke-linecap="round"/>
</svg>