<svg xmlns="http://www.w3.org/2000/svg" viewBox="0 0 360 360">
<g id="mega-burst"><circle cx="180" cy="180" r="172" fill="#fff3c0"/><polygon points="180,180 450.0,180.0 444.8,232.7" fill="#ffd96b"/><polygon points="180,180 429.4,283.3 404.5,330.0" fill="#ffb13d"/><polygon points="180,180 370.9,370.9 330.0,404.5" fill="#ffd96b"/><polygon points="180,180 283.3,429.4 232.7,444.8" fill="#ffb13d"/><polygon points="180,180 180.0,450.0 127.3,444.8" fill="#ffd96b"/><polygon points="180,180 76.7,429.4 30.0,404.5" fill="#ffb13d"/><polygon points="180,180 -10.9,370.9 -44.5,330.0" fill="#ffd96b"/><polygon points="180,180 -69.4,283.3 -84.8,232.7" fill="#ffb13d"/><polygon points="180,180 -90.0,180.0 -84.8,127.3" fill="#ffd96b"/><polygon points="180,180 -69.4,76.7 -44.5,30.0" fill="#ffb13d"/><polygon points="180,180 -10.9,-10.9 30.0,-44.5" fill="#ffd96b"/><polygon points="180,180 76.7,-69.4 127.3,-84.8" fill="#ffb13d"/><polygon points="180,180 180.0,-90.0 232.7,-84.8" fill="#ffd96b"/><polygon points="180,180 283.3,-69.4 330.0,-44.5" fill="#ffb13d"/><polygon points="180,180 370.9,-10.9 404.5,30.0" fill="#ffd96b"/><polygon points="180,180 429.4,76.7 444.8,127.3" fill="#ffb13d"/><circle cx="180" cy="180" r="120" fill="#fff3c0" opacity="0.55"/></g>
  <!-- 尻尾ひれ(後ろ) -->
  <path d="M290 310 Q330 280 340 300 Q320 320 310 330 Q285 340 290 310Z" fill="#2a2045" stroke="#2d263c" stroke-width="7" stroke-linejoin="round"/>
  <path d="M275 305 Q300 265 325 275 Q315 305 295 318Z" fill="#2a2045" stroke="#2d263c" stroke-width="6" stroke-linejoin="round"/>
  <path d="M285 318 Q305 340 320 355 Q295 355 280 340Z" fill="#2a2045" stroke="#2d263c" stroke-width="6" stroke-linejoin="round"/>

  <!-- 翼(左) -->
  <path d="M120 130 Q60 80 30 110 Q50 140 80 150 Q50 160 35 185 Q70 175 100 165 Q70 190 60 215 Q95 195 125 175" fill="#1a1428" stroke="#2d263c" stroke-width="8" stroke-linejoin="round" stroke-linecap="round"/>
  <!-- 翼の膜すじ -->
  <line x1="120" y1="130" x2="50" y2="115" stroke="#2d263c" stroke-width="4" stroke-linecap="round"/>
  <line x1="115" y1="148" x2="52" y2="170" stroke="#2d263c" stroke-width="3" stroke-linecap="round"/>
  <line x1="120" y1="170" x2="68" y2="208" stroke="#2d263c" stroke-width="3" stroke-linecap="round"/>

  <!-- 翼(右) -->
  <path d="M230 125 Q295 75 325 105 Q308 135 278 145 Q308 155 322 180 Q288 170 258 160 Q290 185 298 210 Q265 190 238 170" fill="#1a1428" stroke="#2d263c" stroke-width="8" stroke-linejoin="round" stroke-linecap="round"/>
  <line x1="230" y1="125" x2="308" y2="110" stroke="#2d263c" stroke-width="4" stroke-linecap="round"/>
  <line x1="238" y1="148" x2="305" y2="168" stroke="#2d263c" stroke-width="3" stroke-linecap="round"/>
  <line x1="235" y1="168" x2="292" y2="205" stroke="#2d263c" stroke-width="3" stroke-linecap="round"/>

  <!-- 胴体(蛇体・くねり) -->
  <path d="M155 280 Q130 320 150 345 Q175 355 200 345 Q220 330 215 295 Q240 270 250 240 Q260 210 245 185 Q235 160 220 145 Q205 130 195 115 Q188 95 175 85 Q162 95 155 115 Q145 130 130 145 Q115 160 105 185 Q95 210 110 240 Q120 270 155 280Z" fill="#241c38" stroke="#2d263c" stroke-width="8" stroke-linejoin="round"/>

  <!-- 腹 -->
  <path d="M162 285 Q150 318 160 340 Q175 350 192 342 Q205 325 205 295 Q218 270 222 248 Q228 225 218 205 Q210 188 200 178 Q190 168 183 155 Q177 143 175 130 Q173 143 170 155 Q163 168 153 178 Q143 192 138 210 Q130 230 138 252 Q148 272 162 285Z" fill="#3d3060" stroke="none"/>

  <!-- 背びれ群 -->
  <polygon points="158,155 148,120 168,148" fill="#1a1428" stroke="#2d263c" stroke-width="6" stroke-linejoin="round"/>
  <polygon points="172,135 164,98 182,130" fill="#1a1428" stroke="#2d263c" stroke-width="6" stroke-linejoin="round"/>
  <polygon points="186,133 180,94 196,128" fill="#1a1428" stroke="#2d263c" stroke-width="6" stroke-linejoin="round"/>
  <polygon points="200,140 196,105 210,138" fill="#1a1428" stroke="#2d263c" stroke-width="6" stroke-linejoin="round"/>

  <!-- 頭部 -->
  <ellipse cx="175" cy="72" rx="38" ry="30" fill="#241c38" stroke="#2d263c" stroke-width="8"/>

  <!-- 角(左) -->
  <path d="M150 52 Q130 20 118 10 Q128 28 135 48" fill="#1a1428" stroke="#2d263c" stroke-width="7" stroke-linejoin="round" stroke-linecap="round"/>
  <!-- 角(右) -->
  <path d="M200 50 Q222 18 235 8 Q224 26 217 46" fill="#1a1428" stroke="#2d263c" stroke-width="7" stroke-linejoin="round" stroke-linecap="round"/>

  <!-- あごひげ(左) -->
  <path d="M148 82 Q125 90 112 105" fill="none" stroke="#c8b8e8" stroke-width="5" stroke-linecap="round"/>
  <path d="M150 88 Q128 100 118 118" fill="none" stroke="#c8b8e8" stroke-width="4" stroke-linecap="round"/>
  <!-- あごひげ(右) -->
  <path d="M202 82 Q225 90 238 105" fill="none" stroke="#c8b8e8" stroke-width="5" stroke-linecap="round"/>
  <path d="M200 88 Q222 100 232 118" fill="none" stroke="#c8b8e8" stroke-width="4" stroke-linecap="round"/>

  <!-- 口(大きく横に開く) -->
  <path d="M148 80 Q158 100 175 102 Q192 100 202 80" fill="#0d0818" stroke="#2d263c" stroke-width="6" stroke-linejoin="round" stroke-linecap="round"/>
  <!-- 牙(上) -->
  <polygon points="158,82 155,95 164,82" fill="white" stroke="#2d263c" stroke-width="3"/>
  <polygon points="172,80 170,94 178,80" fill="white" stroke="#2d263c" stroke-width="3"/>
  <polygon points="185,82 184,95 192,82" fill="white" stroke="#2d263c" stroke-width="3"/>
  <!-- 牙(下) -->
  <polygon points="160,100 157,86 166,100" fill="white" stroke="#2d263c" stroke-width="3"/>
  <polygon points="180,100 178,86 186,100" fill="white" stroke="#2d263c" stroke-width="3"/>

  <!-- 目(左) -->
  <ellipse cx="158" cy="60" rx="7" ry="6" fill="#cc1122" stroke="#2d263c" stroke-width="4"/>
  <ellipse cx="156" cy="59" rx="2.5" ry="2" fill="#ff3344"/>
  <!-- 目(右) -->
  <ellipse cx="192" cy="60" rx="7" ry="6" fill="#cc1122" stroke="#2d263c" stroke-width="4"/>
  <ellipse cx="190" cy="59" rx="2.5" ry="2" fill="#ff3344"/>

  <!-- まゆげ(怒り顔) -->
  <path d="M150 54 Q158 49 165 52" fill="none" stroke="#2d263c" stroke-width="5" stroke-linecap="round"/>
  <path d="M185 52 Q192 49 200 54" fill="none" stroke="#2d263c" stroke-width="5" stroke-linecap="round"/>

  <!-- 縞模様(体) -->
  <path d="M145 195 Q165 185 195 188 Q218 185 232 195" fill="none" stroke="#1a1428" stroke-width="4" stroke-linecap="round"/>
  <path d="M140 220 Q162 210 195 213 Q218 210 235 222" fill="none" stroke="#1a1428" stroke-width="4" stroke-linecap="round"/>
  <path d="M142 248 Q162 238 196 241 Q220 238 232 250" fill="none" stroke="#1a1428" stroke-width="4" stroke-linecap="round"/>
</svg>