<svg xmlns="http://www.w3.org/2000/svg" viewBox="0 0 360 360"><g stroke="#2d263c" stroke-width="7" stroke-linejoin="round" stroke-linecap="round"><path d="M192 256 C238 288 292 284 314 246 C324 226 314 208 297 209 C306 222 302 241 284 251 C254 268 224 252 203 236 Z" fill="#FFF3D6"/><path d="M293 212 l13 9 -15 6 z" fill="#E5484D"/><path d="M303 231 l11 10 -14 4 z" fill="#E5484D"/><path d="M102 130 C84 118 66 112 58 116 C66 132 82 148 98 156 Z" fill="#C9CFDC"/><path d="M258 126 C276 110 294 102 304 106 C294 124 280 142 264 152 Z" fill="#C9CFDC"/><path d="M180 62 C120 64 96 110 100 150 C103 185 130 202 142 226 C151 244 147 258 142 272 L 220 274 C214 256 210 242 220 224 C234 198 258 184 262 148 C266 106 240 60 180 62 Z" fill="#A8D8F0"/><path d="M134 268 C128 286 118 296 112 305 L 250 302 C240 292 231 282 226 266 Z" fill="#C9CFDC"/><path d="M180 304 L 181 313" fill="none"/><circle cx="182" cy="321" r="8" fill="#ADB4C4"/><ellipse cx="180" cy="60" rx="34" ry="10" fill="#C9CFDC"/><path d="M150 54 C146 32 166 22 182 22 C198 22 214 32 210 52 C198 62 162 62 150 54 Z" fill="#F6D04D"/><circle cx="148" cy="138" r="6" fill="#2d263c"/><circle cx="213" cy="134" r="5" fill="#2d263c"/><path d="M150 162 C152 192 208 190 209 160 C190 172 168 174 150 162 Z" fill="#B3343C"/><path d="M168 178 C174 184 188 184 193 177" fill="#E5484D" stroke-width="5"/><circle cx="181" cy="232" r="14" fill="#E5484D"/></g></svg>