<svg xmlns="http://www.w3.org/2000/svg" viewBox="0 0 360 360">
  <path d="M210 316 q12 20 38 14 q8 -22 -14 -32 q-16 -6 -24 18 z" fill="#f59ab4" stroke="#2d263c" stroke-width="7" stroke-linejoin="round" stroke-linecap="round"/>
  <path d="M78 232 q-8 -74 58 -96 q46 -16 94 2 q64 24 58 98 q-6 62 -56 80 q-52 18 -104 -6 q-44 -20 -50 -78 z" fill="#abb0cb" stroke="#2d263c" stroke-width="8" stroke-linejoin="round" stroke-linecap="round"/>
  <path d="M186 242 q26 -4 22 20 q-4 22 -32 16 q-32 -8 -26 -42 q7 -38 48 -34 q46 5 46 50" fill="none" stroke="#7e80a3" stroke-width="9" stroke-linecap="round" stroke-linejoin="round"/>
  <path d="M104 168 l-28 -34 l40 9 z" fill="#f4e7c8" stroke="#2d263c" stroke-width="6" stroke-linejoin="round"/>
  <path d="M132 154 l-11 -40 l31 19 z" fill="#f4e7c8" stroke="#2d263c" stroke-width="6" stroke-linejoin="round"/>
  <path d="M226 152 l13 -41 l21 29 z" fill="#f4e7c8" stroke="#2d263c" stroke-width="6" stroke-linejoin="round"/>
  <path d="M252 170 l36 -22 l-11 36 z" fill="#f4e7c8" stroke="#2d263c" stroke-width="6" stroke-linejoin="round"/>
  <circle cx="139" cy="41" r="11" fill="#f59ab4" stroke="#2d263c" stroke-width="6"/>
  <circle cx="207" cy="47" r="9" fill="#f59ab4" stroke="#2d263c" stroke-width="6"/>
  <path d="M133 170 q-16 -64 6 -98 q16 -26 40 -26 q26 0 40 28 q20 36 4 96 q-44 14 -90 0 z" fill="#f59ab4" stroke="#2d263c" stroke-width="8" stroke-linejoin="round" stroke-linecap="round"/>
  <path d="M122 170 q-38 2 -50 30 q-8 20 12 22 q28 2 42 -24 z" fill="#f59ab4" stroke="#2d263c" stroke-width="7" stroke-linejoin="round" stroke-linecap="round"/>
  <path d="M240 168 q36 -10 40 -38 q2 -18 -16 -14 q-26 7 -32 38 z" fill="#f59ab4" stroke="#2d263c" stroke-width="7" stroke-linejoin="round" stroke-linecap="round"/>
  <path d="M158 170 l9 -34 l18 30 z" fill="#f4e7c8" stroke="#2d263c" stroke-width="6" stroke-linejoin="round"/>
  <path d="M196 168 l17 -30 l8 34 z" fill="#f4e7c8" stroke="#2d263c" stroke-width="6" stroke-linejoin="round"/>
  <ellipse cx="178" cy="123" rx="35" ry="24" fill="#f2ddb0" stroke="#2d263c" stroke-width="6"/>
  <path d="M167 112 l-3 7 M189 111 l3 7" fill="none" stroke="#2d263c" stroke-width="6" stroke-linecap="round"/>
  <path d="M163 131 q14 13 29 1" fill="none" stroke="#2d263c" stroke-width="6" stroke-linecap="round"/>
  <path d="M171 133 l1 7 M184 134 l1 7" fill="none" stroke="#2d263c" stroke-width="6" stroke-linecap="round"/>
  <circle cx="155" cy="91" r="4.5" fill="#2d263c"/>
  <circle cx="202" cy="94" r="4.5" fill="#2d263c"/>
  <path d="M146 82 q9 -5 17 -1" fill="none" stroke="#2d263c" stroke-width="6" stroke-linecap="round"/>
  <path d="M193 84 q9 -4 17 1" fill="none" stroke="#2d263c" stroke-width="6" stroke-linecap="round"/>
</svg>