<svg xmlns="http://www.w3.org/2000/svg" viewBox="0 0 360 360"><g stroke="#2d263c" stroke-width="7" stroke-linejoin="round" stroke-linecap="round"><path d="M112 78 L126 30 L149 64 L173 20 L197 62 L224 32 L240 72 Z" fill="#c8e6f6"/><path d="M118 112 C82 98 56 64 46 30 C78 44 110 64 126 92 Z" fill="#44405c"/><path d="M242 108 C278 92 304 60 316 26 C286 38 254 58 236 86 Z" fill="#44405c"/><path d="M50 196 L68 186 L62 214 Z" fill="#c8e6f6"/><path d="M300 188 L318 182 L310 206 Z" fill="#c8e6f6"/><path d="M180 45 C232 42 268 82 271 132 C273 168 258 196 230 208 L132 210 C102 198 88 168 89 130 C91 80 130 48 180 45 Z" fill="#e4f3fb"/><path d="M122 198 L238 198 C251 228 253 268 244 300 L118 300 C108 266 110 228 122 198 Z" fill="#322c44"/><path d="M128 204 L141 240 L154 206 Z" fill="#f6fbfe" stroke-width="6"/><path d="M160 206 L172 234 L185 205 Z" fill="#f6fbfe" stroke-width="6"/><path d="M192 205 L205 242 L217 206 Z" fill="#f6fbfe" stroke-width="6"/><path d="M221 206 L231 230 L241 204 Z" fill="#f6fbfe" stroke-width="6"/><path d="M106 282 C98 256 112 246 130 251 L230 249 C250 244 262 256 255 284 C250 314 228 332 180 333 C133 332 112 312 106 282 Z" fill="#e4f3fb"/><path d="M138 256 L150 226 L163 255 Z" fill="#f6fbfe" stroke-width="6"/><path d="M172 254 L185 220 L198 254 Z" fill="#f6fbfe" stroke-width="6"/><path d="M208 254 L220 228 L231 253 Z" fill="#f6fbfe" stroke-width="6"/><path d="M112 114 C128 102 150 108 163 122 L158 152 C141 158 122 153 113 142 Z" fill="#44405c"/><path d="M248 112 C232 100 210 106 197 120 L202 150 C219 156 238 151 247 140 Z" fill="#44405c"/><circle cx="139" cy="132" r="13" fill="#f9c531" stroke-width="6"/><circle cx="221" cy="130" r="14" fill="#f9c531" stroke-width="6"/><circle cx="143" cy="133" r="5" fill="#2d263c" stroke="none"/><circle cx="217" cy="131" r="5" fill="#2d263c" stroke="none"/><path d="M96 152 L110 160 L101 174" fill="none" stroke-width="6"/><path d="M250 92 L239 105 L251 116" fill="none" stroke-width="6"/><path d="M152 306 L162 318" fill="none" stroke-width="6"/></g></svg>