<svg xmlns="http://www.w3.org/2000/svg" viewBox="0 0 360 360">
<path d="M160 250 h 6 a 10 10 0 0 1 10 10 v 40 a 10 10 0 0 1 -10 10 h -6 a 10 10 0 0 1 -10 -10 v -40 a 10 10 0 0 1 10 -10 z" fill="#9aa3b0" stroke="#2d263c" stroke-width="8"/>
<path d="M194 250 h 6 a 10 10 0 0 1 10 10 v 40 a 10 10 0 0 1 -10 10 h -6 a 10 10 0 0 1 -10 -10 v -40 a 10 10 0 0 1 10 -10 z" fill="#9aa3b0" stroke="#2d263c" stroke-width="8"/>
<path d="M110 150 Q100 260 180 265 Q260 260 250 150 Z" fill="#b0b8c4" stroke="#2d263c" stroke-width="9" stroke-linejoin="round"/>
<circle cx="135" cy="200" r="6" fill="#7c8493" stroke="#2d263c" stroke-width="6"/>
<circle cx="225" cy="200" r="6" fill="#7c8493" stroke="#2d263c" stroke-width="6"/>
<path d="M120 170 Q180 185 240 170" stroke="#8a92a0" stroke-width="6" fill="none" stroke-linecap="round"/>
<path d="M112 160 Q70 190 78 240 Q95 250 110 235 Q100 195 130 170 Z" fill="#9aa3b0" stroke="#2d263c" stroke-width="8" stroke-linejoin="round"/>
<path d="M248 160 Q290 190 282 240 Q265 250 250 235 Q260 195 230 170 Z" fill="#9aa3b0" stroke="#2d263c" stroke-width="8" stroke-linejoin="round"/>
<path d="M180 50 L245 88 L245 158 L180 196 L115 158 L115 88 Z" fill="#c2cad6" stroke="#2d263c" stroke-width="9" stroke-linejoin="round"/>
<circle cx="180" cy="123" r="34" fill="#2d263c"/>
<circle cx="180" cy="123" r="18" fill="#fff"/>
<circle cx="184" cy="127" r="10" fill="#2d263c"/>
<circle cx="180" cy="120" r="4" fill="#fff"/>
</svg>