<svg xmlns="http://www.w3.org/2000/svg" viewBox="0 0 360 360"><g stroke="#2d263c" stroke-width="7" stroke-linejoin="round" stroke-linecap="round"><polygon points="52,128 64,106 77,128 64,149" fill="#a8e4f6"/><polygon points="300,62 313,40 323,64 311,80" fill="#a8e4f6"/><polygon points="308,242 323,226 334,248 319,261" fill="#a8e4f6"/><polygon points="26,324 64,298 60,332" fill="#87929f"/><polygon points="62,288 75,256 88,288" fill="#87929f"/><ellipse cx="75" cy="300" rx="23" ry="21" fill="#98a4b0"/><polygon points="106,282 120,244 134,282" fill="#a8e4f6"/><ellipse cx="121" cy="295" rx="27" ry="25" fill="#87929f"/><polygon points="156,276 172,238 188,276" fill="#87929f"/><ellipse cx="171" cy="290" rx="30" ry="27" fill="#98a4b0"/><polygon points="208,262 224,222 240,262" fill="#a8e4f6"/><ellipse cx="222" cy="274" rx="32" ry="29" fill="#87929f"/><polygon points="276,220 314,226 280,244" fill="#87929f"/><ellipse cx="256" cy="228" rx="33" ry="30" fill="#98a4b0"/><polygon points="270,166 310,168 274,190" fill="#a8e4f6"/><ellipse cx="250" cy="175" rx="32" ry="30" fill="#87929f"/><polygon points="138,80 154,36 172,78" fill="#87929f"/><polygon points="166,76 186,28 206,76" fill="#87929f"/><polygon points="198,78 221,40 233,84" fill="#87929f"/><polygon points="114,100 68,90 110,130" fill="#a8e4f6"/><polygon points="238,104 286,94 242,133" fill="#a8e4f6"/><path d="M120,75 Q175,54 235,80 Q249,118 232,152 Q175,168 122,150 Q104,112 120,75 Z" fill="#98a4b0"/><path d="M118,148 Q175,140 232,150 Q241,184 215,200 Q173,213 140,198 Q114,182 118,148 Z" fill="#aeb9c4"/><polygon points="135,151 148,151 141,166" fill="#ffffff" stroke-width="6"/><polygon points="158,150 171,150 164,165" fill="#ffffff" stroke-width="6"/><polygon points="181,150 194,150 187,165" fill="#ffffff" stroke-width="6"/><polygon points="204,151 217,151 210,166" fill="#ffffff" stroke-width="6"/><polygon points="160,206 176,246 193,207" fill="#a8e4f6"/><polygon points="136,102 160,94 158,115 140,114" fill="#e23c3c" stroke-width="6"/><polygon points="192,94 217,101 213,114 195,114" fill="#e23c3c" stroke-width="6"/><circle cx="150" cy="106" r="3.5" fill="#2d263c" stroke="none"/><circle cx="203" cy="105" r="3.5" fill="#2d263c" stroke="none"/><path d="M131,92 L165,85" fill="none"/><path d="M188,85 L222,93" fill="none"/></g></svg>