<svg xmlns="http://www.w3.org/2000/svg" viewBox="0 0 360 360">
<g id="mega-burst"><circle cx="180" cy="180" r="172" fill="#fff3c0"/><polygon points="180,180 450.0,180.0 444.8,232.7" fill="#ffd96b"/><polygon points="180,180 429.4,283.3 404.5,330.0" fill="#ffb13d"/><polygon points="180,180 370.9,370.9 330.0,404.5" fill="#ffd96b"/><polygon points="180,180 283.3,429.4 232.7,444.8" fill="#ffb13d"/><polygon points="180,180 180.0,450.0 127.3,444.8" fill="#ffd96b"/><polygon points="180,180 76.7,429.4 30.0,404.5" fill="#ffb13d"/><polygon points="180,180 -10.9,370.9 -44.5,330.0" fill="#ffd96b"/><polygon points="180,180 -69.4,283.3 -84.8,232.7" fill="#ffb13d"/><polygon points="180,180 -90.0,180.0 -84.8,127.3" fill="#ffd96b"/><polygon points="180,180 -69.4,76.7 -44.5,30.0" fill="#ffb13d"/><polygon points="180,180 -10.9,-10.9 30.0,-44.5" fill="#ffd96b"/><polygon points="180,180 76.7,-69.4 127.3,-84.8" fill="#ffb13d"/><polygon points="180,180 180.0,-90.0 232.7,-84.8" fill="#ffd96b"/><polygon points="180,180 283.3,-69.4 330.0,-44.5" fill="#ffb13d"/><polygon points="180,180 370.9,-10.9 404.5,30.0" fill="#ffd96b"/><polygon points="180,180 429.4,76.7 444.8,127.3" fill="#ffb13d"/><circle cx="180" cy="180" r="120" fill="#fff3c0" opacity="0.55"/></g>
  <!-- 後ろの翼左（もこもこ雲翼） -->
  <ellipse cx="90" cy="195" rx="72" ry="58" fill="#dff3ff" stroke="#2d263c" stroke-width="7" stroke-linejoin="round"/>
  <circle cx="50" cy="178" r="36" fill="#dff3ff" stroke="#2d263c" stroke-width="7"/>
  <circle cx="78" cy="152" r="30" fill="#dff3ff" stroke="#2d263c" stroke-width="7"/>
  <circle cx="115" cy="143" r="27" fill="#dff3ff" stroke="#2d263c" stroke-width="7"/>
  <circle cx="52" cy="220" r="30" fill="#dff3ff" stroke="#2d263c" stroke-width="7"/>
  <circle cx="32" cy="200" r="24" fill="#dff3ff" stroke="#2d263c" stroke-width="6"/>

  <!-- 後ろの翼右（もこもこ雲翼） -->
  <ellipse cx="272" cy="195" rx="72" ry="58" fill="#dff3ff" stroke="#2d263c" stroke-width="7" stroke-linejoin="round"/>
  <circle cx="312" cy="178" r="36" fill="#dff3ff" stroke="#2d263c" stroke-width="7"/>
  <circle cx="284" cy="152" r="30" fill="#dff3ff" stroke="#2d263c" stroke-width="7"/>
  <circle cx="247" cy="143" r="27" fill="#dff3ff" stroke="#2d263c" stroke-width="7"/>
  <circle cx="310" cy="220" r="30" fill="#dff3ff" stroke="#2d263c" stroke-width="7"/>
  <circle cx="330" cy="200" r="24" fill="#dff3ff" stroke="#2d263c" stroke-width="6"/>

  <!-- しっぽ（長くふわふわ） -->
  <ellipse cx="182" cy="316" rx="42" ry="22" fill="#e8f8ff" stroke="#2d263c" stroke-width="6" stroke-linejoin="round"/>
  <ellipse cx="158" cy="332" rx="28" ry="16" fill="#e8f8ff" stroke="#2d263c" stroke-width="6"/>
  <ellipse cx="207" cy="335" rx="26" ry="15" fill="#e8f8ff" stroke="#2d263c" stroke-width="6"/>
  <ellipse cx="182" cy="344" rx="20" ry="12" fill="#e8f8ff" stroke="#2d263c" stroke-width="5"/>

  <!-- 体（丸くてふわふわ） -->
  <ellipse cx="182" cy="230" rx="68" ry="75" fill="#a8dff7" stroke="#2d263c" stroke-width="8" stroke-linejoin="round"/>

  <!-- お腹（明るい部分） -->
  <ellipse cx="182" cy="252" rx="40" ry="46" fill="#d4f0ff" stroke="none"/>

  <!-- 首 -->
  <ellipse cx="182" cy="168" rx="30" ry="28" fill="#a8dff7" stroke="#2d263c" stroke-width="7"/>

  <!-- 頭 -->
  <ellipse cx="180" cy="130" rx="52" ry="46" fill="#b8e4f8" stroke="#2d263c" stroke-width="8" stroke-linejoin="round"/>

  <!-- 頭の角（小さいとさか・少しずれてて味がある） -->
  <path d="M172 88 C168 70 162 58 166 48 C170 42 178 50 175 68 Z" fill="#7cc8f0" stroke="#2d263c" stroke-width="6" stroke-linejoin="round" stroke-linecap="round"/>
  <path d="M190 84 C188 66 185 54 190 46 C195 40 201 50 197 66 Z" fill="#7cc8f0" stroke="#2d263c" stroke-width="6" stroke-linejoin="round" stroke-linecap="round"/>

  <!-- 目（細めでやや非対称） -->
  <ellipse cx="163" cy="124" rx="10" ry="7" fill="#1a1a2e" stroke="#2d263c" stroke-width="3"/>
  <ellipse cx="199" cy="122" rx="9" ry="8" fill="#1a1a2e" stroke="#2d263c" stroke-width="3"/>
  <!-- 目のハイライト -->
  <circle cx="160" cy="121" r="3" fill="white"/>
  <circle cx="196" cy="119" r="2.5" fill="white"/>

  <!-- くちばし -->
  <path d="M175 142 C178 152 186 154 190 143 C186 148 181 148 175 142 Z" fill="#f5d76e" stroke="#2d263c" stroke-width="5" stroke-linejoin="round" stroke-linecap="round"/>

  <!-- ほっぺのうっすらピンク -->
  <ellipse cx="150" cy="136" rx="14" ry="10" fill="#ffb8c8" opacity="0.55"/>
  <ellipse cx="212" cy="134" rx="13" ry="10" fill="#ffb8c8" opacity="0.55"/>

  <!-- 前の翼の内側もこもこ（体にかかる部分） -->
  <circle cx="130" cy="215" r="22" fill="#c8ecff" stroke="#2d263c" stroke-width="6"/>
  <circle cx="112" cy="236" r="20" fill="#c8ecff" stroke="#2d263c" stroke-width="6"/>
  <circle cx="235" cy="213" r="22" fill="#c8ecff" stroke="#2d263c" stroke-width="6"/>
  <circle cx="250" cy="234" r="20" fill="#c8ecff" stroke="#2d263c" stroke-width="6"/>

  <!-- 脚（小さくてかわいい） -->
  <line x1="166" y1="296" x2="154" y2="318" stroke="#2d263c" stroke-width="7" stroke-linecap="round"/>
  <line x1="197" y1="296" x2="208" y2="318" stroke="#2d263c" stroke-width="7" stroke-linecap="round"/>
  <path d="M148 318 C143 322 138 324 142 328 C146 332 152 326 154 318 Z" fill="#f5d76e" stroke="#2d263c" stroke-width="5" stroke-linejoin="round"/>
  <path d="M214 318 C219 322 224 324 220 328 C216 332 210 326 208 318 Z" fill="#f5d76e" stroke="#2d263c" stroke-width="5" stroke-linejoin="round"/>
</svg>