<svg xmlns="http://www.w3.org/2000/svg" viewBox="0 0 360 360" stroke="#2d263c" stroke-linejoin="round" stroke-linecap="round">

  <!-- 足元の影(触手の下) -->
  <ellipse cx="180" cy="345" rx="75" ry="12" fill="#00000022" stroke="none"/>

  <!-- 触手(下方向に10本, うねうね) -->
  <!-- 触手1 -->
  <path d="M148,225 Q138,255 132,280 Q126,305 130,330" fill="none" stroke="#3a1870" stroke-width="8" stroke-linecap="round"/>
  <!-- 触手2 -->
  <path d="M158,228 Q150,260 148,290 Q145,315 148,338" fill="none" stroke="#3a1870" stroke-width="8" stroke-linecap="round"/>
  <!-- 触手3 -->
  <path d="M168,232 Q162,262 163,292 Q162,318 165,342" fill="none" stroke="#3a1870" stroke-width="8" stroke-linecap="round"/>
  <!-- 触手4 -->
  <path d="M178,234 Q175,264 176,294 Q177,320 178,345" fill="none" stroke="#3a1870" stroke-width="8" stroke-linecap="round"/>
  <!-- 触手5 -->
  <path d="M188,234 Q190,264 190,294 Q192,320 192,345" fill="none" stroke="#3a1870" stroke-width="8" stroke-linecap="round"/>
  <!-- 触手6 -->
  <path d="M198,232 Q202,262 204,292 Q206,318 205,342" fill="none" stroke="#3a1870" stroke-width="8" stroke-linecap="round"/>
  <!-- 触手7 -->
  <path d="M208,228 Q215,258 218,288 Q220,313 218,338" fill="none" stroke="#3a1870" stroke-width="8" stroke-linecap="round"/>
  <!-- 触手8 -->
  <path d="M218,225 Q228,253 234,278 Q240,303 238,330" fill="none" stroke="#3a1870" stroke-width="8" stroke-linecap="round"/>
  <!-- メガ追加触手(外側) -->
  <path d="M136,220 Q120,248 112,275 Q105,300 108,325" fill="none" stroke="#3a1870" stroke-width="6" stroke-linecap="round"/>
  <path d="M228,220 Q244,248 252,275 Q260,300 257,325" fill="none" stroke="#3a1870" stroke-width="6" stroke-linecap="round"/>

  <!-- マントル本体(暗紫色の大きな楕円/涙滴形) -->
  <!-- 腹面(少し明るめ) -->
  <path d="M115,210 Q105,155 115,100 Q130,40 180,20 Q230,40 245,100 Q255,155 245,210 Q225,230 180,235 Q135,230 115,210 Z" fill="#8050c0" stroke="#2d263c" stroke-width="7"/>
  <!-- 外マントル -->
  <path d="M105,215 Q92,158 102,100 Q118,32 180,12 Q242,32 258,100 Q268,158 255,215 Q235,238 180,242 Q125,238 105,215 Z" fill="#4a2880" stroke="#2d263c" stroke-width="8"/>

  <!-- ヒレ(左) -->
  <path d="M105,155 Q75,140 62,165 Q55,188 80,198 Q95,205 108,195" fill="#4a2880" stroke="#2d263c" stroke-width="6"/>
  <!-- ヒレ(右) -->
  <path d="M255,155 Q285,140 298,165 Q305,188 280,198 Q265,205 252,195" fill="#4a2880" stroke="#2d263c" stroke-width="6"/>

  <!-- メガ特有の輝き(外輪郭の光) -->
  <path d="M180,12 Q242,32 258,100 Q268,158 255,215" fill="none" stroke="#a060e8" stroke-width="3" opacity="0.7"/>
  <path d="M180,12 Q118,32 102,100 Q92,158 105,215" fill="none" stroke="#a060e8" stroke-width="3" opacity="0.7"/>

  <!-- 目(右): 催眠渦巻き大きな目 -->
  <!-- 右目外円(白目) -->
  <circle cx="210" cy="195" r="32" fill="white" stroke="#2d263c" stroke-width="5"/>
  <!-- 右目渦巻き(紫と白交互) -->
  <circle cx="210" cy="195" r="26" fill="#8050c0" stroke="none"/>
  <circle cx="210" cy="195" r="20" fill="white" stroke="none"/>
  <circle cx="210" cy="195" r="14" fill="#8050c0" stroke="none"/>
  <circle cx="210" cy="195" r="8" fill="white" stroke="none"/>
  <!-- 右目: 黒い瞳 -->
  <circle cx="210" cy="195" r="4" fill="#1a1a1a" stroke="none"/>
  <!-- 右目: 白ハイライト -->
  <circle cx="215" cy="190" r="3" fill="white" stroke="none"/>

  <!-- 目(左): 催眠渦巻き大きな目 -->
  <!-- 左目外円(白目) -->
  <circle cx="150" cy="195" r="32" fill="white" stroke="#2d263c" stroke-width="5"/>
  <!-- 左目渦巻き(紫と白交互) -->
  <circle cx="150" cy="195" r="26" fill="#8050c0" stroke="none"/>
  <circle cx="150" cy="195" r="20" fill="white" stroke="none"/>
  <circle cx="150" cy="195" r="14" fill="#8050c0" stroke="none"/>
  <circle cx="150" cy="195" r="8" fill="white" stroke="none"/>
  <!-- 左目: 黒い瞳 -->
  <circle cx="150" cy="195" r="4" fill="#1a1a1a" stroke="none"/>
  <!-- 左目: 白ハイライト -->
  <circle cx="155" cy="190" r="3" fill="white" stroke="none"/>

  <!-- メガ特有: 目の催眠オーラ -->
  <circle cx="210" cy="195" r="36" fill="none" stroke="#c080ff" stroke-width="2" opacity="0.6"/>
  <circle cx="150" cy="195" r="36" fill="none" stroke="#c080ff" stroke-width="2" opacity="0.6"/>

</svg>
