<svg xmlns="http://www.w3.org/2000/svg" viewBox="0 0 360 360">
<g id="mega-burst"><circle cx="180" cy="180" r="172" fill="#fff3c0"/><polygon points="180,180 450.0,180.0 444.8,232.7" fill="#ffd96b"/><polygon points="180,180 429.4,283.3 404.5,330.0" fill="#ffb13d"/><polygon points="180,180 370.9,370.9 330.0,404.5" fill="#ffd96b"/><polygon points="180,180 283.3,429.4 232.7,444.8" fill="#ffb13d"/><polygon points="180,180 180.0,450.0 127.3,444.8" fill="#ffd96b"/><polygon points="180,180 76.7,429.4 30.0,404.5" fill="#ffb13d"/><polygon points="180,180 -10.9,370.9 -44.5,330.0" fill="#ffd96b"/><polygon points="180,180 -69.4,283.3 -84.8,232.7" fill="#ffb13d"/><polygon points="180,180 -90.0,180.0 -84.8,127.3" fill="#ffd96b"/><polygon points="180,180 -69.4,76.7 -44.5,30.0" fill="#ffb13d"/><polygon points="180,180 -10.9,-10.9 30.0,-44.5" fill="#ffd96b"/><polygon points="180,180 76.7,-69.4 127.3,-84.8" fill="#ffb13d"/><polygon points="180,180 180.0,-90.0 232.7,-84.8" fill="#ffd96b"/><polygon points="180,180 283.3,-69.4 330.0,-44.5" fill="#ffb13d"/><polygon points="180,180 370.9,-10.9 404.5,30.0" fill="#ffd96b"/><polygon points="180,180 429.4,76.7 444.8,127.3" fill="#ffb13d"/><circle cx="180" cy="180" r="120" fill="#fff3c0" opacity="0.55"/></g>
  <!-- 背景の翼(マント) -->
  <path d="M100,180 Q60,140 40,100 Q30,70 55,60 Q80,55 100,90 Q120,120 130,155 Z" fill="#2d8a3e" stroke="#2d263c" stroke-width="7" stroke-linejoin="round" stroke-linecap="round"/>
  <path d="M260,180 Q300,140 320,100 Q330,70 305,60 Q280,55 260,90 Q240,120 230,155 Z" fill="#2d8a3e" stroke="#2d263c" stroke-width="7" stroke-linejoin="round" stroke-linecap="round"/>

  <!-- 下のマント裾 -->
  <path d="M125,200 Q90,220 70,270 Q65,300 85,295 Q110,285 130,250 Q145,220 148,208 Z" fill="#ffffff" stroke="#2d263c" stroke-width="7" stroke-linejoin="round" stroke-linecap="round"/>
  <path d="M235,200 Q270,220 290,270 Q295,300 275,295 Q250,285 230,250 Q215,220 212,208 Z" fill="#ffffff" stroke="#2d263c" stroke-width="7" stroke-linejoin="round" stroke-linecap="round"/>

  <!-- 体(胴体) -->
  <ellipse cx="180" cy="230" rx="42" ry="55" fill="#ffffff" stroke="#2d263c" stroke-width="7"/>

  <!-- 胸の赤いプレート -->
  <path d="M158,200 Q180,195 202,200 L198,225 Q180,230 162,225 Z" fill="#cc2222" stroke="#2d263c" stroke-width="5" stroke-linejoin="round"/>

  <!-- 腰〜足 -->
  <path d="M155,270 Q145,295 140,330 Q145,338 155,335 Q163,320 165,295 L175,280 Z" fill="#ffffff" stroke="#2d263c" stroke-width="7" stroke-linejoin="round"/>
  <path d="M205,270 Q215,295 220,330 Q215,338 205,335 Q197,320 195,295 L185,280 Z" fill="#ffffff" stroke="#2d263c" stroke-width="7" stroke-linejoin="round"/>

  <!-- 足の先(靴っぽく) -->
  <ellipse cx="148" cy="334" rx="14" ry="8" fill="#2d8a3e" stroke="#2d263c" stroke-width="5"/>
  <ellipse cx="212" cy="334" rx="14" ry="8" fill="#2d8a3e" stroke="#2d263c" stroke-width="5"/>

  <!-- 腕(左) -->
  <path d="M142,205 Q110,210 90,230 Q80,245 88,255 Q98,260 115,245 Q130,228 145,220 Z" fill="#ffffff" stroke="#2d263c" stroke-width="7" stroke-linejoin="round"/>

  <!-- 腕(右) -->
  <path d="M218,205 Q250,210 270,230 Q280,245 272,255 Q262,260 245,245 Q230,228 215,220 Z" fill="#ffffff" stroke="#2d263c" stroke-width="7" stroke-linejoin="round"/>

  <!-- 左腕の赤いガード/ブレード -->
  <path d="M88,248 Q75,240 60,220 Q52,208 60,200 Q70,195 82,210 Q94,228 100,245 Z" fill="#cc2222" stroke="#2d263c" stroke-width="6" stroke-linejoin="round"/>
  <!-- 左ブレード先端 -->
  <path d="M60,200 Q48,185 38,165 Q35,155 45,152 Q55,150 65,165 Q72,182 70,198 Z" fill="#cc2222" stroke="#2d263c" stroke-width="6" stroke-linejoin="round"/>

  <!-- 右腕の赤いガード/ブレード -->
  <path d="M272,248 Q285,240 300,220 Q308,208 300,200 Q290,195 278,210 Q266,228 260,245 Z" fill="#cc2222" stroke="#2d263c" stroke-width="6" stroke-linejoin="round"/>
  <!-- 右ブレード先端 -->
  <path d="M300,200 Q312,185 322,165 Q325,155 315,152 Q305,150 295,165 Q288,182 290,198 Z" fill="#cc2222" stroke="#2d263c" stroke-width="6" stroke-linejoin="round"/>

  <!-- 首 -->
  <rect x="168" y="170" width="24" height="22" rx="6" fill="#ffffff" stroke="#2d263c" stroke-width="6"/>

  <!-- 頭(白いヘルメット状) -->
  <ellipse cx="180" cy="150" rx="36" ry="38" fill="#ffffff" stroke="#2d263c" stroke-width="8"/>

  <!-- 頭の緑パーツ(兜のような突起・左右) -->
  <path d="M148,138 Q130,125 118,108 Q112,95 122,90 Q135,87 145,102 Q154,118 155,135 Z" fill="#2d8a3e" stroke="#2d263c" stroke-width="6" stroke-linejoin="round"/>
  <path d="M212,138 Q230,125 242,108 Q248,95 238,90 Q225,87 215,102 Q206,118 205,135 Z" fill="#2d8a3e" stroke="#2d263c" stroke-width="6" stroke-linejoin="round"/>

  <!-- 頭のVの角(赤) -->
  <path d="M168,118 Q180,95 192,118 Q186,122 180,120 Q174,122 168,118 Z" fill="#cc2222" stroke="#2d263c" stroke-width="5" stroke-linejoin="round"/>
  <!-- 角の先端 -->
  <path d="M180,95 Q175,72 168,60 Q163,50 170,46 Q178,44 183,56 Q188,70 185,93 Z" fill="#cc2222" stroke="#2d263c" stroke-width="5" stroke-linejoin="round"/>

  <!-- 顔: 目(赤・鋭い) -->
  <path d="M160,152 Q165,145 172,148 Q170,155 163,156 Z" fill="#dd1111" stroke="#2d263c" stroke-width="3"/>
  <path d="M200,152 Q195,145 188,148 Q190,155 197,156 Z" fill="#dd1111" stroke="#2d263c" stroke-width="3"/>

  <!-- 目のハイライト -->
  <circle cx="163" cy="151" r="2.5" fill="#ff6666"/>
  <circle cx="197" cy="151" r="2.5" fill="#ff6666"/>

  <!-- 眉っぽい緑のライン -->
  <path d="M156,145 Q165,140 173,143" fill="none" stroke="#2d8a3e" stroke-width="4" stroke-linecap="round"/>
  <path d="M204,145 Q195,140 187,143" fill="none" stroke="#2d8a3e" stroke-width="4" stroke-linecap="round"/>

  <!-- 口(きりっとした線) -->
  <path d="M174,163 Q180,167 186,163" fill="none" stroke="#2d263c" stroke-width="4" stroke-linecap="round"/>

  <!-- 頭の緑の鶏冠(上部) -->
  <path d="M165,118 Q170,105 180,112 Q190,105 195,118" fill="none" stroke="#2d8a3e" stroke-width="5" stroke-linecap="round" stroke-linejoin="round"/>
</svg>