<svg xmlns="http://www.w3.org/2000/svg" viewBox="0 0 360 360">
  <!-- Wings (behind body) -->
  <!-- Left wing -->
  <path d="M120,140 C80,100 30,80 20,50 C40,70 55,90 70,110 C50,85 35,55 45,30 C60,60 70,90 85,115 C75,85 72,50 88,28 C95,58 95,90 105,118 C102,88 108,55 125,40 C122,70 118,100 120,130 Z" fill="#1a1020" stroke="#2d263c" stroke-width="7" stroke-linejoin="round" stroke-linecap="round"/>
  <!-- Right wing -->
  <path d="M240,140 C280,100 330,80 340,50 C320,70 305,90 290,110 C310,85 325,55 315,30 C300,60 290,90 275,115 C285,85 288,50 272,28 C265,58 265,90 255,118 C258,88 252,55 235,40 C238,70 242,100 240,130 Z" fill="#1a1020" stroke="#2d263c" stroke-width="7" stroke-linejoin="round" stroke-linecap="round"/>

  <!-- Tail -->
  <path d="M270,230 C295,220 315,215 325,200 C320,218 318,232 305,240 C320,235 332,228 335,215 C330,238 320,252 300,255 C315,252 325,244 322,260 C308,265 290,260 275,250 Z" fill="#1a1020" stroke="#2d263c" stroke-width="7" stroke-linejoin="round" stroke-linecap="round"/>

  <!-- Body -->
  <ellipse cx="183" cy="205" rx="85" ry="70" fill="#1a1020" stroke="#2d263c" stroke-width="8" stroke-linejoin="round"/>

  <!-- Belly / chest (reddish) -->
  <path d="M155,180 C160,168 175,162 183,162 C192,162 205,168 212,180 C218,194 215,215 210,228 C200,238 165,238 153,228 C147,215 148,194 155,180 Z" fill="#c84820"/>

  <!-- Rib cage rings on chest -->
  <path d="M158,185 C168,178 198,178 208,185" fill="none" stroke="#e8a030" stroke-width="5" stroke-linecap="round"/>
  <path d="M155,198 C165,190 202,190 210,198" fill="none" stroke="#e8a030" stroke-width="5" stroke-linecap="round"/>
  <path d="M155,211 C165,203 202,203 210,211" fill="none" stroke="#e8a030" stroke-width="5" stroke-linecap="round"/>
  <path d="M158,223 C168,216 200,216 208,223" fill="none" stroke="#e8a030" stroke-width="5" stroke-linecap="round"/>

  <!-- Back legs -->
  <path d="M148,255 C140,268 135,285 130,300 C140,298 150,290 155,278 C153,292 152,308 148,318 C158,310 165,295 165,278 Z" fill="#1a1020" stroke="#2d263c" stroke-width="7" stroke-linejoin="round" stroke-linecap="round"/>
  <path d="M218,255 C226,268 231,285 236,300 C226,298 216,290 211,278 C213,292 214,308 218,318 C208,310 201,295 201,278 Z" fill="#1a1020" stroke="#2d263c" stroke-width="7" stroke-linejoin="round" stroke-linecap="round"/>

  <!-- Front legs -->
  <path d="M152,250 C145,268 142,288 140,305 C150,300 158,285 160,268 C160,285 162,302 160,315 C168,306 172,288 170,268 Z" fill="#1a1020" stroke="#2d263c" stroke-width="7" stroke-linejoin="round" stroke-linecap="round"/>
  <path d="M214,250 C221,268 224,288 226,305 C216,300 208,285 206,268 C206,285 204,302 206,315 C198,306 194,288 196,268 Z" fill="#1a1020" stroke="#2d263c" stroke-width="7" stroke-linejoin="round" stroke-linecap="round"/>

  <!-- Neck -->
  <path d="M158,165 C162,148 172,138 183,136 C194,138 204,148 208,165 Z" fill="#1a1020" stroke="#2d263c" stroke-width="7" stroke-linejoin="round"/>

  <!-- Head -->
  <ellipse cx="183" cy="118" rx="52" ry="48" fill="#1a1020" stroke="#2d263c" stroke-width="8" stroke-linejoin="round"/>

  <!-- Ears -->
  <polygon points="148,98 138,60 160,88" fill="#1a1020" stroke="#2d263c" stroke-width="7" stroke-linejoin="round"/>
  <polygon points="218,98 228,60 206,88" fill="#1a1020" stroke="#2d263c" stroke-width="7" stroke-linejoin="round"/>
  <!-- Inner ear reddish -->
  <polygon points="150,94 142,68 160,86" fill="#c84820"/>
  <polygon points="216,94 224,68 206,86" fill="#c84820"/>

  <!-- Horns (curved back) -->
  <!-- Left horn -->
  <path d="M158,92 C145,78 135,65 138,48 C148,60 152,75 155,88" fill="#e8e0c8" stroke="#2d263c" stroke-width="6" stroke-linejoin="round" stroke-linecap="round"/>
  <!-- Right horn -->
  <path d="M208,92 C221,78 231,65 228,48 C218,60 214,75 211,88" fill="#e8e0c8" stroke="#2d263c" stroke-width="6" stroke-linejoin="round" stroke-linecap="round"/>

  <!-- Nose horn (small) -->
  <polygon points="183,95 178,80 188,80" fill="#e8e0c8" stroke="#2d263c" stroke-width="5" stroke-linejoin="round"/>

  <!-- Snout -->
  <ellipse cx="183" cy="128" rx="28" ry="20" fill="#2a1a10" stroke="#2d263c" stroke-width="6"/>

  <!-- Jaw area (chin) reddish -->
  <path d="M163,132 C168,142 178,148 183,148 C188,148 198,142 203,132 C196,140 188,145 183,145 C178,145 170,140 163,132 Z" fill="#c84820"/>

  <!-- Eyes -->
  <ellipse cx="165" cy="112" rx="10" ry="11" fill="#cc2020" stroke="#2d263c" stroke-width="4"/>
  <ellipse cx="201" cy="112" rx="10" ry="11" fill="#cc2020" stroke="#2d263c" stroke-width="4"/>
  <!-- Eye glint -->
  <circle cx="162" cy="109" r="3" fill="#ff6060"/>
  <circle cx="198" cy="109" r="3" fill="#ff6060"/>
  <!-- Pupils -->
  <ellipse cx="167" cy="113" rx="4" ry="5" fill="#660000"/>
  <ellipse cx="203" cy="113" rx="4" ry="5" fill="#660000"/>

  <!-- Nostrils -->
  <ellipse cx="177" cy="130" rx="4" ry="3" fill="#1a0a08"/>
  <ellipse cx="189" cy="130" rx="4" ry="3" fill="#1a0a08"/>

  <!-- Mouth - open, fierce grin -->
  <path d="M168,138 C173,146 178,150 183,150 C188,150 193,146 198,138" fill="none" stroke="#cc2020" stroke-width="5" stroke-linecap="round"/>
  <!-- Little flame puff from mouth -->
  <path d="M178,150 C175,158 172,165 175,168 C178,162 180,156 183,154 C180,162 180,170 183,172 C186,165 188,158 185,154 C188,162 191,168 188,168 C192,163 190,155 188,150" fill="#e05020" stroke="none"/>

  <!-- Wing membrane lines (detail) -->
  <path d="M120,132 C95,120 65,108 42,95" fill="none" stroke="#2d263c" stroke-width="4" stroke-linecap="round"/>
  <path d="M118,130 C100,112 82,92 78,68" fill="none" stroke="#2d263c" stroke-width="4" stroke-linecap="round"/>
  <path d="M115,128 C105,108 100,85 106,62" fill="none" stroke="#2d263c" stroke-width="4" stroke-linecap="round"/>
  <path d="M240,132 C265,120 295,108 318,95" fill="none" stroke="#2d263c" stroke-width="4" stroke-linecap="round"/>
  <path d="M242,130 C260,112 278,92 282,68" fill="none" stroke="#2d263c" stroke-width="4" stroke-linecap="round"/>
  <path d="M245,128 C255,108 260,85 254,62" fill="none" stroke="#2d263c" stroke-width="4" stroke-linecap="round"/>
</svg>