<svg xmlns="http://www.w3.org/2000/svg" viewBox="0 0 360 360">
  <circle cx="190" cy="52" r="13" fill="#d6d9e0" stroke="#2d263c" stroke-width="6" stroke-linejoin="round" stroke-linecap="round"/>
  <circle cx="246" cy="54" r="12" fill="#d6d9e0" stroke="#2d263c" stroke-width="6" stroke-linejoin="round" stroke-linecap="round"/>
  <circle cx="216" cy="44" r="18" fill="#d6d9e0" stroke="#2d263c" stroke-width="6" stroke-linejoin="round" stroke-linecap="round"/>
  <path d="M 155 162 L 172 78 Q 176 66 190 68 L 238 72 Q 250 73 252 86 L 270 168 Z" fill="#8d909c" stroke="#2d263c" stroke-width="7" stroke-linejoin="round" stroke-linecap="round"/>
  <ellipse cx="211" cy="74" rx="44" ry="15" fill="#565a66" stroke="#2d263c" stroke-width="7" transform="rotate(3 211 74)"/>
  <ellipse cx="211" cy="73" rx="29" ry="8" fill="#ff8a3c" transform="rotate(3 211 73)"/>
  <path d="M 248 94 Q 261 118 251 134 Q 239 126 243 108 Z" fill="#ff8a3c" stroke="#2d263c" stroke-width="6" stroke-linejoin="round" stroke-linecap="round"/>
  <path d="M 298 202 Q 328 194 326 220 Q 323 240 298 233 Z" fill="#9c3322" stroke="#2d263c" stroke-width="7" stroke-linejoin="round" stroke-linecap="round"/>
  <ellipse cx="128" cy="312" rx="14" ry="11" fill="#8d909c" stroke="#2d263c" stroke-width="6"/>
  <ellipse cx="178" cy="316" rx="13" ry="10" fill="#8d909c" stroke="#2d263c" stroke-width="6"/>
  <ellipse cx="228" cy="313" rx="14" ry="11" fill="#8d909c" stroke="#2d263c" stroke-width="6"/>
  <ellipse cx="274" cy="304" rx="12" ry="10" fill="#8d909c" stroke="#2d263c" stroke-width="6"/>
  <path d="M 70 230 C 65 185 95 150 150 145 C 210 137 280 150 300 190 C 318 222 312 260 295 285 Q 290 300 275 295 Q 272 312 255 305 Q 248 320 232 310 Q 222 324 208 312 Q 196 324 184 311 Q 172 322 160 309 Q 148 318 138 306 Q 126 314 118 300 Q 104 306 100 292 Q 86 294 84 278 C 70 268 66 250 70 230 Z" fill="#c0432e" stroke="#2d263c" stroke-width="8" stroke-linejoin="round" stroke-linecap="round"/>
  <path d="M 192 226 L 204 188 L 219 214 L 234 186 L 247 224" fill="none" stroke="#8d909c" stroke-width="12" stroke-linejoin="round" stroke-linecap="round"/>
  <path d="M 66 138 Q 46 128 49 152 Q 52 170 71 166 Z" fill="#9c3322" stroke="#2d263c" stroke-width="7" stroke-linejoin="round" stroke-linecap="round"/>
  <path d="M 148 130 Q 170 122 167 146 Q 164 164 145 158 Z" fill="#9c3322" stroke="#2d263c" stroke-width="7" stroke-linejoin="round" stroke-linecap="round"/>
  <circle cx="108" cy="170" r="46" fill="#c0432e" stroke="#2d263c" stroke-width="8" stroke-linejoin="round" stroke-linecap="round"/>
  <path d="M 80 142 Q 76 116 100 114 Q 102 96 122 105 Q 138 92 142 115 Q 159 119 148 139 Q 130 151 108 148 Q 90 153 80 142 Z" fill="#9c3322" stroke="#2d263c" stroke-width="7" stroke-linejoin="round" stroke-linecap="round"/>
  <ellipse cx="100" cy="193" rx="31" ry="22" fill="#e8c98e" stroke="#2d263c" stroke-width="7"/>
  <ellipse cx="91" cy="186" rx="3" ry="5" fill="#2d263c"/>
  <ellipse cx="109" cy="185" rx="3" ry="5" fill="#2d263c"/>
  <path d="M 85 200 Q 100 211 115 199" fill="none" stroke="#2d263c" stroke-width="6" stroke-linecap="round"/>
  <circle cx="86" cy="160" r="7" fill="#2d263c"/>
  <circle cx="125" cy="157" r="5.5" fill="#2d263c"/>
  <circle cx="88" cy="158" r="2" fill="#ffffff"/>
  <circle cx="126.5" cy="155.5" r="1.6" fill="#ffffff"/>
</svg>