<svg xmlns="http://www.w3.org/2000/svg" viewBox="0 0 360 360"><path d="M165,72 L176,44 L187,70 L176,86 Z" fill="#dff3f7" stroke="#2d263c" stroke-width="6" stroke-linejoin="round" stroke-linecap="round"/><path d="M200,68 L214,42 L224,66 L211,80 Z" fill="#dff3f7" stroke="#2d263c" stroke-width="6" stroke-linejoin="round" stroke-linecap="round"/><path d="M142,98 L102,30 L130,64 L132,40 L158,86 Z" fill="#5b4a7e" stroke="#2d263c" stroke-width="7" stroke-linejoin="round" stroke-linecap="round"/><path d="M222,96 L264,28 L240,62 L246,40 L212,84 Z" fill="#5b4a7e" stroke="#2d263c" stroke-width="7" stroke-linejoin="round" stroke-linecap="round"/><path d="M150,176 L212,174 C220,196 217,214 211,222 L150,222 C143,210 144,192 150,176 Z" fill="#5b4a7e" stroke="#2d263c" stroke-width="7" stroke-linejoin="round" stroke-linecap="round"/><path d="M152,190 C120,192 102,204 100,220 L120,230 C124,212 140,204 156,203 Z" fill="#5b4a7e" stroke="#2d263c" stroke-width="7" stroke-linejoin="round" stroke-linecap="round"/><path d="M208,189 C242,188 260,202 263,218 L244,228 C239,212 226,204 206,202 Z" fill="#5b4a7e" stroke="#2d263c" stroke-width="7" stroke-linejoin="round" stroke-linecap="round"/><path d="M106,304 C92,318 89,332 97,338 L131,338 C133,326 127,311 118,302 Z" fill="#5b4a7e" stroke="#2d263c" stroke-width="7" stroke-linejoin="round" stroke-linecap="round"/><path d="M246,303 C260,316 264,331 257,338 L224,338 C222,325 229,311 238,302 Z" fill="#5b4a7e" stroke="#2d263c" stroke-width="7" stroke-linejoin="round" stroke-linecap="round"/><path d="M180,72 C136,72 110,100 114,134 C117,166 144,188 182,187 C220,186 250,160 247,126 C244,94 218,73 180,72 Z" fill="#5b4a7e" stroke="#2d263c" stroke-width="8" stroke-linejoin="round" stroke-linecap="round"/><path d="M148,98 L172,122 L149,150 L126,123 Z" fill="#d9f2f6" stroke="#2d263c" stroke-width="7" stroke-linejoin="round" stroke-linecap="round"/><path d="M213,94 L240,120 L214,148 L188,119 Z" fill="#d9f2f6" stroke="#2d263c" stroke-width="7" stroke-linejoin="round" stroke-linecap="round"/><path d="M148,103 L148,145 M131,123 L167,122" fill="none" stroke="#a5dde8" stroke-width="4" stroke-linecap="round"/><path d="M214,99 L214,143 M193,119 L235,118" fill="none" stroke="#a5dde8" stroke-width="4" stroke-linecap="round"/><path d="M139,108 l7,7 l-7,8 l-8,-8 Z" fill="#ffffff"/><path d="M227,104 l7,7 l-7,8 l-7,-7 Z" fill="#ffffff"/><path d="M130,160 C158,181 210,179 238,152 L226,170 L216,158 L204,177 L192,160 L180,179 L168,160 L156,175 L146,158 L138,168 Z" fill="#ffffff" stroke="#2d263c" stroke-width="5" stroke-linejoin="round" stroke-linecap="round"/><path d="M122,156 C150,183 214,181 244,150" fill="none" stroke="#2d263c" stroke-width="7" stroke-linecap="round"/><path d="M128,196 L232,194 L284,242 L240,326 L122,328 L76,246 Z" fill="#e8334d" stroke="#2d263c" stroke-width="8" stroke-linejoin="round" stroke-linecap="round"/><path d="M180,202 L244,242 L213,308 L147,310 L116,244 Z" fill="#f9556b" stroke="#b51e38" stroke-width="5" stroke-linejoin="round"/><path d="M152,224 L158,237 L170,242 L158,247 L152,260 L146,247 L134,242 L146,237 Z" fill="#ffd9de"/><path d="M100,184 C96,200 100,212 110,210 C108,200 110,192 113,188 C112,200 116,212 126,210 C125,200 126,192 129,188 C129,200 134,210 142,206 C142,194 138,184 132,180 L106,178 Z" fill="#5b4a7e" stroke="#2d263c" stroke-width="7" stroke-linejoin="round" stroke-linecap="round"/><path d="M260,182 C264,198 260,210 250,208 C252,198 250,190 247,186 C248,198 244,210 234,208 C235,198 234,190 231,186 C231,198 226,208 218,204 C218,192 222,182 228,178 L254,176 Z" fill="#5b4a7e" stroke="#2d263c" stroke-width="7" stroke-linejoin="round" stroke-linecap="round"/></svg>