<svg xmlns="http://www.w3.org/2000/svg" viewBox="0 0 360 360">
  <g stroke="#2d263c" stroke-width="7" stroke-linejoin="round" stroke-linecap="round" fill="none">
    <path d="M238 250 Q298 254 320 224 Q330 208 318 202 Q302 226 270 232 Q250 236 240 236 Z" fill="#9aa2ad"/>
    <path d="M314 206 L338 186 L326 218 Z" fill="#c3c9d1" stroke-width="6"/>
    <path d="M140 290 Q132 316 138 332 Q148 340 162 334 Q170 328 168 296 Z" fill="#5d6470"/>
    <path d="M196 296 Q192 330 202 336 Q214 340 224 332 Q230 324 222 292 Z" fill="#5d6470"/>
    <path d="M138 324 L122 336 L144 334 Z" fill="#e9ecef" stroke-width="5"/>
    <path d="M222 326 L238 334 L218 336 Z" fill="#e9ecef" stroke-width="5"/>
    <path d="M118 208 Q94 218 88 246 Q86 266 100 274 Q116 278 124 262 L126 224 Z" fill="#5d6470"/>
    <path d="M240 206 Q264 216 270 244 Q272 264 258 272 Q242 276 234 258 L232 222 Z" fill="#5d6470"/>
    <path d="M96 268 L78 286 L102 282 Z" fill="#e9ecef" stroke-width="5"/>
    <path d="M108 270 L104 292 L122 280 Z" fill="#e9ecef" stroke-width="5"/>
    <path d="M262 266 L280 284 L256 280 Z" fill="#e9ecef" stroke-width="5"/>
    <path d="M250 268 L254 290 L236 278 Z" fill="#e9ecef" stroke-width="5"/>
    <path d="M130 184 Q104 214 104 252 Q104 290 140 302 Q182 314 222 300 Q252 288 250 250 Q248 212 228 186 Q180 200 130 184 Z" fill="#5d6470"/>
    <path d="M124 226 Q180 240 232 224 L234 244 Q180 258 124 246 Z" fill="#c3c9d1" stroke-width="6"/>
    <path d="M128 262 Q180 276 228 260 L228 280 Q180 292 130 280 Z" fill="#c3c9d1" stroke-width="6"/>
    <path d="M120 200 L94 170 L132 184 Z" fill="#c3c9d1" stroke-width="6"/>
    <path d="M238 198 L264 166 L228 182 Z" fill="#c3c9d1" stroke-width="6"/>
    <path d="M116 118 Q108 162 128 182 Q156 196 184 194 Q214 192 236 176 Q250 154 244 116 Q210 130 180 130 Q146 130 116 118 Z" fill="#343a45"/>
    <path d="M124 168 Q120 194 150 202 Q184 210 216 200 Q242 192 238 164 Q208 186 178 186 Q148 188 124 168 Z" fill="#9aa2ad"/>
    <path d="M144 176 L152 192 L160 177 Z" fill="#f3f5f7" stroke-width="5"/>
    <path d="M170 178 L178 194 L186 178 Z" fill="#f3f5f7" stroke-width="5"/>
    <path d="M198 175 L205 191 L212 175 Z" fill="#f3f5f7" stroke-width="5"/>
    <path d="M110 116 L80 100 L100 140 Z" fill="#c3c9d1" stroke-width="6"/>
    <path d="M252 114 L282 96 L262 136 Z" fill="#c3c9d1" stroke-width="6"/>
    <path d="M104 132 Q90 96 100 62 Q107 38 132 32 Q154 26 170 36 L181 54 L192 34 Q214 25 236 33 Q258 42 263 68 Q269 100 256 132 Q230 144 180 144 Q130 144 104 132 Z" fill="#c3c9d1"/>
    <circle cx="119" cy="104" r="5" fill="#4a505c" stroke-width="5"/>
    <circle cx="243" cy="100" r="5.5" fill="#4a505c" stroke-width="5"/>
    <ellipse cx="152" cy="150" rx="10" ry="12" fill="#bfe7f4" stroke-width="5"/>
    <ellipse cx="208" cy="146" rx="11" ry="13" fill="#bfe7f4" stroke-width="5"/>
    <circle cx="153" cy="152" r="4" fill="#2d263c" stroke="none"/>
    <circle cx="207" cy="148" r="4.5" fill="#2d263c" stroke="none"/>
    <path d="M138 133 L164 139" stroke-width="6"/>
    <path d="M222 131 L198 137" stroke-width="6"/>
  </g>
</svg>