<svg xmlns="http://www.w3.org/2000/svg" viewBox="0 0 360 360">
  <!-- 後ろの耳(左) -->
  <ellipse cx="110" cy="95" rx="28" ry="62" fill="#F4C8C0" stroke="#2d263c" stroke-width="7" stroke-linejoin="round"/>
  <ellipse cx="110" cy="98" rx="16" ry="46" fill="#F9A8B8" stroke="none"/>
  <!-- 後ろの耳(右) -->
  <ellipse cx="250" cy="90" rx="30" ry="65" fill="#F4C8C0" stroke="#2d263c" stroke-width="7" stroke-linejoin="round"/>
  <ellipse cx="252" cy="93" rx="18" ry="48" fill="#F9A8B8" stroke="none"/>

  <!-- メガ飾り耳リボン(左後ろ) -->
  <path d="M95 62 Q60 20 45 48 Q55 72 95 78 Z" fill="#ffffff" stroke="#2d263c" stroke-width="6" stroke-linejoin="round"/>
  <path d="M95 62 Q75 30 58 38 Q68 62 95 78 Z" fill="#F9D8E8" stroke="none"/>
  <!-- メガ飾り耳リボン(右後ろ) -->
  <path d="M262 56 Q300 15 318 44 Q306 70 262 74 Z" fill="#ffffff" stroke="#2d263c" stroke-width="6" stroke-linejoin="round"/>
  <path d="M262 56 Q284 26 300 34 Q292 58 262 74 Z" fill="#F9D8E8" stroke="none"/>

  <!-- 体 -->
  <ellipse cx="180" cy="230" rx="105" ry="112" fill="#F4C8C0" stroke="#2d263c" stroke-width="8" stroke-linejoin="round"/>

  <!-- お腹の白っぽい部分 -->
  <ellipse cx="180" cy="248" rx="68" ry="78" fill="#FDE8EC" stroke="none"/>

  <!-- 頭 -->
  <ellipse cx="180" cy="165" rx="82" ry="76" fill="#F4C8C0" stroke="#2d263c" stroke-width="8" stroke-linejoin="round"/>

  <!-- メガ頭リボン中央 -->
  <path d="M155 108 Q180 78 205 108 Q188 120 180 118 Q172 120 155 108 Z" fill="#ffffff" stroke="#2d263c" stroke-width="6" stroke-linejoin="round"/>
  <path d="M148 112 Q120 85 130 105 Q148 118 155 108 Z" fill="#ffffff" stroke="#2d263c" stroke-width="6" stroke-linejoin="round"/>
  <path d="M212 112 Q240 85 230 105 Q212 118 205 108 Z" fill="#ffffff" stroke="#2d263c" stroke-width="6" stroke-linejoin="round"/>

  <!-- 左目 -->
  <ellipse cx="152" cy="166" rx="16" ry="17" fill="#ffffff" stroke="#2d263c" stroke-width="5"/>
  <ellipse cx="155" cy="168" rx="9" ry="10" fill="#3a2060" stroke="none"/>
  <ellipse cx="158" cy="165" rx="4" ry="4" fill="#ffffff" stroke="none"/>

  <!-- 右目 -->
  <ellipse cx="210" cy="163" rx="17" ry="18" fill="#ffffff" stroke="#2d263c" stroke-width="5"/>
  <ellipse cx="213" cy="166" rx="10" ry="10" fill="#3a2060" stroke="none"/>
  <ellipse cx="216" cy="163" rx="4" ry="4" fill="#ffffff" stroke="none"/>

  <!-- ほっぺ(左) -->
  <ellipse cx="133" cy="186" rx="18" ry="12" fill="#F9A8B8" stroke="none" opacity="0.85"/>
  <!-- ほっぺ(右) -->
  <ellipse cx="228" cy="183" rx="19" ry="13" fill="#F9A8B8" stroke="none" opacity="0.85"/>

  <!-- 口(ニコニコ) -->
  <path d="M168 195 Q180 210 195 195" fill="none" stroke="#2d263c" stroke-width="5" stroke-linecap="round"/>

  <!-- 鼻 -->
  <ellipse cx="180" cy="188" rx="5" ry="3.5" fill="#E8909A" stroke="none"/>

  <!-- 左腕 -->
  <path d="M85 238 Q55 250 62 278 Q72 295 100 285 Q112 268 102 248 Z" fill="#F4C8C0" stroke="#2d263c" stroke-width="7" stroke-linejoin="round"/>
  <!-- 左手 -->
  <ellipse cx="75" cy="290" rx="20" ry="15" fill="#F4C8C0" stroke="#2d263c" stroke-width="6" stroke-linejoin="round"/>

  <!-- 右腕 -->
  <path d="M275 235 Q308 248 302 276 Q292 294 262 283 Q250 266 260 246 Z" fill="#F4C8C0" stroke="#2d263c" stroke-width="7" stroke-linejoin="round"/>
  <!-- 右手 -->
  <ellipse cx="308" cy="284" rx="20" ry="15" fill="#F4C8C0" stroke="#2d263c" stroke-width="6" stroke-linejoin="round"/>

  <!-- 左足 -->
  <ellipse cx="148" cy="332" rx="30" ry="18" fill="#F4C8C0" stroke="#2d263c" stroke-width="7" stroke-linejoin="round"/>
  <!-- 右足 -->
  <ellipse cx="215" cy="334" rx="31" ry="17" fill="#F4C8C0" stroke="#2d263c" stroke-width="7" stroke-linejoin="round"/>

  <!-- 耳先ハート(左耳) -->
  <path d="M100 42 Q110 30 120 42 Q115 52 110 56 Q105 52 100 42 Z" fill="#F9A8B8" stroke="#2d263c" stroke-width="4" stroke-linejoin="round"/>
  <!-- 耳先ハート(右耳) -->
  <path d="M240 35 Q252 22 263 35 Q258 47 252 51 Q246 47 240 35 Z" fill="#F9A8B8" stroke="#2d263c" stroke-width="4" stroke-linejoin="round"/>
</svg>