<svg xmlns="http://www.w3.org/2000/svg" viewBox="0 0 360 360"><path d="M230 232 C 286 224 314 192 300 150 L 318 144 C 334 198 294 242 236 250 Z" fill="#2b2b2f" stroke="#2d263c" stroke-width="7" stroke-linejoin="round" stroke-linecap="round"/><path d="M298 152 L 296 112 L 336 138 Z" fill="#2b2b2f" stroke="#2d263c" stroke-width="7" stroke-linejoin="round"/><path d="M150 96 C 124 60 82 54 66 88 C 58 106 70 124 88 119 C 76 106 82 92 98 89 C 118 85 132 98 142 114 Z" fill="#ece4d4" stroke="#2d263c" stroke-width="7" stroke-linejoin="round"/><path d="M202 94 C 232 52 286 50 300 92 C 308 114 294 134 274 127 C 288 112 282 96 264 93 C 240 89 226 102 216 120 Z" fill="#ece4d4" stroke="#2d263c" stroke-width="7" stroke-linejoin="round"/><path d="M128 250 L 118 316 L 144 318 L 148 262 Z" fill="#232327" stroke="#2d263c" stroke-width="7" stroke-linejoin="round"/><path d="M238 248 L 252 314 L 226 316 L 222 260 Z" fill="#232327" stroke="#2d263c" stroke-width="7" stroke-linejoin="round"/><path d="M122 317 l5 10 l5 -10" fill="#d8453a" stroke="#2d263c" stroke-width="5" stroke-linejoin="round"/><path d="M232 315 l5 10 l5 -10" fill="#d8453a" stroke="#2d263c" stroke-width="5" stroke-linejoin="round"/><path d="M128 178 C 110 226 116 272 152 284 C 184 296 228 292 246 270 C 264 246 258 200 234 180 C 215 168 150 168 128 178 Z" fill="#2b2b2f" stroke="#2d263c" stroke-width="8" stroke-linejoin="round"/><ellipse cx="185" cy="250" rx="40" ry="29" fill="#9e2b25" stroke="#2d263c" stroke-width="7"/><path d="M136 182 L 120 154 L 154 172 Z" fill="#ece4d4" stroke="#2d263c" stroke-width="6" stroke-linejoin="round"/><path d="M226 178 L 246 150 L 212 168 Z" fill="#ece4d4" stroke="#2d263c" stroke-width="6" stroke-linejoin="round"/><path d="M152 270 L 148 322 L 174 322 L 178 272 Z" fill="#2b2b2f" stroke="#2d263c" stroke-width="7" stroke-linejoin="round"/><path d="M204 272 L 208 324 L 232 322 L 228 270 Z" fill="#2b2b2f" stroke="#2d263c" stroke-width="7" stroke-linejoin="round"/><rect x="143" y="288" width="36" height="18" rx="9" fill="#ece4d4" stroke="#2d263c" stroke-width="6"/><path d="M146 296 L 128 290 L 146 286 Z" fill="#ece4d4" stroke="#2d263c" stroke-width="6" stroke-linejoin="round"/><rect x="201" y="292" width="36" height="18" rx="9" fill="#ece4d4" stroke="#2d263c" stroke-width="6"/><path d="M234 300 L 252 294 L 234 290 Z" fill="#ece4d4" stroke="#2d263c" stroke-width="6" stroke-linejoin="round"/><path d="M150 322 l6 12 l6 -12 l6 12 l6 -12" fill="#d8453a" stroke="#2d263c" stroke-width="5" stroke-linejoin="round"/><path d="M206 324 l6 11 l6 -11 l6 11 l6 -11" fill="#d8453a" stroke="#2d263c" stroke-width="5" stroke-linejoin="round"/><circle cx="183" cy="212" r="21" fill="#ece4d4" stroke="#2d263c" stroke-width="7"/><circle cx="183" cy="213" r="8" fill="#2b2b2f" stroke="#2d263c" stroke-width="6"/><circle cx="176" cy="128" r="46" fill="#2b2b2f" stroke="#2d263c" stroke-width="8"/><path d="M146 128 C 142 162 158 182 178 182 C 200 182 212 162 208 128 Z" fill="#9e2b25" stroke="#2d263c" stroke-width="7" stroke-linejoin="round"/><path d="M169 140 L 187 140 L 178 152 Z" fill="#2d263c" stroke="#2d263c" stroke-width="5" stroke-linejoin="round"/><path d="M152 160 Q 178 174 204 158" fill="none" stroke="#2d263c" stroke-width="6" stroke-linecap="round"/><path d="M160 162 L 166 176 L 172 164 Z" fill="#f5f1e6" stroke="#2d263c" stroke-width="4" stroke-linejoin="round"/><path d="M186 165 L 192 177 L 198 162 Z" fill="#f5f1e6" stroke="#2d263c" stroke-width="4" stroke-linejoin="round"/><path d="M148 112 L 172 118 L 150 127 Z" fill="#e23b30" stroke="#2d263c" stroke-width="6" stroke-linejoin="round"/><path d="M206 110 L 182 116 L 204 125 Z" fill="#e23b30" stroke="#2d263c" stroke-width="6" stroke-linejoin="round"/><circle cx="159" cy="118" r="3" fill="#2d263c"/><circle cx="195" cy="116" r="3" fill="#2d263c"/><path d="M142 100 L 168 110" fill="none" stroke="#2d263c" stroke-width="8" stroke-linecap="round"/><path d="M212 97 L 186 107" fill="none" stroke="#2d263c" stroke-width="8" stroke-linecap="round"/></svg>