<svg xmlns="http://www.w3.org/2000/svg" viewBox="0 0 360 360">
  <!-- Tail -->
  <path d="M225 275 Q262 300 268 280 Q272 258 248 252 Q235 250 228 262 Z" fill="#f0eaf7" stroke="#2d263c" stroke-width="7" stroke-linejoin="round" stroke-linecap="round"/>
  <ellipse cx="255" cy="266" rx="10" ry="9" fill="#3a2d7a"/>

  <!-- Legs -->
  <ellipse cx="163" cy="298" rx="19" ry="13" fill="#f0eaf7" stroke="#2d263c" stroke-width="7"/>
  <ellipse cx="208" cy="300" rx="19" ry="12" fill="#f0eaf7" stroke="#2d263c" stroke-width="7"/>

  <!-- Body -->
  <ellipse cx="186" cy="246" rx="56" ry="64" fill="#f4f0f8" stroke="#2d263c" stroke-width="8" stroke-linejoin="round"/>

  <!-- Chest indigo patch -->
  <ellipse cx="185" cy="258" rx="28" ry="36" fill="#3a2d7a"/>

  <!-- Arms -->
  <path d="M136 238 Q116 253 120 274 Q127 285 139 277 Q148 269 146 254 Z" fill="#f0eaf7" stroke="#2d263c" stroke-width="7" stroke-linejoin="round" stroke-linecap="round"/>
  <path d="M237 241 Q257 256 253 277 Q246 287 235 279 Q225 271 227 256 Z" fill="#f0eaf7" stroke="#2d263c" stroke-width="7" stroke-linejoin="round" stroke-linecap="round"/>

  <!-- Head -->
  <ellipse cx="186" cy="160" rx="60" ry="56" fill="#f4f0f8" stroke="#2d263c" stroke-width="8" stroke-linejoin="round"/>

  <!-- Floppy left ear (droops outward, female signature) -->
  <path d="M132 118 Q100 90 108 55 Q118 30 148 40 Q160 60 155 100 Q152 118 138 130 Z" fill="#f4f0f8" stroke="#2d263c" stroke-width="7" stroke-linejoin="round" stroke-linecap="round"/>
  <path d="M136 108 Q114 86 120 60 Q128 42 145 48 Q153 64 149 92 Q147 106 140 116 Z" fill="#3a2d7a"/>
  <!-- eye marking inside left ear -->
  <ellipse cx="132" cy="78" rx="10" ry="12" fill="#f4f0f8" stroke="#2d263c" stroke-width="3"/>
  <ellipse cx="132" cy="79" rx="5" ry="6" fill="#1a1060"/>

  <!-- Floppy right ear -->
  <path d="M240 115 Q272 87 264 52 Q254 28 224 38 Q212 58 217 98 Q220 116 234 128 Z" fill="#f4f0f8" stroke="#2d263c" stroke-width="7" stroke-linejoin="round" stroke-linecap="round"/>
  <path d="M236 105 Q258 83 252 58 Q244 40 227 46 Q219 62 223 90 Q225 104 232 114 Z" fill="#3a2d7a"/>
  <!-- eye marking inside right ear -->
  <ellipse cx="240" cy="75" rx="10" ry="12" fill="#f4f0f8" stroke="#2d263c" stroke-width="3"/>
  <ellipse cx="240" cy="76" rx="5" ry="6" fill="#1a1060"/>

  <!-- Forehead gem -->
  <ellipse cx="186" cy="126" rx="9" ry="6" fill="#4a6ccc" stroke="#2d263c" stroke-width="3"/>

  <!-- Eyes -->
  <path d="M154 156 Q161 148 173 152 Q175 160 167 165 Q158 167 154 161 Z" fill="#4a6ccc" stroke="#2d263c" stroke-width="4" stroke-linejoin="round"/>
  <ellipse cx="164" cy="158" rx="4" ry="5" fill="#1a1060"/>
  <path d="M200 152 Q211 148 218 155 Q218 162 210 166 Q201 166 198 160 Z" fill="#4a6ccc" stroke="#2d263c" stroke-width="4" stroke-linejoin="round"/>
  <ellipse cx="209" cy="157" rx="4" ry="5" fill="#1a1060"/>

  <!-- Nose & mouth -->
  <path d="M182 174 Q186 170 190 174 Q186 179 182 174 Z" fill="#c9b0d8" stroke="#2d263c" stroke-width="2.5" stroke-linejoin="round"/>
  <path d="M183 179 Q186 184 189 179" stroke="#2d263c" stroke-width="3" fill="none" stroke-linecap="round"/>

  <!-- Cheek blush -->
  <ellipse cx="151" cy="170" rx="10" ry="6" fill="#e8a0c8" opacity="0.55"/>
  <ellipse cx="221" cy="170" rx="10" ry="6" fill="#e8a0c8" opacity="0.55"/>

  <!-- Whiskers -->
  <line x1="150" y1="172" x2="115" y2="167" stroke="#2d263c" stroke-width="2" stroke-linecap="round"/>
  <line x1="150" y1="176" x2="114" y2="180" stroke="#2d263c" stroke-width="2" stroke-linecap="round"/>
  <line x1="222" y1="172" x2="257" y2="167" stroke="#2d263c" stroke-width="2" stroke-linecap="round"/>
  <line x1="222" y1="176" x2="258" y2="180" stroke="#2d263c" stroke-width="2" stroke-linecap="round"/>

  <!-- Collar -->
  <path d="M168 190 Q186 185 204 190 Q200 203 186 205 Q172 203 168 190 Z" fill="#3a2d7a" stroke="#2d263c" stroke-width="4" stroke-linejoin="round"/>
</svg>
