<svg xmlns="http://www.w3.org/2000/svg" viewBox="0 0 360 360"><path d="M292,228 Q330,214 336,242 Q328,264 290,258 Z" fill="#A8D88A" stroke="#2d263c" stroke-width="7" stroke-linejoin="round" stroke-linecap="round"/><path d="M204,265 l-3,42 q9,7 20,2 l1,-40 z" fill="#8FC470" stroke="#2d263c" stroke-width="6" stroke-linejoin="round" stroke-linecap="round"/><path d="M286,258 l-2,44 q9,7 19,1 l0,-40 z" fill="#8FC470" stroke="#2d263c" stroke-width="6" stroke-linejoin="round" stroke-linecap="round"/><path d="M110,92 Q150,115 160,155 Q166,185 182,205" fill="none" stroke="#2d263c" stroke-width="32" stroke-linecap="round"/><path d="M110,92 Q150,115 160,155 Q166,185 182,205" fill="none" stroke="#A8D88A" stroke-width="19" stroke-linecap="round"/><ellipse cx="184" cy="110" rx="30" ry="13" transform="rotate(-20 184 110)" fill="#F48FB1" stroke="#2d263c" stroke-width="6"/><ellipse cx="162" cy="88" rx="33" ry="14" transform="rotate(-70 162 88)" fill="#F48FB1" stroke="#2d263c" stroke-width="6"/><ellipse cx="129" cy="93" rx="27" ry="13" transform="rotate(-125 129 93)" fill="#F48FB1" stroke="#2d263c" stroke-width="6"/><ellipse cx="112" cy="122" rx="29" ry="12" fill="#F48FB1" stroke="#2d263c" stroke-width="6"/><ellipse cx="129" cy="151" rx="32" ry="14" transform="rotate(125 129 151)" fill="#F48FB1" stroke="#2d263c" stroke-width="6"/><ellipse cx="162" cy="156" rx="29" ry="13" transform="rotate(70 162 156)" fill="#F48FB1" stroke="#2d263c" stroke-width="6"/><ellipse cx="186" cy="131" rx="26" ry="12" transform="rotate(15 186 131)" fill="#F48FB1" stroke="#2d263c" stroke-width="6"/><path d="M90,50 Q78,32 62,28" fill="none" stroke="#2d263c" stroke-width="14" stroke-linecap="round"/><path d="M110,48 Q120,30 138,26" fill="none" stroke="#2d263c" stroke-width="14" stroke-linecap="round"/><path d="M90,50 Q78,32 62,28" fill="none" stroke="#F6D04D" stroke-width="7" stroke-linecap="round"/><path d="M110,48 Q120,30 138,26" fill="none" stroke="#F6D04D" stroke-width="7" stroke-linecap="round"/><path d="M160,202 Q136,238 156,275 Q186,304 238,302 Q288,297 300,262 Q308,224 282,204 Q230,186 160,202 Z" fill="#A8D88A" stroke="#2d263c" stroke-width="7" stroke-linejoin="round" stroke-linecap="round"/><ellipse cx="215" cy="268" rx="50" ry="25" fill="#C9E5A5"/><path d="M168,278 l-4,42 q10,8 22,2 l2,-40 z" fill="#A8D88A" stroke="#2d263c" stroke-width="7" stroke-linejoin="round" stroke-linecap="round"/><path d="M248,280 l-3,44 q11,8 23,2 l1,-42 z" fill="#A8D88A" stroke="#2d263c" stroke-width="7" stroke-linejoin="round" stroke-linecap="round"/><path d="M62,55 Q44,64 43,82 Q46,100 76,104 Q112,110 134,95 Q142,72 124,54 Q90,40 62,55 Z" fill="#A8D88A" stroke="#2d263c" stroke-width="7" stroke-linejoin="round" stroke-linecap="round"/><circle cx="76" cy="76" r="5.5" fill="#2d263c"/><circle cx="78" cy="74" r="2" fill="#ffffff"/><circle cx="108" cy="71" r="6" fill="#2d263c"/><circle cx="110.5" cy="69" r="2" fill="#ffffff"/><circle cx="53" cy="79" r="2.5" fill="#2d263c"/><path d="M50,90 Q66,100 86,95" fill="none" stroke="#2d263c" stroke-width="6" stroke-linecap="round"/></svg>