<svg xmlns="http://www.w3.org/2000/svg" viewBox="0 0 360 360">

  <!-- 氷翼 左(後ろ) -->
  <polygon points="60,90 30,40 50,110 15,75 40,140 25,120 55,165" fill="#b8e8f4" stroke="#2d263c" stroke-width="7" stroke-linejoin="round"/>
  <polygon points="45,105 10,60 35,130" fill="#d6f2fb" stroke="#2d263c" stroke-width="5" stroke-linejoin="round"/>

  <!-- 氷翼 右(後ろ) -->
  <polygon points="300,90 330,40 310,110 345,75 320,140 335,120 305,165" fill="#b8e8f4" stroke="#2d263c" stroke-width="7" stroke-linejoin="round"/>
  <polygon points="315,105 350,60 325,130" fill="#d6f2fb" stroke="#2d263c" stroke-width="5" stroke-linejoin="round"/>

  <!-- 尻尾(氷塊) -->
  <polygon points="200,285 232,312 218,342 192,332 183,305" fill="#b8e8f4" stroke="#2d263c" stroke-width="7" stroke-linejoin="round"/>

  <!-- 胴体 -->
  <ellipse cx="180" cy="230" rx="90" ry="100" fill="#f0ede0" stroke="#2d263c" stroke-width="8"/>

  <!-- 腹の暗色模様(濃緑青) -->
  <path d="M155,175 Q160,220 158,292 Q165,302 180,302 Q195,302 202,292 Q200,220 205,175 Q192,168 180,168 Q168,168 155,175Z" fill="#4a6a5a" stroke="none"/>
  <line x1="170" y1="172" x2="168" y2="296" stroke="#3a5a4a" stroke-width="3"/>
  <line x1="190" y1="172" x2="192" y2="296" stroke="#3a5a4a" stroke-width="3"/>

  <!-- 左腕 -->
  <path d="M95,195 Q58,212 54,252 Q64,272 90,267 Q112,261 120,235" fill="#e8e4d0" stroke="#2d263c" stroke-width="8" stroke-linejoin="round" stroke-linecap="round"/>
  <path d="M78,218 Q70,238 68,258" stroke="#4a6a5a" stroke-width="4" fill="none" stroke-linecap="round"/>

  <!-- 右腕 -->
  <path d="M265,195 Q302,212 306,252 Q296,272 270,267 Q248,261 240,235" fill="#e8e4d0" stroke="#2d263c" stroke-width="8" stroke-linejoin="round" stroke-linecap="round"/>
  <path d="M282,218 Q290,238 292,258" stroke="#4a6a5a" stroke-width="4" fill="none" stroke-linecap="round"/>

  <!-- 左爪(2本まとめ) -->
  <path d="M56,270 Q42,278 37,290 M63,274 Q52,286 50,298" stroke="#2d263c" stroke-width="7" fill="none" stroke-linecap="round"/>

  <!-- 右爪(2本まとめ) -->
  <path d="M304,270 Q318,278 323,290 M297,274 Q308,286 310,298" stroke="#2d263c" stroke-width="7" fill="none" stroke-linecap="round"/>

  <!-- 左足 -->
  <ellipse cx="145" cy="326" rx="38" ry="22" fill="#e8e4d0" stroke="#2d263c" stroke-width="7"/>
  <!-- 右足 -->
  <ellipse cx="218" cy="329" rx="36" ry="20" fill="#e8e4d0" stroke="#2d263c" stroke-width="7"/>

  <!-- 頭 -->
  <ellipse cx="180" cy="145" rx="75" ry="70" fill="#f0ede0" stroke="#2d263c" stroke-width="8"/>

  <!-- 耳(丸っこい) -->
  <ellipse cx="118" cy="100" rx="20" ry="24" fill="#d6d0b8" stroke="#2d263c" stroke-width="7"/>
  <ellipse cx="242" cy="100" rx="20" ry="24" fill="#d6d0b8" stroke="#2d263c" stroke-width="7"/>

  <!-- 角 左 -->
  <path d="M148,90 Q138,55 145,28 Q152,55 156,88Z" fill="#f0ede0" stroke="#2d263c" stroke-width="7" stroke-linejoin="round"/>
  <!-- 角 右 -->
  <path d="M212,90 Q222,55 215,28 Q208,55 204,88Z" fill="#f0ede0" stroke="#2d263c" stroke-width="7" stroke-linejoin="round"/>

  <!-- 目の周りの暗色マスク -->
  <ellipse cx="152" cy="148" rx="22" ry="18" fill="#5a7060" opacity="0.35"/>
  <ellipse cx="208" cy="148" rx="22" ry="18" fill="#5a7060" opacity="0.35"/>

  <!-- 目 左(つり目) -->
  <path d="M137,143 Q152,135 167,141" stroke="#2d263c" stroke-width="6" fill="none" stroke-linecap="round"/>
  <ellipse cx="152" cy="150" rx="10" ry="9" fill="#1a1a2e" stroke="#2d263c" stroke-width="3"/>
  <circle cx="156" cy="147" r="3" fill="white"/>

  <!-- 目 右(つり目) -->
  <path d="M193,141 Q208,133 223,140" stroke="#2d263c" stroke-width="6" fill="none" stroke-linecap="round"/>
  <ellipse cx="208" cy="150" rx="10" ry="9" fill="#1a1a2e" stroke="#2d263c" stroke-width="3"/>
  <circle cx="212" cy="147" r="3" fill="white"/>

  <!-- 鼻 -->
  <ellipse cx="180" cy="165" rx="8" ry="5" fill="#2d263c"/>

  <!-- 口(への字気味) -->
  <path d="M162,178 Q180,191 198,178" stroke="#2d263c" stroke-width="5" fill="none" stroke-linecap="round"/>

  <!-- ひげ/白毛 左 -->
  <path d="M160,170 Q138,164 122,159 M157,179 Q133,179 118,175" stroke="#f0ede0" stroke-width="6" fill="none" stroke-linecap="round"/>
  <!-- ひげ/白毛 右 -->
  <path d="M200,170 Q222,164 238,159 M203,179 Q227,179 242,175" stroke="#f0ede0" stroke-width="6" fill="none" stroke-linecap="round"/>

  <!-- 眉毛(白・太・怒り気味) -->
  <path d="M134,131 Q152,123 166,129" stroke="#f0ede0" stroke-width="6" fill="none" stroke-linecap="round"/>
  <path d="M194,129 Q208,123 226,131" stroke="#f0ede0" stroke-width="6" fill="none" stroke-linecap="round"/>

</svg>