<svg xmlns="http://www.w3.org/2000/svg" viewBox="0 0 360 360"><g stroke="#2d263c" stroke-width="7" stroke-linejoin="round" stroke-linecap="round"><path d="M138,185 C100,175 72,140 60,98 C56,84 74,79 78,93 C88,128 110,155 146,164 Z" fill="#f0ebe2"/><ellipse cx="66" cy="88" rx="18" ry="15" fill="#f0ebe2"/><path d="M135,210 C100,212 68,210 44,196 C31,188 40,171 53,178 C76,190 105,193 138,190 Z" fill="#f0ebe2"/><ellipse cx="46" cy="186" rx="17" ry="14" fill="#f0ebe2"/><path d="M222,185 C260,175 288,140 300,98 C304,84 286,79 282,93 C272,128 250,155 214,164 Z" fill="#f0ebe2"/><ellipse cx="294" cy="88" rx="17" ry="15" fill="#f0ebe2"/><path d="M225,210 C260,212 292,210 316,196 C329,188 320,171 307,178 C284,190 255,193 222,190 Z" fill="#f0ebe2"/><ellipse cx="314" cy="186" rx="16" ry="14" fill="#f0ebe2"/><path d="M146,110 C128,140 124,175 134,200 C140,212 154,206 151,193 C145,170 150,142 162,120 Z" fill="#f5f1e8"/><path d="M214,110 C230,138 234,168 226,190 C221,201 208,196 211,184 C217,164 212,140 200,118 Z" fill="#f5f1e8"/><ellipse cx="156" cy="320" rx="24" ry="12" fill="#e2475c"/><ellipse cx="206" cy="322" rx="22" ry="11" fill="#e2475c"/><path d="M146,268 C142,290 142,302 146,316 L172,316 C170,300 168,284 168,270 Z" fill="#e2475c"/><path d="M214,268 C218,290 218,302 214,316 L188,316 C190,300 192,284 192,270 Z" fill="#e2475c"/><path d="M180,198 C137,198 125,248 140,274 C155,296 207,296 222,274 C237,248 223,198 180,198 Z" fill="#e2475c"/><path d="M180,150 C152,152 142,172 146,210 C160,222 200,222 214,210 C218,172 208,152 180,150 Z" fill="#cfc9d6"/><path d="M152,168 C130,178 114,202 108,228 C105,242 124,247 128,233 C133,212 144,195 160,186 Z" fill="#cfc9d6"/><ellipse cx="114" cy="240" rx="15" ry="13" fill="#cfc9d6"/><path d="M210,168 C230,160 244,142 252,120 C257,107 240,100 235,113 C229,130 218,146 204,156 Z" fill="#cfc9d6"/><ellipse cx="250" cy="112" rx="14" ry="13" fill="#cfc9d6"/><path d="M142,100 C136,140 152,164 180,164 C208,164 224,140 218,100 Z" fill="#cfc9d6"/><circle cx="150" cy="60" r="17" fill="#f5f1e8"/><circle cx="212" cy="62" r="15" fill="#f5f1e8"/><path d="M180,46 C138,46 118,76 124,106 C128,124 150,134 180,134 C210,134 232,124 236,106 C242,76 222,46 180,46 Z" fill="#f5f1e8"/><path d="M180,64 C171,84 168,96 180,100 C192,96 189,84 180,64 Z" fill="#f6c945" stroke-width="6"/><ellipse cx="164" cy="138" rx="9" ry="12" fill="#ffffff" stroke-width="5"/><ellipse cx="198" cy="140" rx="8" ry="11" fill="#ffffff" stroke-width="5"/><circle cx="166" cy="140" r="4" fill="#2d263c" stroke="none"/><circle cx="196" cy="142" r="4" fill="#2d263c" stroke="none"/><ellipse cx="181" cy="157" rx="9" ry="5" fill="#d6404f" stroke-width="5"/></g></svg>