<svg xmlns="http://www.w3.org/2000/svg" viewBox="0 0 360 360">
  <!-- 尻尾 -->
  <ellipse cx="295" cy="230" rx="22" ry="14" fill="#c04a1a" stroke="#2d263c" stroke-width="7" stroke-linejoin="round"/>
  <ellipse cx="313" cy="222" rx="13" ry="9" fill="#c04a1a" stroke="#2d263c" stroke-width="6" stroke-linejoin="round"/>

  <!-- 背中の火山コブ(後ろ) -->
  <ellipse cx="248" cy="148" rx="32" ry="38" fill="#888" stroke="#2d263c" stroke-width="7" stroke-linejoin="round"/>
  <ellipse cx="248" cy="142" rx="22" ry="26" fill="#aaa" stroke="#2d263c" stroke-width="0" />
  <ellipse cx="248" cy="128" rx="11" ry="8" fill="#e8e4dc" stroke="#2d263c" stroke-width="5" stroke-linejoin="round"/>
  <!-- 火山口(後ろ) -->
  <ellipse cx="248" cy="127" rx="7" ry="4" fill="#ff6600" stroke="#2d263c" stroke-width="4"/>
  <!-- 溶岩(後ろ) -->
  <path d="M244 128 Q242 118 238 112 Q235 106 240 104 Q245 102 248 112 Q251 102 256 104 Q261 106 258 112 Q254 118 252 128 Z" fill="#ff4400" stroke="none"/>

  <!-- 体(本体) -->
  <ellipse cx="185" cy="230" rx="105" ry="72" fill="#c8501e" stroke="#2d263c" stroke-width="8" stroke-linejoin="round"/>

  <!-- 腹 -->
  <ellipse cx="170" cy="252" rx="62" ry="38" fill="#e8c87a" stroke="#2d263c" stroke-width="5" stroke-linejoin="round"/>

  <!-- 背中の大きな火山コブ(中央・メイン) -->
  <ellipse cx="190" cy="140" rx="42" ry="50" fill="#777" stroke="#2d263c" stroke-width="8" stroke-linejoin="round"/>
  <ellipse cx="190" cy="132" rx="30" ry="35" fill="#999" stroke="#2d263c" stroke-width="0"/>
  <ellipse cx="190" cy="110" rx="16" ry="12" fill="#e8e4dc" stroke="#2d263c" stroke-width="6" stroke-linejoin="round"/>
  <!-- 火山口(中央) -->
  <ellipse cx="190" cy="108" rx="10" ry="6" fill="#ff5500" stroke="#2d263c" stroke-width="4"/>
  <!-- 溶岩(中央) -->
  <path d="M184 110 Q180 96 174 88 Q170 80 177 78 Q184 76 188 90 Q192 76 200 78 Q207 80 203 88 Q197 96 193 110 Z" fill="#ff3300" stroke="none"/>

  <!-- 小コブ(左) -->
  <ellipse cx="132" cy="170" rx="26" ry="32" fill="#888" stroke="#2d263c" stroke-width="7" stroke-linejoin="round"/>
  <ellipse cx="132" cy="162" rx="17" ry="21" fill="#aaa" stroke="#2d263c" stroke-width="0"/>
  <ellipse cx="132" cy="148" rx="9" ry="6" fill="#e8e4dc" stroke="#2d263c" stroke-width="5" stroke-linejoin="round"/>
  <ellipse cx="132" cy="147" rx="6" ry="3.5" fill="#ff6000" stroke="#2d263c" stroke-width="3"/>

  <!-- 頭部 -->
  <ellipse cx="95" cy="218" rx="58" ry="52" fill="#c8501e" stroke="#2d263c" stroke-width="8" stroke-linejoin="round"/>

  <!-- 頭のコブ(火山) -->
  <ellipse cx="90" cy="168" rx="30" ry="36" fill="#777" stroke="#2d263c" stroke-width="7" stroke-linejoin="round"/>
  <ellipse cx="90" cy="160" rx="20" ry="24" fill="#999" stroke="#2d263c" stroke-width="0"/>
  <ellipse cx="90" cy="144" rx="11" ry="8" fill="#e8e4dc" stroke="#2d263c" stroke-width="5" stroke-linejoin="round"/>
  <ellipse cx="90" cy="143" rx="7" ry="4" fill="#ff5000" stroke="#2d263c" stroke-width="3.5"/>
  <path d="M86 145 Q83 133 79 126 Q76 120 82 118 Q88 116 90 128 Q93 116 99 118 Q105 120 101 126 Q97 133 93 145 Z" fill="#ff3300" stroke="none"/>

  <!-- 鼻の突起 -->
  <ellipse cx="60" cy="208" rx="14" ry="10" fill="#b03a10" stroke="#2d263c" stroke-width="6" stroke-linejoin="round"/>

  <!-- 目(左・少し上向き白目) -->
  <ellipse cx="74" cy="195" rx="13" ry="13" fill="#fff" stroke="#2d263c" stroke-width="6" stroke-linejoin="round"/>
  <ellipse cx="76" cy="196" rx="7" ry="7" fill="#2d1a0a" stroke="none"/>
  <ellipse cx="78" cy="194" rx="2.5" ry="2.5" fill="#fff" stroke="none"/>

  <!-- 目(右) -->
  <ellipse cx="112" cy="192" rx="12" ry="12" fill="#fff" stroke="#2d263c" stroke-width="6" stroke-linejoin="round"/>
  <ellipse cx="113" cy="193" rx="6.5" ry="6.5" fill="#2d1a0a" stroke="none"/>
  <ellipse cx="115" cy="191" rx="2" ry="2" fill="#fff" stroke="none"/>

  <!-- 口(だらっとした間抜け笑顔) -->
  <path d="M72 228 Q88 240 112 232" fill="none" stroke="#2d263c" stroke-width="6" stroke-linecap="round"/>

  <!-- 鼻穴 -->
  <ellipse cx="58" cy="206" rx="3.5" ry="2.5" fill="#7a2600" stroke="none"/>
  <ellipse cx="66" cy="210" rx="3.5" ry="2.5" fill="#7a2600" stroke="none"/>

  <!-- 前足(左) -->
  <rect x="58" y="278" width="36" height="30" rx="12" fill="#c8501e" stroke="#2d263c" stroke-width="7" stroke-linejoin="round"/>
  <!-- 前足(右) -->
  <rect x="118" y="282" width="36" height="28" rx="12" fill="#c8501e" stroke="#2d263c" stroke-width="7" stroke-linejoin="round"/>

  <!-- 後ろ足(左) -->
  <rect x="206" y="282" width="38" height="28" rx="12" fill="#b8401a" stroke="#2d263c" stroke-width="7" stroke-linejoin="round"/>
  <!-- 後ろ足(右) -->
  <rect x="258" y="276" width="36" height="30" rx="12" fill="#b8401a" stroke="#2d263c" stroke-width="7" stroke-linejoin="round"/>

  <!-- ほっぺの赤み -->
  <ellipse cx="58" cy="220" rx="9" ry="7" fill="#e84040" opacity="0.55" stroke="none"/>
  <ellipse cx="128" cy="218" rx="9" ry="7" fill="#e84040" opacity="0.55" stroke="none"/>

  <!-- 体の縞模様(横線) -->
  <path d="M145 245 Q185 238 220 245" fill="none" stroke="#a03810" stroke-width="4" stroke-linecap="round" opacity="0.7"/>
  <path d="M150 260 Q185 252 218 260" fill="none" stroke="#a03810" stroke-width="3.5" stroke-linecap="round" opacity="0.6"/>
</svg>