<svg xmlns="http://www.w3.org/2000/svg" viewBox="0 0 360 360">
<g id="mega-burst"><circle cx="180" cy="180" r="172" fill="#fff3c0"/><polygon points="180,180 450.0,180.0 444.8,232.7" fill="#ffd96b"/><polygon points="180,180 429.4,283.3 404.5,330.0" fill="#ffb13d"/><polygon points="180,180 370.9,370.9 330.0,404.5" fill="#ffd96b"/><polygon points="180,180 283.3,429.4 232.7,444.8" fill="#ffb13d"/><polygon points="180,180 180.0,450.0 127.3,444.8" fill="#ffd96b"/><polygon points="180,180 76.7,429.4 30.0,404.5" fill="#ffb13d"/><polygon points="180,180 -10.9,370.9 -44.5,330.0" fill="#ffd96b"/><polygon points="180,180 -69.4,283.3 -84.8,232.7" fill="#ffb13d"/><polygon points="180,180 -90.0,180.0 -84.8,127.3" fill="#ffd96b"/><polygon points="180,180 -69.4,76.7 -44.5,30.0" fill="#ffb13d"/><polygon points="180,180 -10.9,-10.9 30.0,-44.5" fill="#ffd96b"/><polygon points="180,180 76.7,-69.4 127.3,-84.8" fill="#ffb13d"/><polygon points="180,180 180.0,-90.0 232.7,-84.8" fill="#ffd96b"/><polygon points="180,180 283.3,-69.4 330.0,-44.5" fill="#ffb13d"/><polygon points="180,180 370.9,-10.9 404.5,30.0" fill="#ffd96b"/><polygon points="180,180 429.4,76.7 444.8,127.3" fill="#ffb13d"/><circle cx="180" cy="180" r="120" fill="#fff3c0" opacity="0.55"/></g>
  <!-- 影 -->
  <ellipse cx="180" cy="320" rx="90" ry="18" fill="#00000022"/>

  <!-- 尻尾 -->
  <path d="M260 230 Q290 200 305 170 Q315 150 310 130 Q318 140 322 160 Q325 180 315 205 Q300 235 275 250 Z" fill="#C03010" stroke="#2d263c" stroke-width="5" stroke-linejoin="round" stroke-linecap="round"/>
  <!-- 尻尾の炎タッセル -->
  <path d="M305 125 Q315 110 308 98 Q320 108 318 95 Q328 110 322 128 Q315 140 308 135 Z" fill="#FF6020" stroke="#2d263c" stroke-width="4" stroke-linejoin="round" stroke-linecap="round"/>

  <!-- 体 (胴体) -->
  <ellipse cx="185" cy="230" rx="70" ry="55" fill="#D0A030" stroke="#2d263c" stroke-width="7" stroke-linejoin="round" stroke-linecap="round"/>

  <!-- 腹部 (薄い色) -->
  <ellipse cx="180" cy="245" rx="42" ry="32" fill="#E8C060" stroke="#2d263c" stroke-width="4" stroke-linejoin="round" stroke-linecap="round"/>

  <!-- 後ろ足 (左) -->
  <path d="M145 275 Q130 295 125 315 Q135 318 148 315 Q152 295 160 278 Z" fill="#D0A030" stroke="#2d263c" stroke-width="6" stroke-linejoin="round" stroke-linecap="round"/>
  <!-- 後ろ足 (右) -->
  <path d="M215 275 Q228 295 232 315 Q222 318 210 315 Q207 295 202 278 Z" fill="#D0A030" stroke="#2d263c" stroke-width="6" stroke-linejoin="round" stroke-linecap="round"/>

  <!-- 前足 (左) -->
  <path d="M135 240 Q110 255 100 275 Q112 280 126 275 Q130 258 145 248 Z" fill="#D0A030" stroke="#2d263c" stroke-width="6" stroke-linejoin="round" stroke-linecap="round"/>
  <!-- 前足 (右) -->
  <path d="M230 240 Q255 255 265 275 Q252 280 240 274 Q237 258 222 248 Z" fill="#D0A030" stroke="#2d263c" stroke-width="6" stroke-linejoin="round" stroke-linecap="round"/>

  <!-- たてがみ外側 (炎ギザギザ) -->
  <path d="M180 80
    L162 65 L170 85 L148 70 L158 92 L132 82 L148 105
    L120 100 L140 120 L112 122 L135 140
    L108 148 L135 158 L112 172 L138 175
    L115 192 L142 190 L125 210 L152 200
    L140 225 L165 208 L162 235
    L180 215
    L198 235 L195 208 L220 225
    L208 200 L235 210 L218 190
    L245 192 L222 175 L248 172 L222 158
    L252 148 L225 140 L248 122 L220 120
    L240 100 L212 105 L228 82
    L202 92 L212 70 L190 85 L198 65 Z"
    fill="#C03010" stroke="#2d263c" stroke-width="5" stroke-linejoin="round" stroke-linecap="round"/>

  <!-- たてがみ内側 -->
  <circle cx="180" cy="158" r="58" fill="#902008" stroke="#2d263c" stroke-width="5"/>

  <!-- 顔の地肌 -->
  <circle cx="180" cy="158" r="48" fill="#D0A030" stroke="#2d263c" stroke-width="5"/>

  <!-- 耳 (左) -->
  <path d="M148 115 Q138 90 148 75 Q158 88 155 112 Z" fill="#D0A030" stroke="#2d263c" stroke-width="5" stroke-linejoin="round" stroke-linecap="round"/>
  <!-- 耳 (右) -->
  <path d="M212 115 Q222 90 212 75 Q202 88 205 112 Z" fill="#D0A030" stroke="#2d263c" stroke-width="5" stroke-linejoin="round" stroke-linecap="round"/>

  <!-- 鼻/口先 -->
  <ellipse cx="180" cy="172" rx="22" ry="16" fill="#E8C060" stroke="#2d263c" stroke-width="5" stroke-linejoin="round" stroke-linecap="round"/>

  <!-- 鼻 -->
  <ellipse cx="180" cy="165" rx="8" ry="5" fill="#2d263c"/>

  <!-- 口 (歯を見せた笑み) -->
  <path d="M162 178 Q172 188 180 190 Q188 188 198 178" fill="none" stroke="#2d263c" stroke-width="4" stroke-linejoin="round" stroke-linecap="round"/>
  <!-- 牙 -->
  <path d="M168 180 L165 190 L172 180 Z" fill="#F0F0F0" stroke="#2d263c" stroke-width="3"/>
  <path d="M192 180 L195 190 L188 180 Z" fill="#F0F0F0" stroke="#2d263c" stroke-width="3"/>

  <!-- 目 (左) 青い目 -->
  <ellipse cx="160" cy="150" rx="12" ry="13" fill="white" stroke="#2d263c" stroke-width="4"/>
  <ellipse cx="162" cy="151" rx="8" ry="9" fill="#3060D0"/>
  <ellipse cx="163" cy="149" rx="4" ry="4" fill="#1030A0"/>
  <circle cx="166" cy="147" r="3" fill="white"/>

  <!-- 目 (右) 青い目 -->
  <ellipse cx="200" cy="150" rx="12" ry="13" fill="white" stroke="#2d263c" stroke-width="4"/>
  <ellipse cx="202" cy="151" rx="8" ry="9" fill="#3060D0"/>
  <ellipse cx="203" cy="149" rx="4" ry="4" fill="#1030A0"/>
  <circle cx="206" cy="147" r="3" fill="white"/>

  <!-- ひげ -->
  <line x1="145" y1="170" x2="115" y2="165" stroke="#2d263c" stroke-width="3" stroke-linecap="round"/>
  <line x1="145" y1="175" x2="115" y2="175" stroke="#2d263c" stroke-width="3" stroke-linecap="round"/>
  <line x1="215" y1="170" x2="245" y2="165" stroke="#2d263c" stroke-width="3" stroke-linecap="round"/>
  <line x1="215" y1="175" x2="245" y2="175" stroke="#2d263c" stroke-width="3" stroke-linecap="round"/>
</svg>
