<svg xmlns="http://www.w3.org/2000/svg" viewBox="0 0 360 360">
<ellipse cx="180" cy="330" rx="70" ry="14" fill="#2d263c" opacity="0.15"/>
<path d="M110 320 L100 150 Q95 60 180 30 Q265 60 260 150 L250 320 Z" fill="#242130" stroke="#2d263c" stroke-width="8" stroke-linejoin="round"/>
<ellipse cx="180" cy="140" rx="82" ry="60" fill="#3a3550" stroke="#2d263c" stroke-width="7" stroke-linejoin="round"/>
<circle cx="150" cy="135" r="14" fill="#f4e04d" stroke="#2d263c" stroke-width="6"/>
<circle cx="210" cy="135" r="14" fill="#f4e04d" stroke="#2d263c" stroke-width="6"/>
<circle cx="150" cy="135" r="5" fill="#2d263c"/>
<circle cx="210" cy="135" r="5" fill="#2d263c"/>
<path d="M150 185 Q180 200 210 185" fill="none" stroke="#f4e04d" stroke-width="7" stroke-linecap="round"/>
<path d="M130 250 Q180 265 230 250" fill="none" stroke="#2d263c" stroke-width="6" stroke-linecap="round"/>
<rect x="95" y="150" width="26" height="26" rx="6" fill="#f4e04d" stroke="#2d263c" stroke-width="6"/>
<rect x="239" y="150" width="26" height="26" rx="6" fill="#f4e04d" stroke="#2d263c" stroke-width="6"/>
<path d="M95 190 Q40 210 30 270" fill="none" stroke="#2d263c" stroke-width="9" stroke-linecap="round"/>
<circle cx="26" cy="285" r="26" fill="#3a3550" stroke="#2d263c" stroke-width="7"/>
<path d="M265 190 Q320 210 330 270" fill="none" stroke="#2d263c" stroke-width="9" stroke-linecap="round"/>
<circle cx="334" cy="285" r="26" fill="#3a3550" stroke="#2d263c" stroke-width="7"/>
<rect x="118" y="320" width="46" height="24" rx="8" fill="#3a3550" stroke="#2d263c" stroke-width="7"/>
<rect x="196" y="320" width="46" height="24" rx="8" fill="#3a3550" stroke="#2d263c" stroke-width="7"/>
<circle cx="180" cy="90" r="10" fill="#f4e04d" stroke="#2d263c" stroke-width="5"/>
<circle cx="130" cy="230" r="9" fill="#f4e04d" stroke="#2d263c" stroke-width="5"/>
<circle cx="230" cy="230" r="9" fill="#f4e04d" stroke="#2d263c" stroke-width="5"/>
</svg>
