<svg xmlns="http://www.w3.org/2000/svg" viewBox="0 0 360 360">
<g id="mega-burst"><circle cx="180" cy="180" r="172" fill="#fff3c0"/><polygon points="180,180 450.0,180.0 444.8,232.7" fill="#ffd96b"/><polygon points="180,180 429.4,283.3 404.5,330.0" fill="#ffb13d"/><polygon points="180,180 370.9,370.9 330.0,404.5" fill="#ffd96b"/><polygon points="180,180 283.3,429.4 232.7,444.8" fill="#ffb13d"/><polygon points="180,180 180.0,450.0 127.3,444.8" fill="#ffd96b"/><polygon points="180,180 76.7,429.4 30.0,404.5" fill="#ffb13d"/><polygon points="180,180 -10.9,370.9 -44.5,330.0" fill="#ffd96b"/><polygon points="180,180 -69.4,283.3 -84.8,232.7" fill="#ffb13d"/><polygon points="180,180 -90.0,180.0 -84.8,127.3" fill="#ffd96b"/><polygon points="180,180 -69.4,76.7 -44.5,30.0" fill="#ffb13d"/><polygon points="180,180 -10.9,-10.9 30.0,-44.5" fill="#ffd96b"/><polygon points="180,180 76.7,-69.4 127.3,-84.8" fill="#ffb13d"/><polygon points="180,180 180.0,-90.0 232.7,-84.8" fill="#ffd96b"/><polygon points="180,180 283.3,-69.4 330.0,-44.5" fill="#ffb13d"/><polygon points="180,180 370.9,-10.9 404.5,30.0" fill="#ffd96b"/><polygon points="180,180 429.4,76.7 444.8,127.3" fill="#ffb13d"/><circle cx="180" cy="180" r="120" fill="#fff3c0" opacity="0.55"/></g>

  <!-- 大きな花びら(後ろ層) -->
  <ellipse cx="180" cy="110" rx="105" ry="32" fill="#e8609a" stroke="#2d263c" stroke-width="7" stroke-linejoin="round"/>
  <ellipse cx="180" cy="110" rx="32" ry="105" fill="#e8609a" stroke="#2d263c" stroke-width="7" stroke-linejoin="round"/>
  <ellipse cx="180" cy="110" rx="82" ry="25" fill="#f07bb5" stroke="#2d263c" stroke-width="6" stroke-linejoin="round" transform="rotate(45 180 110)"/>
  <ellipse cx="180" cy="110" rx="82" ry="25" fill="#f07bb5" stroke="#2d263c" stroke-width="6" stroke-linejoin="round" transform="rotate(-45 180 110)"/>

  <!-- 花の中心 -->
  <circle cx="180" cy="110" r="36" fill="#f5c842" stroke="#2d263c" stroke-width="7"/>
  <!-- 花芯の点々 -->
  <circle cx="170" cy="104" r="5" fill="#d4a200"/>
  <circle cx="190" cy="104" r="5" fill="#d4a200"/>
  <circle cx="180" cy="118" r="5" fill="#d4a200"/>
  <circle cx="165" cy="116" r="4" fill="#d4a200"/>
  <circle cx="195" cy="116" r="4" fill="#d4a200"/>

  <!-- 体(メインボディ) -->
  <ellipse cx="182" cy="250" rx="95" ry="80" fill="#5a9e52" stroke="#2d263c" stroke-width="8" stroke-linejoin="round"/>

  <!-- 腹の薄い色 -->
  <ellipse cx="182" cy="265" rx="58" ry="48" fill="#a8d87a" stroke="#2d263c" stroke-width="5" stroke-linejoin="round"/>

  <!-- 小花左(肩) -->
  <ellipse cx="100" cy="185" rx="28" ry="12" fill="#e8609a" stroke="#2d263c" stroke-width="6" stroke-linejoin="round" transform="rotate(-20 100 185)"/>
  <ellipse cx="100" cy="185" rx="12" ry="28" fill="#e8609a" stroke="#2d263c" stroke-width="6" stroke-linejoin="round" transform="rotate(-20 100 185)"/>
  <circle cx="100" cy="185" r="14" fill="#f5c842" stroke="#2d263c" stroke-width="5"/>

  <!-- 小花右(肩) -->
  <ellipse cx="262" cy="188" rx="26" ry="11" fill="#e8609a" stroke="#2d263c" stroke-width="6" stroke-linejoin="round" transform="rotate(18 262 188)"/>
  <ellipse cx="262" cy="188" rx="11" ry="26" fill="#e8609a" stroke="#2d263c" stroke-width="6" stroke-linejoin="round" transform="rotate(18 262 188)"/>
  <circle cx="262" cy="188" r="13" fill="#f5c842" stroke="#2d263c" stroke-width="5"/>

  <!-- 前足左 -->
  <rect x="100" y="295" width="38" height="48" rx="16" fill="#5a9e52" stroke="#2d263c" stroke-width="7" stroke-linejoin="round"/>
  <!-- 前足右 -->
  <rect x="222" y="292" width="40" height="50" rx="16" fill="#5a9e52" stroke="#2d263c" stroke-width="7" stroke-linejoin="round"/>

  <!-- 後足左 -->
  <ellipse cx="118" cy="318" rx="22" ry="14" fill="#4a8a44" stroke="#2d263c" stroke-width="6"/>
  <!-- 後足右 -->
  <ellipse cx="246" cy="320" rx="22" ry="14" fill="#4a8a44" stroke="#2d263c" stroke-width="6"/>

  <!-- 爪左 -->
  <ellipse cx="107" cy="340" rx="8" ry="5" fill="#3a6e34" stroke="#2d263c" stroke-width="4"/>
  <ellipse cx="122" cy="342" rx="8" ry="5" fill="#3a6e34" stroke="#2d263c" stroke-width="4"/>

  <!-- 爪右 -->
  <ellipse cx="235" cy="342" rx="8" ry="5" fill="#3a6e34" stroke="#2d263c" stroke-width="4"/>
  <ellipse cx="250" cy="340" rx="8" ry="5" fill="#3a6e34" stroke="#2d263c" stroke-width="4"/>

  <!-- 首〜頭 -->
  <ellipse cx="182" cy="198" rx="52" ry="44" fill="#5a9e52" stroke="#2d263c" stroke-width="8" stroke-linejoin="round"/>

  <!-- 耳っぽい突起(左) -->
  <ellipse cx="143" cy="175" rx="12" ry="18" fill="#5a9e52" stroke="#2d263c" stroke-width="6" stroke-linejoin="round" transform="rotate(-15 143 175)"/>
  <!-- 耳っぽい突起(右) -->
  <ellipse cx="222" cy="177" rx="12" ry="18" fill="#5a9e52" stroke="#2d263c" stroke-width="6" stroke-linejoin="round" transform="rotate(12 222 177)"/>

  <!-- 目(左) -->
  <ellipse cx="163" cy="195" rx="14" ry="16" fill="white" stroke="#2d263c" stroke-width="5"/>
  <circle cx="166" cy="198" r="8" fill="#2d263c"/>
  <circle cx="169" cy="195" r="3" fill="white"/>

  <!-- 目(右) -->
  <ellipse cx="202" cy="194" rx="13" ry="15" fill="white" stroke="#2d263c" stroke-width="5"/>
  <circle cx="205" cy="197" r="7" fill="#2d263c"/>
  <circle cx="208" cy="194" r="3" fill="white"/>

  <!-- 眉左(への字) -->
  <path d="M150 182 Q162 177 170 181" stroke="#2d263c" stroke-width="5" fill="none" stroke-linecap="round"/>
  <!-- 眉右(への字) -->
  <path d="M194 180 Q204 175 216 179" stroke="#2d263c" stroke-width="5" fill="none" stroke-linecap="round"/>

  <!-- 鼻 -->
  <ellipse cx="182" cy="207" rx="6" ry="4" fill="#3a6e34"/>

  <!-- 口(へのへの) -->
  <path d="M162 218 Q182 212 202 217" stroke="#2d263c" stroke-width="5" fill="none" stroke-linecap="round"/>

  <!-- 蔓(体から出てるかんじ) -->
  <path d="M142 230 Q118 215 105 225" stroke="#3a6e34" stroke-width="6" fill="none" stroke-linecap="round"/>
  <circle cx="103" cy="227" r="7" fill="#5a9e52" stroke="#2d263c" stroke-width="4"/>

  <path d="M222 232 Q248 218 260 228" stroke="#3a6e34" stroke-width="6" fill="none" stroke-linecap="round"/>
  <circle cx="262" cy="230" r="7" fill="#5a9e52" stroke="#2d263c" stroke-width="4"/>

</svg>