<svg xmlns="http://www.w3.org/2000/svg" viewBox="0 0 360 360">
  <!-- 白いたてがみ(後ろ・頭から流れる) -->
  <path d="M155 70 Q120 40 100 20 Q90 50 110 80 Q85 55 70 45 Q75 75 100 90 Q80 78 65 80 Q75 100 100 105" fill="#FFFEF0" stroke="#2d263c" stroke-width="6" stroke-linejoin="round" stroke-linecap="round"/>
  <!-- しっぽ -->
  <path d="M200 255 Q240 285 255 310 Q268 330 260 345 Q250 348 242 338 Q235 325 225 305 Q215 285 205 270" fill="#F8D030" stroke="#2d263c" stroke-width="7" stroke-linejoin="round" stroke-linecap="round"/>
  <!-- しっぽの赤い球 -->
  <ellipse cx="251" cy="340" rx="16" ry="14" fill="#E8304A" stroke="#2d263c" stroke-width="6"/>
  <ellipse cx="248" cy="335" rx="6" ry="5" fill="#FF6070" opacity="0.7"/>
  <!-- しっぽの黒リング -->
  <path d="M215 278 Q232 272 240 282" fill="none" stroke="#2d263c" stroke-width="5" stroke-linecap="round"/>
  <path d="M228 296 Q245 290 252 300" fill="none" stroke="#2d263c" stroke-width="5" stroke-linecap="round"/>
  <!-- 胴体 -->
  <ellipse cx="178" cy="220" rx="60" ry="72" fill="#F8D030" stroke="#2d263c" stroke-width="8" stroke-linejoin="round"/>
  <!-- お腹(白っぽい黄) -->
  <ellipse cx="175" cy="228" rx="32" ry="45" fill="#FBEE88" stroke="none"/>
  <!-- 右腕 -->
  <path d="M232 195 Q268 188 278 200 Q282 215 265 222 Q248 228 232 218" fill="#F8D030" stroke="#2d263c" stroke-width="7" stroke-linejoin="round" stroke-linecap="round"/>
  <!-- 右腕の黒リング -->
  <path d="M248 196 Q262 193 268 200" fill="none" stroke="#2d263c" stroke-width="5" stroke-linecap="round"/>
  <!-- 左腕 -->
  <path d="M125 195 Q90 183 78 196 Q72 212 88 220 Q105 228 125 218" fill="#F8D030" stroke="#2d263c" stroke-width="7" stroke-linejoin="round" stroke-linecap="round"/>
  <!-- 左腕の黒リング -->
  <path d="M112 196 Q98 190 90 198" fill="none" stroke="#2d263c" stroke-width="5" stroke-linecap="round"/>
  <!-- 右足 -->
  <path d="M198 278 Q210 300 218 318 Q222 328 210 330 Q198 332 195 318 Q190 302 188 282" fill="#F8D030" stroke="#2d263c" stroke-width="7" stroke-linejoin="round" stroke-linecap="round"/>
  <!-- 左足 -->
  <path d="M158 278 Q148 300 142 318 Q138 328 150 330 Q162 332 165 318 Q168 302 168 282" fill="#F8D030" stroke="#2d263c" stroke-width="7" stroke-linejoin="round" stroke-linecap="round"/>
  <!-- 首 -->
  <path d="M148 155 Q145 145 150 135 Q165 120 185 122 Q200 122 205 135 Q210 148 208 158" fill="#F8D030" stroke="none"/>
  <!-- 頭 -->
  <ellipse cx="178" cy="118" rx="52" ry="50" fill="#F8D030" stroke="#2d263c" stroke-width="8" stroke-linejoin="round"/>
  <!-- 頭頂の白いたてがみ(メガの象徴) -->
  <path d="M178 70 Q165 45 155 28 Q168 48 165 68" fill="#FFFEF0" stroke="#2d263c" stroke-width="6" stroke-linejoin="round" stroke-linecap="round"/>
  <path d="M178 70 Q178 40 178 22 Q182 42 180 68" fill="#FFFEF0" stroke="#2d263c" stroke-width="6" stroke-linejoin="round" stroke-linecap="round"/>
  <path d="M178 70 Q192 45 200 28 Q188 48 182 68" fill="#FFFEF0" stroke="#2d263c" stroke-width="6" stroke-linejoin="round" stroke-linecap="round"/>
  <!-- 耳(小さい三角) -->
  <path d="M138 100 Q128 78 138 72 Q148 82 145 100" fill="#F8D030" stroke="#2d263c" stroke-width="6" stroke-linejoin="round" stroke-linecap="round"/>
  <path d="M218 100 Q228 78 218 72 Q208 82 212 100" fill="#F8D030" stroke="#2d263c" stroke-width="6" stroke-linejoin="round" stroke-linecap="round"/>
  <!-- 耳の内側(赤) -->
  <path d="M140 98 Q133 82 140 77 Q147 84 145 98" fill="#E8304A" stroke="none"/>
  <path d="M216 98 Q223 82 216 77 Q209 84 212 98" fill="#E8304A" stroke="none"/>
  <!-- 額の赤いリング模様 -->
  <ellipse cx="178" cy="96" rx="12" ry="10" fill="none" stroke="#E8304A" stroke-width="5"/>
  <circle cx="178" cy="96" r="4" fill="#E8304A"/>
  <!-- 目(左) -->
  <ellipse cx="158" cy="118" rx="10" ry="11" fill="white" stroke="#2d263c" stroke-width="5"/>
  <ellipse cx="160" cy="120" rx="6" ry="7" fill="#2d263c"/>
  <circle cx="162" cy="118" r="2" fill="white"/>
  <!-- 目(右) -->
  <ellipse cx="200" cy="116" rx="11" ry="12" fill="white" stroke="#2d263c" stroke-width="5"/>
  <ellipse cx="202" cy="118" rx="7" ry="8" fill="#2d263c"/>
  <circle cx="204" cy="116" r="2.5" fill="white"/>
  <!-- ほっぺの赤丸(左) -->
  <ellipse cx="142" cy="130" rx="11" ry="9" fill="#E8304A" opacity="0.85"/>
  <!-- ほっぺの赤丸(右) -->
  <ellipse cx="215" cy="128" rx="12" ry="9" fill="#E8304A" opacity="0.85"/>
  <!-- 口 -->
  <path d="M168 138 Q178 147 190 137" fill="none" stroke="#2d263c" stroke-width="5" stroke-linecap="round"/>
  <!-- 胴体の首への繋ぎ(線で自然に) -->
  <path d="M150 162 Q148 148 150 138 Q165 122 185 122 Q200 122 208 138 Q210 150 208 162" fill="#F8D030" stroke="#2d263c" stroke-width="7" stroke-linejoin="round" stroke-linecap="round"/>
  <!-- 首の黒リング -->
  <path d="M155 148 Q178 140 202 148" fill="none" stroke="#2d263c" stroke-width="5" stroke-linecap="round"/>
</svg>