<svg xmlns="http://www.w3.org/2000/svg" viewBox="0 0 360 360">
<g id="mega-burst"><circle cx="180" cy="180" r="172" fill="#fff3c0"/><polygon points="180,180 450.0,180.0 444.8,232.7" fill="#ffd96b"/><polygon points="180,180 429.4,283.3 404.5,330.0" fill="#ffb13d"/><polygon points="180,180 370.9,370.9 330.0,404.5" fill="#ffd96b"/><polygon points="180,180 283.3,429.4 232.7,444.8" fill="#ffb13d"/><polygon points="180,180 180.0,450.0 127.3,444.8" fill="#ffd96b"/><polygon points="180,180 76.7,429.4 30.0,404.5" fill="#ffb13d"/><polygon points="180,180 -10.9,370.9 -44.5,330.0" fill="#ffd96b"/><polygon points="180,180 -69.4,283.3 -84.8,232.7" fill="#ffb13d"/><polygon points="180,180 -90.0,180.0 -84.8,127.3" fill="#ffd96b"/><polygon points="180,180 -69.4,76.7 -44.5,30.0" fill="#ffb13d"/><polygon points="180,180 -10.9,-10.9 30.0,-44.5" fill="#ffd96b"/><polygon points="180,180 76.7,-69.4 127.3,-84.8" fill="#ffb13d"/><polygon points="180,180 180.0,-90.0 232.7,-84.8" fill="#ffd96b"/><polygon points="180,180 283.3,-69.4 330.0,-44.5" fill="#ffb13d"/><polygon points="180,180 370.9,-10.9 404.5,30.0" fill="#ffd96b"/><polygon points="180,180 429.4,76.7 444.8,127.3" fill="#ffb13d"/><circle cx="180" cy="180" r="120" fill="#fff3c0" opacity="0.55"/></g>
  <!-- 尻尾(後ろ) -->
  <polygon points="290,260 330,230 340,280 310,295" fill="#3a4d6b" stroke="#2d263c" stroke-width="7" stroke-linejoin="round"/>
  <!-- 尻尾の下の葉 -->
  <polygon points="290,270 325,295 310,315 285,295" fill="#3a4d6b" stroke="#2d263c" stroke-width="7" stroke-linejoin="round"/>

  <!-- 背びれ(大) -->
  <polygon points="180,90 210,40 230,95" fill="#3a4d6b" stroke="#2d263c" stroke-width="7" stroke-linejoin="round"/>

  <!-- 胸びれ左 -->
  <ellipse cx="100" cy="230" rx="38" ry="16" transform="rotate(-30,100,230)" fill="#3a4d6b" stroke="#2d263c" stroke-width="7" stroke-linejoin="round"/>
  <!-- 胸びれ右 -->
  <ellipse cx="270" cy="240" rx="42" ry="15" transform="rotate(20,270,240)" fill="#3a4d6b" stroke="#2d263c" stroke-width="7" stroke-linejoin="round"/>

  <!-- 体(メイン) -->
  <ellipse cx="185" cy="210" rx="130" ry="100" fill="#3a4d6b" stroke="#2d263c" stroke-width="8" stroke-linejoin="round"/>

  <!-- 腹部(クリーム色) -->
  <ellipse cx="190" cy="240" rx="78" ry="58" fill="#f0d080" stroke="#2d263c" stroke-width="6" stroke-linejoin="round"/>

  <!-- 頭部 -->
  <ellipse cx="175" cy="140" rx="100" ry="78" fill="#3a4d6b" stroke="#2d263c" stroke-width="8" stroke-linejoin="round"/>

  <!-- 頭の角(左・大きい) -->
  <polygon points="125,82 100,30 148,72" fill="#e8e0b0" stroke="#2d263c" stroke-width="7" stroke-linejoin="round"/>
  <!-- 頭の角(右) -->
  <polygon points="205,78 225,25 240,75" fill="#e8e0b0" stroke="#2d263c" stroke-width="7" stroke-linejoin="round"/>

  <!-- 鼻先の突起 -->
  <polygon points="78,148 42,128 80,168" fill="#e8e0b0" stroke="#2d263c" stroke-width="6" stroke-linejoin="round"/>

  <!-- 上顎 -->
  <path d="M78,158 Q120,130 175,132 Q230,130 260,150 Q250,172 175,172 Q105,172 78,158Z" fill="#2d263c" stroke="#2d263c" stroke-width="5" stroke-linejoin="round"/>
  <!-- 下顎 -->
  <path d="M85,175 Q130,168 175,170 Q225,168 258,175 Q245,210 175,215 Q110,210 85,175Z" fill="#2d263c" stroke="#2d263c" stroke-width="5" stroke-linejoin="round"/>

  <!-- 上の歯 -->
  <polygon points="110,172 115,155 122,172" fill="white" stroke="#2d263c" stroke-width="4"/>
  <polygon points="130,170 136,151 143,170" fill="white" stroke="#2d263c" stroke-width="4"/>
  <polygon points="150,169 156,149 163,169" fill="white" stroke="#2d263c" stroke-width="4"/>
  <polygon points="170,169 176,148 183,169" fill="white" stroke="#2d263c" stroke-width="4"/>
  <polygon points="190,170 197,151 204,170" fill="white" stroke="#2d263c" stroke-width="4"/>
  <polygon points="212,172 218,155 225,172" fill="white" stroke="#2d263c" stroke-width="4"/>

  <!-- 下の歯 -->
  <polygon points="118,175 123,193 130,175" fill="white" stroke="#2d263c" stroke-width="4"/>
  <polygon points="143,174 148,194 155,174" fill="white" stroke="#2d263c" stroke-width="4"/>
  <polygon points="168,173 174,194 181,173" fill="white" stroke="#2d263c" stroke-width="4"/>
  <polygon points="195,175 200,194 207,175" fill="white" stroke="#2d263c" stroke-width="4"/>
  <polygon points="218,176 223,192 230,176" fill="white" stroke="#2d263c" stroke-width="4"/>

  <!-- 目(左) -->
  <ellipse cx="138" cy="122" rx="14" ry="11" fill="#f0d080" stroke="#2d263c" stroke-width="5"/>
  <ellipse cx="141" cy="124" rx="7" ry="7" fill="#1a1a1a"/>
  <ellipse cx="144" cy="122" rx="3" ry="3" fill="white"/>
  <!-- 目(右) -->
  <ellipse cx="218" cy="120" rx="14" ry="11" fill="#f0d080" stroke="#2d263c" stroke-width="5"/>
  <ellipse cx="221" cy="122" rx="7" ry="7" fill="#1a1a1a"/>
  <ellipse cx="224" cy="120" rx="3" ry="3" fill="white"/>

  <!-- 眉(怒り気味・左) -->
  <path d="M126,112 Q138,105 153,110" fill="none" stroke="#2d263c" stroke-width="6" stroke-linecap="round"/>
  <!-- 眉(右) -->
  <path d="M207,108 Q218,103 232,110" fill="none" stroke="#2d263c" stroke-width="6" stroke-linecap="round"/>

  <!-- 体の星マーク(左) -->
  <polygon points="120,195 124,183 128,195 140,195 131,202 135,214 124,207 113,214 117,202 108,195" fill="#f0d080" stroke="#2d263c" stroke-width="4" stroke-linejoin="round"/>
  <!-- 体の星マーク(右) -->
  <polygon points="240,200 244,188 248,200 260,200 251,207 255,219 244,212 233,219 237,207 228,200" fill="#f0d080" stroke="#2d263c" stroke-width="4" stroke-linejoin="round"/>
</svg>