<svg xmlns="http://www.w3.org/2000/svg" viewBox="0 0 360 360">
  <!-- tail feathers (behind everything) -->
  <ellipse cx="180" cy="310" rx="55" ry="22" fill="#c8883a" stroke="#2d263c" stroke-width="7" stroke-linejoin="round"/>
  <ellipse cx="148" cy="318" rx="20" ry="30" fill="#f0f0e0" stroke="#2d263c" stroke-width="6" stroke-linejoin="round" transform="rotate(-18 148 318)"/>
  <ellipse cx="180" cy="322" rx="18" ry="32" fill="#c8883a" stroke="#2d263c" stroke-width="6" stroke-linejoin="round"/>
  <ellipse cx="212" cy="318" rx="20" ry="30" fill="#f0f0e0" stroke="#2d263c" stroke-width="6" stroke-linejoin="round" transform="rotate(18 212 318)"/>
  <ellipse cx="135" cy="310" rx="14" ry="24" fill="#a06020" stroke="#2d263c" stroke-width="6" stroke-linejoin="round" transform="rotate(-30 135 310)"/>
  <ellipse cx="225" cy="310" rx="14" ry="24" fill="#a06020" stroke="#2d263c" stroke-width="6" stroke-linejoin="round" transform="rotate(30 225 310)"/>

  <!-- LEFT WING (mega - huge, swept back) -->
  <polygon points="90,195 28,100 18,155 40,230 80,250 130,240" fill="#f5eed8" stroke="#2d263c" stroke-width="7" stroke-linejoin="round"/>
  <polygon points="90,195 30,85 55,78 100,170" fill="#c8883a" stroke="#2d263c" stroke-width="6" stroke-linejoin="round"/>
  <polygon points="55,78 30,85 35,60 68,52" fill="#a06020" stroke="#2d263c" stroke-width="6" stroke-linejoin="round"/>
  <!-- wing tips accent -->
  <line x1="80" y1="100" x2="45" y2="145" stroke="#a06020" stroke-width="4" stroke-linecap="round"/>
  <line x1="90" y1="130" x2="55" y2="175" stroke="#a06020" stroke-width="4" stroke-linecap="round"/>

  <!-- RIGHT WING (mega - huge) -->
  <polygon points="270,195 332,100 342,155 320,230 280,250 230,240" fill="#f5eed8" stroke="#2d263c" stroke-width="7" stroke-linejoin="round"/>
  <polygon points="270,195 330,85 305,78 260,170" fill="#c8883a" stroke="#2d263c" stroke-width="6" stroke-linejoin="round"/>
  <polygon points="305,78 330,85 325,60 292,52" fill="#a06020" stroke="#2d263c" stroke-width="6" stroke-linejoin="round"/>
  <!-- wing tips accent -->
  <line x1="280" y1="100" x2="315" y2="145" stroke="#a06020" stroke-width="4" stroke-linecap="round"/>
  <line x1="270" y1="130" x2="305" y2="175" stroke="#a06020" stroke-width="4" stroke-linecap="round"/>

  <!-- BODY -->
  <ellipse cx="180" cy="230" rx="62" ry="72" fill="#c8883a" stroke="#2d263c" stroke-width="8" stroke-linejoin="round"/>
  <!-- belly cream -->
  <ellipse cx="180" cy="242" rx="40" ry="52" fill="#f5e8b0" stroke="#2d263c" stroke-width="5" stroke-linejoin="round"/>

  <!-- FEET / legs -->
  <line x1="162" y1="295" x2="148" y2="330" stroke="#d4a030" stroke-width="8" stroke-linecap="round"/>
  <line x1="198" y1="295" x2="212" y2="330" stroke="#d4a030" stroke-width="8" stroke-linecap="round"/>
  <!-- toes left -->
  <line x1="148" y1="330" x2="132" y2="340" stroke="#d4a030" stroke-width="6" stroke-linecap="round"/>
  <line x1="148" y1="330" x2="148" y2="344" stroke="#d4a030" stroke-width="6" stroke-linecap="round"/>
  <line x1="148" y1="330" x2="162" y2="340" stroke="#d4a030" stroke-width="6" stroke-linecap="round"/>
  <!-- toes right -->
  <line x1="212" y1="330" x2="198" y2="340" stroke="#d4a030" stroke-width="6" stroke-linecap="round"/>
  <line x1="212" y1="330" x2="212" y2="344" stroke="#d4a030" stroke-width="6" stroke-linecap="round"/>
  <line x1="212" y1="330" x2="226" y2="340" stroke="#d4a030" stroke-width="6" stroke-linecap="round"/>

  <!-- HEAD -->
  <ellipse cx="180" cy="148" rx="50" ry="52" fill="#c8883a" stroke="#2d263c" stroke-width="8" stroke-linejoin="round"/>
  <!-- face cream -->
  <ellipse cx="180" cy="158" rx="34" ry="36" fill="#f5e8b0" stroke="#2d263c" stroke-width="5" stroke-linejoin="round"/>

  <!-- CREST - mega pidgeot's huge flowing crest -->
  <!-- base of crest -->
  <path d="M168,105 C155,80 130,50 120,25 C140,35 155,55 165,75 C152,40 160,15 168,5 C172,30 170,60 172,80 C175,45 188,18 195,8 C196,35 185,58 183,78 C190,55 210,38 228,32 C215,52 198,68 188,90" fill="#e03060" stroke="#2d263c" stroke-width="6" stroke-linejoin="round"/>
  <!-- crest pink highlight layer -->
  <path d="M172,100 C162,75 145,48 142,28 C158,42 165,65 168,82" fill="#ff80a0" stroke="none"/>
  <path d="M176,95 C178,60 188,30 195,12 C193,42 185,68 184,88" fill="#ff80a0" stroke="none"/>

  <!-- CHEEK pink stripes -->
  <ellipse cx="148" cy="162" rx="12" ry="8" fill="#e0607a" stroke="none" transform="rotate(-10 148 162)"/>
  <ellipse cx="212" cy="162" rx="12" ry="8" fill="#e0607a" stroke="none" transform="rotate(10 212 162)"/>
  <!-- stripe lines on cheek -->
  <line x1="141" y1="158" x2="155" y2="163" stroke="#c03050" stroke-width="2.5" stroke-linecap="round"/>
  <line x1="140" y1="164" x2="154" y2="168" stroke="#c03050" stroke-width="2.5" stroke-linecap="round"/>
  <line x1="206" y1="158" x2="220" y2="163" stroke="#c03050" stroke-width="2.5" stroke-linecap="round"/>
  <line x1="205" y1="164" x2="219" y2="168" stroke="#c03050" stroke-width="2.5" stroke-linecap="round"/>

  <!-- EYES -->
  <!-- left eye -->
  <ellipse cx="158" cy="148" rx="10" ry="11" fill="#cc2020" stroke="#2d263c" stroke-width="5"/>
  <ellipse cx="157" cy="147" rx="4" ry="4.5" fill="#1a0505"/>
  <ellipse cx="155" cy="145" rx="1.8" ry="1.8" fill="white"/>
  <!-- right eye -->
  <ellipse cx="202" cy="148" rx="10" ry="11" fill="#cc2020" stroke="#2d263c" stroke-width="5"/>
  <ellipse cx="203" cy="147" rx="4" ry="4.5" fill="#1a0505"/>
  <ellipse cx="201" cy="145" rx="1.8" ry="1.8" fill="white"/>

  <!-- BEAK -->
  <polygon points="170,168 190,168 183,185 177,185" fill="#e8b020" stroke="#2d263c" stroke-width="5" stroke-linejoin="round"/>
  <polygon points="170,168 190,168 183,176 177,176" fill="#f0c030" stroke="#2d263c" stroke-width="4" stroke-linejoin="round"/>

  <!-- nostril -->
  <ellipse cx="176" cy="172" rx="2.5" ry="1.5" fill="#c09010"/>
  <ellipse cx="184" cy="172" rx="2.5" ry="1.5" fill="#c09010"/>
</svg>