<svg xmlns="http://www.w3.org/2000/svg" viewBox="0 0 360 360">
<g id="mega-burst"><circle cx="180" cy="180" r="172" fill="#fff3c0"/><polygon points="180,180 450.0,180.0 444.8,232.7" fill="#ffd96b"/><polygon points="180,180 429.4,283.3 404.5,330.0" fill="#ffb13d"/><polygon points="180,180 370.9,370.9 330.0,404.5" fill="#ffd96b"/><polygon points="180,180 283.3,429.4 232.7,444.8" fill="#ffb13d"/><polygon points="180,180 180.0,450.0 127.3,444.8" fill="#ffd96b"/><polygon points="180,180 76.7,429.4 30.0,404.5" fill="#ffb13d"/><polygon points="180,180 -10.9,370.9 -44.5,330.0" fill="#ffd96b"/><polygon points="180,180 -69.4,283.3 -84.8,232.7" fill="#ffb13d"/><polygon points="180,180 -90.0,180.0 -84.8,127.3" fill="#ffd96b"/><polygon points="180,180 -69.4,76.7 -44.5,30.0" fill="#ffb13d"/><polygon points="180,180 -10.9,-10.9 30.0,-44.5" fill="#ffd96b"/><polygon points="180,180 76.7,-69.4 127.3,-84.8" fill="#ffb13d"/><polygon points="180,180 180.0,-90.0 232.7,-84.8" fill="#ffd96b"/><polygon points="180,180 283.3,-69.4 330.0,-44.5" fill="#ffb13d"/><polygon points="180,180 370.9,-10.9 404.5,30.0" fill="#ffd96b"/><polygon points="180,180 429.4,76.7 444.8,127.3" fill="#ffb13d"/><circle cx="180" cy="180" r="120" fill="#fff3c0" opacity="0.55"/></g>
  <!-- ===== MEGA GLALIE ===== -->
  <!-- 冷気エフェクト（最背面） -->
  <ellipse cx="180" cy="275" rx="85" ry="22" fill="#b8e8f8" opacity="0.45"/>
  <ellipse cx="180" cy="268" rx="60" ry="15" fill="#d6f4ff" opacity="0.55"/>

  <!-- 口の冷気ブレス（頭の下から溢れる） -->
  <path d="M115 222 Q90 260 70 300 Q105 275 110 310 Q135 265 130 300 Q155 255 150 290 Q170 248 175 285 Q185 248 195 290 Q208 255 205 298 Q225 265 228 302 Q248 272 245 310 Q260 278 265 300 Q270 260 250 222" fill="#c8f0ff" opacity="0.7" stroke="none"/>
  <path d="M120 228 Q100 265 85 295 Q115 268 118 295 Q140 260 138 290 Q162 252 160 282 Q178 250 178 278 Q196 252 198 282 Q220 260 218 290 Q240 268 242 295 Q258 270 252 295 Q262 262 242 228" fill="#e8faff" opacity="0.55" stroke="none"/>

  <!-- 胴体（小さい・白） -->
  <ellipse cx="180" cy="298" rx="38" ry="28" fill="#f0f8ff" stroke="#2d263c" stroke-width="6" stroke-linejoin="round"/>
  <!-- 胴体のライン -->
  <path d="M158 282 Q180 275 202 282" fill="none" stroke="#2d263c" stroke-width="4" stroke-linecap="round"/>

  <!-- 足（左） -->
  <path d="M155 312 Q140 330 128 342 Q145 338 155 345 Q162 330 162 320" fill="#f0f8ff" stroke="#2d263c" stroke-width="6" stroke-linejoin="round" stroke-linecap="round"/>
  <!-- 足（右） -->
  <path d="M205 312 Q220 330 232 342 Q215 338 205 345 Q198 330 198 320" fill="#f0f8ff" stroke="#2d263c" stroke-width="6" stroke-linejoin="round" stroke-linecap="round"/>

  <!-- ===== 頭部（黒い巨大球体） ===== -->
  <!-- 頭のメイン：黒球体 -->
  <circle cx="180" cy="165" r="138" fill="#1a1420" stroke="#2d263c" stroke-width="8"/>
  <!-- 頭のわずかな光沢 -->
  <ellipse cx="148" cy="108" rx="30" ry="18" fill="#2e2840" opacity="0.6"/>

  <!-- ===== 角（メガ進化・巨大な氷の角） ===== -->
  <!-- 左の大きな角（前） -->
  <polygon points="82,90 62,18 105,70" fill="#88d8f0" stroke="#2d263c" stroke-width="7" stroke-linejoin="round"/>
  <!-- 左の大きな角（後ろ気味） -->
  <polygon points="95,78 60,8 118,62" fill="#aaeaff" stroke="#2d263c" stroke-width="6" stroke-linejoin="round"/>
  <!-- 左の小さな角 -->
  <polygon points="68,112 38,58 82,98" fill="#88d8f0" stroke="#2d263c" stroke-width="6" stroke-linejoin="round"/>
  <!-- 右の大きな角（前） -->
  <polygon points="278,90 298,18 255,70" fill="#88d8f0" stroke="#2d263c" stroke-width="7" stroke-linejoin="round"/>
  <!-- 右の大きな角（後ろ気味） -->
  <polygon points="265,78 300,8 242,62" fill="#aaeaff" stroke="#2d263c" stroke-width="6" stroke-linejoin="round"/>
  <!-- 右の小さな角 -->
  <polygon points="292,112 322,58 278,98" fill="#88d8f0" stroke="#2d263c" stroke-width="6" stroke-linejoin="round"/>
  <!-- 頭頂の角 -->
  <polygon points="165,32 178,2 195,32" fill="#aaeaff" stroke="#2d263c" stroke-width="6" stroke-linejoin="round"/>

  <!-- ===== 眉（怒り・白） ===== -->
  <!-- 左眉（分厚く斜め・V字気味） -->
  <path d="M112 128 Q128 116 148 122" fill="none" stroke="#ffffff" stroke-width="10" stroke-linecap="round"/>
  <!-- 右眉 -->
  <path d="M248 128 Q232 116 212 122" fill="none" stroke="#ffffff" stroke-width="10" stroke-linecap="round"/>

  <!-- ===== 目（赤・怒り目） ===== -->
  <!-- 左目 -->
  <ellipse cx="130" cy="148" rx="20" ry="22" fill="#d42020"/>
  <ellipse cx="130" cy="148" rx="20" ry="22" fill="none" stroke="#2d263c" stroke-width="5"/>
  <ellipse cx="130" cy="150" rx="11" ry="13" fill="#8b0000"/>
  <circle cx="124" cy="143" r="5" fill="#ffffff"/>
  <!-- 右目 -->
  <ellipse cx="230" cy="148" rx="20" ry="22" fill="#d42020"/>
  <ellipse cx="230" cy="148" rx="20" ry="22" fill="none" stroke="#2d263c" stroke-width="5"/>
  <ellipse cx="230" cy="150" rx="11" ry="13" fill="#8b0000"/>
  <circle cx="224" cy="143" r="5" fill="#ffffff"/>

  <!-- ===== 大口（アゴが外れたように大きく開く） ===== -->
  <!-- 口の外形 -->
  <path d="M90 192 Q95 175 180 172 Q265 175 270 192 Q268 248 250 268 Q215 288 180 290 Q145 288 110 268 Q92 248 90 192 Z" fill="#0a0a0a" stroke="#2d263c" stroke-width="8" stroke-linejoin="round"/>

  <!-- 口の内部（氷） -->
  <path d="M98 198 Q102 182 180 180 Q258 182 262 198 Q260 245 244 262 Q212 280 180 282 Q148 280 116 262 Q100 245 98 198 Z" fill="#b8eeff"/>
  <!-- 氷の内部テクスチャ -->
  <path d="M110 200 Q145 192 180 190 Q215 192 250 200" fill="none" stroke="#d8f8ff" stroke-width="3" stroke-linecap="round"/>
  <path d="M105 218 Q142 208 180 206 Q218 208 255 218" fill="none" stroke="#caf2ff" stroke-width="2.5" stroke-linecap="round"/>
  <path d="M102 238 Q140 226 180 224 Q220 226 258 238" fill="none" stroke="#d0f4ff" stroke-width="2" stroke-linecap="round"/>
  <!-- 氷柱（上） -->
  <polygon points="140,184 148,210 132,210" fill="#e8fbff" stroke="#88d8f0" stroke-width="2"/>
  <polygon points="162,182 170,216 154,216" fill="#e8fbff" stroke="#88d8f0" stroke-width="2"/>
  <polygon points="180,181 188,215 172,215" fill="#e8fbff" stroke="#88d8f0" stroke-width="2"/>
  <polygon points="198,182 206,216 190,216" fill="#e8fbff" stroke="#88d8f0" stroke-width="2"/>
  <polygon points="218,184 226,210 210,210" fill="#e8fbff" stroke="#88d8f0" stroke-width="2"/>
  <!-- 氷柱（下） -->
  <polygon points="145,280 152,252 138,252" fill="#d0f0ff" stroke="#88d8f0" stroke-width="2"/>
  <polygon points="165,284 172,255 158,255" fill="#d0f0ff" stroke="#88d8f0" stroke-width="2"/>
  <polygon points="180,285 187,256 173,256" fill="#d0f0ff" stroke="#88d8f0" stroke-width="2"/>
  <polygon points="195,284 202,255 188,255" fill="#d0f0ff" stroke="#88d8f0" stroke-width="2"/>
  <polygon points="215,280 222,252 208,252" fill="#d0f0ff" stroke="#88d8f0" stroke-width="2"/>

  <!-- ===== 顔の輪郭（黒球体の縁を強調） ===== -->
  <!-- 頬の突起（メガ進化の氷片） -->
  <polygon points="46,168 22,150 52,188" fill="#88d8f0" stroke="#2d263c" stroke-width="6" stroke-linejoin="round"/>
  <polygon points="314,168 338,150 308,188" fill="#88d8f0" stroke="#2d263c" stroke-width="6" stroke-linejoin="round"/>

  <!-- 額の氷クラック模様 -->
  <path d="M175 72 Q180 85 185 72" fill="none" stroke="#3a3060" stroke-width="3" stroke-linecap="round"/>
  <path d="M158 80 Q165 95 170 80" fill="none" stroke="#3a3060" stroke-width="2.5" stroke-linecap="round"/>
  <path d="M190 80 Q195 95 202 80" fill="none" stroke="#3a3060" stroke-width="2.5" stroke-linecap="round"/>
</svg>