<svg xmlns="http://www.w3.org/2000/svg" viewBox="0 0 360 360">
  <path d="M298,176 L324,140 L306,152 L316,120 L292,144 L290,166 Z" fill="#d9413d" stroke="#2d263c" stroke-width="6" stroke-linejoin="round" stroke-linecap="round"/>
  <path d="M228,262 C288,272 324,244 324,194 C324,172 312,158 299,165 C289,171 288,186 294,198 C297,224 268,244 224,240 Z" fill="#3b6fad" stroke="#2d263c" stroke-width="7" stroke-linejoin="round" stroke-linecap="round"/>
  <path d="M110,180 L72,168 L96,156 L84,126 L118,152 Z" fill="#d9413d" stroke="#2d263c" stroke-width="6" stroke-linejoin="round" stroke-linecap="round"/>
  <path d="M248,182 L288,164 L262,154 L276,124 L242,150 Z" fill="#d9413d" stroke="#2d263c" stroke-width="6" stroke-linejoin="round" stroke-linecap="round"/>
  <path d="M125,248 C100,244 78,228 71,206 C68,194 79,187 89,193 C103,202 118,224 127,242 Z" fill="#3b6fad" stroke="#2d263c" stroke-width="7" stroke-linejoin="round" stroke-linecap="round"/>
  <path d="M232,240 C258,240 282,254 290,274 C293,286 282,293 272,287 C257,278 240,260 230,250 Z" fill="#3b6fad" stroke="#2d263c" stroke-width="7" stroke-linejoin="round" stroke-linecap="round"/>
  <ellipse cx="138" cy="320" rx="32" ry="13" fill="#3b6fad" stroke="#2d263c" stroke-width="7"/>
  <ellipse cx="218" cy="323" rx="33" ry="12" fill="#3b6fad" stroke="#2d263c" stroke-width="7"/>
  <path d="M178,168 C125,172 106,215 110,262 C114,302 142,322 180,322 C220,322 246,298 250,256 C254,212 236,172 178,168 Z" fill="#3b6fad" stroke="#2d263c" stroke-width="7" stroke-linejoin="round" stroke-linecap="round"/>
  <path d="M152,218 C134,240 134,282 152,304 C170,316 194,316 210,302 C226,280 226,238 208,216 C190,206 168,206 152,218 Z" fill="#f2cf6b" stroke="#2d263c" stroke-width="7" stroke-linejoin="round" stroke-linecap="round"/>
  <path d="M142,248 Q181,260 220,246" fill="none" stroke="#2d263c" stroke-width="6" stroke-linecap="round"/>
  <path d="M144,278 Q181,290 218,276" fill="none" stroke="#2d263c" stroke-width="6" stroke-linecap="round"/>
  <path d="M112,312 L92,318 L112,326 Z M116,326 L98,336 L120,334 Z" fill="#fff8ec" stroke="#2d263c" stroke-width="6" stroke-linejoin="round" stroke-linecap="round"/>
  <path d="M244,316 L264,322 L244,330 Z M240,330 L258,338 L236,336 Z" fill="#fff8ec" stroke="#2d263c" stroke-width="6" stroke-linejoin="round" stroke-linecap="round"/>
  <path d="M78,194 L60,178 L82,184 Z M70,204 L50,198 L70,214 Z" fill="#fff8ec" stroke="#2d263c" stroke-width="6" stroke-linejoin="round" stroke-linecap="round"/>
  <path d="M284,268 L304,262 L292,282 Z M290,282 L304,296 L282,292 Z" fill="#fff8ec" stroke="#2d263c" stroke-width="6" stroke-linejoin="round" stroke-linecap="round"/>
  <path d="M148,56 L156,26 L170,48 L180,24 L194,46 L206,28 L216,54 Z" fill="#d9413d" stroke="#2d263c" stroke-width="6" stroke-linejoin="round" stroke-linecap="round"/>
  <path d="M178,52 C128,52 102,84 102,120 C102,142 118,154 145,158 L212,158 C240,154 254,140 254,116 C254,82 228,52 178,52 Z" fill="#3b6fad" stroke="#2d263c" stroke-width="7" stroke-linejoin="round" stroke-linecap="round"/>
  <path d="M96,128 C88,182 130,214 180,214 C234,214 272,180 264,124 C252,152 216,168 178,168 C142,168 110,154 96,128 Z" fill="#f2cf6b" stroke="#2d263c" stroke-width="7" stroke-linejoin="round" stroke-linecap="round"/>
  <path d="M108,116 C135,128 222,128 250,112 C246,152 214,170 178,170 C142,170 114,152 108,116 Z" fill="#8c3046" stroke="#2d263c" stroke-width="7" stroke-linejoin="round" stroke-linecap="round"/>
  <path d="M118,122 L129,146 L140,122 L151,146 L162,122 L173,146 L184,122 L195,146 L206,122 L217,146 L228,120 Z" fill="#fff8ec" stroke="#2d263c" stroke-width="5" stroke-linejoin="round" stroke-linecap="round"/>
  <path d="M100,152 L110,118 L124,150 Z" fill="#fff8ec" stroke="#2d263c" stroke-width="6" stroke-linejoin="round" stroke-linecap="round"/>
  <path d="M232,150 L246,114 L258,148 Z" fill="#fff8ec" stroke="#2d263c" stroke-width="6" stroke-linejoin="round" stroke-linecap="round"/>
  <ellipse cx="164" cy="103" rx="5" ry="3.5" fill="#2d263c"/>
  <ellipse cx="193" cy="101" rx="5" ry="3.5" fill="#2d263c"/>
  <ellipse cx="146" cy="84" rx="13" ry="12" fill="#ffd84d" stroke="#2d263c" stroke-width="6"/>
  <ellipse cx="212" cy="80" rx="14" ry="13" fill="#ffd84d" stroke="#2d263c" stroke-width="6"/>
  <circle cx="149" cy="86" r="5.5" fill="#d9413d" stroke="#2d263c" stroke-width="3"/>
  <circle cx="208" cy="82" r="6" fill="#d9413d" stroke="#2d263c" stroke-width="3"/>
  <path d="M126,66 L168,78" fill="none" stroke="#2d263c" stroke-width="7" stroke-linecap="round"/>
  <path d="M232,62 L190,74" fill="none" stroke="#2d263c" stroke-width="7" stroke-linecap="round"/>
</svg>