<svg xmlns="http://www.w3.org/2000/svg" viewBox="0 0 360 360"><path d="M236 110 C258 96 282 112 272 134 C290 144 284 170 264 172 C274 192 256 210 240 200 C244 224 218 234 206 218 C198 240 168 238 164 218 C144 230 124 214 132 196 C112 198 102 176 118 164 C100 154 106 128 128 128 C122 106 144 90 160 102 C166 80 196 74 208 92 C216 78 234 82 236 110 Z" fill="#FBF7EE" stroke="#2d263c" stroke-width="7" stroke-linejoin="round" stroke-linecap="round"/><path d="M236 170 C270 192 272 232 252 264 C246 278 226 284 218 270 C236 246 238 214 220 192 Z" fill="#FBF7EE" stroke="#2d263c" stroke-width="7" stroke-linejoin="round" stroke-linecap="round"/><path d="M232 252 C262 258 276 236 262 220 C292 222 300 192 278 184 C304 176 300 144 274 148 C278 124 248 116 238 138 C220 126 200 142 210 160 C194 166 194 190 212 194 C200 204 206 230 232 252 Z" fill="#FBF7EE" stroke="#2d263c" stroke-width="7" stroke-linejoin="round" stroke-linecap="round"/><circle cx="284" cy="152" r="14" fill="#E8483F" stroke="#2d263c" stroke-width="6"/><path d="M150 96 C134 78 116 52 106 38 C111 27 124 26 130 34 C140 48 158 72 168 88 Z" fill="#F6D14B" stroke="#2d263c" stroke-width="7" stroke-linejoin="round" stroke-linecap="round"/><path d="M204 88 C214 72 232 46 242 34 C252 26 264 33 260 44 C250 58 232 82 222 96 Z" fill="#F6D14B" stroke="#2d263c" stroke-width="7" stroke-linejoin="round" stroke-linecap="round"/><path d="M118 54 L136 76 L127 84 L109 63 Z" fill="#2d263c"/><path d="M241 56 L226 78 L236 85 L249 64 Z" fill="#2d263c"/><path d="M152 168 C124 204 112 268 132 300 C152 320 206 322 226 298 C244 266 232 204 206 168 C192 156 164 156 152 168 Z" fill="#F6D14B" stroke="#2d263c" stroke-width="8" stroke-linejoin="round" stroke-linecap="round"/><path d="M128 220 C110 226 106 246 122 252 C133 254 139 240 136 228 Z" fill="#F6D14B" stroke="#2d263c" stroke-width="7" stroke-linejoin="round" stroke-linecap="round"/><path d="M232 218 C249 223 254 242 241 249 C230 252 224 238 227 226 Z" fill="#F6D14B" stroke="#2d263c" stroke-width="7" stroke-linejoin="round" stroke-linecap="round"/><path d="M149 180 C168 192 192 192 211 179 L217 193 C192 207 166 207 143 193 Z" fill="#2d263c"/><path d="M141 204 C168 218 196 218 219 203 L223 217 C196 232 162 232 137 217 Z" fill="#2d263c"/><ellipse cx="150" cy="312" rx="23" ry="14" fill="#F6D14B" stroke="#2d263c" stroke-width="7"/><ellipse cx="213" cy="315" rx="20" ry="12" fill="#F6D14B" stroke="#2d263c" stroke-width="7"/><path d="M128 130 C126 96 152 76 178 78 C206 80 226 100 224 130 C222 158 200 174 174 174 C148 174 130 156 128 130 Z" fill="#F6D14B" stroke="#2d263c" stroke-width="8" stroke-linejoin="round" stroke-linecap="round"/><circle cx="176" cy="92" r="13" fill="#E8483F" stroke="#2d263c" stroke-width="6"/><circle cx="172" cy="88" r="3.5" fill="#ffffff"/><ellipse cx="157" cy="127" rx="7" ry="10" fill="#2d263c"/><ellipse cx="197" cy="124" rx="6" ry="11" fill="#2d263c"/><circle cx="155" cy="123" r="2.5" fill="#ffffff"/><circle cx="195" cy="120" r="2.5" fill="#ffffff"/><path d="M160 148 Q178 162 198 146" fill="none" stroke="#2d263c" stroke-width="6" stroke-linecap="round"/></svg>