<svg xmlns="http://www.w3.org/2000/svg" viewBox="0 0 360 360"><g stroke="#2d263c" stroke-width="7" stroke-linejoin="round" stroke-linecap="round"><path d="M260,240 C310,234 330,266 324,298 C296,300 266,282 248,266 Z" fill="#ab8a5c"/><path d="M168,58 C152,30 132,26 122,36 C128,54 144,68 164,76 Z" fill="#ab8a5c"/><path d="M238,56 C252,28 276,26 286,36 C278,54 260,68 242,74 Z" fill="#ab8a5c"/><ellipse cx="165" cy="320" rx="26" ry="16" fill="#ab8a5c"/><ellipse cx="252" cy="317" rx="27" ry="17" fill="#ab8a5c"/><path d="M205,112 C258,118 286,168 282,226 C279,288 246,314 204,316 C158,318 128,282 126,226 C124,168 150,106 205,112 Z" fill="#ab8a5c"/><path d="M142,186 C116,190 102,204 100,220 C112,226 132,218 146,204 Z" fill="#ab8a5c"/><path d="M268,186 C290,194 298,210 294,224 C280,228 262,216 254,202 Z" fill="#ab8a5c"/><path d="M206,150 C240,154 256,192 253,232 C250,274 230,296 205,297 C178,298 158,272 156,230 C154,190 170,146 206,150 Z" fill="#f2e3b8"/><path d="M165,240 C184,268 226,268 244,238" fill="none"/><circle cx="203" cy="82" r="44" fill="#ab8a5c"/><path d="M178,36 L172,22 L188,30 Z" fill="#4e4439"/><path d="M228,35 L235,21 L219,29 Z" fill="#4e4439"/><path d="M160,76 C158,40 178,26 203,25 C228,26 248,40 246,74 C232,60 216,56 203,57 C190,56 174,60 160,76 Z" fill="#4e4439"/><path d="M203,84 C224,84 234,96 232,108 C230,120 216,126 202,126 C188,126 174,119 173,107 C172,95 182,84 203,84 Z" fill="#f2e3b8"/><circle cx="181" cy="76" r="5" fill="#2d263c" stroke="none"/><circle cx="225" cy="75" r="5" fill="#2d263c" stroke="none"/><path d="M194,101 Q203,108 213,100" fill="none"/><path d="M196,103 L200,111 L204,103 Z" fill="#ffffff" stroke-width="4"/><path d="M118,280 C136,282 142,294 138,304 C126,304 116,296 112,288 Z" fill="#c5a8de"/><path d="M64,186 C54,168 56,154 66,151 C74,160 78,174 78,186 Z" fill="#c5a8de"/><path d="M110,185 C120,167 118,153 108,150 C100,159 96,173 96,185 Z" fill="#c5a8de"/><ellipse cx="66" cy="322" rx="15" ry="10" fill="#c5a8de"/><ellipse cx="108" cy="323" rx="15" ry="10" fill="#c5a8de"/><path d="M88,238 C114,240 126,262 124,288 C122,312 106,326 86,326 C64,326 50,312 49,288 C48,262 62,236 88,238 Z" fill="#c5a8de"/><ellipse cx="87" cy="288" rx="23" ry="26" fill="#e6d9f2"/><path d="M62,242 C52,230 48,216 54,206 C66,210 74,224 76,238 Z" fill="#c5a8de"/><circle cx="52" cy="202" r="11" fill="#c5a8de"/><path d="M112,246 C122,240 130,232 134,224 C126,216 114,222 106,232 Z" fill="#c5a8de"/><circle cx="138" cy="218" r="10" fill="#c5a8de"/><circle cx="87" cy="206" r="32" fill="#c5a8de"/><path d="M57,198 C55,174 70,160 87,159 C104,160 119,174 117,196 C106,184 96,180 87,181 C78,180 68,184 57,198 Z" fill="#8a6f4e"/><path d="M71,198 L83,204" fill="none"/><path d="M103,197 L91,203" fill="none"/><circle cx="79" cy="211" r="4" fill="#2d263c" stroke="none"/><circle cx="95" cy="211" r="4" fill="#2d263c" stroke="none"/><path d="M79,222 Q87,230 96,221" fill="none"/><path d="M152,210 L164,202" fill="none"/><path d="M154,224 L170,222" fill="none"/></g></svg>