<svg xmlns="http://www.w3.org/2000/svg" viewBox="0 0 360 360"><g stroke="#2d263c" stroke-width="7" stroke-linejoin="round" stroke-linecap="round"><path d="M160 150 Q118 110 110 60 Q150 82 170 128 Z" fill="#e8f0f4"/><path d="M200 148 Q244 104 254 56 Q212 78 194 126 Z" fill="#e8f0f4"/><path d="M165 258 L155 310 L172 312 L176 260 Z" fill="#c4332b"/><path d="M196 258 L206 312 L189 313 L185 260 Z" fill="#c4332b"/><polygon points="150,306 178,306 164,338" fill="#3a3043"/><polygon points="184,308 212,304 202,338" fill="#3a3043"/><ellipse cx="180" cy="250" rx="30" ry="18" fill="#3a3043"/><path d="M148 160 L122 150 L120 170 L146 182 Z" fill="#c4332b"/><path d="M212 164 L240 156 L242 178 L214 186 Z" fill="#c4332b"/><path d="M180 140 Q146 146 142 190 Q140 238 180 244 Q218 240 218 188 Q214 146 180 140 Z" fill="#c4332b"/><ellipse cx="166" cy="284" rx="7" ry="8" fill="#eef0f3" stroke-width="6"/><ellipse cx="197" cy="287" rx="6" ry="8" fill="#eef0f3" stroke-width="6"/><polygon points="36,118 22,108 36,138" fill="#3a3043" stroke-width="6"/><polygon points="37,162 22,168 40,186" fill="#3a3043" stroke-width="6"/><polygon points="332,124 340,110 332,146" fill="#3a3043" stroke-width="6"/><polygon points="331,168 340,178 328,192" fill="#3a3043" stroke-width="6"/><path d="M68 72 Q38 98 36 142 Q36 196 86 206 Q134 210 140 162 Q144 122 110 80 Q100 112 87 114 Q76 110 68 72 Z" fill="#c4332b"/><path d="M296 78 Q330 104 332 148 Q332 200 282 210 Q232 212 228 164 Q226 122 258 74 Q266 110 279 112 Q290 110 296 78 Z" fill="#c4332b"/><circle cx="82" cy="158" r="21" fill="#f2c12e"/><circle cx="82" cy="158" r="9" fill="#2d263c" stroke="none"/><circle cx="281" cy="160" r="23" fill="#f2c12e"/><circle cx="282" cy="161" r="10" fill="#2d263c" stroke="none"/><polygon points="172,62 180,34 188,62" fill="#c4332b"/><polygon points="152,74 130,58 154,92" fill="#c4332b"/><polygon points="208,72 230,56 206,90" fill="#c4332b"/><path d="M180 58 Q152 66 147 96 Q146 124 180 130 Q214 124 213 94 Q208 66 180 58 Z" fill="#c4332b"/><ellipse cx="166" cy="98" rx="11" ry="13" fill="#f2c12e" stroke-width="6"/><ellipse cx="194" cy="96" rx="11" ry="14" fill="#f2c12e" stroke-width="6"/><circle cx="168" cy="100" r="4" fill="#2d263c" stroke="none"/><circle cx="192" cy="98" r="4" fill="#2d263c" stroke="none"/><path d="M154 82 L178 91" fill="none" stroke-width="6"/><path d="M206 80 L183 89" fill="none" stroke-width="6"/><path d="M170 118 Q180 124 190 117" fill="none" stroke-width="6"/></g></svg>