<svg xmlns="http://www.w3.org/2000/svg" viewBox="0 0 360 360">
  <path d="M160,90 Q165,50 180,30 Q195,55 205,95 Z" fill="#fdf7ec" stroke="#2d263c" stroke-width="7" stroke-linejoin="round"/>
  <path d="M115,110 Q95,80 90,60 Q125,90 150,105 Z" fill="#fdf7ec" stroke="#2d263c" stroke-width="7" stroke-linejoin="round"/>
  <path d="M210,105 Q235,90 270,60 Q265,80 245,110 Z" fill="#fdf7ec" stroke="#2d263c" stroke-width="7" stroke-linejoin="round"/>
  <ellipse cx="105" cy="298" rx="24" ry="20" fill="#f3e6c8" stroke="#2d263c" stroke-width="6"/>
  <ellipse cx="255" cy="298" rx="24" ry="20" fill="#f3e6c8" stroke="#2d263c" stroke-width="6"/>

  <ellipse cx="180" cy="235" rx="95" ry="85" fill="#3a2016" stroke="#2d263c" stroke-width="8" stroke-linejoin="round"/>
  <ellipse cx="180" cy="260" rx="55" ry="45" fill="#7a3a22"/>
  <path d="M110,215 Q180,235 250,215" fill="none" stroke="#2d263c" stroke-width="6" stroke-linecap="round"/>
  <path d="M115,270 Q180,290 245,270" fill="none" stroke="#2d263c" stroke-width="6" stroke-linecap="round"/>
  <circle cx="140" cy="250" r="12" fill="#e2572c"/>
  <circle cx="220" cy="250" r="12" fill="#e2572c"/>
  <ellipse cx="115" cy="308" rx="16" ry="11" fill="#d9a066" stroke="#2d263c" stroke-width="6"/>
  <ellipse cx="155" cy="312" rx="16" ry="11" fill="#d9a066" stroke="#2d263c" stroke-width="6"/>
  <ellipse cx="205" cy="312" rx="16" ry="11" fill="#d9a066" stroke="#2d263c" stroke-width="6"/>
  <ellipse cx="245" cy="308" rx="16" ry="11" fill="#d9a066" stroke="#2d263c" stroke-width="6"/>

  <circle cx="180" cy="135" r="68" fill="#f0632c" stroke="#2d263c" stroke-width="8"/>
  <ellipse cx="180" cy="172" rx="45" ry="20" fill="#c9481e"/>
  <circle cx="150" cy="95" r="6" fill="#241a1a"/>
  <circle cx="210" cy="95" r="6" fill="#241a1a"/>
  <circle cx="180" cy="100" r="9" fill="#c81e1e"/>
  <ellipse cx="155" cy="125" rx="19" ry="21" fill="#ffffff" stroke="#2d263c" stroke-width="6"/>
  <ellipse cx="205" cy="125" rx="19" ry="21" fill="#ffffff" stroke="#2d263c" stroke-width="6"/>
  <circle cx="155" cy="131" r="9" fill="#241a1a"/>
  <circle cx="205" cy="131" r="9" fill="#241a1a"/>
  <circle cx="151" cy="126" r="3" fill="#ffffff"/>
  <circle cx="201" cy="126" r="3" fill="#ffffff"/>
  <path d="M165,168 Q180,180 195,168" fill="none" stroke="#2d263c" stroke-width="6" stroke-linecap="round"/>
</svg>
