<svg xmlns="http://www.w3.org/2000/svg" viewBox="0 0 360 360">
<g id="mega-burst"><circle cx="180" cy="180" r="172" fill="#fff3c0"/><polygon points="180,180 450.0,180.0 444.8,232.7" fill="#ffd96b"/><polygon points="180,180 429.4,283.3 404.5,330.0" fill="#ffb13d"/><polygon points="180,180 370.9,370.9 330.0,404.5" fill="#ffd96b"/><polygon points="180,180 283.3,429.4 232.7,444.8" fill="#ffb13d"/><polygon points="180,180 180.0,450.0 127.3,444.8" fill="#ffd96b"/><polygon points="180,180 76.7,429.4 30.0,404.5" fill="#ffb13d"/><polygon points="180,180 -10.9,370.9 -44.5,330.0" fill="#ffd96b"/><polygon points="180,180 -69.4,283.3 -84.8,232.7" fill="#ffb13d"/><polygon points="180,180 -90.0,180.0 -84.8,127.3" fill="#ffd96b"/><polygon points="180,180 -69.4,76.7 -44.5,30.0" fill="#ffb13d"/><polygon points="180,180 -10.9,-10.9 30.0,-44.5" fill="#ffd96b"/><polygon points="180,180 76.7,-69.4 127.3,-84.8" fill="#ffb13d"/><polygon points="180,180 180.0,-90.0 232.7,-84.8" fill="#ffd96b"/><polygon points="180,180 283.3,-69.4 330.0,-44.5" fill="#ffb13d"/><polygon points="180,180 370.9,-10.9 404.5,30.0" fill="#ffd96b"/><polygon points="180,180 429.4,76.7 444.8,127.3" fill="#ffb13d"/><circle cx="180" cy="180" r="120" fill="#fff3c0" opacity="0.55"/></g>
  <!-- 左翼(後ろ) -->
  <polygon points="30,210 15,140 40,100 70,80 95,110 110,150 90,180 70,200 50,220" fill="#4a5568" stroke="#2d263c" stroke-width="7" stroke-linejoin="round"/>
  <!-- 左翼の刃1 -->
  <polygon points="30,210 10,195 20,175 45,185" fill="#718096" stroke="#2d263c" stroke-width="6" stroke-linejoin="round"/>
  <!-- 左翼の刃2 -->
  <polygon points="25,175 5,155 15,135 40,148" fill="#718096" stroke="#2d263c" stroke-width="6" stroke-linejoin="round"/>
  <!-- 左翼の刃3 -->
  <polygon points="35,145 10,125 22,105 55,118" fill="#718096" stroke="#2d263c" stroke-width="6" stroke-linejoin="round"/>
  <!-- 右翼(後ろ) -->
  <polygon points="330,210 345,140 320,100 290,80 265,110 250,150 270,180 290,200 310,220" fill="#4a5568" stroke="#2d263c" stroke-width="7" stroke-linejoin="round"/>
  <!-- 右翼の刃1 -->
  <polygon points="330,210 350,195 340,175 315,185" fill="#718096" stroke="#2d263c" stroke-width="6" stroke-linejoin="round"/>
  <!-- 右翼の刃2 -->
  <polygon points="335,175 355,155 345,135 320,148" fill="#718096" stroke="#2d263c" stroke-width="6" stroke-linejoin="round"/>
  <!-- 右翼の刃3 -->
  <polygon points="325,145 350,125 338,105 305,118" fill="#718096" stroke="#2d263c" stroke-width="6" stroke-linejoin="round"/>
  <!-- 胴体 -->
  <ellipse cx="180" cy="210" rx="72" ry="85" fill="#8aa4b8" stroke="#2d263c" stroke-width="8"/>
  <!-- 腹の装甲プレート(縦縞) -->
  <rect x="152" y="200" width="18" height="65" rx="5" fill="#5a7a96" stroke="#2d263c" stroke-width="5"/>
  <rect x="174" y="198" width="18" height="68" rx="5" fill="#5a7a96" stroke="#2d263c" stroke-width="5"/>
  <rect x="196" y="200" width="18" height="65" rx="5" fill="#5a7a96" stroke="#2d263c" stroke-width="5"/>
  <!-- 胸の装甲 -->
  <ellipse cx="180" cy="190" rx="42" ry="28" fill="#7090aa" stroke="#2d263c" stroke-width="6"/>
  <!-- 首 -->
  <rect x="160" y="130" width="40" height="38" rx="8" fill="#8aa4b8" stroke="#2d263c" stroke-width="7"/>
  <!-- 頭部 -->
  <ellipse cx="180" cy="118" rx="52" ry="45" fill="#8aa4b8" stroke="#2d263c" stroke-width="8"/>
  <!-- 頭頂トサカ左 -->
  <polygon points="158,82 148,42 168,75" fill="#4a5568" stroke="#2d263c" stroke-width="6" stroke-linejoin="round"/>
  <!-- 頭頂トサカ右 -->
  <polygon points="202,82 212,42 192,75" fill="#4a5568" stroke="#2d263c" stroke-width="6" stroke-linejoin="round"/>
  <!-- 顔の装甲板(おでこ) -->
  <ellipse cx="180" cy="105" rx="36" ry="18" fill="#6b8fa8" stroke="#2d263c" stroke-width="5"/>
  <!-- 目(左) -->
  <ellipse cx="160" cy="118" rx="12" ry="10" fill="#cc2222" stroke="#2d263c" stroke-width="5"/>
  <ellipse cx="162" cy="116" rx="4" ry="4" fill="#ff4444"/>
  <ellipse cx="163" cy="115" rx="2" ry="2" fill="#ffaaaa"/>
  <!-- 目(右) -->
  <ellipse cx="200" cy="118" rx="12" ry="10" fill="#cc2222" stroke="#2d263c" stroke-width="5"/>
  <ellipse cx="202" cy="116" rx="4" ry="4" fill="#ff4444"/>
  <ellipse cx="203" cy="115" rx="2" ry="2" fill="#ffaaaa"/>
  <!-- くちばし -->
  <polygon points="167,138 180,162 193,138 180,145" fill="#b0c8d8" stroke="#2d263c" stroke-width="6" stroke-linejoin="round"/>
  <!-- 左脚 -->
  <rect x="148" y="285" width="22" height="30" rx="6" fill="#6b8fa8" stroke="#2d263c" stroke-width="7"/>
  <rect x="138" y="308" width="38" height="14" rx="5" fill="#4a6a88" stroke="#2d263c" stroke-width="6"/>
  <!-- 右脚 -->
  <rect x="190" y="285" width="22" height="30" rx="6" fill="#6b8fa8" stroke="#2d263c" stroke-width="7"/>
  <rect x="184" y="308" width="38" height="14" rx="5" fill="#4a6a88" stroke="#2d263c" stroke-width="6"/>
  <!-- 爪(左) -->
  <line x1="142" y1="322" x2="136" y2="336" stroke="#2d263c" stroke-width="6" stroke-linecap="round"/>
  <line x1="155" y1="322" x2="153" y2="338" stroke="#2d263c" stroke-width="6" stroke-linecap="round"/>
  <line x1="168" y1="322" x2="172" y2="336" stroke="#2d263c" stroke-width="6" stroke-linecap="round"/>
  <!-- 爪(右) -->
  <line x1="188" y1="322" x2="184" y2="336" stroke="#2d263c" stroke-width="6" stroke-linecap="round"/>
  <line x1="201" y1="322" x2="201" y2="338" stroke="#2d263c" stroke-width="6" stroke-linecap="round"/>
  <line x1="214" y1="322" x2="218" y2="336" stroke="#2d263c" stroke-width="6" stroke-linecap="round"/>
</svg>