<svg xmlns="http://www.w3.org/2000/svg" viewBox="0 0 360 360">
  <!-- 翼(後ろ) -->
  <path d="M100 150 Q40 90 30 50 Q60 80 80 110 Q50 70 55 30 Q80 70 95 120 Q70 80 90 60 Q105 100 105 140 Z" fill="#2255aa" stroke="#2d263c" stroke-width="7" stroke-linejoin="round"/>
  <path d="M255 145 Q320 85 335 45 Q305 75 285 105 Q315 65 308 28 Q285 68 268 118 Q292 76 272 58 Q258 98 257 138 Z" fill="#2255aa" stroke="#2d263c" stroke-width="7" stroke-linejoin="round"/>

  <!-- しっぽ -->
  <path d="M245 260 Q290 270 320 250 Q340 235 330 220 Q315 230 295 240 Q325 218 315 200 Q295 215 270 230 Q300 205 285 190 Q255 210 240 245 Z" fill="#1a6b5a" stroke="#2d263c" stroke-width="7" stroke-linejoin="round"/>
  <!-- しっぽ先の赤ヒレ -->
  <path d="M310 222 Q345 200 350 180 Q335 195 325 210 Q345 185 338 165 Q320 180 308 200 Z" fill="#cc2233" stroke="#2d263c" stroke-width="6" stroke-linejoin="round"/>

  <!-- 体 -->
  <ellipse cx="178" cy="230" rx="90" ry="70" fill="#1a6b5a" stroke="#2d263c" stroke-width="8" stroke-linejoin="round"/>

  <!-- 腹の赤プレート装甲 -->
  <ellipse cx="178" cy="245" rx="52" ry="42" fill="#cc2233" stroke="#2d263c" stroke-width="7"/>
  <ellipse cx="178" cy="248" rx="38" ry="30" fill="#e04455" stroke="#2d263c" stroke-width="5"/>

  <!-- 腹の薄クリーム色部分(プレートの縁) -->
  <ellipse cx="178" cy="250" rx="28" ry="22" fill="#e8d9a0" stroke="#2d263c" stroke-width="4"/>

  <!-- 左腕 -->
  <path d="M115 220 Q85 235 78 258 Q90 245 105 240 Q88 262 95 278 Q110 260 118 242 Z" fill="#1a6b5a" stroke="#2d263c" stroke-width="7" stroke-linejoin="round"/>
  <!-- 左手の爪 -->
  <path d="M82 268 Q70 280 72 292 L85 276 Z" fill="#1a6b5a" stroke="#2d263c" stroke-width="5"/>
  <path d="M90 274 Q78 287 82 298 L93 282 Z" fill="#1a6b5a" stroke="#2d263c" stroke-width="5"/>

  <!-- 右腕 -->
  <path d="M238 222 Q268 238 274 262 Q262 248 248 244 Q266 266 258 282 Q244 263 238 244 Z" fill="#1a6b5a" stroke="#2d263c" stroke-width="7" stroke-linejoin="round"/>
  <!-- 右手の爪 -->
  <path d="M274 272 Q287 283 283 294 L270 278 Z" fill="#1a6b5a" stroke="#2d263c" stroke-width="5"/>
  <path d="M265 278 Q277 290 271 300 L259 284 Z" fill="#1a6b5a" stroke="#2d263c" stroke-width="5"/>

  <!-- 首 -->
  <rect x="150" y="175" width="55" height="42" rx="10" fill="#1a6b5a" stroke="#2d263c" stroke-width="7"/>

  <!-- 頭 -->
  <ellipse cx="178" cy="158" rx="68" ry="52" fill="#1a6b5a" stroke="#2d263c" stroke-width="8" stroke-linejoin="round"/>

  <!-- メガ石の角(頭後ろ左右) -->
  <path d="M118 138 Q90 110 80 88 Q102 112 108 130 Z" fill="#cc2233" stroke="#2d263c" stroke-width="6" stroke-linejoin="round"/>
  <path d="M238 136 Q265 107 276 85 Q255 110 248 128 Z" fill="#cc2233" stroke="#2d263c" stroke-width="6" stroke-linejoin="round"/>
  <!-- 角の補助 -->
  <path d="M112 132 Q96 98 88 75 Q108 105 115 128 Z" fill="#dd3344" stroke="#2d263c" stroke-width="5" stroke-linejoin="round"/>
  <path d="M244 130 Q260 95 267 72 Q248 103 241 126 Z" fill="#dd3344" stroke="#2d263c" stroke-width="5" stroke-linejoin="round"/>

  <!-- 大きな顎(スナウト) -->
  <path d="M122 168 Q130 200 178 205 Q226 200 234 168 Q220 185 178 188 Q136 185 122 168 Z" fill="#166055" stroke="#2d263c" stroke-width="7" stroke-linejoin="round"/>

  <!-- 下顎 -->
  <path d="M130 178 Q140 215 178 218 Q216 215 226 178 Q210 195 178 198 Q146 195 130 178 Z" fill="#e8d9a0" stroke="#2d263c" stroke-width="6" stroke-linejoin="round"/>

  <!-- 牙(下から出ている) -->
  <path d="M150 196 L145 218 L155 197 Z" fill="#ffffff" stroke="#2d263c" stroke-width="4"/>
  <path d="M168 199 L165 222 L173 200 Z" fill="#ffffff" stroke="#2d263c" stroke-width="4"/>
  <path d="M200 199 L197 222 L205 200 Z" fill="#ffffff" stroke="#2d263c" stroke-width="4"/>
  <path d="M214 197 L210 218 L218 197 Z" fill="#ffffff" stroke="#2d263c" stroke-width="4"/>

  <!-- 上の牙 -->
  <path d="M145 175 L140 155 L150 174 Z" fill="#ffffff" stroke="#2d263c" stroke-width="4"/>
  <path d="M210 175 L215 155 L206 174 Z" fill="#ffffff" stroke="#2d263c" stroke-width="4"/>

  <!-- 目(黄色・ギョロ目) -->
  <ellipse cx="150" cy="148" rx="18" ry="16" fill="#ffdd00" stroke="#2d263c" stroke-width="6"/>
  <ellipse cx="206" cy="148" rx="18" ry="16" fill="#ffdd00" stroke="#2d263c" stroke-width="6"/>
  <!-- 瞳 -->
  <ellipse cx="153" cy="150" rx="9" ry="10" fill="#111111"/>
  <ellipse cx="209" cy="150" rx="9" ry="10" fill="#111111"/>
  <!-- 目の光 -->
  <circle cx="156" cy="146" r="3" fill="#ffffff"/>
  <circle cx="212" cy="146" r="3" fill="#ffffff"/>

  <!-- 眉毛(凶悪な) -->
  <path d="M134 134 Q150 126 166 131" fill="none" stroke="#2d263c" stroke-width="7" stroke-linecap="round"/>
  <path d="M190 131 Q206 125 222 132" fill="none" stroke="#2d263c" stroke-width="7" stroke-linecap="round"/>

  <!-- 鼻の穴 -->
  <ellipse cx="168" cy="163" rx="5" ry="4" fill="#0f4a3c"/>
  <ellipse cx="188" cy="163" rx="5" ry="4" fill="#0f4a3c"/>

  <!-- 体の縞模様 -->
  <path d="M140 230 Q178 222 216 230" fill="none" stroke="#0f4a3c" stroke-width="4" stroke-linecap="round"/>
  <path d="M135 248 Q178 238 221 248" fill="none" stroke="#0f4a3c" stroke-width="4" stroke-linecap="round"/>

  <!-- 足(前足) -->
  <path d="M148 290 Q138 315 130 328 Q142 312 152 302 Q140 325 145 338 Q155 318 158 300 Z" fill="#1a6b5a" stroke="#2d263c" stroke-width="7" stroke-linejoin="round"/>
  <path d="M205 290 Q215 315 223 328 Q212 312 203 302 Q215 325 210 338 Q200 318 197 300 Z" fill="#1a6b5a" stroke="#2d263c" stroke-width="7" stroke-linejoin="round"/>

  <!-- 足の爪 -->
  <path d="M128 330 Q120 342 124 350 L133 336 Z" fill="#1a6b5a" stroke="#2d263c" stroke-width="4"/>
  <path d="M138 335 Q132 347 137 354 L143 340 Z" fill="#1a6b5a" stroke="#2d263c" stroke-width="4"/>
  <path d="M218 330 Q226 342 221 350 L213 336 Z" fill="#1a6b5a" stroke="#2d263c" stroke-width="4"/>
  <path d="M208 335 Q213 347 208 354 L203 340 Z" fill="#1a6b5a" stroke="#2d263c" stroke-width="4"/>
</svg>