<svg xmlns="http://www.w3.org/2000/svg" viewBox="0 0 360 360">
  <!-- 翼（後ろ） -->
  <path d="M60 200 C20 130 10 80 45 60 C70 45 95 70 110 110 C95 90 85 65 100 55 C120 40 150 75 155 130 Z" fill="#3a1a5c" stroke="#2d263c" stroke-width="7" stroke-linejoin="round" stroke-linecap="round"/>
  <path d="M300 200 C340 130 350 80 315 60 C290 45 265 70 250 110 C265 90 275 65 260 55 C240 40 210 75 205 130 Z" fill="#3a1a5c" stroke="#2d263c" stroke-width="7" stroke-linejoin="round" stroke-linecap="round"/>

  <!-- しっぽ -->
  <path d="M190 290 C200 310 215 330 210 350 C205 355 195 350 190 340 C188 355 178 360 172 355 C168 350 175 330 178 310 Z" fill="#c0392b" stroke="#2d263c" stroke-width="6" stroke-linejoin="round" stroke-linecap="round"/>
  <path d="M175 285 C170 305 162 325 155 330" fill="none" stroke="#2d263c" stroke-width="7" stroke-linecap="round"/>
  <path d="M185 290 C188 318 195 335 198 345" fill="none" stroke="#2d263c" stroke-width="7" stroke-linecap="round"/>

  <!-- 胴体 -->
  <path d="M130 170 C125 210 128 260 140 285 C155 305 180 310 195 305 C215 298 230 270 232 240 C236 210 235 175 230 165 Z" fill="#4a1e7a" stroke="#2d263c" stroke-width="8" stroke-linejoin="round"/>

  <!-- 腹部 -->
  <path d="M148 185 C145 215 147 250 155 272 C163 290 178 296 192 290 C205 280 213 255 215 230 C217 208 215 185 212 178 Z" fill="#8b5fa0" stroke="#2d263c" stroke-width="5" stroke-linejoin="round"/>

  <!-- 腕（左） -->
  <path d="M133 190 C110 195 88 200 75 220 C68 232 75 245 85 240 C80 248 85 260 95 255 C90 264 98 272 108 265 C105 272 115 278 122 268 L138 230 Z" fill="#4a1e7a" stroke="#2d263c" stroke-width="7" stroke-linejoin="round" stroke-linecap="round"/>

  <!-- 腕（右） -->
  <path d="M227 190 C250 195 272 200 285 220 C292 232 285 245 275 240 C280 248 275 260 265 255 C270 264 262 272 252 265 C255 272 245 278 238 268 L222 230 Z" fill="#4a1e7a" stroke="#2d263c" stroke-width="7" stroke-linejoin="round" stroke-linecap="round"/>

  <!-- 足（左） -->
  <path d="M148 285 C142 300 138 320 135 335 C130 345 118 348 115 340 C125 338 128 328 132 315 C128 325 120 330 115 325 C112 318 120 305 125 295 Z" fill="#4a1e7a" stroke="#2d263c" stroke-width="7" stroke-linejoin="round" stroke-linecap="round"/>

  <!-- 足（右） -->
  <path d="M210 285 C216 300 220 320 223 335 C228 345 240 348 243 340 C233 338 230 328 226 315 C230 325 238 330 243 325 C246 318 238 305 233 295 Z" fill="#4a1e7a" stroke="#2d263c" stroke-width="7" stroke-linejoin="round" stroke-linecap="round"/>

  <!-- 首 -->
  <path d="M158 155 C155 165 153 175 150 182 L210 178 C208 170 207 160 205 152 Z" fill="#4a1e7a" stroke="#2d263c" stroke-width="7" stroke-linejoin="round"/>

  <!-- 頭 -->
  <ellipse cx="181" cy="128" rx="48" ry="42" fill="#4a1e7a" stroke="#2d263c" stroke-width="8" stroke-linejoin="round"/>

  <!-- トウガラシ角（左） -->
  <path d="M158 100 C148 82 138 60 142 38 C145 28 155 25 160 35 C158 50 162 70 165 88 Z" fill="#c0392b" stroke="#2d263c" stroke-width="6" stroke-linejoin="round" stroke-linecap="round"/>
  <!-- 角のハイライト -->
  <path d="M156 94 C150 75 146 55 149 40" fill="none" stroke="#e74c3c" stroke-width="3" stroke-linecap="round"/>

  <!-- トウガラシ角（右） -->
  <path d="M204 100 C215 80 228 58 222 36 C218 26 208 24 204 34 C205 50 200 70 196 88 Z" fill="#c0392b" stroke="#2d263c" stroke-width="6" stroke-linejoin="round" stroke-linecap="round"/>
  <!-- 角のハイライト -->
  <path d="M206 94 C213 74 218 53 213 38" fill="none" stroke="#e74c3c" stroke-width="3" stroke-linecap="round"/>

  <!-- 耳みたいな小突起 -->
  <path d="M140 115 C132 105 128 95 133 90 C138 87 145 95 147 108 Z" fill="#3a1a5c" stroke="#2d263c" stroke-width="5" stroke-linejoin="round"/>
  <path d="M222 115 C230 105 232 95 227 90 C222 87 215 95 213 108 Z" fill="#3a1a5c" stroke="#2d263c" stroke-width="5" stroke-linejoin="round"/>

  <!-- 目（左） -->
  <ellipse cx="166" cy="130" rx="10" ry="11" fill="#f0f0f0" stroke="#2d263c" stroke-width="4"/>
  <ellipse cx="168" cy="131" rx="6" ry="7" fill="#c0392b"/>
  <ellipse cx="169" cy="130" rx="3" ry="4" fill="#1a0a2e"/>
  <ellipse cx="167" cy="128" rx="1.5" ry="1.5" fill="white"/>

  <!-- 目（右） -->
  <ellipse cx="196" cy="128" rx="11" ry="10" fill="#f0f0f0" stroke="#2d263c" stroke-width="4"/>
  <ellipse cx="198" cy="129" rx="7" ry="6" fill="#c0392b"/>
  <ellipse cx="199" cy="128" rx="3.5" ry="3.5" fill="#1a0a2e"/>
  <ellipse cx="197" cy="126" rx="1.5" ry="1.5" fill="white"/>

  <!-- 眉（鋭い） -->
  <path d="M155 120 C160 115 170 116 174 119" fill="none" stroke="#2d263c" stroke-width="5" stroke-linecap="round"/>
  <path d="M186 118 C191 114 200 114 207 119" fill="none" stroke="#2d263c" stroke-width="5" stroke-linecap="round"/>

  <!-- 鼻 -->
  <ellipse cx="181" cy="141" rx="4" ry="3" fill="#2d1050"/>

  <!-- 口（意地悪そうなニヤリ口） -->
  <path d="M166 150 C170 156 176 159 181 158 C186 159 192 156 196 150" fill="none" stroke="#2d263c" stroke-width="5" stroke-linecap="round"/>
  <path d="M168 151 C172 155 178 156 181 155 C184 156 190 153 194 150" fill="#2d1050" stroke="none"/>

  <!-- 牙 -->
  <path d="M171 155 L168 163 L174 157 Z" fill="white" stroke="#2d263c" stroke-width="3" stroke-linejoin="round"/>
  <path d="M191 154 L194 162 L188 157 Z" fill="white" stroke="#2d263c" stroke-width="3" stroke-linejoin="round"/>

  <!-- ほっぺ（赤みがかった丸） -->
  <ellipse cx="152" cy="145" rx="9" ry="7" fill="#e74c3c" opacity="0.55"/>
  <ellipse cx="210" cy="143" rx="9" ry="7" fill="#e74c3c" opacity="0.55"/>

  <!-- 翼の筋（前面に重ねて立体感） -->
  <path d="M155 130 C140 160 110 185 65 195" fill="none" stroke="#2d263c" stroke-width="4" stroke-linecap="round" opacity="0.5"/>
  <path d="M205 130 C220 160 250 185 295 195" fill="none" stroke="#2d263c" stroke-width="4" stroke-linecap="round" opacity="0.5"/>

  <!-- 胸の模様（トウガラシ紋） -->
  <path d="M175 195 C172 202 170 212 173 218 C176 223 184 223 187 218 C190 212 188 202 185 195 C182 198 178 198 175 195 Z" fill="#c0392b" stroke="#2d263c" stroke-width="4" stroke-linejoin="round"/>
</svg>