<svg xmlns="http://www.w3.org/2000/svg" viewBox="0 0 360 360">
<g id="mega-burst"><circle cx="180" cy="180" r="172" fill="#fff3c0"/><polygon points="180,180 450.0,180.0 444.8,232.7" fill="#ffd96b"/><polygon points="180,180 429.4,283.3 404.5,330.0" fill="#ffb13d"/><polygon points="180,180 370.9,370.9 330.0,404.5" fill="#ffd96b"/><polygon points="180,180 283.3,429.4 232.7,444.8" fill="#ffb13d"/><polygon points="180,180 180.0,450.0 127.3,444.8" fill="#ffd96b"/><polygon points="180,180 76.7,429.4 30.0,404.5" fill="#ffb13d"/><polygon points="180,180 -10.9,370.9 -44.5,330.0" fill="#ffd96b"/><polygon points="180,180 -69.4,283.3 -84.8,232.7" fill="#ffb13d"/><polygon points="180,180 -90.0,180.0 -84.8,127.3" fill="#ffd96b"/><polygon points="180,180 -69.4,76.7 -44.5,30.0" fill="#ffb13d"/><polygon points="180,180 -10.9,-10.9 30.0,-44.5" fill="#ffd96b"/><polygon points="180,180 76.7,-69.4 127.3,-84.8" fill="#ffb13d"/><polygon points="180,180 180.0,-90.0 232.7,-84.8" fill="#ffd96b"/><polygon points="180,180 283.3,-69.4 330.0,-44.5" fill="#ffb13d"/><polygon points="180,180 370.9,-10.9 404.5,30.0" fill="#ffd96b"/><polygon points="180,180 429.4,76.7 444.8,127.3" fill="#ffb13d"/><circle cx="180" cy="180" r="120" fill="#fff3c0" opacity="0.55"/></g>

  <!-- 影 -->
  <ellipse cx="180" cy="326" rx="52" ry="12" fill="#00000022"/>

  <!-- 尻尾ベース -->
  <path d="M180,240 Q155,265 148,295 Q142,315 160,318 Q175,320 178,300 Q185,275 188,250"
        fill="#3aaa40" stroke="#2d263c" stroke-width="7"
        stroke-linejoin="round" stroke-linecap="round"/>

  <!-- 尻尾先端の葉の束 -->
  <ellipse cx="152" cy="300" rx="30" ry="14" transform="rotate(-40 152 300)"
           fill="#228B22" stroke="#2d263c" stroke-width="5"
           stroke-linejoin="round" stroke-linecap="round"/>
  <ellipse cx="148" cy="292" rx="28" ry="12" transform="rotate(-55 148 292)"
           fill="#228B22" stroke="#2d263c" stroke-width="5"
           stroke-linejoin="round" stroke-linecap="round"/>
  <ellipse cx="157" cy="308" rx="28" ry="11" transform="rotate(-25 157 308)"
           fill="#2da040" stroke="#2d263c" stroke-width="5"
           stroke-linejoin="round" stroke-linecap="round"/>

  <!-- 体(細長いトカゲ胴体) -->
  <ellipse cx="180" cy="200" rx="32" ry="70"
           fill="#3aaa40" stroke="#2d263c" stroke-width="8"
           stroke-linejoin="round" stroke-linecap="round"/>

  <!-- 腹部(黄緑) -->
  <ellipse cx="180" cy="208" rx="18" ry="54"
           fill="#c8e840" stroke="#2d263c" stroke-width="3"/>

  <!-- 背中の葉(左上大) -->
  <ellipse cx="128" cy="148" rx="52" ry="22" transform="rotate(-55 128 148)"
           fill="#2da040" stroke="#2d263c" stroke-width="6"
           stroke-linejoin="round" stroke-linecap="round"/>
  <!-- 背中の葉(左上大・葉脈) -->
  <line x1="154" y1="155" x2="102" y2="142" stroke="#228B22" stroke-width="2" stroke-linecap="round"/>

  <!-- 背中の葉(右上大) -->
  <ellipse cx="232" cy="148" rx="52" ry="22" transform="rotate(55 232 148)"
           fill="#2da040" stroke="#2d263c" stroke-width="6"
           stroke-linejoin="round" stroke-linecap="round"/>
  <!-- 背中の葉(右上大・葉脈) -->
  <line x1="206" y1="155" x2="258" y2="142" stroke="#228B22" stroke-width="2" stroke-linecap="round"/>

  <!-- 背中の葉(左中) -->
  <ellipse cx="120" cy="195" rx="48" ry="18" transform="rotate(-65 120 195)"
           fill="#228B22" stroke="#2d263c" stroke-width="5"
           stroke-linejoin="round" stroke-linecap="round"/>

  <!-- 背中の葉(右中) -->
  <ellipse cx="240" cy="195" rx="48" ry="18" transform="rotate(65 240 195)"
           fill="#228B22" stroke="#2d263c" stroke-width="5"
           stroke-linejoin="round" stroke-linecap="round"/>

  <!-- 腕(左) -->
  <path d="M155,200 Q130,210 120,228 Q112,242 118,250"
        fill="none" stroke="#3aaa40" stroke-width="12"
        stroke-linecap="round" stroke-linejoin="round"/>
  <!-- 腕(左)小葉 -->
  <ellipse cx="118" cy="248" rx="16" ry="8" transform="rotate(-30 118 248)"
           fill="#228B22" stroke="#2d263c" stroke-width="4"
           stroke-linejoin="round" stroke-linecap="round"/>

  <!-- 腕(右) -->
  <path d="M205,200 Q230,210 240,228 Q248,242 242,250"
        fill="none" stroke="#3aaa40" stroke-width="12"
        stroke-linecap="round" stroke-linejoin="round"/>
  <!-- 腕(右)小葉 -->
  <ellipse cx="242" cy="248" rx="16" ry="8" transform="rotate(30 242 248)"
           fill="#228B22" stroke="#2d263c" stroke-width="4"
           stroke-linejoin="round" stroke-linecap="round"/>

  <!-- 足(左) -->
  <path d="M162,260 Q148,278 144,300"
        fill="none" stroke="#3aaa40" stroke-width="13"
        stroke-linecap="round" stroke-linejoin="round"/>
  <ellipse cx="142" cy="305" rx="14" ry="7" transform="rotate(-10 142 305)"
           fill="#3aaa40" stroke="#2d263c" stroke-width="4"/>

  <!-- 足(右) -->
  <path d="M198,260 Q212,278 216,300"
        fill="none" stroke="#3aaa40" stroke-width="13"
        stroke-linecap="round" stroke-linejoin="round"/>
  <ellipse cx="218" cy="305" rx="14" ry="7" transform="rotate(10 218 305)"
           fill="#3aaa40" stroke="#2d263c" stroke-width="4"/>

  <!-- 頭部(細長い三角形) -->
  <ellipse cx="180" cy="118" rx="28" ry="34"
           fill="#3aaa40" stroke="#2d263c" stroke-width="8"
           stroke-linejoin="round" stroke-linecap="round"/>

  <!-- 頭部先端(とがらせ) -->
  <path d="M162,100 Q180,72 198,100"
        fill="#3aaa40" stroke="#2d263c" stroke-width="7"
        stroke-linejoin="round" stroke-linecap="round"/>

  <!-- 目(左・白目) -->
  <ellipse cx="165" cy="112" rx="10" ry="11"
           fill="white" stroke="#2d263c" stroke-width="4"/>
  <!-- 目(左・黒目+赤) -->
  <circle cx="167" cy="114" r="7" fill="#cc2200"/>
  <circle cx="168" cy="115" r="4" fill="#2d263c"/>
  <!-- 目(左・ハイライト) -->
  <circle cx="165" cy="112" r="2.5" fill="white"/>

  <!-- 目(右・白目) -->
  <ellipse cx="195" cy="112" rx="10" ry="11"
           fill="white" stroke="#2d263c" stroke-width="4"/>
  <!-- 目(右・黒目+赤) -->
  <circle cx="197" cy="114" r="7" fill="#cc2200"/>
  <circle cx="198" cy="115" r="4" fill="#2d263c"/>
  <!-- 目(右・ハイライト) -->
  <circle cx="195" cy="112" r="2.5" fill="white"/>

  <!-- 口(細い) -->
  <path d="M170,130 Q180,138 190,130"
        fill="none" stroke="#2d263c" stroke-width="3"
        stroke-linecap="round" stroke-linejoin="round"/>

  <!-- 頭の葉(左) -->
  <ellipse cx="148" cy="95" rx="26" ry="10" transform="rotate(-50 148 95)"
           fill="#228B22" stroke="#2d263c" stroke-width="4"
           stroke-linejoin="round" stroke-linecap="round"/>

  <!-- 頭の葉(右) -->
  <ellipse cx="212" cy="95" rx="26" ry="10" transform="rotate(50 212 95)"
           fill="#228B22" stroke="#2d263c" stroke-width="4"
           stroke-linejoin="round" stroke-linecap="round"/>

</svg>
