<svg xmlns="http://www.w3.org/2000/svg" viewBox="0 0 360 360">
<g id="mega-burst"><circle cx="180" cy="180" r="172" fill="#fff3c0"/><polygon points="180,180 450.0,180.0 444.8,232.7" fill="#ffd96b"/><polygon points="180,180 429.4,283.3 404.5,330.0" fill="#ffb13d"/><polygon points="180,180 370.9,370.9 330.0,404.5" fill="#ffd96b"/><polygon points="180,180 283.3,429.4 232.7,444.8" fill="#ffb13d"/><polygon points="180,180 180.0,450.0 127.3,444.8" fill="#ffd96b"/><polygon points="180,180 76.7,429.4 30.0,404.5" fill="#ffb13d"/><polygon points="180,180 -10.9,370.9 -44.5,330.0" fill="#ffd96b"/><polygon points="180,180 -69.4,283.3 -84.8,232.7" fill="#ffb13d"/><polygon points="180,180 -90.0,180.0 -84.8,127.3" fill="#ffd96b"/><polygon points="180,180 -69.4,76.7 -44.5,30.0" fill="#ffb13d"/><polygon points="180,180 -10.9,-10.9 30.0,-44.5" fill="#ffd96b"/><polygon points="180,180 76.7,-69.4 127.3,-84.8" fill="#ffb13d"/><polygon points="180,180 180.0,-90.0 232.7,-84.8" fill="#ffd96b"/><polygon points="180,180 283.3,-69.4 330.0,-44.5" fill="#ffb13d"/><polygon points="180,180 370.9,-10.9 404.5,30.0" fill="#ffd96b"/><polygon points="180,180 429.4,76.7 444.8,127.3" fill="#ffb13d"/><circle cx="180" cy="180" r="120" fill="#fff3c0" opacity="0.55"/></g>
  <!-- 後ろ：メガ毛束(長い青いマフラー) -->
  <ellipse cx="172" cy="130" rx="22" ry="60" fill="#2a4fa0" stroke="#2d263c" stroke-width="7" stroke-linejoin="round"/>
  <ellipse cx="188" cy="138" rx="18" ry="55" fill="#3358b8" stroke="#2d263c" stroke-width="6" stroke-linejoin="round"/>
  <!-- 耳（後ろ) -->
  <polygon points="140,95 128,28 155,85" fill="#10103a" stroke="#2d263c" stroke-width="7" stroke-linejoin="round" stroke-linecap="round"/>
  <polygon points="195,90 200,24 218,82" fill="#10103a" stroke="#2d263c" stroke-width="7" stroke-linejoin="round" stroke-linecap="round"/>
  <!-- しっぽ -->
  <path d="M210,260 Q260,300 245,340 Q232,355 218,340 Q230,320 210,295 Z" fill="#10103a" stroke="#2d263c" stroke-width="7" stroke-linejoin="round"/>
  <!-- 体(胴体) -->
  <ellipse cx="180" cy="232" rx="62" ry="72" fill="#1c1c4e" stroke="#2d263c" stroke-width="8" stroke-linejoin="round"/>
  <!-- 腹(青いパネル) -->
  <ellipse cx="178" cy="238" rx="40" ry="52" fill="#2e4fa8" stroke="#2d263c" stroke-width="6" stroke-linejoin="round"/>
  <!-- 胸の十字マーク -->
  <rect x="168" y="215" width="20" height="7" rx="3" fill="#87aaee" stroke="#2d263c" stroke-width="3"/>
  <rect x="175" y="208" width="7" height="22" rx="3" fill="#87aaee" stroke="#2d263c" stroke-width="3"/>
  <!-- 脚(左) -->
  <path d="M152,288 Q136,308 130,338 Q140,345 148,338 Q152,315 165,300 Z" fill="#10103a" stroke="#2d263c" stroke-width="7" stroke-linejoin="round"/>
  <!-- 脚(右) -->
  <path d="M208,290 Q218,312 224,340 Q215,346 207,338 Q205,316 195,303 Z" fill="#10103a" stroke="#2d263c" stroke-width="7" stroke-linejoin="round"/>
  <!-- 脚のスパイク(左) -->
  <polygon points="130,318 118,308 133,303" fill="#3a5fc8" stroke="#2d263c" stroke-width="5" stroke-linejoin="round"/>
  <!-- 腕(左・伸ばして構え気味) -->
  <path d="M125,218 Q90,240 72,270 Q82,282 92,272 Q106,252 132,238 Z" fill="#1c1c4e" stroke="#2d263c" stroke-width="7" stroke-linejoin="round"/>
  <!-- 腕のスパイク(左) -->
  <polygon points="78,264 62,258 74,250" fill="#3a5fc8" stroke="#2d263c" stroke-width="5" stroke-linejoin="round"/>
  <!-- 腕(右) -->
  <path d="M235,222 Q268,248 280,272 Q270,284 260,274 Q248,254 224,240 Z" fill="#1c1c4e" stroke="#2d263c" stroke-width="7" stroke-linejoin="round"/>
  <!-- 手(左) -->
  <ellipse cx="88" cy="276" rx="18" ry="16" fill="#1c1c4e" stroke="#2d263c" stroke-width="6" stroke-linejoin="round"/>
  <!-- 手(右) -->
  <ellipse cx="272" cy="278" rx="18" ry="16" fill="#1c1c4e" stroke="#2d263c" stroke-width="6" stroke-linejoin="round"/>
  <!-- 頭 -->
  <ellipse cx="180" cy="120" rx="52" ry="50" fill="#10103a" stroke="#2d263c" stroke-width="8" stroke-linejoin="round"/>
  <!-- マズル(白いふさ) -->
  <ellipse cx="180" cy="140" rx="28" ry="20" fill="#d8d8e8" stroke="#2d263c" stroke-width="6" stroke-linejoin="round"/>
  <!-- 額スパイク(メガ特有) -->
  <polygon points="175,76 180,54 185,76" fill="#3a5fc8" stroke="#2d263c" stroke-width="5" stroke-linejoin="round"/>
  <!-- 頬の赤点(左) -->
  <ellipse cx="152" cy="135" rx="10" ry="8" fill="#cc2222" stroke="#2d263c" stroke-width="4"/>
  <!-- 頬の赤点(右) -->
  <ellipse cx="208" cy="135" rx="10" ry="8" fill="#cc2222" stroke="#2d263c" stroke-width="4"/>
  <!-- 目(左)・鋭い -->
  <ellipse cx="163" cy="118" rx="10" ry="8" fill="#cc3300" stroke="#2d263c" stroke-width="4"/>
  <ellipse cx="165" cy="117" rx="4" ry="5" fill="#220000" stroke="none"/>
  <ellipse cx="166" cy="115" rx="2" ry="2" fill="#ffffff" stroke="none"/>
  <!-- 目(右)・鋭い -->
  <ellipse cx="197" cy="118" rx="10" ry="8" fill="#cc3300" stroke="#2d263c" stroke-width="4"/>
  <ellipse cx="199" cy="117" rx="4" ry="5" fill="#220000" stroke="none"/>
  <ellipse cx="200" cy="115" rx="2" ry="2" fill="#ffffff" stroke="none"/>
  <!-- 眉(左・キリっと下がり) -->
  <path d="M155,107 Q163,103 173,108" fill="none" stroke="#2d263c" stroke-width="5" stroke-linecap="round"/>
  <!-- 眉(右) -->
  <path d="M187,108 Q197,103 205,107" fill="none" stroke="#2d263c" stroke-width="5" stroke-linecap="round"/>
  <!-- 口(への字) -->
  <path d="M172,150 Q180,155 188,150" fill="none" stroke="#2d263c" stroke-width="4" stroke-linecap="round"/>
  <!-- 波動オーラ(手首まわり・青) -->
  <path d="M68,262 Q58,254 64,244" fill="none" stroke="#5577dd" stroke-width="5" stroke-linecap="round"/>
  <path d="M280,264 Q292,256 286,244" fill="none" stroke="#5577dd" stroke-width="5" stroke-linecap="round"/>
</svg>