<svg xmlns="http://www.w3.org/2000/svg" viewBox="0 0 360 360">
  <path d="M202 290 L250 296 L234 310 L254 324 L228 328 L234 338 L198 324 Z" fill="#2b3150" stroke="#2d263c" stroke-width="7" stroke-linejoin="round" stroke-linecap="round"/>
  <path d="M175 104 L198 48 L224 80 L254 44 L272 88 L306 70 L306 120 L336 132 L306 172 L334 206 L300 212 C296 150 260 96 196 104 Z" fill="#2b3150" stroke="#2d263c" stroke-width="7" stroke-linejoin="round" stroke-linecap="round"/>
  <path d="M162 168 L212 182 L192 198 L216 214 L168 206 Z" fill="#2b3150" stroke="#2d263c" stroke-width="7" stroke-linejoin="round" stroke-linecap="round"/>
  <path d="M168 178 L196 188 L172 196 Z" fill="#d63a2f" stroke="#2d263c" stroke-width="5" stroke-linejoin="round" stroke-linecap="round"/>
  <path d="M170 100 C250 70 315 130 308 210 C303 270 260 315 200 322 L210 288 C256 272 272 232 266 195 C258 150 222 124 172 140 Z" fill="#3d7dc8" stroke="#2d263c" stroke-width="8" stroke-linejoin="round" stroke-linecap="round"/>
  <path d="M196 122 C244 110 282 148 284 200 C285 244 264 282 224 300" fill="none" stroke="#d63a2f" stroke-width="10" stroke-linecap="round"/>
  <path d="M196 132 C236 118 268 150 272 200 C274 240 256 276 220 295" fill="none" stroke="#f2d15f" stroke-width="16" stroke-linecap="round"/>
  <path d="M219 119 L226 137 M242 134 L254 150 M263 200 L281 200 M254 252 L268 259" fill="none" stroke="#2d263c" stroke-width="5" stroke-linecap="round"/>
  <path d="M90 102 L76 46 L108 74 L122 32 L138 76 L166 46 L154 102 Z" fill="#2b3150" stroke="#2d263c" stroke-width="7" stroke-linejoin="round" stroke-linecap="round"/>
  <path d="M65 150 C60 110 90 88 125 90 C162 92 182 118 178 152 C175 188 150 210 115 208 C85 206 69 184 65 150 Z" fill="#3d7dc8" stroke="#2d263c" stroke-width="8" stroke-linejoin="round" stroke-linecap="round"/>
  <path d="M60 192 C66 218 96 230 118 222 L106 204 C92 212 74 208 68 190 Z" fill="#d63a2f" stroke="#2d263c" stroke-width="6" stroke-linejoin="round" stroke-linecap="round"/>
  <path d="M56 150 C52 178 68 202 96 207 C118 211 132 199 134 184 L116 160 Z" fill="#a8332c" stroke="#2d263c" stroke-width="7" stroke-linejoin="round" stroke-linecap="round"/>
  <path d="M68 152 L77 176 L88 154 Z" fill="#f7f3ec" stroke="#2d263c" stroke-width="5" stroke-linejoin="round"/>
  <path d="M96 158 L104 180 L114 160 Z" fill="#f7f3ec" stroke="#2d263c" stroke-width="5" stroke-linejoin="round"/>
  <path d="M84 206 L91 184 L100 205 Z" fill="#f7f3ec" stroke="#2d263c" stroke-width="5" stroke-linejoin="round"/>
  <path d="M108 204 L114 184 L122 200 Z" fill="#f7f3ec" stroke="#2d263c" stroke-width="5" stroke-linejoin="round"/>
  <path d="M58 146 C36 166 50 194 30 216" fill="none" stroke="#2d263c" stroke-width="13" stroke-linecap="round"/>
  <path d="M58 146 C36 166 50 194 30 216" fill="none" stroke="#f7f3ec" stroke-width="7" stroke-linecap="round"/>
  <path d="M96 212 C88 242 106 264 88 292" fill="none" stroke="#2d263c" stroke-width="13" stroke-linecap="round"/>
  <path d="M96 212 C88 242 106 264 88 292" fill="none" stroke="#f7f3ec" stroke-width="7" stroke-linecap="round"/>
  <ellipse cx="144" cy="138" rx="13" ry="10" fill="#f7f3ec" stroke="#2d263c" stroke-width="6"/>
  <circle cx="146" cy="139" r="4.5" fill="#d63a2f"/>
  <path d="M122 128 L168 112" fill="none" stroke="#2d263c" stroke-width="8" stroke-linecap="round"/>
  <circle cx="80" cy="138" r="4" fill="#2d263c"/>
</svg>