<svg xmlns="http://www.w3.org/2000/svg" viewBox="0 0 360 360">
  <!-- しっぽ炎（後ろ） -->
  <path d="M230 260 Q280 220 295 180 Q310 140 285 110 Q270 90 255 120 Q265 100 245 95 Q225 90 235 120 Q215 100 210 130 Q200 160 220 200 Z" fill="#ff8c00" stroke="#2d263c" stroke-width="6" stroke-linejoin="round" stroke-linecap="round"/>
  <path d="M235 250 Q275 225 282 190 Q290 155 268 130 Q255 115 248 138 Q255 122 240 120 Q226 118 233 142 Q218 128 215 155 Q210 178 228 210 Z" fill="#ffcc00" stroke="none"/>
  <!-- しっぽ本体 -->
  <path d="M200 255 Q220 240 240 250 Q260 260 255 280 Q248 300 230 295 Q210 288 205 270 Z" fill="#c0392b" stroke="#2d263c" stroke-width="7" stroke-linejoin="round" stroke-linecap="round"/>

  <!-- 体 -->
  <ellipse cx="170" cy="235" rx="55" ry="75" fill="#c0392b" stroke="#2d263c" stroke-width="8" stroke-linejoin="round"/>
  <!-- お腹の毛 -->
  <path d="M145 200 Q150 185 170 180 Q190 185 195 200 Q198 220 195 240 Q190 255 170 258 Q150 255 145 240 Q142 220 145 200 Z" fill="#f5d090" stroke="#2d263c" stroke-width="5" stroke-linejoin="round"/>

  <!-- 左足 -->
  <path d="M148 295 Q140 310 135 325 Q132 335 145 337 Q155 338 158 325 Q162 310 162 295 Z" fill="#2d263c" stroke="#2d263c" stroke-width="6" stroke-linejoin="round"/>
  <!-- 右足 -->
  <path d="M185 295 Q183 310 178 325 Q175 335 188 337 Q200 338 202 325 Q205 310 200 295 Z" fill="#2d263c" stroke="#2d263c" stroke-width="6" stroke-linejoin="round"/>

  <!-- 左腕（毛付き） -->
  <path d="M118 200 Q95 195 82 210 Q70 225 80 238 Q90 250 105 240 Q115 232 120 218 Z" fill="#f5d090" stroke="#2d263c" stroke-width="7" stroke-linejoin="round"/>
  <!-- 左手 -->
  <path d="M78 235 Q65 240 60 252 Q62 262 72 258 Q68 265 78 263 Q75 272 85 268 Q90 278 97 268 Q100 255 90 245 Z" fill="#2d263c" stroke="#2d263c" stroke-width="5" stroke-linejoin="round"/>

  <!-- 右腕（メガ炎の杖） -->
  <path d="M218 195 Q238 185 248 198 Q255 212 242 222 Q230 230 218 218 Z" fill="#f5d090" stroke="#2d263c" stroke-width="7" stroke-linejoin="round"/>
  <!-- 杖（枝） -->
  <path d="M248 200 Q268 185 275 165 Q278 150 270 142" fill="none" stroke="#8b4513" stroke-width="8" stroke-linecap="round"/>
  <!-- 杖先の炎 -->
  <path d="M265 138 Q258 118 270 105 Q280 90 272 78 Q263 88 256 78 Q260 90 248 98 Q240 108 250 125 Q255 135 262 140 Z" fill="#ff6600" stroke="#2d263c" stroke-width="5" stroke-linejoin="round"/>
  <path d="M263 132 Q258 115 267 104 Q273 95 267 86 Q261 94 256 86 Q259 96 252 103 Q246 111 254 124 Z" fill="#ffee55" stroke="none"/>

  <!-- 首・胸の毛 -->
  <path d="M140 175 Q148 158 168 152 Q188 158 198 175 Q205 188 198 195 Q190 185 170 182 Q150 185 142 195 Q135 188 140 175 Z" fill="#f5d090" stroke="#2d263c" stroke-width="6" stroke-linejoin="round"/>

  <!-- 頭 -->
  <ellipse cx="170" cy="130" rx="42" ry="48" fill="#f5d090" stroke="#2d263c" stroke-width="8" stroke-linejoin="round"/>
  <!-- 顔の赤い模様（ほっぺ周り） -->
  <path d="M130 120 Q128 140 135 155 Q145 165 155 158 Q148 148 148 130 Z" fill="#c0392b" stroke="#2d263c" stroke-width="5" stroke-linejoin="round"/>
  <path d="M210 120 Q212 140 205 155 Q195 165 185 158 Q192 148 192 130 Z" fill="#c0392b" stroke="#2d263c" stroke-width="5" stroke-linejoin="round"/>

  <!-- 耳（左） -->
  <path d="M138 100 Q122 68 130 42 Q138 22 148 40 Q155 58 150 88 Z" fill="#c0392b" stroke="#2d263c" stroke-width="7" stroke-linejoin="round"/>
  <path d="M140 96 Q127 70 133 50 Q138 36 145 52 Q150 66 147 88 Z" fill="#f5d090" stroke="none"/>
  <!-- 耳先の黒 -->
  <ellipse cx="136" cy="44" rx="7" ry="10" fill="#2d263c"/>

  <!-- 耳（右） -->
  <path d="M202 100 Q218 68 210 42 Q202 22 192 40 Q185 58 190 88 Z" fill="#c0392b" stroke="#2d263c" stroke-width="7" stroke-linejoin="round"/>
  <path d="M200 96 Q213 70 207 50 Q202 36 195 52 Q190 66 193 88 Z" fill="#f5d090" stroke="none"/>
  <!-- 耳先の黒 -->
  <ellipse cx="204" cy="44" rx="7" ry="10" fill="#2d263c"/>

  <!-- メガ進化のアクセサリー(額の宝石) -->
  <path d="M162 92 L170 80 L178 92 L175 102 L165 102 Z" fill="#ff44aa" stroke="#2d263c" stroke-width="4"/>
  <path d="M165 92 L170 83 L175 92 L173 99 L167 99 Z" fill="#ffaadd" stroke="none"/>

  <!-- 目（左）ぱっちり系 -->
  <ellipse cx="152" cy="128" rx="10" ry="11" fill="#2d263c"/>
  <ellipse cx="155" cy="124" rx="4" ry="4" fill="white"/>
  <ellipse cx="149" cy="132" rx="2" ry="2" fill="#c0392b"/>

  <!-- 目（右） -->
  <ellipse cx="188" cy="128" rx="10" ry="11" fill="#2d263c"/>
  <ellipse cx="191" cy="124" rx="4" ry="4" fill="white"/>
  <ellipse cx="185" cy="132" rx="2" ry="2" fill="#c0392b"/>

  <!-- 鼻 -->
  <ellipse cx="170" cy="142" rx="4" ry="3" fill="#8b3a3a" stroke="#2d263c" stroke-width="3"/>

  <!-- 口（ちょっとニヤリ） -->
  <path d="M158 152 Q165 160 170 158 Q175 160 182 152" fill="none" stroke="#2d263c" stroke-width="5" stroke-linecap="round"/>

  <!-- ほっぺの赤み -->
  <ellipse cx="142" cy="145" rx="10" ry="7" fill="#e84343" opacity="0.5"/>
  <ellipse cx="198" cy="145" rx="10" ry="7" fill="#e84343" opacity="0.5"/>

  <!-- メガの翼毛（左） -->
  <path d="M125 195 Q90 170 72 145 Q58 122 68 108 Q80 96 92 112 Q85 98 100 100 Q115 102 108 120 Q120 108 130 118 Q138 130 128 148 Q135 162 128 180 Z" fill="#c0392b" stroke="#2d263c" stroke-width="6" stroke-linejoin="round"/>
  <!-- メガの翼毛（右） -->
  <path d="M215 195 Q250 170 268 145 Q282 122 272 108 Q260 96 248 112 Q255 98 240 100 Q225 102 232 120 Q220 108 210 118 Q202 130 212 148 Q205 162 212 180 Z" fill="#c0392b" stroke="#2d263c" stroke-width="6" stroke-linejoin="round"/>
</svg>