<svg xmlns="http://www.w3.org/2000/svg" viewBox="0 0 360 360">
  <!-- 翼(左・後ろ) -->
  <path d="M80 130 Q30 80 20 40 Q50 60 70 90 Q40 50 60 30 Q90 70 100 110 Z" fill="#1a1a3a" stroke="#2d263c" stroke-width="7" stroke-linejoin="round" stroke-linecap="round"/>
  <path d="M80 130 Q30 80 20 40 Q50 60 70 90 Q40 50 60 30 Q90 70 100 110 Z" fill="none" stroke="#3355bb" stroke-width="3" stroke-linejoin="round"/>

  <!-- 翼(右・後ろ) -->
  <path d="M280 125 Q330 70 345 35 Q315 58 295 88 Q325 48 305 28 Q272 72 262 108 Z" fill="#1a1a3a" stroke="#2d263c" stroke-width="7" stroke-linejoin="round" stroke-linecap="round"/>
  <path d="M280 125 Q330 70 345 35 Q315 58 295 88 Q325 48 305 28 Q272 72 262 108 Z" fill="none" stroke="#3355bb" stroke-width="3" stroke-linejoin="round"/>

  <!-- しっぽ -->
  <path d="M215 290 Q245 310 260 340 Q240 325 228 310 Q250 330 248 355 Q225 335 218 308 Z" fill="#1a1a3a" stroke="#2d263c" stroke-width="7" stroke-linejoin="round" stroke-linecap="round"/>
  <!-- しっぽ炎(青) -->
  <path d="M240 332 Q255 318 265 300 Q260 318 270 308 Q263 328 255 342 Q250 348 245 355 Q242 345 248 335 Z" fill="#3fa7ff" stroke="none"/>
  <path d="M248 340 Q260 322 268 305 Q262 326 272 315 Q264 338 255 350 Q252 355 246 358 Q244 348 250 338 Z" fill="#88ccff" stroke="none"/>

  <!-- 体 -->
  <path d="M125 160 Q110 175 108 200 Q106 230 115 260 Q125 285 150 295 Q175 305 200 302 Q220 300 232 285 Q245 268 248 245 Q252 220 245 195 Q238 170 220 158 Q200 148 175 148 Q150 148 125 160 Z" fill="#1a1a2e" stroke="#2d263c" stroke-width="8" stroke-linejoin="round" stroke-linecap="round"/>

  <!-- 腹部(オレンジ赤) -->
  <path d="M138 195 Q132 215 133 240 Q134 262 145 278 Q158 292 178 295 Q198 297 212 282 Q222 268 224 248 Q226 226 220 207 Q213 190 198 185 Q183 180 165 182 Q150 184 138 195 Z" fill="#b03020" stroke="#2d263c" stroke-width="5" stroke-linejoin="round"/>

  <!-- 腹部ハイライト -->
  <path d="M148 205 Q143 222 144 244 Q146 260 155 272 Q165 283 178 285 Q192 285 202 275 Q210 264 212 248 Q213 232 208 218 Q202 205 190 200 Q178 196 165 198 Q155 200 148 205 Z" fill="#c04030" stroke="none"/>

  <!-- 左腕 -->
  <path d="M115 195 Q95 205 85 225 Q80 240 88 252 Q96 260 110 255 Q120 248 125 235 Q130 220 125 205 Z" fill="#1a1a2e" stroke="#2d263c" stroke-width="7" stroke-linejoin="round" stroke-linecap="round"/>
  <!-- 左爪 -->
  <path d="M88 252 Q78 262 72 272" fill="none" stroke="#2d263c" stroke-width="7" stroke-linecap="round"/>
  <path d="M94 258 Q86 270 82 282" fill="none" stroke="#2d263c" stroke-width="7" stroke-linecap="round"/>
  <path d="M100 260 Q96 274 95 286" fill="none" stroke="#2d263c" stroke-width="7" stroke-linecap="round"/>

  <!-- 右腕 -->
  <path d="M245 195 Q265 205 274 226 Q278 242 270 253 Q262 261 248 256 Q237 249 233 236 Q229 220 234 205 Z" fill="#1a1a2e" stroke="#2d263c" stroke-width="7" stroke-linejoin="round" stroke-linecap="round"/>
  <!-- 右爪 -->
  <path d="M270 253 Q280 263 286 273" fill="none" stroke="#2d263c" stroke-width="7" stroke-linecap="round"/>
  <path d="M264 259 Q272 271 275 283" fill="none" stroke="#2d263c" stroke-width="7" stroke-linecap="round"/>
  <path d="M258 261 Q262 275 262 287" fill="none" stroke="#2d263c" stroke-width="7" stroke-linecap="round"/>

  <!-- 脚(左) -->
  <path d="M148 290 Q142 308 138 325 Q135 340 140 350" fill="none" stroke="#2d263c" stroke-width="9" stroke-linecap="round"/>
  <path d="M140 350 Q130 358 122 355" fill="none" stroke="#2d263c" stroke-width="7" stroke-linecap="round"/>
  <path d="M140 350 Q138 360 145 360" fill="none" stroke="#2d263c" stroke-width="7" stroke-linecap="round"/>
  <path d="M140 350 Q148 358 155 354" fill="none" stroke="#2d263c" stroke-width="7" stroke-linecap="round"/>

  <!-- 脚(右) -->
  <path d="M210 290 Q216 308 220 325 Q223 340 218 350" fill="none" stroke="#2d263c" stroke-width="9" stroke-linecap="round"/>
  <path d="M218 350 Q228 358 236 354" fill="none" stroke="#2d263c" stroke-width="7" stroke-linecap="round"/>
  <path d="M218 350 Q220 360 213 360" fill="none" stroke="#2d263c" stroke-width="7" stroke-linecap="round"/>
  <path d="M218 350 Q210 358 204 353" fill="none" stroke="#2d263c" stroke-width="7" stroke-linecap="round"/>

  <!-- 首 -->
  <path d="M150 162 Q145 145 148 128 Q152 112 165 108 Q178 104 190 108 Q202 113 206 130 Q210 147 205 162" fill="#1a1a2e" stroke="#2d263c" stroke-width="7" stroke-linejoin="round" stroke-linecap="round"/>

  <!-- 頭 -->
  <path d="M140 118 Q135 95 142 75 Q150 55 178 50 Q205 46 215 68 Q224 87 220 110 Q218 125 210 132 Q195 142 178 143 Q158 142 147 130 Z" fill="#1a1a2e" stroke="#2d263c" stroke-width="8" stroke-linejoin="round" stroke-linecap="round"/>

  <!-- 角(左) -->
  <path d="M152 72 Q140 52 132 35 Q148 50 155 68 Z" fill="#223399" stroke="#2d263c" stroke-width="6" stroke-linejoin="round"/>
  <!-- 角(右) -->
  <path d="M202 68 Q215 48 222 30 Q210 48 204 66 Z" fill="#223399" stroke="#2d263c" stroke-width="6" stroke-linejoin="round"/>

  <!-- あごの小角 -->
  <path d="M170 138 Q166 148 162 155" fill="none" stroke="#2d263c" stroke-width="6" stroke-linecap="round"/>
  <path d="M185 140 Q185 150 184 157" fill="none" stroke="#2d263c" stroke-width="6" stroke-linecap="round"/>

  <!-- 目(左) -->
  <ellipse cx="162" cy="94" rx="9" ry="8" fill="#ffdd00" stroke="#2d263c" stroke-width="4"/>
  <ellipse cx="163" cy="94" rx="5" ry="6" fill="#111122"/>
  <circle cx="166" cy="91" r="2" fill="white"/>

  <!-- 目(右) -->
  <ellipse cx="195" cy="92" rx="9" ry="8" fill="#ffdd00" stroke="#2d263c" stroke-width="4"/>
  <ellipse cx="196" cy="92" rx="5" ry="6" fill="#111122"/>
  <circle cx="199" cy="89" r="2" fill="white"/>

  <!-- 眉(左・つり目) -->
  <path d="M155 82 Q160 76 170 78" fill="none" stroke="#2d263c" stroke-width="5" stroke-linecap="round"/>
  <!-- 眉(右・つり目) -->
  <path d="M188 77 Q195 73 203 77" fill="none" stroke="#2d263c" stroke-width="5" stroke-linecap="round"/>

  <!-- 鼻の穴 -->
  <ellipse cx="174" cy="108" rx="3" ry="2" fill="#2d263c"/>
  <ellipse cx="184" cy="107" rx="3" ry="2" fill="#2d263c"/>

  <!-- 口(少し開いて) -->
  <path d="M162 118 Q178 128 196 116" fill="none" stroke="#2d263c" stroke-width="5" stroke-linecap="round"/>

  <!-- 口から出る青炎 -->
  <path d="M168 125 Q160 138 155 155 Q165 142 162 160 Q170 145 165 162 Q172 148 170 165 Q175 150 173 168" fill="none" stroke="#3fa7ff" stroke-width="5" stroke-linecap="round"/>
  <path d="M186 124 Q194 137 198 155 Q188 143 192 160 Q184 146 187 163 Q182 149 184 167" fill="none" stroke="#5bc0ff" stroke-width="4" stroke-linecap="round"/>

  <!-- ほっぺ(青みがかった光沢) -->
  <ellipse cx="147" cy="108" rx="8" ry="6" fill="#2244aa" opacity="0.6"/>
  <ellipse cx="210" cy="106" rx="8" ry="6" fill="#2244aa" opacity="0.6"/>

  <!-- 翼の膜(左・前) -->
  <path d="M148 165 Q108 145 80 130 Q95 155 105 170 Q88 150 82 160 Q98 178 115 182 Q130 185 148 180 Z" fill="#1a1a3a" stroke="#2d263c" stroke-width="6" stroke-linejoin="round" stroke-linecap="round"/>
  <path d="M148 165 Q108 145 80 130 Q95 155 105 170 Q88 150 82 160 Q98 178 115 182 Q130 185 148 180 Z" fill="none" stroke="#3355cc" stroke-width="2.5" stroke-linejoin="round"/>

  <!-- 翼の膜(右・前) -->
  <path d="M210 162 Q250 142 280 125 Q265 152 255 168 Q272 148 278 158 Q262 176 244 181 Q228 184 210 178 Z" fill="#1a1a3a" stroke="#2d263c" stroke-width="6" stroke-linejoin="round" stroke-linecap="round"/>
  <path d="M210 162 Q250 142 280 125 Q265 152 255 168 Q272 148 278 158 Q262 176 244 181 Q228 184 210 178 Z" fill="none" stroke="#3355cc" stroke-width="2.5" stroke-linejoin="round"/>

  <!-- 背中のトゲ -->
  <path d="M165 150 Q162 138 158 128" fill="none" stroke="#223399" stroke-width="6" stroke-linecap="round"/>
  <path d="M178 148 Q176 134 175 122" fill="none" stroke="#223399" stroke-width="6" stroke-linecap="round"/>
  <path d="M191 150 Q192 136 195 125" fill="none" stroke="#223399" stroke-width="6" stroke-linecap="round"/>
</svg>