<svg xmlns="http://www.w3.org/2000/svg" viewBox="0 0 360 360">
<path d="M265,215 Q312,208 336,236 Q328,257 300,259 Q274,256 261,235 Z" fill="#c48f36" stroke="#2d263c" stroke-width="7" stroke-linejoin="round" stroke-linecap="round"/>
<ellipse cx="103" cy="276" rx="29" ry="22" fill="#c48f36" stroke="#2d263c" stroke-width="7"/>
<ellipse cx="257" cy="276" rx="29" ry="22" fill="#c48f36" stroke="#2d263c" stroke-width="7"/>
<path d="M84,155 Q180,144 276,155 L281,251 Q180,279 79,251 Z" fill="#dba545" stroke="#2d263c" stroke-width="8" stroke-linejoin="round" stroke-linecap="round"/>
<ellipse cx="180" cy="228" rx="82" ry="42" fill="#f5e1a4" stroke="#2d263c" stroke-width="6"/>
<ellipse cx="128" cy="299" rx="31" ry="24" fill="#dba545" stroke="#2d263c" stroke-width="7"/>
<ellipse cx="232" cy="299" rx="31" ry="24" fill="#dba545" stroke="#2d263c" stroke-width="7"/>
<path d="M94,60 Q180,34 266,60 Q302,86 293,131 Q285,159 250,163 L110,163 Q75,159 67,131 Q58,86 94,60 Z" fill="#dba545" stroke="#2d263c" stroke-width="8" stroke-linejoin="round" stroke-linecap="round"/>
<polygon points="139,58 150,29 161,58" fill="#c48f36" stroke="#2d263c" stroke-width="7" stroke-linejoin="round"/>
<polygon points="169,55 180,24 191,55" fill="#c48f36" stroke="#2d263c" stroke-width="7" stroke-linejoin="round"/>
<polygon points="199,58 210,29 221,58" fill="#c48f36" stroke="#2d263c" stroke-width="7" stroke-linejoin="round"/>
<path d="M107,90 Q180,71 253,90 L251,121 Q180,136 109,121 Z" fill="#2d263c"/>
<circle cx="150" cy="102" r="16" fill="#e8452c" stroke="#2d263c" stroke-width="6"/>
<circle cx="210" cy="102" r="16" fill="#e8452c" stroke="#2d263c" stroke-width="6"/>
<circle cx="150" cy="104" r="6" fill="#2d263c"/>
<circle cx="210" cy="104" r="6" fill="#2d263c"/>
<circle cx="165" cy="145" r="3" fill="#2d263c"/>
<circle cx="195" cy="145" r="3" fill="#2d263c"/>
<path d="M118,158 Q180,173 242,158" fill="none" stroke="#2d263c" stroke-width="6" stroke-linecap="round"/>
<polygon points="127,160 138,131 149,160" fill="#fff8ec" stroke="#2d263c" stroke-width="6" stroke-linejoin="round"/>
<polygon points="211,160 222,131 233,160" fill="#fff8ec" stroke="#2d263c" stroke-width="6" stroke-linejoin="round"/>
</svg>
