<svg xmlns="http://www.w3.org/2000/svg" viewBox="0 0 360 360">
<g id="mega-burst"><circle cx="180" cy="180" r="172" fill="#fff3c0"/><polygon points="180,180 450.0,180.0 444.8,232.7" fill="#ffd96b"/><polygon points="180,180 429.4,283.3 404.5,330.0" fill="#ffb13d"/><polygon points="180,180 370.9,370.9 330.0,404.5" fill="#ffd96b"/><polygon points="180,180 283.3,429.4 232.7,444.8" fill="#ffb13d"/><polygon points="180,180 180.0,450.0 127.3,444.8" fill="#ffd96b"/><polygon points="180,180 76.7,429.4 30.0,404.5" fill="#ffb13d"/><polygon points="180,180 -10.9,370.9 -44.5,330.0" fill="#ffd96b"/><polygon points="180,180 -69.4,283.3 -84.8,232.7" fill="#ffb13d"/><polygon points="180,180 -90.0,180.0 -84.8,127.3" fill="#ffd96b"/><polygon points="180,180 -69.4,76.7 -44.5,30.0" fill="#ffb13d"/><polygon points="180,180 -10.9,-10.9 30.0,-44.5" fill="#ffd96b"/><polygon points="180,180 76.7,-69.4 127.3,-84.8" fill="#ffb13d"/><polygon points="180,180 180.0,-90.0 232.7,-84.8" fill="#ffd96b"/><polygon points="180,180 283.3,-69.4 330.0,-44.5" fill="#ffb13d"/><polygon points="180,180 370.9,-10.9 404.5,30.0" fill="#ffd96b"/><polygon points="180,180 429.4,76.7 444.8,127.3" fill="#ffb13d"/><circle cx="180" cy="180" r="120" fill="#fff3c0" opacity="0.55"/></g>
  <!-- back petals (behind body) -->
  <ellipse cx="138" cy="178" rx="38" ry="18" fill="#f06aaa" stroke="#2d263c" stroke-width="6" stroke-linejoin="round" transform="rotate(-40 138 178)"/>
  <ellipse cx="155" cy="162" rx="38" ry="18" fill="#e0559a" stroke="#2d263c" stroke-width="6" stroke-linejoin="round" transform="rotate(-70 155 162)"/>
  <ellipse cx="222" cy="162" rx="38" ry="18" fill="#f06aaa" stroke="#2d263c" stroke-width="6" stroke-linejoin="round" transform="rotate(70 222 162)"/>
  <ellipse cx="237" cy="179" rx="38" ry="18" fill="#e0559a" stroke="#2d263c" stroke-width="6" stroke-linejoin="round" transform="rotate(40 237 179)"/>

  <!-- tail -->
  <path d="M 240 285 Q 285 300 295 268 Q 305 245 275 242" fill="#6abf45" stroke="#2d263c" stroke-width="7" stroke-linejoin="round" stroke-linecap="round"/>

  <!-- body -->
  <ellipse cx="183" cy="278" rx="72" ry="62" fill="#78c850" stroke="#2d263c" stroke-width="8" stroke-linejoin="round"/>

  <!-- belly -->
  <ellipse cx="183" cy="285" rx="45" ry="38" fill="#a8e070" stroke="#2d263c" stroke-width="5" stroke-linejoin="round"/>

  <!-- front legs -->
  <path d="M 135 315 Q 118 330 112 348 Q 128 352 138 342 Q 140 332 145 320" fill="#78c850" stroke="#2d263c" stroke-width="7" stroke-linejoin="round" stroke-linecap="round"/>
  <path d="M 228 318 Q 244 332 247 350 Q 232 354 222 344 Q 221 334 218 322" fill="#78c850" stroke="#2d263c" stroke-width="7" stroke-linejoin="round" stroke-linecap="round"/>

  <!-- neck -->
  <path d="M 160 228 Q 152 200 158 170 Q 162 148 180 140 Q 198 148 202 170 Q 208 200 200 228" fill="#78c850" stroke="#2d263c" stroke-width="8" stroke-linejoin="round"/>

  <!-- neck stripes -->
  <path d="M 161 205 Q 180 199 199 205" fill="none" stroke="#4a9e30" stroke-width="4" stroke-linecap="round"/>
  <path d="M 159 218 Q 180 212 201 218" fill="none" stroke="#4a9e30" stroke-width="4" stroke-linecap="round"/>

  <!-- front petals (on top of neck) -->
  <ellipse cx="148" cy="175" rx="36" ry="17" fill="#ff80c0" stroke="#2d263c" stroke-width="6" stroke-linejoin="round" transform="rotate(-30 148 175)"/>
  <ellipse cx="212" cy="175" rx="36" ry="17" fill="#ff80c0" stroke="#2d263c" stroke-width="6" stroke-linejoin="round" transform="rotate(30 212 175)"/>
  <ellipse cx="180" cy="157" rx="36" ry="16" fill="#f050a0" stroke="#2d263c" stroke-width="6" stroke-linejoin="round"/>

  <!-- petal center circle -->
  <circle cx="180" cy="168" r="12" fill="#ffe040" stroke="#2d263c" stroke-width="5"/>
  <circle cx="180" cy="168" r="5" fill="#ff9010" stroke="none"/>

  <!-- head -->
  <ellipse cx="180" cy="120" rx="42" ry="37" fill="#78c850" stroke="#2d263c" stroke-width="8" stroke-linejoin="round"/>

  <!-- ear bumps -->
  <ellipse cx="150" cy="90" rx="12" ry="9" fill="#78c850" stroke="#2d263c" stroke-width="6" stroke-linejoin="round" transform="rotate(-15 150 90)"/>
  <ellipse cx="210" cy="90" rx="12" ry="9" fill="#78c850" stroke="#2d263c" stroke-width="6" stroke-linejoin="round" transform="rotate(15 210 90)"/>

  <!-- bud on top of head -->
  <ellipse cx="180" cy="85" rx="11" ry="14" fill="#6abf45" stroke="#2d263c" stroke-width="6" stroke-linejoin="round"/>
  <path d="M 170 80 Q 180 70 190 80" fill="#ff80c0" stroke="#2d263c" stroke-width="5" stroke-linecap="round"/>
  <path d="M 172 76 Q 180 64 188 76" fill="#ff80c0" stroke="#2d263c" stroke-width="4" stroke-linecap="round"/>

  <!-- eyes -->
  <ellipse cx="163" cy="116" rx="10" ry="11" fill="white" stroke="#2d263c" stroke-width="5"/>
  <ellipse cx="197" cy="116" rx="10" ry="11" fill="white" stroke="#2d263c" stroke-width="5"/>
  <circle cx="165" cy="117" r="5" fill="#2d263c"/>
  <circle cx="199" cy="117" r="5" fill="#2d263c"/>
  <circle cx="167" cy="115" r="2" fill="white"/>
  <circle cx="201" cy="115" r="2" fill="white"/>

  <!-- big red nose -->
  <ellipse cx="180" cy="130" rx="13" ry="9" fill="#e8304a" stroke="#2d263c" stroke-width="5" stroke-linejoin="round"/>

  <!-- smile -->
  <path d="M 166 140 Q 180 150 194 140" fill="none" stroke="#2d263c" stroke-width="5" stroke-linecap="round"/>

  <!-- cheek blush -->
  <ellipse cx="150" cy="128" rx="9" ry="6" fill="#ffaacc" opacity="0.7"/>
  <ellipse cx="210" cy="128" rx="9" ry="6" fill="#ffaacc" opacity="0.7"/>
</svg>