<svg xmlns="http://www.w3.org/2000/svg" viewBox="0 0 360 360">
<g id="mega-burst"><circle cx="180" cy="180" r="172" fill="#fff3c0"/><polygon points="180,180 450.0,180.0 444.8,232.7" fill="#ffd96b"/><polygon points="180,180 429.4,283.3 404.5,330.0" fill="#ffb13d"/><polygon points="180,180 370.9,370.9 330.0,404.5" fill="#ffd96b"/><polygon points="180,180 283.3,429.4 232.7,444.8" fill="#ffb13d"/><polygon points="180,180 180.0,450.0 127.3,444.8" fill="#ffd96b"/><polygon points="180,180 76.7,429.4 30.0,404.5" fill="#ffb13d"/><polygon points="180,180 -10.9,370.9 -44.5,330.0" fill="#ffd96b"/><polygon points="180,180 -69.4,283.3 -84.8,232.7" fill="#ffb13d"/><polygon points="180,180 -90.0,180.0 -84.8,127.3" fill="#ffd96b"/><polygon points="180,180 -69.4,76.7 -44.5,30.0" fill="#ffb13d"/><polygon points="180,180 -10.9,-10.9 30.0,-44.5" fill="#ffd96b"/><polygon points="180,180 76.7,-69.4 127.3,-84.8" fill="#ffb13d"/><polygon points="180,180 180.0,-90.0 232.7,-84.8" fill="#ffd96b"/><polygon points="180,180 283.3,-69.4 330.0,-44.5" fill="#ffb13d"/><polygon points="180,180 370.9,-10.9 404.5,30.0" fill="#ffd96b"/><polygon points="180,180 429.4,76.7 444.8,127.3" fill="#ffb13d"/><circle cx="180" cy="180" r="120" fill="#fff3c0" opacity="0.55"/></g>

  <!-- 影 -->
  <ellipse cx="182" cy="330" rx="72" ry="16" fill="#00000022"/>

  <!-- 尻尾ひれ -->
  <path d="M240,230 Q278,225 295,205 Q310,185 290,175 Q275,168 260,188 Q245,208 238,222"
        fill="#5085b0" stroke="#2d263c" stroke-width="7"
        stroke-linejoin="round" stroke-linecap="round"/>
  <path d="M238,235 Q280,248 298,240 Q315,232 305,218 Q295,205 274,215 Q255,224 240,228"
        fill="#5085b0" stroke="#2d263c" stroke-width="6"
        stroke-linejoin="round" stroke-linecap="round"/>

  <!-- 体(大きな丸いボディ) -->
  <ellipse cx="178" cy="218" rx="82" ry="78"
           fill="#5085b0" stroke="#2d263c" stroke-width="8"
           stroke-linejoin="round" stroke-linecap="round"/>

  <!-- 腹部(水色) -->
  <ellipse cx="178" cy="228" rx="52" ry="58"
           fill="#78c8e0" stroke="#2d263c" stroke-width="4"/>

  <!-- 頭部(幅広) -->
  <ellipse cx="178" cy="138" rx="74" ry="62"
           fill="#5085b0" stroke="#2d263c" stroke-width="8"
           stroke-linejoin="round" stroke-linecap="round"/>

  <!-- 頭部(頭頂・丸み) -->
  <ellipse cx="178" cy="108" rx="55" ry="44"
           fill="#5085b0" stroke="none"/>

  <!-- えら/ひれ(左・オレンジ) -->
  <path d="M106,128 Q82,108 70,85 Q62,65 80,62 Q98,60 108,82 Q118,104 112,124"
        fill="#E07030" stroke="#2d263c" stroke-width="7"
        stroke-linejoin="round" stroke-linecap="round"/>

  <!-- えら/ひれ(右・オレンジ) -->
  <path d="M250,128 Q274,108 286,85 Q294,65 276,62 Q258,60 248,82 Q238,104 244,124"
        fill="#E07030" stroke="#2d263c" stroke-width="7"
        stroke-linejoin="round" stroke-linecap="round"/>

  <!-- 超大きな腕(左) -->
  <path d="M110,190 Q72,195 55,220 Q42,242 52,268 Q60,288 82,285 Q105,282 118,258 Q132,232 122,200"
        fill="#4a7ab5" stroke="#2d263c" stroke-width="8"
        stroke-linejoin="round" stroke-linecap="round"/>
  <!-- 腕(左)筋肉線 -->
  <path d="M75,220 Q68,240 72,260" stroke="#3a6095" stroke-width="3" fill="none" stroke-linecap="round"/>
  <path d="M90,215 Q82,238 85,258" stroke="#3a6095" stroke-width="3" fill="none" stroke-linecap="round"/>

  <!-- 超大きな腕(右) -->
  <path d="M246,190 Q284,195 301,220 Q314,242 304,268 Q296,288 274,285 Q251,282 238,258 Q224,232 234,200"
        fill="#4a7ab5" stroke="#2d263c" stroke-width="8"
        stroke-linejoin="round" stroke-linecap="round"/>
  <!-- 腕(右)筋肉線 -->
  <path d="M281,220 Q288,240 284,260" stroke="#3a6095" stroke-width="3" fill="none" stroke-linecap="round"/>
  <path d="M266,215 Q274,238 271,258" stroke="#3a6095" stroke-width="3" fill="none" stroke-linecap="round"/>

  <!-- 小さな足(左) -->
  <path d="M148,286 Q138,306 136,320"
        fill="none" stroke="#4a7ab5" stroke-width="18"
        stroke-linecap="round" stroke-linejoin="round"/>
  <ellipse cx="134" cy="322" rx="18" ry="9"
           fill="#4a7ab5" stroke="#2d263c" stroke-width="4"/>

  <!-- 小さな足(右) -->
  <path d="M210,286 Q220,306 222,320"
        fill="none" stroke="#4a7ab5" stroke-width="18"
        stroke-linecap="round" stroke-linejoin="round"/>
  <ellipse cx="224" cy="322" rx="18" ry="9"
           fill="#4a7ab5" stroke="#2d263c" stroke-width="4"/>

  <!-- 顎(張り出す下あご) -->
  <path d="M120,165 Q178,198 236,165 Q245,182 236,195 Q178,230 120,195 Q112,182 120,165"
        fill="#5085b0" stroke="#2d263c" stroke-width="6"
        stroke-linejoin="round" stroke-linecap="round"/>

  <!-- 口(幅広い) -->
  <path d="M124,172 Q178,192 232,172"
        fill="none" stroke="#2d263c" stroke-width="5"
        stroke-linecap="round" stroke-linejoin="round"/>

  <!-- 下あご色 -->
  <path d="M124,178 Q178,196 232,178 Q228,195 178,200 Q128,195 124,178"
        fill="#78c8e0" stroke="none"/>

  <!-- 目(左・白目) -->
  <ellipse cx="140" cy="118" rx="18" ry="16"
           fill="white" stroke="#2d263c" stroke-width="5"/>
  <!-- 目(左・黒目) -->
  <circle cx="144" cy="120" r="11" fill="#2d263c"/>
  <!-- 目(左・ハイライト) -->
  <circle cx="141" cy="116" r="5" fill="white"/>

  <!-- 目(右・白目) -->
  <ellipse cx="216" cy="118" rx="18" ry="16"
           fill="white" stroke="#2d263c" stroke-width="5"/>
  <!-- 目(右・黒目) -->
  <circle cx="220" cy="120" r="11" fill="#2d263c"/>
  <!-- 目(右・ハイライト) -->
  <circle cx="217" cy="116" r="5" fill="white"/>

  <!-- 頭部の突起(メガ特有・左) -->
  <path d="M116,90 Q102,72 108,58 Q116,46 128,54 Q138,62 130,82"
        fill="#E07030" stroke="#2d263c" stroke-width="5"
        stroke-linejoin="round" stroke-linecap="round"/>

  <!-- 頭部の突起(メガ特有・右) -->
  <path d="M240,90 Q254,72 248,58 Q240,46 228,54 Q218,62 226,82"
        fill="#E07030" stroke="#2d263c" stroke-width="5"
        stroke-linejoin="round" stroke-linecap="round"/>

</svg>
