<svg xmlns="http://www.w3.org/2000/svg" viewBox="0 0 360 360">
<g id="mega-burst"><circle cx="180" cy="180" r="172" fill="#fff3c0"/><polygon points="180,180 450.0,180.0 444.8,232.7" fill="#ffd96b"/><polygon points="180,180 429.4,283.3 404.5,330.0" fill="#ffb13d"/><polygon points="180,180 370.9,370.9 330.0,404.5" fill="#ffd96b"/><polygon points="180,180 283.3,429.4 232.7,444.8" fill="#ffb13d"/><polygon points="180,180 180.0,450.0 127.3,444.8" fill="#ffd96b"/><polygon points="180,180 76.7,429.4 30.0,404.5" fill="#ffb13d"/><polygon points="180,180 -10.9,370.9 -44.5,330.0" fill="#ffd96b"/><polygon points="180,180 -69.4,283.3 -84.8,232.7" fill="#ffb13d"/><polygon points="180,180 -90.0,180.0 -84.8,127.3" fill="#ffd96b"/><polygon points="180,180 -69.4,76.7 -44.5,30.0" fill="#ffb13d"/><polygon points="180,180 -10.9,-10.9 30.0,-44.5" fill="#ffd96b"/><polygon points="180,180 76.7,-69.4 127.3,-84.8" fill="#ffb13d"/><polygon points="180,180 180.0,-90.0 232.7,-84.8" fill="#ffd96b"/><polygon points="180,180 283.3,-69.4 330.0,-44.5" fill="#ffb13d"/><polygon points="180,180 370.9,-10.9 404.5,30.0" fill="#ffd96b"/><polygon points="180,180 429.4,76.7 444.8,127.3" fill="#ffb13d"/><circle cx="180" cy="180" r="120" fill="#fff3c0" opacity="0.55"/></g>
  <!-- 背景の炎翼（後ろレイヤー） -->
  <!-- 左翼炎 -->
  <path d="M120,150 Q60,90 40,40 Q80,80 90,60 Q70,110 100,130 Q80,80 110,70 Q95,120 115,140 Z" fill="#FF6B00" stroke="#2d263c" stroke-width="6" stroke-linejoin="round" stroke-linecap="round"/>
  <path d="M115,145 Q55,100 50,55 Q85,90 92,72 Q75,118 105,138 Z" fill="#FFAA00" stroke="none" opacity="0.7"/>
  <!-- 右翼炎 -->
  <path d="M240,150 Q300,90 320,40 Q280,80 270,60 Q290,110 260,130 Q280,80 250,70 Q265,120 245,140 Z" fill="#FF6B00" stroke="#2d263c" stroke-width="6" stroke-linejoin="round" stroke-linecap="round"/>
  <path d="M245,145 Q305,100 310,55 Q275,90 268,72 Q285,118 255,138 Z" fill="#FFAA00" stroke="none" opacity="0.7"/>

  <!-- 炎たてがみ（体の後ろ） -->
  <path d="M130,190 Q100,160 85,130 Q110,155 115,140 Q105,170 125,180 Q110,155 130,150 Q120,175 135,185 Z" fill="#FF8C00" stroke="#2d263c" stroke-width="5" stroke-linejoin="round"/>
  <path d="M230,190 Q260,160 275,130 Q250,155 245,140 Q255,170 235,180 Q250,155 230,150 Q240,175 225,185 Z" fill="#FF8C00" stroke="#2d263c" stroke-width="5" stroke-linejoin="round"/>

  <!-- 胴体 -->
  <ellipse cx="180" cy="230" rx="85" ry="80" fill="#C0392B" stroke="#2d263c" stroke-width="8" stroke-linejoin="round"/>

  <!-- 腹の黒帯 -->
  <ellipse cx="180" cy="255" rx="60" ry="42" fill="#1a1a1a" stroke="#2d263c" stroke-width="5"/>
  <!-- 腹の橙模様 -->
  <ellipse cx="180" cy="252" rx="44" ry="30" fill="#E8820A" stroke="none"/>
  <!-- 腹の縞 -->
  <path d="M148,248 Q180,238 212,248" stroke="#2d263c" stroke-width="4" fill="none" stroke-linecap="round"/>
  <path d="M144,258 Q180,248 216,258" stroke="#2d263c" stroke-width="4" fill="none" stroke-linecap="round"/>

  <!-- 首・炎たてがみ（前レイヤー）-->
  <path d="M135,195 Q110,170 108,145 Q125,165 128,152 Q122,172 138,182 Z" fill="#FF6B00" stroke="#2d263c" stroke-width="5" stroke-linejoin="round"/>
  <path d="M155,192 Q135,158 138,138 Q148,162 152,148 Q145,170 158,182 Z" fill="#FFAA00" stroke="#2d263c" stroke-width="4" stroke-linejoin="round"/>
  <path d="M225,195 Q250,170 252,145 Q235,165 232,152 Q238,172 222,182 Z" fill="#FF6B00" stroke="#2d263c" stroke-width="5" stroke-linejoin="round"/>
  <path d="M205,192 Q225,158 222,138 Q212,162 208,148 Q215,170 202,182 Z" fill="#FFAA00" stroke="#2d263c" stroke-width="4" stroke-linejoin="round"/>

  <!-- 頭 -->
  <ellipse cx="180" cy="170" rx="60" ry="55" fill="#C0392B" stroke="#2d263c" stroke-width="8" stroke-linejoin="round"/>

  <!-- 耳（小さいとがり耳） -->
  <polygon points="148,130 138,105 160,118" fill="#8B2020" stroke="#2d263c" stroke-width="6" stroke-linejoin="round"/>
  <polygon points="212,130 222,105 200,118" fill="#8B2020" stroke="#2d263c" stroke-width="6" stroke-linejoin="round"/>

  <!-- 目 -->
  <ellipse cx="162" cy="162" rx="14" ry="15" fill="white" stroke="#2d263c" stroke-width="5"/>
  <ellipse cx="198" cy="162" rx="14" ry="15" fill="white" stroke="#2d263c" stroke-width="5"/>
  <circle cx="165" cy="164" r="8" fill="#1a1a1a"/>
  <circle cx="201" cy="164" r="8" fill="#1a1a1a"/>
  <circle cx="167" cy="161" r="3" fill="white"/>
  <circle cx="203" cy="161" r="3" fill="white"/>
  <!-- 眉毛（凶悪な感じ） -->
  <path d="M150,150 Q163,143 174,148" stroke="#2d263c" stroke-width="5" fill="none" stroke-linecap="round"/>
  <path d="M210,150 Q197,143 186,148" stroke="#2d263c" stroke-width="5" fill="none" stroke-linecap="round"/>

  <!-- 鼻（豚っぽい） -->
  <ellipse cx="180" cy="187" rx="22" ry="15" fill="#D4607A" stroke="#2d263c" stroke-width="5"/>
  <ellipse cx="173" cy="189" rx="5" ry="6" fill="#2d263c"/>
  <ellipse cx="187" cy="189" rx="5" ry="6" fill="#2d263c"/>

  <!-- 牙 -->
  <polygon points="165,200 159,222 170,218" fill="white" stroke="#2d263c" stroke-width="4" stroke-linejoin="round"/>
  <polygon points="195,200 201,222 190,218" fill="white" stroke="#2d263c" stroke-width="4" stroke-linejoin="round"/>

  <!-- 口 -->
  <path d="M162,200 Q180,210 198,200" stroke="#2d263c" stroke-width="4" fill="none" stroke-linecap="round"/>

  <!-- 額の十字傷 -->
  <path d="M178,140 L182,152" stroke="#FF2222" stroke-width="4" stroke-linecap="round"/>
  <path d="M174,146 L186,146" stroke="#FF2222" stroke-width="4" stroke-linecap="round"/>

  <!-- 左腕 -->
  <path d="M105,215 Q75,220 60,245 Q72,238 78,252 Q88,232 105,228 Z" fill="#1a1a1a" stroke="#2d263c" stroke-width="7" stroke-linejoin="round"/>
  <path d="M105,225 Q78,258 68,282 Q60,278 58,270 Q70,268 75,255 Q80,272 85,276 Q88,258 105,235 Z" fill="#1a1a1a" stroke="#2d263c" stroke-width="7" stroke-linejoin="round"/>
  <!-- 左拳 -->
  <ellipse cx="65" cy="284" rx="20" ry="16" fill="#1a1a1a" stroke="#2d263c" stroke-width="6"/>
  <!-- 左腕の炎 -->
  <path d="M62,270 Q50,255 52,240 Q60,252 58,243 Q68,255 64,268 Z" fill="#FF6B00" stroke="#2d263c" stroke-width="4" stroke-linejoin="round"/>

  <!-- 右腕 -->
  <path d="M255,215 Q285,220 300,245 Q288,238 282,252 Q272,232 255,228 Z" fill="#1a1a1a" stroke="#2d263c" stroke-width="7" stroke-linejoin="round"/>
  <path d="M255,225 Q282,258 292,282 Q300,278 302,270 Q290,268 285,255 Q280,272 275,276 Q272,258 255,235 Z" fill="#1a1a1a" stroke="#2d263c" stroke-width="7" stroke-linejoin="round"/>
  <!-- 右拳 -->
  <ellipse cx="295" cy="284" rx="20" ry="16" fill="#1a1a1a" stroke="#2d263c" stroke-width="6"/>
  <!-- 右腕の炎 -->
  <path d="M298,270 Q310,255 308,240 Q300,252 302,243 Q292,255 296,268 Z" fill="#FF6B00" stroke="#2d263c" stroke-width="4" stroke-linejoin="round"/>

  <!-- 脚 -->
  <rect x="148" y="298" width="30" height="38" rx="8" fill="#1a1a1a" stroke="#2d263c" stroke-width="7"/>
  <rect x="182" y="298" width="30" height="38" rx="8" fill="#1a1a1a" stroke="#2d263c" stroke-width="7"/>
  <!-- 足 -->
  <ellipse cx="163" cy="336" rx="22" ry="12" fill="#1a1a1a" stroke="#2d263c" stroke-width="6"/>
  <ellipse cx="197" cy="336" rx="22" ry="12" fill="#1a1a1a" stroke="#2d263c" stroke-width="6"/>

  <!-- しっぽ（太くて炎っぽい先端） -->
  <path d="M240,285 Q268,295 272,318 Q258,305 260,316 Q248,302 242,292 Z" fill="#C0392B" stroke="#2d263c" stroke-width="6" stroke-linejoin="round"/>
  <path d="M268,316 Q278,310 285,318 Q276,320 268,326 Q264,318 268,316 Z" fill="#FF6B00" stroke="#2d263c" stroke-width="4" stroke-linejoin="round"/>
</svg>