<svg xmlns="http://www.w3.org/2000/svg" viewBox="0 0 360 360">
  <!-- 胴体セグメント(下から上へ) -->
  <!-- セグメント6(最下部・しっぽ) -->
  <polygon points="180,338 158,318 162,298 198,298 202,318" fill="#7a8fa8" stroke="#2d263c" stroke-width="6" stroke-linejoin="round"/>
  <!-- セグメント5 -->
  <rect x="148" y="272" width="64" height="30" rx="6" fill="#8a9bb8" stroke="#2d263c" stroke-width="6" stroke-linejoin="round"/>
  <!-- セグメント5 結晶棘 左 -->
  <polygon points="148,274 128,262 136,282" fill="#b8cad8" stroke="#2d263c" stroke-width="5" stroke-linejoin="round"/>
  <!-- セグメント5 結晶棘 右 -->
  <polygon points="212,274 232,262 224,282" fill="#b8cad8" stroke="#2d263c" stroke-width="5" stroke-linejoin="round"/>

  <!-- セグメント4 -->
  <rect x="142" y="242" width="76" height="34" rx="7" fill="#9aadc0" stroke="#2d263c" stroke-width="6.5" stroke-linejoin="round"/>
  <!-- セグメント4 結晶棘 左 -->
  <polygon points="142,244 116,230 126,254" fill="#c0d0de" stroke="#2d263c" stroke-width="5" stroke-linejoin="round"/>
  <!-- セグメント4 結晶棘 右 -->
  <polygon points="218,244 244,230 234,254" fill="#c0d0de" stroke="#2d263c" stroke-width="5" stroke-linejoin="round"/>

  <!-- セグメント3 -->
  <rect x="136" y="208" width="88" height="38" rx="8" fill="#9aadc0" stroke="#2d263c" stroke-width="7" stroke-linejoin="round"/>
  <!-- セグメント3 結晶棘 左 -->
  <polygon points="136,210 106,194 120,216" fill="#c0d0de" stroke="#2d263c" stroke-width="5" stroke-linejoin="round"/>
  <!-- セグメント3 結晶棘 右 -->
  <polygon points="224,210 254,194 240,216" fill="#c0d0de" stroke="#2d263c" stroke-width="5" stroke-linejoin="round"/>

  <!-- セグメント2(首) -->
  <rect x="144" y="172" width="72" height="40" rx="8" fill="#8a9bb8" stroke="#2d263c" stroke-width="7" stroke-linejoin="round"/>
  <!-- セグメント2 結晶棘 左 -->
  <polygon points="144,174 112,160 128,178" fill="#b8cad8" stroke="#2d263c" stroke-width="5" stroke-linejoin="round"/>
  <!-- セグメント2 結晶棘 右 -->
  <polygon points="216,174 248,160 232,178" fill="#b8cad8" stroke="#2d263c" stroke-width="5" stroke-linejoin="round"/>

  <!-- 頭部本体(大きな台形) -->
  <polygon points="116,160 244,160 252,100 108,100" fill="#96a8be" stroke="#2d263c" stroke-width="8" stroke-linejoin="round"/>

  <!-- 頭部側面の大きな菱形結晶(左) -->
  <polygon points="110,118 74,128 84,148 120,140" fill="#c8d8e8" stroke="#2d263c" stroke-width="6" stroke-linejoin="round"/>
  <!-- 菱形内の光沢 -->
  <polygon points="110,120 86,128 92,142 116,136" fill="#dce8f0" stroke="none"/>

  <!-- 頭部側面の大きな菱形結晶(右) -->
  <polygon points="250,118 286,128 276,148 240,140" fill="#c8d8e8" stroke="#2d263c" stroke-width="6" stroke-linejoin="round"/>
  <!-- 菱形内の光沢 -->
  <polygon points="250,120 274,128 268,142 244,136" fill="#dce8f0" stroke="none"/>

  <!-- 頭頂部の結晶(左) -->
  <polygon points="140,102 122,72 146,88" fill="#b0c4d6" stroke="#2d263c" stroke-width="5.5" stroke-linejoin="round"/>
  <!-- 頭頂部の結晶(中央) -->
  <polygon points="180,100 168,60 192,60 196,100" fill="#b8ccd8" stroke="#2d263c" stroke-width="5.5" stroke-linejoin="round"/>
  <!-- 頭頂部の結晶(右) -->
  <polygon points="220,102 238,72 214,88" fill="#b0c4d6" stroke="#2d263c" stroke-width="5.5" stroke-linejoin="round"/>

  <!-- 眉骨(怒り顔) -->
  <polygon points="128,118 150,112 152,122 130,126" fill="#5c6e82" stroke="#2d263c" stroke-width="4" stroke-linejoin="round"/>
  <polygon points="232,118 210,112 208,122 230,126" fill="#5c6e82" stroke="#2d263c" stroke-width="4" stroke-linejoin="round"/>

  <!-- 目(赤い小さな目) -->
  <ellipse cx="146" cy="132" rx="9" ry="8" fill="#cc1111" stroke="#2d263c" stroke-width="4"/>
  <ellipse cx="214" cy="132" rx="9" ry="8" fill="#cc1111" stroke="#2d263c" stroke-width="4"/>
  <!-- 目の光 -->
  <ellipse cx="149" cy="129" rx="3" ry="2.5" fill="#ff6666" stroke="none"/>
  <ellipse cx="217" cy="129" rx="3" ry="2.5" fill="#ff6666" stroke="none"/>

  <!-- 上あご(口) -->
  <polygon points="122,155 238,155 244,165 116,165" fill="#7a8fa8" stroke="#2d263c" stroke-width="7" stroke-linejoin="round"/>

  <!-- 下あご(巨大な四角いあご) -->
  <polygon points="112,168 248,168 256,196 104,196" fill="#8090a8" stroke="#2d263c" stroke-width="7.5" stroke-linejoin="round"/>

  <!-- 下あごの結晶牙(4本) -->
  <polygon points="136,196 126,228 146,226" fill="#c8d8e4" stroke="#2d263c" stroke-width="5.5" stroke-linejoin="round"/>
  <polygon points="162,196 154,232 172,230" fill="#d0e0ea" stroke="#2d263c" stroke-width="5.5" stroke-linejoin="round"/>
  <polygon points="188,196 182,232 200,230" fill="#d0e0ea" stroke="#2d263c" stroke-width="5.5" stroke-linejoin="round"/>
  <polygon points="214,196 206,228 224,226" fill="#c8d8e4" stroke="#2d263c" stroke-width="5.5" stroke-linejoin="round"/>

  <!-- 鼻の穴(ちょこっと) -->
  <ellipse cx="168" cy="152" rx="5" ry="3.5" fill="#5c6e82" stroke="#2d263c" stroke-width="3"/>
  <ellipse cx="192" cy="152" rx="5" ry="3.5" fill="#5c6e82" stroke="#2d263c" stroke-width="3"/>
</svg>