<svg xmlns="http://www.w3.org/2000/svg" viewBox="0 0 360 360">
<g id="mega-burst"><circle cx="180" cy="180" r="172" fill="#fff3c0"/><polygon points="180,180 450.0,180.0 444.8,232.7" fill="#ffd96b"/><polygon points="180,180 429.4,283.3 404.5,330.0" fill="#ffb13d"/><polygon points="180,180 370.9,370.9 330.0,404.5" fill="#ffd96b"/><polygon points="180,180 283.3,429.4 232.7,444.8" fill="#ffb13d"/><polygon points="180,180 180.0,450.0 127.3,444.8" fill="#ffd96b"/><polygon points="180,180 76.7,429.4 30.0,404.5" fill="#ffb13d"/><polygon points="180,180 -10.9,370.9 -44.5,330.0" fill="#ffd96b"/><polygon points="180,180 -69.4,283.3 -84.8,232.7" fill="#ffb13d"/><polygon points="180,180 -90.0,180.0 -84.8,127.3" fill="#ffd96b"/><polygon points="180,180 -69.4,76.7 -44.5,30.0" fill="#ffb13d"/><polygon points="180,180 -10.9,-10.9 30.0,-44.5" fill="#ffd96b"/><polygon points="180,180 76.7,-69.4 127.3,-84.8" fill="#ffb13d"/><polygon points="180,180 180.0,-90.0 232.7,-84.8" fill="#ffd96b"/><polygon points="180,180 283.3,-69.4 330.0,-44.5" fill="#ffb13d"/><polygon points="180,180 370.9,-10.9 404.5,30.0" fill="#ffd96b"/><polygon points="180,180 429.4,76.7 444.8,127.3" fill="#ffb13d"/><circle cx="180" cy="180" r="120" fill="#fff3c0" opacity="0.55"/></g>
  <!-- しっぽ(細く非常に長く大きくカーブ) -->
  <path d="M205 268 Q300 258 318 175 Q330 110 288 68 Q310 118 282 168 Q262 230 198 244 Z" fill="#a888d8" stroke="#2d263c" stroke-width="7" stroke-linejoin="round" stroke-linecap="round"/>

  <!-- 後ろ脚(小さい・奥) -->
  <ellipse cx="214" cy="300" rx="20" ry="26" fill="#9a74c8" stroke="#2d263c" stroke-width="7" stroke-linejoin="round"/>
  <ellipse cx="214" cy="325" rx="18" ry="9" fill="#7d54ba" stroke="#2d263c" stroke-width="6" stroke-linejoin="round"/>

  <!-- 前脚(小さい・手前) -->
  <ellipse cx="152" cy="303" rx="21" ry="27" fill="#a888d8" stroke="#2d263c" stroke-width="7" stroke-linejoin="round"/>
  <ellipse cx="152" cy="329" rx="19" ry="9" fill="#7d54ba" stroke="#2d263c" stroke-width="6" stroke-linejoin="round"/>

  <!-- 体(細くスリム) -->
  <ellipse cx="183" cy="222" rx="56" ry="72" fill="#a888d8" stroke="#2d263c" stroke-width="8" stroke-linejoin="round"/>

  <!-- お腹の薄い模様 -->
  <ellipse cx="183" cy="238" rx="30" ry="46" fill="#eee2fa" stroke="#2d263c" stroke-width="6" stroke-linejoin="round"/>

  <!-- 右うで(細い・先端に指) -->
  <path d="M232 182 Q262 200 254 236 Q250 254 230 260" fill="none" stroke="#2d263c" stroke-width="8" stroke-linecap="round"/>
  <ellipse cx="230" cy="260" rx="12" ry="10" fill="#a888d8" stroke="#2d263c" stroke-width="6" stroke-linejoin="round"/>
  <path d="M222 264 Q220 274 216 278 M230 268 Q230 278 230 282 M238 264 Q241 274 245 278" fill="none" stroke="#2d263c" stroke-width="5" stroke-linecap="round"/>

  <!-- 左うで(細い) -->
  <path d="M134 180 Q106 198 112 232 Q116 250 136 256" fill="none" stroke="#2d263c" stroke-width="8" stroke-linecap="round"/>
  <ellipse cx="136" cy="256" rx="13" ry="11" fill="#a888d8" stroke="#2d263c" stroke-width="6" stroke-linejoin="round"/>
  <path d="M128 260 Q125 270 121 274 M136 264 Q136 274 136 278 M144 260 Q147 270 151 274" fill="none" stroke="#2d263c" stroke-width="5" stroke-linecap="round"/>

  <!-- 首のチューブ状突起(2本・長く伸びる) -->
  <path d="M200 108 Q232 98 236 66 Q238 44 220 30" fill="none" stroke="#2d263c" stroke-width="8" stroke-linecap="round"/>
  <ellipse cx="220" cy="30" rx="9" ry="7" fill="#7d54ba" stroke="#2d263c" stroke-width="6" stroke-linejoin="round"/>
  <path d="M212 104 Q230 116 224 140" fill="none" stroke="#2d263c" stroke-width="7" stroke-linecap="round"/>
  <ellipse cx="223" cy="141" rx="8" ry="6" fill="#9a74c8" stroke="#2d263c" stroke-width="5" stroke-linejoin="round"/>

  <!-- 首(細長い) -->
  <rect x="164" y="126" width="38" height="42" rx="16" fill="#9a74c8" stroke="#2d263c" stroke-width="7" stroke-linejoin="round"/>

  <!-- 頭(縦に伸びた大きい頭蓋・とがったあご) -->
  <path d="M183 20 Q252 26 256 96 Q258 140 216 168 Q188 186 152 168 Q106 142 108 92 Q110 24 183 20 Z" fill="#a888d8" stroke="#2d263c" stroke-width="8" stroke-linejoin="round"/>

  <!-- とがったあご -->
  <path d="M150 160 Q183 202 216 162 Q200 182 183 182 Q166 182 150 160 Z" fill="#9a74c8" stroke="#2d263c" stroke-width="7" stroke-linejoin="round"/>

  <!-- 目(左・大きく吊り上がる) -->
  <path d="M126 96 Q142 82 168 92 Q168 116 148 122 Q130 118 126 96 Z" fill="#33224e" stroke="#2d263c" stroke-width="6" stroke-linejoin="round"/>
  <ellipse cx="142" cy="98" rx="5" ry="4" fill="#c8a2f0"/>

  <!-- 目(右・大きく吊り上がる) -->
  <path d="M240 96 Q224 82 198 92 Q198 116 218 122 Q236 118 240 96 Z" fill="#33224e" stroke="#2d263c" stroke-width="6" stroke-linejoin="round"/>
  <ellipse cx="222" cy="98" rx="5" ry="4" fill="#c8a2f0"/>

  <!-- 口もと -->
  <path d="M168 148 Q183 156 198 148" fill="none" stroke="#2d263c" stroke-width="5" stroke-linecap="round"/>
</svg>
