<svg xmlns="http://www.w3.org/2000/svg" viewBox="0 0 360 360"><g stroke="#2d263c" stroke-width="7" stroke-linejoin="round" stroke-linecap="round"><path d="M110 160 L88 110 L104 112 L70 46 L124 90 L112 94 L158 138 L146 142 L172 160 Z" fill="#f7d02c"/><path d="M262 196 L306 148 L292 156 L330 104 L314 162 L328 158 L286 214 Z" fill="#f7d02c"/><path d="M278 234 L272 308 L296 310 L294 238 Z" fill="#2f7bc4"/><path d="M150 162 C202 150 254 162 270 192 C284 218 270 244 236 248 C198 252 166 244 148 230 Z" fill="#2f7bc4"/><path d="M284 248 L318 238 L298 264 L322 264 L292 286 Z" fill="#f7d02c"/><path d="M240 240 L236 314 L262 316 L260 244 Z" fill="#2f7bc4"/><path d="M120 224 L114 314 L142 316 L140 228 Z" fill="#2f7bc4"/><path d="M162 228 L158 316 L184 318 L182 232 Z" fill="#2f7bc4"/><path d="M112 168 L76 158 L100 186 L72 196 L108 206 Z" fill="#f7d02c"/><path d="M188 170 L226 162 L200 188 L228 200 L192 208 Z" fill="#f7d02c"/><path d="M150 138 C118 138 102 160 104 188 C106 214 124 230 148 232 C178 234 198 214 196 184 C194 156 180 138 150 138 Z" fill="#2f7bc4"/><path d="M118 170 L142 161 L140 182 L120 183 Z" fill="#e03c3c"/><path d="M158 161 L183 168 L180 183 L160 182 Z" fill="#e03c3c"/><circle cx="131" cy="173" r="3.5" fill="#2d263c" stroke="none"/><circle cx="170" cy="173" r="3.5" fill="#2d263c" stroke="none"/><path d="M144 192 L155 192 L149 201 Z" fill="#2d263c" stroke="none"/><path d="M129 208 C138 217 161 218 171 206" fill="none"/><path d="M139 212 L145 224 L151 211 Z" fill="#ffffff"/></g></svg>