<svg xmlns="http://www.w3.org/2000/svg" viewBox="0 0 360 360">
<g id="mega-burst"><circle cx="180" cy="180" r="172" fill="#fff3c0"/><polygon points="180,180 450.0,180.0 444.8,232.7" fill="#ffd96b"/><polygon points="180,180 429.4,283.3 404.5,330.0" fill="#ffb13d"/><polygon points="180,180 370.9,370.9 330.0,404.5" fill="#ffd96b"/><polygon points="180,180 283.3,429.4 232.7,444.8" fill="#ffb13d"/><polygon points="180,180 180.0,450.0 127.3,444.8" fill="#ffd96b"/><polygon points="180,180 76.7,429.4 30.0,404.5" fill="#ffb13d"/><polygon points="180,180 -10.9,370.9 -44.5,330.0" fill="#ffd96b"/><polygon points="180,180 -69.4,283.3 -84.8,232.7" fill="#ffb13d"/><polygon points="180,180 -90.0,180.0 -84.8,127.3" fill="#ffd96b"/><polygon points="180,180 -69.4,76.7 -44.5,30.0" fill="#ffb13d"/><polygon points="180,180 -10.9,-10.9 30.0,-44.5" fill="#ffd96b"/><polygon points="180,180 76.7,-69.4 127.3,-84.8" fill="#ffb13d"/><polygon points="180,180 180.0,-90.0 232.7,-84.8" fill="#ffd96b"/><polygon points="180,180 283.3,-69.4 330.0,-44.5" fill="#ffb13d"/><polygon points="180,180 370.9,-10.9 404.5,30.0" fill="#ffd96b"/><polygon points="180,180 429.4,76.7 444.8,127.3" fill="#ffb13d"/><circle cx="180" cy="180" r="120" fill="#fff3c0" opacity="0.55"/></g>
  <!-- 影 -->
  <ellipse cx="180" cy="332" rx="95" ry="16" fill="#00000022"/>

  <!-- 体 (胴体) -->
  <ellipse cx="180" cy="230" rx="75" ry="85" fill="#E060A0" stroke="#2d263c" stroke-width="8" stroke-linejoin="round" stroke-linecap="round"/>

  <!-- 脚 (左) -->
  <path d="M135 295 Q120 315 118 340 Q132 342 142 320 Q146 305 148 295 Z" fill="#E060A0" stroke="#2d263c" stroke-width="7" stroke-linejoin="round" stroke-linecap="round"/>
  <!-- 脚 (右) -->
  <path d="M225 295 Q240 315 242 340 Q228 342 218 320 Q214 305 212 295 Z" fill="#E060A0" stroke="#2d263c" stroke-width="7" stroke-linejoin="round" stroke-linecap="round"/>

  <!-- 足の裏 (左) -->
  <ellipse cx="130" cy="340" rx="18" ry="8" fill="#C04080" stroke="#2d263c" stroke-width="5"/>
  <!-- 足の裏 (右) -->
  <ellipse cx="230" cy="340" rx="18" ry="8" fill="#C04080" stroke="#2d263c" stroke-width="5"/>

  <!-- 超巨大な腕 (左) - メガ進化で特大 -->
  <path d="M108 200 Q55 185 32 205 Q22 230 30 260 Q45 288 80 298 Q110 305 130 290 Q150 270 148 245 Q148 218 125 205 Z" fill="#E060A0" stroke="#2d263c" stroke-width="8" stroke-linejoin="round" stroke-linecap="round"/>

  <!-- 爪 (左腕) -->
  <path d="M32 258 L15 265 L28 278 Z" fill="#F0F0F0" stroke="#2d263c" stroke-width="4" stroke-linejoin="round"/>
  <path d="M40 278 L22 290 L40 296 Z" fill="#F0F0F0" stroke="#2d263c" stroke-width="4" stroke-linejoin="round"/>
  <path d="M58 292 L46 308 L65 308 Z" fill="#F0F0F0" stroke="#2d263c" stroke-width="4" stroke-linejoin="round"/>

  <!-- 超巨大な腕 (右) - メガ進化で特大 -->
  <path d="M252 200 Q305 185 328 205 Q338 230 330 260 Q315 288 280 298 Q250 305 230 290 Q210 270 212 245 Q212 218 235 205 Z" fill="#E060A0" stroke="#2d263c" stroke-width="8" stroke-linejoin="round" stroke-linecap="round"/>

  <!-- 爪 (右腕) -->
  <path d="M328 258 L345 265 L332 278 Z" fill="#F0F0F0" stroke="#2d263c" stroke-width="4" stroke-linejoin="round"/>
  <path d="M320 278 L338 290 L320 296 Z" fill="#F0F0F0" stroke="#2d263c" stroke-width="4" stroke-linejoin="round"/>
  <path d="M302 292 L314 308 L295 308 Z" fill="#F0F0F0" stroke="#2d263c" stroke-width="4" stroke-linejoin="round"/>

  <!-- 胸のX字ストライプ (黒) -->
  <path d="M155 190 Q165 215 175 240 Q162 242 152 232 Q142 218 142 200 Z" fill="#2a2535" stroke="#2d263c" stroke-width="3" stroke-linejoin="round"/>
  <path d="M205 190 Q195 215 185 240 Q198 242 208 232 Q218 218 218 200 Z" fill="#2a2535" stroke="#2d263c" stroke-width="3" stroke-linejoin="round"/>
  <path d="M148 260 Q162 248 178 258 Q172 272 162 278 Q152 275 148 260 Z" fill="#2a2535" stroke="#2d263c" stroke-width="3" stroke-linejoin="round"/>
  <path d="M212 260 Q198 248 182 258 Q188 272 198 278 Q208 275 212 260 Z" fill="#2a2535" stroke="#2d263c" stroke-width="3" stroke-linejoin="round"/>

  <!-- 耳 左 (黒い丸耳) -->
  <circle cx="148" cy="128" r="28" fill="#2a2535" stroke="#2d263c" stroke-width="6"/>
  <!-- 耳 右 (黒い丸耳) -->
  <circle cx="212" cy="128" r="28" fill="#2a2535" stroke="#2d263c" stroke-width="6"/>

  <!-- 頭部 -->
  <circle cx="180" cy="158" r="62" fill="#F0F0F0" stroke="#2d263c" stroke-width="8" stroke-linejoin="round" stroke-linecap="round"/>

  <!-- 顔 (ピンクの鼻/口周り) -->
  <ellipse cx="180" cy="178" rx="28" ry="20" fill="#E060A0" stroke="#2d263c" stroke-width="5" stroke-linejoin="round" stroke-linecap="round"/>

  <!-- 鼻 -->
  <ellipse cx="180" cy="172" rx="8" ry="5" fill="#2a2535"/>

  <!-- 口 -->
  <path d="M165 182 Q172 192 180 194 Q188 192 195 182" fill="none" stroke="#2a2535" stroke-width="4" stroke-linecap="round"/>

  <!-- 目 (左) くまのような黒い目 -->
  <ellipse cx="158" cy="152" rx="14" ry="14" fill="#2a2535" stroke="#2d263c" stroke-width="3"/>
  <ellipse cx="158" cy="152" rx="9" ry="9" fill="white"/>
  <ellipse cx="160" cy="153" rx="5" ry="5" fill="#2a2535"/>
  <circle cx="162" cy="150" r="3" fill="white"/>

  <!-- 目 (右) くまのような黒い目 -->
  <ellipse cx="202" cy="152" rx="14" ry="14" fill="#2a2535" stroke="#2d263c" stroke-width="3"/>
  <ellipse cx="202" cy="152" rx="9" ry="9" fill="white"/>
  <ellipse cx="204" cy="153" rx="5" ry="5" fill="#2a2535"/>
  <circle cx="206" cy="150" r="3" fill="white"/>

  <!-- 眉 (怒り気味) -->
  <path d="M146 138 Q155 133 166 136" fill="none" stroke="#2a2535" stroke-width="5" stroke-linecap="round"/>
  <path d="M194 136 Q205 133 214 138" fill="none" stroke="#2a2535" stroke-width="5" stroke-linecap="round"/>
</svg>
