<svg xmlns="http://www.w3.org/2000/svg" viewBox="0 0 360 360">
  <ellipse cx="185" cy="326" rx="84" ry="11" fill="#2d263c" opacity="0.15"/>
  <ellipse cx="128" cy="292" rx="11" ry="32" fill="#9c7a4a" stroke="#2d263c" stroke-width="7"/>
  <ellipse cx="168" cy="296" rx="11" ry="28" fill="#9c7a4a" stroke="#2d263c" stroke-width="7"/>
  <ellipse cx="202" cy="296" rx="11" ry="28" fill="#9c7a4a" stroke="#2d263c" stroke-width="7"/>
  <ellipse cx="242" cy="292" rx="11" ry="32" fill="#9c7a4a" stroke="#2d263c" stroke-width="7"/>
  <ellipse cx="128" cy="322" rx="12" ry="7" fill="#2d263c"/>
  <ellipse cx="168" cy="322" rx="12" ry="7" fill="#2d263c"/>
  <ellipse cx="202" cy="322" rx="12" ry="7" fill="#2d263c"/>
  <ellipse cx="242" cy="322" rx="12" ry="7" fill="#2d263c"/>
  <ellipse cx="185" cy="232" rx="76" ry="58" fill="#b08858" stroke="#2d263c" stroke-width="9"/>
  <ellipse cx="185" cy="250" rx="44" ry="34" fill="#e8c898" opacity="0.75"/>
  <ellipse cx="185" cy="188" rx="50" ry="22" fill="#6ab04a" stroke="#2d263c" stroke-width="7"/>
  <path d="M158,178 Q146,156 162,154 Q156,174 176,170 Z" fill="#7ec850" stroke="#2d263c" stroke-width="5" stroke-linejoin="round"/>
  <path d="M212,178 Q224,156 208,154 Q220,174 194,170 Z" fill="#7ec850" stroke="#2d263c" stroke-width="5" stroke-linejoin="round"/>
  <path d="M258,228 Q276,224 272,240" fill="none" stroke="#2d263c" stroke-width="6" stroke-linecap="round"/>
  <ellipse cx="148" cy="140" rx="10" ry="20" fill="#b08858" stroke="#2d263c" stroke-width="7" transform="rotate(-20 148 140)"/>
  <ellipse cx="222" cy="140" rx="10" ry="20" fill="#b08858" stroke="#2d263c" stroke-width="7" transform="rotate(20 222 140)"/>
  <path d="M166,108 Q150,90 160,82" fill="none" stroke="#2d263c" stroke-width="7" stroke-linecap="round"/>
  <path d="M204,108 Q220,90 210,82" fill="none" stroke="#2d263c" stroke-width="7" stroke-linecap="round"/>
  <ellipse cx="185" cy="142" rx="46" ry="42" fill="#b08858" stroke="#2d263c" stroke-width="9"/>
  <ellipse cx="185" cy="160" rx="26" ry="22" fill="#e8c898" stroke="#2d263c" stroke-width="6"/>
  <ellipse cx="168" cy="140" rx="11" ry="13" fill="#ffe24a" stroke="#2d263c" stroke-width="6"/>
  <ellipse cx="202" cy="140" rx="11" ry="13" fill="#ffe24a" stroke="#2d263c" stroke-width="6"/>
  <ellipse cx="168" cy="141" rx="6" ry="4" fill="#2d263c"/>
  <ellipse cx="202" cy="141" rx="6" ry="4" fill="#2d263c"/>
  <ellipse cx="185" cy="158" rx="5" ry="4" fill="#2d263c"/>
  <path d="M185,162 L185,168 M177,169 Q185,174 193,169" fill="none" stroke="#2d263c" stroke-width="4" stroke-linecap="round"/>
</svg>
