<svg xmlns="http://www.w3.org/2000/svg" viewBox="0 0 360 360"><path d="M150 178 C132 122 98 76 44 50 C70 92 66 116 53 137 C83 131 91 149 88 171 C110 161 132 172 150 200 Z" fill="#32354a" stroke="#2d263c" stroke-width="7" stroke-linejoin="round" stroke-linecap="round"/><path d="M212 174 C228 116 264 72 318 46 C292 88 297 113 310 134 C280 128 271 146 274 168 C251 158 230 170 213 197 Z" fill="#32354a" stroke="#2d263c" stroke-width="7" stroke-linejoin="round" stroke-linecap="round"/><path d="M146 178 C132 132 106 94 70 70 C86 100 82 120 72 134 C94 130 100 146 98 164 C114 156 132 166 144 188 Z" fill="#46506e"/><path d="M215 175 C228 128 254 92 290 68 C275 98 279 117 289 131 C267 127 261 143 263 161 C247 153 230 164 217 185 Z" fill="#46506e"/><path d="M200 262 C246 286 294 280 308 246 C315 228 311 213 303 203 C300 214 296 218 290 220 C296 232 294 244 284 252 C268 264 236 262 210 248 Z" fill="#383b52" stroke="#2d263c" stroke-width="7" stroke-linejoin="round" stroke-linecap="round"/><path d="M298 212 C288 188 294 166 308 150 C305 170 318 164 324 148 C328 168 320 176 330 182 C324 202 311 212 298 212 Z" fill="#3dc4f2" stroke="#2d263c" stroke-width="7" stroke-linejoin="round" stroke-linecap="round"/><path d="M303 203 C298 188 302 176 309 168 C308 180 316 178 318 188 C315 198 308 203 303 203 Z" fill="#c8f0ff"/><path d="M140 168 L122 150 L148 155 Z" fill="#383b52" stroke="#2d263c" stroke-width="6" stroke-linejoin="round" stroke-linecap="round"/><path d="M222 166 L240 148 L216 153 Z" fill="#383b52" stroke="#2d263c" stroke-width="6" stroke-linejoin="round" stroke-linecap="round"/><path d="M180 148 C141 148 120 184 122 224 C124 262 148 286 181 286 C214 286 240 260 239 220 C238 182 217 148 180 148 Z" fill="#383b52" stroke="#2d263c" stroke-width="7" stroke-linejoin="round" stroke-linecap="round"/><path d="M152 272 C140 288 138 308 148 317 C160 324 174 317 172 298 C171 286 166 278 160 272 Z" fill="#383b52" stroke="#2d263c" stroke-width="7" stroke-linejoin="round" stroke-linecap="round"/><path d="M210 272 C222 286 226 306 216 316 C204 323 191 315 193 297 C194 285 200 277 205 271 Z" fill="#383b52" stroke="#2d263c" stroke-width="7" stroke-linejoin="round" stroke-linecap="round"/><path d="M142 313 L131 323 L147 322 Z" fill="#f4f1e8" stroke="#2d263c" stroke-width="6" stroke-linejoin="round" stroke-linecap="round"/><path d="M156 318 L151 329 L163 326 Z" fill="#f4f1e8" stroke="#2d263c" stroke-width="6" stroke-linejoin="round" stroke-linecap="round"/><path d="M214 312 L226 321 L211 322 Z" fill="#f4f1e8" stroke="#2d263c" stroke-width="6" stroke-linejoin="round" stroke-linecap="round"/><path d="M180 172 C160 172 148 196 149 226 C150 254 163 271 181 271 C200 271 213 251 212 224 C211 196 199 172 180 172 Z" fill="#74cfeb" stroke="#2d263c" stroke-width="7" stroke-linejoin="round" stroke-linecap="round"/><path d="M154 204 C172 212 192 212 207 203" fill="none" stroke="#2d263c" stroke-width="6" stroke-linecap="round"/><path d="M153 231 C172 240 192 240 208 230" fill="none" stroke="#2d263c" stroke-width="6" stroke-linecap="round"/><path d="M150 192 C137 200 133 214 140 224 C148 230 158 224 159 210 Z" fill="#383b52" stroke="#2d263c" stroke-width="7" stroke-linejoin="round" stroke-linecap="round"/><path d="M212 194 C226 200 230 216 222 226 C214 231 204 224 204 211 Z" fill="#383b52" stroke="#2d263c" stroke-width="7" stroke-linejoin="round" stroke-linecap="round"/><path d="M138 222 L130 232 L143 230 Z" fill="#f4f1e8" stroke="#2d263c" stroke-width="6" stroke-linejoin="round" stroke-linecap="round"/><path d="M224 224 L233 233 L220 232 Z" fill="#f4f1e8" stroke="#2d263c" stroke-width="6" stroke-linejoin="round" stroke-linecap="round"/><path d="M170 70 L158 22 L190 64 Z" fill="#383b52" stroke="#2d263c" stroke-width="7" stroke-linejoin="round" stroke-linecap="round"/><path d="M198 66 L228 26 L215 72 Z" fill="#383b52" stroke="#2d263c" stroke-width="7" stroke-linejoin="round" stroke-linecap="round"/><path d="M145 125 C140 92 158 64 184 62 C212 60 232 82 230 110 C229 130 212 147 183 147 C162 147 148 141 145 125 Z" fill="#383b52" stroke="#2d263c" stroke-width="7" stroke-linejoin="round" stroke-linecap="round"/><ellipse cx="167" cy="103" rx="8" ry="10" fill="#fff" stroke="#2d263c" stroke-width="6"/><ellipse cx="204" cy="100" rx="9" ry="10" fill="#fff" stroke="#2d263c" stroke-width="6"/><circle cx="169" cy="105" r="4" fill="#e23b3b"/><circle cx="202" cy="102" r="4.5" fill="#e23b3b"/><path d="M153 88 L179 95" fill="none" stroke="#2d263c" stroke-width="7" stroke-linecap="round"/><path d="M219 85 L195 92" fill="none" stroke="#2d263c" stroke-width="7" stroke-linecap="round"/><path d="M152 124 C168 138 198 139 222 123" fill="none" stroke="#2d263c" stroke-width="7" stroke-linecap="round"/><path d="M160 130 L166 143 L173 132 Z" fill="#f4f1e8" stroke="#2d263c" stroke-width="5" stroke-linejoin="round" stroke-linecap="round"/><path d="M213 130 L206 143 L200 131 Z" fill="#f4f1e8" stroke="#2d263c" stroke-width="5" stroke-linejoin="round" stroke-linecap="round"/><path d="M152 122 C134 120 120 128 110 144 C122 141 123 150 117 161 C133 156 146 142 156 130 Z" fill="#3dc4f2" stroke="#2d263c" stroke-width="6" stroke-linejoin="round" stroke-linecap="round"/><path d="M220 121 C238 118 252 125 262 139 C250 137 250 146 255 157 C240 152 228 139 217 128 Z" fill="#3dc4f2" stroke="#2d263c" stroke-width="6" stroke-linejoin="round" stroke-linecap="round"/></svg>