<svg xmlns="http://www.w3.org/2000/svg" viewBox="0 0 360 360">
<g id="mega-burst"><circle cx="180" cy="180" r="172" fill="#fff3c0"/><polygon points="180,180 450.0,180.0 444.8,232.7" fill="#ffd96b"/><polygon points="180,180 429.4,283.3 404.5,330.0" fill="#ffb13d"/><polygon points="180,180 370.9,370.9 330.0,404.5" fill="#ffd96b"/><polygon points="180,180 283.3,429.4 232.7,444.8" fill="#ffb13d"/><polygon points="180,180 180.0,450.0 127.3,444.8" fill="#ffd96b"/><polygon points="180,180 76.7,429.4 30.0,404.5" fill="#ffb13d"/><polygon points="180,180 -10.9,370.9 -44.5,330.0" fill="#ffd96b"/><polygon points="180,180 -69.4,283.3 -84.8,232.7" fill="#ffb13d"/><polygon points="180,180 -90.0,180.0 -84.8,127.3" fill="#ffd96b"/><polygon points="180,180 -69.4,76.7 -44.5,30.0" fill="#ffb13d"/><polygon points="180,180 -10.9,-10.9 30.0,-44.5" fill="#ffd96b"/><polygon points="180,180 76.7,-69.4 127.3,-84.8" fill="#ffb13d"/><polygon points="180,180 180.0,-90.0 232.7,-84.8" fill="#ffd96b"/><polygon points="180,180 283.3,-69.4 330.0,-44.5" fill="#ffb13d"/><polygon points="180,180 370.9,-10.9 404.5,30.0" fill="#ffd96b"/><polygon points="180,180 429.4,76.7 444.8,127.3" fill="#ffb13d"/><circle cx="180" cy="180" r="120" fill="#fff3c0" opacity="0.55"/></g>
  <!-- 大きな主翼 左(後ろ) -->
  <polygon points="60,250 20,80 90,40 140,100 160,180 120,230" fill="#E8A050" stroke="#2d263c" stroke-width="7" stroke-linejoin="round"/>
  <!-- 翼の内膜 左 -->
  <polygon points="65,240 28,90 88,50 135,110 155,175 118,225" fill="#C87828" stroke="none"/>
  <!-- 大きな主翼 右(後ろ) -->
  <polygon points="300,250 340,80 270,40 220,100 200,180 240,230" fill="#E8A050" stroke="#2d263c" stroke-width="7" stroke-linejoin="round"/>
  <!-- 翼の内膜 右 -->
  <polygon points="295,240 332,90 272,50 225,110 205,175 242,225" fill="#C87828" stroke="none"/>

  <!-- しっぽ -->
  <path d="M230,310 Q270,340 250,330 Q280,350 260,345 Q300,340 260,310 Q245,295 235,300" fill="#F08030" stroke="#2d263c" stroke-width="6" stroke-linejoin="round" stroke-linecap="round"/>
  <!-- しっぽ先の炎 -->
  <ellipse cx="268" cy="336" rx="18" ry="22" fill="#FF6600" stroke="#2d263c" stroke-width="5"/>
  <ellipse cx="268" cy="330" rx="12" ry="15" fill="#FFCC00" stroke="none"/>
  <ellipse cx="268" cy="324" rx="6" ry="8" fill="#FFFFFF" stroke="none"/>

  <!-- 胴体 -->
  <ellipse cx="180" cy="230" rx="70" ry="85" fill="#F08030" stroke="#2d263c" stroke-width="8" stroke-linejoin="round"/>
  <!-- 腹部クリーム色 -->
  <ellipse cx="175" cy="248" rx="42" ry="58" fill="#F0D888" stroke="#2d263c" stroke-width="5"/>
  <!-- 腹部のセグメント線 -->
  <path d="M148,225 Q175,230 202,225" fill="none" stroke="#C8A840" stroke-width="3"/>
  <path d="M145,245 Q175,252 205,245" fill="none" stroke="#C8A840" stroke-width="3"/>
  <path d="M148,265 Q175,272 202,265" fill="none" stroke="#C8A840" stroke-width="3"/>

  <!-- 左腕 -->
  <path d="M120,195 Q85,210 70,235 Q65,255 80,260 Q100,250 115,230 Q125,215 125,200" fill="#F08030" stroke="#2d263c" stroke-width="7" stroke-linejoin="round"/>
  <!-- 左爪 -->
  <path d="M70,257 Q55,268 52,280 Q65,272 75,265" fill="#F08030" stroke="#2d263c" stroke-width="5" stroke-linecap="round"/>
  <path d="M78,263 Q68,278 66,290 Q78,278 85,268" fill="#F08030" stroke="#2d263c" stroke-width="5" stroke-linecap="round"/>
  <!-- 腕の小さな副翼 左 -->
  <polygon points="95,205 60,175 85,160 115,195" fill="#E8A050" stroke="#2d263c" stroke-width="6" stroke-linejoin="round"/>

  <!-- 右腕 -->
  <path d="M240,195 Q275,210 290,235 Q295,255 280,260 Q260,250 245,230 Q235,215 235,200" fill="#F08030" stroke="#2d263c" stroke-width="7" stroke-linejoin="round"/>
  <!-- 右爪 -->
  <path d="M290,257 Q305,268 308,280 Q295,272 285,265" fill="#F08030" stroke="#2d263c" stroke-width="5" stroke-linecap="round"/>
  <path d="M282,263 Q292,278 294,290 Q282,278 275,268" fill="#F08030" stroke="#2d263c" stroke-width="5" stroke-linecap="round"/>
  <!-- 腕の小さな副翼 右 -->
  <polygon points="265,205 300,175 275,160 245,195" fill="#E8A050" stroke="#2d263c" stroke-width="6" stroke-linejoin="round"/>

  <!-- 足 左 -->
  <path d="M148,305 Q135,330 130,350 Q140,345 148,335 Q155,345 158,355 Q162,340 158,325 Q155,310 152,308" fill="#F08030" stroke="#2d263c" stroke-width="7" stroke-linejoin="round"/>
  <!-- 足 右 -->
  <path d="M212,305 Q225,330 230,350 Q220,345 212,335 Q205,345 202,355 Q198,340 202,325 Q205,310 208,308" fill="#F08030" stroke="#2d263c" stroke-width="7" stroke-linejoin="round"/>

  <!-- 首 -->
  <path d="M155,160 Q165,140 180,135 Q195,140 205,160 Q200,175 180,178 Q160,175 155,160Z" fill="#F08030" stroke="#2d263c" stroke-width="7" stroke-linejoin="round"/>

  <!-- 頭部 -->
  <ellipse cx="180" cy="110" rx="52" ry="50" fill="#F08030" stroke="#2d263c" stroke-width="8"/>

  <!-- あご突起 -->
  <polygon points="168,148 180,168 192,148 185,155 180,165 175,155" fill="#F08030" stroke="#2d263c" stroke-width="5" stroke-linejoin="round"/>

  <!-- 頭後ろ 長い1本角 -->
  <polygon points="188,68 180,20 172,68 176,72 180,30 184,72" fill="#F08030" stroke="#2d263c" stroke-width="6" stroke-linejoin="round"/>
  <!-- 左小さい角 -->
  <polygon points="138,82 128,58 148,74" fill="#F08030" stroke="#2d263c" stroke-width="5" stroke-linejoin="round"/>
  <!-- 右小さい角 -->
  <polygon points="222,82 232,58 212,74" fill="#F08030" stroke="#2d263c" stroke-width="5" stroke-linejoin="round"/>

  <!-- 目 白目 左 -->
  <ellipse cx="160" cy="105" rx="14" ry="12" fill="white" stroke="#2d263c" stroke-width="4"/>
  <!-- 目 白目 右 -->
  <ellipse cx="200" cy="105" rx="14" ry="12" fill="white" stroke="#2d263c" stroke-width="4"/>
  <!-- 瞳 左 -->
  <ellipse cx="163" cy="107" rx="7" ry="8" fill="#40A030" stroke="#2d263c" stroke-width="2"/>
  <ellipse cx="165" cy="108" rx="3" ry="4" fill="#1a1a1a" stroke="none"/>
  <!-- 瞳 右 -->
  <ellipse cx="203" cy="107" rx="7" ry="8" fill="#40A030" stroke="#2d263c" stroke-width="2"/>
  <ellipse cx="205" cy="108" rx="3" ry="4" fill="#1a1a1a" stroke="none"/>
  <!-- 目の光 -->
  <circle cx="158" cy="104" r="2" fill="white"/>
  <circle cx="198" cy="104" r="2" fill="white"/>

  <!-- 眉 鋭く -->
  <path d="M148,94 Q160,88 172,93" fill="none" stroke="#2d263c" stroke-width="5" stroke-linecap="round"/>
  <path d="M188,93 Q200,88 212,94" fill="none" stroke="#2d263c" stroke-width="5" stroke-linecap="round"/>

  <!-- 鼻穴 -->
  <ellipse cx="174" cy="120" rx="4" ry="3" fill="#D06020" stroke="#2d263c" stroke-width="2"/>
  <ellipse cx="186" cy="120" rx="4" ry="3" fill="#D06020" stroke="#2d263c" stroke-width="2"/>

  <!-- 口 -->
  <path d="M162,132 Q180,143 198,132" fill="none" stroke="#2d263c" stroke-width="5" stroke-linecap="round"/>
  <!-- 歯 -->
  <polygon points="172,135 176,143 180,135" fill="white" stroke="#2d263c" stroke-width="2" stroke-linejoin="round"/>
  <polygon points="183,135 187,143 191,135" fill="white" stroke="#2d263c" stroke-width="2" stroke-linejoin="round"/>
</svg>