<svg xmlns="http://www.w3.org/2000/svg" viewBox="0 0 360 360">
<g id="mega-burst"><circle cx="180" cy="180" r="172" fill="#fff3c0"/><polygon points="180,180 450.0,180.0 444.8,232.7" fill="#ffd96b"/><polygon points="180,180 429.4,283.3 404.5,330.0" fill="#ffb13d"/><polygon points="180,180 370.9,370.9 330.0,404.5" fill="#ffd96b"/><polygon points="180,180 283.3,429.4 232.7,444.8" fill="#ffb13d"/><polygon points="180,180 180.0,450.0 127.3,444.8" fill="#ffd96b"/><polygon points="180,180 76.7,429.4 30.0,404.5" fill="#ffb13d"/><polygon points="180,180 -10.9,370.9 -44.5,330.0" fill="#ffd96b"/><polygon points="180,180 -69.4,283.3 -84.8,232.7" fill="#ffb13d"/><polygon points="180,180 -90.0,180.0 -84.8,127.3" fill="#ffd96b"/><polygon points="180,180 -69.4,76.7 -44.5,30.0" fill="#ffb13d"/><polygon points="180,180 -10.9,-10.9 30.0,-44.5" fill="#ffd96b"/><polygon points="180,180 76.7,-69.4 127.3,-84.8" fill="#ffb13d"/><polygon points="180,180 180.0,-90.0 232.7,-84.8" fill="#ffd96b"/><polygon points="180,180 283.3,-69.4 330.0,-44.5" fill="#ffb13d"/><polygon points="180,180 370.9,-10.9 404.5,30.0" fill="#ffd96b"/><polygon points="180,180 429.4,76.7 444.8,127.3" fill="#ffb13d"/><circle cx="180" cy="180" r="120" fill="#fff3c0" opacity="0.55"/></g>
  <!-- 背中の羽(後ろ) -->
  <ellipse cx="155" cy="130" rx="28" ry="50" fill="#d0d8e0" stroke="#2d263c" stroke-width="6" stroke-linejoin="round" transform="rotate(-30 155 130)"/>
  <ellipse cx="205" cy="130" rx="28" ry="50" fill="#c8d0d8" stroke="#2d263c" stroke-width="6" stroke-linejoin="round" transform="rotate(30 205 130)"/>
  <!-- 羽の縞 -->
  <line x1="148" y1="105" x2="135" y2="160" stroke="#a0aab0" stroke-width="2"/>
  <line x1="158" y1="100" x2="148" y2="158" stroke="#a0aab0" stroke-width="2"/>
  <line x1="212" y1="105" x2="225" y2="160" stroke="#a0aab0" stroke-width="2"/>
  <line x1="202" y1="100" x2="212" y2="158" stroke="#a0aab0" stroke-width="2"/>

  <!-- 左ハサミ(腕) 大きく -->
  <!-- 上腕 -->
  <path d="M135,195 C90,185 55,165 40,140" fill="none" stroke="#2d263c" stroke-width="8" stroke-linecap="round"/>
  <!-- 下腕 -->
  <path d="M135,200 C90,210 50,210 30,200" fill="none" stroke="#2d263c" stroke-width="8" stroke-linecap="round"/>
  <!-- ハサミ上パーツ -->
  <path d="M135,195 C90,182 52,158 35,132 L28,125 L22,150 L50,165 C70,178 98,188 130,200 Z" fill="#b02020" stroke="#2d263c" stroke-width="6" stroke-linejoin="round"/>
  <!-- ハサミ下パーツ -->
  <path d="M135,200 C95,212 55,215 30,205 L22,215 L35,235 L65,228 C90,222 115,212 132,205 Z" fill="#c83030" stroke="#2d263c" stroke-width="6" stroke-linejoin="round"/>
  <!-- 左ハサミのトゲ群(上) -->
  <polygon points="80,170 72,155 68,175" fill="#2d263c"/>
  <polygon points="58,158 48,145 46,162" fill="#2d263c"/>
  <polygon points="38,144 28,132 27,150" fill="#2d263c"/>
  <!-- 左ハサミのトゲ群(下) -->
  <polygon points="75,212 68,228 80,225" fill="#2d263c"/>
  <polygon points="52,213 44,228 56,226" fill="#2d263c"/>
  <!-- 左ハサミの目玉模様 -->
  <circle cx="85" cy="190" r="18" fill="white" stroke="#2d263c" stroke-width="3"/>
  <circle cx="85" cy="190" r="10" fill="#1a1a2e"/>
  <circle cx="80" cy="186" r="3" fill="white"/>

  <!-- 右ハサミ(腕) 大きく・左右非対称ぽく少しずらす -->
  <!-- 上腕 -->
  <path d="M225,190 C265,178 305,155 322,128" fill="none" stroke="#2d263c" stroke-width="8" stroke-linecap="round"/>
  <!-- 下腕 -->
  <path d="M225,196 C268,208 312,208 330,196" fill="none" stroke="#2d263c" stroke-width="8" stroke-linecap="round"/>
  <!-- ハサミ上パーツ -->
  <path d="M225,190 C268,176 308,152 325,126 L332,118 L338,144 L308,160 C285,172 258,184 228,196 Z" fill="#b02020" stroke="#2d263c" stroke-width="6" stroke-linejoin="round"/>
  <!-- ハサミ下パーツ -->
  <path d="M225,196 C264,208 308,212 332,200 L340,210 L327,232 L295,224 C270,218 245,208 228,200 Z" fill="#c83030" stroke="#2d263c" stroke-width="6" stroke-linejoin="round"/>
  <!-- 右ハサミのトゲ群(上) -->
  <polygon points="280,165 288,150 292,168" fill="#2d263c"/>
  <polygon points="304,152 315,140 316,157" fill="#2d263c"/>
  <polygon points="324,136 334,122 335,140" fill="#2d263c"/>
  <!-- 右ハサミのトゲ群(下) -->
  <polygon points="285,208 293,224 280,222" fill="#2d263c"/>
  <polygon points="310,210 318,226 306,224" fill="#2d263c"/>
  <!-- 右ハサミの目玉模様 -->
  <circle cx="272" cy="185" r="18" fill="white" stroke="#2d263c" stroke-width="3"/>
  <circle cx="272" cy="185" r="10" fill="#1a1a2e"/>
  <circle cx="267" cy="181" r="3" fill="white"/>

  <!-- 体(胸〜腹) -->
  <!-- 胸部 -->
  <path d="M148,155 C148,140 168,128 180,126 C192,128 212,140 212,155 L220,230 C220,245 202,262 180,264 C158,262 140,245 140,230 Z" fill="#c03028" stroke="#2d263c" stroke-width="7" stroke-linejoin="round"/>
  <!-- 胸の明るいパネル -->
  <path d="M160,158 C160,148 168,140 180,139 C192,140 200,148 200,158 L204,200 C204,210 193,218 180,218 C167,218 156,210 156,200 Z" fill="#d84040" stroke="#2d263c" stroke-width="3"/>
  <!-- 腹部縞模様(カマキリっぽく) -->
  <rect x="164" y="210" width="32" height="7" rx="2" fill="#2d263c" opacity="0.4"/>
  <rect x="162" y="222" width="36" height="7" rx="2" fill="#2d263c" opacity="0.4"/>
  <rect x="160" y="234" width="40" height="7" rx="2" fill="#2d263c" opacity="0.4"/>
  <!-- 腹部先端トゲ -->
  <polygon points="170,262 180,282 190,262" fill="#2d263c"/>

  <!-- 頭部 -->
  <ellipse cx="180" cy="118" rx="32" ry="28" fill="#c03028" stroke="#2d263c" stroke-width="7" stroke-linejoin="round"/>
  <!-- 頭頂の突起(メガ進化) -->
  <polygon points="168,94 180,68 192,94" fill="#c03028" stroke="#2d263c" stroke-width="6" stroke-linejoin="round"/>
  <polygon points="158,98 165,76 172,100" fill="#b02020" stroke="#2d263c" stroke-width="5" stroke-linejoin="round"/>
  <polygon points="188,100 195,77 202,99" fill="#b02020" stroke="#2d263c" stroke-width="5" stroke-linejoin="round"/>
  <!-- 複眼(左) -->
  <ellipse cx="162" cy="112" rx="12" ry="10" fill="#c8d0d0" stroke="#2d263c" stroke-width="4"/>
  <ellipse cx="162" cy="112" rx="7" ry="7" fill="#808a8a"/>
  <!-- 複眼(右) -->
  <ellipse cx="198" cy="112" rx="12" ry="10" fill="#c8d0d0" stroke="#2d263c" stroke-width="4"/>
  <ellipse cx="198" cy="112" rx="7" ry="7" fill="#808a8a"/>
  <!-- あごのトゲ -->
  <polygon points="172,140 180,155 188,140" fill="#2d263c"/>
  <polygon points="163,138 168,152 175,136" fill="#2d263c"/>
  <polygon points="185,136 192,150 197,136" fill="#2d263c"/>

  <!-- 脚(左) -->
  <path d="M158,258 C148,268 138,278 128,295" stroke="#2d263c" stroke-width="8" stroke-linecap="round" fill="none"/>
  <path d="M168,258 C160,272 155,285 148,305" stroke="#2d263c" stroke-width="7" stroke-linecap="round" fill="none"/>
  <!-- 左足先トゲ -->
  <polygon points="122,292 128,308 135,293" fill="#2d263c"/>
  <polygon points="140,302 148,318 155,302" fill="#2d263c"/>

  <!-- 脚(右) -->
  <path d="M202,258 C212,268 222,278 232,295" stroke="#2d263c" stroke-width="8" stroke-linecap="round" fill="none"/>
  <path d="M192,258 C200,272 205,285 212,305" stroke="#2d263c" stroke-width="7" stroke-linecap="round" fill="none"/>
  <!-- 右足先トゲ -->
  <polygon points="238,292 232,308 225,293" fill="#2d263c"/>
  <polygon points="220,302 212,318 205,302" fill="#2d263c"/>

  <!-- 関節の黒丸 -->
  <circle cx="132" cy="196" r="9" fill="#2d263c"/>
  <circle cx="228" cy="192" r="9" fill="#2d263c"/>
</svg>