<svg xmlns="http://www.w3.org/2000/svg" viewBox="0 0 360 360">
  <g stroke="#2d263c" stroke-width="7" stroke-linejoin="round" stroke-linecap="round">
    <path d="M128 112 L84 38 L152 88 Z" fill="#7d63ab"/>
    <path d="M230 108 L284 50 L212 86 Z" fill="#7d63ab"/>
    <path d="M118 130 C112 88 150 64 182 66 C220 64 250 92 243 132 C238 162 212 180 179 180 C146 182 122 158 118 130 Z" fill="#7d63ab"/>
    <path d="M140 170 L222 170 C234 190 234 212 228 224 L132 226 C126 206 130 188 140 170 Z" fill="#7d63ab"/>
    <path d="M154 98 L176 121 L154 142 L133 120 Z" fill="#ff8fa6"/>
    <path d="M211 96 L230 117 L209 139 L191 116 Z" fill="#ff8fa6"/>
    <path d="M150 110 L158 117 L150 124 L143 117 Z" fill="#ffe3e9" stroke="none"/>
    <path d="M207 107 L214 114 L207 121 L200 114 Z" fill="#ffe3e9" stroke="none"/>
    <path d="M134 151 Q181 142 229 148 L220 162 L209 151 L198 164 L186 152 L175 165 L163 152 L152 163 L141 152 Z" fill="#ffffff"/>
    <path d="M181 70 L191 82 L181 94 L171 82 Z" fill="#ee4060" stroke-width="5"/>
    <path d="M243 106 L251 115 L243 124 L235 115 Z" fill="#8fd9ec" stroke-width="5"/>
    <path d="M124 96 L131 104 L124 112 L117 104 Z" fill="#8fd9ec" stroke-width="5"/>
    <path d="M96 208 L264 206 L304 250 L181 338 L56 252 Z" fill="#e83d55"/>
    <path d="M134 212 L226 211 L256 248 L180 318 L104 250 Z" fill="#f9697d" stroke-width="5"/>
    <path d="M150 224 L196 221 L172 254 Z" fill="#ffaab6" stroke="none"/>
    <path d="M120 160 C100 166 88 182 92 202 L134 208 C132 190 132 172 138 164 Z" fill="#7d63ab"/>
    <path d="M96 206 L101 230 L109 207 Z M111 207 L117 232 L125 208 Z M127 208 L134 228 L140 207 Z" fill="#e8e0f4" stroke-width="5"/>
    <path d="M240 158 C262 166 272 182 268 200 L228 208 C229 190 230 172 224 162 Z" fill="#7d63ab"/>
    <path d="M232 207 L237 231 L245 207 Z M247 206 L253 229 L261 205 Z M263 204 L268 224 L273 203 Z" fill="#e8e0f4" stroke-width="5"/>
  </g>
</svg>