<svg xmlns="http://www.w3.org/2000/svg" viewBox="0 0 360 360">
  <!-- 長い耳(後ろ) -->
  <path d="M130 190 Q90 130 85 60 Q88 30 105 25 Q122 22 128 55 Q135 100 145 170" fill="#c8864a" stroke="#2d263c" stroke-width="7" stroke-linejoin="round" stroke-linecap="round"/>
  <path d="M230 190 Q270 130 275 60 Q272 30 255 25 Q238 22 232 55 Q225 100 215 170" fill="#c8864a" stroke="#2d263c" stroke-width="7" stroke-linejoin="round" stroke-linecap="round"/>
  <!-- 耳の内側ピンク(後ろ) -->
  <path d="M127 185 Q97 135 93 68 Q96 44 107 40 Q116 38 120 65 Q126 108 138 172" fill="#f0a0b0" stroke="none"/>
  <path d="M233 185 Q263 135 267 68 Q264 44 253 40 Q244 38 240 65 Q234 108 222 172" fill="#f0a0b0" stroke="none"/>

  <!-- 耳根元ボンボン毛(左) -->
  <ellipse cx="135" cy="190" rx="22" ry="18" fill="#8b4e1a" stroke="#2d263c" stroke-width="6" stroke-linejoin="round"/>
  <!-- 耳根元ボンボン毛(右) -->
  <ellipse cx="225" cy="190" rx="22" ry="18" fill="#8b4e1a" stroke="#2d263c" stroke-width="6" stroke-linejoin="round"/>

  <!-- 体 -->
  <ellipse cx="180" cy="245" rx="65" ry="70" fill="#f5e0c0" stroke="#2d263c" stroke-width="8" stroke-linejoin="round"/>

  <!-- 胸のふわふわ茶色毛 -->
  <path d="M148 215 Q152 205 165 210 Q175 200 185 207 Q196 198 208 205 Q220 210 214 222 Q205 230 190 228 Q175 232 162 228 Q150 225 148 215Z" fill="#c8864a" stroke="#2d263c" stroke-width="5" stroke-linejoin="round"/>

  <!-- 腹のクリーム色 -->
  <ellipse cx="180" cy="252" rx="42" ry="48" fill="#fff0d8" stroke="none"/>

  <!-- 頭 -->
  <ellipse cx="180" cy="178" rx="52" ry="48" fill="#f5e0c0" stroke="#2d263c" stroke-width="8" stroke-linejoin="round"/>

  <!-- ほっぺ(左) -->
  <ellipse cx="148" cy="186" rx="13" ry="9" fill="#f0a0b0" stroke="#2d263c" stroke-width="3"/>
  <!-- ほっぺ(右) -->
  <ellipse cx="212" cy="186" rx="13" ry="9" fill="#f0a0b0" stroke="#2d263c" stroke-width="3"/>

  <!-- 目(メガ進化=つり目 左) -->
  <path d="M155 172 Q163 166 171 172" fill="none" stroke="#2d263c" stroke-width="5" stroke-linecap="round"/>
  <ellipse cx="163" cy="175" rx="7" ry="6" fill="#2d263c"/>
  <ellipse cx="161" cy="173" rx="2.5" ry="2" fill="white"/>
  <!-- 目(右) -->
  <path d="M189 172 Q197 166 205 172" fill="none" stroke="#2d263c" stroke-width="5" stroke-linecap="round"/>
  <ellipse cx="197" cy="175" rx="7" ry="6" fill="#2d263c"/>
  <ellipse cx="195" cy="173" rx="2.5" ry="2" fill="white"/>

  <!-- 鼻 -->
  <ellipse cx="180" cy="185" rx="4" ry="3" fill="#2d263c"/>

  <!-- 口(キリっとした表情) -->
  <path d="M172 192 Q180 198 188 192" fill="none" stroke="#2d263c" stroke-width="4" stroke-linecap="round"/>

  <!-- 腕(左)にファー巻き付き -->
  <path d="M118 240 Q95 255 88 278 Q92 298 108 295 Q122 292 128 270 Q132 252 140 240" fill="#f5e0c0" stroke="#2d263c" stroke-width="7" stroke-linejoin="round" stroke-linecap="round"/>
  <!-- 腕ファー(左) -->
  <path d="M105 250 Q92 258 88 274 Q86 288 97 290 Q110 292 116 272 Q122 258 128 248Z" fill="#c8864a" stroke="#2d263c" stroke-width="5" stroke-linejoin="round"/>

  <!-- 腕(右)にファー巻き付き -->
  <path d="M242 240 Q265 255 272 278 Q268 298 252 295 Q238 292 232 270 Q228 252 220 240" fill="#f5e0c0" stroke="#2d263c" stroke-width="7" stroke-linejoin="round" stroke-linecap="round"/>
  <!-- 腕ファー(右) -->
  <path d="M255 250 Q268 258 272 274 Q274 288 263 290 Q250 292 244 272 Q238 258 232 248Z" fill="#c8864a" stroke="#2d263c" stroke-width="5" stroke-linejoin="round"/>

  <!-- 足(左) -->
  <path d="M150 308 Q138 320 132 335 Q136 348 152 346 Q162 344 165 330 Q168 315 165 308Z" fill="#c8864a" stroke="#2d263c" stroke-width="7" stroke-linejoin="round"/>
  <!-- 足(右) -->
  <path d="M210 308 Q222 320 228 335 Q224 348 208 346 Q198 344 195 330 Q192 315 195 308Z" fill="#c8864a" stroke="#2d263c" stroke-width="7" stroke-linejoin="round"/>

  <!-- 胴から足へのつなぎ -->
  <path d="M148 300 Q140 310 140 330" fill="none" stroke="#2d263c" stroke-width="7" stroke-linecap="round"/>
  <path d="M212 300 Q220 310 220 330" fill="none" stroke="#2d263c" stroke-width="7" stroke-linecap="round"/>

  <!-- しっぽ(綿毛ボール) -->
  <circle cx="180" cy="316" r="20" fill="#fff0d8" stroke="#2d263c" stroke-width="6"/>
  <circle cx="168" cy="310" r="10" fill="#fff0d8" stroke="#2d263c" stroke-width="4"/>
  <circle cx="192" cy="310" r="10" fill="#fff0d8" stroke="#2d263c" stroke-width="4"/>
</svg>