<svg xmlns="http://www.w3.org/2000/svg" viewBox="0 0 360 360">
  <!-- しっぽの青い羽根(うしろ) -->
  <path d="M 290 250 Q 345 233 336 263 Q 310 272 286 266 Z" fill="#6FB1DC" stroke="#2d263c" stroke-width="6" stroke-linejoin="round" stroke-linecap="round"/>
  <path d="M 292 278 Q 342 282 328 306 Q 303 302 286 290 Z" fill="#6FB1DC" stroke="#2d263c" stroke-width="6" stroke-linejoin="round" stroke-linecap="round"/>
  <!-- あし(雲の下からちょこっと) -->
  <ellipse cx="148" cy="328" rx="17" ry="10" fill="#8fa6c0" stroke="#2d263c" stroke-width="6"/>
  <ellipse cx="214" cy="330" rx="17" ry="10" fill="#8fa6c0" stroke="#2d263c" stroke-width="6"/>
  <!-- もこもこ雲ドレス(体) -->
  <path d="M 70 250 Q 50 215 85 205 Q 80 170 120 175 Q 130 145 170 165 Q 205 140 235 170 Q 275 160 275 195 Q 315 195 300 235 Q 330 265 295 285 Q 300 320 255 312 Q 245 340 205 325 Q 175 348 145 322 Q 105 338 100 300 Q 60 295 70 250 Z" fill="#FFFFFF" stroke="#2d263c" stroke-width="7" stroke-linejoin="round" stroke-linecap="round"/>
  <!-- アンテナ羽根(くるんと2本・左右ふぞろい) -->
  <path d="M 158 88 C 145 55 120 38 105 50 C 96 57 104 70 116 64" fill="none" stroke="#2d263c" stroke-width="7" stroke-linejoin="round" stroke-linecap="round"/>
  <path d="M 202 88 C 218 48 248 34 262 50 C 270 59 258 72 246 64" fill="none" stroke="#2d263c" stroke-width="7" stroke-linejoin="round" stroke-linecap="round"/>
  <!-- 頭(空色) -->
  <circle cx="180" cy="125" r="48" fill="#7EC4EA" stroke="#2d263c" stroke-width="7"/>
  <!-- 頭の雲ぼうし -->
  <path d="M 132 92 Q 110 88 118 65 Q 112 40 145 45 Q 150 20 182 32 Q 210 15 222 42 Q 252 40 244 66 Q 256 88 230 92 Q 180 106 132 92 Z" fill="#FFFFFF" stroke="#2d263c" stroke-width="7" stroke-linejoin="round" stroke-linecap="round"/>
  <!-- ふわふわ白ほっぺ -->
  <path d="M 134 128 Q 120 120 126 136 Q 118 144 132 146 Q 138 152 144 142 Q 152 138 144 132 Z" fill="#FFFFFF" stroke="#2d263c" stroke-width="6" stroke-linejoin="round" stroke-linecap="round"/>
  <path d="M 226 130 Q 242 122 236 138 Q 246 146 230 148 Q 224 154 218 144 Q 210 140 218 134 Z" fill="#FFFFFF" stroke="#2d263c" stroke-width="6" stroke-linejoin="round" stroke-linecap="round"/>
  <!-- 目 -->
  <circle cx="162" cy="117" r="8" fill="#2d263c"/>
  <circle cx="200" cy="115" r="9" fill="#2d263c"/>
  <circle cx="164.5" cy="114.5" r="2.5" fill="#FFFFFF"/>
  <circle cx="203" cy="112" r="3" fill="#FFFFFF"/>
  <!-- くちばし -->
  <path d="M 171 132 L 190 132 L 181 146 Z" fill="#c3cad2" stroke="#2d263c" stroke-width="6" stroke-linejoin="round" stroke-linecap="round"/>
  <!-- にっこり -->
  <path d="M 167 153 Q 180 161 194 152" fill="none" stroke="#2d263c" stroke-width="6" stroke-linecap="round"/>
</svg>