<svg xmlns="http://www.w3.org/2000/svg" viewBox="0 0 360 360">
<g id="mega-burst"><circle cx="180" cy="180" r="172" fill="#fff3c0"/><polygon points="180,180 450.0,180.0 444.8,232.7" fill="#ffd96b"/><polygon points="180,180 429.4,283.3 404.5,330.0" fill="#ffb13d"/><polygon points="180,180 370.9,370.9 330.0,404.5" fill="#ffd96b"/><polygon points="180,180 283.3,429.4 232.7,444.8" fill="#ffb13d"/><polygon points="180,180 180.0,450.0 127.3,444.8" fill="#ffd96b"/><polygon points="180,180 76.7,429.4 30.0,404.5" fill="#ffb13d"/><polygon points="180,180 -10.9,370.9 -44.5,330.0" fill="#ffd96b"/><polygon points="180,180 -69.4,283.3 -84.8,232.7" fill="#ffb13d"/><polygon points="180,180 -90.0,180.0 -84.8,127.3" fill="#ffd96b"/><polygon points="180,180 -69.4,76.7 -44.5,30.0" fill="#ffb13d"/><polygon points="180,180 -10.9,-10.9 30.0,-44.5" fill="#ffd96b"/><polygon points="180,180 76.7,-69.4 127.3,-84.8" fill="#ffb13d"/><polygon points="180,180 180.0,-90.0 232.7,-84.8" fill="#ffd96b"/><polygon points="180,180 283.3,-69.4 330.0,-44.5" fill="#ffb13d"/><polygon points="180,180 370.9,-10.9 404.5,30.0" fill="#ffd96b"/><polygon points="180,180 429.4,76.7 444.8,127.3" fill="#ffb13d"/><circle cx="180" cy="180" r="120" fill="#fff3c0" opacity="0.55"/></g>
  <!-- 翼(後ろ・左右) -->
  <!-- 右翼(画面左) -->
  <path d="M 155 110 L 30 40 L 20 120 L 55 160 L 90 140 Z" fill="#1a3a7a" stroke="#2d263c" stroke-width="7" stroke-linejoin="round" stroke-linecap="round"/>
  <path d="M 155 110 L 30 40 L 20 120 L 55 160 L 90 140 Z" fill="none" stroke="#0d1f4a" stroke-width="3"/>
  <!-- 右翼の外側(黒) -->
  <path d="M 155 100 L 18 30 L 8 115 L 50 165 L 95 145 L 155 120 Z" fill="#1a1a1a" stroke="#2d263c" stroke-width="7" stroke-linejoin="round" stroke-linecap="round"/>
  <!-- 翼の青い内膜 -->
  <path d="M 155 112 L 35 55 L 28 118 L 60 155 L 92 140 Z" fill="#1a3a8a" stroke="none"/>

  <!-- 左翼(画面右) -->
  <path d="M 210 110 L 340 35 L 348 118 L 310 162 L 272 142 Z" fill="#1a1a1a" stroke="#2d263c" stroke-width="7" stroke-linejoin="round" stroke-linecap="round"/>
  <!-- 左翼の青い内膜 -->
  <path d="M 210 112 L 328 58 L 335 120 L 302 157 L 270 140 Z" fill="#1a3a8a" stroke="none"/>

  <!-- 尻尾 -->
  <path d="M 215 270 Q 290 300 320 290 Q 340 280 330 260 Q 320 240 295 255 Q 270 265 255 250 Q 240 235 230 245 Z" fill="#1a1a1a" stroke="#2d263c" stroke-width="7" stroke-linejoin="round"/>
  <!-- 尻尾の炎(青) -->
  <ellipse cx="333" cy="252" rx="18" ry="26" fill="#0088ff" transform="rotate(-20 333 252)" opacity="0.9"/>
  <ellipse cx="338" cy="248" rx="10" ry="18" fill="#66ccff" transform="rotate(-15 338 248)" opacity="0.8"/>
  <path d="M 320 242 Q 340 225 348 238 Q 355 225 345 255 Q 335 240 320 255 Z" fill="#00aaff" opacity="0.85"/>

  <!-- 胴体(大きく・黒) -->
  <path d="M 130 145 Q 100 155 95 200 Q 90 240 110 270 Q 130 295 180 300 Q 225 305 250 280 Q 272 258 268 215 Q 265 175 240 155 Q 215 138 180 135 Q 155 133 130 145 Z" fill="#1a1a1a" stroke="#2d263c" stroke-width="8" stroke-linejoin="round"/>

  <!-- 腹(青みがかった黒) -->
  <path d="M 145 178 Q 132 200 135 228 Q 138 255 155 268 Q 170 278 185 278 Q 205 278 218 265 Q 232 250 230 225 Q 228 198 215 180 Q 202 165 182 163 Q 162 161 145 178 Z" fill="#1e2d4a" stroke="#2d263c" stroke-width="5" stroke-linejoin="round"/>
  <!-- 腹の模様線 -->
  <path d="M 148 195 Q 182 190 215 198" fill="none" stroke="#162240" stroke-width="3" stroke-linecap="round"/>
  <path d="M 143 215 Q 182 210 220 218" fill="none" stroke="#162240" stroke-width="3" stroke-linecap="round"/>
  <path d="M 148 235 Q 182 230 215 238" fill="none" stroke="#162240" stroke-width="3" stroke-linecap="round"/>

  <!-- 腕(左・画面右) -->
  <path d="M 238 185 Q 268 195 285 215 Q 295 228 288 240 Q 278 252 265 245 Q 252 238 248 225 Q 242 210 238 200 Z" fill="#1a1a1a" stroke="#2d263c" stroke-width="7" stroke-linejoin="round"/>
  <!-- 爪(左) -->
  <path d="M 280 240 L 292 258 L 275 252 Z" fill="#2a2a2a" stroke="#2d263c" stroke-width="5"/>
  <path d="M 270 248 L 278 268 L 263 258 Z" fill="#2a2a2a" stroke="#2d263c" stroke-width="5"/>
  <path d="M 255 250 L 260 272 L 245 262 Z" fill="#2a2a2a" stroke="#2d263c" stroke-width="5"/>

  <!-- 腕(右・画面左) -->
  <path d="M 122 185 Q 90 195 75 215 Q 65 228 72 242 Q 82 254 95 246 Q 108 238 112 225 Q 118 210 122 200 Z" fill="#1a1a1a" stroke="#2d263c" stroke-width="7" stroke-linejoin="round"/>
  <!-- 爪(右) -->
  <path d="M 80 242 L 68 260 L 85 253 Z" fill="#2a2a2a" stroke="#2d263c" stroke-width="5"/>
  <path d="M 90 250 L 82 270 L 97 260 Z" fill="#2a2a2a" stroke="#2d263c" stroke-width="5"/>
  <path d="M 103 252 L 100 274 L 115 263 Z" fill="#2a2a2a" stroke="#2d263c" stroke-width="5"/>

  <!-- 足(左右) -->
  <path d="M 205 285 Q 215 305 210 325 Q 208 338 198 340 Q 188 342 185 330 Q 182 318 188 300 Z" fill="#1a1a1a" stroke="#2d263c" stroke-width="7" stroke-linejoin="round"/>
  <path d="M 155 285 Q 145 305 150 325 Q 152 338 162 340 Q 172 342 175 330 Q 178 318 172 300 Z" fill="#1a1a1a" stroke="#2d263c" stroke-width="7" stroke-linejoin="round"/>
  <!-- 足の爪 -->
  <path d="M 180 338 L 175 355 L 188 348 Z" fill="#2a2a2a" stroke="#2d263c" stroke-width="5"/>
  <path d="M 197 338 L 195 355 L 208 345 Z" fill="#2a2a2a" stroke="#2d263c" stroke-width="5"/>
  <path d="M 163 338 L 160 355 L 148 345 Z" fill="#2a2a2a" stroke="#2d263c" stroke-width="5"/>

  <!-- 首 -->
  <path d="M 150 145 Q 148 118 160 108 Q 172 98 182 97 Q 194 97 202 108 Q 212 120 210 145 Z" fill="#1a1a1a" stroke="#2d263c" stroke-width="7" stroke-linejoin="round"/>

  <!-- 頭 -->
  <path d="M 148 108 Q 142 82 155 65 Q 165 50 183 48 Q 202 47 215 62 Q 228 78 222 108 Q 215 128 183 132 Q 152 132 148 108 Z" fill="#1a1a1a" stroke="#2d263c" stroke-width="8" stroke-linejoin="round"/>

  <!-- メガ進化の角(後ろ向き・大) -->
  <!-- 左角 -->
  <path d="M 158 70 L 128 42 L 122 65 L 148 80 Z" fill="#1a1a1a" stroke="#2d263c" stroke-width="7" stroke-linejoin="round"/>
  <!-- 右角 -->
  <path d="M 208 70 L 238 42 L 244 65 L 218 80 Z" fill="#1a1a1a" stroke="#2d263c" stroke-width="7" stroke-linejoin="round"/>
  <!-- 頭頂部の小さい突起 -->
  <path d="M 175 52 L 168 28 L 183 22 L 195 30 L 190 52 Z" fill="#1a1a1a" stroke="#2d263c" stroke-width="6" stroke-linejoin="round"/>

  <!-- 目(赤・鋭い) -->
  <!-- 右目(画面左) -->
  <ellipse cx="163" cy="88" rx="13" ry="11" fill="#cc0000"/>
  <ellipse cx="163" cy="88" rx="8" ry="8" fill="#880000"/>
  <ellipse cx="165" cy="86" rx="4" ry="4" fill="#ff2222"/>
  <!-- 右目のまぶた(吊り上がり) -->
  <path d="M 150 80 L 176 82 L 170 90" fill="none" stroke="#2d263c" stroke-width="4" stroke-linecap="round"/>

  <!-- 左目(画面右) -->
  <ellipse cx="202" cy="88" rx="13" ry="11" fill="#cc0000"/>
  <ellipse cx="202" cy="88" rx="8" ry="8" fill="#880000"/>
  <ellipse cx="204" cy="86" rx="4" ry="4" fill="#ff2222"/>
  <!-- 左目のまぶた(吊り上がり) -->
  <path d="M 215 80 L 189 82 L 194 90" fill="none" stroke="#2d263c" stroke-width="4" stroke-linecap="round"/>

  <!-- 鼻孔 -->
  <ellipse cx="175" cy="100" rx="4" ry="3" fill="#0d0d0d" stroke="#2d263c" stroke-width="2"/>
  <ellipse cx="190" cy="100" rx="4" ry="3" fill="#0d0d0d" stroke="#2d263c" stroke-width="2"/>

  <!-- 口(開いた・牙) -->
  <path d="M 158 112 Q 165 122 183 124 Q 200 123 207 112 Q 205 130 183 132 Q 160 131 158 112 Z" fill="#cc2222" stroke="#2d263c" stroke-width="5" stroke-linejoin="round"/>
  <!-- 牙(上) -->
  <path d="M 165 118 L 160 132 L 172 125 Z" fill="#f0f0f0" stroke="#2d263c" stroke-width="3"/>
  <path d="M 200 118 L 205 132 L 194 125 Z" fill="#f0f0f0" stroke="#2d263c" stroke-width="3"/>
  <!-- 下顎の突起 -->
  <path d="M 165 130 L 158 148 L 170 140 Z" fill="#1a1a1a" stroke="#2d263c" stroke-width="5"/>
  <path d="M 200 130 L 207 148 L 196 140 Z" fill="#1a1a1a" stroke="#2d263c" stroke-width="5"/>

  <!-- 口の両脇から青い炎(左・画面右) -->
  <path d="M 208 122 Q 228 108 240 95 Q 248 85 242 112 Q 255 98 260 118 Q 248 120 238 130 Q 225 138 210 135 Z" fill="#0088ff" opacity="0.92"/>
  <path d="M 212 118 Q 232 100 248 88 Q 254 100 244 118 Q 236 126 215 130 Z" fill="#55ccff" opacity="0.75"/>
  <path d="M 216 120 Q 238 105 250 96 Q 250 110 238 120 Z" fill="#aaeeff" opacity="0.6"/>

  <!-- 口の両脇から青い炎(右・画面左) -->
  <path d="M 155 122 Q 135 108 122 95 Q 114 85 120 112 Q 107 98 102 118 Q 114 120 124 130 Q 137 138 152 135 Z" fill="#0088ff" opacity="0.92"/>
  <path d="M 150 118 Q 130 100 114 88 Q 108 100 118 118 Q 126 126 148 130 Z" fill="#55ccff" opacity="0.75"/>
  <path d="M 146 120 Q 124 105 112 96 Q 112 110 124 120 Z" fill="#aaeeff" opacity="0.6"/>

  <!-- 眉(鋭く) -->
  <path d="M 150 78 L 174 84" stroke="#2d263c" stroke-width="5" stroke-linecap="round" fill="none"/>
  <path d="M 215 78 L 191 84" stroke="#2d263c" stroke-width="5" stroke-linecap="round" fill="none"/>
</svg>