<svg xmlns="http://www.w3.org/2000/svg" viewBox="0 0 360 360"><g stroke="#2d263c" stroke-width="7" stroke-linejoin="round" stroke-linecap="round"><path d="M230 190 L312 58 L332 92 L260 206 Z" fill="#dde5ea"/><path d="M246 186 L310 84 L320 102 L258 196 Z" fill="#cf3a45" stroke-width="6"/><path d="M138 195 L40 58 L28 104 L116 216 Z" fill="#dde5ea"/><path d="M132 196 L52 86 L46 108 L118 208 Z" fill="#cf3a45" stroke-width="6"/><path d="M232 228 L330 224 L244 248 Z" fill="#dde5ea" stroke-width="6"/><path d="M230 242 L322 276 L238 262 Z" fill="#cf3a45" stroke-width="6"/><path d="M226 254 L292 320 L224 276 Z" fill="#dde5ea" stroke-width="6"/><path d="M158 70 L196 24 L176 82 Z" fill="#dde5ea" stroke-width="6"/><path d="M162 78 L232 40 L186 96 Z" fill="#dde5ea" stroke-width="6"/><path d="M170 92 L220 62 L186 100 Z" fill="#cf3a45" stroke-width="6"/><path d="M150 258 L166 258 L160 316 L150 316 Z" fill="#cf3a45" stroke-width="6"/><path d="M155 316 L138 332 M156 316 L154 336 M157 316 L172 330" fill="none" stroke-width="6"/><path d="M196 256 L212 256 L210 320 L198 320 Z" fill="#cf3a45" stroke-width="6"/><path d="M203 320 L188 334 M204 320 L204 338 M205 320 L220 334" fill="none" stroke-width="6"/><path d="M180 168 C140 170 118 200 122 235 C126 268 150 282 182 280 C216 278 240 256 238 222 C236 192 216 166 180 168 Z" fill="#c8d2da"/><path d="M138 232 C158 256 204 258 226 234" fill="none" stroke-width="6"/><circle cx="160" cy="218" r="4" fill="none" stroke-width="4"/><circle cx="198" cy="224" r="4" fill="none" stroke-width="4"/><path d="M156 196 C146 168 140 142 142 112 L172 108 C172 140 180 164 192 190 Z" fill="#c8d2da"/><path d="M148 150 C158 146 168 145 176 148" fill="none" stroke-width="5"/><path d="M145 130 C155 126 165 125 173 128" fill="none" stroke-width="5"/><path d="M130 80 L58 94 L132 100 Z" fill="#b6c2cc"/><path d="M130 104 L84 116 L134 114 Z" fill="#b6c2cc"/><circle cx="150" cy="92" r="26" fill="#c8d2da"/><path d="M132 72 C140 67 154 67 160 72" fill="none" stroke-width="5"/><circle cx="144" cy="90" r="9" fill="#f6d33c" stroke-width="5"/><circle cx="141" cy="91" r="3.5" fill="#2d263c" stroke="none"/></g></svg>