<svg xmlns="http://www.w3.org/2000/svg" viewBox="0 0 360 360">
  <g stroke="#2d263c" stroke-width="7" stroke-linejoin="round" stroke-linecap="round">
    <path d="M144 64 L152 22 L168 50 L184 20 L198 50 L218 24 L224 62 Z" fill="#8e5bc4"/>
    <path d="M122 76 L92 54 L104 76 L70 66 L96 88 L74 92 L110 98 Z" fill="#f6d44a"/>
    <path d="M226 286 L262 296 L244 308 L278 322 L238 320 L252 336 L218 308 Z" fill="#f6d44a"/>
    <path d="M122 160 C100 162 82 172 72 186 L30 192 L66 202 L26 224 L68 214 L46 250 L80 224 C92 226 104 212 112 192 Z" fill="#6a6172"/>
    <path d="M240 146 C262 140 280 128 290 112 L314 66 L304 110 L336 86 L312 124 L336 134 L306 134 C296 148 276 156 254 158 Z" fill="#6a6172"/>
    <circle cx="30" cy="192" r="8" fill="#b14ccc"/>
    <circle cx="26" cy="224" r="8" fill="#b14ccc"/>
    <circle cx="46" cy="250" r="8" fill="#b14ccc"/>
    <circle cx="314" cy="68" r="8" fill="#b14ccc"/>
    <circle cx="336" cy="88" r="8" fill="#b14ccc"/>
    <circle cx="334" cy="132" r="8" fill="#b14ccc"/>
    <path d="M116 80 L132 56 L148 78 L166 48 L184 78 L204 52 L220 80 L238 64 L246 90 C260 118 258 156 248 184 C242 228 232 262 216 290 L200 314 L188 288 L174 312 L156 286 C138 256 126 222 120 188 C106 152 104 112 116 80 Z" fill="#6a6172"/>
    <path d="M142 226 C136 246 139 262 150 272 C156 258 154 238 151 224 Z" fill="#8e5bc4"/>
    <path d="M178 246 L170 276 M171 254 L182 257 M168 263 L179 266" fill="none"/>
    <path d="M134 200 C146 218 164 226 184 222 L186 204 C166 208 150 206 142 196 Z" fill="#8e5bc4"/>
    <path d="M186 213 C204 212 218 208 232 200" fill="none"/>
    <path d="M196 206 L198 219 M210 202 L213 215 M223 197 L226 210" fill="none" stroke-width="5"/>
    <circle cx="238" cy="198" r="7" fill="#f6d44a"/>
    <path d="M138 148 L170 136 L162 160 Z" fill="#f25aa3"/>
    <path d="M200 134 L234 142 L210 158 Z" fill="#f25aa3"/>
    <path d="M150 104 L164 100 M155 95 L159 109" fill="none" stroke-width="4"/>
  </g>
</svg>