<svg xmlns="http://www.w3.org/2000/svg" viewBox="0 0 360 360">
<g id="mega-burst"><circle cx="180" cy="180" r="172" fill="#fff3c0"/><polygon points="180,180 450.0,180.0 444.8,232.7" fill="#ffd96b"/><polygon points="180,180 429.4,283.3 404.5,330.0" fill="#ffb13d"/><polygon points="180,180 370.9,370.9 330.0,404.5" fill="#ffd96b"/><polygon points="180,180 283.3,429.4 232.7,444.8" fill="#ffb13d"/><polygon points="180,180 180.0,450.0 127.3,444.8" fill="#ffd96b"/><polygon points="180,180 76.7,429.4 30.0,404.5" fill="#ffb13d"/><polygon points="180,180 -10.9,370.9 -44.5,330.0" fill="#ffd96b"/><polygon points="180,180 -69.4,283.3 -84.8,232.7" fill="#ffb13d"/><polygon points="180,180 -90.0,180.0 -84.8,127.3" fill="#ffd96b"/><polygon points="180,180 -69.4,76.7 -44.5,30.0" fill="#ffb13d"/><polygon points="180,180 -10.9,-10.9 30.0,-44.5" fill="#ffd96b"/><polygon points="180,180 76.7,-69.4 127.3,-84.8" fill="#ffb13d"/><polygon points="180,180 180.0,-90.0 232.7,-84.8" fill="#ffd96b"/><polygon points="180,180 283.3,-69.4 330.0,-44.5" fill="#ffb13d"/><polygon points="180,180 370.9,-10.9 404.5,30.0" fill="#ffd96b"/><polygon points="180,180 429.4,76.7 444.8,127.3" fill="#ffb13d"/><circle cx="180" cy="180" r="120" fill="#fff3c0" opacity="0.55"/></g>

  <!-- 後ろ翅 (背面・下層) -->
  <polygon points="170,155 95,95 80,175 155,190" fill="#c8e8ff" stroke="#2d263c" stroke-width="6" stroke-linejoin="round" opacity="0.82"/>
  <polygon points="195,160 265,80 295,165 210,185" fill="#c8e8ff" stroke="#2d263c" stroke-width="6" stroke-linejoin="round" opacity="0.82"/>

  <!-- 前翅 (前面・大きい) -->
  <polygon points="165,148 72,58 60,148 152,172" fill="#dff2ff" stroke="#2d263c" stroke-width="7" stroke-linejoin="round" opacity="0.9"/>
  <polygon points="198,148 290,52 310,145 215,172" fill="#dff2ff" stroke="#2d263c" stroke-width="7" stroke-linejoin="round" opacity="0.9"/>

  <!-- 翅の筋 -->
  <line x1="165" y1="148" x2="90" y2="75" stroke="#2d263c" stroke-width="3" stroke-linecap="round"/>
  <line x1="198" y1="148" x2="272" y2="68" stroke="#2d263c" stroke-width="3" stroke-linecap="round"/>

  <!-- 腹部(胴体・縞あり) -->
  <!-- メイン胴体: 細長い楕円 -->
  <ellipse cx="182" cy="225" rx="28" ry="80" fill="#f5d820" stroke="#2d263c" stroke-width="8" stroke-linejoin="round"/>

  <!-- 黒縞1 -->
  <rect x="155" y="205" width="55" height="16" rx="7" fill="#1a1a1a" stroke="none"/>
  <!-- 黒縞2 -->
  <rect x="156" y="233" width="54" height="15" rx="7" fill="#1a1a1a" stroke="none"/>
  <!-- 黒縞3 -->
  <rect x="157" y="260" width="52" height="14" rx="7" fill="#1a1a1a" stroke="none"/>

  <!-- 胴体アウトライン再描き(縞を胴体内に収める) -->
  <ellipse cx="182" cy="225" rx="28" ry="80" fill="none" stroke="#2d263c" stroke-width="8"/>

  <!-- 尾の槍 -->
  <!-- 槍シャフト -->
  <rect x="175" y="296" width="16" height="30" rx="5" fill="#f5d820" stroke="#2d263c" stroke-width="7" stroke-linejoin="round"/>
  <!-- 槍先端 -->
  <polygon points="183,342 169,302 197,302" fill="#2d263c" stroke="#2d263c" stroke-width="4" stroke-linejoin="round"/>

  <!-- 頭部 -->
  <ellipse cx="182" cy="150" rx="32" ry="30" fill="#f5d820" stroke="#2d263c" stroke-width="8" stroke-linejoin="round"/>

  <!-- 触角 左 -->
  <line x1="170" y1="124" x2="148" y2="90" stroke="#2d263c" stroke-width="7" stroke-linecap="round"/>
  <circle cx="145" cy="86" r="7" fill="#2d263c"/>
  <!-- 触角 右 (少しズレてゆるい感じ) -->
  <line x1="196" y1="122" x2="222" y2="86" stroke="#2d263c" stroke-width="7" stroke-linecap="round"/>
  <circle cx="226" cy="82" r="7" fill="#2d263c"/>

  <!-- 複眼 左 -->
  <ellipse cx="163" cy="152" rx="13" ry="14" fill="#cc1111" stroke="#2d263c" stroke-width="5"/>
  <ellipse cx="159" cy="149" rx="4" ry="4" fill="#ff5555" stroke="none"/>

  <!-- 複眼 右 -->
  <ellipse cx="203" cy="151" rx="14" ry="13" fill="#cc1111" stroke="#2d263c" stroke-width="5"/>
  <ellipse cx="209" cy="148" rx="4" ry="4" fill="#ff5555" stroke="none"/>

  <!-- 首のくびれ/胸部接続 -->
  <rect x="168" y="175" width="30" height="22" rx="8" fill="#f5d820" stroke="#2d263c" stroke-width="7"/>

  <!-- 左腕の極太槍 -->
  <!-- 槍シャフト -->
  <rect x="108" y="188" width="18" height="52" rx="7" transform="rotate(-30 117 214)" fill="#f5d820" stroke="#2d263c" stroke-width="7" stroke-linejoin="round"/>
  <!-- 槍先端 左 -->
  <polygon points="85,260 96,224 112,238" fill="#2d263c" stroke="#2d263c" stroke-width="4" stroke-linejoin="round"/>
  <!-- 槍の黒帯 -->
  <rect x="118" y="210" width="18" height="10" rx="4" transform="rotate(-30 127 215)" fill="#1a1a1a" stroke="none"/>

  <!-- 右腕の極太槍 -->
  <rect x="238" y="188" width="18" height="52" rx="7" transform="rotate(30 247 214)" fill="#f5d820" stroke="#2d263c" stroke-width="7" stroke-linejoin="round"/>
  <!-- 槍先端 右 -->
  <polygon points="279,258 256,224 272,210" fill="#2d263c" stroke="#2d263c" stroke-width="4" stroke-linejoin="round"/>
  <!-- 槍の黒帯 右 -->
  <rect x="238" y="210" width="18" height="10" rx="4" transform="rotate(30 247 215)" fill="#1a1a1a" stroke="none"/>

  <!-- 口(きついV字) -->
  <polyline points="173,165 182,171 192,164" fill="none" stroke="#2d263c" stroke-width="4" stroke-linecap="round" stroke-linejoin="round"/>

</svg>