<svg xmlns="http://www.w3.org/2000/svg" viewBox="0 0 360 360">
  <g stroke="#2d263c" stroke-width="7" stroke-linejoin="round" stroke-linecap="round">
    <path d="M55 105 L68 90 L80 107 L67 123 Z" fill="#d9f4f9"/>
    <path d="M298 52 L311 38 L323 55 L310 70 Z" fill="#d9f4f9"/>
    <path d="M36 195 L49 182 L60 198 L47 211 Z" fill="#d9f4f9"/>
    <path d="M62 315 L75 300 L88 316 L75 331 Z" fill="#d9f4f9"/>
    <path d="M44 268 L86 240 L94 274 Z" fill="#828798"/>
    <circle cx="95" cy="250" r="24" fill="#828798"/>
    <circle cx="140" cy="272" r="28" fill="#828798"/>
    <path d="M176 302 L192 338 L210 298 Z" fill="#d9f4f9"/>
    <circle cx="192" cy="285" r="30" fill="#828798"/>
    <path d="M262 282 L300 312 L250 305 Z" fill="#d9f4f9"/>
    <circle cx="243" cy="268" r="31" fill="#828798"/>
    <path d="M293 208 L336 190 L303 242 Z" fill="#d9f4f9"/>
    <circle cx="272" cy="222" r="31" fill="#828798"/>
    <path d="M250 148 L268 104 L282 152 Z" fill="#d9f4f9"/>
    <circle cx="262" cy="170" r="32" fill="#828798"/>
    <circle cx="225" cy="135" r="30" fill="#828798"/>
    <path d="M96 132 L72 100 L100 92 L94 62 L124 74 L148 44 L172 72 L204 58 L200 86 L230 92 L210 124 L218 145 Q222 168 196 169 L122 169 Q98 165 96 132 Z" fill="#6e7486"/>
    <path d="M122 168 H196 V189 Q160 196 122 189 Z" fill="#ffffff"/>
    <path d="M141 170 L141 189" fill="none" stroke-width="5"/>
    <path d="M160 170 L160 191" fill="none" stroke-width="5"/>
    <path d="M179 170 L179 189" fill="none" stroke-width="5"/>
    <path d="M112 182 L206 182 Q218 212 178 220 Q130 222 108 206 Q104 192 112 182 Z" fill="#9ba1b3"/>
    <path d="M104 196 L82 168 L118 184 Z" fill="#d9f4f9"/>
    <path d="M214 194 L238 166 L202 182 Z" fill="#d9f4f9"/>
    <path d="M148 219 L161 252 L175 218 Z" fill="#d9f4f9"/>
    <circle cx="133" cy="121" r="10" fill="#ffffff"/>
    <circle cx="187" cy="119" r="10" fill="#ffffff"/>
    <circle cx="136" cy="123" r="5" fill="#bb3a32" stroke="none"/>
    <circle cx="184" cy="121" r="5" fill="#bb3a32" stroke="none"/>
    <path d="M116 103 L150 112" fill="none"/>
    <path d="M203 101 L169 111" fill="none"/>
    <circle cx="151" cy="152" r="2.5" fill="#2d263c" stroke="none" stroke-width="0"/>
    <circle cx="170" cy="152" r="2.5" fill="#2d263c" stroke="none" stroke-width="0"/>
  </g>
  <circle cx="131" cy="118" r="2.5" fill="#ffffff"/>
  <circle cx="182" cy="116" r="2.5" fill="#ffffff"/>
</svg>