<svg xmlns="http://www.w3.org/2000/svg" viewBox="0 0 360 360">
<g id="mega-burst"><circle cx="180" cy="180" r="172" fill="#fff3c0"/><polygon points="180,180 450.0,180.0 444.8,232.7" fill="#ffd96b"/><polygon points="180,180 429.4,283.3 404.5,330.0" fill="#ffb13d"/><polygon points="180,180 370.9,370.9 330.0,404.5" fill="#ffd96b"/><polygon points="180,180 283.3,429.4 232.7,444.8" fill="#ffb13d"/><polygon points="180,180 180.0,450.0 127.3,444.8" fill="#ffd96b"/><polygon points="180,180 76.7,429.4 30.0,404.5" fill="#ffb13d"/><polygon points="180,180 -10.9,370.9 -44.5,330.0" fill="#ffd96b"/><polygon points="180,180 -69.4,283.3 -84.8,232.7" fill="#ffb13d"/><polygon points="180,180 -90.0,180.0 -84.8,127.3" fill="#ffd96b"/><polygon points="180,180 -69.4,76.7 -44.5,30.0" fill="#ffb13d"/><polygon points="180,180 -10.9,-10.9 30.0,-44.5" fill="#ffd96b"/><polygon points="180,180 76.7,-69.4 127.3,-84.8" fill="#ffb13d"/><polygon points="180,180 180.0,-90.0 232.7,-84.8" fill="#ffd96b"/><polygon points="180,180 283.3,-69.4 330.0,-44.5" fill="#ffb13d"/><polygon points="180,180 370.9,-10.9 404.5,30.0" fill="#ffd96b"/><polygon points="180,180 429.4,76.7 444.8,127.3" fill="#ffb13d"/><circle cx="180" cy="180" r="120" fill="#fff3c0" opacity="0.55"/></g>
  <path d="M172,296 C198,326 244,338 292,318 C308,310 314,298 300,290 C280,280 250,292 226,300 C204,308 188,300 172,296 Z" fill="#3E56A8" stroke="#2d263c" stroke-width="7" stroke-linejoin="round" stroke-linecap="round"/>
  <polygon points="292,318 332,300 300,336" fill="#3E56A8" stroke="#2d263c" stroke-width="6" stroke-linejoin="round" stroke-linecap="round"/>
  <polygon points="146,166 52,132 96,240 130,220" fill="#3E56A8" stroke="#2d263c" stroke-width="7" stroke-linejoin="round" stroke-linecap="round"/>
  <polygon points="214,166 308,132 264,240 230,220" fill="#3E56A8" stroke="#2d263c" stroke-width="7" stroke-linejoin="round" stroke-linecap="round"/>
  <ellipse cx="158" cy="304" rx="20" ry="13" fill="#3E56A8" stroke="#2d263c" stroke-width="6"/>
  <ellipse cx="204" cy="304" rx="20" ry="13" fill="#3E56A8" stroke="#2d263c" stroke-width="6"/>
  <path d="M140,148 C116,182 106,236 124,278 C136,306 165,314 180,314 C195,314 224,306 236,278 C254,236 244,182 220,148 Z" fill="#5D7CE0" stroke="#2d263c" stroke-width="8" stroke-linejoin="round"/>
  <ellipse cx="180" cy="216" rx="48" ry="76" fill="#FBF3E3"/>
  <polygon points="180,172 154,220 206,220" fill="#A5233A" stroke="#2d263c" stroke-width="5" stroke-linejoin="round"/>
  <path d="M170,190 L180,180 L190,190" fill="none" stroke="#D9526B" stroke-width="4" stroke-linecap="round" stroke-linejoin="round"/>
  <path d="M180,26 C154,32 128,52 116,86 C108,116 120,148 140,164 L220,164 C240,148 252,116 244,86 C232,52 206,32 180,26 Z" fill="#5D7CE0" stroke="#2d263c" stroke-width="8" stroke-linejoin="round"/>
  <polygon points="140,44 96,10 130,72" fill="#3E56A8" stroke="#2d263c" stroke-width="6" stroke-linejoin="round"/>
  <polygon points="220,44 264,10 230,72" fill="#3E56A8" stroke="#2d263c" stroke-width="6" stroke-linejoin="round"/>
  <polygon points="180,14 168,46 192,46" fill="#3E56A8" stroke="#2d263c" stroke-width="6" stroke-linejoin="round"/>
  <ellipse cx="154" cy="100" rx="15" ry="19" fill="#D93A3A" stroke="#2d263c" stroke-width="5"/>
  <ellipse cx="206" cy="100" rx="15" ry="19" fill="#D93A3A" stroke="#2d263c" stroke-width="5"/>
  <circle cx="159" cy="94" r="4" fill="#FBF3E3"/>
  <circle cx="211" cy="94" r="4" fill="#FBF3E3"/>
  <path d="M164,156 Q180,166 196,156" fill="none" stroke="#2d263c" stroke-width="5" stroke-linecap="round"/>
  <ellipse cx="150" cy="192" rx="10" ry="32" fill="#FFFFFF" opacity="0.25"/>
</svg>
