<svg xmlns="http://www.w3.org/2000/svg" viewBox="0 0 360 360">
<g id="mega-burst"><circle cx="180" cy="180" r="172" fill="#fff3c0"/><polygon points="180,180 450.0,180.0 444.8,232.7" fill="#ffd96b"/><polygon points="180,180 429.4,283.3 404.5,330.0" fill="#ffb13d"/><polygon points="180,180 370.9,370.9 330.0,404.5" fill="#ffd96b"/><polygon points="180,180 283.3,429.4 232.7,444.8" fill="#ffb13d"/><polygon points="180,180 180.0,450.0 127.3,444.8" fill="#ffd96b"/><polygon points="180,180 76.7,429.4 30.0,404.5" fill="#ffb13d"/><polygon points="180,180 -10.9,370.9 -44.5,330.0" fill="#ffd96b"/><polygon points="180,180 -69.4,283.3 -84.8,232.7" fill="#ffb13d"/><polygon points="180,180 -90.0,180.0 -84.8,127.3" fill="#ffd96b"/><polygon points="180,180 -69.4,76.7 -44.5,30.0" fill="#ffb13d"/><polygon points="180,180 -10.9,-10.9 30.0,-44.5" fill="#ffd96b"/><polygon points="180,180 76.7,-69.4 127.3,-84.8" fill="#ffb13d"/><polygon points="180,180 180.0,-90.0 232.7,-84.8" fill="#ffd96b"/><polygon points="180,180 283.3,-69.4 330.0,-44.5" fill="#ffb13d"/><polygon points="180,180 370.9,-10.9 404.5,30.0" fill="#ffd96b"/><polygon points="180,180 429.4,76.7 444.8,127.3" fill="#ffb13d"/><circle cx="180" cy="180" r="120" fill="#fff3c0" opacity="0.55"/></g>
  <!-- 背景の浮遊小炎(後ろレイヤー) -->
  <ellipse cx="55" cy="90" rx="18" ry="25" fill="#5ce0ff" stroke="#2d263c" stroke-width="5" stroke-linejoin="round"/>
  <ellipse cx="55" cy="72" rx="10" ry="16" fill="#b8f5ff" stroke="#2d263c" stroke-width="4" stroke-linejoin="round"/>
  <ellipse cx="305" cy="100" rx="15" ry="22" fill="#5ce0ff" stroke="#2d263c" stroke-width="5" stroke-linejoin="round"/>
  <ellipse cx="305" cy="84" rx="8" ry="13" fill="#b8f5ff" stroke="#2d263c" stroke-width="4" stroke-linejoin="round"/>
  <ellipse cx="80" cy="270" rx="13" ry="18" fill="#5ce0ff" stroke="#2d263c" stroke-width="4" stroke-linejoin="round"/>
  <ellipse cx="80" cy="255" rx="7" ry="11" fill="#b8f5ff" stroke="#2d263c" stroke-width="3" stroke-linejoin="round"/>
  <ellipse cx="290" cy="265" rx="14" ry="20" fill="#5ce0ff" stroke="#2d263c" stroke-width="4" stroke-linejoin="round"/>
  <ellipse cx="290" cy="248" rx="8" ry="13" fill="#b8f5ff" stroke="#2d263c" stroke-width="3" stroke-linejoin="round"/>

  <!-- 左アーム(燭台)太い曲がったやつ -->
  <path d="M160,175 Q110,160 85,140 Q65,125 60,105" fill="none" stroke="#2d263c" stroke-width="22" stroke-linecap="round"/>
  <path d="M160,175 Q110,160 85,140 Q65,125 60,105" fill="none" stroke="#4a1d7a" stroke-width="14" stroke-linecap="round"/>

  <!-- 右アーム(燭台) -->
  <path d="M200,175 Q250,160 275,140 Q295,125 300,105" fill="none" stroke="#2d263c" stroke-width="22" stroke-linecap="round"/>
  <path d="M200,175 Q250,160 275,140 Q295,125 300,105" fill="none" stroke="#4a1d7a" stroke-width="14" stroke-linecap="round"/>

  <!-- 左アームの先端カップ -->
  <ellipse cx="60" cy="108" rx="22" ry="14" fill="#2a1040" stroke="#2d263c" stroke-width="7" stroke-linejoin="round"/>
  <ellipse cx="60" cy="102" rx="16" ry="10" fill="#3a1a5e" stroke="#2d263c" stroke-width="5"/>

  <!-- 右アームの先端カップ -->
  <ellipse cx="300" cy="108" rx="22" ry="14" fill="#2a1040" stroke="#2d263c" stroke-width="7" stroke-linejoin="round"/>
  <ellipse cx="300" cy="102" rx="16" ry="10" fill="#3a1a5e" stroke="#2d263c" stroke-width="5"/>

  <!-- 左アーム先端の炎 -->
  <ellipse cx="58" cy="88" rx="19" ry="28" fill="#5ce0ff" stroke="#2d263c" stroke-width="6" stroke-linejoin="round"/>
  <ellipse cx="55" cy="66" rx="11" ry="18" fill="#a8eeff" stroke="#2d263c" stroke-width="5" stroke-linejoin="round"/>
  <ellipse cx="55" cy="52" rx="7" ry="12" fill="#dff8ff" stroke="#2d263c" stroke-width="4" stroke-linejoin="round"/>

  <!-- 右アーム先端の炎 -->
  <ellipse cx="302" cy="88" rx="19" ry="28" fill="#5ce0ff" stroke="#2d263c" stroke-width="6" stroke-linejoin="round"/>
  <ellipse cx="305" cy="66" rx="11" ry="18" fill="#a8eeff" stroke="#2d263c" stroke-width="5" stroke-linejoin="round"/>
  <ellipse cx="305" cy="52" rx="7" ry="12" fill="#dff8ff" stroke="#2d263c" stroke-width="4" stroke-linejoin="round"/>

  <!-- 本体の吊り下げ部分(細い首みたいなやつ) -->
  <rect x="167" y="148" width="26" height="32" rx="8" fill="#2a1040" stroke="#2d263c" stroke-width="7"/>

  <!-- 本体メインボディ(でかい丸) -->
  <ellipse cx="180" cy="220" rx="72" ry="68" fill="#3a1a5e" stroke="#2d263c" stroke-width="8" stroke-linejoin="round"/>

  <!-- 本体の模様(少し明るいパープル) -->
  <ellipse cx="180" cy="228" rx="52" ry="48" fill="#4d2480"/>

  <!-- 顔：大きな黄色い目(狂気じみた感じ) -->
  <!-- 左目 -->
  <ellipse cx="155" cy="210" rx="22" ry="25" fill="#ffe666" stroke="#2d263c" stroke-width="6"/>
  <ellipse cx="155" cy="210" rx="14" ry="17" fill="#ffcc00"/>
  <ellipse cx="155" cy="212" rx="8" ry="10" fill="#1a0030"/>
  <ellipse cx="151" cy="207" rx="3" ry="4" fill="white"/>
  <!-- 左目の眉的な角張り(メガ進化感) -->
  <path d="M136,193 Q148,186 167,190" fill="none" stroke="#2d263c" stroke-width="5" stroke-linecap="round"/>

  <!-- 右目 -->
  <ellipse cx="207" cy="208" rx="23" ry="24" fill="#ffe666" stroke="#2d263c" stroke-width="6"/>
  <ellipse cx="207" cy="208" rx="15" ry="16" fill="#ffcc00"/>
  <ellipse cx="208" cy="210" rx="9" ry="10" fill="#1a0030"/>
  <ellipse cx="204" cy="205" rx="3" ry="4" fill="white"/>
  <!-- 右目の眉角張り -->
  <path d="M192,191 Q205,184 225,189" fill="none" stroke="#2d263c" stroke-width="5" stroke-linecap="round"/>

  <!-- 口(へにゃっとした感じ) -->
  <path d="M162,242 Q175,255 198,243" fill="none" stroke="#2d263c" stroke-width="6" stroke-linecap="round"/>

  <!-- 頭頂の炎(でかい) -->
  <ellipse cx="180" cy="148" rx="26" ry="36" fill="#5ce0ff" stroke="#2d263c" stroke-width="7" stroke-linejoin="round"/>
  <ellipse cx="180" cy="118" rx="17" ry="26" fill="#90eaff" stroke="#2d263c" stroke-width="6" stroke-linejoin="round"/>
  <ellipse cx="178" cy="96" rx="10" ry="18" fill="#d0f8ff" stroke="#2d263c" stroke-width="5" stroke-linejoin="round"/>
  <ellipse cx="178" cy="80" rx="6" ry="10" fill="#eefcff" stroke="#2d263c" stroke-width="4" stroke-linejoin="round"/>

  <!-- 体の下部のウネウネ(幽霊の裾) -->
  <path d="M115,268 Q128,295 143,275 Q158,300 172,278 Q182,305 193,278 Q207,302 220,275 Q235,298 248,268" fill="#3a1a5e" stroke="#2d263c" stroke-width="7" stroke-linecap="round" stroke-linejoin="round"/>

  <!-- メガ進化の追加小ゴースト炎たち -->
  <ellipse cx="120" cy="185" rx="12" ry="16" fill="#5ce0ff" stroke="#2d263c" stroke-width="4" stroke-linejoin="round"/>
  <ellipse cx="120" cy="172" rx="7" ry="10" fill="#b8f5ff" stroke="#2d263c" stroke-width="3" stroke-linejoin="round"/>
  <ellipse cx="242" cy="190" rx="11" ry="15" fill="#5ce0ff" stroke="#2d263c" stroke-width="4" stroke-linejoin="round"/>
  <ellipse cx="242" cy="178" rx="6" ry="9" fill="#b8f5ff" stroke="#2d263c" stroke-width="3" stroke-linejoin="round"/>

  <!-- 体の上部につく小さなリング装飾 -->
  <ellipse cx="180" cy="160" rx="30" ry="8" fill="none" stroke="#2d263c" stroke-width="6"/>
  <ellipse cx="180" cy="160" rx="30" ry="8" fill="none" stroke="#7a3db8" stroke-width="3"/>
</svg>