<svg xmlns="http://www.w3.org/2000/svg" viewBox="0 0 360 360">
<g id="mega-burst"><circle cx="180" cy="180" r="172" fill="#fff3c0"/><polygon points="180,180 450.0,180.0 444.8,232.7" fill="#ffd96b"/><polygon points="180,180 429.4,283.3 404.5,330.0" fill="#ffb13d"/><polygon points="180,180 370.9,370.9 330.0,404.5" fill="#ffd96b"/><polygon points="180,180 283.3,429.4 232.7,444.8" fill="#ffb13d"/><polygon points="180,180 180.0,450.0 127.3,444.8" fill="#ffd96b"/><polygon points="180,180 76.7,429.4 30.0,404.5" fill="#ffb13d"/><polygon points="180,180 -10.9,370.9 -44.5,330.0" fill="#ffd96b"/><polygon points="180,180 -69.4,283.3 -84.8,232.7" fill="#ffb13d"/><polygon points="180,180 -90.0,180.0 -84.8,127.3" fill="#ffd96b"/><polygon points="180,180 -69.4,76.7 -44.5,30.0" fill="#ffb13d"/><polygon points="180,180 -10.9,-10.9 30.0,-44.5" fill="#ffd96b"/><polygon points="180,180 76.7,-69.4 127.3,-84.8" fill="#ffb13d"/><polygon points="180,180 180.0,-90.0 232.7,-84.8" fill="#ffd96b"/><polygon points="180,180 283.3,-69.4 330.0,-44.5" fill="#ffb13d"/><polygon points="180,180 370.9,-10.9 404.5,30.0" fill="#ffd96b"/><polygon points="180,180 429.4,76.7 444.8,127.3" fill="#ffb13d"/><circle cx="180" cy="180" r="120" fill="#fff3c0" opacity="0.55"/></g>

  <!-- 尻尾 (後ろ) -->
  <path d="M 200 270 Q 240 300 255 330 Q 260 345 245 348 Q 230 350 225 335 Q 215 310 195 290" fill="#1a3a5c" stroke="#2d263c" stroke-width="7" stroke-linejoin="round" stroke-linecap="round"/>

  <!-- 後ろ足 左 -->
  <path d="M 155 255 Q 140 280 130 305 Q 125 318 135 320 Q 148 322 155 305 Q 162 285 168 265" fill="#1a3a5c" stroke="#2d263c" stroke-width="7" stroke-linejoin="round" stroke-linecap="round"/>
  <!-- 後ろ足 左 足先 水色 -->
  <path d="M 128 310 Q 122 325 132 328 Q 145 330 153 315 Q 158 305 150 302 Z" fill="#4fc3f7" stroke="#2d263c" stroke-width="6" stroke-linejoin="round" stroke-linecap="round"/>

  <!-- 後ろ足 右 -->
  <path d="M 205 258 Q 215 280 222 305 Q 226 318 215 322 Q 202 324 198 308 Q 193 285 190 265" fill="#1a3a5c" stroke="#2d263c" stroke-width="7" stroke-linejoin="round" stroke-linecap="round"/>
  <!-- 後ろ足 右 足先 水色 -->
  <path d="M 215 310 Q 220 326 210 328 Q 198 330 193 316 Q 190 305 198 302 Z" fill="#4fc3f7" stroke="#2d263c" stroke-width="6" stroke-linejoin="round" stroke-linecap="round"/>

  <!-- 胴体 -->
  <path d="M 145 175 Q 130 200 132 235 Q 134 262 160 270 Q 180 275 200 270 Q 225 262 228 235 Q 232 205 218 178 Q 205 155 182 150 Q 160 148 145 175 Z" fill="#1a3a5c" stroke="#2d263c" stroke-width="8" stroke-linejoin="round" stroke-linecap="round"/>

  <!-- 腹 白〜水色 縦縞ぽい -->
  <path d="M 158 185 Q 148 205 150 235 Q 152 255 168 262 Q 180 266 193 262 Q 208 255 210 235 Q 213 205 204 185 Q 195 168 180 165 Q 165 165 158 185 Z" fill="#b3e5fc" stroke="none"/>
  <!-- 腹の縦縞 -->
  <line x1="172" y1="168" x2="168" y2="264" stroke="#4fc3f7" stroke-width="3" stroke-linecap="round"/>
  <line x1="182" y1="166" x2="182" y2="266" stroke="#4fc3f7" stroke-width="2.5" stroke-linecap="round"/>
  <line x1="192" y1="168" x2="196" y2="263" stroke="#4fc3f7" stroke-width="3" stroke-linecap="round"/>

  <!-- 前足 左 -->
  <path d="M 140 195 Q 120 208 108 228 Q 102 240 110 245 Q 122 250 132 235 Q 142 220 152 205" fill="#1a3a5c" stroke="#2d263c" stroke-width="7" stroke-linejoin="round" stroke-linecap="round"/>
  <!-- 前足 左 手先 水色 -->
  <path d="M 105 238 Q 98 252 109 256 Q 120 258 130 243 Q 136 234 128 230 Z" fill="#4fc3f7" stroke="#2d263c" stroke-width="6" stroke-linejoin="round" stroke-linecap="round"/>

  <!-- 前足 右 -->
  <path d="M 220 195 Q 238 208 250 228 Q 256 240 248 246 Q 237 252 226 237 Q 216 220 208 207" fill="#1a3a5c" stroke="#2d263c" stroke-width="7" stroke-linejoin="round" stroke-linecap="round"/>
  <!-- 前足 右 手先 水色 -->
  <path d="M 252 238 Q 260 252 249 256 Q 238 258 228 244 Q 222 235 230 231 Z" fill="#4fc3f7" stroke="#2d263c" stroke-width="6" stroke-linejoin="round" stroke-linecap="round"/>

  <!-- 体の赤い斑点模様 -->
  <ellipse cx="148" cy="215" rx="7" ry="5" fill="#e53935" stroke="none"/>
  <ellipse cx="214" cy="218" rx="6" ry="5" fill="#e53935" stroke="none"/>
  <ellipse cx="152" cy="240" rx="5" ry="4" fill="#e53935" stroke="none"/>
  <ellipse cx="210" cy="243" rx="5" ry="4" fill="#e53935" stroke="none"/>

  <!-- 頭 -->
  <ellipse cx="182" cy="145" rx="42" ry="38" fill="#1a3a5c" stroke="#2d263c" stroke-width="8" stroke-linejoin="round"/>

  <!-- 顔の白い模様 (口の周り) -->
  <path d="M 162 152 Q 170 165 182 167 Q 194 165 202 152 Q 196 148 182 148 Q 168 148 162 152 Z" fill="#eceff1" stroke="none"/>

  <!-- 顔の水色ほっぺ部分 -->
  <ellipse cx="163" cy="140" rx="10" ry="8" fill="#4fc3f7" stroke="none"/>
  <ellipse cx="201" cy="140" rx="10" ry="8" fill="#4fc3f7" stroke="none"/>

  <!-- 目 左 (大きな赤い目) -->
  <ellipse cx="165" cy="135" rx="12" ry="13" fill="#e53935" stroke="#2d263c" stroke-width="5"/>
  <ellipse cx="165" cy="135" rx="7" ry="8" fill="#b71c1c" stroke="none"/>
  <ellipse cx="162" cy="131" rx="3" ry="3" fill="white" stroke="none"/>

  <!-- 目 右 (大きな赤い目) -->
  <ellipse cx="199" cy="133" rx="12" ry="14" fill="#e53935" stroke="#2d263c" stroke-width="5"/>
  <ellipse cx="199" cy="133" rx="7" ry="8" fill="#b71c1c" stroke="none"/>
  <ellipse cx="196" cy="129" rx="3" ry="3" fill="white" stroke="none"/>

  <!-- 口 ニヤリ -->
  <path d="M 168 158 Q 182 166 196 158" fill="none" stroke="#2d263c" stroke-width="5" stroke-linecap="round"/>

  <!-- 耳 左 (葉っぱ状・後方へ長く) -->
  <path d="M 150 125 Q 118 108 100 90 Q 88 78 92 68 Q 98 60 110 70 Q 128 85 148 108 Z" fill="#1a3a5c" stroke="#2d263c" stroke-width="7" stroke-linejoin="round" stroke-linecap="round"/>
  <path d="M 148 118 Q 120 106 106 88 Q 100 80 106 74 Q 110 70 118 80 Q 132 96 146 112 Z" fill="#4fc3f7" stroke="none"/>

  <!-- 耳 右 (葉っぱ状・後方へ長く) -->
  <path d="M 214 122 Q 246 105 265 88 Q 278 76 274 65 Q 268 57 256 68 Q 238 83 218 106 Z" fill="#1a3a5c" stroke="#2d263c" stroke-width="7" stroke-linejoin="round" stroke-linecap="round"/>
  <path d="M 216 114 Q 244 100 260 84 Q 268 76 262 70 Q 258 66 250 76 Q 234 92 218 110 Z" fill="#4fc3f7" stroke="none"/>

  <!-- 舌/水手裏剣 - 頭の上に大きく広がる -->
  <!-- 手裏剣の中心 -->
  <circle cx="183" cy="88" r="14" fill="#f06292" stroke="#2d263c" stroke-width="6"/>

  <!-- 手裏剣の羽根 4枚 ゆるい形 -->
  <path d="M 183 74 Q 172 55 165 38 Q 178 42 186 55 Q 192 44 205 40 Q 198 56 183 74 Z" fill="#ef5350" stroke="#2d263c" stroke-width="5" stroke-linejoin="round" stroke-linecap="round"/>
  <path d="M 197 88 Q 218 78 238 72 Q 234 84 222 90 Q 233 97 236 110 Q 218 104 197 88 Z" fill="#ef5350" stroke="#2d263c" stroke-width="5" stroke-linejoin="round" stroke-linecap="round"/>
  <path d="M 183 102 Q 193 120 200 138 Q 187 134 180 121 Q 174 133 160 138 Q 168 120 183 102 Z" fill="#ef5350" stroke="#2d263c" stroke-width="5" stroke-linejoin="round" stroke-linecap="round"/>
  <path d="M 169 88 Q 148 78 128 73 Q 132 85 144 91 Q 132 98 130 111 Q 148 105 169 88 Z" fill="#ef5350" stroke="#2d263c" stroke-width="5" stroke-linejoin="round" stroke-linecap="round"/>

  <!-- 手裏剣中心の水模様 -->
  <circle cx="183" cy="88" r="8" fill="#29b6f6" stroke="#2d263c" stroke-width="3"/>
  <circle cx="183" cy="88" r="4" fill="#e1f5fe" stroke="none"/>

  <!-- 舌のつながり部分 (頭から手裏剣へ) -->
  <path d="M 175 120 Q 178 105 183 94" fill="none" stroke="#f06292" stroke-width="8" stroke-linecap="round"/>

</svg>