<svg xmlns="http://www.w3.org/2000/svg" viewBox="0 0 360 360">
  <!-- 後ろの翅(背中の羽根カバー) -->
  <ellipse cx="180" cy="155" rx="72" ry="55" fill="#1a3ea0" stroke="#2d263c" stroke-width="7" stroke-linejoin="round"/>

  <!-- 左の大ツノ(後ろ) -->
  <path d="M155 95 Q130 50 108 28 Q105 22 112 20 Q128 35 148 75 Z" fill="#2555b8" stroke="#2d263c" stroke-width="7" stroke-linejoin="round" stroke-linecap="round"/>
  <circle cx="108" cy="22" r="11" fill="#2555b8" stroke="#2d263c" stroke-width="6"/>

  <!-- 右の大ツノ -->
  <path d="M205 95 Q230 50 252 28 Q255 22 248 20 Q232 35 212 75 Z" fill="#2555b8" stroke="#2d263c" stroke-width="7" stroke-linejoin="round" stroke-linecap="round"/>
  <circle cx="252" cy="22" r="11" fill="#2555b8" stroke="#2d263c" stroke-width="6"/>

  <!-- ツノ交差部分の装飾 -->
  <path d="M148 78 Q180 60 212 78" fill="none" stroke="#2d263c" stroke-width="5" stroke-linecap="round"/>

  <!-- 体(胴体) -->
  <ellipse cx="180" cy="210" rx="80" ry="75" fill="#2a52b5" stroke="#2d263c" stroke-width="8" stroke-linejoin="round"/>

  <!-- 頭 -->
  <ellipse cx="180" cy="138" rx="62" ry="55" fill="#2a52b5" stroke="#2d263c" stroke-width="8" stroke-linejoin="round"/>

  <!-- 頭の甲羅ライン -->
  <path d="M128 125 Q180 108 232 125" fill="none" stroke="#1a3ea0" stroke-width="4" stroke-linecap="round"/>

  <!-- 腹部(クリーム色) -->
  <ellipse cx="180" cy="228" rx="52" ry="45" fill="#e8d890" stroke="#2d263c" stroke-width="6" stroke-linejoin="round"/>

  <!-- 腹の縦線(甲虫の腹節) -->
  <path d="M158 198 Q162 225 160 255" fill="none" stroke="#c8b870" stroke-width="3" stroke-linecap="round"/>
  <path d="M180 195 Q180 225 180 258" fill="none" stroke="#c8b870" stroke-width="3" stroke-linecap="round"/>
  <path d="M202 198 Q198 225 200 255" fill="none" stroke="#c8b870" stroke-width="3" stroke-linecap="round"/>

  <!-- メガカイロスの大きなピンク吸盤(腹先端) -->
  <circle cx="180" cy="278" r="32" fill="#e8557a" stroke="#2d263c" stroke-width="8" stroke-linejoin="round"/>
  <circle cx="180" cy="278" r="20" fill="#f07090" stroke="#2d263c" stroke-width="4"/>
  <circle cx="180" cy="278" r="9" fill="#ff90aa" stroke="#2d263c" stroke-width="3"/>

  <!-- 左前脚(大きなこぶし) -->
  <path d="M112 195 Q80 200 68 225 Q65 245 80 248 Q95 252 105 235 Q112 218 112 200Z" fill="#2a52b5" stroke="#2d263c" stroke-width="7" stroke-linejoin="round"/>
  <!-- 左こぶし -->
  <ellipse cx="76" cy="242" rx="18" ry="14" fill="#3060c8" stroke="#2d263c" stroke-width="6"/>

  <!-- 右前脚(大きなこぶし) -->
  <path d="M248 195 Q280 200 292 225 Q295 245 280 248 Q265 252 255 235 Q248 218 248 200Z" fill="#2a52b5" stroke="#2d263c" stroke-width="7" stroke-linejoin="round"/>
  <!-- 右こぶし -->
  <ellipse cx="284" cy="242" rx="18" ry="14" fill="#3060c8" stroke="#2d263c" stroke-width="6"/>

  <!-- 左中脚 -->
  <path d="M125 240 Q95 252 88 272 Q86 280 95 278 Q108 272 120 258Z" fill="#2a52b5" stroke="#2d263c" stroke-width="6" stroke-linejoin="round"/>

  <!-- 右中脚 -->
  <path d="M235 240 Q265 252 272 272 Q274 280 265 278 Q252 272 240 258Z" fill="#2a52b5" stroke="#2d263c" stroke-width="6" stroke-linejoin="round"/>

  <!-- 左後脚 -->
  <path d="M138 268 Q118 285 115 305 Q114 312 122 308 Q132 298 140 280Z" fill="#2a52b5" stroke="#2d263c" stroke-width="6" stroke-linejoin="round"/>

  <!-- 右後脚 -->
  <path d="M222 268 Q242 285 245 305 Q246 312 238 308 Q228 298 220 280Z" fill="#2a52b5" stroke="#2d263c" stroke-width="6" stroke-linejoin="round"/>

  <!-- 左目 -->
  <ellipse cx="156" cy="138" rx="16" ry="17" fill="white" stroke="#2d263c" stroke-width="5"/>
  <circle cx="159" cy="138" r="10" fill="#1a1a2e"/>
  <circle cx="163" cy="133" r="4" fill="white"/>

  <!-- 右目 -->
  <ellipse cx="204" cy="138" rx="16" ry="17" fill="white" stroke="#2d263c" stroke-width="5"/>
  <circle cx="207" cy="138" r="10" fill="#1a1a2e"/>
  <circle cx="211" cy="133" r="4" fill="white"/>

  <!-- 口(ニコっと) -->
  <path d="M166 162 Q180 175 194 162" fill="none" stroke="#2d263c" stroke-width="6" stroke-linecap="round"/>

  <!-- ほっぺの赤み -->
  <ellipse cx="140" cy="155" rx="12" ry="8" fill="#e86080" opacity="0.6"/>
  <ellipse cx="220" cy="155" rx="12" ry="8" fill="#e86080" opacity="0.6"/>

  <!-- 頭の小触角 -->
  <path d="M160 90 Q152 70 148 58" fill="none" stroke="#2d263c" stroke-width="5" stroke-linecap="round"/>
  <circle cx="146" cy="55" r="7" fill="#3060c8" stroke="#2d263c" stroke-width="4"/>
  <path d="M200 90 Q208 70 212 58" fill="none" stroke="#2d263c" stroke-width="5" stroke-linecap="round"/>
  <circle cx="214" cy="55" r="7" fill="#3060c8" stroke="#2d263c" stroke-width="4"/>
</svg>