<svg xmlns="http://www.w3.org/2000/svg" viewBox="0 0 360 360"><g stroke="#2d263c" stroke-width="7" stroke-linejoin="round" stroke-linecap="round"><path d="M168,100 L146,28 L182,58 L210,24 L224,100 Z" fill="#3d59a8"/><path d="M210,24 L218,62 L194,46 Z" fill="#f6d33c"/><path d="M118,286 L58,332 L128,312 Z" fill="#3d59a8"/><path d="M244,288 L304,334 L234,312 Z" fill="#3d59a8"/><path d="M92,188 C62,180 36,202 26,240 L60,230 L52,254 L96,234 Z" fill="#3d59a8"/><path d="M268,184 C298,174 324,196 336,236 L300,228 L310,250 L266,230 Z" fill="#3d59a8"/><path d="M180,90 C102,92 70,148 72,206 C74,264 118,302 180,303 C244,302 288,262 289,201 C290,144 254,90 180,90 Z" fill="#3d59a8"/><path d="M112,266 C138,299 226,300 251,263 C246,288 216,303 179,303 C142,302 120,290 112,266 Z" fill="#e9e6f2"/><path d="M140,98 C154,92 208,92 222,99 L211,129 L197,106 L180,133 L163,106 L151,130 Z" fill="#f6d33c"/><path d="M116,118 L140,140" stroke="#f6d33c" stroke-width="9" fill="none"/><path d="M140,120 L116,138" stroke="#f6d33c" stroke-width="9" fill="none"/><path d="M240,124 L264,134" stroke="#f6d33c" stroke-width="9" fill="none"/><path d="M236,142 L260,152" stroke="#f6d33c" stroke-width="9" fill="none"/><path d="M86,226 q6,10 2,20" fill="none" stroke-width="5"/><path d="M98,232 q6,10 2,20" fill="none" stroke-width="5"/><path d="M272,224 q-6,10 -2,20" fill="none" stroke-width="5"/><path d="M260,230 q-6,10 -2,20" fill="none" stroke-width="5"/><path d="M102,150 L150,166 L141,188 L99,172 Z" fill="#f6d33c"/><path d="M258,148 L211,165 L221,187 L262,170 Z" fill="#f6d33c"/><circle cx="131" cy="172" r="6" fill="#2d263c" stroke="none"/><circle cx="231" cy="170" r="6" fill="#2d263c" stroke="none"/><circle cx="162" cy="142" r="3.5" fill="#2d263c" stroke="none"/><circle cx="199" cy="141" r="3.5" fill="#2d263c" stroke="none"/><path d="M100,206 C134,226 228,226 261,202 C258,252 228,272 180,272 C133,272 104,252 100,206 Z" fill="#c43c4a"/><path d="M100,206 C134,226 228,226 261,202 L246,228 L232,212 L216,233 L199,214 L182,236 L165,214 L148,233 L132,212 L116,228 Z" fill="#ffffff"/><path d="M150,271 L160,254 L172,270 L182,253 L194,270 L205,254 L214,270 Z" fill="#ffffff"/><path d="M103,212 L84,180 L124,208 Z" fill="#ffffff"/><path d="M259,208 L278,174 L238,205 Z" fill="#ffffff"/></g></svg>