<svg xmlns="http://www.w3.org/2000/svg" viewBox="0 0 360 360">
  <!-- 尻尾のヒレ(背後) -->
  <polygon points="128,318 96,340 126,344" fill="#ffdd44" stroke="#2d263c" stroke-width="6" stroke-linejoin="round"/>
  <polygon points="140,318 170,338 146,346" fill="#ffdd44" stroke="#2d263c" stroke-width="6" stroke-linejoin="round"/>

  <!-- 体(長い胴体・大きくうねる) -->
  <ellipse cx="100" cy="100" rx="44" ry="36" transform="rotate(-30 100 100)" fill="#3fa34d" stroke="#2d263c" stroke-width="7"/>
  <ellipse cx="152" cy="75" rx="42" ry="34" transform="rotate(-8 152 75)" fill="#3fa34d" stroke="#2d263c" stroke-width="7"/>
  <ellipse cx="210" cy="85" rx="40" ry="34" transform="rotate(18 210 85)" fill="#3fa34d" stroke="#2d263c" stroke-width="7"/>
  <ellipse cx="258" cy="118" rx="38" ry="34" transform="rotate(48 258 118)" fill="#3fa34d" stroke="#2d263c" stroke-width="7"/>
  <ellipse cx="288" cy="172" rx="36" ry="34" transform="rotate(85 288 172)" fill="#3fa34d" stroke="#2d263c" stroke-width="7"/>
  <ellipse cx="276" cy="228" rx="34" ry="32" transform="rotate(135 276 228)" fill="#3fa34d" stroke="#2d263c" stroke-width="7"/>
  <ellipse cx="228" cy="266" rx="30" ry="28" transform="rotate(162 228 266)" fill="#3fa34d" stroke="#2d263c" stroke-width="7"/>
  <ellipse cx="176" cy="294" rx="25" ry="23" transform="rotate(-172 176 294)" fill="#3fa34d" stroke="#2d263c" stroke-width="7"/>
  <ellipse cx="132" cy="312" rx="20" ry="18" transform="rotate(-150 132 312)" fill="#3fa34d" stroke="#2d263c" stroke-width="7"/>

  <!-- お腹の黄色い模様 -->
  <ellipse cx="112" cy="114" rx="21" ry="13" transform="rotate(-20 112 114)" fill="#ffdd44" stroke="#2d263c" stroke-width="3"/>
  <ellipse cx="160" cy="88" rx="21" ry="12" transform="rotate(-3 160 88)" fill="#ffdd44" stroke="#2d263c" stroke-width="3"/>
  <ellipse cx="214" cy="100" rx="20" ry="12" transform="rotate(18 214 100)" fill="#ffdd44" stroke="#2d263c" stroke-width="3"/>
  <ellipse cx="257" cy="137" rx="19" ry="12" transform="rotate(48 257 137)" fill="#ffdd44" stroke="#2d263c" stroke-width="3"/>
  <ellipse cx="284" cy="188" rx="18" ry="12" transform="rotate(85 284 188)" fill="#ffdd44" stroke="#2d263c" stroke-width="3"/>
  <ellipse cx="262" cy="236" rx="17" ry="11" transform="rotate(135 262 236)" fill="#ffdd44" stroke="#2d263c" stroke-width="3"/>
  <ellipse cx="212" cy="270" rx="15" ry="10" transform="rotate(162 212 270)" fill="#ffdd44" stroke="#2d263c" stroke-width="3"/>

  <!-- メガ化の赤いリング模様 -->
  <circle cx="255" cy="105" r="16" fill="none" stroke="#e0432f" stroke-width="6"/>
  <circle cx="286" cy="190" r="14" fill="none" stroke="#e0432f" stroke-width="6"/>
  <circle cx="222" cy="262" r="12" fill="none" stroke="#e0432f" stroke-width="6"/>

  <!-- 背中のトゲ -->
  <polygon points="172,72 184,50 196,74" fill="#2d263c"/>
  <polygon points="252,128 266,108 278,132" fill="#2d263c"/>

  <!-- 小さい腕(かぎ爪) -->
  <path d="M148,150 C168,156 176,182 160,204 C148,215 136,208 138,190 C140,172 143,158 148,150 Z" fill="#3fa34d" stroke="#2d263c" stroke-width="6" stroke-linejoin="round"/>
  <line x1="150" y1="206" x2="142" y2="222" stroke="#2d263c" stroke-width="5" stroke-linecap="round"/>

  <!-- メガレックウザの大きな翼状クレスト(左右) -->
  <path d="M60,55 C30,45 22,70 40,88 C58,100 78,90 82,72 C84,60 74,58 60,55 Z" fill="#e0432f" stroke="#2d263c" stroke-width="6" stroke-linejoin="round"/>
  <path d="M120,42 C130,20 155,20 158,42 C160,58 140,66 126,62 C116,58 116,50 120,42 Z" fill="#ffdd44" stroke="#2d263c" stroke-width="6" stroke-linejoin="round"/>

  <!-- 顔 -->
  <ellipse cx="98" cy="90" rx="50" ry="42" fill="#3fa34d" stroke="#2d263c" stroke-width="7"/>

  <!-- ツノ(大きく鋭い・メガ化仕様) -->
  <polygon points="72,60 52,10 96,66" fill="#2d263c"/>
  <polygon points="128,58 150,8 106,62" fill="#2d263c"/>

  <!-- 目のまわりの黄色いリング -->
  <circle cx="76" cy="92" r="15" fill="#ffdd44" stroke="#2d263c" stroke-width="3"/>
  <circle cx="112" cy="84" r="14" fill="#ffdd44" stroke="#2d263c" stroke-width="3"/>

  <!-- 目 -->
  <circle cx="76" cy="92" r="7" fill="#1a1a1a"/>
  <circle cx="112" cy="84" r="6" fill="#1a1a1a"/>

  <!-- 鼻 -->
  <circle cx="98" cy="116" r="3" fill="#1a1a1a"/>

  <!-- 口 -->
  <path d="M72,118 Q98,134 130,114" fill="none" stroke="#2d263c" stroke-width="5" stroke-linecap="round"/>

  <!-- あご(黄色) -->
  <ellipse cx="98" cy="124" rx="21" ry="9" fill="#ffdd44" stroke="#2d263c" stroke-width="4"/>
</svg>
