<svg xmlns="http://www.w3.org/2000/svg" viewBox="0 0 360 360">
  <path d="M108,52 L180,92 L252,46 L232,118 L305,192 L214,178 L180,236 L148,180 L58,196 L130,115 Z" fill="#c7a368" stroke="#2d263c" stroke-width="7" stroke-linejoin="round" stroke-linecap="round"/>
  <path d="M172,40 L203,103 L308,118 L213,150 L232,244 L231,334 L211,248 L181,194 L153,250 L129,336 L133,246 L148,152 L50,130 L141,104 Z" fill="#8d77c9" stroke="#2d263c" stroke-width="7" stroke-linejoin="round" stroke-linecap="round"/>
  <path d="M180,88 L207,115 L241,132 L223,167 L217,204 L180,195 L143,203 L137,166 L120,134 L155,115 Z" fill="#f3b73a" stroke="#2d263c" stroke-width="6" stroke-linejoin="round" stroke-linecap="round"/>
  <circle cx="180" cy="151" r="37" fill="#e0304e" stroke="#2d263c" stroke-width="7"/>
  <path d="M150,165 a36,36 0 0 0 58,8 a44,44 0 0 1 -58,-8 Z" fill="#b01f3c"/>
  <ellipse cx="166" cy="137" rx="11" ry="7" fill="#ffd9e0" transform="rotate(-25 166 137)"/>
  <path d="M285,52 l0,20 M275,62 l20,0" fill="none" stroke="#f3b73a" stroke-width="5" stroke-linecap="round"/>
  <path d="M70,62 l0,14 M63,69 l14,0" fill="none" stroke="#f3b73a" stroke-width="5" stroke-linecap="round"/>
  <path d="M70,224 C61,239 61,248 70,250 C79,248 79,239 70,224 Z" fill="#6fc7e8" stroke="#2d263c" stroke-width="5" stroke-linejoin="round"/>
  <path d="M298,242 C290,255 290,263 298,265 C306,263 306,255 298,242 Z" fill="#6fc7e8" stroke="#2d263c" stroke-width="5" stroke-linejoin="round"/>
</svg>