<svg xmlns="http://www.w3.org/2000/svg" viewBox="0 0 360 360">
<g id="mega-burst"><circle cx="180" cy="180" r="172" fill="#fff3c0"/><polygon points="180,180 450.0,180.0 444.8,232.7" fill="#ffd96b"/><polygon points="180,180 429.4,283.3 404.5,330.0" fill="#ffb13d"/><polygon points="180,180 370.9,370.9 330.0,404.5" fill="#ffd96b"/><polygon points="180,180 283.3,429.4 232.7,444.8" fill="#ffb13d"/><polygon points="180,180 180.0,450.0 127.3,444.8" fill="#ffd96b"/><polygon points="180,180 76.7,429.4 30.0,404.5" fill="#ffb13d"/><polygon points="180,180 -10.9,370.9 -44.5,330.0" fill="#ffd96b"/><polygon points="180,180 -69.4,283.3 -84.8,232.7" fill="#ffb13d"/><polygon points="180,180 -90.0,180.0 -84.8,127.3" fill="#ffd96b"/><polygon points="180,180 -69.4,76.7 -44.5,30.0" fill="#ffb13d"/><polygon points="180,180 -10.9,-10.9 30.0,-44.5" fill="#ffd96b"/><polygon points="180,180 76.7,-69.4 127.3,-84.8" fill="#ffb13d"/><polygon points="180,180 180.0,-90.0 232.7,-84.8" fill="#ffd96b"/><polygon points="180,180 283.3,-69.4 330.0,-44.5" fill="#ffb13d"/><polygon points="180,180 370.9,-10.9 404.5,30.0" fill="#ffd96b"/><polygon points="180,180 429.4,76.7 444.8,127.3" fill="#ffb13d"/><circle cx="180" cy="180" r="120" fill="#fff3c0" opacity="0.55"/></g>
  <!-- 背景の大きなトゲ殻(後ろレイヤー) -->
  <!-- 背中の巨大トゲ群 -->
  <ellipse cx="178" cy="155" rx="105" ry="88" fill="#2a5c2a" stroke="#2d263c" stroke-width="7" stroke-linejoin="round"/>
  <!-- 背中トゲ1(左後ろ) -->
  <polygon points="90,130 72,48 108,120" fill="#1e4a1e" stroke="#2d263c" stroke-width="6" stroke-linejoin="round"/>
  <!-- 背中トゲ2(左中) -->
  <polygon points="112,105 100,22 138,98" fill="#1e4a1e" stroke="#2d263c" stroke-width="6" stroke-linejoin="round"/>
  <!-- 背中トゲ3(中央左) -->
  <polygon points="145,88 140,12 165,82" fill="#264e26" stroke="#2d263c" stroke-width="6" stroke-linejoin="round"/>
  <!-- 背中トゲ4(中央) -->
  <polygon points="175,80 178,8 200,78" fill="#1e4a1e" stroke="#2d263c" stroke-width="6" stroke-linejoin="round"/>
  <!-- 背中トゲ5(中央右) -->
  <polygon points="205,88 218,14 225,84" fill="#264e26" stroke="#2d263c" stroke-width="6" stroke-linejoin="round"/>
  <!-- 背中トゲ6(右中) -->
  <polygon points="235,102 252,20 258,96" fill="#1e4a1e" stroke="#2d263c" stroke-width="6" stroke-linejoin="round"/>
  <!-- 背中トゲ7(右後ろ) -->
  <polygon points="258,122 278,45 282,118" fill="#1e4a1e" stroke="#2d263c" stroke-width="6" stroke-linejoin="round"/>

  <!-- 後ろ足(左) -->
  <ellipse cx="118" cy="292" rx="34" ry="22" fill="#3a6b3a" stroke="#2d263c" stroke-width="7" stroke-linejoin="round"/>
  <!-- 後ろ足(右) -->
  <ellipse cx="248" cy="296" rx="34" ry="22" fill="#3a6b3a" stroke="#2d263c" stroke-width="7" stroke-linejoin="round"/>

  <!-- 体の本体 -->
  <ellipse cx="180" cy="240" rx="92" ry="82" fill="#3a6b3a" stroke="#2d263c" stroke-width="8" stroke-linejoin="round"/>

  <!-- 腹(クリーム色) -->
  <ellipse cx="180" cy="256" rx="58" ry="58" fill="#e8d89a" stroke="#2d263c" stroke-width="6" stroke-linejoin="round"/>
  <!-- 腹の模様(少し暗め) -->
  <ellipse cx="180" cy="268" rx="40" ry="40" fill="#d4c47a" stroke="none"/>

  <!-- 前足(左) - 太くて短い -->
  <rect x="85" y="248" width="44" height="52" rx="18" fill="#3a6b3a" stroke="#2d263c" stroke-width="7" stroke-linejoin="round"/>
  <!-- 左肩トゲ -->
  <polygon points="88,248 68,188 108,240" fill="#1e4a1e" stroke="#2d263c" stroke-width="6" stroke-linejoin="round"/>
  <!-- 左手のひら -->
  <ellipse cx="107" cy="308" rx="28" ry="16" fill="#2d5e2d" stroke="#2d263c" stroke-width="6" stroke-linejoin="round"/>

  <!-- 前足(右) -->
  <rect x="231" y="248" width="44" height="52" rx="18" fill="#3a6b3a" stroke="#2d263c" stroke-width="7" stroke-linejoin="round"/>
  <!-- 右肩トゲ -->
  <polygon points="272,248 292,190 252,240" fill="#1e4a1e" stroke="#2d263c" stroke-width="6" stroke-linejoin="round"/>
  <!-- 右手のひら -->
  <ellipse cx="253" cy="308" rx="28" ry="16" fill="#2d5e2d" stroke="#2d263c" stroke-width="6" stroke-linejoin="round"/>

  <!-- しっぽ(短い) -->
  <ellipse cx="180" cy="328" rx="20" ry="12" fill="#2d5e2d" stroke="#2d263c" stroke-width="6" stroke-linejoin="round"/>

  <!-- 首/頭の土台 -->
  <ellipse cx="180" cy="178" rx="54" ry="48" fill="#5a8f5a" stroke="#2d263c" stroke-width="8" stroke-linejoin="round"/>

  <!-- 頭のトゲフード(白いトゲ状) -->
  <!-- フード左 -->
  <polygon points="134,168 122,120 156,162" fill="#e8e8d0" stroke="#2d263c" stroke-width="6" stroke-linejoin="round"/>
  <!-- フード中央左 -->
  <polygon points="155,155 148,102 175,152" fill="#f0f0e0" stroke="#2d263c" stroke-width="6" stroke-linejoin="round"/>
  <!-- フード中央 -->
  <polygon points="180,150 178,95 202,150" fill="#e8e8d0" stroke="#2d263c" stroke-width="6" stroke-linejoin="round"/>
  <!-- フード中央右 -->
  <polygon points="204,155 212,103 225,155" fill="#f0f0e0" stroke="#2d263c" stroke-width="6" stroke-linejoin="round"/>
  <!-- フード右 -->
  <polygon points="224,168 240,122 208,162" fill="#e8e8d0" stroke="#2d263c" stroke-width="6" stroke-linejoin="round"/>

  <!-- 顔の地肌 -->
  <ellipse cx="180" cy="182" rx="42" ry="40" fill="#7ab87a" stroke="#2d263c" stroke-width="7" stroke-linejoin="round"/>

  <!-- 目(左) つり上がった強面 -->
  <ellipse cx="162" cy="174" rx="11" ry="9" fill="#1a1a2e" stroke="#2d263c" stroke-width="4"/>
  <ellipse cx="164" cy="173" rx="4" ry="3" fill="#ffffff"/>
  <!-- 眉(左) つり上がり -->
  <path d="M148,162 Q162,155 170,160" fill="none" stroke="#1e4a1e" stroke-width="6" stroke-linecap="round"/>

  <!-- 目(右) -->
  <ellipse cx="198" cy="174" rx="11" ry="9" fill="#1a1a2e" stroke="#2d263c" stroke-width="4"/>
  <ellipse cx="200" cy="173" rx="4" ry="3" fill="#ffffff"/>
  <!-- 眉(右) つり上がり -->
  <path d="M192,160 Q198,155 212,162" fill="none" stroke="#1e4a1e" stroke-width="6" stroke-linecap="round"/>

  <!-- 鼻(丸い) -->
  <ellipse cx="180" cy="188" rx="9" ry="7" fill="#2d5e2d" stroke="#2d263c" stroke-width="4"/>
  <ellipse cx="177" cy="186" rx="2.5" ry="2" fill="#4a8a4a"/>

  <!-- 口(強面だけどちょっとゆるい) -->
  <path d="M166,198 Q180,208 194,198" fill="none" stroke="#2d263c" stroke-width="5" stroke-linecap="round"/>

  <!-- ほっぺ(少し赤み) -->
  <ellipse cx="150" cy="190" rx="10" ry="7" fill="#c88a8a" opacity="0.5"/>
  <ellipse cx="210" cy="190" rx="10" ry="7" fill="#c88a8a" opacity="0.5"/>
</svg>