<svg xmlns="http://www.w3.org/2000/svg" viewBox="0 0 360 360">
<g id="mega-burst"><circle cx="180" cy="180" r="172" fill="#fff3c0"/><polygon points="180,180 450.0,180.0 444.8,232.7" fill="#ffd96b"/><polygon points="180,180 429.4,283.3 404.5,330.0" fill="#ffb13d"/><polygon points="180,180 370.9,370.9 330.0,404.5" fill="#ffd96b"/><polygon points="180,180 283.3,429.4 232.7,444.8" fill="#ffb13d"/><polygon points="180,180 180.0,450.0 127.3,444.8" fill="#ffd96b"/><polygon points="180,180 76.7,429.4 30.0,404.5" fill="#ffb13d"/><polygon points="180,180 -10.9,370.9 -44.5,330.0" fill="#ffd96b"/><polygon points="180,180 -69.4,283.3 -84.8,232.7" fill="#ffb13d"/><polygon points="180,180 -90.0,180.0 -84.8,127.3" fill="#ffd96b"/><polygon points="180,180 -69.4,76.7 -44.5,30.0" fill="#ffb13d"/><polygon points="180,180 -10.9,-10.9 30.0,-44.5" fill="#ffd96b"/><polygon points="180,180 76.7,-69.4 127.3,-84.8" fill="#ffb13d"/><polygon points="180,180 180.0,-90.0 232.7,-84.8" fill="#ffd96b"/><polygon points="180,180 283.3,-69.4 330.0,-44.5" fill="#ffb13d"/><polygon points="180,180 370.9,-10.9 404.5,30.0" fill="#ffd96b"/><polygon points="180,180 429.4,76.7 444.8,127.3" fill="#ffb13d"/><circle cx="180" cy="180" r="120" fill="#fff3c0" opacity="0.55"/></g>
  <!-- Mega Lucario - kid-drawing style -->
  
  <!-- Back aura frills (4 petals behind body) -->
  <ellipse cx="130" cy="160" rx="32" ry="16" fill="#5bc8e8" stroke="#2d263c" stroke-width="6" stroke-linejoin="round" transform="rotate(-40 130 160)"/>
  <ellipse cx="230" cy="155" rx="32" ry="16" fill="#5bc8e8" stroke="#2d263c" stroke-width="6" stroke-linejoin="round" transform="rotate(40 230 155)"/>
  <ellipse cx="145" cy="215" rx="28" ry="14" fill="#5bc8e8" stroke="#2d263c" stroke-width="6" stroke-linejoin="round" transform="rotate(-55 145 215)"/>
  <ellipse cx="218" cy="210" rx="28" ry="14" fill="#5bc8e8" stroke="#2d263c" stroke-width="6" stroke-linejoin="round" transform="rotate(55 218 210)"/>

  <!-- Tail -->
  <path d="M185 290 Q210 310 225 340 Q215 345 205 338 Q195 318 175 298 Z" fill="#1a2040" stroke="#2d263c" stroke-width="7" stroke-linejoin="round"/>

  <!-- Body (torso) -->
  <path d="M130 185 Q125 250 135 295 Q160 310 185 310 Q210 310 225 295 Q235 250 230 185 Q210 170 180 168 Q150 170 130 185 Z" fill="#1a2040" stroke="#2d263c" stroke-width="8" stroke-linejoin="round"/>

  <!-- Belly/chest lighter area -->
  <ellipse cx="182" cy="240" rx="30" ry="42" fill="#4a6fa5" stroke="#2d263c" stroke-width="5" stroke-linejoin="round"/>

  <!-- Left leg -->
  <path d="M143 292 Q135 318 128 338 Q142 345 150 340 Q155 322 158 298 Z" fill="#1a2040" stroke="#2d263c" stroke-width="7" stroke-linejoin="round"/>
  <!-- Left foot spike -->
  <polygon points="128,338 122,352 138,346 150,340" fill="#4a6fa5" stroke="#2d263c" stroke-width="5" stroke-linejoin="round"/>

  <!-- Right leg -->
  <path d="M222 292 Q230 318 234 338 Q222 345 212 340 Q208 322 205 298 Z" fill="#1a2040" stroke="#2d263c" stroke-width="7" stroke-linejoin="round"/>
  <!-- Right foot spike -->
  <polygon points="234,338 240,352 224,346 212,340" fill="#4a6fa5" stroke="#2d263c" stroke-width="5" stroke-linejoin="round"/>

  <!-- Left arm -->
  <path d="M133 190 Q110 200 100 220 Q95 240 108 255 Q115 260 122 252 Q115 240 118 225 Q130 215 140 205 Z" fill="#1a2040" stroke="#2d263c" stroke-width="7" stroke-linejoin="round"/>
  <!-- Left hand spike (back of hand) -->
  <polygon points="100,228 85,220 90,240 108,248" fill="#4a6fa5" stroke="#2d263c" stroke-width="5" stroke-linejoin="round"/>

  <!-- Right arm -->
  <path d="M227 190 Q250 200 262 220 Q267 240 254 255 Q247 260 240 252 Q247 240 244 225 Q232 215 222 205 Z" fill="#1a2040" stroke="#2d263c" stroke-width="7" stroke-linejoin="round"/>
  <!-- Right hand spike -->
  <polygon points="262,228 277,220 272,240 254,248" fill="#4a6fa5" stroke="#2d263c" stroke-width="5" stroke-linejoin="round"/>

  <!-- Neck -->
  <rect x="165" y="155" width="30" height="28" rx="8" fill="#1a2040" stroke="#2d263c" stroke-width="6"/>

  <!-- Head base -->
  <ellipse cx="182" cy="120" rx="52" ry="48" fill="#1a2040" stroke="#2d263c" stroke-width="8" stroke-linejoin="round"/>

  <!-- Left ear -->
  <path d="M145 90 Q132 52 138 30 Q148 25 156 35 Q155 60 158 85 Z" fill="#1a2040" stroke="#2d263c" stroke-width="7" stroke-linejoin="round"/>
  <!-- Left ear curl tip -->
  <path d="M138 30 Q148 22 158 32 Q156 42 146 38 Z" fill="#4a6fa5" stroke="#2d263c" stroke-width="4"/>

  <!-- Right ear -->
  <path d="M218 88 Q230 50 226 28 Q216 23 208 33 Q208 58 206 83 Z" fill="#1a2040" stroke="#2d263c" stroke-width="7" stroke-linejoin="round"/>
  <!-- Right ear curl tip -->
  <path d="M226 28 Q216 20 206 30 Q208 40 218 36 Z" fill="#4a6fa5" stroke="#2d263c" stroke-width="4"/>

  <!-- Mega horns on forehead (2 short protruding spikes) -->
  <path d="M168 82 Q162 65 170 55 Q178 62 174 80 Z" fill="#8ab4d4" stroke="#2d263c" stroke-width="5" stroke-linejoin="round"/>
  <path d="M196 80 Q193 63 201 54 Q209 61 204 79 Z" fill="#8ab4d4" stroke="#2d263c" stroke-width="5" stroke-linejoin="round"/>

  <!-- Face - lighter snout area -->
  <ellipse cx="182" cy="128" rx="35" ry="28" fill="#4a6fa5" stroke="#2d263c" stroke-width="5" stroke-linejoin="round"/>

  <!-- Chin yellow marking -->
  <ellipse cx="182" cy="148" rx="16" ry="10" fill="#e8c840" stroke="#2d263c" stroke-width="4" stroke-linejoin="round"/>

  <!-- Left eye - sharp, fierce -->
  <path d="M152 108 Q155 100 168 102 Q170 112 163 116 Q154 114 152 108 Z" fill="#e8d820" stroke="#2d263c" stroke-width="4" stroke-linejoin="round"/>
  <!-- Left pupil -->
  <ellipse cx="161" cy="109" rx="5" ry="6" fill="#1a2040"/>

  <!-- Right eye - sharp, fierce (slightly asymmetric, kid drawing style) -->
  <path d="M196 107 Q199 99 213 101 Q216 111 210 116 Q198 115 196 107 Z" fill="#e8d820" stroke="#2d263c" stroke-width="4" stroke-linejoin="round"/>
  <!-- Right pupil -->
  <ellipse cx="206" cy="108" rx="5" ry="6" fill="#1a2040"/>

  <!-- Eye glint -->
  <circle cx="164" cy="107" r="2" fill="white"/>
  <circle cx="209" cy="106" r="2" fill="white"/>

  <!-- Nose dots -->
  <circle cx="177" cy="124" r="3" fill="#2d263c"/>
  <circle cx="187" cy="123" r="3" fill="#2d263c"/>

  <!-- Serious mouth line -->
  <path d="M172 136 Q182 139 193 136" fill="none" stroke="#2d263c" stroke-width="4" stroke-linecap="round"/>

  <!-- Aura spots on shoulders/arms (deco) -->
  <circle cx="143" cy="196" r="6" fill="#5bc8e8" stroke="#2d263c" stroke-width="3"/>
  <circle cx="220" cy="194" r="6" fill="#5bc8e8" stroke="#2d263c" stroke-width="3"/>

</svg>