<svg xmlns="http://www.w3.org/2000/svg" viewBox="0 0 360 360">
  <g stroke="#2d263c" stroke-width="7" stroke-linejoin="round" stroke-linecap="round">
    <path d="M158 190 Q92 168 44 110 Q74 114 96 128 Q80 96 76 62 Q116 96 134 136 Q146 164 160 184 Z" fill="#ffb14e"/>
    <path d="M212 188 Q280 162 322 104 Q292 110 270 124 Q288 92 290 58 Q250 94 234 134 Q224 162 210 184 Z" fill="#ffb14e"/>
    <path d="M152 200 Q110 210 78 246 Q104 242 120 234 Q116 252 118 266 Q142 240 154 214 Z" fill="#ffc36b"/>
    <path d="M218 198 Q262 206 294 240 Q268 236 252 230 Q258 248 256 262 Q232 238 220 212 Z" fill="#ffc36b"/>
    <path d="M146 142 C122 124 112 92 118 58 C120 42 128 30 136 24 C142 40 144 56 141 68 L158 60 L150 82 L166 76 L158 100 C160 116 168 128 176 138 Z" fill="#eee8da"/>
    <path d="M222 140 C248 120 260 88 252 52 C250 38 242 28 234 24 C228 40 226 56 230 68 L213 60 L221 82 L205 76 L213 100 C210 116 202 128 194 138 Z" fill="#eee8da"/>
    <path d="M137 112 C128 96 126 74 132 52 C137 66 139 86 143 102 Z" fill="#f7c844" stroke="none"/>
    <path d="M233 110 C242 94 244 70 238 48 C233 62 231 84 227 100 Z" fill="#f7c844" stroke="none"/>
    <path d="M168 300 L158 336 L178 332 L184 304 Z" fill="#aa7c50"/>
    <path d="M204 304 L208 336 L228 330 L216 300 Z" fill="#aa7c50"/>
    <path d="M158 336 L141 329 L160 321 Z" fill="#d8d2c4" stroke-width="6"/>
    <path d="M228 330 L244 320 L224 316 Z" fill="#d8d2c4" stroke-width="6"/>
    <path d="M150 196 Q118 206 102 236 Q96 250 102 262 L122 254 Q134 234 148 222 Z" fill="#aa7c50"/>
    <path d="M220 194 Q252 202 268 230 Q276 246 270 258 L250 252 Q238 232 224 220 Z" fill="#aa7c50"/>
    <path d="M104 258 L66 296 L96 286 L92 312 L118 268 Z" fill="#e8e2d4"/>
    <path d="M268 254 L304 290 L276 282 L282 308 L252 264 Z" fill="#e8e2d4"/>
    <path d="M152 188 Q136 220 142 258 Q148 292 170 304 L204 304 Q224 290 228 256 Q232 218 218 188 Z" fill="#aa7c50"/>
    <path d="M148 234 Q184 246 224 232" fill="none" stroke-width="6"/>
    <path d="M152 268 Q184 278 220 266" fill="none" stroke-width="6"/>
    <circle cx="150" cy="196" r="8" fill="#f7c844" stroke-width="6"/>
    <circle cx="221" cy="193" r="8" fill="#f7c844" stroke-width="6"/>
    <path d="M150 142 Q144 186 166 198 Q185 208 206 196 Q226 186 222 142 Q204 128 184 130 Q164 130 150 142 Z" fill="#aa7c50"/>
    <path d="M160 158 Q170 146 182 154 Q181 168 169 169 Q159 166 160 158 Z" fill="#ffd23f" stroke-width="6"/>
    <path d="M211 156 Q201 145 190 153 Q191 167 202 168 Q212 164 211 156 Z" fill="#ffd23f" stroke-width="6"/>
    <circle cx="172" cy="159" r="3.5" fill="#2d263c" stroke="none"/>
    <circle cx="199" cy="158" r="3.5" fill="#2d263c" stroke="none"/>
    <path d="M163 182 L171 175 L177 184 L185 175 L192 184 L200 175 L207 183 Q197 195 184 195 Q171 193 163 182 Z" fill="#fff4e6" stroke-width="6"/>
  </g>
</svg>