<svg xmlns="http://www.w3.org/2000/svg" viewBox="0 0 360 360"><g stroke="#2d263c" stroke-width="7" stroke-linejoin="round" stroke-linecap="round"><path d="M150 122 Q134 92 121 78" fill="none"/><path d="M210 120 Q229 93 241 76" fill="none"/><circle cx="117" cy="71" r="11" fill="#35508f"/><circle cx="246" cy="68" r="13" fill="#35508f"/><path d="M156 145 L141 96 L127 38 L149 61 L166 29 L181 58 L197 26 L212 57 L233 37 L219 97 L206 146 Z" fill="#35508f"/><ellipse cx="92" cy="216" rx="34" ry="49" fill="#35508f" transform="rotate(16 92 216)"/><ellipse cx="268" cy="211" rx="35" ry="47" fill="#35508f" transform="rotate(-11 268 211)"/><path d="M140 298 L131 333 L157 335 L159 301 Z" fill="#35508f"/><path d="M213 299 L212 335 L237 331 L224 297 Z" fill="#35508f"/><ellipse cx="180" cy="254" rx="63" ry="58" fill="#35508f"/><path d="M181 302 Q177 272 181 248" fill="none"/><circle cx="89" cy="199" r="10" fill="#f2a33c"/><circle cx="99" cy="229" r="8" fill="#f2a33c"/><circle cx="271" cy="194" r="11" fill="#f2a33c"/><circle cx="261" cy="225" r="8" fill="#f2a33c"/><path d="M120 176 Q117 130 180 126 Q245 129 242 179 Q239 211 180 215 Q122 212 120 176 Z" fill="#35508f"/><ellipse cx="181" cy="146" rx="17" ry="10" fill="#f2a33c"/><path d="M134 169 Q150 157 163 172 Q153 185 136 181 Z" fill="#ffd34d"/><path d="M227 166 Q210 155 198 170 Q208 184 225 179 Z" fill="#ffd34d"/><path d="M180 168 L167 193 Q180 202 193 192 Z" fill="#35508f"/><path d="M159 207 Q181 216 203 205" fill="none"/></g></svg>