<svg xmlns="http://www.w3.org/2000/svg" viewBox="0 0 360 360">
<g id="mega-burst"><circle cx="180" cy="180" r="172" fill="#fff3c0"/><polygon points="180,180 450.0,180.0 444.8,232.7" fill="#ffd96b"/><polygon points="180,180 429.4,283.3 404.5,330.0" fill="#ffb13d"/><polygon points="180,180 370.9,370.9 330.0,404.5" fill="#ffd96b"/><polygon points="180,180 283.3,429.4 232.7,444.8" fill="#ffb13d"/><polygon points="180,180 180.0,450.0 127.3,444.8" fill="#ffd96b"/><polygon points="180,180 76.7,429.4 30.0,404.5" fill="#ffb13d"/><polygon points="180,180 -10.9,370.9 -44.5,330.0" fill="#ffd96b"/><polygon points="180,180 -69.4,283.3 -84.8,232.7" fill="#ffb13d"/><polygon points="180,180 -90.0,180.0 -84.8,127.3" fill="#ffd96b"/><polygon points="180,180 -69.4,76.7 -44.5,30.0" fill="#ffb13d"/><polygon points="180,180 -10.9,-10.9 30.0,-44.5" fill="#ffd96b"/><polygon points="180,180 76.7,-69.4 127.3,-84.8" fill="#ffb13d"/><polygon points="180,180 180.0,-90.0 232.7,-84.8" fill="#ffd96b"/><polygon points="180,180 283.3,-69.4 330.0,-44.5" fill="#ffb13d"/><polygon points="180,180 370.9,-10.9 404.5,30.0" fill="#ffd96b"/><polygon points="180,180 429.4,76.7 444.8,127.3" fill="#ffb13d"/><circle cx="180" cy="180" r="120" fill="#fff3c0" opacity="0.55"/></g>

  <!-- 影 -->
  <ellipse cx="180" cy="332" rx="130" ry="15" fill="#00000022"/>

  <!-- コーナークロー 左上 (3本) -->
  <polygon points="76,120 32,68 72,110" fill="#506070" stroke="#2d263c" stroke-width="6" stroke-linejoin="round" stroke-linecap="round"/>
  <polygon points="90,106 50,50 86,97" fill="#506070" stroke="#2d263c" stroke-width="6" stroke-linejoin="round" stroke-linecap="round"/>
  <polygon points="106,97 74,42 104,89" fill="#506070" stroke="#2d263c" stroke-width="6" stroke-linejoin="round" stroke-linecap="round"/>

  <!-- コーナークロー 右上 (3本) -->
  <polygon points="284,120 328,68 288,110" fill="#506070" stroke="#2d263c" stroke-width="6" stroke-linejoin="round" stroke-linecap="round"/>
  <polygon points="270,106 310,50 274,97" fill="#506070" stroke="#2d263c" stroke-width="6" stroke-linejoin="round" stroke-linecap="round"/>
  <polygon points="254,97 286,42 256,89" fill="#506070" stroke="#2d263c" stroke-width="6" stroke-linejoin="round" stroke-linecap="round"/>

  <!-- 脚 後ろ2本 -->
  <path d="M108,264 Q84,282 82,306 Q96,314 108,308 Q118,296 122,278" fill="#405060" stroke="#2d263c" stroke-width="7" stroke-linejoin="round" stroke-linecap="round"/>
  <path d="M252,264 Q276,282 278,306 Q264,314 252,308 Q242,296 238,278" fill="#405060" stroke="#2d263c" stroke-width="7" stroke-linejoin="round" stroke-linecap="round"/>

  <!-- 脚 前2本 -->
  <path d="M132,273 Q110,292 108,315 Q122,322 134,316 Q140,302 144,284" fill="#506070" stroke="#2d263c" stroke-width="7" stroke-linejoin="round" stroke-linecap="round"/>
  <path d="M228,273 Q250,292 252,315 Q238,322 226,316 Q220,302 216,284" fill="#506070" stroke="#2d263c" stroke-width="7" stroke-linejoin="round" stroke-linecap="round"/>

  <!-- 体 (大きな銀灰ディスク) -->
  <path d="M72,198 Q70,155 100,133 Q132,112 180,110 Q228,112 260,133 Q290,155 288,198 Q286,248 258,270 Q225,287 180,288 Q135,287 102,270 Q74,248 72,198 Z" fill="#7090A0" stroke="#2d263c" stroke-width="9" stroke-linejoin="round"/>

  <!-- 体の十字溝 (+) -->
  <line x1="72" y1="198" x2="288" y2="198" stroke="#506070" stroke-width="5" stroke-linecap="round"/>
  <line x1="180" y1="110" x2="180" y2="288" stroke="#506070" stroke-width="5" stroke-linecap="round"/>

  <!-- 顔のXマーク (赤い斜め2線) -->
  <line x1="106" y1="136" x2="256" y2="264" stroke="#C03030" stroke-width="10" stroke-linecap="round"/>
  <line x1="256" y1="136" x2="106" y2="264" stroke="#C03030" stroke-width="10" stroke-linecap="round"/>

  <!-- 目 左 (白目 + 赤目 + ハイライト) -->
  <ellipse cx="140" cy="156" rx="25" ry="25" fill="white" stroke="#2d263c" stroke-width="5" stroke-linejoin="round" stroke-linecap="round"/>
  <ellipse cx="140" cy="156" rx="17" ry="17" fill="#FF2020"/>
  <circle cx="147" cy="149" r="6" fill="white"/>

  <!-- 目 右 -->
  <ellipse cx="220" cy="156" rx="25" ry="25" fill="white" stroke="#2d263c" stroke-width="5" stroke-linejoin="round" stroke-linecap="round"/>
  <ellipse cx="220" cy="156" rx="17" ry="17" fill="#FF2020"/>
  <circle cx="227" cy="149" r="6" fill="white"/>

  <!-- メガゴールドライン (輪郭沿い) -->
  <path d="M102,122 Q140,108 180,106 Q220,108 258,122" fill="none" stroke="#D0A020" stroke-width="5" stroke-linecap="round"/>
  <path d="M102,276 Q140,290 180,292 Q220,290 258,276" fill="none" stroke="#D0A020" stroke-width="5" stroke-linecap="round"/>
  <line x1="80" y1="148" x2="80" y2="250" stroke="#D0A020" stroke-width="5" stroke-linecap="round"/>
  <line x1="280" y1="148" x2="280" y2="250" stroke="#D0A020" stroke-width="5" stroke-linecap="round"/>

  <!-- メガ追加ブレード (左右) -->
  <polygon points="70,182 26,164 70,202" fill="#D0A020" stroke="#2d263c" stroke-width="5" stroke-linejoin="round" stroke-linecap="round"/>
  <polygon points="290,182 334,164 290,202" fill="#D0A020" stroke="#2d263c" stroke-width="5" stroke-linejoin="round" stroke-linecap="round"/>

</svg>
