<svg xmlns="http://www.w3.org/2000/svg" viewBox="0 0 360 360">

  <!-- 尻尾 -->
  <ellipse cx="285" cy="255" rx="22" ry="16" fill="#5090D8" stroke="#2d263c" stroke-width="7" stroke-linejoin="round"/>

  <!-- 左足 -->
  <ellipse cx="130" cy="308" rx="32" ry="22" fill="#5090D8" stroke="#2d263c" stroke-width="7" stroke-linejoin="round"/>
  <!-- 左足指 -->
  <ellipse cx="108" cy="322" rx="11" ry="8" fill="#5090D8" stroke="#2d263c" stroke-width="6" stroke-linejoin="round"/>
  <ellipse cx="130" cy="326" rx="11" ry="8" fill="#5090D8" stroke="#2d263c" stroke-width="6" stroke-linejoin="round"/>
  <ellipse cx="152" cy="322" rx="11" ry="8" fill="#5090D8" stroke="#2d263c" stroke-width="6" stroke-linejoin="round"/>

  <!-- 右足 -->
  <ellipse cx="230" cy="308" rx="32" ry="22" fill="#5090D8" stroke="#2d263c" stroke-width="7" stroke-linejoin="round"/>
  <ellipse cx="208" cy="322" rx="11" ry="8" fill="#5090D8" stroke="#2d263c" stroke-width="6" stroke-linejoin="round"/>
  <ellipse cx="230" cy="326" rx="11" ry="8" fill="#5090D8" stroke="#2d263c" stroke-width="6" stroke-linejoin="round"/>
  <ellipse cx="252" cy="322" rx="11" ry="8" fill="#5090D8" stroke="#2d263c" stroke-width="6" stroke-linejoin="round"/>

  <!-- 体 -->
  <ellipse cx="180" cy="245" rx="90" ry="80" fill="#5090D8" stroke="#2d263c" stroke-width="8" stroke-linejoin="round"/>

  <!-- 腹 -->
  <ellipse cx="180" cy="258" rx="55" ry="52" fill="#F5E8C0" stroke="#2d263c" stroke-width="6" stroke-linejoin="round"/>
  <!-- 腹の横縞模様 -->
  <path d="M138,242 Q180,238 222,242" fill="none" stroke="#D4C090" stroke-width="4" stroke-linecap="round"/>
  <path d="M133,258 Q180,254 227,258" fill="none" stroke="#D4C090" stroke-width="4" stroke-linecap="round"/>
  <path d="M138,274 Q180,270 222,274" fill="none" stroke="#D4C090" stroke-width="4" stroke-linecap="round"/>

  <!-- 甲羅 -->
  <ellipse cx="180" cy="230" rx="96" ry="88" fill="#8B6914" stroke="#2d263c" stroke-width="8" stroke-linejoin="round"/>
  <!-- 甲羅の亀甲模様 -->
  <polygon points="180,158 197,170 197,190 180,200 163,190 163,170" fill="none" stroke="#6B4F10" stroke-width="4"/>
  <polygon points="205,175 222,187 222,207 205,217 188,207 188,187" fill="none" stroke="#6B4F10" stroke-width="3.5"/>
  <polygon points="155,175 172,187 172,207 155,217 138,207 138,187" fill="none" stroke="#6B4F10" stroke-width="3.5"/>
  <polygon points="180,195 197,207 197,227 180,237 163,227 163,207" fill="none" stroke="#6B4F10" stroke-width="3.5"/>

  <!-- 甲羅の縁ハイライト -->
  <path d="M100,210 Q180,155 260,210" fill="none" stroke="#A88020" stroke-width="5" stroke-linecap="round"/>

  <!-- 左腕 -->
  <ellipse cx="96" cy="255" rx="28" ry="22" fill="#5090D8" stroke="#2d263c" stroke-width="7" stroke-linejoin="round" transform="rotate(-15,96,255)"/>
  <!-- 左手指 -->
  <ellipse cx="72" cy="268" rx="10" ry="8" fill="#5090D8" stroke="#2d263c" stroke-width="6" stroke-linejoin="round"/>
  <ellipse cx="84" cy="278" rx="10" ry="8" fill="#5090D8" stroke="#2d263c" stroke-width="6" stroke-linejoin="round"/>
  <ellipse cx="98" cy="282" rx="10" ry="8" fill="#5090D8" stroke="#2d263c" stroke-width="6" stroke-linejoin="round"/>

  <!-- 右腕 -->
  <ellipse cx="264" cy="255" rx="28" ry="22" fill="#5090D8" stroke="#2d263c" stroke-width="7" stroke-linejoin="round" transform="rotate(15,264,255)"/>
  <!-- 右手指 -->
  <ellipse cx="262" cy="282" rx="10" ry="8" fill="#5090D8" stroke="#2d263c" stroke-width="6" stroke-linejoin="round"/>
  <ellipse cx="276" cy="278" rx="10" ry="8" fill="#5090D8" stroke="#2d263c" stroke-width="6" stroke-linejoin="round"/>
  <ellipse cx="288" cy="268" rx="10" ry="8" fill="#5090D8" stroke="#2d263c" stroke-width="6" stroke-linejoin="round"/>

  <!-- 左砲身(甲羅左から斜めに出る) -->
  <rect x="42" y="178" width="52" height="22" rx="10" ry="10" fill="#4A4A5A" stroke="#2d263c" stroke-width="7" stroke-linejoin="round" transform="rotate(-25,68,189)"/>
  <!-- 左砲口 -->
  <ellipse cx="33" cy="162" rx="14" ry="11" fill="#2A2A38" stroke="#2d263c" stroke-width="7" stroke-linejoin="round"/>

  <!-- 右砲身(甲羅右から斜めに出る) -->
  <rect x="266" y="178" width="52" height="22" rx="10" ry="10" fill="#4A4A5A" stroke="#2d263c" stroke-width="7" stroke-linejoin="round" transform="rotate(25,292,189)"/>
  <!-- 右砲口 -->
  <ellipse cx="327" cy="162" rx="14" ry="11" fill="#2A2A38" stroke="#2d263c" stroke-width="7" stroke-linejoin="round"/>

  <!-- 首 -->
  <rect x="158" y="148" width="44" height="30" rx="14" fill="#5090D8" stroke="#2d263c" stroke-width="7" stroke-linejoin="round"/>

  <!-- 頭 -->
  <ellipse cx="180" cy="124" rx="62" ry="55" fill="#5090D8" stroke="#2d263c" stroke-width="8" stroke-linejoin="round"/>

  <!-- 左目 -->
  <ellipse cx="154" cy="112" rx="16" ry="14" fill="white" stroke="#2d263c" stroke-width="6" stroke-linejoin="round"/>
  <ellipse cx="157" cy="113" rx="9" ry="9" fill="#E03020" stroke="#2d263c" stroke-width="3"/>
  <ellipse cx="160" cy="110" rx="4" ry="4" fill="#1a1020"/>
  <ellipse cx="162" cy="108" rx="2" ry="2" fill="white"/>

  <!-- 右目 -->
  <ellipse cx="206" cy="112" rx="16" ry="14" fill="white" stroke="#2d263c" stroke-width="6" stroke-linejoin="round"/>
  <ellipse cx="203" cy="113" rx="9" ry="9" fill="#E03020" stroke="#2d263c" stroke-width="3"/>
  <ellipse cx="200" cy="110" rx="4" ry="4" fill="#1a1020"/>
  <ellipse cx="198" cy="108" rx="2" ry="2" fill="white"/>

  <!-- 太眉左 -->
  <path d="M140,100 Q153,92 168,98" fill="none" stroke="#2d263c" stroke-width="8" stroke-linecap="round"/>
  <!-- 太眉右 -->
  <path d="M192,98 Q207,92 220,100" fill="none" stroke="#2d263c" stroke-width="8" stroke-linecap="round"/>

  <!-- 口(ニヤリ系) -->
  <path d="M160,140 Q180,152 200,140" fill="none" stroke="#2d263c" stroke-width="7" stroke-linecap="round"/>

  <!-- 口の左牙 -->
  <polygon points="160,143 152,155 165,150" fill="white" stroke="#2d263c" stroke-width="5" stroke-linejoin="round"/>
  <!-- 口の右牙 -->
  <polygon points="200,143 208,155 195,150" fill="white" stroke="#2d263c" stroke-width="5" stroke-linejoin="round"/>

  <!-- 鼻孔 -->
  <ellipse cx="172" cy="130" rx="5" ry="4" fill="#3A70B0"/>
  <ellipse cx="188" cy="130" rx="5" ry="4" fill="#3A70B0"/>

</svg>