<svg xmlns="http://www.w3.org/2000/svg" viewBox="0 0 360 360">
  <g stroke="#2d263c" stroke-linejoin="round" stroke-linecap="round">
    <path d="M160 142 C122 100 76 70 58 84 C42 98 86 146 148 160 Z" fill="#e9f4fb" stroke-width="6"/>
    <path d="M204 138 C238 84 300 50 316 68 C330 86 272 148 212 158 Z" fill="#e9f4fb" stroke-width="6"/>
    <path d="M86 196 C100 188 120 202 126 218 L78 298 C66 262 72 214 86 196 Z" fill="#dfdce9" stroke-width="7"/>
    <path d="M276 194 C262 186 242 200 236 216 L284 296 C296 260 290 212 276 194 Z" fill="#dfdce9" stroke-width="7"/>
    <path d="M98 216 L86 268" fill="none" stroke-width="5"/>
    <path d="M264 214 L276 266" fill="none" stroke-width="5"/>
    <path d="M160 280 C150 296 142 306 132 316" fill="none" stroke-width="7"/>
    <path d="M204 282 C216 298 226 308 236 316" fill="none" stroke-width="7"/>
    <path d="M138 308 L122 336 L148 322 Z" fill="#eceaf2" stroke-width="5"/>
    <path d="M228 308 L248 336 L246 308 Z" fill="#eceaf2" stroke-width="5"/>
    <path d="M180 192 C146 198 130 228 136 262 C141 290 160 308 178 314 C198 309 218 294 226 264 C234 230 218 198 180 192 Z" fill="#f6d33c" stroke-width="7"/>
    <path d="M134 226 C158 238 206 238 228 224 L229 242 C206 254 156 254 136 242 Z" fill="#2d263c" stroke="none"/>
    <path d="M140 266 C162 278 202 278 222 264 L216 284 C198 295 164 295 148 284 Z" fill="#2d263c" stroke="none"/>
    <path d="M165 304 C170 320 176 331 182 339 C188 328 194 316 198 302 Z" fill="#eceaf2" stroke-width="6"/>
    <path d="M180 138 C152 138 138 152 140 172 C142 192 160 200 181 200 C202 200 218 190 220 170 C221 151 207 138 180 138 Z" fill="#f6d33c" stroke-width="7"/>
    <path d="M140 172 C128 180 118 190 110 204" fill="none" stroke-width="8"/>
    <path d="M222 170 C234 178 244 188 252 202" fill="none" stroke-width="8"/>
    <circle cx="142" cy="166" r="13" fill="#f6d33c" stroke-width="6"/>
    <circle cx="220" cy="164" r="14" fill="#f6d33c" stroke-width="6"/>
    <path d="M164 60 C158 42 142 30 126 34" fill="none" stroke-width="6"/>
    <path d="M198 58 C206 38 224 30 242 38" fill="none" stroke-width="6"/>
    <path d="M148 70 C138 92 142 116 162 128 C172 134 190 134 200 127 C220 114 222 90 212 68 C202 52 158 52 148 70 Z" fill="#f6d33c" stroke-width="7"/>
    <ellipse cx="165" cy="98" rx="11" ry="16" transform="rotate(18 165 98)" fill="#e0413f" stroke-width="5"/>
    <ellipse cx="198" cy="96" rx="12" ry="17" transform="rotate(-16 198 96)" fill="#e0413f" stroke-width="5"/>
    <circle cx="162" cy="92" r="3.5" fill="#ffffff" stroke="none"/>
    <circle cx="194" cy="89" r="3.5" fill="#ffffff" stroke="none"/>
    <path d="M150 74 L172 83" fill="none" stroke-width="6"/>
    <path d="M214 72 L190 82" fill="none" stroke-width="6"/>
    <path d="M170 122 Q181 115 193 121" fill="none" stroke-width="5"/>
  </g>
</svg>