<svg xmlns="http://www.w3.org/2000/svg" viewBox="0 0 360 360">
  <!-- 翼(後ろ) -->
  <ellipse cx="110" cy="195" rx="62" ry="42" fill="#e8d8ff" stroke="#2d263c" stroke-width="6" stroke-linejoin="round" transform="rotate(-30 110 195)"/>
  <ellipse cx="250" cy="195" rx="62" ry="42" fill="#e8d8ff" stroke="#2d263c" stroke-width="6" stroke-linejoin="round" transform="rotate(30 250 195)"/>
  <ellipse cx="100" cy="218" rx="38" ry="24" fill="#d4b8ff" stroke="#2d263c" stroke-width="5" stroke-linejoin="round" transform="rotate(-15 100 218)"/>
  <ellipse cx="260" cy="218" rx="38" ry="24" fill="#d4b8ff" stroke="#2d263c" stroke-width="5" stroke-linejoin="round" transform="rotate(15 260 218)"/>

  <!-- 花びら(後ろ層) -->
  <ellipse cx="180" cy="95" rx="18" ry="32" fill="#ffb8cc" stroke="#2d263c" stroke-width="5" stroke-linejoin="round"/>
  <ellipse cx="155" cy="105" rx="18" ry="32" fill="#ffb8cc" stroke="#2d263c" stroke-width="5" stroke-linejoin="round" transform="rotate(-40 155 105)"/>
  <ellipse cx="205" cy="105" rx="18" ry="32" fill="#ffb8cc" stroke="#2d263c" stroke-width="5" stroke-linejoin="round" transform="rotate(40 205 105)"/>
  <ellipse cx="145" cy="120" rx="18" ry="32" fill="#ffd0e0" stroke="#2d263c" stroke-width="5" stroke-linejoin="round" transform="rotate(-70 145 120)"/>
  <ellipse cx="215" cy="120" rx="18" ry="32" fill="#ffd0e0" stroke="#2d263c" stroke-width="5" stroke-linejoin="round" transform="rotate(70 215 120)"/>

  <!-- 花の中心(大) -->
  <circle cx="180" cy="110" r="28" fill="#ffe44a" stroke="#2d263c" stroke-width="6"/>
  <circle cx="180" cy="110" r="16" fill="#ff8c2a" stroke="#2d263c" stroke-width="4"/>

  <!-- アンテナ -->
  <line x1="168" y1="90" x2="155" y2="65" stroke="#2d263c" stroke-width="7" stroke-linecap="round"/>
  <circle cx="153" cy="62" r="7" fill="#ffe44a" stroke="#2d263c" stroke-width="5"/>
  <line x1="192" y1="88" x2="207" y2="63" stroke="#2d263c" stroke-width="7" stroke-linecap="round"/>
  <circle cx="209" cy="60" r="7" fill="#ffe44a" stroke="#2d263c" stroke-width="5"/>

  <!-- 体(胴体) -->
  <ellipse cx="180" cy="235" rx="40" ry="52" fill="#f5f0e0" stroke="#2d263c" stroke-width="8" stroke-linejoin="round"/>

  <!-- お腹の白っぽい部分 -->
  <ellipse cx="180" cy="242" rx="24" ry="34" fill="#fffdf8" stroke="none"/>

  <!-- 頭 -->
  <ellipse cx="180" cy="170" rx="42" ry="40" fill="#f5f0e0" stroke="#2d263c" stroke-width="8" stroke-linejoin="round"/>

  <!-- 頬ピンク -->
  <ellipse cx="153" cy="178" rx="13" ry="9" fill="#ffaab8" stroke="none"/>
  <ellipse cx="207" cy="178" rx="13" ry="9" fill="#ffaab8" stroke="none"/>

  <!-- 目(左) -->
  <ellipse cx="164" cy="168" rx="11" ry="13" fill="#ffffff" stroke="#2d263c" stroke-width="5"/>
  <ellipse cx="165" cy="170" rx="7" ry="9" fill="#2d263c"/>
  <circle cx="168" cy="167" r="3" fill="#7ecfff"/>
  <circle cx="162" cy="173" r="1.5" fill="#ffffff"/>

  <!-- 目(右) ちょっとずれてる -->
  <ellipse cx="197" cy="167" rx="11" ry="13" fill="#ffffff" stroke="#2d263c" stroke-width="5"/>
  <ellipse cx="198" cy="169" rx="7" ry="9" fill="#2d263c"/>
  <circle cx="201" cy="166" r="3" fill="#7ecfff"/>
  <circle cx="195" cy="172" r="1.5" fill="#ffffff"/>

  <!-- 口(小さくてかわいいへの字) -->
  <path d="M174 186 Q180 191 186 186" fill="none" stroke="#2d263c" stroke-width="4" stroke-linecap="round"/>

  <!-- 腕(葉っぱ形・左) -->
  <ellipse cx="133" cy="242" rx="16" ry="24" fill="#7ccc70" stroke="#2d263c" stroke-width="6" stroke-linejoin="round" transform="rotate(-20 133 242)"/>
  <line x1="133" y1="230" x2="133" y2="260" stroke="#2d263c" stroke-width="3" stroke-linecap="round"/>

  <!-- 腕(葉っぱ形・右) ちょっと長め -->
  <ellipse cx="228" cy="240" rx="16" ry="27" fill="#7ccc70" stroke="#2d263c" stroke-width="6" stroke-linejoin="round" transform="rotate(15 228 240)"/>
  <line x1="228" y1="228" x2="228" y2="262" stroke="#2d263c" stroke-width="3" stroke-linecap="round"/>

  <!-- しっぽ(下) -->
  <path d="M165 282 Q155 310 145 322 Q158 318 172 298 Q180 320 188 330 Q192 310 195 282" fill="#d0e8a0" stroke="#2d263c" stroke-width="6" stroke-linejoin="round"/>

  <!-- 足(小さい丸っこい) -->
  <ellipse cx="163" cy="285" rx="14" ry="10" fill="#f5f0e0" stroke="#2d263c" stroke-width="6"/>
  <ellipse cx="198" cy="285" rx="14" ry="10" fill="#f5f0e0" stroke="#2d263c" stroke-width="6"/>
</svg>