<svg xmlns="http://www.w3.org/2000/svg" viewBox="0 0 360 360">
  <!-- 背後の翼ヒレ(左) -->
  <path d="M110 170 Q60 130 40 80 Q55 110 70 140 Q50 120 35 90 Q55 130 80 160 Q65 150 55 170 Q85 160 110 175Z" fill="#6b3fa0" stroke="#2d263c" stroke-width="7" stroke-linejoin="round" stroke-linecap="round"/>
  <!-- 背後の翼ヒレ(右) -->
  <path d="M250 170 Q300 130 320 80 Q305 110 290 140 Q310 120 325 90 Q305 130 280 160 Q295 150 305 170 Q275 160 250 175Z" fill="#6b3fa0" stroke="#2d263c" stroke-width="7" stroke-linejoin="round" stroke-linecap="round"/>

  <!-- 頭頂の大きな黄色いトゲ(左) -->
  <path d="M160 95 Q140 50 115 30 Q135 60 145 85Z" fill="#e8c43a" stroke="#2d263c" stroke-width="6" stroke-linejoin="round" stroke-linecap="round"/>
  <!-- 頭頂の大きな黄色いトゲ(右) -->
  <path d="M200 90 Q225 45 248 28 Q228 58 218 82Z" fill="#e8c43a" stroke="#2d263c" stroke-width="6" stroke-linejoin="round" stroke-linecap="round"/>
  <!-- 小さい中央トゲ -->
  <path d="M175 88 Q180 55 185 52 Q190 55 185 88Z" fill="#e8c43a" stroke="#2d263c" stroke-width="5" stroke-linejoin="round" stroke-linecap="round"/>

  <!-- 体(メイン) -->
  <ellipse cx="182" cy="220" rx="90" ry="105" fill="#4a4260" stroke="#2d263c" stroke-width="8" stroke-linejoin="round"/>
  <!-- 頭 -->
  <ellipse cx="182" cy="148" rx="78" ry="72" fill="#4a4260" stroke="#2d263c" stroke-width="8" stroke-linejoin="round"/>

  <!-- 腹の縫い目模様 -->
  <path d="M155 190 Q182 185 210 190" fill="none" stroke="#2d263c" stroke-width="4" stroke-linecap="round"/>
  <path d="M148 215 Q182 208 217 215" fill="none" stroke="#2d263c" stroke-width="4" stroke-linecap="round"/>
  <path d="M152 240 Q182 233 213 240" fill="none" stroke="#2d263c" stroke-width="4" stroke-linecap="round"/>

  <!-- ジッパーの口(大きめ・曲がってる) -->
  <path d="M128 168 Q155 185 182 183 Q210 185 238 165" fill="#c8a820" stroke="#2d263c" stroke-width="7" stroke-linecap="round" stroke-linejoin="round"/>
  <!-- 口の内側(赤) -->
  <path d="M132 170 Q158 188 182 186 Q207 188 234 168 Q220 210 182 212 Q145 210 132 170Z" fill="#cc2222" stroke="#2d263c" stroke-width="5" stroke-linejoin="round"/>
  <!-- 舌 -->
  <ellipse cx="182" cy="205" rx="22" ry="10" fill="#ff4444" stroke="#2d263c" stroke-width="4"/>
  <!-- ジッパーの歯(上) -->
  <line x1="145" y1="172" x2="145" y2="164" stroke="#e8c43a" stroke-width="4" stroke-linecap="round"/>
  <line x1="158" y1="178" x2="158" y2="170" stroke="#e8c43a" stroke-width="4" stroke-linecap="round"/>
  <line x1="171" y1="182" x2="171" y2="174" stroke="#e8c43a" stroke-width="4" stroke-linecap="round"/>
  <line x1="184" y1="183" x2="184" y2="175" stroke="#e8c43a" stroke-width="4" stroke-linecap="round"/>
  <line x1="197" y1="181" x2="197" y2="173" stroke="#e8c43a" stroke-width="4" stroke-linecap="round"/>
  <line x1="210" y1="177" x2="210" y2="169" stroke="#e8c43a" stroke-width="4" stroke-linecap="round"/>
  <line x1="223" y1="171" x2="223" y2="163" stroke="#e8c43a" stroke-width="4" stroke-linecap="round"/>

  <!-- 目(左) 三角形でつり上がってる -->
  <polygon points="132,128 155,118 158,140" fill="#f0d020" stroke="#2d263c" stroke-width="5" stroke-linejoin="round"/>
  <polygon points="138,130 152,122 154,136" fill="#2d263c"/>
  <!-- 目(右) -->
  <polygon points="228,128 205,118 202,140" fill="#f0d020" stroke="#2d263c" stroke-width="5" stroke-linejoin="round"/>
  <polygon points="222,130 208,122 206,136" fill="#2d263c"/>

  <!-- 眉(意地悪そうに) -->
  <path d="M128 115 Q143 107 158 112" fill="none" stroke="#2d263c" stroke-width="6" stroke-linecap="round"/>
  <path d="M232 115 Q217 107 202 112" fill="none" stroke="#2d263c" stroke-width="6" stroke-linecap="round"/>

  <!-- 小さい腕(左) -->
  <path d="M100 230 Q72 248 68 270 Q80 260 95 250Z" fill="#4a4260" stroke="#2d263c" stroke-width="7" stroke-linejoin="round" stroke-linecap="round"/>
  <!-- 小さい腕(右) -->
  <path d="M265 230 Q293 248 297 270 Q285 260 270 250Z" fill="#4a4260" stroke="#2d263c" stroke-width="7" stroke-linejoin="round" stroke-linecap="round"/>

  <!-- 足(左) ぷにっと -->
  <ellipse cx="152" cy="320" rx="28" ry="16" fill="#4a4260" stroke="#2d263c" stroke-width="7"/>
  <!-- 足(右) -->
  <ellipse cx="213" cy="320" rx="28" ry="16" fill="#4a4260" stroke="#2d263c" stroke-width="7"/>

  <!-- しっぽ -->
  <path d="M182 322 Q185 342 195 348 Q200 352 198 356 Q188 350 182 344 Q176 350 168 355 Q165 351 170 347 Q179 342 182 322Z" fill="#4a4260" stroke="#2d263c" stroke-width="6" stroke-linejoin="round" stroke-linecap="round"/>

  <!-- ほっぺの丸(左) ちょっとかわいい -->
  <ellipse cx="118" cy="158" rx="14" ry="10" fill="#7755aa" opacity="0.6"/>
  <!-- ほっぺの丸(右) -->
  <ellipse cx="246" cy="158" rx="14" ry="10" fill="#7755aa" opacity="0.6"/>
</svg>