<svg xmlns="http://www.w3.org/2000/svg" viewBox="0 0 360 360">
<ellipse cx="180" cy="330" rx="60" ry="12" fill="#2d263c" opacity="0.15"/>
<path d="M180 118 C210 100 232 118 226 150 C260 170 250 260 210 300 C190 316 170 316 150 300 C110 260 100 170 134 150 C128 118 150 100 180 118 Z" fill="#7a5aa8" stroke="#2d263c" stroke-width="8" stroke-linejoin="round"/>
<path d="M150 300 C165 314 195 314 210 300 C214 316 206 336 194 340 C188 328 172 328 166 340 C154 336 146 316 150 300 Z" fill="#5c3f8c" stroke="#2d263c" stroke-width="7" stroke-linejoin="round"/>
<path d="M150 195 C120 200 96 235 96 260 C96 268 104 268 108 260 C112 240 128 216 152 210 Z" fill="#7a5aa8" stroke="#2d263c" stroke-width="7" stroke-linejoin="round"/>
<path d="M210 195 C240 200 264 235 264 260 C264 268 256 268 252 260 C248 240 232 216 208 210 Z" fill="#7a5aa8" stroke="#2d263c" stroke-width="7" stroke-linejoin="round"/>
<path d="M108 258 C100 270 100 285 112 288 C120 290 126 280 122 270 Z" fill="#e8dcf5" stroke="#2d263c" stroke-width="6" stroke-linejoin="round"/>
<path d="M252 258 C260 270 260 285 248 288 C240 290 234 280 238 270 Z" fill="#e8dcf5" stroke="#2d263c" stroke-width="6" stroke-linejoin="round"/>
<path d="M226 150 C260 148 286 130 284 108 C283 98 273 100 268 112 C262 128 244 138 222 140 Z" fill="#5c3f8c" stroke="#2d263c" stroke-width="7" stroke-linejoin="round"/>
<path d="M264 112 C276 96 278 74 262 62 C254 56 248 64 252 76 C256 90 254 104 246 116 Z" fill="#5c3f8c" stroke="#2d263c" stroke-width="7" stroke-linejoin="round"/>
<ellipse cx="256" cy="66" rx="9" ry="9" fill="#3a2d5c" stroke="#2d263c" stroke-width="5"/>
<path d="M150 148 C142 118 150 90 180 84 C210 90 218 118 210 148 C204 160 156 160 150 148 Z" fill="#8f6dc2" stroke="#2d263c" stroke-width="8" stroke-linejoin="round"/>
<path d="M150 118 C130 108 118 82 128 62 C132 54 142 58 142 70 C142 86 148 100 160 110 Z" fill="#7a5aa8" stroke="#2d263c" stroke-width="7" stroke-linejoin="round"/>
<path d="M210 118 C230 108 242 82 232 62 C228 54 218 58 218 70 C218 86 212 100 200 110 Z" fill="#7a5aa8" stroke="#2d263c" stroke-width="7" stroke-linejoin="round"/>
<circle cx="160" cy="122" r="12" fill="#fff" stroke="#2d263c" stroke-width="6"/>
<circle cx="200" cy="122" r="12" fill="#fff" stroke="#2d263c" stroke-width="6"/>
<circle cx="160" cy="124" r="5" fill="#9d2fc9"/>
<circle cx="200" cy="124" r="5" fill="#9d2fc9"/>
<path d="M170 144 Q180 150 190 144" fill="none" stroke="#2d263c" stroke-width="5" stroke-linecap="round"/>
<path d="M226 150 C260 165 258 210 246 236" fill="none" stroke="#2d263c" stroke-width="0" opacity="0"/>
<path d="M150 300 C120 300 108 322 122 338 C132 348 150 344 156 328" fill="none" stroke="#3a2d5c" stroke-width="9" stroke-linecap="round"/>
<circle cx="150" cy="336" r="11" fill="#5c3f8c" stroke="#2d263c" stroke-width="6"/>
<ellipse cx="180" cy="205" rx="20" ry="26" fill="#5c3f8c" stroke="#2d263c" stroke-width="6" stroke-linejoin="round"/>
</svg>
