<svg xmlns="http://www.w3.org/2000/svg" viewBox="0 0 360 360">
<g stroke="#2d263c" stroke-width="7" stroke-linejoin="round" stroke-linecap="round">
<path d="M120 270 Q80 275 85 315 Q110 335 145 320 Q168 308 160 285" fill="#6fb6e6"/>
<ellipse cx="175" cy="250" rx="55" ry="50" fill="#6fb6e6"/>
<ellipse cx="185" cy="150" rx="52" ry="48" fill="#6fb6e6"/>
<path d="M150 112 Q156 86 168 102 Q170 88 180 104 Q184 88 193 106 Q200 92 206 112" fill="#ffd23f"/>
<ellipse cx="173" cy="152" rx="16" ry="19" fill="#ffffff"/>
<ellipse cx="206" cy="149" rx="11" ry="13" fill="#ffffff"/>
<circle cx="176" cy="155" r="8" fill="#2d263c"/>
<circle cx="208" cy="151" r="6" fill="#2d263c"/>
<path d="M195 170 Q203 176 210 172" fill="none"/>
<path d="M134 248 Q120 258 128 272" fill="none"/>
<path d="M216 252 Q229 260 222 274" fill="none"/>
<ellipse cx="150" cy="295" rx="14" ry="9" fill="#5a9fd0"/>
<ellipse cx="200" cy="295" rx="14" ry="9" fill="#5a9fd0"/>
</g>
</svg>