<svg xmlns="http://www.w3.org/2000/svg" viewBox="0 0 360 360">
<g id="mega-burst"><circle cx="180" cy="180" r="172" fill="#fff3c0"/><polygon points="180,180 450.0,180.0 444.8,232.7" fill="#ffd96b"/><polygon points="180,180 429.4,283.3 404.5,330.0" fill="#ffb13d"/><polygon points="180,180 370.9,370.9 330.0,404.5" fill="#ffd96b"/><polygon points="180,180 283.3,429.4 232.7,444.8" fill="#ffb13d"/><polygon points="180,180 180.0,450.0 127.3,444.8" fill="#ffd96b"/><polygon points="180,180 76.7,429.4 30.0,404.5" fill="#ffb13d"/><polygon points="180,180 -10.9,370.9 -44.5,330.0" fill="#ffd96b"/><polygon points="180,180 -69.4,283.3 -84.8,232.7" fill="#ffb13d"/><polygon points="180,180 -90.0,180.0 -84.8,127.3" fill="#ffd96b"/><polygon points="180,180 -69.4,76.7 -44.5,30.0" fill="#ffb13d"/><polygon points="180,180 -10.9,-10.9 30.0,-44.5" fill="#ffd96b"/><polygon points="180,180 76.7,-69.4 127.3,-84.8" fill="#ffb13d"/><polygon points="180,180 180.0,-90.0 232.7,-84.8" fill="#ffd96b"/><polygon points="180,180 283.3,-69.4 330.0,-44.5" fill="#ffb13d"/><polygon points="180,180 370.9,-10.9 404.5,30.0" fill="#ffd96b"/><polygon points="180,180 429.4,76.7 444.8,127.3" fill="#ffb13d"/><circle cx="180" cy="180" r="120" fill="#fff3c0" opacity="0.55"/></g>
  <!-- 影 -->
  <ellipse cx="180" cy="335" rx="55" ry="12" fill="#00000022"/>

  <!-- 海藻ひれ 下部左 -->
  <path d="M148 280 Q120 295 105 320 Q125 325 140 305 Q150 295 158 285 Z" fill="#405030" stroke="#2d263c" stroke-width="5" stroke-linejoin="round" stroke-linecap="round"/>
  <path d="M160 295 Q135 310 125 340 Q148 338 158 312 Q162 300 165 296 Z" fill="#405030" stroke="#2d263c" stroke-width="5" stroke-linejoin="round" stroke-linecap="round"/>

  <!-- 海藻ひれ 下部右 -->
  <path d="M212 280 Q240 295 255 320 Q235 325 220 305 Q210 295 202 285 Z" fill="#405030" stroke="#2d263c" stroke-width="5" stroke-linejoin="round" stroke-linecap="round"/>
  <path d="M200 295 Q225 310 235 340 Q212 338 202 312 Q198 300 195 296 Z" fill="#405030" stroke="#2d263c" stroke-width="5" stroke-linejoin="round" stroke-linecap="round"/>

  <!-- 体 中央下 (長い体) -->
  <path d="M162 100 Q145 160 148 220 Q152 280 170 330 Q180 340 190 330 Q208 280 212 220 Q215 160 198 100 Z" fill="#6040A0" stroke="#2d263c" stroke-width="7" stroke-linejoin="round" stroke-linecap="round"/>

  <!-- 海藻ひれ 中部左 -->
  <path d="M152 200 Q118 192 98 205 Q110 220 138 215 Q148 212 156 208 Z" fill="#405030" stroke="#2d263c" stroke-width="5" stroke-linejoin="round" stroke-linecap="round"/>
  <path d="M150 225 Q112 222 90 238 Q105 252 135 245 Q146 240 155 232 Z" fill="#405030" stroke="#2d263c" stroke-width="5" stroke-linejoin="round" stroke-linecap="round"/>

  <!-- 海藻ひれ 中部右 -->
  <path d="M208 200 Q242 192 262 205 Q250 220 222 215 Q212 212 204 208 Z" fill="#405030" stroke="#2d263c" stroke-width="5" stroke-linejoin="round" stroke-linecap="round"/>
  <path d="M210 225 Q248 222 270 238 Q255 252 225 245 Q214 240 205 232 Z" fill="#405030" stroke="#2d263c" stroke-width="5" stroke-linejoin="round" stroke-linecap="round"/>

  <!-- 海藻ひれ 上部左 -->
  <path d="M155 155 Q122 148 105 158 Q118 172 145 168 Q152 165 158 160 Z" fill="#405030" stroke="#2d263c" stroke-width="5" stroke-linejoin="round" stroke-linecap="round"/>

  <!-- 海藻ひれ 上部右 -->
  <path d="M205 155 Q238 148 255 158 Q242 172 215 168 Q208 165 202 160 Z" fill="#405030" stroke="#2d263c" stroke-width="5" stroke-linejoin="round" stroke-linecap="round"/>

  <!-- 毒のトゲ (体の側面) -->
  <path d="M152 175 L138 165 L145 178 Z" fill="#802080" stroke="#2d263c" stroke-width="4" stroke-linejoin="round"/>
  <path d="M152 210 L133 205 L142 218 Z" fill="#802080" stroke="#2d263c" stroke-width="4" stroke-linejoin="round"/>
  <path d="M208 175 L222 165 L215 178 Z" fill="#802080" stroke="#2d263c" stroke-width="4" stroke-linejoin="round"/>
  <path d="M208 210 L227 205 L218 218 Z" fill="#802080" stroke="#2d263c" stroke-width="4" stroke-linejoin="round"/>

  <!-- 首 -->
  <path d="M165 105 Q170 85 180 80 Q190 85 195 105 Q192 95 180 92 Q168 95 165 105 Z" fill="#6040A0" stroke="#2d263c" stroke-width="6" stroke-linejoin="round" stroke-linecap="round"/>

  <!-- 頭部 (ドラゴン顔) -->
  <ellipse cx="180" cy="78" rx="32" ry="28" fill="#6040A0" stroke="#2d263c" stroke-width="7" stroke-linejoin="round" stroke-linecap="round"/>

  <!-- 口先 (とがった) -->
  <path d="M162 82 Q158 90 160 98 Q168 105 180 106 Q192 105 200 98 Q202 90 198 82 Z" fill="#802080" stroke="#2d263c" stroke-width="5" stroke-linejoin="round" stroke-linecap="round"/>

  <!-- 口 -->
  <path d="M162 92 Q172 100 180 101 Q188 100 198 92" fill="none" stroke="#2d263c" stroke-width="4" stroke-linecap="round"/>

  <!-- 角/トゲ (頭) -->
  <path d="M172 52 L168 38 L178 52 Z" fill="#802080" stroke="#2d263c" stroke-width="4" stroke-linejoin="round"/>
  <path d="M188 52 L192 38 L182 52 Z" fill="#802080" stroke="#2d263c" stroke-width="4" stroke-linejoin="round"/>
  <path d="M160 60 L150 48 L163 63 Z" fill="#802080" stroke="#2d263c" stroke-width="4" stroke-linejoin="round"/>
  <path d="M200 60 L210 48 L197 63 Z" fill="#802080" stroke="#2d263c" stroke-width="4" stroke-linejoin="round"/>

  <!-- 目 (左) -->
  <ellipse cx="168" cy="70" rx="9" ry="10" fill="white" stroke="#2d263c" stroke-width="4"/>
  <ellipse cx="169" cy="71" rx="6" ry="7" fill="#802080"/>
  <ellipse cx="170" cy="70" rx="3" ry="3" fill="#400040"/>
  <circle cx="172" cy="68" r="2" fill="white"/>

  <!-- 目 (右) -->
  <ellipse cx="192" cy="70" rx="9" ry="10" fill="white" stroke="#2d263c" stroke-width="4"/>
  <ellipse cx="193" cy="71" rx="6" ry="7" fill="#802080"/>
  <ellipse cx="194" cy="70" rx="3" ry="3" fill="#400040"/>
  <circle cx="196" cy="68" r="2" fill="white"/>

  <!-- しっぽ先 (海藻状) -->
  <path d="M172 325 Q155 340 148 355 Q165 352 172 338 Z" fill="#405030" stroke="#2d263c" stroke-width="4" stroke-linejoin="round"/>
  <path d="M180 330 Q180 348 178 360 Q185 358 188 345 Q188 335 185 328 Z" fill="#405030" stroke="#2d263c" stroke-width="4" stroke-linejoin="round"/>
  <path d="M188 325 Q205 340 212 355 Q195 352 188 338 Z" fill="#405030" stroke="#2d263c" stroke-width="4" stroke-linejoin="round"/>
</svg>
