<svg xmlns="http://www.w3.org/2000/svg" viewBox="0 0 360 360">
<g id="mega-burst"><circle cx="180" cy="180" r="172" fill="#fff3c0"/><polygon points="180,180 450.0,180.0 444.8,232.7" fill="#ffd96b"/><polygon points="180,180 429.4,283.3 404.5,330.0" fill="#ffb13d"/><polygon points="180,180 370.9,370.9 330.0,404.5" fill="#ffd96b"/><polygon points="180,180 283.3,429.4 232.7,444.8" fill="#ffb13d"/><polygon points="180,180 180.0,450.0 127.3,444.8" fill="#ffd96b"/><polygon points="180,180 76.7,429.4 30.0,404.5" fill="#ffb13d"/><polygon points="180,180 -10.9,370.9 -44.5,330.0" fill="#ffd96b"/><polygon points="180,180 -69.4,283.3 -84.8,232.7" fill="#ffb13d"/><polygon points="180,180 -90.0,180.0 -84.8,127.3" fill="#ffd96b"/><polygon points="180,180 -69.4,76.7 -44.5,30.0" fill="#ffb13d"/><polygon points="180,180 -10.9,-10.9 30.0,-44.5" fill="#ffd96b"/><polygon points="180,180 76.7,-69.4 127.3,-84.8" fill="#ffb13d"/><polygon points="180,180 180.0,-90.0 232.7,-84.8" fill="#ffd96b"/><polygon points="180,180 283.3,-69.4 330.0,-44.5" fill="#ffb13d"/><polygon points="180,180 370.9,-10.9 404.5,30.0" fill="#ffd96b"/><polygon points="180,180 429.4,76.7 444.8,127.3" fill="#ffb13d"/><circle cx="180" cy="180" r="120" fill="#fff3c0" opacity="0.55"/></g>
  <!-- 背景なし・メガライボルト落書き風 -->

  <!-- しっぽ(稲妻型)後ろ -->
  <polyline points="285,210 305,185 290,170 315,145 298,135 320,115" fill="none" stroke="#f5c518" stroke-width="12" stroke-linecap="round" stroke-linejoin="round"/>
  <polyline points="285,210 305,185 290,170 315,145 298,135 320,115" fill="none" stroke="#2d263c" stroke-width="16" stroke-linecap="round" stroke-linejoin="round" opacity="0.18"/>

  <!-- 後ろ足(右) -->
  <path d="M 255,240 Q 270,258 265,280 Q 260,295 250,300 Q 240,305 238,295 Q 245,285 248,270 Q 250,255 245,245" fill="#2563d9" stroke="#2d263c" stroke-width="7" stroke-linejoin="round"/>

  <!-- 後ろ足(左) -->
  <path d="M 215,242 Q 225,260 222,282 Q 219,297 208,300 Q 198,302 197,292 Q 205,282 208,267 Q 210,252 207,242" fill="#2563d9" stroke="#2d263c" stroke-width="7" stroke-linejoin="round"/>

  <!-- 胴体メイン -->
  <ellipse cx="195" cy="220" rx="78" ry="52" fill="#2563d9" stroke="#2d263c" stroke-width="8" stroke-linejoin="round"/>

  <!-- 腹の黄色 -->
  <ellipse cx="188" cy="232" rx="44" ry="30" fill="#f5c518" stroke="#2d263c" stroke-width="5"/>

  <!-- 前足(右) -->
  <path d="M 240,240 Q 258,252 260,272 Q 261,290 252,296 Q 242,300 239,290 Q 244,278 244,262 Q 243,250 238,242" fill="#2563d9" stroke="#2d263c" stroke-width="7" stroke-linejoin="round"/>

  <!-- 前足(左) -->
  <path d="M 155,238 Q 142,252 138,273 Q 136,290 146,296 Q 156,300 158,290 Q 153,278 154,262 Q 156,250 160,240" fill="#2563d9" stroke="#2d263c" stroke-width="7" stroke-linejoin="round"/>

  <!-- 首 -->
  <path d="M 148,190 Q 140,175 148,162 Q 158,150 172,150 L 190,148 Q 205,148 210,162 Q 215,175 208,192" fill="#2563d9" stroke="#2d263c" stroke-width="7"/>

  <!-- たてがみ(背中トゲ群・後ろ) -->
  <polygon points="160,165 148,130 170,155" fill="#2563d9" stroke="#2d263c" stroke-width="6" stroke-linejoin="round"/>
  <polygon points="178,155 172,118 192,150" fill="#2563d9" stroke="#2d263c" stroke-width="6" stroke-linejoin="round"/>
  <polygon points="198,155 197,115 215,152" fill="#2563d9" stroke="#2d263c" stroke-width="6" stroke-linejoin="round"/>

  <!-- 頭 -->
  <ellipse cx="175" cy="148" rx="48" ry="40" fill="#2563d9" stroke="#2d263c" stroke-width="8"/>

  <!-- 耳(左・長くとがった) -->
  <polygon points="138,128 118,72 155,118" fill="#2563d9" stroke="#2d263c" stroke-width="7" stroke-linejoin="round"/>
  <polygon points="140,126 122,78 153,120" fill="#f5c518" stroke="none"/>

  <!-- 耳(右) -->
  <polygon points="210,125 232,70 195,116" fill="#2563d9" stroke="#2d263c" stroke-width="7" stroke-linejoin="round"/>
  <polygon points="208,123 228,76 196,118" fill="#f5c518" stroke="none"/>

  <!-- メガ角(左・大きな稲妻) -->
  <polygon points="148,108 130,55 158,85 142,38 175,70 155,95" fill="#f5c518" stroke="#2d263c" stroke-width="6" stroke-linejoin="round"/>

  <!-- メガ角(右・大きな稲妻) -->
  <polygon points="200,105 222,50 196,82 215,35 182,68 202,93" fill="#f5c518" stroke="#2d263c" stroke-width="6" stroke-linejoin="round"/>

  <!-- 顔・鼻先 -->
  <ellipse cx="175" cy="162" rx="22" ry="16" fill="#1a4ab8" stroke="#2d263c" stroke-width="5"/>

  <!-- 目(左・赤くて鋭い) -->
  <ellipse cx="157" cy="140" rx="11" ry="9" fill="#e8002a" stroke="#2d263c" stroke-width="4"/>
  <ellipse cx="157" cy="140" rx="5" ry="6" fill="#8b0000"/>
  <ellipse cx="154" cy="138" rx="2" ry="2" fill="white"/>

  <!-- 目(右・左右非対称で少し大きめ) -->
  <ellipse cx="193" cy="138" rx="13" ry="10" fill="#e8002a" stroke="#2d263c" stroke-width="4"/>
  <ellipse cx="193" cy="138" rx="6" ry="7" fill="#8b0000"/>
  <ellipse cx="190" cy="136" rx="2" ry="2" fill="white"/>

  <!-- 眉(怒り顔) -->
  <line x1="150" y1="130" x2="163" y2="133" stroke="#2d263c" stroke-width="5" stroke-linecap="round"/>
  <line x1="186" y1="128" x2="202" y2="131" stroke="#2d263c" stroke-width="5" stroke-linecap="round"/>

  <!-- 鼻 -->
  <ellipse cx="175" cy="161" rx="5" ry="3" fill="#2d263c"/>

  <!-- 口(ニヤリ) -->
  <path d="M 162,170 Q 175,182 188,170" fill="none" stroke="#2d263c" stroke-width="5" stroke-linecap="round"/>
  <path d="M 165,172 Q 175,178 185,172" fill="white" stroke="none"/>

  <!-- ほっぺの電気マーク(黄色) -->
  <ellipse cx="144" cy="158" rx="10" ry="7" fill="#f5c518" stroke="#2d263c" stroke-width="3"/>
  <ellipse cx="206" cy="156" rx="10" ry="7" fill="#f5c518" stroke="#2d263c" stroke-width="3"/>

  <!-- しっぽ本体(電撃しっぽ・手前側アウトライン) -->
  <path d="M 268,225 Q 285,208 278,192 Q 295,175 282,162 Q 300,148 287,138" fill="none" stroke="#2d263c" stroke-width="9" stroke-linecap="round" stroke-linejoin="round"/>
  <path d="M 268,225 Q 285,208 278,192 Q 295,175 282,162 Q 300,148 287,138" fill="none" stroke="#f5c518" stroke-width="5" stroke-linecap="round" stroke-linejoin="round"/>
</svg>