<svg xmlns="http://www.w3.org/2000/svg" viewBox="0 0 360 360">
  <circle cx="270" cy="195" r="45" fill="#4a6fd6" stroke="#2d263c" stroke-width="7"/>
  <circle cx="253" cy="142" r="42" fill="#4a6fd6" stroke="#2d263c" stroke-width="7"/>
  <circle cx="207" cy="109" r="48" fill="#4a6fd6" stroke="#2d263c" stroke-width="7"/>
  <circle cx="153" cy="109" r="44" fill="#4a6fd6" stroke="#2d263c" stroke-width="7"/>
  <circle cx="107" cy="142" r="46" fill="#4a6fd6" stroke="#2d263c" stroke-width="7"/>
  <circle cx="90" cy="195" r="45" fill="#4a6fd6" stroke="#2d263c" stroke-width="7"/>
  <circle cx="107" cy="248" r="42" fill="#4a6fd6" stroke="#2d263c" stroke-width="7"/>
  <circle cx="153" cy="281" r="40" fill="#4a6fd6" stroke="#2d263c" stroke-width="7"/>
  <circle cx="207" cy="281" r="40" fill="#4a6fd6" stroke="#2d263c" stroke-width="7"/>
  <circle cx="253" cy="248" r="42" fill="#4a6fd6" stroke="#2d263c" stroke-width="7"/>
  <circle cx="180" cy="195" r="95" fill="#5279de" stroke="#2d263c" stroke-width="8"/>
  <ellipse cx="150" cy="320" rx="22" ry="15" fill="#c9a06a" stroke="#2d263c" stroke-width="6"/>
  <ellipse cx="210" cy="320" rx="22" ry="15" fill="#c9a06a" stroke="#2d263c" stroke-width="6"/>
  <line x1="140" y1="330" x2="134" y2="340" stroke="#2d263c" stroke-width="5" stroke-linecap="round"/>
  <line x1="160" y1="330" x2="164" y2="341" stroke="#2d263c" stroke-width="5" stroke-linecap="round"/>
  <line x1="200" y1="330" x2="196" y2="341" stroke="#2d263c" stroke-width="5" stroke-linecap="round"/>
  <line x1="220" y1="330" x2="226" y2="340" stroke="#2d263c" stroke-width="5" stroke-linecap="round"/>
  <path d="M150,85 C160,69 146,59 135,68 C127,75 132,88 144,89" fill="none" stroke="#28387d" stroke-width="6" stroke-linecap="round"/>
  <path d="M215,80 C225,64 211,54 200,63 C192,70 197,83 209,84" fill="none" stroke="#28387d" stroke-width="6" stroke-linecap="round"/>
  <path d="M85,160 C95,144 81,134 70,143 C62,150 67,163 79,164" fill="none" stroke="#28387d" stroke-width="6" stroke-linecap="round"/>
  <path d="M280,165 C290,149 276,139 265,148 C257,155 262,168 274,169" fill="none" stroke="#28387d" stroke-width="6" stroke-linecap="round"/>
  <circle cx="180" cy="248" r="21" fill="#e0473c" stroke="#2d263c" stroke-width="7"/>
  <circle cx="172" cy="248" r="3" fill="#2d263c"/>
  <circle cx="188" cy="248" r="3" fill="#2d263c"/>
  <circle cx="150" cy="205" r="9" fill="#2d263c"/>
  <circle cx="210" cy="205" r="9" fill="#2d263c"/>
  <circle cx="147" cy="202" r="3" fill="#ffffff"/>
  <circle cx="207" cy="202" r="3" fill="#ffffff"/>
</svg>
