<svg xmlns="http://www.w3.org/2000/svg" viewBox="0 0 360 360">
  <ellipse cx="180" cy="320" rx="70" ry="14" fill="#000000" opacity="0.12"/>
  <path d="M150,95 Q115,75 108,38 Q140,55 168,90 Z" fill="#8bc34a" stroke="#2d263c" stroke-width="7" stroke-linejoin="round" stroke-linecap="round"/>
  <path d="M210,95 Q245,75 252,38 Q220,55 192,90 Z" fill="#8bc34a" stroke="#2d263c" stroke-width="7" stroke-linejoin="round" stroke-linecap="round"/>
  <path d="M152.1,101.6 Q180,85 208,101.6 Q235.9,118.1 265,138 Q294.1,157.9 279.9,190.4 Q265.6,222.8 256.6,255.4 Q247.6,288 213.8,291.5 Q180,295 143.3,295.6 Q106.5,296.1 100.5,259.5 Q94.4,222.8 84.9,191.9 Q75.4,161 99.8,139.6 Q124.1,118.1 152.1,101.6 Z" fill="#fbf8ef" stroke="#2d263c" stroke-width="8" stroke-linejoin="round" stroke-linecap="round"/>
  <path d="M140,130 Q150,140 145,155" fill="none" stroke="#cfc7b3" stroke-width="4" stroke-linecap="round"/>
  <path d="M230,150 Q240,160 232,175" fill="none" stroke="#cfc7b3" stroke-width="4" stroke-linecap="round"/>
  <ellipse cx="150" cy="302" rx="20" ry="15" fill="#7cb342" stroke="#2d263c" stroke-width="7" stroke-linejoin="round"/>
  <ellipse cx="210" cy="302" rx="20" ry="15" fill="#7cb342" stroke="#2d263c" stroke-width="7" stroke-linejoin="round"/>
  <circle cx="128" cy="205" r="12" fill="#f5b8c4" opacity="0.6"/>
  <circle cx="232" cy="205" r="12" fill="#f5b8c4" opacity="0.6"/>
  <circle cx="150" cy="190" r="14" fill="#2e4a7a" stroke="#2d263c" stroke-width="6"/>
  <circle cx="210" cy="190" r="14" fill="#2e4a7a" stroke="#2d263c" stroke-width="6"/>
  <circle cx="146" cy="186" r="5" fill="#ffffff"/>
  <circle cx="206" cy="186" r="5" fill="#ffffff"/>
  <path d="M170,215 Q180,225 190,215" fill="none" stroke="#2d263c" stroke-width="6" stroke-linecap="round"/>
</svg>
