<svg xmlns="http://www.w3.org/2000/svg" viewBox="0 0 360 360">
  <g stroke-linejoin="round" stroke-linecap="round">
    <ellipse cx="118" cy="112" rx="20" ry="26" transform="rotate(-25 118 112)" fill="#b5692b" stroke="#2d263c" stroke-width="6"/>
    <ellipse cx="242" cy="112" rx="20" ry="26" transform="rotate(25 242 112)" fill="#b5692b" stroke="#2d263c" stroke-width="6"/>
    <ellipse cx="180" cy="245" rx="108" ry="88" fill="#cf7d3a" stroke="#2d263c" stroke-width="8"/>
    <circle cx="180" cy="150" r="78" fill="#cf7d3a" stroke="#2d263c" stroke-width="8"/>
    <ellipse cx="148" cy="322" rx="30" ry="18" fill="#b5692b" stroke="#2d263c" stroke-width="6"/>
    <ellipse cx="212" cy="322" rx="30" ry="18" fill="#b5692b" stroke="#2d263c" stroke-width="6"/>
    <ellipse cx="180" cy="268" rx="58" ry="46" fill="#eeb87e" stroke="none"/>
    <path d="M158,72 Q168,50 170,90" fill="none" stroke="#7d7d88" stroke-width="8"/>
    <path d="M180,66 Q180,42 180,90" fill="none" stroke="#7d7d88" stroke-width="8"/>
    <path d="M202,72 Q192,50 190,90" fill="none" stroke="#7d7d88" stroke-width="8"/>
    <rect x="36" y="205" width="58" height="76" rx="26" fill="#b7b7c0" stroke="#2d263c" stroke-width="7"/>
    <rect x="266" y="205" width="58" height="76" rx="26" fill="#b7b7c0" stroke="#2d263c" stroke-width="7"/>
    <path d="M50,255 L46,278" stroke="#2d263c" stroke-width="6"/>
    <path d="M65,262 L63,286" stroke="#2d263c" stroke-width="6"/>
    <path d="M80,255 L84,278" stroke="#2d263c" stroke-width="6"/>
    <path d="M310,255 L314,278" stroke="#2d263c" stroke-width="6"/>
    <path d="M295,262 L297,286" stroke="#2d263c" stroke-width="6"/>
    <path d="M280,255 L276,278" stroke="#2d263c" stroke-width="6"/>
    <polygon points="152,148 208,148 180,212" fill="#9a9aa3" stroke="#2d263c" stroke-width="7"/>
    <ellipse cx="180" cy="168" rx="12" ry="8" fill="#c4c4cc" stroke="none"/>
    <circle cx="148" cy="122" r="11" fill="#2d263c"/>
    <circle cx="212" cy="122" r="11" fill="#2d263c"/>
    <path d="M164,206 Q180,216 196,206" fill="none" stroke="#2d263c" stroke-width="6"/>
  </g>
</svg>
