<svg xmlns="http://www.w3.org/2000/svg" viewBox="0 0 360 360">
<ellipse cx="185" cy="215" rx="95" ry="52" fill="#e8742c" stroke="#2d263c" stroke-width="7" stroke-linejoin="round"/>
<ellipse cx="185" cy="245" rx="55" ry="24" fill="#fbe8c8" stroke="#2d263c" stroke-width="6" stroke-linejoin="round"/>
<circle cx="100" cy="170" r="52" fill="#e8742c" stroke="#2d263c" stroke-width="7"/>
<ellipse cx="60" cy="188" rx="24" ry="17" fill="#e8742c" stroke="#2d263c" stroke-width="6" stroke-linejoin="round"/>
<path d="M78 138 L62 100 L96 128 Z" fill="#3fb8b0" stroke="#2d263c" stroke-width="6" stroke-linejoin="round"/>
<path d="M112 130 L104 92 L134 122 Z" fill="#3fb8b0" stroke="#2d263c" stroke-width="6" stroke-linejoin="round"/>
<path d="M150 168 L175 130 L205 172 L235 138 L262 176" fill="none" stroke="#3fb8b0" stroke-width="16" stroke-linecap="round" stroke-linejoin="round"/>
<path d="M150 168 L175 130 L205 172 L235 138 L262 176" fill="none" stroke="#2d263c" stroke-width="7" stroke-linecap="round" stroke-linejoin="round"/>
<circle cx="86" cy="160" r="19" fill="#fff9e8" stroke="#2d263c" stroke-width="6"/>
<circle cx="80" cy="163" r="9" fill="#2d263c"/>
<circle cx="46" cy="182" r="4" fill="#2d263c"/>
<path d="M44 205 Q64 218 90 206" fill="none" stroke="#2d263c" stroke-width="6" stroke-linecap="round"/>
<path d="M130 250 L120 300 L150 300 L155 258 Z" fill="#e8742c" stroke="#2d263c" stroke-width="7" stroke-linejoin="round"/>
<ellipse cx="132" cy="304" rx="24" ry="10" fill="#3fb8b0" stroke="#2d263c" stroke-width="6"/>
<path d="M230 252 L245 298 L215 300 L212 258 Z" fill="#e8742c" stroke="#2d263c" stroke-width="7" stroke-linejoin="round"/>
<ellipse cx="228" cy="303" rx="24" ry="10" fill="#3fb8b0" stroke="#2d263c" stroke-width="6"/>
<circle cx="278" cy="235" r="50" fill="#3fb8b0" stroke="#2d263c" stroke-width="8"/>
<circle cx="278" cy="235" r="22" fill="#fbe8c8" stroke="#2d263c" stroke-width="6"/>
<path d="M278 200 L278 270 M243 235 L313 235" stroke="#2d263c" stroke-width="6" stroke-linecap="round"/>
<path d="M258 172 Q278 190 262 210" fill="none" stroke="#2d263c" stroke-width="6" stroke-linecap="round"/>
</svg>
