<svg xmlns="http://www.w3.org/2000/svg" viewBox="0 0 360 360">
  <ellipse cx="70" cy="252" rx="24" ry="32" fill="#4a3b5c" stroke="#2d263c" stroke-width="7" stroke-linejoin="round" transform="rotate(-15 70 252)"/>
  <ellipse cx="290" cy="252" rx="24" ry="32" fill="#4a3b5c" stroke="#2d263c" stroke-width="7" stroke-linejoin="round" transform="rotate(15 290 252)"/>
  <ellipse cx="180" cy="180" rx="140" ry="26" fill="#f3e6c4" stroke="#2d263c" stroke-width="6"/>
  <path d="M85,300 C68,262 74,198 122,174 C150,158 210,158 238,174 C286,198 292,262 275,300 C258,332 102,332 85,300 Z"
        fill="#4a3b5c" stroke="#2d263c" stroke-width="8" stroke-linejoin="round"/>
  <path d="M45,178 C45,80 100,35 180,35 C260,35 315,80 315,178 C315,196 255,207 180,207 C105,207 45,196 45,178 Z"
        fill="#d6529a" stroke="#2d263c" stroke-width="8" stroke-linejoin="round"/>
  <circle cx="140" cy="88" r="17" fill="#8f3568" stroke="#2d263c" stroke-width="6"/>
  <circle cx="228" cy="82" r="14" fill="#8f3568" stroke="#2d263c" stroke-width="6"/>
  <circle cx="182" cy="132" r="19" fill="#8f3568" stroke="#2d263c" stroke-width="6"/>
  <circle cx="250" cy="140" r="12" fill="#8f3568" stroke="#2d263c" stroke-width="6"/>
  <circle cx="112" cy="140" r="12" fill="#8f3568" stroke="#2d263c" stroke-width="6"/>
  <circle cx="145" cy="226" r="21" fill="#ffffff" stroke="#2d263c" stroke-width="6"/>
  <circle cx="215" cy="226" r="21" fill="#ffffff" stroke="#2d263c" stroke-width="6"/>
  <circle cx="149" cy="230" r="10" fill="#241f2e"/>
  <circle cx="211" cy="230" r="10" fill="#241f2e"/>
  <circle cx="145" cy="223" r="3" fill="#ffffff"/>
  <circle cx="207" cy="223" r="3" fill="#ffffff"/>
  <path d="M122,204 L156,196" fill="none" stroke="#2d263c" stroke-width="7" stroke-linecap="round"/>
  <path d="M204,196 L238,204" fill="none" stroke="#2d263c" stroke-width="7" stroke-linecap="round"/>
  <path d="M158,266 Q180,280 202,266" fill="none" stroke="#2d263c" stroke-width="8" stroke-linecap="round"/>
</svg>
