<svg xmlns="http://www.w3.org/2000/svg" viewBox="0 0 360 360">
  <path d="M80,150 Q58,95 100,62 Q140,38 180,48 Q220,38 260,62 Q302,95 280,150 Q270,112 230,102 Q180,90 130,102 Q90,112 80,150 Z" fill="#4a3b6b" stroke="#2d263c" stroke-width="8" stroke-linejoin="round"/>
  <ellipse cx="180" cy="212" rx="118" ry="106" fill="#f7c8ac" stroke="#2d263c" stroke-width="8" stroke-linejoin="round"/>
  <path d="M180,112 Q168,190 180,304" fill="none" stroke="#e2a582" stroke-width="6" stroke-linecap="round"/>
  <path d="M108,140 Q180,108 252,140 Q262,172 228,178 Q180,160 132,178 Q98,172 108,140 Z" fill="#5c4a80" stroke="#2d263c" stroke-width="7" stroke-linejoin="round"/>
  <path d="M102,102 Q90,132 106,148" fill="none" stroke="#2d263c" stroke-width="6" stroke-linecap="round"/>
  <path d="M258,102 Q270,132 254,148" fill="none" stroke="#2d263c" stroke-width="6" stroke-linecap="round"/>
  <circle cx="145" cy="202" r="19" fill="#ffffff" stroke="#2d263c" stroke-width="6"/>
  <circle cx="216" cy="202" r="19" fill="#ffffff" stroke="#2d263c" stroke-width="6"/>
  <circle cx="145" cy="205" r="8" fill="#e63946"/>
  <circle cx="216" cy="205" r="8" fill="#e63946"/>
  <path d="M150,238 Q180,260 211,238" fill="none" stroke="#2d263c" stroke-width="7" stroke-linecap="round"/>
  <path d="M164,244 Q180,282 196,244 Q186,260 174,260 Z" fill="#e88fa8" stroke="#2d263c" stroke-width="6" stroke-linejoin="round"/>
  <ellipse cx="66" cy="182" rx="17" ry="22" fill="#f7c8ac" stroke="#2d263c" stroke-width="7"/>
  <ellipse cx="294" cy="182" rx="17" ry="22" fill="#f7c8ac" stroke="#2d263c" stroke-width="7"/>
  <ellipse cx="138" cy="308" rx="24" ry="15" fill="#f7c8ac" stroke="#2d263c" stroke-width="7"/>
  <ellipse cx="222" cy="308" rx="24" ry="15" fill="#f7c8ac" stroke="#2d263c" stroke-width="7"/>
  <path d="M120,175 Q135,190 122,205" fill="none" stroke="#c98860" stroke-width="4" stroke-linecap="round"/>
  <path d="M240,175 Q225,190 238,205" fill="none" stroke="#c98860" stroke-width="4" stroke-linecap="round"/>
</svg>
