<svg xmlns="http://www.w3.org/2000/svg" viewBox="0 0 360 360">
  <!-- tail flame (behind body) -->
  <path d="M235 250 C270 235 300 200 295 160 C293 190 275 210 250 220 C270 195 275 165 260 140 C258 170 240 195 220 205 Z" fill="#ff9d2e" stroke="#2d263c" stroke-width="7" stroke-linejoin="round"/>
  <path d="M258 210 C275 200 285 180 280 160 C277 178 265 190 250 196 Z" fill="#ffe14d" stroke="#2d263c" stroke-width="5" stroke-linejoin="round"/>
  <!-- tail -->
  <path d="M200 260 C230 250 245 230 240 205 C232 225 210 240 190 245 Z" fill="#3b4a99" stroke="#2d263c" stroke-width="7" stroke-linejoin="round"/>

  <!-- back arm -->
  <path d="M235 190 C258 175 268 150 262 128 C258 148 244 165 224 175 Z" fill="#2f3a7a" stroke="#2d263c" stroke-width="7" stroke-linejoin="round"/>

  <!-- legs -->
  <path d="M150 300 C148 275 152 250 160 235 C172 240 180 260 178 285 C176 300 168 312 152 314 Z" fill="#3b4a99" stroke="#2d263c" stroke-width="7" stroke-linejoin="round"/>
  <path d="M205 300 C203 275 207 250 215 235 C227 240 235 260 233 285 C231 300 223 312 207 314 Z" fill="#2f3a7a" stroke="#2d263c" stroke-width="7" stroke-linejoin="round"/>
  <!-- feet -->
  <ellipse cx="158" cy="316" rx="24" ry="14" fill="#e8c98a" stroke="#2d263c" stroke-width="7"/>
  <ellipse cx="213" cy="316" rx="24" ry="14" fill="#e8c98a" stroke="#2d263c" stroke-width="7"/>

  <!-- body -->
  <path d="M150 190 C140 220 138 255 150 285 C165 305 200 308 220 288 C235 260 234 220 220 192 C200 172 168 172 150 190 Z" fill="#3b4a99" stroke="#2d263c" stroke-width="8" stroke-linejoin="round"/>
  <!-- cream belly -->
  <path d="M168 200 C160 225 160 255 172 278 C185 290 200 288 208 274 C216 250 214 222 202 202 C190 192 176 192 168 200 Z" fill="#f3dfa8" stroke="#2d263c" stroke-width="6" stroke-linejoin="round"/>

  <!-- front arm -->
  <path d="M148 210 C122 220 105 245 108 270 C122 262 138 245 150 225 Z" fill="#3b4a99" stroke="#2d263c" stroke-width="7" stroke-linejoin="round"/>
  <ellipse cx="112" cy="272" rx="18" ry="14" fill="#e8c98a" stroke="#2d263c" stroke-width="6"/>
  <ellipse cx="255" cy="132" rx="16" ry="13" fill="#e8c98a" stroke="#2d263c" stroke-width="6"/>

  <!-- head -->
  <circle cx="182" cy="130" r="62" fill="#c94a3a" stroke="#2d263c" stroke-width="8"/>
  <!-- head flame tuft -->
  <path d="M182 68 C170 45 175 20 195 8 C188 30 195 45 210 52 C205 32 215 15 232 12 C220 34 224 55 238 66 C230 70 200 74 182 68 Z" fill="#ff9d2e" stroke="#2d263c" stroke-width="7" stroke-linejoin="round"/>
  <path d="M198 40 C194 26 198 14 208 8 C204 20 208 30 216 35 Z" fill="#ffe14d" stroke="#2d263c" stroke-width="4" stroke-linejoin="round"/>

  <!-- ears -->
  <circle cx="132" cy="108" r="17" fill="#c94a3a" stroke="#2d263c" stroke-width="7"/>
  <circle cx="232" cy="108" r="17" fill="#c94a3a" stroke="#2d263c" stroke-width="7"/>

  <!-- face patch (lighter) -->
  <path d="M155 140 C160 165 175 178 195 176 C212 174 222 158 220 140 C205 150 170 150 155 140 Z" fill="#f3dfa8" stroke="#2d263c" stroke-width="6" stroke-linejoin="round"/>

  <!-- eyes -->
  <circle cx="163" cy="122" r="10" fill="#fff" stroke="#2d263c" stroke-width="5"/>
  <circle cx="203" cy="122" r="10" fill="#fff" stroke="#2d263c" stroke-width="5"/>
  <circle cx="165" cy="124" r="4" fill="#2d263c"/>
  <circle cx="205" cy="124" r="4" fill="#2d263c"/>

  <!-- mouth grin -->
  <path d="M170 152 C178 160 190 160 198 152" fill="none" stroke="#2d263c" stroke-width="6" stroke-linecap="round"/>
</svg>
