<svg xmlns="http://www.w3.org/2000/svg" viewBox="0 0 360 360">
  <!-- left wing -->
  <path d="M180 150 C90 90 40 110 30 170 C25 220 80 250 150 210 C168 200 178 175 180 150 Z" fill="#bfe6f2" stroke="#2d263c" stroke-width="7" stroke-linejoin="round" stroke-linecap="round"/>
  <!-- right wing -->
  <path d="M180 150 C270 90 320 110 330 170 C335 220 280 250 210 210 C192 200 182 175 180 150 Z" fill="#bfe6f2" stroke="#2d263c" stroke-width="7" stroke-linejoin="round" stroke-linecap="round"/>
  <!-- left hindwing -->
  <path d="M170 195 C120 220 95 250 110 275 C122 296 165 290 178 255 C182 235 178 212 170 195 Z" fill="#9fd6ea" stroke="#2d263c" stroke-width="7" stroke-linejoin="round" stroke-linecap="round"/>
  <!-- right hindwing -->
  <path d="M190 195 C240 220 265 250 250 275 C238 296 195 290 182 255 C178 235 182 212 190 195 Z" fill="#9fd6ea" stroke="#2d263c" stroke-width="7" stroke-linejoin="round" stroke-linecap="round"/>
  <!-- wing markings (frost crescents) -->
  <path d="M70 150 C90 140 108 150 112 170" fill="none" stroke="#3f6f9e" stroke-width="6" stroke-linecap="round"/>
  <path d="M290 150 C270 140 252 150 248 170" fill="none" stroke="#3f6f9e" stroke-width="6" stroke-linecap="round"/>
  <circle cx="60" cy="190" r="11" fill="#3f6f9e"/>
  <circle cx="300" cy="190" r="11" fill="#3f6f9e"/>
  <path d="M135 245 C145 255 155 255 163 248" fill="none" stroke="#3f6f9e" stroke-width="5" stroke-linecap="round"/>
  <path d="M225 245 C215 255 205 255 197 248" fill="none" stroke="#3f6f9e" stroke-width="5" stroke-linecap="round"/>
  <!-- body -->
  <ellipse cx="180" cy="205" rx="26" ry="55" fill="#faf6ec" stroke="#2d263c" stroke-width="7" stroke-linejoin="round"/>
  <!-- head -->
  <circle cx="180" cy="140" r="34" fill="#faf6ec" stroke="#2d263c" stroke-width="7"/>
  <!-- fuzzy head tuft -->
  <path d="M160 112 C168 96 192 96 200 112" fill="#d7ecf5" stroke="#2d263c" stroke-width="6" stroke-linecap="round" stroke-linejoin="round"/>
  <!-- antennae -->
  <path d="M168 118 C150 90 130 82 112 88" fill="none" stroke="#2d263c" stroke-width="6" stroke-linecap="round"/>
  <path d="M192 118 C210 90 230 82 248 88" fill="none" stroke="#2d263c" stroke-width="6" stroke-linecap="round"/>
  <path d="M140 100 l-10 -4 M132 108 l-11 -2 M124 118 l-11 0" stroke="#2d263c" stroke-width="4" stroke-linecap="round"/>
  <path d="M220 100 l10 -4 M228 108 l11 -2 M236 118 l11 0" stroke="#2d263c" stroke-width="4" stroke-linecap="round"/>
  <!-- eyes -->
  <circle cx="168" cy="140" r="6" fill="#2d263c"/>
  <circle cx="192" cy="140" r="6" fill="#2d263c"/>
  <!-- legs -->
  <path d="M165 250 C155 265 150 278 155 290" fill="none" stroke="#2d263c" stroke-width="7" stroke-linecap="round"/>
  <path d="M195 250 C205 265 210 278 205 290" fill="none" stroke="#2d263c" stroke-width="7" stroke-linecap="round"/>
</svg>
