<svg xmlns="http://www.w3.org/2000/svg" viewBox="0 0 360 360">
  <!-- 翼(後ろ) -->
  <path d="M110 200 C70 210 60 260 90 285 C105 270 115 245 120 220 Z" fill="#8a6a3a" stroke="#2d263c" stroke-width="6" stroke-linejoin="round"/>
  <path d="M250 200 C290 210 300 260 270 285 C255 270 245 245 240 220 Z" fill="#8a6a3a" stroke="#2d263c" stroke-width="6" stroke-linejoin="round"/>

  <!-- 足 -->
  <path d="M152 320 L150 340 M168 322 L168 340 M184 322 L184 340" stroke="#f0a83c" stroke-width="5" stroke-linecap="round"/>
  <path d="M196 320 L194 340 M212 322 L212 340 M228 322 L228 340" stroke="#f0a83c" stroke-width="5" stroke-linecap="round"/>

  <!-- 体(丸い) -->
  <ellipse cx="180" cy="240" rx="92" ry="88" fill="#8a6a3a" stroke="#2d263c" stroke-width="8"/>

  <!-- お腹(ベージュ) -->
  <ellipse cx="180" cy="262" rx="55" ry="58" fill="#d8b878" stroke="#2d263c" stroke-width="6"/>

  <!-- 頭(体と一体化・丸い) -->
  <circle cx="180" cy="150" r="82" fill="#8a6a3a" stroke="#2d263c" stroke-width="8"/>

  <!-- 顔(白) -->
  <ellipse cx="180" cy="160" rx="62" ry="56" fill="#f5ecd8" stroke="#2d263c" stroke-width="6"/>

  <!-- 目のまわり(茶マスク) -->
  <ellipse cx="152" cy="150" rx="22" ry="24" fill="#6a4a2a" stroke="#2d263c" stroke-width="5"/>
  <ellipse cx="208" cy="150" rx="22" ry="24" fill="#6a4a2a" stroke="#2d263c" stroke-width="5"/>

  <!-- 目 -->
  <circle cx="152" cy="150" r="13" fill="#fff" stroke="#2d263c" stroke-width="5"/>
  <circle cx="208" cy="150" r="13" fill="#fff" stroke="#2d263c" stroke-width="5"/>
  <circle cx="155" cy="153" r="7" fill="#2d263c"/>
  <circle cx="205" cy="153" r="7" fill="#2d263c"/>

  <!-- くちばし -->
  <path d="M170 178 L190 178 L180 194 Z" fill="#f0a83c" stroke="#2d263c" stroke-width="5" stroke-linejoin="round"/>

  <!-- 葉の蝶ネクタイ -->
  <path d="M178 206 L160 199 L160 213 Z" fill="#5fa848" stroke="#2d263c" stroke-width="5" stroke-linejoin="round"/>
  <path d="M182 206 L200 199 L200 213 Z" fill="#5fa848" stroke="#2d263c" stroke-width="5" stroke-linejoin="round"/>
</svg>
