<svg xmlns="http://www.w3.org/2000/svg" viewBox="0 0 360 360">
  <!-- しっぽ(後ろ) -->
  <path d="M255,255 Q300,250 310,285 Q295,300 270,290 Q285,275 255,270 Z" fill="#242a4a" stroke="#2d263c" stroke-width="7" stroke-linejoin="round"/>
  <ellipse cx="300" cy="280" rx="14" ry="11" fill="#a9c6dd" stroke="#2d263c" stroke-width="6"/>

  <!-- 後ろ足×2 -->
  <ellipse cx="220" cy="290" rx="26" ry="20" fill="#242a4a" stroke="#2d263c" stroke-width="7"/>
  <ellipse cx="150" cy="292" rx="24" ry="19" fill="#242a4a" stroke="#2d263c" stroke-width="7"/>

  <!-- 体 -->
  <ellipse cx="185" cy="225" rx="90" ry="72" fill="#2d3560" stroke="#2d263c" stroke-width="8"/>
  <!-- おなかの模様(明るい灰青) -->
  <ellipse cx="180" cy="248" rx="52" ry="38" fill="#a9c6dd" stroke="#2d263c" stroke-width="5"/>

  <!-- 前足×2 -->
  <ellipse cx="235" cy="278" rx="22" ry="24" fill="#242a4a" stroke="#2d263c" stroke-width="7"/>
  <ellipse cx="120" cy="278" rx="22" ry="24" fill="#242a4a" stroke="#2d263c" stroke-width="7"/>

  <!-- 頭 -->
  <ellipse cx="120" cy="165" rx="66" ry="58" fill="#2d3560" stroke="#2d263c" stroke-width="8"/>

  <!-- 小さいツノ(2本) -->
  <path d="M96,116 Q92,96 100,88 Q106,104 108,118 Z" fill="#242a4a" stroke="#2d263c" stroke-width="6" stroke-linejoin="round"/>
  <path d="M130,112 Q130,90 138,84 Q140,102 138,116 Z" fill="#242a4a" stroke="#2d263c" stroke-width="6" stroke-linejoin="round"/>

  <!-- マズル(明るい灰青) -->
  <ellipse cx="90" cy="185" rx="34" ry="26" fill="#a9c6dd" stroke="#2d263c" stroke-width="6"/>

  <!-- 閉じた目(モノズは目が見えない) -->
  <path d="M108,152 Q118,146 128,152" fill="none" stroke="#2d263c" stroke-width="6" stroke-linecap="round"/>
  <path d="M140,150 Q150,144 160,150" fill="none" stroke="#2d263c" stroke-width="6" stroke-linecap="round"/>

  <!-- 口 -->
  <path d="M75,192 Q88,200 100,192" fill="none" stroke="#2d263c" stroke-width="5" stroke-linecap="round"/>
</svg>
