<svg xmlns="http://www.w3.org/2000/svg" viewBox="0 0 360 360">
  <!-- 扇形の頭飾り(後ろ) -->
  <path d="M180 70 L130 20 L140 75" fill="#e8e0d0" stroke="#2d263c" stroke-width="6" stroke-linejoin="round" stroke-linecap="round"/>
  <path d="M180 70 L148 15 L155 72" fill="#e8e0d0" stroke="#2d263c" stroke-width="6" stroke-linejoin="round" stroke-linecap="round"/>
  <path d="M180 70 L168 12 L172 72" fill="#f0ead8" stroke="#2d263c" stroke-width="6" stroke-linejoin="round" stroke-linecap="round"/>
  <path d="M180 70 L180 10 L182 72" fill="#f0ead8" stroke="#2d263c" stroke-width="6" stroke-linejoin="round" stroke-linecap="round"/>
  <path d="M180 70 L194 12 L190 72" fill="#f0ead8" stroke="#2d263c" stroke-width="6" stroke-linejoin="round" stroke-linecap="round"/>
  <path d="M180 70 L212 15 L205 72" fill="#e8e0d0" stroke="#2d263c" stroke-width="6" stroke-linejoin="round" stroke-linecap="round"/>
  <path d="M180 70 L230 20 L220 75" fill="#e8e0d0" stroke="#2d263c" stroke-width="6" stroke-linejoin="round" stroke-linecap="round"/>

  <!-- 体(胴体) -->
  <ellipse cx="180" cy="230" rx="72" ry="80" fill="#c8a878" stroke="#2d263c" stroke-width="7" stroke-linejoin="round"/>

  <!-- お腹の白い部分 -->
  <ellipse cx="180" cy="245" rx="42" ry="55" fill="#f0e8d0" stroke="#2d263c" stroke-width="5"/>

  <!-- 左腕 -->
  <path d="M110 210 Q75 230 65 270 Q70 285 90 280 Q105 255 120 240 Z" fill="#c8a878" stroke="#2d263c" stroke-width="7" stroke-linejoin="round" stroke-linecap="round"/>
  <!-- 左手 -->
  <ellipse cx="80" cy="278" rx="18" ry="14" fill="#8b6040" stroke="#2d263c" stroke-width="6" transform="rotate(-20 80 278)"/>

  <!-- 右腕 -->
  <path d="M250 210 Q285 230 295 270 Q290 285 270 280 Q255 255 240 240 Z" fill="#c8a878" stroke="#2d263c" stroke-width="7" stroke-linejoin="round" stroke-linecap="round"/>
  <!-- 右手 -->
  <ellipse cx="280" cy="278" rx="18" ry="14" fill="#8b6040" stroke="#2d263c" stroke-width="6" transform="rotate(20 280 278)"/>

  <!-- 左足 -->
  <path d="M148 298 Q138 318 132 330 Q145 338 160 332 Q165 318 168 300 Z" fill="#8b6040" stroke="#2d263c" stroke-width="6" stroke-linejoin="round"/>
  <!-- 右足 -->
  <path d="M212 298 Q222 318 228 330 Q215 338 200 332 Q195 318 192 300 Z" fill="#8b6040" stroke="#2d263c" stroke-width="6" stroke-linejoin="round"/>

  <!-- 頭 -->
  <ellipse cx="180" cy="138" rx="58" ry="52" fill="#c8a878" stroke="#2d263c" stroke-width="7"/>

  <!-- 顔の白い部分 -->
  <ellipse cx="180" cy="148" rx="40" ry="36" fill="#f5efe0" stroke="#2d263c" stroke-width="4"/>

  <!-- 額のV字濃い紫模様 -->
  <path d="M162 108 L180 128 L198 108" fill="none" stroke="#5a3a7a" stroke-width="9" stroke-linejoin="round" stroke-linecap="round"/>
  <path d="M162 108 L180 128 L198 108" fill="none" stroke="#7a4fa0" stroke-width="5" stroke-linejoin="round" stroke-linecap="round"/>

  <!-- 目(左) -->
  <ellipse cx="160" cy="148" rx="13" ry="14" fill="#2d1a08" stroke="#2d263c" stroke-width="4"/>
  <ellipse cx="156" cy="144" rx="4" ry="4" fill="white"/>

  <!-- 目(右) -->
  <ellipse cx="200" cy="148" rx="13" ry="14" fill="#2d1a08" stroke="#2d263c" stroke-width="4"/>
  <ellipse cx="196" cy="144" rx="4" ry="4" fill="white"/>

  <!-- 鼻 -->
  <ellipse cx="180" cy="162" rx="8" ry="5" fill="#8b5a3a" stroke="#2d263c" stroke-width="3"/>

  <!-- 口 -->
  <path d="M168 172 Q180 182 192 172" fill="none" stroke="#2d263c" stroke-width="5" stroke-linecap="round"/>

  <!-- ひげ(鼻の下・白) -->
  <path d="M158 168 Q168 166 175 170" fill="none" stroke="#f5efe0" stroke-width="5" stroke-linecap="round"/>
  <path d="M202 168 Q192 166 185 170" fill="none" stroke="#f5efe0" stroke-width="5" stroke-linecap="round"/>

  <!-- あご髭(白い長いもじゃもじゃ) -->
  <path d="M165 180 Q155 195 152 215 Q160 220 168 208 Q170 225 165 238 Q175 240 178 225 Q180 240 182 225 Q185 240 195 238 Q190 225 192 208 Q200 220 208 215 Q205 195 195 180" fill="#f5efe0" stroke="#2d263c" stroke-width="5" stroke-linejoin="round"/>

  <!-- 胸のたてがみ(白) -->
  <path d="M140 200 Q130 230 138 255 Q155 252 158 235 Q162 250 168 258 Q175 250 172 232 Q178 248 182 256 Q186 248 188 232 Q194 250 201 258 Q207 250 202 235 Q205 252 222 255 Q230 230 220 200" fill="#f0e8d0" stroke="#2d263c" stroke-width="5" stroke-linejoin="round"/>

  <!-- しっぽ -->
  <path d="M230 280 Q255 275 265 258 Q258 248 248 255 Q242 265 225 268 Z" fill="#c8a878" stroke="#2d263c" stroke-width="6" stroke-linejoin="round"/>

  <!-- ほっぺ(ほんのり赤) -->
  <ellipse cx="148" cy="160" rx="10" ry="7" fill="#e08060" opacity="0.5"/>
  <ellipse cx="212" cy="160" rx="10" ry="7" fill="#e08060" opacity="0.5"/>
</svg>