<svg xmlns="http://www.w3.org/2000/svg" viewBox="0 0 360 360">
  <!-- tail (back layer) -->
  <path d="M 250 235 Q 300 235 320 270 Q 335 295 310 305 Q 285 312 275 285 Q 268 260 250 250 Z"
        fill="#f2a79c" stroke="#2d263c" stroke-width="7" stroke-linejoin="round"/>
  <ellipse cx="303" cy="288" rx="16" ry="14" fill="#fbe3d3" stroke="#2d263c" stroke-width="6"/>

  <!-- back legs -->
  <ellipse cx="120" cy="290" rx="26" ry="22" fill="#f2a79c" stroke="#2d263c" stroke-width="7"/>
  <ellipse cx="245" cy="292" rx="26" ry="22" fill="#f2a79c" stroke="#2d263c" stroke-width="7"/>

  <!-- body -->
  <ellipse cx="182" cy="230" rx="95" ry="75" fill="#f2a79c" stroke="#2d263c" stroke-width="8" stroke-linejoin="round"/>

  <!-- front legs -->
  <ellipse cx="130" cy="298" rx="27" ry="23" fill="#f2a79c" stroke="#2d263c" stroke-width="7"/>
  <ellipse cx="235" cy="300" rx="27" ry="23" fill="#f2a79c" stroke="#2d263c" stroke-width="7"/>

  <!-- belly patch -->
  <ellipse cx="182" cy="250" rx="55" ry="42" fill="#fbe3d3" stroke="#2d263c" stroke-width="6"/>

  <!-- ears -->
  <ellipse cx="130" cy="90" rx="20" ry="18" fill="#f2a79c" stroke="#2d263c" stroke-width="7"/>
  <ellipse cx="232" cy="90" rx="20" ry="18" fill="#f2a79c" stroke="#2d263c" stroke-width="7"/>

  <!-- head -->
  <circle cx="180" cy="140" r="82" fill="#f2a79c" stroke="#2d263c" stroke-width="8"/>

  <!-- leek/leaf tuft on head (Galarian signature) -->
  <path d="M 172 62 Q 160 30 175 8 Q 186 34 182 64 Z" fill="#7fbf4d" stroke="#2d263c" stroke-width="6" stroke-linejoin="round"/>
  <path d="M 190 64 Q 198 26 222 10 Q 218 42 200 66 Z" fill="#8fce5c" stroke="#2d263c" stroke-width="6" stroke-linejoin="round"/>
  <path d="M 182 66 Q 182 34 200 18 Q 202 46 192 68 Z" fill="#6ba842" stroke="#2d263c" stroke-width="5" stroke-linejoin="round"/>

  <!-- muzzle -->
  <ellipse cx="180" cy="168" rx="42" ry="30" fill="#fbe3d3" stroke="#2d263c" stroke-width="6"/>

  <!-- eyes: straight, blank deadpan stare (Galarian look) -->
  <ellipse cx="151" cy="132" rx="14" ry="11" fill="#fdfaf5" stroke="#2d263c" stroke-width="6"/>
  <ellipse cx="209" cy="132" rx="14" ry="11" fill="#fdfaf5" stroke="#2d263c" stroke-width="6"/>
  <circle cx="153" cy="134" r="6" fill="#2d263c"/>
  <circle cx="211" cy="134" r="6" fill="#2d263c"/>

  <!-- flat neutral mouth -->
  <path d="M 158 182 L 202 182" fill="none" stroke="#2d263c" stroke-width="6" stroke-linecap="round"/>
</svg>
