<svg xmlns="http://www.w3.org/2000/svg" viewBox="0 0 360 360"><g stroke="#2d263c" stroke-width="7" stroke-linejoin="round" stroke-linecap="round"><path d="M 232,252 Q 288,244 310,208 Q 320,190 312,184 Q 296,198 280,216 Q 256,236 226,240 Z" fill="#F7A4B8"/><path d="M 134,206 Q 106,244 110,288 Q 114,318 152,320 L 212,320 Q 246,318 248,282 Q 250,242 224,204 Q 176,224 134,206 Z" fill="#F7A4B8"/><path d="M 130,224 Q 102,238 104,264 Q 107,278 122,272 Q 132,256 138,238 Z" fill="#F7A4B8"/><path d="M 222,222 Q 250,212 258,190 Q 263,176 251,176 Q 238,182 226,200 Z" fill="#F7A4B8"/><path d="M 138,316 Q 130,334 148,335 L 164,335 Q 174,330 168,316 Z" fill="#F7A4B8"/><path d="M 198,316 Q 192,335 210,335 L 224,335 Q 233,329 227,316 Z" fill="#F7A4B8"/><path d="M 180,228 Q 222,232 226,272 Q 228,306 184,310 Q 142,308 138,272 Q 138,234 180,228 Z" fill="#F4DFAE"/><path d="M 116,198 L 98,220 L 126,214 L 136,236 L 156,214 L 172,238 L 188,214 L 206,234 L 218,212 L 246,220 L 228,196 Q 171,212 116,198 Z" fill="#FFFFFF"/><path d="M 114,112 Q 98,104 102,88 Q 114,86 122,100 Z" fill="#F7A4B8"/><path d="M 226,108 Q 242,100 240,84 Q 227,84 219,97 Z" fill="#F7A4B8"/><path d="M 114,136 Q 112,92 154,82 Q 172,77 190,83 Q 230,92 228,138 Q 227,172 198,185 Q 170,194 146,184 Q 116,173 114,136 Z" fill="#F7A4B8"/><path d="M 120,106 Q 110,78 128,70 L 134,44 L 150,64 L 165,38 L 180,62 L 198,42 L 208,66 L 220,52 L 224,74 Q 236,82 224,104 Q 171,80 120,106 Z" fill="#C2BBD0"/><circle cx="171" cy="73" r="9" fill="#E8443C"/><path d="M 138,158 Q 140,138 171,137 Q 203,138 205,159 Q 205,180 171,182 Q 139,179 138,158 Z" fill="#F4DFAE"/><path d="M 159,148 l 2,7" fill="none" stroke-width="5"/><path d="M 185,148 l -2,7" fill="none" stroke-width="5"/><circle cx="147" cy="120" r="7" fill="#2d263c" stroke="none"/><circle cx="197" cy="118" r="7.5" fill="#2d263c" stroke="none"/><circle cx="145" cy="117" r="2.5" fill="#FFFFFF" stroke="none"/><circle cx="195" cy="115" r="2.5" fill="#FFFFFF" stroke="none"/><path d="M 150,168 Q 171,177 193,166" fill="none"/><path d="M 158,171 L 158,182 Q 162,186 166,182 L 166,172 Z" fill="#FFFFFF" stroke-width="4.5"/><path d="M 178,172 L 178,182 Q 182,186 186,182 L 186,171 Z" fill="#FFFFFF" stroke-width="4.5"/></g></svg>