<svg xmlns="http://www.w3.org/2000/svg" viewBox="0 0 360 360">
  <!-- 翼(左・後ろ) -->
  <path d="M 85 175 Q 30 130 22 80 Q 55 100 70 140 Q 60 95 80 65 Q 95 110 88 150 Q 90 120 110 100 Q 108 145 95 170 Z" fill="#3a2860" stroke="#2d263c" stroke-width="7" stroke-linejoin="round" stroke-linecap="round"/>
  <!-- 翼(右・後ろ) -->
  <path d="M 278 172 Q 332 128 340 78 Q 308 98 292 138 Q 304 92 282 63 Q 268 108 276 148 Q 272 118 252 98 Q 255 143 268 168 Z" fill="#3a2860" stroke="#2d263c" stroke-width="7" stroke-linejoin="round" stroke-linecap="round"/>

  <!-- しっぽ -->
  <path d="M 200 285 Q 225 310 215 340 Q 195 318 183 340 Q 178 312 190 288 Z" fill="#4a3870" stroke="#2d263c" stroke-width="6" stroke-linejoin="round" stroke-linecap="round"/>

  <!-- 体(メイン) -->
  <ellipse cx="182" cy="230" rx="78" ry="72" fill="#5c4882" stroke="#2d263c" stroke-width="8" stroke-linejoin="round"/>

  <!-- 頭 -->
  <ellipse cx="181" cy="155" rx="68" ry="62" fill="#5c4882" stroke="#2d263c" stroke-width="8" stroke-linejoin="round"/>

  <!-- 耳/角(左) -->
  <polygon points="135,108 118,58 148,100" fill="#4a3870" stroke="#2d263c" stroke-width="7" stroke-linejoin="round"/>
  <!-- 耳/角(右・少しずれて味を出す) -->
  <polygon points="224,104 242,52 215,97" fill="#4a3870" stroke="#2d263c" stroke-width="7" stroke-linejoin="round"/>
  <!-- 角の先端の石っぽいハイライト -->
  <polygon points="135,108 124,75 141,100" fill="#6a5898" stroke="none"/>
  <polygon points="224,104 238,68 220,97" fill="#6a5898" stroke="none"/>

  <!-- 腹の明るい部分 -->
  <ellipse cx="182" cy="248" rx="48" ry="40" fill="#7a6898" stroke="#2d263c" stroke-width="4"/>

  <!-- 胸の宝石(ダイヤ型・緑) -->
  <polygon points="182,208 196,222 182,236 168,222" fill="#44cc88" stroke="#2d263c" stroke-width="4" stroke-linejoin="round"/>
  <!-- 宝石の光沢 -->
  <polygon points="182,210 191,221 182,213" fill="#88ffcc" stroke="none" opacity="0.7"/>

  <!-- 目(左・宝石) 赤系ルビー -->
  <polygon points="145,150 157,138 169,142 172,157 161,168 147,164 138,155" fill="#e03030" stroke="#2d263c" stroke-width="5" stroke-linejoin="round"/>
  <!-- 目の光沢(左) -->
  <polygon points="148,148 156,140 162,144 158,150" fill="#ff8888" stroke="none" opacity="0.8"/>
  <circle cx="151" cy="162" r="3" fill="#ffffff" opacity="0.6"/>

  <!-- 目(右・宝石) 青系サファイア -->
  <polygon points="194,148 207,138 220,142 222,158 212,168 197,165 189,155" fill="#2266ee" stroke="#2d263c" stroke-width="5" stroke-linejoin="round"/>
  <!-- 目の光沢(右) -->
  <polygon points="197,147 206,140 213,144 209,150" fill="#88aaff" stroke="none" opacity="0.8"/>
  <circle cx="200" cy="162" r="3" fill="#ffffff" opacity="0.6"/>

  <!-- 鼻(ちょっとぺちゃっと) -->
  <ellipse cx="183" cy="175" rx="5" ry="3.5" fill="#3a2860"/>

  <!-- 口(ニヤリ気味) -->
  <path d="M 162 188 Q 172 197 183 194 Q 195 198 205 188" fill="none" stroke="#2d263c" stroke-width="5" stroke-linecap="round"/>
  <!-- 歯 -->
  <polygon points="174,192 178,192 177,198 173,197" fill="#eeeecc" stroke="#2d263c" stroke-width="2"/>
  <polygon points="185,193 190,192 190,198 184,198" fill="#eeeecc" stroke="#2d263c" stroke-width="2"/>

  <!-- 腕(左)・爪付き -->
  <path d="M 112 218 Q 88 230 76 250" fill="none" stroke="#2d263c" stroke-width="8" stroke-linecap="round"/>
  <!-- 爪(左) -->
  <path d="M 76 250 Q 64 258 60 270" fill="none" stroke="#2d263c" stroke-width="6" stroke-linecap="round"/>
  <path d="M 76 250 Q 72 263 71 276" fill="none" stroke="#2d263c" stroke-width="6" stroke-linecap="round"/>
  <path d="M 76 250 Q 82 262 85 274" fill="none" stroke="#2d263c" stroke-width="6" stroke-linecap="round"/>

  <!-- 腕(右)・爪付き -->
  <path d="M 252 215 Q 278 228 290 248" fill="none" stroke="#2d263c" stroke-width="8" stroke-linecap="round"/>
  <!-- 爪(右) -->
  <path d="M 290 248 Q 302 256 307 268" fill="none" stroke="#2d263c" stroke-width="6" stroke-linecap="round"/>
  <path d="M 290 248 Q 294 262 294 276" fill="none" stroke="#2d263c" stroke-width="6" stroke-linecap="round"/>
  <path d="M 290 248 Q 284 260 281 273" fill="none" stroke="#2d263c" stroke-width="6" stroke-linecap="round"/>

  <!-- 足(左) -->
  <path d="M 155 295 Q 148 315 142 328" fill="none" stroke="#2d263c" stroke-width="8" stroke-linecap="round"/>
  <path d="M 142 328 Q 132 338 128 348" fill="none" stroke="#2d263c" stroke-width="6" stroke-linecap="round"/>
  <path d="M 142 328 Q 140 340 141 350" fill="none" stroke="#2d263c" stroke-width="6" stroke-linecap="round"/>

  <!-- 足(右) -->
  <path d="M 210 293 Q 218 313 224 326" fill="none" stroke="#2d263c" stroke-width="8" stroke-linecap="round"/>
  <path d="M 224 326 Q 234 336 238 346" fill="none" stroke="#2d263c" stroke-width="6" stroke-linecap="round"/>
  <path d="M 224 326 Q 224 339 225 349" fill="none" stroke="#2d263c" stroke-width="6" stroke-linecap="round"/>

  <!-- 体の斑点(宝石っぽい模様・右肩) -->
  <polygon points="235,195 242,188 248,192 246,201 238,203" fill="#cc44aa" stroke="#2d263c" stroke-width="3" stroke-linejoin="round"/>
  <!-- 体の斑点(左肩) -->
  <polygon points="124,200 129,192 136,196 134,206 126,207" fill="#44aacc" stroke="#2d263c" stroke-width="3" stroke-linejoin="round"/>
</svg>