<svg xmlns="http://www.w3.org/2000/svg" viewBox="0 0 360 360">
  <!-- 体のループ -->
  <path d="M250 264 Q312 200 248 136 Q176 96 124 150 Q86 202 134 252 Q176 290 222 270" fill="none" stroke="#E85820" stroke-width="40" stroke-linejoin="round" stroke-linecap="round"/>
  <!-- 節の区切り -->
  <path d="M118 232 L98 248" fill="none" stroke="#9E2E10" stroke-width="6" stroke-linecap="round"/>
  <path d="M148 200 L126 208" fill="none" stroke="#9E2E10" stroke-width="6" stroke-linecap="round"/>
  <path d="M186 166 L166 164" fill="none" stroke="#9E2E10" stroke-width="6" stroke-linecap="round"/>
  <path d="M226 150 L214 136" fill="none" stroke="#9E2E10" stroke-width="6" stroke-linecap="round"/>
  <path d="M262 168 L256 150" fill="none" stroke="#9E2E10" stroke-width="6" stroke-linecap="round"/>
  <!-- 足(下) -->
  <path d="M114 244 L94 254" fill="none" stroke="#C24A18" stroke-width="6" stroke-linecap="round"/>
  <path d="M142 258 L122 274" fill="none" stroke="#C24A18" stroke-width="6" stroke-linecap="round"/>
  <path d="M178 268 L160 286" fill="none" stroke="#C24A18" stroke-width="6" stroke-linecap="round"/>
  <path d="M214 268 L202 288" fill="none" stroke="#C24A18" stroke-width="6" stroke-linecap="round"/>
  <path d="M244 258 L236 280" fill="none" stroke="#C24A18" stroke-width="6" stroke-linecap="round"/>
  <!-- 触角 -->
  <path d="M236 100 Q224 78 214 70 M250 96 Q246 72 240 62" fill="none" stroke="#9E2E10" stroke-width="5" stroke-linecap="round"/>
  <!-- 頭(炎風) -->
  <path d="M250 140 Q280 112 262 92 Q254 112 248 102 Q242 80 226 88 Q238 106 230 112 Q212 96 210 118 Q236 134 250 140Z" fill="#F08A2C" stroke="#2d263c" stroke-width="7" stroke-linejoin="round"/>
  <!-- 目 -->
  <ellipse cx="236" cy="120" rx="8" ry="11" fill="#FFF6E0" stroke="#2d263c" stroke-width="4"/>
  <ellipse cx="236" cy="122" rx="3" ry="5" fill="#241f2e"/>
</svg>
