<svg xmlns="http://www.w3.org/2000/svg" viewBox="0 0 360 360"><g stroke="#2d263c" stroke-width="7" stroke-linejoin="round" stroke-linecap="round"><path d="M236,288 Q280,302 290,266 Q294,244 274,238 Q280,260 262,270 Q250,276 232,268 Z" fill="#f29bb0"/><ellipse cx="282" cy="252" rx="13" ry="11" fill="#e7d49a"/><ellipse cx="150" cy="328" rx="27" ry="17" fill="#f29bb0"/><ellipse cx="212" cy="331" rx="29" ry="16" fill="#f29bb0"/><path d="M138,212 Q116,258 123,300 Q130,323 180,326 Q233,322 239,294 Q246,252 224,210 Q180,226 138,212 Z" fill="#f29bb0"/><path d="M134,230 Q96,240 90,272 Q88,290 107,287 Q120,272 133,260 Z" fill="#f29bb0"/><path d="M226,228 Q264,234 272,266 Q275,286 255,284 Q243,268 228,258 Z" fill="#f29bb0"/><ellipse cx="180" cy="280" rx="41" ry="35" fill="#e7d49a"/><path d="M110,194 Q180,212 250,192 L259,212 L238,206 L231,231 L213,209 L201,236 L181,211 L165,234 L151,208 L135,230 L122,204 L102,212 Z" fill="#f6f1e3"/><ellipse cx="106" cy="122" rx="13" ry="16" fill="#f29bb0"/><ellipse cx="254" cy="115" rx="13" ry="16" fill="#f29bb0"/><path d="M116,94 Q98,132 105,166 Q116,196 180,199 Q246,193 252,158 Q257,123 240,93 Q178,74 116,94 Z" fill="#f29bb0"/><ellipse cx="181" cy="163" rx="61" ry="37" fill="#e7d49a"/><ellipse cx="167" cy="147" rx="3" ry="2.5" fill="#2d263c" stroke-width="3"/><ellipse cx="193" cy="146" rx="3" ry="2.5" fill="#2d263c" stroke-width="3"/><path d="M132,168 Q180,185 231,166" fill="none"/><path d="M156,175 L164,191 L172,177 Z" fill="#ffffff"/><path d="M196,178 L204,193 L212,178 Z" fill="#ffffff"/><path d="M137,123 Q149,116 161,123" fill="none"/><circle cx="149" cy="129" r="4.5" fill="#2d263c" stroke-width="3"/><path d="M201,119 Q213,112 225,120" fill="none"/><circle cx="214" cy="126" r="4.5" fill="#2d263c" stroke-width="3"/><path d="M118,98 L110,58 L139,80 L151,36 L171,72 L186,32 L201,70 L224,46 L230,96 Q180,113 118,98 Z" fill="#aaaab4"/><path d="M152,52 L157,80" fill="none" stroke-width="5"/><path d="M198,64 L206,88" fill="none" stroke-width="5"/><circle cx="173" cy="92" r="12" fill="#e0413f"/><path d="M138,310 L138,322 M158,313 L158,325" fill="none" stroke-width="5"/><path d="M200,314 L200,327 M222,315 L222,328" fill="none" stroke-width="5"/></g></svg>