<svg xmlns="http://www.w3.org/2000/svg" viewBox="0 0 360 360">
<g stroke="#2d263c" stroke-width="7" stroke-linejoin="round" stroke-linecap="round">
<path d="M 126 262 C 100 258 82 276 88 298 C 93 314 116 318 126 306 C 116 308 102 302 104 290 C 104 278 114 272 126 276 Z" fill="#F2A0B5"/>
<circle cx="95" cy="299" r="9" fill="#F7E7C6"/>
<circle cx="140" cy="57" r="16" fill="#F2A0B5"/>
<circle cx="243" cy="54" r="15" fill="#F2A0B5"/>
<circle cx="140" cy="57" r="7" fill="#E8C49E" stroke-width="4"/>
<circle cx="243" cy="54" r="6" fill="#E8C49E" stroke-width="4"/>
<path d="M 140 196 C 110 194 94 212 99 234 C 103 251 124 254 138 246 Z" fill="#F2A0B5"/>
<path d="M 236 194 C 254 188 268 198 270 214 L 258 232 C 246 226 236 210 236 194 Z" fill="#F2A0B5"/>
<path d="M 140 176 C 118 198 110 244 122 274 C 132 300 158 312 192 312 C 228 312 254 298 262 268 C 270 240 264 198 246 176 C 232 162 154 162 140 176 Z" fill="#F2A0B5"/>
<path d="M 150 250 C 150 216 168 204 192 205 C 217 206 236 220 235 252 C 234 282 216 298 192 297 C 168 296 150 282 150 250 Z" fill="#F7E7C6"/>
<path d="M 150 304 C 142 322 150 334 167 334 C 184 334 190 322 184 306 Z" fill="#F2A0B5"/>
<path d="M 212 306 C 206 322 212 334 228 334 C 246 334 252 320 244 304 Z" fill="#F2A0B5"/>
<path d="M 282 186 L 289 160 L 299 184 Z" fill="#9d90ba"/>
<path d="M 317 195 L 338 183 L 327 209 Z" fill="#9d90ba"/>
<path d="M 325 240 L 338 252 L 320 255 Z" fill="#9d90ba"/>
<path d="M 295 261 L 299 281 L 283 263 Z" fill="#9d90ba"/>
<circle cx="250" cy="255" r="12" fill="#7C4FA8"/>
<path d="M 252 218 C 250 196 268 182 290 184 C 314 186 330 202 328 226 C 326 250 308 264 288 262 C 266 260 254 242 252 218 Z" fill="#BCB0CC"/>
<path d="M 290 222 C 300 218 304 228 296 234 C 284 240 272 230 276 216 C 281 200 302 196 314 208" fill="none" stroke="#6E6184" stroke-width="5"/>
<circle cx="242" cy="206" r="5" fill="#7C4FA8" stroke-width="4"/>
<circle cx="254" cy="188" r="4" fill="#7C4FA8" stroke-width="4"/>
<path d="M 130 110 C 126 70 160 42 192 44 C 230 46 258 74 254 112 C 251 146 224 168 189 167 C 154 166 133 142 130 110 Z" fill="#F2A0B5"/>
<path d="M 222 58 C 228 48 242 46 248 56 C 256 52 260 64 252 68 C 258 74 248 82 240 76 C 234 84 222 78 226 70 C 218 68 218 62 222 58 Z" fill="#7C4FA8" stroke-width="5"/>
<path d="M 150 130 C 150 110 168 102 193 103 C 219 104 236 114 235 134 C 234 152 214 161 192 160 C 169 159 150 149 150 130 Z" fill="#F7E7C6"/>
<path d="M 166 134 C 180 142 204 142 220 132 C 220 152 170 156 166 134 Z" fill="#5a3a55" stroke-width="6"/>
<path d="M 170 136 L 175 144 L 181 137 L 187 145 L 193 138 L 199 145 L 205 137 L 211 143 L 216 134" fill="none" stroke="#ffffff" stroke-width="4"/>
<path d="M 184 116 q 2 4 -2 7 M 202 116 q -2 4 2 7" fill="none" stroke-width="4"/>
<circle cx="170" cy="93" r="11" fill="#ffffff" stroke-width="5"/>
<circle cx="213" cy="91" r="11" fill="#ffffff" stroke-width="5"/>
<circle cx="173" cy="95" r="4.5" fill="#2d263c" stroke="none"/>
<circle cx="210" cy="93" r="4.5" fill="#2d263c" stroke="none"/>
<path d="M 155 79 L 182 85 M 228 76 L 202 83" fill="none"/>
<path d="M 240 252 q -8 4 -7 12 M 250 264 q 2 6 8 7" fill="none" stroke-width="4"/>
</g>
</svg>