<svg xmlns="http://www.w3.org/2000/svg" viewBox="0 0 360 360">
  <ellipse cx="205" cy="300" rx="34" ry="20" fill="#d9679f" stroke="#2d263c" stroke-width="7" stroke-linejoin="round"/>
  <path d="M175,255 Q195,300 165,325 Q205,315 220,285 Z" fill="#e888c0" stroke="#2d263c" stroke-width="7" stroke-linejoin="round" stroke-linecap="round"/>
  <ellipse cx="150" cy="150" rx="82" ry="76" fill="#f3aed3" stroke="#2d263c" stroke-width="8" stroke-linejoin="round"/>
  <ellipse cx="212" cy="222" rx="78" ry="72" fill="#f3aed3" stroke="#2d263c" stroke-width="8" stroke-linejoin="round"/>
  <path d="M115,90 Q95,55 105,35 Q125,60 135,95 Z" fill="#f3aed3" stroke="#2d263c" stroke-width="7" stroke-linejoin="round" stroke-linecap="round"/>
  <circle cx="104" cy="34" r="11" fill="#e888c0" stroke="#2d263c" stroke-width="6"/>
  <path d="M150,150 Q182,175 212,222" fill="none" stroke="#2d263c" stroke-width="7" stroke-linecap="round"/>
  <ellipse cx="132" cy="155" rx="22" ry="18" fill="#d9679f" opacity="0.55"/>
  <ellipse cx="228" cy="228" rx="22" ry="18" fill="#d9679f" opacity="0.55"/>
  <ellipse cx="140" cy="150" rx="34" ry="30" fill="#ffffff" stroke="#2d263c" stroke-width="6"/>
  <circle cx="140" cy="155" r="16" fill="#2d263c"/>
  <circle cx="132" cy="147" r="6" fill="#ffffff"/>
  <ellipse cx="222" cy="222" rx="32" ry="28" fill="#ffffff" stroke="#2d263c" stroke-width="6"/>
  <circle cx="222" cy="227" r="15" fill="#2d263c"/>
  <circle cx="215" cy="219" r="6" fill="#ffffff"/>
  <path d="M120,190 Q150,205 180,190" fill="none" stroke="#2d263c" stroke-width="5" stroke-linecap="round" opacity="0.5"/>
  <path d="M185,255 Q212,270 240,255" fill="none" stroke="#2d263c" stroke-width="5" stroke-linecap="round" opacity="0.5"/>
</svg>
