<svg xmlns="http://www.w3.org/2000/svg" viewBox="0 0 360 360">
<path d="M255 88 Q300 70 300 108 Q290 128 258 118 Z" fill="#5fa84a" stroke="#2d263c" stroke-width="6" stroke-linejoin="round"/>
<path d="M268 98 L332 82" stroke="#2d263c" stroke-width="5" stroke-linecap="round" fill="none"/>
<ellipse cx="180" cy="240" rx="72" ry="78" fill="#f5f5f5" stroke="#2d263c" stroke-width="8" stroke-linejoin="round"/>
<ellipse cx="142" cy="308" rx="24" ry="16" fill="#3a3a3a" stroke="#2d263c" stroke-width="6" stroke-linejoin="round"/>
<ellipse cx="218" cy="308" rx="24" ry="16" fill="#3a3a3a" stroke="#2d263c" stroke-width="6" stroke-linejoin="round"/>
<ellipse cx="112" cy="228" rx="20" ry="34" fill="#3a3a3a" stroke="#2d263c" stroke-width="6" stroke-linejoin="round" transform="rotate(15 112 228)"/>
<ellipse cx="248" cy="228" rx="20" ry="34" fill="#3a3a3a" stroke="#2d263c" stroke-width="6" stroke-linejoin="round" transform="rotate(-15 248 228)"/>
<circle cx="180" cy="132" r="72" fill="#f5f5f5" stroke="#2d263c" stroke-width="8"/>
<circle cx="123" cy="82" r="26" fill="#3a3a3a" stroke="#2d263c" stroke-width="6"/>
<circle cx="237" cy="82" r="26" fill="#3a3a3a" stroke="#2d263c" stroke-width="6"/>
<ellipse cx="152" cy="140" rx="24" ry="28" fill="#3a3a3a" stroke="#2d263c" stroke-width="5" transform="rotate(-10 152 140)"/>
<ellipse cx="208" cy="140" rx="24" ry="28" fill="#3a3a3a" stroke="#2d263c" stroke-width="5" transform="rotate(10 208 140)"/>
<circle cx="152" cy="144" r="8" fill="#fff" stroke="#2d263c" stroke-width="2"/>
<circle cx="208" cy="144" r="8" fill="#fff" stroke="#2d263c" stroke-width="2"/>
<ellipse cx="180" cy="166" rx="7" ry="5" fill="#2d263c"/>
<path d="M168 182 Q180 194 192 182" fill="none" stroke="#2d263c" stroke-width="5" stroke-linecap="round"/>
</svg>
