<svg xmlns="http://www.w3.org/2000/svg" viewBox="0 0 360 360">
  <path d="M110 222 C 76 214 50 174 70 136 C 80 118 106 120 110 142" fill="none" stroke="#2d263c" stroke-width="9" stroke-linecap="round"/>
  <path d="M100 150 Q122 130 104 114 Q130 118 120 146 Q132 154 118 161 Z" fill="#e85d3d" stroke="#2d263c" stroke-width="6" stroke-linejoin="round"/>
  <path d="M132 240 L122 286 L144 286 Z" fill="#4a4a5a" stroke="#2d263c" stroke-width="7" stroke-linejoin="round"/>
  <path d="M164 244 L158 286 L176 286 Z" fill="#4a4a5a" stroke="#2d263c" stroke-width="7" stroke-linejoin="round"/>
  <ellipse cx="168" cy="216" rx="64" ry="38" fill="#4a4a5a" stroke="#2d263c" stroke-width="8"/>
  <path d="M118 193 Q168 181 218 197 Q168 203 118 193 Z" fill="#e85d3d" stroke="#2d263c" stroke-width="6" stroke-linejoin="round"/>
  <path d="M202 244 L196 286 L216 286 Z" fill="#4a4a5a" stroke="#2d263c" stroke-width="7" stroke-linejoin="round"/>
  <path d="M226 242 L222 286 L240 286 Z" fill="#4a4a5a" stroke="#2d263c" stroke-width="7" stroke-linejoin="round"/>
  <path d="M212 200 Q254 196 272 216 Q276 240 256 244 Q226 248 216 230 Z" fill="#4a4a5a" stroke="#2d263c" stroke-width="8" stroke-linejoin="round"/>
  <path d="M232 214 Q256 212 266 224 Q262 235 242 233 Q230 226 232 214 Z" fill="#e8e8ec" stroke="#2d263c" stroke-width="6" stroke-linejoin="round"/>
  <circle cx="251" cy="220" r="6" fill="#2d263c"/>
  <circle cx="253" cy="218" r="2" fill="#ffffff"/>
  <path d="M256 234 Q263 237 259 242" fill="none" stroke="#2d263c" stroke-width="5" stroke-linecap="round"/>
</svg>
