<svg xmlns="http://www.w3.org/2000/svg" viewBox="0 0 360 360">
  <!-- tail feathers (behind body) -->
  <path d="M215 230 L305 210 L300 250 Z" fill="#3a3238" stroke="#2d263c" stroke-width="7" stroke-linejoin="round" stroke-linecap="round"/>
  <path d="M215 250 L300 260 L285 290 Z" fill="#2d262c" stroke="#2d263c" stroke-width="7" stroke-linejoin="round" stroke-linecap="round"/>
  <path d="M285 250 L300 250 L296 264 Z" fill="#d94e2a" stroke="#2d263c" stroke-width="5" stroke-linejoin="round" stroke-linecap="round"/>

  <!-- legs / feet -->
  <path d="M155 305 L148 335" stroke="#2d263c" stroke-width="8" stroke-linecap="round"/>
  <path d="M195 305 L204 335" stroke="#2d263c" stroke-width="8" stroke-linecap="round"/>
  <path d="M128 338 L148 335 L166 340" fill="#8a7a6a" stroke="#2d263c" stroke-width="7" stroke-linejoin="round" stroke-linecap="round"/>
  <path d="M186 340 L204 335 L224 338" fill="#8a7a6a" stroke="#2d263c" stroke-width="7" stroke-linejoin="round" stroke-linecap="round"/>

  <!-- left wing -->
  <path d="M100 190 C65 195 55 240 78 268 C98 252 112 225 118 200 Z" fill="#7a6a5a" stroke="#2d263c" stroke-width="7" stroke-linejoin="round" stroke-linecap="round"/>

  <!-- right wing -->
  <path d="M250 185 C288 188 300 228 280 258 C260 244 246 218 240 198 Z" fill="#6a5c4e" stroke="#2d263c" stroke-width="7" stroke-linejoin="round" stroke-linecap="round"/>

  <!-- body -->
  <path d="M178 118 C250 118 262 200 240 260 C222 300 138 300 118 260 C96 200 108 118 178 118 Z" fill="#8a7a6a" stroke="#2d263c" stroke-width="8" stroke-linejoin="round" stroke-linecap="round"/>

  <!-- chest patch (orange-red) -->
  <path d="M150 175 C172 165 195 170 205 195 C214 222 200 265 176 268 C152 265 136 222 144 197 C146 189 148 182 150 175 Z" fill="#e8622c" stroke="#2d263c" stroke-width="6" stroke-linejoin="round" stroke-linecap="round"/>

  <!-- head -->
  <circle cx="176" cy="128" r="76" fill="#8a7a6a" stroke="#2d263c" stroke-width="8"/>

  <!-- face / head orange patch -->
  <path d="M176 60 C210 60 232 92 230 128 C228 158 205 178 176 178 C147 178 124 158 122 128 C120 92 142 60 176 60 Z" fill="#e8622c" stroke="#2d263c" stroke-width="7" stroke-linejoin="round"/>

  <!-- crest tuft -->
  <path d="M168 55 L158 12 L188 50 Z" fill="#d94e2a" stroke="#2d263c" stroke-width="6" stroke-linejoin="round" stroke-linecap="round"/>
  <path d="M192 52 L200 15 L212 48 Z" fill="#e8622c" stroke="#2d263c" stroke-width="6" stroke-linejoin="round" stroke-linecap="round"/>

  <!-- eyes -->
  <circle cx="150" cy="125" r="17" fill="#fff" stroke="#2d263c" stroke-width="6"/>
  <circle cx="206" cy="125" r="17" fill="#fff" stroke="#2d263c" stroke-width="6"/>
  <circle cx="154" cy="129" r="8" fill="#2d263c"/>
  <circle cx="210" cy="129" r="8" fill="#2d263c"/>

  <!-- beak -->
  <path d="M164 150 L188 150 L176 172 Z" fill="#5a4a3c" stroke="#2d263c" stroke-width="6" stroke-linejoin="round" stroke-linecap="round"/>
</svg>
