<svg xmlns="http://www.w3.org/2000/svg" viewBox="0 0 360 360">
<rect x="120" y="240" width="22" height="48" rx="8" fill="#f0d858" stroke="#2d263c" stroke-width="6"/>
<rect x="218" y="240" width="22" height="48" rx="8" fill="#f0d858" stroke="#2d263c" stroke-width="6"/>
<ellipse cx="180" cy="225" rx="92" ry="55" fill="#f0d858" stroke="#2d263c" stroke-width="8" stroke-linejoin="round"/>
<path d="M122 200 Q137 215 122 232" fill="none" stroke="#c89030" stroke-width="10" stroke-linecap="round"/>
<path d="M158 195 Q173 210 158 227" fill="none" stroke="#c89030" stroke-width="10" stroke-linecap="round"/>
<path d="M195 195 Q210 210 195 227" fill="none" stroke="#c89030" stroke-width="10" stroke-linecap="round"/>
<path d="M232 200 Q247 215 232 232" fill="none" stroke="#c89030" stroke-width="10" stroke-linecap="round"/>
<ellipse cx="98" cy="192" rx="52" ry="44" fill="#f0d858" stroke="#2d263c" stroke-width="8"/>
<path d="M72 156 Q60 138 80 148 Q92 160 86 174 Z" fill="#f0d858" stroke="#2d263c" stroke-width="6" stroke-linejoin="round"/>
<path d="M115 156 Q103 138 123 148 Q135 160 129 174 Z" fill="#f0d858" stroke="#2d263c" stroke-width="6" stroke-linejoin="round"/>
<ellipse cx="68" cy="198" rx="26" ry="16" fill="#f4c44b" stroke="#2d263c" stroke-width="6"/>
<circle cx="108" cy="182" r="11" fill="#2d263c"/>
<circle cx="111" cy="179" r="3" fill="#ffffff"/>
<path d="M44 198 L68 195 L44 204 Z" fill="#c89030" stroke="#2d263c" stroke-width="5" stroke-linejoin="round"/>
<path d="M96 218 Q106 230 96 240" fill="none" stroke="#2d263c" stroke-width="5" stroke-linecap="round"/>
</svg>