<svg xmlns="http://www.w3.org/2000/svg" viewBox="0 0 360 360">
  <!-- 尻尾 (後ろ) -->
  <path d="M230 270 Q270 290 285 260 Q295 240 275 230 Q255 225 245 245" fill="#F08898" stroke="#2d263c" stroke-width="7" stroke-linejoin="round" stroke-linecap="round"/>

  <!-- 左足 -->
  <ellipse cx="145" cy="300" rx="28" ry="18" fill="#F08898" stroke="#2d263c" stroke-width="7"/>
  <!-- 右足 -->
  <ellipse cx="215" cy="302" rx="26" ry="17" fill="#F08898" stroke="#2d263c" stroke-width="7"/>

  <!-- 胴体 -->
  <path d="M110 195 Q95 225 100 265 Q105 295 145 305 Q180 312 215 305 Q250 295 252 265 Q255 230 245 200 Q238 175 200 168 Q165 160 135 170 Q112 178 110 195Z" fill="#F08898" stroke="#2d263c" stroke-width="8" stroke-linejoin="round"/>

  <!-- 腹 (クリーム) -->
  <path d="M132 200 Q128 230 130 262 Q132 285 162 292 Q180 296 200 290 Q222 283 224 262 Q226 238 222 210 Q218 192 195 188 Q170 184 148 190 Q136 194 132 200Z" fill="#F5E6C8" stroke="none"/>

  <!-- 左腕 (普通の手) -->
  <path d="M108 210 Q80 215 70 235 Q62 252 75 260 Q88 268 100 255 Q112 242 115 225" fill="#F08898" stroke="#2d263c" stroke-width="7" stroke-linejoin="round" stroke-linecap="round"/>
  <!-- 左手の指っぽいもの -->
  <path d="M70 255 Q60 270 65 278" fill="none" stroke="#2d263c" stroke-width="5" stroke-linecap="round"/>
  <path d="M78 262 Q72 278 76 285" fill="none" stroke="#2d263c" stroke-width="5" stroke-linecap="round"/>
  <path d="M88 265 Q86 280 88 287" fill="none" stroke="#2d263c" stroke-width="5" stroke-linecap="round"/>

  <!-- シェルダー本体 (右腕を飲み込んだ紫の砲台) -->
  <!-- シェルダーの貝殻外側 -->
  <path d="M235 185 Q258 172 272 180 Q292 192 295 215 Q298 240 288 258 Q278 272 262 275 Q246 277 238 265 Q228 250 228 230 Q226 208 235 185Z" fill="#5C3A8C" stroke="#2d263c" stroke-width="8" stroke-linejoin="round"/>
  <!-- シェルダー模様ライン -->
  <path d="M245 190 Q268 185 280 200 Q290 215 285 238" fill="none" stroke="#3A2060" stroke-width="4" stroke-linecap="round"/>
  <path d="M240 205 Q255 198 268 208 Q278 218 275 235" fill="none" stroke="#3A2060" stroke-width="3" stroke-linecap="round"/>
  <!-- シェルダー口 (砲口) -->
  <ellipse cx="263" cy="265" rx="18" ry="14" fill="#2A1540" stroke="#2d263c" stroke-width="6"/>
  <ellipse cx="263" cy="265" rx="10" ry="8" fill="#6B2D8C" stroke="none"/>
  <!-- 毒液のしずく -->
  <path d="M260 279 Q258 292 262 298 Q265 292 263 279" fill="#9B4DC8" stroke="#2d263c" stroke-width="3"/>

  <!-- 右腕の接続部 -->
  <path d="M240 220 Q248 215 252 225 Q255 235 248 240" fill="#F08898" stroke="#2d263c" stroke-width="5"/>

  <!-- 首 -->
  <path d="M155 175 Q180 165 210 170 Q215 155 210 145 Q190 138 170 140 Q150 143 148 155 Q146 165 155 175Z" fill="#F08898" stroke="#2d263c" stroke-width="7" stroke-linejoin="round"/>

  <!-- 頭 -->
  <path d="M140 150 Q138 118 155 100 Q170 84 190 82 Q212 82 224 98 Q238 116 235 145 Q232 162 215 170 Q195 178 172 175 Q150 172 140 150Z" fill="#F08898" stroke="#2d263c" stroke-width="8" stroke-linejoin="round"/>

  <!-- 耳(左) -->
  <path d="M148 108 Q130 88 122 72 Q128 68 140 80 Q150 92 155 108" fill="#F08898" stroke="#2d263c" stroke-width="7" stroke-linejoin="round" stroke-linecap="round"/>
  <!-- 耳(右) -->
  <path d="M222 105 Q235 84 244 70 Q250 74 244 88 Q238 100 228 110" fill="#F08898" stroke="#2d263c" stroke-width="7" stroke-linejoin="round" stroke-linecap="round"/>

  <!-- 頭の突起/角 -->
  <path d="M183 82 Q185 65 188 58 Q192 65 192 82" fill="#F08898" stroke="#2d263c" stroke-width="6" stroke-linejoin="round" stroke-linecap="round"/>

  <!-- ほっぺ (左) -->
  <ellipse cx="158" cy="145" rx="14" ry="10" fill="#F5AABB" stroke="none"/>
  <!-- ほっぺ (右) -->
  <ellipse cx="218" cy="145" rx="14" ry="10" fill="#F5AABB" stroke="none"/>

  <!-- 目(左) - ぼんやり半目 -->
  <ellipse cx="165" cy="132" rx="13" ry="10" fill="white" stroke="#2d263c" stroke-width="5"/>
  <ellipse cx="167" cy="135" rx="7" ry="6" fill="#1a1a2e"/>
  <ellipse cx="168" cy="134" rx="2" ry="2" fill="white"/>
  <!-- まぶた半分 -->
  <path d="M152 130 Q165 125 178 130" fill="none" stroke="#2d263c" stroke-width="4" stroke-linecap="round"/>

  <!-- 目(右) - ぼんやり半目 -->
  <ellipse cx="210" cy="132" rx="13" ry="10" fill="white" stroke="#2d263c" stroke-width="5"/>
  <ellipse cx="212" cy="135" rx="7" ry="6" fill="#1a1a2e"/>
  <ellipse cx="213" cy="134" rx="2" ry="2" fill="white"/>
  <!-- まぶた半分 -->
  <path d="M198 130 Q210 125 224 130" fill="none" stroke="#2d263c" stroke-width="4" stroke-linecap="round"/>

  <!-- 鼻 -->
  <ellipse cx="188" cy="150" rx="5" ry="3" fill="#2d263c"/>

  <!-- 口 (間抜けにへの字) -->
  <path d="M173 162 Q188 170 205 162" fill="none" stroke="#2d263c" stroke-width="5" stroke-linecap="round"/>

  <!-- 足の爪 (左) -->
  <path d="M130 308 Q122 318 120 325" fill="none" stroke="#2d263c" stroke-width="4" stroke-linecap="round"/>
  <path d="M142 312 Q140 322 140 328" fill="none" stroke="#2d263c" stroke-width="4" stroke-linecap="round"/>
  <path d="M155 312 Q156 322 158 327" fill="none" stroke="#2d263c" stroke-width="4" stroke-linecap="round"/>

  <!-- 足の爪 (右) -->
  <path d="M200 308 Q196 318 194 325" fill="none" stroke="#2d263c" stroke-width="4" stroke-linecap="round"/>
  <path d="M212 312 Q211 322 212 328" fill="none" stroke="#2d263c" stroke-width="4" stroke-linecap="round"/>
  <path d="M225 310 Q228 320 230 325" fill="none" stroke="#2d263c" stroke-width="4" stroke-linecap="round"/>
</svg>