<svg xmlns="http://www.w3.org/2000/svg" viewBox="0 0 360 360"><g stroke="#2d263c" stroke-width="7" stroke-linejoin="round" stroke-linecap="round"><path d="M200 250 Q262 246 284 202 L290 172" fill="none" stroke-width="44"/><path d="M200 250 Q262 246 284 202 L290 172" fill="none" stroke="#f2a0ac" stroke-width="31"/><circle cx="290" cy="148" r="40" fill="#a9abc0"/><path d="M290 148 q18 -2 16 14 q-3 17 -22 14 q-23 -4 -20 -27 q4 -27 32 -25" fill="none" stroke-width="6"/><path d="M254 162 Q288 180 318 156 L310 182 L302 162 L293 185 L284 163 L274 184 L266 161 L259 178 Z" fill="#ffffff" stroke-width="5"/><path d="M106 196 Q70 184 62 152 Q58 134 74 132 Q88 132 88 150 Q92 172 116 178 Z" fill="#f2a0ac"/><path d="M222 212 Q250 226 245 256 Q240 274 224 270 Q212 266 218 246 Q220 230 206 222 Z" fill="#f2a0ac"/><path d="M96 230 Q92 172 152 164 Q224 158 232 226 Q238 290 162 300 Q100 296 96 230 Z" fill="#f2a0ac"/><ellipse cx="125" cy="312" rx="26" ry="17" fill="#f2a0ac"/><ellipse cx="198" cy="315" rx="28" ry="16" fill="#f2a0ac"/><path d="M101 306 l-15 3 l12 8 z M108 320 l-13 6 l13 5 z" fill="#ffffff" stroke-width="4"/><path d="M223 311 l16 2 l-12 9 z M217 324 l15 5 l-14 6 z" fill="#ffffff" stroke-width="4"/><path d="M124 240 Q128 208 164 210 Q200 212 202 246 Q202 284 162 288 Q124 280 124 240 Z" fill="#f0e2bb"/><path d="M96 64 Q88 36 112 34 Q130 34 124 60 Z" fill="#f2a0ac"/><path d="M196 58 Q198 30 222 36 Q236 42 222 66 Z" fill="#f2a0ac"/><path d="M88 122 Q88 62 158 58 Q228 60 228 124 Q226 178 156 180 Q90 176 88 122 Z" fill="#f2a0ac"/><path d="M112 142 Q114 112 156 112 Q200 112 200 144 Q198 172 155 172 Q114 170 112 142 Z" fill="#f0e2bb"/><circle cx="124" cy="96" r="10" fill="#ffffff" stroke-width="5"/><circle cx="193" cy="91" r="9" fill="#ffffff" stroke-width="5"/><circle cx="127" cy="98" r="4" fill="#2d263c" stroke="none"/><circle cx="190" cy="93" r="4" fill="#2d263c" stroke="none"/><path d="M147 124 q4 3 0 6 M168 122 q4 3 0 6" fill="none" stroke-width="5"/><path d="M133 146 Q156 166 181 144 Q178 162 156 163 Q137 162 133 146 Z" fill="#7c4a52" stroke-width="6"/><path d="M142 150 l8 6 l3 -8 M176 148 l-7 6 l-3 -7" fill="#ffffff" stroke-width="4"/></g></svg>