<svg xmlns="http://www.w3.org/2000/svg" viewBox="0 0 360 360">
  <path d="M226 292 C274 304 314 288 310 252 C308 234 292 226 284 236 C278 244 284 254 294 252 C294 272 266 284 230 276 Z" fill="#F5A4C2" stroke="#2d263c" stroke-width="7" stroke-linejoin="round" stroke-linecap="round"/>
  <circle cx="293" cy="243" r="13" fill="#F2C94C" stroke="#2d263c" stroke-width="6"/>
  <ellipse cx="150" cy="322" rx="27" ry="15" fill="#F5A4C2" stroke="#2d263c" stroke-width="7"/>
  <ellipse cx="214" cy="321" rx="24" ry="14" fill="#F5A4C2" stroke="#2d263c" stroke-width="7"/>
  <path d="M138 244 C120 276 122 310 152 318 C178 326 196 324 214 316 C242 306 240 272 224 244 Z" fill="#F5A4C2" stroke="#2d263c" stroke-width="7" stroke-linejoin="round"/>
  <ellipse cx="122" cy="272" rx="13" ry="25" transform="rotate(18 122 272)" fill="#F5A4C2" stroke="#2d263c" stroke-width="7"/>
  <ellipse cx="240" cy="266" rx="13" ry="24" transform="rotate(-22 240 266)" fill="#F5A4C2" stroke="#2d263c" stroke-width="7"/>
  <path d="M112 294 L106 302 M120 296 L118 306" fill="none" stroke="#2d263c" stroke-width="4" stroke-linecap="round"/>
  <path d="M248 288 L256 296 M242 292 L246 302" fill="none" stroke="#2d263c" stroke-width="4" stroke-linecap="round"/>
  <ellipse cx="180" cy="288" rx="36" ry="27" fill="#F2DCB4" stroke="#2d263c" stroke-width="6"/>
  <path d="M140 318 L142 330 M158 316 L160 330" fill="none" stroke="#2d263c" stroke-width="4" stroke-linecap="round"/>
  <path d="M206 316 L208 328 M222 314 L223 328" fill="none" stroke="#2d263c" stroke-width="4" stroke-linecap="round"/>
  <path d="M116 236 L132 220 L148 236 L164 220 L181 238 L198 220 L214 236 L230 220 L246 234 C250 252 214 260 181 260 C148 260 112 254 116 236 Z" fill="#8B7BA6" stroke="#2d263c" stroke-width="7" stroke-linejoin="round"/>
  <ellipse cx="181" cy="190" rx="56" ry="48" fill="#F5A4C2" stroke="#2d263c" stroke-width="7"/>
  <ellipse cx="181" cy="206" rx="32" ry="21" fill="#F2DCB4" stroke="#2d263c" stroke-width="6"/>
  <ellipse cx="156" cy="180" rx="9" ry="10" fill="#ffffff" stroke="#2d263c" stroke-width="5"/>
  <ellipse cx="206" cy="178" rx="8" ry="9" fill="#ffffff" stroke="#2d263c" stroke-width="5"/>
  <circle cx="157" cy="182" r="3" fill="#2d263c"/>
  <circle cx="205" cy="180" r="3" fill="#2d263c"/>
  <path d="M172 196 L174 198 M189 195 L191 197" fill="none" stroke="#2d263c" stroke-width="4" stroke-linecap="round"/>
  <path d="M163 206 C168 222 196 222 200 204 C188 210 172 210 163 206 Z" fill="#5b2a3e" stroke="#2d263c" stroke-width="5" stroke-linejoin="round"/>
  <rect x="170" y="203" width="8" height="7" fill="#ffffff" stroke="#2d263c" stroke-width="3"/>
  <rect x="184" y="202" width="8" height="7" fill="#ffffff" stroke="#2d263c" stroke-width="3"/>
  <path d="M102 150 C106 116 128 84 158 58 C172 44 196 30 208 40 C220 50 212 66 198 62 C226 84 250 116 260 148 C222 162 140 162 102 150 Z" fill="#8B7BA6" stroke="#2d263c" stroke-width="7" stroke-linejoin="round"/>
  <circle cx="206" cy="44" r="9" fill="#6E5C90" stroke="#2d263c" stroke-width="6"/>
  <path d="M116 124 C158 140 212 138 248 122" fill="none" stroke="#2d263c" stroke-width="5" stroke-linecap="round"/>
  <path d="M138 92 C168 106 202 104 228 88" fill="none" stroke="#2d263c" stroke-width="5" stroke-linecap="round"/>
  <path d="M102 146 L78 138 L100 126 Z" fill="#6E5C90" stroke="#2d263c" stroke-width="6" stroke-linejoin="round"/>
  <path d="M260 144 L284 134 L258 122 Z" fill="#6E5C90" stroke="#2d263c" stroke-width="6" stroke-linejoin="round"/>
  <ellipse cx="181" cy="150" rx="84" ry="15" fill="#6E5C90" stroke="#2d263c" stroke-width="7"/>
  <ellipse cx="150" cy="148" rx="11" ry="9" fill="#ffffff" stroke="#2d263c" stroke-width="5"/>
  <ellipse cx="214" cy="146" rx="10" ry="8" fill="#ffffff" stroke="#2d263c" stroke-width="5"/>
  <circle cx="152" cy="149" r="4" fill="#D83A3A"/>
  <circle cx="212" cy="147" r="4" fill="#D83A3A"/>
  <path d="M137 137 L162 142" fill="none" stroke="#2d263c" stroke-width="5" stroke-linecap="round"/>
  <path d="M227 134 L203 140" fill="none" stroke="#2d263c" stroke-width="5" stroke-linecap="round"/>
</svg>