<svg xmlns="http://www.w3.org/2000/svg" viewBox="0 0 360 360">
  <!-- left arm (out, 3 claws) -->
  <path d="M130,232 Q92,240 74,262 L56,254 L70,272 L50,278 L68,286 L58,300 L82,290 Q102,284 112,264 Q120,248 132,246 Z" fill="#6C5B9E" stroke="#2d263c" stroke-width="7" stroke-linejoin="round" stroke-linecap="round"/>
  <!-- right arm (raised, waving) -->
  <path d="M232,226 Q264,218 280,196 L290,176 L296,194 L312,184 L302,202 L318,206 L298,216 Q284,238 258,246 Q242,250 238,238 Z" fill="#6C5B9E" stroke="#2d263c" stroke-width="7" stroke-linejoin="round" stroke-linecap="round"/>
  <!-- left leg -->
  <path d="M150,300 L138,334 L150,328 L156,338 L166,328 L164,304 Z" fill="#6C5B9E" stroke="#2d263c" stroke-width="7" stroke-linejoin="round" stroke-linecap="round"/>
  <!-- right leg -->
  <path d="M204,302 L200,330 L210,326 L218,338 L226,328 L218,302 Z" fill="#6C5B9E" stroke="#2d263c" stroke-width="7" stroke-linejoin="round" stroke-linecap="round"/>
  <!-- torso -->
  <path d="M150,204 Q120,224 115,264 Q112,298 146,312 Q180,322 214,310 Q246,296 242,260 Q238,222 212,204 Q180,214 150,204 Z" fill="#6C5B9E" stroke="#2d263c" stroke-width="7" stroke-linejoin="round" stroke-linecap="round"/>
  <!-- head with pointy zigzag ears (a bit lopsided on purpose) -->
  <path d="M118,96 L94,38 L140,70 Q180,52 220,68 L254,32 L242,92 Q272,128 256,168 Q236,206 182,212 Q126,208 108,166 Q94,128 118,96 Z" fill="#6C5B9E" stroke="#2d263c" stroke-width="8" stroke-linejoin="round" stroke-linecap="round"/>
  <!-- inner ear scribbles -->
  <path d="M112,84 L102,54 L126,72" fill="none" stroke="#584a82" stroke-width="5" stroke-linejoin="round" stroke-linecap="round"/>
  <path d="M246,80 L250,48 L228,72" fill="none" stroke="#584a82" stroke-width="5" stroke-linejoin="round" stroke-linecap="round"/>
  <!-- big diamond gem eyes -->
  <polygon points="142,96 170,128 140,160 112,126" fill="#CFEFF7" stroke="#2d263c" stroke-width="7" stroke-linejoin="round"/>
  <polygon points="218,92 250,122 222,156 192,124" fill="#CFEFF7" stroke="#2d263c" stroke-width="7" stroke-linejoin="round"/>
  <!-- eye sparkles -->
  <polygon points="134,112 144,124 134,136 124,124" fill="#ffffff"/>
  <polygon points="230,108 240,120 230,132 220,120" fill="#ffffff"/>
  <!-- huge zigzag grin -->
  <path d="M126,170 Q182,186 238,162 L224,182 L212,172 L202,192 L188,176 L176,194 L162,178 L150,192 L140,176 Z" fill="#ffffff" stroke="#2d263c" stroke-width="6" stroke-linejoin="round" stroke-linecap="round"/>
  <!-- red chest gem -->
  <polygon points="178,228 204,256 178,286 154,256" fill="#E84A5F" stroke="#2d263c" stroke-width="7" stroke-linejoin="round"/>
  <polygon points="178,242 192,256 178,272 165,256" fill="#F58A98"/>
</svg>