<svg xmlns="http://www.w3.org/2000/svg" viewBox="0 0 360 360">
  <!-- tail (back layer) -->
  <path d="M150,262 C100,258 62,232 56,192 C54,178 66,180 71,192 C82,216 112,238 156,248 Z" fill="#F2E3C2" stroke="#2d263c" stroke-width="7" stroke-linejoin="round" stroke-linecap="round"/>
  <circle cx="58" cy="196" r="14" fill="#F2E3C2" stroke="#2d263c" stroke-width="6"/>
  <circle cx="66" cy="178" r="11" fill="#F2E3C2" stroke="#2d263c" stroke-width="6"/>
  <circle cx="80" cy="166" r="9" fill="#F2E3C2" stroke="#2d263c" stroke-width="6"/>

  <!-- legs -->
  <path d="M150,268 C144,288 147,306 158,309 C169,311 176,300 172,280 L164,266 Z" fill="#F2E3C2" stroke="#2d263c" stroke-width="7" stroke-linejoin="round" stroke-linecap="round"/>
  <path d="M210,268 C216,288 213,306 202,309 C191,311 184,300 188,280 L196,266 Z" fill="#F2E3C2" stroke="#2d263c" stroke-width="7" stroke-linejoin="round" stroke-linecap="round"/>
  <ellipse cx="159" cy="314" rx="23" ry="12" fill="#F2E3C2" stroke="#2d263c" stroke-width="7"/>
  <ellipse cx="201" cy="314" rx="23" ry="12" fill="#F2E3C2" stroke="#2d263c" stroke-width="7"/>

  <!-- torso -->
  <path d="M141,172 C120,192 116,232 129,266 C145,297 215,297 231,266 C244,232 240,192 219,172 C204,157 156,157 141,172 Z" fill="#F5E9CE" stroke="#2d263c" stroke-width="8" stroke-linejoin="round" stroke-linecap="round"/>

  <!-- belly spiral mark -->
  <path d="M196,214 C212,214 212,232 198,235 C186,238 176,228 182,218 C186,211 196,212 197,220" fill="none" stroke="#D9531E" stroke-width="8" stroke-linecap="round" stroke-linejoin="round"/>

  <!-- arms -->
  <path d="M144,178 C108,192 84,216 76,246 C73,258 82,262 90,254 C102,234 122,206 152,192 Z" fill="#F2E3C2" stroke="#2d263c" stroke-width="7" stroke-linejoin="round" stroke-linecap="round"/>
  <path d="M216,178 C252,192 276,216 284,246 C287,258 278,262 270,254 C258,234 238,206 208,192 Z" fill="#F2E3C2" stroke="#2d263c" stroke-width="7" stroke-linejoin="round" stroke-linecap="round"/>
  <circle cx="80" cy="252" r="17" fill="#F2E3C2" stroke="#2d263c" stroke-width="7"/>
  <circle cx="280" cy="252" r="17" fill="#F2E3C2" stroke="#2d263c" stroke-width="7"/>
  <path d="M70,262 L60,272" stroke="#2d263c" stroke-width="5" stroke-linecap="round"/>
  <path d="M78,266 L71,278" stroke="#2d263c" stroke-width="5" stroke-linecap="round"/>
  <path d="M290,262 L300,272" stroke="#2d263c" stroke-width="5" stroke-linecap="round"/>
  <path d="M282,266 L289,278" stroke="#2d263c" stroke-width="5" stroke-linecap="round"/>

  <!-- head -->
  <circle cx="180" cy="118" r="57" fill="#F5E9CE" stroke="#2d263c" stroke-width="8"/>
  <circle cx="130" cy="97" r="15" fill="#F2E3C2" stroke="#2d263c" stroke-width="6"/>
  <circle cx="230" cy="97" r="15" fill="#F2E3C2" stroke="#2d263c" stroke-width="6"/>

  <!-- messy hair tufts -->
  <path d="M148,80 L142,34 L167,73 Z" fill="#F5E9CE" stroke="#2d263c" stroke-width="6" stroke-linejoin="round"/>
  <path d="M170,74 L177,26 L192,73 Z" fill="#F5E9CE" stroke="#2d263c" stroke-width="6" stroke-linejoin="round"/>
  <path d="M194,78 L216,40 L206,80 Z" fill="#F5E9CE" stroke="#2d263c" stroke-width="6" stroke-linejoin="round"/>

  <!-- eyes -->
  <circle cx="157" cy="110" r="17" fill="#FFFFFF" stroke="#2d263c" stroke-width="6"/>
  <circle cx="203" cy="110" r="17" fill="#FFFFFF" stroke="#2d263c" stroke-width="6"/>
  <circle cx="159" cy="113" r="8" fill="#2d263c"/>
  <circle cx="205" cy="113" r="8" fill="#2d263c"/>

  <!-- tired under-eye marks -->
  <path d="M140,124 Q157,138 175,124 Q157,131 140,124 Z" fill="#8A3B2A"/>
  <path d="M185,124 Q202,138 220,124 Q202,131 185,124 Z" fill="#8A3B2A"/>

  <!-- nose -->
  <ellipse cx="180" cy="130" rx="4" ry="3" fill="#2d263c"/>

  <!-- open mouth -->
  <path d="M156,146 Q180,172 204,146 Q180,160 156,146 Z" fill="#8A2E2A" stroke="#2d263c" stroke-width="6" stroke-linejoin="round"/>
  <path d="M170,152 L176,160 L182,152 L188,160" fill="none" stroke="#FFFFFF" stroke-width="4" stroke-linecap="round" stroke-linejoin="round"/>
</svg>
