<svg xmlns="http://www.w3.org/2000/svg" viewBox="0 0 360 360">
  <!-- シェルダー(後ろ) -->
  <ellipse cx="255" cy="278" rx="42" ry="28" fill="#7B6DB5" stroke="#2d263c" stroke-width="7" stroke-linejoin="round"/>
  <ellipse cx="255" cy="270" rx="34" ry="20" fill="#9B8DD5" stroke="#2d263c" stroke-width="5" stroke-linejoin="round"/>
  <!-- シェルダーの縦筋 -->
  <line x1="255" y1="252" x2="255" y2="290" stroke="#2d263c" stroke-width="4" stroke-linecap="round"/>
  <line x1="242" y1="254" x2="240" y2="288" stroke="#2d263c" stroke-width="3" stroke-linecap="round"/>
  <line x1="268" y1="254" x2="270" y2="288" stroke="#2d263c" stroke-width="3" stroke-linecap="round"/>
  <!-- シェルダーの目 -->
  <ellipse cx="249" cy="262" rx="5" ry="6" fill="#2d263c"/>
  <ellipse cx="262" cy="262" rx="5" ry="6" fill="#2d263c"/>
  <circle cx="250" cy="260" r="2" fill="white"/>
  <circle cx="263" cy="260" r="2" fill="white"/>
  <!-- シェルダーの口/触手 -->
  <path d="M 248 272 Q 255 278 262 272" fill="none" stroke="#2d263c" stroke-width="4" stroke-linecap="round"/>
  <path d="M 240 276 Q 237 285 233 290" fill="none" stroke="#7B6DB5" stroke-width="7" stroke-linecap="round"/>
  <path d="M 270 276 Q 273 285 276 291" fill="none" stroke="#7B6DB5" stroke-width="7" stroke-linecap="round"/>

  <!-- しっぽ -->
  <path d="M 215 260 Q 245 240 248 268" fill="#F4A0B0" stroke="#2d263c" stroke-width="7" stroke-linejoin="round" stroke-linecap="round"/>

  <!-- 左足 -->
  <path d="M 135 290 Q 125 310 118 318 Q 128 322 138 316 Q 148 322 155 314 Q 162 322 170 316 Q 175 308 168 292" fill="#F4A0B0" stroke="#2d263c" stroke-width="7" stroke-linejoin="round" stroke-linecap="round"/>
  <!-- 右足 -->
  <path d="M 190 292 Q 185 312 180 318 Q 190 324 200 316 Q 210 322 218 316 Q 225 308 220 294" fill="#F4A0B0" stroke="#2d263c" stroke-width="7" stroke-linejoin="round" stroke-linecap="round"/>

  <!-- 体 -->
  <ellipse cx="175" cy="235" rx="78" ry="80" fill="#F4A0B0" stroke="#2d263c" stroke-width="8" stroke-linejoin="round"/>
  <!-- お腹(白) -->
  <ellipse cx="172" cy="248" rx="48" ry="52" fill="#FDE8EE" stroke="none"/>
  <ellipse cx="172" cy="248" rx="48" ry="52" fill="none" stroke="#2d263c" stroke-width="4" stroke-linejoin="round"/>

  <!-- 左腕 -->
  <path d="M 108 215 Q 82 220 76 240 Q 80 258 96 260 Q 106 256 110 244" fill="#F4A0B0" stroke="#2d263c" stroke-width="7" stroke-linejoin="round" stroke-linecap="round"/>
  <!-- 左手の爪 -->
  <path d="M 76 258 Q 68 268 72 276" fill="none" stroke="#2d263c" stroke-width="6" stroke-linecap="round"/>
  <path d="M 84 262 Q 80 272 84 280" fill="none" stroke="#2d263c" stroke-width="6" stroke-linecap="round"/>
  <path d="M 94 263 Q 92 274 96 282" fill="none" stroke="#2d263c" stroke-width="6" stroke-linecap="round"/>

  <!-- 右腕 -->
  <path d="M 238 210 Q 264 215 272 234 Q 272 252 258 256 Q 246 255 240 242" fill="#F4A0B0" stroke="#2d263c" stroke-width="7" stroke-linejoin="round" stroke-linecap="round"/>
  <!-- 右手の爪 -->
  <path d="M 272 252 Q 280 262 276 270" fill="none" stroke="#2d263c" stroke-width="6" stroke-linecap="round"/>
  <path d="M 264 258 Q 270 268 266 276" fill="none" stroke="#2d263c" stroke-width="6" stroke-linecap="round"/>
  <path d="M 254 260 Q 258 270 254 278" fill="none" stroke="#2d263c" stroke-width="6" stroke-linecap="round"/>

  <!-- 頭 -->
  <ellipse cx="175" cy="145" rx="72" ry="68" fill="#F4A0B0" stroke="#2d263c" stroke-width="8" stroke-linejoin="round"/>

  <!-- 左耳っぽい突起 -->
  <path d="M 120 118 Q 100 88 108 72 Q 122 80 128 100 Q 130 110 125 120" fill="#F4A0B0" stroke="#2d263c" stroke-width="7" stroke-linejoin="round" stroke-linecap="round"/>
  <!-- 右耳っぽい突起 -->
  <path d="M 228 116 Q 252 88 248 70 Q 234 77 226 98 Q 222 110 226 118" fill="#F4A0B0" stroke="#2d263c" stroke-width="7" stroke-linejoin="round" stroke-linecap="round"/>

  <!-- 顔 -->
  <!-- 目(半目・ぼんやり) -->
  <ellipse cx="153" cy="148" rx="13" ry="10" fill="white" stroke="#2d263c" stroke-width="5"/>
  <ellipse cx="197" cy="148" rx="13" ry="10" fill="white" stroke="#2d263c" stroke-width="5"/>
  <!-- 瞳 -->
  <ellipse cx="156" cy="150" rx="7" ry="6" fill="#2d263c"/>
  <ellipse cx="200" cy="150" rx="7" ry="6" fill="#2d263c"/>
  <circle cx="158" cy="148" r="2.5" fill="white"/>
  <circle cx="202" cy="148" r="2.5" fill="white"/>
  <!-- まぶた(半目にする線) -->
  <path d="M 140 143 Q 153 138 166 143" fill="none" stroke="#2d263c" stroke-width="5" stroke-linecap="round"/>
  <path d="M 184 143 Q 197 138 210 143" fill="none" stroke="#2d263c" stroke-width="5" stroke-linecap="round"/>

  <!-- 鼻 -->
  <ellipse cx="175" cy="162" rx="9" ry="7" fill="#E87090"/>

  <!-- ぽかんと開いた口 -->
  <path d="M 158 178 Q 175 192 192 178" fill="#C04060" stroke="#2d263c" stroke-width="5" stroke-linecap="round" stroke-linejoin="round"/>
  <path d="M 158 178 Q 175 200 192 178" fill="#E05070" stroke="none"/>
  <!-- 舌 -->
  <ellipse cx="175" cy="192" rx="10" ry="7" fill="#F06080" stroke="none"/>

  <!-- ほっぺの赤み -->
  <ellipse cx="136" cy="168" rx="12" ry="9" fill="#F06878" opacity="0.55"/>
  <ellipse cx="214" cy="168" rx="12" ry="9" fill="#F06878" opacity="0.55"/>
</svg>