<svg xmlns="http://www.w3.org/2000/svg" viewBox="0 0 360 360">
  <!-- しっぽ(後ろ) -->
  <path d="M 195 270 Q 230 295 245 320 Q 250 335 235 332 Q 218 328 210 310 Q 200 290 185 280" fill="#F4A0B0" stroke="#2d263c" stroke-width="7" stroke-linejoin="round" stroke-linecap="round"/>

  <!-- 体 -->
  <ellipse cx="178" cy="225" rx="72" ry="80" fill="#F4A0B0" stroke="#2d263c" stroke-width="8" stroke-linejoin="round"/>

  <!-- お腹の白い部分 -->
  <ellipse cx="175" cy="238" rx="44" ry="55" fill="#FFF0F5" stroke="#2d263c" stroke-width="5" stroke-linejoin="round"/>

  <!-- 左足 -->
  <path d="M 140 285 Q 125 305 118 325 Q 115 338 135 336 Q 152 334 155 315 Q 157 298 155 285" fill="#F4A0B0" stroke="#2d263c" stroke-width="7" stroke-linejoin="round" stroke-linecap="round"/>

  <!-- 右足 -->
  <path d="M 200 285 Q 208 305 212 325 Q 215 338 232 334 Q 245 330 238 315 Q 230 298 218 285" fill="#F4A0B0" stroke="#2d263c" stroke-width="7" stroke-linejoin="round" stroke-linecap="round"/>

  <!-- 左腕 -->
  <path d="M 120 200 Q 90 215 75 235 Q 68 248 80 252 Q 95 256 110 240 Q 125 222 135 210" fill="#F4A0B0" stroke="#2d263c" stroke-width="7" stroke-linejoin="round" stroke-linecap="round"/>

  <!-- 右腕 -->
  <path d="M 228 200 Q 260 210 278 228 Q 290 242 278 250 Q 264 258 248 242 Q 232 225 222 210" fill="#F4A0B0" stroke="#2d263c" stroke-width="7" stroke-linejoin="round" stroke-linecap="round"/>

  <!-- 首(シェルダーの赤い唇部分=首輪) -->
  <path d="M 148 158 Q 160 152 178 150 Q 196 150 208 158 Q 212 165 210 172 Q 195 180 178 180 Q 158 180 145 172 Q 142 165 148 158Z" fill="#D63850" stroke="#2d263c" stroke-width="6" stroke-linejoin="round"/>
  <!-- 首輪の縞 -->
  <path d="M 150 162 Q 178 156 207 163" fill="none" stroke="#2d263c" stroke-width="3" stroke-linecap="round"/>
  <path d="M 148 169 Q 178 163 209 170" fill="none" stroke="#2d263c" stroke-width="3" stroke-linecap="round"/>

  <!-- 頭 -->
  <ellipse cx="178" cy="125" rx="62" ry="58" fill="#F4A0B0" stroke="#2d263c" stroke-width="8" stroke-linejoin="round"/>

  <!-- シェルダー(頭に噛みついている王冠部分) - 殻の本体 -->
  <path d="M 120 112 Q 118 75 138 65 Q 158 52 178 50 Q 198 52 218 65 Q 238 75 238 112 Q 220 102 178 100 Q 135 102 120 112Z" fill="#7B3B8C" stroke="#2d263c" stroke-width="7" stroke-linejoin="round"/>

  <!-- シェルダー王冠の突起(左) -->
  <path d="M 132 95 Q 124 72 128 55 Q 132 45 140 50 Q 148 58 142 78 Q 138 90 136 98Z" fill="#9B4FA8" stroke="#2d263c" stroke-width="6" stroke-linejoin="round"/>

  <!-- シェルダー王冠の突起(中央) -->
  <path d="M 168 90 Q 166 60 172 42 Q 176 32 182 42 Q 188 60 186 90Z" fill="#9B4FA8" stroke="#2d263c" stroke-width="6" stroke-linejoin="round"/>

  <!-- シェルダー王冠の突起(右) -->
  <path d="M 224 95 Q 232 72 228 55 Q 224 45 216 50 Q 208 58 214 78 Q 218 90 220 98Z" fill="#9B4FA8" stroke="#2d263c" stroke-width="6" stroke-linejoin="round"/>

  <!-- シェルダーの目(左) -->
  <circle cx="142" cy="88" r="7" fill="#E8C0F0" stroke="#2d263c" stroke-width="4"/>
  <circle cx="143" cy="88" r="3" fill="#2d263c"/>

  <!-- シェルダーの目(右) -->
  <circle cx="214" cy="88" r="7" fill="#E8C0F0" stroke="#2d263c" stroke-width="4"/>
  <circle cx="215" cy="88" r="3" fill="#2d263c"/>

  <!-- ヤドキングの目(左) とろんと半目 -->
  <ellipse cx="158" cy="122" rx="13" ry="11" fill="white" stroke="#2d263c" stroke-width="5"/>
  <ellipse cx="159" cy="124" rx="7" ry="6" fill="#3A2860"/>
  <ellipse cx="161" cy="122" rx="3" ry="3" fill="white"/>
  <!-- 半目のまぶた -->
  <path d="M 145 118 Q 158 114 171 120" fill="none" stroke="#2d263c" stroke-width="5" stroke-linecap="round"/>

  <!-- ヤドキングの目(右) -->
  <ellipse cx="198" cy="122" rx="13" ry="11" fill="white" stroke="#2d263c" stroke-width="5"/>
  <ellipse cx="199" cy="124" rx="7" ry="6" fill="#3A2860"/>
  <ellipse cx="201" cy="122" rx="3" ry="3" fill="white"/>
  <!-- 半目のまぶた(右) ちょっとずれてゆるさを出す -->
  <path d="M 186 117 Q 199 112 212 119" fill="none" stroke="#2d263c" stroke-width="5" stroke-linecap="round"/>

  <!-- 鼻(小さい穴ふたつ) -->
  <ellipse cx="172" cy="136" rx="4" ry="3" fill="#D88098"/>
  <ellipse cx="184" cy="135" rx="4" ry="3" fill="#D88098"/>

  <!-- 口(ぽかんと開いた感じ) -->
  <path d="M 158 146 Q 170 158 182 158 Q 194 157 200 148" fill="white" stroke="#2d263c" stroke-width="5" stroke-linecap="round" stroke-linejoin="round"/>
  <path d="M 158 146 Q 170 155 200 148" fill="none" stroke="#2d263c" stroke-width="5" stroke-linecap="round"/>

  <!-- ほっぺの赤み(左) -->
  <ellipse cx="143" cy="138" rx="12" ry="9" fill="#F07090" opacity="0.6"/>

  <!-- ほっぺの赤み(右) -->
  <ellipse cx="213" cy="137" rx="12" ry="9" fill="#F07090" opacity="0.6"/>
</svg>