<svg xmlns="http://www.w3.org/2000/svg" viewBox="0 0 360 360">
  <!-- 後ろの雪毛(背中の毛束) -->
  <ellipse cx="182" cy="105" rx="62" ry="52" fill="#e8f4f8" stroke="#2d263c" stroke-width="7" stroke-linejoin="round"/>
  <!-- 左肩の雪毛盛り -->
  <ellipse cx="108" cy="148" rx="38" ry="30" fill="#ddeef5" stroke="#2d263c" stroke-width="6" stroke-linejoin="round"/>
  <!-- 右肩の雪毛盛り -->
  <ellipse cx="258" cy="142" rx="42" ry="32" fill="#ddeef5" stroke="#2d263c" stroke-width="6" stroke-linejoin="round"/>

  <!-- 胴体 -->
  <path d="M118 195 C105 205 100 250 108 295 C115 330 170 340 182 340 C196 340 248 330 255 295 C265 250 260 208 248 195 C235 183 215 178 182 178 C152 178 130 185 118 195Z" fill="#3a7a52" stroke="#2d263c" stroke-width="8" stroke-linejoin="round"/>

  <!-- 腹の白い楕円 -->
  <ellipse cx="182" cy="268" rx="48" ry="58" fill="#e8f4f8" stroke="#2d263c" stroke-width="6" stroke-linejoin="round"/>

  <!-- 頭部(青緑) -->
  <ellipse cx="182" cy="148" rx="60" ry="62" fill="#3a7a52" stroke="#2d263c" stroke-width="8" stroke-linejoin="round"/>

  <!-- 頭頂の白い角(左) -->
  <path d="M162 100 C155 78 148 58 158 38 C164 52 166 70 170 90Z" fill="#e8f4f8" stroke="#2d263c" stroke-width="6" stroke-linejoin="round"/>
  <!-- 頭頂の白い角(右) -->
  <path d="M200 98 C208 75 215 55 205 35 C198 50 196 68 192 88Z" fill="#e8f4f8" stroke="#2d263c" stroke-width="6" stroke-linejoin="round"/>
  <!-- 頭頂の白い雪毛(中央盛り) -->
  <ellipse cx="182" cy="105" rx="28" ry="22" fill="#e8f4f8" stroke="#2d263c" stroke-width="6" stroke-linejoin="round"/>

  <!-- 顔の白い毛(アゴひげ・左) -->
  <path d="M148 165 C132 170 118 180 112 198 C122 192 138 182 152 175Z" fill="#e8f4f8" stroke="#2d263c" stroke-width="5" stroke-linejoin="round"/>
  <!-- 顔の白い毛(アゴひげ・右) -->
  <path d="M216 163 C232 168 248 178 254 196 C244 190 228 180 214 173Z" fill="#e8f4f8" stroke="#2d263c" stroke-width="5" stroke-linejoin="round"/>
  <!-- 顎の白い毛(中央) -->
  <ellipse cx="182" cy="188" rx="25" ry="15" fill="#e8f4f8" stroke="#2d263c" stroke-width="5" stroke-linejoin="round"/>

  <!-- 目(左) -->
  <ellipse cx="162" cy="148" rx="11" ry="12" fill="#1a1a2e" stroke="#2d263c" stroke-width="4"/>
  <ellipse cx="158" cy="144" rx="3.5" ry="3.5" fill="white"/>
  <!-- 目(右) -->
  <ellipse cx="204" cy="145" rx="10" ry="13" fill="#1a1a2e" stroke="#2d263c" stroke-width="4"/>
  <ellipse cx="200" cy="141" rx="3" ry="3" fill="white"/>

  <!-- 鼻 -->
  <ellipse cx="182" cy="165" rx="7" ry="5" fill="#1a1a2e"/>

  <!-- 口(ちょっとへんな形) -->
  <path d="M170 175 C176 182 190 182 196 174" fill="none" stroke="#2d263c" stroke-width="5" stroke-linecap="round"/>

  <!-- 左腕 -->
  <path d="M112 200 C90 210 75 228 72 250 C80 248 92 242 102 230 C108 220 112 210 112 200Z" fill="#3a7a52" stroke="#2d263c" stroke-width="7" stroke-linejoin="round"/>
  <!-- 左腕の雪毛 -->
  <ellipse cx="92" cy="222" rx="22" ry="14" fill="#ddeef5" stroke="#2d263c" stroke-width="5" stroke-linejoin="round"/>
  <!-- 左爪 -->
  <path d="M72 250 C62 258 55 268 60 274" fill="none" stroke="#2d263c" stroke-width="6" stroke-linecap="round"/>
  <path d="M78 255 C68 265 64 276 70 280" fill="none" stroke="#2d263c" stroke-width="6" stroke-linecap="round"/>
  <path d="M85 258 C78 270 76 282 83 284" fill="none" stroke="#2d263c" stroke-width="6" stroke-linecap="round"/>

  <!-- 右腕 -->
  <path d="M252 198 C272 208 290 226 293 248 C284 246 272 240 262 226 C256 216 252 208 252 198Z" fill="#3a7a52" stroke="#2d263c" stroke-width="7" stroke-linejoin="round"/>
  <!-- 右腕の雪毛 -->
  <ellipse cx="273" cy="220" rx="22" ry="13" fill="#ddeef5" stroke="#2d263c" stroke-width="5" stroke-linejoin="round"/>
  <!-- 右爪 -->
  <path d="M293 248 C303 256 310 266 305 272" fill="none" stroke="#2d263c" stroke-width="6" stroke-linecap="round"/>
  <path d="M286 253 C296 263 300 274 294 278" fill="none" stroke="#2d263c" stroke-width="6" stroke-linecap="round"/>
  <path d="M279 256 C286 268 288 280 281 282" fill="none" stroke="#2d263c" stroke-width="6" stroke-linecap="round"/>

  <!-- 左足 -->
  <path d="M140 330 C128 338 122 348 128 355 C136 352 150 344 155 335Z" fill="#3a7a52" stroke="#2d263c" stroke-width="7" stroke-linejoin="round"/>
  <!-- 右足 -->
  <path d="M222 330 C234 338 241 348 235 355 C227 352 213 344 208 335Z" fill="#3a7a52" stroke="#2d263c" stroke-width="7" stroke-linejoin="round"/>

  <!-- 背中の雪突起(飾り) -->
  <path d="M182 170 C175 152 172 138 178 128 C182 138 184 152 190 168Z" fill="#e8f4f8" stroke="#2d263c" stroke-width="5" stroke-linejoin="round"/>
</svg>