<svg xmlns="http://www.w3.org/2000/svg" viewBox="0 0 360 360">
  <path d="M180,60 C120,64 70,110 50,170 C35,215 30,255 45,290 C55,300 68,296 78,308 C88,320 98,300 112,313 C124,325 133,304 148,317 C160,327 168,308 180,318 C192,308 200,327 212,317 C227,304 236,325 248,313 C262,300 272,320 282,308 C292,296 305,300 315,290 C330,255 325,215 310,170 C290,110 240,64 180,60 Z"
        fill="#ffffff" stroke="#2d263c" stroke-width="8" stroke-linejoin="round" stroke-linecap="round"/>
  <path d="M60,230 C60,270 90,300 180,305 C270,300 300,270 300,230 C300,275 270,310 180,315 C90,310 60,275 60,230 Z"
        fill="#c3e9f5" stroke="#2d263c" stroke-width="7" stroke-linejoin="round" stroke-linecap="round"/>
  <path d="M75,108 C50,124 32,160 42,200 C55,208 68,190 78,155 C84,135 82,120 75,108 Z"
        fill="#ffffff" stroke="#2d263c" stroke-width="7" stroke-linejoin="round" stroke-linecap="round"/>
  <path d="M285,108 C310,124 328,160 318,200 C305,208 292,190 282,155 C276,135 278,120 285,108 Z"
        fill="#ffffff" stroke="#2d263c" stroke-width="7" stroke-linejoin="round" stroke-linecap="round"/>
  <circle cx="130" cy="88" r="11" fill="#ffffff" stroke="#2d263c" stroke-width="6" stroke-linejoin="round" stroke-linecap="round"/>
  <circle cx="180" cy="74" r="13" fill="#ffffff" stroke="#2d263c" stroke-width="6" stroke-linejoin="round" stroke-linecap="round"/>
  <circle cx="230" cy="88" r="11" fill="#ffffff" stroke="#2d263c" stroke-width="6" stroke-linejoin="round" stroke-linecap="round"/>
  <ellipse cx="140" cy="178" rx="19" ry="27" fill="#7a1930" stroke="#2d263c" stroke-width="7" stroke-linejoin="round" stroke-linecap="round"/>
  <ellipse cx="220" cy="178" rx="19" ry="27" fill="#7a1930" stroke="#2d263c" stroke-width="7" stroke-linejoin="round" stroke-linecap="round"/>
  <ellipse cx="133" cy="164" rx="6" ry="8" fill="#ffffff"/>
  <ellipse cx="213" cy="164" rx="6" ry="8" fill="#ffffff"/>
  <path d="M165,222 C165,214 173,210 180,214 C187,210 195,214 195,222 C195,230 187,232 180,228 C173,232 165,230 165,222 Z"
        fill="#2d263c" stroke="#2d263c" stroke-width="6" stroke-linejoin="round" stroke-linecap="round"/>
  <ellipse cx="95" cy="312" rx="15" ry="10" fill="#2d263c" stroke="#2d263c" stroke-width="6" stroke-linejoin="round" stroke-linecap="round"/>
  <ellipse cx="140" cy="320" rx="15" ry="10" fill="#2d263c" stroke="#2d263c" stroke-width="6" stroke-linejoin="round" stroke-linecap="round"/>
  <ellipse cx="180" cy="323" rx="15" ry="10" fill="#2d263c" stroke="#2d263c" stroke-width="6" stroke-linejoin="round" stroke-linecap="round"/>
  <ellipse cx="220" cy="320" rx="15" ry="10" fill="#2d263c" stroke="#2d263c" stroke-width="6" stroke-linejoin="round" stroke-linecap="round"/>
  <ellipse cx="265" cy="312" rx="15" ry="10" fill="#2d263c" stroke="#2d263c" stroke-width="6" stroke-linejoin="round" stroke-linecap="round"/>
</svg>
