<svg xmlns="http://www.w3.org/2000/svg" viewBox="0 0 360 360">
  <ellipse cx="180" cy="330" rx="70" ry="13" fill="#2d263c" opacity="0.15"/>

  <path d="M150,115 C108,145 88,215 98,300 C102,322 120,318 117,296 C109,228 128,168 162,130 Z" fill="#f7d94c" stroke="#2d263c" stroke-width="7" stroke-linejoin="round" stroke-linecap="round"/>
  <path d="M180,108 C179,160 177,240 182,312 C184,328 198,327 196,311 C191,238 189,160 190,108 Z" fill="#f7d94c" stroke="#2d263c" stroke-width="7" stroke-linejoin="round" stroke-linecap="round"/>
  <path d="M210,115 C252,145 272,215 262,300 C258,322 240,318 243,296 C251,228 232,168 198,130 Z" fill="#f7d94c" stroke="#2d263c" stroke-width="7" stroke-linejoin="round" stroke-linecap="round"/>

  <path d="M175,255 C158,285 148,315 128,332" fill="none" stroke="#5aa9d6" stroke-width="9" stroke-linecap="round"/>
  <path d="M185,255 C202,285 212,315 232,332" fill="none" stroke="#5aa9d6" stroke-width="9" stroke-linecap="round"/>

  <ellipse cx="150" cy="292" rx="17" ry="13" fill="#eaf6fa" stroke="#2d263c" stroke-width="7"/>
  <ellipse cx="210" cy="292" rx="17" ry="13" fill="#eaf6fa" stroke="#2d263c" stroke-width="7"/>
  <ellipse cx="97" cy="228" rx="19" ry="14" fill="#eaf6fa" stroke="#2d263c" stroke-width="7"/>
  <ellipse cx="263" cy="228" rx="19" ry="14" fill="#eaf6fa" stroke="#2d263c" stroke-width="7"/>

  <ellipse cx="180" cy="205" rx="95" ry="90" fill="#eaf6fa" stroke="#2d263c" stroke-width="8"/>

  <ellipse cx="150" cy="195" rx="31" ry="35" fill="#2d263c"/>
  <ellipse cx="210" cy="195" rx="31" ry="35" fill="#2d263c"/>

  <ellipse cx="150" cy="198" rx="20" ry="25" fill="#e8433a" stroke="#2d263c" stroke-width="6"/>
  <ellipse cx="210" cy="198" rx="20" ry="25" fill="#e8433a" stroke="#2d263c" stroke-width="6"/>

  <circle cx="144" cy="188" r="5" fill="#ffffff"/>
  <circle cx="204" cy="188" r="5" fill="#ffffff"/>

  <path d="M170,236 Q180,244 190,236" fill="none" stroke="#2d263c" stroke-width="6" stroke-linecap="round"/>
</svg>
