<svg xmlns="http://www.w3.org/2000/svg" viewBox="0 0 360 360">
  <ellipse cx="180" cy="330" rx="120" ry="14" fill="#2d263c" opacity="0.15"/>

  <path d="M75,250 C50,260 45,290 65,310 C80,325 70,300 78,278 C60,270 68,255 75,250 Z" fill="#d9b877" stroke="#2d263c" stroke-width="7" stroke-linejoin="round" stroke-linecap="round"/>
  <path d="M285,250 C310,260 315,290 295,310 C280,325 290,300 282,278 C300,270 292,255 285,250 Z" fill="#d9b877" stroke="#2d263c" stroke-width="7" stroke-linejoin="round" stroke-linecap="round"/>

  <path d="M100,338 C62,338 48,300 62,262 C42,240 48,198 72,178 C56,148 72,108 112,98 C112,78 132,58 160,64 C170,44 200,44 210,64 C240,58 260,78 256,104 C290,114 300,150 284,180 C306,204 300,246 274,266 C286,300 260,336 220,338 C220,338 140,342 100,338 Z"
    fill="#d9b877" stroke="#2d263c" stroke-width="8" stroke-linejoin="round" stroke-linecap="round"/>

  <path d="M100,300 C90,320 105,335 130,336 C150,337 160,330 155,315 C140,320 110,315 100,300 Z" fill="#b8934f" opacity="0.6"/>
  <path d="M260,295 C270,315 255,332 232,334 C215,335 205,328 210,313 C225,318 252,312 260,295 Z" fill="#b8934f" opacity="0.6"/>

  <rect x="118" y="52" width="34" height="40" rx="8" fill="#d9b877" stroke="#2d263c" stroke-width="7" stroke-linejoin="round"/>
  <rect x="163" y="42" width="34" height="48" rx="8" fill="#d9b877" stroke="#2d263c" stroke-width="7" stroke-linejoin="round"/>
  <rect x="208" y="54" width="32" height="38" rx="8" fill="#d9b877" stroke="#2d263c" stroke-width="7" stroke-linejoin="round"/>

  <line x1="180" y1="42" x2="180" y2="14" stroke="#2d263c" stroke-width="6" stroke-linecap="round"/>
  <path d="M180,16 L212,26 L180,38 Z" fill="#e74c3c" stroke="#2d263c" stroke-width="6" stroke-linejoin="round"/>

  <circle cx="108" cy="178" r="19" fill="#4a3b26" stroke="#2d263c" stroke-width="6"/>
  <circle cx="252" cy="188" r="17" fill="#4a3b26" stroke="#2d263c" stroke-width="6"/>
  <circle cx="185" cy="255" r="15" fill="#4a3b26" stroke="#2d263c" stroke-width="6"/>

  <ellipse cx="108" cy="182" rx="9" ry="10" fill="#eafcff"/>
  <circle cx="108" cy="180" r="3" fill="#2d263c"/>
  <ellipse cx="252" cy="192" rx="8" ry="9" fill="#eafcff"/>
  <circle cx="252" cy="190" r="3" fill="#2d263c"/>

  <path d="M148,205 C140,185 148,168 165,168 C182,168 188,192 172,215 C165,225 155,220 148,205 Z" fill="#63e6e8" stroke="#2d263c" stroke-width="7" stroke-linejoin="round"/>
  <path d="M215,205 C207,185 215,168 232,168 C249,168 255,192 239,215 C232,225 222,220 215,205 Z" fill="#63e6e8" stroke="#2d263c" stroke-width="7" stroke-linejoin="round"/>
  <circle cx="166" cy="195" r="6" fill="#1f8a94"/>
  <circle cx="233" cy="195" r="6" fill="#1f8a94"/>

  <path d="M155,240 L170,250 L185,238 L200,250 L215,238 L230,248" fill="none" stroke="#2d263c" stroke-width="7" stroke-linecap="round" stroke-linejoin="round"/>

  <path d="M130,130 C140,140 150,140 158,132" fill="none" stroke="#b8934f" stroke-width="5" stroke-linecap="round"/>
  <path d="M200,120 C212,128 222,126 228,116" fill="none" stroke="#b8934f" stroke-width="5" stroke-linecap="round"/>
</svg>
