<svg xmlns="http://www.w3.org/2000/svg" viewBox="0 0 360 360">
<g stroke="#2d263c" stroke-width="7" stroke-linejoin="round" stroke-linecap="round">
<path d="M242 228 Q302 198 300 270 Q294 322 244 312 Q220 302 226 270 Z" fill="#a87340"/>
<path d="M252 250 Q286 236 286 276 Q276 300 250 290 Z" fill="#ecd6b0"/>
<ellipse cx="170" cy="235" rx="65" ry="60" fill="#a87340"/>
<ellipse cx="170" cy="250" rx="40" ry="42" fill="#ecd6b0"/>
<ellipse cx="165" cy="150" rx="55" ry="48" fill="#a87340"/>
<circle cx="120" cy="168" r="22" fill="#925e30"/>
<circle cx="210" cy="168" r="22" fill="#925e30"/>
<ellipse cx="165" cy="162" rx="33" ry="27" fill="#ecd6b0"/>
<ellipse cx="135" cy="112" rx="10" ry="14" fill="#7a4f2e"/>
<ellipse cx="195" cy="112" rx="10" ry="14" fill="#7a4f2e"/>
<circle cx="150" cy="152" r="6" fill="#2d263c"/>
<circle cx="180" cy="152" r="6" fill="#2d263c"/>
<circle cx="165" cy="170" r="4" fill="#2d263c"/>
<path d="M165 174 Q165 184 158 188 M165 174 Q165 184 172 188" fill="none"/>
<ellipse cx="140" cy="291" rx="18" ry="11" fill="#7a4f2e"/>
<ellipse cx="195" cy="291" rx="18" ry="11" fill="#7a4f2e"/>
</g>
</svg>