<svg xmlns="http://www.w3.org/2000/svg" viewBox="0 0 360 360">
  <path d="M225,285 Q280,268 296,188 Q301,158 286,138 Q276,164 260,196 Q236,242 220,278 Z" fill="#b47a3c" stroke="#2d263c" stroke-width="8" stroke-linejoin="round"/>
  <path d="M120,298 Q100,230 120,180 Q140,150 180,148 Q220,150 240,180 Q260,230 240,298 Q220,308 180,308 Q140,308 120,298 Z" fill="#b47a3c" stroke="#2d263c" stroke-width="8" stroke-linejoin="round"/>
  <ellipse cx="146" cy="316" rx="26" ry="16" fill="#8a5a26" stroke="#2d263c" stroke-width="6"/>
  <ellipse cx="214" cy="316" rx="26" ry="16" fill="#8a5a26" stroke="#2d263c" stroke-width="6"/>
  <ellipse cx="106" cy="248" rx="22" ry="30" fill="#b47a3c" stroke="#2d263c" stroke-width="7"/>
  <ellipse cx="254" cy="248" rx="22" ry="30" fill="#b47a3c" stroke="#2d263c" stroke-width="7"/>
  <ellipse cx="180" cy="252" rx="48" ry="66" fill="#f5e6c8" stroke="#2d263c" stroke-width="6"/>
  <circle cx="180" cy="128" r="52" fill="#b47a3c" stroke="#2d263c" stroke-width="8"/>
  <ellipse cx="140" cy="90" rx="20" ry="26" fill="#b47a3c" stroke="#2d263c" stroke-width="7" transform="rotate(-15 140 90)"/>
  <ellipse cx="220" cy="90" rx="20" ry="26" fill="#b47a3c" stroke="#2d263c" stroke-width="7" transform="rotate(15 220 90)"/>
  <ellipse cx="142" cy="94" rx="10" ry="14" fill="#f5e6c8" transform="rotate(-15 142 94)"/>
  <ellipse cx="218" cy="94" rx="10" ry="14" fill="#f5e6c8" transform="rotate(15 218 94)"/>
  <path d="M148,163 Q140,200 160,222 Q180,232 200,222 Q220,200 212,163 Q196,180 180,182 Q164,180 148,163 Z" fill="#f5e6c8" stroke="#2d263c" stroke-width="7" stroke-linejoin="round"/>
  <ellipse cx="180" cy="216" rx="15" ry="11" fill="#241f2e"/>
  <circle cx="158" cy="123" r="10" fill="#241f2e"/>
  <circle cx="202" cy="123" r="10" fill="#241f2e"/>
  <circle cx="161" cy="120" r="3" fill="#fff"/>
  <circle cx="205" cy="120" r="3" fill="#fff"/>
  <path d="M144,136 Q158,150 173,138" fill="none" stroke="#7a4f22" stroke-width="6" stroke-linecap="round"/>
  <path d="M187,138 Q202,150 216,136" fill="none" stroke="#7a4f22" stroke-width="6" stroke-linecap="round"/>
  <path d="M170,227 Q180,233 190,227" fill="none" stroke="#2d263c" stroke-width="5" stroke-linecap="round"/>
  <path d="M147,202 L116,196" fill="none" stroke="#2d263c" stroke-width="4" stroke-linecap="round"/>
  <path d="M150,214 L119,214" fill="none" stroke="#2d263c" stroke-width="4" stroke-linecap="round"/>
  <path d="M213,202 L244,196" fill="none" stroke="#2d263c" stroke-width="4" stroke-linecap="round"/>
  <path d="M210,214 L241,214" fill="none" stroke="#2d263c" stroke-width="4" stroke-linecap="round"/>
</svg>
