<svg xmlns="http://www.w3.org/2000/svg" viewBox="0 0 360 360"><g stroke="#2d263c" stroke-width="7" stroke-linejoin="round" stroke-linecap="round"><path d="M228 282 Q322 276 302 196 Q293 154 309 128" fill="none" stroke-width="8"/><polygon points="322,30 288,86 310,83 280,134 336,76 312,79 344,38" fill="#ffd84d"/><path d="M150 110 Q118 48 76 36 Q58 31 63 52 Q70 82 132 132 Z" fill="#8a5a33"/><circle cx="72" cy="45" r="14" fill="#ffd84d"/><path d="M206 106 Q242 44 286 36 Q305 32 298 54 Q288 86 222 128 Z" fill="#8a5a33"/><circle cx="290" cy="45" r="12" fill="#ffd84d"/><path d="M132 176 Q104 248 124 294 Q148 322 184 320 Q224 318 240 290 Q256 248 228 178 Z" fill="#f5891f"/><ellipse cx="120" cy="230" rx="14" ry="23" transform="rotate(25 120 230)" fill="#f5891f"/><ellipse cx="242" cy="226" rx="13" ry="21" transform="rotate(-22 242 226)" fill="#f5891f"/><ellipse cx="180" cy="263" rx="38" ry="41" fill="#fff3d6"/><ellipse cx="136" cy="316" rx="31" ry="16" fill="#f5891f"/><ellipse cx="224" cy="319" rx="33" ry="15" fill="#f5891f"/><ellipse cx="177" cy="148" rx="59" ry="51" fill="#f5891f"/><circle cx="137" cy="168" r="15" fill="#ffd84d"/><circle cx="221" cy="164" r="13" fill="#ffd84d"/><circle cx="158" cy="140" r="9" fill="#2d263c"/><circle cx="201" cy="138" r="10" fill="#2d263c"/><circle cx="161" cy="137" r="3" fill="#ffffff" stroke="none"/><circle cx="204" cy="135" r="3" fill="#ffffff" stroke="none"/><circle cx="180" cy="155" r="3.5" fill="#2d263c"/><path d="M162 165 Q181 190 200 162 Q194 193 178 193 Q164 188 162 165 Z" fill="#b5563f"/></g></svg>