<svg xmlns="http://www.w3.org/2000/svg" viewBox="0 0 360 360">
  <path d="M255,208 C292,196 312,158 305,120 C302,104 288,100 284,116 C280,152 264,182 238,206 Z" fill="#3a56b0" stroke="#2d263c" stroke-width="7" stroke-linejoin="round" stroke-linecap="round"/>
  <polygon points="288,132 305,98 316,136 296,150" fill="#ffdc4d" stroke="#2d263c" stroke-width="6" stroke-linejoin="round" stroke-linecap="round"/>
  <ellipse cx="118" cy="275" rx="22" ry="45" fill="#2c4090" stroke="#2d263c" stroke-width="7"/>
  <ellipse cx="250" cy="275" rx="22" ry="45" fill="#2c4090" stroke="#2d263c" stroke-width="7"/>
  <path d="M100,182 C88,140 122,108 183,108 C246,108 278,144 266,196 C276,242 250,278 184,281 C118,283 92,248 100,182 Z" fill="#3a56b0" stroke="#2d263c" stroke-width="8" stroke-linejoin="round" stroke-linecap="round"/>
  <ellipse cx="185" cy="228" rx="52" ry="40" fill="#6b87d9"/>
  <ellipse cx="150" cy="286" rx="26" ry="50" fill="#3a56b0" stroke="#2d263c" stroke-width="7" stroke-linejoin="round" stroke-linecap="round"/>
  <ellipse cx="220" cy="286" rx="26" ry="50" fill="#3a56b0" stroke="#2d263c" stroke-width="7" stroke-linejoin="round" stroke-linecap="round"/>
  <ellipse cx="150" cy="325" rx="24" ry="11" fill="#ffdc4d" stroke="#2d263c" stroke-width="5"/>
  <ellipse cx="220" cy="325" rx="24" ry="11" fill="#ffdc4d" stroke="#2d263c" stroke-width="5"/>
  <polygon points="88,196 110,156 130,196 150,152 170,196 190,152 210,196 230,152 250,196 272,158 280,198 260,212 108,212" fill="#ffdc4d" stroke="#2d263c" stroke-width="7" stroke-linejoin="round" stroke-linecap="round"/>
  <path d="M120,120 C114,80 150,45 185,45 C222,45 254,79 250,118 C256,150 224,170 185,170 C142,170 115,153 120,120 Z" fill="#3a56b0" stroke="#2d263c" stroke-width="8" stroke-linejoin="round" stroke-linecap="round"/>
  <path d="M118,80 C98,55 80,32 88,27 C104,23 132,55 142,82 Z" fill="#3a56b0" stroke="#2d263c" stroke-width="7" stroke-linejoin="round" stroke-linecap="round"/>
  <path d="M250,80 C270,55 288,32 280,27 C264,23 236,55 226,82 Z" fill="#3a56b0" stroke="#2d263c" stroke-width="7" stroke-linejoin="round" stroke-linecap="round"/>
  <path d="M120,72 C108,54 96,38 100,34 C112,32 128,52 136,72 Z" fill="#ffdc4d"/>
  <path d="M248,72 C260,54 272,38 268,34 C256,32 240,52 232,72 Z" fill="#ffdc4d"/>
  <polygon points="180,55 166,96 181,96 168,142 206,90 189,90 202,55" fill="#ffdc4d" stroke="#2d263c" stroke-width="6" stroke-linejoin="round" stroke-linecap="round"/>
  <ellipse cx="153" cy="116" rx="16" ry="18" fill="#ff7a3d" stroke="#2d263c" stroke-width="6"/>
  <ellipse cx="215" cy="116" rx="16" ry="18" fill="#ff7a3d" stroke="#2d263c" stroke-width="6"/>
  <circle cx="153" cy="120" r="7" fill="#2d263c"/>
  <circle cx="215" cy="120" r="7" fill="#2d263c"/>
  <circle cx="149" cy="114" r="3" fill="#ffffff"/>
  <circle cx="211" cy="114" r="3" fill="#ffffff"/>
  <ellipse cx="185" cy="148" rx="10" ry="7" fill="#2d263c"/>
  <path d="M170,160 Q185,173 200,160" fill="none" stroke="#2d263c" stroke-width="6" stroke-linecap="round"/>
</svg>
