<svg xmlns="http://www.w3.org/2000/svg" viewBox="0 0 360 360">
  <!-- サーフボードしっぽ (一番後ろ) -->
  <ellipse cx="182" cy="318" rx="88" ry="22" fill="#C8A060" stroke="#2d263c" stroke-width="7" stroke-linecap="round"/>
  <ellipse cx="182" cy="318" rx="68" ry="13" fill="#E8C07A" stroke="none"/>
  <!-- しっぽの柄・縞 -->
  <line x1="150" y1="312" x2="215" y2="312" stroke="#2d263c" stroke-width="4" stroke-linecap="round"/>
  <line x1="140" y1="318" x2="225" y2="318" stroke="#2d263c" stroke-width="3" stroke-linecap="round"/>

  <!-- しっぽの茎 -->
  <path d="M182 295 Q190 308 182 318" fill="none" stroke="#2d263c" stroke-width="8" stroke-linecap="round"/>
  <path d="M182 295 Q190 308 182 318" fill="none" stroke="#C8A060" stroke-width="4" stroke-linecap="round"/>

  <!-- 足 (ふわふわ浮いてる感じ) -->
  <ellipse cx="150" cy="288" rx="18" ry="12" fill="#E88B3A" stroke="#2d263c" stroke-width="6" stroke-linecap="round"/>
  <ellipse cx="214" cy="291" rx="16" ry="11" fill="#E88B3A" stroke="#2d263c" stroke-width="6" stroke-linecap="round"/>
  <!-- 足の指 -->
  <ellipse cx="140" cy="293" rx="7" ry="5" fill="#E88B3A" stroke="#2d263c" stroke-width="5"/>
  <ellipse cx="152" cy="297" rx="7" ry="5" fill="#E88B3A" stroke="#2d263c" stroke-width="5"/>
  <ellipse cx="163" cy="293" rx="6" ry="5" fill="#E88B3A" stroke="#2d263c" stroke-width="5"/>
  <ellipse cx="205" cy="296" rx="7" ry="5" fill="#E88B3A" stroke="#2d263c" stroke-width="5"/>
  <ellipse cx="216" cy="300" rx="7" ry="5" fill="#E88B3A" stroke="#2d263c" stroke-width="5"/>
  <ellipse cx="226" cy="296" rx="6" ry="5" fill="#E88B3A" stroke="#2d263c" stroke-width="5"/>

  <!-- 体 (丸くぽっちゃり) -->
  <ellipse cx="183" cy="218" rx="72" ry="75" fill="#E88B3A" stroke="#2d263c" stroke-width="8" stroke-linejoin="round"/>

  <!-- お腹のクリーム色 -->
  <ellipse cx="183" cy="235" rx="42" ry="48" fill="#F5E0B0" stroke="#2d263c" stroke-width="5"/>

  <!-- 腕 左 -->
  <path d="M118 205 Q95 215 98 235 Q100 248 115 245" fill="#E88B3A" stroke="#2d263c" stroke-width="7" stroke-linejoin="round" stroke-linecap="round"/>
  <!-- 腕 右 -->
  <path d="M248 200 Q272 208 270 230 Q268 244 253 242" fill="#E88B3A" stroke="#2d263c" stroke-width="7" stroke-linejoin="round" stroke-linecap="round"/>

  <!-- 耳 左 (大きくてちょっとゆがんだ) -->
  <path d="M138 158 Q122 95 145 72 Q155 60 162 80 Q170 60 178 82 Q185 105 172 158" fill="#1a1a1a" stroke="#2d263c" stroke-width="7" stroke-linejoin="round"/>
  <!-- 耳内側 左ピンク -->
  <path d="M143 148 Q132 105 148 86 Q155 77 160 90 Q166 77 172 90 Q180 108 168 148" fill="#F87D9A"/>
  <!-- 耳先端 左黄色 -->
  <ellipse cx="160" cy="76" rx="13" ry="10" fill="#FFD700"/>

  <!-- 耳 右 (ちょっと傾いてる) -->
  <path d="M194 156 Q198 92 215 70 Q224 58 232 76 Q240 58 246 78 Q256 100 242 158" fill="#1a1a1a" stroke="#2d263c" stroke-width="7" stroke-linejoin="round"/>
  <!-- 耳内側 右ピンク -->
  <path d="M200 146 Q202 100 216 82 Q222 74 228 88 Q234 74 240 88 Q248 108 236 148" fill="#F87D9A"/>
  <!-- 耳先端 右黄色 -->
  <ellipse cx="228" cy="74" rx="13" ry="10" fill="#FFD700"/>

  <!-- 頭 -->
  <ellipse cx="186" cy="165" rx="62" ry="58" fill="#E88B3A" stroke="#2d263c" stroke-width="8" stroke-linejoin="round"/>

  <!-- 顔のクリーム色部分 -->
  <ellipse cx="186" cy="175" rx="44" ry="38" fill="#F5E0B0"/>

  <!-- 目 左 (大きくきらきら) -->
  <ellipse cx="166" cy="158" rx="14" ry="16" fill="#1a1a2e" stroke="#2d263c" stroke-width="5"/>
  <ellipse cx="168" cy="155" rx="6" ry="7" fill="white"/>
  <ellipse cx="170" cy="154" rx="3" ry="3" fill="white"/>

  <!-- 目 右 -->
  <ellipse cx="206" cy="156" rx="13" ry="15" fill="#1a1a2e" stroke="#2d263c" stroke-width="5"/>
  <ellipse cx="208" cy="153" rx="5" ry="6" fill="white"/>
  <ellipse cx="210" cy="152" rx="2.5" ry="2.5" fill="white"/>

  <!-- 鼻 -->
  <ellipse cx="186" cy="172" rx="5" ry="3" fill="#C0735A"/>

  <!-- 口 (にこっとした感じ) -->
  <path d="M175 180 Q186 192 197 180" fill="none" stroke="#2d263c" stroke-width="5" stroke-linecap="round"/>

  <!-- ほっぺ 左 オレンジ電気袋 -->
  <ellipse cx="152" cy="178" rx="16" ry="13" fill="#FF8C00" stroke="#2d263c" stroke-width="4" opacity="0.85"/>
  <!-- ほっぺ 右 -->
  <ellipse cx="220" cy="176" rx="15" ry="13" fill="#FF8C00" stroke="#2d263c" stroke-width="4" opacity="0.85"/>

  <!-- ほっぺの小さな光点 -->
  <circle cx="148" cy="174" r="3" fill="white" opacity="0.6"/>
  <circle cx="216" cy="172" r="3" fill="white" opacity="0.6"/>

  <!-- 体のしま模様(背中側ライン) -->
  <path d="M130 200 Q118 215 122 235" fill="none" stroke="#C0683A" stroke-width="4" stroke-linecap="round" opacity="0.5"/>
</svg>