<svg xmlns="http://www.w3.org/2000/svg" viewBox="0 0 360 360">
  <ellipse cx="148" cy="300" rx="19" ry="12" fill="#e8d8c8" stroke="#2d263c" stroke-width="6"/>
  <ellipse cx="212" cy="300" rx="19" ry="12" fill="#e8d8c8" stroke="#2d263c" stroke-width="6"/>
  <path d="M138 230 Q128 290 180 300 Q232 290 222 230 Z" fill="#f4ecdc" stroke="#2d263c" stroke-width="8" stroke-linejoin="round"/>
  <path d="M140 234 Q70 220 70 272 Q96 266 112 252 Q126 242 142 252 Z" fill="#e87a9e" stroke="#2d263c" stroke-width="7" stroke-linejoin="round"/>
  <path d="M220 234 Q290 220 290 272 Q264 266 248 252 Q234 242 218 252 Z" fill="#e87a9e" stroke="#2d263c" stroke-width="7" stroke-linejoin="round"/>
  <ellipse cx="180" cy="188" rx="50" ry="56" fill="#ef8aab" stroke="#2d263c" stroke-width="8"/>
  <path d="M132 214 Q120 236 148 242 Q158 222 152 214 Z" fill="#7ec252" stroke="#2d263c" stroke-width="6" stroke-linejoin="round"/>
  <path d="M228 214 Q240 236 212 242 Q202 222 208 214 Z" fill="#7ec252" stroke="#2d263c" stroke-width="6" stroke-linejoin="round"/>
  <ellipse cx="180" cy="134" rx="43" ry="40" fill="#f2a0bb" stroke="#2d263c" stroke-width="8"/>
  <path d="M158 104 Q140 78 130 94" fill="none" stroke="#2d263c" stroke-width="6" stroke-linecap="round"/>
  <path d="M202 104 Q220 78 230 94" fill="none" stroke="#2d263c" stroke-width="6" stroke-linecap="round"/>
  <circle cx="130" cy="94" r="6" fill="#e87a9e" stroke="#2d263c" stroke-width="5"/>
  <circle cx="230" cy="94" r="6" fill="#e87a9e" stroke="#2d263c" stroke-width="5"/>
  <circle cx="180" cy="92" r="10" fill="#f0c84a" stroke="#2d263c" stroke-width="5"/>
  <circle cx="165" cy="138" r="11" fill="#2d263c"/>
  <circle cx="195" cy="138" r="11" fill="#2d263c"/>
  <circle cx="168" cy="135" r="3" fill="#ffffff"/>
  <circle cx="198" cy="135" r="3" fill="#ffffff"/>
  <path d="M172 160 Q180 166 188 160" fill="none" stroke="#2d263c" stroke-width="5" stroke-linecap="round"/>
</svg>
