<svg xmlns="http://www.w3.org/2000/svg" viewBox="0 0 360 360">
  <!-- tail -->
  <path d="M300 250 L338 235 L320 268 Z" fill="#5aa8ce" stroke="#2d263c" stroke-width="7" stroke-linejoin="round"/>
  <!-- back flippers -->
  <ellipse cx="108" cy="292" rx="46" ry="23" fill="#5aa8ce" stroke="#2d263c" stroke-width="7" transform="rotate(18 108 292)"/>
  <ellipse cx="300" cy="292" rx="46" ry="23" fill="#5aa8ce" stroke="#2d263c" stroke-width="7" transform="rotate(-18 300 292)"/>
  <!-- neck -->
  <ellipse cx="140" cy="175" rx="34" ry="66" fill="#8fd8f5" stroke="#2d263c" stroke-width="7" transform="rotate(-28 140 175)"/>
  <!-- body -->
  <ellipse cx="205" cy="225" rx="107" ry="73" fill="#8fd8f5" stroke="#2d263c" stroke-width="8"/>
  <!-- front flippers -->
  <ellipse cx="92" cy="248" rx="52" ry="27" fill="#8fd8f5" stroke="#2d263c" stroke-width="7" transform="rotate(22 92 248)"/>
  <ellipse cx="308" cy="248" rx="52" ry="27" fill="#8fd8f5" stroke="#2d263c" stroke-width="7" transform="rotate(-22 308 248)"/>
  <!-- belly -->
  <ellipse cx="205" cy="256" rx="82" ry="37" fill="#fef6df" stroke="#2d263c" stroke-width="6"/>
  <!-- shell bumps -->
  <circle cx="148" cy="160" r="24" fill="#5c8fa8" stroke="#2d263c" stroke-width="7"/>
  <circle cx="200" cy="147" r="27" fill="#5c8fa8" stroke="#2d263c" stroke-width="7"/>
  <circle cx="252" cy="155" r="25" fill="#5c8fa8" stroke="#2d263c" stroke-width="7"/>
  <circle cx="292" cy="175" r="20" fill="#5c8fa8" stroke="#2d263c" stroke-width="7"/>
  <!-- head -->
  <circle cx="90" cy="115" r="42" fill="#8fd8f5" stroke="#2d263c" stroke-width="8"/>
  <!-- head nubs -->
  <circle cx="72" cy="82" r="11" fill="#5c8fa8" stroke="#2d263c" stroke-width="6"/>
  <circle cx="100" cy="78" r="11" fill="#5c8fa8" stroke="#2d263c" stroke-width="6"/>
  <!-- eyes -->
  <circle cx="70" cy="110" r="12" fill="#ffffff" stroke="#2d263c" stroke-width="5"/>
  <circle cx="102" cy="104" r="12" fill="#ffffff" stroke="#2d263c" stroke-width="5"/>
  <circle cx="68" cy="112" r="5" fill="#2d263c"/>
  <circle cx="100" cy="106" r="5" fill="#2d263c"/>
  <!-- mouth -->
  <path d="M62 132 Q88 148 112 130" fill="none" stroke="#2d263c" stroke-width="6" stroke-linecap="round"/>
</svg>
