<svg xmlns="http://www.w3.org/2000/svg" viewBox="0 0 360 360">
  <polygon points="163,290 180,332 197,290" fill="#c23f57" stroke="#2d263c" stroke-width="7" stroke-linejoin="round"/>
  <path d="M108,158 C68,146 28,176 22,214 C54,232 92,224 116,202 Z" fill="#c23f57" stroke="#2d263c" stroke-width="7" stroke-linejoin="round"/>
  <path d="M252,158 C292,146 332,176 338,214 C306,232 268,224 244,202 Z" fill="#c23f57" stroke="#2d263c" stroke-width="7" stroke-linejoin="round"/>
  <polygon points="48,192 76,182 68,208" fill="#4a90d9" stroke="#2d263c" stroke-width="5" stroke-linejoin="round"/>
  <polygon points="312,192 284,182 292,208" fill="#4a90d9" stroke="#2d263c" stroke-width="5" stroke-linejoin="round"/>
  <path d="M180,92 C232,92 260,138 252,190 C246,242 220,300 180,308 C140,300 114,242 108,190 C100,138 128,92 180,92 Z" fill="#d9536b" stroke="#2d263c" stroke-width="8" stroke-linejoin="round"/>
  <ellipse cx="180" cy="222" rx="42" ry="66" fill="#ffffff" stroke="#2d263c" stroke-width="6"/>
  <ellipse cx="128" cy="232" rx="15" ry="21" fill="#d9536b" stroke="#2d263c" stroke-width="6"/>
  <ellipse cx="232" cy="232" rx="15" ry="21" fill="#d9536b" stroke="#2d263c" stroke-width="6"/>
  <polygon points="164,94 180,66 196,94" fill="#c23f57" stroke="#2d263c" stroke-width="7" stroke-linejoin="round"/>
  <ellipse cx="180" cy="140" rx="56" ry="40" fill="#ffffff" stroke="#2d263c" stroke-width="7"/>
  <ellipse cx="155" cy="143" rx="17" ry="19" fill="#e6544a" stroke="#2d263c" stroke-width="5"/>
  <ellipse cx="205" cy="143" rx="17" ry="19" fill="#e6544a" stroke="#2d263c" stroke-width="5"/>
  <circle cx="155" cy="144" r="7" fill="#2d263c"/>
  <circle cx="205" cy="144" r="7" fill="#2d263c"/>
  <circle cx="150" cy="137" r="3" fill="#ffffff"/>
  <circle cx="200" cy="137" r="3" fill="#ffffff"/>
  <path d="M168,176 Q180,184 192,176" fill="none" stroke="#2d263c" stroke-width="6" stroke-linecap="round"/>
</svg>
