<svg xmlns="http://www.w3.org/2000/svg" viewBox="0 0 360 360"><path d="M272,192 L320,140 L303,182 L340,172 L296,214 L288,194 Z" fill="#f7d63b" stroke="#2d263c" stroke-width="7" stroke-linejoin="round" stroke-linecap="round"/><path d="M178,240 L176,296 Q176,306 190,305 L198,304 L196,242 Z" fill="#2d57a8" stroke="#2d263c" stroke-width="7" stroke-linejoin="round" stroke-linecap="round"/><path d="M222,242 L221,298 Q221,307 234,306 L242,305 L240,243 Z" fill="#2d57a8" stroke="#2d263c" stroke-width="7" stroke-linejoin="round" stroke-linecap="round"/><path d="M152,168 Q122,188 130,222 Q138,254 192,258 Q252,263 278,236 Q296,210 282,186 Q262,162 212,160 Q176,158 152,168 Z" fill="#3a6fd0" stroke="#2d263c" stroke-width="7" stroke-linejoin="round" stroke-linecap="round"/><path d="M142,232 L138,298 Q138,310 152,309 L164,307 Q168,306 167,296 L164,238 Z" fill="#3a6fd0" stroke="#2d263c" stroke-width="7" stroke-linejoin="round" stroke-linecap="round"/><path d="M246,238 L244,300 Q244,311 258,310 L272,307 Q276,306 275,296 L272,236 Z" fill="#3a6fd0" stroke="#2d263c" stroke-width="7" stroke-linejoin="round" stroke-linecap="round"/><path d="M228,164 L252,122 L258,158 L290,138 L282,180 Q255,166 228,164 Z" fill="#f7d63b" stroke="#2d263c" stroke-width="7" stroke-linejoin="round" stroke-linecap="round"/><path d="M148,115 L192,70 L168,124 Z" fill="#3a6fd0" stroke="#2d263c" stroke-width="7" stroke-linejoin="round" stroke-linecap="round"/><path d="M150,110 Q105,100 85,130 L55,152 Q47,161 60,166 L80,171 Q90,196 126,193 Q156,188 158,150 Q158,124 150,110 Z" fill="#3a6fd0" stroke="#2d263c" stroke-width="7" stroke-linejoin="round" stroke-linecap="round"/><path d="M152,118 L142,40 L112,88 L80,50 L78,112 Q115,130 152,118 Z" fill="#f7d63b" stroke="#2d263c" stroke-width="7" stroke-linejoin="round" stroke-linecap="round"/><path d="M92,133 L124,127 L119,149 L96,149 Z" fill="#ffffff" stroke="#2d263c" stroke-width="6" stroke-linejoin="round" stroke-linecap="round"/><circle cx="108" cy="140" r="6.5" fill="#e04a3a" stroke="#2d263c" stroke-width="3"/><circle cx="108" cy="140" r="2" fill="#2d263c"/><path d="M88,124 L128,118" fill="none" stroke="#2d263c" stroke-width="6" stroke-linecap="round"/><path d="M58,156 L51,165 L65,169 Z" fill="#2d263c" stroke="#2d263c" stroke-width="5" stroke-linejoin="round"/><path d="M66,177 Q90,191 120,182" fill="none" stroke="#2d263c" stroke-width="6" stroke-linecap="round"/><path d="M85,185 L91,198 L98,184 Z" fill="#ffffff" stroke="#2d263c" stroke-width="4" stroke-linejoin="round"/><path d="M152,164 L170,136 L175,164 Z" fill="#f7d63b" stroke="#2d263c" stroke-width="6" stroke-linejoin="round" stroke-linecap="round"/></svg>