<svg xmlns="http://www.w3.org/2000/svg" viewBox="0 0 360 360">
  <!-- 尻尾(後ろ) -->
  <path d="M255 230 C 310 210, 330 140, 300 70 C 320 130, 300 190, 250 210 Z" fill="#8a6f5c" stroke="#2d263c" stroke-width="7" stroke-linejoin="round" stroke-linecap="round"/>

  <!-- 体 -->
  <ellipse cx="180" cy="230" rx="98" ry="82" fill="#9b7d68" stroke="#2d263c" stroke-width="8" stroke-linejoin="round"/>

  <!-- お腹 -->
  <ellipse cx="180" cy="255" rx="58" ry="48" fill="#f3e8cf" stroke="#2d263c" stroke-width="6" stroke-linejoin="round"/>

  <!-- 腕 -->
  <ellipse cx="92" cy="245" rx="24" ry="30" fill="#9b7d68" stroke="#2d263c" stroke-width="7" stroke-linejoin="round"/>
  <ellipse cx="268" cy="245" rx="24" ry="30" fill="#9b7d68" stroke="#2d263c" stroke-width="7" stroke-linejoin="round"/>

  <!-- 足 -->
  <ellipse cx="140" cy="305" rx="26" ry="18" fill="#7a614f" stroke="#2d263c" stroke-width="7" stroke-linejoin="round"/>
  <ellipse cx="220" cy="305" rx="26" ry="18" fill="#7a614f" stroke="#2d263c" stroke-width="7" stroke-linejoin="round"/>

  <!-- 耳(外) -->
  <circle cx="120" cy="80" r="36" fill="#9b7d68" stroke="#2d263c" stroke-width="8"/>
  <circle cx="240" cy="80" r="36" fill="#9b7d68" stroke="#2d263c" stroke-width="8"/>
  <!-- 耳(内) -->
  <circle cx="120" cy="86" r="17" fill="#f4c9c9"/>
  <circle cx="240" cy="86" r="17" fill="#f4c9c9"/>

  <!-- 頭 -->
  <circle cx="180" cy="140" r="78" fill="#9b7d68" stroke="#2d263c" stroke-width="8"/>

  <!-- ほほ(頬) -->
  <circle cx="118" cy="160" r="16" fill="#f0a5a5" opacity="0.8"/>
  <circle cx="242" cy="160" r="16" fill="#f0a5a5" opacity="0.8"/>

  <!-- ひげ -->
  <path d="M95 150 C 55 145, 40 138, 20 132" fill="none" stroke="#2d263c" stroke-width="5" stroke-linecap="round"/>
  <path d="M95 165 C 55 168, 38 168, 18 168" fill="none" stroke="#2d263c" stroke-width="5" stroke-linecap="round"/>
  <path d="M265 150 C 305 145, 320 138, 340 132" fill="none" stroke="#2d263c" stroke-width="5" stroke-linecap="round"/>
  <path d="M265 165 C 305 168, 322 168, 342 168" fill="none" stroke="#2d263c" stroke-width="5" stroke-linecap="round"/>

  <!-- 目 -->
  <circle cx="150" cy="125" r="17" fill="#fff" stroke="#2d263c" stroke-width="6"/>
  <circle cx="210" cy="125" r="17" fill="#fff" stroke="#2d263c" stroke-width="6"/>
  <circle cx="153" cy="128" r="8" fill="#2d263c"/>
  <circle cx="213" cy="128" r="8" fill="#2d263c"/>
  <circle cx="150" cy="124" r="2.5" fill="#fff"/>
  <circle cx="210" cy="124" r="2.5" fill="#fff"/>

  <!-- 鼻 -->
  <ellipse cx="180" cy="158" rx="9" ry="7" fill="#4a3830" stroke="#2d263c" stroke-width="4"/>

  <!-- 前歯 -->
  <path d="M165 172 L165 195 L177 195 L177 172 Z" fill="#fff" stroke="#2d263c" stroke-width="5" stroke-linejoin="round"/>
  <path d="M183 172 L183 195 L195 195 L195 172 Z" fill="#fff" stroke="#2d263c" stroke-width="5" stroke-linejoin="round"/>
</svg>
