<svg xmlns="http://www.w3.org/2000/svg" viewBox="0 0 360 360">
  <path d="M 258 235 Q 320 210 315 150 Q 312 120 290 130 Q 300 160 275 190 Q 260 210 245 225 Z" fill="#c9a876" stroke="#2d263c" stroke-width="7" stroke-linejoin="round" stroke-linecap="round"/>
  <ellipse cx="150" cy="245" rx="98" ry="78" fill="#3d3455" stroke="#2d263c" stroke-width="8" stroke-linejoin="round"/>
  <ellipse cx="150" cy="265" rx="58" ry="46" fill="#f2e2bd" stroke="#2d263c" stroke-width="6" stroke-linejoin="round"/>
  <ellipse cx="90" cy="310" rx="22" ry="14" fill="#3d3455" stroke="#2d263c" stroke-width="6" stroke-linejoin="round"/>
  <ellipse cx="200" cy="312" rx="22" ry="14" fill="#3d3455" stroke="#2d263c" stroke-width="6" stroke-linejoin="round"/>
  <circle cx="150" cy="148" r="72" fill="#3d3455" stroke="#2d263c" stroke-width="8" stroke-linejoin="round"/>
  <path d="M 90 95 Q 78 40 110 35 Q 128 65 122 100 Z" fill="#3d3455" stroke="#2d263c" stroke-width="7" stroke-linejoin="round"/>
  <path d="M 210 95 Q 224 40 192 35 Q 174 65 180 100 Z" fill="#3d3455" stroke="#2d263c" stroke-width="7" stroke-linejoin="round"/>
  <path d="M 98 90 Q 92 55 112 45 Q 122 68 118 92 Z" fill="#f2b8c6" stroke="#2d263c" stroke-width="5" stroke-linejoin="round"/>
  <path d="M 202 90 Q 208 55 188 45 Q 178 68 182 92 Z" fill="#f2b8c6" stroke="#2d263c" stroke-width="5" stroke-linejoin="round"/>
  <ellipse cx="150" cy="178" rx="48" ry="34" fill="#f2e2bd" stroke="#2d263c" stroke-width="6" stroke-linejoin="round"/>
  <circle cx="120" cy="140" r="11" fill="#221c30" stroke="#2d263c" stroke-width="4"/>
  <circle cx="180" cy="140" r="11" fill="#221c30" stroke="#2d263c" stroke-width="4"/>
  <ellipse cx="150" cy="168" rx="9" ry="7" fill="#e8748a" stroke="#2d263c" stroke-width="4" stroke-linejoin="round"/>
  <path d="M 133 196 L 133 218 Q 133 226 141 226 Q 149 226 149 218 L 149 196 Z" fill="#fdfaf0" stroke="#2d263c" stroke-width="6" stroke-linejoin="round"/>
  <path d="M 151 196 L 151 218 Q 151 226 159 226 Q 167 226 167 218 L 167 196 Z" fill="#fdfaf0" stroke="#2d263c" stroke-width="6" stroke-linejoin="round"/>
  <path d="M 105 170 Q 60 165 40 155" fill="none" stroke="#2d263c" stroke-width="5" stroke-linecap="round"/>
  <path d="M 108 182 Q 62 188 42 195" fill="none" stroke="#2d263c" stroke-width="5" stroke-linecap="round"/>
  <path d="M 195 170 Q 240 165 260 155" fill="none" stroke="#2d263c" stroke-width="5" stroke-linecap="round"/>
  <path d="M 192 182 Q 238 188 258 195" fill="none" stroke="#2d263c" stroke-width="5" stroke-linecap="round"/>
</svg>
