<svg xmlns="http://www.w3.org/2000/svg" viewBox="0 0 360 360">
  <path d="M172,292 C195,318 235,328 278,312 C292,306 300,296 288,290 C272,282 248,292 228,300 C208,308 190,300 172,292 Z" fill="#3E56A8" stroke="#2d263c" stroke-width="7" stroke-linejoin="round" stroke-linecap="round"/>
  <polygon points="288,312 322,296 296,326" fill="#3E56A8" stroke="#2d263c" stroke-width="6" stroke-linejoin="round" stroke-linecap="round"/>
  <polygon points="142,168 68,148 108,232" fill="#3E56A8" stroke="#2d263c" stroke-width="7" stroke-linejoin="round" stroke-linecap="round"/>
  <polygon points="218,168 292,148 252,232" fill="#3E56A8" stroke="#2d263c" stroke-width="7" stroke-linejoin="round" stroke-linecap="round"/>
  <ellipse cx="158" cy="300" rx="20" ry="13" fill="#3E56A8" stroke="#2d263c" stroke-width="6"/>
  <ellipse cx="202" cy="300" rx="20" ry="13" fill="#3E56A8" stroke="#2d263c" stroke-width="6"/>
  <path d="M140,150 C118,182 108,232 124,272 C136,300 165,308 180,308 C195,308 224,300 236,272 C252,232 242,182 220,150 Z" fill="#5D7CE0" stroke="#2d263c" stroke-width="8" stroke-linejoin="round"/>
  <ellipse cx="180" cy="215" rx="46" ry="72" fill="#FBF3E3"/>
  <polygon points="180,176 158,218 202,218" fill="#A5233A" stroke="#2d263c" stroke-width="5" stroke-linejoin="round"/>
  <path d="M172,190 L180,182 L188,190" fill="none" stroke="#D9526B" stroke-width="4" stroke-linecap="round" stroke-linejoin="round"/>
  <path d="M180,40 C160,46 140,62 130,90 C124,116 134,142 150,156 L210,156 C226,142 236,116 230,90 C220,62 200,46 180,40 Z" fill="#5D7CE0" stroke="#2d263c" stroke-width="8" stroke-linejoin="round"/>
  <polygon points="150,58 118,34 146,82" fill="#3E56A8" stroke="#2d263c" stroke-width="6" stroke-linejoin="round"/>
  <polygon points="210,58 242,34 214,82" fill="#3E56A8" stroke="#2d263c" stroke-width="6" stroke-linejoin="round"/>
  <ellipse cx="156" cy="98" rx="14" ry="17" fill="#D93A3A" stroke="#2d263c" stroke-width="5"/>
  <ellipse cx="204" cy="98" rx="14" ry="17" fill="#D93A3A" stroke="#2d263c" stroke-width="5"/>
  <circle cx="160" cy="92" r="4" fill="#FBF3E3"/>
  <circle cx="208" cy="92" r="4" fill="#FBF3E3"/>
  <path d="M166,148 Q180,157 194,148" fill="none" stroke="#2d263c" stroke-width="5" stroke-linecap="round"/>
  <ellipse cx="150" cy="190" rx="10" ry="30" fill="#FFFFFF" opacity="0.25"/>
</svg>
