<svg xmlns="http://www.w3.org/2000/svg" viewBox="0 0 360 360">
  <ellipse cx="72" cy="212" rx="30" ry="50" transform="rotate(-24 72 212)" fill="#f6a9bd" stroke="#2d263c" stroke-width="7" stroke-linejoin="round"/>
  <ellipse cx="288" cy="212" rx="30" ry="50" transform="rotate(24 288 212)" fill="#f6a9bd" stroke="#2d263c" stroke-width="7" stroke-linejoin="round"/>
  <ellipse cx="136" cy="316" rx="27" ry="19" fill="#f6a9bd" stroke="#2d263c" stroke-width="7" stroke-linejoin="round"/>
  <ellipse cx="224" cy="316" rx="27" ry="19" fill="#f6a9bd" stroke="#2d263c" stroke-width="7" stroke-linejoin="round"/>
  <ellipse cx="136" cy="324" rx="17" ry="8" fill="#ffe9d6" stroke="#2d263c" stroke-width="6" stroke-linejoin="round"/>
  <ellipse cx="224" cy="324" rx="17" ry="8" fill="#ffe9d6" stroke="#2d263c" stroke-width="6" stroke-linejoin="round"/>
  <ellipse cx="180" cy="235" rx="106" ry="96" fill="#f6a9bd" stroke="#2d263c" stroke-width="8" stroke-linejoin="round"/>
  <circle cx="180" cy="130" r="90" fill="#f6a9bd" stroke="#2d263c" stroke-width="8"/>
  <path d="M168 46 Q158 30 172 22 Q182 34 176 48 Z" fill="#f6a9bd" stroke="#2d263c" stroke-width="6" stroke-linejoin="round"/>
  <ellipse cx="180" cy="272" rx="76" ry="58" fill="#fff3d9" stroke="#2d263c" stroke-width="7" stroke-linejoin="round"/>
  <ellipse cx="180" cy="260" rx="32" ry="40" fill="#fffdf4" stroke="#2d263c" stroke-width="7" stroke-linejoin="round"/>
  <ellipse cx="167" cy="244" rx="7" ry="10" fill="#ffe9d6" opacity="0.7"/>
  <ellipse cx="192" cy="272" rx="6" ry="8" fill="#ffe9d6" opacity="0.7"/>
  <circle cx="125" cy="142" r="12" fill="#ffc9d6" opacity="0.75"/>
  <circle cx="235" cy="142" r="12" fill="#ffc9d6" opacity="0.75"/>
  <circle cx="150" cy="118" r="8" fill="#2d263c"/>
  <circle cx="210" cy="118" r="8" fill="#2d263c"/>
  <circle cx="152" cy="115" r="2.4" fill="#ffffff"/>
  <circle cx="212" cy="115" r="2.4" fill="#ffffff"/>
  <path d="M160 152 Q180 164 200 152" fill="none" stroke="#2d263c" stroke-width="6" stroke-linecap="round"/>
</svg>
