<svg xmlns="http://www.w3.org/2000/svg" viewBox="0 0 360 360">
<path d="M168 240 L158 295" stroke="#2d263c" stroke-width="9" stroke-linecap="round"/>
<path d="M192 240 L202 295" stroke="#2d263c" stroke-width="9" stroke-linecap="round"/>
<ellipse cx="158" cy="298" rx="18" ry="11" fill="#e85838" stroke="#2d263c" stroke-width="7"/>
<ellipse cx="202" cy="298" rx="18" ry="11" fill="#e85838" stroke="#2d263c" stroke-width="7"/>
<path d="M140 165 Q136 245 180 250 Q224 245 220 165 Z" fill="#4a4a52" stroke="#2d263c" stroke-width="8" stroke-linejoin="round"/>
<path d="M148 180 L128 215" stroke="#2d263c" stroke-width="8" stroke-linecap="round"/>
<path d="M212 180 L232 215" stroke="#2d263c" stroke-width="8" stroke-linecap="round"/>
<path d="M160 95 Q135 70 120 90 Q130 110 158 110 Z" fill="#4a4a52" stroke="#2d263c" stroke-width="7" stroke-linejoin="round"/>
<path d="M200 95 Q225 70 240 90 Q230 110 202 110 Z" fill="#4a4a52" stroke="#2d263c" stroke-width="7" stroke-linejoin="round"/>
<circle cx="180" cy="120" r="48" fill="#5a5a62" stroke="#2d263c" stroke-width="8"/>
<path d="M134 110 Q180 80 226 110 Q224 95 180 88 Q136 95 134 110 Z" fill="#3a3a42" stroke="#2d263c" stroke-width="6" stroke-linejoin="round"/>
<ellipse cx="180" cy="135" rx="30" ry="24" fill="#6a6a72" stroke="#2d263c" stroke-width="6"/>
<ellipse cx="167" cy="128" rx="8" ry="10" fill="#e8a838" stroke="#2d263c" stroke-width="6"/>
<ellipse cx="193" cy="128" rx="8" ry="10" fill="#e8a838" stroke="#2d263c" stroke-width="6"/>
<circle cx="167" cy="130" r="4" fill="#2d263c"/>
<circle cx="193" cy="130" r="4" fill="#2d263c"/>
<path d="M172 150 Q180 154 188 150" stroke="#2d263c" stroke-width="6" fill="none" stroke-linecap="round"/>
<circle cx="232" cy="240" r="16" fill="#f2f2ee" stroke="#2d263c" stroke-width="6"/>
<path d="M232 226 L226 234 L232 240 L238 234 Z" fill="#2d263c"/>
</svg>