<svg xmlns="http://www.w3.org/2000/svg" viewBox="0 0 360 360"><path d="M48,306 Q70,276 100,270 L113,282 Q135,256 162,262 L170,274 Q230,248 290,262 Q322,270 312,292 Q300,312 262,304 L252,318 Q210,334 178,318 L172,328 Q110,338 70,324 Q46,316 48,306 Z" fill="#B9763F" stroke="#2d263c" stroke-width="7" stroke-linejoin="round" stroke-linecap="round"/><path d="M218,238 Q256,254 268,290" fill="none" stroke="#4a3326" stroke-width="9" stroke-linecap="round"/><path d="M138,92 Q100,40 70,52 Q48,64 72,98 Q92,122 130,118 Z" fill="#F2954E" stroke="#2d263c" stroke-width="7" stroke-linejoin="round" stroke-linecap="round"/><path d="M222,88 Q252,30 290,44 Q312,58 286,94 Q264,120 230,112 Z" fill="#F2954E" stroke="#2d263c" stroke-width="7" stroke-linejoin="round" stroke-linecap="round"/><circle cx="88" cy="78" r="15" fill="#FBE26B" stroke="#2d263c" stroke-width="5"/><circle cx="272" cy="72" r="16" fill="#FBE26B" stroke="#2d263c" stroke-width="5"/><path d="M82,86 q14,4 16,-10 q1,-12 -12,-10 q-9,2 -6,10" fill="none" stroke="#B9763F" stroke-width="5" stroke-linecap="round"/><path d="M278,80 q-14,4 -16,-10 q-1,-12 12,-10 q9,2 6,10" fill="none" stroke="#B9763F" stroke-width="5" stroke-linecap="round"/><path d="M134,196 Q120,240 150,262 Q184,280 218,258 Q244,236 234,196 Q210,176 180,178 Q150,180 134,196 Z" fill="#F2954E" stroke="#2d263c" stroke-width="7" stroke-linejoin="round" stroke-linecap="round"/><path d="M150,210 Q118,202 110,220 Q116,238 144,232 Z" fill="#F2954E" stroke="#2d263c" stroke-width="6" stroke-linejoin="round" stroke-linecap="round"/><circle cx="113" cy="222" r="9" fill="#B9763F" stroke="#2d263c" stroke-width="5"/><path d="M224,202 Q250,180 262,192 Q264,210 234,216 Z" fill="#F2954E" stroke="#2d263c" stroke-width="6" stroke-linejoin="round" stroke-linecap="round"/><circle cx="256" cy="193" r="9" fill="#B9763F" stroke="#2d263c" stroke-width="5"/><path d="M150,214 Q142,244 164,256 Q188,266 210,250 Q224,234 216,208 Q200,196 180,198 Q160,200 150,214 Z" fill="#FCF0D8" stroke="#2d263c" stroke-width="5" stroke-linejoin="round"/><ellipse cx="158" cy="258" rx="15" ry="10" fill="#B9763F" stroke="#2d263c" stroke-width="6"/><ellipse cx="206" cy="256" rx="16" ry="10" fill="#B9763F" stroke="#2d263c" stroke-width="6"/><path d="M118,142 Q112,90 162,76 Q215,64 242,105 Q258,138 238,168 Q210,196 168,192 Q126,186 118,142 Z" fill="#F2954E" stroke="#2d263c" stroke-width="7" stroke-linejoin="round" stroke-linecap="round"/><circle cx="124" cy="166" r="17" fill="#FBE26B" stroke="#2d263c" stroke-width="6"/><circle cx="240" cy="160" r="18" fill="#FBE26B" stroke="#2d263c" stroke-width="6"/><circle cx="152" cy="132" r="13" fill="#3D9BE9" stroke="#2d263c" stroke-width="5"/><circle cx="212" cy="128" r="14" fill="#3D9BE9" stroke="#2d263c" stroke-width="5"/><circle cx="148" cy="127" r="4.5" fill="#ffffff"/><circle cx="208" cy="122" r="5" fill="#ffffff"/><ellipse cx="181" cy="148" rx="3.5" ry="2.5" fill="#2d263c"/><path d="M162,158 Q172,170 181,160 Q191,172 204,156" fill="none" stroke="#2d263c" stroke-width="6" stroke-linecap="round"/></svg>