<svg xmlns="http://www.w3.org/2000/svg" viewBox="0 0 360 360">
  <!-- 影 -->
  <ellipse cx="180" cy="328" rx="95" ry="18" fill="#00000022"/>

  <!-- 尾(青) -->
  <path d="M255,265 Q295,255 305,235 Q290,220 270,238 Q262,250 255,270Z" fill="#2060B0" stroke="#2d263c" stroke-width="7" stroke-linejoin="round"/>

  <!-- 足・左 -->
  <path d="M130,278 Q118,300 120,318 Q135,322 145,318 Q145,300 148,278Z" fill="#2060B0" stroke="#2d263c" stroke-width="7" stroke-linejoin="round"/>
  <!-- 足・左の指 -->
  <ellipse cx="118" cy="320" rx="12" ry="8" fill="#2060B0" stroke="#2d263c" stroke-width="5"/>
  <ellipse cx="133" cy="325" rx="12" ry="8" fill="#2060B0" stroke="#2d263c" stroke-width="5"/>
  <ellipse cx="148" cy="320" rx="12" ry="8" fill="#2060B0" stroke="#2d263c" stroke-width="5"/>

  <!-- 足・右 -->
  <path d="M215,278 Q228,300 228,318 Q215,322 205,318 Q205,300 208,278Z" fill="#2060B0" stroke="#2d263c" stroke-width="7" stroke-linejoin="round"/>
  <!-- 足・右の指 -->
  <ellipse cx="230" cy="320" rx="12" ry="8" fill="#2060B0" stroke="#2d263c" stroke-width="5"/>
  <ellipse cx="215" cy="325" rx="12" ry="8" fill="#2060B0" stroke="#2d263c" stroke-width="5"/>
  <ellipse cx="200" cy="320" rx="12" ry="8" fill="#2060B0" stroke="#2d263c" stroke-width="5"/>

  <!-- 腕・左(太くがっしり) -->
  <path d="M105,195 Q75,215 70,245 Q80,258 98,252 Q108,228 122,210Z" fill="#2060B0" stroke="#2d263c" stroke-width="7" stroke-linejoin="round"/>
  <!-- 腕・左の手 -->
  <ellipse cx="80" cy="252" rx="22" ry="18" fill="#2060B0" stroke="#2d263c" stroke-width="7" stroke-linejoin="round"/>

  <!-- 腕・右(太くがっしり) -->
  <path d="M258,195 Q290,215 295,242 Q285,258 268,252 Q258,228 242,210Z" fill="#2060B0" stroke="#2d263c" stroke-width="7" stroke-linejoin="round"/>
  <!-- 腕・右の手 -->
  <ellipse cx="285" cy="252" rx="22" ry="18" fill="#2060B0" stroke="#2d263c" stroke-width="7" stroke-linejoin="round"/>

  <!-- 胴体 -->
  <ellipse cx="180" cy="238" rx="92" ry="88" fill="#2060B0" stroke="#2d263c" stroke-width="7" stroke-linejoin="round"/>

  <!-- 腹部(薄青・オレンジ縁) -->
  <ellipse cx="178" cy="248" rx="62" ry="68" fill="#5090D0" stroke="#E07020" stroke-width="6" stroke-linejoin="round"/>

  <!-- 頭部 -->
  <ellipse cx="178" cy="155" rx="88" ry="80" fill="#2060B0" stroke="#2d263c" stroke-width="7" stroke-linejoin="round"/>

  <!-- 頭頂のひれ(オレンジ三角) -->
  <polygon points="145,82 178,45 212,82" fill="#E07020" stroke="#2d263c" stroke-width="7" stroke-linejoin="round"/>
  <polygon points="155,85 178,55 202,85" fill="#E07020" stroke="#2d263c" stroke-width="5" stroke-linejoin="round"/>

  <!-- 頬のXエラ・左 -->
  <!-- X上下の棒 -->
  <path d="M88,155 L118,185" fill="none" stroke="#E07020" stroke-width="14" stroke-linecap="round"/>
  <path d="M118,155 L88,185" fill="none" stroke="#E07020" stroke-width="14" stroke-linecap="round"/>
  <!-- Xの縁 -->
  <path d="M88,155 L118,185" fill="none" stroke="#2d263c" stroke-width="18" stroke-linecap="round" opacity="0.3"/>
  <path d="M118,155 L88,185" fill="none" stroke="#2d263c" stroke-width="18" stroke-linecap="round" opacity="0.3"/>
  <path d="M88,155 L118,185" fill="none" stroke="#E07020" stroke-width="13" stroke-linecap="round"/>
  <path d="M118,155 L88,185" fill="none" stroke="#E07020" stroke-width="13" stroke-linecap="round"/>

  <!-- 頬のXエラ・右 -->
  <path d="M238,155 L268,185" fill="none" stroke="#2d263c" stroke-width="18" stroke-linecap="round" opacity="0.3"/>
  <path d="M268,155 L238,185" fill="none" stroke="#2d263c" stroke-width="18" stroke-linecap="round" opacity="0.3"/>
  <path d="M238,155 L268,185" fill="none" stroke="#E07020" stroke-width="13" stroke-linecap="round"/>
  <path d="M268,155 L238,185" fill="none" stroke="#E07020" stroke-width="13" stroke-linecap="round"/>

  <!-- 目・左(白目) -->
  <ellipse cx="148" cy="145" rx="18" ry="19" fill="white" stroke="#2d263c" stroke-width="5"/>
  <!-- 目・左(黒目) -->
  <ellipse cx="150" cy="148" rx="10" ry="11" fill="#2d263c"/>
  <!-- 目・左(ハイライト) -->
  <circle cx="154" cy="143" r="4" fill="white"/>

  <!-- 目・右(白目) -->
  <ellipse cx="210" cy="145" rx="18" ry="19" fill="white" stroke="#2d263c" stroke-width="5"/>
  <!-- 目・右(黒目) -->
  <ellipse cx="212" cy="148" rx="10" ry="11" fill="#2d263c"/>
  <!-- 目・右(ハイライト) -->
  <circle cx="216" cy="143" r="4" fill="white"/>

  <!-- 口 -->
  <path d="M165,175 Q178,188 192,175" fill="none" stroke="#2d263c" stroke-width="6" stroke-linecap="round"/>
</svg>
