<svg xmlns="http://www.w3.org/2000/svg" viewBox="0 0 360 360">
<path d="M180,45 L222.1,88.4 L282.5,87.5 L281.6,147.9 L325,190 L281.6,232.1 L282.5,292.5 L222.1,291.6 L180,335 L137.9,291.6 L77.5,292.5 L78.4,232.1 L35,190 L78.4,147.9 L77.5,87.5 L137.9,88.4 Z" fill="#ffb300" stroke="#2d263c" stroke-width="7" stroke-linejoin="round"/>
<path d="M255,235 Q318,225 328,178 Q322,168 313,174 Q302,220 250,222 Z" fill="#e8d9b8" stroke="#2d263c" stroke-width="7" stroke-linejoin="round" stroke-linecap="round"/>
<ellipse cx="180" cy="228" rx="98" ry="76" fill="#5c4a68" stroke="#2d263c" stroke-width="8" stroke-linejoin="round"/>
<ellipse cx="150" cy="296" rx="20" ry="13" fill="#453a52" stroke="#2d263c" stroke-width="7" stroke-linejoin="round"/>
<ellipse cx="212" cy="296" rx="20" ry="13" fill="#453a52" stroke="#2d263c" stroke-width="7" stroke-linejoin="round"/>
<ellipse cx="182" cy="252" rx="52" ry="42" fill="#f3e8d2" stroke="#2d263c" stroke-width="7" stroke-linejoin="round"/>
<path d="M155,250 Q182,262 210,250" fill="none" stroke="#2d263c" stroke-width="6" stroke-linecap="round"/>
<path d="M155,268 Q182,280 210,268" fill="none" stroke="#2d263c" stroke-width="6" stroke-linecap="round"/>
<ellipse cx="180" cy="142" rx="80" ry="66" fill="#5c4a68" stroke="#2d263c" stroke-width="8" stroke-linejoin="round"/>
<path d="M95,150 L82,140 L92,158 L78,152 L90,170 Z" fill="#5c4a68" stroke="#2d263c" stroke-width="6" stroke-linejoin="round"/>
<path d="M265,150 L278,140 L268,158 L282,152 L270,170 Z" fill="#5c4a68" stroke="#2d263c" stroke-width="6" stroke-linejoin="round"/>
<ellipse cx="122" cy="83" rx="30" ry="42" fill="#453a52" stroke="#2d263c" stroke-width="8" stroke-linejoin="round"/>
<ellipse cx="238" cy="83" rx="30" ry="42" fill="#453a52" stroke="#2d263c" stroke-width="8" stroke-linejoin="round"/>
<ellipse cx="122" cy="88" rx="15" ry="24" fill="#caa0b3"/>
<ellipse cx="238" cy="88" rx="15" ry="24" fill="#caa0b3"/>
<line x1="98" y1="148" x2="46" y2="136" stroke="#2d263c" stroke-width="6" stroke-linecap="round"/>
<line x1="96" y1="160" x2="42" y2="160" stroke="#2d263c" stroke-width="6" stroke-linecap="round"/>
<line x1="98" y1="172" x2="46" y2="184" stroke="#2d263c" stroke-width="6" stroke-linecap="round"/>
<line x1="262" y1="148" x2="314" y2="136" stroke="#2d263c" stroke-width="6" stroke-linecap="round"/>
<line x1="264" y1="160" x2="318" y2="160" stroke="#2d263c" stroke-width="6" stroke-linecap="round"/>
<line x1="262" y1="172" x2="314" y2="184" stroke="#2d263c" stroke-width="6" stroke-linecap="round"/>
<circle cx="150" cy="136" r="16" fill="#d32f2f" stroke="#2d263c" stroke-width="6"/>
<circle cx="210" cy="136" r="16" fill="#d32f2f" stroke="#2d263c" stroke-width="6"/>
<circle cx="150" cy="138" r="6" fill="#1a1a1a"/>
<circle cx="210" cy="138" r="6" fill="#1a1a1a"/>
<circle cx="154" cy="131" r="3" fill="#ffffff"/>
<circle cx="214" cy="131" r="3" fill="#ffffff"/>
<ellipse cx="180" cy="157" rx="9" ry="7" fill="#2d263c"/>
<path d="M155,170 Q180,180 205,170" fill="none" stroke="#2d263c" stroke-width="6" stroke-linecap="round"/>
<rect x="166" y="172" width="15" height="26" rx="3" fill="#ffffff" stroke="#2d263c" stroke-width="5"/>
<rect x="181" y="172" width="15" height="26" rx="3" fill="#ffffff" stroke="#2d263c" stroke-width="5"/>
</svg>
