<svg xmlns="http://www.w3.org/2000/svg" viewBox="0 0 360 360">

  <!-- 炎の翼(後ろ) -->
  <path d="M120 95 Q80 40 55 20 Q75 55 68 80 Q90 60 120 95Z" fill="#ff9a10" stroke="#2d263c" stroke-width="4" stroke-linejoin="round"/>
  <path d="M145 80 Q110 25 95 8 Q118 38 115 65 Q130 48 145 80Z" fill="#ffcc00" stroke="#2d263c" stroke-width="3" stroke-linejoin="round"/>
  <path d="M240 95 Q280 40 305 20 Q285 55 292 80 Q270 60 240 95Z" fill="#ff9a10" stroke="#2d263c" stroke-width="4" stroke-linejoin="round"/>
  <path d="M215 80 Q250 25 265 8 Q242 38 245 65 Q230 48 215 80Z" fill="#ffcc00" stroke="#2d263c" stroke-width="3" stroke-linejoin="round"/>

  <!-- しっぽ -->
  <path d="M290 255 Q320 270 340 255 Q335 285 315 295 Q300 300 285 285 Q278 270 290 255Z" fill="#1e2d50" stroke="#2d263c" stroke-width="7" stroke-linejoin="round"/>
  <path d="M265 240 Q295 248 290 255 Q285 285 265 280Z" fill="#1e2d50" stroke="#2d263c" stroke-width="7" stroke-linejoin="round"/>

  <!-- 体(胴体) -->
  <ellipse cx="185" cy="255" rx="110" ry="65" fill="#1e2d50" stroke="#2d263c" stroke-width="8" stroke-linejoin="round"/>

  <!-- 腹部の白いゾーン -->
  <ellipse cx="182" cy="262" rx="75" ry="42" fill="#ede8d5" stroke="#2d263c" stroke-width="5"/>

  <!-- 腹の骨模様の線 -->
  <path d="M145 255 Q182 248 220 255" fill="none" stroke="#2d263c" stroke-width="4" stroke-linecap="round"/>
  <path d="M150 268 Q182 261 215 268" fill="none" stroke="#2d263c" stroke-width="4" stroke-linecap="round"/>
  <path d="M158 281 Q182 274 207 281" fill="none" stroke="#2d263c" stroke-width="3.5" stroke-linecap="round"/>

  <!-- 後ろ足(左) -->
  <path d="M125 290 Q108 310 105 330 Q115 332 125 318 Q130 330 140 332 Q148 328 142 310 Q138 295 125 290Z" fill="#1e2d50" stroke="#2d263c" stroke-width="7" stroke-linejoin="round"/>

  <!-- 後ろ足(右) -->
  <path d="M240 290 Q255 312 257 332 Q247 334 238 319 Q233 332 222 333 Q214 328 221 308 Q226 295 240 290Z" fill="#1e2d50" stroke="#2d263c" stroke-width="7" stroke-linejoin="round"/>

  <!-- 前足(左) -->
  <path d="M110 248 Q88 262 80 282 Q90 286 100 272 Q104 282 114 284 Q122 278 118 260 Q116 250 110 248Z" fill="#1e2d50" stroke="#2d263c" stroke-width="6" stroke-linejoin="round"/>

  <!-- 前足(右) -->
  <path d="M258 248 Q278 263 285 282 Q275 287 265 272 Q261 283 250 285 Q242 279 248 260 Q250 250 258 248Z" fill="#1e2d50" stroke="#2d263c" stroke-width="6" stroke-linejoin="round"/>

  <!-- 首 -->
  <path d="M150 210 Q155 175 180 165 Q205 160 215 175 Q220 195 215 215" fill="#1e2d50" stroke="#2d263c" stroke-width="7" stroke-linejoin="round"/>

  <!-- 頭(ワニ骸骨) -->
  <!-- 頭全体の骸骨形 -->
  <ellipse cx="183" cy="155" rx="58" ry="48" fill="#ede8d5" stroke="#2d263c" stroke-width="8"/>

  <!-- 上顎の突き出し -->
  <path d="M140 165 Q145 180 145 192 Q165 205 183 205 Q200 205 220 192 Q222 180 224 165" fill="#ede8d5" stroke="#2d263c" stroke-width="7" stroke-linejoin="round"/>

  <!-- 下顎(ガバッと大きい) -->
  <path d="M148 192 Q155 218 160 228 Q175 238 183 238 Q192 238 205 228 Q212 218 218 192 Q200 205 183 205 Q165 205 148 192Z" fill="#2a3a5e" stroke="#2d263c" stroke-width="7" stroke-linejoin="round"/>

  <!-- 上の歯 -->
  <path d="M158 205 L155 218 L163 208Z" fill="#ede8d5" stroke="#2d263c" stroke-width="2"/>
  <path d="M172 208 L170 222 L178 210Z" fill="#ede8d5" stroke="#2d263c" stroke-width="2"/>
  <path d="M186 208 L185 223 L193 209Z" fill="#ede8d5" stroke="#2d263c" stroke-width="2"/>
  <path d="M200 207 L200 220 L207 208Z" fill="#ede8d5" stroke="#2d263c" stroke-width="2"/>

  <!-- 眼窩(大きい黒目の穴) -->
  <ellipse cx="162" cy="148" rx="20" ry="22" fill="#1a1a2e" stroke="#2d263c" stroke-width="5"/>
  <ellipse cx="204" cy="148" rx="20" ry="22" fill="#1a1a2e" stroke="#2d263c" stroke-width="5"/>

  <!-- 瞳の炎オレンジ輝き -->
  <ellipse cx="165" cy="150" rx="11" ry="13" fill="#ff6a1a"/>
  <ellipse cx="201" cy="150" rx="11" ry="13" fill="#ff6a1a"/>
  <ellipse cx="162" cy="147" rx="6" ry="7" fill="#ffcc00"/>
  <ellipse cx="198" cy="147" rx="6" ry="7" fill="#ffcc00"/>
  <!-- 光点 -->
  <ellipse cx="159" cy="145" rx="3" ry="3" fill="white"/>
  <ellipse cx="195" cy="145" rx="3" ry="3" fill="white"/>

  <!-- 炎の小鳥(頭の上のゴースト) -->
  <!-- 胴 -->
  <ellipse cx="183" cy="102" rx="25" ry="20" fill="#ff6a1a" stroke="#2d263c" stroke-width="5"/>
  <!-- 頭 -->
  <ellipse cx="183" cy="84" rx="18" ry="16" fill="#ffaa20" stroke="#2d263c" stroke-width="5"/>
  <!-- くちばし -->
  <path d="M175 88 Q183 96 191 88" fill="none" stroke="#2d263c" stroke-width="4" stroke-linecap="round"/>
  <path d="M183 91 L180 100" fill="none" stroke="#2d263c" stroke-width="3" stroke-linecap="round"/>
  <!-- 小鳥の目 -->
  <ellipse cx="177" cy="81" rx="5" ry="5" fill="#1a1a2e" stroke="#2d263c" stroke-width="2"/>
  <ellipse cx="189" cy="81" rx="5" ry="5" fill="#1a1a2e" stroke="#2d263c" stroke-width="2"/>
  <ellipse cx="177" cy="81" rx="2" ry="2" fill="white"/>
  <ellipse cx="189" cy="81" rx="2" ry="2" fill="white"/>
  <!-- 羽(炎) -->
  <path d="M158 100 Q132 82 118 68 Q140 80 152 95Z" fill="#ff6a1a" stroke="#2d263c" stroke-width="4" stroke-linejoin="round"/>
  <path d="M158 110 Q128 100 112 92 Q136 98 152 108Z" fill="#ff9a10" stroke="#2d263c" stroke-width="3" stroke-linejoin="round"/>
  <path d="M208 100 Q232 82 246 68 Q224 80 212 95Z" fill="#ff6a1a" stroke="#2d263c" stroke-width="4" stroke-linejoin="round"/>
  <path d="M208 110 Q236 100 252 92 Q228 98 212 108Z" fill="#ff9a10" stroke="#2d263c" stroke-width="3" stroke-linejoin="round"/>
  <!-- しっぽ炎 -->
  <path d="M183 122 Q175 140 170 155" fill="none" stroke="#ff6a1a" stroke-width="5" stroke-linecap="round"/>
  <path d="M183 122 Q191 140 196 155" fill="none" stroke="#ff6a1a" stroke-width="4" stroke-linecap="round"/>

  <!-- 体の背中の骨の節 -->
  <ellipse cx="155" cy="230" rx="9" ry="7" fill="#2a3a5e" stroke="#2d263c" stroke-width="4"/>
  <ellipse cx="215" cy="230" rx="9" ry="7" fill="#2a3a5e" stroke="#2d263c" stroke-width="4"/>

</svg>