<svg xmlns="http://www.w3.org/2000/svg" viewBox="0 0 360 360">
  <g fill="none" stroke="#2d263c" stroke-width="7" stroke-linejoin="round" stroke-linecap="round">
    <path d="M150,150 L45,165 L150,180 Z" fill="#f2994a"/>
    <path d="M150,120 L63,98 L175,135 Z" fill="#e6463c"/>
    <path d="M165,100 L113,48 L195,115 Z" fill="#f2994a"/>
    <path d="M160,110 L180,30 L200,110 Z" fill="#e6463c"/>
    <path d="M165,115 L248,48 L195,100 Z" fill="#f2994a"/>
    <path d="M185,135 L297,98 L210,120 Z" fill="#e6463c"/>
    <path d="M210,180 L315,165 L210,150 Z" fill="#f2994a"/>
    <circle cx="180" cy="150" r="18" fill="#ffd75e"/>
    <circle cx="180" cy="175" r="50" fill="#5fae46"/>
    <ellipse cx="160" cy="172" rx="13" ry="15" fill="#ffffff"/>
    <ellipse cx="200" cy="172" rx="13" ry="15" fill="#ffffff"/>
    <circle cx="160" cy="174" r="6" fill="#2d263c" stroke="none"/>
    <circle cx="200" cy="174" r="6" fill="#2d263c" stroke="none"/>
    <path d="M165,200 Q180,208 195,200"/>
    <ellipse cx="180" cy="255" rx="66" ry="62" fill="#5fae46"/>
    <ellipse cx="180" cy="268" rx="32" ry="38" fill="#cdeeb0"/>
    <path d="M118,225 Q75,235 50,290 Q72,312 100,292 Q130,260 118,225 Z" fill="#f7c9dc"/>
    <path d="M242,225 Q285,235 310,290 Q288,312 260,292 Q230,260 242,225 Z" fill="#f7c9dc"/>
    <path d="M100,250 Q80,275 62,298" stroke="#e388ab" stroke-width="6"/>
    <path d="M260,250 Q280,275 298,298" stroke="#e388ab" stroke-width="6"/>
    <path d="M155,308 L150,325 L172,325 L168,308 Z" fill="#4a8f38"/>
    <path d="M188,308 L192,325 L210,325 L205,308 Z" fill="#4a8f38"/>
    <ellipse cx="161" cy="325" rx="15" ry="7" fill="#3c7a2d"/>
    <ellipse cx="199" cy="325" rx="15" ry="7" fill="#3c7a2d"/>
    <path d="M45,60 L48,53 L52,60 L59,63 L52,66 L48,73 L45,66 L38,63 Z" fill="#ffe066" stroke="none"/>
    <path d="M310,60 L313,53 L317,60 L324,63 L317,66 L313,73 L310,66 L303,63 Z" fill="#ffe066" stroke="none"/>
    <path d="M35,230 L38,223 L42,230 L49,233 L42,236 L38,243 L35,236 L28,233 Z" fill="#ffe066" stroke="none"/>
    <path d="M325,230 L328,223 L332,230 L339,233 L332,236 L328,243 L325,236 L318,233 Z" fill="#ffe066" stroke="none"/>
  </g>
</svg>
