<svg xmlns="http://www.w3.org/2000/svg" viewBox="0 0 360 360">
  <ellipse cx="180" cy="285" rx="86" ry="16" fill="#2d263c" opacity="0.15"/>
  <path d="M115 170 Q80 160 65 190 Q60 240 100 250 L110 200 Z" fill="#241f33" stroke="#2d263c" stroke-width="7" stroke-linejoin="round"/>
  <path d="M245 170 Q280 160 295 190 Q300 240 260 250 L250 200 Z" fill="#241f33" stroke="#2d263c" stroke-width="7" stroke-linejoin="round"/>
  <path d="M105 260 Q95 285 100 300 L128 300 Q132 280 122 258 Z" fill="#1c1828" stroke="#2d263c" stroke-width="7" stroke-linejoin="round"/>
  <path d="M255 260 Q265 285 260 300 L232 300 Q228 280 238 258 Z" fill="#1c1828" stroke="#2d263c" stroke-width="7" stroke-linejoin="round"/>
  <path d="M150 260 Q142 285 146 300 L172 300 Q176 280 168 258 Z" fill="#1c1828" stroke="#2d263c" stroke-width="7" stroke-linejoin="round"/>
  <path d="M210 260 Q218 285 214 300 L188 300 Q184 280 192 258 Z" fill="#1c1828" stroke="#2d263c" stroke-width="7" stroke-linejoin="round"/>
  <ellipse cx="180" cy="220" rx="105" ry="62" fill="#2e2740" stroke="#2d263c" stroke-width="8" stroke-linejoin="round"/>
  <path d="M275 175 Q320 175 322 130 Q300 145 280 155 Z" fill="#241f33" stroke="#2d263c" stroke-width="7" stroke-linejoin="round"/>
  <path d="M312 145 Q345 130 340 90 Q315 108 300 130 Z" fill="#e0455f" stroke="#2d263c" stroke-width="6" stroke-linejoin="round"/>
  <path d="M85 175 Q140 155 190 165 Q225 175 250 200 Q225 220 180 218 Q120 215 85 195 Z" fill="#3a3252" stroke="#2d263c" stroke-width="8" stroke-linejoin="round"/>
  <path d="M225 165 Q255 145 275 150 Q265 175 240 190 Z" fill="#e0455f" stroke="#2d263c" stroke-width="6" stroke-linejoin="round"/>
  <path d="M250 158 Q270 130 285 128 Q278 155 258 172 Z" fill="#e0455f" stroke="#2d263c" stroke-width="6" stroke-linejoin="round"/>
  <circle cx="212" cy="188" r="13" fill="#ffd23a" stroke="#2d263c" stroke-width="6"/>
  <circle cx="215" cy="185" r="4" fill="#2d263c"/>
  <path d="M92 190 Q75 190 68 205 Q78 215 95 208 Z" fill="#1c1828" stroke="#2d263c" stroke-width="6" stroke-linejoin="round"/>
  <path d="M120 240 Q160 255 200 250 Q220 245 235 230" fill="none" stroke="#4ee3ff" stroke-width="5" stroke-linecap="round"/>
  <path d="M140 200 L150 215 L165 200 L175 215" fill="none" stroke="#4ee3ff" stroke-width="5" stroke-linecap="round" stroke-linejoin="round"/>
  <path d="M105 220 L112 232 L120 220" fill="none" stroke="#4ee3ff" stroke-width="5" stroke-linecap="round" stroke-linejoin="round"/>
  <ellipse cx="180" cy="245" rx="20" ry="14" fill="#e0455f" stroke="#2d263c" stroke-width="6"/>
</svg>
