<svg xmlns="http://www.w3.org/2000/svg" viewBox="0 0 360 360">
  <ellipse cx="148" cy="320" rx="24" ry="14" fill="#7891bb" stroke="#2d263c" stroke-width="7" stroke-linejoin="round"/>
  <ellipse cx="212" cy="320" rx="24" ry="14" fill="#7891bb" stroke="#2d263c" stroke-width="7" stroke-linejoin="round"/>
  <path d="M128 232 Q90 250 88 296 Q86 308 100 308 Q112 308 114 296 Q118 256 148 240 Z" fill="#8fa3c9" stroke="#2d263c" stroke-width="7" stroke-linejoin="round" stroke-linecap="round"/>
  <path d="M232 232 Q270 250 272 296 Q274 308 260 308 Q248 308 246 296 Q242 256 212 240 Z" fill="#8fa3c9" stroke="#2d263c" stroke-width="7" stroke-linejoin="round" stroke-linecap="round"/>
  <ellipse cx="180" cy="262" rx="60" ry="66" fill="#8fa3c9" stroke="#2d263c" stroke-width="8" stroke-linejoin="round"/>
  <ellipse cx="180" cy="270" rx="32" ry="38" fill="#eef3fb"/>
  <ellipse cx="180" cy="142" rx="90" ry="82" fill="#8fa3c9" stroke="#2d263c" stroke-width="8" stroke-linejoin="round"/>
  <circle cx="138" cy="70" r="16" fill="#8fa3c9" stroke="#2d263c" stroke-width="6"/>
  <circle cx="222" cy="70" r="16" fill="#8fa3c9" stroke="#2d263c" stroke-width="6"/>
  <ellipse cx="146" cy="150" rx="30" ry="38" fill="#241f33" stroke="#2d263c" stroke-width="6" stroke-linejoin="round"/>
  <ellipse cx="214" cy="150" rx="30" ry="38" fill="#241f33" stroke="#2d263c" stroke-width="6" stroke-linejoin="round"/>
  <circle cx="138" cy="136" r="7" fill="#ffffff"/>
  <circle cx="206" cy="136" r="7" fill="#ffffff"/>
  <path d="M162 200 Q180 210 198 200" fill="none" stroke="#2d263c" stroke-width="6" stroke-linecap="round"/>
</svg>
