<svg xmlns="http://www.w3.org/2000/svg" viewBox="0 0 360 360">
  <path d="M60,155 C60,70 105,40 180,38 C255,40 300,70 300,155 Z" fill="#eccf94" stroke="#2d263c" stroke-width="8" stroke-linejoin="round"/>
  <ellipse cx="180" cy="153" rx="118" ry="16" fill="#8a6a3f" stroke="#2d263c" stroke-width="7"/>
  <line x1="100" y1="146" x2="100" y2="160" stroke="#6b4f2a" stroke-width="5" stroke-linecap="round"/>
  <line x1="130" y1="146" x2="130" y2="162" stroke="#6b4f2a" stroke-width="5" stroke-linecap="round"/>
  <line x1="160" y1="147" x2="160" y2="163" stroke="#6b4f2a" stroke-width="5" stroke-linecap="round"/>
  <line x1="200" y1="147" x2="200" y2="163" stroke="#6b4f2a" stroke-width="5" stroke-linecap="round"/>
  <line x1="230" y1="146" x2="230" y2="162" stroke="#6b4f2a" stroke-width="5" stroke-linecap="round"/>
  <line x1="260" y1="146" x2="260" y2="160" stroke="#6b4f2a" stroke-width="5" stroke-linecap="round"/>
  <circle cx="145" cy="105" r="15" fill="#d64545" stroke="#2d263c" stroke-width="6"/>
  <circle cx="215" cy="105" r="15" fill="#d64545" stroke="#2d263c" stroke-width="6"/>
  <circle cx="145" cy="108" r="5" fill="#2d263c"/>
  <circle cx="215" cy="108" r="5" fill="#2d263c"/>
  <path d="M160,135 Q180,146 200,135" fill="none" stroke="#2d263c" stroke-width="6" stroke-linecap="round"/>
  <path d="M70,150 C60,205 52,255 58,300 C62,312 72,312 76,300 C82,255 80,205 78,150 Z" fill="#caa568" stroke="#2d263c" stroke-width="7" stroke-linejoin="round"/>
  <path d="M102,150 C92,210 84,265 90,315 C95,326 105,326 110,315 C116,265 112,210 110,150 Z" fill="#caa568" stroke="#2d263c" stroke-width="7" stroke-linejoin="round"/>
  <path d="M134,150 C126,205 120,255 124,300 C128,310 136,310 140,300 C144,255 142,205 140,150 Z" fill="#caa568" stroke="#2d263c" stroke-width="7" stroke-linejoin="round"/>
  <path d="M170,150 C162,215 156,270 162,320 C167,332 177,332 182,320 C188,270 182,215 180,150 Z" fill="#caa568" stroke="#2d263c" stroke-width="7" stroke-linejoin="round"/>
  <path d="M212,150 C204,205 200,255 206,300 C210,310 218,310 222,300 C228,255 224,205 222,150 Z" fill="#caa568" stroke="#2d263c" stroke-width="7" stroke-linejoin="round"/>
  <path d="M246,150 C238,210 232,265 238,315 C243,326 253,326 258,315 C264,265 258,210 256,150 Z" fill="#caa568" stroke="#2d263c" stroke-width="7" stroke-linejoin="round"/>
  <path d="M282,150 C274,205 268,250 272,295 C276,306 284,306 288,295 C292,250 288,205 286,150 Z" fill="#caa568" stroke="#2d263c" stroke-width="7" stroke-linejoin="round"/>
</svg>
