<svg xmlns="http://www.w3.org/2000/svg" viewBox="0 0 360 360">
<g stroke="#2d263c" stroke-width="7" stroke-linejoin="round" stroke-linecap="round">
  <path d="M150,80 C112,102 98,152 118,208 C132,182 146,140 152,95 Z" fill="#38466e"/>
  <path d="M210,80 C248,102 262,152 242,208 C228,182 214,140 208,95 Z" fill="#38466e"/>
  <ellipse cx="196" cy="298" rx="18" ry="24" fill="#2c3654" transform="rotate(20 196 298)"/>
  <ellipse cx="112" cy="225" rx="20" ry="48" fill="#38466e" transform="rotate(-14 112 225)"/>
  <ellipse cx="248" cy="225" rx="20" ry="48" fill="#38466e" transform="rotate(14 248 225)"/>
  <ellipse cx="150" cy="295" rx="27" ry="40" fill="#38466e"/>
  <ellipse cx="210" cy="295" rx="27" ry="40" fill="#38466e"/>
  <ellipse cx="180" cy="232" rx="70" ry="78" fill="#3c4a72"/>
  <ellipse cx="104" cy="266" rx="15" ry="14" fill="#20202a"/>
  <ellipse cx="256" cy="266" rx="15" ry="14" fill="#20202a"/>
  <ellipse cx="148" cy="328" rx="25" ry="14" fill="#20202a"/>
  <ellipse cx="212" cy="328" rx="25" ry="14" fill="#20202a"/>
  <path d="M164,183 L196,183 L184,256 L176,256 Z" fill="#f4e2a4"/>
  <circle cx="180" cy="112" r="55" fill="#3c4a72"/>
  <path d="M140,66 L120,20 L163,58 Z" fill="#3c4a72"/>
  <path d="M220,66 L240,20 L197,58 Z" fill="#3c4a72"/>
  <path d="M122,24 L132,36 L112,36 Z" fill="#1c1c26" stroke-width="5"/>
  <path d="M238,24 L228,36 L248,36 Z" fill="#1c1c26" stroke-width="5"/>
  <ellipse cx="158" cy="108" rx="18" ry="14" fill="#1c1c26" stroke="none"/>
  <ellipse cx="202" cy="108" rx="18" ry="14" fill="#1c1c26" stroke="none"/>
  <circle cx="158" cy="109" r="9" fill="#e63946" stroke-width="4"/>
  <circle cx="202" cy="109" r="9" fill="#e63946" stroke-width="4"/>
  <circle cx="180" cy="130" r="3" fill="#1c1c26" stroke="none"/>
  <path d="M164,143 Q180,152 196,143" fill="none" stroke-width="6"/>
</g>
</svg>
