<svg xmlns="http://www.w3.org/2000/svg" viewBox="0 0 360 360">
  <!-- tail (behind body) -->
  <path d="M225 250 Q290 235 300 175 Q305 140 275 118" fill="none" stroke="#2d263c" stroke-width="9" stroke-linecap="round" stroke-linejoin="round"/>
  <path d="M225 250 Q290 235 300 175 Q305 140 278 122 L268 145 Q290 160 285 185 Q280 225 225 250 Z" fill="#E8502A" stroke="#2d263c" stroke-width="8" stroke-linejoin="round"/>
  <!-- flame at tail tip -->
  <path d="M275 120 Q265 95 285 78 Q278 100 300 100 Q292 60 320 45 Q305 90 322 105 Q300 130 275 120 Z" fill="#FFB627" stroke="#2d263c" stroke-width="7" stroke-linejoin="round"/>
  <path d="M283 108 Q278 92 292 82 Q286 96 300 96 Q297 72 312 62 Q303 90 313 100 Q297 116 283 108 Z" fill="#FFE45A" stroke="none"/>

  <!-- back legs / feet -->
  <path d="M120 300 Q115 320 100 328 Q108 335 122 332 Q130 328 132 312 Z" fill="#E8502A" stroke="#2d263c" stroke-width="7" stroke-linejoin="round"/>
  <path d="M100 326 L92 336 M108 331 L104 342 M118 331 L120 342" fill="none" stroke="#2d263c" stroke-width="5" stroke-linecap="round"/>

  <path d="M210 300 Q218 322 235 330 Q225 337 210 333 Q202 328 200 312 Z" fill="#E8502A" stroke="#2d263c" stroke-width="7" stroke-linejoin="round"/>
  <path d="M235 328 L245 337 M225 333 L230 344 M214 333 L212 344" fill="none" stroke="#2d263c" stroke-width="5" stroke-linecap="round"/>

  <!-- legs -->
  <path d="M110 240 Q100 275 108 308 Q125 315 132 302 Q128 270 135 245 Z" fill="#E8502A" stroke="#2d263c" stroke-width="8" stroke-linejoin="round"/>
  <path d="M195 240 Q195 278 200 308 Q218 315 225 300 Q218 270 220 242 Z" fill="#E8502A" stroke="#2d263c" stroke-width="8" stroke-linejoin="round"/>

  <!-- body -->
  <path d="M100 180 Q90 235 118 260 Q160 285 205 258 Q235 235 225 178 Q220 130 165 118 Q112 122 100 180 Z" fill="#E8502A" stroke="#2d263c" stroke-width="8" stroke-linejoin="round"/>

  <!-- back ridge spikes -->
  <path d="M175 122 L188 100 L196 124 L210 105 L214 132 Z" fill="#FBE7AE" stroke="#2d263c" stroke-width="6" stroke-linejoin="round"/>

  <!-- belly patch -->
  <path d="M128 200 Q122 235 150 252 Q175 262 195 248 Q205 225 198 195 Q165 178 128 200 Z" fill="#FBE7AE" stroke="#2d263c" stroke-width="6" stroke-linejoin="round"/>

  <!-- arms -->
  <path d="M100 195 Q70 200 60 225 Q75 235 88 222 Q100 210 108 205 Z" fill="#E8502A" stroke="#2d263c" stroke-width="7" stroke-linejoin="round"/>
  <path d="M58 222 L45 228 M60 230 L50 238 M68 233 L60 244" fill="none" stroke="#2d263c" stroke-width="5" stroke-linecap="round"/>

  <path d="M222 195 Q252 198 265 220 Q250 232 238 218 Q228 208 218 203 Z" fill="#E8502A" stroke="#2d263c" stroke-width="7" stroke-linejoin="round"/>
  <path d="M263 217 L277 222 M262 226 L272 233 M253 231 L260 242" fill="none" stroke="#2d263c" stroke-width="5" stroke-linecap="round"/>

  <!-- neck/head -->
  <path d="M120 130 Q108 85 150 62 Q195 42 232 70 Q255 92 240 128 Q225 152 178 155 Q140 155 120 130 Z" fill="#E8502A" stroke="#2d263c" stroke-width="8" stroke-linejoin="round"/>

  <!-- horn on head -->
  <path d="M205 55 Q220 30 238 42 Q228 55 232 68 Q215 62 205 55 Z" fill="#FBE7AE" stroke="#2d263c" stroke-width="7" stroke-linejoin="round"/>

  <!-- snout -->
  <path d="M120 130 Q95 128 90 108 Q100 100 118 112 Q125 120 120 130 Z" fill="#E8502A" stroke="#2d263c" stroke-width="7" stroke-linejoin="round"/>

  <!-- eyes (fierce, slit) -->
  <path d="M140 90 Q155 78 172 88 Q158 92 150 100 Q143 96 140 90 Z" fill="#fff" stroke="#2d263c" stroke-width="5" stroke-linejoin="round"/>
  <circle cx="156" cy="90" r="5" fill="#2d263c"/>
  <path d="M186 82 Q202 72 216 84 Q200 86 194 96 Q188 90 186 82 Z" fill="#fff" stroke="#2d263c" stroke-width="5" stroke-linejoin="round"/>
  <circle cx="200" cy="85" r="5" fill="#2d263c"/>

  <!-- angry brow lines -->
  <path d="M136 78 Q152 66 170 74" fill="none" stroke="#2d263c" stroke-width="6" stroke-linecap="round"/>
  <path d="M188 68 Q205 58 218 70" fill="none" stroke="#2d263c" stroke-width="6" stroke-linecap="round"/>

  <!-- mouth -->
  <path d="M95 112 Q108 120 122 116" fill="none" stroke="#2d263c" stroke-width="6" stroke-linecap="round"/>
</svg>
