<svg xmlns="http://www.w3.org/2000/svg" viewBox="0 0 360 360">
  <ellipse cx="255" cy="255" rx="18" ry="16" fill="#5c3a1e" stroke="#2d263c" stroke-width="7" stroke-linejoin="round"/>

  <ellipse cx="140" cy="315" rx="38" ry="28" fill="#5c3a1e" stroke="#2d263c" stroke-width="7" stroke-linejoin="round"/>
  <ellipse cx="230" cy="315" rx="38" ry="28" fill="#5c3a1e" stroke="#2d263c" stroke-width="7" stroke-linejoin="round"/>
  <rect x="110" y="240" width="60" height="80" rx="28" fill="#5c3a1e" stroke="#2d263c" stroke-width="7" stroke-linejoin="round"/>
  <rect x="200" y="240" width="60" height="80" rx="28" fill="#5c3a1e" stroke="#2d263c" stroke-width="7" stroke-linejoin="round"/>

  <ellipse cx="185" cy="210" rx="95" ry="90" fill="#5c3a1e" stroke="#2d263c" stroke-width="8" stroke-linejoin="round"/>

  <ellipse cx="185" cy="218" rx="48" ry="42" fill="#e8c9a0" stroke="#2d263c" stroke-width="7"/>
  <ellipse cx="185" cy="218" rx="26" ry="22" fill="#5c3a1e" stroke="#2d263c" stroke-width="6"/>

  <ellipse cx="90" cy="195" rx="30" ry="55" fill="#5c3a1e" stroke="#2d263c" stroke-width="7" stroke-linejoin="round" transform="rotate(-16 90 195)"/>
  <ellipse cx="280" cy="195" rx="30" ry="55" fill="#5c3a1e" stroke="#2d263c" stroke-width="7" stroke-linejoin="round" transform="rotate(16 280 195)"/>

  <ellipse cx="72" cy="238" rx="26" ry="22" fill="#e8c9a0" stroke="#2d263c" stroke-width="7"/>
  <ellipse cx="298" cy="238" rx="26" ry="22" fill="#e8c9a0" stroke="#2d263c" stroke-width="7"/>

  <path d="M58 248 q-8 12 -4 20" fill="none" stroke="#2d263c" stroke-width="6" stroke-linecap="round"/>
  <path d="M73 253 q-2 14 2 20" fill="none" stroke="#2d263c" stroke-width="6" stroke-linecap="round"/>
  <path d="M88 248 q6 12 4 20" fill="none" stroke="#2d263c" stroke-width="6" stroke-linecap="round"/>
  <path d="M312 248 q8 12 4 20" fill="none" stroke="#2d263c" stroke-width="6" stroke-linecap="round"/>
  <path d="M297 253 q2 14 -2 20" fill="none" stroke="#2d263c" stroke-width="6" stroke-linecap="round"/>
  <path d="M282 248 q-6 12 -4 20" fill="none" stroke="#2d263c" stroke-width="6" stroke-linecap="round"/>

  <circle cx="185" cy="105" r="72" fill="#5c3a1e" stroke="#2d263c" stroke-width="8"/>

  <circle cx="130" cy="52" r="27" fill="#5c3a1e" stroke="#2d263c" stroke-width="7"/>
  <circle cx="240" cy="52" r="27" fill="#5c3a1e" stroke="#2d263c" stroke-width="7"/>
  <circle cx="130" cy="55" r="13" fill="#e8c9a0"/>
  <circle cx="240" cy="55" r="13" fill="#e8c9a0"/>

  <ellipse cx="185" cy="122" rx="50" ry="42" fill="#e8c9a0" stroke="#2d263c" stroke-width="6"/>

  <path d="M143 98 q12 -20 34 -15" fill="none" stroke="#3a2414" stroke-width="9" stroke-linecap="round"/>
  <path d="M227 98 q-12 -20 -34 -15" fill="none" stroke="#3a2414" stroke-width="9" stroke-linecap="round"/>

  <circle cx="163" cy="112" r="7" fill="#2d263c"/>
  <circle cx="207" cy="112" r="7" fill="#2d263c"/>

  <ellipse cx="185" cy="142" rx="12" ry="9" fill="#2d263c"/>

  <path d="M185 150 q0 10 -14 15" fill="none" stroke="#2d263c" stroke-width="5" stroke-linecap="round"/>
  <path d="M185 150 q0 10 14 15" fill="none" stroke="#2d263c" stroke-width="5" stroke-linecap="round"/>
</svg>
