<svg xmlns="http://www.w3.org/2000/svg" viewBox="0 0 360 360">
  <!-- 尻尾 (後ろ) -->
  <ellipse cx="268" cy="238" rx="22" ry="14" fill="#e8c84a" stroke="#2d263c" stroke-width="7" stroke-linejoin="round"/>
  <!-- 尻尾の口模様 -->
  <path d="M255 238 Q268 248 281 238" fill="none" stroke="#2d263c" stroke-width="4" stroke-linecap="round"/>
  <circle cx="262" cy="233" r="3" fill="#2d263c"/>
  <circle cx="274" cy="233" r="3" fill="#2d263c"/>

  <!-- 後ろ脚 左 -->
  <rect x="180" y="270" width="28" height="52" rx="12" fill="#d4a830" stroke="#2d263c" stroke-width="7" stroke-linejoin="round"/>
  <!-- 後ろ脚 右 -->
  <rect x="220" y="275" width="27" height="48" rx="12" fill="#d4a830" stroke="#2d263c" stroke-width="7" stroke-linejoin="round"/>

  <!-- 前脚 左 -->
  <rect x="100" y="268" width="28" height="54" rx="12" fill="#d4a830" stroke="#2d263c" stroke-width="7" stroke-linejoin="round"/>
  <!-- 前脚 右 -->
  <rect x="140" y="272" width="27" height="50" rx="12" fill="#d4a830" stroke="#2d263c" stroke-width="7" stroke-linejoin="round"/>

  <!-- 胴体 -->
  <ellipse cx="185" cy="255" rx="95" ry="68" fill="#f0d84e" stroke="#2d263c" stroke-width="8" stroke-linejoin="round"/>

  <!-- 腹の白っぽい部分 -->
  <ellipse cx="178" cy="262" rx="55" ry="40" fill="#f7eca0"/>

  <!-- キリン模様 (胴体) -->
  <ellipse cx="130" cy="230" rx="14" ry="18" fill="#a0622a" opacity="0.7"/>
  <ellipse cx="158" cy="215" rx="10" ry="13" fill="#a0622a" opacity="0.7"/>
  <ellipse cx="220" cy="222" rx="16" ry="12" fill="#a0622a" opacity="0.7"/>
  <ellipse cx="245" cy="248" rx="11" ry="15" fill="#a0622a" opacity="0.7"/>
  <ellipse cx="200" cy="240" rx="8" ry="10" fill="#a0622a" opacity="0.6"/>
  <ellipse cx="135" cy="268" rx="10" ry="8" fill="#a0622a" opacity="0.6"/>

  <!-- 首 -->
  <path d="M148 205 Q140 155 145 110 Q148 95 162 85 Q175 75 185 90 Q195 105 190 155 Q185 200 178 215" fill="#f0d84e" stroke="#2d263c" stroke-width="8" stroke-linejoin="round"/>

  <!-- 首の模様 -->
  <ellipse cx="155" cy="165" rx="8" ry="12" fill="#a0622a" opacity="0.65"/>
  <ellipse cx="175" cy="140" rx="9" ry="11" fill="#a0622a" opacity="0.65"/>
  <ellipse cx="160" cy="118" rx="7" ry="9" fill="#a0622a" opacity="0.6"/>

  <!-- 耳 左 -->
  <ellipse cx="138" cy="80" rx="14" ry="24" fill="#f0d84e" stroke="#2d263c" stroke-width="7" stroke-linejoin="round" transform="rotate(-18 138 80)"/>
  <ellipse cx="138" cy="80" rx="7" ry="14" fill="#f5a8b8" transform="rotate(-18 138 80)"/>

  <!-- 耳 右 -->
  <ellipse cx="200" cy="76" rx="13" ry="23" fill="#f0d84e" stroke="#2d263c" stroke-width="7" stroke-linejoin="round" transform="rotate(14 200 76)"/>
  <ellipse cx="200" cy="76" rx="7" ry="13" fill="#f5a8b8" transform="rotate(14 200 76)"/>

  <!-- 角 左 -->
  <ellipse cx="150" cy="62" rx="6" ry="18" fill="#f7d03a" stroke="#2d263c" stroke-width="5" stroke-linejoin="round" transform="rotate(-10 150 62)"/>
  <!-- 角 右 -->
  <ellipse cx="185" cy="58" rx="6" ry="18" fill="#f7d03a" stroke="#2d263c" stroke-width="5" stroke-linejoin="round" transform="rotate(8 185 58)"/>

  <!-- 頭 -->
  <ellipse cx="168" cy="100" rx="40" ry="35" fill="#f0d84e" stroke="#2d263c" stroke-width="8" stroke-linejoin="round"/>

  <!-- 頬の茶色模様 -->
  <ellipse cx="140" cy="108" rx="12" ry="9" fill="#a0622a" opacity="0.55"/>
  <ellipse cx="196" cy="105" rx="11" ry="8" fill="#a0622a" opacity="0.55"/>

  <!-- 目 左 (たれ目) -->
  <ellipse cx="151" cy="97" rx="9" ry="10" fill="white" stroke="#2d263c" stroke-width="4"/>
  <ellipse cx="152" cy="100" rx="5" ry="6" fill="#2d263c"/>
  <ellipse cx="150" cy="98" rx="2" ry="2" fill="white"/>
  <!-- たれ目ライン -->
  <path d="M143 103 Q152 110 161 104" fill="none" stroke="#2d263c" stroke-width="3" stroke-linecap="round"/>

  <!-- 目 右 (たれ目) -->
  <ellipse cx="186" cy="95" rx="9" ry="10" fill="white" stroke="#2d263c" stroke-width="4"/>
  <ellipse cx="187" cy="98" rx="5" ry="6" fill="#2d263c"/>
  <ellipse cx="185" cy="96" rx="2" ry="2" fill="white"/>
  <!-- たれ目ライン -->
  <path d="M178 101 Q187 108 196 102" fill="none" stroke="#2d263c" stroke-width="3" stroke-linecap="round"/>

  <!-- 鼻 -->
  <ellipse cx="162" cy="116" rx="5" ry="4" fill="#c47a28"/>
  <ellipse cx="175" cy="114" rx="5" ry="4" fill="#c47a28"/>

  <!-- ひょうきんな口 -->
  <path d="M155 122 Q168 132 180 122" fill="none" stroke="#2d263c" stroke-width="5" stroke-linecap="round"/>
</svg>