<svg xmlns="http://www.w3.org/2000/svg" viewBox="0 0 360 360">
<path d="M225,270 Q262,296 286,258 Q307,218 291,188 Q308,172 297,155 Q272,188 251,228 Q231,254 216,276 Z" fill="#e8622a" stroke="#2d263c" stroke-width="7" stroke-linejoin="round" stroke-linecap="round"/>
<path d="M281,163 Q269,128 291,98 Q301,128 312,108 Q322,140 301,166 Q291,150 281,163 Z" fill="#ff9a3d" stroke="#2d263c" stroke-width="7" stroke-linejoin="round" stroke-linecap="round"/>
<path d="M145,193 C92,152 42,122 27,107 C47,160 42,208 62,234 C92,220 122,214 151,224 Z" fill="#e8622a" stroke="#2d263c" stroke-width="7" stroke-linejoin="round" stroke-linecap="round"/>
<path d="M215,193 C268,152 318,122 333,107 C313,160 318,208 298,234 C268,220 238,214 209,224 Z" fill="#e8622a" stroke="#2d263c" stroke-width="7" stroke-linejoin="round" stroke-linecap="round"/>
<path d="M130,300 Q108,220 130,153 Q180,128 230,153 Q252,220 230,300 Q180,322 130,300 Z" fill="#f07a3a" stroke="#2d263c" stroke-width="7" stroke-linejoin="round" stroke-linecap="round"/>
<path d="M125,208 Q93,220 84,256 Q100,272 121,256 Q136,230 125,208 Z" fill="#f07a3a" stroke="#2d263c" stroke-width="7" stroke-linejoin="round" stroke-linecap="round"/>
<path d="M235,208 Q267,220 276,256 Q260,272 239,256 Q224,230 235,208 Z" fill="#f07a3a" stroke="#2d263c" stroke-width="7" stroke-linejoin="round" stroke-linecap="round"/>
<path d="M145,289 Q128,310 129,331 Q150,342 161,326 Q161,300 145,289 Z" fill="#f07a3a" stroke="#2d263c" stroke-width="7" stroke-linejoin="round" stroke-linecap="round"/>
<path d="M215,289 Q232,310 231,331 Q210,342 199,326 Q199,300 215,289 Z" fill="#f07a3a" stroke="#2d263c" stroke-width="7" stroke-linejoin="round" stroke-linecap="round"/>
<path d="M148,192 Q147,235 155,282 Q180,296 205,282 Q213,235 212,192 Q180,206 148,192 Z" fill="#fbe4b0" stroke="#2d263c" stroke-width="6" stroke-linejoin="round" stroke-linecap="round"/>
<path d="M155,158 Q150,120 168,88 Q158,132 170,155 Z" fill="#d9622a" stroke="#2d263c" stroke-width="6" stroke-linejoin="round" stroke-linecap="round"/>
<path d="M205,158 Q210,120 192,88 Q202,132 190,155 Z" fill="#d9622a" stroke="#2d263c" stroke-width="6" stroke-linejoin="round" stroke-linecap="round"/>
<path d="M165,168 Q150,130 180,102 Q210,130 195,168 Q180,178 165,168 Z" fill="#ffd93d" stroke="#2d263c" stroke-width="7" stroke-linejoin="round" stroke-linecap="round"/>
<path d="M120,178 Q108,150 128,130 Q140,152 133,178 Z" fill="#ff9a3d" stroke="#2d263c" stroke-width="6" stroke-linejoin="round" stroke-linecap="round"/>
<path d="M240,178 Q252,150 232,130 Q220,152 227,178 Z" fill="#ff9a3d" stroke="#2d263c" stroke-width="6" stroke-linejoin="round" stroke-linecap="round"/>
<circle cx="163" cy="92" r="12" fill="#ffffff" stroke="#2d263c" stroke-width="6"/>
<circle cx="197" cy="92" r="12" fill="#ffffff" stroke="#2d263c" stroke-width="6"/>
<circle cx="163" cy="94" r="5" fill="#2d263c"/>
<circle cx="197" cy="94" r="5" fill="#2d263c"/>
<circle cx="172" cy="118" r="3" fill="#2d263c"/>
<circle cx="188" cy="118" r="3" fill="#2d263c"/>
<path d="M165,128 Q180,138 195,128" fill="none" stroke="#2d263c" stroke-width="6" stroke-linecap="round"/>
<path d="M158,222 Q180,228 202,222" fill="none" stroke="#e8b877" stroke-width="5" stroke-linecap="round"/>
<path d="M154,252 Q180,260 206,252" fill="none" stroke="#e8b877" stroke-width="5" stroke-linecap="round"/>
<circle cx="180" cy="98" r="55" fill="#f07a3a" stroke="#2d263c" stroke-width="7"/>
</svg>
