<svg xmlns="http://www.w3.org/2000/svg" viewBox="0 0 360 360"><g stroke="#2d263c" stroke-width="7" stroke-linejoin="round" stroke-linecap="round"><path d="M162,54 C152,43 146,33 143,22 C157,32 168,40 177,49 Z" fill="#F08030"/><path d="M195,47 C194,34 198,24 205,16 C211,28 209,40 205,49 Z" fill="#F08030"/><path d="M155,185 C122,168 82,118 54,52 Q72,84 104,130 Q112,168 152,200 Q154,193 155,185 Z" fill="#3E8A9E"/><path d="M155,185 C122,168 82,118 54,52 C70,62 84,76 96,92 C118,124 138,152 155,170 Z" fill="#F08030"/><path d="M205,185 C238,168 278,118 306,52 Q288,84 256,130 Q248,168 208,200 Q206,193 205,185 Z" fill="#3E8A9E"/><path d="M205,185 C238,168 278,118 306,52 C290,62 276,76 264,92 C242,124 222,152 205,170 Z" fill="#F08030"/><path d="M205,242 C245,256 276,252 292,228 C296,252 286,272 262,280 C234,288 208,276 196,258 Z" fill="#F08030"/><path d="M292,232 C276,212 278,186 292,164 C290,182 298,188 303,176 C312,192 312,214 302,228 Z" fill="#FB6C2E"/><path d="M292,228 C284,214 285,198 292,186 C292,198 299,202 301,194 C306,204 304,218 298,226 Z" fill="#FFD43A" stroke-width="5"/><path d="M163,98 C150,114 141,142 136,184 C130,234 148,266 181,272 C214,266 231,234 226,184 C221,142 212,114 199,98 Z" fill="#F08030"/><path d="M181,142 C160,144 148,172 147,206 C146,240 160,260 181,262 C202,260 216,240 215,206 C214,172 202,144 181,142 Z" fill="#F6D7A2"/><path d="M152,196 Q181,204 210,196" fill="none" stroke-width="5"/><path d="M150,226 Q181,234 212,226" fill="none" stroke-width="5"/><path d="M152,156 C136,160 124,172 120,188 C119,196 124,201 132,200 C144,198 152,186 156,172 Z" fill="#F08030"/><path d="M124,198 L114,208 L128,206 Z M133,200 L127,212 L139,205 Z" fill="#F8F2E4" stroke-width="4.5"/><path d="M208,156 C224,160 236,172 240,188 C241,196 236,201 228,200 C216,198 208,186 204,172 Z" fill="#F08030"/><path d="M236,198 L246,208 L232,206 Z M227,200 L233,212 L221,205 Z" fill="#F8F2E4" stroke-width="4.5"/><path d="M156,238 C138,248 126,274 128,298 C129,312 142,320 158,318 C166,317 172,312 174,304 L172,262 C168,250 163,242 156,238 Z" fill="#F08030"/><path d="M128,300 L114,306 L128,312 Z M134,312 L124,322 L140,318 Z" fill="#F8F2E4" stroke-width="4.5"/><path d="M206,238 C224,248 236,274 234,298 C233,312 220,320 204,318 C196,317 190,312 188,304 L190,262 C194,250 199,242 206,238 Z" fill="#F08030"/><path d="M234,300 L248,306 L234,312 Z M228,312 L238,322 L222,318 Z" fill="#F8F2E4" stroke-width="4.5"/><path d="M152,86 C150,60 166,42 188,42 C212,42 228,58 229,78 C240,80 248,87 249,95 C250,104 242,110 230,110 C224,121 206,128 186,127 C164,126 153,112 152,98 Z" fill="#F08030"/><path d="M206,72 L228,68 L229,84 C221,88 212,87 206,84 Z" fill="#FFFFFF" stroke-width="4.5"/><path d="M160,74 L180,70 L181,86 C173,89 165,88 160,85 Z" fill="#FFFFFF" stroke-width="4.5"/><circle cx="219" cy="78" r="4" fill="#2d263c" stroke="none"/><circle cx="172" cy="79" r="4" fill="#2d263c" stroke="none"/><path d="M240,90 q4,1 6,4" fill="none" stroke-width="4.5"/><path d="M225,104 Q238,103 246,96" fill="none" stroke-width="4.5"/><path d="M233,106 L237,114 L241,105 Z" fill="#F8F2E4" stroke-width="4"/></g></svg>