<svg xmlns="http://www.w3.org/2000/svg" viewBox="0 0 360 360">
  <!-- back: crown petals (radiate up from top of head) -->
  <g transform="rotate(-70 180 150)">
    <path d="M180,150 C155,133 150,85 163,50 C170,32 190,32 197,50 C210,85 205,133 180,150 Z" fill="#f3aed4" stroke="#2d263c" stroke-width="7" stroke-linejoin="round"/>
    <circle cx="180" cy="85" r="9" fill="#d1568f"/>
  </g>
  <g transform="rotate(-35 180 150)">
    <path d="M180,150 C155,133 150,85 163,50 C170,32 190,32 197,50 C210,85 205,133 180,150 Z" fill="#f3aed4" stroke="#2d263c" stroke-width="7" stroke-linejoin="round"/>
    <circle cx="180" cy="80" r="9" fill="#d1568f"/>
  </g>
  <g transform="rotate(0 180 150)">
    <path d="M180,150 C153,131 148,80 163,42 C170,24 190,24 197,42 C212,80 207,131 180,150 Z" fill="#f6b8da" stroke="#2d263c" stroke-width="7" stroke-linejoin="round"/>
    <circle cx="180" cy="75" r="10" fill="#d1568f"/>
  </g>
  <g transform="rotate(35 180 150)">
    <path d="M180,150 C155,133 150,85 163,50 C170,32 190,32 197,50 C210,85 205,133 180,150 Z" fill="#f3aed4" stroke="#2d263c" stroke-width="7" stroke-linejoin="round"/>
    <circle cx="180" cy="80" r="9" fill="#d1568f"/>
  </g>
  <g transform="rotate(70 180 150)">
    <path d="M180,150 C155,133 150,85 163,50 C170,32 190,32 197,50 C210,85 205,133 180,150 Z" fill="#f3aed4" stroke="#2d263c" stroke-width="7" stroke-linejoin="round"/>
    <circle cx="180" cy="85" r="9" fill="#d1568f"/>
  </g>

  <!-- back: side drooping fronds -->
  <g transform="rotate(120 180 150)">
    <path d="M180,150 C160,140 150,105 160,72 C166,58 182,58 189,72 C198,105 195,140 180,150 Z" fill="#eea0c7" stroke="#2d263c" stroke-width="7" stroke-linejoin="round"/>
  </g>
  <g transform="rotate(-120 180 150)">
    <path d="M180,150 C160,140 150,105 160,72 C166,58 182,58 189,72 C198,105 195,140 180,150 Z" fill="#eea0c7" stroke="#2d263c" stroke-width="7" stroke-linejoin="round"/>
  </g>

  <!-- body: tapering stem/base -->
  <path d="M138,258 C126,288 130,318 152,336 L208,336 C230,318 234,288 222,258 C205,278 155,278 138,258 Z" fill="#8f6bb0" stroke="#2d263c" stroke-width="8" stroke-linejoin="round"/>
  <ellipse cx="180" cy="336" rx="48" ry="14" fill="#7d5a9e" stroke="#2d263c" stroke-width="7"/>

  <!-- head -->
  <circle cx="180" cy="205" r="90" fill="#a687cd" stroke="#2d263c" stroke-width="8"/>

  <!-- face -->
  <ellipse cx="140" cy="222" rx="16" ry="10" fill="#c99fe0" opacity="0.6"/>
  <ellipse cx="220" cy="222" rx="16" ry="10" fill="#c99fe0" opacity="0.6"/>
  <circle cx="150" cy="195" r="17" fill="#2d263c"/>
  <circle cx="210" cy="195" r="17" fill="#2d263c"/>
  <circle cx="145" cy="189" r="5" fill="#ffffff"/>
  <circle cx="205" cy="189" r="5" fill="#ffffff"/>
  <path d="M162,235 Q180,248 198,235" fill="none" stroke="#2d263c" stroke-width="7" stroke-linecap="round"/>
</svg>
