<svg xmlns="http://www.w3.org/2000/svg" viewBox="0 0 360 360">
<path d="M182 198 C120 188 50 148 42 68 C78 118 120 158 168 182 Z" fill="#6b4d8a" stroke="#2d263c" stroke-width="7" stroke-linejoin="round"/>
<path d="M178 198 C240 188 310 148 318 68 C282 118 240 158 192 182 Z" fill="#6b4d8a" stroke="#2d263c" stroke-width="7" stroke-linejoin="round"/>
<path d="M105 140 Q180 66 255 140 Q180 172 105 140 Z" fill="#e8c84a" stroke="#2d263c" stroke-width="6" stroke-linejoin="round"/>
<path d="M134 132 Q180 96 226 132 Q180 152 134 132 Z" fill="#3a2a52" stroke="#2d263c" stroke-width="4" stroke-linejoin="round"/>
<ellipse cx="180" cy="208" rx="34" ry="44" fill="#3a2a52" stroke="#2d263c" stroke-width="7"/>
<ellipse cx="180" cy="158" rx="25" ry="23" fill="#3a2a52" stroke="#2d263c" stroke-width="7"/>
<polygon points="180,126 185,142 198,138 189,150 192,165 180,156 168,165 171,150 162,138 175,142" fill="#e8c84a" stroke="#2d263c" stroke-width="4" stroke-linejoin="round"/>
<ellipse cx="170" cy="157" rx="4" ry="6" fill="#f0d040"/>
<ellipse cx="190" cy="157" rx="4" ry="6" fill="#f0d040"/>
<path d="M174 172 L186 172 L180 182 Z" fill="#e8c84a" stroke="#2d263c" stroke-width="3" stroke-linejoin="round"/>
<path d="M168 250 Q158 285 170 300 M192 250 Q202 285 190 300" fill="none" stroke="#2d263c" stroke-width="7" stroke-linecap="round"/>
</svg>