<svg xmlns="http://www.w3.org/2000/svg" viewBox="0 0 360 360">
  <!-- 尻尾の岩 (一番後ろ) -->
  <ellipse cx="295" cy="230" rx="22" ry="16" fill="#5a5a6e" stroke="#2d263c" stroke-width="7" stroke-linejoin="round"/>
  <ellipse cx="308" cy="218" rx="14" ry="11" fill="#6e6e82" stroke="#2d263c" stroke-width="6" stroke-linejoin="round"/>
  <!-- 尻尾 -->
  <path d="M255 210 Q270 195 285 205 Q300 215 305 230 Q300 245 285 240 Q268 238 255 225 Z" fill="#8a1a2a" stroke="#2d263c" stroke-width="7" stroke-linejoin="round" stroke-linecap="round"/>

  <!-- 後ろ足 (右・奥) -->
  <path d="M215 250 Q225 265 222 285 Q220 295 212 298 L205 298 Q200 285 205 270 Q208 258 215 250Z" fill="#7a1525" stroke="#2d263c" stroke-width="7" stroke-linejoin="round"/>
  <!-- 爪 (右後) -->
  <ellipse cx="208" cy="300" rx="7" ry="4" fill="#3a3040" stroke="#2d263c" stroke-width="5"/>
  <ellipse cx="218" cy="301" rx="6" ry="3" fill="#3a3040" stroke="#2d263c" stroke-width="4"/>

  <!-- 後ろ足 (左・手前) -->
  <path d="M145 255 Q140 270 138 290 Q137 300 148 302 L155 300 Q160 285 158 268 Q155 258 145 255Z" fill="#8a1a2a" stroke="#2d263c" stroke-width="7" stroke-linejoin="round"/>
  <!-- 爪 (左後) -->
  <ellipse cx="143" cy="304" rx="7" ry="4" fill="#3a3040" stroke="#2d263c" stroke-width="5"/>
  <ellipse cx="153" cy="304" rx="6" ry="3" fill="#3a3040" stroke="#2d263c" stroke-width="4"/>

  <!-- 胴体 -->
  <ellipse cx="185" cy="235" rx="72" ry="58" fill="#8a1a2a" stroke="#2d263c" stroke-width="8" stroke-linejoin="round"/>
  <!-- 腹の白毛 -->
  <ellipse cx="178" cy="248" rx="38" ry="30" fill="#e8dfd0" stroke="#2d263c" stroke-width="5" stroke-linejoin="round"/>

  <!-- 前足 (右) -->
  <path d="M218 258 Q232 265 235 285 Q234 297 225 300 L217 299 Q212 285 214 268 Z" fill="#8a1a2a" stroke="#2d263c" stroke-width="7" stroke-linejoin="round"/>
  <!-- 爪 (右前) -->
  <ellipse cx="219" cy="302" rx="7" ry="4" fill="#3a3040" stroke="#2d263c" stroke-width="5"/>
  <ellipse cx="228" cy="300" rx="6" ry="3" fill="#3a3040" stroke="#2d263c" stroke-width="4"/>

  <!-- 前足 (左) -->
  <path d="M148 260 Q136 268 133 288 Q132 300 142 302 L150 300 Q156 286 154 268 Z" fill="#9a2030" stroke="#2d263c" stroke-width="7" stroke-linejoin="round"/>
  <!-- 爪 (左前) -->
  <ellipse cx="136" cy="304" rx="6" ry="4" fill="#3a3040" stroke="#2d263c" stroke-width="5"/>
  <ellipse cx="145" cy="305" rx="7" ry="3" fill="#3a3040" stroke="#2d263c" stroke-width="4"/>

  <!-- たてがみ (首・白ふわ) -->
  <ellipse cx="175" cy="192" rx="55" ry="45" fill="#f0ebe0" stroke="#2d263c" stroke-width="7" stroke-linejoin="round"/>
  <!-- たてがみのふわふわ突起いくつか -->
  <path d="M128 175 Q118 155 125 145 Q132 150 135 168Z" fill="#f0ebe0" stroke="#2d263c" stroke-width="6" stroke-linejoin="round"/>
  <path d="M225 178 Q237 158 230 148 Q222 153 220 170Z" fill="#f0ebe0" stroke="#2d263c" stroke-width="6" stroke-linejoin="round"/>
  <path d="M140 158 Q132 138 140 128 Q148 133 148 152Z" fill="#f0ebe0" stroke="#2d263c" stroke-width="5" stroke-linejoin="round"/>
  <path d="M215 162 Q224 143 216 133 Q208 138 208 156Z" fill="#f0ebe0" stroke="#2d263c" stroke-width="5" stroke-linejoin="round"/>

  <!-- 頭部 -->
  <ellipse cx="175" cy="148" rx="50" ry="45" fill="#9a2030" stroke="#2d263c" stroke-width="8" stroke-linejoin="round"/>

  <!-- 耳 (左・後ろ向き倒れ気味) -->
  <path d="M145 118 Q130 90 138 72 Q148 78 152 100 Q154 112 148 118Z" fill="#8a1a2a" stroke="#2d263c" stroke-width="7" stroke-linejoin="round"/>
  <path d="M145 116 Q133 96 139 82 Q145 86 147 104 Q148 112 145 116Z" fill="#f0ebe0"/>

  <!-- 耳 (右) -->
  <path d="M205 115 Q222 88 215 70 Q204 76 202 98 Q200 110 205 115Z" fill="#8a1a2a" stroke="#2d263c" stroke-width="7" stroke-linejoin="round"/>
  <path d="M204 113 Q218 92 213 80 Q205 84 204 102 Q203 110 204 113Z" fill="#f0ebe0"/>

  <!-- 頭の岩(左角) -->
  <path d="M148 108 Q138 88 142 75 Q152 72 158 90 Q162 104 155 110Z" fill="#5a5560" stroke="#2d263c" stroke-width="7" stroke-linejoin="round"/>
  <path d="M150 95 Q146 84 150 79 Q156 81 157 92Z" fill="#7a7888"/>
  <!-- 頭の岩(右角) -->
  <path d="M202 106 Q212 86 208 73 Q198 70 194 88 Q190 102 196 108Z" fill="#5a5560" stroke="#2d263c" stroke-width="7" stroke-linejoin="round"/>
  <path d="M200 93 Q204 82 200 77 Q194 79 193 90Z" fill="#7a7888"/>

  <!-- 目 (右・つり上がった細い目) -->
  <path d="M193 143 Q202 138 208 141 Q206 150 198 152 Q191 151 190 147 Z" fill="#ff3a10" stroke="#2d263c" stroke-width="5" stroke-linejoin="round"/>
  <ellipse cx="199" cy="146" rx="5" ry="4" fill="#1a0808"/>
  <!-- まつ毛 右 -->
  <line x1="193" y1="143" x2="188" y2="138" stroke="#f0ebe0" stroke-width="4" stroke-linecap="round"/>
  <line x1="197" y1="140" x2="194" y2="134" stroke="#f0ebe0" stroke-width="3" stroke-linecap="round"/>

  <!-- 目 (左・つり上がった細い目) -->
  <path d="M155 144 Q147 139 142 142 Q143 151 151 153 Q158 152 158 148 Z" fill="#ff3a10" stroke="#2d263c" stroke-width="5" stroke-linejoin="round"/>
  <ellipse cx="150" cy="147" rx="5" ry="4" fill="#1a0808"/>
  <!-- まつ毛 左 -->
  <line x1="155" y1="144" x2="160" y2="139" stroke="#f0ebe0" stroke-width="4" stroke-linecap="round"/>
  <line x1="151" y1="141" x2="153" y2="135" stroke="#f0ebe0" stroke-width="3" stroke-linecap="round"/>

  <!-- 鼻 -->
  <ellipse cx="175" cy="158" rx="7" ry="5" fill="#3a1020" stroke="#2d263c" stroke-width="4"/>

  <!-- 口 (ニヤリ笑い) -->
  <path d="M158 165 Q168 175 176 172 Q184 175 192 165" fill="none" stroke="#2d263c" stroke-width="6" stroke-linecap="round"/>
  <!-- 牙 -->
  <path d="M165 167 L163 178 L168 167Z" fill="#f5f0e8" stroke="#2d263c" stroke-width="3" stroke-linejoin="round"/>
  <path d="M185 167 L187 178 L182 167Z" fill="#f5f0e8" stroke="#2d263c" stroke-width="3" stroke-linejoin="round"/>
</svg>