<svg xmlns="http://www.w3.org/2000/svg" viewBox="0 0 360 360">
  <!-- 尻尾 (後ろ) -->
  <path d="M 230 230 Q 270 200 290 220 Q 310 240 300 260 Q 285 280 265 265 Q 250 255 240 245 Z" fill="#6B1212" stroke="#2d263c" stroke-width="6" stroke-linejoin="round"/>
  <!-- 尻尾先端岩トゲ -->
  <polygon points="295,215 310,205 318,225 305,232" fill="#7A7A7A" stroke="#2d263c" stroke-width="5" stroke-linejoin="round"/>
  <polygon points="305,230 320,225 322,248 308,245" fill="#8A8A8A" stroke="#2d263c" stroke-width="5" stroke-linejoin="round"/>

  <!-- 後ろ足(左) -->
  <path d="M 170 270 Q 155 290 145 315 L 160 318 Q 170 300 180 285 Z" fill="#8B1A1A" stroke="#2d263c" stroke-width="7" stroke-linejoin="round" stroke-linecap="round"/>
  <path d="M 145 315 Q 138 325 148 330 L 170 328 Q 175 320 160 318 Z" fill="#C4A882" stroke="#2d263c" stroke-width="6" stroke-linejoin="round"/>

  <!-- 後ろ足(右) -->
  <path d="M 200 268 Q 215 288 225 312 L 210 316 Q 200 298 190 280 Z" fill="#8B1A1A" stroke="#2d263c" stroke-width="7" stroke-linejoin="round" stroke-linecap="round"/>
  <path d="M 225 312 Q 232 322 222 328 L 200 326 Q 195 318 210 316 Z" fill="#C4A882" stroke="#2d263c" stroke-width="6" stroke-linejoin="round"/>

  <!-- 胴体メイン -->
  <path d="M 130 180 Q 125 220 135 260 Q 150 285 185 285 Q 220 285 235 265 Q 248 245 242 210 Q 238 180 225 160 Q 210 140 185 138 Q 158 138 143 155 Z" fill="#A52020" stroke="#2d263c" stroke-width="8" stroke-linejoin="round"/>

  <!-- 腹(クリーム色) -->
  <path d="M 155 195 Q 148 230 155 265 Q 165 280 185 280 Q 205 280 215 265 Q 222 242 218 205 Q 212 185 185 182 Q 165 182 155 195 Z" fill="#D4C5A9" stroke="#2d263c" stroke-width="5" stroke-linejoin="round"/>

  <!-- 左腕(前に突き出し) -->
  <path d="M 138 175 Q 108 185 80 195 Q 68 200 72 215 Q 85 215 95 208 Q 115 200 140 195 Z" fill="#8B1A1A" stroke="#2d263c" stroke-width="7" stroke-linejoin="round" stroke-linecap="round"/>
  <!-- 左爪 -->
  <path d="M 72 215 Q 58 218 55 230 Q 62 238 72 228 Z" fill="#2d263c" stroke="#2d263c" stroke-width="4" stroke-linejoin="round"/>
  <path d="M 68 213 Q 54 210 50 222 Q 57 232 68 222 Z" fill="#2d263c" stroke="#2d263c" stroke-width="4" stroke-linejoin="round"/>
  <path d="M 65 208 Q 52 202 50 214 Q 57 222 67 215 Z" fill="#2d263c" stroke="#2d263c" stroke-width="4" stroke-linejoin="round"/>
  <!-- 左肘岩トゲ -->
  <polygon points="100,188 108,178 116,192 108,200" fill="#7A7A7A" stroke="#2d263c" stroke-width="5" stroke-linejoin="round"/>

  <!-- 右腕(斜め前方へ) -->
  <path d="M 235 175 Q 265 183 290 192 Q 302 196 300 212 Q 288 212 278 205 Q 258 196 238 192 Z" fill="#8B1A1A" stroke="#2d263c" stroke-width="7" stroke-linejoin="round" stroke-linecap="round"/>
  <!-- 右爪 -->
  <path d="M 300 212 Q 313 215 316 227 Q 309 235 299 225 Z" fill="#2d263c" stroke="#2d263c" stroke-width="4" stroke-linejoin="round"/>
  <path d="M 303 208 Q 316 205 319 217 Q 312 226 302 218 Z" fill="#2d263c" stroke="#2d263c" stroke-width="4" stroke-linejoin="round"/>
  <path d="M 304 203 Q 317 197 318 210 Q 311 217 302 210 Z" fill="#2d263c" stroke="#2d263c" stroke-width="4" stroke-linejoin="round"/>
  <!-- 右肘岩トゲ -->
  <polygon points="268,184 276,174 283,188 276,196" fill="#7A7A7A" stroke="#2d263c" stroke-width="5" stroke-linejoin="round"/>

  <!-- 首 -->
  <path d="M 155 155 Q 150 138 158 120 Q 170 105 185 103 Q 200 103 210 118 Q 218 135 215 155 Z" fill="#8B1A1A" stroke="#2d263c" stroke-width="7" stroke-linejoin="round"/>

  <!-- 首の岩トゲ群 -->
  <polygon points="155,148 145,132 160,128 165,145" fill="#696969" stroke="#2d263c" stroke-width="5" stroke-linejoin="round"/>
  <polygon points="148,158 135,145 148,140 158,155" fill="#7A7A7A" stroke="#2d263c" stroke-width="5" stroke-linejoin="round"/>
  <polygon points="215,145 225,130 212,126 208,143" fill="#696969" stroke="#2d263c" stroke-width="5" stroke-linejoin="round"/>
  <polygon points="220,157 233,143 220,139 212,154" fill="#7A7A7A" stroke="#2d263c" stroke-width="5" stroke-linejoin="round"/>
  <polygon points="170,108 163,93 175,90 180,107" fill="#5A5A5A" stroke="#2d263c" stroke-width="5" stroke-linejoin="round"/>
  <polygon points="198,106 205,91 193,90 188,107" fill="#6A6A6A" stroke="#2d263c" stroke-width="5" stroke-linejoin="round"/>

  <!-- 頭部 -->
  <path d="M 148 105 Q 145 75 160 60 Q 172 48 185 47 Q 200 48 212 60 Q 226 75 222 105 Q 215 120 185 122 Q 158 122 148 105 Z" fill="#A52020" stroke="#2d263c" stroke-width="8" stroke-linejoin="round"/>

  <!-- 逆立つたてがみ(頭頂・後方) -->
  <polygon points="185,48 170,25 180,45" fill="#E8E0D0" stroke="#2d263c" stroke-width="5" stroke-linejoin="round"/>
  <polygon points="185,48 158,28 172,47" fill="#D8D0C0" stroke="#2d263c" stroke-width="5" stroke-linejoin="round"/>
  <polygon points="185,48 210,28 198,47" fill="#D8D0C0" stroke="#2d263c" stroke-width="5" stroke-linejoin="round"/>
  <polygon points="185,48 225,32 213,49" fill="#C8C0B0" stroke="#2d263c" stroke-width="5" stroke-linejoin="round"/>
  <polygon points="185,48 145,35 160,50" fill="#C8C0B0" stroke="#2d263c" stroke-width="5" stroke-linejoin="round"/>
  <!-- 耳部の逆立ちたてがみ -->
  <polygon points="155,70 135,50 148,72" fill="#B8B0A0" stroke="#2d263c" stroke-width="5" stroke-linejoin="round"/>
  <polygon points="215,70 235,50 222,72" fill="#B8B0A0" stroke="#2d263c" stroke-width="5" stroke-linejoin="round"/>

  <!-- マズル(長い) -->
  <path d="M 162 100 Q 158 108 160 118 Q 162 128 175 132 Q 185 134 195 132 Q 208 128 210 118 Q 212 108 208 100 Q 200 95 185 95 Q 170 95 162 100 Z" fill="#D4C5A9" stroke="#2d263c" stroke-width="6" stroke-linejoin="round"/>

  <!-- 鼻 -->
  <ellipse cx="185" cy="100" rx="8" ry="5" fill="#2d263c"/>

  <!-- 牙(左) -->
  <path d="M 168 128 Q 164 138 162 148 Q 168 150 172 140 Q 174 132 172 128 Z" fill="#F0EAD6" stroke="#2d263c" stroke-width="4" stroke-linejoin="round"/>
  <!-- 牙(右) -->
  <path d="M 202 128 Q 206 138 208 148 Q 202 150 198 140 Q 196 132 198 128 Z" fill="#F0EAD6" stroke="#2d263c" stroke-width="4" stroke-linejoin="round"/>

  <!-- 目(赤・つり目・左) -->
  <path d="M 158 88 Q 162 80 172 82 Q 178 84 176 92 Q 170 96 162 94 Z" fill="#CC0000" stroke="#2d263c" stroke-width="4" stroke-linejoin="round"/>
  <ellipse cx="167" cy="88" rx="4" ry="5" fill="#1A0000"/>
  <!-- 目のハイライト -->
  <circle cx="165" cy="86" r="1.5" fill="#FF4444"/>
  <!-- つり目ライン(左) -->
  <path d="M 158 84 Q 165 78 176 82" fill="none" stroke="#2d263c" stroke-width="3" stroke-linecap="round"/>

  <!-- 目(赤・つり目・右) -->
  <path d="M 202 88 Q 198 80 188 82 Q 182 84 184 92 Q 190 96 198 94 Z" fill="#CC0000" stroke="#2d263c" stroke-width="4" stroke-linejoin="round"/>
  <ellipse cx="193" cy="88" rx="4" ry="5" fill="#1A0000"/>
  <!-- 目のハイライト -->
  <circle cx="195" cy="86" r="1.5" fill="#FF4444"/>
  <!-- つり目ライン(右) -->
  <path d="M 202 84 Q 195 78 184 82" fill="none" stroke="#2d263c" stroke-width="3" stroke-linecap="round"/>

  <!-- 眉(凶暴・ハの字) -->
  <path d="M 158 82 Q 163 76 172 79" fill="none" stroke="#2d263c" stroke-width="5" stroke-linecap="round"/>
  <path d="M 202 82 Q 197 76 188 79" fill="none" stroke="#2d263c" stroke-width="5" stroke-linecap="round"/>

  <!-- 口(剥き出し牙・不気味な笑み) -->
  <path d="M 168 122 Q 185 130 202 122" fill="none" stroke="#2d263c" stroke-width="4" stroke-linecap="round"/>
</svg>