<svg xmlns="http://www.w3.org/2000/svg" viewBox="0 0 360 360">
  <!-- しっぽ(体の後ろ) -->
  <path d="M 250 220 Q 300 180 292 130" fill="none" stroke="#2d263c" stroke-width="9" stroke-linecap="round"/>
  <circle cx="288" cy="112" r="26" fill="#6fb3e8" stroke="#2d263c" stroke-width="8"/>
  <circle cx="279" cy="102" r="8" fill="#eaf6ff"/>

  <!-- あし(後ろ) -->
  <ellipse cx="150" cy="298" rx="26" ry="20" fill="#4f9ad9" stroke="#2d263c" stroke-width="7"/>
  <ellipse cx="218" cy="298" rx="26" ry="20" fill="#4f9ad9" stroke="#2d263c" stroke-width="7"/>

  <!-- 耳(体より奥) -->
  <ellipse cx="118" cy="130" rx="24" ry="55" fill="#3d7fc9" stroke="#2d263c" stroke-width="8" transform="rotate(-18 118 130)"/>
  <ellipse cx="252" cy="130" rx="24" ry="55" fill="#3d7fc9" stroke="#2d263c" stroke-width="8" transform="rotate(18 252 130)"/>

  <!-- うで -->
  <ellipse cx="98" cy="230" rx="22" ry="26" fill="#5aa6e0" stroke="#2d263c" stroke-width="7"/>
  <ellipse cx="270" cy="230" rx="22" ry="26" fill="#5aa6e0" stroke="#2d263c" stroke-width="7"/>

  <!-- 体(メイン) -->
  <ellipse cx="185" cy="210" rx="98" ry="92" fill="#6fb3e8" stroke="#2d263c" stroke-width="9"/>

  <!-- おなか -->
  <ellipse cx="185" cy="248" rx="55" ry="45" fill="#fdf6e3" stroke="#2d263c" stroke-width="6"/>

  <!-- ほっぺ -->
  <circle cx="128" cy="196" r="16" fill="#ffb3c6" opacity="0.85"/>
  <circle cx="242" cy="196" r="16" fill="#ffb3c6" opacity="0.85"/>

  <!-- 目 -->
  <circle cx="152" cy="180" r="20" fill="#2d263c"/>
  <circle cx="218" cy="180" r="20" fill="#2d263c"/>
  <circle cx="146" cy="172" r="7" fill="#ffffff"/>
  <circle cx="212" cy="172" r="7" fill="#ffffff"/>

  <!-- 口 -->
  <path d="M 172 210 Q 185 220 198 210" fill="none" stroke="#2d263c" stroke-width="6" stroke-linecap="round"/>
</svg>
