<svg xmlns="http://www.w3.org/2000/svg" viewBox="0 0 360 360">
  <!-- 尻尾 -->
  <path d="M 210 230 Q 250 215 265 245 Q 255 265 235 260 Q 220 255 210 230 Z" fill="#4F8FCA" stroke="#2d263c" stroke-width="7" stroke-linejoin="round"/>

  <!-- 胴体 -->
  <ellipse cx="180" cy="220" rx="62" ry="72" fill="#4F8FCA" stroke="#2d263c" stroke-width="8" stroke-linejoin="round"/>

  <!-- 腹 クリーム -->
  <ellipse cx="177" cy="228" rx="36" ry="48" fill="#F5D08A" stroke="#2d263c" stroke-width="5" stroke-linejoin="round"/>

  <!-- 胸のXマーク -->
  <line x1="158" y1="198" x2="198" y2="228" stroke="#2d263c" stroke-width="7" stroke-linecap="round"/>
  <line x1="198" y1="198" x2="158" y2="228" stroke="#2d263c" stroke-width="7" stroke-linecap="round"/>

  <!-- 左腕 -->
  <path d="M 120 195 Q 95 200 88 228 Q 85 248 100 252 Q 115 256 122 238 Q 128 220 122 205 Z" fill="#4F8FCA" stroke="#2d263c" stroke-width="7" stroke-linejoin="round"/>
  <!-- 左手スパイク -->
  <path d="M 90 230 L 74 218 L 86 220 Z" fill="#2d263c" stroke="#2d263c" stroke-width="4" stroke-linejoin="round"/>

  <!-- 右腕 -->
  <path d="M 240 195 Q 265 200 272 228 Q 275 248 260 252 Q 245 256 238 238 Q 232 220 238 205 Z" fill="#4F8FCA" stroke="#2d263c" stroke-width="7" stroke-linejoin="round"/>
  <!-- 右手スパイク -->
  <path d="M 270 230 L 286 218 L 274 220 Z" fill="#2d263c" stroke="#2d263c" stroke-width="4" stroke-linejoin="round"/>

  <!-- 左脚 -->
  <path d="M 148 278 Q 138 295 132 315 Q 128 328 145 332 Q 158 334 162 318 Q 166 300 160 280 Z" fill="#4F8FCA" stroke="#2d263c" stroke-width="7" stroke-linejoin="round"/>
  <!-- 左足 -->
  <path d="M 133 322 Q 118 330 115 340 Q 125 346 155 338 Q 163 328 150 322 Z" fill="#2d263c" stroke="#2d263c" stroke-width="5" stroke-linejoin="round"/>

  <!-- 右脚 -->
  <path d="M 212 278 Q 222 295 228 315 Q 232 328 215 332 Q 202 334 198 318 Q 194 300 202 280 Z" fill="#4F8FCA" stroke="#2d263c" stroke-width="7" stroke-linejoin="round"/>
  <!-- 右足 -->
  <path d="M 227 322 Q 242 330 245 340 Q 235 346 205 338 Q 197 328 210 322 Z" fill="#2d263c" stroke="#2d263c" stroke-width="5" stroke-linejoin="round"/>

  <!-- 首 -->
  <path d="M 155 158 Q 155 178 148 188 L 212 188 Q 205 178 205 158 Z" fill="#4F8FCA" stroke="#2d263c" stroke-width="6" stroke-linejoin="round"/>

  <!-- 頭 -->
  <ellipse cx="180" cy="130" rx="58" ry="52" fill="#4F8FCA" stroke="#2d263c" stroke-width="8" stroke-linejoin="round"/>

  <!-- 頭の黒マスク(目まわり・頭頂部) -->
  <path d="M 135 108 Q 148 95 180 92 Q 212 95 225 108 Q 218 125 205 128 Q 192 122 180 122 Q 168 122 155 128 Q 142 125 135 108 Z" fill="#2d263c"/>

  <!-- 顔 クリーム(マズルまわり) -->
  <ellipse cx="180" cy="148" rx="42" ry="30" fill="#F5D08A" stroke="#2d263c" stroke-width="6" stroke-linejoin="round"/>

  <!-- 耳(左) -->
  <path d="M 148 90 Q 132 52 138 28 Q 148 10 158 28 Q 168 48 162 90 Z" fill="#2d263c" stroke="#2d263c" stroke-width="6" stroke-linejoin="round"/>
  <!-- 耳内側(左) -->
  <path d="M 150 86 Q 140 60 143 40 Q 149 26 155 40 Q 161 58 158 86 Z" fill="#4F8FCA"/>

  <!-- 耳(右) -->
  <path d="M 212 90 Q 228 52 222 28 Q 212 10 202 28 Q 192 48 198 90 Z" fill="#2d263c" stroke="#2d263c" stroke-width="6" stroke-linejoin="round"/>
  <!-- 耳内側(右) -->
  <path d="M 210 86 Q 220 60 217 40 Q 211 26 205 40 Q 199 58 202 86 Z" fill="#4F8FCA"/>

  <!-- 頭部スパイク左 -->
  <path d="M 145 118 Q 118 108 108 88 Q 122 85 138 100 Q 148 112 148 118 Z" fill="#2d263c" stroke="#2d263c" stroke-width="5" stroke-linejoin="round"/>

  <!-- 頭部スパイク右 -->
  <path d="M 215 118 Q 242 108 252 88 Q 238 85 222 100 Q 212 112 212 118 Z" fill="#2d263c" stroke="#2d263c" stroke-width="5" stroke-linejoin="round"/>

  <!-- マズル -->
  <path d="M 160 148 Q 180 138 200 148 Q 210 158 206 170 Q 198 178 180 180 Q 162 178 154 170 Q 150 158 160 148 Z" fill="#D4A85A" stroke="#2d263c" stroke-width="5" stroke-linejoin="round"/>

  <!-- 鼻 -->
  <ellipse cx="180" cy="150" rx="7" ry="5" fill="#2d263c"/>

  <!-- 目(左) 赤 -->
  <ellipse cx="157" cy="118" rx="11" ry="9" fill="#CC2222" stroke="#2d263c" stroke-width="4"/>
  <ellipse cx="155" cy="116" rx="4" ry="3" fill="#FF6666"/>

  <!-- 目(右) 赤 -->
  <ellipse cx="203" cy="118" rx="11" ry="9" fill="#CC2222" stroke="#2d263c" stroke-width="4"/>
  <ellipse cx="201" cy="116" rx="4" ry="3" fill="#FF6666"/>

  <!-- ひげ的センサー(左) -->
  <line x1="152" y1="162" x2="120" y2="155" stroke="#2d263c" stroke-width="5" stroke-linecap="round"/>
  <line x1="152" y1="168" x2="118" y2="168" stroke="#2d263c" stroke-width="5" stroke-linecap="round"/>

  <!-- ひげ的センサー(右) -->
  <line x1="208" y1="162" x2="240" y2="155" stroke="#2d263c" stroke-width="5" stroke-linecap="round"/>
  <line x1="208" y1="168" x2="242" y2="168" stroke="#2d263c" stroke-width="5" stroke-linecap="round"/>

  <!-- 胸のアウラ球(アクセント) -->
  <circle cx="180" cy="213" r="10" fill="none" stroke="#7AC7F0" stroke-width="4" stroke-dasharray="4 3"/>
</svg>