<svg xmlns="http://www.w3.org/2000/svg" viewBox="0 0 360 360">
  <!-- しっぽ(後ろ) -->
  <path d="M240 260 Q290 230 310 200 Q325 175 305 165 Q285 158 270 178 Q255 200 245 225 Z" fill="#c8a87a" stroke="#2d263c" stroke-width="7" stroke-linejoin="round" stroke-linecap="round"/>
  <!-- しっぽ先端の岩 -->
  <ellipse cx="310" cy="170" rx="18" ry="13" fill="#7a6a5a" stroke="#2d263c" stroke-width="6" stroke-linejoin="round"/>
  <polygon points="300,158 318,155 328,168 315,178 298,174" fill="#6a5a4a" stroke="#2d263c" stroke-width="5" stroke-linejoin="round"/>

  <!-- 後ろ足(左) -->
  <path d="M165 285 Q155 310 148 330 Q155 335 165 332 Q172 318 178 300 Z" fill="#e8d8b0" stroke="#2d263c" stroke-width="7" stroke-linejoin="round" stroke-linecap="round"/>
  <ellipse cx="158" cy="333" rx="14" ry="7" fill="#c8a87a" stroke="#2d263c" stroke-width="5"/>
  <!-- 後ろ足(右) -->
  <path d="M205 285 Q215 310 220 330 Q212 337 202 333 Q196 318 192 300 Z" fill="#e8d8b0" stroke="#2d263c" stroke-width="7" stroke-linejoin="round" stroke-linecap="round"/>
  <ellipse cx="212" cy="334" rx="14" ry="7" fill="#c8a87a" stroke="#2d263c" stroke-width="5"/>

  <!-- 胴体 -->
  <ellipse cx="190" cy="265" rx="65" ry="52" fill="#f0e8cc" stroke="#2d263c" stroke-width="8" stroke-linejoin="round"/>
  <!-- お腹(白っぽい) -->
  <ellipse cx="188" cy="272" rx="38" ry="32" fill="#faf5e8" stroke="#2d263c" stroke-width="4"/>

  <!-- 前足(左) -->
  <path d="M145 280 Q130 298 126 318 Q133 325 142 322 Q148 306 155 290 Z" fill="#e8d8b0" stroke="#2d263c" stroke-width="7" stroke-linejoin="round" stroke-linecap="round"/>
  <ellipse cx="136" cy="322" rx="13" ry="7" fill="#c8a87a" stroke="#2d263c" stroke-width="5"/>
  <!-- 前足(右) -->
  <path d="M232 280 Q248 298 252 318 Q245 326 235 322 Q230 307 222 292 Z" fill="#e8d8b0" stroke="#2d263c" stroke-width="7" stroke-linejoin="round" stroke-linecap="round"/>
  <ellipse cx="244" cy="322" rx="13" ry="7" fill="#c8a87a" stroke="#2d263c" stroke-width="5"/>

  <!-- たてがみ(岩トゲ) -->
  <polygon points="148,215 135,195 145,185 158,200" fill="#8a7560" stroke="#2d263c" stroke-width="6" stroke-linejoin="round"/>
  <polygon points="162,205 147,180 160,170 172,192" fill="#9a8570" stroke="#2d263c" stroke-width="6" stroke-linejoin="round"/>
  <polygon points="178,200 168,170 183,163 190,192" fill="#8a7560" stroke="#2d263c" stroke-width="6" stroke-linejoin="round"/>
  <polygon points="196,200 192,168 207,165 210,194" fill="#9a8570" stroke="#2d263c" stroke-width="6" stroke-linejoin="round"/>
  <polygon points="213,208 215,178 228,180 225,208" fill="#8a7560" stroke="#2d263c" stroke-width="6" stroke-linejoin="round"/>
  <polygon points="228,218 235,192 246,198 238,222" fill="#9a8570" stroke="#2d263c" stroke-width="6" stroke-linejoin="round"/>

  <!-- 首 -->
  <rect x="168" y="210" width="44" height="38" rx="12" fill="#f0e8cc" stroke="#2d263c" stroke-width="7"/>

  <!-- 頭 -->
  <ellipse cx="190" cy="185" rx="55" ry="50" fill="#f0e8cc" stroke="#2d263c" stroke-width="8" stroke-linejoin="round"/>

  <!-- 耳(左) -->
  <polygon points="148,162 130,100 155,90 168,148" fill="#f0e8cc" stroke="#2d263c" stroke-width="7" stroke-linejoin="round"/>
  <polygon points="152,158 140,112 158,104 165,148" fill="#e87060" stroke="#2d263c" stroke-width="3"/>
  <!-- 耳の先のオレンジ -->
  <polygon points="133,103 142,88 152,96" fill="#d87848" stroke="#2d263c" stroke-width="4"/>

  <!-- 耳(右) -->
  <polygon points="232,162 250,100 225,90 212,148" fill="#f0e8cc" stroke="#2d263c" stroke-width="7" stroke-linejoin="round"/>
  <polygon points="228,158 240,112 222,104 215,148" fill="#e87060" stroke="#2d263c" stroke-width="3"/>
  <!-- 耳の先のオレンジ -->
  <polygon points="247,103 238,88 228,96" fill="#d87848" stroke="#2d263c" stroke-width="4"/>

  <!-- 顔の毛色(頬のオレンジ) -->
  <ellipse cx="152" cy="195" rx="18" ry="14" fill="#d89060" stroke="#2d263c" stroke-width="4"/>
  <ellipse cx="228" cy="195" rx="18" ry="14" fill="#d89060" stroke="#2d263c" stroke-width="4"/>

  <!-- 目(左) - 赤くてきりっと -->
  <ellipse cx="163" cy="182" rx="13" ry="11" fill="#cc2222" stroke="#2d263c" stroke-width="5"/>
  <ellipse cx="163" cy="182" rx="6" ry="7" fill="#1a0808" stroke="none"/>
  <circle cx="166" cy="179" r="3" fill="white"/>
  <!-- 目(右) -->
  <ellipse cx="217" cy="182" rx="13" ry="11" fill="#cc2222" stroke="#2d263c" stroke-width="5"/>
  <ellipse cx="217" cy="182" rx="6" ry="7" fill="#1a0808" stroke="none"/>
  <circle cx="220" cy="179" r="3" fill="white"/>

  <!-- まゆ(きりっと) -->
  <path d="M152,168 Q163,162 172,167" fill="none" stroke="#2d263c" stroke-width="5" stroke-linecap="round"/>
  <path d="M207,167 Q216,162 228,168" fill="none" stroke="#2d263c" stroke-width="5" stroke-linecap="round"/>

  <!-- 鼻 -->
  <ellipse cx="190" cy="200" rx="10" ry="7" fill="#2d263c"/>

  <!-- 口(やんちゃそうに少し開いてる) -->
  <path d="M178,210 Q190,222 202,210" fill="none" stroke="#2d263c" stroke-width="5" stroke-linecap="round"/>
  <path d="M184,213 Q190,219 196,213" fill="#e05050" stroke="none"/>

  <!-- ひげ(左) -->
  <line x1="148" y1="205" x2="118" y2="200" stroke="#2d263c" stroke-width="4" stroke-linecap="round"/>
  <line x1="150" y1="210" x2="119" y2="210" stroke="#2d263c" stroke-width="4" stroke-linecap="round"/>
  <!-- ひげ(右) -->
  <line x1="232" y1="205" x2="262" y2="200" stroke="#2d263c" stroke-width="4" stroke-linecap="round"/>
  <line x1="230" y1="210" x2="261" y2="210" stroke="#2d263c" stroke-width="4" stroke-linecap="round"/>
</svg>