<svg xmlns="http://www.w3.org/2000/svg" viewBox="0 0 360 360">
  <polygon points="160,60 190,60 175,26" fill="#a89bbe" stroke="#2d263c" stroke-width="7" stroke-linejoin="round"/>
  <polygon points="160,302 190,302 175,334" fill="#a89bbe" stroke="#2d263c" stroke-width="7" stroke-linejoin="round"/>
  <polygon points="53,163 53,197 22,180" fill="#a89bbe" stroke="#2d263c" stroke-width="7" stroke-linejoin="round"/>
  <polygon points="98,80 78,100 69,70" fill="#a89bbe" stroke="#2d263c" stroke-width="7" stroke-linejoin="round"/>
  <polygon points="98,280 78,260 69,290" fill="#a89bbe" stroke="#2d263c" stroke-width="7" stroke-linejoin="round"/>
  <path d="M175,55 A125,125 0 1,0 175,305 A125,125 0 1,0 175,55 Z M230,87 A88,88 0 1,1 230,263 A88,88 0 1,1 230,87 Z" fill="#a89bbe" fill-rule="evenodd" stroke="#2d263c" stroke-width="8" stroke-linejoin="round" stroke-linecap="round"/>
  <circle cx="78" cy="178" r="16" fill="#e2202b" stroke="#2d263c" stroke-width="6"/>
  <circle cx="118" cy="178" r="16" fill="#e2202b" stroke="#2d263c" stroke-width="6"/>
  <circle cx="82" cy="182" r="7" fill="#1a1a1a"/>
  <circle cx="122" cy="182" r="7" fill="#1a1a1a"/>
  <circle cx="73" cy="172" r="3" fill="#ffffff"/>
  <circle cx="113" cy="172" r="3" fill="#ffffff"/>
  <path d="M 80 206 Q 98 216 116 206" stroke="#2d263c" stroke-width="6" fill="none" stroke-linecap="round"/>
</svg>
