<svg xmlns="http://www.w3.org/2000/svg" viewBox="0 0 360 360">
  <ellipse cx="180" cy="325" rx="95" ry="14" fill="#2d263c" opacity="0.15"/>
  <rect x="118" y="268" width="46" height="52" rx="12" fill="#dff6fa" stroke="#2d263c" stroke-width="7" stroke-linejoin="round"/>
  <rect x="196" y="268" width="46" height="52" rx="12" fill="#dff6fa" stroke="#2d263c" stroke-width="7" stroke-linejoin="round"/>
  <rect x="53" y="138" width="52" height="102" rx="20" fill="#dff6fa" stroke="#2d263c" stroke-width="7" stroke-linejoin="round"/>
  <rect x="255" y="138" width="52" height="102" rx="20" fill="#dff6fa" stroke="#2d263c" stroke-width="7" stroke-linejoin="round"/>
  <rect x="104" y="86" width="152" height="198" rx="28" fill="#dff6fa" stroke="#2d263c" stroke-width="8" stroke-linejoin="round"/>
  <polygon points="112,92 128,42 150,86 172,32 190,86 214,42 232,90" fill="#f2fdff" stroke="#2d263c" stroke-width="7" stroke-linejoin="round"/>
  <path d="M122,110 L150,120 L132,144" fill="none" stroke="#2d263c" stroke-width="5" stroke-linecap="round" stroke-linejoin="round"/>
  <path d="M238,112 L212,122 L230,146" fill="none" stroke="#2d263c" stroke-width="5" stroke-linecap="round" stroke-linejoin="round"/>
  <circle cx="150" cy="152" r="15" fill="#e6484f" stroke="#2d263c" stroke-width="6"/>
  <circle cx="210" cy="152" r="15" fill="#e6484f" stroke="#2d263c" stroke-width="6"/>
  <rect x="141" y="192" width="20" height="20" rx="4" fill="#7fd0e0" stroke="#2d263c" stroke-width="6" stroke-linejoin="round"/>
  <rect x="199" y="192" width="20" height="20" rx="4" fill="#7fd0e0" stroke="#2d263c" stroke-width="6" stroke-linejoin="round"/>
  <rect x="141" y="220" width="20" height="20" rx="4" fill="#7fd0e0" stroke="#2d263c" stroke-width="6" stroke-linejoin="round"/>
  <rect x="199" y="220" width="20" height="20" rx="4" fill="#7fd0e0" stroke="#2d263c" stroke-width="6" stroke-linejoin="round"/>
  <rect x="141" y="248" width="20" height="20" rx="4" fill="#7fd0e0" stroke="#2d263c" stroke-width="6" stroke-linejoin="round"/>
  <rect x="199" y="248" width="20" height="20" rx="4" fill="#7fd0e0" stroke="#2d263c" stroke-width="6" stroke-linejoin="round"/>
</svg>
