<svg xmlns="http://www.w3.org/2000/svg" viewBox="0 0 360 360">
  <g stroke="#2d263c" stroke-width="7" stroke-linejoin="round" stroke-linecap="round">
    <path d="M90,150 C60,150 44,176 56,200 C72,186 88,180 100,180" fill="#a8466e"/>
    <path d="M270,150 C300,150 316,176 304,200 C288,186 272,180 260,180" fill="#a8466e"/>
    <path d="M148,68 L158,44 L168,68" fill="#a8466e"/>
    <path d="M180,62 L188,38 L196,62" fill="#a8466e"/>
    <path d="M205,68 L213,48 L221,68" fill="#a8466e"/>
    <path d="M180,60 C252,60 282,120 282,200 C282,260 252,296 180,296 C108,296 78,260 78,200 C78,120 108,60 180,60 Z" fill="#c45a8a"/>
    <path d="M180,202 C236,202 262,226 256,262 C240,280 210,286 180,286 C150,286 120,280 104,262 C98,226 124,202 180,202 Z" fill="#3a2030"/>
  </g>
  <path d="M130,212 L138,240 L146,212" fill="#ece8df" stroke="#2d263c" stroke-width="6" stroke-linejoin="round"/>
  <path d="M214,212 L222,240 L230,212" fill="#ece8df" stroke="#2d263c" stroke-width="6" stroke-linejoin="round"/>
  <g fill="#2d263c">
    <circle cx="130" cy="140" r="9"/>
    <circle cx="230" cy="140" r="9"/>
    <circle cx="130" cy="165" r="9"/>
    <circle cx="230" cy="165" r="9"/>
    <circle cx="130" cy="190" r="9"/>
    <circle cx="230" cy="190" r="9"/>
    <circle cx="180" cy="165" r="9"/>
  </g>
</svg>
