<svg xmlns="http://www.w3.org/2000/svg" viewBox="0 0 360 360">
  <path d="M155,150 Q100,110 88,70 Q120,120 135,190 Q148,175 155,150 Z" fill="#6B3A3A" stroke="#2d263c" stroke-width="7" stroke-linejoin="round"/>
  <path d="M205,150 Q260,110 272,70 Q240,120 225,190 Q212,175 205,150 Z" fill="#6B3A3A" stroke="#2d263c" stroke-width="7" stroke-linejoin="round"/>
  <polygon points="0,-20 4.7,-6.47 19.02,-6.18 7.61,2.47 11.76,16.18 0,8 -11.76,16.18 -7.61,2.47 -19.02,-6.18 -4.7,-6.47" transform="translate(115,120) scale(0.55)" fill="#E63946" stroke="#2d263c" stroke-width="6"/>
  <polygon points="0,-20 4.7,-6.47 19.02,-6.18 7.61,2.47 11.76,16.18 0,8 -11.76,16.18 -7.61,2.47 -19.02,-6.18 -4.7,-6.47" transform="translate(245,120) scale(0.55)" fill="#E63946" stroke="#2d263c" stroke-width="6"/>

  <path d="M150,270 L140,322" stroke="#2d263c" stroke-width="20" stroke-linecap="round" fill="none"/>
  <path d="M210,270 L220,322" stroke="#2d263c" stroke-width="20" stroke-linecap="round" fill="none"/>
  <polygon points="0,-20 4.7,-6.47 19.02,-6.18 7.61,2.47 11.76,16.18 0,8 -11.76,16.18 -7.61,2.47 -19.02,-6.18 -4.7,-6.47" transform="translate(140,330) scale(0.55)" fill="#2d263c" stroke="#2d263c" stroke-width="6"/>
  <polygon points="0,-20 4.7,-6.47 19.02,-6.18 7.61,2.47 11.76,16.18 0,8 -11.76,16.18 -7.61,2.47 -19.02,-6.18 -4.7,-6.47" transform="translate(220,330) scale(0.55)" fill="#2d263c" stroke="#2d263c" stroke-width="6"/>

  <path d="M95,200 L55,236" stroke="#2d263c" stroke-width="18" stroke-linecap="round" fill="none"/>
  <path d="M265,200 L305,236" stroke="#2d263c" stroke-width="18" stroke-linecap="round" fill="none"/>
  <polygon points="0,-20 4.7,-6.47 19.02,-6.18 7.61,2.47 11.76,16.18 0,8 -11.76,16.18 -7.61,2.47 -19.02,-6.18 -4.7,-6.47" transform="translate(55,240) scale(0.5)" fill="#2d263c" stroke="#2d263c" stroke-width="6"/>
  <polygon points="0,-20 4.7,-6.47 19.02,-6.18 7.61,2.47 11.76,16.18 0,8 -11.76,16.18 -7.61,2.47 -19.02,-6.18 -4.7,-6.47" transform="translate(305,240) scale(0.5)" fill="#2d263c" stroke="#2d263c" stroke-width="6"/>

  <ellipse cx="180" cy="200" rx="95" ry="88" fill="#5FBF4F" stroke="#2d263c" stroke-width="8"/>
  <ellipse cx="180" cy="224" rx="52" ry="46" fill="#EAF6C6" stroke="#2d263c" stroke-width="4"/>

  <circle cx="150" cy="252" r="8" fill="#2d263c"/>
  <circle cx="210" cy="252" r="8" fill="#2d263c"/>
  <circle cx="180" cy="266" r="7" fill="#2d263c"/>

  <path d="M158,130 Q132,100 118,66" stroke="#2d263c" stroke-width="7" fill="none" stroke-linecap="round"/>
  <path d="M202,130 Q228,100 242,66" stroke="#2d263c" stroke-width="7" fill="none" stroke-linecap="round"/>
  <polygon points="0,-20 4.7,-6.47 19.02,-6.18 7.61,2.47 11.76,16.18 0,8 -11.76,16.18 -7.61,2.47 -19.02,-6.18 -4.7,-6.47" transform="translate(118,60) scale(1)" fill="#E4572E" stroke="#2d263c" stroke-width="6"/>
  <polygon points="0,-20 4.7,-6.47 19.02,-6.18 7.61,2.47 11.76,16.18 0,8 -11.76,16.18 -7.61,2.47 -19.02,-6.18 -4.7,-6.47" transform="translate(242,60) scale(1)" fill="#E4572E" stroke="#2d263c" stroke-width="6"/>

  <circle cx="152" cy="180" r="27" fill="#FFFFFF" stroke="#2d263c" stroke-width="6"/>
  <circle cx="208" cy="180" r="27" fill="#FFFFFF" stroke="#2d263c" stroke-width="6"/>
  <circle cx="152" cy="184" r="18" fill="#D6262B"/>
  <circle cx="208" cy="184" r="18" fill="#D6262B"/>
  <circle cx="145" cy="174" r="6" fill="#FFFFFF"/>
  <circle cx="201" cy="174" r="6" fill="#FFFFFF"/>

  <path d="M165,222 Q180,232 195,222" stroke="#2d263c" stroke-width="6" fill="none" stroke-linecap="round"/>
</svg>
