<svg xmlns="http://www.w3.org/2000/svg" viewBox="0 0 360 360">
  <!-- 尻尾(後ろ) -->
  <path d="M270,240 Q310,210 320,170 Q330,140 310,120 Q300,108 290,118 Q305,135 298,160 Q288,190 265,215" fill="#1a2580" stroke="#2d263c" stroke-width="7" stroke-linejoin="round" stroke-linecap="round"/>
  <!-- 尻尾のふさふさ先端(星っぽく) -->
  <polygon points="312,108 318,120 330,116 320,126 326,138 312,130 300,138 306,126 296,116 308,120" fill="#f4d03f" stroke="#2d263c" stroke-width="5" stroke-linejoin="round"/>

  <!-- 後ろ足 左 -->
  <path d="M145,255 Q130,270 125,295 Q122,308 135,308" fill="#1a2580" stroke="#2d263c" stroke-width="7" stroke-linejoin="round" stroke-linecap="round"/>
  <!-- 後ろ足先 黄色い毛玉 左 -->
  <ellipse cx="133" cy="311" rx="18" ry="10" fill="#f4d03f" stroke="#2d263c" stroke-width="5" stroke-linejoin="round"/>

  <!-- 後ろ足 右 -->
  <path d="M215,255 Q228,272 232,295 Q234,308 222,308" fill="#1a2580" stroke="#2d263c" stroke-width="7" stroke-linejoin="round" stroke-linecap="round"/>
  <!-- 後ろ足先 黄色い毛玉 右 -->
  <ellipse cx="225" cy="311" rx="18" ry="10" fill="#f4d03f" stroke="#2d263c" stroke-width="5" stroke-linejoin="round"/>

  <!-- 体 (ちょっといびつな四角っぽいボディ) -->
  <path d="M110,180 Q105,145 118,125 Q138,100 180,98 Q222,96 242,122 Q258,145 255,185 Q252,225 235,255 Q215,278 180,280 Q145,280 128,255 Q112,230 110,180 Z" fill="#1e3a9e" stroke="#2d263c" stroke-width="8" stroke-linejoin="round"/>

  <!-- 腹の薄い色 -->
  <ellipse cx="180" cy="210" rx="42" ry="52" fill="#7b8fc7" stroke="#2d263c" stroke-width="5" stroke-linejoin="round"/>

  <!-- 体の縞模様(左) -->
  <path d="M130,155 Q118,165 122,178" fill="none" stroke="#0f1f6b" stroke-width="5" stroke-linecap="round"/>
  <path d="M127,175 Q115,185 119,198" fill="none" stroke="#0f1f6b" stroke-width="5" stroke-linecap="round"/>
  <!-- 体の縞模様(右) -->
  <path d="M230,155 Q242,165 238,178" fill="none" stroke="#0f1f6b" stroke-width="5" stroke-linecap="round"/>
  <path d="M233,175 Q245,185 241,198" fill="none" stroke="#0f1f6b" stroke-width="5" stroke-linecap="round"/>

  <!-- 前足 左 -->
  <path d="M128,235 Q112,248 108,272 Q106,285 118,286" fill="#1a2580" stroke="#2d263c" stroke-width="7" stroke-linejoin="round" stroke-linecap="round"/>
  <!-- 前足先 黄色い毛玉 左 -->
  <ellipse cx="115" cy="289" rx="16" ry="9" fill="#f4d03f" stroke="#2d263c" stroke-width="5" stroke-linejoin="round"/>

  <!-- 前足 右 -->
  <path d="M232,235 Q248,248 252,272 Q254,285 242,286" fill="#1a2580" stroke="#2d263c" stroke-width="7" stroke-linejoin="round" stroke-linecap="round"/>
  <!-- 前足先 黄色い毛玉 右 -->
  <ellipse cx="245" cy="289" rx="16" ry="9" fill="#f4d03f" stroke="#2d263c" stroke-width="5" stroke-linejoin="round"/>

  <!-- 頭 (大きくて四角っぽい) -->
  <path d="M130,100 Q128,60 155,42 Q168,32 180,30 Q195,30 205,42 Q228,60 230,100 Q232,120 180,125 Q128,120 130,100 Z" fill="#1e3a9e" stroke="#2d263c" stroke-width="8" stroke-linejoin="round"/>

  <!-- 耳 左 (三角・少し傾いてる) -->
  <polygon points="138,85 125,28 155,55" fill="#1e3a9e" stroke="#2d263c" stroke-width="7" stroke-linejoin="round"/>
  <!-- 耳リング 左(黄色) -->
  <ellipse cx="136" cy="47" rx="8" ry="5" fill="none" stroke="#f4d03f" stroke-width="5" transform="rotate(-20 136 47)"/>

  <!-- 耳 右 (三角・少し傾いてる・左右ゆるく非対称) -->
  <polygon points="222,82 238,25 208,52" fill="#1e3a9e" stroke="#2d263c" stroke-width="7" stroke-linejoin="round"/>
  <!-- 耳リング 右(黄色) -->
  <ellipse cx="225" cy="44" rx="8" ry="5" fill="none" stroke="#f4d03f" stroke-width="5" transform="rotate(20 225 44)"/>

  <!-- 額の星マーク -->
  <polygon points="180,42 184,54 197,54 187,62 191,74 180,66 169,74 173,62 163,54 176,54" fill="#f4d03f" stroke="#2d263c" stroke-width="3" stroke-linejoin="round"/>

  <!-- 目(周り赤い・鋭い) 左 -->
  <ellipse cx="158" cy="80" rx="14" ry="11" fill="#e53935" stroke="#2d263c" stroke-width="4"/>
  <ellipse cx="158" cy="82" rx="7" ry="7" fill="#b71c1c"/>
  <ellipse cx="155" cy="79" rx="3" ry="3" fill="#ffffff"/>
  <!-- 目つきを鋭く・まぶた左 -->
  <path d="M144,74 Q158,68 172,74" fill="none" stroke="#2d263c" stroke-width="4" stroke-linecap="round"/>

  <!-- 目(周り赤い・鋭い) 右 -->
  <ellipse cx="202" cy="80" rx="14" ry="11" fill="#e53935" stroke="#2d263c" stroke-width="4"/>
  <ellipse cx="202" cy="82" rx="7" ry="7" fill="#b71c1c"/>
  <ellipse cx="199" cy="79" rx="3" ry="3" fill="#ffffff"/>
  <!-- 目つきを鋭く・まぶた右 -->
  <path d="M188,74 Q202,68 216,74" fill="none" stroke="#2d263c" stroke-width="4" stroke-linecap="round"/>

  <!-- 鼻 -->
  <ellipse cx="180" cy="98" rx="6" ry="4" fill="#0f1f6b" stroke="#2d263c" stroke-width="3"/>

  <!-- 口(ちょっとニヤッとした口) -->
  <path d="M168,108 Q180,118 192,108" fill="none" stroke="#2d263c" stroke-width="4" stroke-linecap="round"/>

  <!-- ほっぺの電気マーク(小さい稲妻) 左 -->
  <path d="M143,96 L147,103 L143,103 L148,112" fill="none" stroke="#f4d03f" stroke-width="3" stroke-linecap="round" stroke-linejoin="round"/>
  <!-- ほっぺの電気マーク 右 -->
  <path d="M217,96 L213,103 L217,103 L212,112" fill="none" stroke="#f4d03f" stroke-width="3" stroke-linecap="round" stroke-linejoin="round"/>
</svg>