<svg xmlns="http://www.w3.org/2000/svg" viewBox="0 0 360 360">
  <ellipse cx="130" cy="175" rx="42" ry="60" fill="#fbe9a8" stroke="#2d263c" stroke-width="6" stroke-linejoin="round" transform="rotate(-18 130 175)"/>
  <ellipse cx="230" cy="175" rx="42" ry="60" fill="#fbe9a8" stroke="#2d263c" stroke-width="6" stroke-linejoin="round" transform="rotate(18 230 175)"/>

  <ellipse cx="128" cy="288" rx="20" ry="14" fill="#f6c944" stroke="#2d263c" stroke-width="7" stroke-linejoin="round" stroke-linecap="round"/>
  <ellipse cx="232" cy="288" rx="20" ry="14" fill="#f6c944" stroke="#2d263c" stroke-width="7" stroke-linejoin="round" stroke-linecap="round"/>
  <ellipse cx="150" cy="300" rx="18" ry="13" fill="#f6c944" stroke="#2d263c" stroke-width="7" stroke-linejoin="round" stroke-linecap="round"/>
  <ellipse cx="210" cy="300" rx="18" ry="13" fill="#f6c944" stroke="#2d263c" stroke-width="7" stroke-linejoin="round" stroke-linecap="round"/>

  <ellipse cx="180" cy="210" rx="98" ry="92" fill="#e34a2e" stroke="#2d263c" stroke-width="8" stroke-linejoin="round"/>

  <circle cx="180" cy="140" r="66" fill="#fbe9a8" stroke="#2d263c" stroke-width="8"/>

  <path d="M155 92 Q140 55 122 40" fill="none" stroke="#2d263c" stroke-width="6" stroke-linecap="round"/>
  <circle cx="120" cy="37" r="8" fill="#f6c944" stroke="#2d263c" stroke-width="5"/>
  <path d="M205 92 Q220 55 238 40" fill="none" stroke="#2d263c" stroke-width="6" stroke-linecap="round"/>
  <circle cx="240" cy="37" r="8" fill="#f6c944" stroke="#2d263c" stroke-width="5"/>

  <circle cx="152" cy="150" r="12" fill="#2d263c"/>
  <circle cx="208" cy="150" r="12" fill="#2d263c"/>
  <circle cx="150" cy="185" r="13" fill="#2d263c"/>
  <circle cx="210" cy="185" r="13" fill="#2d263c"/>
  <circle cx="180" cy="228" r="14" fill="#2d263c"/>

  <circle cx="150" cy="128" r="26" fill="#fff" stroke="#2d263c" stroke-width="6"/>
  <circle cx="210" cy="128" r="26" fill="#fff" stroke="#2d263c" stroke-width="6"/>
  <circle cx="154" cy="134" r="12" fill="#2d263c"/>
  <circle cx="214" cy="134" r="12" fill="#2d263c"/>
  <circle cx="158" cy="129" r="4" fill="#fff"/>
  <circle cx="218" cy="129" r="4" fill="#fff"/>

  <path d="M167 168 Q180 178 193 168" fill="none" stroke="#2d263c" stroke-width="6" stroke-linecap="round"/>
</svg>
