<svg xmlns="http://www.w3.org/2000/svg" viewBox="0 0 360 360">
  <line x1="110" y1="150" x2="180" y2="250" stroke="#3a3f4a" stroke-width="16" stroke-linecap="round"/>
  <line x1="250" y1="150" x2="180" y2="250" stroke="#3a3f4a" stroke-width="16" stroke-linecap="round"/>
  <line x1="110" y1="150" x2="250" y2="150" stroke="#3a3f4a" stroke-width="14" stroke-linecap="round"/>

  <circle cx="110" cy="150" r="50" fill="#b0b4bd" stroke="#2d263c" stroke-width="7"/>
  <rect x="65" y="137" width="90" height="26" rx="8" fill="#7d8290"/>
  <rect x="57" y="137" width="16" height="26" rx="4" fill="#d64545" stroke="#2d263c" stroke-width="4"/>
  <rect x="147" y="137" width="16" height="26" rx="4" fill="#3f6fd6" stroke="#2d263c" stroke-width="4"/>
  <circle cx="110" cy="110" r="6" fill="#6b6f7a" stroke="#2d263c" stroke-width="2"/>
  <circle cx="110" cy="142" r="9" fill="#1a1a1a"/>
  <circle cx="107" cy="139" r="3" fill="#ffffff"/>

  <circle cx="250" cy="150" r="50" fill="#b0b4bd" stroke="#2d263c" stroke-width="7"/>
  <rect x="205" y="137" width="90" height="26" rx="8" fill="#7d8290"/>
  <rect x="197" y="137" width="16" height="26" rx="4" fill="#d64545" stroke="#2d263c" stroke-width="4"/>
  <rect x="287" y="137" width="16" height="26" rx="4" fill="#3f6fd6" stroke="#2d263c" stroke-width="4"/>
  <circle cx="250" cy="110" r="6" fill="#6b6f7a" stroke="#2d263c" stroke-width="2"/>
  <circle cx="250" cy="142" r="9" fill="#1a1a1a"/>
  <circle cx="247" cy="139" r="3" fill="#ffffff"/>

  <circle cx="180" cy="250" r="58" fill="#b8bcc4" stroke="#2d263c" stroke-width="8"/>
  <rect x="128" y="235" width="104" height="30" rx="9" fill="#7d8290"/>
  <rect x="119" y="235" width="19" height="30" rx="5" fill="#d64545" stroke="#2d263c" stroke-width="4"/>
  <rect x="222" y="235" width="19" height="30" rx="5" fill="#3f6fd6" stroke="#2d263c" stroke-width="4"/>
  <circle cx="180" cy="206" r="7" fill="#6b6f7a" stroke="#2d263c" stroke-width="2"/>
  <circle cx="180" cy="240" r="12" fill="#1a1a1a"/>
  <circle cx="176" cy="236" r="4" fill="#ffffff"/>
</svg>
