<svg xmlns="http://www.w3.org/2000/svg" viewBox="0 0 360 360">
  <g id="back">
    <ellipse cx="180" cy="326" rx="95" ry="16" fill="#2d263c" opacity="0.15"/>
  </g>
  <g id="body" fill="#a89a7e" stroke="#2d263c" stroke-width="7" stroke-linejoin="round" stroke-linecap="round">
    <rect x="126" y="300" width="55" height="26" fill="#6b5f4a"/>
    <rect x="179" y="300" width="55" height="26" fill="#6b5f4a"/>
    <rect x="136" y="248" width="35" height="56" fill="#8a7c62"/>
    <rect x="189" y="248" width="35" height="56" fill="#8a7c62"/>
    <rect x="70" y="253" width="46" height="30" fill="#7d715a"/>
    <rect x="244" y="253" width="46" height="30" fill="#7d715a"/>
    <rect x="76" y="168" width="34" height="88" fill="#8a7c62"/>
    <rect x="250" y="168" width="34" height="88" fill="#8a7c62"/>
    <rect x="96" y="128" width="42" height="46" fill="#9c8e72"/>
    <rect x="222" y="128" width="42" height="46" fill="#9c8e72"/>
    <rect x="110" y="140" width="140" height="112" fill="#a89a7e"/>
    <rect x="118" y="150" width="26" height="22" fill="#8a7c62" stroke-width="6"/>
    <rect x="216" y="150" width="26" height="22" fill="#8a7c62" stroke-width="6"/>
    <polygon points="140,102 140,72 150,55 161,68 171,50 181,66 191,48 201,65 213,55 220,72 220,102"/>
    <polyline points="180,140 180,168" fill="none" stroke-width="6"/>
    <polyline points="140,196 250,190" fill="none" stroke-width="6"/>
    <polyline points="153,248 153,272" fill="none" stroke="#4a4438" stroke-width="6"/>
    <polyline points="206,248 206,272" fill="none" stroke="#4a4438" stroke-width="6"/>
    <polyline points="160,72 160,100" fill="none" stroke="#8a7c62" stroke-width="6"/>
    <polyline points="200,72 200,100" fill="none" stroke="#8a7c62" stroke-width="6"/>
  </g>
  <g id="face" stroke="#2d263c" stroke-width="7" stroke-linejoin="round" stroke-linecap="round">
    <rect x="153" y="86" width="54" height="24" rx="3" fill="#443f2e"/>
    <rect x="161" y="92" width="12" height="12" fill="#ff5533"/>
    <rect x="187" y="92" width="12" height="12" fill="#ff5533"/>
  </g>
</svg>
