<svg xmlns="http://www.w3.org/2000/svg" viewBox="0 0 360 360">
<g stroke="#2d263c" stroke-width="7" stroke-linejoin="round" stroke-linecap="round">
<path d="M100 222 Q100 110 180 110 Q260 110 260 222 Z" fill="#e8a040"/>
<path d="M180 110 L180 222" fill="none"/>
<path d="M140 132 Q134 178 146 220" fill="none"/>
<path d="M220 132 Q226 178 214 220" fill="none"/>
<circle cx="154" cy="168" r="8" fill="#3a6db5"/>
<circle cx="206" cy="168" r="8" fill="#3a6db5"/>
<circle cx="180" cy="148" r="7" fill="#3a6db5"/>
<path d="M125 222 L235 222 A15 15 0 0 1 250 237 A15 15 0 0 1 235 252 L125 252 A15 15 0 0 1 110 237 A15 15 0 0 1 125 222 Z" fill="#bfe6f5"/>
<circle cx="155" cy="237" r="6" fill="#2d263c"/>
<circle cx="205" cy="237" r="6" fill="#2d263c"/>
<path d="M120 252 L114 274 M136 254 L132 276" fill="none"/>
<path d="M240 252 L246 274 M224 254 L228 276" fill="none"/>
<circle cx="168" cy="114" r="5" fill="#3a6db5"/>
<circle cx="192" cy="114" r="5" fill="#3a6db5"/>
</g>
</svg>