<svg xmlns="http://www.w3.org/2000/svg" viewBox="0 0 360 360">
  <!-- あし・つちふまず (後ろ/した) -->
  <rect x="118" y="296" width="60" height="30" rx="12" fill="#9AA7AE" stroke="#2d263c" stroke-width="7" stroke-linejoin="round"/>
  <rect x="182" y="296" width="60" height="30" rx="12" fill="#9AA7AE" stroke="#2d263c" stroke-width="7" stroke-linejoin="round"/>

  <!-- あし (すね) -->
  <rect x="136" y="224" width="34" height="80" rx="14" fill="#D2DBDF" stroke="#2d263c" stroke-width="7" stroke-linejoin="round"/>
  <rect x="190" y="224" width="34" height="80" rx="14" fill="#D2DBDF" stroke="#2d263c" stroke-width="7" stroke-linejoin="round"/>

  <!-- どうたい -->
  <rect x="108" y="114" width="144" height="118" rx="24" fill="#D2DBDF" stroke="#2d263c" stroke-width="7" stroke-linejoin="round"/>

  <!-- かた -->
  <rect x="76" y="112" width="38" height="48" rx="16" fill="#BAC6CC" stroke="#2d263c" stroke-width="7" stroke-linejoin="round"/>
  <rect x="246" y="112" width="38" height="48" rx="16" fill="#BAC6CC" stroke="#2d263c" stroke-width="7" stroke-linejoin="round"/>

  <!-- うで -->
  <rect x="82" y="148" width="32" height="100" rx="16" fill="#D2DBDF" stroke="#2d263c" stroke-width="7" stroke-linejoin="round"/>
  <rect x="246" y="148" width="32" height="100" rx="16" fill="#D2DBDF" stroke="#2d263c" stroke-width="7" stroke-linejoin="round"/>

  <!-- て -->
  <circle cx="98" cy="258" r="20" fill="#9AA7AE" stroke="#2d263c" stroke-width="7"/>
  <circle cx="262" cy="258" r="20" fill="#9AA7AE" stroke="#2d263c" stroke-width="7"/>

  <!-- くび (えりわ) -->
  <rect x="120" y="99" width="120" height="20" rx="10" fill="#9AA7AE" stroke="#2d263c" stroke-width="7" stroke-linejoin="round"/>

  <!-- あたま -->
  <rect x="128" y="44" width="104" height="58" rx="26" fill="#DCE4E8" stroke="#2d263c" stroke-width="7" stroke-linejoin="round"/>

  <!-- むねのライン模様 -->
  <rect x="160" y="140" width="40" height="14" rx="4" fill="#9AA7AE" stroke="#2d263c" stroke-width="6" stroke-linejoin="round"/>
  <rect x="160" y="170" width="40" height="14" rx="4" fill="#9AA7AE" stroke="#2d263c" stroke-width="6" stroke-linejoin="round"/>
  <rect x="160" y="200" width="40" height="14" rx="4" fill="#9AA7AE" stroke="#2d263c" stroke-width="6" stroke-linejoin="round"/>

  <!-- かたの赤いもよう -->
  <polygon points="95,120 106,133 95,146 84,133" fill="#D9503E" stroke="#2d263c" stroke-width="6" stroke-linejoin="round"/>
  <polygon points="265,120 276,133 265,146 254,133" fill="#D9503E" stroke="#2d263c" stroke-width="6" stroke-linejoin="round"/>

  <!-- 目 (ピンク) -->
  <ellipse cx="155" cy="72" rx="11" ry="15" fill="#D9503E" stroke="#2d263c" stroke-width="6"/>
  <ellipse cx="205" cy="72" rx="11" ry="15" fill="#D9503E" stroke="#2d263c" stroke-width="6"/>
</svg>
