<svg xmlns="http://www.w3.org/2000/svg" viewBox="0 0 360 360">
  <g stroke="#2d263c" stroke-width="7" stroke-linejoin="round" stroke-linecap="round">
    <path d="M180,60 C252,60 272,140 272,222 C272,272 240,296 180,296 C120,296 88,272 88,222 C88,140 108,60 180,60 Z" fill="#f2d23e"/>
    <path d="M88,236 C120,256 240,256 272,236 C272,266 240,286 180,286 C120,286 88,266 88,236 Z" fill="#2a6478"/>
    <path d="M88,162 C66,150 50,166 56,188 C70,182 82,182 90,188" fill="#e8c432"/>
    <path d="M272,162 C294,150 310,166 304,188 C290,182 278,182 270,188" fill="#e8c432"/>
  </g>
  <g fill="#2d263c">
    <circle cx="126" cy="156" r="8"/>
    <circle cx="150" cy="176" r="8"/>
    <circle cx="126" cy="196" r="8"/>
    <circle cx="234" cy="156" r="8"/>
    <circle cx="210" cy="176" r="8"/>
    <circle cx="234" cy="196" r="8"/>
  </g>
</svg>
