<svg xmlns="http://www.w3.org/2000/svg" viewBox="0 0 360 360">
  <!-- 尻尾のヒレ(背後) -->
  <polygon points="130,305 100,330 128,335" fill="#ffdd44" stroke="#2d263c" stroke-width="6" stroke-linejoin="round"/>
  <polygon points="140,305 168,328 145,336" fill="#ffdd44" stroke="#2d263c" stroke-width="6" stroke-linejoin="round"/>

  <!-- 体(長い胴体・輪っかのようにうねる) -->
  <ellipse cx="105" cy="95" rx="42" ry="34" transform="rotate(-30 105 95)" fill="#3fa34d" stroke="#2d263c" stroke-width="7"/>
  <ellipse cx="155" cy="72" rx="40" ry="32" transform="rotate(-10 155 72)" fill="#3fa34d" stroke="#2d263c" stroke-width="7"/>
  <ellipse cx="210" cy="80" rx="38" ry="32" transform="rotate(15 210 80)" fill="#3fa34d" stroke="#2d263c" stroke-width="7"/>
  <ellipse cx="255" cy="110" rx="36" ry="32" transform="rotate(45 255 110)" fill="#3fa34d" stroke="#2d263c" stroke-width="7"/>
  <ellipse cx="282" cy="162" rx="34" ry="32" transform="rotate(80 282 162)" fill="#3fa34d" stroke="#2d263c" stroke-width="7"/>
  <ellipse cx="272" cy="215" rx="32" ry="30" transform="rotate(130 272 215)" fill="#3fa34d" stroke="#2d263c" stroke-width="7"/>
  <ellipse cx="228" cy="253" rx="28" ry="26" transform="rotate(160 228 253)" fill="#3fa34d" stroke="#2d263c" stroke-width="7"/>
  <ellipse cx="178" cy="282" rx="24" ry="22" transform="rotate(-170 178 282)" fill="#3fa34d" stroke="#2d263c" stroke-width="7"/>
  <ellipse cx="133" cy="300" rx="20" ry="18" transform="rotate(-150 133 300)" fill="#3fa34d" stroke="#2d263c" stroke-width="7"/>

  <!-- お腹の黄色い模様(体節) -->
  <ellipse cx="115" cy="108" rx="20" ry="12" transform="rotate(-20 115 108)" fill="#ffdd44" stroke="#2d263c" stroke-width="3"/>
  <ellipse cx="162" cy="85" rx="20" ry="11" transform="rotate(-5 162 85)" fill="#ffdd44" stroke="#2d263c" stroke-width="3"/>
  <ellipse cx="213" cy="95" rx="19" ry="11" transform="rotate(15 213 95)" fill="#ffdd44" stroke="#2d263c" stroke-width="3"/>
  <ellipse cx="253" cy="128" rx="18" ry="11" transform="rotate(45 253 128)" fill="#ffdd44" stroke="#2d263c" stroke-width="3"/>
  <ellipse cx="278" cy="175" rx="17" ry="11" transform="rotate(80 278 175)" fill="#ffdd44" stroke="#2d263c" stroke-width="3"/>
  <ellipse cx="258" cy="222" rx="16" ry="10" transform="rotate(130 258 222)" fill="#ffdd44" stroke="#2d263c" stroke-width="3"/>
  <ellipse cx="208" cy="255" rx="15" ry="9" transform="rotate(160 208 255)" fill="#ffdd44" stroke="#2d263c" stroke-width="3"/>

  <!-- 背中の小さなトゲ -->
  <polygon points="175,68 187,48 198,70" fill="#2d263c"/>
  <polygon points="255,120 268,102 278,124" fill="#2d263c"/>

  <!-- 体の赤い模様(黄色ふち) -->
  <polygon points="235,95 255,85 268,105 248,115" fill="#e0432f" stroke="#ffdd44" stroke-width="3" stroke-linejoin="round"/>
  <polygon points="268,175 288,167 296,188 276,196" fill="#e0432f" stroke="#ffdd44" stroke-width="3" stroke-linejoin="round"/>

  <!-- 小さい腕(かぎ爪) -->
  <path d="M150,145 C168,150 175,175 160,195 C150,205 138,200 140,182 C142,165 145,152 150,145 Z" fill="#3fa34d" stroke="#2d263c" stroke-width="6" stroke-linejoin="round"/>
  <line x1="152" y1="196" x2="145" y2="212" stroke="#2d263c" stroke-width="5" stroke-linecap="round"/>

  <!-- 顔 -->
  <ellipse cx="100" cy="88" rx="48" ry="40" fill="#3fa34d" stroke="#2d263c" stroke-width="7"/>

  <!-- ツノ -->
  <polygon points="78,63 66,25 92,66" fill="#2d263c"/>
  <polygon points="122,60 136,22 108,63" fill="#2d263c"/>

  <!-- 目のまわりの黄色いリング -->
  <circle cx="78" cy="90" r="14" fill="#ffdd44" stroke="#2d263c" stroke-width="3"/>
  <circle cx="112" cy="82" r="13" fill="#ffdd44" stroke="#2d263c" stroke-width="3"/>

  <!-- 目 -->
  <circle cx="78" cy="90" r="7" fill="#1a1a1a"/>
  <circle cx="112" cy="82" r="6" fill="#1a1a1a"/>

  <!-- 鼻 -->
  <circle cx="100" cy="112" r="3" fill="#1a1a1a"/>

  <!-- 口 -->
  <path d="M75,115 Q100,130 128,112" fill="none" stroke="#2d263c" stroke-width="5" stroke-linecap="round"/>

  <!-- あご(黄色) -->
  <ellipse cx="100" cy="120" rx="20" ry="9" fill="#ffdd44" stroke="#2d263c" stroke-width="4"/>
</svg>
