<svg xmlns="http://www.w3.org/2000/svg" viewBox="0 0 360 360"><g stroke="#2d263c" stroke-width="7" stroke-linejoin="round" stroke-linecap="round" fill="none"><path d="M292,212 C330,192 318,152 300,136 C290,124 294,110 306,100" stroke-width="15"/><path d="M308,56 L318,78 L340,88 L318,98 L308,120 L298,98 L276,88 L298,78 Z" fill="#f6c945"/><path d="M214,238 C216,196 248,188 274,192 C306,196 330,214 328,244 C326,272 302,288 270,288 C240,288 212,272 214,238 Z" fill="#3f76c0"/><path d="M282,272 L278,322 C278,328 288,330 302,328 L308,276 Z" fill="#3f76c0"/><ellipse cx="298" cy="322" rx="21" ry="12" fill="#353043"/><path d="M95,90 L70,60 L105,75 L110,40 L135,72 L160,38 L178,70 L205,45 L208,80 L245,65 L230,100 L270,105 L245,135 L290,160 L250,180 L285,215 L235,220 L250,260 L205,240 L195,280 L165,245 L130,275 L125,235 L85,250 L100,210 L60,200 L90,170 L55,140 L95,130 L75,95 Z" fill="#353043"/><path d="M112,108 C95,85 92,62 102,48 C118,52 132,68 138,88 Z" fill="#3f76c0"/><path d="M188,105 C200,80 204,58 196,44 C180,50 167,66 161,87 Z" fill="#3f76c0"/><circle cx="112" cy="72" r="8" fill="#f6c945" stroke-width="4"/><circle cx="184" cy="68" r="7" fill="#f6c945" stroke-width="4"/><path d="M118,250 L113,322 C113,330 123,332 137,330 L142,252 Z" fill="#353043"/><path d="M172,252 L169,326 C169,332 181,333 194,330 L197,254 Z" fill="#353043"/><path d="M150,95 C185,93 207,118 205,152 C203,186 180,207 148,206 C116,205 96,182 97,150 C98,118 118,97 150,95 Z" fill="#3f76c0"/><ellipse cx="128" cy="142" rx="12" ry="15" fill="#f6c945" stroke-width="5"/><ellipse cx="172" cy="139" rx="13" ry="16" fill="#f6c945" stroke-width="5"/><circle cx="130" cy="144" r="5" fill="#d23f33" stroke="none"/><circle cx="170" cy="141" r="5.5" fill="#d23f33" stroke="none"/><path d="M111,125 L141,133" stroke-width="6"/><path d="M189,122 L159,131" stroke-width="6"/><path d="M149,160 L161,160 L155,170 Z" fill="#d23f33" stroke-width="5"/><path d="M155,170 C153,179 146,181 139,177"/><path d="M155,170 C157,179 165,181 171,176"/><path d="M146,178 L150,186 L153,178 Z" fill="#ffffff" stroke-width="4"/></g></svg>