<svg xmlns="http://www.w3.org/2000/svg" viewBox="0 0 360 360">
  <!-- 尻尾 -->
  <path d="M120 250 Q70 244 62 278 Q88 272 120 268" fill="#5C7DBE" stroke="#2d263c" stroke-width="7" stroke-linejoin="round" stroke-linecap="round"/>
  <!-- 足 左 -->
  <path d="M140 280 L134 322 L160 322 L156 280 Z" fill="#4A3A6A" stroke="#2d263c" stroke-width="7" stroke-linejoin="round"/>
  <!-- 足 右 -->
  <path d="M204 280 L200 322 L226 322 L220 280 Z" fill="#4A3A6A" stroke="#2d263c" stroke-width="7" stroke-linejoin="round"/>
  <!-- 体 -->
  <path d="M130 180 Q120 250 160 270 Q200 276 220 250 Q230 200 210 170 Q170 160 130 180Z" fill="#5C7DBE" stroke="#2d263c" stroke-width="8" stroke-linejoin="round"/>
  <!-- 胸のトゲ(オレンジの星) -->
  <path d="M156 210 L150 232 L168 222 Z" fill="#E8862A" stroke="#2d263c" stroke-width="6" stroke-linejoin="round"/>
  <path d="M180 214 L176 240 L196 226 Z" fill="#E8862A" stroke="#2d263c" stroke-width="6" stroke-linejoin="round"/>
  <path d="M206 210 L210 232 L196 222 Z" fill="#E8862A" stroke="#2d263c" stroke-width="6" stroke-linejoin="round"/>
  <!-- 腕(だらん・下げてリラックス) -->
  <path d="M214 190 Q244 210 246 244 Q236 250 228 242 Q214 216 202 194" fill="#5C7DBE" stroke="#2d263c" stroke-width="7" stroke-linejoin="round"/>
  <!-- 腕(下) -->
  <path d="M134 196 Q108 220 110 250 Q120 254 128 246 Q138 222 146 206" fill="#5C7DBE" stroke="#2d263c" stroke-width="7" stroke-linejoin="round"/>
  <!-- 頭 -->
  <path d="M150 110 Q150 70 196 66 Q244 72 246 116 Q242 156 196 158 Q150 154 150 110Z" fill="#7C9BD8" stroke="#2d263c" stroke-width="8" stroke-linejoin="round"/>
  <!-- ツノ/耳(垂れ気味・紫) -->
  <path d="M158 84 Q142 60 146 40 Q166 56 170 82Z" fill="#4A3A6A" stroke="#2d263c" stroke-width="6" stroke-linejoin="round"/>
  <path d="M238 84 Q254 60 250 40 Q230 56 226 82Z" fill="#4A3A6A" stroke="#2d263c" stroke-width="6" stroke-linejoin="round"/>
  <!-- 前髪(たれた紫の毛) -->
  <path d="M180 66 Q176 46 186 34 Q188 52 192 60 Q196 46 202 34 Q208 48 206 66 Z" fill="#5A3E78" stroke="#2d263c" stroke-width="6" stroke-linejoin="round"/>
  <!-- 目 左(半目・けだるげ) -->
  <path d="M158 108 Q172 98 186 108 Q172 116 158 108Z" fill="#FFFFFF" stroke="#2d263c" stroke-width="6" stroke-linejoin="round"/>
  <ellipse cx="172" cy="108" rx="4" ry="5" fill="#241f2e"/>
  <!-- 目 右(半目・けだるげ) -->
  <path d="M210 108 Q224 98 238 108 Q224 116 210 108Z" fill="#FFFFFF" stroke="#2d263c" stroke-width="6" stroke-linejoin="round"/>
  <ellipse cx="224" cy="108" rx="4" ry="5" fill="#241f2e"/>
  <!-- 口(眠そうにまっすぐ) -->
  <path d="M184 138 Q196 140 208 138" fill="none" stroke="#2d263c" stroke-width="6" stroke-linecap="round"/>
</svg>
