<svg xmlns="http://www.w3.org/2000/svg" viewBox="0 0 360 360">
  <!-- コンクリート柱 左 (後ろ) -->
  <rect x="28" y="140" width="38" height="155" rx="8" fill="#8B6E4E" stroke="#2d263c" stroke-width="7" stroke-linejoin="round"/>
  <rect x="32" y="155" width="30" height="12" rx="3" fill="#6B4E2E" stroke="#2d263c" stroke-width="3"/>
  <rect x="32" y="185" width="30" height="12" rx="3" fill="#6B4E2E" stroke="#2d263c" stroke-width="3"/>
  <rect x="32" y="215" width="30" height="12" rx="3" fill="#6B4E2E" stroke="#2d263c" stroke-width="3"/>
  <rect x="32" y="265" width="30" height="12" rx="3" fill="#6B4E2E" stroke="#2d263c" stroke-width="3"/>

  <!-- コンクリート柱 右 (後ろ) -->
  <rect x="295" y="135" width="38" height="158" rx="8" fill="#8B6E4E" stroke="#2d263c" stroke-width="7" stroke-linejoin="round"/>
  <rect x="299" y="150" width="30" height="12" rx="3" fill="#6B4E2E" stroke="#2d263c" stroke-width="3"/>
  <rect x="299" y="180" width="30" height="12" rx="3" fill="#6B4E2E" stroke="#2d263c" stroke-width="3"/>
  <rect x="299" y="210" width="30" height="12" rx="3" fill="#6B4E2E" stroke="#2d263c" stroke-width="3"/>
  <rect x="299" y="255" width="30" height="12" rx="3" fill="#6B4E2E" stroke="#2d263c" stroke-width="3"/>

  <!-- 左腕 -->
  <ellipse cx="80" cy="195" rx="42" ry="30" fill="#9b8fb0" stroke="#2d263c" stroke-width="7" stroke-linejoin="round"/>
  <!-- 左腕の筋肉線 -->
  <path d="M55 185 Q70 175 95 182" fill="none" stroke="#7a6a8e" stroke-width="3" stroke-linecap="round"/>

  <!-- 右腕 -->
  <ellipse cx="282" cy="190" rx="44" ry="31" fill="#9b8fb0" stroke="#2d263c" stroke-width="7" stroke-linejoin="round"/>
  <path d="M260 180 Q278 172 302 178" fill="none" stroke="#7a6a8e" stroke-width="3" stroke-linecap="round"/>

  <!-- 左ひじバンド -->
  <ellipse cx="74" cy="198" rx="18" ry="10" fill="#e8e0f0" stroke="#2d263c" stroke-width="4"/>

  <!-- 右ひじバンド -->
  <ellipse cx="288" cy="192" rx="18" ry="10" fill="#e8e0f0" stroke="#2d263c" stroke-width="4"/>

  <!-- 体 (胴体) -->
  <ellipse cx="182" cy="248" rx="88" ry="78" fill="#9b8fb0" stroke="#2d263c" stroke-width="8" stroke-linejoin="round"/>

  <!-- 腹部の明るい領域 -->
  <ellipse cx="183" cy="265" rx="55" ry="50" fill="#c8bcd8" stroke="#2d263c" stroke-width="4"/>

  <!-- 体の縞模様 -->
  <path d="M138 230 Q182 222 226 230" fill="none" stroke="#7a6a8e" stroke-width="4" stroke-linecap="round"/>
  <path d="M130 250 Q182 240 234 250" fill="none" stroke="#7a6a8e" stroke-width="3" stroke-linecap="round"/>

  <!-- 脚 左 -->
  <ellipse cx="148" cy="320" rx="32" ry="22" fill="#9b8fb0" stroke="#2d263c" stroke-width="7" stroke-linejoin="round"/>
  <!-- 脚 右 -->
  <ellipse cx="218" cy="322" rx="33" ry="21" fill="#9b8fb0" stroke="#2d263c" stroke-width="7" stroke-linejoin="round"/>

  <!-- 足の指 左 -->
  <ellipse cx="133" cy="336" rx="12" ry="8" fill="#c8bcd8" stroke="#2d263c" stroke-width="5"/>
  <ellipse cx="148" cy="340" rx="12" ry="8" fill="#c8bcd8" stroke="#2d263c" stroke-width="5"/>
  <ellipse cx="163" cy="336" rx="12" ry="8" fill="#c8bcd8" stroke="#2d263c" stroke-width="5"/>

  <!-- 足の指 右 -->
  <ellipse cx="203" cy="337" rx="12" ry="8" fill="#c8bcd8" stroke="#2d263c" stroke-width="5"/>
  <ellipse cx="218" cy="341" rx="12" ry="8" fill="#c8bcd8" stroke="#2d263c" stroke-width="5"/>
  <ellipse cx="233" cy="337" rx="12" ry="8" fill="#c8bcd8" stroke="#2d263c" stroke-width="5"/>

  <!-- 頭部 -->
  <ellipse cx="182" cy="148" rx="82" ry="72" fill="#9b8fb0" stroke="#2d263c" stroke-width="8" stroke-linejoin="round"/>

  <!-- 頭の縞模様 (額) -->
  <path d="M138 118 Q182 108 226 116" fill="none" stroke="#7a6a8e" stroke-width="4" stroke-linecap="round"/>

  <!-- 目 左 (つり目・強面) -->
  <ellipse cx="156" cy="148" rx="14" ry="10" fill="white" stroke="#2d263c" stroke-width="4"/>
  <ellipse cx="158" cy="149" rx="7" ry="7" fill="#2d263c"/>
  <ellipse cx="161" cy="147" rx="2.5" ry="2.5" fill="white"/>
  <!-- 眉 左 (つり上がり) -->
  <path d="M143 136 Q157 128 170 132" fill="none" stroke="#2d263c" stroke-width="5" stroke-linecap="round"/>

  <!-- 目 右 (つり目・強面) -->
  <ellipse cx="208" cy="146" rx="14" ry="10" fill="white" stroke="#2d263c" stroke-width="4"/>
  <ellipse cx="210" cy="147" rx="7" ry="7" fill="#2d263c"/>
  <ellipse cx="213" cy="145" rx="2.5" ry="2.5" fill="white"/>
  <!-- 眉 右 (つり上がり) -->
  <path d="M196 130 Q210 122 222 128" fill="none" stroke="#2d263c" stroke-width="5" stroke-linecap="round"/>

  <!-- 鼻 (大きな赤いコブ) -->
  <ellipse cx="182" cy="165" rx="20" ry="15" fill="#cc4444" stroke="#2d263c" stroke-width="5"/>
  <ellipse cx="175" cy="168" rx="5" ry="4" fill="#aa2222"/>
  <ellipse cx="189" cy="168" rx="5" ry="4" fill="#aa2222"/>

  <!-- ヒゲ 左 -->
  <path d="M160 172 Q142 166 120 170" fill="none" stroke="white" stroke-width="5" stroke-linecap="round"/>
  <path d="M158 178 Q138 175 116 182" fill="none" stroke="white" stroke-width="5" stroke-linecap="round"/>
  <path d="M159 185 Q140 186 118 194" fill="none" stroke="white" stroke-width="4" stroke-linecap="round"/>

  <!-- ヒゲ 右 -->
  <path d="M204 172 Q222 165 244 168" fill="none" stroke="white" stroke-width="5" stroke-linecap="round"/>
  <path d="M206 178 Q226 174 248 180" fill="none" stroke="white" stroke-width="5" stroke-linecap="round"/>
  <path d="M205 185 Q224 184 246 192" fill="none" stroke="white" stroke-width="4" stroke-linecap="round"/>

  <!-- 口 (しかめっ面) -->
  <path d="M168 193 Q182 188 196 193" fill="none" stroke="#2d263c" stroke-width="4" stroke-linecap="round"/>

  <!-- 左手の指 -->
  <ellipse cx="50" cy="215" rx="9" ry="13" fill="#c8bcd8" stroke="#2d263c" stroke-width="4"/>
  <ellipse cx="38" cy="210" rx="9" ry="12" fill="#c8bcd8" stroke="#2d263c" stroke-width="4"/>
  <ellipse cx="42" cy="225" rx="9" ry="12" fill="#c8bcd8" stroke="#2d263c" stroke-width="4"/>

  <!-- 右手の指 -->
  <ellipse cx="310" cy="210" rx="9" ry="13" fill="#c8bcd8" stroke="#2d263c" stroke-width="4"/>
  <ellipse cx="322" cy="205" rx="9" ry="12" fill="#c8bcd8" stroke="#2d263c" stroke-width="4"/>
  <ellipse cx="320" cy="220" rx="9" ry="12" fill="#c8bcd8" stroke="#2d263c" stroke-width="4"/>
</svg>