<svg xmlns="http://www.w3.org/2000/svg" viewBox="0 0 360 360">
  <!-- 後ろ: 帽子のつば -->
  <ellipse cx="183" cy="92" rx="44" ry="11" fill="#e8e8e8" stroke="#2d263c" stroke-width="7" stroke-linejoin="round"/>

  <!-- 帽子本体 -->
  <path d="M148 95 C145 75 158 42 183 32 C208 42 221 75 218 95" fill="#e0e0e0" stroke="#2d263c" stroke-width="7" stroke-linejoin="round" stroke-linecap="round"/>

  <!-- 帽子の赤バラ飾り -->
  <circle cx="183" cy="38" r="11" fill="#d63031" stroke="#2d263c" stroke-width="5"/>
  <circle cx="175" cy="42" r="7" fill="#e84040" stroke="#2d263c" stroke-width="4"/>
  <circle cx="191" cy="40" r="7" fill="#c0392b" stroke="#2d263c" stroke-width="4"/>
  <!-- 葉っぱ飾り -->
  <ellipse cx="163" cy="46" rx="9" ry="5" fill="#2ecc71" stroke="#2d263c" stroke-width="4" transform="rotate(-30 163 46)"/>
  <ellipse cx="204" cy="44" rx="9" ry="5" fill="#27ae60" stroke="#2d263c" stroke-width="4" transform="rotate(25 204 44)"/>

  <!-- 首・体 (緑) -->
  <path d="M162 130 C155 155 148 185 150 225 C153 255 170 272 185 274 C200 272 214 255 217 225 C219 185 212 155 205 130 Z" fill="#4caf50" stroke="#2d263c" stroke-width="7" stroke-linejoin="round"/>

  <!-- 胸の白マント -->
  <path d="M162 133 C158 148 156 162 160 175 C165 188 175 192 185 192 C195 192 205 188 210 175 C214 162 212 148 208 133 C200 126 170 126 162 133 Z" fill="#f5f5f5" stroke="#2d263c" stroke-width="6" stroke-linejoin="round"/>

  <!-- スカート(葉っぱ状) -->
  <path d="M150 225 C140 235 128 248 132 262 C136 272 150 270 158 262 C163 270 171 278 185 278 C199 278 207 270 212 262 C220 270 234 272 238 262 C242 248 230 235 220 225 Z" fill="#388e3c" stroke="#2d263c" stroke-width="7" stroke-linejoin="round"/>
  <!-- スカートの葉っぱ先端 -->
  <path d="M132 262 C126 276 133 288 140 284" fill="none" stroke="#2d263c" stroke-width="5" stroke-linecap="round"/>
  <path d="M238 262 C244 276 237 288 230 284" fill="none" stroke="#2d263c" stroke-width="5" stroke-linecap="round"/>

  <!-- 足 -->
  <path d="M168 274 C164 292 161 308 163 322 C165 330 172 333 178 328 C181 320 183 308 183 296" fill="#4caf50" stroke="#2d263c" stroke-width="6" stroke-linecap="round" stroke-linejoin="round"/>
  <path d="M200 274 C204 292 207 308 205 322 C203 330 196 333 190 328 C187 320 185 308 185 296" fill="#4caf50" stroke="#2d263c" stroke-width="6" stroke-linecap="round" stroke-linejoin="round"/>

  <!-- 左腕 (青いバラ側) -->
  <path d="M157 148 C140 155 120 165 100 168 C88 170 78 165 76 155" fill="#4caf50" stroke="#2d263c" stroke-width="7" stroke-linecap="round" stroke-linejoin="round"/>
  <!-- 左ブーケ(青バラ) -->
  <circle cx="70" cy="155" r="22" fill="#3498db" stroke="#2d263c" stroke-width="6"/>
  <circle cx="60" cy="147" r="13" fill="#5dade2" stroke="#2d263c" stroke-width="5"/>
  <circle cx="80" cy="148" r="12" fill="#2980b9" stroke="#2d263c" stroke-width="5"/>
  <circle cx="70" cy="167" r="11" fill="#1a6fa8" stroke="#2d263c" stroke-width="5"/>
  <!-- 青バラ葉 -->
  <ellipse cx="52" cy="163" rx="10" ry="6" fill="#27ae60" stroke="#2d263c" stroke-width="4" transform="rotate(-40 52 163)"/>

  <!-- 右腕 (赤いバラ側) -->
  <path d="M210 148 C227 155 247 165 267 168 C279 170 289 165 291 155" fill="#4caf50" stroke="#2d263c" stroke-width="7" stroke-linecap="round" stroke-linejoin="round"/>
  <!-- 右ブーケ(赤バラ) -->
  <circle cx="297" cy="155" r="22" fill="#e74c3c" stroke="#2d263c" stroke-width="6"/>
  <circle cx="287" cy="146" r="13" fill="#f1948a" stroke="#2d263c" stroke-width="5"/>
  <circle cx="307" cy="147" r="12" fill="#cb4335" stroke="#2d263c" stroke-width="5"/>
  <circle cx="297" cy="167" r="11" fill="#b03a2e" stroke="#2d263c" stroke-width="5"/>
  <!-- 赤バラ葉 -->
  <ellipse cx="310" cy="164" rx="10" ry="6" fill="#27ae60" stroke="#2d263c" stroke-width="4" transform="rotate(40 310 164)"/>

  <!-- 顔(薄紫) -->
  <ellipse cx="183" cy="115" rx="30" ry="28" fill="#ce93d8" stroke="#2d263c" stroke-width="7" stroke-linejoin="round"/>

  <!-- 顔のマスク(白) -->
  <path d="M158 110 C160 100 168 94 183 93 C198 94 206 100 208 110 C210 118 206 126 200 128 C194 130 188 131 183 131 C178 131 172 130 166 128 C160 126 156 118 158 110 Z" fill="#f5f5f5" stroke="#2d263c" stroke-width="5" stroke-linejoin="round"/>

  <!-- 目 (赤・ちょっと斜め) -->
  <ellipse cx="174" cy="112" rx="7" ry="8" fill="#e53935" stroke="#2d263c" stroke-width="4"/>
  <ellipse cx="193" cy="111" rx="7" ry="8" fill="#e53935" stroke="#2d263c" stroke-width="4"/>
  <!-- 瞳 -->
  <circle cx="175" cy="113" r="3" fill="#2d263c"/>
  <circle cx="194" cy="112" r="3" fill="#2d263c"/>
  <!-- ハイライト -->
  <circle cx="177" cy="110" r="1.5" fill="white"/>
  <circle cx="196" cy="109" r="1.5" fill="white"/>

  <!-- 口(ちょっとニヤリ) -->
  <path d="M178 124 C181 128 186 128 189 124" fill="none" stroke="#2d263c" stroke-width="4" stroke-linecap="round"/>

  <!-- ほっぺのピンク -->
  <ellipse cx="165" cy="120" rx="8" ry="5" fill="#f48fb1" opacity="0.7"/>
  <ellipse cx="201" cy="119" rx="8" ry="5" fill="#f48fb1" opacity="0.7"/>
</svg>