<svg xmlns="http://www.w3.org/2000/svg" viewBox="0 0 360 360">
<ellipse cx="130" cy="290" rx="30" ry="20" fill="#eaf6ff" stroke="#2d263c" stroke-width="7" stroke-linejoin="round"/>
<ellipse cx="230" cy="290" rx="30" ry="20" fill="#eaf6ff" stroke="#2d263c" stroke-width="7" stroke-linejoin="round"/>
<path d="M70 250 C40 220 30 170 60 140 C50 110 70 90 90 105 C95 80 130 70 135 100" fill="#cfeeff" stroke="#2d263c" stroke-width="7" stroke-linejoin="round" stroke-linecap="round"/>
<path d="M55 235 C20 210 15 165 45 145" fill="none" stroke="#2d263c" stroke-width="6" stroke-linecap="round"/>
<path d="M290 250 C320 220 330 170 300 140 C310 110 290 90 270 105 C265 80 230 70 225 100" fill="#cfeeff" stroke="#2d263c" stroke-width="7" stroke-linejoin="round" stroke-linecap="round"/>
<path d="M305 235 C340 210 345 165 315 145" fill="none" stroke="#2d263c" stroke-width="6" stroke-linecap="round"/>
<path d="M110 230 C60 205 55 155 95 130" fill="none" stroke="#2d263c" stroke-width="6" stroke-linecap="round"/>
<path d="M250 230 C300 205 305 155 265 130" fill="none" stroke="#2d263c" stroke-width="6" stroke-linecap="round"/>
<path d="M150 235 C130 190 145 150 175 140" fill="none" stroke="#2d263c" stroke-width="6" stroke-linecap="round"/>
<path d="M210 235 C230 190 215 150 185 140" fill="none" stroke="#2d263c" stroke-width="6" stroke-linecap="round"/>
<ellipse cx="180" cy="230" rx="80" ry="65" fill="#ffffff" stroke="#2d263c" stroke-width="7" stroke-linejoin="round"/>
<path d="M120 190 Q180 220 240 190 Q235 250 180 260 Q125 250 120 190 Z" fill="#eaf6ff" stroke="#2d263c" stroke-width="5" stroke-linejoin="round"/>
<path d="M112 165 L95 100 L140 145 Z" fill="#ffffff" stroke="#2d263c" stroke-width="6" stroke-linejoin="round"/>
<path d="M248 165 L265 100 L220 145 Z" fill="#ffffff" stroke="#2d263c" stroke-width="6" stroke-linejoin="round"/>
<path d="M108 150 L100 120 L128 142 Z" fill="#bfe3ff"/>
<path d="M252 150 L260 120 L232 142 Z" fill="#bfe3ff"/>
<circle cx="150" cy="185" r="12" fill="#4fb8e8" stroke="#2d263c" stroke-width="5"/>
<circle cx="210" cy="185" r="12" fill="#4fb8e8" stroke="#2d263c" stroke-width="5"/>
<circle cx="154" cy="182" r="3" fill="#1a1a1a"/>
<circle cx="214" cy="182" r="3" fill="#1a1a1a"/>
<path d="M175 205 q5 5 10 0" fill="none" stroke="#2d263c" stroke-width="5" stroke-linecap="round"/>
<path d="M130 205 l-8 3" stroke="#2d263c" stroke-width="4" stroke-linecap="round"/>
<path d="M130 212 l-9 0" stroke="#2d263c" stroke-width="4" stroke-linecap="round"/>
<path d="M230 205 l8 3" stroke="#2d263c" stroke-width="4" stroke-linecap="round"/>
<path d="M230 212 l9 0" stroke="#2d263c" stroke-width="4" stroke-linecap="round"/>
</svg>
