<svg xmlns="http://www.w3.org/2000/svg" viewBox="0 0 360 360">
<g fill="none" stroke="#2d263c" stroke-width="7" stroke-linejoin="round" stroke-linecap="round">
<path fill="#e2793f" d="M190,230 C215,210 225,175 210,145 C200,125 180,120 178,140 C176,160 185,195 190,230 Z"/>
<path fill="#e2793f" d="M195,235 C235,215 255,170 235,125 C222,100 195,95 190,120 C186,145 190,190 195,235 Z"/>
<path fill="#e2793f" d="M200,240 C260,225 300,180 285,120 C275,80 235,55 210,75 C195,90 190,140 200,240 Z"/>
<path fill="#e2793f" d="M170,230 C145,210 135,175 150,145 C160,125 180,120 182,140 C184,160 175,195 170,230 Z"/>
<path fill="#e2793f" d="M165,235 C125,215 105,170 125,125 C138,100 165,95 170,120 C174,145 170,190 165,235 Z"/>
<path fill="#e2793f" d="M160,240 C100,225 60,180 75,120 C85,80 125,55 150,75 C165,90 170,140 160,240 Z"/>
<ellipse fill="#fbead0" cx="195" cy="138" rx="14" ry="18"/>
<ellipse fill="#fbead0" cx="210" cy="108" rx="16" ry="20"/>
<ellipse fill="#fbead0" cx="235" cy="65" rx="18" ry="22"/>
<ellipse fill="#fbead0" cx="165" cy="138" rx="14" ry="18"/>
<ellipse fill="#fbead0" cx="150" cy="108" rx="16" ry="20"/>
<ellipse fill="#fbead0" cx="125" cy="65" rx="18" ry="22"/>
<path fill="#e2793f" d="M120,190 C100,220 95,280 130,310 C150,325 210,325 230,310 C265,280 260,220 240,190 C220,175 140,175 120,190 Z"/>
<ellipse fill="#fbead0" cx="180" cy="272" rx="42" ry="50"/>
<ellipse fill="#e2793f" cx="140" cy="320" rx="20" ry="14"/>
<ellipse fill="#e2793f" cx="220" cy="320" rx="20" ry="14"/>
<ellipse fill="#fbead0" cx="140" cy="330" rx="12" ry="9"/>
<ellipse fill="#fbead0" cx="220" cy="330" rx="12" ry="9"/>
<path fill="#e2793f" d="M95,20 L140,95 L170,120 L130,90 Z"/>
<path fill="#e2793f" d="M265,20 L220,95 L190,120 L230,90 Z"/>
<circle fill="#e2793f" cx="180" cy="145" r="68"/>
<path fill="#fbead0" d="M105,45 L135,90 L160,105 Z"/>
<path fill="#fbead0" d="M255,45 L225,90 L200,105 Z"/>
<ellipse fill="#f5b9a0" cx="138" cy="176" rx="10" ry="7"/>
<ellipse fill="#f5b9a0" cx="222" cy="176" rx="10" ry="7"/>
<ellipse fill="#fbead0" cx="180" cy="182" rx="48" ry="38"/>
<ellipse fill="#241d30" cx="152" cy="150" rx="11" ry="15"/>
<ellipse fill="#241d30" cx="208" cy="150" rx="11" ry="15"/>
<circle fill="#ffffff" stroke="none" cx="148" cy="144" r="3"/>
<circle fill="#ffffff" stroke="none" cx="204" cy="144" r="3"/>
<ellipse fill="#241d30" cx="180" cy="172" rx="7" ry="5"/>
</g>
</svg>
