<svg xmlns="http://www.w3.org/2000/svg" viewBox="0 0 360 360">
  <ellipse cx="150" cy="322" rx="18" ry="20" fill="#3e8f5c" stroke="#2d263c" stroke-width="7" stroke-linejoin="round"/>
  <ellipse cx="210" cy="322" rx="18" ry="20" fill="#3e8f5c" stroke="#2d263c" stroke-width="7" stroke-linejoin="round"/>
  <path d="M105,215 Q78,232 75,258" fill="none" stroke="#2d263c" stroke-width="9" stroke-linecap="round"/>
  <path d="M255,215 Q282,232 285,258" fill="none" stroke="#2d263c" stroke-width="9" stroke-linecap="round"/>
  <ellipse cx="180" cy="210" rx="95" ry="103" fill="#4caf6d" stroke="#2d263c" stroke-width="8" stroke-linejoin="round"/>
  <path d="M95,182 L68,192 L95,207 Z" fill="#2f7a45" stroke="#2d263c" stroke-width="6" stroke-linejoin="round"/>
  <path d="M265,182 L292,192 L265,207 Z" fill="#2f7a45" stroke="#2d263c" stroke-width="6" stroke-linejoin="round"/>
  <path d="M100,237 L76,248 L100,258 Z" fill="#2f7a45" stroke="#2d263c" stroke-width="6" stroke-linejoin="round"/>
  <path d="M260,237 L284,248 L260,258 Z" fill="#2f7a45" stroke="#2d263c" stroke-width="6" stroke-linejoin="round"/>
  <polygon points="180,150 165,95 180,68 195,95" fill="#2f7a45" stroke="#2d263c" stroke-width="6" stroke-linejoin="round" transform="rotate(-70 180 150)"/>
  <polygon points="180,150 165,95 180,68 195,95" fill="#2f7a45" stroke="#2d263c" stroke-width="6" stroke-linejoin="round" transform="rotate(-35 180 150)"/>
  <polygon points="180,150 165,95 180,68 195,95" fill="#2f7a45" stroke="#2d263c" stroke-width="6" stroke-linejoin="round"/>
  <polygon points="180,150 165,95 180,68 195,95" fill="#2f7a45" stroke="#2d263c" stroke-width="6" stroke-linejoin="round" transform="rotate(35 180 150)"/>
  <polygon points="180,150 165,95 180,68 195,95" fill="#2f7a45" stroke="#2d263c" stroke-width="6" stroke-linejoin="round" transform="rotate(70 180 150)"/>
  <ellipse cx="180" cy="188" rx="58" ry="48" fill="#fdf6e3" stroke="#2d263c" stroke-width="7" stroke-linejoin="round"/>
  <circle cx="155" cy="182" r="16" fill="#ffffff" stroke="#2d263c" stroke-width="6"/>
  <circle cx="205" cy="182" r="16" fill="#ffffff" stroke="#2d263c" stroke-width="6"/>
  <circle cx="158" cy="184" r="8" fill="#2d263c"/>
  <circle cx="202" cy="184" r="8" fill="#2d263c"/>
  <circle cx="162" cy="179" r="3" fill="#ffffff"/>
  <circle cx="198" cy="179" r="3" fill="#ffffff"/>
  <path d="M170,206 Q180,214 190,206" fill="none" stroke="#2d263c" stroke-width="6" stroke-linecap="round"/>
  <circle cx="75" cy="238" r="16" fill="#33528c" stroke="#2d263c" stroke-width="6"/>
  <circle cx="94" cy="252" r="16" fill="#33528c" stroke="#2d263c" stroke-width="6"/>
  <circle cx="87" cy="275" r="16" fill="#33528c" stroke="#2d263c" stroke-width="6"/>
  <circle cx="63" cy="275" r="16" fill="#33528c" stroke="#2d263c" stroke-width="6"/>
  <circle cx="56" cy="252" r="16" fill="#33528c" stroke="#2d263c" stroke-width="6"/>
  <circle cx="75" cy="258" r="12" fill="#5b7fc7" stroke="#2d263c" stroke-width="6"/>
  <circle cx="285" cy="238" r="16" fill="#c93b3b" stroke="#2d263c" stroke-width="6"/>
  <circle cx="304" cy="252" r="16" fill="#c93b3b" stroke="#2d263c" stroke-width="6"/>
  <circle cx="297" cy="275" r="16" fill="#c93b3b" stroke="#2d263c" stroke-width="6"/>
  <circle cx="273" cy="275" r="16" fill="#c93b3b" stroke="#2d263c" stroke-width="6"/>
  <circle cx="266" cy="252" r="16" fill="#c93b3b" stroke="#2d263c" stroke-width="6"/>
  <circle cx="285" cy="258" r="12" fill="#e8756b" stroke="#2d263c" stroke-width="6"/>
</svg>
