<svg xmlns="http://www.w3.org/2000/svg" viewBox="0 0 360 360">
  <!-- 尻尾(炎のような房・後ろ) -->
  <path d="M235 250 Q272 240 278 268 Q283 292 258 300 Q268 278 250 268 Q245 285 228 288 Q238 268 222 260Z" fill="#E8461C" stroke="#2d263c" stroke-width="7" stroke-linejoin="round" stroke-linecap="round"/>

  <!-- 左足(奥) -->
  <path d="M160 300 Q155 320 150 335" fill="none" stroke="#2d263c" stroke-width="9" stroke-linecap="round"/>
  <path d="M160 300 Q155 320 150 335" fill="none" stroke="#F2C240" stroke-width="7" stroke-linecap="round"/>
  <path d="M138 340 L150 335 L162 340 M150 335 L150 348" fill="none" stroke="#5B6B78" stroke-width="7" stroke-linecap="round" stroke-linejoin="round"/>

  <!-- 右足(手前) -->
  <path d="M198 302 Q205 322 208 336" fill="none" stroke="#2d263c" stroke-width="10" stroke-linecap="round"/>
  <path d="M198 302 Q205 322 208 336" fill="none" stroke="#F2C240" stroke-width="8" stroke-linecap="round"/>
  <path d="M184 342 L208 336 L222 342 M208 336 L206 350" fill="none" stroke="#5B6B78" stroke-width="8" stroke-linecap="round" stroke-linejoin="round"/>

  <!-- 胴体(下半身・黄色) -->
  <path d="M140 250 Q130 285 150 310 Q170 328 195 315 Q218 300 214 270 Q210 248 190 240 Q160 235 140 250Z" fill="#F5CC55" stroke="#2d263c" stroke-width="8" stroke-linejoin="round" stroke-linecap="round"/>

  <!-- 胴体(上半身・オレンジ) -->
  <path d="M118 160 Q100 195 118 228 Q140 258 178 255 Q218 250 228 215 Q236 178 210 150 Q182 122 150 128 Q126 133 118 160Z" fill="#E8621F" stroke="#2d263c" stroke-width="8" stroke-linejoin="round" stroke-linecap="round"/>

  <!-- 胸の羽毛タフト(黄色もこもこ) -->
  <path d="M140 168 Q130 155 140 145 Q150 155 148 168 Q158 152 168 158 Q166 172 155 178 Q170 168 178 178 Q170 190 155 188 Q140 190 140 168Z" fill="#F8D766" stroke="#2d263c" stroke-width="6" stroke-linejoin="round" stroke-linecap="round"/>

  <!-- 左腕(黄色もこもこグローブ) -->
  <path d="M118 190 Q88 195 82 220 Q78 240 98 245 Q115 248 118 228 Q120 210 118 190Z" fill="#F5CC55" stroke="#2d263c" stroke-width="7" stroke-linejoin="round" stroke-linecap="round"/>

  <!-- 右腕(黄色もこもこグローブ・前) -->
  <path d="M222 195 Q252 202 256 228 Q258 248 236 250 Q220 250 218 230 Q216 212 222 195Z" fill="#F5CC55" stroke="#2d263c" stroke-width="7" stroke-linejoin="round" stroke-linecap="round"/>

  <!-- 首の羽毛(えり・オレンジ濃い目) -->
  <path d="M128 152 Q158 138 190 152 Q182 168 158 170 Q134 168 128 152Z" fill="#D9531E" stroke="#2d263c" stroke-width="6" stroke-linejoin="round" stroke-linecap="round"/>

  <!-- 頭部 -->
  <ellipse cx="160" cy="105" rx="55" ry="50" fill="#E8621F" stroke="#2d263c" stroke-width="8" stroke-linejoin="round"/>

  <!-- 頭のトサカ(炎の羽飾り・後ろに流れる) -->
  <path d="M188 70 Q212 45 205 20 Q192 35 188 55 Q178 30 165 18 Q168 45 175 65 Q158 40 145 32 Q152 55 165 72" fill="#E8461C" stroke="#2d263c" stroke-width="7" stroke-linejoin="round" stroke-linecap="round"/>

  <!-- くちばし(灰青色) -->
  <path d="M108 108 Q90 112 88 122 Q90 130 108 128Z" fill="#6B7B8C" stroke="#2d263c" stroke-width="6" stroke-linejoin="round" stroke-linecap="round"/>

  <!-- 眉(きりっとした目つき) 左 -->
  <path d="M122 82 Q140 74 155 80" fill="none" stroke="#2d263c" stroke-width="7" stroke-linecap="round"/>
  <!-- 眉 右 -->
  <path d="M158 78 Q175 72 192 80" fill="none" stroke="#2d263c" stroke-width="7" stroke-linecap="round"/>

  <!-- 目 左 -->
  <ellipse cx="136" cy="100" rx="13" ry="13" fill="#FFE24B" stroke="#2d263c" stroke-width="5"/>
  <ellipse cx="136" cy="101" rx="6" ry="7" fill="#1a0a0a"/>

  <!-- 目 右 -->
  <ellipse cx="178" cy="98" rx="13" ry="13" fill="#FFE24B" stroke="#2d263c" stroke-width="5"/>
  <ellipse cx="178" cy="99" rx="6" ry="7" fill="#1a0a0a"/>

  <!-- ほっぺの模様(赤) -->
  <ellipse cx="120" cy="118" rx="8" ry="6" fill="#D9531E" stroke="none"/>
  <ellipse cx="196" cy="116" rx="8" ry="6" fill="#D9531E" stroke="none"/>
</svg>
