<svg xmlns="http://www.w3.org/2000/svg" viewBox="0 0 360 360">
  <path d="M155,115 C140,90 118,58 90,52 C93,82 100,106 130,120 C140,123 150,121 155,115 Z" fill="#8bd17c" stroke="#2d263c" stroke-width="7" stroke-linejoin="round"/>
  <path d="M205,115 C220,90 242,58 270,52 C267,82 260,106 230,120 C220,123 210,121 205,115 Z" fill="#8bd17c" stroke="#2d263c" stroke-width="7" stroke-linejoin="round"/>
  <path d="M180,110
           C215,105 245,115 250,140
           C275,150 292,178 285,210
           C296,240 275,266 250,280
           C260,305 220,316 180,310
           C140,316 100,305 110,280
           C85,266 64,240 75,210
           C68,178 85,150 110,140
           C115,115 145,105 180,110 Z"
        fill="#ffffff" stroke="#2d263c" stroke-width="8" stroke-linejoin="round"/>
  <ellipse cx="140" cy="155" rx="34" ry="24" fill="#f3f3f3" opacity="0.7"/>
  <circle cx="140" cy="216" r="13" fill="#ffb6c6" opacity="0.8"/>
  <circle cx="220" cy="216" r="13" fill="#ffb6c6" opacity="0.8"/>
  <circle cx="155" cy="196" r="10" fill="#2d263c"/>
  <circle cx="205" cy="196" r="10" fill="#2d263c"/>
  <circle cx="152" cy="192" r="3" fill="#ffffff"/>
  <circle cx="202" cy="192" r="3" fill="#ffffff"/>
  <path d="M163,222 Q180,234 197,222" fill="none" stroke="#2d263c" stroke-width="6" stroke-linecap="round"/>
</svg>
