<svg xmlns="http://www.w3.org/2000/svg" viewBox="0 0 360 360">
  <ellipse cx="150" cy="330" rx="34" ry="16" fill="#8F8AA6" stroke="#2d263c" stroke-width="7" stroke-linejoin="round"/>
  <ellipse cx="210" cy="330" rx="34" ry="16" fill="#8F8AA6" stroke="#2d263c" stroke-width="7" stroke-linejoin="round"/>
  <path d="M128 260 L128 320 Q128 335 150 335 Q172 335 172 320 L172 262 Z" fill="#B4AFC6" stroke="#2d263c" stroke-width="7" stroke-linejoin="round"/>
  <path d="M188 262 L188 320 Q188 335 210 335 Q232 335 232 320 L232 260 Z" fill="#B4AFC6" stroke="#2d263c" stroke-width="7" stroke-linejoin="round"/>
  <path d="M95 220 L82 258 Q78 270 90 274 L112 280 L120 250 Z" fill="#B4AFC6" stroke="#2d263c" stroke-width="7" stroke-linejoin="round"/>
  <path d="M265 220 L278 258 Q282 270 270 274 L248 280 L240 250 Z" fill="#B4AFC6" stroke="#2d263c" stroke-width="7" stroke-linejoin="round"/>
  <circle cx="93" cy="266" r="20" fill="#B4AFC6" stroke="#2d263c" stroke-width="7"/>
  <circle cx="267" cy="266" r="20" fill="#B4AFC6" stroke="#2d263c" stroke-width="7"/>
  <path d="M118 178 Q88 195 92 226 L120 250 Q140 210 132 182 Z" fill="#ACA8BE" stroke="#2d263c" stroke-width="7" stroke-linejoin="round"/>
  <path d="M242 178 Q272 195 268 226 L240 250 Q220 210 228 182 Z" fill="#ACA8BE" stroke="#2d263c" stroke-width="7" stroke-linejoin="round"/>
  <path d="M112 172 Q108 235 128 268 Q180 288 232 268 Q252 235 248 172 Q220 150 180 150 Q140 150 112 172 Z" fill="#ACA8BE" stroke="#2d263c" stroke-width="7" stroke-linejoin="round"/>
  <path d="M124 236 Q180 254 236 236 L236 254 Q180 272 124 254 Z" fill="#6B4423" stroke="#2d263c" stroke-width="7" stroke-linejoin="round"/>
  <circle cx="180" cy="248" r="11" fill="#8B5E3C" stroke="#2d263c" stroke-width="6"/>
  <path d="M132 190 Q155 210 132 226" fill="none" stroke="#2d263c" stroke-width="5" stroke-linecap="round"/>
  <path d="M228 190 Q205 210 228 226" fill="none" stroke="#2d263c" stroke-width="5" stroke-linecap="round"/>
  <path d="M150 172 Q180 186 210 172" fill="none" stroke="#2d263c" stroke-width="5" stroke-linecap="round"/>
  <circle cx="180" cy="108" r="63" fill="#B4AFC6" stroke="#2d263c" stroke-width="8"/>
  <path d="M120 96 Q104 82 110 60 Q126 70 130 96 Z" fill="#ACA8BE" stroke="#2d263c" stroke-width="6" stroke-linejoin="round"/>
  <path d="M240 96 Q256 82 250 60 Q234 70 230 96 Z" fill="#ACA8BE" stroke="#2d263c" stroke-width="6" stroke-linejoin="round"/>
  <path d="M148 58 Q152 34 166 26 Q170 44 160 62 Z" fill="#8B5E3C" stroke="#2d263c" stroke-width="6" stroke-linejoin="round"/>
  <path d="M166 50 Q178 24 194 24 Q192 46 182 62 Z" fill="#8B5E3C" stroke="#2d263c" stroke-width="6" stroke-linejoin="round"/>
  <path d="M194 60 Q206 38 224 40 Q216 58 200 68 Z" fill="#8B5E3C" stroke="#2d263c" stroke-width="6" stroke-linejoin="round"/>
  <circle cx="158" cy="108" r="7" fill="#2d263c"/>
  <circle cx="202" cy="108" r="7" fill="#2d263c"/>
  <path d="M168 134 Q180 142 192 134" fill="none" stroke="#2d263c" stroke-width="6" stroke-linecap="round"/>
</svg>
