<svg xmlns="http://www.w3.org/2000/svg" viewBox="0 0 360 360">
  <!-- 尻尾 -->
  <path d="M240 270 Q310 290 330 310 Q320 330 300 320 Q270 305 245 290 Z" fill="#a93226" stroke="#2d263c" stroke-width="7" stroke-linejoin="round" stroke-linecap="round"/>
  <!-- 尻尾の腹側 -->
  <path d="M245 285 Q290 300 308 318 Q295 322 278 312 Q258 298 242 288 Z" fill="#e8d5a3" stroke="none"/>

  <!-- 後ろ足(左) -->
  <path d="M200 285 Q195 310 188 330 Q178 340 168 335 Q172 322 178 308 Q182 295 192 282 Z" fill="#a93226" stroke="#2d263c" stroke-width="7" stroke-linejoin="round" stroke-linecap="round"/>
  <!-- 後ろ足の爪(左) -->
  <path d="M168 335 Q162 342 156 338 M173 338 Q168 346 162 344 M180 337 Q177 344 171 343" fill="none" stroke="#2d263c" stroke-width="5" stroke-linecap="round"/>

  <!-- 後ろ足(右) -->
  <path d="M230 285 Q235 308 240 328 Q242 340 232 342 Q225 330 222 315 Q220 300 225 282 Z" fill="#a93226" stroke="#2d263c" stroke-width="7" stroke-linejoin="round" stroke-linecap="round"/>
  <!-- 後ろ足の爪(右) -->
  <path d="M232 342 Q230 350 224 348 M238 340 Q238 348 232 348 M243 336 Q245 344 240 345" fill="none" stroke="#2d263c" stroke-width="5" stroke-linecap="round"/>

  <!-- 胴体メイン -->
  <ellipse cx="195" cy="240" rx="75" ry="65" fill="#c0392b" stroke="#2d263c" stroke-width="8" stroke-linejoin="round"/>
  <!-- 胴体腹部 -->
  <ellipse cx="195" cy="255" rx="48" ry="42" fill="#f0deb0" stroke="#2d263c" stroke-width="5" stroke-linejoin="round"/>
  <!-- 腹の横縞 -->
  <path d="M150 248 Q195 244 240 248" fill="none" stroke="#d4b87a" stroke-width="3"/>
  <path d="M153 260 Q195 257 237 260" fill="none" stroke="#d4b87a" stroke-width="3"/>
  <path d="M158 272 Q195 270 232 272" fill="none" stroke="#d4b87a" stroke-width="3"/>

  <!-- 背中の骨板 -->
  <path d="M155 195 Q150 178 158 170 Q166 178 163 195 Z" fill="#8b1a1a" stroke="#2d263c" stroke-width="5" stroke-linejoin="round"/>
  <path d="M175 188 Q168 168 178 158 Q188 168 185 188 Z" fill="#8b1a1a" stroke="#2d263c" stroke-width="5" stroke-linejoin="round"/>
  <path d="M198 185 Q193 164 202 154 Q212 164 208 185 Z" fill="#8b1a1a" stroke="#2d263c" stroke-width="5" stroke-linejoin="round"/>
  <path d="M220 190 Q217 170 226 162 Q235 170 230 190 Z" fill="#8b1a1a" stroke="#2d263c" stroke-width="5" stroke-linejoin="round"/>
  <path d="M238 200 Q237 182 245 175 Q253 182 248 200 Z" fill="#8b1a1a" stroke="#2d263c" stroke-width="5" stroke-linejoin="round"/>

  <!-- 前足(左・後ろ側) -->
  <path d="M148 245 Q128 255 118 272 Q110 285 120 290 Q134 278 145 265 Q155 252 158 242 Z" fill="#a93226" stroke="#2d263c" stroke-width="7" stroke-linejoin="round" stroke-linecap="round"/>
  <!-- 前足の爪(左) -->
  <path d="M120 290 Q112 298 108 293 M127 292 Q122 301 117 297 M134 290 Q130 298 125 296" fill="none" stroke="#2d263c" stroke-width="5" stroke-linecap="round"/>

  <!-- 前足(右・前側) -->
  <path d="M242 245 Q262 252 275 268 Q283 280 274 287 Q260 276 250 262 Q242 250 238 242 Z" fill="#a93226" stroke="#2d263c" stroke-width="7" stroke-linejoin="round" stroke-linecap="round"/>
  <!-- 前足の爪(右) -->
  <path d="M274 287 Q278 296 273 298 M267 290 Q270 299 264 300 M261 288 Q263 297 257 297" fill="none" stroke="#2d263c" stroke-width="5" stroke-linecap="round"/>

  <!-- 首 -->
  <path d="M162 190 Q155 172 162 155 Q195 145 228 155 Q235 172 228 190 Z" fill="#c0392b" stroke="#2d263c" stroke-width="7" stroke-linejoin="round"/>

  <!-- 頭部 -->
  <ellipse cx="195" cy="135" rx="58" ry="45" fill="#c0392b" stroke="#2d263c" stroke-width="8" stroke-linejoin="round"/>

  <!-- 上あご(長い口) -->
  <path d="M138 148 Q130 152 125 160 Q128 168 140 165 Q162 158 195 155 Q228 158 250 165 Q262 168 265 160 Q262 152 253 148 Q228 140 195 138 Q162 140 138 148 Z" fill="#a93226" stroke="#2d263c" stroke-width="7" stroke-linejoin="round"/>

  <!-- 下あご -->
  <path d="M140 162 Q130 168 128 178 Q132 190 145 188 Q168 182 195 180 Q222 182 245 188 Q258 190 262 178 Q260 168 250 162 Q225 170 195 172 Q165 170 140 162 Z" fill="#c0392b" stroke="#2d263c" stroke-width="7" stroke-linejoin="round"/>
  <!-- 下あごの腹色 -->
  <path d="M148 170 Q195 178 242 170 Q238 184 195 186 Q152 184 148 170 Z" fill="#f0deb0" stroke="none"/>

  <!-- 歯(上) -->
  <path d="M155 162 L152 174 L160 162 Z" fill="#fffff0" stroke="#2d263c" stroke-width="3" stroke-linejoin="round"/>
  <path d="M175 158 L172 172 L180 158 Z" fill="#fffff0" stroke="#2d263c" stroke-width="3" stroke-linejoin="round"/>
  <path d="M215 158 L212 172 L220 158 Z" fill="#fffff0" stroke="#2d263c" stroke-width="3" stroke-linejoin="round"/>
  <path d="M235 162 L232 174 L240 162 Z" fill="#fffff0" stroke="#2d263c" stroke-width="3" stroke-linejoin="round"/>

  <!-- 目の隈取り(アイマスク・黒っぽい) -->
  <ellipse cx="168" cy="118" rx="22" ry="16" fill="#1a0a0a" stroke="#2d263c" stroke-width="5"/>
  <ellipse cx="222" cy="118" rx="22" ry="16" fill="#1a0a0a" stroke="#2d263c" stroke-width="5"/>

  <!-- 目の白目 -->
  <ellipse cx="168" cy="117" rx="14" ry="11" fill="#fafafa"/>
  <ellipse cx="222" cy="117" rx="14" ry="11" fill="#fafafa"/>

  <!-- 瞳 -->
  <ellipse cx="170" cy="118" rx="8" ry="9" fill="#e74c3c"/>
  <ellipse cx="224" cy="118" rx="8" ry="9" fill="#e74c3c"/>
  <!-- 瞳孔 -->
  <ellipse cx="171" cy="119" rx="4" ry="5" fill="#1a0a0a"/>
  <ellipse cx="225" cy="119" rx="4" ry="5" fill="#1a0a0a"/>
  <!-- 目の光 -->
  <ellipse cx="174" cy="116" rx="2" ry="2" fill="white"/>
  <ellipse cx="228" cy="116" rx="2" ry="2" fill="white"/>

  <!-- 鼻の穴 -->
  <ellipse cx="175" cy="143" rx="5" ry="4" fill="#8b1a1a"/>
  <ellipse cx="215" cy="143" rx="5" ry="4" fill="#8b1a1a"/>

  <!-- 体の側面縞 -->
  <path d="M148 220 Q145 235 148 248" fill="none" stroke="#8b1a1a" stroke-width="4" stroke-linecap="round"/>
  <path d="M240 220 Q243 235 240 248" fill="none" stroke="#8b1a1a" stroke-width="4" stroke-linecap="round"/>
</svg>