<svg xmlns="http://www.w3.org/2000/svg" viewBox="0 0 360 360">
  <!-- 尻尾(後ろ・こげ茶の短い羽) -->
  <path d="M235 270 Q268 280 278 306 Q262 302 246 292 Q248 282 235 270Z" fill="#7A431F" stroke="#2d263c" stroke-width="6" stroke-linejoin="round" stroke-linecap="round"/>
  <path d="M120 270 Q88 282 78 308 Q94 302 110 292 Q108 282 120 270Z" fill="#7A431F" stroke="#2d263c" stroke-width="6" stroke-linejoin="round" stroke-linecap="round"/>

  <!-- 足(オレンジ・かぎ爪) -->
  <path d="M148 300 L142 332 M142 332 L132 340 M142 332 L152 340" fill="none" stroke="#E8862A" stroke-width="9" stroke-linecap="round" stroke-linejoin="round"/>
  <path d="M212 300 L218 332 M218 332 L208 340 M218 332 L228 340" fill="none" stroke="#E8862A" stroke-width="9" stroke-linecap="round" stroke-linejoin="round"/>

  <!-- 体(茶色・ふわふわ丸型) -->
  <path d="M180 150 Q250 150 262 220 Q272 280 220 305 Q180 320 140 305 Q88 280 98 220 Q110 150 180 150Z" fill="#B4692F" stroke="#2d263c" stroke-width="8" stroke-linejoin="round" stroke-linecap="round"/>

  <!-- こぶし翼(左右・にぎりこぶし風) -->
  <ellipse cx="94" cy="232" rx="28" ry="32" fill="#8B4A22" stroke="#2d263c" stroke-width="7"/>
  <ellipse cx="266" cy="232" rx="28" ry="32" fill="#8B4A22" stroke="#2d263c" stroke-width="7"/>
  <path d="M84 222 L104 222 M84 232 L104 232 M84 242 L104 242" stroke="#2d263c" stroke-width="4" stroke-linecap="round"/>
  <path d="M256 222 L276 222 M256 232 L276 232 M256 242 L276 242" stroke="#2d263c" stroke-width="4" stroke-linecap="round"/>

  <!-- 胸(クリーム色の斑点模様) -->
  <path d="M180 210 Q222 212 232 258 Q238 292 200 302 Q180 308 160 302 Q122 292 128 258 Q138 212 180 210Z" fill="#F2E0AE" stroke="#2d263c" stroke-width="6" stroke-linejoin="round"/>
  <ellipse cx="160" cy="248" rx="7" ry="9" fill="#7A431F"/>
  <ellipse cx="196" cy="240" rx="7" ry="9" fill="#7A431F"/>
  <ellipse cx="178" cy="272" rx="7" ry="8" fill="#7A431F"/>
  <ellipse cx="210" cy="272" rx="6" ry="8" fill="#7A431F"/>

  <!-- 頭(黒っぽいこげ茶) -->
  <path d="M180 62 Q234 64 244 112 Q250 152 210 168 Q180 178 150 168 Q110 152 116 112 Q126 64 180 62Z" fill="#3A2418" stroke="#2d263c" stroke-width="8" stroke-linejoin="round" stroke-linecap="round"/>

  <!-- 後頭の逆立ち羽 -->
  <path d="M182 60 Q188 34 202 24 Q198 46 196 64Z" fill="#3A2418" stroke="#2d263c" stroke-width="6" stroke-linejoin="round"/>
  <path d="M164 60 Q158 36 146 26 Q152 48 156 64Z" fill="#3A2418" stroke="#2d263c" stroke-width="6" stroke-linejoin="round"/>

  <!-- 顔まわり(クリーム色マスク) -->
  <path d="M148 108 Q180 96 212 108 Q216 138 196 154 Q180 162 164 154 Q144 138 148 108Z" fill="#F2E6C8" stroke="#2d263c" stroke-width="6" stroke-linejoin="round"/>

  <!-- 目(鋭い・オレンジ) -->
  <path d="M154 108 Q164 100 176 106 Q168 116 158 118Z" fill="#E8862A" stroke="#2d263c" stroke-width="5" stroke-linejoin="round"/>
  <path d="M206 108 Q196 100 184 106 Q192 116 202 118Z" fill="#E8862A" stroke="#2d263c" stroke-width="5" stroke-linejoin="round"/>
  <circle cx="165" cy="111" r="4" fill="#2d263c"/>
  <circle cx="195" cy="111" r="4" fill="#2d263c"/>

  <!-- くちばし(鉤形・黄橙) -->
  <path d="M168 132 Q180 124 192 132 Q188 148 180 152 Q172 148 168 132Z" fill="#F0A83A" stroke="#2d263c" stroke-width="6" stroke-linejoin="round"/>
</svg>
