<svg xmlns="http://www.w3.org/2000/svg" viewBox="0 0 360 360">
<g fill="none" stroke="#2d263c" stroke-width="7" stroke-linejoin="round" stroke-linecap="round">
<circle fill="#f4f2ec" cx="180" cy="120" r="78"/>
<circle fill="#f4f2ec" cx="118" cy="150" r="46"/>
<circle fill="#f4f2ec" cx="242" cy="150" r="46"/>
<circle fill="#f4f2ec" cx="150" cy="182" r="40"/>
<circle fill="#f4f2ec" cx="210" cy="182" r="40"/>
<circle fill="#e8c84a" stroke="none" cx="170" cy="98" r="3.5"/>
<circle fill="#e8c84a" stroke="none" cx="202" cy="112" r="3"/>
<circle fill="#e8c84a" stroke="none" cx="148" cy="134" r="3"/>
<circle fill="#e8c84a" stroke="none" cx="228" cy="138" r="3.5"/>
<circle fill="#e8c84a" stroke="none" cx="186" cy="150" r="3"/>
<path fill="#7ab04a" d="M120 286 C90 280 78 302 92 316 C108 322 126 306 128 296 Z"/>
<path fill="#7ab04a" d="M240 286 C270 280 282 302 268 316 C252 322 234 306 232 296 Z"/>
<path fill="#8bbf5a" d="M180 200 C220 202 236 240 234 272 C230 300 214 312 180 312 C146 312 130 300 126 272 C124 240 140 202 180 200 Z"/>
<ellipse fill="#2d263c" cx="162" cy="250" rx="9" ry="12"/>
<ellipse fill="#2d263c" cx="198" cy="250" rx="9" ry="12"/>
<ellipse fill="#fff" stroke="none" cx="165" cy="245" rx="3" ry="4"/>
<ellipse fill="#fff" stroke="none" cx="201" cy="245" rx="3" ry="4"/>
<ellipse fill="#f5a8b0" stroke="none" cx="148" cy="268" rx="7" ry="5" opacity="0.8"/>
<ellipse fill="#f5a8b0" stroke="none" cx="212" cy="268" rx="7" ry="5" opacity="0.8"/>
<path d="M170 280 C176 286 184 286 190 280"/>
</g>
</svg>
